	.include "MPlayDef.s"

	.equ	song01_grp, voicegroup000
	.equ	song01_pri, 0
	.equ	song01_rev, 0
	.equ	song01_mvl, 127
	.equ	song01_key, 0
	.equ	song01_tbs, 1
	.equ	song01_exg, 0
	.equ	song01_cmp, 1

	.section .rodata
	.global	song01
	.align	2


@**************** Track 1 (Midi-Chn.0) ****************@

song01_001:
@  #01 @000   ----------------------------------------
 .byte   KEYSH , song01_key+0
 .byte   TEMPO , 124*song01_tbs/2
 .byte   VOICE , 30
 .byte   VOL , 82*song01_mvl/mxv
 .byte   PAN , c_v+26
 .byte   N96 ,Dn1 ,v064
 .byte   N96 ,Dn2
 .byte   N96 ,An1
 .byte   W96
@  #01 @001   ----------------------------------------
Label_545676:
 .byte   N96 ,As1 ,v064
 .byte   N96 ,Fn2
 .byte   N96 ,As2
 .byte   W96
 .byte   PEND 
@  #01 @002   ----------------------------------------
Label_54567F:
 .byte   N96 ,Gn1 ,v064
 .byte   N96 ,Dn2
 .byte   N96 ,Gn2
 .byte   W96
 .byte   PEND 
@  #01 @003   ----------------------------------------
Label_545688:
 .byte   N12 ,Fn2 ,v064
 .byte   N12 ,Cn2
 .byte   N12 ,Fn1
 .byte   W12
 .byte   Fn2
 .byte   N12 ,Cn2
 .byte   N12 ,Fn1
 .byte   W36
 .byte   Ds2
 .byte   N12 ,As1
 .byte   N12 ,Ds1
 .byte   W12
 .byte   Ds2
 .byte   N12 ,As1
 .byte   N12 ,Ds1
 .byte   W36
 .byte   PEND 
@  #01 @004   ----------------------------------------
Label_5456A3:
 .byte   N96 ,Dn1 ,v064
 .byte   N96 ,Dn2
 .byte   N96 ,An1
 .byte   W96
 .byte   PEND 
@  #01 @005   ----------------------------------------
 .byte   PATT
  .word Label_545676
@  #01 @006   ----------------------------------------
 .byte   PATT
  .word Label_54567F
@  #01 @007   ----------------------------------------
 .byte   N12 ,Fn1 ,v064
 .byte   N12 ,Cn2
 .byte   W12
 .byte   Fn1
 .byte   N12 ,Cn2
 .byte   W12
 .byte   Fn1
 .byte   N12 ,Cn2
 .byte   W12
 .byte   Fn1
 .byte   N12 ,Cn2
 .byte   W12
 .byte   Ds1
 .byte   N12 ,As1
 .byte   W12
 .byte   Ds1
 .byte   N12 ,As1
 .byte   W12
 .byte   Ds1
 .byte   N12 ,As1
 .byte   W12
 .byte   Ds1
 .byte   N12 ,As1
 .byte   W12
@  #01 @008   ----------------------------------------
 .byte   W96
@  #01 @009   ----------------------------------------
 .byte   W96
@  #01 @010   ----------------------------------------
 .byte   W96
@  #01 @011   ----------------------------------------
 .byte   W96
@  #01 @012   ----------------------------------------
Label_5456DC:
 .byte   W96
@  #01 @013   ----------------------------------------
 .byte   W96
@  #01 @014   ----------------------------------------
 .byte   W96
@  #01 @015   ----------------------------------------
 .byte   W96
@  #01 @016   ----------------------------------------
 .byte   W96
@  #01 @017   ----------------------------------------
 .byte   W96
@  #01 @018   ----------------------------------------
 .byte   W96
@  #01 @019   ----------------------------------------
 .byte   W96
@  #01 @020   ----------------------------------------
 .byte   W96
@  #01 @021   ----------------------------------------
 .byte   W96
@  #01 @022   ----------------------------------------
 .byte   W96
@  #01 @023   ----------------------------------------
 .byte   W96
@  #01 @024   ----------------------------------------
 .byte   W96
@  #01 @025   ----------------------------------------
 .byte   W96
@  #01 @026   ----------------------------------------
 .byte   W96
@  #01 @027   ----------------------------------------
 .byte   W96
@  #01 @028   ----------------------------------------
Label_5456EC:
 .byte   N12 ,Dn2 ,v064
 .byte   W12
 .byte   Dn2
 .byte   W12
 .byte   Cn2
 .byte   W12
 .byte   Dn2
 .byte   W48
 .byte   Cn2
 .byte   W12
 .byte   PEND 
@  #01 @029   ----------------------------------------
Label_5456F9:
 .byte   N12 ,Dn2 ,v064
 .byte   W12
 .byte   Cn2
 .byte   W12
 .byte   Dn2
 .byte   W12
 .byte   Cn2
 .byte   W60
 .byte   PEND 
@  #01 @030   ----------------------------------------
 .byte   PATT
  .word Label_5456EC
@  #01 @031   ----------------------------------------
 .byte   N12 ,Dn2 ,v064
 .byte   W12
 .byte   Cn2
 .byte   W12
 .byte   Dn2
 .byte   W12
 .byte   Cn2
 .byte   W12
 .byte   N48 ,Gn2
 .byte   W48
@  #01 @032   ----------------------------------------
 .byte   PATT
  .word Label_5456EC
@  #01 @033   ----------------------------------------
 .byte   PATT
  .word Label_5456F9
@  #01 @034   ----------------------------------------
Label_545720:
 .byte   N12 ,Dn2 ,v064
 .byte   W12
 .byte   Dn2
 .byte   W12
 .byte   Cn2
 .byte   W12
 .byte   Dn2
 .byte   W60
 .byte   PEND 
@  #01 @035   ----------------------------------------
 .byte   W96
@  #01 @036   ----------------------------------------
 .byte   PATT
  .word Label_5456A3
@  #01 @037   ----------------------------------------
 .byte   PATT
  .word Label_545676
@  #01 @038   ----------------------------------------
 .byte   PATT
  .word Label_54567F
@  #01 @039   ----------------------------------------
 .byte   PATT
  .word Label_545688
@  #01 @040   ----------------------------------------
 .byte   PATT
  .word Label_5456A3
@  #01 @041   ----------------------------------------
 .byte   PATT
  .word Label_545676
@  #01 @042   ----------------------------------------
 .byte   PATT
  .word Label_54567F
@  #01 @043   ----------------------------------------
 .byte   PATT
  .word Label_545688
@  #01 @044   ----------------------------------------
 .byte   PATT
  .word Label_5456A3
@  #01 @045   ----------------------------------------
 .byte   PATT
  .word Label_545676
@  #01 @046   ----------------------------------------
 .byte   PATT
  .word Label_54567F
@  #01 @047   ----------------------------------------
 .byte   PATT
  .word Label_545688
@  #01 @048   ----------------------------------------
 .byte   PATT
  .word Label_5456A3
@  #01 @049   ----------------------------------------
 .byte   PATT
  .word Label_545676
@  #01 @050   ----------------------------------------
 .byte   PATT
  .word Label_54567F
@  #01 @051   ----------------------------------------
Label_545777:
 .byte   N48 ,Fn2 ,v064
 .byte   N48 ,Cn2
 .byte   N48 ,Fn1
 .byte   W48
 .byte   Ds2
 .byte   N48 ,As1
 .byte   N48 ,Ds1
 .byte   W48
 .byte   PEND 
@  #01 @052   ----------------------------------------
 .byte   TIE ,Dn2 ,v045
 .byte   W96
@  #01 @053   ----------------------------------------
 .byte   W96
@  #01 @054   ----------------------------------------
 .byte   W96
@  #01 @055   ----------------------------------------
 .byte   W96
@  #01 @056   ----------------------------------------
 .byte   EOT
 .byte   W96
@  #01 @057   ----------------------------------------
 .byte   W96
@  #01 @058   ----------------------------------------
 .byte   W96
@  #01 @059   ----------------------------------------
 .byte   W96
@  #01 @060   ----------------------------------------
 .byte   N12 ,Dn1 ,v064
 .byte   N12 ,An1
 .byte   N12 ,Cs2
 .byte   W12
 .byte   Dn1
 .byte   N12 ,An1
 .byte   N12 ,Dn2
 .byte   W24
 .byte   Dn1
 .byte   N12 ,An1
 .byte   N12 ,Dn2
 .byte   W60
@  #01 @061   ----------------------------------------
 .byte   W96
@  #01 @062   ----------------------------------------
 .byte   W96
@  #01 @063   ----------------------------------------
 .byte   W60
 .byte   Fn1
 .byte   N12 ,Fn2
 .byte   N12 ,Cn2
 .byte   W12
 .byte   N06 ,As1
 .byte   N06 ,Ds2
 .byte   N06 ,Ds1
 .byte   W24
@  #01 @064   ----------------------------------------
Label_5457B6:
 .byte   N12 ,Dn1 ,v064
 .byte   N12 ,An1
 .byte   N12 ,Dn2
 .byte   W12
 .byte   Dn1
 .byte   N12 ,An1
 .byte   N12 ,Dn2
 .byte   W24
 .byte   Dn1
 .byte   N12 ,An1
 .byte   N12 ,Dn2
 .byte   W60
 .byte   PEND 
@  #01 @065   ----------------------------------------
 .byte   W96
@  #01 @066   ----------------------------------------
 .byte   W96
@  #01 @067   ----------------------------------------
Label_5457CD:
 .byte   N12 ,Fn1 ,v064
 .byte   N12 ,Fn2
 .byte   N12 ,Cn2
 .byte   W12
 .byte   As1
 .byte   N12 ,Ds2
 .byte   N12 ,Ds1
 .byte   W12
 .byte   Dn1
 .byte   N12 ,An1
 .byte   N12 ,Dn2
 .byte   W36
 .byte   Fn1
 .byte   N12 ,Fn2
 .byte   N12 ,Cn2
 .byte   W12
 .byte   N06 ,As1
 .byte   N06 ,Ds2
 .byte   N06 ,Ds1
 .byte   W24
 .byte   PEND 
@  #01 @068   ----------------------------------------
 .byte   PATT
  .word Label_5457B6
@  #01 @069   ----------------------------------------
 .byte   W96
@  #01 @070   ----------------------------------------
 .byte   W96
@  #01 @071   ----------------------------------------
 .byte   PATT
  .word Label_5457CD
@  #01 @072   ----------------------------------------
 .byte   PATT
  .word Label_5457B6
@  #01 @073   ----------------------------------------
 .byte   PATT
  .word Label_5457B6
@  #01 @074   ----------------------------------------
 .byte   PATT
  .word Label_5457B6
@  #01 @075   ----------------------------------------
 .byte   N96 ,Cn1 ,v064
 .byte   N96 ,Gn1
 .byte   N96 ,Cn2
 .byte   W96
@  #01 @076   ----------------------------------------
 .byte   PATT
  .word Label_5456A3
@  #01 @077   ----------------------------------------
 .byte   PATT
  .word Label_545676
@  #01 @078   ----------------------------------------
 .byte   PATT
  .word Label_54567F
@  #01 @079   ----------------------------------------
 .byte   PATT
  .word Label_545688
@  #01 @080   ----------------------------------------
 .byte   PATT
  .word Label_5456A3
@  #01 @081   ----------------------------------------
 .byte   PATT
  .word Label_545676
@  #01 @082   ----------------------------------------
 .byte   PATT
  .word Label_54567F
@  #01 @083   ----------------------------------------
 .byte   PATT
  .word Label_545688
@  #01 @084   ----------------------------------------
 .byte   PATT
  .word Label_5456A3
@  #01 @085   ----------------------------------------
 .byte   PATT
  .word Label_545676
@  #01 @086   ----------------------------------------
 .byte   PATT
  .word Label_54567F
@  #01 @087   ----------------------------------------
 .byte   PATT
  .word Label_545777
@  #01 @088   ----------------------------------------
 .byte   PATT
  .word Label_5456A3
@  #01 @089   ----------------------------------------
 .byte   PATT
  .word Label_545676
@  #01 @090   ----------------------------------------
 .byte   PATT
  .word Label_54567F
@  #01 @091   ----------------------------------------
 .byte   PATT
  .word Label_545777
@  #01 @092   ----------------------------------------
 .byte   PATT
  .word Label_5456A3
@  #01 @093   ----------------------------------------
 .byte   PATT
  .word Label_545676
@  #01 @094   ----------------------------------------
 .byte   PATT
  .word Label_54567F
@  #01 @095   ----------------------------------------
 .byte   PATT
  .word Label_545688
@  #01 @096   ----------------------------------------
 .byte   PATT
  .word Label_5456A3
@  #01 @097   ----------------------------------------
 .byte   PATT
  .word Label_545676
@  #01 @098   ----------------------------------------
 .byte   PATT
  .word Label_54567F
@  #01 @099   ----------------------------------------
 .byte   PATT
  .word Label_545777
@  #01 @100   ----------------------------------------
 .byte   PATT
  .word Label_5456A3
@  #01 @101   ----------------------------------------
 .byte   PATT
  .word Label_545676
@  #01 @102   ----------------------------------------
 .byte   PATT
  .word Label_54567F
@  #01 @103   ----------------------------------------
 .byte   PATT
  .word Label_545777
@  #01 @104   ----------------------------------------
 .byte   PATT
  .word Label_5456A3
@  #01 @105   ----------------------------------------
 .byte   PATT
  .word Label_545676
@  #01 @106   ----------------------------------------
 .byte   PATT
  .word Label_54567F
@  #01 @107   ----------------------------------------
 .byte   PATT
  .word Label_545777
@  #01 @108   ----------------------------------------
 .byte   TIE ,Dn2 ,v045
 .byte   W96
@  #01 @109   ----------------------------------------
 .byte   W96
@  #01 @110   ----------------------------------------
 .byte   W96
@  #01 @111   ----------------------------------------
 .byte   W96
@  #01 @112   ----------------------------------------
 .byte   EOT
 .byte   GOTO
  .word Label_5456DC
 .byte   FINE

@**************** Track 2 (Midi-Chn.1) ****************@

song01_002:
@  #02 @000   ----------------------------------------
 .byte   KEYSH , song01_key+0
 .byte   VOICE , 30
 .byte   VOL , 85*song01_mvl/mxv
 .byte   W96
@  #02 @001   ----------------------------------------
 .byte   W96
@  #02 @002   ----------------------------------------
 .byte   W96
@  #02 @003   ----------------------------------------
 .byte   W96
@  #02 @004   ----------------------------------------
 .byte   W96
@  #02 @005   ----------------------------------------
 .byte   W96
@  #02 @006   ----------------------------------------
 .byte   W96
@  #02 @007   ----------------------------------------
 .byte   W96
@  #02 @008   ----------------------------------------
 .byte   W96
@  #02 @009   ----------------------------------------
 .byte   W96
@  #02 @010   ----------------------------------------
 .byte   W96
@  #02 @011   ----------------------------------------
 .byte   W96
@  #02 @012   ----------------------------------------
Label_545DAE:
 .byte   W96
@  #02 @013   ----------------------------------------
 .byte   W96
@  #02 @014   ----------------------------------------
 .byte   W96
@  #02 @015   ----------------------------------------
 .byte   W96
@  #02 @016   ----------------------------------------
 .byte   W96
@  #02 @017   ----------------------------------------
 .byte   W96
@  #02 @018   ----------------------------------------
 .byte   W96
@  #02 @019   ----------------------------------------
 .byte   W96
@  #02 @020   ----------------------------------------
 .byte   W96
@  #02 @021   ----------------------------------------
 .byte   W96
@  #02 @022   ----------------------------------------
 .byte   W96
@  #02 @023   ----------------------------------------
 .byte   W96
@  #02 @024   ----------------------------------------
 .byte   W96
@  #02 @025   ----------------------------------------
 .byte   W96
@  #02 @026   ----------------------------------------
 .byte   W96
@  #02 @027   ----------------------------------------
 .byte   W96
@  #02 @028   ----------------------------------------
 .byte   W96
@  #02 @029   ----------------------------------------
 .byte   W96
@  #02 @030   ----------------------------------------
 .byte   W96
@  #02 @031   ----------------------------------------
 .byte   W96
@  #02 @032   ----------------------------------------
 .byte   W96
@  #02 @033   ----------------------------------------
 .byte   W96
@  #02 @034   ----------------------------------------
 .byte   W96
@  #02 @035   ----------------------------------------
 .byte   W96
@  #02 @036   ----------------------------------------
 .byte   W96
@  #02 @037   ----------------------------------------
 .byte   W96
@  #02 @038   ----------------------------------------
 .byte   W96
@  #02 @039   ----------------------------------------
 .byte   W96
@  #02 @040   ----------------------------------------
 .byte   W96
@  #02 @041   ----------------------------------------
 .byte   W96
@  #02 @042   ----------------------------------------
 .byte   W96
@  #02 @043   ----------------------------------------
 .byte   W96
@  #02 @044   ----------------------------------------
 .byte   W96
@  #02 @045   ----------------------------------------
 .byte   W96
@  #02 @046   ----------------------------------------
 .byte   W96
@  #02 @047   ----------------------------------------
 .byte   W96
@  #02 @048   ----------------------------------------
 .byte   W96
@  #02 @049   ----------------------------------------
 .byte   W96
@  #02 @050   ----------------------------------------
 .byte   W96
@  #02 @051   ----------------------------------------
 .byte   W96
@  #02 @052   ----------------------------------------
 .byte   W96
@  #02 @053   ----------------------------------------
 .byte   W96
@  #02 @054   ----------------------------------------
 .byte   W96
@  #02 @055   ----------------------------------------
 .byte   W96
@  #02 @056   ----------------------------------------
 .byte   W96
@  #02 @057   ----------------------------------------
 .byte   W96
@  #02 @058   ----------------------------------------
 .byte   W96
@  #02 @059   ----------------------------------------
 .byte   W96
@  #02 @060   ----------------------------------------
 .byte   W96
@  #02 @061   ----------------------------------------
 .byte   W96
@  #02 @062   ----------------------------------------
 .byte   W96
@  #02 @063   ----------------------------------------
 .byte   W96
@  #02 @064   ----------------------------------------
 .byte   W96
@  #02 @065   ----------------------------------------
 .byte   W96
@  #02 @066   ----------------------------------------
 .byte   W96
@  #02 @067   ----------------------------------------
 .byte   W96
@  #02 @068   ----------------------------------------
 .byte   W96
@  #02 @069   ----------------------------------------
 .byte   W96
@  #02 @070   ----------------------------------------
 .byte   W96
@  #02 @071   ----------------------------------------
 .byte   W96
@  #02 @072   ----------------------------------------
 .byte   W96
@  #02 @073   ----------------------------------------
 .byte   W96
@  #02 @074   ----------------------------------------
 .byte   W96
@  #02 @075   ----------------------------------------
 .byte   W96
@  #02 @076   ----------------------------------------
 .byte   W96
@  #02 @077   ----------------------------------------
 .byte   W96
@  #02 @078   ----------------------------------------
 .byte   W96
@  #02 @079   ----------------------------------------
 .byte   W96
@  #02 @080   ----------------------------------------
 .byte   W96
@  #02 @081   ----------------------------------------
 .byte   W96
@  #02 @082   ----------------------------------------
 .byte   W96
@  #02 @083   ----------------------------------------
 .byte   W96
@  #02 @084   ----------------------------------------
 .byte   W96
@  #02 @085   ----------------------------------------
 .byte   W96
@  #02 @086   ----------------------------------------
 .byte   W96
@  #02 @087   ----------------------------------------
 .byte   W96
@  #02 @088   ----------------------------------------
 .byte   W96
@  #02 @089   ----------------------------------------
 .byte   W96
@  #02 @090   ----------------------------------------
 .byte   W96
@  #02 @091   ----------------------------------------
 .byte   W96
@  #02 @092   ----------------------------------------
 .byte   N96 ,Dn4 ,v064
 .byte   W96
@  #02 @093   ----------------------------------------
Label_545E02:
 .byte   N24 ,Fn4 ,v064
 .byte   W24
 .byte   En4
 .byte   W24
 .byte   Dn4
 .byte   W24
 .byte   Fn4
 .byte   W24
 .byte   PEND 
@  #02 @094   ----------------------------------------
 .byte   N96 ,An3
 .byte   W96
@  #02 @095   ----------------------------------------
Label_545E10:
 .byte   N24 ,As3 ,v064
 .byte   W24
 .byte   An3
 .byte   W24
 .byte   Ds4
 .byte   W24
 .byte   Dn4
 .byte   W24
 .byte   PEND 
@  #02 @096   ----------------------------------------
Label_545E1B:
 .byte   N48 ,Fs3 ,v064
 .byte   W48
 .byte   N24 ,Gn3
 .byte   W24
 .byte   An3
 .byte   W24
 .byte   PEND 
@  #02 @097   ----------------------------------------
 .byte   N96 ,Dn3
 .byte   W96
@  #02 @098   ----------------------------------------
Label_545E28:
 .byte   N48 ,Fn3 ,v064
 .byte   W48
 .byte   En3
 .byte   W48
 .byte   PEND 
@  #02 @099   ----------------------------------------
Label_545E2F:
 .byte   N48 ,As3 ,v064
 .byte   W48
 .byte   An3
 .byte   W48
 .byte   PEND 
@  #02 @100   ----------------------------------------
 .byte   N96 ,Dn4
 .byte   W96
@  #02 @101   ----------------------------------------
 .byte   PATT
  .word Label_545E02
@  #02 @102   ----------------------------------------
 .byte   N96 ,An3 ,v064
 .byte   W96
@  #02 @103   ----------------------------------------
 .byte   PATT
  .word Label_545E10
@  #02 @104   ----------------------------------------
 .byte   PATT
  .word Label_545E1B
@  #02 @105   ----------------------------------------
 .byte   N96 ,Dn3 ,v064
 .byte   W96
@  #02 @106   ----------------------------------------
 .byte   PATT
  .word Label_545E28
@  #02 @107   ----------------------------------------
 .byte   PATT
  .word Label_545E2F
@  #02 @108   ----------------------------------------
 .byte   W96
@  #02 @109   ----------------------------------------
 .byte   W96
@  #02 @110   ----------------------------------------
 .byte   W96
@  #02 @111   ----------------------------------------
 .byte   W96
@  #02 @112   ----------------------------------------
 .byte   GOTO
  .word Label_545DAE
 .byte   FINE

@**************** Track 3 (Midi-Chn.2) ****************@

song01_003:
@  #03 @000   ----------------------------------------
 .byte   KEYSH , song01_key+0
 .byte   VOICE , 0
 .byte   N24 ,Dn3 ,v064
 .byte   VOL , 72*song01_mvl/mxv
 .byte   W48
 .byte   N24
 .byte   W48
@  #03 @001   ----------------------------------------
Label_01002210:
 .byte   N24 ,Fn3 ,v064
 .byte   W48
 .byte   Fn3
 .byte   W48
 .byte   PEND 
@  #03 @002   ----------------------------------------
Label_01002217:
 .byte   N24 ,Gn2 ,v064
 .byte   W48
 .byte   Gn2
 .byte   W48
 .byte   PEND 
@  #03 @003   ----------------------------------------
 .byte   W96
@  #03 @004   ----------------------------------------
Label_0100221F:
 .byte   N24 ,Dn3 ,v064
 .byte   W48
 .byte   Dn3
 .byte   W48
 .byte   PEND 
@  #03 @005   ----------------------------------------
 .byte   PATT
  .word Label_01002210
@  #03 @006   ----------------------------------------
 .byte   PATT
  .word Label_01002217
@  #03 @007   ----------------------------------------
 .byte   W96
@  #03 @008   ----------------------------------------
Label_01002231:
 .byte   N12 ,An3 ,v064
 .byte   N24 ,Dn2
 .byte   W12
 .byte   N12 ,Dn3
 .byte   W12
 .byte   An3
 .byte   W12
 .byte   Dn3
 .byte   W12
 .byte   An3
 .byte   W12
 .byte   Dn3
 .byte   W12
 .byte   An3
 .byte   W12
 .byte   Dn3
 .byte   W12
 .byte   PEND 
@  #03 @009   ----------------------------------------
Label_01002247:
 .byte   N12 ,Fn3 ,v064
 .byte   W12
 .byte   Cn3
 .byte   W12
 .byte   Fn3
 .byte   W12
 .byte   Cn3
 .byte   W12
 .byte   Fn3
 .byte   W12
 .byte   Cn3
 .byte   W12
 .byte   Fn3
 .byte   W12
 .byte   Cn3
 .byte   W12
 .byte   PEND 
@  #03 @010   ----------------------------------------
Label_0100225A:
 .byte   N12 ,En3 ,v064
 .byte   W12
 .byte   An2
 .byte   W12
 .byte   En3
 .byte   W12
 .byte   An2
 .byte   W12
 .byte   En3
 .byte   W12
 .byte   An2
 .byte   W12
 .byte   En3
 .byte   W12
 .byte   An2
 .byte   W12
 .byte   PEND 
@  #03 @011   ----------------------------------------
Label_0100226D:
 .byte   N12 ,Gn3 ,v064
 .byte   W12
 .byte   Cn3
 .byte   W12
 .byte   Gn3
 .byte   W12
 .byte   Cn3
 .byte   W12
 .byte   Gn3
 .byte   W12
 .byte   Cn3
 .byte   W12
 .byte   Gn3
 .byte   W12
 .byte   Cn3
 .byte   W12
 .byte   PEND 
@  #03 @012   ----------------------------------------
Label_01002280:
 .byte   N12 ,An3 ,v064
 .byte   N24 ,Dn2
 .byte   W12
 .byte   N12 ,Dn3
 .byte   W12
 .byte   An3
 .byte   W12
 .byte   Dn3
 .byte   W12
 .byte   An3
 .byte   W12
 .byte   Dn3
 .byte   W12
 .byte   An3
 .byte   W12
 .byte   Dn3
 .byte   W12
@  #03 @013   ----------------------------------------
 .byte   PATT
  .word Label_01002247
@  #03 @014   ----------------------------------------
 .byte   PATT
  .word Label_0100225A
@  #03 @015   ----------------------------------------
 .byte   PATT
  .word Label_0100226D
@  #03 @016   ----------------------------------------
 .byte   PATT
  .word Label_01002231
@  #03 @017   ----------------------------------------
 .byte   PATT
  .word Label_01002247
@  #03 @018   ----------------------------------------
 .byte   PATT
  .word Label_0100225A
@  #03 @019   ----------------------------------------
 .byte   PATT
  .word Label_0100226D
@  #03 @020   ----------------------------------------
 .byte   PATT
  .word Label_01002231
@  #03 @021   ----------------------------------------
 .byte   PATT
  .word Label_01002247
@  #03 @022   ----------------------------------------
 .byte   PATT
  .word Label_0100225A
@  #03 @023   ----------------------------------------
 .byte   PATT
  .word Label_0100226D
@  #03 @024   ----------------------------------------
 .byte   PATT
  .word Label_01002231
@  #03 @025   ----------------------------------------
 .byte   PATT
  .word Label_01002247
@  #03 @026   ----------------------------------------
 .byte   PATT
  .word Label_0100225A
@  #03 @027   ----------------------------------------
 .byte   PATT
  .word Label_0100226D
@  #03 @028   ----------------------------------------
 .byte   PATT
  .word Label_01002231
@  #03 @029   ----------------------------------------
 .byte   PATT
  .word Label_01002247
@  #03 @030   ----------------------------------------
 .byte   PATT
  .word Label_0100225A
@  #03 @031   ----------------------------------------
 .byte   PATT
  .word Label_0100226D
@  #03 @032   ----------------------------------------
 .byte   PATT
  .word Label_01002231
@  #03 @033   ----------------------------------------
 .byte   PATT
  .word Label_01002247
@  #03 @034   ----------------------------------------
 .byte   PATT
  .word Label_0100225A
@  #03 @035   ----------------------------------------
 .byte   W96
@  #03 @036   ----------------------------------------
 .byte   W96
@  #03 @037   ----------------------------------------
 .byte   W96
@  #03 @038   ----------------------------------------
 .byte   W96
@  #03 @039   ----------------------------------------
 .byte   W96
@  #03 @040   ----------------------------------------
 .byte   W96
@  #03 @041   ----------------------------------------
 .byte   W96
@  #03 @042   ----------------------------------------
 .byte   W96
@  #03 @043   ----------------------------------------
 .byte   W96
@  #03 @044   ----------------------------------------
 .byte   W96
@  #03 @045   ----------------------------------------
 .byte   W96
@  #03 @046   ----------------------------------------
 .byte   W96
@  #03 @047   ----------------------------------------
 .byte   W96
@  #03 @048   ----------------------------------------
 .byte   W96
@  #03 @049   ----------------------------------------
 .byte   W96
@  #03 @050   ----------------------------------------
 .byte   W96
@  #03 @051   ----------------------------------------
 .byte   W96
@  #03 @052   ----------------------------------------
 .byte   PATT
  .word Label_01002231
@  #03 @053   ----------------------------------------
 .byte   PATT
  .word Label_01002247
@  #03 @054   ----------------------------------------
 .byte   PATT
  .word Label_0100225A
@  #03 @055   ----------------------------------------
 .byte   PATT
  .word Label_0100226D
@  #03 @056   ----------------------------------------
 .byte   PATT
  .word Label_01002231
@  #03 @057   ----------------------------------------
 .byte   PATT
  .word Label_01002247
@  #03 @058   ----------------------------------------
 .byte   PATT
  .word Label_0100225A
@  #03 @059   ----------------------------------------
 .byte   PATT
  .word Label_0100226D
@  #03 @060   ----------------------------------------
 .byte   PATT
  .word Label_01002231
@  #03 @061   ----------------------------------------
 .byte   PATT
  .word Label_01002247
@  #03 @062   ----------------------------------------
 .byte   PATT
  .word Label_0100225A
@  #03 @063   ----------------------------------------
 .byte   PATT
  .word Label_0100226D
@  #03 @064   ----------------------------------------
 .byte   PATT
  .word Label_01002231
@  #03 @065   ----------------------------------------
 .byte   PATT
  .word Label_01002247
@  #03 @066   ----------------------------------------
 .byte   PATT
  .word Label_0100225A
@  #03 @067   ----------------------------------------
 .byte   PATT
  .word Label_0100226D
@  #03 @068   ----------------------------------------
 .byte   PATT
  .word Label_01002231
@  #03 @069   ----------------------------------------
 .byte   PATT
  .word Label_01002247
@  #03 @070   ----------------------------------------
 .byte   PATT
  .word Label_0100225A
@  #03 @071   ----------------------------------------
 .byte   PATT
  .word Label_0100226D
@  #03 @072   ----------------------------------------
 .byte   PATT
  .word Label_01002231
@  #03 @073   ----------------------------------------
 .byte   PATT
  .word Label_01002247
@  #03 @074   ----------------------------------------
 .byte   PATT
  .word Label_0100225A
@  #03 @075   ----------------------------------------
 .byte   W96
@  #03 @076   ----------------------------------------
 .byte   W96
@  #03 @077   ----------------------------------------
 .byte   W96
@  #03 @078   ----------------------------------------
 .byte   W96
@  #03 @079   ----------------------------------------
 .byte   W96
@  #03 @080   ----------------------------------------
 .byte   W96
@  #03 @081   ----------------------------------------
 .byte   W96
@  #03 @082   ----------------------------------------
 .byte   W96
@  #03 @083   ----------------------------------------
 .byte   W96
@  #03 @084   ----------------------------------------
 .byte   W96
@  #03 @085   ----------------------------------------
 .byte   W96
@  #03 @086   ----------------------------------------
 .byte   W96
@  #03 @087   ----------------------------------------
 .byte   W96
@  #03 @088   ----------------------------------------
 .byte   W96
@  #03 @089   ----------------------------------------
 .byte   W96
@  #03 @090   ----------------------------------------
 .byte   W96
@  #03 @091   ----------------------------------------
 .byte   W96
@  #03 @092   ----------------------------------------
 .byte   PATT
  .word Label_0100221F
@  #03 @093   ----------------------------------------
 .byte   PATT
  .word Label_01002210
@  #03 @094   ----------------------------------------
 .byte   PATT
  .word Label_01002217
@  #03 @095   ----------------------------------------
 .byte   W96
@  #03 @096   ----------------------------------------
 .byte   PATT
  .word Label_0100221F
@  #03 @097   ----------------------------------------
 .byte   PATT
  .word Label_01002210
@  #03 @098   ----------------------------------------
 .byte   PATT
  .word Label_01002217
@  #03 @099   ----------------------------------------
 .byte   W96
@  #03 @100   ----------------------------------------
 .byte   PATT
  .word Label_0100221F
@  #03 @101   ----------------------------------------
 .byte   PATT
  .word Label_01002210
@  #03 @102   ----------------------------------------
 .byte   PATT
  .word Label_01002217
@  #03 @103   ----------------------------------------
 .byte   W96
@  #03 @104   ----------------------------------------
 .byte   PATT
  .word Label_0100221F
@  #03 @105   ----------------------------------------
 .byte   PATT
  .word Label_01002210
@  #03 @106   ----------------------------------------
 .byte   PATT
  .word Label_01002217
@  #03 @107   ----------------------------------------
 .byte   W96
@  #03 @108   ----------------------------------------
 .byte   PATT
  .word Label_01002231
@  #03 @109   ----------------------------------------
 .byte   PATT
  .word Label_01002247
@  #03 @110   ----------------------------------------
 .byte   PATT
  .word Label_0100225A
@  #03 @111   ----------------------------------------
 .byte   PATT
  .word Label_0100226D
@  #03 @112   ----------------------------------------
 .byte   GOTO
  .word Label_01002280
 .byte   FINE

@**************** Track 4 (Midi-Chn.3) ****************@

song01_004:
@  #04 @000   ----------------------------------------
 .byte   KEYSH , song01_key+0
 .byte   VOICE , 34
 .byte   PAN , c_v+20
 .byte   VOL , 46*song01_mvl/mxv
 .byte   N96 ,Dn2 ,v064
 .byte   W96
@  #04 @001   ----------------------------------------
 .byte   As2
 .byte   W96
@  #04 @002   ----------------------------------------
 .byte   Gn2
 .byte   W96
@  #04 @003   ----------------------------------------
Label_5451E0:
 .byte   N12 ,Fn2 ,v051
 .byte   W12
 .byte   Fn2
 .byte   W36
 .byte   Ds2
 .byte   W12
 .byte   Ds2
 .byte   W36
 .byte   PEND 
@  #04 @004   ----------------------------------------
 .byte   N96 ,Dn2 ,v064
 .byte   W96
@  #04 @005   ----------------------------------------
 .byte   As2
 .byte   W96
@  #04 @006   ----------------------------------------
 .byte   Gn2
 .byte   W96
@  #04 @007   ----------------------------------------
 .byte   N12 ,Fn2 ,v051
 .byte   W12
 .byte   Fn2
 .byte   W12
 .byte   Fn2 ,v064
 .byte   W12
 .byte   Fn2
 .byte   W12
 .byte   Ds2 ,v051
 .byte   W12
 .byte   Ds2
 .byte   W12
 .byte   Ds2 ,v064
 .byte   W12
 .byte   Ds2
 .byte   W12
@  #04 @008   ----------------------------------------
 .byte   TIE ,Dn2
 .byte   W96
@  #04 @009   ----------------------------------------
 .byte   W96
@  #04 @010   ----------------------------------------
 .byte   W96
@  #04 @011   ----------------------------------------
Label_54520D:
 .byte   W24
 .byte   EOT
 .byte   Dn2
 .byte   N24 ,En3 ,v064
 .byte   W24
 .byte   Fn3
 .byte   W24
 .byte   En3
 .byte   W24
 .byte   PEND 
@  #04 @012   ----------------------------------------
Label_545219:
 .byte   TIE ,Dn2 ,v064
 .byte   W96
@  #04 @013   ----------------------------------------
 .byte   W96
@  #04 @014   ----------------------------------------
 .byte   W96
@  #04 @015   ----------------------------------------
 .byte   PATT
  .word Label_54520D
@  #04 @016   ----------------------------------------
 .byte   TIE ,Dn2 ,v064
 .byte   W96
@  #04 @017   ----------------------------------------
 .byte   W96
@  #04 @018   ----------------------------------------
 .byte   W96
@  #04 @019   ----------------------------------------
 .byte   PATT
  .word Label_54520D
@  #04 @020   ----------------------------------------
 .byte   TIE ,Dn2 ,v064
 .byte   W96
@  #04 @021   ----------------------------------------
 .byte   W96
@  #04 @022   ----------------------------------------
 .byte   W96
@  #04 @023   ----------------------------------------
 .byte   PATT
  .word Label_54520D
@  #04 @024   ----------------------------------------
 .byte   TIE ,Dn2 ,v064
 .byte   W96
@  #04 @025   ----------------------------------------
 .byte   W96
@  #04 @026   ----------------------------------------
 .byte   W96
@  #04 @027   ----------------------------------------
 .byte   PATT
  .word Label_54520D
@  #04 @028   ----------------------------------------
 .byte   PATT
  .word Label_5456EC
@  #04 @029   ----------------------------------------
 .byte   PATT
  .word Label_5456F9
@  #04 @030   ----------------------------------------
 .byte   PATT
  .word Label_5456EC
@  #04 @031   ----------------------------------------
 .byte   N12 ,Dn2 ,v064
 .byte   W12
 .byte   Cn2
 .byte   W12
 .byte   Dn2
 .byte   W12
 .byte   N36 ,Cn2
 .byte   W60
@  #04 @032   ----------------------------------------
 .byte   PATT
  .word Label_5456EC
@  #04 @033   ----------------------------------------
 .byte   PATT
  .word Label_5456F9
@  #04 @034   ----------------------------------------
 .byte   PATT
  .word Label_545720
@  #04 @035   ----------------------------------------
 .byte   W96
@  #04 @036   ----------------------------------------
 .byte   N96 ,Dn2 ,v064
 .byte   W96
@  #04 @037   ----------------------------------------
 .byte   As2
 .byte   W96
@  #04 @038   ----------------------------------------
 .byte   Gn2
 .byte   W96
@  #04 @039   ----------------------------------------
 .byte   PATT
  .word Label_5451E0
@  #04 @040   ----------------------------------------
 .byte   N96 ,Dn2 ,v064
 .byte   W96
@  #04 @041   ----------------------------------------
 .byte   As2
 .byte   W96
@  #04 @042   ----------------------------------------
 .byte   Gn2
 .byte   W96
@  #04 @043   ----------------------------------------
 .byte   PATT
  .word Label_5451E0
@  #04 @044   ----------------------------------------
 .byte   N96 ,Dn2 ,v064
 .byte   W96
@  #04 @045   ----------------------------------------
 .byte   As2
 .byte   W96
@  #04 @046   ----------------------------------------
 .byte   Gn2
 .byte   W96
@  #04 @047   ----------------------------------------
 .byte   PATT
  .word Label_5451E0
@  #04 @048   ----------------------------------------
 .byte   N96 ,Dn2 ,v064
 .byte   W96
@  #04 @049   ----------------------------------------
 .byte   As2
 .byte   W96
@  #04 @050   ----------------------------------------
 .byte   Gn2
 .byte   W96
@  #04 @051   ----------------------------------------
Label_54529E:
 .byte   N48 ,Fn2 ,v051
 .byte   W48
 .byte   Ds2
 .byte   W48
 .byte   PEND 
@  #04 @052   ----------------------------------------
 .byte   W96
@  #04 @053   ----------------------------------------
 .byte   W96
@  #04 @054   ----------------------------------------
 .byte   W96
@  #04 @055   ----------------------------------------
 .byte   W96
@  #04 @056   ----------------------------------------
 .byte   W96
@  #04 @057   ----------------------------------------
 .byte   W96
@  #04 @058   ----------------------------------------
 .byte   W96
@  #04 @059   ----------------------------------------
 .byte   W96
@  #04 @060   ----------------------------------------
Label_5452AD:
 .byte   N12 ,Dn2 ,v064
 .byte   W12
 .byte   Dn2
 .byte   W24
 .byte   Dn2
 .byte   W60
 .byte   PEND 
@  #04 @061   ----------------------------------------
 .byte   W96
@  #04 @062   ----------------------------------------
 .byte   W96
@  #04 @063   ----------------------------------------
 .byte   W60
 .byte   Fn2
 .byte   W12
 .byte   N06 ,Ds2
 .byte   W24
@  #04 @064   ----------------------------------------
 .byte   PATT
  .word Label_5452AD
@  #04 @065   ----------------------------------------
 .byte   W96
@  #04 @066   ----------------------------------------
 .byte   W96
@  #04 @067   ----------------------------------------
Label_5452C5:
 .byte   N12 ,Fn2 ,v064
 .byte   W12
 .byte   Ds2
 .byte   W12
 .byte   Dn2
 .byte   W36
 .byte   Fn2
 .byte   W12
 .byte   N06 ,Ds2
 .byte   W24
 .byte   PEND 
@  #04 @068   ----------------------------------------
 .byte   PATT
  .word Label_5452AD
@  #04 @069   ----------------------------------------
 .byte   W96
@  #04 @070   ----------------------------------------
 .byte   W96
@  #04 @071   ----------------------------------------
 .byte   PATT
  .word Label_5452C5
@  #04 @072   ----------------------------------------
 .byte   PATT
  .word Label_5452AD
@  #04 @073   ----------------------------------------
 .byte   PATT
  .word Label_5452AD
@  #04 @074   ----------------------------------------
 .byte   PATT
  .word Label_5452AD
@  #04 @075   ----------------------------------------
 .byte   N96 ,Cn2 ,v064
 .byte   W96
@  #04 @076   ----------------------------------------
 .byte   Dn2
 .byte   W96
@  #04 @077   ----------------------------------------
 .byte   As2
 .byte   W96
@  #04 @078   ----------------------------------------
 .byte   Gn2
 .byte   W96
@  #04 @079   ----------------------------------------
 .byte   PATT
  .word Label_5451E0
@  #04 @080   ----------------------------------------
 .byte   N96 ,Dn2 ,v064
 .byte   W96
@  #04 @081   ----------------------------------------
 .byte   As2
 .byte   W96
@  #04 @082   ----------------------------------------
 .byte   Gn2
 .byte   W96
@  #04 @083   ----------------------------------------
 .byte   PATT
  .word Label_5451E0
@  #04 @084   ----------------------------------------
 .byte   N96 ,Dn2 ,v064
 .byte   W96
@  #04 @085   ----------------------------------------
 .byte   As2
 .byte   W96
@  #04 @086   ----------------------------------------
 .byte   Gn2
 .byte   W96
@  #04 @087   ----------------------------------------
 .byte   PATT
  .word Label_5451E0
@  #04 @088   ----------------------------------------
 .byte   N96 ,Dn2 ,v064
 .byte   W96
@  #04 @089   ----------------------------------------
 .byte   As2
 .byte   W96
@  #04 @090   ----------------------------------------
 .byte   Gn2
 .byte   W96
@  #04 @091   ----------------------------------------
 .byte   PATT
  .word Label_54529E
@  #04 @092   ----------------------------------------
 .byte   N96 ,Dn2 ,v064
 .byte   W96
@  #04 @093   ----------------------------------------
 .byte   As2
 .byte   W96
@  #04 @094   ----------------------------------------
 .byte   Gn2
 .byte   W96
@  #04 @095   ----------------------------------------
 .byte   PATT
  .word Label_5451E0
@  #04 @096   ----------------------------------------
 .byte   N96 ,Dn2 ,v064
 .byte   W96
@  #04 @097   ----------------------------------------
 .byte   As2
 .byte   W96
@  #04 @098   ----------------------------------------
 .byte   Gn2
 .byte   W96
@  #04 @099   ----------------------------------------
 .byte   PATT
  .word Label_54529E
@  #04 @100   ----------------------------------------
 .byte   N96 ,Dn2 ,v064
 .byte   W96
@  #04 @101   ----------------------------------------
 .byte   As2
 .byte   W96
@  #04 @102   ----------------------------------------
 .byte   Gn2
 .byte   W96
@  #04 @103   ----------------------------------------
 .byte   PATT
  .word Label_54529E
@  #04 @104   ----------------------------------------
 .byte   N96 ,Dn2 ,v064
 .byte   W96
@  #04 @105   ----------------------------------------
 .byte   As2
 .byte   W96
@  #04 @106   ----------------------------------------
 .byte   Gn2
 .byte   W96
@  #04 @107   ----------------------------------------
 .byte   PATT
  .word Label_54529E
@  #04 @108   ----------------------------------------
 .byte   TIE ,Dn2 ,v064
 .byte   W96
@  #04 @109   ----------------------------------------
 .byte   W96
@  #04 @110   ----------------------------------------
 .byte   W96
@  #04 @111   ----------------------------------------
 .byte   PATT
  .word Label_54520D
@  #04 @112   ----------------------------------------
 .byte   GOTO
  .word Label_545219
 .byte   FINE

@**************** Track 5 (Midi-Chn.4) ****************@

song01_005:
@  #05 @000   ----------------------------------------
 .byte   KEYSH , song01_key+0
 .byte   VOICE , 124
 .byte   PAN , c_v+4
 .byte   VOL , 38*song01_mvl/mxv
 .byte   N24 ,Cn1 ,v095
 .byte   N24 ,Gn2 ,v064
 .byte   W24
 .byte   As1
 .byte   W24
 .byte   As1
 .byte   N24 ,En1 ,v095
 .byte   W24
 .byte   As1 ,v064
 .byte   W24
@  #05 @001   ----------------------------------------
Label_0100240D:
 .byte   N24 ,As1 ,v064
 .byte   N24 ,Cn1 ,v095
 .byte   W24
 .byte   As1 ,v064
 .byte   W24
 .byte   As1
 .byte   N24 ,En1 ,v095
 .byte   W24
 .byte   As1 ,v064
 .byte   W24
 .byte   PEND 
@  #05 @002   ----------------------------------------
 .byte   PATT
  .word Label_0100240D
@  #05 @003   ----------------------------------------
Label_01002425:
 .byte   N12 ,Bn1 ,v045
 .byte   N12 ,An1
 .byte   W12
 .byte   Bn1
 .byte   N12 ,An1
 .byte   W36
 .byte   An1
 .byte   N12 ,Gn1
 .byte   W12
 .byte   An1
 .byte   N12 ,Gn1
 .byte   W36
 .byte   PEND 
@  #05 @004   ----------------------------------------
Label_01002438:
 .byte   N24 ,Cn1 ,v095
 .byte   N24 ,Gn2 ,v064
 .byte   W24
 .byte   As1
 .byte   W24
 .byte   As1
 .byte   N24 ,En1 ,v095
 .byte   W24
 .byte   As1 ,v064
 .byte   W24
 .byte   PEND 
@  #05 @005   ----------------------------------------
 .byte   PATT
  .word Label_0100240D
@  #05 @006   ----------------------------------------
 .byte   PATT
  .word Label_0100240D
@  #05 @007   ----------------------------------------
 .byte   N12 ,Bn1 ,v045
 .byte   N12 ,An1
 .byte   W12
 .byte   Bn1
 .byte   N12 ,An1
 .byte   W12
 .byte   Bn1
 .byte   N12 ,An1
 .byte   W12
 .byte   Bn1
 .byte   N12 ,An1
 .byte   W12
 .byte   An1
 .byte   N12 ,Gn1
 .byte   W12
 .byte   An1
 .byte   N12 ,Gn1
 .byte   W12
 .byte   An1
 .byte   N12 ,Gn1
 .byte   W12
 .byte   An1
 .byte   N12 ,Gn1
 .byte   W12
@  #05 @008   ----------------------------------------
 .byte   W96
@  #05 @009   ----------------------------------------
 .byte   W96
@  #05 @010   ----------------------------------------
 .byte   W96
@  #05 @011   ----------------------------------------
 .byte   W96
@  #05 @012   ----------------------------------------
Label_0100247A:
 .byte   W96
@  #05 @013   ----------------------------------------
 .byte   W96
@  #05 @014   ----------------------------------------
 .byte   W96
@  #05 @015   ----------------------------------------
 .byte   W96
@  #05 @016   ----------------------------------------
 .byte   W96
@  #05 @017   ----------------------------------------
 .byte   W96
@  #05 @018   ----------------------------------------
 .byte   W96
@  #05 @019   ----------------------------------------
 .byte   W96
@  #05 @020   ----------------------------------------
 .byte   W96
@  #05 @021   ----------------------------------------
 .byte   W96
@  #05 @022   ----------------------------------------
 .byte   W96
@  #05 @023   ----------------------------------------
 .byte   W96
@  #05 @024   ----------------------------------------
 .byte   W96
@  #05 @025   ----------------------------------------
 .byte   W96
@  #05 @026   ----------------------------------------
 .byte   W96
@  #05 @027   ----------------------------------------
 .byte   W96
@  #05 @028   ----------------------------------------
Label_0100248A:
 .byte   N48 ,As1 ,v064
 .byte   W48
 .byte   As1
 .byte   W48
 .byte   PEND 
@  #05 @029   ----------------------------------------
 .byte   PATT
  .word Label_0100248A
@  #05 @030   ----------------------------------------
Label_01002496:
 .byte   N48 ,As1 ,v064
 .byte   N48 ,Cn1 ,v095
 .byte   W48
 .byte   As1 ,v064
 .byte   N48 ,Cn1 ,v095
 .byte   W48
 .byte   PEND 
@  #05 @031   ----------------------------------------
 .byte   PATT
  .word Label_01002496
@  #05 @032   ----------------------------------------
 .byte   N48 ,As1 ,v064
 .byte   N24 ,Cn1 ,v095
 .byte   W24
 .byte   Cn1
 .byte   W24
 .byte   N48 ,As1 ,v064
 .byte   N24 ,Cn1 ,v095
 .byte   W24
 .byte   Cn1
 .byte   W24
@  #05 @033   ----------------------------------------
 .byte   Cn1
 .byte   N24 ,En1
 .byte   W24
 .byte   Cn1
 .byte   N24 ,Fn1 ,v064
 .byte   W24
 .byte   Cn1 ,v095
 .byte   N24 ,Fn1 ,v064
 .byte   W24
 .byte   Cn1 ,v095
 .byte   N24 ,Fn1 ,v064
 .byte   W24
@  #05 @034   ----------------------------------------
 .byte   Cn1 ,v095
 .byte   N24 ,Fn1 ,v064
 .byte   W24
 .byte   Cn1 ,v095
 .byte   N24 ,Fn1 ,v064
 .byte   W24
 .byte   N12 ,Cn1 ,v095
 .byte   N12 ,En1
 .byte   W12
 .byte   En1
 .byte   W12
 .byte   Cn1
 .byte   N12 ,En1
 .byte   W12
 .byte   En1
 .byte   W12
@  #05 @035   ----------------------------------------
 .byte   W96
@  #05 @036   ----------------------------------------
 .byte   PATT
  .word Label_01002438
@  #05 @037   ----------------------------------------
 .byte   PATT
  .word Label_0100240D
@  #05 @038   ----------------------------------------
 .byte   PATT
  .word Label_01002438
@  #05 @039   ----------------------------------------
 .byte   PATT
  .word Label_01002425
@  #05 @040   ----------------------------------------
 .byte   PATT
  .word Label_01002438
@  #05 @041   ----------------------------------------
 .byte   PATT
  .word Label_0100240D
@  #05 @042   ----------------------------------------
 .byte   PATT
  .word Label_01002438
@  #05 @043   ----------------------------------------
Label_0100250E:
 .byte   N12 ,Bn1 ,v045
 .byte   N12 ,An1
 .byte   W12
 .byte   Bn1
 .byte   N12 ,An1
 .byte   W36
 .byte   An1
 .byte   N12 ,Gn1
 .byte   W12
 .byte   An1
 .byte   N12 ,Gn1
 .byte   W12
 .byte   N24 ,Gn2 ,v064
 .byte   N06 ,An1
 .byte   W06
 .byte   An1
 .byte   W06
 .byte   Gn1
 .byte   W06
 .byte   An1
 .byte   W06
 .byte   PEND 
@  #05 @044   ----------------------------------------
Label_0100252D:
 .byte   N24 ,Cn1 ,v095
 .byte   N24 ,Bn1 ,v064
 .byte   W24
 .byte   As1
 .byte   W24
 .byte   As1
 .byte   N24 ,En1 ,v095
 .byte   W18
 .byte   N06 ,Cn1
 .byte   W06
 .byte   N24 ,As1 ,v064
 .byte   W18
 .byte   N03 ,En1 ,v095
 .byte   W03
 .byte   En1
 .byte   W03
 .byte   PEND 
@  #05 @045   ----------------------------------------
 .byte   PATT
  .word Label_0100240D
@  #05 @046   ----------------------------------------
Label_0100254E:
 .byte   N24 ,Cn1 ,v095
 .byte   N24 ,Bn1 ,v064
 .byte   W24
 .byte   As1
 .byte   W24
 .byte   As1
 .byte   N24 ,En1 ,v095
 .byte   W24
 .byte   As1 ,v064
 .byte   W24
 .byte   PEND 
@  #05 @047   ----------------------------------------
Label_01002560:
 .byte   N12 ,Bn1 ,v045
 .byte   N12 ,An1
 .byte   W12
 .byte   Bn1
 .byte   N12 ,An1
 .byte   W24
 .byte   N06 ,Gn1 ,v064
 .byte   W06
 .byte   Gn1
 .byte   W06
 .byte   N12 ,An1
 .byte   N12 ,As1
 .byte   W12
 .byte   An1
 .byte   N12 ,As1
 .byte   W12
 .byte   N06 ,An1
 .byte   W06
 .byte   An1
 .byte   W06
 .byte   As1
 .byte   N06 ,En1
 .byte   W06
 .byte   An1
 .byte   W06
 .byte   PEND 
@  #05 @048   ----------------------------------------
 .byte   PATT
  .word Label_0100252D
@  #05 @049   ----------------------------------------
 .byte   PATT
  .word Label_0100240D
@  #05 @050   ----------------------------------------
 .byte   N24 ,As1 ,v064
 .byte   N24 ,Cn1 ,v095
 .byte   W24
 .byte   As1 ,v064
 .byte   W12
 .byte   N06 ,Cn1 ,v095
 .byte   W06
 .byte   Cn1
 .byte   W06
 .byte   N12 ,En1
 .byte   N12 ,As1 ,v064
 .byte   W12
 .byte   En1 ,v095
 .byte   N12 ,As1 ,v064
 .byte   W18
 .byte   N06 ,An1
 .byte   W06
 .byte   En1 ,v095
 .byte   N06 ,As1 ,v064
 .byte   W06
 .byte   As1
 .byte   N06 ,En1 ,v095
 .byte   W06
@  #05 @051   ----------------------------------------
 .byte   N24 ,Bn1 ,v064
 .byte   N24 ,Cn1 ,v095
 .byte   W30
 .byte   N06
 .byte   W06
 .byte   En1
 .byte   N06 ,As1 ,v064
 .byte   W12
 .byte   Cn1 ,v095
 .byte   W06
 .byte   Cn1
 .byte   W06
 .byte   En1
 .byte   W06
 .byte   En1
 .byte   W06
 .byte   N09 ,An1 ,v064
 .byte   W09
 .byte   An1
 .byte   W09
 .byte   N06 ,Gn1
 .byte   W06
@  #05 @052   ----------------------------------------
 .byte   N96 ,Cn1
 .byte   N96 ,Gn2
 .byte   W96
@  #05 @053   ----------------------------------------
 .byte   W96
@  #05 @054   ----------------------------------------
 .byte   W96
@  #05 @055   ----------------------------------------
 .byte   W96
@  #05 @056   ----------------------------------------
 .byte   W96
@  #05 @057   ----------------------------------------
 .byte   W96
@  #05 @058   ----------------------------------------
 .byte   W96
@  #05 @059   ----------------------------------------
 .byte   W96
@  #05 @060   ----------------------------------------
Label_010025E5:
 .byte   N12 ,As1 ,v064
 .byte   N12 ,Cn1
 .byte   N12 ,An1
 .byte   W12
 .byte   As1
 .byte   N12 ,Cn1
 .byte   N12 ,An1
 .byte   W24
 .byte   As1
 .byte   N12 ,Cn1
 .byte   N12 ,An1
 .byte   W60
 .byte   PEND 
@  #05 @061   ----------------------------------------
 .byte   W96
@  #05 @062   ----------------------------------------
 .byte   W96
@  #05 @063   ----------------------------------------
 .byte   W60
 .byte   Cn1
 .byte   N12 ,An1
 .byte   N12 ,Fn1
 .byte   W12
 .byte   Cn1
 .byte   N12 ,An1
 .byte   N12 ,Fn1
 .byte   W12
 .byte   Cn1
 .byte   N12 ,An1
 .byte   N12 ,Fn1
 .byte   W12
@  #05 @064   ----------------------------------------
 .byte   PATT
  .word Label_010025E5
@  #05 @065   ----------------------------------------
 .byte   W96
@  #05 @066   ----------------------------------------
 .byte   W96
@  #05 @067   ----------------------------------------
Label_01002616:
 .byte   N12 ,Cn1 ,v064
 .byte   N12 ,An1
 .byte   N12 ,Fn1
 .byte   W12
 .byte   Cn1
 .byte   N12 ,An1
 .byte   N12 ,Fn1
 .byte   W12
 .byte   Cn1
 .byte   N12 ,An1
 .byte   N12 ,Fn1
 .byte   W36
 .byte   Cn1
 .byte   N12 ,An1
 .byte   N12 ,Fn1
 .byte   W12
 .byte   Cn1
 .byte   N12 ,An1
 .byte   N12 ,Fn1
 .byte   W12
 .byte   Cn1
 .byte   N12 ,An1
 .byte   N12 ,Fn1
 .byte   W12
 .byte   PEND 
@  #05 @068   ----------------------------------------
 .byte   PATT
  .word Label_010025E5
@  #05 @069   ----------------------------------------
 .byte   W96
@  #05 @070   ----------------------------------------
 .byte   W96
@  #05 @071   ----------------------------------------
 .byte   PATT
  .word Label_01002616
@  #05 @072   ----------------------------------------
 .byte   PATT
  .word Label_010025E5
@  #05 @073   ----------------------------------------
 .byte   PATT
  .word Label_010025E5
@  #05 @074   ----------------------------------------
 .byte   N12 ,As1 ,v064
 .byte   N12 ,Cn1
 .byte   N12 ,An1
 .byte   W12
 .byte   As1
 .byte   N12 ,Cn1
 .byte   N12 ,An1
 .byte   W24
 .byte   As1
 .byte   N12 ,Cn1
 .byte   N12 ,An1
 .byte   W56
 .byte   W01
 .byte   N03 ,En1
 .byte   W03
@  #05 @075   ----------------------------------------
 .byte   N12 ,Cn1
 .byte   N12 ,Gn2
 .byte   W48
 .byte   N06 ,Cn1
 .byte   W12
 .byte   Cn1
 .byte   W12
 .byte   Cn1
 .byte   W12
 .byte   Cn1
 .byte   W12
@  #05 @076   ----------------------------------------
 .byte   PATT
  .word Label_01002438
@  #05 @077   ----------------------------------------
 .byte   PATT
  .word Label_0100240D
@  #05 @078   ----------------------------------------
 .byte   PATT
  .word Label_01002438
@  #05 @079   ----------------------------------------
 .byte   PATT
  .word Label_01002425
@  #05 @080   ----------------------------------------
 .byte   PATT
  .word Label_01002438
@  #05 @081   ----------------------------------------
 .byte   PATT
  .word Label_0100240D
@  #05 @082   ----------------------------------------
 .byte   PATT
  .word Label_01002438
@  #05 @083   ----------------------------------------
 .byte   PATT
  .word Label_0100250E
@  #05 @084   ----------------------------------------
 .byte   PATT
  .word Label_0100252D
@  #05 @085   ----------------------------------------
 .byte   PATT
  .word Label_0100240D
@  #05 @086   ----------------------------------------
 .byte   PATT
  .word Label_0100254E
@  #05 @087   ----------------------------------------
 .byte   PATT
  .word Label_01002560
@  #05 @088   ----------------------------------------
 .byte   PATT
  .word Label_0100252D
@  #05 @089   ----------------------------------------
 .byte   PATT
  .word Label_0100240D
@  #05 @090   ----------------------------------------
Label_010026BF:
 .byte   N24 ,As1 ,v064
 .byte   N24 ,Cn1 ,v095
 .byte   W24
 .byte   As1 ,v064
 .byte   W12
 .byte   N06 ,Cn1
 .byte   W06
 .byte   Cn1
 .byte   W06
 .byte   N12 ,En1
 .byte   N12 ,As1
 .byte   W12
 .byte   En1
 .byte   N12 ,As1
 .byte   W18
 .byte   N06 ,An1
 .byte   W06
 .byte   En1
 .byte   N06 ,As1
 .byte   W06
 .byte   As1
 .byte   N06 ,En1
 .byte   W06
 .byte   PEND 
@  #05 @091   ----------------------------------------
Label_010026E3:
 .byte   N24 ,Bn1 ,v064
 .byte   N24 ,Cn1
 .byte   W30
 .byte   N06
 .byte   W06
 .byte   En1
 .byte   N06 ,As1
 .byte   W12
 .byte   Cn1
 .byte   W06
 .byte   Cn1
 .byte   W06
 .byte   En1
 .byte   W06
 .byte   En1
 .byte   W06
 .byte   N09 ,An1
 .byte   W09
 .byte   An1
 .byte   W09
 .byte   N06 ,Gn1
 .byte   W06
 .byte   PEND 
@  #05 @092   ----------------------------------------
 .byte   PATT
  .word Label_01002438
@  #05 @093   ----------------------------------------
 .byte   PATT
  .word Label_0100240D
@  #05 @094   ----------------------------------------
 .byte   PATT
  .word Label_01002438
@  #05 @095   ----------------------------------------
 .byte   PATT
  .word Label_0100250E
@  #05 @096   ----------------------------------------
 .byte   PATT
  .word Label_0100252D
@  #05 @097   ----------------------------------------
 .byte   PATT
  .word Label_0100240D
@  #05 @098   ----------------------------------------
 .byte   PATT
  .word Label_0100254E
@  #05 @099   ----------------------------------------
 .byte   PATT
  .word Label_01002560
@  #05 @100   ----------------------------------------
 .byte   PATT
  .word Label_0100252D
@  #05 @101   ----------------------------------------
 .byte   PATT
  .word Label_0100240D
@  #05 @102   ----------------------------------------
 .byte   PATT
  .word Label_0100254E
@  #05 @103   ----------------------------------------
 .byte   PATT
  .word Label_01002560
@  #05 @104   ----------------------------------------
 .byte   PATT
  .word Label_0100252D
@  #05 @105   ----------------------------------------
 .byte   PATT
  .word Label_0100240D
@  #05 @106   ----------------------------------------
 .byte   PATT
  .word Label_010026BF
@  #05 @107   ----------------------------------------
 .byte   PATT
  .word Label_010026E3
@  #05 @108   ----------------------------------------
 .byte   N96 ,Gn2 ,v064
 .byte   N96 ,Cn1
 .byte   W96
@  #05 @109   ----------------------------------------
 .byte   W96
@  #05 @110   ----------------------------------------
 .byte   W96
@  #05 @111   ----------------------------------------
 .byte   W96
@  #05 @112   ----------------------------------------
 .byte   GOTO
  .word Label_0100247A
 .byte   FINE

@**************** Track 6 (Midi-Chn.5) ****************@

song01_006:
@  #06 @000   ----------------------------------------
 .byte   KEYSH , song01_key+0
 .byte   VOICE , 14
 .byte   VOL , 48*song01_mvl/mxv
 .byte   PAN , c_v-22
 .byte   W96
@  #06 @001   ----------------------------------------
 .byte   W96
@  #06 @002   ----------------------------------------
 .byte   W96
@  #06 @003   ----------------------------------------
 .byte   W96
@  #06 @004   ----------------------------------------
 .byte   W96
@  #06 @005   ----------------------------------------
 .byte   W96
@  #06 @006   ----------------------------------------
 .byte   W96
@  #06 @007   ----------------------------------------
 .byte   W96
@  #06 @008   ----------------------------------------
Label_01002770:
 .byte   N96 ,Dn2 ,v064
 .byte   N96 ,Dn3
 .byte   N96 ,Dn4
 .byte   W96
 .byte   PEND 
@  #06 @009   ----------------------------------------
 .byte   W96
@  #06 @010   ----------------------------------------
 .byte   W96
@  #06 @011   ----------------------------------------
 .byte   W96
@  #06 @012   ----------------------------------------
Label_0100277C:
 .byte   N96 ,Dn2 ,v064
 .byte   N96 ,Dn3
 .byte   N96 ,Dn4
 .byte   W96
@  #06 @013   ----------------------------------------
 .byte   W96
@  #06 @014   ----------------------------------------
 .byte   W96
@  #06 @015   ----------------------------------------
 .byte   W96
@  #06 @016   ----------------------------------------
 .byte   PATT
  .word Label_01002770
@  #06 @017   ----------------------------------------
 .byte   W96
@  #06 @018   ----------------------------------------
 .byte   W96
@  #06 @019   ----------------------------------------
 .byte   W96
@  #06 @020   ----------------------------------------
 .byte   PATT
  .word Label_01002770
@  #06 @021   ----------------------------------------
 .byte   W96
@  #06 @022   ----------------------------------------
 .byte   W96
@  #06 @023   ----------------------------------------
 .byte   W96
@  #06 @024   ----------------------------------------
 .byte   PATT
  .word Label_01002770
@  #06 @025   ----------------------------------------
 .byte   W96
@  #06 @026   ----------------------------------------
 .byte   W96
@  #06 @027   ----------------------------------------
 .byte   W96
@  #06 @028   ----------------------------------------
 .byte   PATT
  .word Label_01002770
@  #06 @029   ----------------------------------------
 .byte   W96
@  #06 @030   ----------------------------------------
 .byte   W96
@  #06 @031   ----------------------------------------
 .byte   W96
@  #06 @032   ----------------------------------------
 .byte   PATT
  .word Label_01002770
@  #06 @033   ----------------------------------------
 .byte   W96
@  #06 @034   ----------------------------------------
 .byte   W96
@  #06 @035   ----------------------------------------
 .byte   W96
@  #06 @036   ----------------------------------------
 .byte   W96
@  #06 @037   ----------------------------------------
 .byte   W96
@  #06 @038   ----------------------------------------
 .byte   W96
@  #06 @039   ----------------------------------------
 .byte   W96
@  #06 @040   ----------------------------------------
 .byte   W96
@  #06 @041   ----------------------------------------
 .byte   W96
@  #06 @042   ----------------------------------------
 .byte   W96
@  #06 @043   ----------------------------------------
 .byte   W96
@  #06 @044   ----------------------------------------
 .byte   W96
@  #06 @045   ----------------------------------------
 .byte   W96
@  #06 @046   ----------------------------------------
 .byte   W96
@  #06 @047   ----------------------------------------
 .byte   W96
@  #06 @048   ----------------------------------------
 .byte   W96
@  #06 @049   ----------------------------------------
 .byte   W96
@  #06 @050   ----------------------------------------
 .byte   W96
@  #06 @051   ----------------------------------------
 .byte   W96
@  #06 @052   ----------------------------------------
 .byte   PATT
  .word Label_01002770
@  #06 @053   ----------------------------------------
 .byte   W96
@  #06 @054   ----------------------------------------
 .byte   W96
@  #06 @055   ----------------------------------------
 .byte   W96
@  #06 @056   ----------------------------------------
 .byte   PATT
  .word Label_01002770
@  #06 @057   ----------------------------------------
 .byte   W96
@  #06 @058   ----------------------------------------
 .byte   W96
@  #06 @059   ----------------------------------------
 .byte   W96
@  #06 @060   ----------------------------------------
 .byte   PATT
  .word Label_01002770
@  #06 @061   ----------------------------------------
 .byte   W96
@  #06 @062   ----------------------------------------
 .byte   W96
@  #06 @063   ----------------------------------------
 .byte   W96
@  #06 @064   ----------------------------------------
 .byte   PATT
  .word Label_01002770
@  #06 @065   ----------------------------------------
 .byte   W96
@  #06 @066   ----------------------------------------
 .byte   W96
@  #06 @067   ----------------------------------------
 .byte   W96
@  #06 @068   ----------------------------------------
 .byte   PATT
  .word Label_01002770
@  #06 @069   ----------------------------------------
 .byte   W96
@  #06 @070   ----------------------------------------
 .byte   W96
@  #06 @071   ----------------------------------------
 .byte   W96
@  #06 @072   ----------------------------------------
 .byte   PATT
  .word Label_01002770
@  #06 @073   ----------------------------------------
 .byte   W96
@  #06 @074   ----------------------------------------
 .byte   W96
@  #06 @075   ----------------------------------------
 .byte   W96
@  #06 @076   ----------------------------------------
 .byte   W96
@  #06 @077   ----------------------------------------
 .byte   W96
@  #06 @078   ----------------------------------------
 .byte   W96
@  #06 @079   ----------------------------------------
 .byte   W96
@  #06 @080   ----------------------------------------
 .byte   W96
@  #06 @081   ----------------------------------------
 .byte   W96
@  #06 @082   ----------------------------------------
 .byte   W96
@  #06 @083   ----------------------------------------
 .byte   W96
@  #06 @084   ----------------------------------------
 .byte   W96
@  #06 @085   ----------------------------------------
 .byte   W96
@  #06 @086   ----------------------------------------
 .byte   W96
@  #06 @087   ----------------------------------------
 .byte   W96
@  #06 @088   ----------------------------------------
 .byte   W96
@  #06 @089   ----------------------------------------
 .byte   W96
@  #06 @090   ----------------------------------------
 .byte   W96
@  #06 @091   ----------------------------------------
 .byte   W96
@  #06 @092   ----------------------------------------
 .byte   W96
@  #06 @093   ----------------------------------------
 .byte   W96
@  #06 @094   ----------------------------------------
 .byte   W96
@  #06 @095   ----------------------------------------
 .byte   W96
@  #06 @096   ----------------------------------------
 .byte   W96
@  #06 @097   ----------------------------------------
 .byte   W96
@  #06 @098   ----------------------------------------
 .byte   W96
@  #06 @099   ----------------------------------------
 .byte   W96
@  #06 @100   ----------------------------------------
 .byte   W96
@  #06 @101   ----------------------------------------
 .byte   W96
@  #06 @102   ----------------------------------------
 .byte   W96
@  #06 @103   ----------------------------------------
 .byte   W96
@  #06 @104   ----------------------------------------
 .byte   W96
@  #06 @105   ----------------------------------------
 .byte   W96
@  #06 @106   ----------------------------------------
 .byte   W96
@  #06 @107   ----------------------------------------
 .byte   W96
@  #06 @108   ----------------------------------------
 .byte   PATT
  .word Label_01002770
@  #06 @109   ----------------------------------------
 .byte   W96
@  #06 @110   ----------------------------------------
 .byte   W96
@  #06 @111   ----------------------------------------
 .byte   W96
@  #06 @112   ----------------------------------------
 .byte   GOTO
  .word Label_0100277C
 .byte   FINE

@**************** Track 7 (Midi-Chn.6) ****************@

song01_007:
@  #07 @000   ----------------------------------------
 .byte   KEYSH , song01_key+0
 .byte   VOICE , 49
 .byte   PAN , c_v-22
 .byte   VOL , 54*song01_mvl/mxv
 .byte   N96 ,Dn3 ,v064
 .byte   N96 ,Dn4
 .byte   W96
@  #07 @001   ----------------------------------------
 .byte   N24 ,Fn3
 .byte   N24 ,Fn4
 .byte   W24
 .byte   En4
 .byte   N24 ,En3
 .byte   W24
 .byte   Dn4
 .byte   N24 ,Dn3
 .byte   W24
 .byte   Fn4
 .byte   N24 ,Fn3
 .byte   W24
@  #07 @002   ----------------------------------------
 .byte   N96 ,An3
 .byte   N96 ,An2
 .byte   W96
@  #07 @003   ----------------------------------------
 .byte   N24 ,As3
 .byte   N24 ,As2
 .byte   W24
 .byte   An3
 .byte   N24 ,An2
 .byte   W24
 .byte   Ds4
 .byte   N24 ,Ds3
 .byte   W24
 .byte   Dn4
 .byte   N24 ,Dn3
 .byte   W24
@  #07 @004   ----------------------------------------
 .byte   N48 ,Fs2
 .byte   N48 ,Fs3
 .byte   W48
 .byte   N24 ,Gn2
 .byte   N24 ,Gn3
 .byte   W24
 .byte   An3
 .byte   N24 ,An2
 .byte   W24
@  #07 @005   ----------------------------------------
 .byte   N96 ,Dn2
 .byte   N96 ,Dn3
 .byte   W96
@  #07 @006   ----------------------------------------
 .byte   N48 ,Fn2
 .byte   N48 ,Fn3
 .byte   W48
 .byte   En2
 .byte   N48 ,En3
 .byte   W48
@  #07 @007   ----------------------------------------
 .byte   As3
 .byte   N48 ,As2
 .byte   W48
 .byte   An3
 .byte   N48 ,An2
 .byte   W48
@  #07 @008   ----------------------------------------
 .byte   N96 ,Dn3 ,v026
 .byte   W96
@  #07 @009   ----------------------------------------
 .byte   Dn3 ,v032
 .byte   W96
@  #07 @010   ----------------------------------------
 .byte   Dn3 ,v038
 .byte   W96
@  #07 @011   ----------------------------------------
 .byte   Dn3 ,v045
 .byte   W96
@  #07 @012   ----------------------------------------
Label_01002886:
 .byte   N96 ,Dn3 ,v038
 .byte   W96
@  #07 @013   ----------------------------------------
 .byte   Dn3 ,v032
 .byte   W96
@  #07 @014   ----------------------------------------
 .byte   Dn3 ,v026
 .byte   W96
@  #07 @015   ----------------------------------------
 .byte   Dn3
 .byte   W96
@  #07 @016   ----------------------------------------
 .byte   Dn3
 .byte   W96
@  #07 @017   ----------------------------------------
 .byte   Dn3
 .byte   W96
@  #07 @018   ----------------------------------------
 .byte   Dn3
 .byte   W96
@  #07 @019   ----------------------------------------
 .byte   Dn3
 .byte   W96
@  #07 @020   ----------------------------------------
 .byte   Dn3
 .byte   W96
@  #07 @021   ----------------------------------------
 .byte   Dn3
 .byte   W96
@  #07 @022   ----------------------------------------
 .byte   Dn3
 .byte   W96
@  #07 @023   ----------------------------------------
 .byte   Dn3
 .byte   W96
@  #07 @024   ----------------------------------------
 .byte   Dn3
 .byte   W96
@  #07 @025   ----------------------------------------
 .byte   Dn3
 .byte   W96
@  #07 @026   ----------------------------------------
 .byte   Dn3
 .byte   W96
@  #07 @027   ----------------------------------------
 .byte   Dn3 ,v019
 .byte   W96
@  #07 @028   ----------------------------------------
 .byte   W96
@  #07 @029   ----------------------------------------
 .byte   W96
@  #07 @030   ----------------------------------------
 .byte   W96
@  #07 @031   ----------------------------------------
 .byte   W96
@  #07 @032   ----------------------------------------
 .byte   W96
@  #07 @033   ----------------------------------------
 .byte   W96
@  #07 @034   ----------------------------------------
 .byte   W96
@  #07 @035   ----------------------------------------
 .byte   W96
@  #07 @036   ----------------------------------------
Label_010028B3:
 .byte   N96 ,En4 ,v064
 .byte   N96 ,En3
 .byte   W96
 .byte   PEND 
@  #07 @037   ----------------------------------------
Label_010028BA:
 .byte   N96 ,Fn4 ,v064
 .byte   N96 ,Fn3
 .byte   W96
 .byte   PEND 
@  #07 @038   ----------------------------------------
Label_010028C1:
 .byte   N96 ,Dn4 ,v064
 .byte   N96 ,Dn3
 .byte   W96
 .byte   PEND 
@  #07 @039   ----------------------------------------
Label_010028C8:
 .byte   N96 ,Gn3 ,v064
 .byte   N96 ,Gn4
 .byte   W96
 .byte   PEND 
@  #07 @040   ----------------------------------------
 .byte   PATT
  .word Label_010028B3
@  #07 @041   ----------------------------------------
 .byte   PATT
  .word Label_010028BA
@  #07 @042   ----------------------------------------
 .byte   PATT
  .word Label_010028C1
@  #07 @043   ----------------------------------------
 .byte   PATT
  .word Label_010028C8
@  #07 @044   ----------------------------------------
 .byte   PATT
  .word Label_010028B3
@  #07 @045   ----------------------------------------
 .byte   PATT
  .word Label_010028BA
@  #07 @046   ----------------------------------------
 .byte   PATT
  .word Label_010028C1
@  #07 @047   ----------------------------------------
 .byte   PATT
  .word Label_010028C8
@  #07 @048   ----------------------------------------
 .byte   PATT
  .word Label_010028B3
@  #07 @049   ----------------------------------------
 .byte   PATT
  .word Label_010028BA
@  #07 @050   ----------------------------------------
 .byte   PATT
  .word Label_010028C1
@  #07 @051   ----------------------------------------
 .byte   PATT
  .word Label_010028C8
@  #07 @052   ----------------------------------------
 .byte   N96 ,Dn3 ,v026
 .byte   W96
@  #07 @053   ----------------------------------------
 .byte   Dn3 ,v032
 .byte   W96
@  #07 @054   ----------------------------------------
 .byte   Dn3 ,v038
 .byte   W96
@  #07 @055   ----------------------------------------
 .byte   Dn3 ,v045
 .byte   W96
@  #07 @056   ----------------------------------------
 .byte   Dn3 ,v038
 .byte   W96
@  #07 @057   ----------------------------------------
 .byte   Dn3 ,v032
 .byte   W96
@  #07 @058   ----------------------------------------
 .byte   Dn3 ,v026
 .byte   W96
@  #07 @059   ----------------------------------------
 .byte   Dn3
 .byte   W96
@  #07 @060   ----------------------------------------
 .byte   Dn3
 .byte   W96
@  #07 @061   ----------------------------------------
 .byte   Dn3
 .byte   W96
@  #07 @062   ----------------------------------------
 .byte   Dn3
 .byte   W96
@  #07 @063   ----------------------------------------
 .byte   Dn3
 .byte   W96
@  #07 @064   ----------------------------------------
 .byte   Dn3
 .byte   W96
@  #07 @065   ----------------------------------------
 .byte   Dn3
 .byte   W96
@  #07 @066   ----------------------------------------
 .byte   Dn3
 .byte   W96
@  #07 @067   ----------------------------------------
 .byte   Dn3
 .byte   W96
@  #07 @068   ----------------------------------------
 .byte   Dn3
 .byte   W96
@  #07 @069   ----------------------------------------
 .byte   Dn3
 .byte   W96
@  #07 @070   ----------------------------------------
 .byte   Dn3
 .byte   W96
@  #07 @071   ----------------------------------------
 .byte   Dn3 ,v019
 .byte   W96
@  #07 @072   ----------------------------------------
 .byte   Dn3
 .byte   W96
@  #07 @073   ----------------------------------------
 .byte   Dn3
 .byte   W96
@  #07 @074   ----------------------------------------
 .byte   Dn3
 .byte   W96
@  #07 @075   ----------------------------------------
 .byte   W96
@  #07 @076   ----------------------------------------
 .byte   PATT
  .word Label_010028B3
@  #07 @077   ----------------------------------------
 .byte   PATT
  .word Label_010028BA
@  #07 @078   ----------------------------------------
 .byte   PATT
  .word Label_010028C1
@  #07 @079   ----------------------------------------
 .byte   PATT
  .word Label_010028C8
@  #07 @080   ----------------------------------------
 .byte   PATT
  .word Label_010028B3
@  #07 @081   ----------------------------------------
 .byte   PATT
  .word Label_010028BA
@  #07 @082   ----------------------------------------
 .byte   PATT
  .word Label_010028C1
@  #07 @083   ----------------------------------------
 .byte   PATT
  .word Label_010028C8
@  #07 @084   ----------------------------------------
 .byte   PATT
  .word Label_010028B3
@  #07 @085   ----------------------------------------
 .byte   PATT
  .word Label_010028BA
@  #07 @086   ----------------------------------------
 .byte   PATT
  .word Label_010028C1
@  #07 @087   ----------------------------------------
 .byte   PATT
  .word Label_010028C8
@  #07 @088   ----------------------------------------
 .byte   PATT
  .word Label_010028B3
@  #07 @089   ----------------------------------------
 .byte   PATT
  .word Label_010028BA
@  #07 @090   ----------------------------------------
 .byte   PATT
  .word Label_010028C1
@  #07 @091   ----------------------------------------
 .byte   PATT
  .word Label_010028C8
@  #07 @092   ----------------------------------------
 .byte   PATT
  .word Label_010028B3
@  #07 @093   ----------------------------------------
 .byte   PATT
  .word Label_010028BA
@  #07 @094   ----------------------------------------
 .byte   PATT
  .word Label_010028C1
@  #07 @095   ----------------------------------------
 .byte   PATT
  .word Label_010028C8
@  #07 @096   ----------------------------------------
 .byte   PATT
  .word Label_010028B3
@  #07 @097   ----------------------------------------
 .byte   PATT
  .word Label_010028BA
@  #07 @098   ----------------------------------------
 .byte   PATT
  .word Label_010028C1
@  #07 @099   ----------------------------------------
 .byte   PATT
  .word Label_010028C8
@  #07 @100   ----------------------------------------
 .byte   PATT
  .word Label_010028B3
@  #07 @101   ----------------------------------------
 .byte   PATT
  .word Label_010028BA
@  #07 @102   ----------------------------------------
 .byte   PATT
  .word Label_010028C1
@  #07 @103   ----------------------------------------
 .byte   PATT
  .word Label_010028C8
@  #07 @104   ----------------------------------------
 .byte   PATT
  .word Label_010028B3
@  #07 @105   ----------------------------------------
 .byte   PATT
  .word Label_010028BA
@  #07 @106   ----------------------------------------
 .byte   PATT
  .word Label_010028C1
@  #07 @107   ----------------------------------------
 .byte   PATT
  .word Label_010028C8
@  #07 @108   ----------------------------------------
 .byte   N96 ,Dn3 ,v026
 .byte   W96
@  #07 @109   ----------------------------------------
 .byte   Dn3 ,v032
 .byte   W96
@  #07 @110   ----------------------------------------
 .byte   Dn3 ,v038
 .byte   W96
@  #07 @111   ----------------------------------------
 .byte   Dn3 ,v045
 .byte   W96
@  #07 @112   ----------------------------------------
 .byte   GOTO
  .word Label_01002886
 .byte   FINE

@**************** Track 8 (Midi-Chn.7) ****************@

song01_008:
@  #08 @000   ----------------------------------------
 .byte   KEYSH , song01_key+0
 .byte   VOICE , 85
 .byte   VOL , 26*song01_mvl/mxv
 .byte   W96
@  #08 @001   ----------------------------------------
 .byte   W96
@  #08 @002   ----------------------------------------
 .byte   W96
@  #08 @003   ----------------------------------------
 .byte   W96
@  #08 @004   ----------------------------------------
 .byte   W96
@  #08 @005   ----------------------------------------
 .byte   W96
@  #08 @006   ----------------------------------------
 .byte   W96
@  #08 @007   ----------------------------------------
 .byte   W96
@  #08 @008   ----------------------------------------
 .byte   W96
@  #08 @009   ----------------------------------------
 .byte   W96
@  #08 @010   ----------------------------------------
 .byte   W96
@  #08 @011   ----------------------------------------
 .byte   W96
@  #08 @012   ----------------------------------------
Label_545B86:
 .byte   W96
@  #08 @013   ----------------------------------------
 .byte   W96
@  #08 @014   ----------------------------------------
 .byte   W96
@  #08 @015   ----------------------------------------
 .byte   W96
@  #08 @016   ----------------------------------------
 .byte   W96
@  #08 @017   ----------------------------------------
 .byte   W96
@  #08 @018   ----------------------------------------
 .byte   W96
@  #08 @019   ----------------------------------------
 .byte   W96
@  #08 @020   ----------------------------------------
 .byte   W96
@  #08 @021   ----------------------------------------
 .byte   W96
@  #08 @022   ----------------------------------------
 .byte   W96
@  #08 @023   ----------------------------------------
 .byte   W96
@  #08 @024   ----------------------------------------
 .byte   W96
@  #08 @025   ----------------------------------------
 .byte   W96
@  #08 @026   ----------------------------------------
 .byte   W96
@  #08 @027   ----------------------------------------
 .byte   W96
@  #08 @028   ----------------------------------------
 .byte   W96
@  #08 @029   ----------------------------------------
 .byte   W96
@  #08 @030   ----------------------------------------
 .byte   W96
@  #08 @031   ----------------------------------------
 .byte   W96
@  #08 @032   ----------------------------------------
 .byte   W96
@  #08 @033   ----------------------------------------
 .byte   W96
@  #08 @034   ----------------------------------------
 .byte   W96
@  #08 @035   ----------------------------------------
 .byte   W96
@  #08 @036   ----------------------------------------
 .byte   W96
@  #08 @037   ----------------------------------------
 .byte   W96
@  #08 @038   ----------------------------------------
 .byte   W96
@  #08 @039   ----------------------------------------
 .byte   W96
@  #08 @040   ----------------------------------------
 .byte   W96
@  #08 @041   ----------------------------------------
 .byte   W96
@  #08 @042   ----------------------------------------
 .byte   W96
@  #08 @043   ----------------------------------------
 .byte   W96
@  #08 @044   ----------------------------------------
 .byte   W96
@  #08 @045   ----------------------------------------
 .byte   W96
@  #08 @046   ----------------------------------------
 .byte   W96
@  #08 @047   ----------------------------------------
 .byte   W96
@  #08 @048   ----------------------------------------
 .byte   W96
@  #08 @049   ----------------------------------------
 .byte   W96
@  #08 @050   ----------------------------------------
 .byte   W96
@  #08 @051   ----------------------------------------
 .byte   W96
@  #08 @052   ----------------------------------------
 .byte   W96
@  #08 @053   ----------------------------------------
 .byte   W96
@  #08 @054   ----------------------------------------
 .byte   W96
@  #08 @055   ----------------------------------------
 .byte   W96
@  #08 @056   ----------------------------------------
 .byte   PAN , c_v+63
 .byte   N96 ,Dn3 ,v032
 .byte   W92
 .byte   W03
 .byte   PAN , c_v+22
 .byte   W01
@  #08 @057   ----------------------------------------
 .byte   N96 ,Dn3 ,v045
 .byte   W96
@  #08 @058   ----------------------------------------
 .byte   PAN , c_v-12
 .byte   N96 ,Dn3 ,v057
 .byte   W92
 .byte   W03
 .byte   PAN , c_v-64
 .byte   W01
@  #08 @059   ----------------------------------------
 .byte   N96 ,Dn3 ,v038
 .byte   W96
@  #08 @060   ----------------------------------------
 .byte   W96
@  #08 @061   ----------------------------------------
 .byte   W96
@  #08 @062   ----------------------------------------
 .byte   W96
@  #08 @063   ----------------------------------------
 .byte   W96
@  #08 @064   ----------------------------------------
 .byte   W96
@  #08 @065   ----------------------------------------
 .byte   W96
@  #08 @066   ----------------------------------------
 .byte   W96
@  #08 @067   ----------------------------------------
 .byte   W96
@  #08 @068   ----------------------------------------
 .byte   W96
@  #08 @069   ----------------------------------------
 .byte   W96
@  #08 @070   ----------------------------------------
 .byte   W96
@  #08 @071   ----------------------------------------
 .byte   W96
@  #08 @072   ----------------------------------------
 .byte   W96
@  #08 @073   ----------------------------------------
 .byte   W96
@  #08 @074   ----------------------------------------
 .byte   W96
@  #08 @075   ----------------------------------------
 .byte   W96
@  #08 @076   ----------------------------------------
 .byte   W96
@  #08 @077   ----------------------------------------
 .byte   W96
@  #08 @078   ----------------------------------------
 .byte   W96
@  #08 @079   ----------------------------------------
 .byte   W96
@  #08 @080   ----------------------------------------
 .byte   W96
@  #08 @081   ----------------------------------------
 .byte   W96
@  #08 @082   ----------------------------------------
 .byte   W96
@  #08 @083   ----------------------------------------
 .byte   W96
@  #08 @084   ----------------------------------------
 .byte   W96
@  #08 @085   ----------------------------------------
 .byte   W96
@  #08 @086   ----------------------------------------
 .byte   W96
@  #08 @087   ----------------------------------------
 .byte   W96
@  #08 @088   ----------------------------------------
 .byte   W96
@  #08 @089   ----------------------------------------
 .byte   W96
@  #08 @090   ----------------------------------------
 .byte   W96
@  #08 @091   ----------------------------------------
 .byte   W96
@  #08 @092   ----------------------------------------
 .byte   W96
@  #08 @093   ----------------------------------------
 .byte   W96
@  #08 @094   ----------------------------------------
 .byte   W96
@  #08 @095   ----------------------------------------
 .byte   W96
@  #08 @096   ----------------------------------------
 .byte   W96
@  #08 @097   ----------------------------------------
 .byte   W96
@  #08 @098   ----------------------------------------
 .byte   W96
@  #08 @099   ----------------------------------------
 .byte   W96
@  #08 @100   ----------------------------------------
 .byte   W96
@  #08 @101   ----------------------------------------
 .byte   W96
@  #08 @102   ----------------------------------------
 .byte   W96
@  #08 @103   ----------------------------------------
 .byte   W96
@  #08 @104   ----------------------------------------
 .byte   W96
@  #08 @105   ----------------------------------------
 .byte   W96
@  #08 @106   ----------------------------------------
 .byte   W96
@  #08 @107   ----------------------------------------
 .byte   W96
@  #08 @108   ----------------------------------------
 .byte   W96
@  #08 @109   ----------------------------------------
 .byte   W96
@  #08 @110   ----------------------------------------
 .byte   W96
@  #08 @111   ----------------------------------------
 .byte   W96
@  #08 @112   ----------------------------------------
 .byte   PAN , c_v+0
 .byte   GOTO
  .word Label_545B86
 .byte   FINE

@**************** Track 9 (Midi-Chn.8) ****************@

song01_009:
@  #09 @000   ----------------------------------------
 .byte   KEYSH , song01_key+0
 .byte   VOICE , 0
 .byte   PAN , c_v+12
 .byte   VOL , 30*song01_mvl/mxv
 .byte   W96
@  #09 @001   ----------------------------------------
 .byte   W96
@  #09 @002   ----------------------------------------
 .byte   W96
@  #09 @003   ----------------------------------------
 .byte   W96
@  #09 @004   ----------------------------------------
 .byte   W96
@  #09 @005   ----------------------------------------
 .byte   W96
@  #09 @006   ----------------------------------------
 .byte   W96
@  #09 @007   ----------------------------------------
 .byte   W96
@  #09 @008   ----------------------------------------
Label_01002A08:
 .byte   N12 ,An3 ,v064
 .byte   W24
 .byte   An3
 .byte   W24
 .byte   An3
 .byte   W24
 .byte   An3
 .byte   W24
 .byte   PEND 
@  #09 @009   ----------------------------------------
Label_01002A13:
 .byte   N12 ,Fn3 ,v064
 .byte   W24
 .byte   Fn3
 .byte   W24
 .byte   Fn3
 .byte   W24
 .byte   Fn3
 .byte   W24
 .byte   PEND 
@  #09 @010   ----------------------------------------
Label_01002A1E:
 .byte   N12 ,En3 ,v064
 .byte   W24
 .byte   En3
 .byte   W24
 .byte   En3
 .byte   W24
 .byte   En3
 .byte   W24
 .byte   PEND 
@  #09 @011   ----------------------------------------
Label_01002A29:
 .byte   N12 ,Gn3 ,v064
 .byte   W24
 .byte   Gn3
 .byte   W24
 .byte   Gn3
 .byte   W24
 .byte   Gn3
 .byte   W24
 .byte   PEND 
@  #09 @012   ----------------------------------------
Label_01002A34:
 .byte   N12 ,An3 ,v064
 .byte   W24
 .byte   An3
 .byte   W24
 .byte   An3
 .byte   W24
 .byte   An3
 .byte   W24
@  #09 @013   ----------------------------------------
 .byte   PATT
  .word Label_01002A13
@  #09 @014   ----------------------------------------
 .byte   PATT
  .word Label_01002A1E
@  #09 @015   ----------------------------------------
 .byte   PATT
  .word Label_01002A29
@  #09 @016   ----------------------------------------
 .byte   PATT
  .word Label_01002A08
@  #09 @017   ----------------------------------------
 .byte   PATT
  .word Label_01002A13
@  #09 @018   ----------------------------------------
 .byte   PATT
  .word Label_01002A1E
@  #09 @019   ----------------------------------------
 .byte   PATT
  .word Label_01002A29
@  #09 @020   ----------------------------------------
 .byte   PATT
  .word Label_01002A08
@  #09 @021   ----------------------------------------
 .byte   PATT
  .word Label_01002A13
@  #09 @022   ----------------------------------------
 .byte   PATT
  .word Label_01002A1E
@  #09 @023   ----------------------------------------
 .byte   PATT
  .word Label_01002A29
@  #09 @024   ----------------------------------------
 .byte   PATT
  .word Label_01002A08
@  #09 @025   ----------------------------------------
 .byte   PATT
  .word Label_01002A13
@  #09 @026   ----------------------------------------
 .byte   PATT
  .word Label_01002A1E
@  #09 @027   ----------------------------------------
 .byte   PATT
  .word Label_01002A29
@  #09 @028   ----------------------------------------
 .byte   PATT
  .word Label_01002A08
@  #09 @029   ----------------------------------------
 .byte   PATT
  .word Label_01002A13
@  #09 @030   ----------------------------------------
 .byte   PATT
  .word Label_01002A1E
@  #09 @031   ----------------------------------------
 .byte   PATT
  .word Label_01002A29
@  #09 @032   ----------------------------------------
 .byte   PATT
  .word Label_01002A08
@  #09 @033   ----------------------------------------
 .byte   PATT
  .word Label_01002A13
@  #09 @034   ----------------------------------------
 .byte   PATT
  .word Label_01002A1E
@  #09 @035   ----------------------------------------
 .byte   W96
@  #09 @036   ----------------------------------------
 .byte   W96
@  #09 @037   ----------------------------------------
 .byte   W96
@  #09 @038   ----------------------------------------
 .byte   W96
@  #09 @039   ----------------------------------------
 .byte   W96
@  #09 @040   ----------------------------------------
 .byte   W96
@  #09 @041   ----------------------------------------
 .byte   W96
@  #09 @042   ----------------------------------------
 .byte   W96
@  #09 @043   ----------------------------------------
 .byte   W96
@  #09 @044   ----------------------------------------
 .byte   W96
@  #09 @045   ----------------------------------------
 .byte   W96
@  #09 @046   ----------------------------------------
 .byte   W96
@  #09 @047   ----------------------------------------
 .byte   W96
@  #09 @048   ----------------------------------------
 .byte   W96
@  #09 @049   ----------------------------------------
 .byte   W96
@  #09 @050   ----------------------------------------
 .byte   W96
@  #09 @051   ----------------------------------------
 .byte   W96
@  #09 @052   ----------------------------------------
 .byte   PATT
  .word Label_01002A08
@  #09 @053   ----------------------------------------
 .byte   PATT
  .word Label_01002A13
@  #09 @054   ----------------------------------------
 .byte   PATT
  .word Label_01002A1E
@  #09 @055   ----------------------------------------
 .byte   PATT
  .word Label_01002A29
@  #09 @056   ----------------------------------------
 .byte   PATT
  .word Label_01002A08
@  #09 @057   ----------------------------------------
 .byte   PATT
  .word Label_01002A13
@  #09 @058   ----------------------------------------
 .byte   PATT
  .word Label_01002A1E
@  #09 @059   ----------------------------------------
 .byte   PATT
  .word Label_01002A29
@  #09 @060   ----------------------------------------
 .byte   PATT
  .word Label_01002A08
@  #09 @061   ----------------------------------------
 .byte   PATT
  .word Label_01002A13
@  #09 @062   ----------------------------------------
 .byte   PATT
  .word Label_01002A1E
@  #09 @063   ----------------------------------------
 .byte   PATT
  .word Label_01002A29
@  #09 @064   ----------------------------------------
 .byte   PATT
  .word Label_01002A08
@  #09 @065   ----------------------------------------
 .byte   PATT
  .word Label_01002A13
@  #09 @066   ----------------------------------------
 .byte   PATT
  .word Label_01002A1E
@  #09 @067   ----------------------------------------
 .byte   PATT
  .word Label_01002A29
@  #09 @068   ----------------------------------------
 .byte   PATT
  .word Label_01002A08
@  #09 @069   ----------------------------------------
 .byte   PATT
  .word Label_01002A13
@  #09 @070   ----------------------------------------
 .byte   PATT
  .word Label_01002A1E
@  #09 @071   ----------------------------------------
 .byte   PATT
  .word Label_01002A29
@  #09 @072   ----------------------------------------
 .byte   PATT
  .word Label_01002A08
@  #09 @073   ----------------------------------------
 .byte   PATT
  .word Label_01002A13
@  #09 @074   ----------------------------------------
 .byte   PATT
  .word Label_01002A1E
@  #09 @075   ----------------------------------------
 .byte   W96
@  #09 @076   ----------------------------------------
 .byte   W96
@  #09 @077   ----------------------------------------
 .byte   W96
@  #09 @078   ----------------------------------------
 .byte   W96
@  #09 @079   ----------------------------------------
 .byte   W96
@  #09 @080   ----------------------------------------
 .byte   W96
@  #09 @081   ----------------------------------------
 .byte   W96
@  #09 @082   ----------------------------------------
 .byte   W96
@  #09 @083   ----------------------------------------
 .byte   W96
@  #09 @084   ----------------------------------------
 .byte   W96
@  #09 @085   ----------------------------------------
 .byte   W96
@  #09 @086   ----------------------------------------
 .byte   W96
@  #09 @087   ----------------------------------------
 .byte   W96
@  #09 @088   ----------------------------------------
 .byte   W96
@  #09 @089   ----------------------------------------
 .byte   W96
@  #09 @090   ----------------------------------------
 .byte   W96
@  #09 @091   ----------------------------------------
 .byte   W96
@  #09 @092   ----------------------------------------
 .byte   W96
@  #09 @093   ----------------------------------------
 .byte   W96
@  #09 @094   ----------------------------------------
 .byte   W96
@  #09 @095   ----------------------------------------
 .byte   W96
@  #09 @096   ----------------------------------------
 .byte   W96
@  #09 @097   ----------------------------------------
 .byte   W96
@  #09 @098   ----------------------------------------
 .byte   W96
@  #09 @099   ----------------------------------------
 .byte   W96
@  #09 @100   ----------------------------------------
 .byte   W96
@  #09 @101   ----------------------------------------
 .byte   W96
@  #09 @102   ----------------------------------------
 .byte   W96
@  #09 @103   ----------------------------------------
 .byte   W96
@  #09 @104   ----------------------------------------
 .byte   W96
@  #09 @105   ----------------------------------------
 .byte   W96
@  #09 @106   ----------------------------------------
 .byte   W96
@  #09 @107   ----------------------------------------
 .byte   W96
@  #09 @108   ----------------------------------------
 .byte   PATT
  .word Label_01002A08
@  #09 @109   ----------------------------------------
 .byte   PATT
  .word Label_01002A13
@  #09 @110   ----------------------------------------
 .byte   PATT
  .word Label_01002A1E
@  #09 @111   ----------------------------------------
 .byte   PATT
  .word Label_01002A29
@  #09 @112   ----------------------------------------
 .byte   GOTO
  .word Label_01002A34
 .byte   FINE

@******************************************************@
	.align	2

song01:
	.byte	9	@ NumTrks
	.byte	0	@ NumBlks
	.byte	song01_pri	@ Priority
	.byte	song01_rev	@ Reverb.
    
	.word	song01_grp
    
	.word	song01_001
	.word	song01_002
	.word	song01_003
	.word	song01_004
	.word	song01_005
	.word	song01_006
	.word	song01_007
	.word	song01_008
	.word	song01_009

	.end
