	.include "MPlayDef.s"

	.equ	song09_grp, voicegroup000
	.equ	song09_pri, 10
	.equ	song09_rev, 148
	.equ	song09_mvl, 127
	.equ	song09_key, 0
	.equ	song09_tbs, 1
	.equ	song09_exg, 0
	.equ	song09_cmp, 1

	.section .rodata
	.global	song09
	.align	2


@**************** Track 1 (Midi-Chn.0) ****************@

song09_001:
@  #01 @000   ----------------------------------------
 .byte   KEYSH , song09_key+0
 .byte   TEMPO , 270*song09_tbs/2
Label_01002208:
 .byte   VOICE , 88
 .byte   PAN , c_v-1
 .byte   TIE ,En1 ,v127
 .byte   BENDR, 12
 .byte   VOL , 69*song09_mvl/mxv
 .byte   W96
@  #01 @001   ----------------------------------------
 .byte   W96
@  #01 @002   ----------------------------------------
 .byte   W96
@  #01 @003   ----------------------------------------
 .byte   W96
@  #01 @004   ----------------------------------------
Label_01002217:
 .byte   EOT
 .byte   En1
 .byte   TIE ,En1 ,v127
 .byte   W96
 .byte   PEND 
@  #01 @005   ----------------------------------------
 .byte   W96
@  #01 @006   ----------------------------------------
 .byte   W96
@  #01 @007   ----------------------------------------
 .byte   W96
@  #01 @008   ----------------------------------------
 .byte   PATT
  .word Label_01002217
@  #01 @009   ----------------------------------------
 .byte   W96
@  #01 @010   ----------------------------------------
 .byte   W96
@  #01 @011   ----------------------------------------
 .byte   W96
@  #01 @012   ----------------------------------------
 .byte   PATT
  .word Label_01002217
@  #01 @013   ----------------------------------------
 .byte   W96
@  #01 @014   ----------------------------------------
 .byte   W96
@  #01 @015   ----------------------------------------
 .byte   W96
@  #01 @016   ----------------------------------------
 .byte   PATT
  .word Label_01002217
@  #01 @017   ----------------------------------------
 .byte   W96
@  #01 @018   ----------------------------------------
 .byte   W96
@  #01 @019   ----------------------------------------
 .byte   W96
@  #01 @020   ----------------------------------------
Label_01002239:
 .byte   EOT
 .byte   En1
 .byte   TIE ,Cn1 ,v127
 .byte   W96
 .byte   PEND 
@  #01 @021   ----------------------------------------
 .byte   W96
@  #01 @022   ----------------------------------------
 .byte   W96
@  #01 @023   ----------------------------------------
 .byte   W96
@  #01 @024   ----------------------------------------
Label_01002243:
 .byte   EOT
 .byte   Cn1
 .byte   TIE ,En1 ,v127
 .byte   W96
 .byte   PEND 
@  #01 @025   ----------------------------------------
 .byte   W96
@  #01 @026   ----------------------------------------
 .byte   W96
@  #01 @027   ----------------------------------------
 .byte   W96
@  #01 @028   ----------------------------------------
 .byte   PATT
  .word Label_01002239
@  #01 @029   ----------------------------------------
 .byte   W96
@  #01 @030   ----------------------------------------
 .byte   W96
@  #01 @031   ----------------------------------------
 .byte   W96
@  #01 @032   ----------------------------------------
 .byte   PATT
  .word Label_01002243
@  #01 @033   ----------------------------------------
 .byte   W96
@  #01 @034   ----------------------------------------
 .byte   W96
@  #01 @035   ----------------------------------------
 .byte   W96
@  #01 @036   ----------------------------------------
 .byte   PATT
  .word Label_01002217
@  #01 @037   ----------------------------------------
 .byte   W96
@  #01 @038   ----------------------------------------
 .byte   W96
@  #01 @039   ----------------------------------------
 .byte   W96
@  #01 @040   ----------------------------------------
 .byte   PATT
  .word Label_01002239
@  #01 @041   ----------------------------------------
 .byte   W96
@  #01 @042   ----------------------------------------
 .byte   W96
@  #01 @043   ----------------------------------------
 .byte   W96
@  #01 @044   ----------------------------------------
 .byte   PATT
  .word Label_01002243
@  #01 @045   ----------------------------------------
 .byte   W96
@  #01 @046   ----------------------------------------
 .byte   W96
@  #01 @047   ----------------------------------------
 .byte   W96
@  #01 @048   ----------------------------------------
 .byte   PATT
  .word Label_01002239
@  #01 @049   ----------------------------------------
 .byte   W96
@  #01 @050   ----------------------------------------
 .byte   W96
@  #01 @051   ----------------------------------------
 .byte   W60
 .byte   EOT
 .byte   Cn1
 .byte   VOICE , 34
 .byte   N12 ,Bn2 ,v060
 .byte   W12
 .byte   Dn3 ,v066
 .byte   W12
 .byte   N24 ,En3 ,v072
 .byte   W12
@  #01 @052   ----------------------------------------
Label_0100228C:
 .byte   W12
 .byte   N12 ,Bn2 ,v084
 .byte   W12
 .byte   Dn3 ,v090
 .byte   W12
 .byte   Gn3 ,v096
 .byte   W12
 .byte   En3 ,v102
 .byte   W12
 .byte   Bn2 ,v108
 .byte   W12
 .byte   Dn3 ,v114
 .byte   W12
 .byte   N24 ,En3 ,v120
 .byte   W12
 .byte   PEND 
@  #01 @053   ----------------------------------------
Label_010022A5:
 .byte   W12
 .byte   N12 ,Bn2 ,v120
 .byte   W12
 .byte   Dn3 ,v114
 .byte   W12
 .byte   Gn3 ,v108
 .byte   W12
 .byte   En3 ,v102
 .byte   W12
 .byte   Bn2 ,v096
 .byte   W12
 .byte   Dn3 ,v090
 .byte   W12
 .byte   N24 ,En3 ,v084
 .byte   W12
 .byte   PEND 
@  #01 @054   ----------------------------------------
 .byte   PATT
  .word Label_0100228C
@  #01 @055   ----------------------------------------
Label_010022C3:
 .byte   W12
 .byte   N12 ,Bn2 ,v120
 .byte   W12
 .byte   Dn3 ,v114
 .byte   W12
 .byte   Gn3 ,v108
 .byte   W12
 .byte   En3 ,v102
 .byte   W12
 .byte   Bn2 ,v096
 .byte   W12
 .byte   En3 ,v090
 .byte   W12
 .byte   Dn3 ,v084
 .byte   W12
 .byte   PEND 
@  #01 @056   ----------------------------------------
Label_010022DB:
 .byte   N12 ,Cn3 ,v080
 .byte   W12
 .byte   Gn2 ,v084
 .byte   W12
 .byte   Cn3 ,v090
 .byte   W12
 .byte   En3 ,v096
 .byte   W12
 .byte   Dn3 ,v102
 .byte   W12
 .byte   Bn2 ,v108
 .byte   W12
 .byte   Gn2 ,v114
 .byte   W12
 .byte   N24 ,Cn3 ,v120
 .byte   W12
 .byte   PEND 
@  #01 @057   ----------------------------------------
Label_010022F6:
 .byte   W12
 .byte   N12 ,Gn2 ,v120
 .byte   W12
 .byte   Cn3 ,v114
 .byte   W12
 .byte   En3 ,v108
 .byte   W12
 .byte   Dn3 ,v102
 .byte   W12
 .byte   Bn2 ,v096
 .byte   W12
 .byte   Gn2 ,v090
 .byte   W12
 .byte   Bn2 ,v084
 .byte   W12
 .byte   PEND 
@  #01 @058   ----------------------------------------
Label_0100230E:
 .byte   N12 ,Cn3 ,v127
 .byte   W12
 .byte   Gn2 ,v084
 .byte   W12
 .byte   Cn3 ,v090
 .byte   W12
 .byte   En3 ,v096
 .byte   W12
 .byte   Dn3 ,v102
 .byte   W12
 .byte   Bn2 ,v108
 .byte   W12
 .byte   Gn2 ,v114
 .byte   W12
 .byte   N24 ,Cn3 ,v120
 .byte   W12
 .byte   PEND 
@  #01 @059   ----------------------------------------
 .byte   W12
 .byte   N12 ,Gn2
 .byte   W12
 .byte   Cn3 ,v114
 .byte   W12
 .byte   En3 ,v108
 .byte   W12
 .byte   Gn3 ,v102
 .byte   W12
 .byte   Fs3 ,v096
 .byte   W12
 .byte   Dn3 ,v090
 .byte   W12
 .byte   N24 ,Bn2 ,v084
 .byte   W12
@  #01 @060   ----------------------------------------
 .byte   PATT
  .word Label_0100228C
@  #01 @061   ----------------------------------------
 .byte   PATT
  .word Label_010022A5
@  #01 @062   ----------------------------------------
 .byte   PATT
  .word Label_0100228C
@  #01 @063   ----------------------------------------
 .byte   PATT
  .word Label_010022C3
@  #01 @064   ----------------------------------------
 .byte   PATT
  .word Label_010022DB
@  #01 @065   ----------------------------------------
 .byte   PATT
  .word Label_010022F6
@  #01 @066   ----------------------------------------
 .byte   PATT
  .word Label_0100230E
@  #01 @067   ----------------------------------------
 .byte   W12
 .byte   N12 ,Gn2 ,v120
 .byte   W12
 .byte   Cn3 ,v114
 .byte   W12
 .byte   En3 ,v108
 .byte   W12
 .byte   Gn3 ,v102
 .byte   W12
 .byte   Fs3 ,v096
 .byte   W12
 .byte   Dn3 ,v090
 .byte   W12
 .byte   Bn2 ,v084
 .byte   W12
@  #01 @068   ----------------------------------------
 .byte   VOICE , 88
 .byte   TIE ,En1 ,v127
 .byte   W96
@  #01 @069   ----------------------------------------
 .byte   W96
@  #01 @070   ----------------------------------------
 .byte   W96
@  #01 @071   ----------------------------------------
 .byte   W96
@  #01 @072   ----------------------------------------
 .byte   PATT
  .word Label_01002217
@  #01 @073   ----------------------------------------
 .byte   W96
@  #01 @074   ----------------------------------------
 .byte   W96
@  #01 @075   ----------------------------------------
 .byte   W96
@  #01 @076   ----------------------------------------
 .byte   EOT
 .byte   En1
 .byte   GOTO
  .word Label_01002208
 .byte   FINE

@**************** Track 2 (Midi-Chn.1) ****************@

song09_002:
@  #02 @000   ----------------------------------------
 .byte   KEYSH , song09_key+0
Label_54C6EE:
 .byte   VOICE , 100
 .byte   PAN , c_v-5
 .byte   N24 ,Bn2 ,v060
 .byte   BENDR, 12
 .byte   VOL , 70*song09_mvl/mxv
 .byte   W24
 .byte   N24 ,En2 ,v070
 .byte   W24
 .byte   Bn2 ,v080
 .byte   W24
 .byte   Cn3 ,v090
 .byte   W24
@  #02 @001   ----------------------------------------
Label_54C704:
 .byte   N24 ,En2 ,v080
 .byte   W24
 .byte   Cn3 ,v090
 .byte   W24
 .byte   An2 ,v100
 .byte   W24
 .byte   En2 ,v080
 .byte   W24
 .byte   PEND 
@  #02 @002   ----------------------------------------
Label_54C712:
 .byte   N24 ,Bn2 ,v070
 .byte   W24
 .byte   En2 ,v080
 .byte   W24
 .byte   Bn2 ,v090
 .byte   W24
 .byte   Cn3 ,v080
 .byte   W24
 .byte   PEND 
@  #02 @003   ----------------------------------------
Label_54C720:
 .byte   N24 ,En2 ,v090
 .byte   W24
 .byte   Cn3 ,v100
 .byte   W24
 .byte   An2 ,v110
 .byte   W24
 .byte   En2 ,v090
 .byte   W24
 .byte   PEND 
@  #02 @004   ----------------------------------------
Label_54C72E:
 .byte   N24 ,Bn2 ,v060
 .byte   W24
 .byte   En2 ,v070
 .byte   W24
 .byte   Bn2 ,v080
 .byte   W24
 .byte   Cn3 ,v090
 .byte   W24
 .byte   PEND 
@  #02 @005   ----------------------------------------
 .byte   PATT
  .word Label_54C704
@  #02 @006   ----------------------------------------
 .byte   PATT
  .word Label_54C712
@  #02 @007   ----------------------------------------
 .byte   PATT
  .word Label_54C720
@  #02 @008   ----------------------------------------
 .byte   PATT
  .word Label_54C72E
@  #02 @009   ----------------------------------------
 .byte   PATT
  .word Label_54C704
@  #02 @010   ----------------------------------------
 .byte   PATT
  .word Label_54C712
@  #02 @011   ----------------------------------------
 .byte   PATT
  .word Label_54C720
@  #02 @012   ----------------------------------------
 .byte   PATT
  .word Label_54C72E
@  #02 @013   ----------------------------------------
 .byte   PATT
  .word Label_54C704
@  #02 @014   ----------------------------------------
 .byte   PATT
  .word Label_54C712
@  #02 @015   ----------------------------------------
 .byte   PATT
  .word Label_54C720
@  #02 @016   ----------------------------------------
 .byte   PATT
  .word Label_54C72E
@  #02 @017   ----------------------------------------
 .byte   PATT
  .word Label_54C704
@  #02 @018   ----------------------------------------
 .byte   PATT
  .word Label_54C712
@  #02 @019   ----------------------------------------
 .byte   PATT
  .word Label_54C720
@  #02 @020   ----------------------------------------
 .byte   PATT
  .word Label_54C72E
@  #02 @021   ----------------------------------------
 .byte   PATT
  .word Label_54C704
@  #02 @022   ----------------------------------------
 .byte   PATT
  .word Label_54C712
@  #02 @023   ----------------------------------------
 .byte   PATT
  .word Label_54C720
@  #02 @024   ----------------------------------------
 .byte   PATT
  .word Label_54C72E
@  #02 @025   ----------------------------------------
 .byte   PATT
  .word Label_54C704
@  #02 @026   ----------------------------------------
 .byte   PATT
  .word Label_54C712
@  #02 @027   ----------------------------------------
 .byte   PATT
  .word Label_54C720
@  #02 @028   ----------------------------------------
 .byte   PATT
  .word Label_54C72E
@  #02 @029   ----------------------------------------
 .byte   PATT
  .word Label_54C704
@  #02 @030   ----------------------------------------
 .byte   PATT
  .word Label_54C712
@  #02 @031   ----------------------------------------
 .byte   PATT
  .word Label_54C720
@  #02 @032   ----------------------------------------
 .byte   N24 ,Bn2 ,v042
 .byte   W24
 .byte   En2 ,v050
 .byte   W24
 .byte   Bn2 ,v056
 .byte   W24
 .byte   Cn3 ,v064
 .byte   W24
@  #02 @033   ----------------------------------------
 .byte   En2 ,v056
 .byte   W24
 .byte   Cn3 ,v064
 .byte   W24
 .byte   An2 ,v080
 .byte   W24
 .byte   En2 ,v064
 .byte   W24
@  #02 @034   ----------------------------------------
 .byte   Bn2 ,v056
 .byte   W24
 .byte   En2 ,v064
 .byte   W24
 .byte   Bn2 ,v072
 .byte   W24
 .byte   Cn3 ,v080
 .byte   W24
@  #02 @035   ----------------------------------------
 .byte   PATT
  .word Label_54C720
@  #02 @036   ----------------------------------------
 .byte   PATT
  .word Label_54C72E
@  #02 @037   ----------------------------------------
 .byte   PATT
  .word Label_54C704
@  #02 @038   ----------------------------------------
 .byte   PATT
  .word Label_54C712
@  #02 @039   ----------------------------------------
 .byte   PATT
  .word Label_54C720
@  #02 @040   ----------------------------------------
 .byte   PATT
  .word Label_54C72E
@  #02 @041   ----------------------------------------
 .byte   PATT
  .word Label_54C704
@  #02 @042   ----------------------------------------
 .byte   PATT
  .word Label_54C712
@  #02 @043   ----------------------------------------
 .byte   PATT
  .word Label_54C720
@  #02 @044   ----------------------------------------
 .byte   PATT
  .word Label_54C72E
@  #02 @045   ----------------------------------------
 .byte   PATT
  .word Label_54C704
@  #02 @046   ----------------------------------------
 .byte   PATT
  .word Label_54C712
@  #02 @047   ----------------------------------------
 .byte   PATT
  .word Label_54C720
@  #02 @048   ----------------------------------------
 .byte   PATT
  .word Label_54C72E
@  #02 @049   ----------------------------------------
 .byte   PATT
  .word Label_54C704
@  #02 @050   ----------------------------------------
 .byte   PATT
  .word Label_54C712
@  #02 @051   ----------------------------------------
 .byte   PATT
  .word Label_54C720
@  #02 @052   ----------------------------------------
 .byte   PATT
  .word Label_54C72E
@  #02 @053   ----------------------------------------
 .byte   PATT
  .word Label_54C704
@  #02 @054   ----------------------------------------
 .byte   PATT
  .word Label_54C712
@  #02 @055   ----------------------------------------
 .byte   PATT
  .word Label_54C720
@  #02 @056   ----------------------------------------
 .byte   PATT
  .word Label_54C72E
@  #02 @057   ----------------------------------------
 .byte   PATT
  .word Label_54C704
@  #02 @058   ----------------------------------------
 .byte   PATT
  .word Label_54C712
@  #02 @059   ----------------------------------------
 .byte   PATT
  .word Label_54C720
@  #02 @060   ----------------------------------------
 .byte   PATT
  .word Label_54C72E
@  #02 @061   ----------------------------------------
 .byte   PATT
  .word Label_54C704
@  #02 @062   ----------------------------------------
 .byte   PATT
  .word Label_54C712
@  #02 @063   ----------------------------------------
 .byte   PATT
  .word Label_54C720
@  #02 @064   ----------------------------------------
 .byte   PATT
  .word Label_54C72E
@  #02 @065   ----------------------------------------
 .byte   PATT
  .word Label_54C704
@  #02 @066   ----------------------------------------
 .byte   PATT
  .word Label_54C712
@  #02 @067   ----------------------------------------
 .byte   PATT
  .word Label_54C720
@  #02 @068   ----------------------------------------
 .byte   PATT
  .word Label_54C72E
@  #02 @069   ----------------------------------------
 .byte   PATT
  .word Label_54C704
@  #02 @070   ----------------------------------------
 .byte   PATT
  .word Label_54C712
@  #02 @071   ----------------------------------------
 .byte   PATT
  .word Label_54C720
@  #02 @072   ----------------------------------------
 .byte   PATT
  .word Label_54C72E
@  #02 @073   ----------------------------------------
 .byte   PATT
  .word Label_54C704
@  #02 @074   ----------------------------------------
 .byte   PATT
  .word Label_54C712
@  #02 @075   ----------------------------------------
 .byte   PATT
  .word Label_54C720
@  #02 @076   ----------------------------------------
 .byte   GOTO
  .word Label_54C6EE
 .byte   FINE

@**************** Track 3 (Midi-Chn.2) ****************@

song09_003:
@  #03 @000   ----------------------------------------
 .byte   KEYSH , song09_key+0
Label_01002982:
 .byte   VOICE , 100
 .byte   BENDR, 12
 .byte   VOL , 70*song09_mvl/mxv
 .byte   W12
 .byte   N24 ,En2 ,v020
 .byte   W24
 .byte   Bn2 ,v024
 .byte   W24
 .byte   En2 ,v026
 .byte   W24
 .byte   Bn2 ,v030
 .byte   W12
@  #03 @001   ----------------------------------------
Label_01002996:
 .byte   W12
 .byte   N24 ,Cn3 ,v026
 .byte   W24
 .byte   En2 ,v030
 .byte   W24
 .byte   Cn3 ,v034
 .byte   W24
 .byte   An2 ,v026
 .byte   W12
 .byte   PEND 
@  #03 @002   ----------------------------------------
Label_010029A5:
 .byte   W12
 .byte   N24 ,En2 ,v024
 .byte   W24
 .byte   Bn2 ,v026
 .byte   W24
 .byte   En2 ,v030
 .byte   W24
 .byte   Bn2 ,v026
 .byte   W12
 .byte   PEND 
@  #03 @003   ----------------------------------------
Label_010029B4:
 .byte   W12
 .byte   N24 ,Cn3 ,v030
 .byte   W24
 .byte   En2 ,v034
 .byte   W24
 .byte   Cn3 ,v036
 .byte   W24
 .byte   An2 ,v030
 .byte   W12
 .byte   PEND 
@  #03 @004   ----------------------------------------
Label_010029C3:
 .byte   W12
 .byte   N24 ,En2 ,v020
 .byte   W24
 .byte   Bn2 ,v024
 .byte   W24
 .byte   En2 ,v026
 .byte   W24
 .byte   Bn2 ,v030
 .byte   W12
 .byte   PEND 
@  #03 @005   ----------------------------------------
 .byte   PATT
  .word Label_01002996
@  #03 @006   ----------------------------------------
 .byte   PATT
  .word Label_010029A5
@  #03 @007   ----------------------------------------
 .byte   PATT
  .word Label_010029B4
@  #03 @008   ----------------------------------------
 .byte   PATT
  .word Label_010029C3
@  #03 @009   ----------------------------------------
 .byte   PATT
  .word Label_01002996
@  #03 @010   ----------------------------------------
 .byte   PATT
  .word Label_010029A5
@  #03 @011   ----------------------------------------
 .byte   PATT
  .word Label_010029B4
@  #03 @012   ----------------------------------------
 .byte   PATT
  .word Label_010029C3
@  #03 @013   ----------------------------------------
 .byte   PATT
  .word Label_01002996
@  #03 @014   ----------------------------------------
 .byte   PATT
  .word Label_010029A5
@  #03 @015   ----------------------------------------
 .byte   PATT
  .word Label_010029B4
@  #03 @016   ----------------------------------------
 .byte   PATT
  .word Label_010029C3
@  #03 @017   ----------------------------------------
 .byte   PATT
  .word Label_01002996
@  #03 @018   ----------------------------------------
 .byte   PATT
  .word Label_010029A5
@  #03 @019   ----------------------------------------
 .byte   PATT
  .word Label_010029B4
@  #03 @020   ----------------------------------------
 .byte   PATT
  .word Label_010029C3
@  #03 @021   ----------------------------------------
 .byte   PATT
  .word Label_01002996
@  #03 @022   ----------------------------------------
 .byte   PATT
  .word Label_010029A5
@  #03 @023   ----------------------------------------
 .byte   PATT
  .word Label_010029B4
@  #03 @024   ----------------------------------------
 .byte   PATT
  .word Label_010029C3
@  #03 @025   ----------------------------------------
 .byte   PATT
  .word Label_01002996
@  #03 @026   ----------------------------------------
 .byte   PATT
  .word Label_010029A5
@  #03 @027   ----------------------------------------
 .byte   PATT
  .word Label_010029B4
@  #03 @028   ----------------------------------------
 .byte   PATT
  .word Label_010029C3
@  #03 @029   ----------------------------------------
 .byte   PATT
  .word Label_01002996
@  #03 @030   ----------------------------------------
 .byte   PATT
  .word Label_010029A5
@  #03 @031   ----------------------------------------
 .byte   PATT
  .word Label_010029B4
@  #03 @032   ----------------------------------------
 .byte   W12
 .byte   N24 ,En2 ,v014
 .byte   W24
 .byte   Bn2 ,v016
 .byte   W24
 .byte   En2 ,v018
 .byte   W24
 .byte   Bn2 ,v022
 .byte   W12
@  #03 @033   ----------------------------------------
 .byte   W12
 .byte   Cn3 ,v018
 .byte   W24
 .byte   En2 ,v022
 .byte   W24
 .byte   Cn3 ,v028
 .byte   W24
 .byte   An2 ,v020
 .byte   W12
@  #03 @034   ----------------------------------------
 .byte   W12
 .byte   En2
 .byte   W24
 .byte   Bn2
 .byte   W24
 .byte   En2 ,v030
 .byte   W24
 .byte   Bn2 ,v026
 .byte   W12
@  #03 @035   ----------------------------------------
 .byte   PATT
  .word Label_010029B4
@  #03 @036   ----------------------------------------
 .byte   PATT
  .word Label_010029C3
@  #03 @037   ----------------------------------------
 .byte   PATT
  .word Label_01002996
@  #03 @038   ----------------------------------------
 .byte   PATT
  .word Label_010029A5
@  #03 @039   ----------------------------------------
 .byte   PATT
  .word Label_010029B4
@  #03 @040   ----------------------------------------
 .byte   PATT
  .word Label_010029C3
@  #03 @041   ----------------------------------------
 .byte   PATT
  .word Label_01002996
@  #03 @042   ----------------------------------------
 .byte   PATT
  .word Label_010029A5
@  #03 @043   ----------------------------------------
 .byte   PATT
  .word Label_010029B4
@  #03 @044   ----------------------------------------
 .byte   PATT
  .word Label_010029C3
@  #03 @045   ----------------------------------------
 .byte   PATT
  .word Label_01002996
@  #03 @046   ----------------------------------------
 .byte   PATT
  .word Label_010029A5
@  #03 @047   ----------------------------------------
 .byte   PATT
  .word Label_010029B4
@  #03 @048   ----------------------------------------
 .byte   PATT
  .word Label_010029C3
@  #03 @049   ----------------------------------------
 .byte   PATT
  .word Label_01002996
@  #03 @050   ----------------------------------------
 .byte   PATT
  .word Label_010029A5
@  #03 @051   ----------------------------------------
 .byte   PATT
  .word Label_010029B4
@  #03 @052   ----------------------------------------
 .byte   PATT
  .word Label_010029C3
@  #03 @053   ----------------------------------------
 .byte   PATT
  .word Label_01002996
@  #03 @054   ----------------------------------------
Label_01002ADE:
 .byte   W12
 .byte   N24 ,En2 ,v024
 .byte   W24
 .byte   N12 ,Bn2 ,v026
 .byte   W12
 .byte   Gn3 ,v058
 .byte   W12
 .byte   N24 ,En2 ,v030
 .byte   W24
 .byte   Bn2 ,v026
 .byte   W12
 .byte   PEND 
@  #03 @055   ----------------------------------------
Label_01002AF2:
 .byte   W12
 .byte   N24 ,Cn3 ,v030
 .byte   W24
 .byte   N12 ,En2 ,v034
 .byte   W12
 .byte   N06 ,Ds4 ,v064
 .byte   W12
 .byte   N24 ,Cn3 ,v036
 .byte   W24
 .byte   An2 ,v030
 .byte   W12
 .byte   PEND 
@  #03 @056   ----------------------------------------
 .byte   PATT
  .word Label_010029C3
@  #03 @057   ----------------------------------------
 .byte   PATT
  .word Label_01002996
@  #03 @058   ----------------------------------------
 .byte   PATT
  .word Label_010029A5
@  #03 @059   ----------------------------------------
 .byte   PATT
  .word Label_010029B4
@  #03 @060   ----------------------------------------
 .byte   PATT
  .word Label_010029C3
@  #03 @061   ----------------------------------------
 .byte   PATT
  .word Label_01002996
@  #03 @062   ----------------------------------------
 .byte   PATT
  .word Label_01002ADE
@  #03 @063   ----------------------------------------
 .byte   PATT
  .word Label_01002AF2
@  #03 @064   ----------------------------------------
 .byte   PATT
  .word Label_010029C3
@  #03 @065   ----------------------------------------
 .byte   PATT
  .word Label_01002996
@  #03 @066   ----------------------------------------
 .byte   PATT
  .word Label_010029A5
@  #03 @067   ----------------------------------------
 .byte   PATT
  .word Label_010029B4
@  #03 @068   ----------------------------------------
 .byte   PATT
  .word Label_010029C3
@  #03 @069   ----------------------------------------
 .byte   PATT
  .word Label_01002996
@  #03 @070   ----------------------------------------
 .byte   PATT
  .word Label_010029A5
@  #03 @071   ----------------------------------------
 .byte   PATT
  .word Label_010029B4
@  #03 @072   ----------------------------------------
 .byte   PATT
  .word Label_010029C3
@  #03 @073   ----------------------------------------
 .byte   PATT
  .word Label_01002996
@  #03 @074   ----------------------------------------
 .byte   PATT
  .word Label_010029A5
@  #03 @075   ----------------------------------------
 .byte   W12
 .byte   N24 ,Cn3 ,v030
 .byte   W24
 .byte   En2 ,v034
 .byte   W24
 .byte   Cn3 ,v036
 .byte   W24
 .byte   N12 ,An2 ,v030
 .byte   W12
@  #03 @076   ----------------------------------------
 .byte   GOTO
  .word Label_01002982
 .byte   FINE

@**************** Track 4 (Midi-Chn.3) ****************@

song09_004:
@  #04 @000   ----------------------------------------
 .byte   KEYSH , song09_key+0
Label_01003216:
 .byte   VOICE , 117
 .byte   VOL , 34*song09_mvl/mxv
 .byte   PAN , c_v+12
 .byte   N48 ,Cn3 ,v127
 .byte   BENDR, 12
 .byte   W48
 .byte   N48
 .byte   W48
@  #04 @001   ----------------------------------------
Label_01003224:
 .byte   N48 ,Cn3 ,v127
 .byte   W48
 .byte   Cn3
 .byte   W48
 .byte   PEND 
@  #04 @002   ----------------------------------------
 .byte   PATT
  .word Label_01003224
@  #04 @003   ----------------------------------------
Label_01003230:
 .byte   N48 ,Cn3 ,v127
 .byte   W48
 .byte   N24
 .byte   W24
 .byte   Cn3
 .byte   W24
 .byte   PEND 
@  #04 @004   ----------------------------------------
 .byte   PATT
  .word Label_01003224
@  #04 @005   ----------------------------------------
 .byte   PATT
  .word Label_01003224
@  #04 @006   ----------------------------------------
 .byte   PATT
  .word Label_01003224
@  #04 @007   ----------------------------------------
 .byte   PATT
  .word Label_01003230
@  #04 @008   ----------------------------------------
Label_0100324D:
 .byte   N24 ,Cn3 ,v127
 .byte   W24
 .byte   En2
 .byte   W24
 .byte   Cn3
 .byte   W24
 .byte   En2
 .byte   W24
 .byte   PEND 
@  #04 @009   ----------------------------------------
 .byte   PATT
  .word Label_0100324D
@  #04 @010   ----------------------------------------
 .byte   PATT
  .word Label_0100324D
@  #04 @011   ----------------------------------------
Label_01003262:
 .byte   N24 ,Cn3 ,v127
 .byte   W24
 .byte   En2
 .byte   W24
 .byte   N12 ,Cn3
 .byte   W12
 .byte   N06 ,En2
 .byte   W06
 .byte   En2
 .byte   W06
 .byte   N12
 .byte   W12
 .byte   En2
 .byte   W12
 .byte   PEND 
@  #04 @012   ----------------------------------------
 .byte   PATT
  .word Label_0100324D
@  #04 @013   ----------------------------------------
 .byte   PATT
  .word Label_0100324D
@  #04 @014   ----------------------------------------
 .byte   PATT
  .word Label_0100324D
@  #04 @015   ----------------------------------------
 .byte   PATT
  .word Label_01003262
@  #04 @016   ----------------------------------------
 .byte   PATT
  .word Label_0100324D
@  #04 @017   ----------------------------------------
 .byte   PATT
  .word Label_0100324D
@  #04 @018   ----------------------------------------
 .byte   PATT
  .word Label_0100324D
@  #04 @019   ----------------------------------------
 .byte   PATT
  .word Label_01003262
@  #04 @020   ----------------------------------------
 .byte   PATT
  .word Label_0100324D
@  #04 @021   ----------------------------------------
 .byte   PATT
  .word Label_0100324D
@  #04 @022   ----------------------------------------
 .byte   PATT
  .word Label_0100324D
@  #04 @023   ----------------------------------------
 .byte   PATT
  .word Label_01003262
@  #04 @024   ----------------------------------------
 .byte   PATT
  .word Label_0100324D
@  #04 @025   ----------------------------------------
 .byte   PATT
  .word Label_0100324D
@  #04 @026   ----------------------------------------
 .byte   PATT
  .word Label_0100324D
@  #04 @027   ----------------------------------------
 .byte   PATT
  .word Label_01003262
@  #04 @028   ----------------------------------------
 .byte   PATT
  .word Label_0100324D
@  #04 @029   ----------------------------------------
 .byte   PATT
  .word Label_0100324D
@  #04 @030   ----------------------------------------
 .byte   PATT
  .word Label_0100324D
@  #04 @031   ----------------------------------------
 .byte   PATT
  .word Label_01003262
@  #04 @032   ----------------------------------------
 .byte   TIE ,Cn3 ,v127
 .byte   W96
@  #04 @033   ----------------------------------------
 .byte   W96
@  #04 @034   ----------------------------------------
 .byte   W96
@  #04 @035   ----------------------------------------
 .byte   W96
@  #04 @036   ----------------------------------------
 .byte   EOT
 .byte   N24
 .byte   W24
 .byte   En2
 .byte   W24
 .byte   Cn3
 .byte   W24
 .byte   En2
 .byte   W24
@  #04 @037   ----------------------------------------
 .byte   PATT
  .word Label_0100324D
@  #04 @038   ----------------------------------------
 .byte   PATT
  .word Label_0100324D
@  #04 @039   ----------------------------------------
 .byte   PATT
  .word Label_01003262
@  #04 @040   ----------------------------------------
 .byte   PATT
  .word Label_0100324D
@  #04 @041   ----------------------------------------
 .byte   PATT
  .word Label_0100324D
@  #04 @042   ----------------------------------------
 .byte   PATT
  .word Label_0100324D
@  #04 @043   ----------------------------------------
 .byte   PATT
  .word Label_01003262
@  #04 @044   ----------------------------------------
 .byte   PATT
  .word Label_0100324D
@  #04 @045   ----------------------------------------
 .byte   PATT
  .word Label_0100324D
@  #04 @046   ----------------------------------------
 .byte   PATT
  .word Label_0100324D
@  #04 @047   ----------------------------------------
 .byte   PATT
  .word Label_01003262
@  #04 @048   ----------------------------------------
 .byte   PATT
  .word Label_0100324D
@  #04 @049   ----------------------------------------
 .byte   PATT
  .word Label_0100324D
@  #04 @050   ----------------------------------------
 .byte   PATT
  .word Label_0100324D
@  #04 @051   ----------------------------------------
 .byte   PATT
  .word Label_01003262
@  #04 @052   ----------------------------------------
 .byte   PATT
  .word Label_0100324D
@  #04 @053   ----------------------------------------
 .byte   PATT
  .word Label_0100324D
@  #04 @054   ----------------------------------------
 .byte   PATT
  .word Label_0100324D
@  #04 @055   ----------------------------------------
 .byte   PATT
  .word Label_01003262
@  #04 @056   ----------------------------------------
 .byte   PATT
  .word Label_0100324D
@  #04 @057   ----------------------------------------
 .byte   PATT
  .word Label_0100324D
@  #04 @058   ----------------------------------------
 .byte   PATT
  .word Label_0100324D
@  #04 @059   ----------------------------------------
 .byte   PATT
  .word Label_01003262
@  #04 @060   ----------------------------------------
 .byte   PATT
  .word Label_0100324D
@  #04 @061   ----------------------------------------
 .byte   PATT
  .word Label_0100324D
@  #04 @062   ----------------------------------------
 .byte   PATT
  .word Label_0100324D
@  #04 @063   ----------------------------------------
 .byte   PATT
  .word Label_01003262
@  #04 @064   ----------------------------------------
 .byte   PATT
  .word Label_0100324D
@  #04 @065   ----------------------------------------
 .byte   PATT
  .word Label_0100324D
@  #04 @066   ----------------------------------------
 .byte   PATT
  .word Label_0100324D
@  #04 @067   ----------------------------------------
 .byte   PATT
  .word Label_01003262
@  #04 @068   ----------------------------------------
 .byte   PATT
  .word Label_01003224
@  #04 @069   ----------------------------------------
 .byte   PATT
  .word Label_01003224
@  #04 @070   ----------------------------------------
 .byte   PATT
  .word Label_01003224
@  #04 @071   ----------------------------------------
 .byte   PATT
  .word Label_01003230
@  #04 @072   ----------------------------------------
 .byte   PATT
  .word Label_01003224
@  #04 @073   ----------------------------------------
 .byte   PATT
  .word Label_01003224
@  #04 @074   ----------------------------------------
 .byte   PATT
  .word Label_01003224
@  #04 @075   ----------------------------------------
 .byte   PATT
  .word Label_01003230
@  #04 @076   ----------------------------------------
 .byte   GOTO
  .word Label_01003216
 .byte   FINE

@**************** Track 5 (Midi-Chn.4) ****************@

song09_005:
@  #05 @000   ----------------------------------------
 .byte   KEYSH , song09_key+0
Label_01003062:
 .byte   VOICE , 127
 .byte   VOL , 60*song09_mvl/mxv
 .byte   PAN , c_v+12
 .byte   BENDR, 12
 .byte   W96
@  #05 @001   ----------------------------------------
 .byte   W96
@  #05 @002   ----------------------------------------
 .byte   W96
@  #05 @003   ----------------------------------------
 .byte   W96
@  #05 @004   ----------------------------------------
 .byte   W96
@  #05 @005   ----------------------------------------
 .byte   W96
@  #05 @006   ----------------------------------------
 .byte   W96
@  #05 @007   ----------------------------------------
 .byte   W48
 .byte   N12 ,As3 ,v127
 .byte   W12
 .byte   N24
 .byte   W24
 .byte   TIE
 .byte   W12
@  #05 @008   ----------------------------------------
 .byte   W96
@  #05 @009   ----------------------------------------
 .byte   W96
@  #05 @010   ----------------------------------------
 .byte   W96
@  #05 @011   ----------------------------------------
 .byte   W96
@  #05 @012   ----------------------------------------
 .byte   W96
@  #05 @013   ----------------------------------------
 .byte   W96
@  #05 @014   ----------------------------------------
 .byte   W24
 .byte   EOT
 .byte   N24 ,Dn1
 .byte   W24
 .byte   N12
 .byte   W12
 .byte   N24
 .byte   W24
 .byte   N12
 .byte   W12
@  #05 @015   ----------------------------------------
 .byte   N24
 .byte   W24
 .byte   N12
 .byte   W12
 .byte   N24
 .byte   W24
 .byte   N12
 .byte   W12
 .byte   N06
 .byte   W06
 .byte   Dn1
 .byte   W06
 .byte   Dn1
 .byte   W06
 .byte   N54
 .byte   W06
@  #05 @016   ----------------------------------------
Label_0100309B:
 .byte   W48
 .byte   N96 ,Dn1 ,v127
 .byte   W48
 .byte   PEND 
@  #05 @017   ----------------------------------------
 .byte   PATT
  .word Label_0100309B
@  #05 @018   ----------------------------------------
Label_010030A6:
 .byte   W48
 .byte   N60 ,Dn1 ,v127
 .byte   W48
 .byte   PEND 
@  #05 @019   ----------------------------------------
Label_010030AC:
 .byte   W12
 .byte   N36 ,Dn1 ,v127
 .byte   W36
 .byte   N96
 .byte   W48
 .byte   PEND 
@  #05 @020   ----------------------------------------
 .byte   PATT
  .word Label_0100309B
@  #05 @021   ----------------------------------------
 .byte   PATT
  .word Label_0100309B
@  #05 @022   ----------------------------------------
 .byte   PATT
  .word Label_010030A6
@  #05 @023   ----------------------------------------
 .byte   PATT
  .word Label_010030AC
@  #05 @024   ----------------------------------------
 .byte   PATT
  .word Label_0100309B
@  #05 @025   ----------------------------------------
 .byte   PATT
  .word Label_0100309B
@  #05 @026   ----------------------------------------
 .byte   PATT
  .word Label_010030A6
@  #05 @027   ----------------------------------------
 .byte   PATT
  .word Label_010030AC
@  #05 @028   ----------------------------------------
 .byte   PATT
  .word Label_0100309B
@  #05 @029   ----------------------------------------
Label_010030E1:
 .byte   W48
 .byte   N72 ,Dn1 ,v127
 .byte   W48
 .byte   PEND 
@  #05 @030   ----------------------------------------
 .byte   W24
 .byte   N24
 .byte   W24
 .byte   N12
 .byte   W12
 .byte   N24
 .byte   W24
 .byte   N06
 .byte   W06
 .byte   Dn1
 .byte   W06
@  #05 @031   ----------------------------------------
 .byte   N24
 .byte   W24
 .byte   N12
 .byte   W12
 .byte   N24
 .byte   W24
 .byte   N12
 .byte   W12
 .byte   N06
 .byte   W06
 .byte   Dn1
 .byte   W06
 .byte   Dn1
 .byte   W06
 .byte   TIE
 .byte   W06
@  #05 @032   ----------------------------------------
 .byte   W96
@  #05 @033   ----------------------------------------
 .byte   W96
@  #05 @034   ----------------------------------------
 .byte   W96
@  #05 @035   ----------------------------------------
 .byte   W48
 .byte   EOT
 .byte   N06 ,Dn1 ,v060
 .byte   W06
 .byte   Dn1 ,v070
 .byte   W06
 .byte   Dn1 ,v080
 .byte   W06
 .byte   Dn1 ,v090
 .byte   W06
 .byte   Dn1 ,v100
 .byte   W06
 .byte   Dn1 ,v110
 .byte   W06
 .byte   Dn1 ,v120
 .byte   W06
 .byte   N54 ,Dn1 ,v127
 .byte   W06
@  #05 @036   ----------------------------------------
 .byte   PATT
  .word Label_0100309B
@  #05 @037   ----------------------------------------
 .byte   PATT
  .word Label_010030E1
@  #05 @038   ----------------------------------------
 .byte   PATT
  .word Label_010030A6
@  #05 @039   ----------------------------------------
 .byte   PATT
  .word Label_010030AC
@  #05 @040   ----------------------------------------
 .byte   PATT
  .word Label_0100309B
@  #05 @041   ----------------------------------------
 .byte   PATT
  .word Label_0100309B
@  #05 @042   ----------------------------------------
 .byte   PATT
  .word Label_010030A6
@  #05 @043   ----------------------------------------
 .byte   PATT
  .word Label_010030AC
@  #05 @044   ----------------------------------------
 .byte   PATT
  .word Label_0100309B
@  #05 @045   ----------------------------------------
 .byte   PATT
  .word Label_010030E1
@  #05 @046   ----------------------------------------
 .byte   PATT
  .word Label_010030A6
@  #05 @047   ----------------------------------------
 .byte   PATT
  .word Label_010030AC
@  #05 @048   ----------------------------------------
 .byte   PATT
  .word Label_0100309B
@  #05 @049   ----------------------------------------
 .byte   PATT
  .word Label_0100309B
@  #05 @050   ----------------------------------------
 .byte   PATT
  .word Label_010030A6
@  #05 @051   ----------------------------------------
 .byte   PATT
  .word Label_010030AC
@  #05 @052   ----------------------------------------
 .byte   PATT
  .word Label_0100309B
@  #05 @053   ----------------------------------------
 .byte   PATT
  .word Label_010030A6
@  #05 @054   ----------------------------------------
Label_0100317B:
 .byte   W48
 .byte   N12 ,Dn1 ,v127
 .byte   W48
 .byte   PEND 
@  #05 @055   ----------------------------------------
Label_01003181:
 .byte   W12
 .byte   N06 ,Dn1 ,v127
 .byte   W36
 .byte   N12
 .byte   W48
 .byte   PEND 
@  #05 @056   ----------------------------------------
 .byte   PATT
  .word Label_0100309B
@  #05 @057   ----------------------------------------
 .byte   PATT
  .word Label_0100309B
@  #05 @058   ----------------------------------------
 .byte   PATT
  .word Label_010030A6
@  #05 @059   ----------------------------------------
 .byte   PATT
  .word Label_010030AC
@  #05 @060   ----------------------------------------
 .byte   PATT
  .word Label_0100309B
@  #05 @061   ----------------------------------------
 .byte   PATT
  .word Label_010030A6
@  #05 @062   ----------------------------------------
 .byte   PATT
  .word Label_0100317B
@  #05 @063   ----------------------------------------
 .byte   PATT
  .word Label_01003181
@  #05 @064   ----------------------------------------
 .byte   PATT
  .word Label_0100309B
@  #05 @065   ----------------------------------------
 .byte   PATT
  .word Label_0100309B
@  #05 @066   ----------------------------------------
 .byte   PATT
  .word Label_010030A6
@  #05 @067   ----------------------------------------
 .byte   W12
 .byte   N36 ,Dn1 ,v127
 .byte   W36
 .byte   TIE
 .byte   W48
@  #05 @068   ----------------------------------------
 .byte   W96
@  #05 @069   ----------------------------------------
 .byte   W96
@  #05 @070   ----------------------------------------
 .byte   W96
@  #05 @071   ----------------------------------------
 .byte   W96
@  #05 @072   ----------------------------------------
 .byte   W96
@  #05 @073   ----------------------------------------
 .byte   W96
@  #05 @074   ----------------------------------------
 .byte   W96
@  #05 @075   ----------------------------------------
 .byte   W96
@  #05 @076   ----------------------------------------
 .byte   EOT
 .byte   GOTO
  .word Label_01003062
 .byte   FINE

@**************** Track 6 (Midi-Chn.5) ****************@

song09_006:
@  #06 @000   ----------------------------------------
 .byte   KEYSH , song09_key+0
Label_01002B9E:
 .byte   VOICE , 33
 .byte   VOL , 47*song09_mvl/mxv
 .byte   PAN , c_v-13
 .byte   BENDR, 12
 .byte   W96
@  #06 @001   ----------------------------------------
 .byte   W96
@  #06 @002   ----------------------------------------
 .byte   W96
@  #06 @003   ----------------------------------------
 .byte   W96
@  #06 @004   ----------------------------------------
 .byte   W96
@  #06 @005   ----------------------------------------
 .byte   W96
@  #06 @006   ----------------------------------------
 .byte   W96
@  #06 @007   ----------------------------------------
 .byte   W96
@  #06 @008   ----------------------------------------
 .byte   W96
@  #06 @009   ----------------------------------------
 .byte   W96
@  #06 @010   ----------------------------------------
 .byte   W96
@  #06 @011   ----------------------------------------
 .byte   W96
@  #06 @012   ----------------------------------------
 .byte   W96
@  #06 @013   ----------------------------------------
 .byte   W96
@  #06 @014   ----------------------------------------
 .byte   W96
@  #06 @015   ----------------------------------------
 .byte   W96
@  #06 @016   ----------------------------------------
Label_01002BB6:
 .byte   N12 ,En3 ,v127
 .byte   W12
 .byte   Bn2
 .byte   W12
 .byte   Dn3
 .byte   W12
 .byte   Gn3
 .byte   W12
 .byte   N24 ,En3
 .byte   W24
 .byte   N12 ,Dn3
 .byte   W12
 .byte   N24 ,En3
 .byte   W12
 .byte   PEND 
@  #06 @017   ----------------------------------------
Label_01002BCA:
 .byte   W12
 .byte   N12 ,Bn2 ,v127
 .byte   W12
 .byte   Dn3
 .byte   W12
 .byte   Gn3
 .byte   W12
 .byte   En3
 .byte   W12
 .byte   Bn2
 .byte   W12
 .byte   Dn3
 .byte   W12
 .byte   N24 ,En3
 .byte   W12
 .byte   PEND 
@  #06 @018   ----------------------------------------
Label_01002BDD:
 .byte   W12
 .byte   N12 ,Bn2 ,v127
 .byte   W12
 .byte   Dn3
 .byte   W12
 .byte   Bn2
 .byte   W12
 .byte   En3
 .byte   W12
 .byte   Bn2
 .byte   W12
 .byte   Dn3
 .byte   W12
 .byte   N24 ,En3
 .byte   W12
 .byte   PEND 
@  #06 @019   ----------------------------------------
Label_01002BF0:
 .byte   W12
 .byte   N12 ,Bn2 ,v127
 .byte   W12
 .byte   Dn3
 .byte   W12
 .byte   Gn3
 .byte   W12
 .byte   En3
 .byte   W12
 .byte   Bn2
 .byte   W12
 .byte   Dn3
 .byte   W12
 .byte   En3
 .byte   W12
 .byte   PEND 
@  #06 @020   ----------------------------------------
Label_01002C02:
 .byte   N12 ,En3 ,v127
 .byte   W12
 .byte   Bn2
 .byte   W12
 .byte   Dn3
 .byte   W12
 .byte   Gn3
 .byte   W12
 .byte   N24 ,En3
 .byte   W24
 .byte   N12 ,Cn3
 .byte   W12
 .byte   N24 ,Dn3
 .byte   W12
 .byte   PEND 
@  #06 @021   ----------------------------------------
Label_01002C16:
 .byte   W12
 .byte   N12 ,En3 ,v127
 .byte   W12
 .byte   Cn3
 .byte   W12
 .byte   Gn3
 .byte   W12
 .byte   En3
 .byte   W12
 .byte   Gn2
 .byte   W12
 .byte   Bn2
 .byte   W12
 .byte   N24 ,Cn3
 .byte   W12
 .byte   PEND 
@  #06 @022   ----------------------------------------
Label_01002C29:
 .byte   W12
 .byte   N12 ,Bn2 ,v127
 .byte   W12
 .byte   Cn3
 .byte   W12
 .byte   Gn3
 .byte   W12
 .byte   En3
 .byte   W12
 .byte   Gn2
 .byte   W12
 .byte   Dn3
 .byte   W12
 .byte   N24 ,Cn3
 .byte   W12
 .byte   PEND 
@  #06 @023   ----------------------------------------
Label_01002C3C:
 .byte   W12
 .byte   N12 ,Gn2 ,v127
 .byte   W12
 .byte   Cn3
 .byte   W12
 .byte   En3
 .byte   W12
 .byte   Gn3
 .byte   W12
 .byte   Fs3
 .byte   W12
 .byte   Dn3
 .byte   W12
 .byte   Bn2
 .byte   W12
 .byte   PEND 
@  #06 @024   ----------------------------------------
 .byte   PATT
  .word Label_01002BB6
@  #06 @025   ----------------------------------------
 .byte   PATT
  .word Label_01002BCA
@  #06 @026   ----------------------------------------
 .byte   PATT
  .word Label_01002BDD
@  #06 @027   ----------------------------------------
 .byte   PATT
  .word Label_01002BF0
@  #06 @028   ----------------------------------------
 .byte   PATT
  .word Label_01002C02
@  #06 @029   ----------------------------------------
 .byte   PATT
  .word Label_01002C16
@  #06 @030   ----------------------------------------
 .byte   PATT
  .word Label_01002C29
@  #06 @031   ----------------------------------------
 .byte   PATT
  .word Label_01002C3C
@  #06 @032   ----------------------------------------
 .byte   N12 ,En3 ,v116
 .byte   W12
 .byte   Bn2
 .byte   W12
 .byte   Dn3
 .byte   W12
 .byte   Gn3
 .byte   W12
 .byte   N24 ,En3
 .byte   W24
 .byte   N12 ,Dn3
 .byte   W12
 .byte   N24 ,En3
 .byte   W12
@  #06 @033   ----------------------------------------
 .byte   W12
 .byte   N12 ,Bn2 ,v092
 .byte   W12
 .byte   Dn3
 .byte   W12
 .byte   Gn3
 .byte   W12
 .byte   En3 ,v064
 .byte   W12
 .byte   Bn2
 .byte   W12
 .byte   Dn3
 .byte   W12
 .byte   N24 ,En3
 .byte   W12
@  #06 @034   ----------------------------------------
 .byte   W12
 .byte   N12 ,Bn2 ,v038
 .byte   W12
 .byte   Dn3
 .byte   W12
 .byte   Bn2
 .byte   W12
 .byte   En3 ,v020
 .byte   W12
 .byte   Bn2
 .byte   W12
 .byte   Dn3
 .byte   W12
 .byte   N24 ,En3
 .byte   W12
@  #06 @035   ----------------------------------------
 .byte   W12
 .byte   N12 ,Bn2
 .byte   W12
 .byte   Dn3 ,v008
 .byte   W12
 .byte   Gn3
 .byte   W12
 .byte   En3
 .byte   W12
 .byte   Bn2
 .byte   W12
 .byte   Dn3
 .byte   W12
 .byte   En3
 .byte   W12
@  #06 @036   ----------------------------------------
 .byte   VOICE , 117
 .byte   N24 ,Fn2 ,v127
 .byte   W24
 .byte   N12 ,An2
 .byte   W12
 .byte   N24 ,Cn3
 .byte   W24
 .byte   N12 ,An2
 .byte   W12
 .byte   En2
 .byte   W12
 .byte   En2
 .byte   W12
@  #06 @037   ----------------------------------------
Label_01002CD3:
 .byte   N24 ,Fn2 ,v127
 .byte   W24
 .byte   N12 ,An2
 .byte   W12
 .byte   An2
 .byte   W12
 .byte   Cn3
 .byte   W12
 .byte   En2
 .byte   W12
 .byte   N24
 .byte   W24
 .byte   PEND 
@  #06 @038   ----------------------------------------
Label_01002CE3:
 .byte   N24 ,Fn2 ,v127
 .byte   W24
 .byte   N12
 .byte   W12
 .byte   An2
 .byte   W12
 .byte   N24 ,Cn3
 .byte   W24
 .byte   N12 ,En2
 .byte   W12
 .byte   En2
 .byte   W12
 .byte   PEND 
@  #06 @039   ----------------------------------------
Label_01002CF4:
 .byte   N24 ,Fn2 ,v127
 .byte   W24
 .byte   N12 ,An2
 .byte   W12
 .byte   An2
 .byte   W12
 .byte   Cn3
 .byte   W12
 .byte   En2
 .byte   W12
 .byte   N24 ,An2
 .byte   W24
 .byte   PEND 
@  #06 @040   ----------------------------------------
Label_01002D05:
 .byte   N24 ,Fn2 ,v127
 .byte   W24
 .byte   N12 ,An2
 .byte   W12
 .byte   N24 ,Cn3
 .byte   W24
 .byte   N12 ,An2
 .byte   W12
 .byte   En2
 .byte   W12
 .byte   En2
 .byte   W12
 .byte   PEND 
@  #06 @041   ----------------------------------------
 .byte   PATT
  .word Label_01002CD3
@  #06 @042   ----------------------------------------
 .byte   PATT
  .word Label_01002CE3
@  #06 @043   ----------------------------------------
 .byte   PATT
  .word Label_01002CF4
@  #06 @044   ----------------------------------------
 .byte   PATT
  .word Label_01002D05
@  #06 @045   ----------------------------------------
 .byte   PATT
  .word Label_01002CD3
@  #06 @046   ----------------------------------------
 .byte   PATT
  .word Label_01002CE3
@  #06 @047   ----------------------------------------
 .byte   PATT
  .word Label_01002CF4
@  #06 @048   ----------------------------------------
 .byte   PATT
  .word Label_01002D05
@  #06 @049   ----------------------------------------
 .byte   PATT
  .word Label_01002CD3
@  #06 @050   ----------------------------------------
 .byte   PATT
  .word Label_01002CE3
@  #06 @051   ----------------------------------------
 .byte   PATT
  .word Label_01002CF4
@  #06 @052   ----------------------------------------
 .byte   PATT
  .word Label_01002D05
@  #06 @053   ----------------------------------------
 .byte   PATT
  .word Label_01002CD3
@  #06 @054   ----------------------------------------
 .byte   PATT
  .word Label_01002CE3
@  #06 @055   ----------------------------------------
Label_01002D5D:
 .byte   N12 ,Fn2 ,v127
 .byte   W12
 .byte   Cn4 ,v090
 .byte   W12
 .byte   An2 ,v127
 .byte   W12
 .byte   An2
 .byte   W12
 .byte   Cn3
 .byte   W12
 .byte   En2
 .byte   W12
 .byte   N24 ,An2
 .byte   W24
 .byte   PEND 
@  #06 @056   ----------------------------------------
 .byte   PATT
  .word Label_01002D05
@  #06 @057   ----------------------------------------
 .byte   PATT
  .word Label_01002CD3
@  #06 @058   ----------------------------------------
 .byte   PATT
  .word Label_01002CE3
@  #06 @059   ----------------------------------------
 .byte   PATT
  .word Label_01002CF4
@  #06 @060   ----------------------------------------
 .byte   PATT
  .word Label_01002D05
@  #06 @061   ----------------------------------------
 .byte   PATT
  .word Label_01002CD3
@  #06 @062   ----------------------------------------
 .byte   PATT
  .word Label_01002CE3
@  #06 @063   ----------------------------------------
 .byte   PATT
  .word Label_01002D5D
@  #06 @064   ----------------------------------------
 .byte   PATT
  .word Label_01002D05
@  #06 @065   ----------------------------------------
 .byte   PATT
  .word Label_01002CD3
@  #06 @066   ----------------------------------------
 .byte   PATT
  .word Label_01002CE3
@  #06 @067   ----------------------------------------
 .byte   PATT
  .word Label_01002CF4
@  #06 @068   ----------------------------------------
Label_01002DAD:
 .byte   N72 ,Cn2 ,v127
 .byte   W72
 .byte   TIE
 .byte   W24
 .byte   PEND 
@  #06 @069   ----------------------------------------
 .byte   W96
@  #06 @070   ----------------------------------------
 .byte   W96
@  #06 @071   ----------------------------------------
 .byte   W96
@  #06 @072   ----------------------------------------
 .byte   W96
@  #06 @073   ----------------------------------------
 .byte   W96
@  #06 @074   ----------------------------------------
 .byte   W96
@  #06 @075   ----------------------------------------
 .byte   W96
@  #06 @076   ----------------------------------------
 .byte   EOT
 .byte   VOICE , 33
 .byte   GOTO
  .word Label_01002B9E
 .byte   FINE

@**************** Track 7 (Midi-Chn.6) ****************@

song09_007:
@  #07 @000   ----------------------------------------
 .byte   KEYSH , song09_key+0
Label_01002E46:
 .byte   VOICE , 52
 .byte   VOL , 69*song09_mvl/mxv
 .byte   BENDR, 12
 .byte   W96
@  #07 @001   ----------------------------------------
 .byte   W96
@  #07 @002   ----------------------------------------
 .byte   W96
@  #07 @003   ----------------------------------------
 .byte   W96
@  #07 @004   ----------------------------------------
 .byte   W96
@  #07 @005   ----------------------------------------
 .byte   W96
@  #07 @006   ----------------------------------------
 .byte   W96
@  #07 @007   ----------------------------------------
 .byte   W96
@  #07 @008   ----------------------------------------
 .byte   W96
@  #07 @009   ----------------------------------------
 .byte   W96
@  #07 @010   ----------------------------------------
 .byte   W96
@  #07 @011   ----------------------------------------
 .byte   W96
@  #07 @012   ----------------------------------------
 .byte   W96
@  #07 @013   ----------------------------------------
 .byte   W96
@  #07 @014   ----------------------------------------
 .byte   W96
@  #07 @015   ----------------------------------------
 .byte   W96
@  #07 @016   ----------------------------------------
 .byte   W96
@  #07 @017   ----------------------------------------
 .byte   W96
@  #07 @018   ----------------------------------------
 .byte   W96
@  #07 @019   ----------------------------------------
 .byte   W96
@  #07 @020   ----------------------------------------
 .byte   W96
@  #07 @021   ----------------------------------------
 .byte   W96
@  #07 @022   ----------------------------------------
 .byte   W96
@  #07 @023   ----------------------------------------
 .byte   W96
@  #07 @024   ----------------------------------------
 .byte   W96
@  #07 @025   ----------------------------------------
 .byte   W96
@  #07 @026   ----------------------------------------
 .byte   W96
@  #07 @027   ----------------------------------------
 .byte   W96
@  #07 @028   ----------------------------------------
 .byte   W96
@  #07 @029   ----------------------------------------
 .byte   W96
@  #07 @030   ----------------------------------------
 .byte   W96
@  #07 @031   ----------------------------------------
 .byte   W96
@  #07 @032   ----------------------------------------
 .byte   W96
@  #07 @033   ----------------------------------------
 .byte   W96
@  #07 @034   ----------------------------------------
 .byte   W96
@  #07 @035   ----------------------------------------
 .byte   W72
 .byte   N12 ,En3 ,v127
 .byte   W12
 .byte   Fs3
 .byte   W12
@  #07 @036   ----------------------------------------
Label_01002E76:
 .byte   N72 ,Gn3 ,v127
 .byte   W72
 .byte   N12 ,En3 ,v030
 .byte   W12
 .byte   Fs3
 .byte   W12
 .byte   PEND 
@  #07 @037   ----------------------------------------
Label_01002E81:
 .byte   N72 ,Gn3 ,v030
 .byte   W72
 .byte   N12 ,Dn3 ,v127
 .byte   W12
 .byte   En3
 .byte   W12
 .byte   PEND 
@  #07 @038   ----------------------------------------
Label_01002E8C:
 .byte   N48 ,Fs3 ,v127
 .byte   W48
 .byte   N72 ,An3 ,v064
 .byte   W48
 .byte   PEND 
@  #07 @039   ----------------------------------------
Label_01002E95:
 .byte   W24
 .byte   N12 ,Fs3 ,v016
 .byte   W12
 .byte   Gn3 ,v032
 .byte   W12
 .byte   An3 ,v048
 .byte   W12
 .byte   Gn3 ,v064
 .byte   W12
 .byte   Fs3 ,v080
 .byte   W12
 .byte   Dn3 ,v096
 .byte   W12
 .byte   PEND 
@  #07 @040   ----------------------------------------
 .byte   N72 ,Bn3 ,v112
 .byte   W72
 .byte   N12 ,Bn3 ,v127
 .byte   W12
 .byte   Cn4
 .byte   W12
@  #07 @041   ----------------------------------------
 .byte   N72 ,An3
 .byte   W72
 .byte   N24 ,Dn3
 .byte   W24
@  #07 @042   ----------------------------------------
 .byte   TIE ,Bn2
 .byte   W96
@  #07 @043   ----------------------------------------
 .byte   W72
 .byte   EOT
 .byte   N12
 .byte   W12
 .byte   Dn3
 .byte   W12
@  #07 @044   ----------------------------------------
 .byte   PATT
  .word Label_01002E76
@  #07 @045   ----------------------------------------
 .byte   PATT
  .word Label_01002E81
@  #07 @046   ----------------------------------------
 .byte   PATT
  .word Label_01002E8C
@  #07 @047   ----------------------------------------
 .byte   PATT
  .word Label_01002E95
@  #07 @048   ----------------------------------------
 .byte   N72 ,Bn3 ,v112
 .byte   W72
 .byte   N12 ,Fs3 ,v020
 .byte   W12
 .byte   Gn3 ,v024
 .byte   W12
@  #07 @049   ----------------------------------------
 .byte   TIE ,Bn3 ,v028
 .byte   W96
@  #07 @050   ----------------------------------------
 .byte   W96
@  #07 @051   ----------------------------------------
 .byte   W96
@  #07 @052   ----------------------------------------
 .byte   W12
 .byte   EOT
 .byte   VOICE , 104
 .byte   N12 ,Bn2 ,v040
 .byte   W12
 .byte   N06 ,As2 ,v046
 .byte   W12
 .byte   Cn3 ,v052
 .byte   W12
 .byte   N12 ,Ds3 ,v058
 .byte   W12
 .byte   N06 ,Dn3 ,v064
 .byte   W12
 .byte   Ds3 ,v070
 .byte   W12
 .byte   N12 ,Gn3 ,v076
 .byte   W12
@  #07 @053   ----------------------------------------
Label_01002F06:
 .byte   N06 ,Fs3 ,v082
 .byte   W12
 .byte   Gn3 ,v052
 .byte   W12
 .byte   N12 ,Cn4 ,v056
 .byte   W12
 .byte   N06 ,Bn3 ,v060
 .byte   W12
 .byte   Cn4 ,v064
 .byte   W12
 .byte   N12 ,Ds4 ,v068
 .byte   W12
 .byte   N06 ,Dn4 ,v070
 .byte   W12
 .byte   Ds4 ,v074
 .byte   W12
 .byte   PEND 
@  #07 @054   ----------------------------------------
Label_01002F24:
 .byte   W12
 .byte   N12 ,Cn3 ,v040
 .byte   W12
 .byte   N06 ,As2 ,v046
 .byte   W12
 .byte   Cn3 ,v052
 .byte   W12
 .byte   N12 ,Ds3 ,v058
 .byte   W12
 .byte   N06 ,Dn3 ,v064
 .byte   W12
 .byte   Ds3 ,v070
 .byte   W12
 .byte   N12 ,Gn3 ,v076
 .byte   W12
 .byte   PEND 
@  #07 @055   ----------------------------------------
 .byte   PATT
  .word Label_01002F06
@  #07 @056   ----------------------------------------
 .byte   W12
 .byte   VOICE , 52
 .byte   N12 ,En2 ,v127
 .byte   W36
 .byte   En2
 .byte   W36
 .byte   N84
 .byte   W12
@  #07 @057   ----------------------------------------
 .byte   W96
@  #07 @058   ----------------------------------------
 .byte   W12
 .byte   N12 ,Fs2
 .byte   W36
 .byte   Fs2
 .byte   W36
 .byte   N78
 .byte   W12
@  #07 @059   ----------------------------------------
 .byte   W96
@  #07 @060   ----------------------------------------
 .byte   W12
 .byte   VOICE , 104
 .byte   N12 ,Cn3 ,v040
 .byte   W12
 .byte   N06 ,As2 ,v046
 .byte   W12
 .byte   Cn3 ,v052
 .byte   W12
 .byte   N12 ,Ds3 ,v058
 .byte   W12
 .byte   N06 ,Dn3 ,v064
 .byte   W12
 .byte   Ds3 ,v070
 .byte   W12
 .byte   N12 ,Gn3 ,v076
 .byte   W12
@  #07 @061   ----------------------------------------
 .byte   PATT
  .word Label_01002F06
@  #07 @062   ----------------------------------------
 .byte   PATT
  .word Label_01002F24
@  #07 @063   ----------------------------------------
 .byte   PATT
  .word Label_01002F06
@  #07 @064   ----------------------------------------
 .byte   W12
 .byte   VOICE , 52
 .byte   N12 ,Gn2 ,v127
 .byte   W36
 .byte   Gn2
 .byte   W36
 .byte   N84
 .byte   W12
@  #07 @065   ----------------------------------------
 .byte   W96
@  #07 @066   ----------------------------------------
 .byte   W12
 .byte   N06 ,Fs2
 .byte   W06
 .byte   Gn2
 .byte   W06
 .byte   N24 ,Fs2
 .byte   W24
 .byte   N12
 .byte   W36
 .byte   N78
 .byte   W12
@  #07 @067   ----------------------------------------
 .byte   W96
@  #07 @068   ----------------------------------------
 .byte   TIE ,En2
 .byte   W96
@  #07 @069   ----------------------------------------
 .byte   W96
@  #07 @070   ----------------------------------------
 .byte   W96
@  #07 @071   ----------------------------------------
 .byte   W96
@  #07 @072   ----------------------------------------
 .byte   W96
@  #07 @073   ----------------------------------------
 .byte   W96
@  #07 @074   ----------------------------------------
 .byte   W96
@  #07 @075   ----------------------------------------
 .byte   W96
@  #07 @076   ----------------------------------------
 .byte   EOT
 .byte   GOTO
  .word Label_01002E46
 .byte   FINE

@**************** Track 8 (Midi-Chn.7) ****************@

song09_008:
@  #08 @000   ----------------------------------------
 .byte   KEYSH , song09_key+0
Label_010026AE:
 .byte   VOICE , 47
 .byte   VOL , 61*song09_mvl/mxv
 .byte   PAN , c_v+8
 .byte   N72 ,Cn2 ,v127
 .byte   BENDR, 12
 .byte   W72
 .byte   TIE
 .byte   W24
@  #08 @001   ----------------------------------------
 .byte   W96
@  #08 @002   ----------------------------------------
 .byte   W96
@  #08 @003   ----------------------------------------
 .byte   W48
 .byte   EOT
 .byte   N24
 .byte   W24
 .byte   N12
 .byte   W12
 .byte   Cn2
 .byte   W12
@  #08 @004   ----------------------------------------
 .byte   N48
 .byte   W48
 .byte   N24
 .byte   W24
 .byte   TIE
 .byte   W24
@  #08 @005   ----------------------------------------
 .byte   W96
@  #08 @006   ----------------------------------------
 .byte   W96
@  #08 @007   ----------------------------------------
 .byte   W36
 .byte   EOT
 .byte   N12
 .byte   W12
 .byte   N24
 .byte   W24
 .byte   N12
 .byte   W12
 .byte   Cn2
 .byte   W12
@  #08 @008   ----------------------------------------
Label_010026D8:
 .byte   N36 ,Cn2 ,v127
 .byte   W36
 .byte   N12
 .byte   W12
 .byte   N24
 .byte   W24
 .byte   N60
 .byte   W24
 .byte   PEND 
@  #08 @009   ----------------------------------------
 .byte   W36
 .byte   N12
 .byte   W12
 .byte   N24
 .byte   W24
 .byte   N12
 .byte   W12
 .byte   Cn2
 .byte   W12
@  #08 @010   ----------------------------------------
 .byte   PATT
  .word Label_010026D8
@  #08 @011   ----------------------------------------
 .byte   W36
 .byte   N06 ,Cn2 ,v127
 .byte   W06
 .byte   Cn2
 .byte   W06
 .byte   N24
 .byte   W24
 .byte   N12
 .byte   W12
 .byte   Cn2
 .byte   W12
@  #08 @012   ----------------------------------------
Label_010026FE:
 .byte   N36 ,Cn2 ,v127
 .byte   W36
 .byte   N12
 .byte   W12
 .byte   N24
 .byte   W24
 .byte   N48
 .byte   W24
 .byte   PEND 
@  #08 @013   ----------------------------------------
Label_01002709:
 .byte   W24
 .byte   N24 ,Cn2 ,v127
 .byte   W24
 .byte   N12
 .byte   W12
 .byte   N24
 .byte   W24
 .byte   N12
 .byte   W12
 .byte   PEND 
@  #08 @014   ----------------------------------------
Label_01002715:
 .byte   N36 ,Cn2 ,v127
 .byte   W36
 .byte   N06
 .byte   W06
 .byte   Cn2
 .byte   W06
 .byte   N24
 .byte   W24
 .byte   N36
 .byte   W24
 .byte   PEND 
@  #08 @015   ----------------------------------------
Label_01002722:
 .byte   W12
 .byte   N12 ,Cn2 ,v127
 .byte   W12
 .byte   N36
 .byte   W36
 .byte   N12
 .byte   W12
 .byte   Cn2
 .byte   W12
 .byte   Cn2
 .byte   W12
 .byte   PEND 
@  #08 @016   ----------------------------------------
 .byte   PATT
  .word Label_010026FE
@  #08 @017   ----------------------------------------
 .byte   PATT
  .word Label_01002709
@  #08 @018   ----------------------------------------
 .byte   PATT
  .word Label_01002715
@  #08 @019   ----------------------------------------
 .byte   PATT
  .word Label_01002722
@  #08 @020   ----------------------------------------
 .byte   PATT
  .word Label_010026FE
@  #08 @021   ----------------------------------------
 .byte   PATT
  .word Label_01002709
@  #08 @022   ----------------------------------------
 .byte   PATT
  .word Label_01002715
@  #08 @023   ----------------------------------------
 .byte   PATT
  .word Label_01002722
@  #08 @024   ----------------------------------------
 .byte   PATT
  .word Label_010026FE
@  #08 @025   ----------------------------------------
 .byte   PATT
  .word Label_01002709
@  #08 @026   ----------------------------------------
 .byte   PATT
  .word Label_01002715
@  #08 @027   ----------------------------------------
 .byte   PATT
  .word Label_01002722
@  #08 @028   ----------------------------------------
 .byte   PATT
  .word Label_010026FE
@  #08 @029   ----------------------------------------
 .byte   PATT
  .word Label_01002709
@  #08 @030   ----------------------------------------
 .byte   PATT
  .word Label_01002715
@  #08 @031   ----------------------------------------
 .byte   PATT
  .word Label_01002722
@  #08 @032   ----------------------------------------
 .byte   N36 ,Cn2 ,v127
 .byte   W36
 .byte   TIE
 .byte   W60
@  #08 @033   ----------------------------------------
 .byte   W96
@  #08 @034   ----------------------------------------
 .byte   W96
@  #08 @035   ----------------------------------------
 .byte   W96
@  #08 @036   ----------------------------------------
 .byte   W24
 .byte   EOT
 .byte   VOICE , 52
 .byte   N12 ,En3 ,v060
 .byte   W12
 .byte   Fs3
 .byte   W12
 .byte   N72 ,Gn3
 .byte   W48
@  #08 @037   ----------------------------------------
Label_01002796:
 .byte   W24
 .byte   N12 ,En3 ,v016
 .byte   W12
 .byte   Fs3
 .byte   W12
 .byte   N24 ,Gn3
 .byte   W24
 .byte   N12 ,Fs3 ,v127
 .byte   W12
 .byte   Gn3
 .byte   W12
 .byte   PEND 
@  #08 @038   ----------------------------------------
Label_010027A7:
 .byte   N72 ,An3 ,v127
 .byte   W72
 .byte   N12 ,Dn3 ,v032
 .byte   W12
 .byte   En3
 .byte   W12
 .byte   PEND 
@  #08 @039   ----------------------------------------
 .byte   TIE ,Fs3
 .byte   W96
@  #08 @040   ----------------------------------------
 .byte   W24
 .byte   EOT
 .byte   N12 ,Fs3 ,v040
 .byte   W12
 .byte   Dn3 ,v048
 .byte   W12
 .byte   N72 ,Bn3 ,v056
 .byte   W48
@  #08 @041   ----------------------------------------
 .byte   W24
 .byte   N12 ,Gn3 ,v060
 .byte   W12
 .byte   An3
 .byte   W12
 .byte   N48 ,Fs3
 .byte   W48
@  #08 @042   ----------------------------------------
 .byte   TIE ,En3 ,v127
 .byte   W96
@  #08 @043   ----------------------------------------
 .byte   W72
 .byte   EOT
 .byte   N12
 .byte   W12
 .byte   N36 ,Fs3
 .byte   W12
@  #08 @044   ----------------------------------------
 .byte   W24
 .byte   N12 ,En3 ,v060
 .byte   W12
 .byte   Fs3
 .byte   W12
 .byte   N72 ,Gn3
 .byte   W48
@  #08 @045   ----------------------------------------
 .byte   PATT
  .word Label_01002796
@  #08 @046   ----------------------------------------
 .byte   PATT
  .word Label_010027A7
@  #08 @047   ----------------------------------------
 .byte   TIE ,Fs3 ,v032
 .byte   W96
@  #08 @048   ----------------------------------------
 .byte   W24
 .byte   EOT
 .byte   N12 ,Fs3 ,v040
 .byte   W12
 .byte   Dn3 ,v048
 .byte   W12
 .byte   TIE ,Bn3 ,v056
 .byte   W48
@  #08 @049   ----------------------------------------
 .byte   W96
@  #08 @050   ----------------------------------------
 .byte   W96
@  #08 @051   ----------------------------------------
 .byte   W96
@  #08 @052   ----------------------------------------
 .byte   W36
 .byte   EOT
 .byte   VOICE , 104
 .byte   N12 ,Cn3 ,v016
 .byte   W12
 .byte   N06 ,As2 ,v018
 .byte   W12
 .byte   Cn3 ,v020
 .byte   W12
 .byte   N12 ,Ds3 ,v024
 .byte   W12
 .byte   N06 ,Dn3 ,v026
 .byte   W12
@  #08 @053   ----------------------------------------
Label_01002816:
 .byte   N06 ,Ds3 ,v028
 .byte   W12
 .byte   N12 ,Gn3 ,v030
 .byte   W12
 .byte   N06 ,Fs3 ,v032
 .byte   W12
 .byte   Gn3 ,v020
 .byte   W12
 .byte   N12 ,Cn4 ,v022
 .byte   W12
 .byte   N06 ,Bn3 ,v024
 .byte   W12
 .byte   Cn4 ,v026
 .byte   W12
 .byte   N12 ,Ds4 ,v028
 .byte   W12
 .byte   PEND 
@  #08 @054   ----------------------------------------
Label_01002835:
 .byte   N06 ,Dn4 ,v028
 .byte   W12
 .byte   Ds4 ,v030
 .byte   W24
 .byte   N12 ,Cn3 ,v016
 .byte   W12
 .byte   N06 ,As2 ,v018
 .byte   W12
 .byte   Cn3 ,v020
 .byte   W12
 .byte   N12 ,Ds3 ,v024
 .byte   W12
 .byte   N06 ,Dn3 ,v026
 .byte   W12
 .byte   PEND 
@  #08 @055   ----------------------------------------
 .byte   PATT
  .word Label_01002816
@  #08 @056   ----------------------------------------
 .byte   W12
 .byte   VOICE , 52
 .byte   N12 ,Cn3 ,v127
 .byte   W36
 .byte   Cn3
 .byte   W36
 .byte   N84
 .byte   W12
@  #08 @057   ----------------------------------------
 .byte   W96
@  #08 @058   ----------------------------------------
 .byte   W12
 .byte   N12 ,Dn3
 .byte   W36
 .byte   Dn3
 .byte   W36
 .byte   N78
 .byte   W12
@  #08 @059   ----------------------------------------
 .byte   W96
@  #08 @060   ----------------------------------------
 .byte   W36
 .byte   VOICE , 104
 .byte   N12 ,Cn3 ,v016
 .byte   W12
 .byte   N06 ,As2 ,v018
 .byte   W12
 .byte   Cn3 ,v020
 .byte   W12
 .byte   N12 ,Ds3 ,v024
 .byte   W12
 .byte   N06 ,Dn3 ,v026
 .byte   W12
@  #08 @061   ----------------------------------------
 .byte   PATT
  .word Label_01002816
@  #08 @062   ----------------------------------------
 .byte   PATT
  .word Label_01002835
@  #08 @063   ----------------------------------------
 .byte   PATT
  .word Label_01002816
@  #08 @064   ----------------------------------------
 .byte   W12
 .byte   VOICE , 52
 .byte   N12 ,En3 ,v127
 .byte   W36
 .byte   En3
 .byte   W36
 .byte   N84
 .byte   W12
@  #08 @065   ----------------------------------------
 .byte   W96
@  #08 @066   ----------------------------------------
 .byte   W12
 .byte   N06 ,Dn3
 .byte   W06
 .byte   En3
 .byte   W06
 .byte   N24 ,Dn3
 .byte   W24
 .byte   N12
 .byte   W36
 .byte   N78
 .byte   W12
@  #08 @067   ----------------------------------------
 .byte   W96
@  #08 @068   ----------------------------------------
 .byte   TIE ,Bn2
 .byte   W96
@  #08 @069   ----------------------------------------
 .byte   W96
@  #08 @070   ----------------------------------------
 .byte   W96
@  #08 @071   ----------------------------------------
 .byte   W40
 .byte   W01
 .byte   VOICE , 47
 .byte   W01
 .byte   EOT
 .byte   N06 ,Cn2
 .byte   W06
 .byte   N48
 .byte   W48
@  #08 @072   ----------------------------------------
 .byte   PATT
  .word Label_01002DAD
@  #08 @073   ----------------------------------------
 .byte   W96
@  #08 @074   ----------------------------------------
 .byte   W96
@  #08 @075   ----------------------------------------
 .byte   W42
 .byte   EOT
 .byte   Cn2
 .byte   N06 ,Cn2 ,v127
 .byte   W06
 .byte   N48
 .byte   W48
@  #08 @076   ----------------------------------------
 .byte   GOTO
  .word Label_010026AE
 .byte   FINE

@**************** Track 9 (Midi-Chn.8) ****************@

song09_009:
@  #09 @000   ----------------------------------------
 .byte   KEYSH , song09_key+0
Label_01002FB6:
 .byte   VOICE , 47
 .byte   PAN , c_v-4
 .byte   BENDR, 12
 .byte   TIE ,En1 ,v127
 .byte   VOL , 69*song09_mvl/mxv
 .byte   W96
@  #09 @001   ----------------------------------------
 .byte   W96
@  #09 @002   ----------------------------------------
 .byte   W96
@  #09 @003   ----------------------------------------
 .byte   W96
@  #09 @004   ----------------------------------------
 .byte   PATT
  .word Label_01002217
@  #09 @005   ----------------------------------------
 .byte   W96
@  #09 @006   ----------------------------------------
 .byte   W96
@  #09 @007   ----------------------------------------
 .byte   W96
@  #09 @008   ----------------------------------------
 .byte   PATT
  .word Label_01002217
@  #09 @009   ----------------------------------------
 .byte   W96
@  #09 @010   ----------------------------------------
 .byte   W96
@  #09 @011   ----------------------------------------
 .byte   W96
@  #09 @012   ----------------------------------------
 .byte   PATT
  .word Label_01002217
@  #09 @013   ----------------------------------------
 .byte   W96
@  #09 @014   ----------------------------------------
 .byte   W96
@  #09 @015   ----------------------------------------
 .byte   W96
@  #09 @016   ----------------------------------------
 .byte   PATT
  .word Label_01002217
@  #09 @017   ----------------------------------------
 .byte   W96
@  #09 @018   ----------------------------------------
 .byte   W96
@  #09 @019   ----------------------------------------
 .byte   W96
@  #09 @020   ----------------------------------------
 .byte   PATT
  .word Label_01002239
@  #09 @021   ----------------------------------------
 .byte   W96
@  #09 @022   ----------------------------------------
 .byte   W96
@  #09 @023   ----------------------------------------
 .byte   W96
@  #09 @024   ----------------------------------------
 .byte   PATT
  .word Label_01002243
@  #09 @025   ----------------------------------------
 .byte   W96
@  #09 @026   ----------------------------------------
 .byte   W96
@  #09 @027   ----------------------------------------
 .byte   W96
@  #09 @028   ----------------------------------------
 .byte   PATT
  .word Label_01002239
@  #09 @029   ----------------------------------------
 .byte   W96
@  #09 @030   ----------------------------------------
 .byte   W96
@  #09 @031   ----------------------------------------
 .byte   W96
@  #09 @032   ----------------------------------------
 .byte   PATT
  .word Label_01002243
@  #09 @033   ----------------------------------------
 .byte   W96
@  #09 @034   ----------------------------------------
 .byte   W96
@  #09 @035   ----------------------------------------
 .byte   W96
@  #09 @036   ----------------------------------------
 .byte   PATT
  .word Label_01002217
@  #09 @037   ----------------------------------------
 .byte   W96
@  #09 @038   ----------------------------------------
 .byte   W96
@  #09 @039   ----------------------------------------
 .byte   W96
@  #09 @040   ----------------------------------------
 .byte   PATT
  .word Label_01002239
@  #09 @041   ----------------------------------------
 .byte   W96
@  #09 @042   ----------------------------------------
 .byte   W96
@  #09 @043   ----------------------------------------
 .byte   W96
@  #09 @044   ----------------------------------------
 .byte   PATT
  .word Label_01002243
@  #09 @045   ----------------------------------------
 .byte   W96
@  #09 @046   ----------------------------------------
 .byte   W96
@  #09 @047   ----------------------------------------
 .byte   W96
@  #09 @048   ----------------------------------------
 .byte   EOT
 .byte   En1
 .byte   W96
@  #09 @049   ----------------------------------------
 .byte   W96
@  #09 @050   ----------------------------------------
 .byte   W96
@  #09 @051   ----------------------------------------
 .byte   W96
@  #09 @052   ----------------------------------------
 .byte   W96
@  #09 @053   ----------------------------------------
 .byte   W96
@  #09 @054   ----------------------------------------
 .byte   W96
@  #09 @055   ----------------------------------------
 .byte   W96
@  #09 @056   ----------------------------------------
 .byte   W96
@  #09 @057   ----------------------------------------
 .byte   W96
@  #09 @058   ----------------------------------------
 .byte   W96
@  #09 @059   ----------------------------------------
 .byte   W96
@  #09 @060   ----------------------------------------
 .byte   W96
@  #09 @061   ----------------------------------------
 .byte   W96
@  #09 @062   ----------------------------------------
 .byte   W96
@  #09 @063   ----------------------------------------
 .byte   W96
@  #09 @064   ----------------------------------------
 .byte   W96
@  #09 @065   ----------------------------------------
 .byte   W96
@  #09 @066   ----------------------------------------
 .byte   W96
@  #09 @067   ----------------------------------------
 .byte   W96
@  #09 @068   ----------------------------------------
 .byte   TIE ,En1 ,v127
 .byte   W96
@  #09 @069   ----------------------------------------
 .byte   W96
@  #09 @070   ----------------------------------------
 .byte   W96
@  #09 @071   ----------------------------------------
 .byte   W96
@  #09 @072   ----------------------------------------
 .byte   PATT
  .word Label_01002217
@  #09 @073   ----------------------------------------
 .byte   W96
@  #09 @074   ----------------------------------------
 .byte   W96
@  #09 @075   ----------------------------------------
 .byte   W96
@  #09 @076   ----------------------------------------
 .byte   EOT
 .byte   En1
 .byte   GOTO
  .word Label_01002FB6
 .byte   FINE

@**************** Track 10 (Midi-Chn.9) ****************@

song09_010:
@  #10 @000   ----------------------------------------
 .byte   KEYSH , song09_key+0
Label_010028D2:
 .byte   VOICE , 52
 .byte   PAN , c_v+5
 .byte   BENDR, 12
 .byte   VOL , 69*song09_mvl/mxv
 .byte   W96
@  #10 @001   ----------------------------------------
 .byte   W96
@  #10 @002   ----------------------------------------
 .byte   W96
@  #10 @003   ----------------------------------------
 .byte   W96
@  #10 @004   ----------------------------------------
 .byte   W96
@  #10 @005   ----------------------------------------
 .byte   W96
@  #10 @006   ----------------------------------------
 .byte   W96
@  #10 @007   ----------------------------------------
 .byte   W96
@  #10 @008   ----------------------------------------
 .byte   W96
@  #10 @009   ----------------------------------------
 .byte   W96
@  #10 @010   ----------------------------------------
 .byte   W96
@  #10 @011   ----------------------------------------
 .byte   W96
@  #10 @012   ----------------------------------------
 .byte   W96
@  #10 @013   ----------------------------------------
 .byte   W96
@  #10 @014   ----------------------------------------
 .byte   W96
@  #10 @015   ----------------------------------------
 .byte   W96
@  #10 @016   ----------------------------------------
 .byte   W96
@  #10 @017   ----------------------------------------
 .byte   W96
@  #10 @018   ----------------------------------------
 .byte   W96
@  #10 @019   ----------------------------------------
 .byte   W96
@  #10 @020   ----------------------------------------
 .byte   W96
@  #10 @021   ----------------------------------------
 .byte   W96
@  #10 @022   ----------------------------------------
 .byte   W96
@  #10 @023   ----------------------------------------
 .byte   W96
@  #10 @024   ----------------------------------------
 .byte   W96
@  #10 @025   ----------------------------------------
 .byte   W96
@  #10 @026   ----------------------------------------
 .byte   W96
@  #10 @027   ----------------------------------------
 .byte   W96
@  #10 @028   ----------------------------------------
 .byte   W96
@  #10 @029   ----------------------------------------
 .byte   W96
@  #10 @030   ----------------------------------------
 .byte   W96
@  #10 @031   ----------------------------------------
 .byte   W96
@  #10 @032   ----------------------------------------
 .byte   W96
@  #10 @033   ----------------------------------------
 .byte   W96
@  #10 @034   ----------------------------------------
 .byte   W96
@  #10 @035   ----------------------------------------
 .byte   W96
@  #10 @036   ----------------------------------------
 .byte   W96
@  #10 @037   ----------------------------------------
 .byte   W96
@  #10 @038   ----------------------------------------
Label_01002900:
 .byte   W24
 .byte   N12 ,Fs3 ,v064
 .byte   W12
 .byte   Gn3
 .byte   W60
 .byte   PEND 
@  #10 @039   ----------------------------------------
 .byte   W96
@  #10 @040   ----------------------------------------
 .byte   W96
@  #10 @041   ----------------------------------------
 .byte   W96
@  #10 @042   ----------------------------------------
 .byte   W96
@  #10 @043   ----------------------------------------
 .byte   W96
@  #10 @044   ----------------------------------------
 .byte   W96
@  #10 @045   ----------------------------------------
 .byte   W96
@  #10 @046   ----------------------------------------
 .byte   PATT
  .word Label_01002900
@  #10 @047   ----------------------------------------
 .byte   W96
@  #10 @048   ----------------------------------------
 .byte   W96
@  #10 @049   ----------------------------------------
 .byte   W96
@  #10 @050   ----------------------------------------
 .byte   W96
@  #10 @051   ----------------------------------------
 .byte   W96
@  #10 @052   ----------------------------------------
 .byte   W64
 .byte   W01
 .byte   VOICE , 104
 .byte   W30
 .byte   W01
@  #10 @053   ----------------------------------------
 .byte   W96
@  #10 @054   ----------------------------------------
Label_01002920:
 .byte   W12
 .byte   N12 ,Ds3 ,v040
 .byte   W12
 .byte   N06 ,Dn3 ,v046
 .byte   W12
 .byte   Ds3 ,v052
 .byte   W24
 .byte   Fs3 ,v064
 .byte   W12
 .byte   Gn3 ,v070
 .byte   W12
 .byte   Cn4 ,v076
 .byte   W12
 .byte   PEND 
@  #10 @055   ----------------------------------------
Label_01002936:
 .byte   N06 ,Bn3 ,v082
 .byte   W24
 .byte   N12 ,Ds4 ,v056
 .byte   W12
 .byte   N06 ,Dn4 ,v060
 .byte   W24
 .byte   N12 ,Gn4 ,v068
 .byte   W12
 .byte   N06 ,Fs4 ,v070
 .byte   W12
 .byte   N12 ,Gn4 ,v074
 .byte   W12
 .byte   PEND 
@  #10 @056   ----------------------------------------
 .byte   W96
@  #10 @057   ----------------------------------------
 .byte   W96
@  #10 @058   ----------------------------------------
 .byte   W96
@  #10 @059   ----------------------------------------
 .byte   W96
@  #10 @060   ----------------------------------------
 .byte   W96
@  #10 @061   ----------------------------------------
 .byte   W96
@  #10 @062   ----------------------------------------
 .byte   PATT
  .word Label_01002920
@  #10 @063   ----------------------------------------
 .byte   PATT
  .word Label_01002936
@  #10 @064   ----------------------------------------
 .byte   W96
@  #10 @065   ----------------------------------------
 .byte   W96
@  #10 @066   ----------------------------------------
 .byte   W96
@  #10 @067   ----------------------------------------
 .byte   W96
@  #10 @068   ----------------------------------------
 .byte   W96
@  #10 @069   ----------------------------------------
 .byte   W96
@  #10 @070   ----------------------------------------
 .byte   W96
@  #10 @071   ----------------------------------------
 .byte   W96
@  #10 @072   ----------------------------------------
 .byte   W96
@  #10 @073   ----------------------------------------
 .byte   W96
@  #10 @074   ----------------------------------------
 .byte   W96
@  #10 @075   ----------------------------------------
 .byte   W96
@  #10 @076   ----------------------------------------
 .byte   VOICE , 52
 .byte   GOTO
  .word Label_010028D2
 .byte   FINE

@******************************************************@
	.align	2

song09:
	.byte	10	@ NumTrks
	.byte	0	@ NumBlks
	.byte	song09_pri	@ Priority
	.byte	song09_rev	@ Reverb.
    
	.word	song09_grp
    
	.word	song09_001
	.word	song09_002
	.word	song09_003
	.word	song09_004
	.word	song09_005
	.word	song09_006
	.word	song09_007
	.word	song09_008
	.word	song09_009
	.word	song09_010

	.end
