	.include "MPlayDef.s"

	.equ	song02_grp, voicegroup000
	.equ	song02_pri, 0
	.equ	song02_rev, 148
	.equ	song02_mvl, 127
	.equ	song02_key, 0
	.equ	song02_tbs, 1
	.equ	song02_exg, 0
	.equ	song02_cmp, 1

	.section .rodata
	.global	song02
	.align	2


@**************** Track 1 (Midi-Chn.0) ****************@

song02_001:
@  #01 @000   ----------------------------------------
 .byte   KEYSH , song02_key+0
 .byte   TEMPO , 180*song02_tbs/2
Label_01008060:
 .byte   VOICE , 4
 .byte   N12 ,An2 ,v041
 .byte   BENDR, 12
 .byte   PAN , c_v-12
 .byte   VOL , 80*song02_mvl/mxv
 .byte   W12
 .byte   N12 ,An2 ,v010
 .byte   W12
 .byte   Cn3 ,v041
 .byte   W12
 .byte   Cn3 ,v010
 .byte   W12
 .byte   N18 ,Ds3 ,v041
 .byte   W18
 .byte   N06 ,En3
 .byte   N06 ,Ds3 ,v010
 .byte   W06
 .byte   N12 ,En3
 .byte   W12
 .byte   N06 ,Gs2 ,v041
 .byte   W06
 .byte   Gs2 ,v010
 .byte   W06
@  #01 @001   ----------------------------------------
 .byte   An2 ,v041
 .byte   W06
 .byte   An2 ,v010
 .byte   W06
 .byte   Cn3 ,v041
 .byte   W06
 .byte   Cn3 ,v010
 .byte   W06
 .byte   Dn3 ,v041
 .byte   W06
 .byte   Dn3 ,v010
 .byte   W06
 .byte   Cn3 ,v041
 .byte   W06
 .byte   Cn3 ,v010
 .byte   W06
 .byte   Ds3 ,v041
 .byte   W06
 .byte   Ds3 ,v010
 .byte   W06
 .byte   Ds3 ,v041
 .byte   W06
 .byte   Ds3 ,v010
 .byte   N18 ,En3 ,v041
 .byte   W18
 .byte   N12 ,En3 ,v010
 .byte   W12
@  #01 @002   ----------------------------------------
 .byte   N06 ,Gn3 ,v041
 .byte   W06
 .byte   Gn3 ,v010
 .byte   W06
 .byte   Fs3 ,v041
 .byte   W06
 .byte   Fs3 ,v010
 .byte   W06
 .byte   Fn3 ,v041
 .byte   W06
 .byte   Fn3 ,v010
 .byte   W06
 .byte   Ds3 ,v041
 .byte   W06
 .byte   Ds3 ,v010
 .byte   W06
 .byte   Dn3 ,v041
 .byte   W06
 .byte   Dn3 ,v010
 .byte   W06
 .byte   Cn3 ,v041
 .byte   W06
 .byte   Cn3 ,v010
 .byte   W06
 .byte   Bn2 ,v041
 .byte   W06
 .byte   Bn2 ,v010
 .byte   W06
 .byte   As2 ,v041
 .byte   W06
 .byte   As2 ,v010
 .byte   W06
@  #01 @003   ----------------------------------------
 .byte   Bn2 ,v041
 .byte   W06
 .byte   Bn2 ,v010
 .byte   W06
 .byte   Cn3 ,v041
 .byte   W06
 .byte   Cn3 ,v010
 .byte   W06
 .byte   Dn3 ,v041
 .byte   W06
 .byte   Dn3 ,v010
 .byte   W06
 .byte   Ds3 ,v041
 .byte   W06
 .byte   Ds3 ,v010
 .byte   W06
 .byte   N24 ,En3 ,v041
 .byte   W24
 .byte   En2
 .byte   N06 ,En3 ,v010
 .byte   W24
@  #01 @004   ----------------------------------------
 .byte   En2
 .byte   N12 ,An2 ,v041
 .byte   W12
 .byte   An2 ,v010
 .byte   W12
 .byte   Cn3 ,v041
 .byte   W12
 .byte   Cn3 ,v010
 .byte   W12
 .byte   N18 ,Ds3 ,v041
 .byte   W18
 .byte   N06 ,En3
 .byte   N06 ,Ds3 ,v010
 .byte   W06
 .byte   N12 ,En3
 .byte   W12
 .byte   N06 ,Gs2 ,v041
 .byte   W06
 .byte   Gs2 ,v010
 .byte   W06
@  #01 @005   ----------------------------------------
 .byte   An2 ,v041
 .byte   W06
 .byte   An2 ,v010
 .byte   W06
 .byte   Cn3 ,v041
 .byte   W06
 .byte   Cn3 ,v010
 .byte   W06
 .byte   Dn3 ,v041
 .byte   W06
 .byte   Dn3 ,v010
 .byte   W06
 .byte   Cn3 ,v041
 .byte   W06
 .byte   Cn3 ,v010
 .byte   W06
 .byte   Ds3 ,v041
 .byte   W06
 .byte   Ds3 ,v010
 .byte   W06
 .byte   Ds3 ,v041
 .byte   W06
 .byte   N18 ,En3
 .byte   N06 ,Ds3 ,v010
 .byte   W18
 .byte   N12 ,En3
 .byte   W12
@  #01 @006   ----------------------------------------
 .byte   N06 ,Gn3 ,v041
 .byte   W06
 .byte   Gn3 ,v010
 .byte   W06
 .byte   Fs3 ,v041
 .byte   W06
 .byte   Fs3 ,v010
 .byte   W06
 .byte   Fn3 ,v041
 .byte   W06
 .byte   Fn3 ,v010
 .byte   W06
 .byte   Ds3 ,v041
 .byte   W06
 .byte   Ds3 ,v010
 .byte   W06
 .byte   En3 ,v041
 .byte   W06
 .byte   En3 ,v010
 .byte   W06
 .byte   Fn3 ,v041
 .byte   W06
 .byte   Fn3 ,v010
 .byte   W06
 .byte   Fs3 ,v041
 .byte   W06
 .byte   Fs3 ,v010
 .byte   W06
 .byte   Gn3 ,v041
 .byte   W06
 .byte   Gn3 ,v010
 .byte   W06
@  #01 @007   ----------------------------------------
 .byte   Gs3 ,v041
 .byte   W06
 .byte   Gs3 ,v010
 .byte   W06
 .byte   Gs3 ,v041
 .byte   W06
 .byte   Gs3 ,v010
 .byte   W06
 .byte   An3 ,v041
 .byte   W06
 .byte   An3 ,v010
 .byte   W06
 .byte   An3 ,v041
 .byte   W06
 .byte   An3 ,v010
 .byte   W06
 .byte   N24 ,Bn3 ,v041
 .byte   W24
 .byte   Bn3 ,v003
 .byte   W24
@  #01 @008   ----------------------------------------
 .byte   W96
@  #01 @009   ----------------------------------------
 .byte   W96
@  #01 @010   ----------------------------------------
 .byte   W96
@  #01 @011   ----------------------------------------
 .byte   W96
@  #01 @012   ----------------------------------------
 .byte   W96
@  #01 @013   ----------------------------------------
 .byte   W96
@  #01 @014   ----------------------------------------
 .byte   W96
@  #01 @015   ----------------------------------------
 .byte   W96
@  #01 @016   ----------------------------------------
 .byte   W96
@  #01 @017   ----------------------------------------
 .byte   W96
@  #01 @018   ----------------------------------------
 .byte   W96
@  #01 @019   ----------------------------------------
 .byte   W96
@  #01 @020   ----------------------------------------
 .byte   W96
@  #01 @021   ----------------------------------------
 .byte   W96
@  #01 @022   ----------------------------------------
 .byte   W96
@  #01 @023   ----------------------------------------
 .byte   W96
@  #01 @024   ----------------------------------------
 .byte   W96
@  #01 @025   ----------------------------------------
 .byte   W96
@  #01 @026   ----------------------------------------
 .byte   W96
@  #01 @027   ----------------------------------------
 .byte   W96
@  #01 @028   ----------------------------------------
 .byte   W96
@  #01 @029   ----------------------------------------
 .byte   W96
@  #01 @030   ----------------------------------------
 .byte   W96
@  #01 @031   ----------------------------------------
 .byte   W96
@  #01 @032   ----------------------------------------
 .byte   W96
@  #01 @033   ----------------------------------------
 .byte   W96
@  #01 @034   ----------------------------------------
 .byte   W96
@  #01 @035   ----------------------------------------
 .byte   W96
@  #01 @036   ----------------------------------------
 .byte   W96
@  #01 @037   ----------------------------------------
 .byte   W96
@  #01 @038   ----------------------------------------
 .byte   W96
@  #01 @039   ----------------------------------------
 .byte   W96
@  #01 @040   ----------------------------------------
Label_010081C3:
 .byte   N12 ,An2 ,v041
 .byte   W24
 .byte   Cn3
 .byte   W24
 .byte   N18 ,Ds3
 .byte   W18
 .byte   N06 ,En3
 .byte   W18
 .byte   Gs2
 .byte   W12
 .byte   PEND 
@  #01 @041   ----------------------------------------
Label_010081D2:
 .byte   N12 ,An2 ,v041
 .byte   W12
 .byte   Cn3
 .byte   W12
 .byte   Dn3
 .byte   W12
 .byte   Cn3
 .byte   W12
 .byte   N06 ,Ds3
 .byte   W12
 .byte   Ds3
 .byte   W06
 .byte   N18 ,En3
 .byte   W30
 .byte   PEND 
@  #01 @042   ----------------------------------------
Label_010081E5:
 .byte   N12 ,Gn3 ,v041
 .byte   W12
 .byte   Fs3
 .byte   W12
 .byte   Fn3
 .byte   W12
 .byte   Ds3
 .byte   W12
 .byte   Dn3
 .byte   W12
 .byte   Cn3
 .byte   W12
 .byte   Bn2
 .byte   W12
 .byte   As2
 .byte   W12
 .byte   PEND 
@  #01 @043   ----------------------------------------
Label_010081F8:
 .byte   N12 ,Bn2 ,v041
 .byte   W12
 .byte   Cn3
 .byte   W12
 .byte   Dn3
 .byte   W12
 .byte   Ds3
 .byte   W12
 .byte   N24 ,En3
 .byte   W48
 .byte   PEND 
@  #01 @044   ----------------------------------------
 .byte   PATT
  .word Label_010081C3
@  #01 @045   ----------------------------------------
 .byte   PATT
  .word Label_010081D2
@  #01 @046   ----------------------------------------
Label_01008210:
 .byte   N12 ,Gn3 ,v041
 .byte   W12
 .byte   Fs3
 .byte   W12
 .byte   Fn3
 .byte   W12
 .byte   Ds3
 .byte   W12
 .byte   En3
 .byte   W12
 .byte   Fn3
 .byte   W12
 .byte   Fs3
 .byte   W12
 .byte   Gn3
 .byte   W12
 .byte   PEND 
@  #01 @047   ----------------------------------------
Label_01008223:
 .byte   N12 ,Gs3 ,v041
 .byte   W12
 .byte   Gs3
 .byte   W12
 .byte   An3
 .byte   W12
 .byte   An3
 .byte   W12
 .byte   N24 ,Bn3
 .byte   W48
 .byte   PEND 
@  #01 @048   ----------------------------------------
 .byte   PATT
  .word Label_010081C3
@  #01 @049   ----------------------------------------
 .byte   PATT
  .word Label_010081D2
@  #01 @050   ----------------------------------------
 .byte   PATT
  .word Label_010081E5
@  #01 @051   ----------------------------------------
 .byte   PATT
  .word Label_010081F8
@  #01 @052   ----------------------------------------
 .byte   PATT
  .word Label_010081C3
@  #01 @053   ----------------------------------------
 .byte   PATT
  .word Label_010081D2
@  #01 @054   ----------------------------------------
 .byte   PATT
  .word Label_01008210
@  #01 @055   ----------------------------------------
 .byte   PATT
  .word Label_01008223
@  #01 @056   ----------------------------------------
 .byte   W96
@  #01 @057   ----------------------------------------
 .byte   W96
@  #01 @058   ----------------------------------------
 .byte   W96
@  #01 @059   ----------------------------------------
 .byte   W96
@  #01 @060   ----------------------------------------
 .byte   W96
@  #01 @061   ----------------------------------------
 .byte   W96
@  #01 @062   ----------------------------------------
 .byte   W96
@  #01 @063   ----------------------------------------
 .byte   W96
@  #01 @064   ----------------------------------------
 .byte   W96
@  #01 @065   ----------------------------------------
 .byte   W96
@  #01 @066   ----------------------------------------
 .byte   W96
@  #01 @067   ----------------------------------------
 .byte   W96
@  #01 @068   ----------------------------------------
 .byte   W96
@  #01 @069   ----------------------------------------
 .byte   W96
@  #01 @070   ----------------------------------------
 .byte   W96
@  #01 @071   ----------------------------------------
 .byte   W96
@  #01 @072   ----------------------------------------
 .byte   W96
@  #01 @073   ----------------------------------------
 .byte   W96
@  #01 @074   ----------------------------------------
 .byte   W96
@  #01 @075   ----------------------------------------
 .byte   W96
@  #01 @076   ----------------------------------------
 .byte   W96
@  #01 @077   ----------------------------------------
 .byte   W96
@  #01 @078   ----------------------------------------
 .byte   W96
@  #01 @079   ----------------------------------------
 .byte   W96
@  #01 @080   ----------------------------------------
 .byte   W96
@  #01 @081   ----------------------------------------
 .byte   W96
@  #01 @082   ----------------------------------------
 .byte   W96
@  #01 @083   ----------------------------------------
 .byte   W96
@  #01 @084   ----------------------------------------
 .byte   W96
@  #01 @085   ----------------------------------------
 .byte   W96
@  #01 @086   ----------------------------------------
 .byte   W96
@  #01 @087   ----------------------------------------
 .byte   W96
@  #01 @088   ----------------------------------------
 .byte   GOTO
  .word Label_01008060
 .byte   FINE

@**************** Track 2 (Midi-Chn.1) ****************@

song02_002:
@  #02 @000   ----------------------------------------
 .byte   KEYSH , song02_key+0
Label_01003D52:
 .byte   VOICE , 13
 .byte   N12 ,An4 ,v041
 .byte   BENDR, 12
 .byte   PAN , c_v+17
 .byte   VOL , 47*song02_mvl/mxv
 .byte   W12
 .byte   N12 ,An4 ,v010
 .byte   W12
 .byte   Cn5 ,v041
 .byte   W12
 .byte   Cn5 ,v010
 .byte   W12
 .byte   N18 ,Ds5 ,v041
 .byte   W18
 .byte   N06 ,En5
 .byte   N06 ,Ds5 ,v010
 .byte   W06
 .byte   N12 ,En5
 .byte   W12
 .byte   N06 ,Gs4 ,v041
 .byte   W06
 .byte   Gs4 ,v010
 .byte   W06
@  #02 @001   ----------------------------------------
 .byte   An4 ,v041
 .byte   W06
 .byte   An4 ,v010
 .byte   W06
 .byte   Cn5 ,v041
 .byte   W06
 .byte   Cn5 ,v010
 .byte   W06
 .byte   Dn5 ,v041
 .byte   W06
 .byte   Dn5 ,v010
 .byte   W06
 .byte   Cn5 ,v041
 .byte   W06
 .byte   Cn5 ,v010
 .byte   W06
 .byte   Ds5 ,v041
 .byte   W06
 .byte   Ds5 ,v010
 .byte   W06
 .byte   Ds5 ,v041
 .byte   W06
 .byte   Ds5 ,v010
 .byte   N18 ,En5 ,v041
 .byte   W18
 .byte   N12 ,En5 ,v010
 .byte   W12
@  #02 @002   ----------------------------------------
 .byte   N06 ,Gn5 ,v041
 .byte   W06
 .byte   Gn5 ,v010
 .byte   W06
 .byte   Fs5 ,v041
 .byte   W06
 .byte   Fs5 ,v010
 .byte   W06
 .byte   Fn5 ,v041
 .byte   W06
 .byte   Fn5 ,v010
 .byte   W06
 .byte   Ds5 ,v041
 .byte   W06
 .byte   Ds5 ,v010
 .byte   W06
 .byte   Dn5 ,v041
 .byte   W06
 .byte   Dn5 ,v010
 .byte   W06
 .byte   Cn5 ,v041
 .byte   W06
 .byte   Cn5 ,v010
 .byte   W06
 .byte   Bn4 ,v041
 .byte   W06
 .byte   Bn4 ,v010
 .byte   W06
 .byte   As4 ,v041
 .byte   W06
 .byte   As4 ,v010
 .byte   W06
@  #02 @003   ----------------------------------------
 .byte   Bn4 ,v041
 .byte   W06
 .byte   Bn4 ,v010
 .byte   W06
 .byte   Cn5 ,v041
 .byte   W06
 .byte   Cn5 ,v010
 .byte   W06
 .byte   Dn5 ,v041
 .byte   W06
 .byte   Dn5 ,v010
 .byte   W06
 .byte   Ds5 ,v041
 .byte   W06
 .byte   Ds5 ,v010
 .byte   W06
 .byte   N24 ,En5 ,v041
 .byte   W24
 .byte   En4
 .byte   N06 ,En5 ,v010
 .byte   W24
@  #02 @004   ----------------------------------------
 .byte   En4
 .byte   N12 ,An4 ,v041
 .byte   W12
 .byte   An4 ,v010
 .byte   W12
 .byte   Cn5 ,v041
 .byte   W12
 .byte   Cn5 ,v010
 .byte   W12
 .byte   N18 ,Ds5 ,v041
 .byte   W18
 .byte   N06 ,En5
 .byte   N06 ,Ds5 ,v010
 .byte   W06
 .byte   N12 ,En5
 .byte   W12
 .byte   N06 ,Gs4 ,v041
 .byte   W06
 .byte   Gs4 ,v010
 .byte   W06
@  #02 @005   ----------------------------------------
 .byte   An4 ,v041
 .byte   W06
 .byte   An4 ,v010
 .byte   W06
 .byte   Cn5 ,v041
 .byte   W06
 .byte   Cn5 ,v010
 .byte   W06
 .byte   Dn5 ,v041
 .byte   W06
 .byte   Dn5 ,v010
 .byte   W06
 .byte   Cn5 ,v041
 .byte   W06
 .byte   Cn5 ,v010
 .byte   W06
 .byte   Ds5 ,v041
 .byte   W06
 .byte   Ds5 ,v010
 .byte   W06
 .byte   Ds5 ,v041
 .byte   W06
 .byte   N18 ,En5
 .byte   N06 ,Ds5 ,v010
 .byte   W18
 .byte   N12 ,En5
 .byte   W12
@  #02 @006   ----------------------------------------
 .byte   N06 ,Gn5 ,v041
 .byte   W06
 .byte   Gn5 ,v010
 .byte   W06
 .byte   Fs5 ,v041
 .byte   W06
 .byte   Fs5 ,v010
 .byte   W06
 .byte   Fn5 ,v041
 .byte   W06
 .byte   Fn5 ,v010
 .byte   W06
 .byte   Ds5 ,v041
 .byte   W06
 .byte   Ds5 ,v010
 .byte   W06
 .byte   En5 ,v041
 .byte   W06
 .byte   En5 ,v010
 .byte   W06
 .byte   Fn5 ,v041
 .byte   W06
 .byte   Fn5 ,v010
 .byte   W06
 .byte   Fs5 ,v041
 .byte   W06
 .byte   Fs5 ,v010
 .byte   W06
 .byte   Gn5 ,v041
 .byte   W06
 .byte   Gn5 ,v010
 .byte   W06
@  #02 @007   ----------------------------------------
 .byte   Gs5 ,v041
 .byte   W06
 .byte   Gs5 ,v010
 .byte   W06
 .byte   Gs5 ,v041
 .byte   W06
 .byte   Gs5 ,v010
 .byte   W06
 .byte   An5 ,v041
 .byte   W06
 .byte   An5 ,v010
 .byte   W06
 .byte   An5 ,v041
 .byte   W06
 .byte   An5 ,v010
 .byte   W06
 .byte   N24 ,Bn5 ,v041
 .byte   W24
 .byte   Bn5 ,v003
 .byte   W24
@  #02 @008   ----------------------------------------
 .byte   W96
@  #02 @009   ----------------------------------------
 .byte   W96
@  #02 @010   ----------------------------------------
 .byte   W96
@  #02 @011   ----------------------------------------
 .byte   W96
@  #02 @012   ----------------------------------------
 .byte   W96
@  #02 @013   ----------------------------------------
 .byte   W96
@  #02 @014   ----------------------------------------
 .byte   W96
@  #02 @015   ----------------------------------------
 .byte   W96
@  #02 @016   ----------------------------------------
 .byte   W96
@  #02 @017   ----------------------------------------
 .byte   W96
@  #02 @018   ----------------------------------------
 .byte   W96
@  #02 @019   ----------------------------------------
 .byte   W96
@  #02 @020   ----------------------------------------
 .byte   W96
@  #02 @021   ----------------------------------------
 .byte   W96
@  #02 @022   ----------------------------------------
 .byte   W96
@  #02 @023   ----------------------------------------
 .byte   W96
@  #02 @024   ----------------------------------------
 .byte   W96
@  #02 @025   ----------------------------------------
 .byte   W96
@  #02 @026   ----------------------------------------
 .byte   W96
@  #02 @027   ----------------------------------------
 .byte   W96
@  #02 @028   ----------------------------------------
 .byte   W96
@  #02 @029   ----------------------------------------
 .byte   W96
@  #02 @030   ----------------------------------------
 .byte   W96
@  #02 @031   ----------------------------------------
 .byte   W96
@  #02 @032   ----------------------------------------
 .byte   W96
@  #02 @033   ----------------------------------------
 .byte   W96
@  #02 @034   ----------------------------------------
 .byte   W96
@  #02 @035   ----------------------------------------
 .byte   W96
@  #02 @036   ----------------------------------------
 .byte   W96
@  #02 @037   ----------------------------------------
 .byte   W96
@  #02 @038   ----------------------------------------
 .byte   W96
@  #02 @039   ----------------------------------------
 .byte   W96
@  #02 @040   ----------------------------------------
Label_01003EB5:
 .byte   N12 ,An4 ,v041
 .byte   W24
 .byte   Cn5
 .byte   W24
 .byte   N18 ,Ds5
 .byte   W18
 .byte   N06 ,En5
 .byte   W18
 .byte   Gs4
 .byte   W12
 .byte   PEND 
@  #02 @041   ----------------------------------------
Label_01003EC4:
 .byte   N12 ,An4 ,v041
 .byte   W12
 .byte   Cn5
 .byte   W12
 .byte   Dn5
 .byte   W12
 .byte   Cn5
 .byte   W12
 .byte   N06 ,Ds5
 .byte   W12
 .byte   Ds5
 .byte   W06
 .byte   N18 ,En5
 .byte   W30
 .byte   PEND 
@  #02 @042   ----------------------------------------
Label_01003ED7:
 .byte   N12 ,Gn5 ,v041
 .byte   W12
 .byte   Fs5
 .byte   W12
 .byte   Fn5
 .byte   W12
 .byte   Ds5
 .byte   W12
 .byte   Dn5
 .byte   W12
 .byte   Cn5
 .byte   W12
 .byte   Bn4
 .byte   W12
 .byte   As4
 .byte   W12
 .byte   PEND 
@  #02 @043   ----------------------------------------
Label_01003EEA:
 .byte   N12 ,Bn4 ,v041
 .byte   W12
 .byte   Cn5
 .byte   W12
 .byte   Dn5
 .byte   W12
 .byte   Ds5
 .byte   W12
 .byte   N24 ,En5
 .byte   W48
 .byte   PEND 
@  #02 @044   ----------------------------------------
 .byte   PATT
  .word Label_01003EB5
@  #02 @045   ----------------------------------------
 .byte   PATT
  .word Label_01003EC4
@  #02 @046   ----------------------------------------
Label_01003F02:
 .byte   N12 ,Gn5 ,v041
 .byte   W12
 .byte   Fs5
 .byte   W12
 .byte   Fn5
 .byte   W12
 .byte   Ds5
 .byte   W12
 .byte   En5
 .byte   W12
 .byte   Fn5
 .byte   W12
 .byte   Fs5
 .byte   W12
 .byte   Gn5
 .byte   W12
 .byte   PEND 
@  #02 @047   ----------------------------------------
Label_01003F15:
 .byte   N12 ,Gs5 ,v041
 .byte   W12
 .byte   Gs5
 .byte   W12
 .byte   An5
 .byte   W12
 .byte   An5
 .byte   W12
 .byte   N24 ,Bn5
 .byte   W48
 .byte   PEND 
@  #02 @048   ----------------------------------------
 .byte   PATT
  .word Label_01003EB5
@  #02 @049   ----------------------------------------
 .byte   PATT
  .word Label_01003EC4
@  #02 @050   ----------------------------------------
 .byte   PATT
  .word Label_01003ED7
@  #02 @051   ----------------------------------------
 .byte   PATT
  .word Label_01003EEA
@  #02 @052   ----------------------------------------
 .byte   PATT
  .word Label_01003EB5
@  #02 @053   ----------------------------------------
 .byte   PATT
  .word Label_01003EC4
@  #02 @054   ----------------------------------------
 .byte   PATT
  .word Label_01003F02
@  #02 @055   ----------------------------------------
 .byte   PATT
  .word Label_01003F15
@  #02 @056   ----------------------------------------
 .byte   W96
@  #02 @057   ----------------------------------------
 .byte   W96
@  #02 @058   ----------------------------------------
 .byte   W96
@  #02 @059   ----------------------------------------
 .byte   W96
@  #02 @060   ----------------------------------------
 .byte   W96
@  #02 @061   ----------------------------------------
 .byte   W96
@  #02 @062   ----------------------------------------
 .byte   W96
@  #02 @063   ----------------------------------------
 .byte   W96
@  #02 @064   ----------------------------------------
 .byte   W96
@  #02 @065   ----------------------------------------
 .byte   W96
@  #02 @066   ----------------------------------------
 .byte   W96
@  #02 @067   ----------------------------------------
 .byte   W96
@  #02 @068   ----------------------------------------
 .byte   W96
@  #02 @069   ----------------------------------------
 .byte   W96
@  #02 @070   ----------------------------------------
 .byte   W96
@  #02 @071   ----------------------------------------
 .byte   W96
@  #02 @072   ----------------------------------------
 .byte   W96
@  #02 @073   ----------------------------------------
 .byte   W96
@  #02 @074   ----------------------------------------
 .byte   W96
@  #02 @075   ----------------------------------------
 .byte   W96
@  #02 @076   ----------------------------------------
 .byte   W96
@  #02 @077   ----------------------------------------
 .byte   W96
@  #02 @078   ----------------------------------------
 .byte   W96
@  #02 @079   ----------------------------------------
 .byte   W96
@  #02 @080   ----------------------------------------
 .byte   W96
@  #02 @081   ----------------------------------------
 .byte   W96
@  #02 @082   ----------------------------------------
 .byte   W96
@  #02 @083   ----------------------------------------
 .byte   W96
@  #02 @084   ----------------------------------------
 .byte   W96
@  #02 @085   ----------------------------------------
 .byte   W96
@  #02 @086   ----------------------------------------
 .byte   W96
@  #02 @087   ----------------------------------------
 .byte   W96
@  #02 @088   ----------------------------------------
 .byte   GOTO
  .word Label_01003D52
 .byte   FINE

@**************** Track 3 (Midi-Chn.2) ****************@

song02_003:
@  #03 @000   ----------------------------------------
 .byte   KEYSH , song02_key+0
Label_01008282:
 .byte   VOICE , 21
 .byte   N12 ,An1 ,v041
 .byte   BENDR, 12
 .byte   VOL , 32*song02_mvl/mxv
 .byte   W12
 .byte   N12 ,An1 ,v010
 .byte   W12
 .byte   Cn2 ,v041
 .byte   W12
 .byte   Cn2 ,v010
 .byte   W12
 .byte   N18 ,Ds2 ,v041
 .byte   W18
 .byte   N06 ,En2
 .byte   N06 ,Ds2 ,v010
 .byte   W06
 .byte   N12 ,En2
 .byte   W12
 .byte   N06 ,Gs1 ,v041
 .byte   W06
 .byte   Gs1 ,v010
 .byte   W06
@  #03 @001   ----------------------------------------
 .byte   An1 ,v041
 .byte   W06
 .byte   An1 ,v010
 .byte   W06
 .byte   Cn2 ,v041
 .byte   W06
 .byte   Cn2 ,v010
 .byte   W06
 .byte   Dn2 ,v041
 .byte   W06
 .byte   Dn2 ,v010
 .byte   W06
 .byte   Cn2 ,v041
 .byte   W06
 .byte   Cn2 ,v010
 .byte   W06
 .byte   Ds2 ,v041
 .byte   W06
 .byte   Ds2 ,v010
 .byte   W06
 .byte   Ds2 ,v041
 .byte   W06
 .byte   Ds2 ,v010
 .byte   N18 ,En2 ,v041
 .byte   W18
 .byte   N12 ,En2 ,v010
 .byte   W12
@  #03 @002   ----------------------------------------
 .byte   N06 ,Gn2 ,v041
 .byte   W06
 .byte   Gn2 ,v010
 .byte   W06
 .byte   Fs2 ,v041
 .byte   W06
 .byte   Fs2 ,v010
 .byte   W06
 .byte   Fn2 ,v041
 .byte   W06
 .byte   Fn2 ,v010
 .byte   W06
 .byte   Ds2 ,v041
 .byte   W06
 .byte   Ds2 ,v010
 .byte   W06
 .byte   Dn2 ,v041
 .byte   W06
 .byte   Dn2 ,v010
 .byte   W06
 .byte   Cn2 ,v041
 .byte   W06
 .byte   Cn2 ,v010
 .byte   W06
 .byte   Bn1 ,v041
 .byte   W06
 .byte   Bn1 ,v010
 .byte   W06
 .byte   As1 ,v041
 .byte   W06
 .byte   As1 ,v010
 .byte   W06
@  #03 @003   ----------------------------------------
 .byte   Bn1 ,v041
 .byte   W06
 .byte   Bn1 ,v010
 .byte   W06
 .byte   Cn2 ,v041
 .byte   W06
 .byte   Cn2 ,v010
 .byte   W06
 .byte   Dn2 ,v041
 .byte   W06
 .byte   Dn2 ,v010
 .byte   W06
 .byte   Ds2 ,v041
 .byte   W06
 .byte   Ds2 ,v010
 .byte   W06
 .byte   N24 ,En2 ,v041
 .byte   W24
 .byte   En1
 .byte   N06 ,En2 ,v010
 .byte   W24
@  #03 @004   ----------------------------------------
 .byte   En1
 .byte   N12 ,An1 ,v041
 .byte   W12
 .byte   An1 ,v010
 .byte   W12
 .byte   Cn2 ,v041
 .byte   W12
 .byte   Cn2 ,v010
 .byte   W12
 .byte   N18 ,Ds2 ,v041
 .byte   W18
 .byte   N06 ,En2
 .byte   N06 ,Ds2 ,v010
 .byte   W06
 .byte   N12 ,En2
 .byte   W12
 .byte   N06 ,Gs1 ,v041
 .byte   W06
 .byte   Gs1 ,v010
 .byte   W06
@  #03 @005   ----------------------------------------
 .byte   An1 ,v041
 .byte   W06
 .byte   An1 ,v010
 .byte   W06
 .byte   Cn2 ,v041
 .byte   W06
 .byte   Cn2 ,v010
 .byte   W06
 .byte   Dn2 ,v041
 .byte   W06
 .byte   Dn2 ,v010
 .byte   W06
 .byte   Cn2 ,v041
 .byte   W06
 .byte   Cn2 ,v010
 .byte   W06
 .byte   Ds2 ,v041
 .byte   W06
 .byte   Ds2 ,v010
 .byte   W06
 .byte   Ds2 ,v041
 .byte   W06
 .byte   N18 ,En2
 .byte   N06 ,Ds2 ,v010
 .byte   W18
 .byte   N12 ,En2
 .byte   W12
@  #03 @006   ----------------------------------------
 .byte   N06 ,Gn2 ,v041
 .byte   W06
 .byte   Gn2 ,v010
 .byte   W06
 .byte   Fs2 ,v041
 .byte   W06
 .byte   Fs2 ,v010
 .byte   W06
 .byte   Fn2 ,v041
 .byte   W06
 .byte   Fn2 ,v010
 .byte   W06
 .byte   Ds2 ,v041
 .byte   W06
 .byte   Ds2 ,v010
 .byte   W06
 .byte   En2 ,v041
 .byte   W06
 .byte   En2 ,v010
 .byte   W06
 .byte   Fn2 ,v041
 .byte   W06
 .byte   Fn2 ,v010
 .byte   W06
 .byte   Fs2 ,v041
 .byte   W06
 .byte   Fs2 ,v010
 .byte   W06
 .byte   Gn2 ,v041
 .byte   W06
 .byte   Gn2 ,v010
 .byte   W06
@  #03 @007   ----------------------------------------
 .byte   Gs2 ,v041
 .byte   W06
 .byte   Gs2 ,v010
 .byte   W06
 .byte   Gs2 ,v041
 .byte   W06
 .byte   Gs2 ,v010
 .byte   W06
 .byte   An2 ,v041
 .byte   W06
 .byte   An2 ,v010
 .byte   W06
 .byte   An2 ,v041
 .byte   W06
 .byte   An2 ,v010
 .byte   W06
 .byte   N24 ,Bn2 ,v041
 .byte   W24
 .byte   Bn2 ,v003
 .byte   W24
@  #03 @008   ----------------------------------------
 .byte   W96
@  #03 @009   ----------------------------------------
 .byte   W96
@  #03 @010   ----------------------------------------
 .byte   W96
@  #03 @011   ----------------------------------------
 .byte   W96
@  #03 @012   ----------------------------------------
 .byte   W96
@  #03 @013   ----------------------------------------
 .byte   W96
@  #03 @014   ----------------------------------------
 .byte   W96
@  #03 @015   ----------------------------------------
 .byte   W96
@  #03 @016   ----------------------------------------
 .byte   W96
@  #03 @017   ----------------------------------------
 .byte   W96
@  #03 @018   ----------------------------------------
 .byte   W96
@  #03 @019   ----------------------------------------
 .byte   W96
@  #03 @020   ----------------------------------------
 .byte   W96
@  #03 @021   ----------------------------------------
 .byte   W96
@  #03 @022   ----------------------------------------
 .byte   W96
@  #03 @023   ----------------------------------------
 .byte   W96
@  #03 @024   ----------------------------------------
 .byte   W96
@  #03 @025   ----------------------------------------
 .byte   W96
@  #03 @026   ----------------------------------------
 .byte   W96
@  #03 @027   ----------------------------------------
 .byte   W96
@  #03 @028   ----------------------------------------
 .byte   W96
@  #03 @029   ----------------------------------------
 .byte   W96
@  #03 @030   ----------------------------------------
 .byte   W96
@  #03 @031   ----------------------------------------
 .byte   W96
@  #03 @032   ----------------------------------------
 .byte   W96
@  #03 @033   ----------------------------------------
 .byte   W96
@  #03 @034   ----------------------------------------
 .byte   W96
@  #03 @035   ----------------------------------------
 .byte   W96
@  #03 @036   ----------------------------------------
 .byte   W96
@  #03 @037   ----------------------------------------
 .byte   W96
@  #03 @038   ----------------------------------------
 .byte   W96
@  #03 @039   ----------------------------------------
 .byte   W96
@  #03 @040   ----------------------------------------
Label_010083E3:
 .byte   N12 ,An1 ,v041
 .byte   W24
 .byte   Cn2
 .byte   W24
 .byte   N18 ,Ds2
 .byte   W18
 .byte   N06 ,En2
 .byte   W18
 .byte   Gs1
 .byte   W12
 .byte   PEND 
@  #03 @041   ----------------------------------------
Label_010083F2:
 .byte   N12 ,An1 ,v041
 .byte   W12
 .byte   Cn2
 .byte   W12
 .byte   Dn2
 .byte   W12
 .byte   Cn2
 .byte   W12
 .byte   N06 ,Ds2
 .byte   W12
 .byte   Ds2
 .byte   W06
 .byte   N18 ,En2
 .byte   W30
 .byte   PEND 
@  #03 @042   ----------------------------------------
Label_01008405:
 .byte   N12 ,Gn2 ,v041
 .byte   W12
 .byte   Fs2
 .byte   W12
 .byte   Fn2
 .byte   W12
 .byte   Ds2
 .byte   W12
 .byte   Dn2
 .byte   W12
 .byte   Cn2
 .byte   W12
 .byte   Bn1
 .byte   W12
 .byte   As1
 .byte   W12
 .byte   PEND 
@  #03 @043   ----------------------------------------
Label_01008418:
 .byte   N12 ,Bn1 ,v041
 .byte   W12
 .byte   Cn2
 .byte   W12
 .byte   Dn2
 .byte   W12
 .byte   Ds2
 .byte   W12
 .byte   N24 ,En2
 .byte   W48
 .byte   PEND 
@  #03 @044   ----------------------------------------
 .byte   PATT
  .word Label_010083E3
@  #03 @045   ----------------------------------------
 .byte   PATT
  .word Label_010083F2
@  #03 @046   ----------------------------------------
Label_01008430:
 .byte   N12 ,Gn2 ,v041
 .byte   W12
 .byte   Fs2
 .byte   W12
 .byte   Fn2
 .byte   W12
 .byte   Ds2
 .byte   W12
 .byte   En2
 .byte   W12
 .byte   Fn2
 .byte   W12
 .byte   Fs2
 .byte   W12
 .byte   Gn2
 .byte   W12
 .byte   PEND 
@  #03 @047   ----------------------------------------
Label_01008443:
 .byte   N12 ,Gs2 ,v041
 .byte   W12
 .byte   Gs2
 .byte   W12
 .byte   An2
 .byte   W12
 .byte   An2
 .byte   W12
 .byte   N24 ,Bn2
 .byte   W48
 .byte   PEND 
@  #03 @048   ----------------------------------------
 .byte   PATT
  .word Label_010083E3
@  #03 @049   ----------------------------------------
 .byte   PATT
  .word Label_010083F2
@  #03 @050   ----------------------------------------
 .byte   PATT
  .word Label_01008405
@  #03 @051   ----------------------------------------
 .byte   PATT
  .word Label_01008418
@  #03 @052   ----------------------------------------
 .byte   PATT
  .word Label_010083E3
@  #03 @053   ----------------------------------------
 .byte   PATT
  .word Label_010083F2
@  #03 @054   ----------------------------------------
 .byte   PATT
  .word Label_01008430
@  #03 @055   ----------------------------------------
 .byte   PATT
  .word Label_01008443
@  #03 @056   ----------------------------------------
 .byte   W96
@  #03 @057   ----------------------------------------
 .byte   W96
@  #03 @058   ----------------------------------------
 .byte   W96
@  #03 @059   ----------------------------------------
 .byte   W96
@  #03 @060   ----------------------------------------
 .byte   W96
@  #03 @061   ----------------------------------------
 .byte   W96
@  #03 @062   ----------------------------------------
 .byte   W96
@  #03 @063   ----------------------------------------
 .byte   W96
@  #03 @064   ----------------------------------------
 .byte   W96
@  #03 @065   ----------------------------------------
 .byte   W96
@  #03 @066   ----------------------------------------
 .byte   W96
@  #03 @067   ----------------------------------------
 .byte   W96
@  #03 @068   ----------------------------------------
 .byte   W96
@  #03 @069   ----------------------------------------
 .byte   W96
@  #03 @070   ----------------------------------------
 .byte   W96
@  #03 @071   ----------------------------------------
 .byte   W96
@  #03 @072   ----------------------------------------
 .byte   W96
@  #03 @073   ----------------------------------------
 .byte   W96
@  #03 @074   ----------------------------------------
 .byte   W96
@  #03 @075   ----------------------------------------
 .byte   W96
@  #03 @076   ----------------------------------------
 .byte   W96
@  #03 @077   ----------------------------------------
 .byte   W96
@  #03 @078   ----------------------------------------
 .byte   W96
@  #03 @079   ----------------------------------------
 .byte   W96
@  #03 @080   ----------------------------------------
 .byte   W96
@  #03 @081   ----------------------------------------
 .byte   W96
@  #03 @082   ----------------------------------------
 .byte   W96
@  #03 @083   ----------------------------------------
 .byte   W96
@  #03 @084   ----------------------------------------
 .byte   W96
@  #03 @085   ----------------------------------------
 .byte   W96
@  #03 @086   ----------------------------------------
 .byte   W96
@  #03 @087   ----------------------------------------
 .byte   W96
@  #03 @088   ----------------------------------------
 .byte   GOTO
  .word Label_01008282
 .byte   FINE

@**************** Track 4 (Midi-Chn.3) ****************@

song02_004:
@  #04 @000   ----------------------------------------
 .byte   KEYSH , song02_key+0
Label_01003F86:
 .byte   VOICE , 34
 .byte   BENDR, 12
 .byte   VOL , 111*song02_mvl/mxv
 .byte   W96
@  #04 @001   ----------------------------------------
 .byte   W96
@  #04 @002   ----------------------------------------
 .byte   W96
@  #04 @003   ----------------------------------------
 .byte   W96
@  #04 @004   ----------------------------------------
 .byte   W96
@  #04 @005   ----------------------------------------
 .byte   W96
@  #04 @006   ----------------------------------------
 .byte   W96
@  #04 @007   ----------------------------------------
 .byte   W96
@  #04 @008   ----------------------------------------
Label_01003F94:
 .byte   N24 ,An1 ,v056
 .byte   W24
 .byte   An1
 .byte   W24
 .byte   An1
 .byte   W24
 .byte   An1
 .byte   W24
 .byte   PEND 
@  #04 @009   ----------------------------------------
Label_01003F9F:
 .byte   N24 ,Cn2 ,v056
 .byte   W24
 .byte   Cn2
 .byte   W24
 .byte   Cn2
 .byte   W24
 .byte   Cn2
 .byte   W24
 .byte   PEND 
@  #04 @010   ----------------------------------------
Label_01003FAA:
 .byte   N24 ,Fn1 ,v056
 .byte   W24
 .byte   Fn1
 .byte   W24
 .byte   Fn1
 .byte   W24
 .byte   Fn1
 .byte   W24
 .byte   PEND 
@  #04 @011   ----------------------------------------
Label_01003FB5:
 .byte   N24 ,En1 ,v056
 .byte   W24
 .byte   En1
 .byte   W24
 .byte   En1
 .byte   W24
 .byte   En1
 .byte   W24
 .byte   PEND 
@  #04 @012   ----------------------------------------
 .byte   PATT
  .word Label_01003F94
@  #04 @013   ----------------------------------------
 .byte   PATT
  .word Label_01003F9F
@  #04 @014   ----------------------------------------
 .byte   PATT
  .word Label_01003FAA
@  #04 @015   ----------------------------------------
 .byte   PATT
  .word Label_01003FB5
@  #04 @016   ----------------------------------------
 .byte   PATT
  .word Label_01003F94
@  #04 @017   ----------------------------------------
 .byte   PATT
  .word Label_01003F9F
@  #04 @018   ----------------------------------------
 .byte   PATT
  .word Label_01003FAA
@  #04 @019   ----------------------------------------
 .byte   PATT
  .word Label_01003FB5
@  #04 @020   ----------------------------------------
 .byte   PATT
  .word Label_01003F94
@  #04 @021   ----------------------------------------
 .byte   PATT
  .word Label_01003F9F
@  #04 @022   ----------------------------------------
 .byte   PATT
  .word Label_01003FAA
@  #04 @023   ----------------------------------------
Label_01003FF7:
 .byte   N24 ,En2 ,v056
 .byte   W24
 .byte   En2
 .byte   W24
 .byte   En2
 .byte   W24
 .byte   En2
 .byte   W24
 .byte   PEND 
@  #04 @024   ----------------------------------------
Label_01004002:
 .byte   N24 ,Dn2 ,v056
 .byte   W24
 .byte   Dn2
 .byte   W24
 .byte   Dn2
 .byte   W24
 .byte   Dn2
 .byte   W24
 .byte   PEND 
@  #04 @025   ----------------------------------------
 .byte   PATT
  .word Label_01003FF7
@  #04 @026   ----------------------------------------
 .byte   PATT
  .word Label_01003F94
@  #04 @027   ----------------------------------------
 .byte   PATT
  .word Label_01003F9F
@  #04 @028   ----------------------------------------
 .byte   PATT
  .word Label_01004002
@  #04 @029   ----------------------------------------
 .byte   PATT
  .word Label_01003FF7
@  #04 @030   ----------------------------------------
 .byte   PATT
  .word Label_01003F94
@  #04 @031   ----------------------------------------
 .byte   PATT
  .word Label_01003F9F
@  #04 @032   ----------------------------------------
 .byte   PATT
  .word Label_01004002
@  #04 @033   ----------------------------------------
 .byte   PATT
  .word Label_01003FF7
@  #04 @034   ----------------------------------------
 .byte   PATT
  .word Label_01003F94
@  #04 @035   ----------------------------------------
 .byte   PATT
  .word Label_01003F9F
@  #04 @036   ----------------------------------------
 .byte   PATT
  .word Label_01004002
@  #04 @037   ----------------------------------------
 .byte   PATT
  .word Label_01003FF7
@  #04 @038   ----------------------------------------
 .byte   N24 ,An1 ,v056
 .byte   W96
@  #04 @039   ----------------------------------------
 .byte   W96
@  #04 @040   ----------------------------------------
 .byte   W96
@  #04 @041   ----------------------------------------
 .byte   W96
@  #04 @042   ----------------------------------------
 .byte   W96
@  #04 @043   ----------------------------------------
 .byte   W96
@  #04 @044   ----------------------------------------
 .byte   W96
@  #04 @045   ----------------------------------------
 .byte   W96
@  #04 @046   ----------------------------------------
 .byte   W96
@  #04 @047   ----------------------------------------
 .byte   W96
@  #04 @048   ----------------------------------------
 .byte   PATT
  .word Label_01003F94
@  #04 @049   ----------------------------------------
 .byte   PATT
  .word Label_01003F9F
@  #04 @050   ----------------------------------------
 .byte   PATT
  .word Label_01003FAA
@  #04 @051   ----------------------------------------
 .byte   PATT
  .word Label_01003FB5
@  #04 @052   ----------------------------------------
 .byte   PATT
  .word Label_01003F94
@  #04 @053   ----------------------------------------
 .byte   PATT
  .word Label_01003F9F
@  #04 @054   ----------------------------------------
 .byte   PATT
  .word Label_01003FAA
@  #04 @055   ----------------------------------------
 .byte   PATT
  .word Label_01003FB5
@  #04 @056   ----------------------------------------
 .byte   PATT
  .word Label_01003F94
@  #04 @057   ----------------------------------------
 .byte   PATT
  .word Label_01003F9F
@  #04 @058   ----------------------------------------
 .byte   PATT
  .word Label_01003FAA
@  #04 @059   ----------------------------------------
 .byte   PATT
  .word Label_01003FB5
@  #04 @060   ----------------------------------------
 .byte   PATT
  .word Label_01003F94
@  #04 @061   ----------------------------------------
 .byte   PATT
  .word Label_01003F9F
@  #04 @062   ----------------------------------------
 .byte   PATT
  .word Label_01003FAA
@  #04 @063   ----------------------------------------
 .byte   PATT
  .word Label_01003FB5
@  #04 @064   ----------------------------------------
 .byte   PATT
  .word Label_01003F94
@  #04 @065   ----------------------------------------
 .byte   PATT
  .word Label_01003F9F
@  #04 @066   ----------------------------------------
 .byte   PATT
  .word Label_01003FAA
@  #04 @067   ----------------------------------------
 .byte   PATT
  .word Label_01003FB5
@  #04 @068   ----------------------------------------
 .byte   PATT
  .word Label_01003F94
@  #04 @069   ----------------------------------------
 .byte   PATT
  .word Label_01003F9F
@  #04 @070   ----------------------------------------
 .byte   PATT
  .word Label_01003FAA
@  #04 @071   ----------------------------------------
 .byte   N12 ,Bn1 ,v056
 .byte   W12
 .byte   Bn1
 .byte   W12
 .byte   Bn1
 .byte   W12
 .byte   Bn1
 .byte   W12
 .byte   Bn1
 .byte   W12
 .byte   Bn1
 .byte   W12
 .byte   Bn1
 .byte   W12
 .byte   Bn1
 .byte   W12
@  #04 @072   ----------------------------------------
Label_010040E0:
 .byte   N24 ,Dn2 ,v061
 .byte   W24
 .byte   Dn2
 .byte   W24
 .byte   Dn2
 .byte   W24
 .byte   Dn2
 .byte   W24
 .byte   PEND 
@  #04 @073   ----------------------------------------
Label_010040EB:
 .byte   N24 ,En2 ,v061
 .byte   W24
 .byte   En2
 .byte   W24
 .byte   En2
 .byte   W24
 .byte   En2
 .byte   W24
 .byte   PEND 
@  #04 @074   ----------------------------------------
Label_010040F6:
 .byte   N24 ,An1 ,v061
 .byte   W24
 .byte   An1
 .byte   W24
 .byte   An1
 .byte   W24
 .byte   An1
 .byte   W24
 .byte   PEND 
@  #04 @075   ----------------------------------------
Label_01004101:
 .byte   N24 ,Cn2 ,v061
 .byte   W24
 .byte   Cn2
 .byte   W24
 .byte   Cn2
 .byte   W24
 .byte   Cn2
 .byte   W24
 .byte   PEND 
@  #04 @076   ----------------------------------------
 .byte   PATT
  .word Label_010040E0
@  #04 @077   ----------------------------------------
 .byte   PATT
  .word Label_010040EB
@  #04 @078   ----------------------------------------
 .byte   PATT
  .word Label_010040F6
@  #04 @079   ----------------------------------------
 .byte   PATT
  .word Label_01004101
@  #04 @080   ----------------------------------------
 .byte   PATT
  .word Label_010040E0
@  #04 @081   ----------------------------------------
 .byte   PATT
  .word Label_010040EB
@  #04 @082   ----------------------------------------
 .byte   PATT
  .word Label_010040F6
@  #04 @083   ----------------------------------------
 .byte   PATT
  .word Label_01004101
@  #04 @084   ----------------------------------------
 .byte   PATT
  .word Label_010040E0
@  #04 @085   ----------------------------------------
 .byte   PATT
  .word Label_010040EB
@  #04 @086   ----------------------------------------
 .byte   N24 ,An1 ,v061
 .byte   W96
@  #04 @087   ----------------------------------------
 .byte   W96
@  #04 @088   ----------------------------------------
 .byte   GOTO
  .word Label_01003F86
 .byte   FINE

@**************** Track 5 (Midi-Chn.4) ****************@

song02_005:
@  #05 @000   ----------------------------------------
 .byte   KEYSH , song02_key+0
Label_010084A2:
 .byte   VOICE , 11
 .byte   BENDR, 12
 .byte   PAN , c_v+14
 .byte   VOL , 45*song02_mvl/mxv
 .byte   W96
@  #05 @001   ----------------------------------------
 .byte   W96
@  #05 @002   ----------------------------------------
 .byte   W96
@  #05 @003   ----------------------------------------
 .byte   W96
@  #05 @004   ----------------------------------------
 .byte   W96
@  #05 @005   ----------------------------------------
 .byte   W96
@  #05 @006   ----------------------------------------
 .byte   W96
@  #05 @007   ----------------------------------------
 .byte   W96
@  #05 @008   ----------------------------------------
 .byte   W96
@  #05 @009   ----------------------------------------
 .byte   W96
@  #05 @010   ----------------------------------------
 .byte   W96
@  #05 @011   ----------------------------------------
 .byte   W96
@  #05 @012   ----------------------------------------
 .byte   W96
@  #05 @013   ----------------------------------------
 .byte   W96
@  #05 @014   ----------------------------------------
 .byte   W96
@  #05 @015   ----------------------------------------
 .byte   W96
@  #05 @016   ----------------------------------------
 .byte   N12 ,An4 ,v060
 .byte   W12
 .byte   An4 ,v015
 .byte   W12
 .byte   Cn5 ,v060
 .byte   W12
 .byte   Cn5 ,v015
 .byte   W12
 .byte   N18 ,Ds5 ,v060
 .byte   W18
 .byte   N06 ,En5
 .byte   N06 ,Ds5 ,v015
 .byte   W06
 .byte   N12 ,En5
 .byte   W12
 .byte   N06 ,Gs4 ,v060
 .byte   W06
 .byte   Gs4 ,v015
 .byte   W06
@  #05 @017   ----------------------------------------
 .byte   An4 ,v060
 .byte   W06
 .byte   An4 ,v015
 .byte   W06
 .byte   Cn5 ,v060
 .byte   W06
 .byte   Cn5 ,v015
 .byte   W06
 .byte   Dn5 ,v060
 .byte   W06
 .byte   Dn5 ,v015
 .byte   W06
 .byte   Cn5 ,v060
 .byte   W06
 .byte   Cn5 ,v015
 .byte   W06
 .byte   Ds5 ,v060
 .byte   W06
 .byte   Ds5 ,v015
 .byte   W06
 .byte   Ds5 ,v060
 .byte   W06
 .byte   N18 ,En5
 .byte   N06 ,Ds5 ,v015
 .byte   W18
 .byte   N12 ,En5
 .byte   W12
@  #05 @018   ----------------------------------------
 .byte   N06 ,Gn5 ,v060
 .byte   W06
 .byte   Gn5 ,v015
 .byte   W06
 .byte   Fs5 ,v060
 .byte   W06
 .byte   Fs5 ,v015
 .byte   W06
 .byte   Fn5 ,v060
 .byte   W06
 .byte   Fn5 ,v015
 .byte   W06
 .byte   Ds5 ,v060
 .byte   W06
 .byte   Ds5 ,v015
 .byte   W06
 .byte   Dn5 ,v060
 .byte   W06
 .byte   Dn5 ,v015
 .byte   W06
 .byte   Cn5 ,v060
 .byte   W06
 .byte   Cn5 ,v015
 .byte   W06
 .byte   Bn4 ,v060
 .byte   W06
 .byte   Bn4 ,v015
 .byte   W06
 .byte   As4 ,v060
 .byte   W06
 .byte   As4 ,v015
 .byte   W06
@  #05 @019   ----------------------------------------
 .byte   Bn4 ,v060
 .byte   W06
 .byte   Bn4 ,v015
 .byte   W06
 .byte   Cn5 ,v060
 .byte   W06
 .byte   Cn5 ,v015
 .byte   W06
 .byte   Dn5 ,v060
 .byte   W06
 .byte   Dn5 ,v015
 .byte   W06
 .byte   Ds5 ,v060
 .byte   W06
 .byte   Ds5 ,v015
 .byte   W06
 .byte   N24 ,En5 ,v060
 .byte   W24
 .byte   N06 ,En5 ,v015
 .byte   N24 ,En4 ,v060
 .byte   W24
@  #05 @020   ----------------------------------------
 .byte   N06 ,En4 ,v015
 .byte   N12 ,An4 ,v060
 .byte   W12
 .byte   An4 ,v015
 .byte   W12
 .byte   Cn5 ,v060
 .byte   W12
 .byte   Cn5 ,v015
 .byte   W12
 .byte   N18 ,Ds5 ,v060
 .byte   W18
 .byte   N06 ,Ds5 ,v015
 .byte   N06 ,En5 ,v060
 .byte   W06
 .byte   N12 ,En5 ,v015
 .byte   W12
 .byte   N06 ,Gs4 ,v060
 .byte   W06
 .byte   Gs4 ,v015
 .byte   W06
@  #05 @021   ----------------------------------------
 .byte   An4 ,v060
 .byte   W06
 .byte   An4 ,v015
 .byte   W06
 .byte   Cn5 ,v060
 .byte   W06
 .byte   Cn5 ,v015
 .byte   W06
 .byte   Dn5 ,v060
 .byte   W06
 .byte   Dn5 ,v015
 .byte   W06
 .byte   Cn5 ,v060
 .byte   W06
 .byte   Cn5 ,v015
 .byte   W06
 .byte   Ds5 ,v060
 .byte   W06
 .byte   Ds5 ,v015
 .byte   W06
 .byte   Ds5 ,v060
 .byte   W06
 .byte   Ds5 ,v015
 .byte   N18 ,En5 ,v060
 .byte   W18
 .byte   N12 ,En5 ,v015
 .byte   W12
@  #05 @022   ----------------------------------------
 .byte   N06 ,Gn5 ,v060
 .byte   W06
 .byte   Gn5 ,v015
 .byte   W06
 .byte   Fs5 ,v060
 .byte   W06
 .byte   Fs5 ,v015
 .byte   W06
 .byte   Fn5 ,v060
 .byte   W06
 .byte   Fn5 ,v015
 .byte   W06
 .byte   Ds5 ,v060
 .byte   W06
 .byte   Ds5 ,v015
 .byte   W06
 .byte   En5 ,v060
 .byte   W06
 .byte   En5 ,v015
 .byte   W06
 .byte   Fn5 ,v060
 .byte   W06
 .byte   Fn5 ,v015
 .byte   W06
 .byte   Fs5 ,v060
 .byte   W06
 .byte   Fs5 ,v015
 .byte   W06
 .byte   Gn5 ,v060
 .byte   W06
 .byte   Gn5 ,v015
 .byte   W06
@  #05 @023   ----------------------------------------
 .byte   Gs5 ,v060
 .byte   W06
 .byte   Gs5 ,v015
 .byte   W06
 .byte   Gs5 ,v060
 .byte   W06
 .byte   Gs5 ,v015
 .byte   W06
 .byte   An5 ,v060
 .byte   W06
 .byte   An5 ,v015
 .byte   W06
 .byte   An5 ,v060
 .byte   W06
 .byte   An5 ,v015
 .byte   W06
 .byte   N24 ,Bn5 ,v060
 .byte   W24
 .byte   Bn5 ,v004
 .byte   W24
@  #05 @024   ----------------------------------------
Label_010085FA:
 .byte   N12 ,En5 ,v061
 .byte   W12
 .byte   N06 ,En5 ,v004
 .byte   N06 ,Ds5 ,v061
 .byte   W06
 .byte   Ds5 ,v004
 .byte   W06
 .byte   En5 ,v061
 .byte   W06
 .byte   En5 ,v004
 .byte   W06
 .byte   Fn5 ,v061
 .byte   W06
 .byte   Fn5 ,v004
 .byte   W06
 .byte   En5 ,v061
 .byte   W06
 .byte   En5 ,v004
 .byte   W06
 .byte   Dn5 ,v061
 .byte   W06
 .byte   Dn5 ,v004
 .byte   W06
 .byte   Cn5 ,v061
 .byte   W06
 .byte   Cn5 ,v004
 .byte   W06
 .byte   Dn5 ,v061
 .byte   W06
 .byte   Dn5 ,v004
 .byte   W06
 .byte   PEND 
@  #05 @025   ----------------------------------------
Label_0100862D:
 .byte   N12 ,En5 ,v061
 .byte   W12
 .byte   N06 ,Ds5
 .byte   N06 ,En5 ,v004
 .byte   W06
 .byte   Ds5
 .byte   W06
 .byte   En5 ,v061
 .byte   W06
 .byte   En5 ,v004
 .byte   W06
 .byte   Fn5 ,v061
 .byte   W06
 .byte   Fn5 ,v004
 .byte   W06
 .byte   En5 ,v061
 .byte   W06
 .byte   En5 ,v004
 .byte   W06
 .byte   Dn5 ,v061
 .byte   W06
 .byte   Dn5 ,v004
 .byte   W06
 .byte   Cn5 ,v061
 .byte   W06
 .byte   Cn5 ,v004
 .byte   W06
 .byte   Bn4 ,v061
 .byte   W06
 .byte   Bn4 ,v004
 .byte   W06
 .byte   PEND 
@  #05 @026   ----------------------------------------
Label_0100865E:
 .byte   N24 ,An4 ,v061
 .byte   W24
 .byte   N05 ,An4 ,v004
 .byte   W72
 .byte   PEND 
@  #05 @027   ----------------------------------------
 .byte   W96
@  #05 @028   ----------------------------------------
Label_01008668:
 .byte   N12 ,En5 ,v061
 .byte   W12
 .byte   N06 ,Ds5
 .byte   N06 ,En5 ,v004
 .byte   W06
 .byte   Ds5
 .byte   W06
 .byte   En5 ,v061
 .byte   W06
 .byte   En5 ,v004
 .byte   W06
 .byte   Fn5 ,v061
 .byte   W06
 .byte   Fn5 ,v004
 .byte   W06
 .byte   En5 ,v061
 .byte   W06
 .byte   En5 ,v004
 .byte   W06
 .byte   Dn5 ,v061
 .byte   W06
 .byte   Dn5 ,v004
 .byte   W06
 .byte   Cn5 ,v061
 .byte   W06
 .byte   Cn5 ,v004
 .byte   W06
 .byte   Dn5 ,v061
 .byte   W06
 .byte   Dn5 ,v004
 .byte   W06
 .byte   PEND 
@  #05 @029   ----------------------------------------
Label_01008699:
 .byte   N12 ,En5 ,v060
 .byte   W12
 .byte   N06 ,En5 ,v004
 .byte   N06 ,Ds5 ,v060
 .byte   W06
 .byte   Ds5 ,v004
 .byte   W06
 .byte   En5 ,v061
 .byte   W06
 .byte   En5 ,v004
 .byte   W06
 .byte   Fn5 ,v061
 .byte   W06
 .byte   Fn5 ,v004
 .byte   W06
 .byte   En5 ,v061
 .byte   W06
 .byte   En5 ,v004
 .byte   W06
 .byte   Dn5 ,v063
 .byte   W06
 .byte   Dn5 ,v004
 .byte   W06
 .byte   Cn5 ,v063
 .byte   W06
 .byte   Cn5 ,v004
 .byte   W06
 .byte   Dn5 ,v064
 .byte   W06
 .byte   Dn5 ,v004
 .byte   W06
 .byte   PEND 
@  #05 @030   ----------------------------------------
Label_010086CC:
 .byte   N24 ,En5 ,v064
 .byte   W24
 .byte   N06 ,En5 ,v004
 .byte   W72
 .byte   PEND 
@  #05 @031   ----------------------------------------
 .byte   W96
@  #05 @032   ----------------------------------------
 .byte   PATT
  .word Label_01008668
@  #05 @033   ----------------------------------------
 .byte   PATT
  .word Label_0100862D
@  #05 @034   ----------------------------------------
 .byte   PATT
  .word Label_0100865E
@  #05 @035   ----------------------------------------
 .byte   W96
@  #05 @036   ----------------------------------------
Label_010086E6:
 .byte   N12 ,En5 ,v066
 .byte   W12
 .byte   N06 ,Ds5
 .byte   N06 ,En5 ,v006
 .byte   W06
 .byte   Ds5
 .byte   W06
 .byte   En5 ,v066
 .byte   W06
 .byte   En5 ,v006
 .byte   W06
 .byte   Fn5 ,v066
 .byte   W06
 .byte   Fn5 ,v006
 .byte   W06
 .byte   En5 ,v066
 .byte   W06
 .byte   En5 ,v006
 .byte   W06
 .byte   Dn5 ,v066
 .byte   W06
 .byte   Dn5 ,v006
 .byte   W06
 .byte   Cn5 ,v066
 .byte   W06
 .byte   Cn5 ,v006
 .byte   W06
 .byte   Dn5 ,v066
 .byte   W06
 .byte   Dn5 ,v006
 .byte   W06
 .byte   PEND 
@  #05 @037   ----------------------------------------
Label_01008717:
 .byte   N12 ,En5 ,v066
 .byte   W12
 .byte   N06 ,En5 ,v006
 .byte   N06 ,Ds5 ,v066
 .byte   W06
 .byte   Ds5 ,v006
 .byte   W06
 .byte   En5 ,v066
 .byte   W06
 .byte   En5 ,v006
 .byte   W06
 .byte   Fn5 ,v066
 .byte   W06
 .byte   Fn5 ,v006
 .byte   W06
 .byte   En5 ,v066
 .byte   W06
 .byte   En5 ,v006
 .byte   W06
 .byte   Dn5 ,v066
 .byte   W06
 .byte   Dn5 ,v006
 .byte   W06
 .byte   Cn5 ,v066
 .byte   W06
 .byte   Cn5 ,v006
 .byte   W06
 .byte   Bn4 ,v066
 .byte   W06
 .byte   Bn4 ,v006
 .byte   W06
 .byte   PEND 
@  #05 @038   ----------------------------------------
Label_0100874A:
 .byte   N24 ,An4 ,v066
 .byte   W24
 .byte   N23 ,An4 ,v006
 .byte   W72
 .byte   PEND 
@  #05 @039   ----------------------------------------
 .byte   W96
@  #05 @040   ----------------------------------------
 .byte   W96
@  #05 @041   ----------------------------------------
 .byte   W96
@  #05 @042   ----------------------------------------
 .byte   W96
@  #05 @043   ----------------------------------------
 .byte   W96
@  #05 @044   ----------------------------------------
 .byte   W96
@  #05 @045   ----------------------------------------
 .byte   W96
@  #05 @046   ----------------------------------------
 .byte   W96
@  #05 @047   ----------------------------------------
 .byte   W96
@  #05 @048   ----------------------------------------
 .byte   W96
@  #05 @049   ----------------------------------------
 .byte   W96
@  #05 @050   ----------------------------------------
 .byte   W96
@  #05 @051   ----------------------------------------
 .byte   W96
@  #05 @052   ----------------------------------------
 .byte   W96
@  #05 @053   ----------------------------------------
 .byte   W96
@  #05 @054   ----------------------------------------
 .byte   W96
@  #05 @055   ----------------------------------------
 .byte   W96
@  #05 @056   ----------------------------------------
 .byte   W96
@  #05 @057   ----------------------------------------
 .byte   W96
@  #05 @058   ----------------------------------------
 .byte   W96
@  #05 @059   ----------------------------------------
 .byte   W96
@  #05 @060   ----------------------------------------
 .byte   W96
@  #05 @061   ----------------------------------------
 .byte   W96
@  #05 @062   ----------------------------------------
 .byte   W96
@  #05 @063   ----------------------------------------
 .byte   W96
@  #05 @064   ----------------------------------------
 .byte   W96
@  #05 @065   ----------------------------------------
 .byte   W96
@  #05 @066   ----------------------------------------
 .byte   W96
@  #05 @067   ----------------------------------------
 .byte   W96
@  #05 @068   ----------------------------------------
 .byte   W96
@  #05 @069   ----------------------------------------
 .byte   W96
@  #05 @070   ----------------------------------------
 .byte   W96
@  #05 @071   ----------------------------------------
 .byte   W96
@  #05 @072   ----------------------------------------
 .byte   PATT
  .word Label_010085FA
@  #05 @073   ----------------------------------------
 .byte   PATT
  .word Label_0100862D
@  #05 @074   ----------------------------------------
 .byte   PATT
  .word Label_0100865E
@  #05 @075   ----------------------------------------
 .byte   W96
@  #05 @076   ----------------------------------------
 .byte   PATT
  .word Label_01008668
@  #05 @077   ----------------------------------------
 .byte   PATT
  .word Label_01008699
@  #05 @078   ----------------------------------------
 .byte   PATT
  .word Label_010086CC
@  #05 @079   ----------------------------------------
 .byte   W96
@  #05 @080   ----------------------------------------
 .byte   PATT
  .word Label_01008668
@  #05 @081   ----------------------------------------
 .byte   PATT
  .word Label_0100862D
@  #05 @082   ----------------------------------------
 .byte   PATT
  .word Label_0100865E
@  #05 @083   ----------------------------------------
 .byte   W96
@  #05 @084   ----------------------------------------
 .byte   PATT
  .word Label_010086E6
@  #05 @085   ----------------------------------------
 .byte   PATT
  .word Label_01008717
@  #05 @086   ----------------------------------------
 .byte   PATT
  .word Label_0100874A
@  #05 @087   ----------------------------------------
 .byte   W96
@  #05 @088   ----------------------------------------
 .byte   GOTO
  .word Label_010084A2
 .byte   FINE

@**************** Track 6 (Midi-Chn.5) ****************@

song02_006:
@  #06 @000   ----------------------------------------
 .byte   KEYSH , song02_key+0
Label_01003026:
 .byte   VOICE , 118
 .byte   BENDR, 12
 .byte   VOL , 122*song02_mvl/mxv
 .byte   W96
@  #06 @001   ----------------------------------------
 .byte   W96
@  #06 @002   ----------------------------------------
 .byte   W96
@  #06 @003   ----------------------------------------
 .byte   W96
@  #06 @004   ----------------------------------------
 .byte   W96
@  #06 @005   ----------------------------------------
 .byte   W96
@  #06 @006   ----------------------------------------
 .byte   W96
@  #06 @007   ----------------------------------------
 .byte   W24
 .byte   N48 ,Cn4 ,v032
 .byte   W72
@  #06 @008   ----------------------------------------
 .byte   W96
@  #06 @009   ----------------------------------------
 .byte   W96
@  #06 @010   ----------------------------------------
 .byte   W96
@  #06 @011   ----------------------------------------
 .byte   W96
@  #06 @012   ----------------------------------------
 .byte   W96
@  #06 @013   ----------------------------------------
 .byte   W96
@  #06 @014   ----------------------------------------
 .byte   W96
@  #06 @015   ----------------------------------------
 .byte   W96
@  #06 @016   ----------------------------------------
 .byte   W96
@  #06 @017   ----------------------------------------
 .byte   W96
@  #06 @018   ----------------------------------------
 .byte   W96
@  #06 @019   ----------------------------------------
 .byte   W96
@  #06 @020   ----------------------------------------
 .byte   W96
@  #06 @021   ----------------------------------------
 .byte   W96
@  #06 @022   ----------------------------------------
 .byte   W96
@  #06 @023   ----------------------------------------
 .byte   W96
@  #06 @024   ----------------------------------------
 .byte   W96
@  #06 @025   ----------------------------------------
 .byte   W96
@  #06 @026   ----------------------------------------
 .byte   W96
@  #06 @027   ----------------------------------------
 .byte   W96
@  #06 @028   ----------------------------------------
 .byte   W96
@  #06 @029   ----------------------------------------
 .byte   W96
@  #06 @030   ----------------------------------------
 .byte   W96
@  #06 @031   ----------------------------------------
 .byte   W96
@  #06 @032   ----------------------------------------
 .byte   W96
@  #06 @033   ----------------------------------------
 .byte   W96
@  #06 @034   ----------------------------------------
 .byte   W96
@  #06 @035   ----------------------------------------
 .byte   W96
@  #06 @036   ----------------------------------------
 .byte   W96
@  #06 @037   ----------------------------------------
 .byte   W96
@  #06 @038   ----------------------------------------
 .byte   W96
@  #06 @039   ----------------------------------------
 .byte   W96
@  #06 @040   ----------------------------------------
 .byte   W96
@  #06 @041   ----------------------------------------
 .byte   W96
@  #06 @042   ----------------------------------------
 .byte   W96
@  #06 @043   ----------------------------------------
 .byte   W96
@  #06 @044   ----------------------------------------
 .byte   W96
@  #06 @045   ----------------------------------------
 .byte   W96
@  #06 @046   ----------------------------------------
 .byte   W96
@  #06 @047   ----------------------------------------
 .byte   W96
@  #06 @048   ----------------------------------------
 .byte   W96
@  #06 @049   ----------------------------------------
 .byte   W96
@  #06 @050   ----------------------------------------
 .byte   W96
@  #06 @051   ----------------------------------------
 .byte   W96
@  #06 @052   ----------------------------------------
 .byte   W96
@  #06 @053   ----------------------------------------
 .byte   W96
@  #06 @054   ----------------------------------------
 .byte   W96
@  #06 @055   ----------------------------------------
 .byte   W96
@  #06 @056   ----------------------------------------
 .byte   W96
@  #06 @057   ----------------------------------------
 .byte   W96
@  #06 @058   ----------------------------------------
 .byte   W96
@  #06 @059   ----------------------------------------
 .byte   W96
@  #06 @060   ----------------------------------------
 .byte   W96
@  #06 @061   ----------------------------------------
 .byte   W96
@  #06 @062   ----------------------------------------
 .byte   W96
@  #06 @063   ----------------------------------------
 .byte   W96
@  #06 @064   ----------------------------------------
 .byte   W96
@  #06 @065   ----------------------------------------
 .byte   W96
@  #06 @066   ----------------------------------------
 .byte   W96
@  #06 @067   ----------------------------------------
 .byte   W96
@  #06 @068   ----------------------------------------
 .byte   W96
@  #06 @069   ----------------------------------------
 .byte   W96
@  #06 @070   ----------------------------------------
 .byte   W96
@  #06 @071   ----------------------------------------
 .byte   W96
@  #06 @072   ----------------------------------------
 .byte   W96
@  #06 @073   ----------------------------------------
 .byte   W96
@  #06 @074   ----------------------------------------
 .byte   W96
@  #06 @075   ----------------------------------------
 .byte   W96
@  #06 @076   ----------------------------------------
 .byte   W96
@  #06 @077   ----------------------------------------
 .byte   W96
@  #06 @078   ----------------------------------------
 .byte   W96
@  #06 @079   ----------------------------------------
 .byte   W96
@  #06 @080   ----------------------------------------
 .byte   W96
@  #06 @081   ----------------------------------------
 .byte   W96
@  #06 @082   ----------------------------------------
 .byte   W96
@  #06 @083   ----------------------------------------
 .byte   W96
@  #06 @084   ----------------------------------------
 .byte   W96
@  #06 @085   ----------------------------------------
 .byte   W96
@  #06 @086   ----------------------------------------
 .byte   W96
@  #06 @087   ----------------------------------------
 .byte   W96
@  #06 @088   ----------------------------------------
 .byte   GOTO
  .word Label_01003026
 .byte   FINE

@**************** Track 7 (Midi-Chn.6) ****************@

song02_007:
@  #07 @000   ----------------------------------------
 .byte   KEYSH , song02_key+0
Label_010087BE:
 .byte   VOICE , 124
 .byte   N24 ,Cn1 ,v077
 .byte   BENDR, 12
 .byte   VOL , 80*song02_mvl/mxv
 .byte   W24
 .byte   N24
 .byte   W24
 .byte   Cn1
 .byte   W24
 .byte   Cn1
 .byte   W24
@  #07 @001   ----------------------------------------
Label_010087CE:
 .byte   N24 ,Cn1 ,v077
 .byte   W24
 .byte   Cn1
 .byte   W24
 .byte   Cn1
 .byte   W24
 .byte   Cn1
 .byte   W24
 .byte   PEND 
@  #07 @002   ----------------------------------------
 .byte   PATT
  .word Label_010087CE
@  #07 @003   ----------------------------------------
 .byte   PATT
  .word Label_010087CE
@  #07 @004   ----------------------------------------
 .byte   PATT
  .word Label_010087CE
@  #07 @005   ----------------------------------------
 .byte   PATT
  .word Label_010087CE
@  #07 @006   ----------------------------------------
 .byte   N06 ,Fs1 ,v063
 .byte   N24 ,Cn1
 .byte   W06
 .byte   N06 ,Fs1 ,v027
 .byte   W06
 .byte   Fs1 ,v063
 .byte   N06 ,Dn1 ,v077
 .byte   W06
 .byte   Fs1 ,v027
 .byte   N06 ,Dn1 ,v038
 .byte   W06
 .byte   Dn1 ,v077
 .byte   N24 ,Cn1
 .byte   N06 ,Fs1 ,v063
 .byte   W06
 .byte   Dn1 ,v038
 .byte   N06 ,Fs1 ,v027
 .byte   W06
 .byte   Fs1 ,v063
 .byte   W06
 .byte   Dn1 ,v077
 .byte   N06 ,Fs1 ,v027
 .byte   W06
 .byte   Dn1 ,v038
 .byte   N24 ,Cn1 ,v077
 .byte   N06 ,Fs1 ,v063
 .byte   W06
 .byte   Fs1 ,v027
 .byte   W06
 .byte   Fs1 ,v063
 .byte   W06
 .byte   Fs1 ,v027
 .byte   W06
 .byte   Dn1 ,v077
 .byte   N24 ,Cn1
 .byte   N06 ,Fs1 ,v063
 .byte   W06
 .byte   Dn1 ,v038
 .byte   N06 ,Fs1 ,v027
 .byte   W06
 .byte   Fs1 ,v063
 .byte   W06
 .byte   Fs1 ,v027
 .byte   W06
@  #07 @007   ----------------------------------------
 .byte   Fs1 ,v063
 .byte   N24 ,Cn1 ,v077
 .byte   W06
 .byte   N06 ,Fs1 ,v027
 .byte   W06
 .byte   Fs1 ,v063
 .byte   N06 ,Dn1 ,v077
 .byte   W06
 .byte   Fs1 ,v027
 .byte   N06 ,Dn1 ,v038
 .byte   W06
 .byte   Dn1 ,v077
 .byte   N24 ,Cn1
 .byte   N06 ,Fs1 ,v063
 .byte   W06
 .byte   Dn1 ,v038
 .byte   N06 ,Fs1 ,v027
 .byte   W06
 .byte   Fs1 ,v063
 .byte   W06
 .byte   Fs1 ,v027
 .byte   N06 ,Dn1 ,v077
 .byte   W06
 .byte   Dn1 ,v038
 .byte   N24 ,Cn1 ,v077
 .byte   N06 ,Fs1 ,v063
 .byte   W06
 .byte   Fs1 ,v027
 .byte   W06
 .byte   Fs1 ,v063
 .byte   W06
 .byte   Fs1 ,v027
 .byte   W06
 .byte   N24 ,Cn1 ,v077
 .byte   W24
@  #07 @008   ----------------------------------------
 .byte   Cn1
 .byte   N72 ,An2 ,v076
 .byte   N06 ,Fs1 ,v063
 .byte   W06
 .byte   Fs1 ,v027
 .byte   W06
 .byte   N12 ,As1 ,v063
 .byte   W12
 .byte   N06 ,Fs1
 .byte   N24 ,Cn1 ,v077
 .byte   N12 ,Dn1
 .byte   N12 ,As1 ,v026
 .byte   W06
 .byte   N06 ,Fs1 ,v027
 .byte   W06
 .byte   N12 ,As1 ,v063
 .byte   W12
 .byte   As1 ,v026
 .byte   N06 ,Fs1 ,v063
 .byte   N24 ,Cn1 ,v077
 .byte   W06
 .byte   N06 ,Fs1 ,v027
 .byte   W06
 .byte   N12 ,As1 ,v063
 .byte   W12
 .byte   N06 ,Fs1
 .byte   N24 ,Cn1 ,v077
 .byte   N12 ,Dn1
 .byte   N12 ,As1 ,v026
 .byte   W06
 .byte   N06 ,Fs1 ,v027
 .byte   W06
 .byte   N12 ,As1 ,v063
 .byte   W12
@  #07 @009   ----------------------------------------
 .byte   As1 ,v026
 .byte   N06 ,Fs1 ,v063
 .byte   N24 ,Cn1 ,v077
 .byte   W06
 .byte   N06 ,Fs1 ,v027
 .byte   W06
 .byte   N12 ,As1 ,v063
 .byte   W12
 .byte   As1 ,v026
 .byte   N06 ,Fs1 ,v063
 .byte   N24 ,Cn1 ,v077
 .byte   N12 ,Dn1
 .byte   W06
 .byte   N06 ,Fs1 ,v027
 .byte   W06
 .byte   N12 ,As1 ,v063
 .byte   W12
 .byte   As1 ,v026
 .byte   N06 ,Fs1 ,v063
 .byte   N24 ,Cn1 ,v077
 .byte   W06
 .byte   N06 ,Fs1 ,v027
 .byte   W06
 .byte   N12 ,As1 ,v063
 .byte   W12
 .byte   As1 ,v026
 .byte   N12 ,Dn1 ,v077
 .byte   N24 ,Cn1
 .byte   N06 ,Fs1 ,v063
 .byte   W06
 .byte   Fs1 ,v027
 .byte   W06
 .byte   N12 ,As1 ,v063
 .byte   W12
@  #07 @010   ----------------------------------------
 .byte   N06 ,Fs1
 .byte   N24 ,Cn1 ,v077
 .byte   N12 ,As1 ,v026
 .byte   W06
 .byte   N06 ,Fs1 ,v027
 .byte   W06
 .byte   N12 ,As1 ,v063
 .byte   W12
 .byte   N06 ,Fs1
 .byte   N24 ,Cn1 ,v077
 .byte   N12 ,Dn1
 .byte   N12 ,As1 ,v026
 .byte   W06
 .byte   N06 ,Fs1 ,v027
 .byte   W06
 .byte   N12 ,As1 ,v063
 .byte   W12
 .byte   N06 ,Fs1
 .byte   N24 ,Cn1 ,v077
 .byte   N12 ,As1 ,v026
 .byte   W06
 .byte   N06 ,Fs1 ,v027
 .byte   W06
 .byte   N12 ,As1 ,v063
 .byte   W12
 .byte   N06 ,Fs1
 .byte   N24 ,Cn1 ,v077
 .byte   N12 ,As1 ,v026
 .byte   N12 ,Dn1 ,v077
 .byte   W06
 .byte   N06 ,Fs1 ,v027
 .byte   W06
 .byte   N12 ,As1 ,v063
 .byte   W12
@  #07 @011   ----------------------------------------
 .byte   N06 ,Fs1
 .byte   N24 ,Cn1 ,v077
 .byte   N12 ,As1 ,v026
 .byte   W06
 .byte   N06 ,Fs1 ,v027
 .byte   W06
 .byte   N12 ,As1 ,v063
 .byte   W12
 .byte   As1 ,v026
 .byte   N06 ,Fs1 ,v063
 .byte   N24 ,Cn1 ,v077
 .byte   N12 ,Dn1
 .byte   W06
 .byte   N06 ,Fs1 ,v027
 .byte   W06
 .byte   N12 ,As1 ,v063
 .byte   W12
 .byte   N06 ,Fs1
 .byte   N24 ,Cn1 ,v077
 .byte   N12 ,As1 ,v026
 .byte   W06
 .byte   N06 ,Fs1 ,v027
 .byte   W06
 .byte   N12 ,As1 ,v063
 .byte   W12
 .byte   N06 ,Fs1
 .byte   N24 ,Cn1 ,v077
 .byte   N12 ,Dn1
 .byte   N12 ,As1 ,v026
 .byte   W06
 .byte   N06 ,Fs1 ,v027
 .byte   W06
 .byte   N12 ,As1 ,v063
 .byte   W12
@  #07 @012   ----------------------------------------
 .byte   As1 ,v026
 .byte   N06 ,Fs1 ,v063
 .byte   N24 ,Cn1 ,v077
 .byte   W06
 .byte   N06 ,Fs1 ,v027
 .byte   W06
 .byte   N12 ,As1 ,v063
 .byte   W12
 .byte   N06 ,Fs1
 .byte   N24 ,Cn1
 .byte   N12 ,Dn1 ,v077
 .byte   N12 ,As1 ,v026
 .byte   W06
 .byte   N06 ,Fs1 ,v027
 .byte   W06
 .byte   N12 ,As1 ,v063
 .byte   W12
 .byte   As1 ,v026
 .byte   N06 ,Fs1 ,v063
 .byte   N24 ,Cn1 ,v077
 .byte   W06
 .byte   N06 ,Fs1 ,v027
 .byte   W06
 .byte   N12 ,As1 ,v063
 .byte   W12
 .byte   N06 ,Fs1
 .byte   N24 ,Cn1 ,v077
 .byte   N12 ,Dn1
 .byte   N12 ,As1 ,v026
 .byte   W06
 .byte   N06 ,Fs1 ,v027
 .byte   W06
 .byte   N12 ,As1 ,v063
 .byte   W12
@  #07 @013   ----------------------------------------
 .byte   As1 ,v026
 .byte   N06 ,Fs1 ,v063
 .byte   N24 ,Cn1 ,v077
 .byte   W06
 .byte   N06 ,Fs1 ,v027
 .byte   W06
 .byte   N12 ,As1 ,v063
 .byte   W12
 .byte   As1 ,v026
 .byte   N06 ,Fs1 ,v063
 .byte   N24 ,Cn1 ,v077
 .byte   N12 ,Dn1
 .byte   W06
 .byte   N06 ,Fs1 ,v027
 .byte   W06
 .byte   N12 ,As1 ,v063
 .byte   W12
 .byte   As1 ,v026
 .byte   N06 ,Fs1 ,v063
 .byte   N24 ,Cn1 ,v077
 .byte   W06
 .byte   N06 ,Fs1 ,v027
 .byte   W06
 .byte   N12 ,As1 ,v063
 .byte   W12
 .byte   As1 ,v026
 .byte   N06 ,Fs1 ,v063
 .byte   N24 ,Cn1 ,v077
 .byte   N12 ,Dn1
 .byte   W06
 .byte   N06 ,Fs1 ,v027
 .byte   W06
 .byte   N12 ,As1 ,v063
 .byte   W12
@  #07 @014   ----------------------------------------
 .byte   As1 ,v026
 .byte   N06 ,Fs1 ,v063
 .byte   N24 ,Cn1 ,v077
 .byte   W06
 .byte   N06 ,Fs1 ,v027
 .byte   W06
 .byte   N12 ,As1 ,v063
 .byte   W12
 .byte   As1 ,v026
 .byte   N12 ,Dn1 ,v077
 .byte   N06 ,Fs1 ,v063
 .byte   N24 ,Cn1 ,v077
 .byte   W06
 .byte   N06 ,Fs1 ,v027
 .byte   W06
 .byte   N12 ,As1 ,v063
 .byte   W12
 .byte   N06 ,Fs1
 .byte   N24 ,Cn1 ,v077
 .byte   N12 ,As1 ,v026
 .byte   W06
 .byte   N06 ,Fs1 ,v027
 .byte   W06
 .byte   N12 ,As1 ,v063
 .byte   W12
 .byte   As1 ,v026
 .byte   N12 ,Dn1 ,v077
 .byte   N06 ,Fs1 ,v063
 .byte   N24 ,Cn1 ,v077
 .byte   W06
 .byte   N06 ,Fs1 ,v027
 .byte   W06
 .byte   N12 ,As1 ,v063
 .byte   W12
@  #07 @015   ----------------------------------------
 .byte   N06 ,Fs1
 .byte   N24 ,Cn1 ,v077
 .byte   N12 ,As1 ,v063
 .byte   W06
 .byte   N06 ,Fs1 ,v027
 .byte   W06
 .byte   N12 ,As1 ,v063
 .byte   W12
 .byte   N24 ,Cs2 ,v076
 .byte   N06 ,Fs1 ,v063
 .byte   N24 ,Cn1 ,v077
 .byte   N12 ,Dn1
 .byte   W06
 .byte   N06 ,Fs1 ,v027
 .byte   W06
 .byte   N12 ,As1 ,v063
 .byte   W06
 .byte   N06 ,Dn1 ,v077
 .byte   W06
 .byte   N12 ,As1 ,v063
 .byte   N06 ,Fs1
 .byte   N24 ,Cn1 ,v077
 .byte   W06
 .byte   N06 ,Fs1 ,v027
 .byte   W06
 .byte   N24 ,Cs2 ,v076
 .byte   W12
 .byte   N01 ,Dn1 ,v077
 .byte   N24 ,Cn1
 .byte   N06 ,Fs1 ,v063
 .byte   W01
 .byte   N02 ,Dn1 ,v077
 .byte   W02
 .byte   N01
 .byte   W01
 .byte   N02
 .byte   W02
 .byte   N01
 .byte   N06 ,Fs1 ,v027
 .byte   W01
 .byte   N02 ,Dn1 ,v077
 .byte   W02
 .byte   N01
 .byte   W01
 .byte   N02
 .byte   W14
@  #07 @016   ----------------------------------------
 .byte   N72 ,An2 ,v076
 .byte   N06 ,Fs1 ,v063
 .byte   N24 ,Cn1 ,v077
 .byte   W06
 .byte   N06 ,Fs1 ,v027
 .byte   W06
 .byte   N12 ,As1 ,v063
 .byte   W12
 .byte   N06 ,Fs1
 .byte   N24 ,Cn1 ,v077
 .byte   N12 ,Dn1
 .byte   N12 ,As1 ,v026
 .byte   W06
 .byte   N06 ,Fs1 ,v027
 .byte   W06
 .byte   N12 ,As1 ,v063
 .byte   W12
 .byte   N06 ,Fs1
 .byte   N24 ,Cn1 ,v077
 .byte   N12 ,As1 ,v026
 .byte   W06
 .byte   N06 ,Fs1 ,v027
 .byte   W06
 .byte   N12 ,As1 ,v063
 .byte   W12
 .byte   Dn1 ,v077
 .byte   N24 ,Cn1
 .byte   N06 ,Fs1 ,v063
 .byte   N12 ,As1 ,v026
 .byte   W06
 .byte   N06 ,Fs1 ,v027
 .byte   W06
 .byte   N12 ,As1 ,v063
 .byte   W12
@  #07 @017   ----------------------------------------
 .byte   N06 ,Fs1
 .byte   N24 ,Cn1 ,v077
 .byte   N12 ,As1 ,v026
 .byte   W06
 .byte   N06 ,Fs1 ,v027
 .byte   W06
 .byte   N12 ,As1 ,v063
 .byte   W12
 .byte   N06 ,Fs1
 .byte   N24 ,Cn1 ,v077
 .byte   N12 ,Dn1
 .byte   N12 ,As1 ,v026
 .byte   W06
 .byte   N06 ,Fs1 ,v027
 .byte   W06
 .byte   N12 ,As1 ,v063
 .byte   W12
 .byte   N06 ,Fs1
 .byte   N24 ,Cn1 ,v077
 .byte   N12 ,As1 ,v026
 .byte   W06
 .byte   N06 ,Fs1 ,v027
 .byte   W06
 .byte   N12 ,As1 ,v063
 .byte   W12
 .byte   Dn1 ,v077
 .byte   N24 ,Cn1
 .byte   N06 ,Fs1 ,v063
 .byte   N12 ,As1 ,v026
 .byte   W06
 .byte   N06 ,Fs1 ,v027
 .byte   W06
 .byte   N12 ,As1 ,v063
 .byte   W12
@  #07 @018   ----------------------------------------
 .byte   N24 ,Cn1 ,v077
 .byte   N06 ,Fs1 ,v063
 .byte   N12 ,As1 ,v026
 .byte   W06
 .byte   N06 ,Fs1 ,v027
 .byte   W06
 .byte   N12 ,As1 ,v063
 .byte   W12
 .byte   Dn1 ,v077
 .byte   N24 ,Cn1
 .byte   N06 ,Fs1 ,v063
 .byte   N12 ,As1 ,v026
 .byte   W06
 .byte   N06 ,Fs1 ,v027
 .byte   W06
 .byte   N12 ,As1 ,v063
 .byte   W12
 .byte   N24 ,Cn1
 .byte   N06 ,Fs1
 .byte   N12 ,As1 ,v026
 .byte   W06
 .byte   N06 ,Fs1 ,v027
 .byte   W06
 .byte   N12 ,As1 ,v063
 .byte   W12
 .byte   N06 ,Fs1
 .byte   N24 ,Cn1 ,v077
 .byte   N12 ,Dn1
 .byte   N12 ,As1 ,v026
 .byte   W06
 .byte   N06 ,Fs1 ,v027
 .byte   W06
 .byte   N12 ,As1 ,v063
 .byte   W12
@  #07 @019   ----------------------------------------
 .byte   N24 ,Cn1 ,v077
 .byte   N06 ,Fs1 ,v063
 .byte   N12 ,As1 ,v026
 .byte   W06
 .byte   N06 ,Fs1 ,v027
 .byte   W06
 .byte   N12 ,As1 ,v063
 .byte   W12
 .byte   Dn1 ,v077
 .byte   N24 ,Cn1
 .byte   N06 ,Fs1 ,v063
 .byte   N12 ,As1 ,v026
 .byte   W06
 .byte   N06 ,Fs1 ,v027
 .byte   W06
 .byte   N12 ,As1 ,v063
 .byte   W12
 .byte   N24 ,Cn1 ,v077
 .byte   N06 ,Fs1 ,v063
 .byte   N12 ,As1 ,v026
 .byte   W06
 .byte   N06 ,Fs1 ,v027
 .byte   W06
 .byte   N12 ,As1 ,v063
 .byte   W12
 .byte   Dn1 ,v077
 .byte   N24 ,Cn1
 .byte   N06 ,Fs1 ,v063
 .byte   N12 ,As1 ,v026
 .byte   W06
 .byte   N06 ,Fs1 ,v027
 .byte   W06
 .byte   N12 ,As1 ,v063
 .byte   W12
@  #07 @020   ----------------------------------------
 .byte   N06 ,Fs1
 .byte   N24 ,Cn1 ,v077
 .byte   N12 ,As1 ,v026
 .byte   W06
 .byte   N06 ,Fs1 ,v027
 .byte   W06
 .byte   N12 ,As1 ,v063
 .byte   W12
 .byte   Dn1 ,v077
 .byte   N24 ,Cn1
 .byte   N06 ,Fs1 ,v063
 .byte   N12 ,As1 ,v026
 .byte   W06
 .byte   N06 ,Fs1 ,v027
 .byte   W06
 .byte   N12 ,As1 ,v063
 .byte   W12
 .byte   N24 ,Cn1 ,v077
 .byte   N06 ,Fs1 ,v063
 .byte   N12 ,As1 ,v026
 .byte   W06
 .byte   N06 ,Fs1 ,v027
 .byte   W06
 .byte   N12 ,As1 ,v063
 .byte   W12
 .byte   Dn1 ,v077
 .byte   N24 ,Cn1
 .byte   N06 ,Fs1 ,v063
 .byte   N12 ,As1 ,v026
 .byte   W06
 .byte   N06 ,Fs1 ,v027
 .byte   W06
 .byte   N12 ,As1 ,v063
 .byte   W12
@  #07 @021   ----------------------------------------
Label_01008C3F:
 .byte   N24 ,Cn1 ,v077
 .byte   N06 ,Fs1 ,v063
 .byte   N12 ,As1 ,v026
 .byte   W06
 .byte   N06 ,Fs1 ,v027
 .byte   W06
 .byte   N12 ,As1 ,v063
 .byte   W12
 .byte   Dn1 ,v077
 .byte   N24 ,Cn1
 .byte   N06 ,Fs1 ,v063
 .byte   N12 ,As1 ,v026
 .byte   W06
 .byte   N06 ,Fs1 ,v027
 .byte   W06
 .byte   N12 ,As1 ,v063
 .byte   W12
 .byte   N06 ,Fs1
 .byte   N24 ,Cn1 ,v077
 .byte   N12 ,As1 ,v026
 .byte   W06
 .byte   N06 ,Fs1 ,v027
 .byte   W06
 .byte   N12 ,As1 ,v063
 .byte   W12
 .byte   N06 ,Fs1
 .byte   N24 ,Cn1 ,v077
 .byte   N12 ,Dn1
 .byte   N12 ,As1 ,v026
 .byte   W06
 .byte   N06 ,Fs1 ,v027
 .byte   W06
 .byte   N12 ,As1 ,v063
 .byte   W12
 .byte   PEND 
@  #07 @022   ----------------------------------------
 .byte   N06 ,Fs1
 .byte   N24 ,Cn1 ,v077
 .byte   N12 ,As1 ,v026
 .byte   W06
 .byte   N06 ,Fs1 ,v027
 .byte   W06
 .byte   N12 ,As1 ,v063
 .byte   W12
 .byte   Dn1 ,v077
 .byte   N24 ,Cn1
 .byte   N06 ,Fs1 ,v063
 .byte   N12 ,As1 ,v026
 .byte   W06
 .byte   N06 ,Fs1 ,v027
 .byte   W06
 .byte   N12 ,As1 ,v063
 .byte   W12
 .byte   N24 ,Cn1 ,v077
 .byte   N06 ,Fs1 ,v063
 .byte   N12 ,As1 ,v026
 .byte   W06
 .byte   N06 ,Fs1 ,v027
 .byte   W06
 .byte   N12 ,As1 ,v063
 .byte   W12
 .byte   As1 ,v026
 .byte   N12 ,Dn1 ,v077
 .byte   N24 ,Cn1
 .byte   N06 ,Fs1 ,v063
 .byte   W06
 .byte   Fs1 ,v027
 .byte   W06
 .byte   N12 ,As1 ,v063
 .byte   W12
@  #07 @023   ----------------------------------------
 .byte   N24 ,Cn1 ,v077
 .byte   N06 ,Fs1 ,v063
 .byte   N12 ,As1
 .byte   W06
 .byte   N06 ,Fs1 ,v027
 .byte   W06
 .byte   N12 ,As1 ,v063
 .byte   W12
 .byte   N06 ,Fs1
 .byte   N24 ,Cn1 ,v077
 .byte   N24 ,Cs2 ,v076
 .byte   N12 ,Dn1 ,v077
 .byte   W06
 .byte   N06 ,Fs1 ,v027
 .byte   W06
 .byte   N12 ,As1 ,v063
 .byte   W06
 .byte   N06 ,Dn1 ,v077
 .byte   W06
 .byte   Fs1 ,v063
 .byte   N24 ,Cn1 ,v077
 .byte   N12 ,As1 ,v063
 .byte   W06
 .byte   N06 ,Fs1 ,v027
 .byte   W06
 .byte   N24 ,Cs2 ,v076
 .byte   W12
 .byte   N01 ,Dn1 ,v077
 .byte   N24 ,Cn1
 .byte   N06 ,Fs1 ,v063
 .byte   W01
 .byte   N02 ,Dn1 ,v077
 .byte   W02
 .byte   N01
 .byte   W01
 .byte   N02
 .byte   W02
 .byte   N01
 .byte   N06 ,Fs1 ,v027
 .byte   W01
 .byte   N02 ,Dn1 ,v077
 .byte   W02
 .byte   N01
 .byte   W01
 .byte   N02
 .byte   W14
@  #07 @024   ----------------------------------------
 .byte   N24 ,Cn1
 .byte   N06 ,Fs1 ,v063
 .byte   N72 ,An2 ,v076
 .byte   W06
 .byte   N06 ,Fs1 ,v027
 .byte   W06
 .byte   N12 ,As1 ,v063
 .byte   W12
 .byte   As1 ,v026
 .byte   N06 ,Fs1 ,v063
 .byte   N24 ,Cn1 ,v077
 .byte   N12 ,Dn1
 .byte   W06
 .byte   N06 ,Fs1 ,v027
 .byte   W06
 .byte   N12 ,As1 ,v063
 .byte   W12
 .byte   As1 ,v026
 .byte   N06 ,Fs1 ,v063
 .byte   N24 ,Cn1 ,v077
 .byte   W06
 .byte   N06 ,Fs1 ,v027
 .byte   W06
 .byte   N12 ,As1 ,v063
 .byte   W12
 .byte   As1 ,v026
 .byte   N06 ,Fs1 ,v063
 .byte   N24 ,Cn1
 .byte   N12 ,Dn1 ,v077
 .byte   W06
 .byte   N06 ,Fs1 ,v027
 .byte   W06
 .byte   N12 ,As1 ,v063
 .byte   W12
@  #07 @025   ----------------------------------------
 .byte   As1 ,v026
 .byte   N24 ,Cn1 ,v077
 .byte   N06 ,Fs1 ,v063
 .byte   W06
 .byte   Fs1 ,v027
 .byte   W06
 .byte   N12 ,As1 ,v063
 .byte   W12
 .byte   As1 ,v026
 .byte   N06 ,Fs1 ,v063
 .byte   N24 ,Cn1 ,v077
 .byte   N12 ,Dn1
 .byte   W06
 .byte   N06 ,Fs1 ,v027
 .byte   W06
 .byte   N12 ,As1 ,v063
 .byte   W12
 .byte   As1 ,v026
 .byte   N24 ,Cn1 ,v077
 .byte   N06 ,Fs1 ,v063
 .byte   W06
 .byte   Fs1 ,v027
 .byte   W06
 .byte   N12 ,As1 ,v063
 .byte   W12
 .byte   As1 ,v026
 .byte   N12 ,Dn1 ,v077
 .byte   N24 ,Cn1
 .byte   N06 ,Fs1 ,v063
 .byte   W06
 .byte   Fs1 ,v027
 .byte   W06
 .byte   N12 ,As1 ,v063
 .byte   W12
@  #07 @026   ----------------------------------------
 .byte   As1 ,v026
 .byte   N06 ,Fs1 ,v063
 .byte   N24 ,Cn1 ,v077
 .byte   W06
 .byte   N06 ,Fs1 ,v027
 .byte   W06
 .byte   N12 ,As1 ,v063
 .byte   W12
 .byte   As1 ,v026
 .byte   N06 ,Fs1 ,v063
 .byte   N24 ,Cn1 ,v077
 .byte   N12 ,Dn1
 .byte   W06
 .byte   N06 ,Fs1 ,v027
 .byte   W06
 .byte   N12 ,As1 ,v063
 .byte   W12
 .byte   As1 ,v026
 .byte   N24 ,Cn1 ,v077
 .byte   N06 ,Fs1 ,v063
 .byte   W06
 .byte   Fs1 ,v027
 .byte   W06
 .byte   N12 ,As1 ,v063
 .byte   W12
 .byte   As1 ,v026
 .byte   N06 ,Fs1 ,v063
 .byte   N24 ,Cn1 ,v077
 .byte   N12 ,Dn1
 .byte   W06
 .byte   N06 ,Fs1 ,v027
 .byte   W06
 .byte   N12 ,As1 ,v063
 .byte   W12
@  #07 @027   ----------------------------------------
 .byte   N06 ,Fs1
 .byte   N24 ,Cn1 ,v077
 .byte   N12 ,As1 ,v026
 .byte   W06
 .byte   N06 ,Fs1 ,v027
 .byte   W06
 .byte   N12 ,As1 ,v063
 .byte   W12
 .byte   N06 ,Fs1
 .byte   N24 ,Cn1 ,v077
 .byte   N12 ,Dn1
 .byte   N12 ,As1 ,v026
 .byte   W06
 .byte   N06 ,Fs1 ,v027
 .byte   W06
 .byte   N12 ,As1 ,v063
 .byte   W12
 .byte   As1 ,v026
 .byte   N24 ,Cn1 ,v077
 .byte   N06 ,Fs1 ,v063
 .byte   W06
 .byte   Fs1 ,v027
 .byte   W06
 .byte   N12 ,As1 ,v063
 .byte   W12
 .byte   As1 ,v026
 .byte   N12 ,Dn1 ,v077
 .byte   N24 ,Cn1
 .byte   N06 ,Fs1 ,v063
 .byte   W06
 .byte   Fs1 ,v027
 .byte   W06
 .byte   N12 ,As1 ,v063
 .byte   W12
@  #07 @028   ----------------------------------------
 .byte   N48 ,Cs2 ,v076
 .byte   N12 ,As1 ,v026
 .byte   N24 ,Cn1 ,v077
 .byte   N06 ,Fs1 ,v063
 .byte   W06
 .byte   Fs1 ,v027
 .byte   W18
 .byte   N12 ,As1 ,v026
 .byte   N12 ,Dn1 ,v077
 .byte   N24 ,Cn1
 .byte   N06 ,Fs1 ,v063
 .byte   W06
 .byte   Fs1 ,v027
 .byte   W06
 .byte   N12 ,As1 ,v063
 .byte   W12
 .byte   As1 ,v026
 .byte   N06 ,Fs1 ,v063
 .byte   N24 ,Cn1 ,v077
 .byte   W06
 .byte   N06 ,Fs1 ,v027
 .byte   W06
 .byte   N12 ,As1 ,v063
 .byte   W12
 .byte   As1 ,v026
 .byte   N06 ,Fs1 ,v063
 .byte   N24 ,Cn1 ,v077
 .byte   N12 ,Dn1
 .byte   W06
 .byte   N06 ,Fs1 ,v027
 .byte   W06
 .byte   N12 ,As1 ,v063
 .byte   W12
@  #07 @029   ----------------------------------------
 .byte   As1 ,v026
 .byte   N06 ,Fs1 ,v063
 .byte   N24 ,Cn1 ,v077
 .byte   W06
 .byte   N06 ,Fs1 ,v027
 .byte   W06
 .byte   N12 ,As1 ,v063
 .byte   W12
 .byte   As1 ,v026
 .byte   N12 ,Dn1 ,v077
 .byte   N24 ,Cn1
 .byte   N06 ,Fs1 ,v063
 .byte   W06
 .byte   Fs1 ,v027
 .byte   W06
 .byte   N12 ,As1 ,v063
 .byte   W12
 .byte   As1 ,v026
 .byte   N24 ,Cn1 ,v077
 .byte   N06 ,Fs1 ,v063
 .byte   W06
 .byte   Fs1 ,v027
 .byte   W06
 .byte   N12 ,As1 ,v063
 .byte   W12
 .byte   As1 ,v026
 .byte   N12 ,Dn1 ,v077
 .byte   N24 ,Cn1
 .byte   N06 ,Fs1 ,v063
 .byte   W06
 .byte   Fs1 ,v027
 .byte   W06
 .byte   N12 ,As1 ,v063
 .byte   W12
@  #07 @030   ----------------------------------------
 .byte   N24 ,Cn1 ,v077
 .byte   N06 ,Fs1 ,v063
 .byte   N12 ,As1 ,v026
 .byte   W06
 .byte   N06 ,Fs1 ,v027
 .byte   W06
 .byte   N12 ,As1 ,v063
 .byte   W12
 .byte   Dn1 ,v077
 .byte   N24 ,Cn1
 .byte   N06 ,Fs1 ,v063
 .byte   N12 ,As1 ,v026
 .byte   W06
 .byte   N06 ,Fs1 ,v027
 .byte   W06
 .byte   N12 ,As1 ,v063
 .byte   W12
 .byte   As1 ,v026
 .byte   N24 ,Cn1 ,v077
 .byte   N06 ,Fs1 ,v063
 .byte   W06
 .byte   Fs1 ,v027
 .byte   W06
 .byte   N12 ,As1 ,v063
 .byte   W12
 .byte   N06 ,Fs1
 .byte   N24 ,Cn1 ,v077
 .byte   N12 ,Dn1
 .byte   N12 ,As1 ,v026
 .byte   W06
 .byte   N06 ,Fs1 ,v027
 .byte   W06
 .byte   N12 ,As1 ,v063
 .byte   W12
@  #07 @031   ----------------------------------------
 .byte   N06 ,Fs1
 .byte   N24 ,Cn1
 .byte   N12 ,As1
 .byte   W06
 .byte   N06 ,Fs1 ,v027
 .byte   W06
 .byte   N12 ,As1 ,v063
 .byte   W12
 .byte   Dn1 ,v077
 .byte   N24 ,Cs2 ,v076
 .byte   N06 ,Fs1 ,v063
 .byte   N24 ,Cn1 ,v077
 .byte   W06
 .byte   N06 ,Fs1 ,v027
 .byte   W06
 .byte   N12 ,As1 ,v063
 .byte   W06
 .byte   N06 ,Dn1 ,v077
 .byte   W06
 .byte   N12 ,As1 ,v063
 .byte   N24 ,Cn1 ,v077
 .byte   N06 ,Fs1 ,v063
 .byte   W06
 .byte   Fs1 ,v027
 .byte   W06
 .byte   N24 ,Cs2 ,v076
 .byte   W12
 .byte   N01 ,Dn1 ,v077
 .byte   N24 ,Cn1
 .byte   N06 ,Fs1 ,v063
 .byte   W01
 .byte   N02 ,Dn1 ,v077
 .byte   W02
 .byte   N01
 .byte   W01
 .byte   N02
 .byte   W02
 .byte   N06 ,Fs1 ,v027
 .byte   N01 ,Dn1 ,v077
 .byte   W01
 .byte   N02
 .byte   W02
 .byte   N01
 .byte   W01
 .byte   N02
 .byte   W14
@  #07 @032   ----------------------------------------
 .byte   N06 ,Fs1 ,v063
 .byte   N24 ,Cn1 ,v077
 .byte   N72 ,An2 ,v076
 .byte   W06
 .byte   N06 ,Fs1 ,v027
 .byte   W06
 .byte   N12 ,As1 ,v063
 .byte   W12
 .byte   N06 ,Fs1
 .byte   N24 ,Cn1 ,v077
 .byte   N12 ,Dn1
 .byte   N12 ,As1 ,v026
 .byte   W06
 .byte   N06 ,Fs1 ,v027
 .byte   W06
 .byte   N12 ,As1 ,v063
 .byte   W12
 .byte   N06 ,Fs1
 .byte   N24 ,Cn1 ,v077
 .byte   N12 ,As1 ,v026
 .byte   W06
 .byte   N06 ,Fs1 ,v027
 .byte   W06
 .byte   N12 ,As1 ,v063
 .byte   W12
 .byte   N06 ,Fs1
 .byte   N24 ,Cn1 ,v077
 .byte   N12 ,Dn1
 .byte   N12 ,As1 ,v026
 .byte   W06
 .byte   N06 ,Fs1 ,v027
 .byte   W06
 .byte   N12 ,As1 ,v063
 .byte   W12
@  #07 @033   ----------------------------------------
 .byte   N06 ,Fs1
 .byte   N24 ,Cn1 ,v077
 .byte   N12 ,As1 ,v026
 .byte   W06
 .byte   N06 ,Fs1 ,v027
 .byte   W06
 .byte   N12 ,As1 ,v063
 .byte   W12
 .byte   Dn1 ,v077
 .byte   N24 ,Cn1
 .byte   N06 ,Fs1 ,v063
 .byte   N12 ,As1 ,v026
 .byte   W06
 .byte   N06 ,Fs1 ,v027
 .byte   W06
 .byte   N12 ,As1 ,v063
 .byte   W12
 .byte   N06 ,Fs1
 .byte   N24 ,Cn1 ,v077
 .byte   N12 ,As1 ,v026
 .byte   W06
 .byte   N06 ,Fs1 ,v027
 .byte   W06
 .byte   N12 ,As1 ,v063
 .byte   W12
 .byte   N06 ,Fs1
 .byte   N24 ,Cn1 ,v077
 .byte   N12 ,Dn1
 .byte   N12 ,As1 ,v026
 .byte   W06
 .byte   N06 ,Fs1 ,v027
 .byte   W06
 .byte   N12 ,As1 ,v063
 .byte   W12
@  #07 @034   ----------------------------------------
 .byte   PATT
  .word Label_01008C3F
@  #07 @035   ----------------------------------------
 .byte   N12 ,As1 ,v026
 .byte   N24 ,Cn1 ,v077
 .byte   N06 ,Fs1 ,v063
 .byte   W06
 .byte   Fs1 ,v027
 .byte   W06
 .byte   N12 ,As1 ,v063
 .byte   W12
 .byte   N06 ,Fs1
 .byte   N24 ,Cn1 ,v077
 .byte   N12 ,Dn1
 .byte   N12 ,As1 ,v026
 .byte   W06
 .byte   N06 ,Fs1 ,v027
 .byte   W06
 .byte   N12 ,As1 ,v063
 .byte   W12
 .byte   As1 ,v026
 .byte   N24 ,Cn1 ,v077
 .byte   N06 ,Fs1 ,v063
 .byte   W06
 .byte   Fs1 ,v027
 .byte   W06
 .byte   N12 ,As1 ,v063
 .byte   W12
 .byte   Dn1 ,v077
 .byte   N24 ,Cn1
 .byte   N06 ,Fs1 ,v063
 .byte   N12 ,As1 ,v026
 .byte   W06
 .byte   N06 ,Fs1 ,v027
 .byte   W06
 .byte   N12 ,As1 ,v063
 .byte   W12
@  #07 @036   ----------------------------------------
 .byte   N48 ,Cs2 ,v076
 .byte   N12 ,As1 ,v026
 .byte   N24 ,Cn1 ,v077
 .byte   N06 ,Fs1 ,v063
 .byte   W06
 .byte   Fs1 ,v027
 .byte   W18
 .byte   N12 ,As1 ,v026
 .byte   N06 ,Fs1 ,v063
 .byte   N24 ,Cn1 ,v077
 .byte   N12 ,Dn1
 .byte   W06
 .byte   N06 ,Fs1 ,v027
 .byte   W06
 .byte   N12 ,As1 ,v063
 .byte   W12
 .byte   As1 ,v026
 .byte   N06 ,Fs1 ,v063
 .byte   N24 ,Cn1 ,v077
 .byte   W06
 .byte   N06 ,Fs1 ,v027
 .byte   W06
 .byte   N12 ,As1 ,v063
 .byte   W12
 .byte   As1 ,v026
 .byte   N06 ,Fs1 ,v063
 .byte   N24 ,Cn1 ,v077
 .byte   N12 ,Dn1
 .byte   W06
 .byte   N06 ,Fs1 ,v027
 .byte   W06
 .byte   N12 ,As1 ,v063
 .byte   W12
@  #07 @037   ----------------------------------------
 .byte   As1 ,v026
 .byte   N06 ,Fs1 ,v063
 .byte   N24 ,Cn1 ,v077
 .byte   W06
 .byte   N06 ,Fs1 ,v027
 .byte   W06
 .byte   N12 ,As1 ,v063
 .byte   W12
 .byte   As1 ,v026
 .byte   N12 ,Dn1 ,v077
 .byte   N24 ,Cn1 ,v063
 .byte   N06 ,Fs1
 .byte   W06
 .byte   Fs1 ,v027
 .byte   W06
 .byte   N12 ,As1 ,v063
 .byte   W12
 .byte   As1 ,v026
 .byte   N24 ,Cn1 ,v077
 .byte   N06 ,Fs1 ,v063
 .byte   W06
 .byte   Fs1 ,v027
 .byte   W06
 .byte   N12 ,As1 ,v063
 .byte   W12
 .byte   As1 ,v026
 .byte   N06 ,Fs1 ,v063
 .byte   N24 ,Cn1 ,v077
 .byte   N12 ,Dn1
 .byte   W06
 .byte   N06 ,Fs1 ,v027
 .byte   W06
 .byte   N12 ,As1 ,v063
 .byte   W12
@  #07 @038   ----------------------------------------
Label_010090D8:
 .byte   N06 ,Fs1 ,v063
 .byte   N72 ,An2 ,v076
 .byte   N24 ,Cn1 ,v077
 .byte   W06
 .byte   N06 ,Fs1 ,v027
 .byte   W06
 .byte   Fs1 ,v063
 .byte   W06
 .byte   Fs1 ,v027
 .byte   W06
 .byte   N12 ,Dn5 ,v077
 .byte   N12 ,Dn1
 .byte   N06 ,Fs1 ,v063
 .byte   N24 ,Cn1 ,v077
 .byte   W06
 .byte   N06 ,Fs1 ,v027
 .byte   W06
 .byte   Fs1 ,v063
 .byte   W06
 .byte   N12 ,Dn5 ,v077
 .byte   N12 ,Dn1
 .byte   N06 ,Fs1 ,v027
 .byte   W06
 .byte   N24 ,Cn1 ,v077
 .byte   N06 ,Fs1 ,v063
 .byte   W06
 .byte   Fs1 ,v027
 .byte   W06
 .byte   Fs1 ,v063
 .byte   W06
 .byte   Fs1 ,v027
 .byte   W06
 .byte   N12 ,Dn5 ,v077
 .byte   N24 ,Cn1
 .byte   N12 ,Dn1
 .byte   N06 ,Fs1 ,v063
 .byte   W06
 .byte   Fs1 ,v027
 .byte   W06
 .byte   Fs1 ,v063
 .byte   W06
 .byte   Fs1 ,v027
 .byte   W06
 .byte   PEND 
@  #07 @039   ----------------------------------------
Label_0100912D:
 .byte   N24 ,Cn1 ,v077
 .byte   N06 ,Fs1 ,v063
 .byte   W06
 .byte   Fs1 ,v027
 .byte   W06
 .byte   Fs1 ,v063
 .byte   W06
 .byte   Fs1 ,v027
 .byte   W06
 .byte   N12 ,Dn5 ,v077
 .byte   N24 ,Cn1
 .byte   N06 ,Fs1 ,v063
 .byte   N12 ,Dn1 ,v077
 .byte   W06
 .byte   N06 ,Fs1 ,v027
 .byte   W06
 .byte   Fs1 ,v063
 .byte   W06
 .byte   N12 ,Dn5 ,v077
 .byte   N06 ,Fs1 ,v027
 .byte   N12 ,Dn1 ,v077
 .byte   W06
 .byte   N24 ,Cn1
 .byte   N06 ,Fs1 ,v063
 .byte   W06
 .byte   Fs1 ,v027
 .byte   W06
 .byte   Fs1 ,v063
 .byte   W06
 .byte   Fs1 ,v027
 .byte   W06
 .byte   N24 ,Cn1 ,v077
 .byte   N06 ,Dn1
 .byte   W06
 .byte   Dn1
 .byte   W06
 .byte   Dn1 ,v082
 .byte   W12
 .byte   PEND 
@  #07 @040   ----------------------------------------
 .byte   N72 ,Cs2 ,v076
 .byte   N24 ,Cn1 ,v077
 .byte   N06 ,Fs1 ,v063
 .byte   W06
 .byte   Fs1 ,v027
 .byte   W18
 .byte   N12 ,Dn1 ,v077
 .byte   N24 ,Cn1
 .byte   N06 ,Fs1 ,v063
 .byte   W06
 .byte   Fs1 ,v027
 .byte   W12
 .byte   N12 ,Dn1 ,v077
 .byte   W06
 .byte   N18 ,Cn1
 .byte   N06 ,Fs1 ,v063
 .byte   W06
 .byte   Fs1 ,v027
 .byte   W12
 .byte   Cn1 ,v077
 .byte   W06
 .byte   N12
 .byte   N06 ,Fs1 ,v063
 .byte   N12 ,Dn1 ,v077
 .byte   W06
 .byte   N06 ,Fs1 ,v027
 .byte   W06
 .byte   N12 ,Cn1 ,v077
 .byte   W12
@  #07 @041   ----------------------------------------
 .byte   N06 ,Fs1 ,v063
 .byte   N24 ,Cn1 ,v077
 .byte   W06
 .byte   N06 ,Fs1 ,v027
 .byte   W18
 .byte   N12 ,Dn1 ,v077
 .byte   N24 ,Cn1
 .byte   N06 ,Fs1 ,v063
 .byte   W06
 .byte   Fs1 ,v027
 .byte   W12
 .byte   N12 ,Dn1 ,v077
 .byte   W06
 .byte   N06 ,Fs1 ,v063
 .byte   N24 ,Cn1 ,v077
 .byte   W06
 .byte   N06 ,Fs1 ,v027
 .byte   W42
@  #07 @042   ----------------------------------------
 .byte   N24 ,Cn1 ,v077
 .byte   N06 ,Fs1 ,v063
 .byte   W06
 .byte   Fs1 ,v027
 .byte   W18
 .byte   N24 ,Cn1 ,v077
 .byte   N06 ,Fs1 ,v063
 .byte   N12 ,Dn1 ,v077
 .byte   W06
 .byte   N06 ,Fs1 ,v027
 .byte   W12
 .byte   N12 ,Dn1 ,v077
 .byte   W06
 .byte   N18 ,Cn1
 .byte   N06 ,Fs1 ,v063
 .byte   W06
 .byte   Fs1 ,v027
 .byte   W12
 .byte   Cn1 ,v077
 .byte   W06
 .byte   N12
 .byte   N06 ,Fs1 ,v063
 .byte   N12 ,Dn1 ,v077
 .byte   W06
 .byte   N06 ,Fs1 ,v027
 .byte   W06
 .byte   N12 ,Cn1 ,v077
 .byte   W12
@  #07 @043   ----------------------------------------
 .byte   N06 ,Fs1 ,v063
 .byte   N24 ,Cn1 ,v077
 .byte   W06
 .byte   N06 ,Fs1 ,v027
 .byte   W18
 .byte   N24 ,Cn1 ,v077
 .byte   N06 ,Fs1 ,v063
 .byte   N12 ,Dn1 ,v077
 .byte   W06
 .byte   N06 ,Fs1 ,v027
 .byte   W12
 .byte   N12 ,Dn1 ,v077
 .byte   W06
 .byte   N24 ,Cn1
 .byte   N06 ,Fs1 ,v063
 .byte   W06
 .byte   Fs1 ,v027
 .byte   W42
@  #07 @044   ----------------------------------------
 .byte   Fs1 ,v063
 .byte   N24 ,Cn1 ,v077
 .byte   W06
 .byte   N06 ,Fs1 ,v027
 .byte   W18
 .byte   N12 ,Dn1 ,v077
 .byte   N06 ,Fs1 ,v063
 .byte   N24 ,Cn1 ,v077
 .byte   W06
 .byte   N06 ,Fs1 ,v027
 .byte   W12
 .byte   N12 ,Dn1 ,v077
 .byte   W06
 .byte   N06 ,Fs1 ,v063
 .byte   N18 ,Cn1 ,v077
 .byte   W06
 .byte   N06 ,Fs1 ,v027
 .byte   W12
 .byte   Cn1 ,v077
 .byte   W06
 .byte   N12 ,Dn1
 .byte   N06 ,Fs1 ,v063
 .byte   N12 ,Cn1 ,v077
 .byte   W06
 .byte   N06 ,Fs1 ,v027
 .byte   W06
 .byte   N12 ,Cn1 ,v077
 .byte   W12
@  #07 @045   ----------------------------------------
 .byte   N24
 .byte   N06 ,Fs1 ,v063
 .byte   W06
 .byte   Fs1 ,v027
 .byte   W18
 .byte   Fs1 ,v063
 .byte   N12 ,Dn1 ,v077
 .byte   N24 ,Cn1
 .byte   W06
 .byte   N06 ,Fs1 ,v027
 .byte   W12
 .byte   N12 ,Dn1 ,v077
 .byte   W06
 .byte   N24 ,Cn1
 .byte   N06 ,Fs1 ,v063
 .byte   W06
 .byte   Fs1 ,v027
 .byte   W42
@  #07 @046   ----------------------------------------
 .byte   N24 ,Cn1 ,v077
 .byte   N06 ,Fs1 ,v063
 .byte   W06
 .byte   Fs1 ,v027
 .byte   W18
 .byte   N24 ,Cn1 ,v077
 .byte   N06 ,Fs1 ,v063
 .byte   N12 ,Dn1 ,v077
 .byte   W06
 .byte   N06 ,Fs1 ,v027
 .byte   W12
 .byte   N12 ,Dn1 ,v077
 .byte   W06
 .byte   N18 ,Cn1
 .byte   N06 ,Fs1 ,v063
 .byte   W06
 .byte   Fs1 ,v027
 .byte   W12
 .byte   Cn1 ,v077
 .byte   W06
 .byte   N12
 .byte   N12 ,Dn1
 .byte   N06 ,Fs1 ,v063
 .byte   W06
 .byte   Fs1 ,v027
 .byte   W06
 .byte   N12 ,Cn1 ,v077
 .byte   W12
@  #07 @047   ----------------------------------------
 .byte   N24
 .byte   N06 ,Fs1 ,v063
 .byte   W06
 .byte   Fs1 ,v027
 .byte   W18
 .byte   N24 ,Cn1 ,v077
 .byte   N06 ,Fs1 ,v063
 .byte   N12 ,Dn1 ,v077
 .byte   W06
 .byte   N06 ,Fs1 ,v027
 .byte   W12
 .byte   N12 ,Dn1 ,v077
 .byte   W06
 .byte   N24 ,Cn1
 .byte   N06 ,Fs1 ,v063
 .byte   W06
 .byte   Fs1 ,v027
 .byte   W18
 .byte   N12 ,Dn1 ,v077
 .byte   N06 ,Fs1 ,v063
 .byte   W06
 .byte   Fs1 ,v027
 .byte   W18
@  #07 @048   ----------------------------------------
 .byte   N72 ,An2 ,v076
 .byte   N24 ,Cn1 ,v077
 .byte   W12
 .byte   N12 ,As1 ,v063
 .byte   W12
 .byte   As1 ,v026
 .byte   N24 ,Cn1 ,v077
 .byte   N12 ,Dn1
 .byte   W12
 .byte   As1 ,v063
 .byte   W06
 .byte   N06 ,Dn1 ,v077
 .byte   W06
 .byte   N12 ,As1 ,v026
 .byte   N24 ,Cn1 ,v077
 .byte   W12
 .byte   N12 ,As1 ,v063
 .byte   W12
 .byte   As1 ,v026
 .byte   N24 ,Cn1 ,v077
 .byte   N12 ,Dn1
 .byte   W12
 .byte   As1 ,v063
 .byte   W12
@  #07 @049   ----------------------------------------
 .byte   As1 ,v026
 .byte   N24 ,Cn1 ,v077
 .byte   W12
 .byte   N12 ,As1 ,v063
 .byte   W12
 .byte   As1 ,v026
 .byte   N24 ,Cn1 ,v077
 .byte   N12 ,Dn1
 .byte   W12
 .byte   As1 ,v063
 .byte   W06
 .byte   N06 ,Dn1 ,v077
 .byte   W06
 .byte   N12 ,As1 ,v026
 .byte   N24 ,Cn1 ,v077
 .byte   W12
 .byte   N12 ,As1 ,v063
 .byte   W12
 .byte   As1 ,v026
 .byte   N24 ,Cn1 ,v063
 .byte   N12 ,Dn1 ,v077
 .byte   W12
 .byte   As1 ,v063
 .byte   W12
@  #07 @050   ----------------------------------------
 .byte   As1 ,v026
 .byte   N24 ,Cn1 ,v077
 .byte   W12
 .byte   N12 ,As1 ,v063
 .byte   W12
 .byte   As1 ,v026
 .byte   N24 ,Cn1 ,v077
 .byte   N12 ,Dn1
 .byte   W12
 .byte   As1 ,v063
 .byte   W06
 .byte   N06 ,Dn1 ,v077
 .byte   W06
 .byte   N12 ,As1 ,v026
 .byte   N24 ,Cn1 ,v077
 .byte   W12
 .byte   N12 ,As1 ,v063
 .byte   W12
 .byte   As1 ,v026
 .byte   N12 ,Dn1 ,v077
 .byte   N24 ,Cn1
 .byte   W12
 .byte   N12 ,As1 ,v063
 .byte   W12
@  #07 @051   ----------------------------------------
Label_01009381:
 .byte   N12 ,As1 ,v026
 .byte   N24 ,Cn1 ,v077
 .byte   W12
 .byte   N12 ,As1 ,v063
 .byte   W12
 .byte   As1 ,v026
 .byte   N12 ,Dn1 ,v077
 .byte   N24 ,Cn1
 .byte   W12
 .byte   N12 ,As1 ,v063
 .byte   W06
 .byte   N06 ,Dn1 ,v077
 .byte   W06
 .byte   N12 ,As1 ,v026
 .byte   N24 ,Cn1 ,v077
 .byte   W12
 .byte   N12 ,As1 ,v063
 .byte   W12
 .byte   As1 ,v026
 .byte   N12 ,Dn1 ,v077
 .byte   N24 ,Cn1
 .byte   W12
 .byte   N12 ,As1 ,v063
 .byte   W12
 .byte   PEND 
@  #07 @052   ----------------------------------------
 .byte   PATT
  .word Label_01009381
@  #07 @053   ----------------------------------------
 .byte   PATT
  .word Label_01009381
@  #07 @054   ----------------------------------------
 .byte   N12 ,As1 ,v026
 .byte   N24 ,Cn1 ,v077
 .byte   W12
 .byte   N12 ,As1 ,v063
 .byte   W12
 .byte   As1 ,v026
 .byte   N24 ,Cn1 ,v077
 .byte   N12 ,Dn1
 .byte   W12
 .byte   As1 ,v063
 .byte   W06
 .byte   N06 ,Dn1 ,v077
 .byte   W06
 .byte   N12 ,As1 ,v026
 .byte   N24 ,Cn1 ,v077
 .byte   W12
 .byte   N12 ,As1 ,v063
 .byte   W06
 .byte   TIE ,En2 ,v076
 .byte   W06
 .byte   N12 ,As1 ,v026
 .byte   N12 ,Dn1 ,v077
 .byte   N24 ,Cn1
 .byte   W12
 .byte   N12 ,As1 ,v063
 .byte   W12
@  #07 @055   ----------------------------------------
 .byte   As1
 .byte   N24 ,Cn1 ,v077
 .byte   W12
 .byte   N12 ,As1 ,v063
 .byte   W12
 .byte   N24 ,Cs2 ,v076
 .byte   N24 ,Cn1 ,v077
 .byte   N12 ,Dn1
 .byte   W12
 .byte   As1 ,v063
 .byte   W06
 .byte   N06 ,Dn1 ,v077
 .byte   W06
 .byte   N12 ,As1 ,v063
 .byte   N24 ,Cn1 ,v077
 .byte   W12
 .byte   Cs2 ,v076
 .byte   W12
 .byte   N12 ,Dn1 ,v077
 .byte   N24 ,Cn1
 .byte   W24
@  #07 @056   ----------------------------------------
 .byte   N06 ,Fs1 ,v063
 .byte   N24 ,Cn1
 .byte   N72 ,An2 ,v076
 .byte   W06
 .byte   N06 ,Fs1 ,v027
 .byte   W06
 .byte   Fs1 ,v063
 .byte   N12 ,As1
 .byte   W06
 .byte   N06 ,Fs1 ,v027
 .byte   W06
 .byte   Fs1 ,v063
 .byte   N24 ,Cn1 ,v077
 .byte   N12 ,As1 ,v026
 .byte   W06
 .byte   N06 ,Fs1 ,v027
 .byte   W06
 .byte   Fs1 ,v063
 .byte   N12 ,As1
 .byte   W06
 .byte   N06 ,Fs1 ,v027
 .byte   W06
 .byte   Fs1 ,v063
 .byte   N24 ,Cn1 ,v077
 .byte   N12 ,As1 ,v026
 .byte   W06
 .byte   N06 ,Fs1 ,v027
 .byte   W06
 .byte   Fs1 ,v063
 .byte   N12 ,As1
 .byte   W06
 .byte   N06 ,Fs1 ,v027
 .byte   W06
 .byte   Fs1 ,v063
 .byte   N24 ,Cn1 ,v077
 .byte   N12 ,As1 ,v026
 .byte   W06
 .byte   N06 ,Fs1 ,v027
 .byte   W06
 .byte   Fs1 ,v063
 .byte   N12 ,As1
 .byte   W06
 .byte   N06 ,Fs1 ,v027
 .byte   W06
@  #07 @057   ----------------------------------------
 .byte   Fs1 ,v063
 .byte   N24 ,Cn1 ,v077
 .byte   N12 ,As1 ,v026
 .byte   W06
 .byte   N06 ,Fs1 ,v027
 .byte   W06
 .byte   Fs1 ,v063
 .byte   N12 ,As1
 .byte   W06
 .byte   N06 ,Fs1 ,v027
 .byte   W06
 .byte   N24 ,Cn1 ,v077
 .byte   N06 ,Fs1 ,v063
 .byte   N12 ,As1 ,v026
 .byte   W06
 .byte   N06 ,Fs1 ,v027
 .byte   W06
 .byte   Fs1 ,v063
 .byte   N12 ,As1
 .byte   W06
 .byte   N06 ,Fs1 ,v027
 .byte   W06
 .byte   N24 ,Cn1 ,v077
 .byte   N06 ,Fs1 ,v063
 .byte   N12 ,As1 ,v026
 .byte   W06
 .byte   N06 ,Fs1 ,v027
 .byte   W06
 .byte   Fs1 ,v063
 .byte   N12 ,As1
 .byte   W06
 .byte   N06 ,Fs1 ,v027
 .byte   W06
 .byte   N24 ,Cn1 ,v077
 .byte   N06 ,Fs1 ,v063
 .byte   N12 ,As1 ,v026
 .byte   W06
 .byte   N06 ,Fs1 ,v027
 .byte   W06
 .byte   Fs1 ,v063
 .byte   N12 ,As1
 .byte   W06
 .byte   N06 ,Fs1 ,v027
 .byte   W06
@  #07 @058   ----------------------------------------
 .byte   N24 ,Cn1 ,v077
 .byte   N06 ,Fs1 ,v063
 .byte   N12 ,As1 ,v026
 .byte   W06
 .byte   N06 ,Fs1 ,v027
 .byte   W06
 .byte   Fs1 ,v063
 .byte   N12 ,As1
 .byte   W06
 .byte   N06 ,Fs1 ,v027
 .byte   W06
 .byte   N24 ,Cn1 ,v077
 .byte   N06 ,Fs1 ,v063
 .byte   N12 ,As1 ,v026
 .byte   W06
 .byte   N06 ,Fs1 ,v027
 .byte   W06
 .byte   Fs1 ,v063
 .byte   N12 ,As1
 .byte   W06
 .byte   N06 ,Fs1 ,v027
 .byte   W06
 .byte   N12 ,As1 ,v026
 .byte   N06 ,Fs1 ,v063
 .byte   N24 ,Cn1 ,v077
 .byte   W06
 .byte   N06 ,Fs1 ,v027
 .byte   W06
 .byte   N12 ,As1 ,v063
 .byte   N06 ,Fs1
 .byte   W06
 .byte   EOT
 .byte   En2
 .byte   N06 ,Fs1 ,v027
 .byte   W06
 .byte   N12 ,As1 ,v026
 .byte   N06 ,Fs1 ,v063
 .byte   N24 ,Cn1 ,v077
 .byte   W06
 .byte   N06 ,Fs1 ,v027
 .byte   W06
 .byte   N12 ,As1 ,v063
 .byte   N06 ,Fs1
 .byte   W06
 .byte   Fs1 ,v027
 .byte   W06
@  #07 @059   ----------------------------------------
 .byte   N24 ,Cn1 ,v077
 .byte   N06 ,Fs1 ,v063
 .byte   N12 ,As1 ,v026
 .byte   W06
 .byte   N06 ,Fs1 ,v027
 .byte   W06
 .byte   N12 ,As1 ,v063
 .byte   N06 ,Fs1
 .byte   W06
 .byte   Fs1 ,v027
 .byte   W06
 .byte   N24 ,Cn1 ,v077
 .byte   N06 ,Fs1 ,v063
 .byte   N12 ,As1 ,v026
 .byte   W06
 .byte   N06 ,Fs1 ,v027
 .byte   W06
 .byte   Fs1 ,v063
 .byte   N12 ,As1
 .byte   W06
 .byte   N06 ,Fs1 ,v027
 .byte   W06
 .byte   N24 ,Cn1 ,v077
 .byte   N06 ,Fs1 ,v063
 .byte   N12 ,As1 ,v026
 .byte   W06
 .byte   N06 ,Fs1 ,v027
 .byte   W06
 .byte   N12 ,As1 ,v063
 .byte   N06 ,Fs1
 .byte   W06
 .byte   Fs1 ,v027
 .byte   W06
 .byte   N12 ,As1 ,v026
 .byte   N06 ,Fs1 ,v063
 .byte   N24 ,Cn1 ,v077
 .byte   W06
 .byte   N06 ,Fs1 ,v027
 .byte   W06
 .byte   Fs1 ,v063
 .byte   N12 ,As1
 .byte   W06
 .byte   N06 ,Fs1 ,v027
 .byte   W06
@  #07 @060   ----------------------------------------
 .byte   N24 ,Cn1 ,v077
 .byte   N06 ,Fs1 ,v063
 .byte   N12 ,As1 ,v026
 .byte   W06
 .byte   N06 ,Fs1 ,v027
 .byte   W06
 .byte   Fs1 ,v063
 .byte   N12 ,As1
 .byte   W06
 .byte   N06 ,Fs1 ,v027
 .byte   W06
 .byte   N24 ,Cn1 ,v077
 .byte   N06 ,Fs1 ,v063
 .byte   N12 ,As1 ,v026
 .byte   W06
 .byte   N06 ,Fs1 ,v027
 .byte   W06
 .byte   Fs1 ,v063
 .byte   N12 ,As1
 .byte   W06
 .byte   N06 ,Fs1 ,v027
 .byte   W06
 .byte   N24 ,Cn1 ,v077
 .byte   N06 ,Fs1 ,v063
 .byte   N12 ,As1 ,v026
 .byte   W06
 .byte   N06 ,Fs1 ,v027
 .byte   W06
 .byte   Fs1 ,v063
 .byte   N12 ,As1
 .byte   W06
 .byte   N06 ,Fs1 ,v027
 .byte   W06
 .byte   N24 ,Cn1 ,v077
 .byte   N06 ,Fs1 ,v063
 .byte   N12 ,As1 ,v026
 .byte   W06
 .byte   N06 ,Fs1 ,v027
 .byte   W06
 .byte   Fs1 ,v063
 .byte   N12 ,As1
 .byte   W06
 .byte   N06 ,Fs1 ,v027
 .byte   W06
@  #07 @061   ----------------------------------------
 .byte   Fs1 ,v063
 .byte   N24 ,Cn1 ,v077
 .byte   N12 ,As1 ,v026
 .byte   W06
 .byte   N06 ,Fs1 ,v027
 .byte   W06
 .byte   Fs1 ,v063
 .byte   N12 ,As1
 .byte   W06
 .byte   N06 ,Fs1 ,v027
 .byte   W06
 .byte   N24 ,Cn1 ,v077
 .byte   N06 ,Fs1 ,v063
 .byte   N12 ,As1 ,v026
 .byte   W06
 .byte   N06 ,Fs1 ,v027
 .byte   W06
 .byte   Fs1 ,v063
 .byte   N12 ,As1
 .byte   W06
 .byte   N06 ,Fs1 ,v027
 .byte   W06
 .byte   N24 ,Cn1 ,v077
 .byte   N06 ,Fs1 ,v063
 .byte   N12 ,As1 ,v026
 .byte   W06
 .byte   N06 ,Fs1 ,v027
 .byte   W06
 .byte   Fs1 ,v063
 .byte   N12 ,As1
 .byte   W06
 .byte   N06 ,Fs1 ,v027
 .byte   W06
 .byte   Fs1 ,v063
 .byte   N24 ,Cn1 ,v077
 .byte   N12 ,As1 ,v026
 .byte   W06
 .byte   N06 ,Fs1 ,v027
 .byte   W06
 .byte   Fs1 ,v063
 .byte   N12 ,As1
 .byte   W06
 .byte   N06 ,Fs1 ,v027
 .byte   W06
@  #07 @062   ----------------------------------------
 .byte   Fs1 ,v063
 .byte   N24 ,Cn1 ,v077
 .byte   N12 ,As1 ,v026
 .byte   W06
 .byte   N06 ,Fs1 ,v027
 .byte   W06
 .byte   Fs1 ,v063
 .byte   N12 ,As1
 .byte   W06
 .byte   N06 ,Fs1 ,v027
 .byte   W06
 .byte   N24 ,Cn1 ,v063
 .byte   N06 ,Fs1
 .byte   N12 ,As1 ,v026
 .byte   W06
 .byte   N06 ,Fs1 ,v027
 .byte   W06
 .byte   Fs1 ,v063
 .byte   N12 ,As1
 .byte   W06
 .byte   N06 ,Fs1 ,v027
 .byte   W06
 .byte   N24 ,Cn1 ,v077
 .byte   N06 ,Fs1 ,v063
 .byte   N12 ,As1 ,v026
 .byte   W06
 .byte   N06 ,Fs1 ,v027
 .byte   W06
 .byte   Fs1 ,v063
 .byte   N12 ,As1
 .byte   W06
 .byte   N06 ,Fs1 ,v027
 .byte   W06
 .byte   Fs1 ,v063
 .byte   N24 ,Cn1 ,v077
 .byte   N12 ,As1 ,v026
 .byte   W06
 .byte   N06 ,Fs1 ,v027
 .byte   W06
 .byte   Fs1 ,v063
 .byte   N12 ,As1
 .byte   W06
 .byte   N06 ,Fs1 ,v027
 .byte   W06
@  #07 @063   ----------------------------------------
 .byte   N24 ,Cn1 ,v077
 .byte   N06 ,Fs1 ,v063
 .byte   N12 ,As1
 .byte   W06
 .byte   N06 ,Fs1 ,v027
 .byte   W06
 .byte   Fs1 ,v063
 .byte   N12 ,As1
 .byte   W06
 .byte   N06 ,Fs1 ,v027
 .byte   W06
 .byte   N24 ,Cs2 ,v076
 .byte   N06 ,Fs1 ,v063
 .byte   N24 ,Cn1 ,v077
 .byte   N12 ,As1
 .byte   W06
 .byte   N06 ,Fs1 ,v027
 .byte   W06
 .byte   Fs1 ,v063
 .byte   N12 ,As1
 .byte   W06
 .byte   N06 ,Fs1 ,v027
 .byte   W06
 .byte   N24 ,Cn1 ,v077
 .byte   N06 ,Fs1 ,v063
 .byte   N12 ,As1
 .byte   W06
 .byte   N06 ,Fs1 ,v027
 .byte   W06
 .byte   Fs1 ,v063
 .byte   N24 ,Cs2 ,v076
 .byte   W06
 .byte   N06 ,Fs1 ,v027
 .byte   W06
 .byte   N24 ,Cn1 ,v077
 .byte   N06 ,Fs1 ,v063
 .byte   W06
 .byte   Fs1 ,v027
 .byte   W06
 .byte   Fs1 ,v063
 .byte   W06
 .byte   Fs1 ,v027
 .byte   W06
@  #07 @064   ----------------------------------------
 .byte   N12 ,Gn2 ,v077
 .byte   N24 ,Cn1
 .byte   N06 ,Fs1 ,v063
 .byte   W06
 .byte   Fs1 ,v027
 .byte   W06
 .byte   N12 ,As1 ,v063
 .byte   N12 ,Gn2 ,v036
 .byte   N06 ,Fs1 ,v063
 .byte   W06
 .byte   Fs1 ,v027
 .byte   W06
 .byte   N12 ,As1 ,v026
 .byte   N06 ,Fs1 ,v063
 .byte   N12 ,Gn2 ,v011
 .byte   N24 ,Cn1 ,v077
 .byte   W06
 .byte   N06 ,Fs1 ,v027
 .byte   W06
 .byte   Fs1 ,v063
 .byte   N12 ,As1
 .byte   W06
 .byte   N06 ,Fs1 ,v027
 .byte   W06
 .byte   N12 ,As1 ,v026
 .byte   N06 ,Fs1 ,v063
 .byte   N24 ,Cn1 ,v077
 .byte   W06
 .byte   N06 ,Fs1 ,v027
 .byte   W06
 .byte   Fs1 ,v063
 .byte   N12 ,As1
 .byte   W06
 .byte   N06 ,Fs1 ,v027
 .byte   W06
 .byte   N24 ,Cn1 ,v077
 .byte   N06 ,Fs1 ,v063
 .byte   N12 ,As1 ,v026
 .byte   W06
 .byte   N06 ,Fs1 ,v027
 .byte   W06
 .byte   N12 ,As1 ,v063
 .byte   N06 ,Fs1
 .byte   W06
 .byte   Fs1 ,v027
 .byte   W06
@  #07 @065   ----------------------------------------
 .byte   N12 ,As1 ,v026
 .byte   N06 ,Fs1 ,v063
 .byte   N24 ,Cn1 ,v077
 .byte   W06
 .byte   N06 ,Fs1 ,v027
 .byte   W06
 .byte   N12 ,As1 ,v063
 .byte   N06 ,Fs1
 .byte   W06
 .byte   Fs1 ,v027
 .byte   W06
 .byte   N12 ,As1 ,v026
 .byte   N06 ,Fs1 ,v063
 .byte   N24 ,Cn1 ,v077
 .byte   W06
 .byte   N06 ,Fs1 ,v027
 .byte   W06
 .byte   N12 ,As1 ,v063
 .byte   N06 ,Fs1
 .byte   W06
 .byte   Fs1 ,v027
 .byte   W06
 .byte   N24 ,Cn1 ,v077
 .byte   N06 ,Fs1 ,v063
 .byte   N12 ,As1 ,v026
 .byte   W06
 .byte   N06 ,Fs1 ,v027
 .byte   W06
 .byte   Fs1 ,v063
 .byte   N12 ,As1
 .byte   W06
 .byte   N06 ,Fs1 ,v027
 .byte   W06
 .byte   N24 ,Cn1 ,v077
 .byte   N06 ,Fs1 ,v063
 .byte   N12 ,As1 ,v026
 .byte   W06
 .byte   N06 ,Fs1 ,v027
 .byte   W06
 .byte   N12 ,As1 ,v063
 .byte   N06 ,Fs1
 .byte   W06
 .byte   Fs1 ,v027
 .byte   W06
@  #07 @066   ----------------------------------------
 .byte   N12 ,As1 ,v026
 .byte   N06 ,Fs1 ,v063
 .byte   N24 ,Cn1 ,v077
 .byte   W06
 .byte   N06 ,Fs1 ,v027
 .byte   W06
 .byte   N12 ,As1 ,v063
 .byte   N06 ,Fs1
 .byte   W06
 .byte   Fs1 ,v027
 .byte   W06
 .byte   N12 ,As1 ,v026
 .byte   N06 ,Fs1 ,v063
 .byte   N24 ,Cn1 ,v077
 .byte   W06
 .byte   N06 ,Fs1 ,v027
 .byte   W06
 .byte   N12 ,As1 ,v063
 .byte   N06 ,Fs1
 .byte   W06
 .byte   Fs1 ,v027
 .byte   W06
 .byte   N12 ,As1 ,v026
 .byte   N06 ,Fs1 ,v063
 .byte   N24 ,Cn1 ,v077
 .byte   W06
 .byte   N06 ,Fs1 ,v027
 .byte   W06
 .byte   Fs1 ,v063
 .byte   N12 ,As1
 .byte   W06
 .byte   N06 ,Fs1 ,v027
 .byte   W06
 .byte   N24 ,Cn1 ,v077
 .byte   N06 ,Fs1 ,v063
 .byte   N12 ,As1 ,v026
 .byte   W06
 .byte   N06 ,Fs1 ,v027
 .byte   W06
 .byte   Fs1 ,v063
 .byte   N12 ,As1
 .byte   W06
 .byte   N06 ,Fs1 ,v027
 .byte   W06
@  #07 @067   ----------------------------------------
 .byte   N24 ,Cn1 ,v077
 .byte   N06 ,Fs1 ,v063
 .byte   N12 ,As1 ,v026
 .byte   W06
 .byte   N06 ,Fs1 ,v027
 .byte   W06
 .byte   Fs1 ,v063
 .byte   N12 ,As1
 .byte   W06
 .byte   N06 ,Fs1 ,v027
 .byte   W06
 .byte   N12 ,As1 ,v026
 .byte   N06 ,Fs1 ,v063
 .byte   N24 ,Cn1 ,v077
 .byte   W06
 .byte   N06 ,Fs1 ,v027
 .byte   W06
 .byte   N12 ,As1 ,v063
 .byte   N06 ,Fs1
 .byte   W06
 .byte   Fs1 ,v027
 .byte   W06
 .byte   N24 ,Cn1 ,v077
 .byte   N06 ,Fs1 ,v063
 .byte   N12 ,As1 ,v026
 .byte   W06
 .byte   N06 ,Fs1 ,v027
 .byte   W06
 .byte   Fs1 ,v063
 .byte   N12 ,As1
 .byte   W06
 .byte   N06 ,Fs1 ,v027
 .byte   W06
 .byte   N24 ,Cn1 ,v077
 .byte   N06 ,Fs1 ,v063
 .byte   N12 ,As1 ,v026
 .byte   W06
 .byte   N06 ,Fs1 ,v027
 .byte   W06
 .byte   Fs1 ,v063
 .byte   N12 ,As1
 .byte   W06
 .byte   N06 ,Fs1 ,v027
 .byte   W06
@  #07 @068   ----------------------------------------
 .byte   N24 ,Cn1 ,v077
 .byte   N06 ,Fs1 ,v063
 .byte   N24 ,Cs2 ,v076
 .byte   W06
 .byte   N06 ,Fs1 ,v027
 .byte   W06
 .byte   Fs1 ,v063
 .byte   W06
 .byte   Fs1 ,v027
 .byte   W06
 .byte   N24 ,Cn1 ,v077
 .byte   N06 ,Fs1 ,v063
 .byte   N12 ,As1 ,v026
 .byte   W06
 .byte   N06 ,Fs1 ,v027
 .byte   W06
 .byte   N12 ,As1 ,v063
 .byte   N06 ,Fs1
 .byte   W06
 .byte   Fs1 ,v027
 .byte   W06
 .byte   Fs1 ,v063
 .byte   N24 ,Cn1
 .byte   N12 ,As1 ,v026
 .byte   W06
 .byte   N06 ,Fs1 ,v027
 .byte   W06
 .byte   N12 ,As1 ,v063
 .byte   N06 ,Fs1
 .byte   W06
 .byte   Fs1 ,v027
 .byte   W06
 .byte   N12 ,As1 ,v026
 .byte   N06 ,Fs1 ,v063
 .byte   N24 ,Cn1 ,v077
 .byte   W06
 .byte   N06 ,Fs1 ,v027
 .byte   W06
 .byte   N12 ,As1 ,v063
 .byte   N06 ,Fs1
 .byte   W06
 .byte   Fs1 ,v027
 .byte   W06
@  #07 @069   ----------------------------------------
 .byte   N12 ,As1 ,v026
 .byte   N06 ,Fs1 ,v063
 .byte   N24 ,Cn1 ,v077
 .byte   W06
 .byte   N06 ,Fs1 ,v027
 .byte   W06
 .byte   Fs1 ,v063
 .byte   N12 ,As1
 .byte   W06
 .byte   N06 ,Fs1 ,v027
 .byte   W06
 .byte   N24 ,Cn1 ,v077
 .byte   N06 ,Fs1 ,v063
 .byte   N12 ,As1 ,v026
 .byte   W06
 .byte   N06 ,Fs1 ,v027
 .byte   W06
 .byte   N12 ,As1 ,v063
 .byte   N06 ,Fs1
 .byte   W06
 .byte   Fs1 ,v027
 .byte   W06
 .byte   N12 ,As1 ,v026
 .byte   N06 ,Fs1 ,v063
 .byte   N24 ,Cn1 ,v077
 .byte   W06
 .byte   N06 ,Fs1 ,v027
 .byte   W06
 .byte   N12 ,As1 ,v063
 .byte   N06 ,Fs1
 .byte   W06
 .byte   Fs1 ,v027
 .byte   W06
 .byte   N12 ,As1 ,v026
 .byte   N06 ,Fs1 ,v063
 .byte   N24 ,Cn1 ,v077
 .byte   W06
 .byte   N06 ,Fs1 ,v027
 .byte   W06
 .byte   N12 ,As1 ,v063
 .byte   N06 ,Fs1
 .byte   W06
 .byte   Fs1 ,v027
 .byte   W06
@  #07 @070   ----------------------------------------
 .byte   N12 ,As1 ,v026
 .byte   N24 ,Cn1 ,v077
 .byte   N06 ,Fs1 ,v063
 .byte   W06
 .byte   Fs1 ,v027
 .byte   W06
 .byte   Fs1 ,v063
 .byte   N12 ,As1
 .byte   W06
 .byte   N06 ,Fs1 ,v027
 .byte   W06
 .byte   N24 ,Cn1 ,v077
 .byte   N06 ,Fs1 ,v063
 .byte   N12 ,As1 ,v026
 .byte   W06
 .byte   N06 ,Fs1 ,v027
 .byte   W06
 .byte   Fs1 ,v063
 .byte   N12 ,As1
 .byte   W06
 .byte   N06 ,Fs1 ,v027
 .byte   W06
 .byte   N24 ,Cn1 ,v077
 .byte   N06 ,Fs1 ,v063
 .byte   N12 ,As1 ,v026
 .byte   W06
 .byte   N06 ,Fs1 ,v027
 .byte   W06
 .byte   Fs1 ,v063
 .byte   N12 ,As1
 .byte   W06
 .byte   N06 ,Fs1 ,v027
 .byte   W06
 .byte   N12 ,As1 ,v026
 .byte   N06 ,Fs1 ,v063
 .byte   N24 ,Cn1 ,v077
 .byte   W06
 .byte   N06 ,Fs1 ,v027
 .byte   W06
 .byte   N12 ,As1 ,v063
 .byte   N06 ,Fs1
 .byte   W06
 .byte   Fs1 ,v027
 .byte   W06
@  #07 @071   ----------------------------------------
 .byte   N24 ,Cn1 ,v077
 .byte   N06 ,Fs1 ,v063
 .byte   N12 ,As1
 .byte   W06
 .byte   N06 ,Fs1 ,v027
 .byte   W06
 .byte   N12 ,As1 ,v063
 .byte   N06 ,Fs1
 .byte   W06
 .byte   Fs1 ,v027
 .byte   W06
 .byte   N24 ,Cn1 ,v077
 .byte   N06 ,Fs1 ,v063
 .byte   N24 ,Cs2 ,v076
 .byte   W06
 .byte   N06 ,Fs1 ,v027
 .byte   W06
 .byte   N12 ,As1 ,v063
 .byte   N06 ,Fs1
 .byte   W06
 .byte   Fs1 ,v027
 .byte   W06
 .byte   Fs1 ,v063
 .byte   N24 ,Cn1 ,v077
 .byte   N12 ,As1 ,v063
 .byte   W06
 .byte   N06 ,Fs1 ,v027
 .byte   W06
 .byte   N24 ,Cs2 ,v076
 .byte   N06 ,Fs1 ,v063
 .byte   W06
 .byte   Fs1 ,v027
 .byte   W06
 .byte   N24 ,Cn1 ,v077
 .byte   N01 ,Dn1
 .byte   W01
 .byte   N02
 .byte   W02
 .byte   N01
 .byte   W01
 .byte   N02
 .byte   W02
 .byte   N01
 .byte   W01
 .byte   N02
 .byte   W02
 .byte   N01
 .byte   W01
 .byte   N02
 .byte   W14
@  #07 @072   ----------------------------------------
 .byte   N72 ,An2 ,v076
 .byte   N24 ,Cn1 ,v077
 .byte   W12
 .byte   N12 ,As1 ,v063
 .byte   N06 ,Fs1
 .byte   W06
 .byte   Fs1 ,v027
 .byte   W06
 .byte   N12 ,As1 ,v026
 .byte   N24 ,Cn1 ,v077
 .byte   N12 ,Dn1
 .byte   N06 ,Fs1 ,v063
 .byte   W06
 .byte   Fs1 ,v027
 .byte   W06
 .byte   N12 ,As1 ,v063
 .byte   N06 ,Fs1
 .byte   W06
 .byte   Fs1 ,v027
 .byte   W06
 .byte   N12 ,As1 ,v026
 .byte   N24 ,Cn1 ,v077
 .byte   N06 ,Fs1 ,v063
 .byte   W06
 .byte   Fs1 ,v027
 .byte   W06
 .byte   N12 ,As1 ,v063
 .byte   N06 ,Fs1
 .byte   W06
 .byte   Fs1 ,v027
 .byte   W06
 .byte   Fs1 ,v063
 .byte   N12 ,Dn1 ,v077
 .byte   N24 ,Cn1
 .byte   N12 ,As1 ,v026
 .byte   W06
 .byte   N06 ,Fs1 ,v027
 .byte   W06
 .byte   Fs1 ,v063
 .byte   N12 ,As1
 .byte   W06
 .byte   N06 ,Fs1 ,v027
 .byte   W06
@  #07 @073   ----------------------------------------
 .byte   N12 ,As1 ,v026
 .byte   N24 ,Cn1 ,v077
 .byte   N06 ,Fs1 ,v063
 .byte   W06
 .byte   Fs1 ,v027
 .byte   W06
 .byte   Fs1 ,v063
 .byte   N12 ,As1
 .byte   W06
 .byte   N06 ,Fs1 ,v027
 .byte   W06
 .byte   N12 ,As1 ,v026
 .byte   N06 ,Fs1 ,v063
 .byte   N24 ,Cn1 ,v077
 .byte   N12 ,Dn1
 .byte   W06
 .byte   N06 ,Fs1 ,v027
 .byte   W06
 .byte   Fs1 ,v063
 .byte   N12 ,As1
 .byte   W06
 .byte   N06 ,Fs1 ,v027
 .byte   W06
 .byte   N24 ,Cn1 ,v077
 .byte   N06 ,Fs1 ,v063
 .byte   N12 ,As1 ,v026
 .byte   W06
 .byte   N06 ,Fs1 ,v027
 .byte   W06
 .byte   N12 ,As1 ,v063
 .byte   N06 ,Fs1
 .byte   W06
 .byte   Fs1 ,v027
 .byte   W06
 .byte   N12 ,Dn1 ,v077
 .byte   N24 ,Cn1
 .byte   N06 ,Fs1 ,v063
 .byte   N12 ,As1 ,v026
 .byte   W06
 .byte   N06 ,Fs1 ,v027
 .byte   W06
 .byte   N12 ,As1 ,v063
 .byte   N06 ,Fs1
 .byte   W06
 .byte   Fs1 ,v027
 .byte   W06
@  #07 @074   ----------------------------------------
 .byte   N12 ,As1 ,v026
 .byte   N06 ,Fs1 ,v063
 .byte   N24 ,Cn1 ,v077
 .byte   W06
 .byte   N06 ,Fs1 ,v027
 .byte   W06
 .byte   Fs1 ,v063
 .byte   N12 ,As1
 .byte   W06
 .byte   N06 ,Fs1 ,v027
 .byte   W06
 .byte   N12 ,As1 ,v026
 .byte   N12 ,Dn1 ,v077
 .byte   N24 ,Cn1
 .byte   N06 ,Fs1 ,v063
 .byte   W06
 .byte   Fs1 ,v027
 .byte   W06
 .byte   N12 ,As1 ,v063
 .byte   N06 ,Fs1
 .byte   W06
 .byte   Fs1 ,v027
 .byte   W06
 .byte   Fs1 ,v063
 .byte   N24 ,Cn1 ,v077
 .byte   N12 ,As1 ,v026
 .byte   W06
 .byte   N06 ,Fs1 ,v027
 .byte   W06
 .byte   Fs1 ,v063
 .byte   N12 ,As1
 .byte   W06
 .byte   N06 ,Fs1 ,v027
 .byte   W06
 .byte   N12 ,As1 ,v026
 .byte   N12 ,Dn1 ,v077
 .byte   N24 ,Cn1 ,v063
 .byte   N06 ,Fs1
 .byte   W06
 .byte   Fs1 ,v027
 .byte   W06
 .byte   Fs1 ,v063
 .byte   N12 ,As1
 .byte   W06
 .byte   N06 ,Fs1 ,v027
 .byte   W06
@  #07 @075   ----------------------------------------
 .byte   N24 ,Cn1 ,v077
 .byte   N06 ,Fs1 ,v063
 .byte   N12 ,As1 ,v026
 .byte   W06
 .byte   N06 ,Fs1 ,v027
 .byte   W06
 .byte   N12 ,As1 ,v063
 .byte   N06 ,Fs1
 .byte   W06
 .byte   Fs1 ,v027
 .byte   W06
 .byte   N12 ,As1 ,v026
 .byte   N24 ,Cn1 ,v077
 .byte   N12 ,Dn1
 .byte   N06 ,Fs1 ,v063
 .byte   W06
 .byte   Fs1 ,v027
 .byte   W06
 .byte   Fs1 ,v063
 .byte   N12 ,As1
 .byte   W06
 .byte   N06 ,Fs1 ,v027
 .byte   W06
 .byte   N24 ,Cn1 ,v077
 .byte   N06 ,Fs1 ,v063
 .byte   N12 ,As1 ,v026
 .byte   W06
 .byte   N06 ,Fs1 ,v027
 .byte   W06
 .byte   Fs1 ,v063
 .byte   N12 ,As1
 .byte   W06
 .byte   N06 ,Fs1 ,v027
 .byte   W06
 .byte   N12 ,Dn1 ,v077
 .byte   N24 ,Cn1
 .byte   N06 ,Fs1 ,v063
 .byte   N12 ,As1 ,v026
 .byte   W06
 .byte   N06 ,Fs1 ,v027
 .byte   W06
 .byte   N12 ,As1 ,v063
 .byte   N06 ,Fs1
 .byte   W06
 .byte   Fs1 ,v027
 .byte   W06
@  #07 @076   ----------------------------------------
 .byte   N48 ,Cs2 ,v076
 .byte   N06 ,Fs1 ,v063
 .byte   N24 ,Cn1 ,v077
 .byte   W06
 .byte   N06 ,Fs1 ,v027
 .byte   W06
 .byte   Fs1 ,v063
 .byte   N12 ,As1 ,v026
 .byte   W06
 .byte   N06 ,Fs1 ,v027
 .byte   W06
 .byte   Fs1 ,v063
 .byte   N12 ,Dn1 ,v077
 .byte   N24 ,Cn1
 .byte   N12 ,As1 ,v026
 .byte   W06
 .byte   N06 ,Fs1 ,v027
 .byte   W06
 .byte   Fs1 ,v063
 .byte   N12 ,As1
 .byte   W06
 .byte   N06 ,Fs1 ,v027
 .byte   W06
 .byte   Fs1 ,v063
 .byte   N24 ,Cn1 ,v077
 .byte   N12 ,As1 ,v026
 .byte   W06
 .byte   N06 ,Fs1 ,v027
 .byte   W06
 .byte   N12 ,As1 ,v063
 .byte   N06 ,Fs1
 .byte   W06
 .byte   Fs1 ,v027
 .byte   W06
 .byte   N12 ,As1 ,v026
 .byte   N06 ,Fs1 ,v063
 .byte   N12 ,Dn1 ,v077
 .byte   N24 ,Cn1
 .byte   W06
 .byte   N06 ,Fs1 ,v027
 .byte   W06
 .byte   N12 ,As1 ,v063
 .byte   N06 ,Fs1
 .byte   W06
 .byte   Fs1 ,v027
 .byte   W06
@  #07 @077   ----------------------------------------
 .byte   N12 ,As1 ,v026
 .byte   N06 ,Fs1 ,v063
 .byte   N24 ,Cn1 ,v077
 .byte   W06
 .byte   N06 ,Fs1 ,v027
 .byte   W06
 .byte   Fs1 ,v063
 .byte   N12 ,As1
 .byte   W06
 .byte   N06 ,Fs1 ,v027
 .byte   W06
 .byte   N24 ,Cn1 ,v077
 .byte   N12 ,Dn1
 .byte   N06 ,Fs1 ,v063
 .byte   N12 ,As1 ,v026
 .byte   W06
 .byte   N06 ,Fs1 ,v027
 .byte   W06
 .byte   N12 ,As1 ,v063
 .byte   N06 ,Fs1
 .byte   W06
 .byte   Fs1 ,v027
 .byte   W06
 .byte   N24 ,Cn1 ,v077
 .byte   N06 ,Fs1 ,v063
 .byte   N12 ,As1 ,v026
 .byte   W06
 .byte   N06 ,Fs1 ,v027
 .byte   W06
 .byte   N12 ,As1 ,v063
 .byte   N06 ,Fs1
 .byte   W06
 .byte   Fs1 ,v027
 .byte   W06
 .byte   N12 ,As1 ,v026
 .byte   N06 ,Fs1 ,v063
 .byte   N24 ,Cn1 ,v077
 .byte   N12 ,Dn1
 .byte   W06
 .byte   N06 ,Fs1 ,v027
 .byte   W06
 .byte   Fs1 ,v063
 .byte   N12 ,As1
 .byte   W06
 .byte   N06 ,Fs1 ,v027
 .byte   W06
@  #07 @078   ----------------------------------------
 .byte   N12 ,As1 ,v026
 .byte   N06 ,Fs1 ,v063
 .byte   N24 ,Cn1 ,v077
 .byte   W06
 .byte   N06 ,Fs1 ,v027
 .byte   W06
 .byte   Fs1 ,v063
 .byte   N12 ,As1
 .byte   W06
 .byte   N06 ,Fs1 ,v027
 .byte   W06
 .byte   N12 ,As1 ,v026
 .byte   N06 ,Fs1 ,v063
 .byte   N24 ,Cn1 ,v077
 .byte   N12 ,Dn1
 .byte   W06
 .byte   N06 ,Fs1 ,v027
 .byte   W06
 .byte   N12 ,As1 ,v063
 .byte   N06 ,Fs1
 .byte   W06
 .byte   Fs1 ,v027
 .byte   W06
 .byte   Fs1 ,v063
 .byte   N24 ,Cn1 ,v077
 .byte   N12 ,As1 ,v026
 .byte   W06
 .byte   N06 ,Fs1 ,v027
 .byte   W06
 .byte   N12 ,As1 ,v063
 .byte   N06 ,Fs1
 .byte   W06
 .byte   Fs1 ,v027
 .byte   W06
 .byte   Fs1 ,v063
 .byte   N24 ,Cn1 ,v077
 .byte   N12 ,Dn1
 .byte   N12 ,As1 ,v026
 .byte   W06
 .byte   N06 ,Fs1 ,v027
 .byte   W06
 .byte   N12 ,As1 ,v063
 .byte   N06 ,Fs1
 .byte   W06
 .byte   Fs1 ,v027
 .byte   W06
@  #07 @079   ----------------------------------------
 .byte   N12 ,As1 ,v026
 .byte   N06 ,Fs1 ,v063
 .byte   N24 ,Cn1 ,v077
 .byte   W06
 .byte   N06 ,Fs1 ,v027
 .byte   W06
 .byte   N12 ,As1 ,v063
 .byte   N06 ,Fs1
 .byte   W06
 .byte   Fs1 ,v027
 .byte   W06
 .byte   N12 ,As1 ,v026
 .byte   N24 ,Cn1 ,v077
 .byte   N12 ,Dn1
 .byte   N06 ,Fs1 ,v063
 .byte   W06
 .byte   Fs1 ,v027
 .byte   W06
 .byte   N12 ,As1 ,v063
 .byte   N06 ,Fs1
 .byte   W06
 .byte   Fs1 ,v027
 .byte   W06
 .byte   N12 ,As1 ,v026
 .byte   N06 ,Fs1 ,v063
 .byte   N24 ,Cn1 ,v077
 .byte   W06
 .byte   N06 ,Fs1 ,v027
 .byte   W06
 .byte   Fs1 ,v063
 .byte   N12 ,As1
 .byte   W06
 .byte   N06 ,Fs1 ,v027
 .byte   W06
 .byte   N24 ,Cn1 ,v077
 .byte   N12 ,Dn1
 .byte   N06 ,Fs1 ,v063
 .byte   N12 ,As1 ,v026
 .byte   W06
 .byte   N06 ,Fs1 ,v027
 .byte   W06
 .byte   Fs1 ,v063
 .byte   N12 ,As1
 .byte   W06
 .byte   N06 ,Fs1 ,v027
 .byte   W06
@  #07 @080   ----------------------------------------
 .byte   N24 ,Cn1 ,v077
 .byte   N06 ,Fs1 ,v063
 .byte   N48 ,Cs2 ,v076
 .byte   W06
 .byte   N06 ,Fs1 ,v027
 .byte   W06
 .byte   Fs1 ,v063
 .byte   W06
 .byte   Fs1 ,v027
 .byte   W06
 .byte   N12 ,As1 ,v026
 .byte   N12 ,Dn1 ,v077
 .byte   N24 ,Cn1
 .byte   N06 ,Fs1 ,v063
 .byte   W06
 .byte   Fs1 ,v027
 .byte   W06
 .byte   N12 ,As1 ,v063
 .byte   N06 ,Fs1
 .byte   W06
 .byte   Fs1 ,v027
 .byte   W06
 .byte   N12 ,As1 ,v026
 .byte   N06 ,Fs1 ,v063
 .byte   N24 ,Cn1 ,v077
 .byte   W06
 .byte   N06 ,Fs1 ,v027
 .byte   W06
 .byte   N12 ,As1 ,v063
 .byte   N06 ,Fs1
 .byte   W06
 .byte   Fs1 ,v027
 .byte   W06
 .byte   N12 ,Dn1 ,v077
 .byte   N24 ,Cn1
 .byte   N06 ,Fs1 ,v063
 .byte   N12 ,As1 ,v026
 .byte   W06
 .byte   N06 ,Fs1 ,v027
 .byte   W06
 .byte   Fs1 ,v063
 .byte   N12 ,As1
 .byte   W06
 .byte   N06 ,Fs1 ,v027
 .byte   W06
@  #07 @081   ----------------------------------------
 .byte   N12 ,As1 ,v026
 .byte   N06 ,Fs1 ,v063
 .byte   N24 ,Cn1
 .byte   W06
 .byte   N06 ,Fs1 ,v027
 .byte   W06
 .byte   Fs1 ,v063
 .byte   N12 ,As1
 .byte   W06
 .byte   N06 ,Fs1 ,v027
 .byte   W06
 .byte   N12 ,As1 ,v026
 .byte   N06 ,Fs1 ,v063
 .byte   N24 ,Cn1 ,v077
 .byte   N12 ,Dn1
 .byte   W06
 .byte   N06 ,Fs1 ,v027
 .byte   W06
 .byte   Fs1 ,v063
 .byte   N12 ,As1
 .byte   W06
 .byte   N06 ,Fs1 ,v027
 .byte   W06
 .byte   N24 ,Cn1 ,v077
 .byte   N06 ,Fs1 ,v063
 .byte   N12 ,As1 ,v026
 .byte   W06
 .byte   N06 ,Fs1 ,v027
 .byte   W06
 .byte   N12 ,As1 ,v063
 .byte   N06 ,Fs1
 .byte   W06
 .byte   Fs1 ,v027
 .byte   W06
 .byte   N12 ,Dn1 ,v077
 .byte   N24 ,Cn1
 .byte   N06 ,Fs1 ,v063
 .byte   N12 ,As1 ,v026
 .byte   W06
 .byte   N06 ,Fs1 ,v027
 .byte   W06
 .byte   N12 ,As1 ,v063
 .byte   N06 ,Fs1
 .byte   W06
 .byte   Fs1 ,v027
 .byte   W06
@  #07 @082   ----------------------------------------
 .byte   N12 ,As1 ,v026
 .byte   N06 ,Fs1 ,v063
 .byte   N24 ,Cn1 ,v077
 .byte   W06
 .byte   N06 ,Fs1 ,v027
 .byte   W06
 .byte   Fs1 ,v063
 .byte   N12 ,As1
 .byte   W06
 .byte   N06 ,Fs1 ,v027
 .byte   W06
 .byte   N12 ,As1 ,v026
 .byte   N06 ,Fs1 ,v063
 .byte   N24 ,Cn1 ,v077
 .byte   N12 ,Dn1
 .byte   W06
 .byte   N06 ,Fs1 ,v027
 .byte   W06
 .byte   N12 ,As1 ,v063
 .byte   N06 ,Fs1
 .byte   W06
 .byte   Fs1 ,v027
 .byte   W06
 .byte   Fs1 ,v063
 .byte   N24 ,Cn1 ,v077
 .byte   N12 ,As1 ,v026
 .byte   W06
 .byte   N06 ,Fs1 ,v027
 .byte   W06
 .byte   Fs1 ,v063
 .byte   N12 ,As1
 .byte   W06
 .byte   N06 ,Fs1 ,v027
 .byte   W06
 .byte   Fs1 ,v063
 .byte   N24 ,Cn1 ,v077
 .byte   N12 ,Dn1
 .byte   N12 ,As1 ,v026
 .byte   W06
 .byte   N06 ,Fs1 ,v027
 .byte   W06
 .byte   Fs1 ,v063
 .byte   N12 ,As1
 .byte   W06
 .byte   N06 ,Fs1 ,v027
 .byte   W06
@  #07 @083   ----------------------------------------
 .byte   Fs1 ,v063
 .byte   N24 ,Cn1 ,v077
 .byte   N12 ,As1 ,v063
 .byte   W06
 .byte   N06 ,Fs1 ,v027
 .byte   W06
 .byte   Fs1 ,v063
 .byte   N12 ,As1
 .byte   W06
 .byte   N06 ,Fs1 ,v027
 .byte   W06
 .byte   N12 ,Dn1 ,v077
 .byte   N24 ,Cs2 ,v076
 .byte   N06 ,Fs1 ,v063
 .byte   N24 ,Cn1 ,v077
 .byte   W06
 .byte   N06 ,Fs1 ,v027
 .byte   W06
 .byte   Fs1 ,v063
 .byte   N12 ,As1
 .byte   W06
 .byte   N06 ,Fs1 ,v027
 .byte   N06 ,Dn1 ,v077
 .byte   W06
 .byte   Fs1 ,v063
 .byte   N24 ,Cn1 ,v077
 .byte   N12 ,As1 ,v063
 .byte   W06
 .byte   N06 ,Fs1 ,v027
 .byte   W06
 .byte   Fs1 ,v063
 .byte   N24 ,Cs2 ,v076
 .byte   W06
 .byte   N06 ,Fs1 ,v027
 .byte   W06
 .byte   N01 ,Dn1 ,v077
 .byte   N06 ,Fs1 ,v063
 .byte   N24 ,Cn1 ,v077
 .byte   W01
 .byte   N02 ,Dn1
 .byte   W02
 .byte   N01
 .byte   W01
 .byte   N02
 .byte   W02
 .byte   N06 ,Fs1 ,v027
 .byte   N01 ,Dn1 ,v077
 .byte   W01
 .byte   N02
 .byte   W02
 .byte   N01
 .byte   W01
 .byte   N02
 .byte   W14
@  #07 @084   ----------------------------------------
 .byte   N72 ,An2 ,v076
 .byte   N24 ,Cn1 ,v077
 .byte   N06 ,Fs1 ,v063
 .byte   W06
 .byte   Fs1 ,v027
 .byte   W06
 .byte   Fs1 ,v063
 .byte   N12 ,As1
 .byte   W06
 .byte   N06 ,Fs1 ,v027
 .byte   W06
 .byte   N12 ,Dn1 ,v077
 .byte   N24 ,Cn1
 .byte   N06 ,Fs1 ,v063
 .byte   N12 ,As1 ,v026
 .byte   W06
 .byte   N06 ,Fs1 ,v027
 .byte   W06
 .byte   N12 ,As1 ,v063
 .byte   N06 ,Fs1
 .byte   W06
 .byte   Fs1 ,v027
 .byte   W06
 .byte   N12 ,As1 ,v026
 .byte   N06 ,Fs1 ,v063
 .byte   N24 ,Cn1 ,v077
 .byte   W06
 .byte   N06 ,Fs1 ,v027
 .byte   W06
 .byte   Fs1 ,v063
 .byte   N12 ,As1
 .byte   W06
 .byte   N06 ,Fs1 ,v027
 .byte   W06
 .byte   Fs1 ,v063
 .byte   N12 ,Dn1 ,v077
 .byte   N24 ,Cn1
 .byte   N12 ,As1 ,v026
 .byte   W06
 .byte   N06 ,Fs1 ,v027
 .byte   W06
 .byte   N12 ,As1 ,v063
 .byte   N06 ,Fs1
 .byte   W06
 .byte   Fs1 ,v027
 .byte   W06
@  #07 @085   ----------------------------------------
 .byte   N12 ,As1 ,v026
 .byte   N24 ,Cn1 ,v077
 .byte   N06 ,Fs1 ,v063
 .byte   W06
 .byte   Fs1 ,v027
 .byte   W06
 .byte   Fs1 ,v063
 .byte   N12 ,As1
 .byte   W06
 .byte   N06 ,Fs1 ,v027
 .byte   W06
 .byte   N12 ,As1 ,v026
 .byte   N06 ,Fs1 ,v063
 .byte   N24 ,Cn1 ,v077
 .byte   N12 ,Dn1
 .byte   W06
 .byte   N06 ,Fs1 ,v027
 .byte   W06
 .byte   N12 ,As1 ,v063
 .byte   N06 ,Fs1
 .byte   W06
 .byte   Fs1 ,v027
 .byte   W06
 .byte   N24 ,Cn1 ,v077
 .byte   N06 ,Fs1 ,v063
 .byte   N12 ,As1 ,v026
 .byte   W06
 .byte   N06 ,Fs1 ,v027
 .byte   W06
 .byte   Fs1 ,v063
 .byte   N12 ,As1
 .byte   W06
 .byte   N06 ,Fs1 ,v027
 .byte   W06
 .byte   N24 ,Cn1 ,v077
 .byte   N12 ,Dn1
 .byte   N06 ,Fs1 ,v063
 .byte   N12 ,As1 ,v026
 .byte   W06
 .byte   N06 ,Fs1 ,v027
 .byte   W06
 .byte   N12 ,As1 ,v063
 .byte   N06 ,Fs1
 .byte   W06
 .byte   Fs1 ,v027
 .byte   W06
@  #07 @086   ----------------------------------------
 .byte   PATT
  .word Label_010090D8
@  #07 @087   ----------------------------------------
 .byte   PATT
  .word Label_0100912D
@  #07 @088   ----------------------------------------
 .byte   GOTO
  .word Label_010087BE
 .byte   FINE

@**************** Track 8 (Midi-Chn.7) ****************@

song02_008:
@  #08 @000   ----------------------------------------
 .byte   KEYSH , song02_key+0
Label_01003092:
 .byte   VOICE , 127
 .byte   BENDR, 12
 .byte   VOL , 80*song02_mvl/mxv
 .byte   W96
@  #08 @001   ----------------------------------------
 .byte   W96
@  #08 @002   ----------------------------------------
 .byte   W96
@  #08 @003   ----------------------------------------
 .byte   W96
@  #08 @004   ----------------------------------------
 .byte   W96
@  #08 @005   ----------------------------------------
 .byte   W96
@  #08 @006   ----------------------------------------
 .byte   W96
@  #08 @007   ----------------------------------------
 .byte   W96
@  #08 @008   ----------------------------------------
 .byte   W96
@  #08 @009   ----------------------------------------
 .byte   W96
@  #08 @010   ----------------------------------------
 .byte   W96
@  #08 @011   ----------------------------------------
 .byte   W96
@  #08 @012   ----------------------------------------
 .byte   W96
@  #08 @013   ----------------------------------------
 .byte   W96
@  #08 @014   ----------------------------------------
 .byte   W96
@  #08 @015   ----------------------------------------
 .byte   W96
@  #08 @016   ----------------------------------------
 .byte   W96
@  #08 @017   ----------------------------------------
 .byte   W96
@  #08 @018   ----------------------------------------
 .byte   W96
@  #08 @019   ----------------------------------------
 .byte   W96
@  #08 @020   ----------------------------------------
 .byte   W96
@  #08 @021   ----------------------------------------
 .byte   W96
@  #08 @022   ----------------------------------------
 .byte   W96
@  #08 @023   ----------------------------------------
 .byte   W96
@  #08 @024   ----------------------------------------
 .byte   W96
@  #08 @025   ----------------------------------------
 .byte   W96
@  #08 @026   ----------------------------------------
 .byte   W96
@  #08 @027   ----------------------------------------
 .byte   W96
@  #08 @028   ----------------------------------------
 .byte   W96
@  #08 @029   ----------------------------------------
 .byte   W96
@  #08 @030   ----------------------------------------
 .byte   W96
@  #08 @031   ----------------------------------------
 .byte   W96
@  #08 @032   ----------------------------------------
 .byte   W96
@  #08 @033   ----------------------------------------
 .byte   W96
@  #08 @034   ----------------------------------------
 .byte   W96
@  #08 @035   ----------------------------------------
 .byte   W96
@  #08 @036   ----------------------------------------
 .byte   W96
@  #08 @037   ----------------------------------------
 .byte   W96
@  #08 @038   ----------------------------------------
 .byte   W96
@  #08 @039   ----------------------------------------
 .byte   W72
 .byte   N24 ,An2 ,v076
 .byte   W24
@  #08 @040   ----------------------------------------
 .byte   W96
@  #08 @041   ----------------------------------------
 .byte   W96
@  #08 @042   ----------------------------------------
 .byte   W96
@  #08 @043   ----------------------------------------
 .byte   W96
@  #08 @044   ----------------------------------------
 .byte   W96
@  #08 @045   ----------------------------------------
 .byte   W96
@  #08 @046   ----------------------------------------
 .byte   W96
@  #08 @047   ----------------------------------------
 .byte   W96
@  #08 @048   ----------------------------------------
 .byte   W96
@  #08 @049   ----------------------------------------
 .byte   W96
@  #08 @050   ----------------------------------------
 .byte   W96
@  #08 @051   ----------------------------------------
 .byte   W96
@  #08 @052   ----------------------------------------
 .byte   W96
@  #08 @053   ----------------------------------------
 .byte   W96
@  #08 @054   ----------------------------------------
 .byte   W96
@  #08 @055   ----------------------------------------
 .byte   W96
@  #08 @056   ----------------------------------------
 .byte   W96
@  #08 @057   ----------------------------------------
 .byte   W96
@  #08 @058   ----------------------------------------
 .byte   W96
@  #08 @059   ----------------------------------------
 .byte   W96
@  #08 @060   ----------------------------------------
 .byte   W96
@  #08 @061   ----------------------------------------
 .byte   W96
@  #08 @062   ----------------------------------------
 .byte   W96
@  #08 @063   ----------------------------------------
 .byte   W96
@  #08 @064   ----------------------------------------
 .byte   W96
@  #08 @065   ----------------------------------------
 .byte   W96
@  #08 @066   ----------------------------------------
 .byte   W96
@  #08 @067   ----------------------------------------
 .byte   W96
@  #08 @068   ----------------------------------------
 .byte   W96
@  #08 @069   ----------------------------------------
 .byte   W96
@  #08 @070   ----------------------------------------
 .byte   W96
@  #08 @071   ----------------------------------------
 .byte   W96
@  #08 @072   ----------------------------------------
 .byte   W96
@  #08 @073   ----------------------------------------
 .byte   W96
@  #08 @074   ----------------------------------------
 .byte   W96
@  #08 @075   ----------------------------------------
 .byte   W96
@  #08 @076   ----------------------------------------
 .byte   W96
@  #08 @077   ----------------------------------------
 .byte   W96
@  #08 @078   ----------------------------------------
 .byte   W96
@  #08 @079   ----------------------------------------
 .byte   W96
@  #08 @080   ----------------------------------------
 .byte   W96
@  #08 @081   ----------------------------------------
 .byte   W96
@  #08 @082   ----------------------------------------
 .byte   W96
@  #08 @083   ----------------------------------------
 .byte   W96
@  #08 @084   ----------------------------------------
 .byte   W96
@  #08 @085   ----------------------------------------
 .byte   W96
@  #08 @086   ----------------------------------------
 .byte   W96
@  #08 @087   ----------------------------------------
 .byte   W96
@  #08 @088   ----------------------------------------
 .byte   GOTO
  .word Label_01003092
 .byte   FINE

@**************** Track 9 (Midi-Chn.8) ****************@

song02_009:
@  #09 @000   ----------------------------------------
 .byte   KEYSH , song02_key+0
Label_01009F0A:
 .byte   VOICE , 61
 .byte   BENDR, 12
 .byte   PAN , c_v-12
 .byte   VOL , 112*song02_mvl/mxv
 .byte   W96
@  #09 @001   ----------------------------------------
 .byte   W96
@  #09 @002   ----------------------------------------
 .byte   W96
@  #09 @003   ----------------------------------------
 .byte   W96
@  #09 @004   ----------------------------------------
 .byte   W96
@  #09 @005   ----------------------------------------
 .byte   W96
@  #09 @006   ----------------------------------------
 .byte   W96
@  #09 @007   ----------------------------------------
 .byte   W96
@  #09 @008   ----------------------------------------
Label_01009F1A:
 .byte   N12 ,An2 ,v060
 .byte   W12
 .byte   An2 ,v015
 .byte   W12
 .byte   Cn3 ,v060
 .byte   W12
 .byte   Cn3 ,v015
 .byte   W12
 .byte   N18 ,Ds3 ,v060
 .byte   W18
 .byte   N06 ,En3
 .byte   N06 ,Ds3 ,v015
 .byte   W06
 .byte   N12 ,En3
 .byte   W12
 .byte   N06 ,Gs2 ,v060
 .byte   W06
 .byte   Gs2 ,v015
 .byte   W06
 .byte   PEND 
@  #09 @009   ----------------------------------------
Label_01009F3C:
 .byte   N06 ,An2 ,v060
 .byte   W06
 .byte   An2 ,v015
 .byte   W06
 .byte   Cn3 ,v060
 .byte   W06
 .byte   Cn3 ,v015
 .byte   W06
 .byte   Dn3 ,v060
 .byte   W06
 .byte   Dn3 ,v015
 .byte   W06
 .byte   Cn3 ,v060
 .byte   W06
 .byte   Cn3 ,v015
 .byte   W06
 .byte   Ds3 ,v060
 .byte   W06
 .byte   Ds3 ,v015
 .byte   W06
 .byte   Ds3 ,v060
 .byte   W06
 .byte   N18 ,En3
 .byte   N06 ,Ds3 ,v015
 .byte   W18
 .byte   N12 ,En3
 .byte   W12
 .byte   PEND 
@  #09 @010   ----------------------------------------
Label_01009F68:
 .byte   N06 ,Gn3 ,v060
 .byte   W06
 .byte   Gn3 ,v015
 .byte   W06
 .byte   Fs3 ,v060
 .byte   W06
 .byte   Fs3 ,v015
 .byte   W06
 .byte   Fn3 ,v060
 .byte   W06
 .byte   Fn3 ,v015
 .byte   W06
 .byte   Ds3 ,v060
 .byte   W06
 .byte   Ds3 ,v015
 .byte   W06
 .byte   Dn3 ,v060
 .byte   W06
 .byte   Dn3 ,v015
 .byte   W06
 .byte   Cn3 ,v060
 .byte   W06
 .byte   Cn3 ,v015
 .byte   W06
 .byte   Bn2 ,v060
 .byte   W06
 .byte   Bn2 ,v015
 .byte   W06
 .byte   As2 ,v060
 .byte   W06
 .byte   As2 ,v015
 .byte   W06
 .byte   PEND 
@  #09 @011   ----------------------------------------
Label_01009F9A:
 .byte   N06 ,Bn2 ,v060
 .byte   W06
 .byte   Bn2 ,v015
 .byte   W06
 .byte   Cn3 ,v060
 .byte   W06
 .byte   Cn3 ,v015
 .byte   W06
 .byte   Dn3 ,v060
 .byte   W06
 .byte   Dn3 ,v015
 .byte   W06
 .byte   Ds3 ,v060
 .byte   W06
 .byte   Ds3 ,v015
 .byte   W06
 .byte   N24 ,En3 ,v060
 .byte   W24
 .byte   En2
 .byte   N06 ,En3 ,v015
 .byte   W24
 .byte   PEND 
@  #09 @012   ----------------------------------------
Label_01009FBD:
 .byte   N06 ,En2 ,v015
 .byte   N12 ,An2 ,v060
 .byte   W12
 .byte   An2 ,v015
 .byte   W12
 .byte   Cn3 ,v060
 .byte   W12
 .byte   Cn3 ,v015
 .byte   W12
 .byte   N18 ,Ds3 ,v060
 .byte   W18
 .byte   N06 ,En3
 .byte   N06 ,Ds3 ,v015
 .byte   W06
 .byte   N12 ,En3
 .byte   W12
 .byte   N06 ,Gs2 ,v060
 .byte   W06
 .byte   Gs2 ,v015
 .byte   W06
 .byte   PEND 
@  #09 @013   ----------------------------------------
Label_01009FE2:
 .byte   N06 ,An2 ,v060
 .byte   W06
 .byte   An2 ,v015
 .byte   W06
 .byte   Cn3 ,v060
 .byte   W06
 .byte   Cn3 ,v015
 .byte   W06
 .byte   Dn3 ,v060
 .byte   W06
 .byte   Dn3 ,v015
 .byte   W06
 .byte   Cn3 ,v060
 .byte   W06
 .byte   Cn3 ,v015
 .byte   W06
 .byte   Ds3 ,v060
 .byte   W06
 .byte   Ds3 ,v015
 .byte   W06
 .byte   Ds3 ,v060
 .byte   W06
 .byte   Ds3 ,v015
 .byte   N18 ,En3 ,v060
 .byte   W18
 .byte   N12 ,En3 ,v015
 .byte   W12
 .byte   PEND 
@  #09 @014   ----------------------------------------
Label_0100A00F:
 .byte   N06 ,Gn3 ,v060
 .byte   W06
 .byte   Gn3 ,v015
 .byte   W06
 .byte   Fs3 ,v060
 .byte   W06
 .byte   Fs3 ,v015
 .byte   W06
 .byte   Fn3 ,v060
 .byte   W06
 .byte   Fn3 ,v015
 .byte   W06
 .byte   Ds3 ,v060
 .byte   W06
 .byte   Ds3 ,v015
 .byte   W06
 .byte   En3 ,v060
 .byte   W06
 .byte   En3 ,v015
 .byte   W06
 .byte   Fn3 ,v060
 .byte   W06
 .byte   Fn3 ,v015
 .byte   W06
 .byte   Fs3 ,v060
 .byte   W06
 .byte   Fs3 ,v015
 .byte   W06
 .byte   Gn3 ,v060
 .byte   W06
 .byte   Gn3 ,v015
 .byte   W06
 .byte   PEND 
@  #09 @015   ----------------------------------------
Label_0100A041:
 .byte   N06 ,Gs3 ,v060
 .byte   W06
 .byte   Gs3 ,v015
 .byte   W06
 .byte   Gs3 ,v060
 .byte   W06
 .byte   Gs3 ,v015
 .byte   W06
 .byte   An3 ,v060
 .byte   W06
 .byte   An3 ,v015
 .byte   W06
 .byte   An3 ,v060
 .byte   W06
 .byte   An3 ,v015
 .byte   W06
 .byte   N24 ,Bn3 ,v060
 .byte   W24
 .byte   Bn3 ,v004
 .byte   W24
 .byte   PEND 
@  #09 @016   ----------------------------------------
Label_0100A062:
 .byte   N12 ,An2 ,v060
 .byte   W12
 .byte   An2 ,v015
 .byte   W12
 .byte   Cn3 ,v060
 .byte   W12
 .byte   Cn3 ,v015
 .byte   W12
 .byte   N18 ,Ds3 ,v060
 .byte   W18
 .byte   N06 ,Ds3 ,v015
 .byte   N06 ,En3 ,v060
 .byte   W06
 .byte   N12 ,En3 ,v015
 .byte   W12
 .byte   N06 ,Gs2 ,v060
 .byte   W06
 .byte   Gs2 ,v015
 .byte   W06
 .byte   PEND 
@  #09 @017   ----------------------------------------
 .byte   PATT
  .word Label_01009F3C
@  #09 @018   ----------------------------------------
 .byte   PATT
  .word Label_01009F68
@  #09 @019   ----------------------------------------
Label_0100A090:
 .byte   N06 ,Bn2 ,v060
 .byte   W06
 .byte   Bn2 ,v015
 .byte   W06
 .byte   Cn3 ,v060
 .byte   W06
 .byte   Cn3 ,v015
 .byte   W06
 .byte   Dn3 ,v060
 .byte   W06
 .byte   Dn3 ,v015
 .byte   W06
 .byte   Ds3 ,v060
 .byte   W06
 .byte   Ds3 ,v015
 .byte   W06
 .byte   N24 ,En3 ,v060
 .byte   W24
 .byte   N06 ,En3 ,v015
 .byte   N24 ,En2 ,v060
 .byte   W24
 .byte   PEND 
@  #09 @020   ----------------------------------------
Label_0100A0B5:
 .byte   N06 ,En2 ,v015
 .byte   N12 ,An2 ,v060
 .byte   W12
 .byte   An2 ,v015
 .byte   W12
 .byte   Cn3 ,v060
 .byte   W12
 .byte   Cn3 ,v015
 .byte   W12
 .byte   N18 ,Ds3 ,v060
 .byte   W18
 .byte   N06 ,Ds3 ,v015
 .byte   N06 ,En3 ,v060
 .byte   W06
 .byte   N12 ,En3 ,v015
 .byte   W12
 .byte   N06 ,Gs2 ,v060
 .byte   W06
 .byte   Gs2 ,v015
 .byte   W06
 .byte   PEND 
@  #09 @021   ----------------------------------------
 .byte   PATT
  .word Label_01009FE2
@  #09 @022   ----------------------------------------
 .byte   PATT
  .word Label_0100A00F
@  #09 @023   ----------------------------------------
 .byte   PATT
  .word Label_0100A041
@  #09 @024   ----------------------------------------
Label_0100A0EB:
 .byte   N12 ,En3 ,v061
 .byte   W12
 .byte   N06 ,Ds3
 .byte   N06 ,En3 ,v004
 .byte   W06
 .byte   Ds3
 .byte   W06
 .byte   En3 ,v061
 .byte   W06
 .byte   En3 ,v004
 .byte   W06
 .byte   Fn3 ,v061
 .byte   W06
 .byte   Fn3 ,v004
 .byte   W06
 .byte   En3 ,v061
 .byte   W06
 .byte   En3 ,v004
 .byte   W06
 .byte   Dn3 ,v061
 .byte   W06
 .byte   Dn3 ,v004
 .byte   W06
 .byte   Cn3 ,v061
 .byte   W06
 .byte   Cn3 ,v004
 .byte   W06
 .byte   Dn3 ,v061
 .byte   W06
 .byte   Dn3 ,v004
 .byte   W06
 .byte   PEND 
@  #09 @025   ----------------------------------------
Label_0100A11C:
 .byte   N12 ,En3 ,v061
 .byte   W12
 .byte   N06 ,En3 ,v004
 .byte   N06 ,Ds3 ,v061
 .byte   W06
 .byte   Ds3 ,v004
 .byte   W06
 .byte   En3 ,v061
 .byte   W06
 .byte   En3 ,v004
 .byte   W06
 .byte   Fn3 ,v061
 .byte   W06
 .byte   Fn3 ,v004
 .byte   W06
 .byte   En3 ,v061
 .byte   W06
 .byte   En3 ,v004
 .byte   W06
 .byte   Dn3 ,v061
 .byte   W06
 .byte   Dn3 ,v004
 .byte   W06
 .byte   Cn3 ,v061
 .byte   W06
 .byte   Cn3 ,v004
 .byte   W06
 .byte   Bn2 ,v061
 .byte   W06
 .byte   Bn2 ,v004
 .byte   W06
 .byte   PEND 
@  #09 @026   ----------------------------------------
 .byte   N24 ,An2 ,v061
 .byte   W24
 .byte   N12 ,An3
 .byte   N05 ,An2 ,v004
 .byte   W12
 .byte   N06 ,An3
 .byte   N06 ,An2 ,v061
 .byte   W06
 .byte   An2 ,v004
 .byte   W06
 .byte   N12 ,Gs3 ,v061
 .byte   W12
 .byte   N06 ,Gs2
 .byte   N06 ,Gs3 ,v004
 .byte   W06
 .byte   N05 ,Gs2
 .byte   W06
 .byte   N12 ,Gn3 ,v061
 .byte   W12
 .byte   N06 ,Gn3 ,v004
 .byte   N06 ,Gn2 ,v061
 .byte   W06
 .byte   N05 ,Gn2 ,v004
 .byte   W06
@  #09 @027   ----------------------------------------
 .byte   N12 ,Fs3 ,v061
 .byte   W12
 .byte   N06 ,Fs3 ,v004
 .byte   N06 ,Fs2 ,v061
 .byte   W06
 .byte   N05 ,Fs2 ,v004
 .byte   W06
 .byte   N12 ,Fn3 ,v061
 .byte   W12
 .byte   N06 ,Fn2
 .byte   N06 ,Fn3 ,v004
 .byte   W06
 .byte   N05 ,Fn2
 .byte   W06
 .byte   N12 ,Ds3 ,v061
 .byte   W12
 .byte   N06 ,Ds3 ,v004
 .byte   N06 ,Ds2 ,v061
 .byte   W06
 .byte   N05 ,Ds2 ,v004
 .byte   W06
 .byte   N12 ,En3 ,v061
 .byte   W12
 .byte   N06 ,En3 ,v004
 .byte   N06 ,En2 ,v061
 .byte   W06
 .byte   N05 ,En2 ,v004
 .byte   W06
@  #09 @028   ----------------------------------------
Label_0100A1B8:
 .byte   N12 ,En3 ,v061
 .byte   W12
 .byte   N06 ,En3 ,v004
 .byte   N06 ,Ds3 ,v061
 .byte   W06
 .byte   Ds3 ,v004
 .byte   W06
 .byte   En3 ,v061
 .byte   W06
 .byte   En3 ,v004
 .byte   W06
 .byte   Fn3 ,v061
 .byte   W06
 .byte   Fn3 ,v004
 .byte   W06
 .byte   En3 ,v061
 .byte   W06
 .byte   En3 ,v004
 .byte   W06
 .byte   Dn3 ,v061
 .byte   W06
 .byte   Dn3 ,v004
 .byte   W06
 .byte   Cn3 ,v061
 .byte   W06
 .byte   Cn3 ,v004
 .byte   W06
 .byte   Dn3 ,v061
 .byte   W06
 .byte   Dn3 ,v004
 .byte   W06
 .byte   PEND 
@  #09 @029   ----------------------------------------
Label_0100A1EB:
 .byte   N12 ,En3 ,v060
 .byte   W12
 .byte   N06 ,En3 ,v004
 .byte   N06 ,Ds3 ,v060
 .byte   W06
 .byte   Ds3 ,v004
 .byte   W06
 .byte   En3 ,v061
 .byte   W06
 .byte   En3 ,v004
 .byte   W06
 .byte   Fn3 ,v061
 .byte   W06
 .byte   Fn3 ,v004
 .byte   W06
 .byte   En3 ,v061
 .byte   W06
 .byte   En3 ,v004
 .byte   W06
 .byte   Dn3 ,v063
 .byte   W06
 .byte   Dn3 ,v004
 .byte   W06
 .byte   Cn3 ,v063
 .byte   W06
 .byte   Cn3 ,v004
 .byte   W06
 .byte   Dn3 ,v064
 .byte   W06
 .byte   Dn3 ,v004
 .byte   W06
 .byte   PEND 
@  #09 @030   ----------------------------------------
 .byte   N24 ,En3 ,v064
 .byte   W24
 .byte   N06 ,En3 ,v004
 .byte   N12 ,An2 ,v065
 .byte   W12
 .byte   N06 ,An2 ,v004
 .byte   N06 ,An1 ,v065
 .byte   W06
 .byte   An1 ,v004
 .byte   W06
 .byte   N12 ,Bn2 ,v065
 .byte   W12
 .byte   N06 ,Bn2 ,v004
 .byte   N06 ,Bn1 ,v065
 .byte   W06
 .byte   Bn1 ,v004
 .byte   W06
 .byte   N12 ,Cn3 ,v065
 .byte   W12
 .byte   N06 ,Cn3 ,v004
 .byte   N06 ,Cn2 ,v065
 .byte   W06
 .byte   Cn2 ,v004
 .byte   W06
@  #09 @031   ----------------------------------------
 .byte   N12 ,Cs3 ,v065
 .byte   W12
 .byte   N06 ,Cs2
 .byte   N06 ,Cs3 ,v004
 .byte   W06
 .byte   Cs2
 .byte   W06
 .byte   N12 ,Dn3 ,v065
 .byte   W12
 .byte   N06 ,Dn3 ,v004
 .byte   N06 ,Dn2 ,v065
 .byte   W06
 .byte   Dn2 ,v004
 .byte   W06
 .byte   N12 ,Fn3 ,v065
 .byte   W12
 .byte   N06 ,Fn2
 .byte   N06 ,Fn3 ,v004
 .byte   W06
 .byte   Fn2
 .byte   W06
 .byte   N12 ,En3 ,v065
 .byte   W12
 .byte   N06 ,En3 ,v004
 .byte   N06 ,En2 ,v065
 .byte   W06
 .byte   En2 ,v004
 .byte   W06
@  #09 @032   ----------------------------------------
 .byte   PATT
  .word Label_0100A1B8
@  #09 @033   ----------------------------------------
 .byte   PATT
  .word Label_0100A11C
@  #09 @034   ----------------------------------------
 .byte   N24 ,An2 ,v061
 .byte   W24
 .byte   N05 ,An2 ,v004
 .byte   N12 ,An3 ,v061
 .byte   W12
 .byte   N06 ,An3 ,v004
 .byte   N06 ,An2 ,v061
 .byte   W06
 .byte   An2 ,v004
 .byte   W06
 .byte   N12 ,Gs3 ,v061
 .byte   W12
 .byte   N06 ,Gs3 ,v004
 .byte   N06 ,Gs2 ,v061
 .byte   W06
 .byte   N05 ,Gs2 ,v004
 .byte   W06
 .byte   N12 ,Gn3 ,v061
 .byte   W12
 .byte   N06 ,Gn3 ,v004
 .byte   N06 ,Gn2 ,v061
 .byte   W06
 .byte   N05 ,Gn2 ,v004
 .byte   W06
@  #09 @035   ----------------------------------------
 .byte   N12 ,Fs3 ,v061
 .byte   W12
 .byte   N06 ,Fs3 ,v004
 .byte   N06 ,Fs2 ,v061
 .byte   W06
 .byte   N05 ,Fs2 ,v004
 .byte   W06
 .byte   N12 ,Fn3 ,v061
 .byte   W12
 .byte   N06 ,Fn3 ,v004
 .byte   N06 ,Fn2 ,v061
 .byte   W06
 .byte   N05 ,Fn2 ,v004
 .byte   W06
 .byte   N12 ,Ds3 ,v061
 .byte   W12
 .byte   N06 ,Ds3 ,v004
 .byte   N06 ,Ds2 ,v061
 .byte   W06
 .byte   N05 ,Ds2 ,v004
 .byte   W06
 .byte   N12 ,En3 ,v061
 .byte   W12
 .byte   N06 ,En3 ,v004
 .byte   N06 ,En2 ,v061
 .byte   W06
 .byte   N05 ,En2 ,v004
 .byte   W06
@  #09 @036   ----------------------------------------
Label_0100A2FC:
 .byte   N12 ,En3 ,v066
 .byte   W12
 .byte   N06 ,Ds3
 .byte   N06 ,En3 ,v006
 .byte   W06
 .byte   Ds3
 .byte   W06
 .byte   En3 ,v066
 .byte   W06
 .byte   En3 ,v006
 .byte   W06
 .byte   Fn3 ,v066
 .byte   W06
 .byte   Fn3 ,v006
 .byte   W06
 .byte   En3 ,v066
 .byte   W06
 .byte   En3 ,v006
 .byte   W06
 .byte   Dn3 ,v066
 .byte   W06
 .byte   Dn3 ,v006
 .byte   W06
 .byte   Cn3 ,v066
 .byte   W06
 .byte   Cn3 ,v006
 .byte   W06
 .byte   Dn3 ,v066
 .byte   W06
 .byte   Dn3 ,v006
 .byte   W06
 .byte   PEND 
@  #09 @037   ----------------------------------------
Label_0100A32D:
 .byte   N12 ,En3 ,v066
 .byte   W12
 .byte   N06 ,Ds3
 .byte   N06 ,En3 ,v006
 .byte   W06
 .byte   Ds3
 .byte   W06
 .byte   En3 ,v066
 .byte   W06
 .byte   En3 ,v006
 .byte   W06
 .byte   Fn3 ,v066
 .byte   W06
 .byte   Fn3 ,v006
 .byte   W06
 .byte   En3 ,v066
 .byte   W06
 .byte   En3 ,v006
 .byte   W06
 .byte   Dn3 ,v066
 .byte   W06
 .byte   Dn3 ,v006
 .byte   W06
 .byte   Cn3 ,v066
 .byte   W06
 .byte   Cn3 ,v006
 .byte   W06
 .byte   Bn2 ,v066
 .byte   W06
 .byte   Bn2 ,v006
 .byte   W06
 .byte   PEND 
@  #09 @038   ----------------------------------------
Label_0100A35E:
 .byte   N24 ,An2 ,v066
 .byte   W24
 .byte   N23 ,An2 ,v006
 .byte   W72
 .byte   PEND 
@  #09 @039   ----------------------------------------
 .byte   W96
@  #09 @040   ----------------------------------------
 .byte   W96
@  #09 @041   ----------------------------------------
 .byte   W96
@  #09 @042   ----------------------------------------
 .byte   W96
@  #09 @043   ----------------------------------------
 .byte   W96
@  #09 @044   ----------------------------------------
 .byte   W96
@  #09 @045   ----------------------------------------
 .byte   W96
@  #09 @046   ----------------------------------------
 .byte   W96
@  #09 @047   ----------------------------------------
 .byte   W96
@  #09 @048   ----------------------------------------
 .byte   W96
@  #09 @049   ----------------------------------------
 .byte   W96
@  #09 @050   ----------------------------------------
 .byte   W96
@  #09 @051   ----------------------------------------
 .byte   W96
@  #09 @052   ----------------------------------------
 .byte   W96
@  #09 @053   ----------------------------------------
 .byte   W96
@  #09 @054   ----------------------------------------
 .byte   W96
@  #09 @055   ----------------------------------------
 .byte   W96
@  #09 @056   ----------------------------------------
 .byte   W96
@  #09 @057   ----------------------------------------
 .byte   W96
@  #09 @058   ----------------------------------------
 .byte   W96
@  #09 @059   ----------------------------------------
 .byte   W96
@  #09 @060   ----------------------------------------
 .byte   W96
@  #09 @061   ----------------------------------------
 .byte   W96
@  #09 @062   ----------------------------------------
 .byte   W96
@  #09 @063   ----------------------------------------
 .byte   W96
@  #09 @064   ----------------------------------------
 .byte   W96
@  #09 @065   ----------------------------------------
 .byte   W96
@  #09 @066   ----------------------------------------
 .byte   W96
@  #09 @067   ----------------------------------------
 .byte   W96
@  #09 @068   ----------------------------------------
 .byte   W96
@  #09 @069   ----------------------------------------
 .byte   W96
@  #09 @070   ----------------------------------------
 .byte   W96
@  #09 @071   ----------------------------------------
 .byte   W96
@  #09 @072   ----------------------------------------
 .byte   PATT
  .word Label_0100A1B8
@  #09 @073   ----------------------------------------
 .byte   PATT
  .word Label_0100A11C
@  #09 @074   ----------------------------------------
Label_0100A392:
 .byte   N24 ,An2 ,v061
 .byte   W24
 .byte   N12 ,An3
 .byte   N05 ,An2 ,v004
 .byte   W12
 .byte   N06 ,An2 ,v061
 .byte   N06 ,An3 ,v004
 .byte   W06
 .byte   An2
 .byte   W06
 .byte   N12 ,Gs3 ,v061
 .byte   W12
 .byte   N06 ,Gs3 ,v004
 .byte   N06 ,Gs2 ,v061
 .byte   W06
 .byte   N05 ,Gs2 ,v004
 .byte   W06
 .byte   N12 ,Gn3 ,v061
 .byte   W12
 .byte   N06 ,Gn2
 .byte   N06 ,Gn3 ,v004
 .byte   W06
 .byte   N05 ,Gn2
 .byte   W06
 .byte   PEND 
@  #09 @075   ----------------------------------------
 .byte   N12 ,Fs3 ,v061
 .byte   W12
 .byte   N06 ,Fs2
 .byte   N06 ,Fs3 ,v004
 .byte   W06
 .byte   N05 ,Fs2
 .byte   W06
 .byte   N12 ,Fn3 ,v061
 .byte   W12
 .byte   N06 ,Fn3 ,v004
 .byte   N06 ,Fn2 ,v061
 .byte   W06
 .byte   N05 ,Fn2 ,v004
 .byte   W06
 .byte   N12 ,Ds3 ,v061
 .byte   W12
 .byte   N06 ,Ds2
 .byte   N06 ,Ds3 ,v004
 .byte   W06
 .byte   N05 ,Ds2
 .byte   W06
 .byte   N12 ,En3 ,v061
 .byte   W12
 .byte   N06 ,En3 ,v004
 .byte   N06 ,En2 ,v061
 .byte   W06
 .byte   N05 ,En2 ,v004
 .byte   W06
@  #09 @076   ----------------------------------------
 .byte   PATT
  .word Label_0100A0EB
@  #09 @077   ----------------------------------------
 .byte   PATT
  .word Label_0100A1EB
@  #09 @078   ----------------------------------------
Label_0100A404:
 .byte   N24 ,En3 ,v064
 .byte   W24
 .byte   N06 ,En3 ,v004
 .byte   N12 ,An2 ,v065
 .byte   W12
 .byte   N06 ,An1
 .byte   N06 ,An2 ,v004
 .byte   W06
 .byte   An1
 .byte   W06
 .byte   N12 ,Bn2 ,v065
 .byte   W12
 .byte   N06 ,Bn1
 .byte   N06 ,Bn2 ,v004
 .byte   W06
 .byte   Bn1
 .byte   W06
 .byte   N12 ,Cn3 ,v065
 .byte   W12
 .byte   N06 ,Cn2
 .byte   N06 ,Cn3 ,v004
 .byte   W06
 .byte   Cn2
 .byte   W06
 .byte   PEND 
@  #09 @079   ----------------------------------------
 .byte   N12 ,Cs3 ,v065
 .byte   W12
 .byte   N06 ,Cs3 ,v004
 .byte   N06 ,Cs2 ,v065
 .byte   W06
 .byte   Cs2 ,v004
 .byte   W06
 .byte   N12 ,Dn3 ,v065
 .byte   W12
 .byte   N06 ,Dn2
 .byte   N06 ,Dn3 ,v004
 .byte   W06
 .byte   Dn2
 .byte   W06
 .byte   N12 ,Fn3 ,v065
 .byte   W12
 .byte   N06 ,Fn3 ,v004
 .byte   N06 ,Fn2 ,v065
 .byte   W06
 .byte   Fn2 ,v004
 .byte   W06
 .byte   N12 ,En3 ,v065
 .byte   W12
 .byte   N06 ,En3 ,v004
 .byte   N06 ,En2 ,v065
 .byte   W06
 .byte   En2 ,v004
 .byte   W06
@  #09 @080   ----------------------------------------
 .byte   PATT
  .word Label_0100A0EB
@  #09 @081   ----------------------------------------
 .byte   PATT
  .word Label_0100A11C
@  #09 @082   ----------------------------------------
Label_0100A470:
 .byte   N24 ,An2 ,v061
 .byte   W24
 .byte   N05 ,An2 ,v004
 .byte   N12 ,An3 ,v061
 .byte   W12
 .byte   N06 ,An2
 .byte   N06 ,An3 ,v004
 .byte   W06
 .byte   An2
 .byte   W06
 .byte   N12 ,Gs3 ,v061
 .byte   W12
 .byte   N06 ,Gs2
 .byte   N06 ,Gs3 ,v004
 .byte   W06
 .byte   N05 ,Gs2
 .byte   W06
 .byte   N12 ,Gn3 ,v061
 .byte   W12
 .byte   N06 ,Gn2
 .byte   N06 ,Gn3 ,v004
 .byte   W06
 .byte   N05 ,Gn2
 .byte   W06
 .byte   PEND 
@  #09 @083   ----------------------------------------
 .byte   N12 ,Fs3 ,v061
 .byte   W12
 .byte   N06 ,Fs2
 .byte   N06 ,Fs3 ,v004
 .byte   W06
 .byte   N05 ,Fs2
 .byte   W06
 .byte   N12 ,Fn3 ,v061
 .byte   W12
 .byte   N06 ,Fn2
 .byte   N06 ,Fn3 ,v004
 .byte   W06
 .byte   N05 ,Fn2
 .byte   W06
 .byte   N12 ,Ds3 ,v061
 .byte   W12
 .byte   N06 ,Ds2
 .byte   N06 ,Ds3 ,v004
 .byte   W06
 .byte   N05 ,Ds2
 .byte   W06
 .byte   N12 ,En3 ,v061
 .byte   W12
 .byte   N06 ,En3 ,v004
 .byte   N06 ,En2 ,v061
 .byte   W06
 .byte   N05 ,En2 ,v004
 .byte   W06
@  #09 @084   ----------------------------------------
Label_0100A4D4:
 .byte   N12 ,En3 ,v066
 .byte   W12
 .byte   N06 ,En3 ,v006
 .byte   N06 ,Ds3 ,v066
 .byte   W06
 .byte   Ds3 ,v006
 .byte   W06
 .byte   En3 ,v066
 .byte   W06
 .byte   En3 ,v006
 .byte   W06
 .byte   Fn3 ,v066
 .byte   W06
 .byte   Fn3 ,v006
 .byte   W06
 .byte   En3 ,v066
 .byte   W06
 .byte   En3 ,v006
 .byte   W06
 .byte   Dn3 ,v066
 .byte   W06
 .byte   Dn3 ,v006
 .byte   W06
 .byte   Cn3 ,v066
 .byte   W06
 .byte   Cn3 ,v006
 .byte   W06
 .byte   Dn3 ,v066
 .byte   W06
 .byte   Dn3 ,v006
 .byte   W06
 .byte   PEND 
@  #09 @085   ----------------------------------------
 .byte   PATT
  .word Label_0100A32D
@  #09 @086   ----------------------------------------
 .byte   PATT
  .word Label_0100A35E
@  #09 @087   ----------------------------------------
 .byte   W96
@  #09 @088   ----------------------------------------
 .byte   GOTO
  .word Label_01009F0A
 .byte   FINE

@**************** Track 10 (Midi-Chn.9) ****************@

song02_010:
@  #10 @000   ----------------------------------------
 .byte   KEYSH , song02_key+0
Label_0100A51A:
 .byte   VOICE , 63
 .byte   BENDR, 12
 .byte   PAN , c_v+24
 .byte   VOL , 47*song02_mvl/mxv
 .byte   W96
@  #10 @001   ----------------------------------------
 .byte   W96
@  #10 @002   ----------------------------------------
 .byte   W96
@  #10 @003   ----------------------------------------
 .byte   W96
@  #10 @004   ----------------------------------------
 .byte   W96
@  #10 @005   ----------------------------------------
 .byte   W96
@  #10 @006   ----------------------------------------
 .byte   W96
@  #10 @007   ----------------------------------------
 .byte   W96
@  #10 @008   ----------------------------------------
 .byte   PATT
  .word Label_01009F1A
@  #10 @009   ----------------------------------------
 .byte   PATT
  .word Label_01009FE2
@  #10 @010   ----------------------------------------
 .byte   PATT
  .word Label_01009F68
@  #10 @011   ----------------------------------------
 .byte   PATT
  .word Label_01009F9A
@  #10 @012   ----------------------------------------
 .byte   PATT
  .word Label_01009FBD
@  #10 @013   ----------------------------------------
 .byte   PATT
  .word Label_01009F3C
@  #10 @014   ----------------------------------------
 .byte   PATT
  .word Label_0100A00F
@  #10 @015   ----------------------------------------
 .byte   PATT
  .word Label_0100A041
@  #10 @016   ----------------------------------------
 .byte   PATT
  .word Label_0100A062
@  #10 @017   ----------------------------------------
 .byte   PATT
  .word Label_01009FE2
@  #10 @018   ----------------------------------------
 .byte   PATT
  .word Label_01009F68
@  #10 @019   ----------------------------------------
 .byte   PATT
  .word Label_0100A090
@  #10 @020   ----------------------------------------
 .byte   PATT
  .word Label_0100A0B5
@  #10 @021   ----------------------------------------
 .byte   PATT
  .word Label_01009F3C
@  #10 @022   ----------------------------------------
 .byte   PATT
  .word Label_0100A00F
@  #10 @023   ----------------------------------------
 .byte   PATT
  .word Label_0100A041
@  #10 @024   ----------------------------------------
 .byte   PATT
  .word Label_0100A0EB
@  #10 @025   ----------------------------------------
Label_0100A57F:
 .byte   N12 ,En3 ,v061
 .byte   W12
 .byte   N06 ,Ds3
 .byte   N06 ,En3 ,v004
 .byte   W06
 .byte   Ds3
 .byte   W06
 .byte   En3 ,v061
 .byte   W06
 .byte   En3 ,v004
 .byte   W06
 .byte   Fn3 ,v061
 .byte   W06
 .byte   Fn3 ,v004
 .byte   W06
 .byte   En3 ,v061
 .byte   W06
 .byte   En3 ,v004
 .byte   W06
 .byte   Dn3 ,v061
 .byte   W06
 .byte   Dn3 ,v004
 .byte   W06
 .byte   Cn3 ,v061
 .byte   W06
 .byte   Cn3 ,v004
 .byte   W06
 .byte   Bn2 ,v061
 .byte   W06
 .byte   Bn2 ,v004
 .byte   W06
 .byte   PEND 
@  #10 @026   ----------------------------------------
 .byte   PATT
  .word Label_0100A392
@  #10 @027   ----------------------------------------
 .byte   N12 ,Fs3 ,v061
 .byte   W12
 .byte   N06 ,Fs2
 .byte   N06 ,Fs3 ,v004
 .byte   W06
 .byte   N05 ,Fs2
 .byte   W06
 .byte   N12 ,Fn3 ,v061
 .byte   W12
 .byte   N06 ,Fn3 ,v004
 .byte   N06 ,Fn2 ,v061
 .byte   W06
 .byte   N05 ,Fn2 ,v004
 .byte   W06
 .byte   N12 ,Ds3 ,v061
 .byte   W12
 .byte   N06 ,Ds3 ,v004
 .byte   N06 ,Ds2 ,v061
 .byte   W06
 .byte   N05 ,Ds2 ,v004
 .byte   W06
 .byte   N12 ,En3 ,v061
 .byte   W12
 .byte   N06 ,En2
 .byte   N06 ,En3 ,v004
 .byte   W06
 .byte   N05 ,En2
 .byte   W06
@  #10 @028   ----------------------------------------
 .byte   PATT
  .word Label_0100A1B8
@  #10 @029   ----------------------------------------
Label_0100A5F2:
 .byte   N12 ,En3 ,v060
 .byte   W12
 .byte   N06 ,Ds3
 .byte   N06 ,En3 ,v004
 .byte   W06
 .byte   Ds3
 .byte   W06
 .byte   En3 ,v061
 .byte   W06
 .byte   En3 ,v004
 .byte   W06
 .byte   Fn3 ,v061
 .byte   W06
 .byte   Fn3 ,v004
 .byte   W06
 .byte   En3 ,v061
 .byte   W06
 .byte   En3 ,v004
 .byte   W06
 .byte   Dn3 ,v063
 .byte   W06
 .byte   Dn3 ,v004
 .byte   W06
 .byte   Cn3 ,v063
 .byte   W06
 .byte   Cn3 ,v004
 .byte   W06
 .byte   Dn3 ,v064
 .byte   W06
 .byte   Dn3 ,v004
 .byte   W06
 .byte   PEND 
@  #10 @030   ----------------------------------------
 .byte   PATT
  .word Label_0100A404
@  #10 @031   ----------------------------------------
 .byte   N12 ,Cs3 ,v065
 .byte   W12
 .byte   N06 ,Cs3 ,v004
 .byte   N06 ,Cs2 ,v065
 .byte   W06
 .byte   Cs2 ,v004
 .byte   W06
 .byte   N12 ,Dn3 ,v065
 .byte   W12
 .byte   N06 ,Dn2
 .byte   N06 ,Dn3 ,v004
 .byte   W06
 .byte   Dn2
 .byte   W06
 .byte   N12 ,Fn3 ,v065
 .byte   W12
 .byte   N06 ,Fn2
 .byte   N06 ,Fn3 ,v004
 .byte   W06
 .byte   Fn2
 .byte   W06
 .byte   N12 ,En3 ,v065
 .byte   W12
 .byte   N06 ,En2
 .byte   N06 ,En3 ,v004
 .byte   W06
 .byte   En2
 .byte   W06
@  #10 @032   ----------------------------------------
 .byte   PATT
  .word Label_0100A1B8
@  #10 @033   ----------------------------------------
 .byte   PATT
  .word Label_0100A57F
@  #10 @034   ----------------------------------------
 .byte   PATT
  .word Label_0100A470
@  #10 @035   ----------------------------------------
 .byte   N12 ,Fs3 ,v061
 .byte   W12
 .byte   N06 ,Fs2
 .byte   N06 ,Fs3 ,v004
 .byte   W06
 .byte   N05 ,Fs2
 .byte   W06
 .byte   N12 ,Fn3 ,v061
 .byte   W12
 .byte   N06 ,Fn2
 .byte   N06 ,Fn3 ,v004
 .byte   W06
 .byte   N05 ,Fn2
 .byte   W06
 .byte   N12 ,Ds3 ,v061
 .byte   W12
 .byte   N06 ,Ds3 ,v004
 .byte   N06 ,Ds2 ,v061
 .byte   W06
 .byte   N05 ,Ds2 ,v004
 .byte   W06
 .byte   N12 ,En3 ,v061
 .byte   W12
 .byte   N06 ,En2
 .byte   N06 ,En3 ,v004
 .byte   W06
 .byte   N05 ,En2
 .byte   W06
@  #10 @036   ----------------------------------------
 .byte   PATT
  .word Label_0100A2FC
@  #10 @037   ----------------------------------------
Label_0100A6A4:
 .byte   N12 ,En3 ,v066
 .byte   W12
 .byte   N06 ,En3 ,v006
 .byte   N06 ,Ds3 ,v066
 .byte   W06
 .byte   Ds3 ,v006
 .byte   W06
 .byte   En3 ,v066
 .byte   W06
 .byte   En3 ,v006
 .byte   W06
 .byte   Fn3 ,v066
 .byte   W06
 .byte   Fn3 ,v006
 .byte   W06
 .byte   En3 ,v066
 .byte   W06
 .byte   En3 ,v006
 .byte   W06
 .byte   Dn3 ,v066
 .byte   W06
 .byte   Dn3 ,v006
 .byte   W06
 .byte   Cn3 ,v066
 .byte   W06
 .byte   Cn3 ,v006
 .byte   W06
 .byte   Bn2 ,v066
 .byte   W06
 .byte   Bn2 ,v006
 .byte   W06
 .byte   PEND 
@  #10 @038   ----------------------------------------
 .byte   PATT
  .word Label_0100A35E
@  #10 @039   ----------------------------------------
 .byte   W96
@  #10 @040   ----------------------------------------
 .byte   W96
@  #10 @041   ----------------------------------------
 .byte   W96
@  #10 @042   ----------------------------------------
 .byte   W96
@  #10 @043   ----------------------------------------
 .byte   W96
@  #10 @044   ----------------------------------------
 .byte   W96
@  #10 @045   ----------------------------------------
 .byte   W96
@  #10 @046   ----------------------------------------
 .byte   W96
@  #10 @047   ----------------------------------------
 .byte   W96
@  #10 @048   ----------------------------------------
 .byte   W96
@  #10 @049   ----------------------------------------
 .byte   W96
@  #10 @050   ----------------------------------------
 .byte   W96
@  #10 @051   ----------------------------------------
 .byte   W96
@  #10 @052   ----------------------------------------
 .byte   W96
@  #10 @053   ----------------------------------------
 .byte   W96
@  #10 @054   ----------------------------------------
 .byte   W96
@  #10 @055   ----------------------------------------
 .byte   W96
@  #10 @056   ----------------------------------------
 .byte   W96
@  #10 @057   ----------------------------------------
 .byte   W96
@  #10 @058   ----------------------------------------
 .byte   W96
@  #10 @059   ----------------------------------------
 .byte   W96
@  #10 @060   ----------------------------------------
 .byte   W96
@  #10 @061   ----------------------------------------
 .byte   W96
@  #10 @062   ----------------------------------------
 .byte   W96
@  #10 @063   ----------------------------------------
 .byte   W96
@  #10 @064   ----------------------------------------
 .byte   W96
@  #10 @065   ----------------------------------------
 .byte   W96
@  #10 @066   ----------------------------------------
 .byte   W96
@  #10 @067   ----------------------------------------
 .byte   W96
@  #10 @068   ----------------------------------------
 .byte   W96
@  #10 @069   ----------------------------------------
 .byte   W96
@  #10 @070   ----------------------------------------
 .byte   W96
@  #10 @071   ----------------------------------------
 .byte   W96
@  #10 @072   ----------------------------------------
 .byte   PATT
  .word Label_0100A1B8
@  #10 @073   ----------------------------------------
 .byte   PATT
  .word Label_0100A57F
@  #10 @074   ----------------------------------------
 .byte   N24 ,An2 ,v061
 .byte   W24
 .byte   N05 ,An2 ,v004
 .byte   N12 ,An3 ,v061
 .byte   W12
 .byte   N06 ,An2
 .byte   N06 ,An3 ,v004
 .byte   W06
 .byte   An2
 .byte   W06
 .byte   N12 ,Gs3 ,v061
 .byte   W12
 .byte   N06 ,Gs3 ,v004
 .byte   N06 ,Gs2 ,v061
 .byte   W06
 .byte   N05 ,Gs2 ,v004
 .byte   W06
 .byte   N12 ,Gn3 ,v061
 .byte   W12
 .byte   N06 ,Gn2
 .byte   N06 ,Gn3 ,v004
 .byte   W06
 .byte   N05 ,Gn2
 .byte   W06
@  #10 @075   ----------------------------------------
 .byte   N12 ,Fs3 ,v061
 .byte   W12
 .byte   N06 ,Fs2
 .byte   N06 ,Fs3 ,v004
 .byte   W06
 .byte   N05 ,Fs2
 .byte   W06
 .byte   N12 ,Fn3 ,v061
 .byte   W12
 .byte   N06 ,Fn3 ,v004
 .byte   N06 ,Fn2 ,v061
 .byte   W06
 .byte   N05 ,Fn2 ,v004
 .byte   W06
 .byte   N12 ,Ds3 ,v061
 .byte   W12
 .byte   N06 ,Ds2
 .byte   N06 ,Ds3 ,v004
 .byte   W06
 .byte   N05 ,Ds2
 .byte   W06
 .byte   N12 ,En3 ,v061
 .byte   W12
 .byte   N06 ,En2
 .byte   N06 ,En3 ,v004
 .byte   W06
 .byte   N05 ,En2
 .byte   W06
@  #10 @076   ----------------------------------------
 .byte   PATT
  .word Label_0100A0EB
@  #10 @077   ----------------------------------------
 .byte   PATT
  .word Label_0100A5F2
@  #10 @078   ----------------------------------------
 .byte   N24 ,En3 ,v064
 .byte   W24
 .byte   N12 ,An2 ,v065
 .byte   N06 ,En3 ,v004
 .byte   W12
 .byte   An1 ,v065
 .byte   N06 ,An2 ,v004
 .byte   W06
 .byte   An1
 .byte   W06
 .byte   N12 ,Bn2 ,v065
 .byte   W12
 .byte   N06 ,Bn1
 .byte   N06 ,Bn2 ,v004
 .byte   W06
 .byte   Bn1
 .byte   W06
 .byte   N12 ,Cn3 ,v065
 .byte   W12
 .byte   N06 ,Cn2
 .byte   N06 ,Cn3 ,v004
 .byte   W06
 .byte   Cn2
 .byte   W06
@  #10 @079   ----------------------------------------
 .byte   N12 ,Cs3 ,v065
 .byte   W12
 .byte   N06 ,Cs3 ,v004
 .byte   N06 ,Cs2 ,v065
 .byte   W06
 .byte   Cs2 ,v004
 .byte   W06
 .byte   N12 ,Dn3 ,v065
 .byte   W12
 .byte   N06 ,Dn2
 .byte   N06 ,Dn3 ,v004
 .byte   W06
 .byte   Dn2
 .byte   W06
 .byte   N12 ,Fn3 ,v065
 .byte   W12
 .byte   N06 ,Fn3 ,v004
 .byte   N06 ,Fn2 ,v065
 .byte   W06
 .byte   Fn2 ,v004
 .byte   W06
 .byte   N12 ,En3 ,v065
 .byte   W12
 .byte   N06 ,En2
 .byte   N06 ,En3 ,v004
 .byte   W06
 .byte   En2
 .byte   W06
@  #10 @080   ----------------------------------------
 .byte   PATT
  .word Label_0100A0EB
@  #10 @081   ----------------------------------------
 .byte   PATT
  .word Label_0100A57F
@  #10 @082   ----------------------------------------
 .byte   N24 ,An2 ,v061
 .byte   W24
 .byte   N12 ,An3
 .byte   N05 ,An2 ,v004
 .byte   W12
 .byte   N06 ,An2 ,v061
 .byte   N06 ,An3 ,v004
 .byte   W06
 .byte   An2
 .byte   W06
 .byte   N12 ,Gs3 ,v061
 .byte   W12
 .byte   N06 ,Gs2
 .byte   N06 ,Gs3 ,v004
 .byte   W06
 .byte   N05 ,Gs2
 .byte   W06
 .byte   N12 ,Gn3 ,v061
 .byte   W12
 .byte   N06 ,Gn2
 .byte   N06 ,Gn3 ,v004
 .byte   W06
 .byte   N05 ,Gn2
 .byte   W06
@  #10 @083   ----------------------------------------
 .byte   N12 ,Fs3 ,v061
 .byte   W12
 .byte   N06 ,Fs2
 .byte   N06 ,Fs3 ,v004
 .byte   W06
 .byte   N05 ,Fs2
 .byte   W06
 .byte   N12 ,Fn3 ,v061
 .byte   W12
 .byte   N06 ,Fn2
 .byte   N06 ,Fn3 ,v004
 .byte   W06
 .byte   N05 ,Fn2
 .byte   W06
 .byte   N12 ,Ds3 ,v061
 .byte   W12
 .byte   N06 ,Ds2
 .byte   N06 ,Ds3 ,v004
 .byte   W06
 .byte   N05 ,Ds2
 .byte   W06
 .byte   N12 ,En3 ,v061
 .byte   W12
 .byte   N06 ,En2
 .byte   N06 ,En3 ,v004
 .byte   W06
 .byte   N05 ,En2
 .byte   W06
@  #10 @084   ----------------------------------------
 .byte   PATT
  .word Label_0100A4D4
@  #10 @085   ----------------------------------------
 .byte   PATT
  .word Label_0100A6A4
@  #10 @086   ----------------------------------------
 .byte   PATT
  .word Label_0100A35E
@  #10 @087   ----------------------------------------
 .byte   W96
@  #10 @088   ----------------------------------------
 .byte   GOTO
  .word Label_0100A51A
 .byte   FINE

@**************** Track 11 (Midi-Chn.10) ****************@

song02_011:
@  #11 @000   ----------------------------------------
 .byte   KEYSH , song02_key+0
Label_0100A85A:
 .byte   VOICE , 1
 .byte   BENDR, 12
 .byte   PAN , c_v-18
 .byte   VOL , 80*song02_mvl/mxv
 .byte   W96
@  #11 @001   ----------------------------------------
 .byte   W96
@  #11 @002   ----------------------------------------
 .byte   W96
@  #11 @003   ----------------------------------------
 .byte   W96
@  #11 @004   ----------------------------------------
 .byte   W96
@  #11 @005   ----------------------------------------
 .byte   W96
@  #11 @006   ----------------------------------------
 .byte   W96
@  #11 @007   ----------------------------------------
 .byte   W96
@  #11 @008   ----------------------------------------
 .byte   W96
@  #11 @009   ----------------------------------------
 .byte   W96
@  #11 @010   ----------------------------------------
 .byte   W96
@  #11 @011   ----------------------------------------
 .byte   W96
@  #11 @012   ----------------------------------------
 .byte   W96
@  #11 @013   ----------------------------------------
 .byte   W96
@  #11 @014   ----------------------------------------
 .byte   W96
@  #11 @015   ----------------------------------------
 .byte   W96
@  #11 @016   ----------------------------------------
 .byte   W96
@  #11 @017   ----------------------------------------
 .byte   W96
@  #11 @018   ----------------------------------------
 .byte   W96
@  #11 @019   ----------------------------------------
 .byte   W96
@  #11 @020   ----------------------------------------
 .byte   W96
@  #11 @021   ----------------------------------------
 .byte   W96
@  #11 @022   ----------------------------------------
 .byte   W96
@  #11 @023   ----------------------------------------
 .byte   W96
@  #11 @024   ----------------------------------------
 .byte   W96
@  #11 @025   ----------------------------------------
 .byte   W96
@  #11 @026   ----------------------------------------
 .byte   W96
@  #11 @027   ----------------------------------------
 .byte   W96
@  #11 @028   ----------------------------------------
 .byte   W96
@  #11 @029   ----------------------------------------
 .byte   W96
@  #11 @030   ----------------------------------------
 .byte   W96
@  #11 @031   ----------------------------------------
 .byte   W96
@  #11 @032   ----------------------------------------
 .byte   W96
@  #11 @033   ----------------------------------------
 .byte   W96
@  #11 @034   ----------------------------------------
 .byte   W96
@  #11 @035   ----------------------------------------
 .byte   W96
@  #11 @036   ----------------------------------------
 .byte   W96
@  #11 @037   ----------------------------------------
 .byte   W96
@  #11 @038   ----------------------------------------
 .byte   W24
 .byte   N02 ,Gs4 ,v070
 .byte   N02 ,Ds4
 .byte   W02
 .byte   N10 ,An4
 .byte   N10 ,En4
 .byte   W10
 .byte   N05 ,An4 ,v005
 .byte   N05 ,En4
 .byte   N06 ,Cn4 ,v070
 .byte   W06
 .byte   N05 ,Cn4 ,v005
 .byte   W06
 .byte   N12 ,An4 ,v070
 .byte   N06 ,Dn4
 .byte   W06
 .byte   N05 ,Dn4 ,v005
 .byte   W06
 .byte   An4
 .byte   N06 ,Cn4 ,v070
 .byte   W06
 .byte   N05 ,Cn4 ,v005
 .byte   W06
 .byte   N06 ,An3 ,v070
 .byte   W06
 .byte   N05 ,An3 ,v005
 .byte   W06
 .byte   N06 ,Cn4 ,v070
 .byte   W06
 .byte   N05 ,Cn4 ,v005
 .byte   W06
@  #11 @039   ----------------------------------------
 .byte   N02 ,Ds4 ,v070
 .byte   N02 ,Gs4
 .byte   W02
 .byte   N10 ,An4
 .byte   N10 ,En4
 .byte   W10
 .byte   N05 ,En4 ,v005
 .byte   N05 ,An4
 .byte   N06 ,Cn4 ,v070
 .byte   W06
 .byte   N05 ,Cn4 ,v005
 .byte   W06
 .byte   N12 ,An4 ,v070
 .byte   N06 ,Dn4
 .byte   W06
 .byte   N05 ,Dn4 ,v005
 .byte   W06
 .byte   An4
 .byte   N06 ,Cn4 ,v070
 .byte   W06
 .byte   N05 ,Cn4 ,v005
 .byte   W54
@  #11 @040   ----------------------------------------
 .byte   W96
@  #11 @041   ----------------------------------------
 .byte   W96
@  #11 @042   ----------------------------------------
 .byte   W96
@  #11 @043   ----------------------------------------
 .byte   W96
@  #11 @044   ----------------------------------------
 .byte   W96
@  #11 @045   ----------------------------------------
 .byte   W96
@  #11 @046   ----------------------------------------
 .byte   W96
@  #11 @047   ----------------------------------------
 .byte   W96
@  #11 @048   ----------------------------------------
 .byte   W96
@  #11 @049   ----------------------------------------
 .byte   W96
@  #11 @050   ----------------------------------------
 .byte   W96
@  #11 @051   ----------------------------------------
 .byte   W96
@  #11 @052   ----------------------------------------
 .byte   W96
@  #11 @053   ----------------------------------------
 .byte   W96
@  #11 @054   ----------------------------------------
 .byte   W96
@  #11 @055   ----------------------------------------
 .byte   W96
@  #11 @056   ----------------------------------------
 .byte   N06 ,An4 ,v070
 .byte   W06
 .byte   Gn4
 .byte   N06 ,An4 ,v005
 .byte   W06
 .byte   An4 ,v070
 .byte   N06 ,Gn4 ,v005
 .byte   W06
 .byte   Cn5 ,v070
 .byte   N06 ,An4 ,v005
 .byte   W06
 .byte   An4 ,v070
 .byte   N06 ,Cn5 ,v005
 .byte   W06
 .byte   Gn4 ,v070
 .byte   N06 ,An4 ,v005
 .byte   W06
 .byte   An4 ,v070
 .byte   N06 ,Gn4 ,v005
 .byte   W06
 .byte   Cn5 ,v070
 .byte   N06 ,An4 ,v005
 .byte   W06
 .byte   An4 ,v070
 .byte   N06 ,Cn5 ,v005
 .byte   W06
 .byte   Gn4 ,v070
 .byte   N06 ,An4 ,v005
 .byte   W06
 .byte   An4 ,v070
 .byte   N06 ,Gn4 ,v005
 .byte   W06
 .byte   Cn5 ,v070
 .byte   N06 ,An4 ,v005
 .byte   W06
 .byte   An4 ,v070
 .byte   N06 ,Cn5 ,v005
 .byte   W06
 .byte   Gn4 ,v070
 .byte   N06 ,An4 ,v005
 .byte   W06
 .byte   An4 ,v070
 .byte   N06 ,Gn4 ,v005
 .byte   W06
 .byte   Cn5 ,v070
 .byte   N06 ,An4 ,v005
 .byte   W06
@  #11 @057   ----------------------------------------
 .byte   An4 ,v070
 .byte   N06 ,Cn5 ,v005
 .byte   W06
 .byte   Gn4 ,v070
 .byte   N06 ,An4 ,v005
 .byte   W06
 .byte   An4 ,v070
 .byte   N06 ,Gn4 ,v005
 .byte   W06
 .byte   Cn5 ,v070
 .byte   N06 ,An4 ,v005
 .byte   W06
 .byte   An4 ,v070
 .byte   N06 ,Cn5 ,v005
 .byte   W06
 .byte   Gn4 ,v070
 .byte   N06 ,An4 ,v005
 .byte   W06
 .byte   En4 ,v070
 .byte   N06 ,Gn4 ,v005
 .byte   W06
 .byte   Ds4 ,v070
 .byte   N06 ,En4 ,v005
 .byte   W06
 .byte   Dn4 ,v070
 .byte   N06 ,Ds4 ,v005
 .byte   W06
 .byte   Cn4 ,v070
 .byte   N06 ,Dn4 ,v005
 .byte   W06
 .byte   An3 ,v070
 .byte   N06 ,Cn4 ,v005
 .byte   W06
 .byte   Gs3 ,v070
 .byte   N06 ,An3 ,v005
 .byte   W06
 .byte   Ds3 ,v070
 .byte   N06 ,Gs3 ,v005
 .byte   W06
 .byte   Dn3 ,v070
 .byte   N06 ,Ds3 ,v005
 .byte   W06
 .byte   Cn3 ,v070
 .byte   N06 ,Dn3 ,v005
 .byte   W06
 .byte   An2 ,v070
 .byte   N06 ,Cn3 ,v005
 .byte   W06
@  #11 @058   ----------------------------------------
 .byte   Dn3 ,v070
 .byte   N06 ,An2 ,v005
 .byte   W06
 .byte   Ds3 ,v070
 .byte   N06 ,Dn3 ,v005
 .byte   W06
 .byte   En3 ,v070
 .byte   N06 ,Ds3 ,v005
 .byte   W06
 .byte   Gn3 ,v070
 .byte   N06 ,En3 ,v005
 .byte   W06
 .byte   An3 ,v070
 .byte   N06 ,Gn3 ,v005
 .byte   W06
 .byte   Gn3 ,v070
 .byte   N06 ,An3 ,v005
 .byte   W06
 .byte   An3 ,v070
 .byte   N06 ,Gn3 ,v005
 .byte   W06
 .byte   Cn4 ,v070
 .byte   N06 ,An3 ,v005
 .byte   W06
 .byte   Cn4
 .byte   N06 ,Dn4 ,v070
 .byte   W06
 .byte   Dn4 ,v005
 .byte   N06 ,Ds4 ,v070
 .byte   W06
 .byte   Ds4 ,v005
 .byte   N06 ,Fn4 ,v070
 .byte   W06
 .byte   Fn4 ,v005
 .byte   N06 ,Gn4 ,v070
 .byte   W06
 .byte   Gn4 ,v005
 .byte   N06 ,An4 ,v070
 .byte   W06
 .byte   An4 ,v005
 .byte   N06 ,Cn5 ,v070
 .byte   W06
 .byte   Cn5 ,v005
 .byte   N06 ,Dn5 ,v070
 .byte   W06
 .byte   Dn5 ,v005
 .byte   N06 ,Ds5 ,v070
 .byte   W06
@  #11 @059   ----------------------------------------
 .byte   N18 ,Gs4
 .byte   N18 ,Ds5
 .byte   W18
 .byte   N66 ,En5
 .byte   N66 ,Gs4
 .byte   W66
 .byte   N06 ,An5
 .byte   W06
 .byte   Gn5
 .byte   N06 ,An5 ,v005
 .byte   W06
@  #11 @060   ----------------------------------------
 .byte   Ds5 ,v070
 .byte   N06 ,Gn5 ,v005
 .byte   W06
 .byte   Dn5 ,v070
 .byte   N06 ,Ds5 ,v005
 .byte   W06
 .byte   Cn5 ,v070
 .byte   N06 ,Dn5 ,v005
 .byte   W06
 .byte   Ds5 ,v070
 .byte   N06 ,Cn5 ,v005
 .byte   W06
 .byte   Dn5 ,v070
 .byte   N06 ,Ds5 ,v005
 .byte   W06
 .byte   Cn5 ,v070
 .byte   N06 ,Dn5 ,v005
 .byte   W06
 .byte   Ds5 ,v070
 .byte   N06 ,An4
 .byte   N06 ,Cn5 ,v005
 .byte   W06
 .byte   Dn5 ,v070
 .byte   N06 ,Ds5 ,v005
 .byte   N06 ,An4
 .byte   W06
 .byte   Cn5 ,v070
 .byte   N06 ,Dn5 ,v005
 .byte   W06
 .byte   Ds5 ,v070
 .byte   N06 ,An4
 .byte   N06 ,Cn5 ,v005
 .byte   W06
 .byte   Dn5 ,v070
 .byte   N06 ,An4 ,v005
 .byte   N06 ,Ds5
 .byte   W06
 .byte   Cn5 ,v070
 .byte   N06 ,Dn5 ,v005
 .byte   W06
 .byte   An4 ,v070
 .byte   N06 ,Ds5
 .byte   N06 ,Cn5 ,v005
 .byte   W06
 .byte   Dn5 ,v070
 .byte   N06 ,An4 ,v005
 .byte   N06 ,Ds5
 .byte   W06
 .byte   Cn5 ,v070
 .byte   N06 ,Dn5 ,v005
 .byte   W06
 .byte   An4 ,v070
 .byte   N06 ,Cn5 ,v005
 .byte   W06
@  #11 @061   ----------------------------------------
 .byte   Gs4 ,v070
 .byte   N06 ,An4 ,v005
 .byte   W06
 .byte   An4 ,v070
 .byte   N06 ,Gs4 ,v005
 .byte   W06
 .byte   N04 ,Ds4 ,v070
 .byte   N06 ,An4 ,v005
 .byte   W04
 .byte   N04 ,Dn4 ,v070
 .byte   N02 ,Ds4 ,v005
 .byte   W04
 .byte   N04 ,Cn4 ,v070
 .byte   N04 ,Dn4 ,v005
 .byte   W04
 .byte   N06 ,Dn4 ,v070
 .byte   N06 ,Cn4 ,v005
 .byte   W06
 .byte   Ds4 ,v070
 .byte   N06 ,Dn4 ,v005
 .byte   W06
 .byte   N04 ,Cn4 ,v070
 .byte   N06 ,Ds4 ,v005
 .byte   W04
 .byte   N04 ,An3 ,v070
 .byte   N02 ,Cn4 ,v005
 .byte   W04
 .byte   N04 ,Gs3 ,v070
 .byte   N04 ,An3 ,v005
 .byte   W04
 .byte   N06 ,Gn3 ,v070
 .byte   N06 ,Gs3 ,v005
 .byte   W06
 .byte   An3 ,v070
 .byte   W06
 .byte   N04 ,En3
 .byte   N06 ,An3 ,v005
 .byte   W04
 .byte   N04 ,Dn3 ,v070
 .byte   N02 ,En3 ,v005
 .byte   W04
 .byte   N04 ,Cn3 ,v070
 .byte   N04 ,Dn3 ,v005
 .byte   W04
 .byte   N06 ,Dn3 ,v070
 .byte   N06 ,Cn3 ,v005
 .byte   W06
 .byte   Cn3 ,v070
 .byte   N06 ,Dn3 ,v005
 .byte   W06
 .byte   An2 ,v070
 .byte   N06 ,Cn3 ,v005
 .byte   W06
 .byte   Gn2 ,v070
 .byte   N06 ,An2 ,v005
 .byte   W06
@  #11 @062   ----------------------------------------
 .byte   An3 ,v070
 .byte   N06 ,Gn2 ,v005
 .byte   W06
 .byte   An3 ,v070
 .byte   W06
 .byte   Gn3
 .byte   N06 ,An3 ,v005
 .byte   W06
 .byte   Gn3 ,v070
 .byte   W06
 .byte   Cn4
 .byte   N06 ,Gn3 ,v005
 .byte   W06
 .byte   Cn4 ,v070
 .byte   W06
 .byte   Gn3
 .byte   N06 ,Cn4 ,v005
 .byte   W06
 .byte   Gn3 ,v070
 .byte   W06
 .byte   An3
 .byte   N06 ,Gn3 ,v005
 .byte   W06
 .byte   An3 ,v070
 .byte   W06
 .byte   Gn3
 .byte   N06 ,An3 ,v005
 .byte   W06
 .byte   Gn3 ,v070
 .byte   W06
 .byte   Cn4
 .byte   N06 ,Gn3 ,v005
 .byte   W06
 .byte   Cn4 ,v070
 .byte   W06
 .byte   Dn4
 .byte   N06 ,Cn4 ,v005
 .byte   W06
 .byte   Dn4 ,v070
 .byte   W06
@  #11 @063   ----------------------------------------
 .byte   Ds4
 .byte   N06 ,Dn4 ,v005
 .byte   W06
 .byte   Ds4 ,v070
 .byte   W06
 .byte   Cn4
 .byte   N06 ,Ds4 ,v005
 .byte   W06
 .byte   Cn4 ,v070
 .byte   W06
 .byte   Dn4
 .byte   N06 ,Cn4 ,v005
 .byte   W06
 .byte   Dn4 ,v070
 .byte   W06
 .byte   Cn4
 .byte   N06 ,Dn4 ,v005
 .byte   W06
 .byte   Cn4 ,v070
 .byte   W06
 .byte   Ds4
 .byte   N06 ,Cn4 ,v005
 .byte   W06
 .byte   Ds4 ,v070
 .byte   W06
 .byte   En4
 .byte   N06 ,Ds4 ,v005
 .byte   W06
 .byte   En4 ,v070
 .byte   W06
 .byte   Fs4
 .byte   N06 ,En4 ,v005
 .byte   W06
 .byte   Fs4 ,v070
 .byte   W06
 .byte   Ds4
 .byte   N06 ,Fs4 ,v005
 .byte   W06
 .byte   Ds4 ,v070
 .byte   W06
@  #11 @064   ----------------------------------------
 .byte   En4
 .byte   N06 ,Ds4 ,v005
 .byte   W06
 .byte   An3 ,v070
 .byte   N06 ,En4 ,v033
 .byte   W06
 .byte   Bn3 ,v070
 .byte   N06 ,En4 ,v005
 .byte   N06 ,An3
 .byte   W06
 .byte   An3 ,v070
 .byte   N06 ,Bn3 ,v005
 .byte   W06
 .byte   An3
 .byte   N12 ,Bn3 ,v070
 .byte   W12
 .byte   N06 ,Bn3 ,v005
 .byte   N12 ,Cn4 ,v070
 .byte   W12
 .byte   Cn4
 .byte   W12
 .byte   N06 ,Cn4 ,v005
 .byte   N12 ,Cs4 ,v070
 .byte   W12
 .byte   N06 ,Cs4 ,v005
 .byte   N12 ,Dn4 ,v070
 .byte   W12
 .byte   N06 ,Dn4 ,v005
 .byte   N12 ,Ds4 ,v070
 .byte   W12
@  #11 @065   ----------------------------------------
 .byte   N06 ,Ds4 ,v005
 .byte   N12 ,En4 ,v070
 .byte   W12
 .byte   N06 ,Ds4
 .byte   N06 ,En4 ,v005
 .byte   W06
 .byte   Dn4 ,v070
 .byte   N06 ,Ds4 ,v005
 .byte   W06
 .byte   Cn4 ,v070
 .byte   N06 ,Dn4 ,v005
 .byte   W06
 .byte   An4 ,v070
 .byte   N06 ,Ds4
 .byte   N06 ,Cn4 ,v005
 .byte   W06
 .byte   Dn4 ,v070
 .byte   N06 ,Ds4 ,v005
 .byte   N06 ,An4
 .byte   W06
 .byte   Cn4 ,v070
 .byte   N06 ,Dn4 ,v005
 .byte   W06
 .byte   An4 ,v070
 .byte   N06 ,Ds4
 .byte   N06 ,Cn4 ,v005
 .byte   W06
 .byte   Dn4 ,v070
 .byte   N06 ,An4 ,v005
 .byte   N06 ,Ds4
 .byte   W06
 .byte   Cn4 ,v070
 .byte   N06 ,Dn4 ,v005
 .byte   W06
 .byte   Ds4 ,v070
 .byte   N06 ,An4
 .byte   N06 ,Cn4 ,v005
 .byte   W06
 .byte   Dn4 ,v070
 .byte   N06 ,Ds4 ,v005
 .byte   N06 ,An4
 .byte   W06
 .byte   Cn4 ,v070
 .byte   N06 ,Dn4 ,v005
 .byte   W06
 .byte   An3 ,v070
 .byte   N06 ,An4
 .byte   N06 ,Cn4 ,v005
 .byte   W06
 .byte   Cn4 ,v070
 .byte   N06 ,An3 ,v005
 .byte   N06 ,An4
 .byte   W06
@  #11 @066   ----------------------------------------
 .byte   An4 ,v070
 .byte   N06 ,Cn4 ,v005
 .byte   W06
 .byte   Bn4 ,v070
 .byte   N06 ,An4 ,v005
 .byte   W06
 .byte   Cn5 ,v070
 .byte   N06 ,Bn4 ,v005
 .byte   W06
 .byte   Gs4 ,v070
 .byte   N06 ,Cn5 ,v005
 .byte   W06
 .byte   An4 ,v070
 .byte   N06 ,Gs4 ,v005
 .byte   W06
 .byte   Ds4 ,v070
 .byte   N06 ,An4 ,v005
 .byte   W06
 .byte   Cn4 ,v070
 .byte   N06 ,Ds4 ,v005
 .byte   W06
 .byte   Gs3 ,v070
 .byte   N06 ,Cn4 ,v005
 .byte   W06
 .byte   An3 ,v070
 .byte   N06 ,Gs3 ,v005
 .byte   W06
 .byte   Bn3 ,v070
 .byte   N06 ,An3 ,v005
 .byte   W06
 .byte   Cn4 ,v070
 .byte   N06 ,Bn3 ,v005
 .byte   W06
 .byte   Cs4 ,v070
 .byte   N06 ,Cn4 ,v005
 .byte   W06
 .byte   Dn4 ,v070
 .byte   N06 ,Cs4 ,v005
 .byte   W06
 .byte   Ds4 ,v070
 .byte   N06 ,Dn4 ,v005
 .byte   W06
 .byte   Fn4 ,v070
 .byte   N06 ,Ds4 ,v005
 .byte   W06
 .byte   Ds4 ,v070
 .byte   N06 ,Fn4 ,v005
 .byte   W06
@  #11 @067   ----------------------------------------
 .byte   En4 ,v070
 .byte   N06 ,Ds4 ,v005
 .byte   W06
 .byte   Fn4 ,v070
 .byte   N06 ,En4 ,v005
 .byte   W06
 .byte   Gs4 ,v070
 .byte   N06 ,Fn4 ,v005
 .byte   W06
 .byte   An4 ,v070
 .byte   N06 ,Gs4 ,v005
 .byte   W06
 .byte   Bn4 ,v070
 .byte   N06 ,An4 ,v005
 .byte   W06
 .byte   Cn5 ,v070
 .byte   N06 ,Bn4 ,v005
 .byte   W06
 .byte   Ds5 ,v070
 .byte   N06 ,Cn5 ,v005
 .byte   W06
 .byte   En5 ,v070
 .byte   N06 ,Ds5 ,v005
 .byte   W06
 .byte   Fn5 ,v070
 .byte   N06 ,En5 ,v005
 .byte   W06
 .byte   En5 ,v070
 .byte   W06
 .byte   Ds5
 .byte   N06 ,En5 ,v005
 .byte   W06
 .byte   En5 ,v070
 .byte   N06 ,Ds5 ,v005
 .byte   W06
 .byte   Bn4 ,v070
 .byte   N06 ,En5 ,v005
 .byte   W06
 .byte   Gs4 ,v070
 .byte   N06 ,Bn4 ,v005
 .byte   W06
 .byte   Dn4 ,v070
 .byte   N06 ,Gs4 ,v005
 .byte   W06
 .byte   Bn3 ,v070
 .byte   N06 ,Dn4 ,v005
 .byte   W06
@  #11 @068   ----------------------------------------
 .byte   Cn4 ,v070
 .byte   N06 ,Bn3 ,v005
 .byte   W06
 .byte   Bn3 ,v070
 .byte   N06 ,Cn4 ,v005
 .byte   W06
 .byte   An3 ,v070
 .byte   N06 ,Bn3 ,v005
 .byte   W06
 .byte   Bn3 ,v070
 .byte   N06 ,An3 ,v005
 .byte   W06
 .byte   Cn4 ,v070
 .byte   N06 ,Bn3 ,v005
 .byte   W06
 .byte   Ds4 ,v070
 .byte   N06 ,Cn4 ,v005
 .byte   W06
 .byte   En4 ,v070
 .byte   N06 ,Ds4 ,v005
 .byte   W06
 .byte   An4 ,v070
 .byte   N06 ,En4 ,v005
 .byte   W06
 .byte   Cn5 ,v070
 .byte   N06 ,An4 ,v005
 .byte   W06
 .byte   Bn4 ,v070
 .byte   N06 ,Cn5 ,v005
 .byte   W06
 .byte   Gs4 ,v070
 .byte   N06 ,Bn4 ,v005
 .byte   W06
 .byte   Bn4 ,v070
 .byte   N06 ,Gs4 ,v005
 .byte   W06
 .byte   An4 ,v070
 .byte   N06 ,Bn4 ,v005
 .byte   W06
 .byte   An4
 .byte   N06 ,Ds4 ,v070
 .byte   W06
 .byte   Ds4 ,v005
 .byte   N06 ,Dn4 ,v070
 .byte   W06
 .byte   Dn4 ,v005
 .byte   N06 ,Cn4 ,v070
 .byte   W06
@  #11 @069   ----------------------------------------
 .byte   N03 ,An3
 .byte   N03 ,Dn4
 .byte   W03
 .byte   Dn4 ,v005
 .byte   N03 ,An3
 .byte   W09
 .byte   N06 ,An3 ,v070
 .byte   N06 ,Dn4
 .byte   W06
 .byte   An3 ,v005
 .byte   N06 ,Cn4 ,v070
 .byte   N06 ,Dn4 ,v005
 .byte   W06
 .byte   N03 ,An3 ,v070
 .byte   N03 ,Dn4
 .byte   W03
 .byte   An3 ,v005
 .byte   N03 ,Dn4
 .byte   W09
 .byte   N06 ,An3 ,v070
 .byte   N06 ,Dn4
 .byte   W06
 .byte   Cn4
 .byte   N06 ,Dn4 ,v005
 .byte   N06 ,An3
 .byte   W06
 .byte   Cn4
 .byte   N12 ,Dn4 ,v070
 .byte   W12
 .byte   N06 ,Dn4 ,v005
 .byte   N12 ,En4 ,v070
 .byte   W12
 .byte   N06 ,En4 ,v005
 .byte   N12 ,An3 ,v070
 .byte   W12
 .byte   N06 ,An3 ,v005
 .byte   N12 ,Cn4 ,v070
 .byte   W12
@  #11 @070   ----------------------------------------
 .byte   N06 ,Cn4 ,v005
 .byte   N12 ,Ds4 ,v070
 .byte   W12
 .byte   N06 ,Fn4
 .byte   N06 ,Ds4 ,v005
 .byte   W06
 .byte   Fn4
 .byte   W06
 .byte   Gn4 ,v070
 .byte   W06
 .byte   N01 ,Gn4 ,v005
 .byte   W06
 .byte   N06 ,An4 ,v070
 .byte   W06
 .byte   N01 ,An4 ,v005
 .byte   W06
 .byte   N06 ,Bn4 ,v070
 .byte   W06
 .byte   Bn4 ,v005
 .byte   W06
 .byte   Cn5 ,v070
 .byte   W06
 .byte   Cn5 ,v005
 .byte   W06
 .byte   Dn5 ,v070
 .byte   W06
 .byte   Dn5 ,v005
 .byte   W06
 .byte   Ds5 ,v070
 .byte   W06
 .byte   Ds5 ,v005
 .byte   W06
@  #11 @071   ----------------------------------------
 .byte   N12 ,En4 ,v016
 .byte   N12 ,En5 ,v070
 .byte   W12
 .byte   En4 ,v031
 .byte   N12 ,En5 ,v070
 .byte   W12
 .byte   En4 ,v048
 .byte   N12 ,En5 ,v070
 .byte   W12
 .byte   En4 ,v069
 .byte   N12 ,En5 ,v070
 .byte   W12
 .byte   N48 ,En4
 .byte   N48 ,En5
 .byte   W48
@  #11 @072   ----------------------------------------
 .byte   W96
@  #11 @073   ----------------------------------------
 .byte   W96
@  #11 @074   ----------------------------------------
 .byte   W96
@  #11 @075   ----------------------------------------
 .byte   W96
@  #11 @076   ----------------------------------------
 .byte   W96
@  #11 @077   ----------------------------------------
 .byte   W96
@  #11 @078   ----------------------------------------
 .byte   W96
@  #11 @079   ----------------------------------------
 .byte   W96
@  #11 @080   ----------------------------------------
 .byte   W96
@  #11 @081   ----------------------------------------
 .byte   W96
@  #11 @082   ----------------------------------------
 .byte   W96
@  #11 @083   ----------------------------------------
 .byte   W96
@  #11 @084   ----------------------------------------
 .byte   W96
@  #11 @085   ----------------------------------------
 .byte   W96
@  #11 @086   ----------------------------------------
 .byte   W24
 .byte   N02 ,Gs4
 .byte   N02 ,Ds4
 .byte   W02
 .byte   N10 ,An4
 .byte   N10 ,En4
 .byte   W10
 .byte   N05 ,An4 ,v005
 .byte   N05 ,En4
 .byte   N06 ,Cn4 ,v070
 .byte   W06
 .byte   N05 ,Cn4 ,v005
 .byte   W06
 .byte   N12 ,An4 ,v070
 .byte   N06 ,Dn4
 .byte   W06
 .byte   N05 ,Dn4 ,v005
 .byte   W06
 .byte   N06 ,Cn4 ,v070
 .byte   N05 ,An4 ,v005
 .byte   W06
 .byte   Cn4
 .byte   W06
 .byte   N06 ,An3 ,v070
 .byte   W06
 .byte   N05 ,An3 ,v005
 .byte   W06
 .byte   N06 ,Cn4 ,v070
 .byte   W06
 .byte   N05 ,Cn4 ,v005
 .byte   W06
@  #11 @087   ----------------------------------------
 .byte   N02 ,Gs4 ,v070
 .byte   N02 ,Ds4
 .byte   W02
 .byte   N10 ,En4
 .byte   N10 ,An4
 .byte   W10
 .byte   N06 ,Cn4
 .byte   N05 ,An4 ,v005
 .byte   N05 ,En4
 .byte   W06
 .byte   Cn4
 .byte   W06
 .byte   N06 ,Dn4 ,v070
 .byte   N12 ,An4
 .byte   W06
 .byte   N05 ,Dn4 ,v005
 .byte   W06
 .byte   N06 ,Cn4 ,v070
 .byte   N05 ,An4 ,v005
 .byte   W06
 .byte   Cn4
 .byte   W54
@  #11 @088   ----------------------------------------
 .byte   GOTO
  .word Label_0100A85A
 .byte   FINE

@**************** Track 12 (Midi-Chn.11) ****************@

song02_012:
@  #12 @000   ----------------------------------------
 .byte   KEYSH , song02_key+0
Label_010030FE:
 .byte   VOICE , 1
 .byte   BENDR, 12
 .byte   PAN , c_v+22
 .byte   VOL , 18*song02_mvl/mxv
 .byte   W96
@  #12 @001   ----------------------------------------
 .byte   W96
@  #12 @002   ----------------------------------------
 .byte   W96
@  #12 @003   ----------------------------------------
 .byte   W96
@  #12 @004   ----------------------------------------
 .byte   W96
@  #12 @005   ----------------------------------------
 .byte   W96
@  #12 @006   ----------------------------------------
 .byte   W96
@  #12 @007   ----------------------------------------
 .byte   W96
@  #12 @008   ----------------------------------------
 .byte   W96
@  #12 @009   ----------------------------------------
 .byte   W96
@  #12 @010   ----------------------------------------
 .byte   W96
@  #12 @011   ----------------------------------------
 .byte   W96
@  #12 @012   ----------------------------------------
 .byte   W96
@  #12 @013   ----------------------------------------
 .byte   W96
@  #12 @014   ----------------------------------------
 .byte   W96
@  #12 @015   ----------------------------------------
 .byte   W96
@  #12 @016   ----------------------------------------
 .byte   W96
@  #12 @017   ----------------------------------------
 .byte   W96
@  #12 @018   ----------------------------------------
 .byte   W96
@  #12 @019   ----------------------------------------
 .byte   W96
@  #12 @020   ----------------------------------------
 .byte   W96
@  #12 @021   ----------------------------------------
 .byte   W96
@  #12 @022   ----------------------------------------
 .byte   W96
@  #12 @023   ----------------------------------------
 .byte   W96
@  #12 @024   ----------------------------------------
 .byte   W96
@  #12 @025   ----------------------------------------
 .byte   W96
@  #12 @026   ----------------------------------------
 .byte   W96
@  #12 @027   ----------------------------------------
 .byte   W96
@  #12 @028   ----------------------------------------
 .byte   W96
@  #12 @029   ----------------------------------------
 .byte   W96
@  #12 @030   ----------------------------------------
 .byte   W96
@  #12 @031   ----------------------------------------
 .byte   W96
@  #12 @032   ----------------------------------------
 .byte   W96
@  #12 @033   ----------------------------------------
 .byte   W96
@  #12 @034   ----------------------------------------
 .byte   W96
@  #12 @035   ----------------------------------------
 .byte   W96
@  #12 @036   ----------------------------------------
 .byte   W96
@  #12 @037   ----------------------------------------
 .byte   W96
@  #12 @038   ----------------------------------------
Label_0100312C:
 .byte   W30
 .byte   N02 ,Ds4 ,v080
 .byte   W02
 .byte   N10 ,En4
 .byte   W10
 .byte   N06 ,Cn4
 .byte   N05 ,En4 ,v006
 .byte   W06
 .byte   Cn4
 .byte   W06
 .byte   N06 ,Dn4 ,v080
 .byte   W06
 .byte   N05 ,Dn4 ,v006
 .byte   W06
 .byte   N06 ,Cn4 ,v080
 .byte   W06
 .byte   N05 ,Cn4 ,v006
 .byte   W06
 .byte   N06 ,An3 ,v080
 .byte   W06
 .byte   N05 ,An3 ,v006
 .byte   W06
 .byte   N06 ,Cn4 ,v080
 .byte   W06
 .byte   PEND 
@  #12 @039   ----------------------------------------
Label_01003159:
 .byte   N05 ,Cn4 ,v006
 .byte   W06
 .byte   N02 ,Ds4 ,v080
 .byte   W02
 .byte   N10 ,En4
 .byte   W10
 .byte   N06 ,Cn4
 .byte   W12
 .byte   Dn4
 .byte   W06
 .byte   N05 ,Dn4 ,v006
 .byte   W06
 .byte   N06 ,Cn4 ,v080
 .byte   W06
 .byte   N05 ,Cn4 ,v006
 .byte   W48
 .byte   PEND 
@  #12 @040   ----------------------------------------
 .byte   W96
@  #12 @041   ----------------------------------------
 .byte   W96
@  #12 @042   ----------------------------------------
 .byte   W96
@  #12 @043   ----------------------------------------
 .byte   W96
@  #12 @044   ----------------------------------------
 .byte   W96
@  #12 @045   ----------------------------------------
 .byte   W96
@  #12 @046   ----------------------------------------
 .byte   W96
@  #12 @047   ----------------------------------------
 .byte   W96
@  #12 @048   ----------------------------------------
 .byte   W96
@  #12 @049   ----------------------------------------
 .byte   W96
@  #12 @050   ----------------------------------------
 .byte   W96
@  #12 @051   ----------------------------------------
 .byte   W96
@  #12 @052   ----------------------------------------
 .byte   W96
@  #12 @053   ----------------------------------------
 .byte   W96
@  #12 @054   ----------------------------------------
 .byte   W96
@  #12 @055   ----------------------------------------
 .byte   W96
@  #12 @056   ----------------------------------------
 .byte   W96
@  #12 @057   ----------------------------------------
 .byte   W96
@  #12 @058   ----------------------------------------
 .byte   W96
@  #12 @059   ----------------------------------------
 .byte   W96
@  #12 @060   ----------------------------------------
 .byte   W96
@  #12 @061   ----------------------------------------
 .byte   W96
@  #12 @062   ----------------------------------------
 .byte   W96
@  #12 @063   ----------------------------------------
 .byte   W96
@  #12 @064   ----------------------------------------
 .byte   W96
@  #12 @065   ----------------------------------------
 .byte   W96
@  #12 @066   ----------------------------------------
 .byte   W96
@  #12 @067   ----------------------------------------
 .byte   W96
@  #12 @068   ----------------------------------------
 .byte   W96
@  #12 @069   ----------------------------------------
 .byte   W96
@  #12 @070   ----------------------------------------
 .byte   W96
@  #12 @071   ----------------------------------------
 .byte   W96
@  #12 @072   ----------------------------------------
 .byte   W96
@  #12 @073   ----------------------------------------
 .byte   W96
@  #12 @074   ----------------------------------------
 .byte   W96
@  #12 @075   ----------------------------------------
 .byte   W96
@  #12 @076   ----------------------------------------
 .byte   W96
@  #12 @077   ----------------------------------------
 .byte   W96
@  #12 @078   ----------------------------------------
 .byte   W96
@  #12 @079   ----------------------------------------
 .byte   W96
@  #12 @080   ----------------------------------------
 .byte   W96
@  #12 @081   ----------------------------------------
 .byte   W96
@  #12 @082   ----------------------------------------
 .byte   W96
@  #12 @083   ----------------------------------------
 .byte   W96
@  #12 @084   ----------------------------------------
 .byte   W96
@  #12 @085   ----------------------------------------
 .byte   W96
@  #12 @086   ----------------------------------------
 .byte   PATT
  .word Label_0100312C
@  #12 @087   ----------------------------------------
 .byte   PATT
  .word Label_01003159
@  #12 @088   ----------------------------------------
 .byte   GOTO
  .word Label_010030FE
 .byte   FINE

@**************** Track 13 (Midi-Chn.12) ****************@

song02_013:
@  #13 @000   ----------------------------------------
 .byte   KEYSH , song02_key+0
Label_0100AE72:
 .byte   VOICE , 18
 .byte   BENDR, 12
 .byte   PAN , c_v+31
 .byte   VOL , 18*song02_mvl/mxv
 .byte   W96
@  #13 @001   ----------------------------------------
 .byte   W96
@  #13 @002   ----------------------------------------
 .byte   W96
@  #13 @003   ----------------------------------------
 .byte   W96
@  #13 @004   ----------------------------------------
 .byte   W96
@  #13 @005   ----------------------------------------
 .byte   W96
@  #13 @006   ----------------------------------------
 .byte   W96
@  #13 @007   ----------------------------------------
 .byte   W96
@  #13 @008   ----------------------------------------
 .byte   W96
@  #13 @009   ----------------------------------------
 .byte   W96
@  #13 @010   ----------------------------------------
 .byte   W96
@  #13 @011   ----------------------------------------
 .byte   W96
@  #13 @012   ----------------------------------------
 .byte   W96
@  #13 @013   ----------------------------------------
 .byte   W96
@  #13 @014   ----------------------------------------
 .byte   W96
@  #13 @015   ----------------------------------------
 .byte   W96
@  #13 @016   ----------------------------------------
 .byte   W96
@  #13 @017   ----------------------------------------
 .byte   W96
@  #13 @018   ----------------------------------------
 .byte   W96
@  #13 @019   ----------------------------------------
 .byte   W96
@  #13 @020   ----------------------------------------
 .byte   W96
@  #13 @021   ----------------------------------------
 .byte   W96
@  #13 @022   ----------------------------------------
 .byte   W96
@  #13 @023   ----------------------------------------
 .byte   W96
@  #13 @024   ----------------------------------------
 .byte   W96
@  #13 @025   ----------------------------------------
 .byte   W96
@  #13 @026   ----------------------------------------
 .byte   W96
@  #13 @027   ----------------------------------------
 .byte   W96
@  #13 @028   ----------------------------------------
 .byte   W96
@  #13 @029   ----------------------------------------
 .byte   W96
@  #13 @030   ----------------------------------------
 .byte   W96
@  #13 @031   ----------------------------------------
 .byte   W96
@  #13 @032   ----------------------------------------
 .byte   W96
@  #13 @033   ----------------------------------------
 .byte   W96
@  #13 @034   ----------------------------------------
 .byte   W96
@  #13 @035   ----------------------------------------
 .byte   W96
@  #13 @036   ----------------------------------------
 .byte   W96
@  #13 @037   ----------------------------------------
 .byte   W96
@  #13 @038   ----------------------------------------
 .byte   W96
@  #13 @039   ----------------------------------------
 .byte   W96
@  #13 @040   ----------------------------------------
 .byte   W96
@  #13 @041   ----------------------------------------
 .byte   W96
@  #13 @042   ----------------------------------------
 .byte   W96
@  #13 @043   ----------------------------------------
 .byte   W96
@  #13 @044   ----------------------------------------
 .byte   W96
@  #13 @045   ----------------------------------------
 .byte   W96
@  #13 @046   ----------------------------------------
 .byte   W96
@  #13 @047   ----------------------------------------
 .byte   W96
@  #13 @048   ----------------------------------------
 .byte   W96
@  #13 @049   ----------------------------------------
 .byte   W96
@  #13 @050   ----------------------------------------
 .byte   W96
@  #13 @051   ----------------------------------------
 .byte   W96
@  #13 @052   ----------------------------------------
 .byte   W96
@  #13 @053   ----------------------------------------
 .byte   W96
@  #13 @054   ----------------------------------------
 .byte   W96
@  #13 @055   ----------------------------------------
 .byte   W96
@  #13 @056   ----------------------------------------
 .byte   N06 ,An5 ,v070
 .byte   W06
 .byte   An5 ,v005
 .byte   N06 ,Gn5 ,v070
 .byte   W06
 .byte   Gn5 ,v005
 .byte   N06 ,An5 ,v070
 .byte   W06
 .byte   An5 ,v005
 .byte   N06 ,Cn6 ,v070
 .byte   W06
 .byte   Cn6 ,v005
 .byte   N06 ,An5 ,v070
 .byte   W06
 .byte   An5 ,v005
 .byte   N06 ,Gn5 ,v070
 .byte   W06
 .byte   Gn5 ,v005
 .byte   N06 ,An5 ,v070
 .byte   W06
 .byte   An5 ,v005
 .byte   N06 ,Cn6 ,v070
 .byte   W06
 .byte   Cn6 ,v005
 .byte   N06 ,An5 ,v070
 .byte   W06
 .byte   An5 ,v005
 .byte   N06 ,Gn5 ,v070
 .byte   W06
 .byte   Gn5 ,v005
 .byte   N06 ,An5 ,v070
 .byte   W06
 .byte   An5 ,v005
 .byte   N06 ,Cn6 ,v070
 .byte   W06
 .byte   Cn6 ,v005
 .byte   N06 ,An5 ,v070
 .byte   W06
 .byte   An5 ,v005
 .byte   N06 ,Gn5 ,v070
 .byte   W06
 .byte   Gn5 ,v005
 .byte   N06 ,An5 ,v070
 .byte   W06
 .byte   An5 ,v005
 .byte   N06 ,Cn6 ,v070
 .byte   W06
@  #13 @057   ----------------------------------------
 .byte   Cn6 ,v005
 .byte   N06 ,An5 ,v070
 .byte   W06
 .byte   An5 ,v005
 .byte   N06 ,Gn5 ,v070
 .byte   W06
 .byte   Gn5 ,v005
 .byte   N06 ,An5 ,v070
 .byte   W06
 .byte   An5 ,v005
 .byte   N06 ,Cn6 ,v070
 .byte   W06
 .byte   Cn6 ,v005
 .byte   N06 ,An5 ,v070
 .byte   W06
 .byte   An5 ,v005
 .byte   N06 ,Gn5 ,v070
 .byte   W06
 .byte   Gn5 ,v005
 .byte   N06 ,En5 ,v070
 .byte   W06
 .byte   En5 ,v005
 .byte   N06 ,Ds5 ,v070
 .byte   W06
 .byte   Ds5 ,v005
 .byte   N06 ,Dn5 ,v070
 .byte   W06
 .byte   Dn5 ,v005
 .byte   N06 ,Cn5 ,v070
 .byte   W06
 .byte   Cn5 ,v005
 .byte   N06 ,An4 ,v070
 .byte   W06
 .byte   An4 ,v005
 .byte   N06 ,Gs4 ,v070
 .byte   W06
 .byte   Gs4 ,v005
 .byte   N06 ,Ds4 ,v070
 .byte   W06
 .byte   Ds4 ,v005
 .byte   N06 ,Dn4 ,v070
 .byte   W06
 .byte   Dn4 ,v005
 .byte   N06 ,Cn4 ,v070
 .byte   W06
 .byte   Cn4 ,v005
 .byte   N06 ,An3 ,v070
 .byte   W06
@  #13 @058   ----------------------------------------
 .byte   An3 ,v005
 .byte   N06 ,Dn4 ,v070
 .byte   W06
 .byte   Dn4 ,v005
 .byte   N06 ,Ds4 ,v070
 .byte   W06
 .byte   Ds4 ,v005
 .byte   N06 ,En4 ,v070
 .byte   W06
 .byte   En4 ,v005
 .byte   N06 ,Gn4 ,v070
 .byte   W06
 .byte   Gn4 ,v005
 .byte   N06 ,An4 ,v070
 .byte   W06
 .byte   An4 ,v005
 .byte   N06 ,Gn4 ,v070
 .byte   W06
 .byte   Gn4 ,v005
 .byte   N06 ,An4 ,v070
 .byte   W06
 .byte   An4 ,v005
 .byte   N06 ,Cn5 ,v070
 .byte   W06
 .byte   Dn5
 .byte   N06 ,Cn5 ,v005
 .byte   W06
 .byte   Ds5 ,v070
 .byte   N06 ,Dn5 ,v005
 .byte   W06
 .byte   Fn5 ,v070
 .byte   N06 ,Ds5 ,v005
 .byte   W06
 .byte   Gn5 ,v070
 .byte   N06 ,Fn5 ,v005
 .byte   W06
 .byte   An5 ,v070
 .byte   N06 ,Gn5 ,v005
 .byte   W06
 .byte   Cn6 ,v070
 .byte   N06 ,An5 ,v005
 .byte   W06
 .byte   Dn6 ,v070
 .byte   N06 ,Cn6 ,v005
 .byte   W06
 .byte   Ds6 ,v070
 .byte   N06 ,Dn6 ,v005
 .byte   W06
@  #13 @059   ----------------------------------------
 .byte   N18 ,Gs5 ,v070
 .byte   N18 ,Ds6
 .byte   W18
 .byte   N30 ,En6
 .byte   N30 ,Gs5
 .byte   W30
 .byte   En6 ,v023
 .byte   N30 ,Gs5
 .byte   W36
 .byte   N06 ,An6 ,v070
 .byte   W06
 .byte   An6 ,v005
 .byte   N06 ,Gn6 ,v070
 .byte   W06
@  #13 @060   ----------------------------------------
 .byte   Gn6 ,v005
 .byte   N06 ,Ds6 ,v070
 .byte   W06
 .byte   Ds6 ,v005
 .byte   N06 ,Dn6 ,v070
 .byte   W06
 .byte   Dn6 ,v005
 .byte   N06 ,Cn6 ,v070
 .byte   W06
 .byte   Cn6 ,v005
 .byte   N06 ,Ds6 ,v070
 .byte   W06
 .byte   Ds6 ,v005
 .byte   N06 ,Dn6 ,v070
 .byte   W06
 .byte   Dn6 ,v005
 .byte   N06 ,Cn6 ,v070
 .byte   W06
 .byte   Cn6 ,v005
 .byte   N06 ,An5 ,v070
 .byte   N06 ,Ds6
 .byte   W06
 .byte   An5 ,v005
 .byte   N06 ,Ds6
 .byte   N06 ,Dn6 ,v070
 .byte   W06
 .byte   Dn6 ,v005
 .byte   N06 ,Cn6 ,v070
 .byte   W06
 .byte   Cn6 ,v005
 .byte   N06 ,An5 ,v070
 .byte   N06 ,Ds6
 .byte   W06
 .byte   Ds6 ,v005
 .byte   N06 ,An5
 .byte   N06 ,Dn6 ,v070
 .byte   W06
 .byte   Dn6 ,v005
 .byte   N06 ,Cn6 ,v070
 .byte   W06
 .byte   Cn6 ,v005
 .byte   N06 ,Ds6 ,v070
 .byte   N06 ,An5
 .byte   W06
 .byte   Ds6 ,v005
 .byte   N06 ,An5
 .byte   N06 ,Dn6 ,v070
 .byte   W06
 .byte   Dn6 ,v005
 .byte   N06 ,Cn6 ,v070
 .byte   W06
 .byte   Cn6 ,v005
 .byte   N06 ,An5 ,v070
 .byte   W06
@  #13 @061   ----------------------------------------
 .byte   An5 ,v005
 .byte   N06 ,Gs5 ,v070
 .byte   W06
 .byte   Gs5 ,v005
 .byte   N06 ,An5 ,v070
 .byte   W06
 .byte   An5 ,v005
 .byte   N04 ,Ds5 ,v070
 .byte   W04
 .byte   N02 ,Ds5 ,v005
 .byte   N04 ,Dn5 ,v070
 .byte   W04
 .byte   Dn5 ,v005
 .byte   N04 ,Cn5 ,v070
 .byte   W04
 .byte   N06 ,Cn5 ,v005
 .byte   N06 ,Dn5 ,v070
 .byte   W06
 .byte   Dn5 ,v005
 .byte   N06 ,Ds5 ,v070
 .byte   W06
 .byte   Ds5 ,v005
 .byte   N04 ,Cn5 ,v070
 .byte   W04
 .byte   N02 ,Cn5 ,v005
 .byte   N04 ,An4 ,v070
 .byte   W04
 .byte   An4 ,v005
 .byte   N04 ,Gs4 ,v070
 .byte   W04
 .byte   N06 ,Gs4 ,v005
 .byte   N06 ,Gn4 ,v070
 .byte   W06
 .byte   An4
 .byte   W06
 .byte   An4 ,v005
 .byte   N04 ,En4 ,v070
 .byte   W04
 .byte   N02 ,En4 ,v005
 .byte   N04 ,Dn4 ,v070
 .byte   W04
 .byte   Dn4 ,v005
 .byte   N04 ,Cn4 ,v070
 .byte   W04
 .byte   N06 ,Cn4 ,v005
 .byte   N06 ,Dn4 ,v070
 .byte   W06
 .byte   Dn4 ,v005
 .byte   N06 ,Cn4 ,v070
 .byte   W06
 .byte   Cn4 ,v005
 .byte   N06 ,An3 ,v070
 .byte   W06
 .byte   An3 ,v005
 .byte   N06 ,Gn3 ,v070
 .byte   W06
@  #13 @062   ----------------------------------------
 .byte   Gn3 ,v005
 .byte   N06 ,An4 ,v070
 .byte   W06
 .byte   An4 ,v033
 .byte   W06
 .byte   An4 ,v005
 .byte   N06 ,Gn4 ,v070
 .byte   W06
 .byte   Gn4 ,v033
 .byte   W06
 .byte   Gn4 ,v005
 .byte   N06 ,Cn5 ,v070
 .byte   W06
 .byte   Cn5 ,v033
 .byte   W06
 .byte   Cn5 ,v005
 .byte   N06 ,Gn4 ,v070
 .byte   W06
 .byte   Gn4 ,v033
 .byte   W06
 .byte   Gn4 ,v005
 .byte   N06 ,An4 ,v070
 .byte   W06
 .byte   An4 ,v033
 .byte   W06
 .byte   An4 ,v005
 .byte   N06 ,Gn4 ,v070
 .byte   W06
 .byte   Gn4 ,v033
 .byte   W06
 .byte   Gn4 ,v005
 .byte   N06 ,Cn5 ,v070
 .byte   W06
 .byte   Cn5 ,v033
 .byte   W06
 .byte   Cn5 ,v005
 .byte   N06 ,Dn5 ,v070
 .byte   W06
 .byte   Dn5 ,v033
 .byte   W06
@  #13 @063   ----------------------------------------
 .byte   Dn5 ,v005
 .byte   N06 ,Ds5 ,v070
 .byte   W06
 .byte   Ds5 ,v033
 .byte   W06
 .byte   Ds5 ,v005
 .byte   N06 ,Cn5 ,v070
 .byte   W06
 .byte   Cn5 ,v033
 .byte   W06
 .byte   Cn5 ,v005
 .byte   N06 ,Dn5 ,v070
 .byte   W06
 .byte   Dn5 ,v033
 .byte   W06
 .byte   Dn5 ,v005
 .byte   N06 ,Cn5 ,v070
 .byte   W06
 .byte   Cn5 ,v033
 .byte   W06
 .byte   Cn5 ,v005
 .byte   N06 ,Ds5 ,v070
 .byte   W06
 .byte   Ds5 ,v033
 .byte   W06
 .byte   Ds5 ,v005
 .byte   N06 ,En5 ,v070
 .byte   W06
 .byte   En5 ,v033
 .byte   W06
 .byte   En5 ,v005
 .byte   N06 ,Fs5 ,v070
 .byte   W06
 .byte   Fs5 ,v033
 .byte   W06
 .byte   Fs5 ,v005
 .byte   N06 ,Ds5 ,v070
 .byte   W06
 .byte   Ds5 ,v033
 .byte   W06
@  #13 @064   ----------------------------------------
 .byte   Ds5 ,v005
 .byte   N06 ,En5 ,v070
 .byte   W06
 .byte   En5 ,v033
 .byte   N06 ,An4 ,v070
 .byte   W06
 .byte   An4 ,v005
 .byte   N06 ,En5
 .byte   N06 ,Bn4 ,v070
 .byte   W06
 .byte   Bn4 ,v005
 .byte   N06 ,An4 ,v070
 .byte   W06
 .byte   An4 ,v005
 .byte   N12 ,Bn4 ,v070
 .byte   W12
 .byte   N06 ,Bn4 ,v005
 .byte   N12 ,Cn5 ,v070
 .byte   W12
 .byte   Cn5
 .byte   W12
 .byte   N06 ,Cn5 ,v005
 .byte   N12 ,Cs5 ,v070
 .byte   W12
 .byte   N06 ,Cs5 ,v005
 .byte   N12 ,Dn5 ,v070
 .byte   W12
 .byte   N06 ,Dn5 ,v005
 .byte   N12 ,Ds5 ,v070
 .byte   W12
@  #13 @065   ----------------------------------------
 .byte   N06 ,Ds5 ,v005
 .byte   N12 ,En5 ,v070
 .byte   W12
 .byte   N06 ,En5 ,v005
 .byte   N06 ,Ds5 ,v070
 .byte   W06
 .byte   Ds5 ,v005
 .byte   N06 ,Dn5 ,v070
 .byte   W06
 .byte   Dn5 ,v005
 .byte   N06 ,Cn5 ,v070
 .byte   W06
 .byte   Cn5 ,v005
 .byte   N06 ,Ds5 ,v070
 .byte   N06 ,An5
 .byte   W06
 .byte   An5 ,v005
 .byte   N06 ,Ds5
 .byte   N06 ,Dn5 ,v070
 .byte   W06
 .byte   Dn5 ,v005
 .byte   N06 ,Cn5 ,v070
 .byte   W06
 .byte   Cn5 ,v005
 .byte   N06 ,Ds5 ,v070
 .byte   N06 ,An5
 .byte   W06
 .byte   Ds5 ,v005
 .byte   N06 ,An5
 .byte   N06 ,Dn5 ,v070
 .byte   W06
 .byte   Dn5 ,v005
 .byte   N06 ,Cn5 ,v070
 .byte   W06
 .byte   Cn5 ,v005
 .byte   N06 ,An5 ,v070
 .byte   N06 ,Ds5
 .byte   W06
 .byte   An5 ,v005
 .byte   N06 ,Ds5
 .byte   N06 ,Dn5 ,v070
 .byte   W06
 .byte   Dn5 ,v005
 .byte   N06 ,Cn5 ,v070
 .byte   W06
 .byte   Cn5 ,v005
 .byte   N06 ,An5 ,v070
 .byte   N06 ,An4
 .byte   W06
 .byte   An5 ,v005
 .byte   N06 ,An4
 .byte   N06 ,Cn5 ,v070
 .byte   W06
@  #13 @066   ----------------------------------------
 .byte   Cn5 ,v005
 .byte   N06 ,An5 ,v070
 .byte   W06
 .byte   An5 ,v005
 .byte   N06 ,Bn5 ,v070
 .byte   W06
 .byte   Bn5 ,v005
 .byte   N06 ,Cn6 ,v070
 .byte   W06
 .byte   Cn6 ,v005
 .byte   N06 ,Gs5 ,v070
 .byte   W06
 .byte   Gs5 ,v005
 .byte   N06 ,An5 ,v070
 .byte   W06
 .byte   An5 ,v005
 .byte   N06 ,Ds5 ,v070
 .byte   W06
 .byte   Ds5 ,v005
 .byte   N06 ,Cn5 ,v070
 .byte   W06
 .byte   Cn5 ,v005
 .byte   N06 ,Gs4 ,v070
 .byte   W06
 .byte   Gs4 ,v005
 .byte   N06 ,An4 ,v070
 .byte   W06
 .byte   An4 ,v005
 .byte   N06 ,Bn4 ,v070
 .byte   W06
 .byte   Bn4 ,v005
 .byte   N06 ,Cn5 ,v070
 .byte   W06
 .byte   Cn5 ,v005
 .byte   N06 ,Cs5 ,v070
 .byte   W06
 .byte   Cs5 ,v005
 .byte   N06 ,Dn5 ,v070
 .byte   W06
 .byte   Dn5 ,v005
 .byte   N06 ,Ds5 ,v070
 .byte   W06
 .byte   Ds5 ,v005
 .byte   N06 ,Fn5 ,v070
 .byte   W06
 .byte   Fn5 ,v005
 .byte   N06 ,Ds5 ,v070
 .byte   W06
@  #13 @067   ----------------------------------------
 .byte   Ds5 ,v005
 .byte   N06 ,En5 ,v070
 .byte   W06
 .byte   En5 ,v005
 .byte   N06 ,Fn5 ,v070
 .byte   W06
 .byte   Fn5 ,v005
 .byte   N06 ,Gs5 ,v070
 .byte   W06
 .byte   Gs5 ,v005
 .byte   N06 ,An5 ,v070
 .byte   W06
 .byte   An5 ,v005
 .byte   N06 ,Bn5 ,v070
 .byte   W06
 .byte   Bn5 ,v005
 .byte   N06 ,Cn6 ,v070
 .byte   W06
 .byte   Cn6 ,v005
 .byte   N06 ,Ds6 ,v070
 .byte   W06
 .byte   Ds6 ,v005
 .byte   N06 ,En6 ,v070
 .byte   W06
 .byte   En6 ,v005
 .byte   N06 ,Fn6 ,v070
 .byte   W06
 .byte   En6
 .byte   W06
 .byte   En6 ,v005
 .byte   N06 ,Ds6 ,v070
 .byte   W06
 .byte   Ds6 ,v005
 .byte   N06 ,En6 ,v070
 .byte   W06
 .byte   En6 ,v005
 .byte   N06 ,Bn5 ,v070
 .byte   W06
 .byte   Bn5 ,v005
 .byte   N06 ,Gs5 ,v070
 .byte   W06
 .byte   Gs5 ,v005
 .byte   N06 ,Dn5 ,v070
 .byte   W06
 .byte   Dn5 ,v005
 .byte   N06 ,Bn4 ,v070
 .byte   W06
@  #13 @068   ----------------------------------------
 .byte   Bn4 ,v005
 .byte   N06 ,Cn5 ,v070
 .byte   W06
 .byte   Cn5 ,v005
 .byte   N06 ,Bn4 ,v070
 .byte   W06
 .byte   Bn4 ,v005
 .byte   N06 ,An4 ,v070
 .byte   W06
 .byte   An4 ,v005
 .byte   N06 ,Bn4 ,v070
 .byte   W06
 .byte   Bn4 ,v005
 .byte   N06 ,Cn5 ,v070
 .byte   W06
 .byte   Cn5 ,v005
 .byte   N06 ,Ds5 ,v070
 .byte   W06
 .byte   Ds5 ,v005
 .byte   N06 ,En5 ,v070
 .byte   W06
 .byte   En5 ,v005
 .byte   N06 ,An5 ,v070
 .byte   W06
 .byte   An5 ,v005
 .byte   N06 ,Cn6 ,v070
 .byte   W06
 .byte   Cn6 ,v005
 .byte   N06 ,Bn5 ,v070
 .byte   W06
 .byte   Bn5 ,v005
 .byte   N06 ,Gs5 ,v070
 .byte   W06
 .byte   Gs5 ,v005
 .byte   N06 ,Bn5 ,v070
 .byte   W06
 .byte   Bn5 ,v005
 .byte   N06 ,An5 ,v070
 .byte   W06
 .byte   Ds5
 .byte   N06 ,An5 ,v005
 .byte   W06
 .byte   Dn5 ,v070
 .byte   N06 ,Ds5 ,v005
 .byte   W06
 .byte   Cn5 ,v070
 .byte   N06 ,Dn5 ,v005
 .byte   W06
@  #13 @069   ----------------------------------------
 .byte   N03 ,Dn5 ,v070
 .byte   N03 ,An4
 .byte   W03
 .byte   Dn5 ,v005
 .byte   N03 ,An4
 .byte   W09
 .byte   N06 ,Dn5 ,v070
 .byte   N06 ,An4
 .byte   W06
 .byte   Dn5 ,v005
 .byte   N06 ,Cn5 ,v070
 .byte   N06 ,An4 ,v005
 .byte   W06
 .byte   N03 ,Dn5 ,v070
 .byte   N03 ,An4
 .byte   W03
 .byte   An4 ,v005
 .byte   N03 ,Dn5
 .byte   W09
 .byte   N06 ,Dn5 ,v070
 .byte   N06 ,An4
 .byte   W06
 .byte   An4 ,v005
 .byte   N06 ,Dn5
 .byte   N06 ,Cn5 ,v070
 .byte   W06
 .byte   Cn5 ,v005
 .byte   N12 ,Dn5 ,v070
 .byte   W12
 .byte   N06 ,Dn5 ,v005
 .byte   N12 ,En5 ,v070
 .byte   W12
 .byte   N06 ,En5 ,v005
 .byte   N12 ,An4 ,v070
 .byte   W12
 .byte   N06 ,An4 ,v005
 .byte   N12 ,Cn5 ,v070
 .byte   W12
@  #13 @070   ----------------------------------------
 .byte   N06 ,Cn5 ,v005
 .byte   N12 ,Ds5 ,v070
 .byte   W12
 .byte   N06 ,Ds5 ,v005
 .byte   N06 ,Fn5 ,v070
 .byte   W06
 .byte   Fn5 ,v005
 .byte   W06
 .byte   Gn5 ,v070
 .byte   W06
 .byte   N01 ,Gn5 ,v005
 .byte   W06
 .byte   N06 ,An5 ,v070
 .byte   W06
 .byte   N01 ,An5 ,v005
 .byte   W06
 .byte   N06 ,Bn5 ,v070
 .byte   W06
 .byte   Bn5 ,v005
 .byte   W06
 .byte   Cn6 ,v070
 .byte   W06
 .byte   Cn6 ,v005
 .byte   W06
 .byte   Dn6 ,v070
 .byte   W06
 .byte   Dn6 ,v005
 .byte   W06
 .byte   Ds6 ,v070
 .byte   W06
 .byte   Ds6 ,v005
 .byte   W06
@  #13 @071   ----------------------------------------
 .byte   N12 ,En5 ,v016
 .byte   N12 ,En6 ,v070
 .byte   W12
 .byte   En5 ,v031
 .byte   N12 ,En6 ,v070
 .byte   W12
 .byte   En5 ,v048
 .byte   N12 ,En6 ,v070
 .byte   W12
 .byte   En5 ,v069
 .byte   N12 ,En6 ,v070
 .byte   W12
 .byte   N24 ,En5
 .byte   N24 ,En6
 .byte   W24
 .byte   En6 ,v033
 .byte   N24 ,En5
 .byte   W24
@  #13 @072   ----------------------------------------
 .byte   W96
@  #13 @073   ----------------------------------------
 .byte   W96
@  #13 @074   ----------------------------------------
 .byte   W96
@  #13 @075   ----------------------------------------
 .byte   W96
@  #13 @076   ----------------------------------------
 .byte   W96
@  #13 @077   ----------------------------------------
 .byte   W96
@  #13 @078   ----------------------------------------
 .byte   W96
@  #13 @079   ----------------------------------------
 .byte   W96
@  #13 @080   ----------------------------------------
 .byte   W96
@  #13 @081   ----------------------------------------
 .byte   W96
@  #13 @082   ----------------------------------------
 .byte   W96
@  #13 @083   ----------------------------------------
 .byte   W96
@  #13 @084   ----------------------------------------
 .byte   W96
@  #13 @085   ----------------------------------------
 .byte   W96
@  #13 @086   ----------------------------------------
 .byte   W96
@  #13 @087   ----------------------------------------
 .byte   W96
@  #13 @088   ----------------------------------------
 .byte   GOTO
  .word Label_0100AE72
 .byte   FINE

@**************** Track 14 (Midi-Chn.13) ****************@

song02_014:
@  #14 @000   ----------------------------------------
 .byte   KEYSH , song02_key+0
Label_0100415E:
 .byte   VOICE , 0
 .byte   BENDR, 12
 .byte   PAN , c_v-12
 .byte   VOL , 87*song02_mvl/mxv
 .byte   W12
 .byte   N12 ,An1 ,v041
 .byte   W24
 .byte   An1
 .byte   W24
 .byte   An1
 .byte   W24
 .byte   An1
 .byte   W12
@  #14 @001   ----------------------------------------
Label_01004171:
 .byte   W12
 .byte   N12 ,Cn2 ,v041
 .byte   W24
 .byte   Cn2
 .byte   W24
 .byte   Cn2
 .byte   W24
 .byte   Cn2
 .byte   W12
 .byte   PEND 
@  #14 @002   ----------------------------------------
Label_0100417D:
 .byte   W12
 .byte   N12 ,Fn1 ,v041
 .byte   W24
 .byte   Fn1
 .byte   W24
 .byte   Fn1
 .byte   W24
 .byte   Fn1
 .byte   W12
 .byte   PEND 
@  #14 @003   ----------------------------------------
 .byte   W12
 .byte   En1
 .byte   W24
 .byte   En1
 .byte   W24
 .byte   En1
 .byte   W24
 .byte   En1
 .byte   W12
@  #14 @004   ----------------------------------------
Label_01004192:
 .byte   W12
 .byte   N12 ,An1 ,v041
 .byte   W24
 .byte   An1
 .byte   W24
 .byte   An1
 .byte   W24
 .byte   An1
 .byte   W12
 .byte   PEND 
@  #14 @005   ----------------------------------------
 .byte   PATT
  .word Label_01004171
@  #14 @006   ----------------------------------------
 .byte   PATT
  .word Label_0100417D
@  #14 @007   ----------------------------------------
 .byte   W12
 .byte   N12 ,En1 ,v041
 .byte   W24
 .byte   En1
 .byte   W24
 .byte   En1
 .byte   W12
 .byte   N24 ,En1 ,v042
 .byte   N24 ,Bn1
 .byte   N24 ,En2
 .byte   W24
@  #14 @008   ----------------------------------------
Label_010041B9:
 .byte   W12
 .byte   N06 ,An1 ,v042
 .byte   W24
 .byte   An1
 .byte   W24
 .byte   An1
 .byte   W24
 .byte   An1
 .byte   W12
 .byte   PEND 
@  #14 @009   ----------------------------------------
Label_010041C5:
 .byte   W12
 .byte   N06 ,Cn2 ,v042
 .byte   W24
 .byte   Cn2
 .byte   W24
 .byte   Cn2
 .byte   W24
 .byte   Cn2
 .byte   W12
 .byte   PEND 
@  #14 @010   ----------------------------------------
Label_010041D1:
 .byte   W12
 .byte   N06 ,Fn1 ,v042
 .byte   W24
 .byte   Fn1
 .byte   W24
 .byte   Fn1
 .byte   W24
 .byte   Fn1
 .byte   W12
 .byte   PEND 
@  #14 @011   ----------------------------------------
Label_010041DD:
 .byte   W12
 .byte   N06 ,En1 ,v042
 .byte   W24
 .byte   En1
 .byte   W24
 .byte   En1
 .byte   W24
 .byte   En1
 .byte   W12
 .byte   PEND 
@  #14 @012   ----------------------------------------
 .byte   PATT
  .word Label_010041B9
@  #14 @013   ----------------------------------------
 .byte   PATT
  .word Label_010041C5
@  #14 @014   ----------------------------------------
 .byte   PATT
  .word Label_010041D1
@  #14 @015   ----------------------------------------
Label_010041F8:
 .byte   W12
 .byte   N06 ,En1 ,v042
 .byte   W24
 .byte   En1
 .byte   W24
 .byte   En1
 .byte   W12
 .byte   Fs1
 .byte   W12
 .byte   Gs1
 .byte   W12
 .byte   PEND 
@  #14 @016   ----------------------------------------
 .byte   PATT
  .word Label_010041B9
@  #14 @017   ----------------------------------------
 .byte   PATT
  .word Label_010041C5
@  #14 @018   ----------------------------------------
 .byte   PATT
  .word Label_010041D1
@  #14 @019   ----------------------------------------
 .byte   PATT
  .word Label_010041DD
@  #14 @020   ----------------------------------------
 .byte   PATT
  .word Label_010041B9
@  #14 @021   ----------------------------------------
 .byte   PATT
  .word Label_010041C5
@  #14 @022   ----------------------------------------
 .byte   PATT
  .word Label_010041D1
@  #14 @023   ----------------------------------------
 .byte   W12
 .byte   N06 ,En1 ,v042
 .byte   W24
 .byte   En1
 .byte   W24
 .byte   En1
 .byte   W12
 .byte   En1
 .byte   W12
 .byte   Fs1
 .byte   W12
@  #14 @024   ----------------------------------------
 .byte   Gs1
 .byte   W12
 .byte   Dn2 ,v056
 .byte   W24
 .byte   Dn2
 .byte   W24
 .byte   Dn2
 .byte   W24
 .byte   Dn2
 .byte   W12
@  #14 @025   ----------------------------------------
Label_01004241:
 .byte   W12
 .byte   N06 ,En2 ,v056
 .byte   W24
 .byte   En2
 .byte   W24
 .byte   En2
 .byte   W24
 .byte   En2
 .byte   W12
 .byte   PEND 
@  #14 @026   ----------------------------------------
Label_0100424D:
 .byte   W12
 .byte   N06 ,An1 ,v056
 .byte   W24
 .byte   An1
 .byte   W24
 .byte   An1
 .byte   W24
 .byte   An1
 .byte   W12
 .byte   PEND 
@  #14 @027   ----------------------------------------
Label_01004259:
 .byte   W12
 .byte   N06 ,Cn2 ,v056
 .byte   W24
 .byte   Cn2
 .byte   W24
 .byte   Cn2
 .byte   W24
 .byte   Cn2
 .byte   W12
 .byte   PEND 
@  #14 @028   ----------------------------------------
Label_01004265:
 .byte   W12
 .byte   N06 ,Dn2 ,v056
 .byte   W24
 .byte   Dn2
 .byte   W24
 .byte   Dn2
 .byte   W24
 .byte   Dn2
 .byte   W12
 .byte   PEND 
@  #14 @029   ----------------------------------------
 .byte   PATT
  .word Label_01004241
@  #14 @030   ----------------------------------------
 .byte   PATT
  .word Label_0100424D
@  #14 @031   ----------------------------------------
 .byte   PATT
  .word Label_01004259
@  #14 @032   ----------------------------------------
 .byte   PATT
  .word Label_01004265
@  #14 @033   ----------------------------------------
 .byte   PATT
  .word Label_01004241
@  #14 @034   ----------------------------------------
 .byte   PATT
  .word Label_0100424D
@  #14 @035   ----------------------------------------
 .byte   PATT
  .word Label_01004259
@  #14 @036   ----------------------------------------
 .byte   PATT
  .word Label_01004265
@  #14 @037   ----------------------------------------
 .byte   PATT
  .word Label_01004241
@  #14 @038   ----------------------------------------
 .byte   W96
@  #14 @039   ----------------------------------------
Label_0100429F:
 .byte   W60
 .byte   N06 ,En1 ,v042
 .byte   W12
 .byte   Fs1
 .byte   W12
 .byte   Gs1
 .byte   W12
 .byte   PEND 
@  #14 @040   ----------------------------------------
 .byte   PATT
  .word Label_01004192
@  #14 @041   ----------------------------------------
 .byte   PATT
  .word Label_01004171
@  #14 @042   ----------------------------------------
 .byte   PATT
  .word Label_0100417D
@  #14 @043   ----------------------------------------
 .byte   W12
 .byte   N12 ,En1 ,v041
 .byte   W24
 .byte   En1
 .byte   W60
@  #14 @044   ----------------------------------------
 .byte   PATT
  .word Label_01004192
@  #14 @045   ----------------------------------------
 .byte   PATT
  .word Label_01004171
@  #14 @046   ----------------------------------------
 .byte   PATT
  .word Label_0100417D
@  #14 @047   ----------------------------------------
 .byte   W12
 .byte   N12 ,En1 ,v041
 .byte   W24
 .byte   En1
 .byte   W24
 .byte   N06 ,En1 ,v042
 .byte   W12
 .byte   Fs1
 .byte   W12
 .byte   Gs1
 .byte   W12
@  #14 @048   ----------------------------------------
 .byte   PATT
  .word Label_010041B9
@  #14 @049   ----------------------------------------
 .byte   PATT
  .word Label_010041C5
@  #14 @050   ----------------------------------------
 .byte   PATT
  .word Label_010041D1
@  #14 @051   ----------------------------------------
 .byte   PATT
  .word Label_010041DD
@  #14 @052   ----------------------------------------
 .byte   PATT
  .word Label_010041B9
@  #14 @053   ----------------------------------------
 .byte   PATT
  .word Label_010041C5
@  #14 @054   ----------------------------------------
 .byte   PATT
  .word Label_010041D1
@  #14 @055   ----------------------------------------
 .byte   W12
 .byte   N06 ,En1 ,v042
 .byte   W24
 .byte   En1
 .byte   W24
 .byte   En1
 .byte   W36
@  #14 @056   ----------------------------------------
 .byte   PATT
  .word Label_010041B9
@  #14 @057   ----------------------------------------
 .byte   PATT
  .word Label_010041C5
@  #14 @058   ----------------------------------------
 .byte   PATT
  .word Label_010041D1
@  #14 @059   ----------------------------------------
 .byte   PATT
  .word Label_010041DD
@  #14 @060   ----------------------------------------
 .byte   PATT
  .word Label_010041B9
@  #14 @061   ----------------------------------------
 .byte   PATT
  .word Label_010041C5
@  #14 @062   ----------------------------------------
 .byte   PATT
  .word Label_010041D1
@  #14 @063   ----------------------------------------
 .byte   PATT
  .word Label_010041F8
@  #14 @064   ----------------------------------------
 .byte   PATT
  .word Label_010041B9
@  #14 @065   ----------------------------------------
 .byte   PATT
  .word Label_010041C5
@  #14 @066   ----------------------------------------
 .byte   PATT
  .word Label_010041D1
@  #14 @067   ----------------------------------------
 .byte   PATT
  .word Label_010041DD
@  #14 @068   ----------------------------------------
 .byte   PATT
  .word Label_010041B9
@  #14 @069   ----------------------------------------
 .byte   PATT
  .word Label_010041C5
@  #14 @070   ----------------------------------------
 .byte   PATT
  .word Label_010041D1
@  #14 @071   ----------------------------------------
 .byte   PATT
  .word Label_010041DD
@  #14 @072   ----------------------------------------
 .byte   PATT
  .word Label_01004265
@  #14 @073   ----------------------------------------
 .byte   PATT
  .word Label_01004241
@  #14 @074   ----------------------------------------
 .byte   PATT
  .word Label_0100424D
@  #14 @075   ----------------------------------------
 .byte   PATT
  .word Label_01004259
@  #14 @076   ----------------------------------------
 .byte   PATT
  .word Label_01004265
@  #14 @077   ----------------------------------------
 .byte   PATT
  .word Label_01004241
@  #14 @078   ----------------------------------------
 .byte   PATT
  .word Label_0100424D
@  #14 @079   ----------------------------------------
 .byte   PATT
  .word Label_01004259
@  #14 @080   ----------------------------------------
 .byte   PATT
  .word Label_01004265
@  #14 @081   ----------------------------------------
 .byte   PATT
  .word Label_01004241
@  #14 @082   ----------------------------------------
 .byte   PATT
  .word Label_0100424D
@  #14 @083   ----------------------------------------
 .byte   PATT
  .word Label_01004259
@  #14 @084   ----------------------------------------
 .byte   PATT
  .word Label_01004265
@  #14 @085   ----------------------------------------
 .byte   PATT
  .word Label_01004241
@  #14 @086   ----------------------------------------
 .byte   W96
@  #14 @087   ----------------------------------------
 .byte   PATT
  .word Label_0100429F
@  #14 @088   ----------------------------------------
 .byte   GOTO
  .word Label_0100415E
 .byte   FINE

@**************** Track 15 (Midi-Chn.14) ****************@

song02_015:
@  #15 @000   ----------------------------------------
 .byte   KEYSH , song02_key+0
Label_010005D2:
 .byte   VOICE , 0
 .byte   BENDR, 12
 .byte   PAN , c_v+17
 .byte   VOL , 29*song02_mvl/mxv
 .byte   W24
 .byte   N12 ,An1 ,v041
 .byte   W24
 .byte   An1
 .byte   W24
 .byte   An1
 .byte   W24
@  #15 @001   ----------------------------------------
Label_010005E3:
 .byte   N12 ,An1 ,v041
 .byte   W24
 .byte   Cn2
 .byte   W24
 .byte   Cn2
 .byte   W24
 .byte   Cn2
 .byte   W24
 .byte   PEND 
@  #15 @002   ----------------------------------------
Label_010005EE:
 .byte   N12 ,Cn2 ,v041
 .byte   W24
 .byte   Fn1
 .byte   W24
 .byte   Fn1
 .byte   W24
 .byte   Fn1
 .byte   W24
 .byte   PEND 
@  #15 @003   ----------------------------------------
Label_010005F9:
 .byte   N12 ,Fn1 ,v041
 .byte   W24
 .byte   En1
 .byte   W24
 .byte   En1
 .byte   W24
 .byte   En1
 .byte   W24
 .byte   PEND 
@  #15 @004   ----------------------------------------
 .byte   En1
 .byte   W24
 .byte   An1
 .byte   W24
 .byte   An1
 .byte   W24
 .byte   An1
 .byte   W24
@  #15 @005   ----------------------------------------
 .byte   PATT
  .word Label_010005E3
@  #15 @006   ----------------------------------------
 .byte   PATT
  .word Label_010005EE
@  #15 @007   ----------------------------------------
 .byte   PATT
  .word Label_010005F9
@  #15 @008   ----------------------------------------
 .byte   W96
@  #15 @009   ----------------------------------------
 .byte   W96
@  #15 @010   ----------------------------------------
 .byte   W96
@  #15 @011   ----------------------------------------
 .byte   W96
@  #15 @012   ----------------------------------------
 .byte   W96
@  #15 @013   ----------------------------------------
 .byte   W96
@  #15 @014   ----------------------------------------
 .byte   W96
@  #15 @015   ----------------------------------------
 .byte   W96
@  #15 @016   ----------------------------------------
 .byte   W96
@  #15 @017   ----------------------------------------
 .byte   W96
@  #15 @018   ----------------------------------------
 .byte   W96
@  #15 @019   ----------------------------------------
 .byte   W96
@  #15 @020   ----------------------------------------
 .byte   W96
@  #15 @021   ----------------------------------------
 .byte   W96
@  #15 @022   ----------------------------------------
 .byte   W96
@  #15 @023   ----------------------------------------
 .byte   W96
@  #15 @024   ----------------------------------------
 .byte   W96
@  #15 @025   ----------------------------------------
 .byte   W96
@  #15 @026   ----------------------------------------
 .byte   W96
@  #15 @027   ----------------------------------------
 .byte   W96
@  #15 @028   ----------------------------------------
 .byte   W96
@  #15 @029   ----------------------------------------
 .byte   W96
@  #15 @030   ----------------------------------------
 .byte   W96
@  #15 @031   ----------------------------------------
 .byte   W96
@  #15 @032   ----------------------------------------
 .byte   W96
@  #15 @033   ----------------------------------------
 .byte   W96
@  #15 @034   ----------------------------------------
 .byte   W96
@  #15 @035   ----------------------------------------
 .byte   W96
@  #15 @036   ----------------------------------------
 .byte   W96
@  #15 @037   ----------------------------------------
 .byte   W96
@  #15 @038   ----------------------------------------
 .byte   W96
@  #15 @039   ----------------------------------------
 .byte   W96
@  #15 @040   ----------------------------------------
Label_0100063B:
 .byte   W24
 .byte   N12 ,An1 ,v041
 .byte   W24
 .byte   An1
 .byte   W24
 .byte   An1
 .byte   W24
 .byte   PEND 
@  #15 @041   ----------------------------------------
 .byte   PATT
  .word Label_010005E3
@  #15 @042   ----------------------------------------
 .byte   PATT
  .word Label_010005EE
@  #15 @043   ----------------------------------------
 .byte   N12 ,Fn1 ,v041
 .byte   W24
 .byte   En1
 .byte   W24
 .byte   En1
 .byte   W48
@  #15 @044   ----------------------------------------
 .byte   PATT
  .word Label_0100063B
@  #15 @045   ----------------------------------------
 .byte   PATT
  .word Label_010005E3
@  #15 @046   ----------------------------------------
 .byte   PATT
  .word Label_010005EE
@  #15 @047   ----------------------------------------
 .byte   PATT
  .word Label_010005F9
@  #15 @048   ----------------------------------------
 .byte   W96
@  #15 @049   ----------------------------------------
 .byte   W96
@  #15 @050   ----------------------------------------
 .byte   W96
@  #15 @051   ----------------------------------------
 .byte   W96
@  #15 @052   ----------------------------------------
 .byte   W96
@  #15 @053   ----------------------------------------
 .byte   W96
@  #15 @054   ----------------------------------------
 .byte   W96
@  #15 @055   ----------------------------------------
 .byte   W96
@  #15 @056   ----------------------------------------
 .byte   W96
@  #15 @057   ----------------------------------------
 .byte   W96
@  #15 @058   ----------------------------------------
 .byte   W96
@  #15 @059   ----------------------------------------
 .byte   W96
@  #15 @060   ----------------------------------------
 .byte   W96
@  #15 @061   ----------------------------------------
 .byte   W96
@  #15 @062   ----------------------------------------
 .byte   W96
@  #15 @063   ----------------------------------------
 .byte   W96
@  #15 @064   ----------------------------------------
 .byte   W96
@  #15 @065   ----------------------------------------
 .byte   W96
@  #15 @066   ----------------------------------------
 .byte   W96
@  #15 @067   ----------------------------------------
 .byte   W96
@  #15 @068   ----------------------------------------
 .byte   W96
@  #15 @069   ----------------------------------------
 .byte   W96
@  #15 @070   ----------------------------------------
 .byte   W96
@  #15 @071   ----------------------------------------
 .byte   W96
@  #15 @072   ----------------------------------------
 .byte   W96
@  #15 @073   ----------------------------------------
 .byte   W96
@  #15 @074   ----------------------------------------
 .byte   W96
@  #15 @075   ----------------------------------------
 .byte   W96
@  #15 @076   ----------------------------------------
 .byte   W96
@  #15 @077   ----------------------------------------
 .byte   W96
@  #15 @078   ----------------------------------------
 .byte   W96
@  #15 @079   ----------------------------------------
 .byte   W96
@  #15 @080   ----------------------------------------
 .byte   W96
@  #15 @081   ----------------------------------------
 .byte   W96
@  #15 @082   ----------------------------------------
 .byte   W96
@  #15 @083   ----------------------------------------
 .byte   W96
@  #15 @084   ----------------------------------------
 .byte   W96
@  #15 @085   ----------------------------------------
 .byte   W96
@  #15 @086   ----------------------------------------
 .byte   W96
@  #15 @087   ----------------------------------------
 .byte   W96
@  #15 @088   ----------------------------------------
 .byte   GOTO
  .word Label_010005D2
 .byte   FINE

@******************************************************@
	.align	2

song02:
	.byte	15	@ NumTrks
	.byte	0	@ NumBlks
	.byte	song02_pri	@ Priority
	.byte	song02_rev	@ Reverb.
    
	.word	song02_grp
    
	.word	song02_001
	.word	song02_002
	.word	song02_003
	.word	song02_004
	.word	song02_005
	.word	song02_006
	.word	song02_007
	.word	song02_008
	.word	song02_009
	.word	song02_010
	.word	song02_011
	.word	song02_012
	.word	song02_013
	.word	song02_014
	.word	song02_015

	.end
