	.include "MPlayDef.s"

	.equ	song02_grp, voicegroup000
	.equ	song02_pri, 0
	.equ	song02_rev, 0
	.equ	song02_mvl, 127
	.equ	song02_key, 0
	.equ	song02_tbs, 1
	.equ	song02_exg, 0
	.equ	song02_cmp, 1

	.section .rodata
	.global	song02
	.align	2


@**************** Track 1 (Midi-Chn.0) ****************@

song02_001:
@  #01 @000   ----------------------------------------
 .byte   KEYSH , song02_key+0
 .byte   TEMPO , 126*song02_tbs/2
 .byte   VOICE , 39
 .byte   VOL , 54*song02_mvl/mxv
 .byte   BENDR, 12
 .byte   W96
@  #01 @001   ----------------------------------------
 .byte   W96
@  #01 @002   ----------------------------------------
 .byte   W96
@  #01 @003   ----------------------------------------
 .byte   W96
@  #01 @004   ----------------------------------------
 .byte   W96
@  #01 @005   ----------------------------------------
 .byte   W96
@  #01 @006   ----------------------------------------
 .byte   W96
@  #01 @007   ----------------------------------------
 .byte   W96
@  #01 @008   ----------------------------------------
Label_01026C26:
 .byte   N06 ,Cn2 ,v127
 .byte   W06
 .byte   Cn2 ,v059
 .byte   W06
 .byte   Cn2 ,v127
 .byte   W06
 .byte   Cn2 ,v059
 .byte   W06
 .byte   Cn2 ,v127
 .byte   W06
 .byte   Cn2 ,v059
 .byte   W06
 .byte   Cn2 ,v127
 .byte   W06
 .byte   Cn2 ,v059
 .byte   W06
 .byte   Cn2 ,v127
 .byte   W06
 .byte   Cn2 ,v059
 .byte   W06
 .byte   Cn2 ,v127
 .byte   W06
 .byte   Cn2 ,v059
 .byte   W06
 .byte   Cn2 ,v127
 .byte   W06
 .byte   Cn2 ,v059
 .byte   W06
 .byte   Cn2 ,v127
 .byte   W06
 .byte   Cn2 ,v059
 .byte   W06
 .byte   PEND 
@  #01 @009   ----------------------------------------
 .byte   PATT
  .word Label_01026C26
@  #01 @010   ----------------------------------------
Label_01026C5D:
 .byte   N06 ,As1 ,v127
 .byte   W06
 .byte   As1 ,v059
 .byte   W06
 .byte   As1 ,v127
 .byte   W06
 .byte   As1 ,v059
 .byte   W06
 .byte   As1 ,v127
 .byte   W06
 .byte   As1 ,v059
 .byte   W06
 .byte   As1 ,v127
 .byte   W06
 .byte   As1 ,v059
 .byte   W06
 .byte   As1 ,v127
 .byte   W06
 .byte   As1 ,v059
 .byte   W06
 .byte   As1 ,v127
 .byte   W06
 .byte   As1 ,v059
 .byte   W06
 .byte   As1 ,v127
 .byte   W06
 .byte   As1 ,v059
 .byte   W06
 .byte   As1 ,v127
 .byte   W06
 .byte   As1 ,v059
 .byte   W06
 .byte   PEND 
@  #01 @011   ----------------------------------------
 .byte   PATT
  .word Label_01026C5D
@  #01 @012   ----------------------------------------
Label_01026C94:
 .byte   N06 ,Gs1 ,v127
 .byte   W06
 .byte   Gs1 ,v059
 .byte   W06
 .byte   Gs1 ,v127
 .byte   W06
 .byte   Gs1 ,v059
 .byte   W06
 .byte   Gs1 ,v127
 .byte   W06
 .byte   Gs1 ,v059
 .byte   W06
 .byte   Gs1 ,v127
 .byte   W06
 .byte   Gs1 ,v059
 .byte   W06
 .byte   Gs1 ,v127
 .byte   W06
 .byte   Gs1 ,v059
 .byte   W06
 .byte   Gs1 ,v127
 .byte   W06
 .byte   Gs1 ,v059
 .byte   W06
 .byte   Gs1 ,v127
 .byte   W06
 .byte   Gs1 ,v059
 .byte   W06
 .byte   Gs1 ,v127
 .byte   W06
 .byte   Gs1 ,v059
 .byte   W06
 .byte   PEND 
@  #01 @013   ----------------------------------------
 .byte   PATT
  .word Label_01026C94
@  #01 @014   ----------------------------------------
 .byte   PATT
  .word Label_01026C5D
@  #01 @015   ----------------------------------------
Label_01026CD0:
 .byte   N06 ,As1 ,v127
 .byte   W06
 .byte   As1 ,v059
 .byte   W06
 .byte   As1 ,v127
 .byte   W06
 .byte   As1 ,v059
 .byte   W06
 .byte   As1 ,v127
 .byte   W06
 .byte   As1 ,v059
 .byte   W06
 .byte   As1 ,v127
 .byte   W06
 .byte   As1 ,v059
 .byte   W06
 .byte   As1 ,v127
 .byte   W06
 .byte   As1 ,v059
 .byte   W06
 .byte   As1 ,v127
 .byte   W06
 .byte   As1 ,v059
 .byte   W06
 .byte   Dn2 ,v127
 .byte   W06
 .byte   Dn2 ,v059
 .byte   W06
 .byte   Dn2 ,v127
 .byte   W06
 .byte   Dn2 ,v059
 .byte   W06
 .byte   PEND 
@  #01 @016   ----------------------------------------
 .byte   PATT
  .word Label_01026C26
@  #01 @017   ----------------------------------------
 .byte   PATT
  .word Label_01026C26
@  #01 @018   ----------------------------------------
 .byte   PATT
  .word Label_01026C5D
@  #01 @019   ----------------------------------------
 .byte   PATT
  .word Label_01026C5D
@  #01 @020   ----------------------------------------
 .byte   PATT
  .word Label_01026C94
@  #01 @021   ----------------------------------------
 .byte   PATT
  .word Label_01026C94
@  #01 @022   ----------------------------------------
 .byte   PATT
  .word Label_01026C5D
@  #01 @023   ----------------------------------------
 .byte   PATT
  .word Label_01026CD0
@  #01 @024   ----------------------------------------
 .byte   PATT
  .word Label_01026C94
@  #01 @025   ----------------------------------------
 .byte   PATT
  .word Label_01026C94
@  #01 @026   ----------------------------------------
 .byte   PATT
  .word Label_01026C5D
@  #01 @027   ----------------------------------------
 .byte   PATT
  .word Label_01026CD0
@  #01 @028   ----------------------------------------
 .byte   PATT
  .word Label_01026C94
@  #01 @029   ----------------------------------------
 .byte   PATT
  .word Label_01026C94
@  #01 @030   ----------------------------------------
 .byte   PATT
  .word Label_01026C5D
@  #01 @031   ----------------------------------------
 .byte   PATT
  .word Label_01026CD0
@  #01 @032   ----------------------------------------
 .byte   PATT
  .word Label_01026C94
@  #01 @033   ----------------------------------------
 .byte   PATT
  .word Label_01026C94
@  #01 @034   ----------------------------------------
 .byte   PATT
  .word Label_01026C5D
@  #01 @035   ----------------------------------------
 .byte   PATT
  .word Label_01026CD0
@  #01 @036   ----------------------------------------
 .byte   PATT
  .word Label_01026C94
@  #01 @037   ----------------------------------------
 .byte   PATT
  .word Label_01026C94
@  #01 @038   ----------------------------------------
 .byte   PATT
  .word Label_01026C5D
@  #01 @039   ----------------------------------------
 .byte   PATT
  .word Label_01026CD0
@  #01 @040   ----------------------------------------
 .byte   PATT
  .word Label_01026C26
@  #01 @041   ----------------------------------------
 .byte   PATT
  .word Label_01026C26
@  #01 @042   ----------------------------------------
 .byte   PATT
  .word Label_01026C5D
@  #01 @043   ----------------------------------------
 .byte   PATT
  .word Label_01026C5D
@  #01 @044   ----------------------------------------
 .byte   PATT
  .word Label_01026C94
@  #01 @045   ----------------------------------------
 .byte   PATT
  .word Label_01026C94
@  #01 @046   ----------------------------------------
 .byte   PATT
  .word Label_01026C5D
@  #01 @047   ----------------------------------------
 .byte   PATT
  .word Label_01026CD0
@  #01 @048   ----------------------------------------
 .byte   PATT
  .word Label_01026C26
@  #01 @049   ----------------------------------------
 .byte   PATT
  .word Label_01026C26
@  #01 @050   ----------------------------------------
 .byte   PATT
  .word Label_01026C5D
@  #01 @051   ----------------------------------------
 .byte   PATT
  .word Label_01026C5D
@  #01 @052   ----------------------------------------
 .byte   PATT
  .word Label_01026C94
@  #01 @053   ----------------------------------------
 .byte   PATT
  .word Label_01026C94
@  #01 @054   ----------------------------------------
 .byte   PATT
  .word Label_01026C5D
@  #01 @055   ----------------------------------------
 .byte   PATT
  .word Label_01026CD0
@  #01 @056   ----------------------------------------
 .byte   PATT
  .word Label_01026C94
@  #01 @057   ----------------------------------------
 .byte   PATT
  .word Label_01026C94
@  #01 @058   ----------------------------------------
 .byte   PATT
  .word Label_01026C5D
@  #01 @059   ----------------------------------------
 .byte   PATT
  .word Label_01026CD0
@  #01 @060   ----------------------------------------
 .byte   PATT
  .word Label_01026C94
@  #01 @061   ----------------------------------------
 .byte   PATT
  .word Label_01026C94
@  #01 @062   ----------------------------------------
 .byte   PATT
  .word Label_01026C5D
@  #01 @063   ----------------------------------------
 .byte   PATT
  .word Label_01026CD0
@  #01 @064   ----------------------------------------
 .byte   PATT
  .word Label_01026C94
@  #01 @065   ----------------------------------------
 .byte   PATT
  .word Label_01026C94
@  #01 @066   ----------------------------------------
 .byte   PATT
  .word Label_01026C5D
@  #01 @067   ----------------------------------------
 .byte   PATT
  .word Label_01026CD0
@  #01 @068   ----------------------------------------
 .byte   PATT
  .word Label_01026C94
@  #01 @069   ----------------------------------------
 .byte   PATT
  .word Label_01026C94
@  #01 @070   ----------------------------------------
 .byte   PATT
  .word Label_01026C5D
@  #01 @071   ----------------------------------------
 .byte   PATT
  .word Label_01026CD0
@  #01 @072   ----------------------------------------
Label_01026E1A:
 .byte   N06 ,Cn2 ,v127
 .byte   W06
 .byte   Cn2 ,v059
 .byte   W06
 .byte   Cn2 ,v127
 .byte   W06
 .byte   Cn2 ,v059
 .byte   W06
 .byte   Cn2 ,v127
 .byte   W06
 .byte   Cn2 ,v059
 .byte   W06
 .byte   Cn2 ,v127
 .byte   W06
 .byte   Cn2 ,v059
 .byte   W06
 .byte   Cn2 ,v127
 .byte   W06
 .byte   Cn2 ,v059
 .byte   W06
 .byte   Cn2 ,v127
 .byte   W06
 .byte   Cn2 ,v059
 .byte   W06
 .byte   Cn2 ,v127
 .byte   W06
 .byte   Cn2 ,v059
 .byte   W06
 .byte   Cn2 ,v127
 .byte   W06
 .byte   Cn2 ,v059
 .byte   W06
@  #01 @073   ----------------------------------------
 .byte   PATT
  .word Label_01026C26
@  #01 @074   ----------------------------------------
 .byte   PATT
  .word Label_01026C5D
@  #01 @075   ----------------------------------------
 .byte   PATT
  .word Label_01026C5D
@  #01 @076   ----------------------------------------
 .byte   PATT
  .word Label_01026C94
@  #01 @077   ----------------------------------------
 .byte   PATT
  .word Label_01026C94
@  #01 @078   ----------------------------------------
 .byte   PATT
  .word Label_01026C5D
@  #01 @079   ----------------------------------------
 .byte   PATT
  .word Label_01026CD0
@  #01 @080   ----------------------------------------
 .byte   PATT
  .word Label_01026C26
@  #01 @081   ----------------------------------------
 .byte   PATT
  .word Label_01026C26
@  #01 @082   ----------------------------------------
 .byte   PATT
  .word Label_01026C5D
@  #01 @083   ----------------------------------------
 .byte   PATT
  .word Label_01026C5D
@  #01 @084   ----------------------------------------
 .byte   PATT
  .word Label_01026C94
@  #01 @085   ----------------------------------------
 .byte   PATT
  .word Label_01026C94
@  #01 @086   ----------------------------------------
 .byte   PATT
  .word Label_01026C5D
@  #01 @087   ----------------------------------------
 .byte   PATT
  .word Label_01026CD0
@  #01 @088   ----------------------------------------
 .byte   PATT
  .word Label_01026C94
@  #01 @089   ----------------------------------------
 .byte   PATT
  .word Label_01026C94
@  #01 @090   ----------------------------------------
 .byte   PATT
  .word Label_01026C5D
@  #01 @091   ----------------------------------------
 .byte   PATT
  .word Label_01026CD0
@  #01 @092   ----------------------------------------
 .byte   PATT
  .word Label_01026C94
@  #01 @093   ----------------------------------------
 .byte   PATT
  .word Label_01026C94
@  #01 @094   ----------------------------------------
 .byte   PATT
  .word Label_01026C5D
@  #01 @095   ----------------------------------------
 .byte   PATT
  .word Label_01026CD0
@  #01 @096   ----------------------------------------
 .byte   PATT
  .word Label_01026C94
@  #01 @097   ----------------------------------------
 .byte   PATT
  .word Label_01026C94
@  #01 @098   ----------------------------------------
 .byte   PATT
  .word Label_01026C5D
@  #01 @099   ----------------------------------------
 .byte   PATT
  .word Label_01026CD0
@  #01 @100   ----------------------------------------
 .byte   PATT
  .word Label_01026C94
@  #01 @101   ----------------------------------------
 .byte   PATT
  .word Label_01026C94
@  #01 @102   ----------------------------------------
 .byte   PATT
  .word Label_01026C5D
@  #01 @103   ----------------------------------------
 .byte   PATT
  .word Label_01026CD0
@  #01 @104   ----------------------------------------
 .byte   GOTO
  .word Label_01026E1A
@  #01 @105   ----------------------------------------
 .byte   W96
 .byte   FINE

@**************** Track 2 (Midi-Chn.1) ****************@

song02_002:
@  #02 @000   ----------------------------------------
 .byte   KEYSH , song02_key+0
 .byte   VOICE , 110
 .byte   VOL , 33*song02_mvl/mxv
 .byte   PAN , c_v-41
 .byte   BENDR, 12
 .byte   W96
@  #02 @001   ----------------------------------------
 .byte   W96
@  #02 @002   ----------------------------------------
 .byte   W96
@  #02 @003   ----------------------------------------
 .byte   W96
@  #02 @004   ----------------------------------------
 .byte   W96
@  #02 @005   ----------------------------------------
 .byte   W96
@  #02 @006   ----------------------------------------
 .byte   W96
@  #02 @007   ----------------------------------------
 .byte   W96
@  #02 @008   ----------------------------------------
 .byte   TIE ,Cn4 ,v127
 .byte   W96
@  #02 @009   ----------------------------------------
 .byte   W96
@  #02 @010   ----------------------------------------
Label_0100303B:
 .byte   EOT
 .byte   Cn4
 .byte   TIE ,As3 ,v127
 .byte   W96
 .byte   PEND 
@  #02 @011   ----------------------------------------
 .byte   W96
@  #02 @012   ----------------------------------------
Label_01003043:
 .byte   EOT
 .byte   As3
 .byte   TIE ,Gs3 ,v127
 .byte   W96
 .byte   PEND 
@  #02 @013   ----------------------------------------
 .byte   W96
@  #02 @014   ----------------------------------------
Label_0100304B:
 .byte   EOT
 .byte   Gs3
 .byte   TIE ,As3 ,v127
 .byte   W96
 .byte   PEND 
@  #02 @015   ----------------------------------------
 .byte   W96
@  #02 @016   ----------------------------------------
Label_01003053:
 .byte   EOT
 .byte   As3
 .byte   TIE ,Cn4 ,v127
 .byte   W96
 .byte   PEND 
@  #02 @017   ----------------------------------------
 .byte   W96
@  #02 @018   ----------------------------------------
 .byte   PATT
  .word Label_0100303B
@  #02 @019   ----------------------------------------
 .byte   W96
@  #02 @020   ----------------------------------------
 .byte   PATT
  .word Label_01003043
@  #02 @021   ----------------------------------------
 .byte   W96
@  #02 @022   ----------------------------------------
 .byte   PATT
  .word Label_0100304B
@  #02 @023   ----------------------------------------
 .byte   W96
@  #02 @024   ----------------------------------------
 .byte   PATT
  .word Label_01003043
@  #02 @025   ----------------------------------------
 .byte   W96
@  #02 @026   ----------------------------------------
 .byte   PATT
  .word Label_0100304B
@  #02 @027   ----------------------------------------
 .byte   W96
@  #02 @028   ----------------------------------------
 .byte   PATT
  .word Label_01003043
@  #02 @029   ----------------------------------------
 .byte   W96
@  #02 @030   ----------------------------------------
 .byte   PATT
  .word Label_0100304B
@  #02 @031   ----------------------------------------
 .byte   W96
@  #02 @032   ----------------------------------------
 .byte   PATT
  .word Label_01003043
@  #02 @033   ----------------------------------------
 .byte   W96
@  #02 @034   ----------------------------------------
 .byte   PATT
  .word Label_0100304B
@  #02 @035   ----------------------------------------
 .byte   W96
@  #02 @036   ----------------------------------------
 .byte   PATT
  .word Label_01003043
@  #02 @037   ----------------------------------------
 .byte   W96
@  #02 @038   ----------------------------------------
 .byte   PATT
  .word Label_0100304B
@  #02 @039   ----------------------------------------
 .byte   W96
@  #02 @040   ----------------------------------------
 .byte   PATT
  .word Label_01003053
@  #02 @041   ----------------------------------------
 .byte   W96
@  #02 @042   ----------------------------------------
 .byte   PATT
  .word Label_0100303B
@  #02 @043   ----------------------------------------
 .byte   W96
@  #02 @044   ----------------------------------------
 .byte   PATT
  .word Label_01003043
@  #02 @045   ----------------------------------------
 .byte   W96
@  #02 @046   ----------------------------------------
 .byte   PATT
  .word Label_0100304B
@  #02 @047   ----------------------------------------
 .byte   W96
@  #02 @048   ----------------------------------------
 .byte   PATT
  .word Label_01003053
@  #02 @049   ----------------------------------------
 .byte   W96
@  #02 @050   ----------------------------------------
 .byte   PATT
  .word Label_0100303B
@  #02 @051   ----------------------------------------
 .byte   W96
@  #02 @052   ----------------------------------------
 .byte   PATT
  .word Label_01003043
@  #02 @053   ----------------------------------------
 .byte   W96
@  #02 @054   ----------------------------------------
 .byte   PATT
  .word Label_0100304B
@  #02 @055   ----------------------------------------
 .byte   W96
@  #02 @056   ----------------------------------------
 .byte   PATT
  .word Label_01003043
@  #02 @057   ----------------------------------------
 .byte   W96
@  #02 @058   ----------------------------------------
 .byte   PATT
  .word Label_0100304B
@  #02 @059   ----------------------------------------
 .byte   W96
@  #02 @060   ----------------------------------------
 .byte   PATT
  .word Label_01003043
@  #02 @061   ----------------------------------------
 .byte   W96
@  #02 @062   ----------------------------------------
 .byte   PATT
  .word Label_0100304B
@  #02 @063   ----------------------------------------
 .byte   W96
@  #02 @064   ----------------------------------------
 .byte   PATT
  .word Label_01003043
@  #02 @065   ----------------------------------------
 .byte   W96
@  #02 @066   ----------------------------------------
 .byte   PATT
  .word Label_0100304B
@  #02 @067   ----------------------------------------
 .byte   W96
@  #02 @068   ----------------------------------------
 .byte   PATT
  .word Label_01003043
@  #02 @069   ----------------------------------------
 .byte   W96
@  #02 @070   ----------------------------------------
 .byte   PATT
  .word Label_0100304B
@  #02 @071   ----------------------------------------
 .byte   W96
@  #02 @072   ----------------------------------------
 .byte   EOT
 .byte   As3
Label_010030FF:
 .byte   TIE ,Cn4 ,v127
 .byte   W96
@  #02 @073   ----------------------------------------
 .byte   W96
@  #02 @074   ----------------------------------------
 .byte   PATT
  .word Label_0100303B
@  #02 @075   ----------------------------------------
 .byte   W96
@  #02 @076   ----------------------------------------
 .byte   PATT
  .word Label_01003043
@  #02 @077   ----------------------------------------
 .byte   W96
@  #02 @078   ----------------------------------------
 .byte   PATT
  .word Label_0100304B
@  #02 @079   ----------------------------------------
 .byte   W96
@  #02 @080   ----------------------------------------
 .byte   PATT
  .word Label_01003053
@  #02 @081   ----------------------------------------
 .byte   W96
@  #02 @082   ----------------------------------------
 .byte   PATT
  .word Label_0100303B
@  #02 @083   ----------------------------------------
 .byte   W96
@  #02 @084   ----------------------------------------
 .byte   PATT
  .word Label_01003043
@  #02 @085   ----------------------------------------
 .byte   W96
@  #02 @086   ----------------------------------------
 .byte   PATT
  .word Label_0100304B
@  #02 @087   ----------------------------------------
 .byte   W96
@  #02 @088   ----------------------------------------
 .byte   PATT
  .word Label_01003043
@  #02 @089   ----------------------------------------
 .byte   W96
@  #02 @090   ----------------------------------------
 .byte   PATT
  .word Label_0100304B
@  #02 @091   ----------------------------------------
 .byte   W96
@  #02 @092   ----------------------------------------
 .byte   PATT
  .word Label_01003043
@  #02 @093   ----------------------------------------
 .byte   W96
@  #02 @094   ----------------------------------------
 .byte   PATT
  .word Label_0100304B
@  #02 @095   ----------------------------------------
 .byte   W96
@  #02 @096   ----------------------------------------
 .byte   PATT
  .word Label_01003043
@  #02 @097   ----------------------------------------
 .byte   W96
@  #02 @098   ----------------------------------------
 .byte   PATT
  .word Label_0100304B
@  #02 @099   ----------------------------------------
 .byte   W96
@  #02 @100   ----------------------------------------
 .byte   PATT
  .word Label_01003043
@  #02 @101   ----------------------------------------
 .byte   W96
@  #02 @102   ----------------------------------------
 .byte   PATT
  .word Label_0100304B
@  #02 @103   ----------------------------------------
 .byte   W96
@  #02 @104   ----------------------------------------
 .byte   EOT
 .byte   As3
 .byte   GOTO
  .word Label_010030FF
@  #02 @105   ----------------------------------------
 .byte   W96
 .byte   FINE

@**************** Track 3 (Midi-Chn.2) ****************@

song02_003:
@  #03 @000   ----------------------------------------
 .byte   KEYSH , song02_key+0
 .byte   VOICE , 68
 .byte   VOL , 61*song02_mvl/mxv
 .byte   PAN , c_v+12
 .byte   BENDR, 12
 .byte   N24 ,Gn3 ,v127
 .byte   W24
 .byte   N12 ,As3
 .byte   W12
 .byte   Cn4
 .byte   W24
 .byte   N24 ,Dn4
 .byte   W24
 .byte   N96 ,As3
 .byte   W12
@  #03 @001   ----------------------------------------
 .byte   W96
@  #03 @002   ----------------------------------------
Label_0102600E:
 .byte   N24 ,Gn3 ,v127
 .byte   W24
 .byte   N12 ,As3
 .byte   W12
 .byte   Cn4
 .byte   W24
 .byte   N24 ,Dn4
 .byte   W24
 .byte   N96 ,As3
 .byte   W12
 .byte   PEND 
@  #03 @003   ----------------------------------------
 .byte   W96
@  #03 @004   ----------------------------------------
Label_0102601F:
 .byte   N36 ,As3 ,v127
 .byte   W36
 .byte   Cn4
 .byte   W36
 .byte   Dn4
 .byte   W24
 .byte   PEND 
@  #03 @005   ----------------------------------------
Label_01026028:
 .byte   W12
 .byte   N36 ,Ds4 ,v127
 .byte   W36
 .byte   N12 ,Dn4
 .byte   W24
 .byte   Cn4
 .byte   W24
 .byte   PEND 
@  #03 @006   ----------------------------------------
Label_01026033:
 .byte   N36 ,Fn4 ,v127
 .byte   W36
 .byte   Ds4
 .byte   W36
 .byte   Dn4
 .byte   W24
 .byte   PEND 
@  #03 @007   ----------------------------------------
Label_0102603C:
 .byte   W12
 .byte   N36 ,Cn4 ,v127
 .byte   W36
 .byte   N48 ,As3
 .byte   W48
 .byte   PEND 
@  #03 @008   ----------------------------------------
 .byte   PATT
  .word Label_0102600E
@  #03 @009   ----------------------------------------
 .byte   W96
@  #03 @010   ----------------------------------------
 .byte   PATT
  .word Label_0102600E
@  #03 @011   ----------------------------------------
 .byte   W96
@  #03 @012   ----------------------------------------
 .byte   PATT
  .word Label_0102601F
@  #03 @013   ----------------------------------------
 .byte   PATT
  .word Label_01026028
@  #03 @014   ----------------------------------------
 .byte   PATT
  .word Label_01026033
@  #03 @015   ----------------------------------------
 .byte   PATT
  .word Label_0102603C
@  #03 @016   ----------------------------------------
 .byte   PATT
  .word Label_0102600E
@  #03 @017   ----------------------------------------
 .byte   W96
@  #03 @018   ----------------------------------------
 .byte   PATT
  .word Label_0102600E
@  #03 @019   ----------------------------------------
 .byte   W96
@  #03 @020   ----------------------------------------
 .byte   PATT
  .word Label_0102601F
@  #03 @021   ----------------------------------------
 .byte   PATT
  .word Label_01026028
@  #03 @022   ----------------------------------------
 .byte   PATT
  .word Label_01026033
@  #03 @023   ----------------------------------------
Label_01026080:
 .byte   W12
 .byte   N36 ,Cn4 ,v127
 .byte   W36
 .byte   N42 ,As3
 .byte   W48
 .byte   PEND 
@  #03 @024   ----------------------------------------
Label_01026089:
 .byte   N36 ,As3 ,v127
 .byte   W36
 .byte   N12 ,Cn4
 .byte   W36
 .byte   N36 ,As3
 .byte   W24
 .byte   PEND 
@  #03 @025   ----------------------------------------
Label_01026094:
 .byte   W12
 .byte   N12 ,Cn4 ,v127
 .byte   W36
 .byte   As3
 .byte   W48
 .byte   PEND 
@  #03 @026   ----------------------------------------
Label_0102609C:
 .byte   N36 ,Gn3 ,v127
 .byte   W36
 .byte   N12 ,As3
 .byte   W36
 .byte   N36 ,Gn3
 .byte   W24
 .byte   PEND 
@  #03 @027   ----------------------------------------
Label_010260A7:
 .byte   W12
 .byte   N12 ,As3 ,v127
 .byte   W36
 .byte   Gn3
 .byte   W24
 .byte   As3
 .byte   W24
 .byte   PEND 
@  #03 @028   ----------------------------------------
 .byte   PATT
  .word Label_01026089
@  #03 @029   ----------------------------------------
Label_010260B6:
 .byte   W12
 .byte   N12 ,Cn4 ,v127
 .byte   W36
 .byte   N18 ,As3
 .byte   W48
 .byte   PEND 
@  #03 @030   ----------------------------------------
 .byte   PATT
  .word Label_0102609C
@  #03 @031   ----------------------------------------
Label_010260C4:
 .byte   W12
 .byte   N12 ,As3 ,v127
 .byte   W36
 .byte   N06 ,Gn3
 .byte   W06
 .byte   Dn4
 .byte   W06
 .byte   Ds4
 .byte   W12
 .byte   N18
 .byte   W24
 .byte   PEND 
@  #03 @032   ----------------------------------------
 .byte   PATT
  .word Label_01026089
@  #03 @033   ----------------------------------------
Label_010260D8:
 .byte   W12
 .byte   N12 ,Cn4 ,v127
 .byte   W36
 .byte   As3
 .byte   W12
 .byte   Cn4
 .byte   W24
 .byte   Cn4
 .byte   W12
 .byte   PEND 
@  #03 @034   ----------------------------------------
Label_010260E4:
 .byte   N12 ,Dn4 ,v127
 .byte   W12
 .byte   Cn4
 .byte   W12
 .byte   Dn4
 .byte   W12
 .byte   Ds4
 .byte   W12
 .byte   Gn3
 .byte   W24
 .byte   Dn4
 .byte   W12
 .byte   Cn4
 .byte   W12
 .byte   PEND 
@  #03 @035   ----------------------------------------
Label_010260F5:
 .byte   N12 ,Dn4 ,v127
 .byte   W12
 .byte   Ds4
 .byte   W12
 .byte   Gn3
 .byte   W24
 .byte   As3
 .byte   W24
 .byte   Cn4
 .byte   W24
 .byte   PEND 
@  #03 @036   ----------------------------------------
 .byte   PATT
  .word Label_01026089
@  #03 @037   ----------------------------------------
 .byte   PATT
  .word Label_010260B6
@  #03 @038   ----------------------------------------
Label_0102610C:
 .byte   N12 ,Ds4 ,v127
 .byte   W18
 .byte   Dn4
 .byte   W18
 .byte   Ds4
 .byte   W12
 .byte   Fn4
 .byte   W12
 .byte   N24 ,Ds4
 .byte   W24
 .byte   N12 ,Fn4
 .byte   W12
 .byte   PEND 
@  #03 @039   ----------------------------------------
Label_0102611D:
 .byte   N06 ,As4 ,v127
 .byte   W12
 .byte   As4
 .byte   W12
 .byte   Ds5
 .byte   W12
 .byte   Ds5
 .byte   W12
 .byte   Dn5
 .byte   W12
 .byte   Dn5
 .byte   W12
 .byte   Cn5
 .byte   W12
 .byte   As4
 .byte   W12
 .byte   PEND 
@  #03 @040   ----------------------------------------
 .byte   PATT
  .word Label_0102600E
@  #03 @041   ----------------------------------------
 .byte   W96
@  #03 @042   ----------------------------------------
 .byte   PATT
  .word Label_0102600E
@  #03 @043   ----------------------------------------
 .byte   W96
@  #03 @044   ----------------------------------------
 .byte   PATT
  .word Label_0102601F
@  #03 @045   ----------------------------------------
 .byte   PATT
  .word Label_01026028
@  #03 @046   ----------------------------------------
 .byte   PATT
  .word Label_01026033
@  #03 @047   ----------------------------------------
 .byte   PATT
  .word Label_0102603C
@  #03 @048   ----------------------------------------
 .byte   PATT
  .word Label_0102600E
@  #03 @049   ----------------------------------------
 .byte   W96
@  #03 @050   ----------------------------------------
 .byte   PATT
  .word Label_0102600E
@  #03 @051   ----------------------------------------
 .byte   W96
@  #03 @052   ----------------------------------------
 .byte   PATT
  .word Label_0102601F
@  #03 @053   ----------------------------------------
 .byte   PATT
  .word Label_01026028
@  #03 @054   ----------------------------------------
 .byte   PATT
  .word Label_01026033
@  #03 @055   ----------------------------------------
 .byte   PATT
  .word Label_01026080
@  #03 @056   ----------------------------------------
 .byte   PATT
  .word Label_01026089
@  #03 @057   ----------------------------------------
 .byte   PATT
  .word Label_01026094
@  #03 @058   ----------------------------------------
 .byte   PATT
  .word Label_0102609C
@  #03 @059   ----------------------------------------
 .byte   PATT
  .word Label_010260A7
@  #03 @060   ----------------------------------------
 .byte   PATT
  .word Label_01026089
@  #03 @061   ----------------------------------------
 .byte   PATT
  .word Label_010260B6
@  #03 @062   ----------------------------------------
 .byte   PATT
  .word Label_0102609C
@  #03 @063   ----------------------------------------
 .byte   PATT
  .word Label_010260C4
@  #03 @064   ----------------------------------------
 .byte   PATT
  .word Label_01026089
@  #03 @065   ----------------------------------------
 .byte   PATT
  .word Label_010260D8
@  #03 @066   ----------------------------------------
 .byte   PATT
  .word Label_010260E4
@  #03 @067   ----------------------------------------
 .byte   PATT
  .word Label_010260F5
@  #03 @068   ----------------------------------------
 .byte   PATT
  .word Label_01026089
@  #03 @069   ----------------------------------------
 .byte   PATT
  .word Label_010260B6
@  #03 @070   ----------------------------------------
 .byte   PATT
  .word Label_0102610C
@  #03 @071   ----------------------------------------
 .byte   PATT
  .word Label_0102611D
@  #03 @072   ----------------------------------------
Label_010261C0:
 .byte   N24 ,Gn3 ,v127
 .byte   W24
 .byte   N12 ,As3
 .byte   W12
 .byte   Cn4
 .byte   W24
 .byte   N24 ,Dn4
 .byte   W24
 .byte   N96 ,As3
 .byte   W12
@  #03 @073   ----------------------------------------
 .byte   W96
@  #03 @074   ----------------------------------------
 .byte   PATT
  .word Label_0102600E
@  #03 @075   ----------------------------------------
 .byte   W96
@  #03 @076   ----------------------------------------
 .byte   PATT
  .word Label_0102601F
@  #03 @077   ----------------------------------------
 .byte   PATT
  .word Label_01026028
@  #03 @078   ----------------------------------------
 .byte   PATT
  .word Label_01026033
@  #03 @079   ----------------------------------------
 .byte   PATT
  .word Label_0102603C
@  #03 @080   ----------------------------------------
 .byte   PATT
  .word Label_0102600E
@  #03 @081   ----------------------------------------
 .byte   W96
@  #03 @082   ----------------------------------------
 .byte   PATT
  .word Label_0102600E
@  #03 @083   ----------------------------------------
 .byte   W96
@  #03 @084   ----------------------------------------
 .byte   PATT
  .word Label_0102601F
@  #03 @085   ----------------------------------------
 .byte   PATT
  .word Label_01026028
@  #03 @086   ----------------------------------------
 .byte   PATT
  .word Label_01026033
@  #03 @087   ----------------------------------------
 .byte   PATT
  .word Label_01026080
@  #03 @088   ----------------------------------------
 .byte   PATT
  .word Label_01026089
@  #03 @089   ----------------------------------------
 .byte   PATT
  .word Label_01026094
@  #03 @090   ----------------------------------------
 .byte   PATT
  .word Label_0102609C
@  #03 @091   ----------------------------------------
 .byte   PATT
  .word Label_010260A7
@  #03 @092   ----------------------------------------
 .byte   PATT
  .word Label_01026089
@  #03 @093   ----------------------------------------
 .byte   PATT
  .word Label_010260B6
@  #03 @094   ----------------------------------------
 .byte   PATT
  .word Label_0102609C
@  #03 @095   ----------------------------------------
 .byte   PATT
  .word Label_010260C4
@  #03 @096   ----------------------------------------
 .byte   PATT
  .word Label_01026089
@  #03 @097   ----------------------------------------
 .byte   PATT
  .word Label_010260D8
@  #03 @098   ----------------------------------------
 .byte   PATT
  .word Label_010260E4
@  #03 @099   ----------------------------------------
 .byte   PATT
  .word Label_010260F5
@  #03 @100   ----------------------------------------
 .byte   PATT
  .word Label_01026089
@  #03 @101   ----------------------------------------
 .byte   PATT
  .word Label_010260B6
@  #03 @102   ----------------------------------------
 .byte   PATT
  .word Label_0102610C
@  #03 @103   ----------------------------------------
 .byte   PATT
  .word Label_0102611D
@  #03 @104   ----------------------------------------
 .byte   GOTO
  .word Label_010261C0
@  #03 @105   ----------------------------------------
 .byte   W96
 .byte   FINE

@**************** Track 4 (Midi-Chn.3) ****************@

song02_004:
@  #04 @000   ----------------------------------------
 .byte   KEYSH , song02_key+0
 .byte   VOICE , 14
 .byte   VOL , 47*song02_mvl/mxv
 .byte   PAN , c_v+31
 .byte   BENDR, 12
 .byte   W96
@  #04 @001   ----------------------------------------
 .byte   W96
@  #04 @002   ----------------------------------------
 .byte   W96
@  #04 @003   ----------------------------------------
 .byte   W96
@  #04 @004   ----------------------------------------
Label_01025B9E:
 .byte   N48 ,Gn3 ,v127
 .byte   W48
 .byte   Gs3
 .byte   W48
 .byte   PEND 
@  #04 @005   ----------------------------------------
Label_01025BA5:
 .byte   N60 ,As3 ,v127
 .byte   W60
 .byte   N36 ,Fn3
 .byte   W36
 .byte   PEND 
@  #04 @006   ----------------------------------------
Label_01025BAD:
 .byte   N48 ,Fn3 ,v127
 .byte   W48
 .byte   Fn3
 .byte   W48
 .byte   PEND 
@  #04 @007   ----------------------------------------
Label_01025BB4:
 .byte   N48 ,As3 ,v127
 .byte   W48
 .byte   Dn3
 .byte   W48
 .byte   PEND 
@  #04 @008   ----------------------------------------
Label_01025BBB:
 .byte   N48 ,Ds3 ,v127
 .byte   W48
 .byte   Fn3
 .byte   W48
 .byte   PEND 
@  #04 @009   ----------------------------------------
 .byte   PATT
  .word Label_01025BBB
@  #04 @010   ----------------------------------------
Label_01025BC7:
 .byte   N48 ,Dn3 ,v127
 .byte   W48
 .byte   Cn3
 .byte   W48
 .byte   PEND 
@  #04 @011   ----------------------------------------
Label_01025BCE:
 .byte   N48 ,Dn3 ,v127
 .byte   W48
 .byte   Ds3
 .byte   W48
 .byte   PEND 
@  #04 @012   ----------------------------------------
 .byte   PATT
  .word Label_01025B9E
@  #04 @013   ----------------------------------------
 .byte   PATT
  .word Label_01025BA5
@  #04 @014   ----------------------------------------
 .byte   PATT
  .word Label_01025BAD
@  #04 @015   ----------------------------------------
 .byte   PATT
  .word Label_01025BB4
@  #04 @016   ----------------------------------------
 .byte   PATT
  .word Label_01025BBB
@  #04 @017   ----------------------------------------
 .byte   PATT
  .word Label_01025BBB
@  #04 @018   ----------------------------------------
 .byte   PATT
  .word Label_01025BC7
@  #04 @019   ----------------------------------------
 .byte   PATT
  .word Label_01025BCE
@  #04 @020   ----------------------------------------
 .byte   PATT
  .word Label_01025B9E
@  #04 @021   ----------------------------------------
 .byte   PATT
  .word Label_01025BA5
@  #04 @022   ----------------------------------------
 .byte   PATT
  .word Label_01025BAD
@  #04 @023   ----------------------------------------
 .byte   PATT
  .word Label_01025BB4
@  #04 @024   ----------------------------------------
Label_01025C11:
 .byte   N36 ,Gn3 ,v127
 .byte   W36
 .byte   N12
 .byte   W36
 .byte   N36
 .byte   W24
 .byte   PEND 
@  #04 @025   ----------------------------------------
Label_01025C1A:
 .byte   W12
 .byte   N12 ,Gn3 ,v127
 .byte   W48
 .byte   N36 ,Fn3
 .byte   W36
 .byte   PEND 
@  #04 @026   ----------------------------------------
Label_01025C23:
 .byte   N36 ,Fn3 ,v127
 .byte   W36
 .byte   N12
 .byte   W36
 .byte   N36
 .byte   W24
 .byte   PEND 
@  #04 @027   ----------------------------------------
Label_01025C2C:
 .byte   W12
 .byte   N12 ,Fn3 ,v127
 .byte   W36
 .byte   Dn3
 .byte   W24
 .byte   Dn3
 .byte   W24
 .byte   PEND 
@  #04 @028   ----------------------------------------
 .byte   PATT
  .word Label_01025C11
@  #04 @029   ----------------------------------------
 .byte   PATT
  .word Label_01025C1A
@  #04 @030   ----------------------------------------
 .byte   PATT
  .word Label_01025C23
@  #04 @031   ----------------------------------------
Label_01025C45:
 .byte   W12
 .byte   N12 ,Fn3 ,v127
 .byte   W36
 .byte   N06 ,Ds3
 .byte   W06
 .byte   An3
 .byte   W06
 .byte   As3
 .byte   W12
 .byte   N18
 .byte   W24
 .byte   PEND 
@  #04 @032   ----------------------------------------
 .byte   PATT
  .word Label_01025C11
@  #04 @033   ----------------------------------------
 .byte   PATT
  .word Label_01025C1A
@  #04 @034   ----------------------------------------
 .byte   PATT
  .word Label_01025C23
@  #04 @035   ----------------------------------------
Label_01025C63:
 .byte   W12
 .byte   N12 ,Fn3 ,v127
 .byte   W36
 .byte   Dn3
 .byte   W12
 .byte   N36 ,Fn3
 .byte   W36
 .byte   PEND 
@  #04 @036   ----------------------------------------
 .byte   PATT
  .word Label_01025C11
@  #04 @037   ----------------------------------------
 .byte   PATT
  .word Label_01025C1A
@  #04 @038   ----------------------------------------
Label_01025C78:
 .byte   N36 ,Fn3 ,v127
 .byte   W36
 .byte   N12
 .byte   W36
 .byte   N24
 .byte   W24
 .byte   PEND 
@  #04 @039   ----------------------------------------
Label_01025C81:
 .byte   N06 ,Gn3 ,v127
 .byte   W12
 .byte   N12
 .byte   W12
 .byte   N06 ,Gs3
 .byte   W12
 .byte   N12
 .byte   W12
 .byte   N06 ,Gn3
 .byte   W12
 .byte   N12
 .byte   W12
 .byte   N06 ,Fn3
 .byte   W12
 .byte   N12
 .byte   W12
 .byte   PEND 
@  #04 @040   ----------------------------------------
 .byte   PATT
  .word Label_01025BBB
@  #04 @041   ----------------------------------------
 .byte   PATT
  .word Label_01025BBB
@  #04 @042   ----------------------------------------
 .byte   PATT
  .word Label_01025BC7
@  #04 @043   ----------------------------------------
 .byte   PATT
  .word Label_01025BCE
@  #04 @044   ----------------------------------------
 .byte   PATT
  .word Label_01025B9E
@  #04 @045   ----------------------------------------
 .byte   PATT
  .word Label_01025BA5
@  #04 @046   ----------------------------------------
 .byte   PATT
  .word Label_01025BAD
@  #04 @047   ----------------------------------------
 .byte   PATT
  .word Label_01025BB4
@  #04 @048   ----------------------------------------
 .byte   PATT
  .word Label_01025BBB
@  #04 @049   ----------------------------------------
 .byte   PATT
  .word Label_01025BBB
@  #04 @050   ----------------------------------------
 .byte   PATT
  .word Label_01025BC7
@  #04 @051   ----------------------------------------
 .byte   PATT
  .word Label_01025BCE
@  #04 @052   ----------------------------------------
 .byte   PATT
  .word Label_01025B9E
@  #04 @053   ----------------------------------------
 .byte   PATT
  .word Label_01025BA5
@  #04 @054   ----------------------------------------
 .byte   PATT
  .word Label_01025BAD
@  #04 @055   ----------------------------------------
 .byte   PATT
  .word Label_01025BB4
@  #04 @056   ----------------------------------------
 .byte   PATT
  .word Label_01025C11
@  #04 @057   ----------------------------------------
 .byte   PATT
  .word Label_01025C1A
@  #04 @058   ----------------------------------------
 .byte   PATT
  .word Label_01025C23
@  #04 @059   ----------------------------------------
 .byte   PATT
  .word Label_01025C2C
@  #04 @060   ----------------------------------------
 .byte   PATT
  .word Label_01025C11
@  #04 @061   ----------------------------------------
 .byte   PATT
  .word Label_01025C1A
@  #04 @062   ----------------------------------------
 .byte   PATT
  .word Label_01025C23
@  #04 @063   ----------------------------------------
 .byte   PATT
  .word Label_01025C45
@  #04 @064   ----------------------------------------
 .byte   PATT
  .word Label_01025C11
@  #04 @065   ----------------------------------------
 .byte   PATT
  .word Label_01025C1A
@  #04 @066   ----------------------------------------
 .byte   PATT
  .word Label_01025C23
@  #04 @067   ----------------------------------------
 .byte   PATT
  .word Label_01025C63
@  #04 @068   ----------------------------------------
 .byte   PATT
  .word Label_01025C11
@  #04 @069   ----------------------------------------
 .byte   PATT
  .word Label_01025C1A
@  #04 @070   ----------------------------------------
 .byte   PATT
  .word Label_01025C78
@  #04 @071   ----------------------------------------
 .byte   PATT
  .word Label_01025C81
@  #04 @072   ----------------------------------------
Label_01025D37:
 .byte   N48 ,Ds3 ,v127
 .byte   W48
 .byte   Fn3
 .byte   W48
@  #04 @073   ----------------------------------------
 .byte   PATT
  .word Label_01025BBB
@  #04 @074   ----------------------------------------
 .byte   PATT
  .word Label_01025BC7
@  #04 @075   ----------------------------------------
 .byte   PATT
  .word Label_01025BCE
@  #04 @076   ----------------------------------------
 .byte   PATT
  .word Label_01025B9E
@  #04 @077   ----------------------------------------
 .byte   PATT
  .word Label_01025BA5
@  #04 @078   ----------------------------------------
 .byte   PATT
  .word Label_01025BAD
@  #04 @079   ----------------------------------------
 .byte   PATT
  .word Label_01025BB4
@  #04 @080   ----------------------------------------
 .byte   PATT
  .word Label_01025BBB
@  #04 @081   ----------------------------------------
 .byte   PATT
  .word Label_01025BBB
@  #04 @082   ----------------------------------------
 .byte   PATT
  .word Label_01025BC7
@  #04 @083   ----------------------------------------
 .byte   PATT
  .word Label_01025BCE
@  #04 @084   ----------------------------------------
 .byte   PATT
  .word Label_01025B9E
@  #04 @085   ----------------------------------------
 .byte   PATT
  .word Label_01025BA5
@  #04 @086   ----------------------------------------
 .byte   PATT
  .word Label_01025BAD
@  #04 @087   ----------------------------------------
 .byte   PATT
  .word Label_01025BB4
@  #04 @088   ----------------------------------------
 .byte   PATT
  .word Label_01025C11
@  #04 @089   ----------------------------------------
 .byte   PATT
  .word Label_01025C1A
@  #04 @090   ----------------------------------------
 .byte   PATT
  .word Label_01025C23
@  #04 @091   ----------------------------------------
 .byte   PATT
  .word Label_01025C2C
@  #04 @092   ----------------------------------------
 .byte   PATT
  .word Label_01025C11
@  #04 @093   ----------------------------------------
 .byte   PATT
  .word Label_01025C1A
@  #04 @094   ----------------------------------------
 .byte   PATT
  .word Label_01025C23
@  #04 @095   ----------------------------------------
 .byte   PATT
  .word Label_01025C45
@  #04 @096   ----------------------------------------
 .byte   PATT
  .word Label_01025C11
@  #04 @097   ----------------------------------------
 .byte   PATT
  .word Label_01025C1A
@  #04 @098   ----------------------------------------
 .byte   PATT
  .word Label_01025C23
@  #04 @099   ----------------------------------------
 .byte   PATT
  .word Label_01025C63
@  #04 @100   ----------------------------------------
 .byte   PATT
  .word Label_01025C11
@  #04 @101   ----------------------------------------
 .byte   PATT
  .word Label_01025C1A
@  #04 @102   ----------------------------------------
 .byte   PATT
  .word Label_01025C78
@  #04 @103   ----------------------------------------
 .byte   PATT
  .word Label_01025C81
@  #04 @104   ----------------------------------------
 .byte   GOTO
  .word Label_01025D37
@  #04 @105   ----------------------------------------
 .byte   W96
 .byte   FINE

@**************** Track 5 (Midi-Chn.4) ****************@

song02_005:
@  #05 @000   ----------------------------------------
 .byte   KEYSH , song02_key+0
 .byte   VOICE , 49
 .byte   VOL , 36*song02_mvl/mxv
 .byte   PAN , c_v+40
 .byte   BENDR, 12
 .byte   TIE ,Cn3 ,v127
 .byte   TIE ,Ds3
 .byte   TIE ,Gn3
 .byte   W96
@  #05 @001   ----------------------------------------
 .byte   W96
@  #05 @002   ----------------------------------------
 .byte   EOT
 .byte   Cn3 ,v063
 .byte   Gn3
 .byte   TIE
 .byte   TIE ,Ds3
 .byte   TIE ,As2
 .byte   W96
@  #05 @003   ----------------------------------------
 .byte   W96
@  #05 @004   ----------------------------------------
 .byte   EOT
 .byte   Ds3 ,v067
 .byte   As2
 .byte   TIE ,Cn3
 .byte   TIE ,Ds3
 .byte   W96
@  #05 @005   ----------------------------------------
 .byte   W96
@  #05 @006   ----------------------------------------
Label_01004038:
 .byte   EOT
 .byte   Cn3 ,v063
 .byte   TIE ,As2 ,v127
 .byte   N96 ,Dn3
 .byte   TIE ,Fn3
 .byte   W96
 .byte   PEND 
@  #05 @007   ----------------------------------------
 .byte   N96 ,As3
 .byte   W96
@  #05 @008   ----------------------------------------
Label_01004047:
 .byte   EOT
 .byte   Fn3 ,v058
 .byte   TIE ,Cn3 ,v127
 .byte   TIE ,Ds3
 .byte   TIE ,Gn3
 .byte   W96
 .byte   PEND 
@  #05 @009   ----------------------------------------
 .byte   W96
@  #05 @010   ----------------------------------------
Label_01004054:
 .byte   EOT
 .byte   Cn3 ,v067
 .byte   Ds3
 .byte   TIE ,Gn3 ,v127
 .byte   TIE ,Ds3
 .byte   TIE ,As2
 .byte   W96
 .byte   PEND 
@  #05 @011   ----------------------------------------
 .byte   W96
@  #05 @012   ----------------------------------------
Label_01004062:
 .byte   EOT
 .byte   As2 ,v063
 .byte   Gn3
 .byte   TIE ,Cn3 ,v127
 .byte   TIE ,Ds3
 .byte   W96
 .byte   PEND 
@  #05 @013   ----------------------------------------
 .byte   W96
@  #05 @014   ----------------------------------------
Label_0100406E:
 .byte   EOT
 .byte   Ds3 ,v060
 .byte   TIE ,Fn3 ,v127
 .byte   N96 ,Dn3
 .byte   TIE ,As2
 .byte   W96
 .byte   PEND 
@  #05 @015   ----------------------------------------
 .byte   N96 ,As3
 .byte   W96
@  #05 @016   ----------------------------------------
Label_0100407D:
 .byte   EOT
 .byte   As2 ,v065
 .byte   TIE ,Gn3 ,v127
 .byte   TIE ,Ds3
 .byte   TIE ,Cn3
 .byte   W96
 .byte   PEND 
@  #05 @017   ----------------------------------------
 .byte   W96
@  #05 @018   ----------------------------------------
Label_0100408A:
 .byte   EOT
 .byte   Gn3 ,v060
 .byte   Ds3
 .byte   TIE ,As2 ,v127
 .byte   TIE ,Ds3
 .byte   TIE ,Gn3
 .byte   W96
 .byte   PEND 
@  #05 @019   ----------------------------------------
 .byte   W96
@  #05 @020   ----------------------------------------
 .byte   EOT
 .byte   EOT
 .byte   Ds3 ,v058
 .byte   TIE ,Cn3
 .byte   TIE ,Ds3
 .byte   W96
@  #05 @021   ----------------------------------------
 .byte   W96
@  #05 @022   ----------------------------------------
 .byte   PATT
  .word Label_0100406E
@  #05 @023   ----------------------------------------
 .byte   N96 ,As3 ,v127
 .byte   W96
@  #05 @024   ----------------------------------------
Label_010040AB:
 .byte   EOT
 .byte   As2 ,v065
 .byte   TIE ,Cn3 ,v127
 .byte   TIE ,Ds3
 .byte   TIE ,Gn3
 .byte   W96
 .byte   PEND 
@  #05 @025   ----------------------------------------
 .byte   W96
@  #05 @026   ----------------------------------------
 .byte   PATT
  .word Label_01004054
@  #05 @027   ----------------------------------------
 .byte   W96
@  #05 @028   ----------------------------------------
 .byte   EOT
 .byte   Ds3 ,v067
 .byte   As2
 .byte   TIE ,Ds3 ,v127
 .byte   TIE ,Cn3
 .byte   W96
@  #05 @029   ----------------------------------------
 .byte   W96
@  #05 @030   ----------------------------------------
Label_010040C9:
 .byte   EOT
 .byte   Ds3 ,v060
 .byte   TIE ,As2 ,v127
 .byte   N96 ,Dn3
 .byte   TIE ,Fn3
 .byte   W96
 .byte   PEND 
@  #05 @031   ----------------------------------------
 .byte   N96 ,As3
 .byte   W96
@  #05 @032   ----------------------------------------
 .byte   PATT
  .word Label_010040AB
@  #05 @033   ----------------------------------------
 .byte   W96
@  #05 @034   ----------------------------------------
 .byte   EOT
 .byte   Cn3 ,v063
 .byte   Gn3
 .byte   TIE ,As2 ,v127
 .byte   TIE ,Ds3
 .byte   TIE ,Gn3
 .byte   W96
@  #05 @035   ----------------------------------------
 .byte   W96
@  #05 @036   ----------------------------------------
 .byte   EOT
 .byte   As2 ,v067
 .byte   Ds3
 .byte   TIE ,Cn3
 .byte   TIE ,Ds3
 .byte   W96
@  #05 @037   ----------------------------------------
 .byte   W96
@  #05 @038   ----------------------------------------
 .byte   PATT
  .word Label_01004038
@  #05 @039   ----------------------------------------
 .byte   N96 ,As3 ,v127
 .byte   W96
@  #05 @040   ----------------------------------------
Label_010040FE:
 .byte   EOT
 .byte   Fn3 ,v058
 .byte   TIE ,Gn3 ,v127
 .byte   TIE ,Ds3
 .byte   TIE ,Cn3
 .byte   W96
 .byte   PEND 
@  #05 @041   ----------------------------------------
 .byte   W96
@  #05 @042   ----------------------------------------
 .byte   EOT
 .byte   Ds3 ,v067
 .byte   Cn3
 .byte   TIE ,As2
 .byte   TIE ,Ds3
 .byte   TIE ,Gn3
 .byte   W96
@  #05 @043   ----------------------------------------
 .byte   W96
@  #05 @044   ----------------------------------------
Label_01004117:
 .byte   EOT
 .byte   Gn3 ,v063
 .byte   As2
 .byte   TIE ,Ds3 ,v127
 .byte   TIE ,Cn3
 .byte   W96
 .byte   PEND 
@  #05 @045   ----------------------------------------
 .byte   W96
@  #05 @046   ----------------------------------------
 .byte   PATT
  .word Label_01004038
@  #05 @047   ----------------------------------------
 .byte   N96 ,As3 ,v127
 .byte   W96
@  #05 @048   ----------------------------------------
 .byte   PATT
  .word Label_010040FE
@  #05 @049   ----------------------------------------
 .byte   W96
@  #05 @050   ----------------------------------------
 .byte   PATT
  .word Label_0100408A
@  #05 @051   ----------------------------------------
 .byte   W96
@  #05 @052   ----------------------------------------
 .byte   PATT
  .word Label_01004117
@  #05 @053   ----------------------------------------
 .byte   W96
@  #05 @054   ----------------------------------------
Label_0100413E:
 .byte   EOT
 .byte   Cn3 ,v063
 .byte   TIE ,Fn3 ,v127
 .byte   N96 ,Dn3
 .byte   TIE ,As2
 .byte   W96
 .byte   PEND 
@  #05 @055   ----------------------------------------
 .byte   N96 ,As3
 .byte   W96
@  #05 @056   ----------------------------------------
 .byte   PATT
  .word Label_010040AB
@  #05 @057   ----------------------------------------
 .byte   W96
@  #05 @058   ----------------------------------------
 .byte   PATT
  .word Label_01004054
@  #05 @059   ----------------------------------------
 .byte   W96
@  #05 @060   ----------------------------------------
Label_01004159:
 .byte   EOT
 .byte   As2 ,v063
 .byte   Gn3
 .byte   TIE ,Ds3 ,v127
 .byte   TIE ,Cn3
 .byte   W96
 .byte   PEND 
@  #05 @061   ----------------------------------------
 .byte   W96
@  #05 @062   ----------------------------------------
 .byte   PATT
  .word Label_01004038
@  #05 @063   ----------------------------------------
 .byte   N96 ,As3 ,v127
 .byte   W96
@  #05 @064   ----------------------------------------
 .byte   PATT
  .word Label_0100407D
@  #05 @065   ----------------------------------------
 .byte   W96
@  #05 @066   ----------------------------------------
Label_01004174:
 .byte   EOT
 .byte   Gn3 ,v063
 .byte   Cn3
 .byte   TIE ,As2 ,v127
 .byte   TIE ,Ds3
 .byte   TIE ,Gn3
 .byte   W96
 .byte   PEND 
@  #05 @067   ----------------------------------------
 .byte   W96
@  #05 @068   ----------------------------------------
 .byte   EOT
 .byte   As2 ,v067
 .byte   Ds3
 .byte   TIE
 .byte   TIE ,Cn3
 .byte   W96
@  #05 @069   ----------------------------------------
 .byte   W96
@  #05 @070   ----------------------------------------
 .byte   PATT
  .word Label_010040C9
@  #05 @071   ----------------------------------------
 .byte   N96 ,As3 ,v127
 .byte   W96
@  #05 @072   ----------------------------------------
 .byte   EOT
 .byte   As2 ,v065
Label_01004197:
 .byte   TIE ,Cn3 ,v127
 .byte   TIE ,Ds3
 .byte   TIE ,Gn3
 .byte   W96
@  #05 @073   ----------------------------------------
 .byte   W96
@  #05 @074   ----------------------------------------
 .byte   EOT
 .byte   Cn3 ,v067
 .byte   Ds3
 .byte   TIE ,As2
 .byte   TIE ,Ds3
 .byte   TIE ,Gn3
 .byte   W96
@  #05 @075   ----------------------------------------
 .byte   W96
@  #05 @076   ----------------------------------------
 .byte   PATT
  .word Label_01004117
@  #05 @077   ----------------------------------------
 .byte   W96
@  #05 @078   ----------------------------------------
 .byte   PATT
  .word Label_01004038
@  #05 @079   ----------------------------------------
 .byte   N96 ,As3 ,v127
 .byte   W96
@  #05 @080   ----------------------------------------
 .byte   PATT
  .word Label_01004047
@  #05 @081   ----------------------------------------
 .byte   W96
@  #05 @082   ----------------------------------------
 .byte   EOT
 .byte   Gn3 ,v063
 .byte   Cn3
 .byte   TIE ,Gn3 ,v127
 .byte   TIE ,Ds3
 .byte   TIE ,As2
 .byte   W96
@  #05 @083   ----------------------------------------
 .byte   W96
@  #05 @084   ----------------------------------------
 .byte   PATT
  .word Label_01004159
@  #05 @085   ----------------------------------------
 .byte   W96
@  #05 @086   ----------------------------------------
 .byte   PATT
  .word Label_01004038
@  #05 @087   ----------------------------------------
 .byte   N96 ,As3 ,v127
 .byte   W96
@  #05 @088   ----------------------------------------
 .byte   PATT
  .word Label_010040FE
@  #05 @089   ----------------------------------------
 .byte   W96
@  #05 @090   ----------------------------------------
 .byte   PATT
  .word Label_01004174
@  #05 @091   ----------------------------------------
 .byte   W96
@  #05 @092   ----------------------------------------
 .byte   EOT
 .byte   Ds3 ,v058
 .byte   Gn3
 .byte   TIE ,Cn3 ,v127
 .byte   TIE ,Ds3
 .byte   W96
@  #05 @093   ----------------------------------------
 .byte   W96
@  #05 @094   ----------------------------------------
 .byte   PATT
  .word Label_0100413E
@  #05 @095   ----------------------------------------
 .byte   N96 ,As3 ,v127
 .byte   W96
@  #05 @096   ----------------------------------------
 .byte   PATT
  .word Label_010040FE
@  #05 @097   ----------------------------------------
 .byte   W96
@  #05 @098   ----------------------------------------
 .byte   EOT
 .byte   Ds3 ,v060
 .byte   Gn3
 .byte   TIE ,As2 ,v127
 .byte   TIE ,Ds3
 .byte   TIE ,Gn3
 .byte   W96
@  #05 @099   ----------------------------------------
 .byte   W96
@  #05 @100   ----------------------------------------
 .byte   PATT
  .word Label_01004062
@  #05 @101   ----------------------------------------
 .byte   W96
@  #05 @102   ----------------------------------------
 .byte   PATT
  .word Label_01004038
@  #05 @103   ----------------------------------------
 .byte   N96 ,As3 ,v127
 .byte   W96
@  #05 @104   ----------------------------------------
 .byte   EOT
 .byte   As2 ,v065
 .byte   GOTO
  .word Label_01004197
@  #05 @105   ----------------------------------------
 .byte   W96
 .byte   FINE

@**************** Track 6 (Midi-Chn.5) ****************@

song02_006:
@  #06 @000   ----------------------------------------
 .byte   KEYSH , song02_key+0
 .byte   VOICE , 124
 .byte   VOL , 46*song02_mvl/mxv
 .byte   BENDR, 12
 .byte   N64 ,An2 ,v127
 .byte   N06 ,Cn1
 .byte   N06 ,Fs1
 .byte   BEND , c_v+11
 .byte   W12
 .byte   N06
 .byte   W12
 .byte   Fs1
 .byte   W12
 .byte   Fs1
 .byte   W12
 .byte   Fs1
 .byte   W12
 .byte   Cn1
 .byte   N06 ,Fs1
 .byte   W12
 .byte   Fs1
 .byte   N06 ,En1
 .byte   W12
 .byte   N12 ,As1
 .byte   W12
@  #06 @001   ----------------------------------------
 .byte   N06 ,Fs1
 .byte   N06 ,Cn1
 .byte   W12
 .byte   Fs1
 .byte   W12
 .byte   Fs1
 .byte   W12
 .byte   Fs1
 .byte   W12
 .byte   Fs1
 .byte   W12
 .byte   Fs1
 .byte   N06 ,Cn1
 .byte   W12
 .byte   En1
 .byte   N06 ,Fs1
 .byte   W12
 .byte   Fs1
 .byte   W12
@  #06 @002   ----------------------------------------
 .byte   Fs1
 .byte   N06 ,Cn1
 .byte   W12
 .byte   Fs1
 .byte   W12
 .byte   Fs1
 .byte   W12
 .byte   Fs1
 .byte   W12
 .byte   Fs1
 .byte   W12
 .byte   En1
 .byte   N06 ,Cn1
 .byte   N06 ,Fs1
 .byte   W12
 .byte   En1
 .byte   N06 ,Fs1
 .byte   W12
 .byte   N12 ,As1
 .byte   W12
@  #06 @003   ----------------------------------------
 .byte   N06 ,Fs1
 .byte   N06 ,Cn1
 .byte   W12
 .byte   Fs1
 .byte   W12
 .byte   Fs1
 .byte   W12
 .byte   Fs1
 .byte   W12
 .byte   Fs1
 .byte   W12
 .byte   Cn1
 .byte   N06 ,Fs1
 .byte   W12
 .byte   Fs1
 .byte   N06 ,En1
 .byte   W12
 .byte   Fs1
 .byte   W12
@  #06 @004   ----------------------------------------
 .byte   Cn1
 .byte   N06 ,Fs1
 .byte   W12
 .byte   Fs1
 .byte   W12
 .byte   Fs1
 .byte   W12
 .byte   Fs1
 .byte   W12
 .byte   Fs1
 .byte   W12
 .byte   Fs1
 .byte   N06 ,Cn1
 .byte   W12
 .byte   Fs1
 .byte   N06 ,En1
 .byte   W12
 .byte   N12 ,As1
 .byte   W12
@  #06 @005   ----------------------------------------
 .byte   N06 ,Cn1
 .byte   N06 ,Fs1
 .byte   W12
 .byte   Fs1
 .byte   W12
 .byte   Fs1
 .byte   W12
 .byte   Fs1
 .byte   W12
 .byte   Fs1
 .byte   W12
 .byte   Cn1
 .byte   N06 ,Fs1
 .byte   W12
 .byte   Fs1
 .byte   N06 ,En1
 .byte   W12
 .byte   Fs1
 .byte   W12
@  #06 @006   ----------------------------------------
 .byte   Cn1
 .byte   N06 ,Fs1
 .byte   W12
 .byte   Fs1
 .byte   W12
 .byte   Fs1
 .byte   W12
 .byte   Fs1
 .byte   W12
 .byte   Fs1
 .byte   W12
 .byte   Fs1
 .byte   N06 ,Cn1
 .byte   N06 ,En1
 .byte   W12
 .byte   En1
 .byte   N06 ,Fs1
 .byte   W12
 .byte   N12 ,As1
 .byte   W12
@  #06 @007   ----------------------------------------
 .byte   N06 ,Cn1
 .byte   N06 ,Fs1
 .byte   W12
 .byte   Fs1
 .byte   W12
 .byte   Fs1
 .byte   W12
 .byte   Fs1
 .byte   W12
 .byte   Fs1
 .byte   W12
 .byte   Fs1
 .byte   N06 ,Cn1
 .byte   N06 ,Bn1
 .byte   W12
 .byte   En1
 .byte   N06 ,Fs1
 .byte   N06 ,Gn1
 .byte   W12
 .byte   Cn1
 .byte   N06 ,Fs1
 .byte   W12
@  #06 @008   ----------------------------------------
 .byte   N64 ,An2
 .byte   N06 ,Cn1
 .byte   N06 ,Fs1
 .byte   W12
 .byte   Fs1
 .byte   W12
 .byte   Fs1
 .byte   N06 ,En1
 .byte   W12
 .byte   Fs1
 .byte   W12
 .byte   Fs1
 .byte   W12
 .byte   Cn1
 .byte   N06 ,Fs1
 .byte   W12
 .byte   En1
 .byte   N06 ,Fs1
 .byte   W12
 .byte   N12 ,As1
 .byte   W12
@  #06 @009   ----------------------------------------
Label_01027920:
 .byte   N06 ,Cn1 ,v127
 .byte   N06 ,Fs1
 .byte   W12
 .byte   Fs1
 .byte   W12
 .byte   En1
 .byte   N06 ,Fs1
 .byte   W12
 .byte   En1
 .byte   N06 ,Fs1
 .byte   W12
 .byte   Fs1
 .byte   W12
 .byte   Cn1
 .byte   N06 ,Fs1
 .byte   W12
 .byte   Fs1
 .byte   N06 ,En1
 .byte   W12
 .byte   Fs1
 .byte   W12
 .byte   PEND 
@  #06 @010   ----------------------------------------
Label_0102793D:
 .byte   N06 ,Fs1 ,v127
 .byte   N06 ,Cn1
 .byte   W12
 .byte   Fs1
 .byte   W12
 .byte   En1
 .byte   N06 ,Fs1
 .byte   W12
 .byte   Fs1
 .byte   W12
 .byte   Fs1
 .byte   W12
 .byte   Cn1
 .byte   N06 ,Fs1
 .byte   W12
 .byte   Fs1
 .byte   N06 ,En1
 .byte   W12
 .byte   N12 ,As1
 .byte   W12
 .byte   PEND 
@  #06 @011   ----------------------------------------
Label_01027959:
 .byte   N06 ,Fs1 ,v127
 .byte   N06 ,Cn1
 .byte   W12
 .byte   Fs1
 .byte   W12
 .byte   Fs1
 .byte   N06 ,En1
 .byte   W12
 .byte   Fs1
 .byte   N06 ,En1
 .byte   W12
 .byte   Fs1
 .byte   W12
 .byte   Fs1
 .byte   N06 ,En1
 .byte   W12
 .byte   En1
 .byte   N06 ,Fs1
 .byte   W12
 .byte   Fs1
 .byte   W12
 .byte   PEND 
@  #06 @012   ----------------------------------------
Label_01027976:
 .byte   N06 ,Cn1 ,v127
 .byte   N06 ,Fs1
 .byte   W12
 .byte   Fs1
 .byte   W12
 .byte   Fs1
 .byte   N06 ,En1
 .byte   W12
 .byte   Fs1
 .byte   W12
 .byte   Fs1
 .byte   W12
 .byte   Fs1
 .byte   N06 ,Cn1
 .byte   W12
 .byte   En1
 .byte   N06 ,Fs1
 .byte   W12
 .byte   N12 ,As1
 .byte   W12
 .byte   PEND 
@  #06 @013   ----------------------------------------
 .byte   N06 ,Fs1
 .byte   N06 ,Cn1
 .byte   W12
 .byte   Fs1
 .byte   W12
 .byte   Fs1
 .byte   N06 ,En1
 .byte   W12
 .byte   Fs1
 .byte   W12
 .byte   Fs1
 .byte   W12
 .byte   Fs1
 .byte   N06 ,Cn1
 .byte   W12
 .byte   Fs1
 .byte   N06 ,En1
 .byte   W12
 .byte   N12 ,As1
 .byte   W12
@  #06 @014   ----------------------------------------
 .byte   PATT
  .word Label_0102793D
@  #06 @015   ----------------------------------------
Label_010279B1:
 .byte   N06 ,Cn1 ,v127
 .byte   N06 ,Fs1
 .byte   W12
 .byte   Fs1
 .byte   W12
 .byte   En1
 .byte   N06 ,Fs1
 .byte   W12
 .byte   En1
 .byte   N06 ,Fs1
 .byte   W12
 .byte   Fs1
 .byte   W12
 .byte   Bn1
 .byte   N06 ,Cn1
 .byte   N06 ,Fs1
 .byte   W12
 .byte   Gn1
 .byte   N06 ,Fs1
 .byte   N06 ,En1
 .byte   W12
 .byte   N12 ,As1
 .byte   W12
 .byte   PEND 
@  #06 @016   ----------------------------------------
 .byte   N06 ,Fs1
 .byte   N06 ,Cn1
 .byte   N64 ,An2
 .byte   W12
 .byte   N06 ,Fs1
 .byte   W12
 .byte   En1
 .byte   N06 ,Fs1
 .byte   W12
 .byte   Fs1
 .byte   W12
 .byte   Fs1
 .byte   W12
 .byte   Cn1
 .byte   N06 ,Fs1
 .byte   W12
 .byte   Fs1
 .byte   N06 ,En1
 .byte   W12
 .byte   N12 ,As1
 .byte   W12
@  #06 @017   ----------------------------------------
 .byte   PATT
  .word Label_01027920
@  #06 @018   ----------------------------------------
Label_010279F5:
 .byte   N06 ,Cn1 ,v127
 .byte   N06 ,Fs1
 .byte   W12
 .byte   Fs1
 .byte   W12
 .byte   Fs1
 .byte   N06 ,En1
 .byte   W12
 .byte   Fs1
 .byte   W12
 .byte   Fs1
 .byte   W12
 .byte   Fs1
 .byte   N06 ,Cn1
 .byte   W12
 .byte   Fs1
 .byte   N06 ,En1
 .byte   W12
 .byte   N12 ,As1
 .byte   W12
 .byte   PEND 
@  #06 @019   ----------------------------------------
 .byte   PATT
  .word Label_01027959
@  #06 @020   ----------------------------------------
 .byte   PATT
  .word Label_01027976
@  #06 @021   ----------------------------------------
 .byte   PATT
  .word Label_0102793D
@  #06 @022   ----------------------------------------
 .byte   PATT
  .word Label_0102793D
@  #06 @023   ----------------------------------------
 .byte   PATT
  .word Label_010279B1
@  #06 @024   ----------------------------------------
 .byte   N12 ,As1 ,v127
 .byte   N11 ,Ds2
 .byte   N64 ,An2
 .byte   N06 ,Cn1
 .byte   W12
 .byte   Fs1
 .byte   W12
 .byte   En1
 .byte   N13 ,Bn2
 .byte   N12 ,As1
 .byte   W12
 .byte   N06 ,Fs1
 .byte   W12
 .byte   N11 ,Ds2
 .byte   N12 ,As1
 .byte   W12
 .byte   N06 ,Fs1
 .byte   N06 ,Cn1
 .byte   W12
 .byte   En1
 .byte   N13 ,Bn2
 .byte   N12 ,As1
 .byte   W12
 .byte   N06 ,Fs1
 .byte   W12
@  #06 @025   ----------------------------------------
 .byte   Cn1
 .byte   N12 ,As1
 .byte   N11 ,Ds2
 .byte   W12
 .byte   N06 ,Fs1
 .byte   W12
 .byte   En1
 .byte   N12 ,As1
 .byte   N13 ,Bn2
 .byte   W12
 .byte   N06 ,Fs1
 .byte   W12
 .byte   N11 ,Ds2
 .byte   N12 ,As1
 .byte   W12
 .byte   N06 ,Cn1
 .byte   N06 ,Fs1
 .byte   W12
 .byte   N13 ,Bn2
 .byte   N12 ,As1
 .byte   N06 ,En1
 .byte   W12
 .byte   Fs1
 .byte   W06
 .byte   As1
 .byte   W06
@  #06 @026   ----------------------------------------
 .byte   Cn1
 .byte   N06 ,As1
 .byte   N11 ,Ds2
 .byte   W12
 .byte   N06 ,Fs1
 .byte   W12
 .byte   N13 ,Bn2
 .byte   N12 ,As1
 .byte   N06 ,En1
 .byte   W12
 .byte   Fs1
 .byte   W12
 .byte   N11 ,Ds2
 .byte   N12 ,As1
 .byte   W12
 .byte   N06 ,Cn1
 .byte   N06 ,Fs1
 .byte   W12
 .byte   N13 ,Bn2
 .byte   N12 ,As1
 .byte   N06 ,En1
 .byte   W12
 .byte   Fs1
 .byte   W12
@  #06 @027   ----------------------------------------
 .byte   N11 ,Ds2
 .byte   N12 ,As1
 .byte   N06 ,Cn1
 .byte   W12
 .byte   Fs1
 .byte   W12
 .byte   N13 ,Bn2
 .byte   N12 ,As1
 .byte   N06 ,En1
 .byte   W12
 .byte   En1
 .byte   N06 ,Fs1
 .byte   W12
 .byte   N11 ,Ds2
 .byte   N12 ,As1
 .byte   W12
 .byte   N06 ,Cn1
 .byte   N06 ,Fs1
 .byte   W12
 .byte   N13 ,Bn2
 .byte   N12 ,As1
 .byte   N06 ,En1
 .byte   W12
 .byte   Fs1
 .byte   W06
 .byte   As1
 .byte   W06
@  #06 @028   ----------------------------------------
 .byte   Cn1
 .byte   N11 ,Ds2
 .byte   N06 ,As1
 .byte   W12
 .byte   Fs1
 .byte   W12
 .byte   N12 ,As1
 .byte   N13 ,Bn2
 .byte   N06 ,En1
 .byte   W12
 .byte   Fs1
 .byte   W12
 .byte   N12 ,As1
 .byte   N11 ,Ds2
 .byte   W12
 .byte   N06 ,Cn1
 .byte   N06 ,Fs1
 .byte   W12
 .byte   N12 ,As1
 .byte   N13 ,Bn2
 .byte   N06 ,En1
 .byte   W12
 .byte   Fs1
 .byte   W12
@  #06 @029   ----------------------------------------
 .byte   N11 ,Ds2
 .byte   N12 ,As1
 .byte   N06 ,Cn1
 .byte   W12
 .byte   Fs1
 .byte   W12
 .byte   N13 ,Bn2
 .byte   N12 ,As1
 .byte   N06 ,En1
 .byte   W12
 .byte   Fs1
 .byte   W12
 .byte   N11 ,Ds2
 .byte   N12 ,As1
 .byte   W12
 .byte   N06 ,Cn1
 .byte   N06 ,Fs1
 .byte   W12
 .byte   N13 ,Bn2
 .byte   N12 ,As1
 .byte   N06 ,En1
 .byte   W12
 .byte   Fs1
 .byte   W06
 .byte   As1
 .byte   W06
@  #06 @030   ----------------------------------------
 .byte   N11 ,Ds2
 .byte   N06 ,As1
 .byte   N06 ,Cn1
 .byte   W12
 .byte   Fs1
 .byte   W12
 .byte   N13 ,Bn2
 .byte   N12 ,As1
 .byte   N06 ,En1
 .byte   W12
 .byte   Fs1
 .byte   W12
 .byte   N12 ,As1
 .byte   N11 ,Ds2
 .byte   W12
 .byte   N06 ,Cn1
 .byte   N06 ,Fs1
 .byte   W12
 .byte   N13 ,Bn2
 .byte   N12 ,As1
 .byte   N06 ,En1
 .byte   W12
 .byte   Fs1
 .byte   W12
@  #06 @031   ----------------------------------------
 .byte   N11 ,Ds2
 .byte   N12 ,As1
 .byte   N06 ,Cn1
 .byte   W12
 .byte   Fs1
 .byte   W12
 .byte   N13 ,Bn2
 .byte   N12 ,As1
 .byte   N06 ,En1
 .byte   W12
 .byte   Fs1
 .byte   N06 ,En1
 .byte   W12
 .byte   N11 ,Ds2
 .byte   N12 ,As1
 .byte   W12
 .byte   N06 ,Cn1
 .byte   N06 ,Fs1
 .byte   W12
 .byte   En1
 .byte   N12 ,As1
 .byte   N13 ,Bn2
 .byte   W12
 .byte   N06 ,Fs1
 .byte   W06
 .byte   As1
 .byte   W06
@  #06 @032   ----------------------------------------
 .byte   As1
 .byte   N11 ,Ds2
 .byte   N64 ,An2
 .byte   N06 ,Cn1
 .byte   W12
 .byte   Fs1
 .byte   W12
 .byte   N12 ,As1
 .byte   N13 ,Bn2
 .byte   N06 ,En1
 .byte   W12
 .byte   Bn1
 .byte   N06 ,Fs1
 .byte   W12
 .byte   N11 ,Ds2
 .byte   N12 ,As1
 .byte   W12
 .byte   N06 ,Fs1
 .byte   N06 ,Cn1
 .byte   W12
 .byte   En1
 .byte   N13 ,Bn2
 .byte   N12 ,As1
 .byte   N06 ,Gn1
 .byte   W12
 .byte   Fs1
 .byte   W12
@  #06 @033   ----------------------------------------
Label_01027B89:
 .byte   N11 ,Ds2 ,v127
 .byte   N12 ,As1
 .byte   N06 ,Cn1
 .byte   W12
 .byte   Fs1
 .byte   W12
 .byte   En1
 .byte   N12 ,As1
 .byte   N13 ,Bn2
 .byte   W12
 .byte   N06 ,Fs1
 .byte   N06 ,Bn1
 .byte   W12
 .byte   N12 ,As1
 .byte   N11 ,Ds2
 .byte   W12
 .byte   N06 ,Fs1
 .byte   N06 ,Cn1
 .byte   N06 ,Bn1
 .byte   W12
 .byte   Gn1
 .byte   N13 ,Bn2
 .byte   N12 ,As1
 .byte   N06 ,En1
 .byte   W06
 .byte   Gn1
 .byte   W06
 .byte   Fs1
 .byte   W06
 .byte   As1
 .byte   W06
 .byte   PEND 
@  #06 @034   ----------------------------------------
Label_01027BB9:
 .byte   N11 ,Ds2 ,v127
 .byte   N06 ,As1
 .byte   N06 ,Cn1
 .byte   W12
 .byte   Fs1
 .byte   W12
 .byte   En1
 .byte   N12 ,As1
 .byte   N13 ,Bn2
 .byte   W12
 .byte   N06 ,Bn1
 .byte   N06 ,Fs1
 .byte   W12
 .byte   N12 ,As1
 .byte   N11 ,Ds2
 .byte   W12
 .byte   N06 ,Fs1
 .byte   N06 ,Cn1
 .byte   W12
 .byte   En1
 .byte   N12 ,As1
 .byte   N13 ,Bn2
 .byte   N06 ,Gn1
 .byte   W12
 .byte   Fs1
 .byte   W12
 .byte   PEND 
@  #06 @035   ----------------------------------------
 .byte   N11 ,Ds2
 .byte   N12 ,As1
 .byte   N06 ,Cn1
 .byte   W12
 .byte   Fs1
 .byte   W12
 .byte   N13 ,Bn2
 .byte   N12 ,As1
 .byte   N06 ,En1
 .byte   W12
 .byte   Fs1
 .byte   N06 ,En1
 .byte   N06 ,Bn1
 .byte   W12
 .byte   N11 ,Ds2
 .byte   N12 ,As1
 .byte   W12
 .byte   N06 ,Bn1
 .byte   N06 ,Cn1
 .byte   N06 ,Fs1
 .byte   W12
 .byte   En1
 .byte   N12 ,As1
 .byte   N13 ,Bn2
 .byte   N06 ,Gn1
 .byte   W06
 .byte   Gn1
 .byte   W06
 .byte   Fs1
 .byte   W06
 .byte   As1
 .byte   W06
@  #06 @036   ----------------------------------------
 .byte   As1
 .byte   N11 ,Ds2
 .byte   N64 ,An2
 .byte   N06 ,Cn1
 .byte   W12
 .byte   Fs1
 .byte   W12
 .byte   N12 ,As1
 .byte   N13 ,Bn2
 .byte   N06 ,En1
 .byte   W12
 .byte   Fs1
 .byte   N06 ,Bn1
 .byte   W12
 .byte   N11 ,Ds2
 .byte   N12 ,As1
 .byte   W12
 .byte   N06 ,Cn1
 .byte   N06 ,Fs1
 .byte   W12
 .byte   Gn1
 .byte   N12 ,As1
 .byte   N13 ,Bn2
 .byte   N06 ,En1
 .byte   W12
 .byte   Fs1
 .byte   W12
@  #06 @037   ----------------------------------------
 .byte   Cn1
 .byte   N12 ,As1
 .byte   N11 ,Ds2
 .byte   W12
 .byte   N06 ,Fs1
 .byte   W12
 .byte   N13 ,Bn2
 .byte   N12 ,As1
 .byte   N06 ,En1
 .byte   W12
 .byte   Fs1
 .byte   N06 ,Bn1
 .byte   W12
 .byte   N12 ,As1
 .byte   N11 ,Ds2
 .byte   W12
 .byte   N06 ,Bn1
 .byte   N06 ,Cn1
 .byte   N06 ,Fs1
 .byte   W12
 .byte   En1
 .byte   N12 ,As1
 .byte   N13 ,Bn2
 .byte   N06 ,Gn1
 .byte   W06
 .byte   Gn1
 .byte   W06
 .byte   Fs1
 .byte   W06
 .byte   As1
 .byte   W06
@  #06 @038   ----------------------------------------
 .byte   N11 ,Ds2
 .byte   N06 ,As1
 .byte   N06 ,Cn1
 .byte   W12
 .byte   Fs1
 .byte   W12
 .byte   N13 ,Bn2
 .byte   N12 ,As1
 .byte   N06 ,En1
 .byte   W12
 .byte   Bn1
 .byte   N06 ,Fs1
 .byte   W12
 .byte   N11 ,Ds2
 .byte   N12 ,As1
 .byte   W12
 .byte   N06 ,Fs1
 .byte   N06 ,Cn1
 .byte   W12
 .byte   Gn1
 .byte   N13 ,Bn2
 .byte   N12 ,As1
 .byte   N06 ,En1
 .byte   W12
 .byte   Fs1
 .byte   W12
@  #06 @039   ----------------------------------------
 .byte   Cn1
 .byte   N12 ,As1
 .byte   N11 ,Ds2
 .byte   W12
 .byte   N06 ,Fs1
 .byte   N06 ,Bn1
 .byte   W06
 .byte   Gn1
 .byte   W06
 .byte   En1
 .byte   N12 ,As1
 .byte   N13 ,Bn2
 .byte   W12
 .byte   N06 ,Gn1
 .byte   N06 ,En1
 .byte   N06 ,Fs1
 .byte   W12
 .byte   N11 ,Ds2
 .byte   N12 ,As1
 .byte   W06
 .byte   N06 ,Bn1
 .byte   W06
 .byte   Bn1
 .byte   N06 ,Cn1
 .byte   N06 ,Fs1
 .byte   W06
 .byte   Gn1
 .byte   W06
 .byte   Gn1
 .byte   N13 ,Bn2
 .byte   N12 ,As1
 .byte   N06 ,En1
 .byte   W06
 .byte   Gn1
 .byte   W06
 .byte   En1
 .byte   N06 ,Fs1
 .byte   W06
 .byte   N12 ,As1
 .byte   W06
@  #06 @040   ----------------------------------------
 .byte   N06 ,Fs1
 .byte   N06 ,Cn1
 .byte   N64 ,An2
 .byte   W12
 .byte   N06 ,Fs1
 .byte   W12
 .byte   Fs1
 .byte   N06 ,En1
 .byte   W12
 .byte   Fs1
 .byte   W12
 .byte   Fs1
 .byte   W12
 .byte   Fs1
 .byte   N06 ,Cn1
 .byte   W12
 .byte   En1
 .byte   N06 ,Fs1
 .byte   W12
 .byte   N12 ,As1
 .byte   W12
@  #06 @041   ----------------------------------------
 .byte   N06 ,Fs1
 .byte   N06 ,Cn1
 .byte   W12
 .byte   Fs1
 .byte   W12
 .byte   En1
 .byte   N06 ,Fs1
 .byte   W12
 .byte   Fs1
 .byte   N06 ,En1
 .byte   W12
 .byte   Fs1
 .byte   W12
 .byte   Fs1
 .byte   N06 ,Cn1
 .byte   W12
 .byte   En1
 .byte   N06 ,Fs1
 .byte   W12
 .byte   Fs1
 .byte   W12
@  #06 @042   ----------------------------------------
Label_01027D05:
 .byte   N06 ,Cn1 ,v127
 .byte   N06 ,Fs1
 .byte   W12
 .byte   Fs1
 .byte   W12
 .byte   Fs1
 .byte   N06 ,En1
 .byte   W12
 .byte   Fs1
 .byte   W12
 .byte   Fs1
 .byte   W12
 .byte   Cn1
 .byte   N06 ,Fs1
 .byte   W12
 .byte   En1
 .byte   N06 ,Fs1
 .byte   W12
 .byte   N12 ,As1
 .byte   W12
 .byte   PEND 
@  #06 @043   ----------------------------------------
Label_01027D21:
 .byte   N06 ,Cn1 ,v127
 .byte   N06 ,Fs1
 .byte   W12
 .byte   Fs1
 .byte   W12
 .byte   Fs1
 .byte   N06 ,En1
 .byte   W12
 .byte   Fs1
 .byte   N06 ,En1
 .byte   W12
 .byte   Fs1
 .byte   W12
 .byte   En1
 .byte   N06 ,Fs1
 .byte   W12
 .byte   Fs1
 .byte   N06 ,En1
 .byte   W12
 .byte   Fs1
 .byte   W12
 .byte   PEND 
@  #06 @044   ----------------------------------------
 .byte   PATT
  .word Label_0102793D
@  #06 @045   ----------------------------------------
 .byte   N06 ,Fs1 ,v127
 .byte   N06 ,Cn1
 .byte   W12
 .byte   Fs1
 .byte   W12
 .byte   Fs1
 .byte   N06 ,En1
 .byte   W12
 .byte   Fs1
 .byte   W12
 .byte   Fs1
 .byte   W12
 .byte   Fs1
 .byte   N06 ,Cn1
 .byte   W12
 .byte   En1
 .byte   N06 ,Fs1
 .byte   W12
 .byte   N12 ,As1
 .byte   W12
@  #06 @046   ----------------------------------------
 .byte   PATT
  .word Label_01027D05
@  #06 @047   ----------------------------------------
 .byte   N06 ,Fs1 ,v127
 .byte   N06 ,Cn1
 .byte   W12
 .byte   Fs1
 .byte   W12
 .byte   En1
 .byte   N06 ,Fs1
 .byte   W12
 .byte   Fs1
 .byte   N06 ,En1
 .byte   W12
 .byte   Fs1
 .byte   W12
 .byte   Bn1
 .byte   N06 ,Cn1
 .byte   N06 ,Fs1
 .byte   W12
 .byte   En1
 .byte   N06 ,Fs1
 .byte   N06 ,Gn1
 .byte   W12
 .byte   N12 ,As1
 .byte   W12
@  #06 @048   ----------------------------------------
 .byte   N06 ,Fs1
 .byte   N06 ,Cn1
 .byte   N64 ,An2
 .byte   W12
 .byte   N06 ,Fs1
 .byte   W12
 .byte   Fs1
 .byte   N06 ,En1
 .byte   W12
 .byte   Fs1
 .byte   W12
 .byte   Fs1
 .byte   W12
 .byte   Cn1
 .byte   N06 ,Fs1
 .byte   W12
 .byte   En1
 .byte   N06 ,Fs1
 .byte   W12
 .byte   N12 ,As1
 .byte   W12
@  #06 @049   ----------------------------------------
 .byte   PATT
  .word Label_01027920
@  #06 @050   ----------------------------------------
 .byte   N06 ,Cn1 ,v127
 .byte   N06 ,Fs1
 .byte   W12
 .byte   Fs1
 .byte   W12
 .byte   En1
 .byte   N06 ,Fs1
 .byte   W12
 .byte   Fs1
 .byte   W12
 .byte   Fs1
 .byte   W12
 .byte   Cn1
 .byte   N06 ,Fs1
 .byte   W12
 .byte   En1
 .byte   N06 ,Fs1
 .byte   W12
 .byte   N12 ,As1
 .byte   W12
@  #06 @051   ----------------------------------------
 .byte   PATT
  .word Label_01027959
@  #06 @052   ----------------------------------------
 .byte   N06 ,Fs1 ,v127
 .byte   N06 ,Cn1
 .byte   W12
 .byte   Fs1
 .byte   W12
 .byte   En1
 .byte   N06 ,Fs1
 .byte   W12
 .byte   Fs1
 .byte   W12
 .byte   Fs1
 .byte   W12
 .byte   Fs1
 .byte   N06 ,Cn1
 .byte   W12
 .byte   Fs1
 .byte   N06 ,En1
 .byte   W12
 .byte   N12 ,As1
 .byte   W12
@  #06 @053   ----------------------------------------
 .byte   PATT
  .word Label_01027976
@  #06 @054   ----------------------------------------
 .byte   N06 ,Fs1 ,v127
 .byte   N06 ,Cn1
 .byte   W12
 .byte   Fs1
 .byte   W12
 .byte   Fs1
 .byte   N06 ,En1
 .byte   W12
 .byte   Fs1
 .byte   W12
 .byte   Fs1
 .byte   W12
 .byte   Cn1
 .byte   N06 ,Fs1
 .byte   W12
 .byte   En1
 .byte   N06 ,Fs1
 .byte   W12
 .byte   N12 ,As1
 .byte   W12
@  #06 @055   ----------------------------------------
 .byte   N06 ,Fs1
 .byte   N06 ,Cn1
 .byte   W12
 .byte   Fs1
 .byte   W12
 .byte   Fs1
 .byte   N06 ,En1
 .byte   W12
 .byte   En1
 .byte   N06 ,Fs1
 .byte   W12
 .byte   Fs1
 .byte   W12
 .byte   Bn1
 .byte   N06 ,Cn1
 .byte   N06 ,Fs1
 .byte   W12
 .byte   En1
 .byte   N06 ,Fs1
 .byte   N06 ,Gn1
 .byte   W12
 .byte   N12 ,As1
 .byte   W12
@  #06 @056   ----------------------------------------
 .byte   As1
 .byte   N11 ,Ds2
 .byte   N64 ,An2
 .byte   N06 ,Cn1
 .byte   W12
 .byte   Fs1
 .byte   W12
 .byte   En1
 .byte   N13 ,Bn2
 .byte   N12 ,As1
 .byte   W12
 .byte   N06 ,Fs1
 .byte   W12
 .byte   N12 ,As1
 .byte   N11 ,Ds2
 .byte   W12
 .byte   N06 ,Cn1
 .byte   N06 ,Fs1
 .byte   W12
 .byte   N12 ,As1
 .byte   N13 ,Bn2
 .byte   N06 ,En1
 .byte   W12
 .byte   Fs1
 .byte   W12
@  #06 @057   ----------------------------------------
 .byte   N11 ,Ds2
 .byte   N12 ,As1
 .byte   N06 ,Cn1
 .byte   W12
 .byte   Fs1
 .byte   W12
 .byte   En1
 .byte   N12 ,As1
 .byte   N13 ,Bn2
 .byte   W12
 .byte   N06 ,Fs1
 .byte   W12
 .byte   N11 ,Ds2
 .byte   N12 ,As1
 .byte   W12
 .byte   N06 ,Cn1
 .byte   N06 ,Fs1
 .byte   W12
 .byte   En1
 .byte   N12 ,As1
 .byte   N13 ,Bn2
 .byte   W12
 .byte   N06 ,Fs1
 .byte   W06
 .byte   As1
 .byte   W06
@  #06 @058   ----------------------------------------
 .byte   Cn1
 .byte   N06 ,As1
 .byte   N11 ,Ds2
 .byte   W12
 .byte   N06 ,Fs1
 .byte   W12
 .byte   N13 ,Bn2
 .byte   N12 ,As1
 .byte   N06 ,En1
 .byte   W12
 .byte   Fs1
 .byte   W12
 .byte   N11 ,Ds2
 .byte   N12 ,As1
 .byte   W12
 .byte   N06 ,Fs1
 .byte   N06 ,Cn1
 .byte   W12
 .byte   N13 ,Bn2
 .byte   N12 ,As1
 .byte   N06 ,En1
 .byte   W12
 .byte   Fs1
 .byte   W12
@  #06 @059   ----------------------------------------
 .byte   Cn1
 .byte   N12 ,As1
 .byte   N11 ,Ds2
 .byte   W12
 .byte   N06 ,Fs1
 .byte   W12
 .byte   N13 ,Bn2
 .byte   N12 ,As1
 .byte   N06 ,En1
 .byte   W12
 .byte   Fs1
 .byte   N06 ,En1
 .byte   W12
 .byte   N11 ,Ds2
 .byte   N12 ,As1
 .byte   W12
 .byte   N06 ,Fs1
 .byte   N06 ,Cn1
 .byte   W12
 .byte   N13 ,Bn2
 .byte   N12 ,As1
 .byte   N06 ,En1
 .byte   W12
 .byte   Fs1
 .byte   W06
 .byte   As1
 .byte   W06
@  #06 @060   ----------------------------------------
 .byte   Cn1
 .byte   N11 ,Ds2
 .byte   N06 ,As1
 .byte   W12
 .byte   Fs1
 .byte   W12
 .byte   N12 ,As1
 .byte   N13 ,Bn2
 .byte   N06 ,En1
 .byte   W12
 .byte   Fs1
 .byte   W12
 .byte   N12 ,As1
 .byte   N11 ,Ds2
 .byte   W12
 .byte   N06 ,Fs1
 .byte   N06 ,Cn1
 .byte   W12
 .byte   En1
 .byte   N13 ,Bn2
 .byte   N12 ,As1
 .byte   W12
 .byte   N06 ,Fs1
 .byte   W12
@  #06 @061   ----------------------------------------
 .byte   N11 ,Ds2
 .byte   N12 ,As1
 .byte   N06 ,Cn1
 .byte   W12
 .byte   Fs1
 .byte   W12
 .byte   En1
 .byte   N12 ,As1
 .byte   N13 ,Bn2
 .byte   W12
 .byte   N06 ,Fs1
 .byte   W12
 .byte   N11 ,Ds2
 .byte   N12 ,As1
 .byte   W12
 .byte   N06 ,Fs1
 .byte   N06 ,Cn1
 .byte   W12
 .byte   N13 ,Bn2
 .byte   N12 ,As1
 .byte   N06 ,En1
 .byte   W12
 .byte   Fs1
 .byte   W06
 .byte   As1
 .byte   W06
@  #06 @062   ----------------------------------------
 .byte   N11 ,Ds2
 .byte   N06 ,As1
 .byte   N06 ,Cn1
 .byte   W12
 .byte   Fs1
 .byte   W12
 .byte   En1
 .byte   N12 ,As1
 .byte   N13 ,Bn2
 .byte   W12
 .byte   N06 ,Fs1
 .byte   W12
 .byte   N12 ,As1
 .byte   N11 ,Ds2
 .byte   W12
 .byte   N06 ,Cn1
 .byte   N06 ,Fs1
 .byte   W12
 .byte   En1
 .byte   N12 ,As1
 .byte   N13 ,Bn2
 .byte   W12
 .byte   N06 ,Fs1
 .byte   W12
@  #06 @063   ----------------------------------------
 .byte   N11 ,Ds2
 .byte   N12 ,As1
 .byte   N06 ,Cn1
 .byte   W12
 .byte   Fs1
 .byte   W12
 .byte   En1
 .byte   N12 ,As1
 .byte   N13 ,Bn2
 .byte   W12
 .byte   N06 ,En1
 .byte   N06 ,Fs1
 .byte   W12
 .byte   N11 ,Ds2
 .byte   N12 ,As1
 .byte   W12
 .byte   N06 ,Fs1
 .byte   N06 ,Cn1
 .byte   W12
 .byte   N13 ,Bn2
 .byte   N12 ,As1
 .byte   N06 ,En1
 .byte   W12
 .byte   Fs1
 .byte   W06
 .byte   As1
 .byte   W06
@  #06 @064   ----------------------------------------
 .byte   Cn1
 .byte   N64 ,An2
 .byte   N11 ,Ds2
 .byte   N06 ,As1
 .byte   W12
 .byte   Fs1
 .byte   W12
 .byte   N12 ,As1
 .byte   N13 ,Bn2
 .byte   N06 ,En1
 .byte   W12
 .byte   Bn1
 .byte   N06 ,Fs1
 .byte   W12
 .byte   N12 ,As1
 .byte   N11 ,Ds2
 .byte   W12
 .byte   N06 ,Cn1
 .byte   N06 ,Fs1
 .byte   W12
 .byte   Gn1
 .byte   N12 ,As1
 .byte   N13 ,Bn2
 .byte   N06 ,En1
 .byte   W12
 .byte   Fs1
 .byte   W12
@  #06 @065   ----------------------------------------
 .byte   N11 ,Ds2
 .byte   N12 ,As1
 .byte   N06 ,Cn1
 .byte   W12
 .byte   Fs1
 .byte   W12
 .byte   En1
 .byte   N12 ,As1
 .byte   N13 ,Bn2
 .byte   W12
 .byte   N06 ,Fs1
 .byte   N06 ,Bn1
 .byte   W12
 .byte   N12 ,As1
 .byte   N11 ,Ds2
 .byte   W12
 .byte   N06 ,Bn1
 .byte   N06 ,Cn1
 .byte   N06 ,Fs1
 .byte   W12
 .byte   Gn1
 .byte   N13 ,Bn2
 .byte   N12 ,As1
 .byte   N06 ,En1
 .byte   W06
 .byte   Gn1
 .byte   W06
 .byte   Fs1
 .byte   W06
 .byte   As1
 .byte   W06
@  #06 @066   ----------------------------------------
 .byte   PATT
  .word Label_01027BB9
@  #06 @067   ----------------------------------------
 .byte   N06 ,Cn1 ,v127
 .byte   N12 ,As1
 .byte   N11 ,Ds2
 .byte   W12
 .byte   N06 ,Fs1
 .byte   W12
 .byte   N13 ,Bn2
 .byte   N12 ,As1
 .byte   N06 ,En1
 .byte   W12
 .byte   Fs1
 .byte   N06 ,En1
 .byte   N06 ,Bn1
 .byte   W12
 .byte   N11 ,Ds2
 .byte   N12 ,As1
 .byte   W12
 .byte   N06 ,Fs1
 .byte   N06 ,Cn1
 .byte   N06 ,Bn1
 .byte   W12
 .byte   Gn1
 .byte   N13 ,Bn2
 .byte   N12 ,As1
 .byte   N06 ,En1
 .byte   W06
 .byte   Gn1
 .byte   W06
 .byte   Fs1
 .byte   W06
 .byte   As1
 .byte   W06
@  #06 @068   ----------------------------------------
 .byte   Cn1
 .byte   N64 ,An2
 .byte   N11 ,Ds2
 .byte   N06 ,As1
 .byte   W12
 .byte   Fs1
 .byte   W12
 .byte   En1
 .byte   N13 ,Bn2
 .byte   N12 ,As1
 .byte   W12
 .byte   N06 ,Fs1
 .byte   N06 ,Bn1
 .byte   W12
 .byte   N12 ,As1
 .byte   N11 ,Ds2
 .byte   W12
 .byte   N06 ,Fs1
 .byte   N06 ,Cn1
 .byte   W12
 .byte   Gn1
 .byte   N12 ,As1
 .byte   N13 ,Bn2
 .byte   N06 ,En1
 .byte   W12
 .byte   Fs1
 .byte   W12
@  #06 @069   ----------------------------------------
 .byte   N11 ,Ds2
 .byte   N12 ,As1
 .byte   N06 ,Cn1
 .byte   W12
 .byte   Fs1
 .byte   W12
 .byte   N13 ,Bn2
 .byte   N12 ,As1
 .byte   N06 ,En1
 .byte   W12
 .byte   Bn1
 .byte   N06 ,Fs1
 .byte   W12
 .byte   N12 ,As1
 .byte   N11 ,Ds2
 .byte   W12
 .byte   N06 ,Bn1
 .byte   N06 ,Cn1
 .byte   N06 ,Fs1
 .byte   W12
 .byte   Gn1
 .byte   N13 ,Bn2
 .byte   N12 ,As1
 .byte   N06 ,En1
 .byte   W06
 .byte   Gn1
 .byte   W06
 .byte   Fs1
 .byte   W06
 .byte   As1
 .byte   W06
@  #06 @070   ----------------------------------------
 .byte   N11 ,Ds2
 .byte   N06 ,As1
 .byte   N06 ,Cn1
 .byte   W12
 .byte   Fs1
 .byte   W12
 .byte   En1
 .byte   N12 ,As1
 .byte   N13 ,Bn2
 .byte   W12
 .byte   N06 ,Fs1
 .byte   N06 ,Bn1
 .byte   W12
 .byte   N12 ,As1
 .byte   N11 ,Ds2
 .byte   W12
 .byte   N06 ,Fs1
 .byte   N06 ,Cn1
 .byte   W12
 .byte   En1
 .byte   N12 ,As1
 .byte   N13 ,Bn2
 .byte   N06 ,Gn1
 .byte   W12
 .byte   Fs1
 .byte   W12
@  #06 @071   ----------------------------------------
 .byte   N11 ,Ds2
 .byte   N12 ,As1
 .byte   N06 ,Cn1
 .byte   W12
 .byte   Fs1
 .byte   N06 ,Bn1
 .byte   W06
 .byte   Gn1
 .byte   W06
 .byte   En1
 .byte   N12 ,As1
 .byte   N13 ,Bn2
 .byte   W12
 .byte   N06 ,Fs1
 .byte   N06 ,En1
 .byte   N06 ,Gn1
 .byte   W12
 .byte   N11 ,Ds2
 .byte   N12 ,As1
 .byte   W06
 .byte   N06 ,Bn1
 .byte   W06
 .byte   Bn1
 .byte   N06 ,Cn1
 .byte   N06 ,Fs1
 .byte   W06
 .byte   Gn1
 .byte   W06
 .byte   En1
 .byte   N12 ,As1
 .byte   N13 ,Bn2
 .byte   N06 ,Gn1
 .byte   W06
 .byte   Gn1
 .byte   W06
 .byte   Fs1
 .byte   N06 ,En1
 .byte   W06
 .byte   N12 ,As1
 .byte   W06
@  #06 @072   ----------------------------------------
Label_0102809D:
 .byte   N64 ,An2 ,v127
 .byte   N06 ,Cn1
 .byte   N06 ,Fs1
 .byte   W12
 .byte   Fs1
 .byte   W12
 .byte   Fs1
 .byte   N06 ,En1
 .byte   W12
 .byte   Fs1
 .byte   W12
 .byte   Fs1
 .byte   W12
 .byte   Fs1
 .byte   N06 ,Cn1
 .byte   W12
 .byte   En1
 .byte   N06 ,Fs1
 .byte   W12
 .byte   N12 ,As1
 .byte   W12
@  #06 @073   ----------------------------------------
 .byte   N06 ,Cn1
 .byte   N06 ,Fs1
 .byte   W12
 .byte   Fs1
 .byte   W12
 .byte   Fs1
 .byte   N06 ,En1
 .byte   W12
 .byte   Fs1
 .byte   N06 ,En1
 .byte   W12
 .byte   Fs1
 .byte   W12
 .byte   Cn1
 .byte   N06 ,Fs1
 .byte   W12
 .byte   En1
 .byte   N06 ,Fs1
 .byte   W12
 .byte   Fs1
 .byte   W12
@  #06 @074   ----------------------------------------
 .byte   Cn1
 .byte   N06 ,Fs1
 .byte   W12
 .byte   Fs1
 .byte   W12
 .byte   En1
 .byte   N06 ,Fs1
 .byte   W12
 .byte   Fs1
 .byte   W12
 .byte   Fs1
 .byte   W12
 .byte   Cn1
 .byte   N06 ,Fs1
 .byte   W12
 .byte   Fs1
 .byte   N06 ,En1
 .byte   W12
 .byte   N12 ,As1
 .byte   W12
@  #06 @075   ----------------------------------------
 .byte   PATT
  .word Label_01027959
@  #06 @076   ----------------------------------------
 .byte   PATT
  .word Label_0102793D
@  #06 @077   ----------------------------------------
Label_010280F8:
 .byte   N06 ,Cn1 ,v127
 .byte   N06 ,Fs1
 .byte   W12
 .byte   Fs1
 .byte   W12
 .byte   Fs1
 .byte   N06 ,En1
 .byte   W12
 .byte   Fs1
 .byte   W12
 .byte   Fs1
 .byte   W12
 .byte   Cn1
 .byte   N06 ,Fs1
 .byte   W12
 .byte   Fs1
 .byte   N06 ,En1
 .byte   W12
 .byte   N12 ,As1
 .byte   W12
 .byte   PEND 
@  #06 @078   ----------------------------------------
 .byte   PATT
  .word Label_010280F8
@  #06 @079   ----------------------------------------
 .byte   N06 ,Cn1 ,v127
 .byte   N06 ,Fs1
 .byte   W12
 .byte   Fs1
 .byte   W12
 .byte   Fs1
 .byte   N06 ,En1
 .byte   W12
 .byte   En1
 .byte   N06 ,Fs1
 .byte   W12
 .byte   Fs1
 .byte   W12
 .byte   Fs1
 .byte   N06 ,Cn1
 .byte   N06 ,Bn1
 .byte   W12
 .byte   Gn1
 .byte   N06 ,Fs1
 .byte   N06 ,En1
 .byte   W12
 .byte   N12 ,As1
 .byte   W12
@  #06 @080   ----------------------------------------
 .byte   N64 ,An2
 .byte   N06 ,Cn1
 .byte   N06 ,Fs1
 .byte   W12
 .byte   Fs1
 .byte   W12
 .byte   En1
 .byte   N06 ,Fs1
 .byte   W12
 .byte   Fs1
 .byte   W12
 .byte   Fs1
 .byte   W12
 .byte   Fs1
 .byte   N06 ,Cn1
 .byte   W12
 .byte   En1
 .byte   N06 ,Fs1
 .byte   W12
 .byte   N12 ,As1
 .byte   W12
@  #06 @081   ----------------------------------------
 .byte   N06 ,Cn1
 .byte   N06 ,Fs1
 .byte   W12
 .byte   Fs1
 .byte   W12
 .byte   En1
 .byte   N06 ,Fs1
 .byte   W12
 .byte   En1
 .byte   N06 ,Fs1
 .byte   W12
 .byte   Fs1
 .byte   W12
 .byte   Fs1
 .byte   N06 ,Cn1
 .byte   W12
 .byte   En1
 .byte   N06 ,Fs1
 .byte   W12
 .byte   Fs1
 .byte   W12
@  #06 @082   ----------------------------------------
 .byte   Fs1
 .byte   N06 ,Cn1
 .byte   W12
 .byte   Fs1
 .byte   W12
 .byte   En1
 .byte   N06 ,Fs1
 .byte   W12
 .byte   Fs1
 .byte   W12
 .byte   Fs1
 .byte   W12
 .byte   Cn1
 .byte   N06 ,Fs1
 .byte   W12
 .byte   En1
 .byte   N06 ,Fs1
 .byte   W12
 .byte   N12 ,As1
 .byte   W12
@  #06 @083   ----------------------------------------
 .byte   PATT
  .word Label_01027D21
@  #06 @084   ----------------------------------------
 .byte   PATT
  .word Label_0102793D
@  #06 @085   ----------------------------------------
 .byte   PATT
  .word Label_010279F5
@  #06 @086   ----------------------------------------
 .byte   N06 ,Cn1 ,v127
 .byte   N06 ,Fs1
 .byte   W12
 .byte   Fs1
 .byte   W12
 .byte   En1
 .byte   N06 ,Fs1
 .byte   W12
 .byte   Fs1
 .byte   W12
 .byte   Fs1
 .byte   W12
 .byte   Fs1
 .byte   N06 ,Cn1
 .byte   W12
 .byte   En1
 .byte   N06 ,Fs1
 .byte   W12
 .byte   N12 ,As1
 .byte   W12
@  #06 @087   ----------------------------------------
 .byte   N06 ,Cn1
 .byte   N06 ,Fs1
 .byte   W12
 .byte   Fs1
 .byte   W12
 .byte   Fs1
 .byte   N06 ,En1
 .byte   W12
 .byte   Fs1
 .byte   N06 ,En1
 .byte   W12
 .byte   Fs1
 .byte   W12
 .byte   Bn1
 .byte   N06 ,Cn1
 .byte   N06 ,Fs1
 .byte   W12
 .byte   En1
 .byte   N06 ,Fs1
 .byte   N06 ,Gn1
 .byte   W12
 .byte   N12 ,As1
 .byte   W12
@  #06 @088   ----------------------------------------
 .byte   N06 ,Cn1
 .byte   N64 ,An2
 .byte   N11 ,Ds2
 .byte   N12 ,As1
 .byte   W12
 .byte   N06 ,Fs1
 .byte   W12
 .byte   En1
 .byte   N13 ,Bn2
 .byte   N12 ,As1
 .byte   W12
 .byte   N06 ,Fs1
 .byte   W12
 .byte   N12 ,As1
 .byte   N11 ,Ds2
 .byte   W12
 .byte   N06 ,Cn1
 .byte   N06 ,Fs1
 .byte   W12
 .byte   En1
 .byte   N13 ,Bn2
 .byte   N12 ,As1
 .byte   W12
 .byte   N06 ,Fs1
 .byte   W12
@  #06 @089   ----------------------------------------
 .byte   Cn1
 .byte   N12 ,As1
 .byte   N11 ,Ds2
 .byte   W12
 .byte   N06 ,Fs1
 .byte   W12
 .byte   N13 ,Bn2
 .byte   N12 ,As1
 .byte   N06 ,En1
 .byte   W12
 .byte   Fs1
 .byte   W12
 .byte   N12 ,As1
 .byte   N11 ,Ds2
 .byte   W12
 .byte   N06 ,Fs1
 .byte   N06 ,Cn1
 .byte   W12
 .byte   N13 ,Bn2
 .byte   N12 ,As1
 .byte   N06 ,En1
 .byte   W12
 .byte   Fs1
 .byte   W06
 .byte   As1
 .byte   W06
@  #06 @090   ----------------------------------------
 .byte   N11 ,Ds2
 .byte   N06 ,As1
 .byte   N06 ,Cn1
 .byte   W12
 .byte   Fs1
 .byte   W12
 .byte   N13 ,Bn2
 .byte   N12 ,As1
 .byte   N06 ,En1
 .byte   W12
 .byte   Fs1
 .byte   W12
 .byte   N11 ,Ds2
 .byte   N12 ,As1
 .byte   W12
 .byte   N06 ,Fs1
 .byte   N06 ,Cn1
 .byte   W12
 .byte   En1
 .byte   N12 ,As1
 .byte   N13 ,Bn2
 .byte   W12
 .byte   N06 ,Fs1
 .byte   W12
@  #06 @091   ----------------------------------------
 .byte   N11 ,Ds2
 .byte   N12 ,As1
 .byte   N06 ,Cn1
 .byte   W12
 .byte   Fs1
 .byte   W12
 .byte   En1
 .byte   N12 ,As1
 .byte   N13 ,Bn2
 .byte   W12
 .byte   N06 ,Fs1
 .byte   N06 ,En1
 .byte   W12
 .byte   N12 ,As1
 .byte   N11 ,Ds2
 .byte   W12
 .byte   N06 ,Cn1
 .byte   N06 ,Fs1
 .byte   W12
 .byte   N13 ,Bn2
 .byte   N12 ,As1
 .byte   N06 ,En1
 .byte   W12
 .byte   Fs1
 .byte   W06
 .byte   As1
 .byte   W06
@  #06 @092   ----------------------------------------
 .byte   As1
 .byte   N11 ,Ds2
 .byte   N06 ,Cn1
 .byte   W12
 .byte   Fs1
 .byte   W12
 .byte   En1
 .byte   N13 ,Bn2
 .byte   N12 ,As1
 .byte   W12
 .byte   N06 ,Fs1
 .byte   W12
 .byte   N11 ,Ds2
 .byte   N12 ,As1
 .byte   W12
 .byte   N06 ,Cn1
 .byte   N06 ,Fs1
 .byte   W12
 .byte   N12 ,As1
 .byte   N13 ,Bn2
 .byte   N06 ,En1
 .byte   W12
 .byte   Fs1
 .byte   W12
@  #06 @093   ----------------------------------------
 .byte   Cn1
 .byte   N12 ,As1
 .byte   N11 ,Ds2
 .byte   W12
 .byte   N06 ,Fs1
 .byte   W12
 .byte   N13 ,Bn2
 .byte   N12 ,As1
 .byte   N06 ,En1
 .byte   W12
 .byte   Fs1
 .byte   W12
 .byte   N12 ,As1
 .byte   N11 ,Ds2
 .byte   W12
 .byte   N06 ,Cn1
 .byte   N06 ,Fs1
 .byte   W12
 .byte   En1
 .byte   N12 ,As1
 .byte   N13 ,Bn2
 .byte   W12
 .byte   N06 ,Fs1
 .byte   W06
 .byte   As1
 .byte   W06
@  #06 @094   ----------------------------------------
 .byte   Cn1
 .byte   N06 ,As1
 .byte   N11 ,Ds2
 .byte   W12
 .byte   N06 ,Fs1
 .byte   W12
 .byte   N13 ,Bn2
 .byte   N12 ,As1
 .byte   N06 ,En1
 .byte   W12
 .byte   Fs1
 .byte   W12
 .byte   N12 ,As1
 .byte   N11 ,Ds2
 .byte   W12
 .byte   N06 ,Fs1
 .byte   N06 ,Cn1
 .byte   W12
 .byte   N13 ,Bn2
 .byte   N12 ,As1
 .byte   N06 ,En1
 .byte   W12
 .byte   Fs1
 .byte   W12
@  #06 @095   ----------------------------------------
 .byte   Cn1
 .byte   N12 ,As1
 .byte   N11 ,Ds2
 .byte   W12
 .byte   N06 ,Fs1
 .byte   W12
 .byte   N13 ,Bn2
 .byte   N12 ,As1
 .byte   N06 ,En1
 .byte   W12
 .byte   Fs1
 .byte   N06 ,En1
 .byte   W12
 .byte   N12 ,As1
 .byte   N11 ,Ds2
 .byte   W12
 .byte   N06 ,Cn1
 .byte   N06 ,Fs1
 .byte   W12
 .byte   N13 ,Bn2
 .byte   N12 ,As1
 .byte   N06 ,En1
 .byte   W12
 .byte   Fs1
 .byte   W06
 .byte   As1
 .byte   W06
@  #06 @096   ----------------------------------------
 .byte   Cn1
 .byte   N64 ,An2
 .byte   N11 ,Ds2
 .byte   N06 ,As1
 .byte   W12
 .byte   Fs1
 .byte   W12
 .byte   En1
 .byte   N13 ,Bn2
 .byte   N12 ,As1
 .byte   W12
 .byte   N06 ,Fs1
 .byte   N06 ,Bn1
 .byte   W12
 .byte   N12 ,As1
 .byte   N11 ,Ds2
 .byte   W12
 .byte   N06 ,Cn1
 .byte   N06 ,Fs1
 .byte   W12
 .byte   Gn1
 .byte   N12 ,As1
 .byte   N13 ,Bn2
 .byte   N06 ,En1
 .byte   W12
 .byte   Fs1
 .byte   W12
@  #06 @097   ----------------------------------------
 .byte   PATT
  .word Label_01027B89
@  #06 @098   ----------------------------------------
 .byte   N11 ,Ds2 ,v127
 .byte   N06 ,As1
 .byte   N06 ,Cn1
 .byte   W12
 .byte   Fs1
 .byte   W12
 .byte   N13 ,Bn2
 .byte   N12 ,As1
 .byte   N06 ,En1
 .byte   W12
 .byte   Fs1
 .byte   N06 ,Bn1
 .byte   W12
 .byte   N12 ,As1
 .byte   N11 ,Ds2
 .byte   W12
 .byte   N06 ,Fs1
 .byte   N06 ,Cn1
 .byte   W12
 .byte   Gn1
 .byte   N13 ,Bn2
 .byte   N12 ,As1
 .byte   N06 ,En1
 .byte   W12
 .byte   Fs1
 .byte   W12
@  #06 @099   ----------------------------------------
 .byte   Cn1
 .byte   N12 ,As1
 .byte   N11 ,Ds2
 .byte   W12
 .byte   N06 ,Fs1
 .byte   W12
 .byte   N13 ,Bn2
 .byte   N12 ,As1
 .byte   N06 ,En1
 .byte   W12
 .byte   Fs1
 .byte   N06 ,En1
 .byte   N06 ,Bn1
 .byte   W12
 .byte   N11 ,Ds2
 .byte   N12 ,As1
 .byte   W12
 .byte   N06 ,Fs1
 .byte   N06 ,Cn1
 .byte   N06 ,Bn1
 .byte   W12
 .byte   En1
 .byte   N12 ,As1
 .byte   N13 ,Bn2
 .byte   N06 ,Gn1
 .byte   W06
 .byte   Gn1
 .byte   W06
 .byte   Fs1
 .byte   W06
 .byte   As1
 .byte   W06
@  #06 @100   ----------------------------------------
 .byte   As1
 .byte   N11 ,Ds2
 .byte   N64 ,An2
 .byte   N06 ,Cn1
 .byte   W12
 .byte   Fs1
 .byte   W12
 .byte   N12 ,As1
 .byte   N13 ,Bn2
 .byte   N06 ,En1
 .byte   W12
 .byte   Bn1
 .byte   N06 ,Fs1
 .byte   W12
 .byte   N11 ,Ds2
 .byte   N12 ,As1
 .byte   W12
 .byte   N06 ,Cn1
 .byte   N06 ,Fs1
 .byte   W12
 .byte   En1
 .byte   N13 ,Bn2
 .byte   N12 ,As1
 .byte   N06 ,Gn1
 .byte   W12
 .byte   Fs1
 .byte   W12
@  #06 @101   ----------------------------------------
 .byte   N11 ,Ds2
 .byte   N12 ,As1
 .byte   N06 ,Cn1
 .byte   W12
 .byte   Fs1
 .byte   W12
 .byte   En1
 .byte   N12 ,As1
 .byte   N13 ,Bn2
 .byte   W12
 .byte   N06 ,Fs1
 .byte   N06 ,Bn1
 .byte   W12
 .byte   N11 ,Ds2
 .byte   N12 ,As1
 .byte   W12
 .byte   N06 ,Fs1
 .byte   N06 ,Cn1
 .byte   N06 ,Bn1
 .byte   W12
 .byte   Gn1
 .byte   N13 ,Bn2
 .byte   N12 ,As1
 .byte   N06 ,En1
 .byte   W06
 .byte   Gn1
 .byte   W06
 .byte   Fs1
 .byte   W06
 .byte   As1
 .byte   W06
@  #06 @102   ----------------------------------------
 .byte   N11 ,Ds2
 .byte   N06 ,As1
 .byte   N06 ,Cn1
 .byte   W12
 .byte   Fs1
 .byte   W12
 .byte   N13 ,Bn2
 .byte   N12 ,As1
 .byte   N06 ,En1
 .byte   W12
 .byte   Fs1
 .byte   N06 ,Bn1
 .byte   W12
 .byte   N11 ,Ds2
 .byte   N12 ,As1
 .byte   W12
 .byte   N06 ,Cn1
 .byte   N06 ,Fs1
 .byte   W12
 .byte   En1
 .byte   N12 ,As1
 .byte   N13 ,Bn2
 .byte   N06 ,Gn1
 .byte   W12
 .byte   Fs1
 .byte   W12
@  #06 @103   ----------------------------------------
 .byte   N11 ,Ds2
 .byte   N12 ,As1
 .byte   N06 ,Cn1
 .byte   W12
 .byte   Fs1
 .byte   N06 ,Bn1
 .byte   W06
 .byte   Gn1
 .byte   W06
 .byte   En1
 .byte   N12 ,As1
 .byte   N13 ,Bn2
 .byte   W12
 .byte   N06 ,Gn1
 .byte   N06 ,En1
 .byte   N06 ,Fs1
 .byte   W12
 .byte   N12 ,As1
 .byte   N11 ,Ds2
 .byte   W06
 .byte   N06 ,Bn1
 .byte   W06
 .byte   Bn1
 .byte   N06 ,Cn1
 .byte   N06 ,Fs1
 .byte   W06
 .byte   Gn1
 .byte   W06
 .byte   En1
 .byte   N12 ,As1
 .byte   N13 ,Bn2
 .byte   N06 ,Gn1
 .byte   W06
 .byte   Gn1
 .byte   W06
 .byte   Fs1
 .byte   N06 ,En1
 .byte   W06
 .byte   N12 ,As1
 .byte   W06
@  #06 @104   ----------------------------------------
 .byte   GOTO
  .word Label_0102809D
@  #06 @105   ----------------------------------------
 .byte   W96
 .byte   FINE

@**************** Track 7 (Midi-Chn.6) ****************@

song02_007:
@  #07 @000   ----------------------------------------
 .byte   KEYSH , song02_key+0
 .byte   VOICE , 73
 .byte   VOL , 60*song02_mvl/mxv
 .byte   PAN , c_v-45
 .byte   BENDR, 12
 .byte   W96
@  #07 @001   ----------------------------------------
 .byte   W96
@  #07 @002   ----------------------------------------
 .byte   W96
@  #07 @003   ----------------------------------------
 .byte   W96
@  #07 @004   ----------------------------------------
 .byte   W96
@  #07 @005   ----------------------------------------
 .byte   W96
@  #07 @006   ----------------------------------------
 .byte   W96
@  #07 @007   ----------------------------------------
 .byte   W96
@  #07 @008   ----------------------------------------
 .byte   W96
@  #07 @009   ----------------------------------------
 .byte   W96
@  #07 @010   ----------------------------------------
 .byte   W96
@  #07 @011   ----------------------------------------
 .byte   W96
@  #07 @012   ----------------------------------------
 .byte   W96
@  #07 @013   ----------------------------------------
 .byte   W96
@  #07 @014   ----------------------------------------
 .byte   W96
@  #07 @015   ----------------------------------------
 .byte   W96
@  #07 @016   ----------------------------------------
 .byte   W96
@  #07 @017   ----------------------------------------
 .byte   W96
@  #07 @018   ----------------------------------------
 .byte   W96
@  #07 @019   ----------------------------------------
 .byte   W96
@  #07 @020   ----------------------------------------
 .byte   W96
@  #07 @021   ----------------------------------------
 .byte   W96
@  #07 @022   ----------------------------------------
 .byte   W96
@  #07 @023   ----------------------------------------
 .byte   W96
@  #07 @024   ----------------------------------------
 .byte   W96
@  #07 @025   ----------------------------------------
 .byte   W96
@  #07 @026   ----------------------------------------
 .byte   W96
@  #07 @027   ----------------------------------------
 .byte   W96
@  #07 @028   ----------------------------------------
 .byte   W96
@  #07 @029   ----------------------------------------
 .byte   W96
@  #07 @030   ----------------------------------------
 .byte   W96
@  #07 @031   ----------------------------------------
 .byte   W92
 .byte   W03
 .byte   N12 ,Cn5 ,v085
 .byte   W01
@  #07 @032   ----------------------------------------
Label_010005FF:
 .byte   W11
 .byte   N12 ,As4 ,v085
 .byte   W12
 .byte   Cn5
 .byte   W12
 .byte   Ds5
 .byte   W12
 .byte   As4
 .byte   W24
 .byte   Cn5
 .byte   W12
 .byte   As4
 .byte   W12
 .byte   Cn5
 .byte   W01
 .byte   PEND 
@  #07 @033   ----------------------------------------
 .byte   W11
 .byte   Ds5
 .byte   W12
 .byte   Fn4
 .byte   W24
 .byte   As4
 .byte   W12
 .byte   Gs4
 .byte   W12
 .byte   Gn4
 .byte   W12
 .byte   Gs4
 .byte   W12
 .byte   As4
 .byte   W01
@  #07 @034   ----------------------------------------
 .byte   W11
 .byte   Gs4
 .byte   W12
 .byte   As4
 .byte   W12
 .byte   Cn5
 .byte   W12
 .byte   Fn4
 .byte   W24
 .byte   As4
 .byte   W12
 .byte   Gs4
 .byte   W12
 .byte   As4
 .byte   W01
@  #07 @035   ----------------------------------------
 .byte   W11
 .byte   Cn5
 .byte   W12
 .byte   Fn4
 .byte   W24
 .byte   Gn4
 .byte   W24
 .byte   Gs4
 .byte   W24
 .byte   Cn5
 .byte   W01
@  #07 @036   ----------------------------------------
 .byte   PATT
  .word Label_010005FF
@  #07 @037   ----------------------------------------
 .byte   W11
 .byte   N24 ,Ds5 ,v085 ,gtp1
 .byte   W48
 .byte   N12 ,Cn5
 .byte   W12
 .byte   As4
 .byte   W12
 .byte   Gs4
 .byte   W12
 .byte   N18 ,As4
 .byte   W01
@  #07 @038   ----------------------------------------
 .byte   W44
 .byte   W03
 .byte   Gs4
 .byte   W48
 .byte   Gn4
 .byte   W01
@  #07 @039   ----------------------------------------
 .byte   W32
 .byte   W03
 .byte   N06 ,Gs4
 .byte   W06
 .byte   Gn4
 .byte   W06
 .byte   N36 ,Ds4
 .byte   W48
 .byte   W01
@  #07 @040   ----------------------------------------
 .byte   W96
@  #07 @041   ----------------------------------------
 .byte   W96
@  #07 @042   ----------------------------------------
 .byte   W96
@  #07 @043   ----------------------------------------
 .byte   W96
@  #07 @044   ----------------------------------------
 .byte   W96
@  #07 @045   ----------------------------------------
 .byte   W96
@  #07 @046   ----------------------------------------
 .byte   W96
@  #07 @047   ----------------------------------------
 .byte   W96
@  #07 @048   ----------------------------------------
 .byte   W96
@  #07 @049   ----------------------------------------
 .byte   W96
@  #07 @050   ----------------------------------------
 .byte   W96
@  #07 @051   ----------------------------------------
 .byte   W96
@  #07 @052   ----------------------------------------
 .byte   W96
@  #07 @053   ----------------------------------------
 .byte   W96
@  #07 @054   ----------------------------------------
 .byte   W96
@  #07 @055   ----------------------------------------
 .byte   W96
@  #07 @056   ----------------------------------------
 .byte   W96
@  #07 @057   ----------------------------------------
 .byte   W96
@  #07 @058   ----------------------------------------
 .byte   W96
@  #07 @059   ----------------------------------------
 .byte   W96
@  #07 @060   ----------------------------------------
 .byte   W96
@  #07 @061   ----------------------------------------
 .byte   W96
@  #07 @062   ----------------------------------------
 .byte   W96
@  #07 @063   ----------------------------------------
 .byte   W96
@  #07 @064   ----------------------------------------
Label_01000678:
 .byte   N11 ,Cn5 ,v085
 .byte   W12
 .byte   As4
 .byte   W12
 .byte   Cn5
 .byte   W12
 .byte   Ds5
 .byte   W12
 .byte   N12 ,As4
 .byte   W24
 .byte   N11 ,Cn5
 .byte   W12
 .byte   As4
 .byte   W12
 .byte   PEND 
@  #07 @065   ----------------------------------------
Label_0100068B:
 .byte   N11 ,Cn5 ,v085
 .byte   W12
 .byte   Ds5
 .byte   W12
 .byte   N12 ,Fn4
 .byte   W24
 .byte   N11 ,As4
 .byte   W12
 .byte   Gs4
 .byte   W12
 .byte   Gn4
 .byte   W12
 .byte   Gs4
 .byte   W12
 .byte   PEND 
@  #07 @066   ----------------------------------------
Label_0100069E:
 .byte   N11 ,As4 ,v085
 .byte   W12
 .byte   Gs4
 .byte   W12
 .byte   As4
 .byte   W12
 .byte   Cn5
 .byte   W12
 .byte   N12 ,Fn4
 .byte   W24
 .byte   N11 ,As4
 .byte   W12
 .byte   Gs4
 .byte   W12
 .byte   PEND 
@  #07 @067   ----------------------------------------
Label_010006B1:
 .byte   N11 ,As4 ,v085
 .byte   W12
 .byte   Cn5
 .byte   W12
 .byte   N12 ,Fn4
 .byte   W24
 .byte   Gn4
 .byte   W24
 .byte   Gs4
 .byte   W24
 .byte   PEND 
@  #07 @068   ----------------------------------------
 .byte   PATT
  .word Label_01000678
@  #07 @069   ----------------------------------------
Label_010006C4:
 .byte   N11 ,Cn5 ,v085
 .byte   W12
 .byte   N24 ,Ds5
 .byte   W48
 .byte   N11 ,Cn5
 .byte   W12
 .byte   As4
 .byte   W12
 .byte   Gs4
 .byte   W12
 .byte   PEND 
@  #07 @070   ----------------------------------------
Label_010006D3:
 .byte   N18 ,As4 ,v085
 .byte   W48
 .byte   Gs4
 .byte   W48
 .byte   PEND 
@  #07 @071   ----------------------------------------
Label_010006DA:
 .byte   N18 ,Gn4 ,v085
 .byte   W36
 .byte   N05 ,Gs4
 .byte   W06
 .byte   Gn4
 .byte   W06
 .byte   N36 ,Ds4
 .byte   W48
 .byte   PEND 
@  #07 @072   ----------------------------------------
Label_010006E7:
 .byte   W96
@  #07 @073   ----------------------------------------
 .byte   W96
@  #07 @074   ----------------------------------------
 .byte   W96
@  #07 @075   ----------------------------------------
 .byte   W96
@  #07 @076   ----------------------------------------
 .byte   W96
@  #07 @077   ----------------------------------------
 .byte   W96
@  #07 @078   ----------------------------------------
 .byte   W96
@  #07 @079   ----------------------------------------
 .byte   W96
@  #07 @080   ----------------------------------------
 .byte   W96
@  #07 @081   ----------------------------------------
 .byte   W96
@  #07 @082   ----------------------------------------
 .byte   W96
@  #07 @083   ----------------------------------------
 .byte   W96
@  #07 @084   ----------------------------------------
 .byte   W96
@  #07 @085   ----------------------------------------
 .byte   W96
@  #07 @086   ----------------------------------------
 .byte   W96
@  #07 @087   ----------------------------------------
 .byte   W96
@  #07 @088   ----------------------------------------
 .byte   W96
@  #07 @089   ----------------------------------------
 .byte   W96
@  #07 @090   ----------------------------------------
 .byte   W96
@  #07 @091   ----------------------------------------
 .byte   W96
@  #07 @092   ----------------------------------------
 .byte   W96
@  #07 @093   ----------------------------------------
 .byte   W96
@  #07 @094   ----------------------------------------
 .byte   W96
@  #07 @095   ----------------------------------------
 .byte   W96
@  #07 @096   ----------------------------------------
 .byte   PATT
  .word Label_01000678
@  #07 @097   ----------------------------------------
 .byte   PATT
  .word Label_0100068B
@  #07 @098   ----------------------------------------
 .byte   PATT
  .word Label_0100069E
@  #07 @099   ----------------------------------------
 .byte   PATT
  .word Label_010006B1
@  #07 @100   ----------------------------------------
 .byte   PATT
  .word Label_01000678
@  #07 @101   ----------------------------------------
 .byte   PATT
  .word Label_010006C4
@  #07 @102   ----------------------------------------
 .byte   PATT
  .word Label_010006D3
@  #07 @103   ----------------------------------------
 .byte   PATT
  .word Label_010006DA
@  #07 @104   ----------------------------------------
 .byte   GOTO
  .word Label_010006E7
@  #07 @105   ----------------------------------------
 .byte   W96
 .byte   FINE

@******************************************************@
	.align	2

song02:
	.byte	7	@ NumTrks
	.byte	0	@ NumBlks
	.byte	song02_pri	@ Priority
	.byte	song02_rev	@ Reverb.
    
	.word	song02_grp
    
	.word	song02_001
	.word	song02_002
	.word	song02_003
	.word	song02_004
	.word	song02_005
	.word	song02_006
	.word	song02_007

	.end
