	.include "MPlayDef.s"

	.equ	song04_grp, voicegroup000
	.equ	song04_pri, 0
	.equ	song04_rev, 148
	.equ	song04_mvl, 127
	.equ	song04_key, 0
	.equ	song04_tbs, 1
	.equ	song04_exg, 0
	.equ	song04_cmp, 1

	.section .rodata
	.global	song04
	.align	2


@**************** Track 1 (Midi-Chn.0) ****************@

song04_001:
@  #01 @000   ----------------------------------------
 .byte   KEYSH , song04_key+0
 .byte   TEMPO , 120*song04_tbs/2
Label_548244:
 .byte   VOICE , 49
 .byte   VOL , 58*song04_mvl/mxv
 .byte   W16
 .byte   TIE ,Cn1 ,v102
 .byte   W80
@  #01 @001   ----------------------------------------
 .byte   W96
@  #01 @002   ----------------------------------------
 .byte   W14
 .byte   EOT
 .byte   W15
 .byte   TIE ,Cs1 ,v110
 .byte   W66
 .byte   W01
@  #01 @003   ----------------------------------------
 .byte   W84
 .byte   W01
 .byte   Fs1 ,v115
 .byte   W01
 .byte   EOT
 .byte   Cs1
 .byte   W10
@  #01 @004   ----------------------------------------
 .byte   W96
@  #01 @005   ----------------------------------------
 .byte   W96
@  #01 @006   ----------------------------------------
 .byte   W96
@  #01 @007   ----------------------------------------
 .byte   W84
 .byte   W01
 .byte   Fs1
 .byte   W11
@  #01 @008   ----------------------------------------
 .byte   W96
@  #01 @009   ----------------------------------------
 .byte   W44
 .byte   W03
 .byte   TIE ,Cn1 ,v110
 .byte   W01
 .byte   Cn2 ,v100
 .byte   W48
@  #01 @010   ----------------------------------------
 .byte   W88
 .byte   Cs1 ,v092
 .byte   W01
 .byte   Cs2 ,v102
 .byte   W01
 .byte   EOT
 .byte   Cn1 ,v048
 .byte   W06
@  #01 @011   ----------------------------------------
 .byte   W96
@  #01 @012   ----------------------------------------
 .byte   W24
 .byte   W02
 .byte   Cs1
 .byte   TIE ,Fs1 ,v091
 .byte   W01
 .byte   Fs2 ,v108
 .byte   W01
 .byte   EOT
 .byte   Cs2
 .byte   W68
@  #01 @013   ----------------------------------------
 .byte   W96
@  #01 @014   ----------------------------------------
 .byte   W04
 .byte   Fs1
 .byte   TIE ,Gn1 ,v096
 .byte   W92
@  #01 @015   ----------------------------------------
 .byte   W96
@  #01 @016   ----------------------------------------
 .byte   W96
@  #01 @017   ----------------------------------------
 .byte   W96
@  #01 @018   ----------------------------------------
 .byte   W96
@  #01 @019   ----------------------------------------
 .byte   W80
 .byte   EOT
 .byte   W03
 .byte   Fs2
 .byte   W13
@  #01 @020   ----------------------------------------
 .byte   W96
@  #01 @021   ----------------------------------------
 .byte   W80
 .byte   W03
 .byte   TIE ,Cn1 ,v110
 .byte   W01
 .byte   Cn2 ,v100
 .byte   W12
@  #01 @022   ----------------------------------------
 .byte   W96
@  #01 @023   ----------------------------------------
 .byte   W12
 .byte   EOT
 .byte   Cn1
 .byte   TIE ,Cs1 ,v102
 .byte   TIE ,Cs2 ,v108
 .byte   W02
 .byte   EOT
 .byte   Cn2
 .byte   W80
 .byte   W02
@  #01 @024   ----------------------------------------
 .byte   W56
 .byte   W03
 .byte   Cs1
 .byte   TIE ,Gs1 ,v086
 .byte   W01
 .byte   Gs2 ,v096
 .byte   W01
 .byte   EOT
 .byte   Cs2
 .byte   W32
 .byte   W03
@  #01 @025   ----------------------------------------
 .byte   W96
@  #01 @026   ----------------------------------------
 .byte   W32
 .byte   Gs1
 .byte   TIE ,Gn1 ,v102
 .byte   W64
@  #01 @027   ----------------------------------------
 .byte   W96
@  #01 @028   ----------------------------------------
 .byte   W12
 .byte   EOT
 .byte   TIE ,Ds1 ,v096
 .byte   W84
@  #01 @029   ----------------------------------------
 .byte   W64
 .byte   Fs1 ,v092
 .byte   W01
 .byte   EOT
 .byte   Ds1
 .byte   W30
 .byte   W01
@  #01 @030   ----------------------------------------
 .byte   W96
@  #01 @031   ----------------------------------------
 .byte   W30
 .byte   W01
 .byte   TIE ,Dn1 ,v120
 .byte   W01
 .byte   EOT
 .byte   Fs1
 .byte   W64
@  #01 @032   ----------------------------------------
 .byte   W96
@  #01 @033   ----------------------------------------
 .byte   W14
 .byte   Dn1
 .byte   TIE ,Fn1 ,v086
 .byte   W80
 .byte   W02
@  #01 @034   ----------------------------------------
 .byte   W96
@  #01 @035   ----------------------------------------
 .byte   W96
@  #01 @036   ----------------------------------------
 .byte   W96
@  #01 @037   ----------------------------------------
 .byte   W24
 .byte   W02
 .byte   EOT
 .byte   W02
 .byte   Gs2
 .byte   W68
@  #01 @038   ----------------------------------------
 .byte   W96
@  #01 @039   ----------------------------------------
 .byte   W24
 .byte   W03
 .byte   TIE ,Cn2 ,v092
 .byte   TIE ,Cn1 ,v115
 .byte   W68
 .byte   W01
@  #01 @040   ----------------------------------------
 .byte   W60
 .byte   W02
 .byte   Cs1 ,v100
 .byte   TIE ,Cs2 ,v102
 .byte   W02
 .byte   EOT
 .byte   Cn2 ,v036
 .byte   W32
@  #01 @041   ----------------------------------------
 .byte   W96
@  #01 @042   ----------------------------------------
 .byte   W84
 .byte   W01
 .byte   TIE ,As2 ,v085
 .byte   W01
 .byte   As1
 .byte   W02
 .byte   EOT
 .byte   Cs2
 .byte   W01
 .byte   Cs1
 .byte   W07
@  #01 @043   ----------------------------------------
 .byte   W96
@  #01 @044   ----------------------------------------
 .byte   W96
@  #01 @045   ----------------------------------------
 .byte   W96
@  #01 @046   ----------------------------------------
 .byte   W72
 .byte   W01
 .byte   TIE ,En1 ,v096
 .byte   W01
 .byte   EOT
 .byte   As1
 .byte   W22
@  #01 @047   ----------------------------------------
 .byte   W96
@  #01 @048   ----------------------------------------
 .byte   W96
@  #01 @049   ----------------------------------------
 .byte   W96
@  #01 @050   ----------------------------------------
 .byte   W17
 .byte   TIE ,Gn1 ,v082
 .byte   W01
 .byte   Bn2 ,v100
 .byte   W01
 .byte   EOT
 .byte   En1
 .byte   W01
 .byte   As2
 .byte   W76
@  #01 @051   ----------------------------------------
 .byte   W96
@  #01 @052   ----------------------------------------
 .byte   W96
@  #01 @053   ----------------------------------------
 .byte   W09
 .byte   TIE ,As2 ,v079
 .byte   W01
 .byte   As1 ,v077
 .byte   W01
 .byte   EOT
 .byte   Gn1
 .byte   W01
 .byte   Bn2
 .byte   W84
@  #01 @054   ----------------------------------------
 .byte   W96
@  #01 @055   ----------------------------------------
 .byte   W68
 .byte   TIE ,En1 ,v110
 .byte   W01
 .byte   EOT
 .byte   As1
 .byte   W24
 .byte   W03
@  #01 @056   ----------------------------------------
 .byte   W96
@  #01 @057   ----------------------------------------
 .byte   W96
@  #01 @058   ----------------------------------------
 .byte   W68
 .byte   En1
 .byte   TIE ,Gn1 ,v084
 .byte   W01
 .byte   Bn2 ,v102
 .byte   W03
 .byte   EOT
 .byte   As2
 .byte   W24
@  #01 @059   ----------------------------------------
 .byte   W96
@  #01 @060   ----------------------------------------
 .byte   W96
@  #01 @061   ----------------------------------------
 .byte   W96
@  #01 @062   ----------------------------------------
 .byte   W30
 .byte   TIE ,Fs1 ,v089
 .byte   W01
 .byte   EOT
 .byte   Gn1
 .byte   TIE ,Cn3 ,v085
 .byte   W02
 .byte   EOT
 .byte   Bn2
 .byte   W60
 .byte   W03
@  #01 @063   ----------------------------------------
 .byte   W96
@  #01 @064   ----------------------------------------
 .byte   W96
@  #01 @065   ----------------------------------------
 .byte   W96
@  #01 @066   ----------------------------------------
 .byte   W54
 .byte   TIE ,Cn1 ,v086
 .byte   W01
 .byte   Cn2 ,v082
 .byte   W01
 .byte   EOT
 .byte   Fs1
 .byte   W02
 .byte   Cn3
 .byte   W36
 .byte   W02
@  #01 @067   ----------------------------------------
 .byte   W96
@  #01 @068   ----------------------------------------
 .byte   W96
@  #01 @069   ----------------------------------------
 .byte   W96
@  #01 @070   ----------------------------------------
 .byte   W96
@  #01 @071   ----------------------------------------
 .byte   W96
@  #01 @072   ----------------------------------------
 .byte   W96
@  #01 @073   ----------------------------------------
 .byte   W21
 .byte   Cn2
 .byte   W72
 .byte   W03
@  #01 @074   ----------------------------------------
 .byte   W36
 .byte   W02
 .byte   Cn1
 .byte   W23
 .byte   TIE ,Cn1 ,v088
 .byte   TIE ,Cn2 ,v092
 .byte   W32
 .byte   W03
@  #01 @075   ----------------------------------------
 .byte   W96
@  #01 @076   ----------------------------------------
 .byte   W96
@  #01 @077   ----------------------------------------
 .byte   W96
@  #01 @078   ----------------------------------------
 .byte   W96
@  #01 @079   ----------------------------------------
 .byte   W88
 .byte   EOT
 .byte   W01
 .byte   Cn1
 .byte   W06
 .byte   TIE ,Cn2 ,v072
 .byte   W01
@  #01 @080   ----------------------------------------
 .byte   Cn1 ,v070
 .byte   W96
@  #01 @081   ----------------------------------------
 .byte   W96
@  #01 @082   ----------------------------------------
 .byte   W96
@  #01 @083   ----------------------------------------
 .byte   W96
@  #01 @084   ----------------------------------------
 .byte   W17
 .byte   EOT
 .byte   Cn2
 .byte   W01
 .byte   Cn1
 .byte   W08
 .byte   TIE ,Cn1 ,v076
 .byte   TIE ,Cn2
 .byte   W68
 .byte   W02
@  #01 @085   ----------------------------------------
 .byte   W96
@  #01 @086   ----------------------------------------
 .byte   W96
@  #01 @087   ----------------------------------------
 .byte   W96
@  #01 @088   ----------------------------------------
 .byte   W48
 .byte   W02
 .byte   EOT
 .byte   Cn1 ,v048
 .byte   W06
 .byte   TIE ,Cn2 ,v078
 .byte   W01
 .byte   Cn1 ,v100
 .byte   W36
 .byte   W03
@  #01 @089   ----------------------------------------
 .byte   W96
@  #01 @090   ----------------------------------------
 .byte   W96
@  #01 @091   ----------------------------------------
 .byte   W96
@  #01 @092   ----------------------------------------
 .byte   W72
 .byte   W02
 .byte   EOT
 .byte   Cn2 ,v036
 .byte   W08
 .byte   TIE ,Cn2 ,v085
 .byte   TIE ,Cn1 ,v077
 .byte   W14
@  #01 @093   ----------------------------------------
 .byte   W96
@  #01 @094   ----------------------------------------
 .byte   W96
@  #01 @095   ----------------------------------------
 .byte   W96
@  #01 @096   ----------------------------------------
 .byte   W96
@  #01 @097   ----------------------------------------
 .byte   W08
 .byte   EOT
 .byte   EOT
 .byte   Cn2
 .byte   W05
 .byte   TIE ,Cn1
 .byte   W01
 .byte   Cn2 ,v092
 .byte   W80
 .byte   W02
@  #01 @098   ----------------------------------------
 .byte   W96
@  #01 @099   ----------------------------------------
 .byte   W96
@  #01 @100   ----------------------------------------
 .byte   W96
@  #01 @101   ----------------------------------------
 .byte   W32
 .byte   EOT
 .byte   W01
 .byte   Cn1
 .byte   W06
 .byte   TIE ,Cn2 ,v070
 .byte   TIE ,Cn1 ,v072
 .byte   W56
 .byte   W01
@  #01 @102   ----------------------------------------
 .byte   W96
@  #01 @103   ----------------------------------------
 .byte   W44
 .byte   W03
 .byte   EOT
 .byte   W01
 .byte   Cn2
 .byte   W06
 .byte   TIE ,Cn2 ,v080
 .byte   TIE ,Cn1 ,v085
 .byte   W42
@  #01 @104   ----------------------------------------
 .byte   W96
@  #01 @105   ----------------------------------------
 .byte   W60
 .byte   EOT
 .byte   W01
 .byte   Cn2
 .byte   W07
 .byte   TIE ,Cn2 ,v076
 .byte   TIE ,Cn1 ,v078
 .byte   W28
@  #01 @106   ----------------------------------------
 .byte   W96
@  #01 @107   ----------------------------------------
 .byte   W96
@  #01 @108   ----------------------------------------
 .byte   GOTO
  .word Label_548244
@  #01 @109   ----------------------------------------
 .byte   W96
@  #01 @110   ----------------------------------------
Label_548415:
 .byte   W92
 .byte   W03
 .byte   N22 ,An3 ,v001
 .byte   W01
 .byte   PEND 
@  #01 @111   ----------------------------------------
 .byte   W96
@  #01 @112   ----------------------------------------
 .byte   W05
 .byte   EOT
 .byte   Cn1
 .byte   W08
 .byte   Cn2
 .byte   FINE

@**************** Track 2 (Midi-Chn.1) ****************@

song04_002:
@  #02 @000   ----------------------------------------
 .byte   KEYSH , song04_key+0
Label_0100193E:
 .byte   VOICE , 14
 .byte   VOL , 45*song04_mvl/mxv
 .byte   PAN , c_v+63
 .byte   W96
@  #02 @001   ----------------------------------------
 .byte   W96
@  #02 @002   ----------------------------------------
 .byte   W76
 .byte   W01
 .byte   N07 ,Cn2 ,v086
 .byte   W12
 .byte   N06 ,Fs1 ,v092
 .byte   W07
@  #02 @003   ----------------------------------------
 .byte   W04
 .byte   N09 ,Cn1 ,v071
 .byte   W92
@  #02 @004   ----------------------------------------
 .byte   W36
 .byte   N06 ,Cn2 ,v086
 .byte   W12
 .byte   Fs1 ,v089
 .byte   W13
 .byte   N10 ,Cs1 ,v080
 .byte   W32
 .byte   W03
@  #02 @005   ----------------------------------------
 .byte   W68
 .byte   N08 ,Cn2
 .byte   W13
 .byte   N06 ,Fs1 ,v096
 .byte   W11
 .byte   N08 ,Cn1 ,v067
 .byte   W04
@  #02 @006   ----------------------------------------
 .byte   W96
@  #02 @007   ----------------------------------------
 .byte   W96
@  #02 @008   ----------------------------------------
 .byte   W96
@  #02 @009   ----------------------------------------
 .byte   W96
@  #02 @010   ----------------------------------------
 .byte   W32
 .byte   W02
 .byte   N06 ,Cn2 ,v092
 .byte   W12
 .byte   Fs1 ,v096
 .byte   W12
 .byte   N08 ,Cn1 ,v077
 .byte   W36
 .byte   W02
@  #02 @011   ----------------------------------------
 .byte   W60
 .byte   W01
 .byte   N07 ,Cn2 ,v089
 .byte   W12
 .byte   Fs1 ,v100
 .byte   W13
 .byte   Cs1 ,v096
 .byte   W10
@  #02 @012   ----------------------------------------
 .byte   W96
@  #02 @013   ----------------------------------------
 .byte   W24
 .byte   Cn2 ,v086
 .byte   W13
 .byte   N06 ,Fs1 ,v100
 .byte   W11
 .byte   N08 ,Cn1 ,v083
 .byte   W48
@  #02 @014   ----------------------------------------
 .byte   W96
@  #02 @015   ----------------------------------------
 .byte   W96
@  #02 @016   ----------------------------------------
 .byte   W96
@  #02 @017   ----------------------------------------
 .byte   W96
@  #02 @018   ----------------------------------------
 .byte   W96
@  #02 @019   ----------------------------------------
 .byte   W96
@  #02 @020   ----------------------------------------
 .byte   W96
@  #02 @021   ----------------------------------------
 .byte   W03
 .byte   N07 ,Cn2 ,v089
 .byte   W13
 .byte   N06 ,Fs1 ,v092
 .byte   W13
 .byte   N08 ,Cn1 ,v062
 .byte   W66
 .byte   W01
@  #02 @022   ----------------------------------------
 .byte   W36
 .byte   N07 ,Cn2 ,v089
 .byte   W12
 .byte   N06 ,Fs1 ,v096
 .byte   W12
 .byte   N10 ,Cs1 ,v100
 .byte   W36
@  #02 @023   ----------------------------------------
 .byte   W96
@  #02 @024   ----------------------------------------
 .byte   W96
@  #02 @025   ----------------------------------------
 .byte   W96
@  #02 @026   ----------------------------------------
 .byte   W66
 .byte   N07 ,Cn2 ,v083
 .byte   W13
 .byte   N05 ,Fs1 ,v105
 .byte   W11
 .byte   N07 ,Cn1 ,v092
 .byte   W06
@  #02 @027   ----------------------------------------
 .byte   W96
@  #02 @028   ----------------------------------------
 .byte   N05 ,Cn2 ,v089
 .byte   W11
 .byte   Fs1 ,v096
 .byte   W10
 .byte   N07 ,Cs1 ,v100
 .byte   W72
 .byte   W03
@  #02 @029   ----------------------------------------
 .byte   W96
@  #02 @030   ----------------------------------------
 .byte   W96
@  #02 @031   ----------------------------------------
 .byte   W96
@  #02 @032   ----------------------------------------
 .byte   W96
@  #02 @033   ----------------------------------------
 .byte   W96
@  #02 @034   ----------------------------------------
 .byte   W96
@  #02 @035   ----------------------------------------
 .byte   W68
 .byte   W02
 .byte   Cn2 ,v092
 .byte   W12
 .byte   N06 ,Fs1 ,v105
 .byte   W11
 .byte   N09 ,Cn1 ,v073
 .byte   W03
@  #02 @036   ----------------------------------------
 .byte   W96
@  #02 @037   ----------------------------------------
 .byte   W56
 .byte   N06 ,Cn2 ,v086
 .byte   W11
 .byte   N05 ,Fs1 ,v096
 .byte   W11
 .byte   N09 ,Cs1 ,v092
 .byte   W18
@  #02 @038   ----------------------------------------
 .byte   W96
@  #02 @039   ----------------------------------------
 .byte   W36
 .byte   N07 ,Cn2 ,v089
 .byte   W12
 .byte   N06 ,Fs1 ,v105
 .byte   W11
 .byte   N09 ,Cn1 ,v077
 .byte   W36
 .byte   W01
@  #02 @040   ----------------------------------------
 .byte   W96
@  #02 @041   ----------------------------------------
 .byte   W96
@  #02 @042   ----------------------------------------
 .byte   W36
 .byte   W02
 .byte   N06 ,Cn2 ,v086
 .byte   W12
 .byte   N07 ,Fs1 ,v105
 .byte   W11
 .byte   N09 ,Cn1 ,v086
 .byte   W32
 .byte   W03
@  #02 @043   ----------------------------------------
 .byte   W72
 .byte   N06 ,Cn2 ,v083
 .byte   W11
 .byte   N05 ,Fs1 ,v100
 .byte   W11
 .byte   N10 ,Cs1
 .byte   W02
@  #02 @044   ----------------------------------------
 .byte   W96
@  #02 @045   ----------------------------------------
 .byte   W32
 .byte   N06 ,Cn2 ,v086
 .byte   W12
 .byte   Fs1 ,v105
 .byte   W12
 .byte   N08 ,Cn1 ,v089
 .byte   W40
@  #02 @046   ----------------------------------------
 .byte   W96
@  #02 @047   ----------------------------------------
 .byte   W96
@  #02 @048   ----------------------------------------
 .byte   W96
@  #02 @049   ----------------------------------------
 .byte   W96
@  #02 @050   ----------------------------------------
 .byte   W96
@  #02 @051   ----------------------------------------
 .byte   W90
 .byte   N06 ,Cn2 ,v092
 .byte   W06
@  #02 @052   ----------------------------------------
 .byte   W06
 .byte   N05 ,Fs1 ,v110
 .byte   W10
 .byte   N07 ,Cn1 ,v096
 .byte   W80
@  #02 @053   ----------------------------------------
 .byte   W60
 .byte   W02
 .byte   N06 ,Cn2 ,v083
 .byte   W12
 .byte   N04 ,Fs1 ,v096
 .byte   W02
 .byte   N02 ,Gn1 ,v055
 .byte   W09
 .byte   N07 ,Cs1 ,v100
 .byte   W11
@  #02 @054   ----------------------------------------
 .byte   W96
@  #02 @055   ----------------------------------------
 .byte   W96
@  #02 @056   ----------------------------------------
 .byte   W68
 .byte   W02
 .byte   N06 ,Cn2 ,v083
 .byte   W12
 .byte   Fs1 ,v092
 .byte   W11
 .byte   N12 ,Cn1 ,v064
 .byte   W03
@  #02 @057   ----------------------------------------
 .byte   W96
@  #02 @058   ----------------------------------------
 .byte   W09
 .byte   N07 ,Cn2 ,v083
 .byte   W12
 .byte   N05 ,Fs1 ,v096
 .byte   W10
 .byte   N23 ,Cs1
 .byte   W64
 .byte   W01
@  #02 @059   ----------------------------------------
 .byte   W44
 .byte   W01
 .byte   N07 ,Cn2 ,v092
 .byte   W11
 .byte   N05 ,Fs1 ,v100
 .byte   W02
 .byte   N03 ,Fn1 ,v080
 .byte   W08
 .byte   N09 ,Cn1 ,v077
 .byte   W30
@  #02 @060   ----------------------------------------
 .byte   W84
 .byte   W02
 .byte   N06 ,Cn2 ,v086
 .byte   W10
@  #02 @061   ----------------------------------------
 .byte   W01
 .byte   N05 ,Fs1 ,v096
 .byte   W11
 .byte   N12 ,Cs1
 .byte   W84
@  #02 @062   ----------------------------------------
 .byte   W15
 .byte   N07 ,Cn2
 .byte   W12
 .byte   N06 ,Fs1 ,v100
 .byte   W10
 .byte   N08 ,Cn1 ,v083
 .byte   W56
 .byte   W03
@  #02 @063   ----------------------------------------
 .byte   W44
 .byte   W01
 .byte   N06 ,Cn2 ,v100
 .byte   W10
 .byte   N05 ,Fs1 ,v092
 .byte   W11
 .byte   N12 ,Cs1
 .byte   W30
@  #02 @064   ----------------------------------------
 .byte   W96
@  #02 @065   ----------------------------------------
 .byte   W96
@  #02 @066   ----------------------------------------
 .byte   W48
 .byte   W02
 .byte   N07 ,Cn2 ,v080
 .byte   W11
 .byte   N06 ,Fs1 ,v092
 .byte   W11
 .byte   N09 ,Cn1 ,v071
 .byte   W24
@  #02 @067   ----------------------------------------
 .byte   W96
@  #02 @068   ----------------------------------------
 .byte   W96
@  #02 @069   ----------------------------------------
 .byte   W08
 .byte   N07 ,Cn2 ,v077
 .byte   W11
 .byte   N05 ,Fs1 ,v092
 .byte   W11
 .byte   N08 ,Cs1 ,v096
 .byte   W66
@  #02 @070   ----------------------------------------
 .byte   W90
 .byte   W01
 .byte   N07 ,Cn2 ,v077
 .byte   W05
@  #02 @071   ----------------------------------------
 .byte   W06
 .byte   N06 ,Fs1 ,v089
 .byte   W10
 .byte   N08 ,Cn1 ,v071
 .byte   W80
@  #02 @072   ----------------------------------------
 .byte   W96
@  #02 @073   ----------------------------------------
 .byte   W96
@  #02 @074   ----------------------------------------
 .byte   W96
@  #02 @075   ----------------------------------------
 .byte   W96
@  #02 @076   ----------------------------------------
 .byte   W96
@  #02 @077   ----------------------------------------
 .byte   W96
@  #02 @078   ----------------------------------------
 .byte   W96
@  #02 @079   ----------------------------------------
 .byte   W96
@  #02 @080   ----------------------------------------
 .byte   W96
@  #02 @081   ----------------------------------------
 .byte   W96
@  #02 @082   ----------------------------------------
 .byte   W96
@  #02 @083   ----------------------------------------
 .byte   W96
@  #02 @084   ----------------------------------------
 .byte   W96
@  #02 @085   ----------------------------------------
 .byte   W96
@  #02 @086   ----------------------------------------
 .byte   W96
@  #02 @087   ----------------------------------------
 .byte   W96
@  #02 @088   ----------------------------------------
 .byte   W96
@  #02 @089   ----------------------------------------
 .byte   W96
@  #02 @090   ----------------------------------------
 .byte   W96
@  #02 @091   ----------------------------------------
 .byte   W96
@  #02 @092   ----------------------------------------
 .byte   W96
@  #02 @093   ----------------------------------------
 .byte   W96
@  #02 @094   ----------------------------------------
 .byte   W96
@  #02 @095   ----------------------------------------
 .byte   W96
@  #02 @096   ----------------------------------------
 .byte   W96
@  #02 @097   ----------------------------------------
 .byte   W96
@  #02 @098   ----------------------------------------
 .byte   W96
@  #02 @099   ----------------------------------------
 .byte   W96
@  #02 @100   ----------------------------------------
 .byte   W96
@  #02 @101   ----------------------------------------
 .byte   W96
@  #02 @102   ----------------------------------------
 .byte   W96
@  #02 @103   ----------------------------------------
 .byte   W96
@  #02 @104   ----------------------------------------
 .byte   W96
@  #02 @105   ----------------------------------------
 .byte   W96
@  #02 @106   ----------------------------------------
 .byte   W96
@  #02 @107   ----------------------------------------
 .byte   W96
@  #02 @108   ----------------------------------------
 .byte   GOTO
  .word Label_0100193E
@  #02 @109   ----------------------------------------
 .byte   W96
@  #02 @110   ----------------------------------------
 .byte   PATT
  .word Label_548415
@  #02 @111   ----------------------------------------
 .byte   W96
@  #02 @112   ----------------------------------------
 .byte   W13
 .byte   FINE

@**************** Track 3 (Midi-Chn.2) ****************@

song04_003:
@  #03 @000   ----------------------------------------
 .byte   KEYSH , song04_key+0
Label_01001B12:
 .byte   VOICE , 13
 .byte   PAN , c_v+21
 .byte   W96
@  #03 @001   ----------------------------------------
 .byte   W96
@  #03 @002   ----------------------------------------
 .byte   W96
@  #03 @003   ----------------------------------------
 .byte   W96
@  #03 @004   ----------------------------------------
 .byte   W96
@  #03 @005   ----------------------------------------
 .byte   W96
@  #03 @006   ----------------------------------------
 .byte   W96
@  #03 @007   ----------------------------------------
 .byte   W96
@  #03 @008   ----------------------------------------
 .byte   W96
@  #03 @009   ----------------------------------------
 .byte   W96
@  #03 @010   ----------------------------------------
 .byte   W96
@  #03 @011   ----------------------------------------
 .byte   W96
@  #03 @012   ----------------------------------------
 .byte   W96
@  #03 @013   ----------------------------------------
 .byte   W96
@  #03 @014   ----------------------------------------
 .byte   W96
@  #03 @015   ----------------------------------------
 .byte   W96
@  #03 @016   ----------------------------------------
 .byte   W96
@  #03 @017   ----------------------------------------
 .byte   W96
@  #03 @018   ----------------------------------------
 .byte   W96
@  #03 @019   ----------------------------------------
 .byte   W96
@  #03 @020   ----------------------------------------
 .byte   W96
@  #03 @021   ----------------------------------------
 .byte   W96
@  #03 @022   ----------------------------------------
 .byte   W96
@  #03 @023   ----------------------------------------
 .byte   W96
@  #03 @024   ----------------------------------------
 .byte   W96
@  #03 @025   ----------------------------------------
 .byte   W96
@  #03 @026   ----------------------------------------
 .byte   W96
@  #03 @027   ----------------------------------------
 .byte   W96
@  #03 @028   ----------------------------------------
 .byte   W96
@  #03 @029   ----------------------------------------
 .byte   W96
@  #03 @030   ----------------------------------------
 .byte   W96
@  #03 @031   ----------------------------------------
 .byte   W96
@  #03 @032   ----------------------------------------
 .byte   W96
@  #03 @033   ----------------------------------------
 .byte   W96
@  #03 @034   ----------------------------------------
 .byte   W96
@  #03 @035   ----------------------------------------
 .byte   W96
@  #03 @036   ----------------------------------------
 .byte   W96
@  #03 @037   ----------------------------------------
 .byte   W96
@  #03 @038   ----------------------------------------
 .byte   W96
@  #03 @039   ----------------------------------------
 .byte   W96
@  #03 @040   ----------------------------------------
 .byte   W96
@  #03 @041   ----------------------------------------
 .byte   W96
@  #03 @042   ----------------------------------------
 .byte   W96
@  #03 @043   ----------------------------------------
 .byte   W96
@  #03 @044   ----------------------------------------
 .byte   W96
@  #03 @045   ----------------------------------------
 .byte   W96
@  #03 @046   ----------------------------------------
 .byte   W96
@  #03 @047   ----------------------------------------
 .byte   W96
@  #03 @048   ----------------------------------------
 .byte   W96
@  #03 @049   ----------------------------------------
 .byte   W96
@  #03 @050   ----------------------------------------
 .byte   W96
@  #03 @051   ----------------------------------------
 .byte   W96
@  #03 @052   ----------------------------------------
 .byte   W96
@  #03 @053   ----------------------------------------
 .byte   W96
@  #03 @054   ----------------------------------------
 .byte   W96
@  #03 @055   ----------------------------------------
 .byte   W96
@  #03 @056   ----------------------------------------
 .byte   W96
@  #03 @057   ----------------------------------------
 .byte   W96
@  #03 @058   ----------------------------------------
 .byte   W96
@  #03 @059   ----------------------------------------
 .byte   W96
@  #03 @060   ----------------------------------------
 .byte   W96
@  #03 @061   ----------------------------------------
 .byte   W96
@  #03 @062   ----------------------------------------
 .byte   W96
@  #03 @063   ----------------------------------------
 .byte   W96
@  #03 @064   ----------------------------------------
 .byte   W96
@  #03 @065   ----------------------------------------
 .byte   W96
@  #03 @066   ----------------------------------------
 .byte   W96
@  #03 @067   ----------------------------------------
 .byte   W96
@  #03 @068   ----------------------------------------
 .byte   W96
@  #03 @069   ----------------------------------------
 .byte   W96
@  #03 @070   ----------------------------------------
 .byte   W96
@  #03 @071   ----------------------------------------
 .byte   W40
 .byte   VOL , 10*song04_mvl/mxv
 .byte   N04 ,Cn2 ,v072
 .byte   W09
 .byte   N05 ,Fs2 ,v070
 .byte   W08
 .byte   N04 ,Gn2 ,v073
 .byte   W09
 .byte   N06 ,Cs3 ,v078
 .byte   W01
 .byte   VOL , 10*song04_mvl/mxv
 .byte   W07
 .byte   N05 ,Cn3 ,v089
 .byte   W09
 .byte   Gn2 ,v086
 .byte   W09
 .byte   VOL , 10*song04_mvl/mxv
 .byte   W04
@  #03 @072   ----------------------------------------
 .byte   W04
 .byte   N05 ,Cn2 ,v073
 .byte   W15
 .byte   VOL , 10*song04_mvl/mxv
 .byte   W03
 .byte   N04 ,Cn2 ,v078
 .byte   W19
 .byte   VOL , 10*song04_mvl/mxv
 .byte   W06
 .byte   N04 ,Cn2 ,v074
 .byte   W09
 .byte   N09 ,Fs2 ,v072
 .byte   W05
 .byte   VOL , 10*song04_mvl/mxv
 .byte   W03
 .byte   N06 ,Gn2 ,v082
 .byte   W09
 .byte   N05 ,Cs3 ,v074
 .byte   W07
 .byte   VOL , 12*song04_mvl/mxv
 .byte   W01
 .byte   N04 ,Fs2 ,v084
 .byte   W09
 .byte   N05 ,Fn2 ,v086
 .byte   W06
@  #03 @073   ----------------------------------------
 .byte   W01
 .byte   VOL , 14*song04_mvl/mxv
 .byte   W10
 .byte   N05 ,Cn2 ,v066
 .byte   W06
 .byte   VOL , 16*song04_mvl/mxv
 .byte   W11
 .byte   N06 ,Cn2 ,v074
 .byte   W05
 .byte   VOL , 18*song04_mvl/mxv
 .byte   W14
 .byte   VOL , 20*song04_mvl/mxv
 .byte   W07
 .byte   N04 ,Cn2 ,v072
 .byte   W07
 .byte   VOL , 22*song04_mvl/mxv
 .byte   W01
 .byte   N10 ,Fs2 ,v062
 .byte   W09
 .byte   N06 ,Gn2 ,v084
 .byte   W03
 .byte   VOL , 24*song04_mvl/mxv
 .byte   W06
 .byte   N07 ,Cs3 ,v082
 .byte   W06
 .byte   VOL , 26*song04_mvl/mxv
 .byte   W02
 .byte   N04 ,Cn3 ,v084
 .byte   W08
@  #03 @074   ----------------------------------------
 .byte   W01
 .byte   N07 ,Gn2 ,v082
 .byte   W01
 .byte   VOL , 28*song04_mvl/mxv
 .byte   W11
 .byte   VOL , 30*song04_mvl/mxv
 .byte   W05
 .byte   N05 ,Cn2 ,v072
 .byte   W06
 .byte   VOL , 32*song04_mvl/mxv
 .byte   W10
 .byte   VOL , 34*song04_mvl/mxv
 .byte   W01
 .byte   N06 ,Cn2 ,v073
 .byte   W08
 .byte   VOL , 36*song04_mvl/mxv
 .byte   W09
 .byte   VOL , 38*song04_mvl/mxv
 .byte   W09
 .byte   N05 ,Cn2 ,v074
 .byte   VOL , 40*song04_mvl/mxv
 .byte   W08
 .byte   N08 ,Fs2 ,v078
 .byte   W09
 .byte   N04 ,Gn2
 .byte   W08
 .byte   N06 ,Cs3 ,v079
 .byte   W09
 .byte   Gn2
 .byte   W01
@  #03 @075   ----------------------------------------
 .byte   W08
 .byte   N05 ,Fs2 ,v089
 .byte   W17
 .byte   Cn2 ,v071
 .byte   W09
 .byte   N04 ,Fs2 ,v086
 .byte   W08
 .byte   N07 ,Gn2 ,v084
 .byte   W09
 .byte   N04 ,Fs2 ,v079
 .byte   W08
 .byte   N07 ,Fn2 ,v084
 .byte   W09
 .byte   N04 ,Cn2 ,v072
 .byte   W08
 .byte   N05 ,Fs2 ,v070
 .byte   W09
 .byte   N04 ,Gn2 ,v073
 .byte   W08
 .byte   N07 ,Cs3 ,v078
 .byte   W03
@  #03 @076   ----------------------------------------
 .byte   W06
 .byte   N04 ,Cn3 ,v089
 .byte   W08
 .byte   N06 ,Gn2 ,v086
 .byte   W18
 .byte   N04 ,Cn2 ,v073
 .byte   W17
 .byte   Cn2 ,v078
 .byte   W24
 .byte   W01
 .byte   Cn2 ,v074
 .byte   W09
 .byte   N09 ,Fs2 ,v072
 .byte   W09
 .byte   N05 ,Gn2 ,v082
 .byte   W04
@  #03 @077   ----------------------------------------
 .byte   W04
 .byte   N06 ,Cs3 ,v074
 .byte   W09
 .byte   N03 ,Fs2 ,v084
 .byte   W08
 .byte   N05 ,Fn2 ,v086
 .byte   W17
 .byte   N06 ,Cn2 ,v066
 .byte   W18
 .byte   N05 ,Cn2 ,v074
 .byte   W24
 .byte   W01
 .byte   N04 ,Cn2 ,v072
 .byte   W09
 .byte   N09 ,Fs2 ,v062
 .byte   W06
@  #03 @078   ----------------------------------------
 .byte   W02
 .byte   N06 ,Gn2 ,v084
 .byte   W09
 .byte   N07 ,Cs3 ,v082
 .byte   W09
 .byte   N03 ,Cn3 ,v084
 .byte   W08
 .byte   N07 ,Gn2 ,v082
 .byte   W18
 .byte   N05 ,Cn2 ,v072
 .byte   W17
 .byte   N06 ,Cn2 ,v073
 .byte   W24
 .byte   W01
 .byte   N05 ,Cn2 ,v074
 .byte   W08
@  #03 @079   ----------------------------------------
 .byte   W01
 .byte   N08 ,Fs2 ,v078
 .byte   W08
 .byte   N05 ,Gn2
 .byte   W09
 .byte   N06 ,Cs3 ,v079
 .byte   W09
 .byte   N05 ,Gn2
 .byte   W08
 .byte   N06 ,Fs2 ,v089
 .byte   W17
 .byte   Cn2 ,v071
 .byte   W09
 .byte   N05 ,Fs2 ,v086
 .byte   W09
 .byte   N07 ,Gn2 ,v084
 .byte   W08
 .byte   N04 ,Fs2 ,v079
 .byte   W09
 .byte   N06 ,Fn2 ,v084
 .byte   W08
 .byte   N04 ,Cn2 ,v072
 .byte   W01
@  #03 @080   ----------------------------------------
 .byte   W08
 .byte   N05 ,Fs2 ,v070
 .byte   W08
 .byte   N04 ,Gn2 ,v073
 .byte   W09
 .byte   N06 ,Cs3 ,v078
 .byte   W08
 .byte   N05 ,Cn3 ,v089
 .byte   W09
 .byte   Gn2 ,v086
 .byte   W17
 .byte   Cn2 ,v073
 .byte   W17
 .byte   Cn2 ,v078
 .byte   W20
@  #03 @081   ----------------------------------------
 .byte   W06
 .byte   N04 ,Cn2 ,v074
 .byte   W08
 .byte   N10 ,Fs2 ,v072
 .byte   W09
 .byte   N05 ,Gn2 ,v082
 .byte   W09
 .byte   Cs3 ,v074
 .byte   W08
 .byte   N04 ,Fs2 ,v084
 .byte   W09
 .byte   N05 ,Fn2 ,v086
 .byte   W17
 .byte   Cn2 ,v066
 .byte   W17
 .byte   N06 ,Cn2 ,v074
 .byte   W13
@  #03 @082   ----------------------------------------
 .byte   W13
 .byte   N03 ,Cn2 ,v072
 .byte   W08
 .byte   N10 ,Fs2 ,v062
 .byte   W09
 .byte   N06 ,Gn2 ,v084
 .byte   W08
 .byte   N08 ,Cs3 ,v082
 .byte   W09
 .byte   N04 ,Cn3 ,v084
 .byte   W09
 .byte   N06 ,Gn2 ,v082
 .byte   W17
 .byte   N05 ,Cn2 ,v072
 .byte   W17
 .byte   N06 ,Cn2 ,v073
 .byte   W06
@  #03 @083   ----------------------------------------
 .byte   W20
 .byte   N04 ,Cn2 ,v074
 .byte   W08
 .byte   N08 ,Fs2 ,v078
 .byte   W09
 .byte   N05 ,Gn2
 .byte   W08
 .byte   N06 ,Cs3 ,v079
 .byte   W09
 .byte   Gn2
 .byte   W08
 .byte   Fs2 ,v089
 .byte   W18
 .byte   N05 ,Cn2 ,v071
 .byte   W08
 .byte   Fs2 ,v086
 .byte   W08
@  #03 @084   ----------------------------------------
 .byte   W01
 .byte   N07 ,Gn2 ,v084
 .byte   W09
 .byte   N04 ,Fs2 ,v079
 .byte   W08
 .byte   N06 ,Fn2 ,v084
 .byte   W09
 .byte   N03 ,Cn2 ,v072
 .byte   W08
 .byte   N05 ,Fs2 ,v070
 .byte   W09
 .byte   N04 ,Gn2 ,v073
 .byte   W08
 .byte   N06 ,Cs3 ,v078
 .byte   W08
 .byte   N05 ,Cn3 ,v089
 .byte   W09
 .byte   Gn2 ,v086
 .byte   W17
 .byte   Cn2 ,v073
 .byte   W10
@  #03 @085   ----------------------------------------
 .byte   W08
 .byte   N04 ,Cn2 ,v078
 .byte   W24
 .byte   W01
 .byte   Cn2 ,v074
 .byte   W09
 .byte   N09 ,Fs2 ,v072
 .byte   W08
 .byte   N06 ,Gn2 ,v082
 .byte   W09
 .byte   N05 ,Cs3 ,v074
 .byte   W09
 .byte   N03 ,Fs2 ,v084
 .byte   W08
 .byte   N05 ,Fn2 ,v086
 .byte   W17
 .byte   Cn2 ,v066
 .byte   W03
@  #03 @086   ----------------------------------------
 .byte   W14
 .byte   N06 ,Cn2 ,v074
 .byte   W24
 .byte   W02
 .byte   N04 ,Cn2 ,v072
 .byte   W08
 .byte   N10 ,Fs2 ,v062
 .byte   W09
 .byte   N06 ,Gn2 ,v084
 .byte   W09
 .byte   N07 ,Cs3 ,v082
 .byte   W08
 .byte   N04 ,Cn3 ,v084
 .byte   W09
 .byte   N07 ,Gn2 ,v082
 .byte   W13
@  #03 @087   ----------------------------------------
 .byte   W04
 .byte   N06 ,Cn2 ,v072
 .byte   W18
 .byte   Cn2 ,v073
 .byte   W24
 .byte   W01
 .byte   N05 ,Cn2 ,v074
 .byte   W09
 .byte   N08 ,Fs2 ,v078
 .byte   W08
 .byte   N05 ,Gn2
 .byte   W09
 .byte   N06 ,Cs3 ,v079
 .byte   W09
 .byte   N05 ,Gn2
 .byte   W08
 .byte   N06 ,Fs2 ,v089
 .byte   W06
@  #03 @088   ----------------------------------------
 .byte   W11
 .byte   Cn2 ,v071
 .byte   W09
 .byte   N04 ,Fs2 ,v086
 .byte   W08
 .byte   N08 ,Gn2 ,v084
 .byte   W09
 .byte   N04 ,Fs2 ,v079
 .byte   W09
 .byte   N06 ,Fn2 ,v084
 .byte   W08
 .byte   N04 ,Cn2 ,v072
 .byte   W08
 .byte   N06 ,Fs2 ,v070
 .byte   W09
 .byte   N04 ,Gn2 ,v073
 .byte   W09
 .byte   N06 ,Cs3 ,v078
 .byte   W08
 .byte   N05 ,Cn3 ,v089
 .byte   W08
@  #03 @089   ----------------------------------------
 .byte   W01
 .byte   Gn2 ,v086
 .byte   W17
 .byte   N04 ,Cn2 ,v073
 .byte   W17
 .byte   N05 ,Cn2 ,v078
 .byte   W24
 .byte   W02
 .byte   N04 ,Cn2 ,v074
 .byte   W08
 .byte   N09 ,Fs2 ,v072
 .byte   W09
 .byte   N05 ,Gn2 ,v082
 .byte   W08
 .byte   N06 ,Cs3 ,v074
 .byte   W09
 .byte   N03 ,Fs2 ,v084
 .byte   W01
@  #03 @090   ----------------------------------------
 .byte   W08
 .byte   N04 ,Fn2 ,v086
 .byte   W17
 .byte   N05 ,Cn2 ,v066
 .byte   W17
 .byte   N06 ,Cn2 ,v074
 .byte   W24
 .byte   W02
 .byte   N03 ,Cn2 ,v072
 .byte   W08
 .byte   N10 ,Fs2 ,v062
 .byte   W08
 .byte   N06 ,Gn2 ,v084
 .byte   W09
 .byte   N07 ,Cs3 ,v082
 .byte   W03
@  #03 @091   ----------------------------------------
 .byte   W06
 .byte   N04 ,Cn3 ,v084
 .byte   W08
 .byte   N07 ,Gn2 ,v082
 .byte   W18
 .byte   N05 ,Cn2 ,v072
 .byte   W17
 .byte   N06 ,Cn2 ,v073
 .byte   W24
 .byte   W01
 .byte   N05 ,Cn2 ,v074
 .byte   W09
 .byte   N08 ,Fs2 ,v078
 .byte   W09
 .byte   N04 ,Gn2
 .byte   W04
@  #03 @092   ----------------------------------------
 .byte   W04
 .byte   N06 ,Cs3 ,v079
 .byte   W09
 .byte   N05 ,Gn2
 .byte   W08
 .byte   N06 ,Fs2 ,v089
 .byte   W17
 .byte   Cn2 ,v071
 .byte   W09
 .byte   N05 ,Fs2 ,v086
 .byte   W09
 .byte   N07 ,Gn2 ,v084
 .byte   W08
 .byte   N05 ,Fs2 ,v079
 .byte   W09
 .byte   N06 ,Fn2 ,v084
 .byte   W09
 .byte   N03 ,Cn2 ,v072
 .byte   W08
 .byte   N05 ,Fs2 ,v070
 .byte   W06
@  #03 @093   ----------------------------------------
 .byte   W02
 .byte   N04 ,Gn2 ,v073
 .byte   W09
 .byte   N06 ,Cs3 ,v078
 .byte   W09
 .byte   N04 ,Cn3 ,v089
 .byte   W08
 .byte   N05 ,Gn2 ,v086
 .byte   W18
 .byte   N04 ,Cn2 ,v073
 .byte   W17
 .byte   Cn2 ,v078
 .byte   W24
 .byte   W01
 .byte   Cn2 ,v074
 .byte   W08
@  #03 @094   ----------------------------------------
 .byte   W01
 .byte   N09 ,Fs2 ,v072
 .byte   W08
 .byte   N06 ,Gn2 ,v082
 .byte   W09
 .byte   N05 ,Cs3 ,v074
 .byte   W08
 .byte   N04 ,Fs2 ,v084
 .byte   W09
 .byte   N05 ,Fn2 ,v086
 .byte   W17
 .byte   Cn2 ,v066
 .byte   W17
 .byte   N06 ,Cn2 ,v074
 .byte   W24
 .byte   W02
 .byte   N04 ,Cn2 ,v072
 .byte   W01
@  #03 @095   ----------------------------------------
 .byte   W08
 .byte   N09 ,Fs2 ,v062
 .byte   W08
 .byte   N06 ,Gn2 ,v084
 .byte   W09
 .byte   N07 ,Cs3 ,v082
 .byte   W08
 .byte   N04 ,Cn3 ,v084
 .byte   W09
 .byte   N07 ,Gn2 ,v082
 .byte   W17
 .byte   N05 ,Cn2 ,v072
 .byte   W17
 .byte   N06 ,Cn2 ,v073
 .byte   W20
@  #03 @096   ----------------------------------------
 .byte   W06
 .byte   N05 ,Cn2 ,v074
 .byte   W08
 .byte   N08 ,Fs2 ,v078
 .byte   W09
 .byte   N05 ,Gn2
 .byte   W09
 .byte   N06 ,Cs3 ,v079
 .byte   W08
 .byte   Gn2
 .byte   W09
 .byte   N05 ,Fs2 ,v089
 .byte   W17
 .byte   N06 ,Cn2 ,v071
 .byte   W08
 .byte   N05 ,Fs2 ,v086
 .byte   W09
 .byte   N07 ,Gn2 ,v084
 .byte   W09
 .byte   N04 ,Fs2 ,v079
 .byte   W04
@  #03 @097   ----------------------------------------
 .byte   W04
 .byte   N07 ,Fn2 ,v084
 .byte   W09
 .byte   N03 ,Cn2 ,v072
 .byte   W08
 .byte   N05 ,Fs2 ,v070
 .byte   W09
 .byte   N04 ,Gn2 ,v073
 .byte   W08
 .byte   N07 ,Cs3 ,v078
 .byte   W09
 .byte   N05 ,Cn3 ,v089
 .byte   W09
 .byte   Gn2 ,v086
 .byte   W17
 .byte   N04 ,Cn2 ,v073
 .byte   W17
 .byte   Cn2 ,v078
 .byte   W06
@  #03 @098   ----------------------------------------
 .byte   W20
 .byte   Cn2 ,v074
 .byte   W08
 .byte   N09 ,Fs2 ,v072
 .byte   W08
 .byte   N06 ,Gn2 ,v082
 .byte   W09
 .byte   Cs3 ,v074
 .byte   W09
 .byte   N03 ,Fs2 ,v084
 .byte   W08
 .byte   N05 ,Fn2 ,v086
 .byte   W18
 .byte   Cn2 ,v066
 .byte   W16
@  #03 @099   ----------------------------------------
 .byte   W01
 .byte   Cn2 ,v074
 .byte   W24
 .byte   W01
 .byte   N04 ,Cn2 ,v072
 .byte   W09
 .byte   N09 ,Fs2 ,v062
 .byte   W09
 .byte   N06 ,Gn2 ,v084
 .byte   W08
 .byte   N07 ,Cs3 ,v082
 .byte   W09
 .byte   N03 ,Cn3 ,v084
 .byte   W08
 .byte   N07 ,Gn2 ,v082
 .byte   W18
 .byte   N05 ,Cn2 ,v072
 .byte   W09
@  #03 @100   ----------------------------------------
 .byte   W08
 .byte   N06 ,Cn2 ,v073
 .byte   W24
 .byte   W01
 .byte   N05 ,Cn2 ,v074
 .byte   W09
 .byte   N08 ,Fs2 ,v078
 .byte   W08
 .byte   N05 ,Gn2
 .byte   W09
 .byte   N06 ,Cs3 ,v079
 .byte   W05
 .byte   VOL , 38*song04_mvl/mxv
 .byte   W04
 .byte   N06 ,Gn2
 .byte   W08
 .byte   Fs2 ,v089
 .byte   W16
 .byte   VOL , 36*song04_mvl/mxv
 .byte   W01
 .byte   N06 ,Cn2 ,v071
 .byte   W03
@  #03 @101   ----------------------------------------
 .byte   W06
 .byte   N05 ,Fs2 ,v086
 .byte   W09
 .byte   N07 ,Gn2 ,v084
 .byte   W08
 .byte   N05 ,Fs2 ,v079
 .byte   W01
 .byte   VOL , 34*song04_mvl/mxv
 .byte   W08
 .byte   N06 ,Fn2 ,v084
 .byte   W08
 .byte   N04 ,Cn2 ,v072
 .byte   W09
 .byte   N05 ,Fs2 ,v070
 .byte   W01
 .byte   VOL , 32*song04_mvl/mxv
 .byte   W07
 .byte   N04 ,Gn2 ,v073
 .byte   W09
 .byte   N06 ,Cs3 ,v078
 .byte   W08
 .byte   N05 ,Cn3 ,v089
 .byte   VOL , 30*song04_mvl/mxv
 .byte   W09
 .byte   N05 ,Gn2 ,v086
 .byte   W13
@  #03 @102   ----------------------------------------
 .byte   W02
 .byte   VOL , 28*song04_mvl/mxv
 .byte   W02
 .byte   N05 ,Cn2 ,v073
 .byte   W18
 .byte   N04 ,Cn2 ,v078
 .byte   W03
 .byte   VOL , 26*song04_mvl/mxv
 .byte   W21
 .byte   VOL , 24*song04_mvl/mxv
 .byte   W01
 .byte   N04 ,Cn2 ,v074
 .byte   W09
 .byte   N09 ,Fs2 ,v072
 .byte   W08
 .byte   N06 ,Gn2 ,v082
 .byte   W03
 .byte   VOL , 22*song04_mvl/mxv
 .byte   W06
 .byte   N05 ,Cs3 ,v074
 .byte   W08
 .byte   N04 ,Fs2 ,v084
 .byte   W05
 .byte   VOL , 20*song04_mvl/mxv
 .byte   W04
 .byte   N05 ,Fn2 ,v086
 .byte   W06
@  #03 @103   ----------------------------------------
 .byte   W09
 .byte   VOL , 18*song04_mvl/mxv
 .byte   W02
 .byte   N05 ,Cn2 ,v066
 .byte   W16
 .byte   VOL , 16*song04_mvl/mxv
 .byte   W01
 .byte   N06 ,Cn2 ,v074
 .byte   W17
 .byte   VOL , 14*song04_mvl/mxv
 .byte   W09
 .byte   N04 ,Cn2 ,v072
 .byte   W07
 .byte   VOL , 12*song04_mvl/mxv
 .byte   W01
 .byte   N10 ,Fs2 ,v062
 .byte   W09
 .byte   N06 ,Gn2 ,v084
 .byte   W06
 .byte   VOL , 10*song04_mvl/mxv
 .byte   W03
 .byte   N07 ,Cs3 ,v082
 .byte   W08
 .byte   N04 ,Cn3 ,v084
 .byte   W05
 .byte   VOL , 10*song04_mvl/mxv
 .byte   W03
@  #03 @104   ----------------------------------------
 .byte   W01
 .byte   N07 ,Gn2 ,v082
 .byte   W11
 .byte   VOL , 10*song04_mvl/mxv
 .byte   W06
 .byte   N05 ,Cn2 ,v072
 .byte   W08
 .byte   VOL , 10*song04_mvl/mxv
 .byte   W09
 .byte   N06 ,Cn2 ,v073
 .byte   W05
 .byte   VOL , 10*song04_mvl/mxv
 .byte   W13
 .byte   VOL , 10*song04_mvl/mxv
 .byte   W08
 .byte   N05 ,Cn2 ,v074
 .byte   W05
 .byte   VOL , 10*song04_mvl/mxv
 .byte   W03
 .byte   N08 ,Fs2 ,v078
 .byte   W09
 .byte   N04 ,Gn2
 .byte   VOL , 10*song04_mvl/mxv
 .byte   W08
 .byte   N06 ,Cs3 ,v079
 .byte   W04
 .byte   VOL , 10*song04_mvl/mxv
 .byte   W05
 .byte   N06 ,Gn2
 .byte   W01
@  #03 @105   ----------------------------------------
 .byte   W06
 .byte   VOL , 10*song04_mvl/mxv
 .byte   W02
 .byte   N05 ,Fs2 ,v089
 .byte   W09
 .byte   VOL , 10*song04_mvl/mxv
 .byte   W08
 .byte   N05 ,Cn2 ,v071
 .byte   W03
 .byte   VOL , 10*song04_mvl/mxv
 .byte   W06
 .byte   N04 ,Fs2 ,v086
 .byte   W04
 .byte   VOL , 10*song04_mvl/mxv
 .byte   W04
 .byte   N07 ,Gn2 ,v084
 .byte   W06
 .byte   VOL , 10*song04_mvl/mxv
 .byte   W03
 .byte   N04 ,Fs2 ,v079
 .byte   W08
 .byte   N07 ,Fn2 ,v084
 .byte   W36
 .byte   W01
@  #03 @106   ----------------------------------------
 .byte   W96
@  #03 @107   ----------------------------------------
 .byte   W96
@  #03 @108   ----------------------------------------
 .byte   VOL , 75*song04_mvl/mxv
 .byte   GOTO
  .word Label_01001B12
@  #03 @109   ----------------------------------------
 .byte   W96
@  #03 @110   ----------------------------------------
 .byte   PATT
  .word Label_548415
@  #03 @111   ----------------------------------------
 .byte   W96
@  #03 @112   ----------------------------------------
 .byte   W13
 .byte   FINE

@**************** Track 4 (Midi-Chn.3) ****************@

song04_004:
@  #04 @000   ----------------------------------------
 .byte   KEYSH , song04_key+0
Label_0100205A:
 .byte   VOICE , 52
 .byte   PAN , c_v-14
 .byte   W96
@  #04 @001   ----------------------------------------
 .byte   W96
@  #04 @002   ----------------------------------------
 .byte   W96
@  #04 @003   ----------------------------------------
 .byte   W96
@  #04 @004   ----------------------------------------
 .byte   W96
@  #04 @005   ----------------------------------------
 .byte   W96
@  #04 @006   ----------------------------------------
 .byte   W96
@  #04 @007   ----------------------------------------
 .byte   W96
@  #04 @008   ----------------------------------------
 .byte   W96
@  #04 @009   ----------------------------------------
 .byte   W96
@  #04 @010   ----------------------------------------
 .byte   W96
@  #04 @011   ----------------------------------------
 .byte   W96
@  #04 @012   ----------------------------------------
 .byte   W96
@  #04 @013   ----------------------------------------
 .byte   W96
@  #04 @014   ----------------------------------------
 .byte   W96
@  #04 @015   ----------------------------------------
 .byte   W96
@  #04 @016   ----------------------------------------
 .byte   W96
@  #04 @017   ----------------------------------------
 .byte   W96
@  #04 @018   ----------------------------------------
 .byte   W96
@  #04 @019   ----------------------------------------
 .byte   W96
@  #04 @020   ----------------------------------------
 .byte   W96
@  #04 @021   ----------------------------------------
 .byte   W96
@  #04 @022   ----------------------------------------
 .byte   W96
@  #04 @023   ----------------------------------------
 .byte   W96
@  #04 @024   ----------------------------------------
 .byte   W96
@  #04 @025   ----------------------------------------
 .byte   W96
@  #04 @026   ----------------------------------------
 .byte   W96
@  #04 @027   ----------------------------------------
 .byte   W96
@  #04 @028   ----------------------------------------
 .byte   W96
@  #04 @029   ----------------------------------------
 .byte   W96
@  #04 @030   ----------------------------------------
 .byte   W96
@  #04 @031   ----------------------------------------
 .byte   W96
@  #04 @032   ----------------------------------------
 .byte   W96
@  #04 @033   ----------------------------------------
 .byte   W96
@  #04 @034   ----------------------------------------
 .byte   W96
@  #04 @035   ----------------------------------------
 .byte   W96
@  #04 @036   ----------------------------------------
 .byte   W96
@  #04 @037   ----------------------------------------
 .byte   W96
@  #04 @038   ----------------------------------------
 .byte   W96
@  #04 @039   ----------------------------------------
 .byte   W96
@  #04 @040   ----------------------------------------
 .byte   W96
@  #04 @041   ----------------------------------------
 .byte   W96
@  #04 @042   ----------------------------------------
 .byte   W96
@  #04 @043   ----------------------------------------
 .byte   W96
@  #04 @044   ----------------------------------------
 .byte   W96
@  #04 @045   ----------------------------------------
 .byte   W96
@  #04 @046   ----------------------------------------
 .byte   W96
@  #04 @047   ----------------------------------------
 .byte   W96
@  #04 @048   ----------------------------------------
 .byte   W96
@  #04 @049   ----------------------------------------
 .byte   W96
@  #04 @050   ----------------------------------------
 .byte   W96
@  #04 @051   ----------------------------------------
 .byte   W96
@  #04 @052   ----------------------------------------
 .byte   W96
@  #04 @053   ----------------------------------------
 .byte   W96
@  #04 @054   ----------------------------------------
 .byte   W96
@  #04 @055   ----------------------------------------
 .byte   W96
@  #04 @056   ----------------------------------------
 .byte   W96
@  #04 @057   ----------------------------------------
 .byte   W96
@  #04 @058   ----------------------------------------
 .byte   W96
@  #04 @059   ----------------------------------------
 .byte   W96
@  #04 @060   ----------------------------------------
 .byte   W96
@  #04 @061   ----------------------------------------
 .byte   W96
@  #04 @062   ----------------------------------------
 .byte   W96
@  #04 @063   ----------------------------------------
 .byte   W96
@  #04 @064   ----------------------------------------
 .byte   W96
@  #04 @065   ----------------------------------------
 .byte   W96
@  #04 @066   ----------------------------------------
 .byte   W96
@  #04 @067   ----------------------------------------
 .byte   W96
@  #04 @068   ----------------------------------------
 .byte   W96
@  #04 @069   ----------------------------------------
 .byte   W96
@  #04 @070   ----------------------------------------
 .byte   W96
@  #04 @071   ----------------------------------------
 .byte   W40
 .byte   N04 ,Cn2 ,v086
 .byte   VOL , 10*song04_mvl/mxv
 .byte   W17
 .byte   VOL , 12*song04_mvl/mxv
 .byte   W09
 .byte   N04
 .byte   W07
 .byte   VOL , 14*song04_mvl/mxv
 .byte   W15
 .byte   VOL , 16*song04_mvl/mxv
 .byte   W04
 .byte   N03
 .byte   W04
@  #04 @072   ----------------------------------------
 .byte   W07
 .byte   VOL , 18*song04_mvl/mxv
 .byte   W14
 .byte   VOL , 20*song04_mvl/mxv
 .byte   N03 ,Cn2 ,v092
 .byte   W13
 .byte   VOL , 22*song04_mvl/mxv
 .byte   W13
 .byte   VOL , 24*song04_mvl/mxv
 .byte   N06 ,Cn2 ,v067
 .byte   W08
 .byte   N04 ,Cs2 ,v072
 .byte   W04
 .byte   VOL , 26*song04_mvl/mxv
 .byte   W12
 .byte   VOL , 28*song04_mvl/mxv
 .byte   W02
 .byte   N04 ,Cs2 ,v074
 .byte   W09
 .byte   VOL , 30*song04_mvl/mxv
 .byte   W11
 .byte   VOL , 32*song04_mvl/mxv
 .byte   W03
@  #04 @073   ----------------------------------------
 .byte   W02
 .byte   N04
 .byte   W06
 .byte   VOL , 34*song04_mvl/mxv
 .byte   W09
 .byte   VOL , 36*song04_mvl/mxv
 .byte   W10
 .byte   VOL , 38*song04_mvl/mxv
 .byte   W01
 .byte   N05 ,Cs2 ,v084
 .byte   W08
 .byte   VOL , 40*song04_mvl/mxv
 .byte   W01
 .byte   N03 ,Ds2 ,v066
 .byte   W08
 .byte   VOL , 42*song04_mvl/mxv
 .byte   W09
 .byte   VOL , 44*song04_mvl/mxv
 .byte   N06 ,Cn2 ,v078
 .byte   W08
 .byte   VOL , 46*song04_mvl/mxv
 .byte   W08
 .byte   VOL , 48*song04_mvl/mxv
 .byte   W08
 .byte   VOL , 50*song04_mvl/mxv
 .byte   W01
 .byte   N05 ,Cn2 ,v086
 .byte   W07
 .byte   VOL , 52*song04_mvl/mxv
 .byte   W07
 .byte   VOL , 54*song04_mvl/mxv
 .byte   W03
@  #04 @074   ----------------------------------------
 .byte   W04
 .byte   VOL , 56*song04_mvl/mxv
 .byte   W05
 .byte   N04 ,Cn2 ,v084
 .byte   W01
 .byte   VOL , 58*song04_mvl/mxv
 .byte   W07
 .byte   VOL , 60*song04_mvl/mxv
 .byte   W07
 .byte   VOL , 62*song04_mvl/mxv
 .byte   W06
 .byte   VOL , 64*song04_mvl/mxv
 .byte   W05
 .byte   N05 ,Cn2 ,v086
 .byte   W01
 .byte   VOL , 66*song04_mvl/mxv
 .byte   W06
 .byte   VOL , 68*song04_mvl/mxv
 .byte   W05
 .byte   VOL , 70*song04_mvl/mxv
 .byte   W06
 .byte   VOL , 72*song04_mvl/mxv
 .byte   W05
 .byte   VOL , 74*song04_mvl/mxv
 .byte   W03
 .byte   N06 ,Cn2 ,v082
 .byte   VOL , 75*song04_mvl/mxv
 .byte   W08
 .byte   N04 ,Cs2 ,v067
 .byte   W18
 .byte   N05 ,Cs2 ,v072
 .byte   W09
@  #04 @075   ----------------------------------------
 .byte   W16
 .byte   N08 ,Cs2 ,v073
 .byte   W24
 .byte   W02
 .byte   N06 ,Cs2 ,v072
 .byte   W08
 .byte   Ds2 ,v078
 .byte   W09
 .byte   N05 ,Cs2 ,v079
 .byte   W09
 .byte   N07 ,Cn2 ,v082
 .byte   W24
 .byte   W01
 .byte   N05 ,Cn2 ,v089
 .byte   W03
@  #04 @076   ----------------------------------------
 .byte   W23
 .byte   Cn2
 .byte   W24
 .byte   W02
 .byte   Cn2
 .byte   W24
 .byte   W01
 .byte   N07 ,Cn2 ,v086
 .byte   W08
 .byte   N06 ,Cs2 ,v060
 .byte   W14
@  #04 @077   ----------------------------------------
 .byte   W04
 .byte   Cs2 ,v073
 .byte   W24
 .byte   W02
 .byte   Cs2 ,v072
 .byte   W24
 .byte   W01
 .byte   N07 ,Cs2 ,v074
 .byte   W24
 .byte   W03
 .byte   N04 ,Cn2 ,v086
 .byte   W14
@  #04 @078   ----------------------------------------
 .byte   W11
 .byte   N05 ,Cn2 ,v089
 .byte   W24
 .byte   W02
 .byte   Cn2 ,v086
 .byte   W24
 .byte   W01
 .byte   N06 ,Cn2 ,v089
 .byte   W24
 .byte   W02
 .byte   Cn2 ,v084
 .byte   W08
@  #04 @079   ----------------------------------------
 .byte   Cs2 ,v072
 .byte   W18
 .byte   Cs2 ,v078
 .byte   W24
 .byte   W02
 .byte   Cs2
 .byte   W24
 .byte   W01
 .byte   Cs2 ,v082
 .byte   W09
 .byte   N05 ,Ds2 ,v102
 .byte   W08
 .byte   N06 ,Cs2 ,v095
 .byte   W09
 .byte   N04 ,Cn2 ,v086
 .byte   W01
@  #04 @080   ----------------------------------------
 .byte   W24
 .byte   W01
 .byte   Cn2
 .byte   W24
 .byte   W01
 .byte   Cn2
 .byte   W24
 .byte   W02
 .byte   N03 ,Cn2 ,v092
 .byte   W20
@  #04 @081   ----------------------------------------
 .byte   W06
 .byte   N06 ,Cn2 ,v067
 .byte   W08
 .byte   N04 ,Cs2 ,v072
 .byte   W18
 .byte   Cs2 ,v074
 .byte   W24
 .byte   W01
 .byte   Cs2
 .byte   W24
 .byte   W02
 .byte   N05 ,Cs2 ,v084
 .byte   W09
 .byte   N02 ,Ds2 ,v066
 .byte   W04
@  #04 @082   ----------------------------------------
 .byte   W13
 .byte   N06 ,Cn2 ,v078
 .byte   W24
 .byte   W01
 .byte   N05 ,Cn2 ,v086
 .byte   W24
 .byte   W02
 .byte   N04 ,Cn2 ,v084
 .byte   W24
 .byte   W02
 .byte   Cn2 ,v086
 .byte   W06
@  #04 @083   ----------------------------------------
 .byte   W20
 .byte   N06 ,Cn2 ,v082
 .byte   W08
 .byte   N04 ,Cs2 ,v067
 .byte   W18
 .byte   N05 ,Cs2 ,v072
 .byte   W24
 .byte   W01
 .byte   N08 ,Cs2 ,v073
 .byte   W24
 .byte   W01
@  #04 @084   ----------------------------------------
 .byte   N07 ,Cs2 ,v072
 .byte   W09
 .byte   N06 ,Ds2 ,v078
 .byte   W09
 .byte   N05 ,Cs2 ,v079
 .byte   W08
 .byte   N08 ,Cn2 ,v082
 .byte   W24
 .byte   W02
 .byte   N04 ,Cn2 ,v089
 .byte   W24
 .byte   W02
 .byte   N05
 .byte   W18
@  #04 @085   ----------------------------------------
 .byte   W08
 .byte   Cn2
 .byte   W24
 .byte   W01
 .byte   N07 ,Cn2 ,v086
 .byte   W08
 .byte   N06 ,Cs2 ,v060
 .byte   W18
 .byte   Cs2 ,v073
 .byte   W24
 .byte   W02
 .byte   Cs2 ,v072
 .byte   W11
@  #04 @086   ----------------------------------------
 .byte   W14
 .byte   N08 ,Cs2 ,v074
 .byte   W24
 .byte   W02
 .byte   N05 ,Cn2 ,v086
 .byte   W24
 .byte   W02
 .byte   Cn2 ,v089
 .byte   W24
 .byte   W02
 .byte   Cn2 ,v086
 .byte   W04
@  #04 @087   ----------------------------------------
 .byte   W22
 .byte   Cn2 ,v089
 .byte   W24
 .byte   W01
 .byte   N06 ,Cn2 ,v084
 .byte   W08
 .byte   Cs2 ,v072
 .byte   W18
 .byte   Cs2 ,v078
 .byte   W23
@  #04 @088   ----------------------------------------
 .byte   W02
 .byte   N07
 .byte   W24
 .byte   W02
 .byte   N06 ,Cs2 ,v082
 .byte   W09
 .byte   N05 ,Ds2 ,v102
 .byte   W08
 .byte   N06 ,Cs2 ,v095
 .byte   W09
 .byte   N04 ,Cn2 ,v086
 .byte   W24
 .byte   W02
 .byte   Cn2
 .byte   W16
@  #04 @089   ----------------------------------------
 .byte   W09
 .byte   Cn2
 .byte   W24
 .byte   W02
 .byte   N03 ,Cn2 ,v092
 .byte   W24
 .byte   W02
 .byte   N05 ,Cn2 ,v067
 .byte   W08
 .byte   N04 ,Cs2 ,v072
 .byte   W18
 .byte   Cs2 ,v074
 .byte   W09
@  #04 @090   ----------------------------------------
 .byte   W16
 .byte   Cs2
 .byte   W24
 .byte   W02
 .byte   N05 ,Cs2 ,v084
 .byte   W08
 .byte   N03 ,Ds2 ,v066
 .byte   W18
 .byte   N06 ,Cn2 ,v078
 .byte   W24
 .byte   W01
 .byte   N05 ,Cn2 ,v086
 .byte   W03
@  #04 @091   ----------------------------------------
 .byte   W23
 .byte   N04 ,Cn2 ,v084
 .byte   W24
 .byte   W02
 .byte   N05 ,Cn2 ,v086
 .byte   W24
 .byte   W01
 .byte   N06 ,Cn2 ,v082
 .byte   W09
 .byte   N03 ,Cs2 ,v067
 .byte   W13
@  #04 @092   ----------------------------------------
 .byte   W04
 .byte   N06 ,Cs2 ,v072
 .byte   W24
 .byte   W02
 .byte   N08 ,Cs2 ,v073
 .byte   W24
 .byte   W01
 .byte   N07 ,Cs2 ,v072
 .byte   W09
 .byte   N06 ,Ds2 ,v078
 .byte   W08
 .byte   Cs2 ,v079
 .byte   W09
 .byte   N07 ,Cn2 ,v082
 .byte   W15
@  #04 @093   ----------------------------------------
 .byte   W11
 .byte   N04 ,Cn2 ,v089
 .byte   W24
 .byte   W02
 .byte   N05
 .byte   W24
 .byte   W01
 .byte   N06
 .byte   W24
 .byte   W02
 .byte   Cn2 ,v086
 .byte   W08
@  #04 @094   ----------------------------------------
 .byte   Cs2 ,v060
 .byte   W18
 .byte   Cs2 ,v073
 .byte   W24
 .byte   W02
 .byte   Cs2 ,v072
 .byte   W24
 .byte   W01
 .byte   N07 ,Cs2 ,v074
 .byte   W24
 .byte   W02
 .byte   N05 ,Cn2 ,v086
 .byte   W01
@  #04 @095   ----------------------------------------
 .byte   W24
 .byte   W01
 .byte   Cn2 ,v089
 .byte   W24
 .byte   W01
 .byte   N06 ,Cn2 ,v086
 .byte   W24
 .byte   W02
 .byte   Cn2 ,v089
 .byte   W20
@  #04 @096   ----------------------------------------
 .byte   W06
 .byte   Cn2 ,v084
 .byte   W08
 .byte   Cs2 ,v072
 .byte   W18
 .byte   Cs2 ,v078
 .byte   W24
 .byte   W01
 .byte   N07
 .byte   W24
 .byte   W02
 .byte   N06 ,Cs2 ,v082
 .byte   W09
 .byte   N05 ,Ds2 ,v102
 .byte   W04
@  #04 @097   ----------------------------------------
 .byte   W04
 .byte   N06 ,Cs2 ,v095
 .byte   W09
 .byte   N03 ,Cn2 ,v086
 .byte   W24
 .byte   W01
 .byte   N04
 .byte   W24
 .byte   W02
 .byte   Cn2
 .byte   W24
 .byte   W02
 .byte   N03 ,Cn2 ,v092
 .byte   W06
@  #04 @098   ----------------------------------------
 .byte   W20
 .byte   N05 ,Cn2 ,v067
 .byte   W08
 .byte   N04 ,Cs2 ,v072
 .byte   W18
 .byte   Cs2 ,v074
 .byte   W24
 .byte   W01
 .byte   Cs2
 .byte   W24
 .byte   W01
@  #04 @099   ----------------------------------------
 .byte   W01
 .byte   N05 ,Cs2 ,v084
 .byte   W08
 .byte   N03 ,Ds2 ,v066
 .byte   W17
 .byte   N06 ,Cn2 ,v078
 .byte   W24
 .byte   W02
 .byte   N04 ,Cn2 ,v086
 .byte   W24
 .byte   W02
 .byte   Cn2 ,v084
 .byte   W18
@  #04 @100   ----------------------------------------
 .byte   W08
 .byte   Cn2 ,v086
 .byte   W24
 .byte   W01
 .byte   N06 ,Cn2 ,v082
 .byte   W09
 .byte   N04 ,Cs2 ,v067
 .byte   W13
 .byte   VOL , 73*song04_mvl/mxv
 .byte   W04
 .byte   N06 ,Cs2 ,v072
 .byte   W17
 .byte   VOL , 71*song04_mvl/mxv
 .byte   W08
 .byte   N08 ,Cs2 ,v073
 .byte   W12
@  #04 @101   ----------------------------------------
 .byte   VOL , 69*song04_mvl/mxv
 .byte   W14
 .byte   N07 ,Cs2 ,v072
 .byte   W05
 .byte   VOL , 67*song04_mvl/mxv
 .byte   W04
 .byte   N06 ,Ds2 ,v078
 .byte   W08
 .byte   Cs2 ,v079
 .byte   W07
 .byte   VOL , 65*song04_mvl/mxv
 .byte   W02
 .byte   N07 ,Cn2 ,v082
 .byte   W16
 .byte   VOL , 63*song04_mvl/mxv
 .byte   W10
 .byte   N04 ,Cn2 ,v089
 .byte   W07
 .byte   VOL , 61*song04_mvl/mxv
 .byte   W17
 .byte   VOL , 59*song04_mvl/mxv
 .byte   W02
 .byte   N04
 .byte   W04
@  #04 @102   ----------------------------------------
 .byte   W10
 .byte   VOL , 57*song04_mvl/mxv
 .byte   W11
 .byte   N05
 .byte   W05
 .byte   VOL , 55*song04_mvl/mxv
 .byte   W15
 .byte   VOL , 53*song04_mvl/mxv
 .byte   W06
 .byte   N06 ,Cn2 ,v086
 .byte   W08
 .byte   Cs2 ,v060
 .byte   W01
 .byte   VOL , 51*song04_mvl/mxv
 .byte   W14
 .byte   VOL , 49*song04_mvl/mxv
 .byte   W03
 .byte   N05 ,Cs2 ,v073
 .byte   W11
 .byte   VOL , 47*song04_mvl/mxv
 .byte   W12
@  #04 @103   ----------------------------------------
 .byte   W02
 .byte   VOL , 45*song04_mvl/mxv
 .byte   N07 ,Cs2 ,v072
 .byte   W13
 .byte   VOL , 43*song04_mvl/mxv
 .byte   W12
 .byte   VOL , 41*song04_mvl/mxv
 .byte   W01
 .byte   N07 ,Cs2 ,v074
 .byte   W12
 .byte   VOL , 39*song04_mvl/mxv
 .byte   W12
 .byte   VOL , 37*song04_mvl/mxv
 .byte   W02
 .byte   N05 ,Cn2 ,v086
 .byte   W09
 .byte   VOL , 35*song04_mvl/mxv
 .byte   W11
 .byte   VOL , 33*song04_mvl/mxv
 .byte   W06
 .byte   N05 ,Cn2 ,v089
 .byte   W06
 .byte   VOL , 31*song04_mvl/mxv
 .byte   W10
@  #04 @104   ----------------------------------------
 .byte   VOL , 29*song04_mvl/mxv
 .byte   W09
 .byte   N06 ,Cn2 ,v086
 .byte   W02
 .byte   VOL , 27*song04_mvl/mxv
 .byte   W10
 .byte   VOL , 25*song04_mvl/mxv
 .byte   W10
 .byte   VOL , 23*song04_mvl/mxv
 .byte   W04
 .byte   N06 ,Cn2 ,v089
 .byte   W05
 .byte   VOL , 21*song04_mvl/mxv
 .byte   W10
 .byte   VOL , 19*song04_mvl/mxv
 .byte   W09
 .byte   VOL , 17*song04_mvl/mxv
 .byte   W01
 .byte   N07 ,Cn2 ,v084
 .byte   W08
 .byte   VOL , 15*song04_mvl/mxv
 .byte   W01
 .byte   N05 ,Cs2 ,v072
 .byte   W07
 .byte   VOL , 13*song04_mvl/mxv
 .byte   W09
 .byte   VOL , 11*song04_mvl/mxv
 .byte   W01
 .byte   N06 ,Cs2 ,v078
 .byte   W07
 .byte   VOL , 10*song04_mvl/mxv
 .byte   W03
@  #04 @105   ----------------------------------------
 .byte   W06
 .byte   VOL , 10*song04_mvl/mxv
 .byte   W08
 .byte   VOL , 10*song04_mvl/mxv
 .byte   W02
 .byte   N06
 .byte   W05
 .byte   VOL , 10*song04_mvl/mxv
 .byte   W08
 .byte   VOL , 10*song04_mvl/mxv
 .byte   W07
 .byte   VOL , 10*song04_mvl/mxv
 .byte   W06
 .byte   N06 ,Cs2 ,v082
 .byte   W02
 .byte   VOL , 10*song04_mvl/mxv
 .byte   W06
 .byte   N06 ,Ds2 ,v102
 .byte   VOL , 10*song04_mvl/mxv
 .byte   W08
 .byte   VOL , 10*song04_mvl/mxv
 .byte   W01
 .byte   N06 ,Cs2 ,v095
 .byte   W05
 .byte   VOL , 10*song04_mvl/mxv
 .byte   W04
 .byte   VOL , 10*song04_mvl/mxv
 .byte   W28
@  #04 @106   ----------------------------------------
 .byte   W96
@  #04 @107   ----------------------------------------
 .byte   W96
@  #04 @108   ----------------------------------------
 .byte   VOL , 75*song04_mvl/mxv
 .byte   GOTO
  .word Label_0100205A
@  #04 @109   ----------------------------------------
 .byte   W96
@  #04 @110   ----------------------------------------
 .byte   PATT
  .word Label_548415
@  #04 @111   ----------------------------------------
 .byte   W96
@  #04 @112   ----------------------------------------
 .byte   W13
 .byte   FINE

@**************** Track 5 (Midi-Chn.4) ****************@

song04_005:
@  #05 @000   ----------------------------------------
 .byte   KEYSH , song04_key+0
Label_0100240A:
 .byte   VOICE , 75
 .byte   VOL , 55*song04_mvl/mxv
 .byte   PAN , c_v-44
 .byte   W96
@  #05 @001   ----------------------------------------
 .byte   W96
@  #05 @002   ----------------------------------------
 .byte   W96
@  #05 @003   ----------------------------------------
 .byte   W96
@  #05 @004   ----------------------------------------
 .byte   W96
@  #05 @005   ----------------------------------------
 .byte   W96
@  #05 @006   ----------------------------------------
 .byte   W23
 .byte   TIE ,Fs3 ,v102
 .byte   W56
 .byte   W01
 .byte   BEND , c_v+2
 .byte   W04
 .byte   BEND , c_v+3
 .byte   W07
 .byte   BEND , c_v+5
 .byte   W05
@  #05 @007   ----------------------------------------
 .byte   W02
 .byte   BEND , c_v+7
 .byte   W03
 .byte   BEND , c_v+8
 .byte   W03
 .byte   BEND , c_v+10
 .byte   W03
 .byte   BEND , c_v+12
 .byte   W04
 .byte   BEND , c_v+13
 .byte   W05
 .byte   BEND , c_v+15
 .byte   W06
 .byte   BEND , c_v+17
 .byte   W06
 .byte   BEND , c_v+19
 .byte   W07
 .byte   BEND , c_v+20
 .byte   W09
 .byte   BEND , c_v+22
 .byte   W09
 .byte   BEND , c_v+24
 .byte   W08
 .byte   BEND , c_v+25
 .byte   W04
 .byte   BEND , c_v+27
 .byte   W03
 .byte   BEND , c_v+29
 .byte   W22
 .byte   BEND , c_v+30
 .byte   W02
@  #05 @008   ----------------------------------------
 .byte   W19
 .byte   BEND , c_v+29
 .byte   W04
 .byte   BEND , c_v+27
 .byte   W02
 .byte   BEND , c_v+25
 .byte   W03
 .byte   BEND , c_v+23
 .byte   W03
 .byte   BEND , c_v+21
 .byte   W03
 .byte   BEND , c_v+20
 .byte   W04
 .byte   BEND , c_v+18
 .byte   W02
 .byte   BEND , c_v+16
 .byte   W04
 .byte   BEND , c_v+15
 .byte   W04
 .byte   BEND , c_v+12
 .byte   W02
 .byte   BEND , c_v+10
 .byte   W02
 .byte   BEND , c_v+8
 .byte   W01
 .byte   BEND , c_v+7
 .byte   W02
 .byte   BEND , c_v+4
 .byte   W03
 .byte   BEND , c_v+3
 .byte   W02
 .byte   BEND , c_v+1
 .byte   W02
 .byte   BEND , c_v+0
 .byte   W24
 .byte   W02
 .byte   BEND , c_v-1
 .byte   W02
 .byte   BEND , c_v-3
 .byte   W02
 .byte   BEND , c_v-5
 .byte   W02
 .byte   BEND , c_v-7
 .byte   W02
@  #05 @009   ----------------------------------------
 .byte   BEND , c_v-8
 .byte   W02
 .byte   BEND , c_v-10
 .byte   W02
 .byte   BEND , c_v-12
 .byte   W02
 .byte   BEND , c_v-14
 .byte   W03
 .byte   BEND , c_v-15
 .byte   W02
 .byte   BEND , c_v-17
 .byte   W01
 .byte   BEND , c_v-20
 .byte   W03
 .byte   BEND , c_v-21
 .byte   W02
 .byte   BEND , c_v-23
 .byte   W01
 .byte   BEND , c_v-25
 .byte   W01
 .byte   BEND , c_v-27
 .byte   W01
 .byte   BEND , c_v-29
 .byte   W02
 .byte   BEND , c_v-31
 .byte   W02
 .byte   BEND , c_v-33
 .byte   W02
 .byte   BEND , c_v-34
 .byte   W01
 .byte   BEND , c_v-36
 .byte   W01
 .byte   BEND , c_v-38
 .byte   W02
 .byte   BEND , c_v-40
 .byte   W01
 .byte   BEND , c_v-41
 .byte   W01
 .byte   BEND , c_v-43
 .byte   W01
 .byte   BEND , c_v-46
 .byte   W02
 .byte   EOT
 .byte   BEND , c_v-48
 .byte   W01
 .byte   BEND , c_v-50
 .byte   W02
 .byte   BEND , c_v-52
 .byte   W01
 .byte   BEND , c_v-53
 .byte   W02
 .byte   BEND , c_v-55
 .byte   W02
 .byte   BEND , c_v-57
 .byte   W05
 .byte   BEND , c_v-59
 .byte   W17
 .byte   BEND , c_v-57
 .byte   W01
 .byte   BEND , c_v-55
 .byte   W02
 .byte   BEND , c_v-53
 .byte   W02
 .byte   BEND , c_v-51
 .byte   W01
 .byte   BEND , c_v-49
 .byte   W01
 .byte   BEND , c_v-47
 .byte   W03
 .byte   BEND , c_v-43
 .byte   W01
 .byte   BEND , c_v-41
 .byte   W02
 .byte   BEND , c_v-35
 .byte   W01
 .byte   BEND , c_v-33
 .byte   W01
 .byte   BEND , c_v-28
 .byte   W01
 .byte   BEND , c_v-25
 .byte   W01
 .byte   BEND , c_v-21
 .byte   W01
 .byte   BEND , c_v-20
 .byte   W01
 .byte   BEND , c_v-18
 .byte   W01
 .byte   BEND , c_v-15
 .byte   W01
 .byte   BEND , c_v-14
 .byte   W01
 .byte   BEND , c_v-12
 .byte   W01
 .byte   BEND , c_v-10
 .byte   W03
 .byte   BEND , c_v-8
 .byte   W02
 .byte   BEND , c_v-2
 .byte   W01
 .byte   BEND , c_v-1
 .byte   W01
 .byte   BEND , c_v+0
 .byte   W01
@  #05 @010   ----------------------------------------
 .byte   W96
@  #05 @011   ----------------------------------------
 .byte   W96
@  #05 @012   ----------------------------------------
 .byte   W96
@  #05 @013   ----------------------------------------
 .byte   W96
@  #05 @014   ----------------------------------------
 .byte   W78
 .byte   TIE ,Ds4 ,v073
 .byte   W10
 .byte   BEND , c_v+2
 .byte   W01
 .byte   BEND , c_v+5
 .byte   W01
 .byte   BEND , c_v+13
 .byte   W01
 .byte   BEND , c_v+18
 .byte   W01
 .byte   BEND , c_v+21
 .byte   W01
 .byte   BEND , c_v+24
 .byte   W03
@  #05 @015   ----------------------------------------
 .byte   BEND , c_v+18
 .byte   W01
 .byte   BEND , c_v+16
 .byte   W01
 .byte   BEND , c_v+12
 .byte   W01
 .byte   BEND , c_v+8
 .byte   W01
 .byte   BEND , c_v+4
 .byte   W01
 .byte   BEND , c_v+2
 .byte   W02
 .byte   BEND , c_v+1
 .byte   W02
 .byte   BEND , c_v+0
 .byte   W36
 .byte   W02
 .byte   BEND , c_v+2
 .byte   W01
 .byte   BEND , c_v+8
 .byte   W01
 .byte   BEND , c_v+11
 .byte   W01
 .byte   BEND , c_v+13
 .byte   W02
 .byte   BEND , c_v+11
 .byte   W01
 .byte   BEND , c_v+7
 .byte   W01
 .byte   BEND , c_v+2
 .byte   W01
 .byte   BEND , c_v+1
 .byte   W01
 .byte   BEND , c_v+0
 .byte   W10
 .byte   BEND , c_v+7
 .byte   W01
 .byte   BEND , c_v+12
 .byte   W01
 .byte   BEND , c_v+17
 .byte   W01
 .byte   BEND , c_v+20
 .byte   W03
 .byte   BEND , c_v+16
 .byte   W01
 .byte   BEND , c_v+13
 .byte   W01
 .byte   BEND , c_v+7
 .byte   W01
 .byte   BEND , c_v+6
 .byte   W01
 .byte   BEND , c_v+2
 .byte   W02
 .byte   BEND , c_v+0
 .byte   W10
 .byte   BEND , c_v+4
 .byte   W01
 .byte   BEND , c_v+11
 .byte   W01
 .byte   BEND , c_v+18
 .byte   W01
 .byte   BEND , c_v+20
 .byte   W01
 .byte   BEND , c_v+21
 .byte   W02
 .byte   BEND , c_v+18
 .byte   W01
 .byte   BEND , c_v+16
 .byte   W01
@  #05 @016   ----------------------------------------
 .byte   BEND , c_v+11
 .byte   W01
 .byte   BEND , c_v+7
 .byte   W01
 .byte   BEND , c_v+3
 .byte   W02
 .byte   BEND , c_v+2
 .byte   W01
 .byte   BEND , c_v+0
 .byte   W08
 .byte   BEND , c_v+1
 .byte   W01
 .byte   BEND , c_v+6
 .byte   W01
 .byte   BEND , c_v+11
 .byte   W01
 .byte   BEND , c_v+19
 .byte   W01
 .byte   BEND , c_v+22
 .byte   W03
 .byte   BEND , c_v+20
 .byte   W01
 .byte   BEND , c_v+17
 .byte   W01
 .byte   BEND , c_v+8
 .byte   W01
 .byte   BEND , c_v+5
 .byte   W01
 .byte   BEND , c_v+0
 .byte   W10
 .byte   BEND , c_v+3
 .byte   W01
 .byte   BEND , c_v+7
 .byte   W01
 .byte   BEND , c_v+17
 .byte   W01
 .byte   BEND , c_v+20
 .byte   W01
 .byte   BEND , c_v+22
 .byte   W02
 .byte   BEND , c_v+17
 .byte   W01
 .byte   BEND , c_v+12
 .byte   W01
 .byte   BEND , c_v+2
 .byte   W01
 .byte   BEND , c_v+0
 .byte   W48
 .byte   W03
 .byte   BEND , c_v+3
 .byte   W01
 .byte   BEND , c_v+7
 .byte   W01
@  #05 @017   ----------------------------------------
 .byte   BEND , c_v+20
 .byte   W01
 .byte   BEND , c_v+24
 .byte   W01
 .byte   BEND , c_v+26
 .byte   W02
 .byte   BEND , c_v+25
 .byte   W01
 .byte   BEND , c_v+21
 .byte   W01
 .byte   BEND , c_v+11
 .byte   W01
 .byte   BEND , c_v+5
 .byte   W01
 .byte   BEND , c_v+0
 .byte   W12
 .byte   BEND , c_v+3
 .byte   W01
 .byte   BEND , c_v+6
 .byte   W01
 .byte   BEND , c_v+12
 .byte   W01
 .byte   BEND , c_v+13
 .byte   W01
 .byte   BEND , c_v+15
 .byte   W02
 .byte   BEND , c_v+13
 .byte   W01
 .byte   BEND , c_v+10
 .byte   W01
 .byte   BEND , c_v+0
 .byte   W10
 .byte   BEND , c_v+5
 .byte   W01
 .byte   BEND , c_v+11
 .byte   W01
 .byte   BEND , c_v+19
 .byte   W01
 .byte   BEND , c_v+20
 .byte   W03
 .byte   BEND , c_v+14
 .byte   W01
 .byte   BEND , c_v+8
 .byte   W01
 .byte   BEND , c_v+5
 .byte   W01
 .byte   BEND , c_v+3
 .byte   W01
 .byte   BEND , c_v+1
 .byte   W01
 .byte   BEND , c_v+0
 .byte   W08
 .byte   BEND , c_v+6
 .byte   W01
 .byte   BEND , c_v+10
 .byte   W01
 .byte   BEND , c_v+13
 .byte   W01
 .byte   BEND , c_v+19
 .byte   W01
 .byte   BEND , c_v+21
 .byte   W01
 .byte   BEND , c_v+22
 .byte   W02
 .byte   BEND , c_v+19
 .byte   W01
 .byte   BEND , c_v+16
 .byte   W01
 .byte   BEND , c_v+6
 .byte   W01
 .byte   BEND , c_v+2
 .byte   W03
 .byte   BEND , c_v+1
 .byte   W01
 .byte   BEND , c_v+0
 .byte   W17
 .byte   BEND , c_v+3
 .byte   W01
 .byte   BEND , c_v+10
 .byte   W01
 .byte   BEND , c_v+17
 .byte   W01
 .byte   BEND , c_v+19
 .byte   W01
 .byte   BEND , c_v+21
 .byte   W03
 .byte   BEND , c_v+17
 .byte   W01
@  #05 @018   ----------------------------------------
 .byte   BEND , c_v+8
 .byte   W01
 .byte   BEND , c_v+4
 .byte   W01
 .byte   BEND , c_v+2
 .byte   W01
 .byte   BEND , c_v+0
 .byte   W08
 .byte   BEND , c_v+1
 .byte   W01
 .byte   BEND , c_v+9
 .byte   W01
 .byte   BEND , c_v+13
 .byte   W01
 .byte   BEND , c_v+20
 .byte   W01
 .byte   BEND , c_v+22
 .byte   W01
 .byte   BEND , c_v+24
 .byte   W02
 .byte   BEND , c_v+19
 .byte   W01
 .byte   BEND , c_v+16
 .byte   W01
 .byte   BEND , c_v+13
 .byte   W01
 .byte   BEND , c_v+7
 .byte   W01
 .byte   BEND , c_v+6
 .byte   W01
 .byte   BEND , c_v+4
 .byte   W01
 .byte   BEND , c_v+0
 .byte   W14
 .byte   BEND , c_v+7
 .byte   W01
 .byte   BEND , c_v+12
 .byte   W01
 .byte   BEND , c_v+19
 .byte   W02
 .byte   BEND , c_v+20
 .byte   W01
 .byte   BEND , c_v+18
 .byte   W01
 .byte   BEND , c_v+15
 .byte   W01
 .byte   BEND , c_v+6
 .byte   W01
 .byte   BEND , c_v+2
 .byte   W01
 .byte   BEND , c_v+0
 .byte   W07
 .byte   BEND , c_v+2
 .byte   W01
 .byte   BEND , c_v+4
 .byte   W01
 .byte   BEND , c_v+13
 .byte   W01
 .byte   BEND , c_v+15
 .byte   W01
 .byte   BEND , c_v+17
 .byte   W04
 .byte   BEND , c_v+13
 .byte   W01
 .byte   BEND , c_v+6
 .byte   W01
 .byte   BEND , c_v+2
 .byte   W01
 .byte   BEND , c_v+0
 .byte   W18
 .byte   BEND , c_v+2
 .byte   W01
 .byte   BEND , c_v+9
 .byte   W01
 .byte   BEND , c_v+12
 .byte   W01
 .byte   BEND , c_v+15
 .byte   W01
 .byte   BEND , c_v+17
 .byte   W01
 .byte   BEND , c_v+19
 .byte   W02
 .byte   BEND , c_v+15
 .byte   W01
 .byte   BEND , c_v+12
 .byte   W01
 .byte   BEND , c_v+3
 .byte   W01
 .byte   BEND , c_v+0
 .byte   W03
@  #05 @019   ----------------------------------------
 .byte   W05
 .byte   BEND , c_v+4
 .byte   W01
 .byte   BEND , c_v+13
 .byte   W01
 .byte   BEND , c_v+15
 .byte   W01
 .byte   BEND , c_v+17
 .byte   W01
 .byte   BEND , c_v+20
 .byte   W03
 .byte   BEND , c_v+16
 .byte   W01
 .byte   BEND , c_v+13
 .byte   W01
 .byte   BEND , c_v+4
 .byte   W01
 .byte   BEND , c_v+0
 .byte   W44
 .byte   W01
 .byte   BEND , c_v+6
 .byte   W01
 .byte   BEND , c_v+12
 .byte   W01
 .byte   BEND , c_v+20
 .byte   W01
 .byte   BEND , c_v+22
 .byte   W03
 .byte   BEND , c_v+16
 .byte   W01
 .byte   BEND , c_v+11
 .byte   W01
 .byte   BEND , c_v+5
 .byte   W01
 .byte   BEND , c_v+0
 .byte   W07
 .byte   BEND , c_v+2
 .byte   W01
 .byte   BEND , c_v+4
 .byte   W01
 .byte   BEND , c_v+13
 .byte   W01
 .byte   BEND , c_v+16
 .byte   W01
 .byte   BEND , c_v+17
 .byte   W02
 .byte   BEND , c_v+16
 .byte   W02
 .byte   BEND , c_v+11
 .byte   W01
 .byte   BEND , c_v+7
 .byte   W01
 .byte   BEND , c_v+2
 .byte   W01
 .byte   BEND , c_v+0
 .byte   W09
@  #05 @020   ----------------------------------------
 .byte   W30
 .byte   BEND , c_v-12
 .byte   W01
 .byte   BEND , c_v-19
 .byte   W01
 .byte   BEND , c_v-28
 .byte   W01
 .byte   BEND , c_v-32
 .byte   W01
 .byte   BEND , c_v-37
 .byte   W02
 .byte   BEND , c_v-39
 .byte   W02
 .byte   EOT
 .byte   W01
 .byte   BEND , c_v-41
 .byte   W01
 .byte   BEND , c_v-43
 .byte   W05
 .byte   BEND , c_v-41
 .byte   W03
 .byte   BEND , c_v-39
 .byte   W05
 .byte   BEND , c_v-37
 .byte   W06
 .byte   BEND , c_v-36
 .byte   W01
 .byte   BEND , c_v-34
 .byte   W02
 .byte   BEND , c_v-30
 .byte   W02
 .byte   BEND , c_v-28
 .byte   W01
 .byte   BEND , c_v-26
 .byte   W01
 .byte   BEND , c_v-24
 .byte   W02
 .byte   BEND , c_v-21
 .byte   W01
 .byte   BEND , c_v-19
 .byte   W01
 .byte   BEND , c_v-17
 .byte   W02
 .byte   BEND , c_v-14
 .byte   W01
 .byte   BEND , c_v-12
 .byte   W01
 .byte   BEND , c_v-9
 .byte   W02
 .byte   BEND , c_v-8
 .byte   W01
 .byte   BEND , c_v-5
 .byte   W02
 .byte   BEND , c_v-4
 .byte   W01
 .byte   BEND , c_v-1
 .byte   W03
 .byte   BEND , c_v+0
 .byte   W13
@  #05 @021   ----------------------------------------
 .byte   W96
@  #05 @022   ----------------------------------------
 .byte   W96
@  #05 @023   ----------------------------------------
 .byte   W78
 .byte   W01
 .byte   N52 ,Bn2 ,v074
 .byte   W17
@  #05 @024   ----------------------------------------
 .byte   W08
 .byte   BEND , c_v-2
 .byte   W01
 .byte   BEND , c_v-4
 .byte   W01
 .byte   BEND , c_v-6
 .byte   W02
 .byte   BEND , c_v-8
 .byte   W01
 .byte   BEND , c_v-11
 .byte   W01
 .byte   BEND , c_v-15
 .byte   W01
 .byte   BEND , c_v-17
 .byte   W01
 .byte   BEND , c_v-19
 .byte   W02
 .byte   BEND , c_v-23
 .byte   W01
 .byte   BEND , c_v-25
 .byte   W01
 .byte   BEND , c_v-30
 .byte   W01
 .byte   BEND , c_v-31
 .byte   W01
 .byte   BEND , c_v-33
 .byte   W01
 .byte   BEND , c_v-36
 .byte   W01
 .byte   BEND , c_v-40
 .byte   W01
 .byte   BEND , c_v-42
 .byte   W01
 .byte   BEND , c_v-45
 .byte   W01
 .byte   BEND , c_v-47
 .byte   W01
 .byte   BEND , c_v-49
 .byte   W01
 .byte   BEND , c_v-51
 .byte   W01
 .byte   BEND , c_v-54
 .byte   W01
 .byte   BEND , c_v-56
 .byte   W01
 .byte   BEND , c_v-59
 .byte   W01
 .byte   BEND , c_v-60
 .byte   W01
 .byte   BEND , c_v-63
 .byte   W02
 .byte   BEND , c_v-64
 .byte   W16
 .byte   BEND , c_v-63
 .byte   W02
 .byte   BEND , c_v-59
 .byte   W01
 .byte   BEND , c_v-56
 .byte   W01
 .byte   BEND , c_v-53
 .byte   W01
 .byte   BEND , c_v-51
 .byte   W01
 .byte   BEND , c_v-49
 .byte   W02
 .byte   BEND , c_v-45
 .byte   W01
 .byte   BEND , c_v-43
 .byte   W01
 .byte   BEND , c_v-38
 .byte   W01
 .byte   BEND , c_v-36
 .byte   W01
 .byte   BEND , c_v-34
 .byte   W02
 .byte   BEND , c_v-29
 .byte   W01
 .byte   BEND , c_v-27
 .byte   W01
 .byte   BEND , c_v-25
 .byte   W01
 .byte   BEND , c_v-23
 .byte   W01
 .byte   BEND , c_v-20
 .byte   W02
 .byte   BEND , c_v-18
 .byte   W01
 .byte   BEND , c_v-15
 .byte   W01
 .byte   BEND , c_v-14
 .byte   W01
 .byte   BEND , c_v-11
 .byte   W01
 .byte   BEND , c_v-9
 .byte   W01
 .byte   BEND , c_v-7
 .byte   W01
 .byte   BEND , c_v-5
 .byte   W01
 .byte   BEND , c_v-3
 .byte   W01
 .byte   BEND , c_v-1
 .byte   W02
 .byte   BEND , c_v+0
 .byte   W14
@  #05 @025   ----------------------------------------
 .byte   W15
 .byte   N56 ,Fs2 ,v100
 .byte   W24
 .byte   BEND , c_v-2
 .byte   W01
 .byte   BEND , c_v-5
 .byte   W02
 .byte   BEND , c_v-7
 .byte   W01
 .byte   BEND , c_v-9
 .byte   W01
 .byte   BEND , c_v-12
 .byte   W02
 .byte   BEND , c_v-15
 .byte   W01
 .byte   BEND , c_v-18
 .byte   W01
 .byte   BEND , c_v-20
 .byte   W02
 .byte   BEND , c_v-24
 .byte   W01
 .byte   BEND , c_v-25
 .byte   W01
 .byte   BEND , c_v-28
 .byte   W02
 .byte   BEND , c_v-33
 .byte   W02
 .byte   BEND , c_v-34
 .byte   W01
 .byte   BEND , c_v-37
 .byte   W02
 .byte   BEND , c_v-39
 .byte   W01
 .byte   BEND , c_v-41
 .byte   W02
 .byte   BEND , c_v-43
 .byte   W01
 .byte   BEND , c_v-45
 .byte   W01
 .byte   BEND , c_v-47
 .byte   W02
 .byte   BEND , c_v-50
 .byte   W01
 .byte   BEND , c_v-52
 .byte   W01
 .byte   BEND , c_v-56
 .byte   W02
 .byte   BEND , c_v-61
 .byte   W02
 .byte   BEND , c_v-63
 .byte   W01
 .byte   BEND , c_v-64
 .byte   W18
 .byte   BEND , c_v-62
 .byte   W01
 .byte   BEND , c_v-60
 .byte   W01
 .byte   BEND , c_v-57
 .byte   W01
 .byte   BEND , c_v-56
 .byte   W01
 .byte   BEND , c_v-54
 .byte   W01
@  #05 @026   ----------------------------------------
 .byte   BEND , c_v-52
 .byte   W01
 .byte   BEND , c_v-50
 .byte   W02
 .byte   BEND , c_v-48
 .byte   W02
 .byte   BEND , c_v-46
 .byte   W01
 .byte   BEND , c_v-42
 .byte   W02
 .byte   BEND , c_v-40
 .byte   W01
 .byte   BEND , c_v-37
 .byte   W01
 .byte   BEND , c_v-36
 .byte   W02
 .byte   BEND , c_v-34
 .byte   W02
 .byte   BEND , c_v-30
 .byte   W02
 .byte   BEND , c_v-28
 .byte   W01
 .byte   BEND , c_v-26
 .byte   W01
 .byte   BEND , c_v-24
 .byte   W02
 .byte   BEND , c_v-21
 .byte   W03
 .byte   BEND , c_v-20
 .byte   W02
 .byte   BEND , c_v-17
 .byte   W02
 .byte   BEND , c_v-15
 .byte   W02
 .byte   BEND , c_v-13
 .byte   W01
 .byte   BEND , c_v-11
 .byte   W02
 .byte   BEND , c_v-9
 .byte   W01
 .byte   BEND , c_v-7
 .byte   W01
 .byte   BEND , c_v-5
 .byte   W01
 .byte   BEND , c_v-3
 .byte   W02
 .byte   BEND , c_v-1
 .byte   W01
 .byte   BEND , c_v+0
 .byte   W56
 .byte   W02
@  #05 @027   ----------------------------------------
 .byte   W96
@  #05 @028   ----------------------------------------
 .byte   W96
@  #05 @029   ----------------------------------------
 .byte   W96
@  #05 @030   ----------------------------------------
 .byte   W96
@  #05 @031   ----------------------------------------
 .byte   W02
 .byte   TIE ,Gs4 ,v079
 .byte   W56
 .byte   BEND , c_v+1
 .byte   W03
 .byte   BEND , c_v+3
 .byte   W04
 .byte   BEND , c_v+4
 .byte   W06
 .byte   BEND , c_v+6
 .byte   W03
 .byte   BEND , c_v+8
 .byte   W03
 .byte   BEND , c_v+10
 .byte   W03
 .byte   BEND , c_v+12
 .byte   W03
 .byte   BEND , c_v+13
 .byte   W04
 .byte   BEND , c_v+15
 .byte   W03
 .byte   BEND , c_v+17
 .byte   W02
 .byte   BEND , c_v+19
 .byte   W03
 .byte   BEND , c_v+20
 .byte   W01
@  #05 @032   ----------------------------------------
 .byte   W03
 .byte   BEND , c_v+22
 .byte   W06
 .byte   BEND , c_v+24
 .byte   W05
 .byte   BEND , c_v+25
 .byte   W03
 .byte   BEND , c_v+27
 .byte   W01
 .byte   BEND , c_v+29
 .byte   W08
 .byte   BEND , c_v+30
 .byte   W09
 .byte   BEND , c_v+32
 .byte   W10
 .byte   BEND , c_v+34
 .byte   W06
 .byte   BEND , c_v+35
 .byte   W18
 .byte   BEND , c_v+37
 .byte   W11
 .byte   BEND , c_v+35
 .byte   W07
 .byte   BEND , c_v+34
 .byte   W06
 .byte   BEND , c_v+32
 .byte   W03
@  #05 @033   ----------------------------------------
 .byte   W01
 .byte   BEND , c_v+30
 .byte   W05
 .byte   BEND , c_v+29
 .byte   W08
 .byte   BEND , c_v+27
 .byte   W02
 .byte   BEND , c_v+25
 .byte   W04
 .byte   BEND , c_v+24
 .byte   W04
 .byte   BEND , c_v+22
 .byte   W04
 .byte   BEND , c_v+20
 .byte   W04
 .byte   BEND , c_v+19
 .byte   W04
 .byte   BEND , c_v+17
 .byte   W05
 .byte   BEND , c_v+15
 .byte   W03
 .byte   BEND , c_v+13
 .byte   W02
 .byte   BEND , c_v+12
 .byte   W02
 .byte   BEND , c_v+10
 .byte   W02
 .byte   BEND , c_v+8
 .byte   W04
 .byte   BEND , c_v+7
 .byte   W03
 .byte   BEND , c_v+5
 .byte   W02
 .byte   BEND , c_v+3
 .byte   W04
 .byte   BEND , c_v+2
 .byte   W03
 .byte   BEND , c_v+0
 .byte   W30
@  #05 @034   ----------------------------------------
 .byte   W15
 .byte   BEND , c_v-2
 .byte   W03
 .byte   BEND , c_v-4
 .byte   W02
 .byte   BEND , c_v-5
 .byte   W02
 .byte   BEND , c_v-7
 .byte   W04
 .byte   BEND , c_v-9
 .byte   W03
 .byte   BEND , c_v-11
 .byte   W03
 .byte   BEND , c_v-12
 .byte   W03
 .byte   BEND , c_v-14
 .byte   W03
 .byte   BEND , c_v-16
 .byte   W03
 .byte   BEND , c_v-18
 .byte   W03
 .byte   BEND , c_v-20
 .byte   W03
 .byte   BEND , c_v-21
 .byte   W02
 .byte   BEND , c_v-24
 .byte   W02
 .byte   BEND , c_v-25
 .byte   W01
 .byte   BEND , c_v-28
 .byte   W02
 .byte   BEND , c_v-30
 .byte   W01
 .byte   BEND , c_v-32
 .byte   W03
 .byte   BEND , c_v-34
 .byte   W01
 .byte   BEND , c_v-36
 .byte   W02
 .byte   BEND , c_v-37
 .byte   W02
 .byte   BEND , c_v-39
 .byte   W02
 .byte   BEND , c_v-41
 .byte   W02
 .byte   BEND , c_v-43
 .byte   W03
 .byte   BEND , c_v-45
 .byte   W03
 .byte   BEND , c_v-47
 .byte   W03
 .byte   BEND , c_v-49
 .byte   W03
 .byte   BEND , c_v-50
 .byte   W03
 .byte   BEND , c_v-52
 .byte   W02
 .byte   BEND , c_v-54
 .byte   W03
 .byte   BEND , c_v-56
 .byte   W03
 .byte   BEND , c_v-57
 .byte   W01
 .byte   EOT
 .byte   W01
 .byte   BEND , c_v-59
 .byte   W02
 .byte   BEND , c_v-61
 .byte   W02
@  #05 @035   ----------------------------------------
 .byte   W02
 .byte   BEND , c_v-63
 .byte   W04
 .byte   BEND , c_v-64
 .byte   W24
 .byte   W01
 .byte   BEND , c_v-63
 .byte   W01
 .byte   BEND , c_v-61
 .byte   W01
 .byte   BEND , c_v-57
 .byte   W01
 .byte   BEND , c_v-55
 .byte   W01
 .byte   BEND , c_v-53
 .byte   W01
 .byte   BEND , c_v-49
 .byte   W02
 .byte   BEND , c_v-44
 .byte   W01
 .byte   BEND , c_v-41
 .byte   W01
 .byte   BEND , c_v-36
 .byte   W01
 .byte   BEND , c_v-33
 .byte   W01
 .byte   BEND , c_v-27
 .byte   W01
 .byte   BEND , c_v-25
 .byte   W01
 .byte   BEND , c_v-21
 .byte   W01
 .byte   BEND , c_v-18
 .byte   W01
 .byte   BEND , c_v-13
 .byte   W01
 .byte   BEND , c_v-10
 .byte   W01
 .byte   BEND , c_v-8
 .byte   W01
 .byte   BEND , c_v-6
 .byte   W01
 .byte   BEND , c_v-4
 .byte   W02
 .byte   BEND , c_v-2
 .byte   W01
 .byte   BEND , c_v+0
 .byte   W42
 .byte   W01
@  #05 @036   ----------------------------------------
 .byte   W24
 .byte   W03
 .byte   N92 ,Gn4 ,v065 ,gtp3
 .byte   W12
 .byte   BEND , c_v+6
 .byte   W01
 .byte   BEND , c_v+9
 .byte   W01
 .byte   BEND , c_v+13
 .byte   W01
 .byte   BEND , c_v+15
 .byte   W05
 .byte   BEND , c_v+13
 .byte   W01
 .byte   BEND , c_v+6
 .byte   W01
 .byte   BEND , c_v+2
 .byte   W01
 .byte   BEND , c_v+0
 .byte   W44
 .byte   W02
@  #05 @037   ----------------------------------------
 .byte   W05
 .byte   BEND , c_v-1
 .byte   W01
 .byte   BEND , c_v-3
 .byte   W02
 .byte   BEND , c_v-5
 .byte   W01
 .byte   BEND , c_v-8
 .byte   W02
 .byte   BEND , c_v-10
 .byte   W01
 .byte   BEND , c_v-13
 .byte   W02
 .byte   BEND , c_v-15
 .byte   W01
 .byte   BEND , c_v-17
 .byte   W01
 .byte   BEND , c_v-18
 .byte   W01
 .byte   BEND , c_v-21
 .byte   W01
 .byte   BEND , c_v-23
 .byte   W01
 .byte   BEND , c_v-24
 .byte   W01
 .byte   BEND , c_v-27
 .byte   W01
 .byte   BEND , c_v-29
 .byte   W01
 .byte   BEND , c_v-33
 .byte   W02
 .byte   BEND , c_v-35
 .byte   W01
 .byte   BEND , c_v-37
 .byte   W01
 .byte   BEND , c_v-39
 .byte   W02
 .byte   BEND , c_v-41
 .byte   W02
 .byte   BEND , c_v-43
 .byte   W02
 .byte   BEND , c_v-44
 .byte   W02
 .byte   BEND , c_v-46
 .byte   W08
 .byte   BEND , c_v-44
 .byte   W01
 .byte   BEND , c_v-43
 .byte   W01
 .byte   BEND , c_v-40
 .byte   W01
 .byte   BEND , c_v-39
 .byte   W01
 .byte   BEND , c_v-35
 .byte   W01
 .byte   BEND , c_v-33
 .byte   W01
 .byte   BEND , c_v-29
 .byte   W02
 .byte   BEND , c_v-26
 .byte   W01
 .byte   BEND , c_v-23
 .byte   W01
 .byte   BEND , c_v-20
 .byte   W01
 .byte   BEND , c_v-17
 .byte   W01
 .byte   BEND , c_v-12
 .byte   W01
 .byte   BEND , c_v-10
 .byte   W01
 .byte   BEND , c_v-8
 .byte   W01
 .byte   BEND , c_v-6
 .byte   W01
 .byte   BEND , c_v-4
 .byte   W01
 .byte   BEND , c_v-2
 .byte   W01
 .byte   BEND , c_v+0
 .byte   W36
@  #05 @038   ----------------------------------------
 .byte   W28
 .byte   N60 ,Bn3 ,v059
 .byte   W22
 .byte   BEND , c_v-2
 .byte   W02
 .byte   BEND , c_v-4
 .byte   W02
 .byte   BEND , c_v-5
 .byte   W04
 .byte   BEND , c_v-7
 .byte   W04
 .byte   BEND , c_v-9
 .byte   W02
 .byte   BEND , c_v-11
 .byte   W02
 .byte   BEND , c_v-13
 .byte   W02
 .byte   BEND , c_v-15
 .byte   W02
 .byte   BEND , c_v-17
 .byte   W02
 .byte   BEND , c_v-20
 .byte   W02
 .byte   BEND , c_v-21
 .byte   W02
 .byte   BEND , c_v-23
 .byte   W01
 .byte   BEND , c_v-25
 .byte   W02
 .byte   BEND , c_v-27
 .byte   W01
 .byte   BEND , c_v-28
 .byte   W02
 .byte   BEND , c_v-30
 .byte   W02
 .byte   BEND , c_v-32
 .byte   W02
 .byte   BEND , c_v-34
 .byte   W01
 .byte   BEND , c_v-36
 .byte   W02
 .byte   BEND , c_v-38
 .byte   W02
 .byte   BEND , c_v-40
 .byte   W02
 .byte   BEND , c_v-41
 .byte   W03
@  #05 @039   ----------------------------------------
 .byte   W01
 .byte   BEND , c_v-43
 .byte   W16
 .byte   BEND , c_v-41
 .byte   W02
 .byte   BEND , c_v-39
 .byte   W01
 .byte   BEND , c_v-37
 .byte   W03
 .byte   BEND , c_v-34
 .byte   W02
 .byte   BEND , c_v-30
 .byte   W02
 .byte   BEND , c_v-28
 .byte   W01
 .byte   BEND , c_v-27
 .byte   W01
 .byte   BEND , c_v-24
 .byte   W01
 .byte   BEND , c_v-23
 .byte   W01
 .byte   BEND , c_v-20
 .byte   W01
 .byte   BEND , c_v-18
 .byte   W02
 .byte   BEND , c_v-16
 .byte   W02
 .byte   BEND , c_v-14
 .byte   W02
 .byte   BEND , c_v-12
 .byte   W02
 .byte   BEND , c_v-10
 .byte   W02
 .byte   BEND , c_v-6
 .byte   W02
 .byte   BEND , c_v-4
 .byte   W02
 .byte   BEND , c_v-2
 .byte   W02
 .byte   BEND , c_v+0
 .byte   W48
@  #05 @040   ----------------------------------------
 .byte   W96
@  #05 @041   ----------------------------------------
 .byte   W96
@  #05 @042   ----------------------------------------
 .byte   W96
@  #05 @043   ----------------------------------------
 .byte   W96
@  #05 @044   ----------------------------------------
 .byte   W96
@  #05 @045   ----------------------------------------
 .byte   W68
 .byte   N12 ,Fs3 ,v072
 .byte   W11
 .byte   N10 ,Ds3 ,v074
 .byte   W11
 .byte   N13 ,Fs2 ,v085
 .byte   W06
@  #05 @046   ----------------------------------------
 .byte   W08
 .byte   N09 ,Gn3 ,v088
 .byte   W11
 .byte   N11 ,Ds3 ,v083
 .byte   W11
 .byte   N10 ,Fs2 ,v110
 .byte   W10
 .byte   Fs3 ,v100
 .byte   W11
 .byte   N12 ,Ds3 ,v085
 .byte   W11
 .byte   N09 ,Fs2 ,v110
 .byte   W10
 .byte   N10 ,Gn3 ,v096
 .byte   W10
 .byte   N11 ,Ds3 ,v088
 .byte   W12
 .byte   N08 ,Fs2 ,v103
 .byte   W02
@  #05 @047   ----------------------------------------
 .byte   W08
 .byte   N10 ,Fs3 ,v088
 .byte   W10
 .byte   N12 ,Ds3 ,v066
 .byte   W12
 .byte   N10 ,Fs2 ,v083
 .byte   W11
 .byte   N09 ,Gn3 ,v070
 .byte   W11
 .byte   N11 ,Ds3 ,v065
 .byte   W09
 .byte   N13 ,Fs2 ,v064
 .byte   W13
 .byte   N11 ,Fs3 ,v068
 .byte   W11
 .byte   N13 ,Ds3 ,v066
 .byte   W11
@  #05 @048   ----------------------------------------
 .byte   Fs2 ,v056
 .byte   W12
 .byte   N10 ,Gn3 ,v067
 .byte   W11
 .byte   N12 ,Ds3 ,v066
 .byte   W09
 .byte   N14 ,Fs2 ,v056
 .byte   W14
 .byte   N09 ,Fs3 ,v071
 .byte   W11
 .byte   N14 ,Ds3 ,v060
 .byte   W11
 .byte   N11 ,Fs2 ,v065
 .byte   W12
 .byte   Gn3 ,v070
 .byte   W12
 .byte   N12 ,Ds3 ,v066
 .byte   W04
@  #05 @049   ----------------------------------------
 .byte   W06
 .byte   TIE ,Fs2 ,v090
 .byte   W60
 .byte   W02
 .byte   BEND , c_v+2
 .byte   W02
 .byte   BEND , c_v+4
 .byte   W02
 .byte   BEND , c_v+6
 .byte   W01
 .byte   BEND , c_v+10
 .byte   W01
 .byte   BEND , c_v+12
 .byte   W01
 .byte   BEND , c_v+14
 .byte   W02
 .byte   BEND , c_v+16
 .byte   W01
 .byte   BEND , c_v+18
 .byte   W01
 .byte   BEND , c_v+20
 .byte   W02
 .byte   BEND , c_v+21
 .byte   W02
 .byte   BEND , c_v+24
 .byte   W01
 .byte   BEND , c_v+25
 .byte   W02
 .byte   BEND , c_v+27
 .byte   W02
 .byte   BEND , c_v+29
 .byte   W02
 .byte   BEND , c_v+30
 .byte   W02
 .byte   BEND , c_v+32
 .byte   W01
 .byte   BEND , c_v+34
 .byte   W02
 .byte   BEND , c_v+35
 .byte   W01
@  #05 @050   ----------------------------------------
 .byte   W05
 .byte   BEND , c_v+34
 .byte   W02
 .byte   BEND , c_v+31
 .byte   W01
 .byte   BEND , c_v+30
 .byte   W02
 .byte   BEND , c_v+28
 .byte   W01
 .byte   BEND , c_v+26
 .byte   W01
 .byte   BEND , c_v+22
 .byte   W02
 .byte   BEND , c_v+20
 .byte   W01
 .byte   BEND , c_v+18
 .byte   W01
 .byte   BEND , c_v+16
 .byte   W01
 .byte   BEND , c_v+13
 .byte   W01
 .byte   BEND , c_v+8
 .byte   W01
 .byte   BEND , c_v+6
 .byte   W01
 .byte   BEND , c_v+4
 .byte   W01
 .byte   BEND , c_v+1
 .byte   W01
 .byte   BEND , c_v+0
 .byte   W12
 .byte   BEND , c_v-4
 .byte   W01
 .byte   BEND , c_v-6
 .byte   W01
 .byte   BEND , c_v-9
 .byte   W01
 .byte   BEND , c_v-11
 .byte   W01
 .byte   BEND , c_v-13
 .byte   W01
 .byte   BEND , c_v-15
 .byte   W01
 .byte   BEND , c_v-18
 .byte   W01
 .byte   BEND , c_v-20
 .byte   W01
 .byte   BEND , c_v-22
 .byte   W01
 .byte   BEND , c_v-24
 .byte   W02
 .byte   BEND , c_v-28
 .byte   W02
 .byte   BEND , c_v-31
 .byte   W01
 .byte   BEND , c_v-33
 .byte   W01
 .byte   BEND , c_v-34
 .byte   W01
 .byte   BEND , c_v-38
 .byte   W01
 .byte   BEND , c_v-40
 .byte   W01
 .byte   BEND , c_v-43
 .byte   W01
 .byte   BEND , c_v-44
 .byte   W01
 .byte   BEND , c_v-47
 .byte   W02
 .byte   BEND , c_v-49
 .byte   W01
 .byte   BEND , c_v-50
 .byte   W01
 .byte   BEND , c_v-53
 .byte   W01
 .byte   BEND , c_v-55
 .byte   W01
 .byte   BEND , c_v-56
 .byte   W02
 .byte   EOT
 .byte   BEND , c_v-59
 .byte   W01
 .byte   BEND , c_v-60
 .byte   W03
 .byte   BEND , c_v-62
 .byte   W15
 .byte   BEND , c_v-60
 .byte   W01
 .byte   BEND , c_v-57
 .byte   W01
 .byte   BEND , c_v-56
 .byte   W01
 .byte   BEND , c_v-50
 .byte   W01
 .byte   BEND , c_v-48
 .byte   W02
 .byte   BEND , c_v-42
 .byte   W01
 .byte   BEND , c_v-39
 .byte   W01
 .byte   BEND , c_v-36
 .byte   W01
 .byte   BEND , c_v-31
 .byte   W01
 .byte   BEND , c_v-27
 .byte   W01
 .byte   BEND , c_v-17
 .byte   W01
 .byte   BEND , c_v-11
 .byte   W01
 .byte   BEND , c_v+0
 .byte   W02
@  #05 @051   ----------------------------------------
 .byte   W96
@  #05 @052   ----------------------------------------
 .byte   W96
@  #05 @053   ----------------------------------------
 .byte   W96
@  #05 @054   ----------------------------------------
 .byte   W90
 .byte   W01
 .byte   N19 ,Cn3 ,v100
 .byte   W05
@  #05 @055   ----------------------------------------
 .byte   W04
 .byte   BEND , c_v+9
 .byte   W01
 .byte   BEND , c_v+14
 .byte   W01
 .byte   BEND , c_v+19
 .byte   W01
 .byte   BEND , c_v+23
 .byte   W01
 .byte   BEND , c_v+30
 .byte   W01
 .byte   BEND , c_v+34
 .byte   W01
 .byte   BEND , c_v+42
 .byte   W01
 .byte   BEND , c_v+46
 .byte   W01
 .byte   BEND , c_v+52
 .byte   W01
 .byte   BEND , c_v+53
 .byte   W01
 .byte   BEND , c_v+55
 .byte   W01
 .byte   BEND , c_v+58
 .byte   W01
 .byte   BEND , c_v+60
 .byte   W02
 .byte   BEND , c_v+62
 .byte   W03
 .byte   BEND , c_v+60
 .byte   W01
 .byte   BEND , c_v+53
 .byte   W01
 .byte   BEND , c_v+48
 .byte   W01
 .byte   BEND , c_v+41
 .byte   W01
 .byte   BEND , c_v+39
 .byte   W01
 .byte   BEND , c_v+37
 .byte   W01
 .byte   BEND , c_v+32
 .byte   W01
 .byte   BEND , c_v+29
 .byte   W02
 .byte   BEND , c_v+25
 .byte   W02
 .byte   BEND , c_v+23
 .byte   W01
 .byte   BEND , c_v+21
 .byte   W01
 .byte   BEND , c_v+19
 .byte   W02
 .byte   BEND , c_v+17
 .byte   W02
 .byte   BEND , c_v+15
 .byte   W02
 .byte   BEND , c_v+13
 .byte   W02
 .byte   BEND , c_v+11
 .byte   W01
 .byte   BEND , c_v+9
 .byte   W02
 .byte   BEND , c_v+7
 .byte   W01
 .byte   BEND , c_v+5
 .byte   W01
 .byte   BEND , c_v+3
 .byte   W01
 .byte   BEND , c_v+2
 .byte   W01
 .byte   BEND , c_v+0
 .byte   W44
 .byte   W03
@  #05 @056   ----------------------------------------
 .byte   W11
 .byte   N24 ,Cn3 ,v102
 .byte   W11
 .byte   BEND , c_v+5
 .byte   W01
 .byte   BEND , c_v+10
 .byte   W01
 .byte   BEND , c_v+19
 .byte   W01
 .byte   BEND , c_v+22
 .byte   W01
 .byte   BEND , c_v+28
 .byte   W01
 .byte   BEND , c_v+30
 .byte   W01
 .byte   BEND , c_v+36
 .byte   W01
 .byte   BEND , c_v+38
 .byte   W01
 .byte   BEND , c_v+43
 .byte   W01
 .byte   BEND , c_v+46
 .byte   W01
 .byte   BEND , c_v+48
 .byte   W01
 .byte   BEND , c_v+53
 .byte   W01
 .byte   BEND , c_v+56
 .byte   W01
 .byte   BEND , c_v+59
 .byte   W01
 .byte   BEND , c_v+61
 .byte   W04
 .byte   BEND , c_v+60
 .byte   W01
 .byte   BEND , c_v+57
 .byte   W01
 .byte   BEND , c_v+53
 .byte   W01
 .byte   BEND , c_v+49
 .byte   W01
 .byte   BEND , c_v+44
 .byte   W01
 .byte   BEND , c_v+40
 .byte   W01
 .byte   BEND , c_v+35
 .byte   W01
 .byte   BEND , c_v+33
 .byte   W01
 .byte   BEND , c_v+29
 .byte   W01
 .byte   BEND , c_v+26
 .byte   W01
 .byte   BEND , c_v+21
 .byte   W01
 .byte   BEND , c_v+19
 .byte   W01
 .byte   BEND , c_v+16
 .byte   W02
 .byte   BEND , c_v+10
 .byte   W01
 .byte   BEND , c_v+8
 .byte   W01
 .byte   BEND , c_v+6
 .byte   W02
 .byte   BEND , c_v+4
 .byte   W02
 .byte   BEND , c_v+2
 .byte   W01
 .byte   BEND , c_v+0
 .byte   W32
 .byte   W03
@  #05 @057   ----------------------------------------
 .byte   W36
 .byte   W02
 .byte   N24 ,Cn3 ,v100 ,gtp2
 .byte   W12
 .byte   BEND , c_v+2
 .byte   W01
 .byte   BEND , c_v+6
 .byte   W01
 .byte   BEND , c_v+15
 .byte   W01
 .byte   BEND , c_v+19
 .byte   W01
 .byte   BEND , c_v+29
 .byte   W01
 .byte   BEND , c_v+33
 .byte   W01
 .byte   BEND , c_v+40
 .byte   W01
 .byte   BEND , c_v+43
 .byte   W01
 .byte   BEND , c_v+47
 .byte   W01
 .byte   BEND , c_v+49
 .byte   W01
 .byte   BEND , c_v+54
 .byte   W01
 .byte   BEND , c_v+57
 .byte   W01
 .byte   BEND , c_v+59
 .byte   W01
 .byte   BEND , c_v+63
 .byte   W07
 .byte   BEND , c_v+59
 .byte   W01
 .byte   BEND , c_v+57
 .byte   W01
 .byte   BEND , c_v+51
 .byte   W01
 .byte   BEND , c_v+47
 .byte   W01
 .byte   BEND , c_v+40
 .byte   W01
 .byte   BEND , c_v+38
 .byte   W01
 .byte   BEND , c_v+31
 .byte   W01
 .byte   BEND , c_v+30
 .byte   W01
 .byte   BEND , c_v+28
 .byte   W01
 .byte   BEND , c_v+26
 .byte   W01
 .byte   BEND , c_v+21
 .byte   W01
 .byte   BEND , c_v+17
 .byte   W01
 .byte   BEND , c_v+13
 .byte   W02
 .byte   BEND , c_v+11
 .byte   W02
 .byte   BEND , c_v+7
 .byte   W02
 .byte   BEND , c_v+4
 .byte   W01
 .byte   BEND , c_v+2
 .byte   W01
 .byte   BEND , c_v+0
 .byte   W06
@  #05 @058   ----------------------------------------
 .byte   W72
 .byte   N24 ,Cn3 ,v102 ,gtp3
 .byte   W11
 .byte   BEND , c_v+1
 .byte   W01
 .byte   BEND , c_v+7
 .byte   W01
 .byte   BEND , c_v+11
 .byte   W01
 .byte   BEND , c_v+17
 .byte   W01
 .byte   BEND , c_v+19
 .byte   W01
 .byte   BEND , c_v+24
 .byte   W01
 .byte   BEND , c_v+26
 .byte   W01
 .byte   BEND , c_v+28
 .byte   W01
 .byte   BEND , c_v+31
 .byte   W01
 .byte   BEND , c_v+33
 .byte   W01
 .byte   BEND , c_v+37
 .byte   W01
 .byte   BEND , c_v+38
 .byte   W01
 .byte   BEND , c_v+40
 .byte   W01
@  #05 @059   ----------------------------------------
 .byte   BEND , c_v+45
 .byte   W01
 .byte   BEND , c_v+47
 .byte   W01
 .byte   BEND , c_v+50
 .byte   W04
 .byte   BEND , c_v+48
 .byte   W01
 .byte   BEND , c_v+46
 .byte   W01
 .byte   BEND , c_v+43
 .byte   W01
 .byte   BEND , c_v+42
 .byte   W01
 .byte   BEND , c_v+40
 .byte   W02
 .byte   BEND , c_v+36
 .byte   W01
 .byte   BEND , c_v+34
 .byte   W01
 .byte   BEND , c_v+32
 .byte   W02
 .byte   BEND , c_v+29
 .byte   W01
 .byte   BEND , c_v+26
 .byte   W02
 .byte   BEND , c_v+24
 .byte   W01
 .byte   BEND , c_v+22
 .byte   W01
 .byte   BEND , c_v+20
 .byte   W01
 .byte   BEND , c_v+19
 .byte   W01
 .byte   BEND , c_v+16
 .byte   W01
 .byte   BEND , c_v+15
 .byte   W02
 .byte   BEND , c_v+11
 .byte   W02
 .byte   BEND , c_v+8
 .byte   W01
 .byte   BEND , c_v+7
 .byte   W01
 .byte   BEND , c_v+5
 .byte   W02
 .byte   BEND , c_v+3
 .byte   W01
 .byte   BEND , c_v+2
 .byte   W01
 .byte   BEND , c_v+0
 .byte   W60
 .byte   W02
@  #05 @060   ----------------------------------------
 .byte   W19
 .byte   N30 ,Cn3 ,v098 ,gtp1
 .byte   W13
 .byte   BEND , c_v+2
 .byte   W01
 .byte   BEND , c_v+4
 .byte   W01
 .byte   BEND , c_v+7
 .byte   W01
 .byte   BEND , c_v+11
 .byte   W01
 .byte   BEND , c_v+16
 .byte   W01
 .byte   BEND , c_v+18
 .byte   W01
 .byte   BEND , c_v+21
 .byte   W01
 .byte   BEND , c_v+23
 .byte   W01
 .byte   BEND , c_v+29
 .byte   W01
 .byte   BEND , c_v+31
 .byte   W01
 .byte   BEND , c_v+35
 .byte   W01
 .byte   BEND , c_v+38
 .byte   W01
 .byte   BEND , c_v+39
 .byte   W01
 .byte   BEND , c_v+44
 .byte   W01
 .byte   BEND , c_v+46
 .byte   W02
 .byte   BEND , c_v+48
 .byte   W04
 .byte   BEND , c_v+46
 .byte   W02
 .byte   BEND , c_v+44
 .byte   W02
 .byte   BEND , c_v+43
 .byte   W02
 .byte   BEND , c_v+41
 .byte   W01
 .byte   BEND , c_v+39
 .byte   W01
 .byte   BEND , c_v+36
 .byte   W01
 .byte   BEND , c_v+33
 .byte   W01
 .byte   BEND , c_v+28
 .byte   W01
 .byte   BEND , c_v+25
 .byte   W01
 .byte   BEND , c_v+21
 .byte   W01
 .byte   BEND , c_v+20
 .byte   W01
 .byte   BEND , c_v+18
 .byte   W01
 .byte   BEND , c_v+15
 .byte   W02
 .byte   BEND , c_v+12
 .byte   W01
 .byte   BEND , c_v+10
 .byte   W02
 .byte   BEND , c_v+7
 .byte   W01
 .byte   BEND , c_v+5
 .byte   W01
 .byte   BEND , c_v+3
 .byte   W02
 .byte   BEND , c_v+0
 .byte   W20
@  #05 @061   ----------------------------------------
 .byte   W44
 .byte   W02
 .byte   N24 ,Cn3 ,v114 ,gtp2
 .byte   W12
 .byte   BEND , c_v+3
 .byte   W01
 .byte   BEND , c_v+4
 .byte   W01
 .byte   BEND , c_v+10
 .byte   W01
 .byte   BEND , c_v+13
 .byte   W01
 .byte   BEND , c_v+20
 .byte   W01
 .byte   BEND , c_v+22
 .byte   W01
 .byte   BEND , c_v+28
 .byte   W01
 .byte   BEND , c_v+30
 .byte   W01
 .byte   BEND , c_v+36
 .byte   W01
 .byte   BEND , c_v+38
 .byte   W01
 .byte   BEND , c_v+42
 .byte   W01
 .byte   BEND , c_v+44
 .byte   W01
 .byte   BEND , c_v+47
 .byte   W01
 .byte   BEND , c_v+49
 .byte   W01
 .byte   BEND , c_v+51
 .byte   W03
 .byte   BEND , c_v+49
 .byte   W01
 .byte   BEND , c_v+47
 .byte   W01
 .byte   BEND , c_v+43
 .byte   W01
 .byte   BEND , c_v+37
 .byte   W01
 .byte   BEND , c_v+34
 .byte   W01
 .byte   BEND , c_v+33
 .byte   W01
 .byte   BEND , c_v+30
 .byte   W01
 .byte   BEND , c_v+28
 .byte   W02
 .byte   BEND , c_v+24
 .byte   W02
 .byte   BEND , c_v+22
 .byte   W01
 .byte   BEND , c_v+20
 .byte   W01
 .byte   BEND , c_v+16
 .byte   W02
 .byte   BEND , c_v+13
 .byte   W01
 .byte   BEND , c_v+11
 .byte   W01
 .byte   BEND , c_v+8
 .byte   W01
 .byte   BEND , c_v+7
 .byte   W02
 .byte   BEND , c_v+5
 .byte   W01
@  #05 @062   ----------------------------------------
 .byte   W01
 .byte   BEND , c_v+3
 .byte   W01
 .byte   BEND , c_v+1
 .byte   W02
 .byte   BEND , c_v+0
 .byte   W68
 .byte   W02
 .byte   N28 ,Cn3 ,v101
 .byte   W12
 .byte   BEND , c_v+3
 .byte   W01
 .byte   BEND , c_v+4
 .byte   W01
 .byte   BEND , c_v+10
 .byte   W01
 .byte   BEND , c_v+14
 .byte   W01
 .byte   BEND , c_v+20
 .byte   W01
 .byte   BEND , c_v+24
 .byte   W01
 .byte   BEND , c_v+30
 .byte   W01
 .byte   BEND , c_v+33
 .byte   W01
 .byte   BEND , c_v+39
 .byte   W01
 .byte   BEND , c_v+41
 .byte   W01
@  #05 @063   ----------------------------------------
 .byte   BEND , c_v+46
 .byte   W01
 .byte   BEND , c_v+48
 .byte   W01
 .byte   BEND , c_v+52
 .byte   W01
 .byte   BEND , c_v+53
 .byte   W01
 .byte   BEND , c_v+56
 .byte   W05
 .byte   BEND , c_v+53
 .byte   W01
 .byte   BEND , c_v+50
 .byte   W01
 .byte   BEND , c_v+47
 .byte   W01
 .byte   BEND , c_v+41
 .byte   W01
 .byte   BEND , c_v+39
 .byte   W01
 .byte   BEND , c_v+35
 .byte   W01
 .byte   BEND , c_v+32
 .byte   W01
 .byte   BEND , c_v+26
 .byte   W01
 .byte   BEND , c_v+24
 .byte   W01
 .byte   BEND , c_v+21
 .byte   W02
 .byte   BEND , c_v+17
 .byte   W01
 .byte   BEND , c_v+15
 .byte   W01
 .byte   BEND , c_v+11
 .byte   W02
 .byte   BEND , c_v+10
 .byte   W01
 .byte   BEND , c_v+8
 .byte   W01
 .byte   BEND , c_v+6
 .byte   W01
 .byte   BEND , c_v+4
 .byte   W01
 .byte   BEND , c_v+2
 .byte   W02
 .byte   BEND , c_v+0
 .byte   W66
@  #05 @064   ----------------------------------------
 .byte   W36
 .byte   W02
 .byte   TIE ,Cn3 ,v098
 .byte   W07
 .byte   BEND , c_v+1
 .byte   W01
 .byte   BEND , c_v+5
 .byte   W01
 .byte   BEND , c_v+7
 .byte   W01
 .byte   BEND , c_v+13
 .byte   W01
 .byte   BEND , c_v+16
 .byte   W01
 .byte   BEND , c_v+21
 .byte   W01
 .byte   BEND , c_v+23
 .byte   W01
 .byte   BEND , c_v+29
 .byte   W01
 .byte   BEND , c_v+31
 .byte   W01
 .byte   BEND , c_v+36
 .byte   W01
 .byte   BEND , c_v+38
 .byte   W02
 .byte   BEND , c_v+40
 .byte   W05
 .byte   BEND , c_v+38
 .byte   W01
 .byte   BEND , c_v+35
 .byte   W01
 .byte   BEND , c_v+33
 .byte   W01
 .byte   BEND , c_v+31
 .byte   W01
 .byte   BEND , c_v+29
 .byte   W01
 .byte   BEND , c_v+27
 .byte   W01
 .byte   BEND , c_v+25
 .byte   W02
 .byte   BEND , c_v+20
 .byte   W02
 .byte   BEND , c_v+19
 .byte   W01
 .byte   BEND , c_v+17
 .byte   W02
 .byte   BEND , c_v+15
 .byte   W01
 .byte   BEND , c_v+12
 .byte   W02
 .byte   BEND , c_v+10
 .byte   W02
 .byte   BEND , c_v+7
 .byte   W02
 .byte   BEND , c_v+5
 .byte   W02
 .byte   BEND , c_v+3
 .byte   W01
 .byte   BEND , c_v+1
 .byte   W01
 .byte   BEND , c_v+0
 .byte   W10
@  #05 @065   ----------------------------------------
 .byte   W21
 .byte   BEND , c_v-1
 .byte   W02
 .byte   BEND , c_v-4
 .byte   W01
 .byte   BEND , c_v-5
 .byte   W01
 .byte   BEND , c_v-7
 .byte   W03
 .byte   BEND , c_v-9
 .byte   W02
 .byte   BEND , c_v-11
 .byte   W01
 .byte   BEND , c_v-12
 .byte   W02
 .byte   BEND , c_v-14
 .byte   W01
 .byte   BEND , c_v-16
 .byte   W02
 .byte   BEND , c_v-18
 .byte   W02
 .byte   BEND , c_v-20
 .byte   W01
 .byte   BEND , c_v-21
 .byte   W01
 .byte   BEND , c_v-23
 .byte   W02
 .byte   BEND , c_v-25
 .byte   W01
 .byte   BEND , c_v-28
 .byte   W02
 .byte   BEND , c_v-30
 .byte   W01
 .byte   EOT
 .byte   BEND , c_v-33
 .byte   W02
 .byte   BEND , c_v-34
 .byte   W02
 .byte   BEND , c_v-36
 .byte   W01
 .byte   BEND , c_v-38
 .byte   W01
 .byte   BEND , c_v-40
 .byte   W02
 .byte   BEND , c_v-42
 .byte   W02
 .byte   BEND , c_v-44
 .byte   W01
 .byte   BEND , c_v-47
 .byte   W03
 .byte   BEND , c_v-49
 .byte   W05
 .byte   BEND , c_v-50
 .byte   W17
 .byte   BEND , c_v-49
 .byte   W03
 .byte   BEND , c_v-47
 .byte   W02
 .byte   BEND , c_v-44
 .byte   W03
 .byte   BEND , c_v-42
 .byte   W04
 .byte   BEND , c_v-40
 .byte   W02
@  #05 @066   ----------------------------------------
 .byte   BEND , c_v-39
 .byte   W02
 .byte   BEND , c_v-37
 .byte   W02
 .byte   BEND , c_v-35
 .byte   W05
 .byte   BEND , c_v-33
 .byte   W02
 .byte   BEND , c_v-31
 .byte   W03
 .byte   BEND , c_v-29
 .byte   W02
 .byte   BEND , c_v-25
 .byte   W01
 .byte   BEND , c_v-24
 .byte   W01
 .byte   BEND , c_v-22
 .byte   W01
 .byte   BEND , c_v-20
 .byte   W01
 .byte   BEND , c_v-18
 .byte   W02
 .byte   BEND , c_v-16
 .byte   W01
 .byte   BEND , c_v-14
 .byte   W05
 .byte   BEND , c_v-12
 .byte   W08
 .byte   BEND , c_v-11
 .byte   W03
 .byte   BEND , c_v-9
 .byte   W01
 .byte   BEND , c_v-7
 .byte   W02
 .byte   BEND , c_v-5
 .byte   W01
 .byte   BEND , c_v-4
 .byte   W02
 .byte   BEND , c_v-2
 .byte   W03
 .byte   BEND , c_v+0
 .byte   W48
@  #05 @067   ----------------------------------------
 .byte   W66
 .byte   TIE ,As3 ,v078
 .byte   W08
 .byte   BEND , c_v+5
 .byte   W01
 .byte   BEND , c_v+12
 .byte   W01
 .byte   BEND , c_v+21
 .byte   W01
 .byte   BEND , c_v+26
 .byte   W01
 .byte   BEND , c_v+33
 .byte   W01
 .byte   BEND , c_v+34
 .byte   W03
 .byte   BEND , c_v+33
 .byte   W01
 .byte   BEND , c_v+31
 .byte   W01
 .byte   BEND , c_v+24
 .byte   W01
 .byte   BEND , c_v+19
 .byte   W01
 .byte   BEND , c_v+17
 .byte   W02
 .byte   BEND , c_v+15
 .byte   W01
 .byte   BEND , c_v+12
 .byte   W01
 .byte   BEND , c_v+8
 .byte   W01
 .byte   BEND , c_v+7
 .byte   W01
 .byte   BEND , c_v+4
 .byte   W02
 .byte   BEND , c_v+3
 .byte   W01
 .byte   BEND , c_v+1
 .byte   W01
@  #05 @068   ----------------------------------------
 .byte   W03
 .byte   BEND , c_v+3
 .byte   W01
 .byte   BEND , c_v+12
 .byte   W02
 .byte   BEND , c_v+20
 .byte   W01
 .byte   BEND , c_v+21
 .byte   W03
 .byte   BEND , c_v+15
 .byte   W01
 .byte   BEND , c_v+12
 .byte   W01
 .byte   BEND , c_v+7
 .byte   W01
 .byte   BEND , c_v+5
 .byte   W01
 .byte   BEND , c_v+3
 .byte   W02
 .byte   BEND , c_v+2
 .byte   W03
 .byte   BEND , c_v+3
 .byte   W01
 .byte   BEND , c_v+9
 .byte   W01
 .byte   BEND , c_v+14
 .byte   W01
 .byte   BEND , c_v+21
 .byte   W01
 .byte   BEND , c_v+24
 .byte   W01
 .byte   BEND , c_v+26
 .byte   W02
 .byte   BEND , c_v+24
 .byte   W01
 .byte   BEND , c_v+15
 .byte   W01
 .byte   BEND , c_v+9
 .byte   W01
 .byte   BEND , c_v+4
 .byte   W01
 .byte   BEND , c_v+2
 .byte   W01
 .byte   BEND , c_v+0
 .byte   W04
 .byte   BEND , c_v+4
 .byte   W01
 .byte   BEND , c_v+13
 .byte   W01
 .byte   BEND , c_v+17
 .byte   W01
 .byte   BEND , c_v+22
 .byte   W02
 .byte   BEND , c_v+20
 .byte   W01
 .byte   BEND , c_v+15
 .byte   W01
 .byte   BEND , c_v+4
 .byte   W01
 .byte   BEND , c_v+0
 .byte   W24
 .byte   W02
 .byte   BEND , c_v-5
 .byte   W01
 .byte   BEND , c_v-15
 .byte   W01
 .byte   BEND , c_v-27
 .byte   W01
 .byte   BEND , c_v-40
 .byte   W01
 .byte   BEND , c_v-43
 .byte   W02
 .byte   BEND , c_v-41
 .byte   W01
 .byte   EOT
 .byte   BEND , c_v-36
 .byte   W01
 .byte   BEND , c_v-32
 .byte   W01
 .byte   BEND , c_v-23
 .byte   W01
 .byte   BEND , c_v-20
 .byte   W01
 .byte   BEND , c_v-17
 .byte   W01
 .byte   BEND , c_v-14
 .byte   W01
 .byte   BEND , c_v-11
 .byte   W01
 .byte   BEND , c_v-9
 .byte   W01
 .byte   BEND , c_v-6
 .byte   W01
 .byte   BEND , c_v-4
 .byte   W01
 .byte   BEND , c_v-2
 .byte   W01
 .byte   BEND , c_v+0
 .byte   W09
@  #05 @069   ----------------------------------------
 .byte   W90
 .byte   W01
 .byte   N44 ,As3 ,v088 ,gtp1
 .byte   W05
@  #05 @070   ----------------------------------------
 .byte   W01
 .byte   BEND , c_v+1
 .byte   W01
 .byte   BEND , c_v+4
 .byte   W01
 .byte   BEND , c_v+12
 .byte   W02
 .byte   BEND , c_v+13
 .byte   W02
 .byte   BEND , c_v+12
 .byte   W01
 .byte   BEND , c_v+6
 .byte   W01
 .byte   BEND , c_v+2
 .byte   W01
 .byte   BEND , c_v+0
 .byte   W24
 .byte   W01
 .byte   BEND , c_v-4
 .byte   W01
 .byte   BEND , c_v-13
 .byte   W01
 .byte   BEND , c_v-18
 .byte   W01
 .byte   BEND , c_v-26
 .byte   W01
 .byte   BEND , c_v-29
 .byte   W01
 .byte   BEND , c_v-31
 .byte   W04
 .byte   BEND , c_v-29
 .byte   W01
 .byte   BEND , c_v-24
 .byte   W01
 .byte   BEND , c_v-21
 .byte   W01
 .byte   BEND , c_v-18
 .byte   W01
 .byte   BEND , c_v-15
 .byte   W01
 .byte   BEND , c_v-13
 .byte   W01
 .byte   BEND , c_v-11
 .byte   W01
 .byte   BEND , c_v-9
 .byte   W01
 .byte   BEND , c_v-7
 .byte   W02
 .byte   BEND , c_v-4
 .byte   W01
 .byte   BEND , c_v-1
 .byte   W01
 .byte   BEND , c_v+0
 .byte   W40
@  #05 @071   ----------------------------------------
 .byte   W96
@  #05 @072   ----------------------------------------
 .byte   W96
@  #05 @073   ----------------------------------------
 .byte   W96
@  #05 @074   ----------------------------------------
 .byte   W96
@  #05 @075   ----------------------------------------
 .byte   W48
 .byte   W03
 .byte   N05 ,Cn4
 .byte   W10
 .byte   N07 ,Cn5 ,v095
 .byte   W11
 .byte   TIE ,As4 ,v073
 .byte   W24
@  #05 @076   ----------------------------------------
 .byte   W96
@  #05 @077   ----------------------------------------
 .byte   W96
@  #05 @078   ----------------------------------------
 .byte   W78
 .byte   W01
 .byte   BEND , c_v-1
 .byte   W01
 .byte   BEND , c_v-2
 .byte   W01
 .byte   BEND , c_v-4
 .byte   W02
 .byte   BEND , c_v-7
 .byte   W03
 .byte   BEND , c_v-8
 .byte   W01
 .byte   BEND , c_v-11
 .byte   W01
 .byte   BEND , c_v-14
 .byte   W02
 .byte   BEND , c_v-15
 .byte   W01
 .byte   BEND , c_v-17
 .byte   W01
 .byte   BEND , c_v-20
 .byte   W02
 .byte   BEND , c_v-22
 .byte   W01
 .byte   BEND , c_v-25
 .byte   W01
@  #05 @079   ----------------------------------------
 .byte   BEND , c_v-30
 .byte   W01
 .byte   BEND , c_v-31
 .byte   W01
 .byte   BEND , c_v-33
 .byte   W01
 .byte   BEND , c_v-36
 .byte   W02
 .byte   BEND , c_v-39
 .byte   W01
 .byte   BEND , c_v-41
 .byte   W01
 .byte   EOT
 .byte   W01
 .byte   BEND , c_v-46
 .byte   W01
 .byte   BEND , c_v-48
 .byte   W01
 .byte   BEND , c_v-50
 .byte   W02
 .byte   BEND , c_v-52
 .byte   W02
 .byte   BEND , c_v-54
 .byte   W04
 .byte   BEND , c_v-56
 .byte   W02
 .byte   BEND , c_v-57
 .byte   W10
 .byte   BEND , c_v-56
 .byte   W01
 .byte   BEND , c_v-52
 .byte   W01
 .byte   BEND , c_v-48
 .byte   W01
 .byte   BEND , c_v-46
 .byte   W01
 .byte   BEND , c_v-40
 .byte   W01
 .byte   BEND , c_v-38
 .byte   W01
 .byte   BEND , c_v-36
 .byte   W01
 .byte   BEND , c_v-33
 .byte   W01
 .byte   BEND , c_v-28
 .byte   W01
 .byte   BEND , c_v-27
 .byte   W01
 .byte   BEND , c_v-23
 .byte   W02
 .byte   BEND , c_v-20
 .byte   W01
 .byte   BEND , c_v-18
 .byte   W01
 .byte   BEND , c_v-15
 .byte   W01
 .byte   BEND , c_v-11
 .byte   W02
 .byte   BEND , c_v-8
 .byte   W01
 .byte   BEND , c_v-6
 .byte   W01
 .byte   BEND , c_v-4
 .byte   W01
 .byte   BEND , c_v-1
 .byte   W01
 .byte   BEND , c_v+0
 .byte   W24
 .byte   W03
 .byte   N06 ,Cn4 ,v087
 .byte   W10
 .byte   N07 ,As4 ,v085
 .byte   W08
@  #05 @080   ----------------------------------------
 .byte   W02
 .byte   TIE ,An4 ,v086
 .byte   W92
 .byte   W02
@  #05 @081   ----------------------------------------
 .byte   W84
 .byte   W01
 .byte   EOT
 .byte   W07
 .byte   N06 ,Cn4
 .byte   W04
@  #05 @082   ----------------------------------------
 .byte   W06
 .byte   N08 ,An4 ,v078
 .byte   W10
 .byte   TIE ,Gs4 ,v087
 .byte   W80
@  #05 @083   ----------------------------------------
 .byte   W28
 .byte   BEND , c_v+1
 .byte   W01
 .byte   BEND , c_v+3
 .byte   W01
 .byte   BEND , c_v+5
 .byte   W02
 .byte   BEND , c_v+7
 .byte   W01
 .byte   BEND , c_v+10
 .byte   W02
 .byte   BEND , c_v+13
 .byte   W01
 .byte   BEND , c_v+15
 .byte   W04
 .byte   BEND , c_v+13
 .byte   W01
 .byte   BEND , c_v+11
 .byte   W01
 .byte   BEND , c_v+10
 .byte   W01
 .byte   BEND , c_v+8
 .byte   W01
 .byte   BEND , c_v+6
 .byte   W01
 .byte   BEND , c_v+4
 .byte   W02
 .byte   BEND , c_v+2
 .byte   W02
 .byte   BEND , c_v+0
 .byte   W44
 .byte   W03
@  #05 @084   ----------------------------------------
 .byte   W08
 .byte   EOT
 .byte   W04
 .byte   N13 ,Gs4 ,v092
 .byte   W13
 .byte   N40 ,Ds4 ,v079 ,gtp1
 .byte   W40
 .byte   W01
 .byte   TIE ,Gn4 ,v092
 .byte   W10
 .byte   BEND , c_v+3
 .byte   W01
 .byte   BEND , c_v+6
 .byte   W01
 .byte   BEND , c_v+16
 .byte   W01
 .byte   BEND , c_v+19
 .byte   W01
 .byte   BEND , c_v+20
 .byte   W02
 .byte   BEND , c_v+17
 .byte   W01
 .byte   BEND , c_v+16
 .byte   W01
 .byte   BEND , c_v+13
 .byte   W01
 .byte   BEND , c_v+7
 .byte   W01
 .byte   BEND , c_v+6
 .byte   W01
 .byte   BEND , c_v+3
 .byte   W01
 .byte   BEND , c_v+1
 .byte   W01
 .byte   BEND , c_v+0
 .byte   W07
@  #05 @085   ----------------------------------------
 .byte   W96
@  #05 @086   ----------------------------------------
 .byte   W96
@  #05 @087   ----------------------------------------
 .byte   W32
 .byte   W01
 .byte   BEND , c_v-1
 .byte   W02
 .byte   BEND , c_v-2
 .byte   W03
 .byte   BEND , c_v-4
 .byte   W02
 .byte   BEND , c_v-7
 .byte   W03
 .byte   BEND , c_v-8
 .byte   W02
 .byte   BEND , c_v-10
 .byte   W01
 .byte   BEND , c_v-12
 .byte   W01
 .byte   BEND , c_v-14
 .byte   W03
 .byte   BEND , c_v-15
 .byte   W01
 .byte   BEND , c_v-17
 .byte   W02
 .byte   BEND , c_v-19
 .byte   W03
 .byte   BEND , c_v-21
 .byte   W02
 .byte   BEND , c_v-23
 .byte   W01
 .byte   BEND , c_v-24
 .byte   W01
 .byte   BEND , c_v-26
 .byte   W02
 .byte   BEND , c_v-28
 .byte   W02
 .byte   BEND , c_v-30
 .byte   W01
 .byte   BEND , c_v-32
 .byte   W03
 .byte   BEND , c_v-34
 .byte   W02
 .byte   BEND , c_v-36
 .byte   W02
 .byte   BEND , c_v-37
 .byte   W02
 .byte   BEND , c_v-39
 .byte   W02
 .byte   BEND , c_v-41
 .byte   W01
 .byte   BEND , c_v-43
 .byte   W01
 .byte   BEND , c_v-44
 .byte   W02
 .byte   BEND , c_v-47
 .byte   W03
 .byte   BEND , c_v-49
 .byte   W02
 .byte   BEND , c_v-50
 .byte   W02
 .byte   BEND , c_v-52
 .byte   W02
 .byte   BEND , c_v-54
 .byte   W03
 .byte   EOT
 .byte   W01
 .byte   BEND , c_v-56
 .byte   W03
@  #05 @088   ----------------------------------------
 .byte   BEND , c_v-57
 .byte   W02
 .byte   BEND , c_v-59
 .byte   W02
 .byte   BEND , c_v-62
 .byte   W02
 .byte   BEND , c_v-63
 .byte   W18
 .byte   BEND , c_v-64
 .byte   W04
 .byte   BEND , c_v-63
 .byte   W01
 .byte   BEND , c_v-60
 .byte   W01
 .byte   BEND , c_v-57
 .byte   W01
 .byte   BEND , c_v-53
 .byte   W01
 .byte   BEND , c_v-50
 .byte   W01
 .byte   BEND , c_v-43
 .byte   W01
 .byte   BEND , c_v-40
 .byte   W01
 .byte   BEND , c_v-35
 .byte   W01
 .byte   BEND , c_v-33
 .byte   W01
 .byte   BEND , c_v-30
 .byte   W01
 .byte   BEND , c_v-24
 .byte   W01
 .byte   BEND , c_v-22
 .byte   W01
 .byte   BEND , c_v-18
 .byte   W01
 .byte   BEND , c_v-16
 .byte   W01
 .byte   BEND , c_v-12
 .byte   W01
 .byte   BEND , c_v-9
 .byte   W01
 .byte   BEND , c_v-6
 .byte   W02
 .byte   BEND , c_v-4
 .byte   W01
 .byte   BEND , c_v-1
 .byte   W01
 .byte   BEND , c_v+0
 .byte   W48
@  #05 @089   ----------------------------------------
 .byte   W32
 .byte   W03
 .byte   N72 ,As3 ,v048 ,gtp3
 .byte   W36
 .byte   W01
 .byte   BEND , c_v-1
 .byte   W02
 .byte   BEND , c_v-4
 .byte   W02
 .byte   BEND , c_v-5
 .byte   W01
 .byte   BEND , c_v-7
 .byte   W02
 .byte   BEND , c_v-9
 .byte   W02
 .byte   BEND , c_v-11
 .byte   W01
 .byte   BEND , c_v-12
 .byte   W01
 .byte   BEND , c_v-15
 .byte   W02
 .byte   BEND , c_v-17
 .byte   W01
 .byte   BEND , c_v-18
 .byte   W02
 .byte   BEND , c_v-21
 .byte   W02
 .byte   BEND , c_v-24
 .byte   W01
 .byte   BEND , c_v-26
 .byte   W01
 .byte   BEND , c_v-30
 .byte   W02
 .byte   BEND , c_v-33
 .byte   W01
 .byte   BEND , c_v-35
 .byte   W01
@  #05 @090   ----------------------------------------
 .byte   BEND , c_v-37
 .byte   W01
 .byte   BEND , c_v-39
 .byte   W01
 .byte   BEND , c_v-41
 .byte   W02
 .byte   BEND , c_v-46
 .byte   W03
 .byte   BEND , c_v-48
 .byte   W02
 .byte   BEND , c_v-50
 .byte   W01
 .byte   BEND , c_v-52
 .byte   W01
 .byte   BEND , c_v-54
 .byte   W02
 .byte   BEND , c_v-56
 .byte   W02
 .byte   BEND , c_v-58
 .byte   W01
 .byte   BEND , c_v-60
 .byte   W02
 .byte   BEND , c_v-62
 .byte   W02
 .byte   BEND , c_v-64
 .byte   W06
 .byte   BEND , c_v-63
 .byte   W02
 .byte   BEND , c_v-57
 .byte   W01
 .byte   BEND , c_v-54
 .byte   W01
 .byte   BEND , c_v-50
 .byte   W01
 .byte   BEND , c_v-46
 .byte   W01
 .byte   BEND , c_v-43
 .byte   W01
 .byte   BEND , c_v-40
 .byte   W01
 .byte   BEND , c_v-33
 .byte   W01
 .byte   BEND , c_v-30
 .byte   W01
 .byte   BEND , c_v-20
 .byte   W01
 .byte   BEND , c_v-15
 .byte   W01
 .byte   BEND , c_v-6
 .byte   W01
 .byte   BEND , c_v-2
 .byte   W01
 .byte   BEND , c_v+0
 .byte   W03
 .byte   N80 ,Ds4 ,v078 ,gtp3
 .byte   W42
 .byte   W01
 .byte   BEND , c_v-2
 .byte   W02
 .byte   BEND , c_v-4
 .byte   W03
 .byte   BEND , c_v-6
 .byte   W02
 .byte   BEND , c_v-8
 .byte   W02
 .byte   BEND , c_v-9
 .byte   W01
@  #05 @091   ----------------------------------------
 .byte   W01
 .byte   BEND , c_v-11
 .byte   W03
 .byte   BEND , c_v-13
 .byte   W02
 .byte   BEND , c_v-15
 .byte   W02
 .byte   BEND , c_v-17
 .byte   W02
 .byte   BEND , c_v-19
 .byte   W02
 .byte   BEND , c_v-21
 .byte   W01
 .byte   BEND , c_v-23
 .byte   W01
 .byte   BEND , c_v-25
 .byte   W02
 .byte   BEND , c_v-27
 .byte   W01
 .byte   BEND , c_v-28
 .byte   W01
 .byte   BEND , c_v-31
 .byte   W01
 .byte   BEND , c_v-33
 .byte   W02
 .byte   BEND , c_v-35
 .byte   W01
 .byte   BEND , c_v-37
 .byte   W02
 .byte   BEND , c_v-39
 .byte   W02
 .byte   BEND , c_v-41
 .byte   W01
 .byte   BEND , c_v-44
 .byte   W01
 .byte   BEND , c_v-46
 .byte   W03
 .byte   BEND , c_v-48
 .byte   W03
 .byte   BEND , c_v-50
 .byte   W03
 .byte   BEND , c_v-52
 .byte   W02
 .byte   BEND , c_v-53
 .byte   W05
 .byte   BEND , c_v-55
 .byte   W04
 .byte   BEND , c_v-53
 .byte   W01
 .byte   BEND , c_v-52
 .byte   W01
 .byte   BEND , c_v-49
 .byte   W02
 .byte   BEND , c_v-47
 .byte   W01
 .byte   BEND , c_v-44
 .byte   W01
 .byte   BEND , c_v-41
 .byte   W01
 .byte   BEND , c_v-39
 .byte   W01
 .byte   BEND , c_v-36
 .byte   W02
 .byte   BEND , c_v-34
 .byte   W02
 .byte   BEND , c_v-32
 .byte   W01
 .byte   BEND , c_v-30
 .byte   W01
 .byte   BEND , c_v-25
 .byte   W01
 .byte   BEND , c_v-23
 .byte   W01
 .byte   BEND , c_v-20
 .byte   W01
 .byte   BEND , c_v-18
 .byte   W01
 .byte   BEND , c_v-15
 .byte   W01
 .byte   BEND , c_v-13
 .byte   W01
 .byte   BEND , c_v-8
 .byte   W01
 .byte   BEND , c_v-5
 .byte   W01
 .byte   BEND , c_v+0
 .byte   W08
 .byte   TIE ,Cn4 ,v081
 .byte   W18
@  #05 @092   ----------------------------------------
 .byte   W72
 .byte   W03
 .byte   BEND , c_v+2
 .byte   W01
 .byte   BEND , c_v+6
 .byte   W01
 .byte   BEND , c_v+10
 .byte   W01
 .byte   BEND , c_v+13
 .byte   W02
 .byte   BEND , c_v+15
 .byte   W01
 .byte   BEND , c_v+17
 .byte   W01
 .byte   BEND , c_v+21
 .byte   W02
 .byte   BEND , c_v+22
 .byte   W03
 .byte   BEND , c_v+16
 .byte   W01
 .byte   BEND , c_v+13
 .byte   W01
 .byte   BEND , c_v+8
 .byte   W01
 .byte   BEND , c_v+6
 .byte   W01
 .byte   BEND , c_v+3
 .byte   W01
 .byte   BEND , c_v+0
 .byte   W04
@  #05 @093   ----------------------------------------
 .byte   W90
 .byte   BEND , c_v-12
 .byte   W01
 .byte   BEND , c_v-18
 .byte   W01
 .byte   BEND , c_v-29
 .byte   W01
 .byte   BEND , c_v-32
 .byte   W01
 .byte   BEND , c_v-36
 .byte   W02
@  #05 @094   ----------------------------------------
 .byte   EOT
 .byte   W14
 .byte   BEND , c_v-34
 .byte   W02
 .byte   BEND , c_v-28
 .byte   W01
 .byte   BEND , c_v-26
 .byte   W01
 .byte   BEND , c_v-24
 .byte   W01
 .byte   BEND , c_v-21
 .byte   W01
 .byte   BEND , c_v-19
 .byte   W01
 .byte   BEND , c_v-15
 .byte   W02
 .byte   BEND , c_v-12
 .byte   W01
 .byte   BEND , c_v-10
 .byte   W02
 .byte   BEND , c_v-8
 .byte   W03
 .byte   BEND , c_v-6
 .byte   W01
 .byte   BEND , c_v-4
 .byte   W01
 .byte   BEND , c_v-2
 .byte   W01
 .byte   BEND , c_v+0
 .byte   W44
 .byte   W02
 .byte   TIE ,Cn4 ,v064
 .byte   W12
 .byte   BEND , c_v+1
 .byte   W01
 .byte   BEND , c_v+4
 .byte   W01
 .byte   BEND , c_v+8
 .byte   W01
 .byte   BEND , c_v+10
 .byte   W03
@  #05 @095   ----------------------------------------
 .byte   BEND , c_v+7
 .byte   W01
 .byte   BEND , c_v+5
 .byte   W01
 .byte   BEND , c_v+0
 .byte   W92
 .byte   W02
@  #05 @096   ----------------------------------------
 .byte   W02
 .byte   BEND , c_v-4
 .byte   W01
 .byte   BEND , c_v-8
 .byte   W01
 .byte   BEND , c_v-18
 .byte   W01
 .byte   BEND , c_v-24
 .byte   W01
 .byte   BEND , c_v-34
 .byte   W01
 .byte   BEND , c_v-37
 .byte   W01
 .byte   BEND , c_v-39
 .byte   W01
 .byte   BEND , c_v-41
 .byte   W05
 .byte   EOT
 .byte   W03
 .byte   BEND , c_v-36
 .byte   W01
 .byte   BEND , c_v-33
 .byte   W01
 .byte   BEND , c_v-29
 .byte   W01
 .byte   BEND , c_v-19
 .byte   W01
 .byte   BEND , c_v-14
 .byte   W01
 .byte   BEND , c_v-5
 .byte   W01
 .byte   BEND , c_v-3
 .byte   W01
 .byte   BEND , c_v+0
 .byte   W72
@  #05 @097   ----------------------------------------
 .byte   W96
@  #05 @098   ----------------------------------------
 .byte   W96
@  #05 @099   ----------------------------------------
 .byte   W96
@  #05 @100   ----------------------------------------
 .byte   W96
@  #05 @101   ----------------------------------------
 .byte   W96
@  #05 @102   ----------------------------------------
 .byte   W96
@  #05 @103   ----------------------------------------
 .byte   W96
@  #05 @104   ----------------------------------------
 .byte   W96
@  #05 @105   ----------------------------------------
 .byte   W96
@  #05 @106   ----------------------------------------
 .byte   W96
@  #05 @107   ----------------------------------------
 .byte   W96
@  #05 @108   ----------------------------------------
 .byte   GOTO
  .word Label_0100240A
@  #05 @109   ----------------------------------------
 .byte   W96
@  #05 @110   ----------------------------------------
 .byte   PATT
  .word Label_548415
@  #05 @111   ----------------------------------------
 .byte   W96
@  #05 @112   ----------------------------------------
 .byte   W13
 .byte   FINE

@**************** Track 6 (Midi-Chn.5) ****************@

song04_006:
@  #06 @000   ----------------------------------------
 .byte   KEYSH , song04_key+0
Label_01003086:
 .byte   VOICE , 75
 .byte   VOL , 43*song04_mvl/mxv
 .byte   W96
@  #06 @001   ----------------------------------------
 .byte   W96
@  #06 @002   ----------------------------------------
 .byte   W96
@  #06 @003   ----------------------------------------
 .byte   W96
@  #06 @004   ----------------------------------------
 .byte   W96
@  #06 @005   ----------------------------------------
 .byte   W96
@  #06 @006   ----------------------------------------
 .byte   W40
 .byte   TIE ,Fs3 ,v102
 .byte   W56
@  #06 @007   ----------------------------------------
 .byte   W01
 .byte   BEND , c_v+2
 .byte   W04
 .byte   BEND , c_v+3
 .byte   W07
 .byte   BEND , c_v+5
 .byte   W07
 .byte   BEND , c_v+7
 .byte   W03
 .byte   BEND , c_v+8
 .byte   W03
 .byte   BEND , c_v+10
 .byte   W03
 .byte   BEND , c_v+12
 .byte   W04
 .byte   BEND , c_v+13
 .byte   W04
 .byte   BEND , c_v+15
 .byte   W08
 .byte   BEND , c_v+17
 .byte   W05
 .byte   BEND , c_v+19
 .byte   W07
 .byte   BEND , c_v+20
 .byte   W09
 .byte   BEND , c_v+22
 .byte   W09
 .byte   BEND , c_v+24
 .byte   W08
 .byte   BEND , c_v+25
 .byte   W04
 .byte   BEND , c_v+27
 .byte   W03
 .byte   BEND , c_v+29
 .byte   W07
@  #06 @008   ----------------------------------------
 .byte   W16
 .byte   BEND , c_v+30
 .byte   W20
 .byte   BEND , c_v+29
 .byte   W04
 .byte   BEND , c_v+27
 .byte   W02
 .byte   BEND , c_v+25
 .byte   W03
 .byte   BEND , c_v+23
 .byte   W03
 .byte   BEND , c_v+21
 .byte   W03
 .byte   BEND , c_v+20
 .byte   W04
 .byte   BEND , c_v+18
 .byte   W03
 .byte   BEND , c_v+16
 .byte   W03
 .byte   BEND , c_v+15
 .byte   W03
 .byte   BEND , c_v+12
 .byte   W02
 .byte   BEND , c_v+10
 .byte   W03
 .byte   BEND , c_v+8
 .byte   W01
 .byte   BEND , c_v+7
 .byte   W02
 .byte   BEND , c_v+4
 .byte   W04
 .byte   BEND , c_v+3
 .byte   W02
 .byte   BEND , c_v+1
 .byte   W01
 .byte   BEND , c_v+0
 .byte   W17
@  #06 @009   ----------------------------------------
 .byte   W09
 .byte   BEND , c_v-1
 .byte   W02
 .byte   BEND , c_v-3
 .byte   W02
 .byte   BEND , c_v-5
 .byte   W02
 .byte   BEND , c_v-7
 .byte   W02
 .byte   BEND , c_v-8
 .byte   W03
 .byte   BEND , c_v-10
 .byte   W01
 .byte   BEND , c_v-12
 .byte   W02
 .byte   BEND , c_v-14
 .byte   W03
 .byte   BEND , c_v-15
 .byte   W02
 .byte   BEND , c_v-17
 .byte   W02
 .byte   BEND , c_v-20
 .byte   W02
 .byte   BEND , c_v-21
 .byte   W02
 .byte   BEND , c_v-23
 .byte   W01
 .byte   BEND , c_v-25
 .byte   W01
 .byte   BEND , c_v-27
 .byte   W02
 .byte   BEND , c_v-29
 .byte   W02
 .byte   BEND , c_v-31
 .byte   W02
 .byte   BEND , c_v-33
 .byte   W01
 .byte   BEND , c_v-34
 .byte   W01
 .byte   BEND , c_v-36
 .byte   W02
 .byte   BEND , c_v-38
 .byte   W01
 .byte   BEND , c_v-40
 .byte   W01
 .byte   BEND , c_v-41
 .byte   W01
 .byte   BEND , c_v-43
 .byte   W01
 .byte   BEND , c_v-46
 .byte   W02
 .byte   EOT
 .byte   BEND , c_v-48
 .byte   W01
 .byte   BEND , c_v-50
 .byte   W02
 .byte   BEND , c_v-52
 .byte   W01
 .byte   BEND , c_v-53
 .byte   W02
 .byte   BEND , c_v-55
 .byte   W02
 .byte   BEND , c_v-57
 .byte   W06
 .byte   BEND , c_v-59
 .byte   W16
 .byte   BEND , c_v-57
 .byte   W02
 .byte   BEND , c_v-55
 .byte   W02
 .byte   BEND , c_v-53
 .byte   W01
 .byte   BEND , c_v-51
 .byte   W01
 .byte   BEND , c_v-49
 .byte   W02
 .byte   BEND , c_v-47
 .byte   W02
 .byte   BEND , c_v-43
 .byte   W01
 .byte   BEND , c_v-41
 .byte   W01
 .byte   BEND , c_v-37
 .byte   W01
 .byte   BEND , c_v-35
 .byte   W01
@  #06 @010   ----------------------------------------
 .byte   BEND , c_v-30
 .byte   W01
 .byte   BEND , c_v-28
 .byte   W01
 .byte   BEND , c_v-25
 .byte   W01
 .byte   BEND , c_v-24
 .byte   W01
 .byte   BEND , c_v-20
 .byte   W01
 .byte   BEND , c_v-18
 .byte   W01
 .byte   BEND , c_v-15
 .byte   W01
 .byte   BEND , c_v-14
 .byte   W01
 .byte   BEND , c_v-12
 .byte   W02
 .byte   BEND , c_v-10
 .byte   W02
 .byte   BEND , c_v-8
 .byte   W02
 .byte   BEND , c_v-2
 .byte   W01
 .byte   BEND , c_v-1
 .byte   W01
 .byte   BEND , c_v+0
 .byte   W80
@  #06 @011   ----------------------------------------
 .byte   W96
@  #06 @012   ----------------------------------------
 .byte   W96
@  #06 @013   ----------------------------------------
 .byte   W96
@  #06 @014   ----------------------------------------
 .byte   W92
 .byte   W02
 .byte   TIE ,Ds4 ,v073
 .byte   W02
@  #06 @015   ----------------------------------------
 .byte   W10
 .byte   BEND , c_v+5
 .byte   W01
 .byte   BEND , c_v+9
 .byte   W01
 .byte   BEND , c_v+18
 .byte   W01
 .byte   BEND , c_v+21
 .byte   W01
 .byte   BEND , c_v+24
 .byte   W02
 .byte   BEND , c_v+21
 .byte   W01
 .byte   BEND , c_v+18
 .byte   W01
 .byte   BEND , c_v+14
 .byte   W01
 .byte   BEND , c_v+12
 .byte   W01
 .byte   BEND , c_v+8
 .byte   W01
 .byte   BEND , c_v+4
 .byte   W01
 .byte   BEND , c_v+2
 .byte   W02
 .byte   BEND , c_v+1
 .byte   W02
 .byte   BEND , c_v+0
 .byte   W36
 .byte   W02
 .byte   BEND , c_v+2
 .byte   W01
 .byte   BEND , c_v+8
 .byte   W01
 .byte   BEND , c_v+11
 .byte   W02
 .byte   BEND , c_v+13
 .byte   W02
 .byte   BEND , c_v+7
 .byte   W01
 .byte   BEND , c_v+4
 .byte   W01
 .byte   BEND , c_v+1
 .byte   W02
 .byte   BEND , c_v+0
 .byte   W09
 .byte   BEND , c_v+7
 .byte   W01
 .byte   BEND , c_v+12
 .byte   W01
 .byte   BEND , c_v+15
 .byte   W01
 .byte   BEND , c_v+20
 .byte   W04
 .byte   BEND , c_v+13
 .byte   W01
 .byte   BEND , c_v+10
 .byte   W01
 .byte   BEND , c_v+6
 .byte   W01
 .byte   BEND , c_v+4
 .byte   W01
 .byte   BEND , c_v+2
 .byte   W01
 .byte   BEND , c_v+0
 .byte   W01
@  #06 @016   ----------------------------------------
 .byte   W10
 .byte   BEND , c_v+11
 .byte   W01
 .byte   BEND , c_v+18
 .byte   W01
 .byte   BEND , c_v+20
 .byte   W01
 .byte   BEND , c_v+21
 .byte   W03
 .byte   BEND , c_v+16
 .byte   W01
 .byte   BEND , c_v+13
 .byte   W01
 .byte   BEND , c_v+7
 .byte   W01
 .byte   BEND , c_v+5
 .byte   W01
 .byte   BEND , c_v+3
 .byte   W01
 .byte   BEND , c_v+2
 .byte   W01
 .byte   BEND , c_v+0
 .byte   W08
 .byte   BEND , c_v+1
 .byte   W01
 .byte   BEND , c_v+3
 .byte   W01
 .byte   BEND , c_v+11
 .byte   W01
 .byte   BEND , c_v+15
 .byte   W01
 .byte   BEND , c_v+22
 .byte   W04
 .byte   BEND , c_v+17
 .byte   W01
 .byte   BEND , c_v+13
 .byte   W01
 .byte   BEND , c_v+5
 .byte   W01
 .byte   BEND , c_v+2
 .byte   W01
 .byte   BEND , c_v+0
 .byte   W10
 .byte   BEND , c_v+7
 .byte   W01
 .byte   BEND , c_v+17
 .byte   W01
 .byte   BEND , c_v+20
 .byte   W02
 .byte   BEND , c_v+22
 .byte   W01
 .byte   BEND , c_v+20
 .byte   W01
 .byte   BEND , c_v+12
 .byte   W01
 .byte   BEND , c_v+6
 .byte   W01
 .byte   BEND , c_v+0
 .byte   W36
@  #06 @017   ----------------------------------------
 .byte   W15
 .byte   BEND , c_v+3
 .byte   W01
 .byte   BEND , c_v+7
 .byte   W01
 .byte   BEND , c_v+20
 .byte   W01
 .byte   BEND , c_v+24
 .byte   W01
 .byte   BEND , c_v+26
 .byte   W03
 .byte   BEND , c_v+21
 .byte   W01
 .byte   BEND , c_v+17
 .byte   W01
 .byte   BEND , c_v+5
 .byte   W01
 .byte   BEND , c_v+1
 .byte   W01
 .byte   BEND , c_v+0
 .byte   W12
 .byte   BEND , c_v+6
 .byte   W01
 .byte   BEND , c_v+12
 .byte   W01
 .byte   BEND , c_v+13
 .byte   W01
 .byte   BEND , c_v+15
 .byte   W03
 .byte   BEND , c_v+10
 .byte   W01
 .byte   BEND , c_v+5
 .byte   W01
 .byte   BEND , c_v+0
 .byte   W08
 .byte   BEND , c_v+2
 .byte   W01
 .byte   BEND , c_v+5
 .byte   W01
 .byte   BEND , c_v+11
 .byte   W01
 .byte   BEND , c_v+19
 .byte   W01
 .byte   BEND , c_v+20
 .byte   W03
 .byte   BEND , c_v+17
 .byte   W01
 .byte   BEND , c_v+8
 .byte   W01
 .byte   BEND , c_v+5
 .byte   W01
 .byte   BEND , c_v+3
 .byte   W02
 .byte   BEND , c_v+0
 .byte   W08
 .byte   BEND , c_v+6
 .byte   W01
 .byte   BEND , c_v+10
 .byte   W01
 .byte   BEND , c_v+15
 .byte   W01
 .byte   BEND , c_v+19
 .byte   W01
 .byte   BEND , c_v+21
 .byte   W01
 .byte   BEND , c_v+22
 .byte   W03
 .byte   BEND , c_v+16
 .byte   W01
 .byte   BEND , c_v+11
 .byte   W01
 .byte   BEND , c_v+2
 .byte   W03
 .byte   BEND , c_v+1
 .byte   W01
 .byte   BEND , c_v+0
 .byte   W08
@  #06 @018   ----------------------------------------
 .byte   W10
 .byte   BEND , c_v+10
 .byte   W01
 .byte   BEND , c_v+15
 .byte   W01
 .byte   BEND , c_v+19
 .byte   W01
 .byte   BEND , c_v+21
 .byte   W03
 .byte   BEND , c_v+17
 .byte   W01
 .byte   BEND , c_v+14
 .byte   W01
 .byte   BEND , c_v+4
 .byte   W01
 .byte   BEND , c_v+2
 .byte   W01
 .byte   BEND , c_v+0
 .byte   W08
 .byte   BEND , c_v+1
 .byte   W01
 .byte   BEND , c_v+4
 .byte   W01
 .byte   BEND , c_v+13
 .byte   W01
 .byte   BEND , c_v+17
 .byte   W01
 .byte   BEND , c_v+22
 .byte   W01
 .byte   BEND , c_v+24
 .byte   W02
 .byte   BEND , c_v+22
 .byte   W01
 .byte   BEND , c_v+16
 .byte   W01
 .byte   BEND , c_v+13
 .byte   W01
 .byte   BEND , c_v+7
 .byte   W01
 .byte   BEND , c_v+6
 .byte   W01
 .byte   BEND , c_v+2
 .byte   W01
 .byte   BEND , c_v+0
 .byte   W14
 .byte   BEND , c_v+3
 .byte   W01
 .byte   BEND , c_v+12
 .byte   W01
 .byte   BEND , c_v+16
 .byte   W01
 .byte   BEND , c_v+19
 .byte   W01
 .byte   BEND , c_v+20
 .byte   W01
 .byte   BEND , c_v+18
 .byte   W01
 .byte   BEND , c_v+15
 .byte   W01
 .byte   BEND , c_v+6
 .byte   W01
 .byte   BEND , c_v+2
 .byte   W01
 .byte   BEND , c_v+0
 .byte   W08
 .byte   BEND , c_v+4
 .byte   W01
 .byte   BEND , c_v+8
 .byte   W01
 .byte   BEND , c_v+15
 .byte   W01
 .byte   BEND , c_v+17
 .byte   W04
 .byte   BEND , c_v+13
 .byte   W01
 .byte   BEND , c_v+6
 .byte   W01
 .byte   BEND , c_v+2
 .byte   W01
 .byte   BEND , c_v+0
 .byte   W14
@  #06 @019   ----------------------------------------
 .byte   W04
 .byte   BEND , c_v+2
 .byte   W01
 .byte   BEND , c_v+5
 .byte   W01
 .byte   BEND , c_v+12
 .byte   W01
 .byte   BEND , c_v+15
 .byte   W01
 .byte   BEND , c_v+17
 .byte   W01
 .byte   BEND , c_v+19
 .byte   W02
 .byte   BEND , c_v+15
 .byte   W01
 .byte   BEND , c_v+12
 .byte   W01
 .byte   BEND , c_v+7
 .byte   W01
 .byte   BEND , c_v+0
 .byte   W08
 .byte   BEND , c_v+4
 .byte   W01
 .byte   BEND , c_v+8
 .byte   W01
 .byte   BEND , c_v+15
 .byte   W01
 .byte   BEND , c_v+17
 .byte   W01
 .byte   BEND , c_v+20
 .byte   W03
 .byte   BEND , c_v+16
 .byte   W01
 .byte   BEND , c_v+8
 .byte   W01
 .byte   BEND , c_v+4
 .byte   W01
 .byte   BEND , c_v+0
 .byte   W44
 .byte   W01
 .byte   BEND , c_v+2
 .byte   W01
 .byte   BEND , c_v+12
 .byte   W01
 .byte   BEND , c_v+16
 .byte   W01
 .byte   BEND , c_v+22
 .byte   W03
 .byte   BEND , c_v+19
 .byte   W01
 .byte   BEND , c_v+11
 .byte   W01
 .byte   BEND , c_v+5
 .byte   W01
 .byte   BEND , c_v+0
 .byte   W07
 .byte   BEND , c_v+2
 .byte   W01
 .byte   BEND , c_v+4
 .byte   W01
 .byte   BEND , c_v+13
 .byte   W01
@  #06 @020   ----------------------------------------
 .byte   BEND , c_v+16
 .byte   W01
 .byte   BEND , c_v+17
 .byte   W03
 .byte   BEND , c_v+16
 .byte   W01
 .byte   BEND , c_v+13
 .byte   W01
 .byte   BEND , c_v+7
 .byte   W01
 .byte   BEND , c_v+4
 .byte   W01
 .byte   BEND , c_v+0
 .byte   W36
 .byte   W03
 .byte   BEND , c_v-5
 .byte   W01
 .byte   BEND , c_v-19
 .byte   W01
 .byte   BEND , c_v-24
 .byte   W01
 .byte   BEND , c_v-32
 .byte   W01
 .byte   BEND , c_v-35
 .byte   W01
 .byte   BEND , c_v-37
 .byte   W01
 .byte   BEND , c_v-39
 .byte   W01
 .byte   EOT
 .byte   W02
 .byte   BEND , c_v-41
 .byte   W01
 .byte   BEND , c_v-43
 .byte   W05
 .byte   BEND , c_v-41
 .byte   W03
 .byte   BEND , c_v-39
 .byte   W05
 .byte   BEND , c_v-37
 .byte   W06
 .byte   BEND , c_v-36
 .byte   W01
 .byte   BEND , c_v-34
 .byte   W01
 .byte   BEND , c_v-32
 .byte   W01
 .byte   BEND , c_v-30
 .byte   W02
 .byte   BEND , c_v-28
 .byte   W01
 .byte   BEND , c_v-26
 .byte   W01
 .byte   BEND , c_v-24
 .byte   W02
 .byte   BEND , c_v-21
 .byte   W01
 .byte   BEND , c_v-19
 .byte   W02
 .byte   BEND , c_v-17
 .byte   W01
 .byte   BEND , c_v-14
 .byte   W01
 .byte   BEND , c_v-12
 .byte   W02
 .byte   BEND , c_v-9
 .byte   W01
 .byte   BEND , c_v-8
 .byte   W01
 .byte   BEND , c_v-5
 .byte   W02
@  #06 @021   ----------------------------------------
 .byte   BEND , c_v-4
 .byte   W01
 .byte   BEND , c_v-1
 .byte   W03
 .byte   BEND , c_v+0
 .byte   W92
@  #06 @022   ----------------------------------------
 .byte   W96
@  #06 @023   ----------------------------------------
 .byte   W96
@  #06 @024   ----------------------------------------
 .byte   N52 ,Bn2 ,v074
 .byte   W24
 .byte   W01
 .byte   BEND , c_v-2
 .byte   W01
 .byte   BEND , c_v-4
 .byte   W01
 .byte   BEND , c_v-6
 .byte   W01
 .byte   BEND , c_v-8
 .byte   W02
 .byte   BEND , c_v-11
 .byte   W01
 .byte   BEND , c_v-15
 .byte   W01
 .byte   BEND , c_v-17
 .byte   W02
 .byte   BEND , c_v-19
 .byte   W01
 .byte   BEND , c_v-21
 .byte   W01
 .byte   BEND , c_v-25
 .byte   W01
 .byte   BEND , c_v-27
 .byte   W01
 .byte   BEND , c_v-31
 .byte   W01
 .byte   BEND , c_v-33
 .byte   W01
 .byte   BEND , c_v-36
 .byte   W01
 .byte   BEND , c_v-38
 .byte   W01
 .byte   BEND , c_v-42
 .byte   W01
 .byte   BEND , c_v-45
 .byte   W01
 .byte   BEND , c_v-47
 .byte   W01
 .byte   BEND , c_v-49
 .byte   W01
 .byte   BEND , c_v-51
 .byte   W01
 .byte   BEND , c_v-54
 .byte   W01
 .byte   BEND , c_v-56
 .byte   W01
 .byte   BEND , c_v-59
 .byte   W01
 .byte   BEND , c_v-60
 .byte   W01
 .byte   BEND , c_v-63
 .byte   W02
 .byte   BEND , c_v-64
 .byte   W16
 .byte   BEND , c_v-63
 .byte   W02
 .byte   BEND , c_v-59
 .byte   W01
 .byte   BEND , c_v-56
 .byte   W01
 .byte   BEND , c_v-53
 .byte   W01
 .byte   BEND , c_v-51
 .byte   W02
 .byte   BEND , c_v-49
 .byte   W01
 .byte   BEND , c_v-47
 .byte   W01
 .byte   BEND , c_v-43
 .byte   W01
 .byte   BEND , c_v-41
 .byte   W01
 .byte   BEND , c_v-36
 .byte   W02
 .byte   BEND , c_v-34
 .byte   W01
 .byte   BEND , c_v-31
 .byte   W01
 .byte   BEND , c_v-27
 .byte   W01
 .byte   BEND , c_v-25
 .byte   W01
 .byte   BEND , c_v-23
 .byte   W01
 .byte   BEND , c_v-20
 .byte   W01
 .byte   BEND , c_v-18
 .byte   W02
 .byte   BEND , c_v-14
 .byte   W02
 .byte   BEND , c_v-11
 .byte   W01
 .byte   BEND , c_v-9
 .byte   W01
 .byte   BEND , c_v-7
 .byte   W01
 .byte   BEND , c_v-5
 .byte   W01
@  #06 @025   ----------------------------------------
 .byte   BEND , c_v-3
 .byte   W02
 .byte   BEND , c_v-1
 .byte   W01
 .byte   BEND , c_v+0
 .byte   W28
 .byte   W01
 .byte   N56 ,Fs2 ,v100
 .byte   W24
 .byte   BEND , c_v-2
 .byte   W01
 .byte   BEND , c_v-5
 .byte   W02
 .byte   BEND , c_v-7
 .byte   W01
 .byte   BEND , c_v-9
 .byte   W02
 .byte   BEND , c_v-12
 .byte   W01
 .byte   BEND , c_v-15
 .byte   W01
 .byte   BEND , c_v-18
 .byte   W02
 .byte   BEND , c_v-20
 .byte   W01
 .byte   BEND , c_v-22
 .byte   W01
 .byte   BEND , c_v-25
 .byte   W02
 .byte   BEND , c_v-28
 .byte   W01
 .byte   BEND , c_v-31
 .byte   W01
 .byte   BEND , c_v-33
 .byte   W01
 .byte   BEND , c_v-34
 .byte   W01
 .byte   BEND , c_v-37
 .byte   W02
 .byte   BEND , c_v-39
 .byte   W01
 .byte   BEND , c_v-41
 .byte   W02
 .byte   BEND , c_v-43
 .byte   W01
 .byte   BEND , c_v-45
 .byte   W01
 .byte   BEND , c_v-47
 .byte   W02
 .byte   BEND , c_v-50
 .byte   W01
 .byte   BEND , c_v-52
 .byte   W01
 .byte   BEND , c_v-54
 .byte   W01
 .byte   BEND , c_v-56
 .byte   W01
 .byte   BEND , c_v-59
 .byte   W01
 .byte   BEND , c_v-61
 .byte   W01
 .byte   BEND , c_v-63
 .byte   W01
 .byte   BEND , c_v-64
 .byte   W06
@  #06 @026   ----------------------------------------
 .byte   W12
 .byte   BEND , c_v-62
 .byte   W01
 .byte   BEND , c_v-60
 .byte   W01
 .byte   BEND , c_v-57
 .byte   W02
 .byte   BEND , c_v-54
 .byte   W01
 .byte   BEND , c_v-52
 .byte   W01
 .byte   BEND , c_v-50
 .byte   W02
 .byte   BEND , c_v-48
 .byte   W02
 .byte   BEND , c_v-44
 .byte   W01
 .byte   BEND , c_v-42
 .byte   W01
 .byte   BEND , c_v-40
 .byte   W02
 .byte   BEND , c_v-37
 .byte   W01
 .byte   BEND , c_v-36
 .byte   W02
 .byte   BEND , c_v-34
 .byte   W02
 .byte   BEND , c_v-32
 .byte   W01
 .byte   BEND , c_v-30
 .byte   W01
 .byte   BEND , c_v-28
 .byte   W01
 .byte   BEND , c_v-26
 .byte   W02
 .byte   BEND , c_v-24
 .byte   W01
 .byte   BEND , c_v-21
 .byte   W03
 .byte   BEND , c_v-20
 .byte   W02
 .byte   BEND , c_v-17
 .byte   W02
 .byte   BEND , c_v-15
 .byte   W02
 .byte   BEND , c_v-13
 .byte   W01
 .byte   BEND , c_v-11
 .byte   W02
 .byte   BEND , c_v-9
 .byte   W01
 .byte   BEND , c_v-7
 .byte   W02
 .byte   BEND , c_v-3
 .byte   W02
 .byte   BEND , c_v-1
 .byte   W02
 .byte   BEND , c_v+0
 .byte   W40
@  #06 @027   ----------------------------------------
 .byte   W96
@  #06 @028   ----------------------------------------
 .byte   W96
@  #06 @029   ----------------------------------------
 .byte   W96
@  #06 @030   ----------------------------------------
 .byte   W96
@  #06 @031   ----------------------------------------
 .byte   W19
 .byte   TIE ,Gs4 ,v079
 .byte   W56
 .byte   BEND , c_v+1
 .byte   W03
 .byte   BEND , c_v+3
 .byte   W04
 .byte   BEND , c_v+4
 .byte   W06
 .byte   BEND , c_v+6
 .byte   W04
 .byte   BEND , c_v+8
 .byte   W02
 .byte   BEND , c_v+10
 .byte   W02
@  #06 @032   ----------------------------------------
 .byte   W01
 .byte   BEND , c_v+12
 .byte   W03
 .byte   BEND , c_v+13
 .byte   W04
 .byte   BEND , c_v+15
 .byte   W03
 .byte   BEND , c_v+17
 .byte   W02
 .byte   BEND , c_v+19
 .byte   W03
 .byte   BEND , c_v+20
 .byte   W04
 .byte   BEND , c_v+22
 .byte   W06
 .byte   BEND , c_v+24
 .byte   W05
 .byte   BEND , c_v+25
 .byte   W03
 .byte   BEND , c_v+27
 .byte   W01
 .byte   BEND , c_v+29
 .byte   W08
 .byte   BEND , c_v+30
 .byte   W09
 .byte   BEND , c_v+32
 .byte   W10
 .byte   BEND , c_v+34
 .byte   W06
 .byte   BEND , c_v+35
 .byte   W18
 .byte   BEND , c_v+37
 .byte   W10
@  #06 @033   ----------------------------------------
 .byte   W02
 .byte   BEND , c_v+35
 .byte   W06
 .byte   BEND , c_v+34
 .byte   W06
 .byte   BEND , c_v+32
 .byte   W04
 .byte   BEND , c_v+30
 .byte   W06
 .byte   BEND , c_v+29
 .byte   W07
 .byte   BEND , c_v+27
 .byte   W02
 .byte   BEND , c_v+25
 .byte   W03
 .byte   BEND , c_v+24
 .byte   W05
 .byte   BEND , c_v+22
 .byte   W04
 .byte   BEND , c_v+20
 .byte   W05
 .byte   BEND , c_v+19
 .byte   W03
 .byte   BEND , c_v+17
 .byte   W05
 .byte   BEND , c_v+15
 .byte   W03
 .byte   BEND , c_v+13
 .byte   W02
 .byte   BEND , c_v+12
 .byte   W03
 .byte   BEND , c_v+10
 .byte   W02
 .byte   BEND , c_v+8
 .byte   W03
 .byte   BEND , c_v+7
 .byte   W03
 .byte   BEND , c_v+5
 .byte   W02
 .byte   BEND , c_v+3
 .byte   W04
 .byte   BEND , c_v+2
 .byte   W03
 .byte   BEND , c_v+0
 .byte   W13
@  #06 @034   ----------------------------------------
 .byte   W32
 .byte   BEND , c_v-2
 .byte   W03
 .byte   BEND , c_v-4
 .byte   W03
 .byte   BEND , c_v-5
 .byte   W02
 .byte   BEND , c_v-7
 .byte   W03
 .byte   BEND , c_v-9
 .byte   W03
 .byte   BEND , c_v-11
 .byte   W03
 .byte   BEND , c_v-12
 .byte   W03
 .byte   BEND , c_v-14
 .byte   W04
 .byte   BEND , c_v-16
 .byte   W02
 .byte   BEND , c_v-18
 .byte   W03
 .byte   BEND , c_v-20
 .byte   W03
 .byte   BEND , c_v-21
 .byte   W02
 .byte   BEND , c_v-24
 .byte   W02
 .byte   BEND , c_v-25
 .byte   W01
 .byte   BEND , c_v-28
 .byte   W02
 .byte   BEND , c_v-30
 .byte   W01
 .byte   BEND , c_v-32
 .byte   W03
 .byte   BEND , c_v-34
 .byte   W01
 .byte   BEND , c_v-36
 .byte   W02
 .byte   BEND , c_v-37
 .byte   W02
 .byte   BEND , c_v-39
 .byte   W02
 .byte   BEND , c_v-41
 .byte   W02
 .byte   BEND , c_v-43
 .byte   W03
 .byte   BEND , c_v-45
 .byte   W03
 .byte   BEND , c_v-47
 .byte   W04
 .byte   BEND , c_v-49
 .byte   W02
@  #06 @035   ----------------------------------------
 .byte   BEND , c_v-50
 .byte   W03
 .byte   BEND , c_v-52
 .byte   W02
 .byte   BEND , c_v-54
 .byte   W03
 .byte   BEND , c_v-56
 .byte   W02
 .byte   BEND , c_v-57
 .byte   W02
 .byte   EOT
 .byte   BEND , c_v-59
 .byte   W03
 .byte   BEND , c_v-61
 .byte   W05
 .byte   BEND , c_v-63
 .byte   W03
 .byte   BEND , c_v-64
 .byte   W24
 .byte   W01
 .byte   BEND , c_v-63
 .byte   W01
 .byte   BEND , c_v-61
 .byte   W01
 .byte   BEND , c_v-57
 .byte   W01
 .byte   BEND , c_v-55
 .byte   W01
 .byte   BEND , c_v-51
 .byte   W01
 .byte   BEND , c_v-49
 .byte   W02
 .byte   BEND , c_v-44
 .byte   W01
 .byte   BEND , c_v-41
 .byte   W01
 .byte   BEND , c_v-36
 .byte   W01
 .byte   BEND , c_v-33
 .byte   W01
 .byte   BEND , c_v-27
 .byte   W01
 .byte   BEND , c_v-25
 .byte   W01
 .byte   BEND , c_v-23
 .byte   W01
 .byte   BEND , c_v-18
 .byte   W01
 .byte   BEND , c_v-16
 .byte   W01
 .byte   BEND , c_v-10
 .byte   W01
 .byte   BEND , c_v-8
 .byte   W01
 .byte   BEND , c_v-6
 .byte   W02
 .byte   BEND , c_v-4
 .byte   W01
 .byte   BEND , c_v-2
 .byte   W01
 .byte   BEND , c_v+0
 .byte   W24
 .byte   W02
@  #06 @036   ----------------------------------------
 .byte   W44
 .byte   N92 ,Gn4 ,v065 ,gtp3
 .byte   W12
 .byte   BEND , c_v+6
 .byte   W01
 .byte   BEND , c_v+9
 .byte   W01
 .byte   BEND , c_v+13
 .byte   W01
 .byte   BEND , c_v+15
 .byte   W05
 .byte   BEND , c_v+13
 .byte   W01
 .byte   BEND , c_v+6
 .byte   W01
 .byte   BEND , c_v+2
 .byte   W01
 .byte   BEND , c_v+0
 .byte   W28
 .byte   W01
@  #06 @037   ----------------------------------------
 .byte   W22
 .byte   BEND , c_v-1
 .byte   W02
 .byte   BEND , c_v-3
 .byte   W01
 .byte   BEND , c_v-5
 .byte   W01
 .byte   BEND , c_v-8
 .byte   W02
 .byte   BEND , c_v-10
 .byte   W01
 .byte   BEND , c_v-13
 .byte   W02
 .byte   BEND , c_v-15
 .byte   W01
 .byte   BEND , c_v-17
 .byte   W01
 .byte   BEND , c_v-18
 .byte   W01
 .byte   BEND , c_v-21
 .byte   W02
 .byte   BEND , c_v-24
 .byte   W02
 .byte   BEND , c_v-29
 .byte   W01
 .byte   BEND , c_v-31
 .byte   W01
 .byte   BEND , c_v-33
 .byte   W01
 .byte   BEND , c_v-35
 .byte   W01
 .byte   BEND , c_v-37
 .byte   W01
 .byte   BEND , c_v-39
 .byte   W02
 .byte   BEND , c_v-41
 .byte   W01
 .byte   BEND , c_v-43
 .byte   W02
 .byte   BEND , c_v-44
 .byte   W03
 .byte   BEND , c_v-46
 .byte   W08
 .byte   BEND , c_v-44
 .byte   W01
 .byte   BEND , c_v-43
 .byte   W02
 .byte   BEND , c_v-39
 .byte   W01
 .byte   BEND , c_v-37
 .byte   W01
 .byte   BEND , c_v-33
 .byte   W02
 .byte   BEND , c_v-29
 .byte   W01
 .byte   BEND , c_v-26
 .byte   W01
 .byte   BEND , c_v-23
 .byte   W01
 .byte   BEND , c_v-20
 .byte   W01
 .byte   BEND , c_v-17
 .byte   W01
 .byte   BEND , c_v-12
 .byte   W01
 .byte   BEND , c_v-10
 .byte   W01
 .byte   BEND , c_v-8
 .byte   W01
 .byte   BEND , c_v-6
 .byte   W01
 .byte   BEND , c_v-4
 .byte   W01
 .byte   BEND , c_v-2
 .byte   W02
 .byte   BEND , c_v+0
 .byte   W18
@  #06 @038   ----------------------------------------
 .byte   W44
 .byte   W01
 .byte   N60 ,Bn3 ,v059
 .byte   W23
 .byte   BEND , c_v-2
 .byte   W02
 .byte   BEND , c_v-4
 .byte   W02
 .byte   BEND , c_v-5
 .byte   W03
 .byte   BEND , c_v-7
 .byte   W03
 .byte   BEND , c_v-9
 .byte   W03
 .byte   BEND , c_v-11
 .byte   W03
 .byte   BEND , c_v-13
 .byte   W02
 .byte   BEND , c_v-15
 .byte   W02
 .byte   BEND , c_v-17
 .byte   W02
 .byte   BEND , c_v-20
 .byte   W02
 .byte   BEND , c_v-21
 .byte   W01
 .byte   BEND , c_v-23
 .byte   W01
 .byte   BEND , c_v-25
 .byte   W02
@  #06 @039   ----------------------------------------
 .byte   BEND , c_v-27
 .byte   W01
 .byte   BEND , c_v-28
 .byte   W02
 .byte   BEND , c_v-30
 .byte   W02
 .byte   BEND , c_v-32
 .byte   W02
 .byte   BEND , c_v-34
 .byte   W01
 .byte   BEND , c_v-36
 .byte   W02
 .byte   BEND , c_v-38
 .byte   W02
 .byte   BEND , c_v-40
 .byte   W02
 .byte   BEND , c_v-41
 .byte   W04
 .byte   BEND , c_v-43
 .byte   W16
 .byte   BEND , c_v-41
 .byte   W02
 .byte   BEND , c_v-39
 .byte   W02
 .byte   BEND , c_v-37
 .byte   W02
 .byte   BEND , c_v-34
 .byte   W02
 .byte   BEND , c_v-30
 .byte   W02
 .byte   BEND , c_v-28
 .byte   W01
 .byte   BEND , c_v-27
 .byte   W01
 .byte   BEND , c_v-24
 .byte   W01
 .byte   BEND , c_v-23
 .byte   W01
 .byte   BEND , c_v-20
 .byte   W02
 .byte   BEND , c_v-18
 .byte   W02
 .byte   BEND , c_v-16
 .byte   W02
 .byte   BEND , c_v-14
 .byte   W02
 .byte   BEND , c_v-12
 .byte   W01
 .byte   BEND , c_v-10
 .byte   W02
 .byte   BEND , c_v-8
 .byte   W01
 .byte   BEND , c_v-6
 .byte   W01
 .byte   BEND , c_v-4
 .byte   W02
 .byte   BEND , c_v-2
 .byte   W02
 .byte   BEND , c_v+0
 .byte   W30
 .byte   W01
@  #06 @040   ----------------------------------------
 .byte   W96
@  #06 @041   ----------------------------------------
 .byte   W96
@  #06 @042   ----------------------------------------
 .byte   W96
@  #06 @043   ----------------------------------------
 .byte   W96
@  #06 @044   ----------------------------------------
 .byte   W96
@  #06 @045   ----------------------------------------
 .byte   W84
 .byte   W01
 .byte   N12 ,Fs3 ,v072
 .byte   W11
@  #06 @046   ----------------------------------------
 .byte   N10 ,Ds3 ,v074
 .byte   W11
 .byte   N13 ,Fs2 ,v085
 .byte   W13
 .byte   N10 ,Gn3 ,v088
 .byte   W12
 .byte   N11 ,Ds3 ,v083
 .byte   W11
 .byte   N10 ,Fs2 ,v110
 .byte   W11
 .byte   Fs3 ,v100
 .byte   W10
 .byte   N12 ,Ds3 ,v085
 .byte   W10
 .byte   N10 ,Fs2 ,v110
 .byte   W10
 .byte   N11 ,Gn3 ,v096
 .byte   W08
@  #06 @047   ----------------------------------------
 .byte   W04
 .byte   N10 ,Ds3 ,v088
 .byte   W11
 .byte   N08 ,Fs2 ,v103
 .byte   W10
 .byte   N11 ,Fs3 ,v088
 .byte   W11
 .byte   Ds3 ,v066
 .byte   W11
 .byte   N10 ,Fs2 ,v083
 .byte   W11
 .byte   N09 ,Gn3 ,v070
 .byte   W11
 .byte   N11 ,Ds3 ,v065
 .byte   W09
 .byte   N13 ,Fs2 ,v064
 .byte   W13
 .byte   N11 ,Fs3 ,v068
 .byte   W05
@  #06 @048   ----------------------------------------
 .byte   W06
 .byte   N13 ,Ds3 ,v066
 .byte   W12
 .byte   N12 ,Fs2 ,v056
 .byte   W11
 .byte   N11 ,Gn3 ,v067
 .byte   W11
 .byte   N12 ,Ds3 ,v066
 .byte   W10
 .byte   N13 ,Fs2 ,v056
 .byte   W13
 .byte   N09 ,Fs3 ,v071
 .byte   W11
 .byte   N14 ,Ds3 ,v060
 .byte   W11
 .byte   N11 ,Fs2 ,v065
 .byte   W11
@  #06 @049   ----------------------------------------
 .byte   W01
 .byte   Gn3 ,v070
 .byte   W12
 .byte   N13 ,Ds3 ,v066
 .byte   W11
 .byte   TIE ,Fs2 ,v090
 .byte   W60
 .byte   W02
 .byte   BEND , c_v+2
 .byte   W01
 .byte   BEND , c_v+4
 .byte   W02
 .byte   BEND , c_v+6
 .byte   W01
 .byte   BEND , c_v+10
 .byte   W02
 .byte   BEND , c_v+14
 .byte   W02
 .byte   BEND , c_v+16
 .byte   W01
 .byte   BEND , c_v+18
 .byte   W01
@  #06 @050   ----------------------------------------
 .byte   BEND , c_v+20
 .byte   W02
 .byte   BEND , c_v+21
 .byte   W02
 .byte   BEND , c_v+24
 .byte   W01
 .byte   BEND , c_v+25
 .byte   W03
 .byte   BEND , c_v+27
 .byte   W01
 .byte   BEND , c_v+29
 .byte   W02
 .byte   BEND , c_v+30
 .byte   W02
 .byte   BEND , c_v+32
 .byte   W01
 .byte   BEND , c_v+34
 .byte   W02
 .byte   BEND , c_v+35
 .byte   W06
 .byte   BEND , c_v+34
 .byte   W02
 .byte   BEND , c_v+31
 .byte   W01
 .byte   BEND , c_v+30
 .byte   W02
 .byte   BEND , c_v+28
 .byte   W01
 .byte   BEND , c_v+26
 .byte   W01
 .byte   BEND , c_v+22
 .byte   W02
 .byte   BEND , c_v+20
 .byte   W01
 .byte   BEND , c_v+18
 .byte   W01
 .byte   BEND , c_v+16
 .byte   W01
 .byte   BEND , c_v+13
 .byte   W01
 .byte   BEND , c_v+11
 .byte   W01
 .byte   BEND , c_v+6
 .byte   W01
 .byte   BEND , c_v+4
 .byte   W01
 .byte   BEND , c_v+1
 .byte   W01
 .byte   BEND , c_v+0
 .byte   W12
 .byte   BEND , c_v-2
 .byte   W01
 .byte   BEND , c_v-6
 .byte   W02
 .byte   BEND , c_v-11
 .byte   W01
 .byte   BEND , c_v-13
 .byte   W01
 .byte   BEND , c_v-15
 .byte   W02
 .byte   BEND , c_v-20
 .byte   W02
 .byte   BEND , c_v-24
 .byte   W02
 .byte   BEND , c_v-28
 .byte   W02
 .byte   BEND , c_v-33
 .byte   W02
 .byte   BEND , c_v-34
 .byte   W01
 .byte   BEND , c_v-38
 .byte   W01
 .byte   BEND , c_v-40
 .byte   W01
 .byte   BEND , c_v-43
 .byte   W01
 .byte   BEND , c_v-44
 .byte   W02
 .byte   BEND , c_v-47
 .byte   W01
 .byte   BEND , c_v-49
 .byte   W01
 .byte   BEND , c_v-50
 .byte   W02
 .byte   BEND , c_v-55
 .byte   W02
 .byte   BEND , c_v-56
 .byte   W01
 .byte   EOT
 .byte   BEND , c_v-59
 .byte   W01
 .byte   BEND , c_v-60
 .byte   W02
 .byte   BEND , c_v-62
 .byte   W14
@  #06 @051   ----------------------------------------
 .byte   W02
 .byte   BEND , c_v-60
 .byte   W02
 .byte   BEND , c_v-56
 .byte   W01
 .byte   BEND , c_v-53
 .byte   W01
 .byte   BEND , c_v-48
 .byte   W02
 .byte   BEND , c_v-42
 .byte   W01
 .byte   BEND , c_v-39
 .byte   W01
 .byte   BEND , c_v-33
 .byte   W01
 .byte   BEND , c_v-31
 .byte   W01
 .byte   BEND , c_v-27
 .byte   W01
 .byte   BEND , c_v-17
 .byte   W01
 .byte   BEND , c_v-11
 .byte   W01
 .byte   BEND , c_v-3
 .byte   W01
 .byte   BEND , c_v+0
 .byte   W80
@  #06 @052   ----------------------------------------
 .byte   W96
@  #06 @053   ----------------------------------------
 .byte   W96
@  #06 @054   ----------------------------------------
 .byte   W96
@  #06 @055   ----------------------------------------
 .byte   W12
 .byte   N19 ,Cn3 ,v100
 .byte   W09
 .byte   BEND , c_v+4
 .byte   W01
 .byte   BEND , c_v+14
 .byte   W01
 .byte   BEND , c_v+19
 .byte   W01
 .byte   BEND , c_v+27
 .byte   W01
 .byte   BEND , c_v+30
 .byte   W01
 .byte   BEND , c_v+34
 .byte   W01
 .byte   BEND , c_v+42
 .byte   W01
 .byte   BEND , c_v+46
 .byte   W01
 .byte   BEND , c_v+52
 .byte   W01
 .byte   BEND , c_v+53
 .byte   W01
 .byte   BEND , c_v+55
 .byte   W01
 .byte   BEND , c_v+58
 .byte   W02
 .byte   BEND , c_v+60
 .byte   W02
 .byte   BEND , c_v+62
 .byte   W02
 .byte   BEND , c_v+60
 .byte   W01
 .byte   BEND , c_v+57
 .byte   W01
 .byte   BEND , c_v+48
 .byte   W01
 .byte   BEND , c_v+45
 .byte   W01
 .byte   BEND , c_v+39
 .byte   W01
 .byte   BEND , c_v+37
 .byte   W01
 .byte   BEND , c_v+32
 .byte   W01
 .byte   BEND , c_v+29
 .byte   W01
 .byte   BEND , c_v+26
 .byte   W01
 .byte   BEND , c_v+25
 .byte   W02
 .byte   BEND , c_v+23
 .byte   W01
 .byte   BEND , c_v+21
 .byte   W01
 .byte   BEND , c_v+19
 .byte   W03
 .byte   BEND , c_v+17
 .byte   W02
 .byte   BEND , c_v+15
 .byte   W02
 .byte   BEND , c_v+13
 .byte   W01
 .byte   BEND , c_v+11
 .byte   W01
 .byte   BEND , c_v+9
 .byte   W02
 .byte   BEND , c_v+7
 .byte   W01
 .byte   BEND , c_v+5
 .byte   W01
 .byte   BEND , c_v+3
 .byte   W01
 .byte   BEND , c_v+2
 .byte   W01
 .byte   BEND , c_v+0
 .byte   W30
@  #06 @056   ----------------------------------------
 .byte   W28
 .byte   N24 ,Cn3 ,v102
 .byte   W11
 .byte   BEND , c_v+5
 .byte   W01
 .byte   BEND , c_v+10
 .byte   W01
 .byte   BEND , c_v+15
 .byte   W01
 .byte   BEND , c_v+22
 .byte   W01
 .byte   BEND , c_v+25
 .byte   W01
 .byte   BEND , c_v+30
 .byte   W01
 .byte   BEND , c_v+33
 .byte   W01
 .byte   BEND , c_v+38
 .byte   W01
 .byte   BEND , c_v+40
 .byte   W01
 .byte   BEND , c_v+46
 .byte   W01
 .byte   BEND , c_v+48
 .byte   W01
 .byte   BEND , c_v+53
 .byte   W01
 .byte   BEND , c_v+56
 .byte   W01
 .byte   BEND , c_v+59
 .byte   W01
 .byte   BEND , c_v+61
 .byte   W04
 .byte   BEND , c_v+60
 .byte   W01
 .byte   BEND , c_v+57
 .byte   W01
 .byte   BEND , c_v+53
 .byte   W01
 .byte   BEND , c_v+49
 .byte   W01
 .byte   BEND , c_v+47
 .byte   W01
 .byte   BEND , c_v+40
 .byte   W01
 .byte   BEND , c_v+38
 .byte   W01
 .byte   BEND , c_v+33
 .byte   W01
 .byte   BEND , c_v+30
 .byte   W01
 .byte   BEND , c_v+26
 .byte   W01
 .byte   BEND , c_v+23
 .byte   W01
 .byte   BEND , c_v+19
 .byte   W01
 .byte   BEND , c_v+17
 .byte   W01
 .byte   BEND , c_v+16
 .byte   W01
 .byte   BEND , c_v+13
 .byte   W01
 .byte   BEND , c_v+8
 .byte   W01
 .byte   BEND , c_v+6
 .byte   W02
 .byte   BEND , c_v+4
 .byte   W02
 .byte   BEND , c_v+2
 .byte   W01
 .byte   BEND , c_v+0
 .byte   W18
@  #06 @057   ----------------------------------------
 .byte   W56
 .byte   N24 ,Cn3 ,v100 ,gtp1
 .byte   W12
 .byte   BEND , c_v+6
 .byte   W01
 .byte   BEND , c_v+11
 .byte   W01
 .byte   BEND , c_v+19
 .byte   W01
 .byte   BEND , c_v+24
 .byte   W01
 .byte   BEND , c_v+33
 .byte   W01
 .byte   BEND , c_v+37
 .byte   W01
 .byte   BEND , c_v+43
 .byte   W01
 .byte   BEND , c_v+46
 .byte   W01
 .byte   BEND , c_v+49
 .byte   W01
 .byte   BEND , c_v+52
 .byte   W01
 .byte   BEND , c_v+57
 .byte   W01
 .byte   BEND , c_v+59
 .byte   W01
 .byte   BEND , c_v+63
 .byte   W07
 .byte   BEND , c_v+59
 .byte   W01
 .byte   BEND , c_v+57
 .byte   W01
 .byte   BEND , c_v+51
 .byte   W01
 .byte   BEND , c_v+47
 .byte   W01
 .byte   BEND , c_v+44
 .byte   W01
 .byte   BEND , c_v+38
 .byte   W01
 .byte   BEND , c_v+35
 .byte   W01
 .byte   BEND , c_v+30
 .byte   W02
@  #06 @058   ----------------------------------------
 .byte   BEND , c_v+26
 .byte   W01
 .byte   BEND , c_v+24
 .byte   W01
 .byte   BEND , c_v+17
 .byte   W01
 .byte   BEND , c_v+15
 .byte   W01
 .byte   BEND , c_v+13
 .byte   W01
 .byte   BEND , c_v+11
 .byte   W01
 .byte   BEND , c_v+8
 .byte   W01
 .byte   BEND , c_v+7
 .byte   W02
 .byte   BEND , c_v+4
 .byte   W01
 .byte   BEND , c_v+2
 .byte   W01
 .byte   BEND , c_v+0
 .byte   W78
 .byte   N24 ,Cn3 ,v102 ,gtp3
 .byte   W07
@  #06 @059   ----------------------------------------
 .byte   W04
 .byte   BEND , c_v+1
 .byte   W01
 .byte   BEND , c_v+4
 .byte   W01
 .byte   BEND , c_v+11
 .byte   W01
 .byte   BEND , c_v+14
 .byte   W01
 .byte   BEND , c_v+19
 .byte   W01
 .byte   BEND , c_v+21
 .byte   W01
 .byte   BEND , c_v+26
 .byte   W01
 .byte   BEND , c_v+28
 .byte   W01
 .byte   BEND , c_v+31
 .byte   W01
 .byte   BEND , c_v+33
 .byte   W01
 .byte   BEND , c_v+37
 .byte   W01
 .byte   BEND , c_v+38
 .byte   W01
 .byte   BEND , c_v+43
 .byte   W01
 .byte   BEND , c_v+45
 .byte   W01
 .byte   BEND , c_v+48
 .byte   W01
 .byte   BEND , c_v+50
 .byte   W04
 .byte   BEND , c_v+48
 .byte   W01
 .byte   BEND , c_v+46
 .byte   W02
 .byte   BEND , c_v+42
 .byte   W02
 .byte   BEND , c_v+40
 .byte   W01
 .byte   BEND , c_v+38
 .byte   W01
 .byte   BEND , c_v+34
 .byte   W02
 .byte   BEND , c_v+32
 .byte   W01
 .byte   BEND , c_v+29
 .byte   W01
 .byte   BEND , c_v+26
 .byte   W02
 .byte   BEND , c_v+24
 .byte   W01
 .byte   BEND , c_v+22
 .byte   W01
 .byte   BEND , c_v+20
 .byte   W01
 .byte   BEND , c_v+19
 .byte   W01
 .byte   BEND , c_v+16
 .byte   W01
 .byte   BEND , c_v+15
 .byte   W02
 .byte   BEND , c_v+12
 .byte   W01
 .byte   BEND , c_v+11
 .byte   W01
 .byte   BEND , c_v+8
 .byte   W01
 .byte   BEND , c_v+7
 .byte   W01
 .byte   BEND , c_v+5
 .byte   W02
 .byte   BEND , c_v+3
 .byte   W01
 .byte   BEND , c_v+2
 .byte   W02
 .byte   BEND , c_v+0
 .byte   W44
@  #06 @060   ----------------------------------------
 .byte   W36
 .byte   N30 ,Cn3 ,v098 ,gtp1
 .byte   W13
 .byte   BEND , c_v+1
 .byte   W01
 .byte   BEND , c_v+4
 .byte   W02
 .byte   BEND , c_v+11
 .byte   W01
 .byte   BEND , c_v+13
 .byte   W01
 .byte   BEND , c_v+18
 .byte   W02
 .byte   BEND , c_v+23
 .byte   W01
 .byte   BEND , c_v+26
 .byte   W01
 .byte   BEND , c_v+31
 .byte   W01
 .byte   BEND , c_v+34
 .byte   W01
 .byte   BEND , c_v+38
 .byte   W01
 .byte   BEND , c_v+39
 .byte   W01
 .byte   BEND , c_v+44
 .byte   W01
 .byte   BEND , c_v+46
 .byte   W01
 .byte   BEND , c_v+48
 .byte   W05
 .byte   BEND , c_v+46
 .byte   W02
 .byte   BEND , c_v+44
 .byte   W03
 .byte   BEND , c_v+43
 .byte   W01
 .byte   BEND , c_v+41
 .byte   W01
 .byte   BEND , c_v+39
 .byte   W02
 .byte   BEND , c_v+33
 .byte   W01
 .byte   BEND , c_v+30
 .byte   W01
 .byte   BEND , c_v+25
 .byte   W01
 .byte   BEND , c_v+24
 .byte   W01
 .byte   BEND , c_v+20
 .byte   W01
 .byte   BEND , c_v+18
 .byte   W01
 .byte   BEND , c_v+15
 .byte   W02
 .byte   BEND , c_v+12
 .byte   W01
 .byte   BEND , c_v+10
 .byte   W02
 .byte   BEND , c_v+7
 .byte   W01
 .byte   BEND , c_v+5
 .byte   W02
 .byte   BEND , c_v+3
 .byte   W01
 .byte   BEND , c_v+1
 .byte   W01
 .byte   BEND , c_v+0
 .byte   W02
@  #06 @061   ----------------------------------------
 .byte   W60
 .byte   W03
 .byte   N24 ,Cn3 ,v114 ,gtp2
 .byte   W12
 .byte   BEND , c_v+3
 .byte   W01
 .byte   BEND , c_v+4
 .byte   W01
 .byte   BEND , c_v+10
 .byte   W01
 .byte   BEND , c_v+13
 .byte   W01
 .byte   BEND , c_v+17
 .byte   W01
 .byte   BEND , c_v+22
 .byte   W01
 .byte   BEND , c_v+25
 .byte   W01
 .byte   BEND , c_v+30
 .byte   W01
 .byte   BEND , c_v+34
 .byte   W01
 .byte   BEND , c_v+38
 .byte   W02
 .byte   BEND , c_v+44
 .byte   W01
 .byte   BEND , c_v+46
 .byte   W01
 .byte   BEND , c_v+49
 .byte   W02
 .byte   BEND , c_v+51
 .byte   W02
 .byte   BEND , c_v+49
 .byte   W01
 .byte   BEND , c_v+47
 .byte   W01
 .byte   BEND , c_v+40
 .byte   W01
 .byte   BEND , c_v+37
 .byte   W01
@  #06 @062   ----------------------------------------
 .byte   BEND , c_v+33
 .byte   W02
 .byte   BEND , c_v+30
 .byte   W01
 .byte   BEND , c_v+28
 .byte   W02
 .byte   BEND , c_v+24
 .byte   W02
 .byte   BEND , c_v+22
 .byte   W01
 .byte   BEND , c_v+20
 .byte   W01
 .byte   BEND , c_v+17
 .byte   W01
 .byte   BEND , c_v+16
 .byte   W01
 .byte   BEND , c_v+13
 .byte   W01
 .byte   BEND , c_v+11
 .byte   W02
 .byte   BEND , c_v+7
 .byte   W02
 .byte   BEND , c_v+5
 .byte   W02
 .byte   BEND , c_v+3
 .byte   W01
 .byte   BEND , c_v+1
 .byte   W02
 .byte   BEND , c_v+0
 .byte   W68
 .byte   W02
 .byte   N28 ,Cn3 ,v101
 .byte   W05
@  #06 @063   ----------------------------------------
 .byte   W06
 .byte   BEND , c_v+1
 .byte   W01
 .byte   BEND , c_v+3
 .byte   W01
 .byte   BEND , c_v+4
 .byte   W01
 .byte   BEND , c_v+10
 .byte   W01
 .byte   BEND , c_v+14
 .byte   W01
 .byte   BEND , c_v+20
 .byte   W01
 .byte   BEND , c_v+24
 .byte   W01
 .byte   BEND , c_v+27
 .byte   W01
 .byte   BEND , c_v+33
 .byte   W01
 .byte   BEND , c_v+35
 .byte   W01
 .byte   BEND , c_v+41
 .byte   W01
 .byte   BEND , c_v+44
 .byte   W01
 .byte   BEND , c_v+48
 .byte   W01
 .byte   BEND , c_v+49
 .byte   W01
 .byte   BEND , c_v+53
 .byte   W02
 .byte   BEND , c_v+56
 .byte   W04
 .byte   BEND , c_v+53
 .byte   W01
 .byte   BEND , c_v+50
 .byte   W01
 .byte   BEND , c_v+47
 .byte   W01
 .byte   BEND , c_v+41
 .byte   W01
 .byte   BEND , c_v+39
 .byte   W01
 .byte   BEND , c_v+35
 .byte   W01
 .byte   BEND , c_v+32
 .byte   W01
 .byte   BEND , c_v+26
 .byte   W01
 .byte   BEND , c_v+24
 .byte   W02
 .byte   BEND , c_v+21
 .byte   W01
 .byte   BEND , c_v+19
 .byte   W01
 .byte   BEND , c_v+15
 .byte   W01
 .byte   BEND , c_v+13
 .byte   W01
 .byte   BEND , c_v+11
 .byte   W01
 .byte   BEND , c_v+10
 .byte   W01
 .byte   BEND , c_v+8
 .byte   W01
 .byte   BEND , c_v+6
 .byte   W01
 .byte   BEND , c_v+4
 .byte   W01
 .byte   BEND , c_v+2
 .byte   W01
 .byte   BEND , c_v+0
 .byte   W48
 .byte   W02
@  #06 @064   ----------------------------------------
 .byte   W54
 .byte   W01
 .byte   TIE ,Cn3 ,v098
 .byte   W07
 .byte   BEND , c_v+1
 .byte   W01
 .byte   BEND , c_v+3
 .byte   W01
 .byte   BEND , c_v+7
 .byte   W01
 .byte   BEND , c_v+11
 .byte   W01
 .byte   BEND , c_v+16
 .byte   W01
 .byte   BEND , c_v+19
 .byte   W01
 .byte   BEND , c_v+23
 .byte   W01
 .byte   BEND , c_v+26
 .byte   W01
 .byte   BEND , c_v+31
 .byte   W01
 .byte   BEND , c_v+34
 .byte   W01
 .byte   BEND , c_v+38
 .byte   W02
 .byte   BEND , c_v+40
 .byte   W04
 .byte   BEND , c_v+38
 .byte   W02
 .byte   BEND , c_v+35
 .byte   W01
 .byte   BEND , c_v+33
 .byte   W01
 .byte   BEND , c_v+31
 .byte   W01
 .byte   BEND , c_v+29
 .byte   W01
 .byte   BEND , c_v+27
 .byte   W02
 .byte   BEND , c_v+25
 .byte   W01
 .byte   BEND , c_v+22
 .byte   W01
 .byte   BEND , c_v+20
 .byte   W01
 .byte   BEND , c_v+19
 .byte   W01
 .byte   BEND , c_v+17
 .byte   W02
 .byte   BEND , c_v+15
 .byte   W02
 .byte   BEND , c_v+12
 .byte   W01
 .byte   BEND , c_v+10
 .byte   W01
@  #06 @065   ----------------------------------------
 .byte   BEND , c_v+7
 .byte   W03
 .byte   BEND , c_v+5
 .byte   W02
 .byte   BEND , c_v+3
 .byte   W01
 .byte   BEND , c_v+1
 .byte   W02
 .byte   BEND , c_v+0
 .byte   W30
 .byte   BEND , c_v-1
 .byte   W02
 .byte   BEND , c_v-4
 .byte   W01
 .byte   BEND , c_v-5
 .byte   W01
 .byte   BEND , c_v-7
 .byte   W03
 .byte   BEND , c_v-9
 .byte   W02
 .byte   BEND , c_v-11
 .byte   W01
 .byte   BEND , c_v-12
 .byte   W02
 .byte   BEND , c_v-14
 .byte   W02
 .byte   BEND , c_v-16
 .byte   W01
 .byte   BEND , c_v-18
 .byte   W02
 .byte   BEND , c_v-20
 .byte   W01
 .byte   BEND , c_v-21
 .byte   W02
 .byte   BEND , c_v-23
 .byte   W01
 .byte   BEND , c_v-25
 .byte   W01
 .byte   BEND , c_v-28
 .byte   W02
 .byte   BEND , c_v-30
 .byte   W01
 .byte   EOT
 .byte   BEND , c_v-33
 .byte   W02
 .byte   BEND , c_v-34
 .byte   W01
 .byte   BEND , c_v-36
 .byte   W02
 .byte   BEND , c_v-38
 .byte   W02
 .byte   BEND , c_v-40
 .byte   W01
 .byte   BEND , c_v-42
 .byte   W02
 .byte   BEND , c_v-44
 .byte   W01
 .byte   BEND , c_v-47
 .byte   W04
 .byte   BEND , c_v-49
 .byte   W04
 .byte   BEND , c_v-50
 .byte   W14
@  #06 @066   ----------------------------------------
 .byte   W03
 .byte   BEND , c_v-49
 .byte   W03
 .byte   BEND , c_v-47
 .byte   W02
 .byte   BEND , c_v-44
 .byte   W03
 .byte   BEND , c_v-42
 .byte   W04
 .byte   BEND , c_v-40
 .byte   W03
 .byte   BEND , c_v-39
 .byte   W01
 .byte   BEND , c_v-37
 .byte   W03
 .byte   BEND , c_v-35
 .byte   W04
 .byte   BEND , c_v-33
 .byte   W02
 .byte   BEND , c_v-31
 .byte   W03
 .byte   BEND , c_v-29
 .byte   W02
 .byte   BEND , c_v-25
 .byte   W01
 .byte   BEND , c_v-24
 .byte   W01
 .byte   BEND , c_v-22
 .byte   W01
 .byte   BEND , c_v-20
 .byte   W02
 .byte   BEND , c_v-18
 .byte   W01
 .byte   BEND , c_v-16
 .byte   W01
 .byte   BEND , c_v-14
 .byte   W06
 .byte   BEND , c_v-12
 .byte   W07
 .byte   BEND , c_v-11
 .byte   W03
 .byte   BEND , c_v-9
 .byte   W01
 .byte   BEND , c_v-7
 .byte   W02
 .byte   BEND , c_v-5
 .byte   W01
 .byte   BEND , c_v-4
 .byte   W02
 .byte   BEND , c_v-2
 .byte   W04
 .byte   BEND , c_v+0
 .byte   W30
@  #06 @067   ----------------------------------------
 .byte   W80
 .byte   W03
 .byte   TIE ,As3 ,v078
 .byte   W09
 .byte   BEND , c_v+12
 .byte   W01
 .byte   BEND , c_v+17
 .byte   W01
 .byte   BEND , c_v+26
 .byte   W01
 .byte   BEND , c_v+30
 .byte   W01
@  #06 @068   ----------------------------------------
 .byte   BEND , c_v+34
 .byte   W03
 .byte   BEND , c_v+33
 .byte   W01
 .byte   BEND , c_v+28
 .byte   W01
 .byte   BEND , c_v+24
 .byte   W01
 .byte   BEND , c_v+17
 .byte   W03
 .byte   BEND , c_v+15
 .byte   W01
 .byte   BEND , c_v+12
 .byte   W01
 .byte   BEND , c_v+11
 .byte   W01
 .byte   BEND , c_v+7
 .byte   W02
 .byte   BEND , c_v+4
 .byte   W01
 .byte   BEND , c_v+3
 .byte   W01
 .byte   BEND , c_v+1
 .byte   W04
 .byte   BEND , c_v+3
 .byte   W01
 .byte   BEND , c_v+6
 .byte   W01
 .byte   BEND , c_v+17
 .byte   W01
 .byte   BEND , c_v+20
 .byte   W01
 .byte   BEND , c_v+21
 .byte   W03
 .byte   BEND , c_v+15
 .byte   W01
 .byte   BEND , c_v+12
 .byte   W01
 .byte   BEND , c_v+7
 .byte   W01
 .byte   BEND , c_v+5
 .byte   W02
 .byte   BEND , c_v+3
 .byte   W01
 .byte   BEND , c_v+2
 .byte   W03
 .byte   BEND , c_v+3
 .byte   W01
 .byte   BEND , c_v+5
 .byte   W01
 .byte   BEND , c_v+14
 .byte   W01
 .byte   BEND , c_v+18
 .byte   W01
 .byte   BEND , c_v+24
 .byte   W01
 .byte   BEND , c_v+26
 .byte   W02
 .byte   BEND , c_v+24
 .byte   W01
 .byte   BEND , c_v+15
 .byte   W01
 .byte   BEND , c_v+9
 .byte   W01
 .byte   BEND , c_v+2
 .byte   W02
 .byte   BEND , c_v+0
 .byte   W04
 .byte   BEND , c_v+4
 .byte   W01
 .byte   BEND , c_v+8
 .byte   W01
 .byte   BEND , c_v+17
 .byte   W01
 .byte   BEND , c_v+20
 .byte   W01
 .byte   BEND , c_v+22
 .byte   W02
 .byte   BEND , c_v+15
 .byte   W01
 .byte   BEND , c_v+9
 .byte   W01
 .byte   BEND , c_v+0
 .byte   W24
 .byte   W02
 .byte   BEND , c_v-5
 .byte   W01
 .byte   BEND , c_v-15
 .byte   W01
 .byte   BEND , c_v-34
 .byte   W01
 .byte   BEND , c_v-40
 .byte   W01
 .byte   BEND , c_v-43
 .byte   W02
 .byte   BEND , c_v-41
 .byte   W01
 .byte   EOT
 .byte   BEND , c_v-36
 .byte   W01
 .byte   BEND , c_v-32
 .byte   W01
 .byte   BEND , c_v-27
 .byte   W01
@  #06 @069   ----------------------------------------
 .byte   BEND , c_v-20
 .byte   W01
 .byte   BEND , c_v-17
 .byte   W01
 .byte   BEND , c_v-14
 .byte   W02
 .byte   BEND , c_v-9
 .byte   W02
 .byte   BEND , c_v-4
 .byte   W01
 .byte   BEND , c_v-2
 .byte   W01
 .byte   BEND , c_v+0
 .byte   W88
@  #06 @070   ----------------------------------------
 .byte   W12
 .byte   N44 ,As3 ,v088 ,gtp2
 .byte   W06
 .byte   BEND , c_v+1
 .byte   W01
 .byte   BEND , c_v+4
 .byte   W01
 .byte   BEND , c_v+12
 .byte   W02
 .byte   BEND , c_v+13
 .byte   W02
 .byte   BEND , c_v+12
 .byte   W01
 .byte   BEND , c_v+6
 .byte   W01
 .byte   BEND , c_v+2
 .byte   W01
 .byte   BEND , c_v+0
 .byte   W24
 .byte   W01
 .byte   BEND , c_v-4
 .byte   W01
 .byte   BEND , c_v-9
 .byte   W01
 .byte   BEND , c_v-18
 .byte   W01
 .byte   BEND , c_v-22
 .byte   W01
 .byte   BEND , c_v-29
 .byte   W01
 .byte   BEND , c_v-31
 .byte   W04
 .byte   BEND , c_v-29
 .byte   W01
 .byte   BEND , c_v-24
 .byte   W01
 .byte   BEND , c_v-21
 .byte   W01
 .byte   BEND , c_v-18
 .byte   W01
 .byte   BEND , c_v-15
 .byte   W01
 .byte   BEND , c_v-13
 .byte   W02
 .byte   BEND , c_v-9
 .byte   W02
 .byte   BEND , c_v-7
 .byte   W01
 .byte   BEND , c_v-4
 .byte   W01
 .byte   BEND , c_v-1
 .byte   W01
 .byte   BEND , c_v+0
 .byte   W23
@  #06 @071   ----------------------------------------
 .byte   W96
@  #06 @072   ----------------------------------------
 .byte   W96
@  #06 @073   ----------------------------------------
 .byte   W96
@  #06 @074   ----------------------------------------
 .byte   W96
@  #06 @075   ----------------------------------------
 .byte   W76
 .byte   W01
 .byte   N05 ,Cn4
 .byte   W10
 .byte   N06 ,Cn5 ,v095
 .byte   W09
@  #06 @076   ----------------------------------------
 .byte   W02
 .byte   TIE ,As4 ,v073
 .byte   W92
 .byte   W02
@  #06 @077   ----------------------------------------
 .byte   W96
@  #06 @078   ----------------------------------------
 .byte   W96
@  #06 @079   ----------------------------------------
 .byte   W08
 .byte   BEND , c_v-1
 .byte   W02
 .byte   BEND , c_v-2
 .byte   W01
 .byte   BEND , c_v-4
 .byte   W02
 .byte   BEND , c_v-7
 .byte   W02
 .byte   BEND , c_v-8
 .byte   W01
 .byte   BEND , c_v-11
 .byte   W02
 .byte   BEND , c_v-14
 .byte   W01
 .byte   BEND , c_v-15
 .byte   W02
 .byte   BEND , c_v-17
 .byte   W01
 .byte   BEND , c_v-20
 .byte   W02
 .byte   BEND , c_v-22
 .byte   W01
 .byte   BEND , c_v-25
 .byte   W01
 .byte   BEND , c_v-30
 .byte   W01
 .byte   BEND , c_v-31
 .byte   W01
 .byte   BEND , c_v-33
 .byte   W01
 .byte   BEND , c_v-36
 .byte   W01
 .byte   BEND , c_v-39
 .byte   W02
 .byte   BEND , c_v-41
 .byte   W01
 .byte   EOT
 .byte   BEND , c_v-46
 .byte   W01
 .byte   BEND , c_v-48
 .byte   W02
 .byte   BEND , c_v-50
 .byte   W02
 .byte   BEND , c_v-52
 .byte   W02
 .byte   BEND , c_v-54
 .byte   W04
 .byte   BEND , c_v-56
 .byte   W02
 .byte   BEND , c_v-57
 .byte   W09
 .byte   BEND , c_v-56
 .byte   W01
 .byte   BEND , c_v-52
 .byte   W01
 .byte   BEND , c_v-50
 .byte   W01
 .byte   BEND , c_v-46
 .byte   W01
 .byte   BEND , c_v-42
 .byte   W01
 .byte   BEND , c_v-40
 .byte   W01
 .byte   BEND , c_v-36
 .byte   W02
 .byte   BEND , c_v-33
 .byte   W01
 .byte   BEND , c_v-28
 .byte   W01
 .byte   BEND , c_v-27
 .byte   W01
 .byte   BEND , c_v-23
 .byte   W02
 .byte   BEND , c_v-20
 .byte   W01
 .byte   BEND , c_v-18
 .byte   W01
 .byte   BEND , c_v-13
 .byte   W01
 .byte   BEND , c_v-11
 .byte   W01
 .byte   BEND , c_v-8
 .byte   W02
 .byte   BEND , c_v-4
 .byte   W01
 .byte   BEND , c_v-2
 .byte   W01
 .byte   BEND , c_v+0
 .byte   W20
@  #06 @080   ----------------------------------------
 .byte   W08
 .byte   N06 ,Cn4 ,v087
 .byte   W10
 .byte   N07 ,As4 ,v085
 .byte   W10
 .byte   TIE ,An4 ,v086
 .byte   W68
@  #06 @081   ----------------------------------------
 .byte   W96
@  #06 @082   ----------------------------------------
 .byte   W15
 .byte   EOT
 .byte   W06
 .byte   N07 ,Cn4
 .byte   W11
 .byte   An4 ,v078
 .byte   W10
 .byte   TIE ,Gs4 ,v087
 .byte   W54
@  #06 @083   ----------------------------------------
 .byte   W54
 .byte   BEND , c_v+1
 .byte   W01
 .byte   BEND , c_v+3
 .byte   W01
 .byte   BEND , c_v+5
 .byte   W02
 .byte   BEND , c_v+7
 .byte   W01
 .byte   BEND , c_v+10
 .byte   W01
 .byte   BEND , c_v+13
 .byte   W02
 .byte   BEND , c_v+15
 .byte   W03
 .byte   BEND , c_v+13
 .byte   W01
 .byte   BEND , c_v+11
 .byte   W02
 .byte   BEND , c_v+8
 .byte   W01
 .byte   BEND , c_v+6
 .byte   W02
 .byte   BEND , c_v+4
 .byte   W02
 .byte   BEND , c_v+2
 .byte   W02
 .byte   BEND , c_v+0
 .byte   W21
@  #06 @084   ----------------------------------------
 .byte   W32
 .byte   W02
 .byte   EOT
 .byte   W04
 .byte   N12 ,Gs4 ,v092
 .byte   W13
 .byte   N40 ,Ds4 ,v079
 .byte   W40
 .byte   TIE ,Gn4 ,v092
 .byte   W05
@  #06 @085   ----------------------------------------
 .byte   W06
 .byte   BEND , c_v+3
 .byte   W01
 .byte   BEND , c_v+6
 .byte   W01
 .byte   BEND , c_v+16
 .byte   W01
 .byte   BEND , c_v+19
 .byte   W01
 .byte   BEND , c_v+20
 .byte   W02
 .byte   BEND , c_v+17
 .byte   W01
 .byte   BEND , c_v+16
 .byte   W01
 .byte   BEND , c_v+11
 .byte   W01
 .byte   BEND , c_v+7
 .byte   W01
 .byte   BEND , c_v+6
 .byte   W01
 .byte   BEND , c_v+3
 .byte   W01
 .byte   BEND , c_v+1
 .byte   W01
 .byte   BEND , c_v+0
 .byte   W76
 .byte   W01
@  #06 @086   ----------------------------------------
 .byte   W96
@  #06 @087   ----------------------------------------
 .byte   W56
 .byte   W02
 .byte   BEND , c_v-1
 .byte   W03
 .byte   BEND , c_v-2
 .byte   W03
 .byte   BEND , c_v-4
 .byte   W02
 .byte   BEND , c_v-7
 .byte   W02
 .byte   BEND , c_v-8
 .byte   W02
 .byte   BEND , c_v-10
 .byte   W02
 .byte   BEND , c_v-12
 .byte   W01
 .byte   BEND , c_v-14
 .byte   W02
 .byte   BEND , c_v-15
 .byte   W01
 .byte   BEND , c_v-17
 .byte   W03
 .byte   BEND , c_v-19
 .byte   W03
 .byte   BEND , c_v-21
 .byte   W01
 .byte   BEND , c_v-23
 .byte   W02
 .byte   BEND , c_v-24
 .byte   W01
 .byte   BEND , c_v-26
 .byte   W02
 .byte   BEND , c_v-28
 .byte   W02
 .byte   BEND , c_v-30
 .byte   W01
 .byte   BEND , c_v-32
 .byte   W03
 .byte   BEND , c_v-34
 .byte   W02
@  #06 @088   ----------------------------------------
 .byte   BEND , c_v-36
 .byte   W02
 .byte   BEND , c_v-37
 .byte   W02
 .byte   BEND , c_v-39
 .byte   W01
 .byte   BEND , c_v-41
 .byte   W02
 .byte   BEND , c_v-43
 .byte   W01
 .byte   BEND , c_v-44
 .byte   W02
 .byte   BEND , c_v-47
 .byte   W03
 .byte   BEND , c_v-49
 .byte   W02
 .byte   BEND , c_v-50
 .byte   W02
 .byte   BEND , c_v-52
 .byte   W02
 .byte   BEND , c_v-54
 .byte   W02
 .byte   EOT
 .byte   W01
 .byte   BEND , c_v-56
 .byte   W03
 .byte   BEND , c_v-57
 .byte   W03
 .byte   BEND , c_v-59
 .byte   W02
 .byte   BEND , c_v-62
 .byte   W02
 .byte   BEND , c_v-63
 .byte   W17
 .byte   BEND , c_v-64
 .byte   W05
 .byte   BEND , c_v-63
 .byte   W01
 .byte   BEND , c_v-60
 .byte   W01
 .byte   BEND , c_v-57
 .byte   W01
 .byte   BEND , c_v-53
 .byte   W01
 .byte   BEND , c_v-47
 .byte   W01
 .byte   BEND , c_v-43
 .byte   W01
 .byte   BEND , c_v-37
 .byte   W01
 .byte   BEND , c_v-35
 .byte   W01
 .byte   BEND , c_v-30
 .byte   W01
 .byte   BEND , c_v-27
 .byte   W01
 .byte   BEND , c_v-22
 .byte   W01
 .byte   BEND , c_v-20
 .byte   W01
 .byte   BEND , c_v-16
 .byte   W01
 .byte   BEND , c_v-14
 .byte   W01
 .byte   BEND , c_v-12
 .byte   W01
 .byte   BEND , c_v-8
 .byte   W01
 .byte   BEND , c_v-6
 .byte   W01
 .byte   BEND , c_v-4
 .byte   W02
 .byte   BEND , c_v-1
 .byte   W01
 .byte   BEND , c_v+0
 .byte   W22
@  #06 @089   ----------------------------------------
 .byte   W60
 .byte   W01
 .byte   N72 ,As3 ,v048 ,gtp3
 .byte   W32
 .byte   W03
@  #06 @090   ----------------------------------------
 .byte   W02
 .byte   BEND , c_v-1
 .byte   W02
 .byte   BEND , c_v-4
 .byte   W02
 .byte   BEND , c_v-5
 .byte   W01
 .byte   BEND , c_v-7
 .byte   W02
 .byte   BEND , c_v-9
 .byte   W01
 .byte   BEND , c_v-11
 .byte   W02
 .byte   BEND , c_v-12
 .byte   W01
 .byte   BEND , c_v-15
 .byte   W01
 .byte   BEND , c_v-17
 .byte   W02
 .byte   BEND , c_v-18
 .byte   W02
 .byte   BEND , c_v-21
 .byte   W01
 .byte   BEND , c_v-24
 .byte   W01
 .byte   BEND , c_v-26
 .byte   W01
 .byte   BEND , c_v-28
 .byte   W01
 .byte   BEND , c_v-30
 .byte   W01
 .byte   BEND , c_v-33
 .byte   W02
 .byte   BEND , c_v-37
 .byte   W02
 .byte   BEND , c_v-39
 .byte   W01
 .byte   BEND , c_v-41
 .byte   W02
 .byte   BEND , c_v-46
 .byte   W02
 .byte   BEND , c_v-48
 .byte   W02
 .byte   BEND , c_v-50
 .byte   W02
 .byte   BEND , c_v-52
 .byte   W01
 .byte   BEND , c_v-54
 .byte   W01
 .byte   BEND , c_v-56
 .byte   W02
 .byte   BEND , c_v-58
 .byte   W02
 .byte   BEND , c_v-60
 .byte   W01
 .byte   BEND , c_v-62
 .byte   W02
 .byte   BEND , c_v-64
 .byte   W07
 .byte   BEND , c_v-63
 .byte   W02
 .byte   BEND , c_v-57
 .byte   W01
 .byte   BEND , c_v-54
 .byte   W01
 .byte   BEND , c_v-48
 .byte   W01
 .byte   BEND , c_v-46
 .byte   W01
 .byte   BEND , c_v-40
 .byte   W01
 .byte   BEND , c_v-37
 .byte   W01
 .byte   BEND , c_v-30
 .byte   W01
 .byte   BEND , c_v-24
 .byte   W01
 .byte   BEND , c_v-20
 .byte   W01
 .byte   BEND , c_v-10
 .byte   W01
 .byte   BEND , c_v-6
 .byte   W01
 .byte   BEND , c_v+0
 .byte   W04
 .byte   N80 ,Ds4 ,v078 ,gtp3
 .byte   W24
 .byte   W03
@  #06 @091   ----------------------------------------
 .byte   W16
 .byte   BEND , c_v-2
 .byte   W02
 .byte   BEND , c_v-4
 .byte   W03
 .byte   BEND , c_v-6
 .byte   W01
 .byte   BEND , c_v-8
 .byte   W02
 .byte   BEND , c_v-9
 .byte   W02
 .byte   BEND , c_v-11
 .byte   W03
 .byte   BEND , c_v-13
 .byte   W03
 .byte   BEND , c_v-15
 .byte   W01
 .byte   BEND , c_v-17
 .byte   W03
 .byte   BEND , c_v-19
 .byte   W02
 .byte   BEND , c_v-21
 .byte   W01
 .byte   BEND , c_v-23
 .byte   W01
 .byte   BEND , c_v-25
 .byte   W02
 .byte   BEND , c_v-28
 .byte   W02
 .byte   BEND , c_v-31
 .byte   W01
 .byte   BEND , c_v-33
 .byte   W01
 .byte   BEND , c_v-35
 .byte   W02
 .byte   BEND , c_v-37
 .byte   W01
 .byte   BEND , c_v-39
 .byte   W02
 .byte   BEND , c_v-41
 .byte   W02
 .byte   BEND , c_v-44
 .byte   W01
 .byte   BEND , c_v-46
 .byte   W03
 .byte   BEND , c_v-48
 .byte   W03
 .byte   BEND , c_v-50
 .byte   W02
 .byte   BEND , c_v-52
 .byte   W03
 .byte   BEND , c_v-53
 .byte   W05
 .byte   BEND , c_v-55
 .byte   W04
 .byte   BEND , c_v-53
 .byte   W01
 .byte   BEND , c_v-52
 .byte   W01
 .byte   BEND , c_v-49
 .byte   W02
 .byte   BEND , c_v-47
 .byte   W01
 .byte   BEND , c_v-44
 .byte   W01
 .byte   BEND , c_v-41
 .byte   W01
 .byte   BEND , c_v-39
 .byte   W01
 .byte   BEND , c_v-36
 .byte   W02
 .byte   BEND , c_v-34
 .byte   W02
 .byte   BEND , c_v-30
 .byte   W01
 .byte   BEND , c_v-28
 .byte   W01
 .byte   BEND , c_v-23
 .byte   W02
 .byte   BEND , c_v-18
 .byte   W01
 .byte   BEND , c_v-17
 .byte   W01
 .byte   BEND , c_v-15
 .byte   W01
 .byte   BEND , c_v-11
 .byte   W01
 .byte   BEND , c_v-8
 .byte   W01
 .byte   BEND , c_v-5
 .byte   W01
@  #06 @092   ----------------------------------------
 .byte   BEND , c_v+0
 .byte   W08
 .byte   TIE ,Cn4 ,v081
 .byte   W88
@  #06 @093   ----------------------------------------
 .byte   W05
 .byte   BEND , c_v+4
 .byte   W01
 .byte   BEND , c_v+6
 .byte   W01
 .byte   BEND , c_v+12
 .byte   W01
 .byte   BEND , c_v+13
 .byte   W02
 .byte   BEND , c_v+15
 .byte   W01
 .byte   BEND , c_v+17
 .byte   W01
 .byte   BEND , c_v+21
 .byte   W02
 .byte   BEND , c_v+22
 .byte   W02
 .byte   BEND , c_v+19
 .byte   W01
 .byte   BEND , c_v+16
 .byte   W01
 .byte   BEND , c_v+10
 .byte   W01
 .byte   BEND , c_v+8
 .byte   W01
 .byte   BEND , c_v+3
 .byte   W01
 .byte   BEND , c_v+0
 .byte   W72
 .byte   W03
@  #06 @094   ----------------------------------------
 .byte   W20
 .byte   BEND , c_v-12
 .byte   W01
 .byte   BEND , c_v-18
 .byte   W01
 .byte   BEND , c_v-29
 .byte   W01
 .byte   BEND , c_v-32
 .byte   W01
 .byte   BEND , c_v-36
 .byte   W02
 .byte   EOT
 .byte   W14
 .byte   BEND , c_v-34
 .byte   W02
 .byte   BEND , c_v-28
 .byte   W01
 .byte   BEND , c_v-26
 .byte   W01
 .byte   BEND , c_v-23
 .byte   W01
 .byte   BEND , c_v-21
 .byte   W01
 .byte   BEND , c_v-17
 .byte   W01
 .byte   BEND , c_v-15
 .byte   W01
 .byte   BEND , c_v-12
 .byte   W02
 .byte   BEND , c_v-10
 .byte   W02
 .byte   BEND , c_v-8
 .byte   W03
 .byte   BEND , c_v-4
 .byte   W02
 .byte   BEND , c_v-2
 .byte   W01
 .byte   BEND , c_v+0
 .byte   W36
 .byte   W02
@  #06 @095   ----------------------------------------
 .byte   W08
 .byte   TIE ,Cn4 ,v064
 .byte   W12
 .byte   BEND , c_v+1
 .byte   W01
 .byte   BEND , c_v+6
 .byte   W01
 .byte   BEND , c_v+8
 .byte   W01
 .byte   BEND , c_v+10
 .byte   W03
 .byte   BEND , c_v+7
 .byte   W01
 .byte   BEND , c_v+5
 .byte   W01
 .byte   BEND , c_v+0
 .byte   W68
@  #06 @096   ----------------------------------------
 .byte   W24
 .byte   W03
 .byte   BEND , c_v-1
 .byte   W01
 .byte   BEND , c_v-8
 .byte   W01
 .byte   BEND , c_v-14
 .byte   W01
 .byte   BEND , c_v-18
 .byte   W01
 .byte   BEND , c_v-30
 .byte   W01
 .byte   BEND , c_v-34
 .byte   W01
 .byte   BEND , c_v-39
 .byte   W02
 .byte   BEND , c_v-41
 .byte   W05
 .byte   EOT
 .byte   W02
 .byte   BEND , c_v-38
 .byte   W01
 .byte   BEND , c_v-36
 .byte   W01
 .byte   BEND , c_v-29
 .byte   W01
 .byte   BEND , c_v-24
 .byte   W01
 .byte   BEND , c_v-14
 .byte   W01
 .byte   BEND , c_v-9
 .byte   W01
 .byte   BEND , c_v-5
 .byte   W01
 .byte   BEND , c_v-1
 .byte   W01
 .byte   BEND , c_v+0
 .byte   W44
 .byte   W02
@  #06 @097   ----------------------------------------
 .byte   W96
@  #06 @098   ----------------------------------------
 .byte   W96
@  #06 @099   ----------------------------------------
 .byte   W96
@  #06 @100   ----------------------------------------
 .byte   W96
@  #06 @101   ----------------------------------------
 .byte   W96
@  #06 @102   ----------------------------------------
 .byte   W96
@  #06 @103   ----------------------------------------
 .byte   W96
@  #06 @104   ----------------------------------------
 .byte   W96
@  #06 @105   ----------------------------------------
 .byte   W96
@  #06 @106   ----------------------------------------
 .byte   W96
@  #06 @107   ----------------------------------------
 .byte   W96
@  #06 @108   ----------------------------------------
 .byte   GOTO
  .word Label_01003086
@  #06 @109   ----------------------------------------
 .byte   W96
@  #06 @110   ----------------------------------------
 .byte   PATT
  .word Label_548415
@  #06 @111   ----------------------------------------
 .byte   W96
@  #06 @112   ----------------------------------------
 .byte   W13
 .byte   FINE

@**************** Track 7 (Midi-Chn.6) ****************@

song04_007:
@  #07 @000   ----------------------------------------
 .byte   KEYSH , song04_key+0
Label_01003CD2:
 .byte   VOICE , 75
 .byte   VOL , 33*song04_mvl/mxv
 .byte   PAN , c_v+26
 .byte   W96
@  #07 @001   ----------------------------------------
 .byte   W96
@  #07 @002   ----------------------------------------
 .byte   W96
@  #07 @003   ----------------------------------------
 .byte   W96
@  #07 @004   ----------------------------------------
 .byte   W96
@  #07 @005   ----------------------------------------
 .byte   W96
@  #07 @006   ----------------------------------------
 .byte   W54
 .byte   TIE ,Fs3 ,v102
 .byte   W42
@  #07 @007   ----------------------------------------
 .byte   W15
 .byte   BEND , c_v+2
 .byte   W04
 .byte   BEND , c_v+3
 .byte   W08
 .byte   BEND , c_v+5
 .byte   W06
 .byte   BEND , c_v+7
 .byte   W03
 .byte   BEND , c_v+8
 .byte   W03
 .byte   BEND , c_v+10
 .byte   W03
 .byte   BEND , c_v+12
 .byte   W04
 .byte   BEND , c_v+13
 .byte   W05
 .byte   BEND , c_v+15
 .byte   W07
 .byte   BEND , c_v+17
 .byte   W05
 .byte   BEND , c_v+19
 .byte   W08
 .byte   BEND , c_v+20
 .byte   W08
 .byte   BEND , c_v+22
 .byte   W10
 .byte   BEND , c_v+24
 .byte   W07
@  #07 @008   ----------------------------------------
 .byte   BEND , c_v+25
 .byte   W04
 .byte   BEND , c_v+27
 .byte   W03
 .byte   BEND , c_v+29
 .byte   W23
 .byte   BEND , c_v+30
 .byte   W21
 .byte   BEND , c_v+29
 .byte   W03
 .byte   BEND , c_v+27
 .byte   W02
 .byte   BEND , c_v+25
 .byte   W03
 .byte   BEND , c_v+23
 .byte   W03
 .byte   BEND , c_v+21
 .byte   W03
 .byte   BEND , c_v+20
 .byte   W04
 .byte   BEND , c_v+18
 .byte   W03
 .byte   BEND , c_v+16
 .byte   W03
 .byte   BEND , c_v+15
 .byte   W04
 .byte   BEND , c_v+12
 .byte   W02
 .byte   BEND , c_v+10
 .byte   W02
 .byte   BEND , c_v+8
 .byte   W01
 .byte   BEND , c_v+7
 .byte   W02
 .byte   BEND , c_v+4
 .byte   W04
 .byte   BEND , c_v+3
 .byte   W02
 .byte   BEND , c_v+1
 .byte   W01
 .byte   BEND , c_v+0
 .byte   W03
@  #07 @009   ----------------------------------------
 .byte   W24
 .byte   BEND , c_v-1
 .byte   W02
 .byte   BEND , c_v-3
 .byte   W02
 .byte   BEND , c_v-5
 .byte   W01
 .byte   BEND , c_v-7
 .byte   W02
 .byte   BEND , c_v-8
 .byte   W03
 .byte   BEND , c_v-10
 .byte   W01
 .byte   BEND , c_v-12
 .byte   W02
 .byte   BEND , c_v-14
 .byte   W03
 .byte   BEND , c_v-15
 .byte   W02
 .byte   BEND , c_v-17
 .byte   W02
 .byte   BEND , c_v-20
 .byte   W02
 .byte   BEND , c_v-21
 .byte   W02
 .byte   BEND , c_v-23
 .byte   W02
 .byte   BEND , c_v-27
 .byte   W02
 .byte   BEND , c_v-29
 .byte   W02
 .byte   BEND , c_v-31
 .byte   W02
 .byte   BEND , c_v-33
 .byte   W01
 .byte   BEND , c_v-34
 .byte   W01
 .byte   BEND , c_v-36
 .byte   W02
 .byte   BEND , c_v-38
 .byte   W01
 .byte   BEND , c_v-40
 .byte   W02
 .byte   BEND , c_v-43
 .byte   W02
 .byte   BEND , c_v-46
 .byte   W01
 .byte   EOT
 .byte   BEND , c_v-48
 .byte   W02
 .byte   BEND , c_v-50
 .byte   W01
 .byte   BEND , c_v-52
 .byte   W01
 .byte   BEND , c_v-53
 .byte   W02
 .byte   BEND , c_v-55
 .byte   W02
 .byte   BEND , c_v-57
 .byte   W06
 .byte   BEND , c_v-59
 .byte   W16
@  #07 @010   ----------------------------------------
 .byte   BEND , c_v-57
 .byte   W02
 .byte   BEND , c_v-55
 .byte   W02
 .byte   BEND , c_v-53
 .byte   W01
 .byte   BEND , c_v-51
 .byte   W01
 .byte   BEND , c_v-49
 .byte   W02
 .byte   BEND , c_v-47
 .byte   W02
 .byte   BEND , c_v-45
 .byte   W01
 .byte   BEND , c_v-43
 .byte   W01
 .byte   BEND , c_v-41
 .byte   W01
 .byte   BEND , c_v-37
 .byte   W01
 .byte   BEND , c_v-33
 .byte   W01
 .byte   BEND , c_v-30
 .byte   W01
 .byte   BEND , c_v-25
 .byte   W01
 .byte   BEND , c_v-24
 .byte   W01
 .byte   BEND , c_v-20
 .byte   W01
 .byte   BEND , c_v-18
 .byte   W01
 .byte   BEND , c_v-15
 .byte   W01
 .byte   BEND , c_v-14
 .byte   W01
 .byte   BEND , c_v-12
 .byte   W02
 .byte   BEND , c_v-10
 .byte   W03
 .byte   BEND , c_v-8
 .byte   W01
 .byte   BEND , c_v-4
 .byte   W01
 .byte   BEND , c_v-1
 .byte   W01
 .byte   BEND , c_v+0
 .byte   W66
@  #07 @011   ----------------------------------------
 .byte   W96
@  #07 @012   ----------------------------------------
 .byte   W96
@  #07 @013   ----------------------------------------
 .byte   W96
@  #07 @014   ----------------------------------------
 .byte   W96
@  #07 @015   ----------------------------------------
 .byte   W13
 .byte   TIE ,Ds4 ,v073
 .byte   W11
 .byte   BEND , c_v+5
 .byte   W01
 .byte   BEND , c_v+9
 .byte   W01
 .byte   BEND , c_v+13
 .byte   W01
 .byte   BEND , c_v+21
 .byte   W01
 .byte   BEND , c_v+24
 .byte   W03
 .byte   BEND , c_v+21
 .byte   W01
 .byte   BEND , c_v+16
 .byte   W01
 .byte   BEND , c_v+14
 .byte   W01
 .byte   BEND , c_v+8
 .byte   W01
 .byte   BEND , c_v+6
 .byte   W01
 .byte   BEND , c_v+2
 .byte   W02
 .byte   BEND , c_v+1
 .byte   W02
 .byte   BEND , c_v+0
 .byte   W36
 .byte   W02
 .byte   BEND , c_v+2
 .byte   W01
 .byte   BEND , c_v+5
 .byte   W01
 .byte   BEND , c_v+11
 .byte   W02
 .byte   BEND , c_v+13
 .byte   W02
 .byte   BEND , c_v+7
 .byte   W01
 .byte   BEND , c_v+4
 .byte   W01
 .byte   BEND , c_v+2
 .byte   W01
 .byte   BEND , c_v+1
 .byte   W01
 .byte   BEND , c_v+0
 .byte   W08
@  #07 @016   ----------------------------------------
 .byte   W01
 .byte   BEND , c_v+4
 .byte   W01
 .byte   BEND , c_v+12
 .byte   W01
 .byte   BEND , c_v+15
 .byte   W01
 .byte   BEND , c_v+20
 .byte   W04
 .byte   BEND , c_v+13
 .byte   W01
 .byte   BEND , c_v+10
 .byte   W01
 .byte   BEND , c_v+6
 .byte   W01
 .byte   BEND , c_v+4
 .byte   W01
 .byte   BEND , c_v+2
 .byte   W01
 .byte   BEND , c_v+0
 .byte   W11
 .byte   BEND , c_v+11
 .byte   W01
 .byte   BEND , c_v+15
 .byte   W01
 .byte   BEND , c_v+20
 .byte   W01
 .byte   BEND , c_v+21
 .byte   W03
 .byte   BEND , c_v+16
 .byte   W01
 .byte   BEND , c_v+13
 .byte   W01
 .byte   BEND , c_v+11
 .byte   W01
 .byte   BEND , c_v+5
 .byte   W01
 .byte   BEND , c_v+3
 .byte   W01
 .byte   BEND , c_v+2
 .byte   W02
 .byte   BEND , c_v+0
 .byte   W07
 .byte   BEND , c_v+1
 .byte   W01
 .byte   BEND , c_v+3
 .byte   W01
 .byte   BEND , c_v+11
 .byte   W01
 .byte   BEND , c_v+15
 .byte   W01
 .byte   BEND , c_v+22
 .byte   W04
 .byte   BEND , c_v+17
 .byte   W01
 .byte   BEND , c_v+13
 .byte   W01
 .byte   BEND , c_v+5
 .byte   W02
 .byte   BEND , c_v+0
 .byte   W10
 .byte   BEND , c_v+7
 .byte   W01
 .byte   BEND , c_v+13
 .byte   W01
 .byte   BEND , c_v+20
 .byte   W02
 .byte   BEND , c_v+22
 .byte   W01
 .byte   BEND , c_v+20
 .byte   W01
 .byte   BEND , c_v+12
 .byte   W01
 .byte   BEND , c_v+6
 .byte   W01
 .byte   BEND , c_v+2
 .byte   W01
 .byte   BEND , c_v+0
 .byte   W21
@  #07 @017   ----------------------------------------
 .byte   W30
 .byte   BEND , c_v+7
 .byte   W01
 .byte   BEND , c_v+13
 .byte   W01
 .byte   BEND , c_v+24
 .byte   W01
 .byte   BEND , c_v+26
 .byte   W03
 .byte   BEND , c_v+21
 .byte   W01
 .byte   BEND , c_v+17
 .byte   W01
 .byte   BEND , c_v+5
 .byte   W01
 .byte   BEND , c_v+1
 .byte   W01
 .byte   BEND , c_v+0
 .byte   W12
 .byte   BEND , c_v+6
 .byte   W01
 .byte   BEND , c_v+9
 .byte   W01
 .byte   BEND , c_v+13
 .byte   W01
 .byte   BEND , c_v+15
 .byte   W03
 .byte   BEND , c_v+10
 .byte   W01
 .byte   BEND , c_v+5
 .byte   W01
 .byte   BEND , c_v+0
 .byte   W09
 .byte   BEND , c_v+2
 .byte   W01
 .byte   BEND , c_v+11
 .byte   W01
 .byte   BEND , c_v+15
 .byte   W01
 .byte   BEND , c_v+20
 .byte   W03
 .byte   BEND , c_v+17
 .byte   W01
 .byte   BEND , c_v+8
 .byte   W01
 .byte   BEND , c_v+5
 .byte   W01
 .byte   BEND , c_v+3
 .byte   W02
 .byte   BEND , c_v+0
 .byte   W08
 .byte   BEND , c_v+3
 .byte   W01
 .byte   BEND , c_v+6
 .byte   W01
 .byte   BEND , c_v+13
 .byte   W01
 .byte   BEND , c_v+15
 .byte   W01
 .byte   BEND , c_v+21
 .byte   W01
 .byte   BEND , c_v+22
 .byte   W03
@  #07 @018   ----------------------------------------
 .byte   BEND , c_v+16
 .byte   W01
 .byte   BEND , c_v+11
 .byte   W01
 .byte   BEND , c_v+2
 .byte   W03
 .byte   BEND , c_v+1
 .byte   W01
 .byte   BEND , c_v+0
 .byte   W18
 .byte   BEND , c_v+10
 .byte   W01
 .byte   BEND , c_v+15
 .byte   W01
 .byte   BEND , c_v+19
 .byte   W01
 .byte   BEND , c_v+21
 .byte   W04
 .byte   BEND , c_v+17
 .byte   W01
 .byte   BEND , c_v+8
 .byte   W01
 .byte   BEND , c_v+4
 .byte   W01
 .byte   BEND , c_v+0
 .byte   W08
 .byte   BEND , c_v+1
 .byte   W01
 .byte   BEND , c_v+4
 .byte   W01
 .byte   BEND , c_v+13
 .byte   W01
 .byte   BEND , c_v+17
 .byte   W01
 .byte   BEND , c_v+22
 .byte   W01
 .byte   BEND , c_v+24
 .byte   W02
 .byte   BEND , c_v+22
 .byte   W01
 .byte   BEND , c_v+19
 .byte   W01
 .byte   BEND , c_v+13
 .byte   W01
 .byte   BEND , c_v+10
 .byte   W01
 .byte   BEND , c_v+6
 .byte   W01
 .byte   BEND , c_v+4
 .byte   W01
 .byte   BEND , c_v+2
 .byte   W01
 .byte   BEND , c_v+0
 .byte   W13
 .byte   BEND , c_v+3
 .byte   W01
 .byte   BEND , c_v+7
 .byte   W01
 .byte   BEND , c_v+16
 .byte   W01
 .byte   BEND , c_v+19
 .byte   W02
 .byte   BEND , c_v+20
 .byte   W01
 .byte   BEND , c_v+18
 .byte   W01
 .byte   BEND , c_v+11
 .byte   W01
 .byte   BEND , c_v+6
 .byte   W01
 .byte   BEND , c_v+0
 .byte   W08
 .byte   BEND , c_v+4
 .byte   W01
 .byte   BEND , c_v+8
 .byte   W01
 .byte   BEND , c_v+15
 .byte   W01
 .byte   BEND , c_v+17
 .byte   W05
 .byte   BEND , c_v+10
 .byte   W01
 .byte   BEND , c_v+2
 .byte   W01
@  #07 @019   ----------------------------------------
 .byte   BEND , c_v+0
 .byte   W19
 .byte   BEND , c_v+2
 .byte   W01
 .byte   BEND , c_v+9
 .byte   W01
 .byte   BEND , c_v+12
 .byte   W01
 .byte   BEND , c_v+17
 .byte   W02
 .byte   BEND , c_v+19
 .byte   W01
 .byte   BEND , c_v+17
 .byte   W01
 .byte   BEND , c_v+12
 .byte   W01
 .byte   BEND , c_v+7
 .byte   W01
 .byte   BEND , c_v+0
 .byte   W09
 .byte   BEND , c_v+8
 .byte   W01
 .byte   BEND , c_v+13
 .byte   W01
 .byte   BEND , c_v+17
 .byte   W02
 .byte   BEND , c_v+20
 .byte   W03
 .byte   BEND , c_v+13
 .byte   W01
 .byte   BEND , c_v+8
 .byte   W01
 .byte   BEND , c_v+0
 .byte   W44
 .byte   W01
 .byte   BEND , c_v+2
 .byte   W01
 .byte   BEND , c_v+12
 .byte   W01
 .byte   BEND , c_v+16
 .byte   W01
 .byte   BEND , c_v+22
 .byte   W02
@  #07 @020   ----------------------------------------
 .byte   W01
 .byte   BEND , c_v+19
 .byte   W01
 .byte   BEND , c_v+16
 .byte   W01
 .byte   BEND , c_v+5
 .byte   W01
 .byte   BEND , c_v+2
 .byte   W01
 .byte   BEND , c_v+0
 .byte   W07
 .byte   BEND , c_v+4
 .byte   W01
 .byte   BEND , c_v+8
 .byte   W01
 .byte   BEND , c_v+16
 .byte   W01
 .byte   BEND , c_v+17
 .byte   W03
 .byte   BEND , c_v+16
 .byte   W01
 .byte   BEND , c_v+13
 .byte   W01
 .byte   BEND , c_v+7
 .byte   W01
 .byte   BEND , c_v+4
 .byte   W01
 .byte   BEND , c_v+0
 .byte   W36
 .byte   W03
 .byte   BEND , c_v-5
 .byte   W01
 .byte   BEND , c_v-19
 .byte   W01
 .byte   BEND , c_v-24
 .byte   W01
 .byte   BEND , c_v-32
 .byte   W01
 .byte   BEND , c_v-35
 .byte   W01
 .byte   BEND , c_v-37
 .byte   W01
 .byte   BEND , c_v-39
 .byte   W02
 .byte   EOT
 .byte   W01
 .byte   BEND , c_v-41
 .byte   W02
 .byte   BEND , c_v-43
 .byte   W04
 .byte   BEND , c_v-41
 .byte   W03
 .byte   BEND , c_v-39
 .byte   W05
 .byte   BEND , c_v-37
 .byte   W06
 .byte   BEND , c_v-36
 .byte   W02
 .byte   BEND , c_v-34
 .byte   W01
 .byte   BEND , c_v-32
 .byte   W01
 .byte   BEND , c_v-30
 .byte   W01
 .byte   BEND , c_v-28
 .byte   W01
@  #07 @021   ----------------------------------------
 .byte   BEND , c_v-26
 .byte   W02
 .byte   BEND , c_v-24
 .byte   W01
 .byte   BEND , c_v-21
 .byte   W01
 .byte   BEND , c_v-19
 .byte   W02
 .byte   BEND , c_v-17
 .byte   W01
 .byte   BEND , c_v-14
 .byte   W01
 .byte   BEND , c_v-12
 .byte   W02
 .byte   BEND , c_v-9
 .byte   W01
 .byte   BEND , c_v-8
 .byte   W02
 .byte   BEND , c_v-5
 .byte   W01
 .byte   BEND , c_v-4
 .byte   W02
 .byte   BEND , c_v-1
 .byte   W02
 .byte   BEND , c_v+0
 .byte   W78
@  #07 @022   ----------------------------------------
 .byte   W96
@  #07 @023   ----------------------------------------
 .byte   W96
@  #07 @024   ----------------------------------------
 .byte   W14
 .byte   N52 ,Bn2 ,v074
 .byte   W24
 .byte   W02
 .byte   BEND , c_v-4
 .byte   W02
 .byte   BEND , c_v-6
 .byte   W01
 .byte   BEND , c_v-8
 .byte   W01
 .byte   BEND , c_v-11
 .byte   W01
 .byte   BEND , c_v-13
 .byte   W01
 .byte   BEND , c_v-17
 .byte   W02
 .byte   BEND , c_v-19
 .byte   W01
 .byte   BEND , c_v-21
 .byte   W01
 .byte   BEND , c_v-25
 .byte   W01
 .byte   BEND , c_v-27
 .byte   W01
 .byte   BEND , c_v-31
 .byte   W01
 .byte   BEND , c_v-33
 .byte   W01
 .byte   BEND , c_v-36
 .byte   W01
 .byte   BEND , c_v-38
 .byte   W01
 .byte   BEND , c_v-40
 .byte   W01
 .byte   BEND , c_v-45
 .byte   W01
 .byte   BEND , c_v-47
 .byte   W01
 .byte   BEND , c_v-49
 .byte   W01
 .byte   BEND , c_v-51
 .byte   W02
 .byte   BEND , c_v-56
 .byte   W02
 .byte   BEND , c_v-60
 .byte   W02
 .byte   BEND , c_v-63
 .byte   W01
 .byte   BEND , c_v-64
 .byte   W17
 .byte   BEND , c_v-63
 .byte   W01
 .byte   BEND , c_v-60
 .byte   W01
 .byte   BEND , c_v-56
 .byte   W01
 .byte   BEND , c_v-55
 .byte   W01
 .byte   BEND , c_v-51
 .byte   W02
 .byte   BEND , c_v-49
 .byte   W01
 .byte   BEND , c_v-47
 .byte   W01
 .byte   BEND , c_v-43
 .byte   W01
 .byte   BEND , c_v-41
 .byte   W01
 .byte   BEND , c_v-36
 .byte   W02
@  #07 @025   ----------------------------------------
 .byte   BEND , c_v-34
 .byte   W01
 .byte   BEND , c_v-31
 .byte   W01
 .byte   BEND , c_v-29
 .byte   W01
 .byte   BEND , c_v-25
 .byte   W01
 .byte   BEND , c_v-23
 .byte   W01
 .byte   BEND , c_v-20
 .byte   W02
 .byte   BEND , c_v-18
 .byte   W01
 .byte   BEND , c_v-15
 .byte   W01
 .byte   BEND , c_v-14
 .byte   W01
 .byte   BEND , c_v-11
 .byte   W01
 .byte   BEND , c_v-9
 .byte   W01
 .byte   BEND , c_v-7
 .byte   W01
 .byte   BEND , c_v-5
 .byte   W01
 .byte   BEND , c_v-3
 .byte   W02
 .byte   BEND , c_v-1
 .byte   W01
 .byte   BEND , c_v+0
 .byte   W30
 .byte   N56 ,Fs2 ,v100
 .byte   W23
 .byte   BEND , c_v-2
 .byte   W02
 .byte   BEND , c_v-5
 .byte   W01
 .byte   BEND , c_v-7
 .byte   W01
 .byte   BEND , c_v-9
 .byte   W02
 .byte   BEND , c_v-12
 .byte   W01
 .byte   BEND , c_v-15
 .byte   W01
 .byte   BEND , c_v-18
 .byte   W02
 .byte   BEND , c_v-20
 .byte   W01
 .byte   BEND , c_v-22
 .byte   W01
 .byte   BEND , c_v-25
 .byte   W02
 .byte   BEND , c_v-28
 .byte   W01
 .byte   BEND , c_v-31
 .byte   W01
 .byte   BEND , c_v-33
 .byte   W01
 .byte   BEND , c_v-34
 .byte   W02
 .byte   BEND , c_v-37
 .byte   W01
 .byte   BEND , c_v-39
 .byte   W02
 .byte   BEND , c_v-41
 .byte   W01
 .byte   BEND , c_v-43
 .byte   W01
 .byte   BEND , c_v-45
 .byte   W02
@  #07 @026   ----------------------------------------
 .byte   BEND , c_v-47
 .byte   W01
 .byte   BEND , c_v-50
 .byte   W01
 .byte   BEND , c_v-52
 .byte   W01
 .byte   BEND , c_v-54
 .byte   W01
 .byte   BEND , c_v-56
 .byte   W01
 .byte   BEND , c_v-59
 .byte   W01
 .byte   BEND , c_v-61
 .byte   W01
 .byte   BEND , c_v-63
 .byte   W02
 .byte   BEND , c_v-64
 .byte   W17
 .byte   BEND , c_v-62
 .byte   W01
 .byte   BEND , c_v-60
 .byte   W01
 .byte   BEND , c_v-57
 .byte   W02
 .byte   BEND , c_v-54
 .byte   W01
 .byte   BEND , c_v-52
 .byte   W02
 .byte   BEND , c_v-50
 .byte   W02
 .byte   BEND , c_v-48
 .byte   W01
 .byte   BEND , c_v-46
 .byte   W01
 .byte   BEND , c_v-44
 .byte   W01
 .byte   BEND , c_v-42
 .byte   W01
 .byte   BEND , c_v-40
 .byte   W01
 .byte   BEND , c_v-37
 .byte   W02
 .byte   BEND , c_v-36
 .byte   W01
 .byte   BEND , c_v-34
 .byte   W02
 .byte   BEND , c_v-32
 .byte   W01
 .byte   BEND , c_v-30
 .byte   W01
 .byte   BEND , c_v-28
 .byte   W01
 .byte   BEND , c_v-26
 .byte   W02
 .byte   BEND , c_v-24
 .byte   W01
 .byte   BEND , c_v-21
 .byte   W03
 .byte   BEND , c_v-20
 .byte   W02
 .byte   BEND , c_v-17
 .byte   W02
 .byte   BEND , c_v-15
 .byte   W02
 .byte   BEND , c_v-13
 .byte   W02
 .byte   BEND , c_v-11
 .byte   W01
 .byte   BEND , c_v-9
 .byte   W01
 .byte   BEND , c_v-7
 .byte   W02
 .byte   BEND , c_v-3
 .byte   W02
 .byte   BEND , c_v-1
 .byte   W02
 .byte   BEND , c_v+0
 .byte   W24
 .byte   W02
@  #07 @027   ----------------------------------------
 .byte   W96
@  #07 @028   ----------------------------------------
 .byte   W96
@  #07 @029   ----------------------------------------
 .byte   W96
@  #07 @030   ----------------------------------------
 .byte   W96
@  #07 @031   ----------------------------------------
 .byte   W32
 .byte   W01
 .byte   TIE ,Gs4 ,v079
 .byte   W56
 .byte   BEND , c_v+1
 .byte   W04
 .byte   BEND , c_v+3
 .byte   W03
@  #07 @032   ----------------------------------------
 .byte   BEND , c_v+4
 .byte   W06
 .byte   BEND , c_v+6
 .byte   W04
 .byte   BEND , c_v+8
 .byte   W02
 .byte   BEND , c_v+10
 .byte   W03
 .byte   BEND , c_v+12
 .byte   W03
 .byte   BEND , c_v+13
 .byte   W04
 .byte   BEND , c_v+15
 .byte   W03
 .byte   BEND , c_v+17
 .byte   W02
 .byte   BEND , c_v+19
 .byte   W03
 .byte   BEND , c_v+20
 .byte   W04
 .byte   BEND , c_v+22
 .byte   W06
 .byte   BEND , c_v+24
 .byte   W06
 .byte   BEND , c_v+25
 .byte   W02
 .byte   BEND , c_v+27
 .byte   W02
 .byte   BEND , c_v+29
 .byte   W07
 .byte   BEND , c_v+30
 .byte   W09
 .byte   BEND , c_v+32
 .byte   W11
 .byte   BEND , c_v+34
 .byte   W05
 .byte   BEND , c_v+35
 .byte   W14
@  #07 @033   ----------------------------------------
 .byte   W04
 .byte   BEND , c_v+37
 .byte   W12
 .byte   BEND , c_v+35
 .byte   W07
 .byte   BEND , c_v+34
 .byte   W06
 .byte   BEND , c_v+32
 .byte   W03
 .byte   BEND , c_v+30
 .byte   W06
 .byte   BEND , c_v+29
 .byte   W07
 .byte   BEND , c_v+27
 .byte   W02
 .byte   BEND , c_v+25
 .byte   W04
 .byte   BEND , c_v+24
 .byte   W05
 .byte   BEND , c_v+22
 .byte   W03
 .byte   BEND , c_v+20
 .byte   W05
 .byte   BEND , c_v+19
 .byte   W04
 .byte   BEND , c_v+17
 .byte   W04
 .byte   BEND , c_v+15
 .byte   W03
 .byte   BEND , c_v+13
 .byte   W02
 .byte   BEND , c_v+12
 .byte   W03
 .byte   BEND , c_v+10
 .byte   W02
 .byte   BEND , c_v+8
 .byte   W03
 .byte   BEND , c_v+7
 .byte   W03
 .byte   BEND , c_v+5
 .byte   W02
 .byte   BEND , c_v+3
 .byte   W04
 .byte   BEND , c_v+2
 .byte   W02
@  #07 @034   ----------------------------------------
 .byte   W02
 .byte   BEND , c_v+0
 .byte   W44
 .byte   BEND , c_v-2
 .byte   W03
 .byte   BEND , c_v-4
 .byte   W03
 .byte   BEND , c_v-5
 .byte   W02
 .byte   BEND , c_v-7
 .byte   W04
 .byte   BEND , c_v-9
 .byte   W02
 .byte   BEND , c_v-11
 .byte   W03
 .byte   BEND , c_v-12
 .byte   W03
 .byte   BEND , c_v-14
 .byte   W04
 .byte   BEND , c_v-16
 .byte   W02
 .byte   BEND , c_v-18
 .byte   W03
 .byte   BEND , c_v-20
 .byte   W03
 .byte   BEND , c_v-21
 .byte   W02
 .byte   BEND , c_v-24
 .byte   W02
 .byte   BEND , c_v-25
 .byte   W02
 .byte   BEND , c_v-28
 .byte   W01
 .byte   BEND , c_v-30
 .byte   W01
 .byte   BEND , c_v-32
 .byte   W03
 .byte   BEND , c_v-34
 .byte   W01
 .byte   BEND , c_v-36
 .byte   W03
 .byte   BEND , c_v-37
 .byte   W02
 .byte   BEND , c_v-39
 .byte   W01
@  #07 @035   ----------------------------------------
 .byte   W01
 .byte   BEND , c_v-41
 .byte   W02
 .byte   BEND , c_v-43
 .byte   W03
 .byte   BEND , c_v-45
 .byte   W02
 .byte   BEND , c_v-47
 .byte   W04
 .byte   BEND , c_v-49
 .byte   W02
 .byte   BEND , c_v-50
 .byte   W03
 .byte   BEND , c_v-52
 .byte   W02
 .byte   BEND , c_v-54
 .byte   W03
 .byte   BEND , c_v-56
 .byte   W03
 .byte   BEND , c_v-57
 .byte   W01
 .byte   EOT
 .byte   W01
 .byte   BEND , c_v-59
 .byte   W03
 .byte   BEND , c_v-61
 .byte   W04
 .byte   BEND , c_v-63
 .byte   W03
 .byte   BEND , c_v-64
 .byte   W24
 .byte   W02
 .byte   BEND , c_v-61
 .byte   W01
 .byte   BEND , c_v-59
 .byte   W01
 .byte   BEND , c_v-55
 .byte   W01
 .byte   BEND , c_v-53
 .byte   W01
 .byte   BEND , c_v-51
 .byte   W01
 .byte   BEND , c_v-49
 .byte   W01
 .byte   BEND , c_v-47
 .byte   W01
 .byte   BEND , c_v-41
 .byte   W01
 .byte   BEND , c_v-39
 .byte   W01
 .byte   BEND , c_v-33
 .byte   W01
 .byte   BEND , c_v-29
 .byte   W01
 .byte   BEND , c_v-25
 .byte   W01
 .byte   BEND , c_v-23
 .byte   W01
 .byte   BEND , c_v-18
 .byte   W01
 .byte   BEND , c_v-16
 .byte   W01
 .byte   BEND , c_v-10
 .byte   W01
 .byte   BEND , c_v-8
 .byte   W02
 .byte   BEND , c_v-6
 .byte   W01
 .byte   BEND , c_v-4
 .byte   W01
 .byte   BEND , c_v-2
 .byte   W02
 .byte   BEND , c_v+0
 .byte   W11
@  #07 @036   ----------------------------------------
 .byte   W56
 .byte   W02
 .byte   N92 ,Gn4 ,v065 ,gtp3
 .byte   W12
 .byte   BEND , c_v+3
 .byte   W01
 .byte   BEND , c_v+9
 .byte   W01
 .byte   BEND , c_v+12
 .byte   W01
 .byte   BEND , c_v+13
 .byte   W01
 .byte   BEND , c_v+15
 .byte   W04
 .byte   BEND , c_v+13
 .byte   W01
 .byte   BEND , c_v+10
 .byte   W01
 .byte   BEND , c_v+2
 .byte   W01
 .byte   BEND , c_v+0
 .byte   W15
@  #07 @037   ----------------------------------------
 .byte   W36
 .byte   W01
 .byte   BEND , c_v-1
 .byte   W01
 .byte   BEND , c_v-3
 .byte   W02
 .byte   BEND , c_v-5
 .byte   W01
 .byte   BEND , c_v-8
 .byte   W01
 .byte   BEND , c_v-10
 .byte   W02
 .byte   BEND , c_v-13
 .byte   W01
 .byte   BEND , c_v-15
 .byte   W01
 .byte   BEND , c_v-17
 .byte   W01
 .byte   BEND , c_v-18
 .byte   W01
 .byte   BEND , c_v-21
 .byte   W02
 .byte   BEND , c_v-24
 .byte   W02
 .byte   BEND , c_v-29
 .byte   W01
 .byte   BEND , c_v-31
 .byte   W01
 .byte   BEND , c_v-33
 .byte   W01
 .byte   BEND , c_v-35
 .byte   W02
 .byte   BEND , c_v-39
 .byte   W02
 .byte   BEND , c_v-41
 .byte   W02
 .byte   BEND , c_v-43
 .byte   W02
 .byte   BEND , c_v-44
 .byte   W02
 .byte   BEND , c_v-46
 .byte   W08
 .byte   BEND , c_v-44
 .byte   W02
 .byte   BEND , c_v-43
 .byte   W01
 .byte   BEND , c_v-40
 .byte   W01
 .byte   BEND , c_v-37
 .byte   W01
 .byte   BEND , c_v-35
 .byte   W01
 .byte   BEND , c_v-33
 .byte   W01
 .byte   BEND , c_v-29
 .byte   W02
 .byte   BEND , c_v-24
 .byte   W01
 .byte   BEND , c_v-23
 .byte   W01
 .byte   BEND , c_v-17
 .byte   W01
 .byte   BEND , c_v-14
 .byte   W01
 .byte   BEND , c_v-10
 .byte   W01
 .byte   BEND , c_v-8
 .byte   W01
 .byte   BEND , c_v-6
 .byte   W01
 .byte   BEND , c_v-4
 .byte   W01
 .byte   BEND , c_v-2
 .byte   W02
 .byte   BEND , c_v+0
 .byte   W04
@  #07 @038   ----------------------------------------
 .byte   W56
 .byte   W03
 .byte   N60 ,Bn3 ,v059
 .byte   W23
 .byte   BEND , c_v-2
 .byte   W02
 .byte   BEND , c_v-4
 .byte   W02
 .byte   BEND , c_v-5
 .byte   W04
 .byte   BEND , c_v-7
 .byte   W03
 .byte   BEND , c_v-9
 .byte   W02
 .byte   BEND , c_v-11
 .byte   W01
@  #07 @039   ----------------------------------------
 .byte   W02
 .byte   BEND , c_v-13
 .byte   W02
 .byte   BEND , c_v-15
 .byte   W02
 .byte   BEND , c_v-17
 .byte   W02
 .byte   BEND , c_v-20
 .byte   W02
 .byte   BEND , c_v-21
 .byte   W01
 .byte   BEND , c_v-23
 .byte   W02
 .byte   BEND , c_v-25
 .byte   W01
 .byte   BEND , c_v-27
 .byte   W02
 .byte   BEND , c_v-28
 .byte   W02
 .byte   BEND , c_v-30
 .byte   W01
 .byte   BEND , c_v-32
 .byte   W02
 .byte   BEND , c_v-34
 .byte   W01
 .byte   BEND , c_v-36
 .byte   W02
 .byte   BEND , c_v-38
 .byte   W02
 .byte   BEND , c_v-40
 .byte   W03
 .byte   BEND , c_v-41
 .byte   W04
 .byte   BEND , c_v-43
 .byte   W15
 .byte   BEND , c_v-41
 .byte   W03
 .byte   BEND , c_v-39
 .byte   W01
 .byte   BEND , c_v-37
 .byte   W02
 .byte   BEND , c_v-36
 .byte   W01
 .byte   BEND , c_v-34
 .byte   W01
 .byte   BEND , c_v-32
 .byte   W01
 .byte   BEND , c_v-30
 .byte   W01
 .byte   BEND , c_v-28
 .byte   W01
 .byte   BEND , c_v-27
 .byte   W01
 .byte   BEND , c_v-24
 .byte   W01
 .byte   BEND , c_v-23
 .byte   W01
 .byte   BEND , c_v-20
 .byte   W02
 .byte   BEND , c_v-18
 .byte   W02
 .byte   BEND , c_v-16
 .byte   W02
 .byte   BEND , c_v-14
 .byte   W02
 .byte   BEND , c_v-12
 .byte   W01
 .byte   BEND , c_v-10
 .byte   W03
 .byte   BEND , c_v-6
 .byte   W02
 .byte   BEND , c_v-4
 .byte   W02
 .byte   BEND , c_v-2
 .byte   W02
 .byte   BEND , c_v+0
 .byte   W16
@  #07 @040   ----------------------------------------
 .byte   W96
@  #07 @041   ----------------------------------------
 .byte   W96
@  #07 @042   ----------------------------------------
 .byte   W96
@  #07 @043   ----------------------------------------
 .byte   W96
@  #07 @044   ----------------------------------------
 .byte   W96
@  #07 @045   ----------------------------------------
 .byte   W96
@  #07 @046   ----------------------------------------
 .byte   W06
 .byte   N12 ,Fs3 ,v072
 .byte   W12
 .byte   N10 ,Ds3 ,v074
 .byte   W10
 .byte   N13 ,Fs2 ,v085
 .byte   W14
 .byte   N09 ,Gn3 ,v088
 .byte   W11
 .byte   N11 ,Ds3 ,v083
 .byte   W11
 .byte   N10 ,Fs2 ,v110
 .byte   W10
 .byte   Fs3 ,v100
 .byte   W11
 .byte   N12 ,Ds3 ,v085
 .byte   W11
@  #07 @047   ----------------------------------------
 .byte   N09 ,Fs2 ,v110
 .byte   W10
 .byte   N10 ,Gn3 ,v096
 .byte   W11
 .byte   N11 ,Ds3 ,v088
 .byte   W11
 .byte   N08 ,Fs2 ,v103
 .byte   W10
 .byte   N11 ,Fs3 ,v088
 .byte   W11
 .byte   Ds3 ,v066
 .byte   W11
 .byte   N10 ,Fs2 ,v083
 .byte   W11
 .byte   N09 ,Gn3 ,v070
 .byte   W11
 .byte   N12 ,Ds3 ,v065
 .byte   W10
@  #07 @048   ----------------------------------------
 .byte   Fs2 ,v064
 .byte   W12
 .byte   Fs3 ,v068
 .byte   W12
 .byte   Ds3 ,v066
 .byte   W11
 .byte   N13 ,Fs2 ,v056
 .byte   W11
 .byte   N11 ,Gn3 ,v067
 .byte   W12
 .byte   Ds3 ,v066
 .byte   W09
 .byte   N13 ,Fs2 ,v056
 .byte   W13
 .byte   N09 ,Fs3 ,v071
 .byte   W11
 .byte   N15 ,Ds3 ,v060
 .byte   W05
@  #07 @049   ----------------------------------------
 .byte   W06
 .byte   N12 ,Fs2 ,v065
 .byte   W12
 .byte   N11 ,Gn3 ,v070
 .byte   W12
 .byte   N13 ,Ds3 ,v066
 .byte   W11
 .byte   TIE ,Fs2 ,v090
 .byte   W54
 .byte   W01
@  #07 @050   ----------------------------------------
 .byte   W07
 .byte   BEND , c_v+2
 .byte   W01
 .byte   BEND , c_v+4
 .byte   W02
 .byte   BEND , c_v+6
 .byte   W02
 .byte   BEND , c_v+10
 .byte   W01
 .byte   BEND , c_v+12
 .byte   W01
 .byte   BEND , c_v+14
 .byte   W01
 .byte   BEND , c_v+16
 .byte   W01
 .byte   BEND , c_v+18
 .byte   W02
 .byte   BEND , c_v+20
 .byte   W01
 .byte   BEND , c_v+21
 .byte   W02
 .byte   BEND , c_v+24
 .byte   W01
 .byte   BEND , c_v+25
 .byte   W02
 .byte   BEND , c_v+27
 .byte   W02
 .byte   BEND , c_v+29
 .byte   W02
 .byte   BEND , c_v+30
 .byte   W02
 .byte   BEND , c_v+32
 .byte   W02
 .byte   BEND , c_v+34
 .byte   W02
 .byte   BEND , c_v+35
 .byte   W05
 .byte   BEND , c_v+34
 .byte   W02
 .byte   BEND , c_v+31
 .byte   W01
 .byte   BEND , c_v+30
 .byte   W02
 .byte   BEND , c_v+28
 .byte   W01
 .byte   BEND , c_v+26
 .byte   W01
 .byte   BEND , c_v+22
 .byte   W02
 .byte   BEND , c_v+20
 .byte   W02
 .byte   BEND , c_v+16
 .byte   W02
 .byte   BEND , c_v+11
 .byte   W01
 .byte   BEND , c_v+8
 .byte   W01
 .byte   BEND , c_v+4
 .byte   W02
 .byte   BEND , c_v+0
 .byte   W12
 .byte   BEND , c_v-4
 .byte   W01
 .byte   BEND , c_v-6
 .byte   W02
 .byte   BEND , c_v-11
 .byte   W01
 .byte   BEND , c_v-13
 .byte   W02
 .byte   BEND , c_v-15
 .byte   W01
 .byte   BEND , c_v-18
 .byte   W01
 .byte   BEND , c_v-20
 .byte   W01
 .byte   BEND , c_v-22
 .byte   W01
 .byte   BEND , c_v-24
 .byte   W01
 .byte   BEND , c_v-26
 .byte   W01
 .byte   BEND , c_v-28
 .byte   W01
 .byte   BEND , c_v-31
 .byte   W01
 .byte   BEND , c_v-33
 .byte   W01
 .byte   BEND , c_v-34
 .byte   W01
 .byte   BEND , c_v-38
 .byte   W01
 .byte   BEND , c_v-40
 .byte   W01
 .byte   BEND , c_v-43
 .byte   W01
 .byte   BEND , c_v-44
 .byte   W02
 .byte   BEND , c_v-47
 .byte   W01
 .byte   BEND , c_v-49
 .byte   W02
 .byte   BEND , c_v-50
 .byte   W01
 .byte   BEND , c_v-53
 .byte   W01
 .byte   BEND , c_v-55
 .byte   W01
 .byte   BEND , c_v-56
 .byte   W01
@  #07 @051   ----------------------------------------
 .byte   EOT
 .byte   BEND , c_v-59
 .byte   W02
 .byte   BEND , c_v-60
 .byte   W02
 .byte   BEND , c_v-62
 .byte   W16
 .byte   BEND , c_v-60
 .byte   W01
 .byte   BEND , c_v-57
 .byte   W01
 .byte   BEND , c_v-53
 .byte   W01
 .byte   BEND , c_v-50
 .byte   W01
 .byte   BEND , c_v-48
 .byte   W01
 .byte   BEND , c_v-44
 .byte   W01
 .byte   BEND , c_v-39
 .byte   W01
 .byte   BEND , c_v-36
 .byte   W01
 .byte   BEND , c_v-31
 .byte   W01
 .byte   BEND , c_v-27
 .byte   W01
 .byte   BEND , c_v-17
 .byte   W01
 .byte   BEND , c_v-11
 .byte   W01
 .byte   BEND , c_v+0
 .byte   W64
@  #07 @052   ----------------------------------------
 .byte   W96
@  #07 @053   ----------------------------------------
 .byte   W96
@  #07 @054   ----------------------------------------
 .byte   W96
@  #07 @055   ----------------------------------------
 .byte   W24
 .byte   W03
 .byte   N19 ,Cn3 ,v100
 .byte   W08
 .byte   BEND , c_v+4
 .byte   W01
 .byte   BEND , c_v+9
 .byte   W01
 .byte   BEND , c_v+14
 .byte   W01
 .byte   BEND , c_v+23
 .byte   W01
 .byte   BEND , c_v+27
 .byte   W01
 .byte   BEND , c_v+34
 .byte   W01
 .byte   BEND , c_v+38
 .byte   W01
 .byte   BEND , c_v+46
 .byte   W01
 .byte   BEND , c_v+48
 .byte   W01
 .byte   BEND , c_v+53
 .byte   W01
 .byte   BEND , c_v+55
 .byte   W01
 .byte   BEND , c_v+58
 .byte   W02
 .byte   BEND , c_v+60
 .byte   W02
 .byte   BEND , c_v+62
 .byte   W03
 .byte   BEND , c_v+57
 .byte   W01
 .byte   BEND , c_v+48
 .byte   W01
 .byte   BEND , c_v+45
 .byte   W01
 .byte   BEND , c_v+41
 .byte   W01
 .byte   BEND , c_v+37
 .byte   W01
 .byte   BEND , c_v+34
 .byte   W01
 .byte   BEND , c_v+32
 .byte   W01
 .byte   BEND , c_v+29
 .byte   W01
 .byte   BEND , c_v+26
 .byte   W01
 .byte   BEND , c_v+25
 .byte   W01
 .byte   BEND , c_v+23
 .byte   W01
 .byte   BEND , c_v+21
 .byte   W02
 .byte   BEND , c_v+19
 .byte   W02
 .byte   BEND , c_v+17
 .byte   W02
 .byte   BEND , c_v+15
 .byte   W02
 .byte   BEND , c_v+13
 .byte   W01
 .byte   BEND , c_v+11
 .byte   W02
 .byte   BEND , c_v+9
 .byte   W01
 .byte   BEND , c_v+7
 .byte   W01
 .byte   BEND , c_v+5
 .byte   W02
 .byte   BEND , c_v+3
 .byte   W01
 .byte   BEND , c_v+2
 .byte   W01
 .byte   BEND , c_v+0
 .byte   W15
@  #07 @056   ----------------------------------------
 .byte   W42
 .byte   N24 ,Cn3 ,v102
 .byte   W11
 .byte   BEND , c_v+2
 .byte   W01
 .byte   BEND , c_v+10
 .byte   W01
 .byte   BEND , c_v+15
 .byte   W01
 .byte   BEND , c_v+22
 .byte   W01
 .byte   BEND , c_v+25
 .byte   W01
 .byte   BEND , c_v+30
 .byte   W01
 .byte   BEND , c_v+33
 .byte   W01
 .byte   BEND , c_v+38
 .byte   W01
 .byte   BEND , c_v+40
 .byte   W01
 .byte   BEND , c_v+43
 .byte   W01
 .byte   BEND , c_v+48
 .byte   W01
 .byte   BEND , c_v+51
 .byte   W01
 .byte   BEND , c_v+56
 .byte   W01
 .byte   BEND , c_v+57
 .byte   W01
 .byte   BEND , c_v+59
 .byte   W01
 .byte   BEND , c_v+61
 .byte   W04
 .byte   BEND , c_v+57
 .byte   W01
 .byte   BEND , c_v+56
 .byte   W01
 .byte   BEND , c_v+49
 .byte   W01
 .byte   BEND , c_v+47
 .byte   W01
 .byte   BEND , c_v+40
 .byte   W01
 .byte   BEND , c_v+38
 .byte   W01
 .byte   BEND , c_v+33
 .byte   W01
 .byte   BEND , c_v+30
 .byte   W01
 .byte   BEND , c_v+26
 .byte   W01
 .byte   BEND , c_v+23
 .byte   W01
 .byte   BEND , c_v+19
 .byte   W01
 .byte   BEND , c_v+17
 .byte   W01
 .byte   BEND , c_v+16
 .byte   W01
 .byte   BEND , c_v+13
 .byte   W01
 .byte   BEND , c_v+10
 .byte   W01
 .byte   BEND , c_v+8
 .byte   W01
 .byte   BEND , c_v+6
 .byte   W02
 .byte   BEND , c_v+4
 .byte   W01
 .byte   BEND , c_v+2
 .byte   W01
 .byte   BEND , c_v+0
 .byte   W04
@  #07 @057   ----------------------------------------
 .byte   W68
 .byte   W02
 .byte   N24 ,Cn3 ,v100 ,gtp2
 .byte   W12
 .byte   BEND , c_v+6
 .byte   W01
 .byte   BEND , c_v+11
 .byte   W01
 .byte   BEND , c_v+19
 .byte   W01
 .byte   BEND , c_v+24
 .byte   W01
 .byte   BEND , c_v+33
 .byte   W01
 .byte   BEND , c_v+37
 .byte   W01
 .byte   BEND , c_v+43
 .byte   W01
 .byte   BEND , c_v+46
 .byte   W01
 .byte   BEND , c_v+49
 .byte   W01
 .byte   BEND , c_v+52
 .byte   W01
 .byte   BEND , c_v+54
 .byte   W01
 .byte   BEND , c_v+59
 .byte   W01
 .byte   BEND , c_v+61
 .byte   W01
 .byte   BEND , c_v+63
 .byte   W01
@  #07 @058   ----------------------------------------
 .byte   W05
 .byte   BEND , c_v+61
 .byte   W01
 .byte   BEND , c_v+57
 .byte   W01
 .byte   BEND , c_v+53
 .byte   W01
 .byte   BEND , c_v+47
 .byte   W01
 .byte   BEND , c_v+44
 .byte   W01
 .byte   BEND , c_v+38
 .byte   W01
 .byte   BEND , c_v+35
 .byte   W01
 .byte   BEND , c_v+30
 .byte   W02
 .byte   BEND , c_v+28
 .byte   W01
 .byte   BEND , c_v+24
 .byte   W01
 .byte   BEND , c_v+21
 .byte   W01
 .byte   BEND , c_v+15
 .byte   W01
 .byte   BEND , c_v+13
 .byte   W02
 .byte   BEND , c_v+11
 .byte   W01
 .byte   BEND , c_v+8
 .byte   W01
 .byte   BEND , c_v+7
 .byte   W01
 .byte   BEND , c_v+4
 .byte   W01
 .byte   BEND , c_v+2
 .byte   W02
 .byte   BEND , c_v+0
 .byte   W68
 .byte   W02
@  #07 @059   ----------------------------------------
 .byte   W07
 .byte   N24 ,Cn3 ,v102 ,gtp3
 .byte   W11
 .byte   BEND , c_v+1
 .byte   W01
 .byte   BEND , c_v+4
 .byte   W01
 .byte   BEND , c_v+11
 .byte   W01
 .byte   BEND , c_v+14
 .byte   W01
 .byte   BEND , c_v+19
 .byte   W01
 .byte   BEND , c_v+21
 .byte   W01
 .byte   BEND , c_v+24
 .byte   W01
 .byte   BEND , c_v+28
 .byte   W02
 .byte   BEND , c_v+33
 .byte   W01
 .byte   BEND , c_v+34
 .byte   W01
 .byte   BEND , c_v+37
 .byte   W01
 .byte   BEND , c_v+40
 .byte   W01
 .byte   BEND , c_v+43
 .byte   W01
 .byte   BEND , c_v+47
 .byte   W01
 .byte   BEND , c_v+48
 .byte   W01
 .byte   BEND , c_v+50
 .byte   W03
 .byte   BEND , c_v+48
 .byte   W01
 .byte   BEND , c_v+46
 .byte   W02
 .byte   BEND , c_v+42
 .byte   W02
 .byte   BEND , c_v+40
 .byte   W01
 .byte   BEND , c_v+38
 .byte   W01
 .byte   BEND , c_v+36
 .byte   W01
 .byte   BEND , c_v+34
 .byte   W01
 .byte   BEND , c_v+32
 .byte   W01
 .byte   BEND , c_v+29
 .byte   W02
 .byte   BEND , c_v+26
 .byte   W01
 .byte   BEND , c_v+24
 .byte   W02
 .byte   BEND , c_v+20
 .byte   W01
 .byte   BEND , c_v+19
 .byte   W01
 .byte   BEND , c_v+16
 .byte   W02
 .byte   BEND , c_v+15
 .byte   W01
 .byte   BEND , c_v+12
 .byte   W01
 .byte   BEND , c_v+11
 .byte   W01
 .byte   BEND , c_v+8
 .byte   W01
 .byte   BEND , c_v+7
 .byte   W01
 .byte   BEND , c_v+5
 .byte   W02
 .byte   BEND , c_v+3
 .byte   W01
 .byte   BEND , c_v+2
 .byte   W02
 .byte   BEND , c_v+0
 .byte   W30
@  #07 @060   ----------------------------------------
 .byte   W48
 .byte   W02
 .byte   N30 ,Cn3 ,v098 ,gtp1
 .byte   W13
 .byte   BEND , c_v+1
 .byte   W01
 .byte   BEND , c_v+4
 .byte   W02
 .byte   BEND , c_v+11
 .byte   W01
 .byte   BEND , c_v+13
 .byte   W01
 .byte   BEND , c_v+18
 .byte   W02
 .byte   BEND , c_v+23
 .byte   W01
 .byte   BEND , c_v+26
 .byte   W01
 .byte   BEND , c_v+31
 .byte   W01
 .byte   BEND , c_v+34
 .byte   W01
 .byte   BEND , c_v+35
 .byte   W01
 .byte   BEND , c_v+39
 .byte   W01
 .byte   BEND , c_v+42
 .byte   W01
 .byte   BEND , c_v+46
 .byte   W02
 .byte   BEND , c_v+48
 .byte   W04
 .byte   BEND , c_v+46
 .byte   W02
 .byte   BEND , c_v+44
 .byte   W03
 .byte   BEND , c_v+43
 .byte   W01
 .byte   BEND , c_v+41
 .byte   W01
 .byte   BEND , c_v+39
 .byte   W02
 .byte   BEND , c_v+33
 .byte   W01
 .byte   BEND , c_v+30
 .byte   W01
 .byte   BEND , c_v+28
 .byte   W01
 .byte   BEND , c_v+24
 .byte   W01
@  #07 @061   ----------------------------------------
 .byte   BEND , c_v+21
 .byte   W01
 .byte   BEND , c_v+20
 .byte   W01
 .byte   BEND , c_v+18
 .byte   W01
 .byte   BEND , c_v+15
 .byte   W01
 .byte   BEND , c_v+12
 .byte   W02
 .byte   BEND , c_v+10
 .byte   W01
 .byte   BEND , c_v+7
 .byte   W01
 .byte   BEND , c_v+5
 .byte   W02
 .byte   BEND , c_v+3
 .byte   W01
 .byte   BEND , c_v+1
 .byte   W01
 .byte   BEND , c_v+0
 .byte   W66
 .byte   N24 ,Cn3 ,v114 ,gtp2
 .byte   W11
 .byte   BEND , c_v+1
 .byte   W01
 .byte   BEND , c_v+4
 .byte   W01
 .byte   BEND , c_v+6
 .byte   W01
 .byte   BEND , c_v+13
 .byte   W01
 .byte   BEND , c_v+17
 .byte   W01
 .byte   BEND , c_v+22
 .byte   W01
 .byte   BEND , c_v+25
 .byte   W01
@  #07 @062   ----------------------------------------
 .byte   BEND , c_v+30
 .byte   W01
 .byte   BEND , c_v+34
 .byte   W01
 .byte   BEND , c_v+38
 .byte   W02
 .byte   BEND , c_v+44
 .byte   W01
 .byte   BEND , c_v+46
 .byte   W01
 .byte   BEND , c_v+49
 .byte   W02
 .byte   BEND , c_v+51
 .byte   W03
 .byte   BEND , c_v+49
 .byte   W01
 .byte   BEND , c_v+43
 .byte   W01
 .byte   BEND , c_v+40
 .byte   W01
 .byte   BEND , c_v+34
 .byte   W01
 .byte   BEND , c_v+33
 .byte   W01
 .byte   BEND , c_v+30
 .byte   W02
 .byte   BEND , c_v+28
 .byte   W01
 .byte   BEND , c_v+25
 .byte   W01
 .byte   BEND , c_v+24
 .byte   W01
 .byte   BEND , c_v+22
 .byte   W01
 .byte   BEND , c_v+20
 .byte   W01
 .byte   BEND , c_v+17
 .byte   W01
 .byte   BEND , c_v+16
 .byte   W01
 .byte   BEND , c_v+13
 .byte   W02
 .byte   BEND , c_v+11
 .byte   W01
 .byte   BEND , c_v+8
 .byte   W01
 .byte   BEND , c_v+7
 .byte   W01
 .byte   BEND , c_v+5
 .byte   W02
 .byte   BEND , c_v+3
 .byte   W02
 .byte   BEND , c_v+1
 .byte   W01
 .byte   BEND , c_v+0
 .byte   W60
 .byte   W01
@  #07 @063   ----------------------------------------
 .byte   W09
 .byte   N28 ,Cn3 ,v101
 .byte   W12
 .byte   BEND , c_v+1
 .byte   W01
 .byte   BEND , c_v+4
 .byte   W01
 .byte   BEND , c_v+7
 .byte   W01
 .byte   BEND , c_v+14
 .byte   W01
 .byte   BEND , c_v+17
 .byte   W01
 .byte   BEND , c_v+24
 .byte   W01
 .byte   BEND , c_v+27
 .byte   W01
 .byte   BEND , c_v+33
 .byte   W01
 .byte   BEND , c_v+35
 .byte   W01
 .byte   BEND , c_v+41
 .byte   W01
 .byte   BEND , c_v+44
 .byte   W01
 .byte   BEND , c_v+46
 .byte   W01
 .byte   BEND , c_v+49
 .byte   W01
 .byte   BEND , c_v+53
 .byte   W02
 .byte   BEND , c_v+56
 .byte   W05
 .byte   BEND , c_v+53
 .byte   W01
 .byte   BEND , c_v+47
 .byte   W01
 .byte   BEND , c_v+44
 .byte   W01
 .byte   BEND , c_v+39
 .byte   W01
 .byte   BEND , c_v+38
 .byte   W01
 .byte   BEND , c_v+32
 .byte   W01
 .byte   BEND , c_v+29
 .byte   W01
 .byte   BEND , c_v+24
 .byte   W02
 .byte   BEND , c_v+21
 .byte   W01
 .byte   BEND , c_v+19
 .byte   W01
 .byte   BEND , c_v+15
 .byte   W01
 .byte   BEND , c_v+13
 .byte   W01
 .byte   BEND , c_v+11
 .byte   W01
 .byte   BEND , c_v+10
 .byte   W02
 .byte   BEND , c_v+6
 .byte   W01
 .byte   BEND , c_v+4
 .byte   W01
 .byte   BEND , c_v+2
 .byte   W02
 .byte   BEND , c_v+0
 .byte   W32
 .byte   W03
@  #07 @064   ----------------------------------------
 .byte   W68
 .byte   W01
 .byte   TIE ,Cn3 ,v098
 .byte   W07
 .byte   BEND , c_v+1
 .byte   W01
 .byte   BEND , c_v+3
 .byte   W01
 .byte   BEND , c_v+7
 .byte   W01
 .byte   BEND , c_v+11
 .byte   W01
 .byte   BEND , c_v+16
 .byte   W01
 .byte   BEND , c_v+19
 .byte   W01
 .byte   BEND , c_v+23
 .byte   W01
 .byte   BEND , c_v+26
 .byte   W01
 .byte   BEND , c_v+31
 .byte   W01
 .byte   BEND , c_v+34
 .byte   W01
 .byte   BEND , c_v+36
 .byte   W01
 .byte   BEND , c_v+38
 .byte   W01
 .byte   BEND , c_v+40
 .byte   W05
 .byte   BEND , c_v+38
 .byte   W01
 .byte   BEND , c_v+35
 .byte   W02
@  #07 @065   ----------------------------------------
 .byte   BEND , c_v+31
 .byte   W02
 .byte   BEND , c_v+27
 .byte   W02
 .byte   BEND , c_v+25
 .byte   W01
 .byte   BEND , c_v+22
 .byte   W01
 .byte   BEND , c_v+20
 .byte   W01
 .byte   BEND , c_v+19
 .byte   W02
 .byte   BEND , c_v+17
 .byte   W02
 .byte   BEND , c_v+15
 .byte   W01
 .byte   BEND , c_v+12
 .byte   W02
 .byte   BEND , c_v+10
 .byte   W01
 .byte   BEND , c_v+7
 .byte   W02
 .byte   BEND , c_v+5
 .byte   W02
 .byte   BEND , c_v+3
 .byte   W01
 .byte   BEND , c_v+1
 .byte   W02
 .byte   BEND , c_v+0
 .byte   W30
 .byte   BEND , c_v-1
 .byte   W02
 .byte   BEND , c_v-4
 .byte   W02
 .byte   BEND , c_v-5
 .byte   W01
 .byte   BEND , c_v-7
 .byte   W02
 .byte   BEND , c_v-9
 .byte   W02
 .byte   BEND , c_v-11
 .byte   W01
 .byte   BEND , c_v-12
 .byte   W02
 .byte   BEND , c_v-14
 .byte   W02
 .byte   BEND , c_v-16
 .byte   W01
 .byte   BEND , c_v-18
 .byte   W02
 .byte   BEND , c_v-20
 .byte   W01
 .byte   BEND , c_v-21
 .byte   W02
 .byte   BEND , c_v-23
 .byte   W02
 .byte   BEND , c_v-25
 .byte   W01
 .byte   BEND , c_v-28
 .byte   W01
 .byte   BEND , c_v-30
 .byte   W01
 .byte   EOT
 .byte   W01
 .byte   BEND , c_v-33
 .byte   W02
 .byte   BEND , c_v-34
 .byte   W01
 .byte   BEND , c_v-36
 .byte   W01
 .byte   BEND , c_v-38
 .byte   W02
 .byte   BEND , c_v-40
 .byte   W02
 .byte   BEND , c_v-42
 .byte   W01
 .byte   BEND , c_v-44
 .byte   W01
 .byte   BEND , c_v-47
 .byte   W04
 .byte   BEND , c_v-49
 .byte   W04
@  #07 @066   ----------------------------------------
 .byte   BEND , c_v-50
 .byte   W17
 .byte   BEND , c_v-49
 .byte   W04
 .byte   BEND , c_v-47
 .byte   W02
 .byte   BEND , c_v-44
 .byte   W03
 .byte   BEND , c_v-42
 .byte   W03
 .byte   BEND , c_v-40
 .byte   W03
 .byte   BEND , c_v-39
 .byte   W01
 .byte   BEND , c_v-37
 .byte   W03
 .byte   BEND , c_v-35
 .byte   W04
 .byte   BEND , c_v-33
 .byte   W02
 .byte   BEND , c_v-31
 .byte   W04
 .byte   BEND , c_v-29
 .byte   W01
 .byte   BEND , c_v-27
 .byte   W01
 .byte   BEND , c_v-24
 .byte   W01
 .byte   BEND , c_v-22
 .byte   W01
 .byte   BEND , c_v-20
 .byte   W02
 .byte   BEND , c_v-18
 .byte   W01
 .byte   BEND , c_v-16
 .byte   W01
 .byte   BEND , c_v-14
 .byte   W06
 .byte   BEND , c_v-12
 .byte   W08
 .byte   BEND , c_v-11
 .byte   W02
 .byte   BEND , c_v-9
 .byte   W02
 .byte   BEND , c_v-7
 .byte   W01
 .byte   BEND , c_v-5
 .byte   W01
 .byte   BEND , c_v-4
 .byte   W02
 .byte   BEND , c_v-2
 .byte   W04
 .byte   BEND , c_v+0
 .byte   W16
@  #07 @067   ----------------------------------------
 .byte   W96
@  #07 @068   ----------------------------------------
 .byte   W01
 .byte   TIE ,As3 ,v078
 .byte   W09
 .byte   BEND , c_v+12
 .byte   W01
 .byte   BEND , c_v+17
 .byte   W01
 .byte   BEND , c_v+26
 .byte   W01
 .byte   BEND , c_v+30
 .byte   W01
 .byte   BEND , c_v+33
 .byte   W01
 .byte   BEND , c_v+34
 .byte   W03
 .byte   BEND , c_v+31
 .byte   W01
 .byte   BEND , c_v+28
 .byte   W01
 .byte   BEND , c_v+19
 .byte   W01
 .byte   BEND , c_v+17
 .byte   W02
 .byte   BEND , c_v+15
 .byte   W01
 .byte   BEND , c_v+12
 .byte   W01
 .byte   BEND , c_v+11
 .byte   W01
 .byte   BEND , c_v+7
 .byte   W02
 .byte   BEND , c_v+4
 .byte   W01
 .byte   BEND , c_v+3
 .byte   W01
 .byte   BEND , c_v+1
 .byte   W05
 .byte   BEND , c_v+6
 .byte   W01
 .byte   BEND , c_v+12
 .byte   W01
 .byte   BEND , c_v+17
 .byte   W01
 .byte   BEND , c_v+21
 .byte   W03
 .byte   BEND , c_v+19
 .byte   W01
 .byte   BEND , c_v+12
 .byte   W01
 .byte   BEND , c_v+8
 .byte   W01
 .byte   BEND , c_v+5
 .byte   W02
 .byte   BEND , c_v+3
 .byte   W01
 .byte   BEND , c_v+2
 .byte   W03
 .byte   BEND , c_v+3
 .byte   W01
 .byte   BEND , c_v+5
 .byte   W01
 .byte   BEND , c_v+14
 .byte   W01
 .byte   BEND , c_v+18
 .byte   W01
 .byte   BEND , c_v+24
 .byte   W01
 .byte   BEND , c_v+26
 .byte   W03
 .byte   BEND , c_v+20
 .byte   W01
 .byte   BEND , c_v+9
 .byte   W01
 .byte   BEND , c_v+4
 .byte   W01
 .byte   BEND , c_v+2
 .byte   W01
 .byte   BEND , c_v+0
 .byte   W04
 .byte   BEND , c_v+4
 .byte   W01
 .byte   BEND , c_v+8
 .byte   W01
 .byte   BEND , c_v+17
 .byte   W01
 .byte   BEND , c_v+20
 .byte   W01
 .byte   BEND , c_v+22
 .byte   W02
 .byte   BEND , c_v+15
 .byte   W01
 .byte   BEND , c_v+9
 .byte   W01
 .byte   BEND , c_v+4
 .byte   W01
 .byte   BEND , c_v+0
 .byte   W21
@  #07 @069   ----------------------------------------
 .byte   W05
 .byte   BEND , c_v-5
 .byte   W01
 .byte   BEND , c_v-27
 .byte   W01
 .byte   BEND , c_v-34
 .byte   W01
 .byte   BEND , c_v-43
 .byte   W02
 .byte   BEND , c_v-41
 .byte   W01
 .byte   EOT
 .byte   BEND , c_v-39
 .byte   W01
 .byte   BEND , c_v-32
 .byte   W01
 .byte   BEND , c_v-27
 .byte   W01
 .byte   BEND , c_v-20
 .byte   W01
 .byte   BEND , c_v-17
 .byte   W01
 .byte   BEND , c_v-14
 .byte   W02
 .byte   BEND , c_v-9
 .byte   W02
 .byte   BEND , c_v-6
 .byte   W01
 .byte   BEND , c_v-2
 .byte   W01
 .byte   BEND , c_v+0
 .byte   W72
 .byte   W02
@  #07 @070   ----------------------------------------
 .byte   W24
 .byte   W02
 .byte   N44 ,As3 ,v088 ,gtp2
 .byte   W07
 .byte   BEND , c_v+1
 .byte   W01
 .byte   BEND , c_v+8
 .byte   W01
 .byte   BEND , c_v+12
 .byte   W01
 .byte   BEND , c_v+13
 .byte   W02
 .byte   BEND , c_v+12
 .byte   W01
 .byte   BEND , c_v+8
 .byte   W01
 .byte   BEND , c_v+2
 .byte   W01
 .byte   BEND , c_v+0
 .byte   W24
 .byte   W01
 .byte   BEND , c_v-4
 .byte   W01
 .byte   BEND , c_v-9
 .byte   W01
 .byte   BEND , c_v-18
 .byte   W01
 .byte   BEND , c_v-22
 .byte   W01
 .byte   BEND , c_v-26
 .byte   W01
 .byte   BEND , c_v-31
 .byte   W05
 .byte   BEND , c_v-27
 .byte   W01
 .byte   BEND , c_v-24
 .byte   W01
 .byte   BEND , c_v-18
 .byte   W01
 .byte   BEND , c_v-17
 .byte   W01
 .byte   BEND , c_v-13
 .byte   W02
 .byte   BEND , c_v-9
 .byte   W02
 .byte   BEND , c_v-7
 .byte   W01
 .byte   BEND , c_v-4
 .byte   W01
 .byte   BEND , c_v-1
 .byte   W01
 .byte   BEND , c_v+0
 .byte   W09
@  #07 @071   ----------------------------------------
 .byte   W96
@  #07 @072   ----------------------------------------
 .byte   W96
@  #07 @073   ----------------------------------------
 .byte   W96
@  #07 @074   ----------------------------------------
 .byte   W96
@  #07 @075   ----------------------------------------
 .byte   W96
@  #07 @076   ----------------------------------------
 .byte   W06
 .byte   N06 ,Cn4
 .byte   W11
 .byte   Cn5 ,v095
 .byte   W11
 .byte   TIE ,As4 ,v073
 .byte   W68
@  #07 @077   ----------------------------------------
 .byte   W96
@  #07 @078   ----------------------------------------
 .byte   W96
@  #07 @079   ----------------------------------------
 .byte   W32
 .byte   W02
 .byte   BEND , c_v-1
 .byte   W02
 .byte   BEND , c_v-2
 .byte   W01
 .byte   BEND , c_v-4
 .byte   W02
 .byte   BEND , c_v-7
 .byte   W02
 .byte   BEND , c_v-8
 .byte   W01
 .byte   BEND , c_v-11
 .byte   W02
 .byte   BEND , c_v-14
 .byte   W01
 .byte   BEND , c_v-15
 .byte   W01
 .byte   BEND , c_v-17
 .byte   W02
 .byte   BEND , c_v-20
 .byte   W01
 .byte   BEND , c_v-22
 .byte   W01
 .byte   BEND , c_v-25
 .byte   W01
 .byte   BEND , c_v-27
 .byte   W01
 .byte   BEND , c_v-30
 .byte   W01
 .byte   BEND , c_v-33
 .byte   W02
 .byte   BEND , c_v-36
 .byte   W01
 .byte   BEND , c_v-39
 .byte   W01
 .byte   BEND , c_v-41
 .byte   W02
 .byte   EOT
 .byte   BEND , c_v-46
 .byte   W01
 .byte   BEND , c_v-48
 .byte   W02
 .byte   BEND , c_v-50
 .byte   W02
 .byte   BEND , c_v-52
 .byte   W02
 .byte   BEND , c_v-54
 .byte   W03
 .byte   BEND , c_v-56
 .byte   W03
 .byte   BEND , c_v-57
 .byte   W09
 .byte   BEND , c_v-56
 .byte   W01
 .byte   BEND , c_v-52
 .byte   W01
 .byte   BEND , c_v-50
 .byte   W01
 .byte   BEND , c_v-46
 .byte   W01
 .byte   BEND , c_v-42
 .byte   W01
 .byte   BEND , c_v-38
 .byte   W01
 .byte   BEND , c_v-36
 .byte   W01
 .byte   BEND , c_v-33
 .byte   W01
 .byte   BEND , c_v-31
 .byte   W01
 .byte   BEND , c_v-27
 .byte   W01
 .byte   BEND , c_v-24
 .byte   W01
 .byte   BEND , c_v-23
 .byte   W01
 .byte   BEND , c_v-20
 .byte   W02
 .byte   BEND , c_v-15
 .byte   W01
@  #07 @080   ----------------------------------------
 .byte   BEND , c_v-13
 .byte   W01
 .byte   BEND , c_v-11
 .byte   W01
 .byte   BEND , c_v-8
 .byte   W01
 .byte   BEND , c_v-6
 .byte   W01
 .byte   BEND , c_v-4
 .byte   W01
 .byte   BEND , c_v-2
 .byte   W01
 .byte   BEND , c_v+0
 .byte   W28
 .byte   N06 ,Cn4 ,v087
 .byte   W09
 .byte   N07 ,As4 ,v085
 .byte   W11
 .byte   TIE ,An4 ,v086
 .byte   W42
@  #07 @081   ----------------------------------------
 .byte   W96
@  #07 @082   ----------------------------------------
 .byte   W40
 .byte   W01
 .byte   EOT
 .byte   W06
 .byte   N07 ,Cn4
 .byte   W11
 .byte   An4 ,v078
 .byte   W10
 .byte   TIE ,Gs4 ,v087
 .byte   W28
@  #07 @083   ----------------------------------------
 .byte   W78
 .byte   W01
 .byte   BEND , c_v+1
 .byte   W01
 .byte   BEND , c_v+3
 .byte   W02
 .byte   BEND , c_v+5
 .byte   W01
 .byte   BEND , c_v+7
 .byte   W02
 .byte   BEND , c_v+10
 .byte   W01
 .byte   BEND , c_v+13
 .byte   W01
 .byte   BEND , c_v+15
 .byte   W04
 .byte   BEND , c_v+13
 .byte   W01
 .byte   BEND , c_v+11
 .byte   W02
 .byte   BEND , c_v+8
 .byte   W01
 .byte   BEND , c_v+6
 .byte   W01
@  #07 @084   ----------------------------------------
 .byte   BEND , c_v+4
 .byte   W02
 .byte   BEND , c_v+2
 .byte   W02
 .byte   BEND , c_v+0
 .byte   W56
 .byte   EOT
 .byte   W04
 .byte   N12 ,Gs4 ,v092
 .byte   W13
 .byte   N40 ,Ds4 ,v079
 .byte   W19
@  #07 @085   ----------------------------------------
 .byte   W21
 .byte   TIE ,Gn4 ,v092
 .byte   W11
 .byte   BEND , c_v+6
 .byte   W01
 .byte   BEND , c_v+12
 .byte   W01
 .byte   BEND , c_v+19
 .byte   W02
 .byte   BEND , c_v+20
 .byte   W02
 .byte   BEND , c_v+17
 .byte   W01
 .byte   BEND , c_v+13
 .byte   W01
 .byte   BEND , c_v+11
 .byte   W01
 .byte   BEND , c_v+6
 .byte   W02
 .byte   BEND , c_v+3
 .byte   W01
 .byte   BEND , c_v+1
 .byte   W01
 .byte   BEND , c_v+0
 .byte   W48
 .byte   W03
@  #07 @086   ----------------------------------------
 .byte   W96
@  #07 @087   ----------------------------------------
 .byte   W84
 .byte   BEND , c_v-1
 .byte   W02
 .byte   BEND , c_v-2
 .byte   W04
 .byte   BEND , c_v-4
 .byte   W02
 .byte   BEND , c_v-7
 .byte   W02
 .byte   BEND , c_v-8
 .byte   W02
@  #07 @088   ----------------------------------------
 .byte   BEND , c_v-10
 .byte   W01
 .byte   BEND , c_v-12
 .byte   W02
 .byte   BEND , c_v-14
 .byte   W02
 .byte   BEND , c_v-15
 .byte   W01
 .byte   BEND , c_v-17
 .byte   W02
 .byte   BEND , c_v-19
 .byte   W04
 .byte   BEND , c_v-21
 .byte   W01
 .byte   BEND , c_v-23
 .byte   W01
 .byte   BEND , c_v-24
 .byte   W02
 .byte   BEND , c_v-26
 .byte   W01
 .byte   BEND , c_v-28
 .byte   W02
 .byte   BEND , c_v-30
 .byte   W02
 .byte   BEND , c_v-32
 .byte   W03
 .byte   BEND , c_v-34
 .byte   W02
 .byte   BEND , c_v-36
 .byte   W02
 .byte   BEND , c_v-37
 .byte   W02
 .byte   BEND , c_v-39
 .byte   W01
 .byte   BEND , c_v-41
 .byte   W01
 .byte   BEND , c_v-43
 .byte   W02
 .byte   BEND , c_v-44
 .byte   W02
 .byte   BEND , c_v-47
 .byte   W02
 .byte   BEND , c_v-49
 .byte   W03
 .byte   BEND , c_v-50
 .byte   W02
 .byte   BEND , c_v-52
 .byte   W02
 .byte   BEND , c_v-54
 .byte   W02
 .byte   EOT
 .byte   W01
 .byte   BEND , c_v-56
 .byte   W03
 .byte   BEND , c_v-57
 .byte   W03
 .byte   BEND , c_v-59
 .byte   W02
 .byte   BEND , c_v-62
 .byte   W02
 .byte   BEND , c_v-63
 .byte   W17
 .byte   BEND , c_v-64
 .byte   W04
 .byte   BEND , c_v-63
 .byte   W01
 .byte   BEND , c_v-60
 .byte   W01
 .byte   BEND , c_v-57
 .byte   W02
 .byte   BEND , c_v-50
 .byte   W01
 .byte   BEND , c_v-47
 .byte   W01
 .byte   BEND , c_v-40
 .byte   W01
 .byte   BEND , c_v-37
 .byte   W01
 .byte   BEND , c_v-33
 .byte   W01
 .byte   BEND , c_v-30
 .byte   W01
 .byte   BEND , c_v-27
 .byte   W01
 .byte   BEND , c_v-22
 .byte   W01
 .byte   BEND , c_v-20
 .byte   W01
 .byte   BEND , c_v-16
 .byte   W01
 .byte   BEND , c_v-14
 .byte   W01
 .byte   BEND , c_v-9
 .byte   W01
 .byte   BEND , c_v-8
 .byte   W01
@  #07 @089   ----------------------------------------
 .byte   BEND , c_v-6
 .byte   W01
 .byte   BEND , c_v-4
 .byte   W01
 .byte   BEND , c_v-1
 .byte   W01
 .byte   BEND , c_v+0
 .byte   W80
 .byte   W03
 .byte   N76 ,As3 ,v048
 .byte   W10
@  #07 @090   ----------------------------------------
 .byte   W28
 .byte   BEND , c_v-1
 .byte   W02
 .byte   BEND , c_v-4
 .byte   W01
 .byte   BEND , c_v-5
 .byte   W01
 .byte   BEND , c_v-7
 .byte   W03
 .byte   BEND , c_v-9
 .byte   W01
 .byte   BEND , c_v-11
 .byte   W01
 .byte   BEND , c_v-12
 .byte   W02
 .byte   BEND , c_v-15
 .byte   W01
 .byte   BEND , c_v-17
 .byte   W02
 .byte   BEND , c_v-18
 .byte   W02
 .byte   BEND , c_v-21
 .byte   W01
 .byte   BEND , c_v-24
 .byte   W01
 .byte   BEND , c_v-26
 .byte   W01
 .byte   BEND , c_v-28
 .byte   W01
 .byte   BEND , c_v-30
 .byte   W01
 .byte   BEND , c_v-33
 .byte   W01
 .byte   BEND , c_v-35
 .byte   W01
 .byte   BEND , c_v-37
 .byte   W01
 .byte   BEND , c_v-39
 .byte   W02
 .byte   BEND , c_v-41
 .byte   W01
 .byte   BEND , c_v-44
 .byte   W01
 .byte   BEND , c_v-46
 .byte   W02
 .byte   BEND , c_v-48
 .byte   W02
 .byte   BEND , c_v-50
 .byte   W02
 .byte   BEND , c_v-52
 .byte   W01
 .byte   BEND , c_v-54
 .byte   W01
 .byte   BEND , c_v-56
 .byte   W02
 .byte   BEND , c_v-58
 .byte   W02
 .byte   BEND , c_v-60
 .byte   W01
 .byte   BEND , c_v-62
 .byte   W02
 .byte   BEND , c_v-64
 .byte   W07
 .byte   BEND , c_v-63
 .byte   W01
 .byte   BEND , c_v-60
 .byte   W01
 .byte   BEND , c_v-57
 .byte   W01
 .byte   BEND , c_v-50
 .byte   W01
 .byte   BEND , c_v-48
 .byte   W01
 .byte   BEND , c_v-46
 .byte   W01
 .byte   BEND , c_v-40
 .byte   W01
 .byte   BEND , c_v-37
 .byte   W01
 .byte   BEND , c_v-30
 .byte   W01
 .byte   BEND , c_v-24
 .byte   W01
 .byte   BEND , c_v-15
 .byte   W01
 .byte   BEND , c_v-10
 .byte   W01
 .byte   BEND , c_v-2
 .byte   W01
 .byte   BEND , c_v+0
 .byte   W04
 .byte   N80 ,Ds4 ,v078 ,gtp3
 .byte   W01
@  #07 @091   ----------------------------------------
 .byte   W40
 .byte   W01
 .byte   BEND , c_v-2
 .byte   W03
 .byte   BEND , c_v-4
 .byte   W03
 .byte   BEND , c_v-6
 .byte   W01
 .byte   BEND , c_v-8
 .byte   W02
 .byte   BEND , c_v-9
 .byte   W02
 .byte   BEND , c_v-11
 .byte   W03
 .byte   BEND , c_v-13
 .byte   W03
 .byte   BEND , c_v-15
 .byte   W01
 .byte   BEND , c_v-17
 .byte   W02
 .byte   BEND , c_v-19
 .byte   W02
 .byte   BEND , c_v-21
 .byte   W02
 .byte   BEND , c_v-23
 .byte   W01
 .byte   BEND , c_v-25
 .byte   W01
 .byte   BEND , c_v-27
 .byte   W01
 .byte   BEND , c_v-28
 .byte   W01
 .byte   BEND , c_v-31
 .byte   W02
 .byte   BEND , c_v-33
 .byte   W01
 .byte   BEND , c_v-35
 .byte   W02
 .byte   BEND , c_v-37
 .byte   W01
 .byte   BEND , c_v-39
 .byte   W02
 .byte   BEND , c_v-41
 .byte   W01
 .byte   BEND , c_v-44
 .byte   W02
 .byte   BEND , c_v-46
 .byte   W02
 .byte   BEND , c_v-48
 .byte   W03
 .byte   BEND , c_v-50
 .byte   W03
 .byte   BEND , c_v-52
 .byte   W03
 .byte   BEND , c_v-53
 .byte   W05
@  #07 @092   ----------------------------------------
 .byte   BEND , c_v-55
 .byte   W04
 .byte   BEND , c_v-52
 .byte   W02
 .byte   BEND , c_v-49
 .byte   W01
 .byte   BEND , c_v-47
 .byte   W01
 .byte   BEND , c_v-44
 .byte   W01
 .byte   BEND , c_v-41
 .byte   W02
 .byte   BEND , c_v-39
 .byte   W01
 .byte   BEND , c_v-36
 .byte   W01
 .byte   BEND , c_v-34
 .byte   W03
 .byte   BEND , c_v-30
 .byte   W01
 .byte   BEND , c_v-28
 .byte   W01
 .byte   BEND , c_v-23
 .byte   W02
 .byte   BEND , c_v-18
 .byte   W01
 .byte   BEND , c_v-17
 .byte   W01
 .byte   BEND , c_v-13
 .byte   W01
 .byte   BEND , c_v-11
 .byte   W01
 .byte   BEND , c_v-5
 .byte   W01
 .byte   BEND , c_v-2
 .byte   W01
 .byte   BEND , c_v+0
 .byte   W08
 .byte   TIE ,Cn4 ,v081
 .byte   W60
 .byte   W02
@  #07 @093   ----------------------------------------
 .byte   W30
 .byte   BEND , c_v+2
 .byte   W01
 .byte   BEND , c_v+4
 .byte   W01
 .byte   BEND , c_v+10
 .byte   W01
 .byte   BEND , c_v+12
 .byte   W01
 .byte   BEND , c_v+13
 .byte   W01
 .byte   BEND , c_v+15
 .byte   W01
 .byte   BEND , c_v+17
 .byte   W01
 .byte   BEND , c_v+19
 .byte   W01
 .byte   BEND , c_v+21
 .byte   W01
 .byte   BEND , c_v+22
 .byte   W03
 .byte   BEND , c_v+19
 .byte   W01
 .byte   BEND , c_v+13
 .byte   W01
 .byte   BEND , c_v+10
 .byte   W01
 .byte   BEND , c_v+8
 .byte   W01
 .byte   BEND , c_v+3
 .byte   W01
 .byte   BEND , c_v+0
 .byte   W48
 .byte   W01
@  #07 @094   ----------------------------------------
 .byte   W44
 .byte   W01
 .byte   BEND , c_v-5
 .byte   W01
 .byte   BEND , c_v-12
 .byte   W01
 .byte   BEND , c_v-23
 .byte   W01
 .byte   BEND , c_v-29
 .byte   W01
 .byte   BEND , c_v-34
 .byte   W01
 .byte   BEND , c_v-36
 .byte   W02
 .byte   EOT
 .byte   W14
 .byte   BEND , c_v-34
 .byte   W01
 .byte   BEND , c_v-30
 .byte   W01
 .byte   BEND , c_v-26
 .byte   W01
 .byte   BEND , c_v-24
 .byte   W01
 .byte   BEND , c_v-23
 .byte   W01
 .byte   BEND , c_v-21
 .byte   W01
 .byte   BEND , c_v-17
 .byte   W01
 .byte   BEND , c_v-15
 .byte   W01
 .byte   BEND , c_v-12
 .byte   W02
 .byte   BEND , c_v-10
 .byte   W02
 .byte   BEND , c_v-8
 .byte   W02
 .byte   BEND , c_v-6
 .byte   W01
 .byte   BEND , c_v-4
 .byte   W01
 .byte   BEND , c_v-2
 .byte   W02
 .byte   BEND , c_v+0
 .byte   W12
@  #07 @095   ----------------------------------------
 .byte   W32
 .byte   W01
 .byte   TIE ,Cn4 ,v064
 .byte   W13
 .byte   BEND , c_v+4
 .byte   W01
 .byte   BEND , c_v+6
 .byte   W01
 .byte   BEND , c_v+10
 .byte   W04
 .byte   BEND , c_v+5
 .byte   W01
 .byte   BEND , c_v+2
 .byte   W01
 .byte   BEND , c_v+0
 .byte   W42
@  #07 @096   ----------------------------------------
 .byte   W52
 .byte   W01
 .byte   BEND , c_v-1
 .byte   W01
 .byte   BEND , c_v-8
 .byte   W01
 .byte   BEND , c_v-14
 .byte   W01
 .byte   BEND , c_v-24
 .byte   W01
 .byte   BEND , c_v-30
 .byte   W01
 .byte   BEND , c_v-37
 .byte   W01
 .byte   BEND , c_v-39
 .byte   W01
 .byte   BEND , c_v-41
 .byte   W05
 .byte   EOT
 .byte   W03
 .byte   BEND , c_v-38
 .byte   W01
 .byte   BEND , c_v-36
 .byte   W01
 .byte   BEND , c_v-29
 .byte   W01
 .byte   BEND , c_v-24
 .byte   W01
 .byte   BEND , c_v-14
 .byte   W01
 .byte   BEND , c_v-9
 .byte   W01
 .byte   BEND , c_v-3
 .byte   W01
 .byte   BEND , c_v-1
 .byte   W01
 .byte   BEND , c_v+0
 .byte   W20
@  #07 @097   ----------------------------------------
 .byte   W96
@  #07 @098   ----------------------------------------
 .byte   W96
@  #07 @099   ----------------------------------------
 .byte   W96
@  #07 @100   ----------------------------------------
 .byte   W96
@  #07 @101   ----------------------------------------
 .byte   W96
@  #07 @102   ----------------------------------------
 .byte   W96
@  #07 @103   ----------------------------------------
 .byte   W96
@  #07 @104   ----------------------------------------
 .byte   W96
@  #07 @105   ----------------------------------------
 .byte   W96
@  #07 @106   ----------------------------------------
 .byte   W96
@  #07 @107   ----------------------------------------
 .byte   W96
@  #07 @108   ----------------------------------------
 .byte   GOTO
  .word Label_01003CD2
@  #07 @109   ----------------------------------------
 .byte   W96
@  #07 @110   ----------------------------------------
 .byte   PATT
  .word Label_548415
@  #07 @111   ----------------------------------------
 .byte   W96
@  #07 @112   ----------------------------------------
 .byte   W13
 .byte   FINE

@**************** Track 8 (Midi-Chn.7) ****************@

song04_008:
@  #08 @000   ----------------------------------------
 .byte   KEYSH , song04_key+0
Label_0100491A:
 .byte   VOICE , 121
 .byte   VOL , 70*song04_mvl/mxv
 .byte   W96
@  #08 @001   ----------------------------------------
 .byte   W96
@  #08 @002   ----------------------------------------
 .byte   W96
@  #08 @003   ----------------------------------------
 .byte   W96
@  #08 @004   ----------------------------------------
 .byte   W96
@  #08 @005   ----------------------------------------
 .byte   W96
@  #08 @006   ----------------------------------------
 .byte   W96
@  #08 @007   ----------------------------------------
 .byte   W96
@  #08 @008   ----------------------------------------
 .byte   W96
@  #08 @009   ----------------------------------------
 .byte   W52
 .byte   N02 ,Dn3 ,v105
 .byte   W04
 .byte   N01 ,Dn3 ,v073
 .byte   W02
 .byte   N02 ,Dn3 ,v061
 .byte   W03
 .byte   N01 ,Dn3 ,v054
 .byte   W03
 .byte   Dn3 ,v043
 .byte   W03
 .byte   Dn3 ,v037
 .byte   W03
 .byte   Dn3 ,v033
 .byte   W02
 .byte   N02 ,Dn3 ,v031
 .byte   W04
 .byte   N01 ,Dn3 ,v039
 .byte   W02
 .byte   N02 ,Dn3 ,v043
 .byte   W03
 .byte   N01 ,Dn3 ,v044
 .byte   W03
 .byte   Dn3 ,v052
 .byte   W03
 .byte   Dn3 ,v060
 .byte   W03
 .byte   Dn3 ,v063
 .byte   W02
 .byte   N02
 .byte   W04
@  #08 @010   ----------------------------------------
 .byte   N01 ,Dn3 ,v075
 .byte   W02
 .byte   N02 ,Dn3 ,v086
 .byte   W03
 .byte   N01 ,Dn3 ,v096
 .byte   W03
 .byte   Dn3 ,v110
 .byte   W03
 .byte   Dn3
 .byte   W03
 .byte   Dn3 ,v115
 .byte   W02
 .byte   N02
 .byte   W04
 .byte   N04 ,En3 ,v058
 .byte   W08
 .byte   En3 ,v092
 .byte   W08
 .byte   N05 ,En3 ,v122
 .byte   W60
@  #08 @011   ----------------------------------------
 .byte   W96
@  #08 @012   ----------------------------------------
 .byte   W96
@  #08 @013   ----------------------------------------
 .byte   W17
 .byte   N07 ,En4 ,v062
 .byte   W24
 .byte   N11 ,En4 ,v046
 .byte   W24
 .byte   W03
 .byte   N09 ,En4 ,v037
 .byte   W15
 .byte   N07 ,Ds4 ,v047
 .byte   W12
 .byte   N06 ,Ds4 ,v049
 .byte   W01
@  #08 @014   ----------------------------------------
 .byte   W11
 .byte   N11 ,Ds4 ,v042
 .byte   W84
 .byte   W01
@  #08 @015   ----------------------------------------
 .byte   W96
@  #08 @016   ----------------------------------------
 .byte   W96
@  #08 @017   ----------------------------------------
 .byte   W96
@  #08 @018   ----------------------------------------
 .byte   W96
@  #08 @019   ----------------------------------------
 .byte   W96
@  #08 @020   ----------------------------------------
 .byte   W68
 .byte   En4 ,v060
 .byte   W28
@  #08 @021   ----------------------------------------
 .byte   W01
 .byte   N15 ,En4 ,v047
 .byte   W32
 .byte   N17 ,En4 ,v032
 .byte   W36
 .byte   W01
 .byte   N15 ,En4 ,v031
 .byte   W24
 .byte   W02
@  #08 @022   ----------------------------------------
 .byte   W28
 .byte   N05 ,Ds4 ,v035
 .byte   W10
 .byte   N04 ,Ds4 ,v056
 .byte   W09
 .byte   N03 ,Ds4 ,v073
 .byte   W07
 .byte   N04 ,Ds4 ,v089
 .byte   W09
 .byte   N08 ,Ds4 ,v100
 .byte   W32
 .byte   W01
@  #08 @023   ----------------------------------------
 .byte   W56
 .byte   N04 ,Ds4 ,v037
 .byte   W08
 .byte   N08 ,Ds4 ,v071
 .byte   W32
@  #08 @024   ----------------------------------------
 .byte   W96
@  #08 @025   ----------------------------------------
 .byte   W96
@  #08 @026   ----------------------------------------
 .byte   W96
@  #08 @027   ----------------------------------------
 .byte   W96
@  #08 @028   ----------------------------------------
 .byte   W96
@  #08 @029   ----------------------------------------
 .byte   W30
 .byte   Dn3 ,v034
 .byte   W17
 .byte   N09 ,Dn3 ,v057
 .byte   W13
 .byte   N08 ,Dn3 ,v059
 .byte   W14
 .byte   N10 ,Dn3 ,v064
 .byte   W16
 .byte   N28 ,Dn3 ,v052
 .byte   W06
@  #08 @030   ----------------------------------------
 .byte   W24
 .byte   W02
 .byte   N10 ,Dn3 ,v027
 .byte   W16
 .byte   N08 ,Dn3 ,v051
 .byte   W14
 .byte   Dn3 ,v059
 .byte   W15
 .byte   N06 ,Dn3 ,v080
 .byte   W14
 .byte   N08 ,Dn3 ,v067
 .byte   W11
@  #08 @031   ----------------------------------------
 .byte   W05
 .byte   N09 ,Dn3 ,v049
 .byte   W19
 .byte   N28 ,Dn3 ,v040 ,gtp1
 .byte   W72
@  #08 @032   ----------------------------------------
 .byte   W96
@  #08 @033   ----------------------------------------
 .byte   W96
@  #08 @034   ----------------------------------------
 .byte   W96
@  #08 @035   ----------------------------------------
 .byte   W96
@  #08 @036   ----------------------------------------
 .byte   W96
@  #08 @037   ----------------------------------------
 .byte   W96
@  #08 @038   ----------------------------------------
 .byte   W96
@  #08 @039   ----------------------------------------
 .byte   W10
 .byte   N06 ,En3 ,v047
 .byte   W11
 .byte   N07 ,En3 ,v054
 .byte   W11
 .byte   N15 ,En3 ,v060
 .byte   W64
@  #08 @040   ----------------------------------------
 .byte   W96
@  #08 @041   ----------------------------------------
 .byte   W72
 .byte   W03
 .byte   N02 ,Ds3 ,v115
 .byte   W04
 .byte   Ds3 ,v058
 .byte   W05
 .byte   Ds3 ,v062
 .byte   W04
 .byte   Ds3 ,v053
 .byte   W04
 .byte   Ds3 ,v048
 .byte   W04
@  #08 @042   ----------------------------------------
 .byte   Ds3 ,v051
 .byte   W04
 .byte   Ds3 ,v052
 .byte   W05
 .byte   Ds3 ,v047
 .byte   W04
 .byte   Ds3 ,v037
 .byte   W05
 .byte   Ds3 ,v046
 .byte   W04
 .byte   Ds3
 .byte   W04
 .byte   Ds3 ,v047
 .byte   W04
 .byte   Ds3 ,v046
 .byte   W04
 .byte   Ds3 ,v043
 .byte   W05
 .byte   Ds3 ,v044
 .byte   W04
 .byte   Ds3 ,v047
 .byte   W05
 .byte   Ds3 ,v042
 .byte   W04
 .byte   Ds3 ,v051
 .byte   W04
 .byte   Ds3 ,v054
 .byte   W04
 .byte   Ds3 ,v057
 .byte   W04
 .byte   Ds3 ,v058
 .byte   W05
 .byte   Ds3 ,v060
 .byte   W04
 .byte   Ds3 ,v069
 .byte   W05
 .byte   Ds3 ,v080
 .byte   W04
 .byte   Ds3 ,v089
 .byte   W04
 .byte   Ds3 ,v100
 .byte   W04
 .byte   Ds3 ,v105
 .byte   W04
 .byte   Ds3 ,v110
 .byte   W02
@  #08 @043   ----------------------------------------
 .byte   W03
 .byte   Ds3
 .byte   W04
 .byte   Ds3
 .byte   W05
 .byte   Ds3 ,v115
 .byte   W04
 .byte   Ds3
 .byte   W04
 .byte   Ds3
 .byte   W04
 .byte   Ds3
 .byte   W04
 .byte   N05 ,Dn3 ,v058
 .byte   W09
 .byte   Dn3 ,v083
 .byte   W09
 .byte   N04 ,Dn3 ,v110
 .byte   W48
 .byte   W02
@  #08 @044   ----------------------------------------
 .byte   W10
 .byte   N05 ,Ds4 ,v046
 .byte   W12
 .byte   N04 ,Ds4 ,v092
 .byte   W10
 .byte   N06 ,Ds4 ,v115
 .byte   W12
 .byte   Ds4 ,v063
 .byte   W13
 .byte   Ds4 ,v045
 .byte   W15
 .byte   N09 ,Ds4 ,v033
 .byte   W19
 .byte   N11 ,Ds4 ,v036
 .byte   W05
@  #08 @045   ----------------------------------------
 .byte   W18
 .byte   N14 ,Ds4 ,v019
 .byte   W30
 .byte   Ds4 ,v021
 .byte   W48
@  #08 @046   ----------------------------------------
 .byte   W96
@  #08 @047   ----------------------------------------
 .byte   W96
@  #08 @048   ----------------------------------------
 .byte   W96
@  #08 @049   ----------------------------------------
 .byte   W96
@  #08 @050   ----------------------------------------
 .byte   W96
@  #08 @051   ----------------------------------------
 .byte   W42
 .byte   N06 ,Ds4 ,v037
 .byte   W10
 .byte   N05 ,Ds4 ,v056
 .byte   W09
 .byte   N04 ,Ds4 ,v064
 .byte   W08
 .byte   Ds4 ,v086
 .byte   W08
 .byte   N03 ,Ds4 ,v089
 .byte   W08
 .byte   Ds4
 .byte   W09
 .byte   N12 ,Ds4 ,v055
 .byte   W02
@  #08 @052   ----------------------------------------
 .byte   W96
@  #08 @053   ----------------------------------------
 .byte   W60
 .byte   W02
 .byte   N05 ,Ds4 ,v045
 .byte   W10
 .byte   N04 ,Ds4 ,v058
 .byte   W09
 .byte   N03 ,Ds4 ,v080
 .byte   W08
 .byte   Ds4
 .byte   W07
@  #08 @054   ----------------------------------------
 .byte   W01
 .byte   N04 ,Ds4 ,v092
 .byte   W09
 .byte   N05 ,Ds4 ,v069
 .byte   W12
 .byte   N14 ,Ds4 ,v052
 .byte   W72
 .byte   W02
@  #08 @055   ----------------------------------------
 .byte   W42
 .byte   W01
 .byte   N04 ,Ds4 ,v048
 .byte   W09
 .byte   N03 ,Ds4 ,v057
 .byte   W08
 .byte   Ds4 ,v083
 .byte   W08
 .byte   N04 ,Ds4 ,v092
 .byte   W09
 .byte   N05 ,Ds4 ,v063
 .byte   W12
 .byte   N06 ,Ds4 ,v045
 .byte   W07
@  #08 @056   ----------------------------------------
 .byte   W06
 .byte   N14 ,Ds4 ,v028
 .byte   W54
 .byte   N04 ,Ds4 ,v045
 .byte   W09
 .byte   N03 ,Ds4 ,v069
 .byte   W08
 .byte   Ds4 ,v086
 .byte   W08
 .byte   Ds4 ,v105
 .byte   W11
@  #08 @057   ----------------------------------------
 .byte   N04 ,Ds4 ,v067
 .byte   W11
 .byte   N06 ,Ds4 ,v044
 .byte   W16
 .byte   N09 ,Ds4 ,v023
 .byte   W60
 .byte   W01
 .byte   N04 ,Ds4 ,v037
 .byte   W08
@  #08 @058   ----------------------------------------
 .byte   W01
 .byte   N03 ,Ds4 ,v058
 .byte   W08
 .byte   Ds4 ,v080
 .byte   W08
 .byte   N04 ,Ds4 ,v092
 .byte   W09
 .byte   N05 ,Ds4 ,v073
 .byte   W11
 .byte   Ds4 ,v050
 .byte   W56
 .byte   W03
@  #08 @059   ----------------------------------------
 .byte   W36
 .byte   N04 ,Ds4 ,v059
 .byte   W09
 .byte   Ds4 ,v083
 .byte   W09
 .byte   Ds4 ,v100
 .byte   W10
 .byte   N06 ,Ds4 ,v057
 .byte   W12
 .byte   Ds4 ,v049
 .byte   W13
 .byte   N16 ,Ds4 ,v034
 .byte   W07
@  #08 @060   ----------------------------------------
 .byte   W68
 .byte   N03 ,Ds4 ,v054
 .byte   W08
 .byte   N04 ,Ds4 ,v075
 .byte   W10
 .byte   Ds4 ,v096
 .byte   W09
 .byte   N05 ,Ds4 ,v073
 .byte   W01
@  #08 @061   ----------------------------------------
 .byte   W09
 .byte   N07 ,Ds4 ,v053
 .byte   W12
 .byte   N22 ,Ds4 ,v041
 .byte   W72
 .byte   W03
@  #08 @062   ----------------------------------------
 .byte   N03 ,Ds4 ,v043
 .byte   W09
 .byte   Ds4 ,v073
 .byte   W08
 .byte   N04 ,Ds4 ,v092
 .byte   W09
 .byte   Ds4
 .byte   W10
 .byte   N05 ,Ds4 ,v060
 .byte   W11
 .byte   N06 ,Ds4 ,v056
 .byte   W13
 .byte   N15 ,Ds4 ,v041
 .byte   W36
@  #08 @063   ----------------------------------------
 .byte   W24
 .byte   W02
 .byte   N04 ,Ds4 ,v045
 .byte   W09
 .byte   Ds4 ,v075
 .byte   W09
 .byte   N05 ,Ds4 ,v096
 .byte   W10
 .byte   N04 ,Ds4 ,v065
 .byte   W10
 .byte   N05 ,Ds4 ,v050
 .byte   W11
 .byte   N15 ,Ds4 ,v035
 .byte   W21
@  #08 @064   ----------------------------------------
 .byte   W90
 .byte   N04 ,Ds4 ,v038
 .byte   W06
@  #08 @065   ----------------------------------------
 .byte   W03
 .byte   Ds4 ,v056
 .byte   W10
 .byte   N05 ,Ds4 ,v100
 .byte   W09
 .byte   Ds4 ,v065
 .byte   W11
 .byte   N07 ,Ds4 ,v049
 .byte   W14
 .byte   Ds4 ,v043
 .byte   W17
 .byte   N14 ,Ds4 ,v037
 .byte   W15
 .byte   N09 ,En4
 .byte   W17
@  #08 @066   ----------------------------------------
 .byte   W05
 .byte   N12
 .byte   W24
 .byte   W03
 .byte   N19 ,En4 ,v021
 .byte   W32
 .byte   W02
 .byte   N24 ,En4 ,v035
 .byte   W30
@  #08 @067   ----------------------------------------
 .byte   W10
 .byte   N22 ,En4 ,v032
 .byte   W80
 .byte   N04 ,Dn3 ,v039
 .byte   W06
@  #08 @068   ----------------------------------------
 .byte   W03
 .byte   N05 ,Dn3 ,v053
 .byte   W10
 .byte   Dn3 ,v054
 .byte   W09
 .byte   N03 ,Dn3 ,v061
 .byte   W08
 .byte   Dn3 ,v080
 .byte   W08
 .byte   N06 ,Dn3 ,v092
 .byte   W11
 .byte   N07 ,En3 ,v061
 .byte   W14
 .byte   N05 ,En3 ,v047
 .byte   W14
 .byte   N08 ,En3 ,v048
 .byte   W15
 .byte   N04 ,Dn3 ,v047
 .byte   W04
@  #08 @069   ----------------------------------------
 .byte   W05
 .byte   Dn3 ,v064
 .byte   W08
 .byte   Dn3 ,v075
 .byte   W09
 .byte   N03 ,Dn3 ,v092
 .byte   W08
 .byte   N09 ,Dn3 ,v096
 .byte   W17
 .byte   N07 ,En3 ,v048
 .byte   W17
 .byte   N08 ,En3 ,v039
 .byte   W19
 .byte   N09 ,En3 ,v035
 .byte   W13
@  #08 @070   ----------------------------------------
 .byte   W04
 .byte   N03 ,Dn3 ,v047
 .byte   W08
 .byte   N04 ,Dn3 ,v067
 .byte   W08
 .byte   Dn3 ,v083
 .byte   W08
 .byte   Dn3 ,v086
 .byte   W08
 .byte   N09 ,Dn3 ,v092
 .byte   W16
 .byte   N08 ,En3 ,v054
 .byte   W16
 .byte   N07 ,En3 ,v049
 .byte   W18
 .byte   N11 ,En3 ,v036
 .byte   W10
@  #08 @071   ----------------------------------------
 .byte   W40
 .byte   N04 ,Ds3 ,v107
 .byte   VOL , 10*song04_mvl/mxv
 .byte   N02 ,Bn4 ,v064
 .byte   N24 ,Fs2 ,v073
 .byte   W09
 .byte   N03 ,En3 ,v079
 .byte   W04
 .byte   Ds3 ,v102
 .byte   W03
 .byte   N02 ,En3 ,v052
 .byte   W02
 .byte   N05 ,En3 ,v078
 .byte   W08
 .byte   N04 ,Ds3 ,v115
 .byte   W05
 .byte   VOL , 12*song04_mvl/mxv
 .byte   W01
 .byte   N03 ,En3 ,v047
 .byte   W03
 .byte   En3 ,v078
 .byte   W08
 .byte   N07 ,En3 ,v066
 .byte   W08
 .byte   N20 ,En3 ,v042
 .byte   W01
 .byte   N02 ,Fs2 ,v074
 .byte   N04 ,Ds3 ,v110
 .byte   W04
@  #08 @072   ----------------------------------------
 .byte   W03
 .byte   VOL , 14*song04_mvl/mxv
 .byte   N02 ,Bn4 ,v058
 .byte   W01
 .byte   N14 ,Fs2 ,v078
 .byte   W17
 .byte   N06 ,En3 ,v100
 .byte   N03 ,Bn4 ,v060
 .byte   W08
 .byte   VOL , 16*song04_mvl/mxv
 .byte   W17
 .byte   N03 ,Bn4 ,v067
 .byte   W01
 .byte   N04 ,Ds3 ,v107
 .byte   N02 ,Fs2 ,v078
 .byte   W05
 .byte   VOL , 18*song04_mvl/mxv
 .byte   W04
 .byte   N24 ,Fs2 ,v066 ,gtp2
 .byte   N03 ,En3 ,v079
 .byte   W04
 .byte   N02 ,Ds3 ,v102
 .byte   W04
 .byte   N07 ,En3 ,v078
 .byte   W09
 .byte   N04 ,Ds3 ,v115
 .byte   W01
 .byte   VOL , 20*song04_mvl/mxv
 .byte   W08
 .byte   N02 ,En3 ,v078
 .byte   W08
 .byte   N07 ,En3 ,v066
 .byte   W04
 .byte   VOL , 22*song04_mvl/mxv
 .byte   W02
@  #08 @073   ----------------------------------------
 .byte   W02
 .byte   N05 ,Ds3 ,v110
 .byte   N03 ,Fs2 ,v078
 .byte   W06
 .byte   Bn4 ,v059
 .byte   W02
 .byte   N17 ,Fs2 ,v066
 .byte   W07
 .byte   VOL , 24*song04_mvl/mxv
 .byte   W03
 .byte   N04 ,En3 ,v100
 .byte   W06
 .byte   Bn4 ,v059
 .byte   W09
 .byte   VOL , 26*song04_mvl/mxv
 .byte   W02
 .byte   N05 ,En3 ,v102
 .byte   W07
 .byte   N03 ,Bn4 ,v064
 .byte   W07
 .byte   VOL , 28*song04_mvl/mxv
 .byte   W03
 .byte   N04 ,Ds3 ,v107
 .byte   N32 ,Fs2 ,v095
 .byte   W09
 .byte   N03 ,En3 ,v079
 .byte   W04
 .byte   VOL , 30*song04_mvl/mxv
 .byte   N02 ,Ds3 ,v102
 .byte   W04
 .byte   N07 ,En3 ,v078
 .byte   W09
 .byte   N04 ,Ds3 ,v115
 .byte   W01
 .byte   VOL , 32*song04_mvl/mxv
 .byte   W07
 .byte   N03 ,En3 ,v078
 .byte   W07
 .byte   VOL , 34*song04_mvl/mxv
 .byte   W01
@  #08 @074   ----------------------------------------
 .byte   W01
 .byte   N07 ,En3 ,v066
 .byte   W08
 .byte   N03 ,Fs2 ,v100
 .byte   W01
 .byte   N04 ,Ds3 ,v110
 .byte   W02
 .byte   VOL , 36*song04_mvl/mxv
 .byte   W04
 .byte   N04 ,Bn4 ,v062
 .byte   W01
 .byte   N23 ,Fs2 ,v070
 .byte   W07
 .byte   VOL , 38*song04_mvl/mxv
 .byte   W11
 .byte   N05 ,En3 ,v100
 .byte   VOL , 40*song04_mvl/mxv
 .byte   W01
 .byte   N02 ,Bn4 ,v066
 .byte   W10
 .byte   VOL , 42*song04_mvl/mxv
 .byte   W10
 .byte   VOL , 44*song04_mvl/mxv
 .byte   W05
 .byte   N04 ,Ds3 ,v107
 .byte   VOL , 45*song04_mvl/mxv
 .byte   N04 ,Fs2 ,v086
 .byte   N04 ,Bn4 ,v070
 .byte   W08
 .byte   N19 ,Fs2 ,v072
 .byte   W01
 .byte   N02 ,En3 ,v079
 .byte   W04
 .byte   Ds3 ,v102
 .byte   W04
 .byte   N06 ,En3 ,v078
 .byte   W09
 .byte   N03 ,Ds3 ,v115
 .byte   W08
 .byte   En3 ,v078
 .byte   W01
@  #08 @075   ----------------------------------------
 .byte   W08
 .byte   N06 ,En3 ,v066
 .byte   W08
 .byte   N05 ,Ds3 ,v110
 .byte   N04 ,Fs2 ,v079
 .byte   W06
 .byte   Bn4 ,v064
 .byte   W02
 .byte   N18 ,Fs2 ,v071
 .byte   W09
 .byte   N05 ,En3 ,v100
 .byte   W08
 .byte   N03 ,Bn4 ,v062
 .byte   W09
 .byte   N05 ,En3 ,v102
 .byte   W09
 .byte   N03 ,Bn4 ,v060
 .byte   W09
 .byte   N04 ,Ds3 ,v107
 .byte   N15 ,Fs2 ,v100
 .byte   W01
 .byte   N04 ,Bn4 ,v067
 .byte   W07
 .byte   N03 ,En3 ,v079
 .byte   W04
 .byte   Ds3 ,v102
 .byte   W05
 .byte   N07 ,En3 ,v078
 .byte   W09
 .byte   N03 ,Ds3 ,v115
 .byte   W02
@  #08 @076   ----------------------------------------
 .byte   W06
 .byte   En3 ,v078
 .byte   W09
 .byte   N07 ,En3 ,v066
 .byte   W08
 .byte   N03 ,Fs2 ,v095
 .byte   W01
 .byte   N04 ,Ds3 ,v110
 .byte   W05
 .byte   N03 ,Bn4 ,v062
 .byte   W02
 .byte   N15 ,Fs2 ,v071
 .byte   W16
 .byte   N05 ,Bn4 ,v062
 .byte   W02
 .byte   En3 ,v100
 .byte   W24
 .byte   W01
 .byte   N02 ,Bn4 ,v070
 .byte   N04 ,Ds3 ,v107
 .byte   N04 ,Fs2 ,v092
 .byte   W09
 .byte   N03 ,En3 ,v079
 .byte   W05
 .byte   N02 ,Ds3 ,v102
 .byte   W04
 .byte   N06 ,En3 ,v078
 .byte   W04
@  #08 @077   ----------------------------------------
 .byte   W04
 .byte   N04 ,Ds3 ,v115
 .byte   W09
 .byte   N03 ,En3 ,v078
 .byte   W09
 .byte   N06 ,En3 ,v066
 .byte   W08
 .byte   N05 ,Ds3 ,v110
 .byte   N04 ,Fs2 ,v079
 .byte   W06
 .byte   N03 ,Bn4 ,v067
 .byte   W02
 .byte   N20 ,Fs2 ,v060
 .byte   W09
 .byte   N04 ,En3 ,v100
 .byte   W08
 .byte   N03 ,Bn4 ,v070
 .byte   W09
 .byte   N05 ,En3 ,v102
 .byte   W17
 .byte   N04 ,Ds3 ,v107
 .byte   W01
 .byte   N18 ,Fs2 ,v110
 .byte   N03 ,Bn4 ,v073
 .byte   W08
 .byte   En3 ,v079
 .byte   W04
 .byte   Ds3 ,v102
 .byte   W02
@  #08 @078   ----------------------------------------
 .byte   W03
 .byte   N06 ,En3 ,v078
 .byte   W09
 .byte   N03 ,Ds3 ,v115
 .byte   W08
 .byte   En3 ,v078
 .byte   W08
 .byte   N07 ,En3 ,v066
 .byte   W09
 .byte   N03 ,Fs2 ,v107
 .byte   N05 ,Ds3 ,v110
 .byte   W05
 .byte   N03 ,Bn4 ,v070
 .byte   W03
 .byte   N19 ,Fs2 ,v072
 .byte   W16
 .byte   N03 ,Bn4 ,v066
 .byte   W01
 .byte   N06 ,En3 ,v100
 .byte   W17
 .byte   N03 ,Bn4 ,v066
 .byte   W09
 .byte   Fs2 ,v107
 .byte   W08
@  #08 @079   ----------------------------------------
 .byte   N19 ,Fs2 ,v070
 .byte   W01
 .byte   N02 ,Bn4 ,v066
 .byte   W08
 .byte   N06 ,En3 ,v092
 .byte   W09
 .byte   N03 ,Bn4 ,v062
 .byte   W09
 .byte   N05 ,En3 ,v102
 .byte   W08
 .byte   Bn4 ,v060
 .byte   W09
 .byte   En3 ,v110
 .byte   N16 ,Fs2 ,v102
 .byte   W08
 .byte   N04 ,Bn4 ,v062
 .byte   W09
 .byte   En3 ,v121
 .byte   W09
 .byte   N01 ,Fs2 ,v092
 .byte   N04 ,Bn4 ,v067
 .byte   W08
 .byte   N07 ,Fs2 ,v078
 .byte   W01
 .byte   N02 ,En3 ,v127
 .byte   W07
 .byte   N03 ,Bn4 ,v073
 .byte   W09
 .byte   N04 ,Ds3 ,v107
 .byte   N02 ,Bn4 ,v064
 .byte   N24 ,Fs2 ,v073
 .byte   W01
@  #08 @080   ----------------------------------------
 .byte   W08
 .byte   N03 ,En3 ,v079
 .byte   W04
 .byte   N02 ,Ds3 ,v102
 .byte   W04
 .byte   N07 ,En3 ,v078
 .byte   W09
 .byte   N04 ,Ds3 ,v115
 .byte   W09
 .byte   N02 ,En3 ,v078
 .byte   W08
 .byte   N07 ,En3 ,v066
 .byte   W08
 .byte   N02 ,Fs2 ,v074
 .byte   W01
 .byte   N04 ,Ds3 ,v110
 .byte   W07
 .byte   N02 ,Bn4 ,v058
 .byte   W01
 .byte   N14 ,Fs2 ,v078
 .byte   W17
 .byte   N06 ,En3 ,v100
 .byte   N02 ,Bn4 ,v060
 .byte   W20
@  #08 @081   ----------------------------------------
 .byte   W05
 .byte   N03 ,Bn4 ,v067
 .byte   W01
 .byte   N04 ,Ds3 ,v107
 .byte   N02 ,Fs2 ,v078
 .byte   W08
 .byte   N24 ,Fs2 ,v066 ,gtp2
 .byte   W01
 .byte   N03 ,En3 ,v079
 .byte   W04
 .byte   N02 ,Ds3 ,v102
 .byte   W04
 .byte   N07 ,En3 ,v078
 .byte   W09
 .byte   N04 ,Ds3 ,v115
 .byte   W08
 .byte   N03 ,En3 ,v078
 .byte   W09
 .byte   N07 ,En3 ,v066
 .byte   W08
 .byte   N05 ,Ds3 ,v110
 .byte   N03 ,Fs2 ,v078
 .byte   W06
 .byte   Bn4 ,v059
 .byte   W02
 .byte   N17 ,Fs2 ,v066
 .byte   W09
 .byte   N05 ,En3 ,v100
 .byte   W07
 .byte   N03 ,Bn4 ,v059
 .byte   W11
 .byte   N04 ,En3 ,v102
 .byte   W04
@  #08 @082   ----------------------------------------
 .byte   W03
 .byte   N03 ,Bn4 ,v064
 .byte   W10
 .byte   N04 ,Ds3 ,v107
 .byte   N32 ,Fs2 ,v095
 .byte   W09
 .byte   N02 ,En3 ,v079
 .byte   W04
 .byte   Ds3 ,v102
 .byte   W04
 .byte   N06 ,En3 ,v078
 .byte   W09
 .byte   N03 ,Ds3 ,v115
 .byte   W08
 .byte   En3 ,v078
 .byte   W09
 .byte   N06 ,En3 ,v066
 .byte   W08
 .byte   N03 ,Fs2 ,v100
 .byte   N05 ,Ds3 ,v110
 .byte   W07
 .byte   N03 ,Bn4 ,v062
 .byte   W01
 .byte   N23 ,Fs2 ,v070
 .byte   W18
 .byte   N05 ,En3 ,v100
 .byte   N03 ,Bn4 ,v066
 .byte   W06
@  #08 @083   ----------------------------------------
 .byte   W20
 .byte   N04 ,Ds3 ,v107
 .byte   N04 ,Fs2 ,v086
 .byte   N04 ,Bn4 ,v070
 .byte   W08
 .byte   N19 ,Fs2 ,v072
 .byte   N03 ,En3 ,v079
 .byte   W04
 .byte   Ds3 ,v102
 .byte   W05
 .byte   N07 ,En3 ,v078
 .byte   W09
 .byte   N03 ,Ds3 ,v115
 .byte   W08
 .byte   En3 ,v078
 .byte   W09
 .byte   N07 ,En3 ,v066
 .byte   W08
 .byte   N05 ,Ds3 ,v110
 .byte   N04 ,Fs2 ,v079
 .byte   W06
 .byte   Bn4 ,v064
 .byte   W02
 .byte   N18 ,Fs2 ,v071
 .byte   W09
 .byte   N04 ,En3 ,v100
 .byte   W08
@  #08 @084   ----------------------------------------
 .byte   N03 ,Bn4 ,v062
 .byte   W09
 .byte   N05 ,En3 ,v102
 .byte   W09
 .byte   N02 ,Bn4 ,v060
 .byte   W08
 .byte   N04 ,Ds3 ,v107
 .byte   N16 ,Fs2 ,v100
 .byte   W02
 .byte   N04 ,Bn4 ,v067
 .byte   W07
 .byte   N03 ,En3 ,v079
 .byte   W05
 .byte   N02 ,Ds3 ,v102
 .byte   W04
 .byte   N06 ,En3 ,v078
 .byte   W08
 .byte   N04 ,Ds3 ,v115
 .byte   W09
 .byte   N03 ,En3 ,v078
 .byte   W09
 .byte   N06 ,En3 ,v066
 .byte   W08
 .byte   N03 ,Fs2 ,v095
 .byte   N05 ,Ds3 ,v110
 .byte   W06
 .byte   N03 ,Bn4 ,v062
 .byte   W02
 .byte   N14 ,Fs2 ,v071
 .byte   W10
@  #08 @085   ----------------------------------------
 .byte   W06
 .byte   N04 ,Bn4 ,v062
 .byte   W02
 .byte   N05 ,En3 ,v100
 .byte   W24
 .byte   N03 ,Bn4 ,v070
 .byte   W01
 .byte   N04 ,Ds3 ,v107
 .byte   N04 ,Fs2 ,v092
 .byte   W09
 .byte   N03 ,En3 ,v079
 .byte   W04
 .byte   Ds3 ,v102
 .byte   W05
 .byte   N06 ,En3 ,v078
 .byte   W09
 .byte   N03 ,Ds3 ,v115
 .byte   W08
 .byte   En3 ,v078
 .byte   W08
 .byte   N07 ,En3 ,v066
 .byte   W09
 .byte   N05 ,Ds3 ,v110
 .byte   N04 ,Fs2 ,v079
 .byte   W06
 .byte   N03 ,Bn4 ,v067
 .byte   W02
 .byte   N20 ,Fs2 ,v060
 .byte   W03
@  #08 @086   ----------------------------------------
 .byte   W06
 .byte   N04 ,En3 ,v100
 .byte   W08
 .byte   N02 ,Bn4 ,v070
 .byte   W09
 .byte   N05 ,En3 ,v102
 .byte   W17
 .byte   N04 ,Ds3 ,v107
 .byte   N18 ,Fs2 ,v110
 .byte   W02
 .byte   N02 ,Bn4 ,v073
 .byte   W07
 .byte   N03 ,En3 ,v079
 .byte   W04
 .byte   Ds3 ,v102
 .byte   W05
 .byte   N06 ,En3 ,v078
 .byte   W08
 .byte   N04 ,Ds3 ,v115
 .byte   W09
 .byte   N03 ,En3 ,v078
 .byte   W08
 .byte   N07 ,En3 ,v066
 .byte   W09
 .byte   N04 ,Ds3 ,v110
 .byte   N03 ,Fs2 ,v107
 .byte   W04
@  #08 @087   ----------------------------------------
 .byte   W01
 .byte   Bn4 ,v070
 .byte   W03
 .byte   N18 ,Fs2 ,v072
 .byte   W16
 .byte   N03 ,Bn4 ,v066
 .byte   W01
 .byte   N06 ,En3 ,v100
 .byte   W17
 .byte   N03 ,Bn4 ,v066
 .byte   W09
 .byte   Fs2 ,v107
 .byte   W08
 .byte   N19 ,Fs2 ,v070
 .byte   W01
 .byte   N02 ,Bn4 ,v066
 .byte   W08
 .byte   N06 ,En3 ,v092
 .byte   W09
 .byte   N03 ,Bn4 ,v062
 .byte   W09
 .byte   N04 ,En3 ,v102
 .byte   W08
 .byte   N05 ,Bn4 ,v060
 .byte   W06
@  #08 @088   ----------------------------------------
 .byte   W02
 .byte   N06 ,En3 ,v110
 .byte   W01
 .byte   N16 ,Fs2 ,v102
 .byte   W08
 .byte   N04 ,Bn4 ,v062
 .byte   W09
 .byte   En3 ,v121
 .byte   W08
 .byte   N02 ,Fs2 ,v092
 .byte   W01
 .byte   N04 ,Bn4 ,v067
 .byte   W07
 .byte   N08 ,Fs2 ,v078
 .byte   W02
 .byte   N02 ,En3 ,v127
 .byte   W07
 .byte   N03 ,Bn4 ,v073
 .byte   W09
 .byte   N04 ,Ds3 ,v107
 .byte   N02 ,Bn4 ,v064
 .byte   N24 ,Fs2 ,v073
 .byte   W09
 .byte   N03 ,En3 ,v079
 .byte   W04
 .byte   N02 ,Ds3 ,v102
 .byte   W04
 .byte   N07 ,En3 ,v078
 .byte   W09
 .byte   N04 ,Ds3 ,v115
 .byte   W08
 .byte   N03 ,En3 ,v078
 .byte   W08
@  #08 @089   ----------------------------------------
 .byte   W01
 .byte   N07 ,En3 ,v066
 .byte   W08
 .byte   N02 ,Fs2 ,v074
 .byte   W01
 .byte   N04 ,Ds3 ,v110
 .byte   W06
 .byte   N02 ,Bn4 ,v058
 .byte   W02
 .byte   N14 ,Fs2 ,v078
 .byte   W17
 .byte   N05 ,En3 ,v100
 .byte   N02 ,Bn4 ,v060
 .byte   W24
 .byte   W01
 .byte   Bn4 ,v067
 .byte   W01
 .byte   N04 ,Ds3 ,v107
 .byte   N02 ,Fs2 ,v078
 .byte   W08
 .byte   N24 ,Fs2 ,v066 ,gtp2
 .byte   W01
 .byte   N02 ,En3 ,v079
 .byte   W04
 .byte   Ds3 ,v102
 .byte   W04
 .byte   N06 ,En3 ,v078
 .byte   W09
 .byte   N03 ,Ds3 ,v115
 .byte   W08
 .byte   En3 ,v078
 .byte   W01
@  #08 @090   ----------------------------------------
 .byte   W08
 .byte   N06 ,En3 ,v066
 .byte   W08
 .byte   N03 ,Fs2 ,v078
 .byte   N05 ,Ds3 ,v110
 .byte   W06
 .byte   N03 ,Bn4 ,v059
 .byte   W02
 .byte   N16 ,Fs2 ,v066
 .byte   W09
 .byte   N05 ,En3 ,v100
 .byte   W07
 .byte   N03 ,Bn4 ,v059
 .byte   W10
 .byte   N05 ,En3 ,v102
 .byte   W08
 .byte   N03 ,Bn4 ,v064
 .byte   W10
 .byte   N04 ,Ds3 ,v107
 .byte   N32 ,Fs2 ,v095
 .byte   W08
 .byte   N03 ,En3 ,v079
 .byte   W04
 .byte   Ds3 ,v102
 .byte   W05
 .byte   N07 ,En3 ,v078
 .byte   W09
 .byte   N03 ,Ds3 ,v115
 .byte   W02
@  #08 @091   ----------------------------------------
 .byte   W06
 .byte   En3 ,v078
 .byte   W09
 .byte   N07 ,En3 ,v066
 .byte   W08
 .byte   N03 ,Fs2 ,v100
 .byte   W01
 .byte   N04 ,Ds3 ,v110
 .byte   W06
 .byte   N03 ,Bn4 ,v062
 .byte   W01
 .byte   N23 ,Fs2 ,v070
 .byte   W18
 .byte   N05 ,En3 ,v100
 .byte   N03 ,Bn4 ,v066
 .byte   W24
 .byte   W01
 .byte   N04 ,Ds3 ,v107
 .byte   N05 ,Fs2 ,v086
 .byte   W01
 .byte   N04 ,Bn4 ,v070
 .byte   W08
 .byte   N19 ,Fs2 ,v072
 .byte   N03 ,En3 ,v079
 .byte   W05
 .byte   N02 ,Ds3 ,v102
 .byte   W04
 .byte   N06 ,En3 ,v078
 .byte   W04
@  #08 @092   ----------------------------------------
 .byte   W04
 .byte   N04 ,Ds3 ,v115
 .byte   W09
 .byte   N03 ,En3 ,v078
 .byte   W09
 .byte   N06 ,En3 ,v066
 .byte   W08
 .byte   N05 ,Ds3 ,v110
 .byte   N04 ,Fs2 ,v079
 .byte   W06
 .byte   Bn4 ,v064
 .byte   W02
 .byte   N18 ,Fs2 ,v071
 .byte   W09
 .byte   N04 ,En3 ,v100
 .byte   W08
 .byte   N03 ,Bn4 ,v062
 .byte   W09
 .byte   N05 ,En3 ,v102
 .byte   W08
 .byte   N03 ,Bn4 ,v060
 .byte   W09
 .byte   N04 ,Ds3 ,v107
 .byte   N15 ,Fs2 ,v100
 .byte   W01
 .byte   N04 ,Bn4 ,v067
 .byte   W08
 .byte   N03 ,En3 ,v079
 .byte   W04
 .byte   Ds3 ,v102
 .byte   W02
@  #08 @093   ----------------------------------------
 .byte   W03
 .byte   N06 ,En3 ,v078
 .byte   W09
 .byte   N03 ,Ds3 ,v115
 .byte   W08
 .byte   En3 ,v078
 .byte   W08
 .byte   N07 ,En3 ,v066
 .byte   W09
 .byte   N03 ,Fs2 ,v095
 .byte   N05 ,Ds3 ,v110
 .byte   W05
 .byte   N04 ,Bn4 ,v062
 .byte   W03
 .byte   N14 ,Fs2 ,v071
 .byte   W16
 .byte   N04 ,Bn4 ,v062
 .byte   W01
 .byte   N06 ,En3 ,v100
 .byte   W24
 .byte   W01
 .byte   N03 ,Bn4 ,v070
 .byte   W01
 .byte   N04 ,Ds3 ,v107
 .byte   N04 ,Fs2 ,v092
 .byte   W08
@  #08 @094   ----------------------------------------
 .byte   W01
 .byte   N03 ,En3 ,v079
 .byte   W04
 .byte   Ds3 ,v102
 .byte   W05
 .byte   N06 ,En3 ,v078
 .byte   W08
 .byte   N04 ,Ds3 ,v115
 .byte   W09
 .byte   N03 ,En3 ,v078
 .byte   W08
 .byte   N07 ,En3 ,v066
 .byte   W09
 .byte   N04 ,Ds3 ,v110
 .byte   N04 ,Fs2 ,v079
 .byte   W06
 .byte   N02 ,Bn4 ,v067
 .byte   W02
 .byte   N20 ,Fs2 ,v060
 .byte   W08
 .byte   N05 ,En3 ,v100
 .byte   W08
 .byte   N03 ,Bn4 ,v070
 .byte   W10
 .byte   N05 ,En3 ,v102
 .byte   W17
 .byte   N04 ,Ds3 ,v107
 .byte   N18 ,Fs2 ,v110
 .byte   W01
@  #08 @095   ----------------------------------------
 .byte   N03 ,Bn4 ,v073
 .byte   W08
 .byte   En3 ,v079
 .byte   W04
 .byte   N02 ,Ds3 ,v102
 .byte   W04
 .byte   N07 ,En3 ,v078
 .byte   W09
 .byte   N04 ,Ds3 ,v115
 .byte   W09
 .byte   N02 ,En3 ,v078
 .byte   W08
 .byte   N07 ,En3 ,v066
 .byte   W09
 .byte   N04 ,Ds3 ,v110
 .byte   N03 ,Fs2 ,v107
 .byte   W05
 .byte   Bn4 ,v070
 .byte   W03
 .byte   N18 ,Fs2 ,v072
 .byte   W16
 .byte   N03 ,Bn4 ,v066
 .byte   W01
 .byte   N06 ,En3 ,v100
 .byte   W17
 .byte   N03 ,Bn4 ,v066
 .byte   W03
@  #08 @096   ----------------------------------------
 .byte   W06
 .byte   Fs2 ,v107
 .byte   W08
 .byte   N19 ,Fs2 ,v070
 .byte   W01
 .byte   N02 ,Bn4 ,v066
 .byte   W08
 .byte   N05 ,En3 ,v092
 .byte   W09
 .byte   N03 ,Bn4 ,v062
 .byte   W08
 .byte   N05 ,En3 ,v102
 .byte   W09
 .byte   Bn4 ,v060
 .byte   W09
 .byte   En3 ,v110
 .byte   N16 ,Fs2 ,v102
 .byte   W08
 .byte   N04 ,Bn4 ,v062
 .byte   W09
 .byte   En3 ,v121
 .byte   W08
 .byte   N02 ,Fs2 ,v092
 .byte   W01
 .byte   N04 ,Bn4 ,v067
 .byte   W07
 .byte   N07 ,Fs2 ,v078
 .byte   W01
 .byte   N03 ,En3 ,v127
 .byte   W04
@  #08 @097   ----------------------------------------
 .byte   W04
 .byte   N02 ,Bn4 ,v073
 .byte   W09
 .byte   N04 ,Ds3 ,v107
 .byte   N02 ,Bn4 ,v064
 .byte   N23 ,Fs2 ,v073
 .byte   W09
 .byte   N02 ,En3 ,v079
 .byte   W04
 .byte   Ds3 ,v102
 .byte   W04
 .byte   N06 ,En3 ,v078
 .byte   W09
 .byte   N03 ,Ds3 ,v115
 .byte   W08
 .byte   En3 ,v078
 .byte   W09
 .byte   N06 ,En3 ,v066
 .byte   W08
 .byte   N05 ,Ds3 ,v110
 .byte   N02 ,Fs2 ,v074
 .byte   W07
 .byte   Bn4 ,v058
 .byte   W01
 .byte   N14 ,Fs2 ,v078
 .byte   W18
 .byte   N05 ,En3 ,v100
 .byte   N02 ,Bn4 ,v060
 .byte   W06
@  #08 @098   ----------------------------------------
 .byte   W19
 .byte   Bn4 ,v067
 .byte   W01
 .byte   N04 ,Ds3 ,v107
 .byte   N02 ,Fs2 ,v078
 .byte   W08
 .byte   N24 ,Fs2 ,v066 ,gtp2
 .byte   N03 ,En3 ,v079
 .byte   W04
 .byte   Ds3 ,v102
 .byte   W05
 .byte   N07 ,En3 ,v078
 .byte   W09
 .byte   N03 ,Ds3 ,v115
 .byte   W08
 .byte   En3 ,v078
 .byte   W09
 .byte   N07 ,En3 ,v066
 .byte   W08
 .byte   N03 ,Fs2 ,v078
 .byte   N05 ,Ds3 ,v110
 .byte   W06
 .byte   N03 ,Bn4 ,v059
 .byte   W02
 .byte   N17 ,Fs2 ,v066
 .byte   W09
 .byte   N04 ,En3 ,v100
 .byte   W07
 .byte   N03 ,Bn4 ,v059
 .byte   W01
@  #08 @099   ----------------------------------------
 .byte   W09
 .byte   N05 ,En3 ,v102
 .byte   W07
 .byte   N04 ,Bn4 ,v064
 .byte   W10
 .byte   Ds3 ,v107
 .byte   W01
 .byte   N30 ,Fs2 ,v095 ,gtp1
 .byte   W08
 .byte   N03 ,En3 ,v079
 .byte   W05
 .byte   N02 ,Ds3 ,v102
 .byte   W04
 .byte   N06 ,En3 ,v078
 .byte   W08
 .byte   N04 ,Ds3 ,v115
 .byte   W09
 .byte   N03 ,En3 ,v078
 .byte   W09
 .byte   N06 ,En3 ,v066
 .byte   W08
 .byte   N02 ,Fs2 ,v100
 .byte   N05 ,Ds3 ,v110
 .byte   W07
 .byte   N03 ,Bn4 ,v062
 .byte   W01
 .byte   N23 ,Fs2 ,v070
 .byte   W10
@  #08 @100   ----------------------------------------
 .byte   W08
 .byte   N05 ,En3 ,v100
 .byte   N03 ,Bn4 ,v066
 .byte   W24
 .byte   W01
 .byte   N04 ,Ds3 ,v107
 .byte   N05 ,Fs2 ,v086
 .byte   W01
 .byte   N04 ,Bn4 ,v070
 .byte   W08
 .byte   N03 ,En3 ,v079
 .byte   N19 ,Fs2 ,v072
 .byte   W04
 .byte   N03 ,Ds3 ,v102
 .byte   W05
 .byte   N06 ,En3 ,v078
 .byte   W09
 .byte   N03 ,Ds3 ,v115
 .byte   W02
 .byte   VOL , 43*song04_mvl/mxv
 .byte   W06
 .byte   N03 ,En3 ,v078
 .byte   W08
 .byte   N07 ,En3 ,v066
 .byte   W09
 .byte   N05 ,Ds3 ,v110
 .byte   N04 ,Fs2 ,v079
 .byte   W03
 .byte   VOL , 41*song04_mvl/mxv
 .byte   W03
 .byte   N03 ,Bn4 ,v064
 .byte   W02
 .byte   N18 ,Fs2 ,v071
 .byte   W03
@  #08 @101   ----------------------------------------
 .byte   W06
 .byte   N04 ,En3 ,v100
 .byte   W08
 .byte   N02 ,Bn4 ,v062
 .byte   W04
 .byte   VOL , 39*song04_mvl/mxv
 .byte   W05
 .byte   N05 ,En3 ,v102
 .byte   W08
 .byte   N03 ,Bn4 ,v060
 .byte   W09
 .byte   N04 ,Ds3 ,v107
 .byte   N15 ,Fs2 ,v100
 .byte   W01
 .byte   N04 ,Bn4 ,v067
 .byte   W01
 .byte   VOL , 37*song04_mvl/mxv
 .byte   W07
 .byte   N03 ,En3 ,v079
 .byte   W04
 .byte   Ds3 ,v102
 .byte   W05
 .byte   N06 ,En3 ,v078
 .byte   W07
 .byte   VOL , 35*song04_mvl/mxv
 .byte   W01
 .byte   N04 ,Ds3 ,v115
 .byte   W09
 .byte   N03 ,En3 ,v078
 .byte   W08
 .byte   N07 ,En3 ,v066
 .byte   W05
 .byte   VOL , 33*song04_mvl/mxv
 .byte   W04
 .byte   N03 ,Fs2 ,v095
 .byte   N04 ,Ds3 ,v110
 .byte   W04
@  #08 @102   ----------------------------------------
 .byte   W01
 .byte   Bn4 ,v062
 .byte   W03
 .byte   N14 ,Fs2 ,v071
 .byte   W09
 .byte   VOL , 31*song04_mvl/mxv
 .byte   W07
 .byte   N04 ,Bn4 ,v062
 .byte   W01
 .byte   N06 ,En3 ,v100
 .byte   W12
 .byte   VOL , 29*song04_mvl/mxv
 .byte   W13
 .byte   N03 ,Bn4 ,v070
 .byte   W01
 .byte   N04 ,Ds3 ,v107
 .byte   N04 ,Fs2 ,v092
 .byte   W06
 .byte   VOL , 27*song04_mvl/mxv
 .byte   W03
 .byte   N03 ,En3 ,v079
 .byte   W04
 .byte   N02 ,Ds3 ,v102
 .byte   W04
 .byte   N07 ,En3 ,v078
 .byte   W07
 .byte   VOL , 25*song04_mvl/mxv
 .byte   W02
 .byte   N04 ,Ds3 ,v115
 .byte   W09
 .byte   N02 ,En3 ,v078
 .byte   W07
 .byte   VOL , 23*song04_mvl/mxv
 .byte   W01
 .byte   N07 ,En3 ,v066
 .byte   W06
@  #08 @103   ----------------------------------------
 .byte   W02
 .byte   N05 ,Ds3 ,v110
 .byte   N04 ,Fs2 ,v079
 .byte   W07
 .byte   N02 ,Bn4 ,v067
 .byte   W01
 .byte   N21 ,Fs2 ,v060
 .byte   W01
 .byte   VOL , 21*song04_mvl/mxv
 .byte   W09
 .byte   N04 ,En3 ,v100
 .byte   W07
 .byte   VOL , 19*song04_mvl/mxv
 .byte   N03 ,Bn4 ,v070
 .byte   W10
 .byte   N05 ,En3 ,v102
 .byte   W06
 .byte   VOL , 17*song04_mvl/mxv
 .byte   W11
 .byte   N04 ,Ds3 ,v107
 .byte   N18 ,Fs2 ,v110
 .byte   W01
 .byte   N03 ,Bn4 ,v073
 .byte   W04
 .byte   VOL , 15*song04_mvl/mxv
 .byte   W04
 .byte   N03 ,En3 ,v079
 .byte   W04
 .byte   N02 ,Ds3 ,v102
 .byte   W04
 .byte   N07 ,En3 ,v078
 .byte   W03
 .byte   VOL , 13*song04_mvl/mxv
 .byte   W06
 .byte   N04 ,Ds3 ,v115
 .byte   W08
 .byte   VOL , 11*song04_mvl/mxv
 .byte   N03 ,En3 ,v078
 .byte   W08
@  #08 @104   ----------------------------------------
 .byte   W01
 .byte   N07 ,En3 ,v066
 .byte   W05
 .byte   VOL , 10*song04_mvl/mxv
 .byte   W04
 .byte   N04 ,Ds3 ,v110
 .byte   N03 ,Fs2 ,v107
 .byte   W05
 .byte   Bn4 ,v070
 .byte   W03
 .byte   N18 ,Fs2 ,v072
 .byte   W01
 .byte   VOL , 10*song04_mvl/mxv
 .byte   W13
 .byte   VOL , 10*song04_mvl/mxv
 .byte   W02
 .byte   N03 ,Bn4 ,v066
 .byte   W01
 .byte   N05 ,En3 ,v100
 .byte   W10
 .byte   VOL , 10*song04_mvl/mxv
 .byte   W07
 .byte   N03 ,Bn4 ,v066
 .byte   W05
 .byte   VOL , 10*song04_mvl/mxv
 .byte   W04
 .byte   N03 ,Fs2 ,v107
 .byte   W07
 .byte   VOL , 10*song04_mvl/mxv
 .byte   W01
 .byte   N19 ,Fs2 ,v070
 .byte   W01
 .byte   N02 ,Bn4 ,v066
 .byte   W08
 .byte   N05 ,En3 ,v092
 .byte   W02
 .byte   VOL , 10*song04_mvl/mxv
 .byte   W06
 .byte   N04 ,Bn4 ,v062
 .byte   W05
 .byte   VOL , 10*song04_mvl/mxv
 .byte   W04
 .byte   N05 ,En3 ,v102
 .byte   W01
@  #08 @105   ----------------------------------------
 .byte   W06
 .byte   VOL , 10*song04_mvl/mxv
 .byte   W02
 .byte   N04 ,Bn4 ,v060
 .byte   W08
 .byte   VOL , 10*song04_mvl/mxv
 .byte   N06 ,En3 ,v110
 .byte   N16 ,Fs2 ,v102
 .byte   W09
 .byte   N03 ,Bn4 ,v062
 .byte   W01
 .byte   VOL , 10*song04_mvl/mxv
 .byte   W08
 .byte   N04 ,En3 ,v121
 .byte   W02
 .byte   VOL , 10*song04_mvl/mxv
 .byte   W06
 .byte   N02 ,Fs2 ,v092
 .byte   N04 ,Bn4 ,v067
 .byte   W03
 .byte   VOL , 10*song04_mvl/mxv
 .byte   W05
 .byte   N07 ,Fs2 ,v078
 .byte   W01
 .byte   N03 ,En3 ,v127
 .byte   W07
 .byte   Bn4 ,v073
 .byte   W36
 .byte   W02
@  #08 @106   ----------------------------------------
 .byte   W96
@  #08 @107   ----------------------------------------
 .byte   W96
@  #08 @108   ----------------------------------------
 .byte   VOL , 70*song04_mvl/mxv
 .byte   GOTO
  .word Label_0100491A
@  #08 @109   ----------------------------------------
 .byte   W96
@  #08 @110   ----------------------------------------
 .byte   W92
 .byte   W03
 .byte   N22 ,An3 ,v001
 .byte   N22
 .byte   N22
 .byte   N22
 .byte   W01
@  #08 @111   ----------------------------------------
 .byte   W96
@  #08 @112   ----------------------------------------
 .byte   W13
 .byte   FINE

@**************** Track 9 (Midi-Chn.8) ****************@

song04_009:
@  #09 @000   ----------------------------------------
 .byte   KEYSH , song04_key+0
Label_0100548E:
 .byte   VOICE , 116
 .byte   PAN , c_v-22
 .byte   W96
@  #09 @001   ----------------------------------------
 .byte   W96
@  #09 @002   ----------------------------------------
 .byte   W96
@  #09 @003   ----------------------------------------
 .byte   W96
@  #09 @004   ----------------------------------------
 .byte   W96
@  #09 @005   ----------------------------------------
 .byte   W96
@  #09 @006   ----------------------------------------
 .byte   W96
@  #09 @007   ----------------------------------------
 .byte   W96
@  #09 @008   ----------------------------------------
 .byte   W96
@  #09 @009   ----------------------------------------
 .byte   W96
@  #09 @010   ----------------------------------------
 .byte   W96
@  #09 @011   ----------------------------------------
 .byte   W96
@  #09 @012   ----------------------------------------
 .byte   W96
@  #09 @013   ----------------------------------------
 .byte   W96
@  #09 @014   ----------------------------------------
 .byte   W96
@  #09 @015   ----------------------------------------
 .byte   W96
@  #09 @016   ----------------------------------------
 .byte   W96
@  #09 @017   ----------------------------------------
 .byte   W96
@  #09 @018   ----------------------------------------
 .byte   W96
@  #09 @019   ----------------------------------------
 .byte   W96
@  #09 @020   ----------------------------------------
 .byte   W96
@  #09 @021   ----------------------------------------
 .byte   W96
@  #09 @022   ----------------------------------------
 .byte   W96
@  #09 @023   ----------------------------------------
 .byte   W96
@  #09 @024   ----------------------------------------
 .byte   W96
@  #09 @025   ----------------------------------------
 .byte   W96
@  #09 @026   ----------------------------------------
 .byte   W96
@  #09 @027   ----------------------------------------
 .byte   W96
@  #09 @028   ----------------------------------------
 .byte   W96
@  #09 @029   ----------------------------------------
 .byte   W96
@  #09 @030   ----------------------------------------
 .byte   W96
@  #09 @031   ----------------------------------------
 .byte   W96
@  #09 @032   ----------------------------------------
 .byte   W96
@  #09 @033   ----------------------------------------
 .byte   W96
@  #09 @034   ----------------------------------------
 .byte   W96
@  #09 @035   ----------------------------------------
 .byte   W96
@  #09 @036   ----------------------------------------
 .byte   W96
@  #09 @037   ----------------------------------------
 .byte   W96
@  #09 @038   ----------------------------------------
 .byte   W96
@  #09 @039   ----------------------------------------
 .byte   W96
@  #09 @040   ----------------------------------------
 .byte   W96
@  #09 @041   ----------------------------------------
 .byte   W96
@  #09 @042   ----------------------------------------
 .byte   W96
@  #09 @043   ----------------------------------------
 .byte   W96
@  #09 @044   ----------------------------------------
 .byte   W96
@  #09 @045   ----------------------------------------
 .byte   W96
@  #09 @046   ----------------------------------------
 .byte   W96
@  #09 @047   ----------------------------------------
 .byte   W96
@  #09 @048   ----------------------------------------
 .byte   W96
@  #09 @049   ----------------------------------------
 .byte   W96
@  #09 @050   ----------------------------------------
 .byte   W96
@  #09 @051   ----------------------------------------
 .byte   W96
@  #09 @052   ----------------------------------------
 .byte   W96
@  #09 @053   ----------------------------------------
 .byte   W96
@  #09 @054   ----------------------------------------
 .byte   W96
@  #09 @055   ----------------------------------------
 .byte   W96
@  #09 @056   ----------------------------------------
 .byte   W96
@  #09 @057   ----------------------------------------
 .byte   W96
@  #09 @058   ----------------------------------------
 .byte   W96
@  #09 @059   ----------------------------------------
 .byte   W96
@  #09 @060   ----------------------------------------
 .byte   W96
@  #09 @061   ----------------------------------------
 .byte   W96
@  #09 @062   ----------------------------------------
 .byte   W96
@  #09 @063   ----------------------------------------
 .byte   W96
@  #09 @064   ----------------------------------------
 .byte   W96
@  #09 @065   ----------------------------------------
 .byte   W96
@  #09 @066   ----------------------------------------
 .byte   W96
@  #09 @067   ----------------------------------------
 .byte   W96
@  #09 @068   ----------------------------------------
 .byte   W96
@  #09 @069   ----------------------------------------
 .byte   W96
@  #09 @070   ----------------------------------------
 .byte   W96
@  #09 @071   ----------------------------------------
 .byte   W40
 .byte   VOL , 10*song04_mvl/mxv
 .byte   N06 ,Fs2 ,v100
 .byte   W09
 .byte   Cn2 ,v067
 .byte   W17
 .byte   N07 ,Fs2 ,v100
 .byte   W01
 .byte   VOL , 12*song04_mvl/mxv
 .byte   W08
 .byte   N07 ,Cn2 ,v066
 .byte   W17
 .byte   N06 ,Fs2 ,v092
 .byte   VOL , 14*song04_mvl/mxv
 .byte   W04
@  #09 @072   ----------------------------------------
 .byte   W04
 .byte   N08 ,Cn2 ,v065
 .byte   W15
 .byte   VOL , 16*song04_mvl/mxv
 .byte   W03
 .byte   N07 ,Fs2 ,v102
 .byte   W08
 .byte   N08 ,Cn2 ,v066
 .byte   W11
 .byte   VOL , 18*song04_mvl/mxv
 .byte   W06
 .byte   N06 ,Fs2 ,v095
 .byte   W09
 .byte   N10 ,Cn2 ,v055
 .byte   W05
 .byte   VOL , 20*song04_mvl/mxv
 .byte   W12
 .byte   N06 ,Fs2 ,v100
 .byte   W07
 .byte   VOL , 22*song04_mvl/mxv
 .byte   W01
 .byte   N09 ,Cn2 ,v065
 .byte   W15
@  #09 @073   ----------------------------------------
 .byte   W01
 .byte   VOL , 24*song04_mvl/mxv
 .byte   W01
 .byte   N07 ,Fs2 ,v100
 .byte   W08
 .byte   N10 ,Cn2 ,v067
 .byte   W07
 .byte   VOL , 26*song04_mvl/mxv
 .byte   W11
 .byte   N06 ,Fs2 ,v100
 .byte   W05
 .byte   VOL , 28*song04_mvl/mxv
 .byte   W03
 .byte   N06 ,Cn2 ,v067
 .byte   W09
 .byte   N05 ,Cn2 ,v074
 .byte   W02
 .byte   VOL , 30*song04_mvl/mxv
 .byte   W07
 .byte   N06 ,Fs2 ,v115
 .byte   W07
 .byte   VOL , 32*song04_mvl/mxv
 .byte   W01
 .byte   N08 ,Cn2 ,v073
 .byte   W12
 .byte   VOL , 34*song04_mvl/mxv
 .byte   W06
 .byte   N07 ,Fs2 ,v092
 .byte   W06
 .byte   VOL , 36*song04_mvl/mxv
 .byte   W02
 .byte   N08 ,Cn2 ,v066
 .byte   W08
@  #09 @074   ----------------------------------------
 .byte   W02
 .byte   VOL , 38*song04_mvl/mxv
 .byte   W07
 .byte   N07 ,Fs2 ,v095
 .byte   W04
 .byte   VOL , 40*song04_mvl/mxv
 .byte   W05
 .byte   N08 ,Cn2 ,v066
 .byte   W06
 .byte   VOL , 42*song04_mvl/mxv
 .byte   W10
 .byte   VOL , 44*song04_mvl/mxv
 .byte   W01
 .byte   N06 ,Fs2 ,v092
 .byte   W08
 .byte   VOL , 46*song04_mvl/mxv
 .byte   W01
 .byte   N04 ,Cn2 ,v067
 .byte   W08
 .byte   VOL , 48*song04_mvl/mxv
 .byte   N07 ,Cn2 ,v084
 .byte   W09
 .byte   N08 ,Fs2 ,v092
 .byte   VOL , 50*song04_mvl/mxv
 .byte   W09
 .byte   N06 ,Cn2 ,v074
 .byte   W17
 .byte   N07 ,Fs2 ,v089
 .byte   W08
 .byte   Cn2 ,v071
 .byte   W01
@  #09 @075   ----------------------------------------
 .byte   W16
 .byte   Fs2 ,v100
 .byte   W09
 .byte   N04 ,Cn2 ,v067
 .byte   W09
 .byte   Cn2 ,v070
 .byte   W08
 .byte   N06 ,Fs2 ,v110
 .byte   W08
 .byte   Cn2 ,v072
 .byte   W09
 .byte   N05 ,Cn2 ,v082
 .byte   W09
 .byte   N06 ,Fs2 ,v121
 .byte   W08
 .byte   Cn2 ,v074
 .byte   W09
 .byte   N01 ,Cn2 ,v065
 .byte   W09
 .byte   N06 ,Fs2 ,v110
 .byte   W02
@  #09 @076   ----------------------------------------
 .byte   W06
 .byte   Cn2 ,v064
 .byte   W17
 .byte   Fs2 ,v089
 .byte   W09
 .byte   N07 ,Cn2 ,v065
 .byte   W17
 .byte   N06 ,Fs2 ,v100
 .byte   W08
 .byte   N05 ,Cn2 ,v066
 .byte   W09
 .byte   N06 ,Cn2 ,v078
 .byte   W08
 .byte   N08 ,Fs2 ,v115
 .byte   W09
 .byte   N06 ,Cn2 ,v066
 .byte   W13
@  #09 @077   ----------------------------------------
 .byte   W04
 .byte   N07 ,Fs2 ,v102
 .byte   W08
 .byte   N08 ,Cn2 ,v066
 .byte   W18
 .byte   N06 ,Fs2 ,v100
 .byte   W08
 .byte   N08 ,Cn2 ,v070
 .byte   W18
 .byte   N06 ,Fs2 ,v102
 .byte   W08
 .byte   N04 ,Cn2 ,v071
 .byte   W08
 .byte   N07 ,Cn2 ,v086
 .byte   W09
 .byte   Fs2 ,v115
 .byte   W09
 .byte   N06 ,Cn2 ,v078
 .byte   W06
@  #09 @078   ----------------------------------------
 .byte   W11
 .byte   Fs2 ,v107
 .byte   W08
 .byte   N08 ,Cn2 ,v072
 .byte   W17
 .byte   N06 ,Fs2 ,v100
 .byte   W09
 .byte   N07 ,Cn2 ,v059
 .byte   W17
 .byte   N06 ,Fs2 ,v110
 .byte   W08
 .byte   N05 ,Cn2 ,v073
 .byte   W09
 .byte   Cn2 ,v089
 .byte   W09
 .byte   N06 ,Fs2 ,v121
 .byte   W08
@  #09 @079   ----------------------------------------
 .byte   N07 ,Cn2 ,v084
 .byte   W18
 .byte   N06 ,Fs2 ,v107
 .byte   W08
 .byte   N08 ,Cn2 ,v079
 .byte   W18
 .byte   N04 ,Fs2 ,v110
 .byte   W08
 .byte   N05 ,Cn2 ,v062
 .byte   W09
 .byte   Cn2 ,v072
 .byte   W09
 .byte   N06 ,Fs2 ,v121
 .byte   W08
 .byte   N05 ,Cn2 ,v089
 .byte   W08
 .byte   N06
 .byte   W10
@  #09 @080   ----------------------------------------
 .byte   N05 ,Fs2 ,v100
 .byte   W08
 .byte   N06 ,Cn2 ,v067
 .byte   W17
 .byte   N07 ,Fs2 ,v100
 .byte   W09
 .byte   Cn2 ,v066
 .byte   W17
 .byte   N06 ,Fs2 ,v092
 .byte   W08
 .byte   N08 ,Cn2 ,v065
 .byte   W17
 .byte   Fs2 ,v102
 .byte   W09
 .byte   Cn2 ,v066
 .byte   W11
@  #09 @081   ----------------------------------------
 .byte   W06
 .byte   N06 ,Fs2 ,v095
 .byte   W08
 .byte   N10 ,Cn2 ,v055
 .byte   W18
 .byte   N06 ,Fs2 ,v100
 .byte   W08
 .byte   N09 ,Cn2 ,v065
 .byte   W17
 .byte   N07 ,Fs2 ,v100
 .byte   W08
 .byte   N10 ,Cn2 ,v067
 .byte   W18
 .byte   N06 ,Fs2 ,v100
 .byte   W08
 .byte   N05 ,Cn2 ,v067
 .byte   W05
@  #09 @082   ----------------------------------------
 .byte   W04
 .byte   N04 ,Cn2 ,v074
 .byte   W09
 .byte   N06 ,Fs2 ,v115
 .byte   W08
 .byte   N08 ,Cn2 ,v073
 .byte   W18
 .byte   N07 ,Fs2 ,v092
 .byte   W08
 .byte   N09 ,Cn2 ,v066
 .byte   W17
 .byte   N07 ,Fs2 ,v095
 .byte   W09
 .byte   Cn2 ,v066
 .byte   W17
 .byte   N06 ,Fs2 ,v092
 .byte   W06
@  #09 @083   ----------------------------------------
 .byte   W02
 .byte   N05 ,Cn2 ,v067
 .byte   W09
 .byte   N07 ,Cn2 ,v084
 .byte   W09
 .byte   N08 ,Fs2 ,v092
 .byte   W08
 .byte   N06 ,Cn2 ,v074
 .byte   W18
 .byte   Fs2 ,v089
 .byte   W08
 .byte   Cn2 ,v071
 .byte   W17
 .byte   N07 ,Fs2 ,v100
 .byte   W09
 .byte   N04 ,Cn2 ,v067
 .byte   W08
 .byte   Cn2 ,v070
 .byte   W08
@  #09 @084   ----------------------------------------
 .byte   W01
 .byte   N06 ,Fs2 ,v110
 .byte   W08
 .byte   N05 ,Cn2 ,v072
 .byte   W09
 .byte   Cn2 ,v082
 .byte   W09
 .byte   N06 ,Fs2 ,v121
 .byte   W08
 .byte   Cn2 ,v074
 .byte   W09
 .byte   N01 ,Cn2 ,v065
 .byte   W09
 .byte   N06 ,Fs2 ,v110
 .byte   W08
 .byte   Cn2 ,v064
 .byte   W17
 .byte   Fs2 ,v089
 .byte   W08
 .byte   N08 ,Cn2 ,v065
 .byte   W10
@  #09 @085   ----------------------------------------
 .byte   W08
 .byte   N06 ,Fs2 ,v100
 .byte   W08
 .byte   N05 ,Cn2 ,v066
 .byte   W09
 .byte   N06 ,Cn2 ,v078
 .byte   W08
 .byte   N08 ,Fs2 ,v115
 .byte   W09
 .byte   N06 ,Cn2 ,v066
 .byte   W17
 .byte   N07 ,Fs2 ,v102
 .byte   W08
 .byte   N08 ,Cn2 ,v066
 .byte   W18
 .byte   N05 ,Fs2 ,v100
 .byte   W08
 .byte   N08 ,Cn2 ,v070
 .byte   W03
@  #09 @086   ----------------------------------------
 .byte   W14
 .byte   N06 ,Fs2 ,v102
 .byte   W08
 .byte   N05 ,Cn2 ,v071
 .byte   W09
 .byte   N07 ,Cn2 ,v086
 .byte   W09
 .byte   Fs2 ,v115
 .byte   W08
 .byte   Cn2 ,v078
 .byte   W18
 .byte   N06 ,Fs2 ,v107
 .byte   W08
 .byte   N08 ,Cn2 ,v072
 .byte   W17
 .byte   N06 ,Fs2 ,v100
 .byte   W05
@  #09 @087   ----------------------------------------
 .byte   W04
 .byte   N07 ,Cn2 ,v059
 .byte   W17
 .byte   N06 ,Fs2 ,v110
 .byte   W09
 .byte   N04 ,Cn2 ,v073
 .byte   W08
 .byte   N05 ,Cn2 ,v089
 .byte   W09
 .byte   N06 ,Fs2 ,v121
 .byte   W08
 .byte   N07 ,Cn2 ,v084
 .byte   W17
 .byte   N06 ,Fs2 ,v107
 .byte   W09
 .byte   N08 ,Cn2 ,v079
 .byte   W15
@  #09 @088   ----------------------------------------
 .byte   W02
 .byte   N05 ,Fs2 ,v110
 .byte   W09
 .byte   Cn2 ,v062
 .byte   W09
 .byte   N04 ,Cn2 ,v072
 .byte   W08
 .byte   N07 ,Fs2 ,v121
 .byte   W09
 .byte   N05 ,Cn2 ,v089
 .byte   W09
 .byte   Cn2
 .byte   W08
 .byte   N06 ,Fs2 ,v100
 .byte   W08
 .byte   Cn2 ,v067
 .byte   W18
 .byte   Fs2 ,v100
 .byte   W08
 .byte   N08 ,Cn2 ,v066
 .byte   W08
@  #09 @089   ----------------------------------------
 .byte   W10
 .byte   N06 ,Fs2 ,v092
 .byte   W08
 .byte   N08 ,Cn2 ,v065
 .byte   W17
 .byte   N07 ,Fs2 ,v102
 .byte   W09
 .byte   N08 ,Cn2 ,v066
 .byte   W17
 .byte   N06 ,Fs2 ,v095
 .byte   W08
 .byte   N10 ,Cn2 ,v055
 .byte   W17
 .byte   N07 ,Fs2 ,v100
 .byte   W09
 .byte   N09 ,Cn2 ,v065
 .byte   W01
@  #09 @090   ----------------------------------------
 .byte   W16
 .byte   N06 ,Fs2 ,v100
 .byte   W08
 .byte   N10 ,Cn2 ,v067
 .byte   W18
 .byte   N06 ,Fs2 ,v100
 .byte   W08
 .byte   N05 ,Cn2 ,v067
 .byte   W09
 .byte   N04 ,Cn2 ,v074
 .byte   W09
 .byte   N06 ,Fs2 ,v115
 .byte   W08
 .byte   N08 ,Cn2 ,v073
 .byte   W18
 .byte   N06 ,Fs2 ,v092
 .byte   W02
@  #09 @091   ----------------------------------------
 .byte   W06
 .byte   N08 ,Cn2 ,v066
 .byte   W17
 .byte   N07 ,Fs2 ,v095
 .byte   W09
 .byte   Cn2 ,v066
 .byte   W17
 .byte   N05 ,Fs2 ,v092
 .byte   W08
 .byte   Cn2 ,v067
 .byte   W09
 .byte   N07 ,Cn2 ,v084
 .byte   W08
 .byte   N08 ,Fs2 ,v092
 .byte   W09
 .byte   N06 ,Cn2 ,v074
 .byte   W13
@  #09 @092   ----------------------------------------
 .byte   W04
 .byte   N07 ,Fs2 ,v089
 .byte   W09
 .byte   N06 ,Cn2 ,v071
 .byte   W17
 .byte   Fs2 ,v100
 .byte   W08
 .byte   N05 ,Cn2 ,v067
 .byte   W09
 .byte   N04 ,Cn2 ,v070
 .byte   W09
 .byte   N06 ,Fs2 ,v110
 .byte   W08
 .byte   Cn2 ,v072
 .byte   W09
 .byte   N05 ,Cn2 ,v082
 .byte   W09
 .byte   N06 ,Fs2 ,v121
 .byte   W08
 .byte   Cn2 ,v074
 .byte   W06
@  #09 @093   ----------------------------------------
 .byte   W03
 .byte   N01 ,Cn2 ,v065
 .byte   W09
 .byte   N06 ,Fs2 ,v110
 .byte   W08
 .byte   Cn2 ,v064
 .byte   W17
 .byte   N05 ,Fs2 ,v089
 .byte   W08
 .byte   N08 ,Cn2 ,v065
 .byte   W17
 .byte   N06 ,Fs2 ,v100
 .byte   W09
 .byte   N05 ,Cn2 ,v066
 .byte   W09
 .byte   N06 ,Cn2 ,v078
 .byte   W08
 .byte   N08 ,Fs2 ,v115
 .byte   W08
@  #09 @094   ----------------------------------------
 .byte   W01
 .byte   N06 ,Cn2 ,v066
 .byte   W17
 .byte   N07 ,Fs2 ,v102
 .byte   W08
 .byte   N08 ,Cn2 ,v066
 .byte   W18
 .byte   N05 ,Fs2 ,v100
 .byte   W08
 .byte   N08 ,Cn2 ,v070
 .byte   W17
 .byte   N06 ,Fs2 ,v102
 .byte   W08
 .byte   N05 ,Cn2 ,v071
 .byte   W09
 .byte   N06 ,Cn2 ,v086
 .byte   W09
 .byte   N07 ,Fs2 ,v115
 .byte   W01
@  #09 @095   ----------------------------------------
 .byte   W08
 .byte   N06 ,Cn2 ,v078
 .byte   W16
 .byte   N07 ,Fs2 ,v107
 .byte   W09
 .byte   N08 ,Cn2 ,v072
 .byte   W17
 .byte   N06 ,Fs2 ,v100
 .byte   W09
 .byte   N07 ,Cn2 ,v059
 .byte   W17
 .byte   N06 ,Fs2 ,v110
 .byte   W08
 .byte   N05 ,Cn2 ,v073
 .byte   W09
 .byte   Cn2 ,v089
 .byte   W03
@  #09 @096   ----------------------------------------
 .byte   W06
 .byte   N06 ,Fs2 ,v121
 .byte   W08
 .byte   Cn2 ,v084
 .byte   W17
 .byte   Fs2 ,v107
 .byte   W09
 .byte   N08 ,Cn2 ,v079
 .byte   W17
 .byte   N05 ,Fs2 ,v110
 .byte   W09
 .byte   Cn2 ,v062
 .byte   W08
 .byte   Cn2 ,v072
 .byte   W09
 .byte   N07 ,Fs2 ,v121
 .byte   W09
 .byte   N04 ,Cn2 ,v089
 .byte   W04
@  #09 @097   ----------------------------------------
 .byte   W04
 .byte   N06
 .byte   W09
 .byte   Fs2 ,v100
 .byte   W08
 .byte   Cn2 ,v067
 .byte   W18
 .byte   Fs2 ,v100
 .byte   W08
 .byte   N07 ,Cn2 ,v066
 .byte   W17
 .byte   Fs2 ,v092
 .byte   W09
 .byte   Cn2 ,v065
 .byte   W17
 .byte   Fs2 ,v102
 .byte   W06
@  #09 @098   ----------------------------------------
 .byte   W02
 .byte   N08 ,Cn2 ,v066
 .byte   W18
 .byte   N06 ,Fs2 ,v095
 .byte   W08
 .byte   N10 ,Cn2 ,v055
 .byte   W17
 .byte   N07 ,Fs2 ,v100
 .byte   W09
 .byte   N09 ,Cn2 ,v065
 .byte   W17
 .byte   N06 ,Fs2 ,v100
 .byte   W08
 .byte   N10 ,Cn2 ,v067
 .byte   W17
@  #09 @099   ----------------------------------------
 .byte   W01
 .byte   N05 ,Fs2 ,v100
 .byte   W08
 .byte   Cn2 ,v067
 .byte   W09
 .byte   N04 ,Cn2 ,v074
 .byte   W09
 .byte   N06 ,Fs2 ,v115
 .byte   W08
 .byte   N08 ,Cn2 ,v073
 .byte   W17
 .byte   N07 ,Fs2 ,v092
 .byte   W09
 .byte   N08 ,Cn2 ,v066
 .byte   W17
 .byte   N06 ,Fs2 ,v095
 .byte   W08
 .byte   N08 ,Cn2 ,v066
 .byte   W10
@  #09 @100   ----------------------------------------
 .byte   W08
 .byte   N05 ,Fs2 ,v092
 .byte   W08
 .byte   N04 ,Cn2 ,v067
 .byte   W09
 .byte   N07 ,Cn2 ,v084
 .byte   W08
 .byte   N08 ,Fs2 ,v092
 .byte   W09
 .byte   N06 ,Cn2 ,v074
 .byte   W17
 .byte   N07 ,Fs2 ,v089
 .byte   W01
 .byte   VOL , 48*song04_mvl/mxv
 .byte   W08
 .byte   N06 ,Cn2 ,v071
 .byte   W16
 .byte   VOL , 46*song04_mvl/mxv
 .byte   W01
 .byte   N06 ,Fs2 ,v100
 .byte   W08
 .byte   N05 ,Cn2 ,v067
 .byte   W03
@  #09 @101   ----------------------------------------
 .byte   W06
 .byte   N04 ,Cn2 ,v070
 .byte   W06
 .byte   VOL , 44*song04_mvl/mxv
 .byte   W03
 .byte   N06 ,Fs2 ,v110
 .byte   W08
 .byte   N05 ,Cn2 ,v072
 .byte   W09
 .byte   Cn2 ,v082
 .byte   W03
 .byte   VOL , 42*song04_mvl/mxv
 .byte   W05
 .byte   N06 ,Fs2 ,v121
 .byte   W09
 .byte   Cn2 ,v074
 .byte   W08
 .byte   VOL , 40*song04_mvl/mxv
 .byte   W01
 .byte   N01 ,Cn2 ,v065
 .byte   W08
 .byte   N06 ,Fs2 ,v110
 .byte   W09
 .byte   N05 ,Cn2 ,v064
 .byte   W03
 .byte   VOL , 38*song04_mvl/mxv
 .byte   W14
 .byte   N06 ,Fs2 ,v089
 .byte   W04
@  #09 @102   ----------------------------------------
 .byte   W02
 .byte   VOL , 36*song04_mvl/mxv
 .byte   W02
 .byte   N08 ,Cn2 ,v065
 .byte   W18
 .byte   N06 ,Fs2 ,v100
 .byte   VOL , 34*song04_mvl/mxv
 .byte   W08
 .byte   N05 ,Cn2 ,v066
 .byte   W08
 .byte   N06 ,Cn2 ,v078
 .byte   W02
 .byte   VOL , 32*song04_mvl/mxv
 .byte   W07
 .byte   N08 ,Fs2 ,v115
 .byte   W09
 .byte   N06 ,Cn2 ,v066
 .byte   W02
 .byte   VOL , 30*song04_mvl/mxv
 .byte   W15
 .byte   N07 ,Fs2 ,v102
 .byte   W02
 .byte   VOL , 28*song04_mvl/mxv
 .byte   W06
 .byte   N08 ,Cn2 ,v066
 .byte   W11
 .byte   VOL , 26*song04_mvl/mxv
 .byte   W04
@  #09 @103   ----------------------------------------
 .byte   W02
 .byte   N06 ,Fs2 ,v100
 .byte   W08
 .byte   N08 ,Cn2 ,v070
 .byte   W02
 .byte   VOL , 24*song04_mvl/mxv
 .byte   W15
 .byte   VOL , 22*song04_mvl/mxv
 .byte   W01
 .byte   N06 ,Fs2 ,v102
 .byte   W08
 .byte   N05 ,Cn2 ,v071
 .byte   W06
 .byte   VOL , 20*song04_mvl/mxv
 .byte   W03
 .byte   N06 ,Cn2 ,v086
 .byte   W09
 .byte   N07 ,Fs2 ,v115
 .byte   W02
 .byte   VOL , 18*song04_mvl/mxv
 .byte   W06
 .byte   N07 ,Cn2 ,v078
 .byte   W08
 .byte   VOL , 16*song04_mvl/mxv
 .byte   W10
 .byte   N06 ,Fs2 ,v107
 .byte   W04
 .byte   VOL , 14*song04_mvl/mxv
 .byte   W04
 .byte   N08 ,Cn2 ,v072
 .byte   W08
@  #09 @104   ----------------------------------------
 .byte   W01
 .byte   VOL , 12*song04_mvl/mxv
 .byte   W08
 .byte   N06 ,Fs2 ,v100
 .byte   W05
 .byte   VOL , 10*song04_mvl/mxv
 .byte   W04
 .byte   N07 ,Cn2 ,v059
 .byte   W08
 .byte   VOL , 10*song04_mvl/mxv
 .byte   W09
 .byte   N05 ,Fs2 ,v110
 .byte   W03
 .byte   VOL , 10*song04_mvl/mxv
 .byte   W05
 .byte   N05 ,Cn2 ,v073
 .byte   W06
 .byte   VOL , 10*song04_mvl/mxv
 .byte   W03
 .byte   N05 ,Cn2 ,v089
 .byte   W08
 .byte   VOL , 10*song04_mvl/mxv
 .byte   W01
 .byte   N06 ,Fs2 ,v121
 .byte   W08
 .byte   Cn2 ,v084
 .byte   W02
 .byte   VOL , 10*song04_mvl/mxv
 .byte   W11
 .byte   VOL , 10*song04_mvl/mxv
 .byte   W04
 .byte   N06 ,Fs2 ,v107
 .byte   W06
 .byte   VOL , 10*song04_mvl/mxv
 .byte   W03
 .byte   N08 ,Cn2 ,v079
 .byte   W01
@  #09 @105   ----------------------------------------
 .byte   W06
 .byte   VOL , 10*song04_mvl/mxv
 .byte   W09
 .byte   VOL , 10*song04_mvl/mxv
 .byte   W01
 .byte   N05 ,Fs2 ,v110
 .byte   W08
 .byte   VOL , 10*song04_mvl/mxv
 .byte   N06 ,Cn2 ,v062
 .byte   W09
 .byte   N05 ,Cn2 ,v072
 .byte   W01
 .byte   VOL , 10*song04_mvl/mxv
 .byte   W08
 .byte   N06 ,Fs2 ,v121
 .byte   VOL , 10*song04_mvl/mxv
 .byte   W08
 .byte   N05 ,Cn2 ,v089
 .byte   W01
 .byte   VOL , 10*song04_mvl/mxv
 .byte   W08
 .byte   N05
 .byte   W36
 .byte   W01
@  #09 @106   ----------------------------------------
 .byte   W96
@  #09 @107   ----------------------------------------
 .byte   W96
@  #09 @108   ----------------------------------------
 .byte   VOL , 75*song04_mvl/mxv
 .byte   GOTO
  .word Label_0100548E
@  #09 @109   ----------------------------------------
 .byte   W96
@  #09 @110   ----------------------------------------
 .byte   PATT
  .word Label_548415
@  #09 @111   ----------------------------------------
 .byte   W96
@  #09 @112   ----------------------------------------
 .byte   W13
 .byte   FINE

@**************** Track 10 (Midi-Chn.9) ****************@

song04_010:
@  #10 @000   ----------------------------------------
 .byte   KEYSH , song04_key+0
Label_01005A0E:
 .byte   VOICE , 14
 .byte   VOL , 35*song04_mvl/mxv
 .byte   PAN , c_v+26
 .byte   W96
@  #10 @001   ----------------------------------------
 .byte   W96
@  #10 @002   ----------------------------------------
 .byte   W92
 .byte   W02
 .byte   N06 ,Cn2 ,v086
 .byte   W02
@  #10 @003   ----------------------------------------
 .byte   W10
 .byte   Fs1 ,v092
 .byte   W12
 .byte   N08 ,Cn1 ,v071
 .byte   W72
 .byte   W02
@  #10 @004   ----------------------------------------
 .byte   W52
 .byte   W01
 .byte   N07 ,Cn2 ,v086
 .byte   W12
 .byte   N06 ,Fs1 ,v089
 .byte   W13
 .byte   N10 ,Cs1 ,v080
 .byte   W18
@  #10 @005   ----------------------------------------
 .byte   W84
 .byte   W02
 .byte   N07 ,Cn2
 .byte   W10
@  #10 @006   ----------------------------------------
 .byte   W02
 .byte   N06 ,Fs1 ,v096
 .byte   W11
 .byte   N09 ,Cn1 ,v067
 .byte   W80
 .byte   W03
@  #10 @007   ----------------------------------------
 .byte   W96
@  #10 @008   ----------------------------------------
 .byte   W96
@  #10 @009   ----------------------------------------
 .byte   W96
@  #10 @010   ----------------------------------------
 .byte   W48
 .byte   W03
 .byte   N07 ,Cn2 ,v092
 .byte   W12
 .byte   N06 ,Fs1 ,v096
 .byte   W12
 .byte   N09 ,Cn1 ,v077
 .byte   W21
@  #10 @011   ----------------------------------------
 .byte   W78
 .byte   N08 ,Cn2 ,v089
 .byte   W12
 .byte   N07 ,Fs1 ,v100
 .byte   W06
@  #10 @012   ----------------------------------------
 .byte   W06
 .byte   N08 ,Cs1 ,v096
 .byte   W90
@  #10 @013   ----------------------------------------
 .byte   W42
 .byte   N06 ,Cn2 ,v086
 .byte   W12
 .byte   Fs1 ,v100
 .byte   W11
 .byte   N09 ,Cn1 ,v083
 .byte   W30
 .byte   W01
@  #10 @014   ----------------------------------------
 .byte   W96
@  #10 @015   ----------------------------------------
 .byte   W96
@  #10 @016   ----------------------------------------
 .byte   W96
@  #10 @017   ----------------------------------------
 .byte   W96
@  #10 @018   ----------------------------------------
 .byte   W96
@  #10 @019   ----------------------------------------
 .byte   W96
@  #10 @020   ----------------------------------------
 .byte   W96
@  #10 @021   ----------------------------------------
 .byte   W20
 .byte   N07 ,Cn2 ,v089
 .byte   W14
 .byte   N06 ,Fs1 ,v092
 .byte   W12
 .byte   N08 ,Cn1 ,v062
 .byte   W48
 .byte   W02
@  #10 @022   ----------------------------------------
 .byte   W52
 .byte   W01
 .byte   N07 ,Cn2 ,v089
 .byte   W12
 .byte   N06 ,Fs1 ,v096
 .byte   W12
 .byte   N10 ,Cs1 ,v100
 .byte   W19
@  #10 @023   ----------------------------------------
 .byte   W96
@  #10 @024   ----------------------------------------
 .byte   W96
@  #10 @025   ----------------------------------------
 .byte   W96
@  #10 @026   ----------------------------------------
 .byte   W84
 .byte   N06 ,Cn2 ,v083
 .byte   W12
@  #10 @027   ----------------------------------------
 .byte   N05 ,Fs1 ,v105
 .byte   W11
 .byte   N07 ,Cn1 ,v092
 .byte   W84
 .byte   W01
@  #10 @028   ----------------------------------------
 .byte   W17
 .byte   N05 ,Cn2 ,v089
 .byte   W11
 .byte   Fs1 ,v096
 .byte   W10
 .byte   N07 ,Cs1 ,v100
 .byte   W56
 .byte   W02
@  #10 @029   ----------------------------------------
 .byte   W96
@  #10 @030   ----------------------------------------
 .byte   W96
@  #10 @031   ----------------------------------------
 .byte   W96
@  #10 @032   ----------------------------------------
 .byte   W96
@  #10 @033   ----------------------------------------
 .byte   W96
@  #10 @034   ----------------------------------------
 .byte   W96
@  #10 @035   ----------------------------------------
 .byte   W84
 .byte   W03
 .byte   Cn2 ,v092
 .byte   W09
@  #10 @036   ----------------------------------------
 .byte   W03
 .byte   N06 ,Fs1 ,v105
 .byte   W11
 .byte   N09 ,Cn1 ,v073
 .byte   W80
 .byte   W02
@  #10 @037   ----------------------------------------
 .byte   W72
 .byte   W01
 .byte   N07 ,Cn2 ,v086
 .byte   W11
 .byte   N06 ,Fs1 ,v096
 .byte   W11
 .byte   N09 ,Cs1 ,v092
 .byte   W01
@  #10 @038   ----------------------------------------
 .byte   W96
@  #10 @039   ----------------------------------------
 .byte   W54
 .byte   N06 ,Cn2 ,v089
 .byte   W11
 .byte   Fs1 ,v105
 .byte   W11
 .byte   N10 ,Cn1 ,v077
 .byte   W20
@  #10 @040   ----------------------------------------
 .byte   W96
@  #10 @041   ----------------------------------------
 .byte   W96
@  #10 @042   ----------------------------------------
 .byte   W54
 .byte   W01
 .byte   N07 ,Cn2 ,v086
 .byte   W12
 .byte   Fs1 ,v105
 .byte   W11
 .byte   N10 ,Cn1 ,v086
 .byte   W18
@  #10 @043   ----------------------------------------
 .byte   W88
 .byte   N07 ,Cn2 ,v083
 .byte   W08
@  #10 @044   ----------------------------------------
 .byte   W04
 .byte   N06 ,Fs1 ,v100
 .byte   W12
 .byte   N09 ,Cs1
 .byte   W80
@  #10 @045   ----------------------------------------
 .byte   W48
 .byte   W01
 .byte   N06 ,Cn2 ,v086
 .byte   W12
 .byte   Fs1 ,v105
 .byte   W12
 .byte   N09 ,Cn1 ,v089
 .byte   W23
@  #10 @046   ----------------------------------------
 .byte   W96
@  #10 @047   ----------------------------------------
 .byte   W96
@  #10 @048   ----------------------------------------
 .byte   W96
@  #10 @049   ----------------------------------------
 .byte   W96
@  #10 @050   ----------------------------------------
 .byte   W96
@  #10 @051   ----------------------------------------
 .byte   W96
@  #10 @052   ----------------------------------------
 .byte   W11
 .byte   N06 ,Cn2 ,v092
 .byte   W11
 .byte   Fs1 ,v110
 .byte   W11
 .byte   N07 ,Cn1 ,v096
 .byte   W60
 .byte   W03
@  #10 @053   ----------------------------------------
 .byte   W78
 .byte   W01
 .byte   Cn2 ,v083
 .byte   W12
 .byte   N04 ,Fs1 ,v096
 .byte   W02
 .byte   N02 ,Gn1 ,v055
 .byte   W03
@  #10 @054   ----------------------------------------
 .byte   W06
 .byte   N07 ,Cs1 ,v100
 .byte   W90
@  #10 @055   ----------------------------------------
 .byte   W96
@  #10 @056   ----------------------------------------
 .byte   W84
 .byte   W03
 .byte   N06 ,Cn2 ,v083
 .byte   W09
@  #10 @057   ----------------------------------------
 .byte   W03
 .byte   Fs1 ,v092
 .byte   W11
 .byte   N12 ,Cn1 ,v064
 .byte   W80
 .byte   W02
@  #10 @058   ----------------------------------------
 .byte   W24
 .byte   W02
 .byte   N07 ,Cn2 ,v083
 .byte   W12
 .byte   N05 ,Fs1 ,v096
 .byte   W10
 .byte   N22 ,Cs1
 .byte   W48
@  #10 @059   ----------------------------------------
 .byte   W60
 .byte   W02
 .byte   N07 ,Cn2 ,v092
 .byte   W12
 .byte   N04 ,Fs1 ,v100
 .byte   W02
 .byte   N02 ,Fn1 ,v080
 .byte   W08
 .byte   N08 ,Cn1 ,v077
 .byte   W12
@  #10 @060   ----------------------------------------
 .byte   W96
@  #10 @061   ----------------------------------------
 .byte   W08
 .byte   N06 ,Cn2 ,v086
 .byte   W10
 .byte   N05 ,Fs1 ,v096
 .byte   W11
 .byte   N12 ,Cs1
 .byte   W66
 .byte   W01
@  #10 @062   ----------------------------------------
 .byte   W32
 .byte   N07 ,Cn2
 .byte   W12
 .byte   N06 ,Fs1 ,v100
 .byte   W10
 .byte   N08 ,Cn1 ,v083
 .byte   W42
@  #10 @063   ----------------------------------------
 .byte   W60
 .byte   W02
 .byte   N06 ,Cn2 ,v100
 .byte   W10
 .byte   N05 ,Fs1 ,v092
 .byte   W11
 .byte   N12 ,Cs1
 .byte   W13
@  #10 @064   ----------------------------------------
 .byte   W96
@  #10 @065   ----------------------------------------
 .byte   W96
@  #10 @066   ----------------------------------------
 .byte   W66
 .byte   W01
 .byte   N07 ,Cn2 ,v080
 .byte   W11
 .byte   N06 ,Fs1 ,v092
 .byte   W11
 .byte   N09 ,Cn1 ,v071
 .byte   W07
@  #10 @067   ----------------------------------------
 .byte   W96
@  #10 @068   ----------------------------------------
 .byte   W96
@  #10 @069   ----------------------------------------
 .byte   W24
 .byte   W02
 .byte   N06 ,Cn2 ,v077
 .byte   W10
 .byte   N05 ,Fs1 ,v092
 .byte   W11
 .byte   N08 ,Cs1 ,v096
 .byte   W48
 .byte   W01
@  #10 @070   ----------------------------------------
 .byte   W96
@  #10 @071   ----------------------------------------
 .byte   W12
 .byte   N07 ,Cn2 ,v077
 .byte   W11
 .byte   N05 ,Fs1 ,v089
 .byte   W10
 .byte   N08 ,Cn1 ,v071
 .byte   W60
 .byte   W03
@  #10 @072   ----------------------------------------
 .byte   W96
@  #10 @073   ----------------------------------------
 .byte   W96
@  #10 @074   ----------------------------------------
 .byte   W96
@  #10 @075   ----------------------------------------
 .byte   W96
@  #10 @076   ----------------------------------------
 .byte   W96
@  #10 @077   ----------------------------------------
 .byte   W96
@  #10 @078   ----------------------------------------
 .byte   W96
@  #10 @079   ----------------------------------------
 .byte   W96
@  #10 @080   ----------------------------------------
 .byte   W96
@  #10 @081   ----------------------------------------
 .byte   W96
@  #10 @082   ----------------------------------------
 .byte   W96
@  #10 @083   ----------------------------------------
 .byte   W96
@  #10 @084   ----------------------------------------
 .byte   W96
@  #10 @085   ----------------------------------------
 .byte   W96
@  #10 @086   ----------------------------------------
 .byte   W96
@  #10 @087   ----------------------------------------
 .byte   W96
@  #10 @088   ----------------------------------------
 .byte   W96
@  #10 @089   ----------------------------------------
 .byte   W96
@  #10 @090   ----------------------------------------
 .byte   W96
@  #10 @091   ----------------------------------------
 .byte   W96
@  #10 @092   ----------------------------------------
 .byte   W96
@  #10 @093   ----------------------------------------
 .byte   W96
@  #10 @094   ----------------------------------------
 .byte   W96
@  #10 @095   ----------------------------------------
 .byte   W96
@  #10 @096   ----------------------------------------
 .byte   W96
@  #10 @097   ----------------------------------------
 .byte   W96
@  #10 @098   ----------------------------------------
 .byte   W96
@  #10 @099   ----------------------------------------
 .byte   W96
@  #10 @100   ----------------------------------------
 .byte   W96
@  #10 @101   ----------------------------------------
 .byte   W96
@  #10 @102   ----------------------------------------
 .byte   W96
@  #10 @103   ----------------------------------------
 .byte   W96
@  #10 @104   ----------------------------------------
 .byte   W96
@  #10 @105   ----------------------------------------
 .byte   W96
@  #10 @106   ----------------------------------------
 .byte   W96
@  #10 @107   ----------------------------------------
 .byte   W96
@  #10 @108   ----------------------------------------
 .byte   GOTO
  .word Label_01005A0E
@  #10 @109   ----------------------------------------
 .byte   W96
@  #10 @110   ----------------------------------------
 .byte   PATT
  .word Label_548415
@  #10 @111   ----------------------------------------
 .byte   W96
@  #10 @112   ----------------------------------------
 .byte   W13
 .byte   FINE

@**************** Track 11 (Midi-Chn.10) ****************@

song04_011:
@  #11 @000   ----------------------------------------
 .byte   KEYSH , song04_key+0
Label_01005BEA:
 .byte   VOICE , 14
 .byte   VOL , 28*song04_mvl/mxv
 .byte   PAN , c_v-29
 .byte   W96
@  #11 @001   ----------------------------------------
 .byte   W96
@  #11 @002   ----------------------------------------
 .byte   W96
@  #11 @003   ----------------------------------------
 .byte   W15
 .byte   N07 ,Cn2 ,v086
 .byte   W12
 .byte   N06 ,Fs1 ,v092
 .byte   W12
 .byte   N09 ,Cn1 ,v071
 .byte   W56
 .byte   W01
@  #11 @004   ----------------------------------------
 .byte   W68
 .byte   W02
 .byte   N06 ,Cn2 ,v086
 .byte   W12
 .byte   Fs1 ,v089
 .byte   W14
@  #11 @005   ----------------------------------------
 .byte   N09 ,Cs1 ,v080
 .byte   W96
@  #11 @006   ----------------------------------------
 .byte   W07
 .byte   N07 ,Cn2
 .byte   W12
 .byte   N06 ,Fs1 ,v096
 .byte   W11
 .byte   N09 ,Cn1 ,v067
 .byte   W66
@  #11 @007   ----------------------------------------
 .byte   W96
@  #11 @008   ----------------------------------------
 .byte   W96
@  #11 @009   ----------------------------------------
 .byte   W96
@  #11 @010   ----------------------------------------
 .byte   W68
 .byte   N07 ,Cn2 ,v092
 .byte   W12
 .byte   N06 ,Fs1 ,v096
 .byte   W12
 .byte   N09 ,Cn1 ,v077
 .byte   W04
@  #11 @011   ----------------------------------------
 .byte   W92
 .byte   W03
 .byte   N07 ,Cn2 ,v089
 .byte   W01
@  #11 @012   ----------------------------------------
 .byte   W12
 .byte   N06 ,Fs1 ,v100
 .byte   W12
 .byte   N07 ,Cs1 ,v096
 .byte   W72
@  #11 @013   ----------------------------------------
 .byte   W56
 .byte   W03
 .byte   Cn2 ,v086
 .byte   W12
 .byte   N06 ,Fs1 ,v100
 .byte   W11
 .byte   N09 ,Cn1 ,v083
 .byte   W14
@  #11 @014   ----------------------------------------
 .byte   W96
@  #11 @015   ----------------------------------------
 .byte   W96
@  #11 @016   ----------------------------------------
 .byte   W96
@  #11 @017   ----------------------------------------
 .byte   W96
@  #11 @018   ----------------------------------------
 .byte   W96
@  #11 @019   ----------------------------------------
 .byte   W96
@  #11 @020   ----------------------------------------
 .byte   W96
@  #11 @021   ----------------------------------------
 .byte   W36
 .byte   W02
 .byte   N06 ,Cn2 ,v089
 .byte   W13
 .byte   Fs1 ,v092
 .byte   W12
 .byte   N08 ,Cn1 ,v062
 .byte   W32
 .byte   W01
@  #11 @022   ----------------------------------------
 .byte   W68
 .byte   W02
 .byte   N07 ,Cn2 ,v089
 .byte   W12
 .byte   N06 ,Fs1 ,v096
 .byte   W12
 .byte   N10 ,Cs1 ,v100
 .byte   W02
@  #11 @023   ----------------------------------------
 .byte   W96
@  #11 @024   ----------------------------------------
 .byte   W96
@  #11 @025   ----------------------------------------
 .byte   W96
@  #11 @026   ----------------------------------------
 .byte   W96
@  #11 @027   ----------------------------------------
 .byte   W05
 .byte   N06 ,Cn2 ,v083
 .byte   W12
 .byte   N05 ,Fs1 ,v105
 .byte   W11
 .byte   N07 ,Cn1 ,v092
 .byte   W68
@  #11 @028   ----------------------------------------
 .byte   W32
 .byte   W02
 .byte   N06 ,Cn2 ,v089
 .byte   W12
 .byte   N04 ,Fs1 ,v096
 .byte   W10
 .byte   N06 ,Cs1 ,v100
 .byte   W40
@  #11 @029   ----------------------------------------
 .byte   W96
@  #11 @030   ----------------------------------------
 .byte   W96
@  #11 @031   ----------------------------------------
 .byte   W96
@  #11 @032   ----------------------------------------
 .byte   W96
@  #11 @033   ----------------------------------------
 .byte   W96
@  #11 @034   ----------------------------------------
 .byte   W96
@  #11 @035   ----------------------------------------
 .byte   W96
@  #11 @036   ----------------------------------------
 .byte   W08
 .byte   N07 ,Cn2 ,v092
 .byte   W12
 .byte   N06 ,Fs1 ,v105
 .byte   W11
 .byte   N09 ,Cn1 ,v073
 .byte   W64
 .byte   W01
@  #11 @037   ----------------------------------------
 .byte   W90
 .byte   N07 ,Cn2 ,v086
 .byte   W06
@  #11 @038   ----------------------------------------
 .byte   W05
 .byte   N05 ,Fs1 ,v096
 .byte   W11
 .byte   N09 ,Cs1 ,v092
 .byte   W80
@  #11 @039   ----------------------------------------
 .byte   W68
 .byte   W03
 .byte   N06 ,Cn2 ,v089
 .byte   W11
 .byte   Fs1 ,v105
 .byte   W12
 .byte   N09 ,Cn1 ,v077
 .byte   W02
@  #11 @040   ----------------------------------------
 .byte   W96
@  #11 @041   ----------------------------------------
 .byte   W96
@  #11 @042   ----------------------------------------
 .byte   W72
 .byte   N07 ,Cn2 ,v086
 .byte   W12
 .byte   Fs1 ,v105
 .byte   W12
@  #11 @043   ----------------------------------------
 .byte   N09 ,Cn1 ,v086
 .byte   W96
@  #11 @044   ----------------------------------------
 .byte   W10
 .byte   N06 ,Cn2 ,v083
 .byte   W11
 .byte   Fs1 ,v100
 .byte   W12
 .byte   N09 ,Cs1
 .byte   W60
 .byte   W03
@  #11 @045   ----------------------------------------
 .byte   W66
 .byte   N06 ,Cn2 ,v086
 .byte   W12
 .byte   Fs1 ,v105
 .byte   W12
 .byte   N09 ,Cn1 ,v089
 .byte   W06
@  #11 @046   ----------------------------------------
 .byte   W96
@  #11 @047   ----------------------------------------
 .byte   W96
@  #11 @048   ----------------------------------------
 .byte   W96
@  #11 @049   ----------------------------------------
 .byte   W96
@  #11 @050   ----------------------------------------
 .byte   W96
@  #11 @051   ----------------------------------------
 .byte   W96
@  #11 @052   ----------------------------------------
 .byte   W28
 .byte   N06 ,Cn2 ,v092
 .byte   W12
 .byte   N05 ,Fs1 ,v110
 .byte   W10
 .byte   N07 ,Cn1 ,v096
 .byte   W44
 .byte   W02
@  #11 @053   ----------------------------------------
 .byte   W96
@  #11 @054   ----------------------------------------
 .byte   Cn2 ,v083
 .byte   W12
 .byte   N04 ,Fs1 ,v096
 .byte   W02
 .byte   N02 ,Gn1 ,v055
 .byte   W10
 .byte   N06 ,Cs1 ,v100
 .byte   W72
@  #11 @055   ----------------------------------------
 .byte   W96
@  #11 @056   ----------------------------------------
 .byte   W96
@  #11 @057   ----------------------------------------
 .byte   W08
 .byte   Cn2 ,v083
 .byte   W12
 .byte   Fs1 ,v092
 .byte   W12
 .byte   N11 ,Cn1 ,v064
 .byte   W64
@  #11 @058   ----------------------------------------
 .byte   W44
 .byte   N06 ,Cn2 ,v083
 .byte   W11
 .byte   N05 ,Fs1 ,v096
 .byte   W10
 .byte   N23 ,Cs1
 .byte   W30
 .byte   W01
@  #11 @059   ----------------------------------------
 .byte   W80
 .byte   N06 ,Cn2 ,v092
 .byte   W11
 .byte   N04 ,Fs1 ,v100
 .byte   W02
 .byte   N02 ,Fn1 ,v080
 .byte   W03
@  #11 @060   ----------------------------------------
 .byte   W05
 .byte   N08 ,Cn1 ,v077
 .byte   W90
 .byte   W01
@  #11 @061   ----------------------------------------
 .byte   W24
 .byte   N06 ,Cn2 ,v086
 .byte   W11
 .byte   N05 ,Fs1 ,v096
 .byte   W11
 .byte   N12 ,Cs1
 .byte   W48
 .byte   W02
@  #11 @062   ----------------------------------------
 .byte   W48
 .byte   W02
 .byte   N06 ,Cn2
 .byte   W12
 .byte   N05 ,Fs1 ,v100
 .byte   W09
 .byte   N09 ,Cn1 ,v083
 .byte   W24
 .byte   W01
@  #11 @063   ----------------------------------------
 .byte   W78
 .byte   W01
 .byte   N06 ,Cn2 ,v100
 .byte   W11
 .byte   N04 ,Fs1 ,v092
 .byte   W06
@  #11 @064   ----------------------------------------
 .byte   W04
 .byte   N12 ,Cs1
 .byte   W92
@  #11 @065   ----------------------------------------
 .byte   W96
@  #11 @066   ----------------------------------------
 .byte   W84
 .byte   N07 ,Cn2 ,v080
 .byte   W12
@  #11 @067   ----------------------------------------
 .byte   N06 ,Fs1 ,v092
 .byte   W10
 .byte   N09 ,Cn1 ,v071
 .byte   W84
 .byte   W02
@  #11 @068   ----------------------------------------
 .byte   W96
@  #11 @069   ----------------------------------------
 .byte   W42
 .byte   W01
 .byte   N06 ,Cn2 ,v077
 .byte   W10
 .byte   N05 ,Fs1 ,v092
 .byte   W11
 .byte   N08 ,Cs1 ,v096
 .byte   W32
@  #11 @070   ----------------------------------------
 .byte   W96
@  #11 @071   ----------------------------------------
 .byte   W28
 .byte   W01
 .byte   N07 ,Cn2 ,v077
 .byte   W11
 .byte   N04 ,Fs1 ,v089
 .byte   W08
 .byte   N06 ,Cn1 ,v071
 .byte   W48
@  #11 @072   ----------------------------------------
 .byte   W96
@  #11 @073   ----------------------------------------
 .byte   W96
@  #11 @074   ----------------------------------------
 .byte   W96
@  #11 @075   ----------------------------------------
 .byte   W96
@  #11 @076   ----------------------------------------
 .byte   W96
@  #11 @077   ----------------------------------------
 .byte   W96
@  #11 @078   ----------------------------------------
 .byte   W96
@  #11 @079   ----------------------------------------
 .byte   W96
@  #11 @080   ----------------------------------------
 .byte   W96
@  #11 @081   ----------------------------------------
 .byte   W96
@  #11 @082   ----------------------------------------
 .byte   W96
@  #11 @083   ----------------------------------------
 .byte   W96
@  #11 @084   ----------------------------------------
 .byte   W96
@  #11 @085   ----------------------------------------
 .byte   W96
@  #11 @086   ----------------------------------------
 .byte   W96
@  #11 @087   ----------------------------------------
 .byte   W96
@  #11 @088   ----------------------------------------
 .byte   W96
@  #11 @089   ----------------------------------------
 .byte   W96
@  #11 @090   ----------------------------------------
 .byte   W96
@  #11 @091   ----------------------------------------
 .byte   W96
@  #11 @092   ----------------------------------------
 .byte   W96
@  #11 @093   ----------------------------------------
 .byte   W96
@  #11 @094   ----------------------------------------
 .byte   W96
@  #11 @095   ----------------------------------------
 .byte   W96
@  #11 @096   ----------------------------------------
 .byte   W96
@  #11 @097   ----------------------------------------
 .byte   W96
@  #11 @098   ----------------------------------------
 .byte   W96
@  #11 @099   ----------------------------------------
 .byte   W96
@  #11 @100   ----------------------------------------
 .byte   W96
@  #11 @101   ----------------------------------------
 .byte   W96
@  #11 @102   ----------------------------------------
 .byte   W96
@  #11 @103   ----------------------------------------
 .byte   W96
@  #11 @104   ----------------------------------------
 .byte   W96
@  #11 @105   ----------------------------------------
 .byte   W96
@  #11 @106   ----------------------------------------
 .byte   W96
@  #11 @107   ----------------------------------------
 .byte   W96
@  #11 @108   ----------------------------------------
 .byte   GOTO
  .word Label_01005BEA
@  #11 @109   ----------------------------------------
 .byte   W96
@  #11 @110   ----------------------------------------
 .byte   PATT
  .word Label_548415
@  #11 @111   ----------------------------------------
 .byte   W96
@  #11 @112   ----------------------------------------
 .byte   W13
 .byte   FINE

@**************** Track 12 (Midi-Chn.11) ****************@

song04_012:
@  #12 @000   ----------------------------------------
 .byte   KEYSH , song04_key+0
Label_01005DBA:
 .byte   VOICE , 75
 .byte   VOL , 27*song04_mvl/mxv
 .byte   PAN , c_v+63
 .byte   W96
@  #12 @001   ----------------------------------------
 .byte   W96
@  #12 @002   ----------------------------------------
 .byte   W96
@  #12 @003   ----------------------------------------
 .byte   W96
@  #12 @004   ----------------------------------------
 .byte   W96
@  #12 @005   ----------------------------------------
 .byte   W96
@  #12 @006   ----------------------------------------
 .byte   W72
 .byte   W02
 .byte   TIE ,Fs3 ,v102
 .byte   W22
@  #12 @007   ----------------------------------------
 .byte   W32
 .byte   W03
 .byte   BEND , c_v+2
 .byte   W04
 .byte   BEND , c_v+3
 .byte   W08
 .byte   BEND , c_v+5
 .byte   W06
 .byte   BEND , c_v+7
 .byte   W03
 .byte   BEND , c_v+8
 .byte   W03
 .byte   BEND , c_v+10
 .byte   W03
 .byte   BEND , c_v+12
 .byte   W04
 .byte   BEND , c_v+13
 .byte   W05
 .byte   BEND , c_v+15
 .byte   W07
 .byte   BEND , c_v+17
 .byte   W05
 .byte   BEND , c_v+19
 .byte   W08
 .byte   BEND , c_v+20
 .byte   W05
@  #12 @008   ----------------------------------------
 .byte   W03
 .byte   BEND , c_v+22
 .byte   W10
 .byte   BEND , c_v+24
 .byte   W07
 .byte   BEND , c_v+25
 .byte   W04
 .byte   BEND , c_v+27
 .byte   W03
 .byte   BEND , c_v+29
 .byte   W23
 .byte   BEND , c_v+30
 .byte   W21
 .byte   BEND , c_v+29
 .byte   W03
 .byte   BEND , c_v+27
 .byte   W02
 .byte   BEND , c_v+25
 .byte   W03
 .byte   BEND , c_v+23
 .byte   W03
 .byte   BEND , c_v+21
 .byte   W03
 .byte   BEND , c_v+20
 .byte   W04
 .byte   BEND , c_v+18
 .byte   W03
 .byte   BEND , c_v+16
 .byte   W03
 .byte   BEND , c_v+15
 .byte   W01
@  #12 @009   ----------------------------------------
 .byte   W03
 .byte   BEND , c_v+12
 .byte   W02
 .byte   BEND , c_v+10
 .byte   W02
 .byte   BEND , c_v+8
 .byte   W01
 .byte   BEND , c_v+7
 .byte   W02
 .byte   BEND , c_v+4
 .byte   W04
 .byte   BEND , c_v+3
 .byte   W02
 .byte   BEND , c_v+1
 .byte   W01
 .byte   BEND , c_v+0
 .byte   W24
 .byte   W03
 .byte   BEND , c_v-1
 .byte   W02
 .byte   BEND , c_v-3
 .byte   W02
 .byte   BEND , c_v-5
 .byte   W01
 .byte   BEND , c_v-7
 .byte   W02
 .byte   BEND , c_v-8
 .byte   W03
 .byte   BEND , c_v-10
 .byte   W01
 .byte   BEND , c_v-12
 .byte   W02
 .byte   BEND , c_v-14
 .byte   W03
 .byte   BEND , c_v-15
 .byte   W02
 .byte   BEND , c_v-17
 .byte   W02
 .byte   BEND , c_v-20
 .byte   W02
 .byte   BEND , c_v-21
 .byte   W02
 .byte   BEND , c_v-23
 .byte   W02
 .byte   BEND , c_v-27
 .byte   W02
 .byte   BEND , c_v-29
 .byte   W02
 .byte   BEND , c_v-31
 .byte   W02
 .byte   BEND , c_v-33
 .byte   W01
 .byte   BEND , c_v-34
 .byte   W01
 .byte   BEND , c_v-36
 .byte   W02
 .byte   BEND , c_v-38
 .byte   W01
 .byte   BEND , c_v-40
 .byte   W02
 .byte   BEND , c_v-43
 .byte   W02
 .byte   BEND , c_v-46
 .byte   W01
 .byte   EOT
 .byte   BEND , c_v-48
 .byte   W02
 .byte   BEND , c_v-50
 .byte   W01
 .byte   BEND , c_v-52
 .byte   W01
 .byte   BEND , c_v-53
 .byte   W02
 .byte   BEND , c_v-55
 .byte   W02
 .byte   BEND , c_v-57
 .byte   W02
@  #12 @010   ----------------------------------------
 .byte   W04
 .byte   BEND , c_v-59
 .byte   W16
 .byte   BEND , c_v-57
 .byte   W02
 .byte   BEND , c_v-55
 .byte   W02
 .byte   BEND , c_v-53
 .byte   W01
 .byte   BEND , c_v-51
 .byte   W01
 .byte   BEND , c_v-49
 .byte   W02
 .byte   BEND , c_v-47
 .byte   W02
 .byte   BEND , c_v-45
 .byte   W01
 .byte   BEND , c_v-43
 .byte   W01
 .byte   BEND , c_v-41
 .byte   W01
 .byte   BEND , c_v-37
 .byte   W01
 .byte   BEND , c_v-33
 .byte   W01
 .byte   BEND , c_v-30
 .byte   W01
 .byte   BEND , c_v-25
 .byte   W01
 .byte   BEND , c_v-24
 .byte   W01
 .byte   BEND , c_v-20
 .byte   W01
 .byte   BEND , c_v-18
 .byte   W01
 .byte   BEND , c_v-15
 .byte   W01
 .byte   BEND , c_v-14
 .byte   W01
 .byte   BEND , c_v-12
 .byte   W02
 .byte   BEND , c_v-10
 .byte   W03
 .byte   BEND , c_v-8
 .byte   W01
 .byte   BEND , c_v-4
 .byte   W01
 .byte   BEND , c_v-1
 .byte   W01
 .byte   BEND , c_v+0
 .byte   W44
 .byte   W02
@  #12 @011   ----------------------------------------
 .byte   W96
@  #12 @012   ----------------------------------------
 .byte   W96
@  #12 @013   ----------------------------------------
 .byte   W96
@  #12 @014   ----------------------------------------
 .byte   W96
@  #12 @015   ----------------------------------------
 .byte   W32
 .byte   W01
 .byte   TIE ,Ds4 ,v073
 .byte   W11
 .byte   BEND , c_v+5
 .byte   W01
 .byte   BEND , c_v+9
 .byte   W01
 .byte   BEND , c_v+13
 .byte   W01
 .byte   BEND , c_v+21
 .byte   W01
 .byte   BEND , c_v+24
 .byte   W03
 .byte   BEND , c_v+21
 .byte   W01
 .byte   BEND , c_v+16
 .byte   W01
 .byte   BEND , c_v+14
 .byte   W01
 .byte   BEND , c_v+8
 .byte   W01
 .byte   BEND , c_v+6
 .byte   W01
 .byte   BEND , c_v+2
 .byte   W02
 .byte   BEND , c_v+1
 .byte   W02
 .byte   BEND , c_v+0
 .byte   W36
@  #12 @016   ----------------------------------------
 .byte   W02
 .byte   BEND , c_v+2
 .byte   W01
 .byte   BEND , c_v+5
 .byte   W01
 .byte   BEND , c_v+11
 .byte   W02
 .byte   BEND , c_v+13
 .byte   W02
 .byte   BEND , c_v+7
 .byte   W01
 .byte   BEND , c_v+4
 .byte   W01
 .byte   BEND , c_v+2
 .byte   W01
 .byte   BEND , c_v+1
 .byte   W01
 .byte   BEND , c_v+0
 .byte   W09
 .byte   BEND , c_v+4
 .byte   W01
 .byte   BEND , c_v+12
 .byte   W01
 .byte   BEND , c_v+15
 .byte   W01
 .byte   BEND , c_v+20
 .byte   W04
 .byte   BEND , c_v+13
 .byte   W01
 .byte   BEND , c_v+10
 .byte   W01
 .byte   BEND , c_v+6
 .byte   W01
 .byte   BEND , c_v+4
 .byte   W01
 .byte   BEND , c_v+2
 .byte   W01
 .byte   BEND , c_v+0
 .byte   W11
 .byte   BEND , c_v+11
 .byte   W01
 .byte   BEND , c_v+15
 .byte   W01
 .byte   BEND , c_v+20
 .byte   W01
 .byte   BEND , c_v+21
 .byte   W03
 .byte   BEND , c_v+16
 .byte   W01
 .byte   BEND , c_v+13
 .byte   W01
 .byte   BEND , c_v+11
 .byte   W01
 .byte   BEND , c_v+5
 .byte   W01
 .byte   BEND , c_v+3
 .byte   W01
 .byte   BEND , c_v+2
 .byte   W02
 .byte   BEND , c_v+0
 .byte   W07
 .byte   BEND , c_v+1
 .byte   W01
 .byte   BEND , c_v+3
 .byte   W01
 .byte   BEND , c_v+11
 .byte   W01
 .byte   BEND , c_v+15
 .byte   W01
 .byte   BEND , c_v+22
 .byte   W04
 .byte   BEND , c_v+17
 .byte   W01
 .byte   BEND , c_v+13
 .byte   W01
 .byte   BEND , c_v+5
 .byte   W02
 .byte   BEND , c_v+0
 .byte   W10
 .byte   BEND , c_v+7
 .byte   W01
 .byte   BEND , c_v+13
 .byte   W01
 .byte   BEND , c_v+20
 .byte   W02
 .byte   BEND , c_v+22
 .byte   W01
 .byte   BEND , c_v+20
 .byte   W01
 .byte   BEND , c_v+12
 .byte   W01
 .byte   BEND , c_v+6
 .byte   W01
 .byte   BEND , c_v+2
 .byte   W01
 .byte   BEND , c_v+0
 .byte   W01
@  #12 @017   ----------------------------------------
 .byte   W48
 .byte   W02
 .byte   BEND , c_v+7
 .byte   W01
 .byte   BEND , c_v+13
 .byte   W01
 .byte   BEND , c_v+24
 .byte   W01
 .byte   BEND , c_v+26
 .byte   W03
 .byte   BEND , c_v+21
 .byte   W01
 .byte   BEND , c_v+17
 .byte   W01
 .byte   BEND , c_v+5
 .byte   W01
 .byte   BEND , c_v+1
 .byte   W01
 .byte   BEND , c_v+0
 .byte   W12
 .byte   BEND , c_v+6
 .byte   W01
 .byte   BEND , c_v+9
 .byte   W01
 .byte   BEND , c_v+13
 .byte   W01
 .byte   BEND , c_v+15
 .byte   W03
 .byte   BEND , c_v+10
 .byte   W01
 .byte   BEND , c_v+5
 .byte   W01
 .byte   BEND , c_v+0
 .byte   W09
 .byte   BEND , c_v+2
 .byte   W01
 .byte   BEND , c_v+11
 .byte   W01
 .byte   BEND , c_v+15
 .byte   W01
 .byte   BEND , c_v+20
 .byte   W03
 .byte   BEND , c_v+17
 .byte   W01
@  #12 @018   ----------------------------------------
 .byte   BEND , c_v+8
 .byte   W01
 .byte   BEND , c_v+5
 .byte   W01
 .byte   BEND , c_v+3
 .byte   W02
 .byte   BEND , c_v+0
 .byte   W08
 .byte   BEND , c_v+3
 .byte   W01
 .byte   BEND , c_v+6
 .byte   W01
 .byte   BEND , c_v+13
 .byte   W01
 .byte   BEND , c_v+15
 .byte   W01
 .byte   BEND , c_v+21
 .byte   W01
 .byte   BEND , c_v+22
 .byte   W03
 .byte   BEND , c_v+16
 .byte   W01
 .byte   BEND , c_v+11
 .byte   W01
 .byte   BEND , c_v+2
 .byte   W03
 .byte   BEND , c_v+1
 .byte   W01
 .byte   BEND , c_v+0
 .byte   W18
 .byte   BEND , c_v+10
 .byte   W01
 .byte   BEND , c_v+15
 .byte   W01
 .byte   BEND , c_v+19
 .byte   W01
 .byte   BEND , c_v+21
 .byte   W04
 .byte   BEND , c_v+17
 .byte   W01
 .byte   BEND , c_v+8
 .byte   W01
 .byte   BEND , c_v+4
 .byte   W01
 .byte   BEND , c_v+0
 .byte   W08
 .byte   BEND , c_v+1
 .byte   W01
 .byte   BEND , c_v+4
 .byte   W01
 .byte   BEND , c_v+13
 .byte   W01
 .byte   BEND , c_v+17
 .byte   W01
 .byte   BEND , c_v+22
 .byte   W01
 .byte   BEND , c_v+24
 .byte   W02
 .byte   BEND , c_v+22
 .byte   W01
 .byte   BEND , c_v+19
 .byte   W01
 .byte   BEND , c_v+13
 .byte   W01
 .byte   BEND , c_v+10
 .byte   W01
 .byte   BEND , c_v+6
 .byte   W01
 .byte   BEND , c_v+4
 .byte   W01
 .byte   BEND , c_v+2
 .byte   W01
 .byte   BEND , c_v+0
 .byte   W13
 .byte   BEND , c_v+3
 .byte   W01
 .byte   BEND , c_v+7
 .byte   W01
 .byte   BEND , c_v+16
 .byte   W01
 .byte   BEND , c_v+19
 .byte   W02
 .byte   BEND , c_v+20
 .byte   W01
 .byte   BEND , c_v+18
 .byte   W01
@  #12 @019   ----------------------------------------
 .byte   BEND , c_v+11
 .byte   W01
 .byte   BEND , c_v+6
 .byte   W01
 .byte   BEND , c_v+0
 .byte   W08
 .byte   BEND , c_v+4
 .byte   W01
 .byte   BEND , c_v+8
 .byte   W01
 .byte   BEND , c_v+15
 .byte   W01
 .byte   BEND , c_v+17
 .byte   W05
 .byte   BEND , c_v+10
 .byte   W01
 .byte   BEND , c_v+2
 .byte   W01
 .byte   BEND , c_v+0
 .byte   W19
 .byte   BEND , c_v+2
 .byte   W01
 .byte   BEND , c_v+9
 .byte   W01
 .byte   BEND , c_v+12
 .byte   W01
 .byte   BEND , c_v+17
 .byte   W02
 .byte   BEND , c_v+19
 .byte   W01
 .byte   BEND , c_v+17
 .byte   W01
 .byte   BEND , c_v+12
 .byte   W01
 .byte   BEND , c_v+7
 .byte   W01
 .byte   BEND , c_v+0
 .byte   W09
 .byte   BEND , c_v+8
 .byte   W01
 .byte   BEND , c_v+13
 .byte   W01
 .byte   BEND , c_v+17
 .byte   W02
 .byte   BEND , c_v+20
 .byte   W03
 .byte   BEND , c_v+13
 .byte   W01
 .byte   BEND , c_v+8
 .byte   W01
 .byte   BEND , c_v+0
 .byte   W30
@  #12 @020   ----------------------------------------
 .byte   W15
 .byte   BEND , c_v+2
 .byte   W01
 .byte   BEND , c_v+12
 .byte   W01
 .byte   BEND , c_v+16
 .byte   W01
 .byte   BEND , c_v+22
 .byte   W03
 .byte   BEND , c_v+19
 .byte   W01
 .byte   BEND , c_v+16
 .byte   W01
 .byte   BEND , c_v+5
 .byte   W01
 .byte   BEND , c_v+2
 .byte   W01
 .byte   BEND , c_v+0
 .byte   W07
 .byte   BEND , c_v+4
 .byte   W01
 .byte   BEND , c_v+8
 .byte   W01
 .byte   BEND , c_v+16
 .byte   W01
 .byte   BEND , c_v+17
 .byte   W03
 .byte   BEND , c_v+16
 .byte   W01
 .byte   BEND , c_v+13
 .byte   W01
 .byte   BEND , c_v+7
 .byte   W01
 .byte   BEND , c_v+4
 .byte   W01
 .byte   BEND , c_v+0
 .byte   W36
 .byte   W03
 .byte   BEND , c_v-5
 .byte   W01
 .byte   BEND , c_v-19
 .byte   W01
 .byte   BEND , c_v-24
 .byte   W01
 .byte   BEND , c_v-32
 .byte   W01
 .byte   BEND , c_v-35
 .byte   W01
 .byte   BEND , c_v-37
 .byte   W01
 .byte   BEND , c_v-39
 .byte   W02
 .byte   EOT
 .byte   W01
 .byte   BEND , c_v-41
 .byte   W02
 .byte   BEND , c_v-43
 .byte   W04
@  #12 @021   ----------------------------------------
 .byte   BEND , c_v-41
 .byte   W03
 .byte   BEND , c_v-39
 .byte   W05
 .byte   BEND , c_v-37
 .byte   W06
 .byte   BEND , c_v-36
 .byte   W02
 .byte   BEND , c_v-34
 .byte   W01
 .byte   BEND , c_v-32
 .byte   W01
 .byte   BEND , c_v-30
 .byte   W01
 .byte   BEND , c_v-28
 .byte   W01
 .byte   BEND , c_v-26
 .byte   W02
 .byte   BEND , c_v-24
 .byte   W01
 .byte   BEND , c_v-21
 .byte   W01
 .byte   BEND , c_v-19
 .byte   W02
 .byte   BEND , c_v-17
 .byte   W01
 .byte   BEND , c_v-14
 .byte   W01
 .byte   BEND , c_v-12
 .byte   W02
 .byte   BEND , c_v-9
 .byte   W01
 .byte   BEND , c_v-8
 .byte   W02
 .byte   BEND , c_v-5
 .byte   W01
 .byte   BEND , c_v-4
 .byte   W02
 .byte   BEND , c_v-1
 .byte   W02
 .byte   BEND , c_v+0
 .byte   W56
 .byte   W02
@  #12 @022   ----------------------------------------
 .byte   W96
@  #12 @023   ----------------------------------------
 .byte   W96
@  #12 @024   ----------------------------------------
 .byte   W32
 .byte   W02
 .byte   N52 ,Bn2 ,v074
 .byte   W24
 .byte   W02
 .byte   BEND , c_v-4
 .byte   W02
 .byte   BEND , c_v-6
 .byte   W01
 .byte   BEND , c_v-8
 .byte   W01
 .byte   BEND , c_v-11
 .byte   W01
 .byte   BEND , c_v-13
 .byte   W01
 .byte   BEND , c_v-17
 .byte   W02
 .byte   BEND , c_v-19
 .byte   W01
 .byte   BEND , c_v-21
 .byte   W01
 .byte   BEND , c_v-25
 .byte   W01
 .byte   BEND , c_v-27
 .byte   W01
 .byte   BEND , c_v-31
 .byte   W01
 .byte   BEND , c_v-33
 .byte   W01
 .byte   BEND , c_v-36
 .byte   W01
 .byte   BEND , c_v-38
 .byte   W01
 .byte   BEND , c_v-40
 .byte   W01
 .byte   BEND , c_v-45
 .byte   W01
 .byte   BEND , c_v-47
 .byte   W01
 .byte   BEND , c_v-49
 .byte   W01
 .byte   BEND , c_v-51
 .byte   W02
 .byte   BEND , c_v-56
 .byte   W02
 .byte   BEND , c_v-60
 .byte   W02
 .byte   BEND , c_v-63
 .byte   W01
 .byte   BEND , c_v-64
 .byte   W09
@  #12 @025   ----------------------------------------
 .byte   W08
 .byte   BEND , c_v-63
 .byte   W01
 .byte   BEND , c_v-60
 .byte   W01
 .byte   BEND , c_v-56
 .byte   W01
 .byte   BEND , c_v-55
 .byte   W01
 .byte   BEND , c_v-51
 .byte   W02
 .byte   BEND , c_v-49
 .byte   W01
 .byte   BEND , c_v-47
 .byte   W01
 .byte   BEND , c_v-43
 .byte   W01
 .byte   BEND , c_v-41
 .byte   W01
 .byte   BEND , c_v-36
 .byte   W02
 .byte   BEND , c_v-34
 .byte   W01
 .byte   BEND , c_v-31
 .byte   W01
 .byte   BEND , c_v-29
 .byte   W01
 .byte   BEND , c_v-25
 .byte   W01
 .byte   BEND , c_v-23
 .byte   W01
 .byte   BEND , c_v-20
 .byte   W02
 .byte   BEND , c_v-18
 .byte   W01
 .byte   BEND , c_v-15
 .byte   W01
 .byte   BEND , c_v-14
 .byte   W01
 .byte   BEND , c_v-11
 .byte   W01
 .byte   BEND , c_v-9
 .byte   W01
 .byte   BEND , c_v-7
 .byte   W01
 .byte   BEND , c_v-5
 .byte   W01
 .byte   BEND , c_v-3
 .byte   W02
 .byte   BEND , c_v-1
 .byte   W01
 .byte   BEND , c_v+0
 .byte   W30
 .byte   N56 ,Fs2 ,v100
 .byte   W23
 .byte   BEND , c_v-2
 .byte   W02
 .byte   BEND , c_v-5
 .byte   W01
 .byte   BEND , c_v-7
 .byte   W01
 .byte   BEND , c_v-9
 .byte   W02
@  #12 @026   ----------------------------------------
 .byte   BEND , c_v-12
 .byte   W01
 .byte   BEND , c_v-15
 .byte   W01
 .byte   BEND , c_v-18
 .byte   W02
 .byte   BEND , c_v-20
 .byte   W01
 .byte   BEND , c_v-22
 .byte   W01
 .byte   BEND , c_v-25
 .byte   W02
 .byte   BEND , c_v-28
 .byte   W01
 .byte   BEND , c_v-31
 .byte   W01
 .byte   BEND , c_v-33
 .byte   W01
 .byte   BEND , c_v-34
 .byte   W02
 .byte   BEND , c_v-37
 .byte   W01
 .byte   BEND , c_v-39
 .byte   W02
 .byte   BEND , c_v-41
 .byte   W01
 .byte   BEND , c_v-43
 .byte   W01
 .byte   BEND , c_v-45
 .byte   W02
 .byte   BEND , c_v-47
 .byte   W01
 .byte   BEND , c_v-50
 .byte   W01
 .byte   BEND , c_v-52
 .byte   W01
 .byte   BEND , c_v-54
 .byte   W01
 .byte   BEND , c_v-56
 .byte   W01
 .byte   BEND , c_v-59
 .byte   W01
 .byte   BEND , c_v-61
 .byte   W01
 .byte   BEND , c_v-63
 .byte   W02
 .byte   BEND , c_v-64
 .byte   W17
 .byte   BEND , c_v-62
 .byte   W01
 .byte   BEND , c_v-60
 .byte   W01
 .byte   BEND , c_v-57
 .byte   W02
 .byte   BEND , c_v-54
 .byte   W01
 .byte   BEND , c_v-52
 .byte   W02
 .byte   BEND , c_v-50
 .byte   W02
 .byte   BEND , c_v-48
 .byte   W01
 .byte   BEND , c_v-46
 .byte   W01
 .byte   BEND , c_v-44
 .byte   W01
 .byte   BEND , c_v-42
 .byte   W01
 .byte   BEND , c_v-40
 .byte   W01
 .byte   BEND , c_v-37
 .byte   W02
 .byte   BEND , c_v-36
 .byte   W01
 .byte   BEND , c_v-34
 .byte   W02
 .byte   BEND , c_v-32
 .byte   W01
 .byte   BEND , c_v-30
 .byte   W01
 .byte   BEND , c_v-28
 .byte   W01
 .byte   BEND , c_v-26
 .byte   W02
 .byte   BEND , c_v-24
 .byte   W01
 .byte   BEND , c_v-21
 .byte   W03
 .byte   BEND , c_v-20
 .byte   W02
 .byte   BEND , c_v-17
 .byte   W02
 .byte   BEND , c_v-15
 .byte   W02
 .byte   BEND , c_v-13
 .byte   W02
 .byte   BEND , c_v-11
 .byte   W01
 .byte   BEND , c_v-9
 .byte   W01
 .byte   BEND , c_v-7
 .byte   W02
 .byte   BEND , c_v-3
 .byte   W02
 .byte   BEND , c_v-1
 .byte   W02
 .byte   BEND , c_v+0
 .byte   W06
@  #12 @027   ----------------------------------------
 .byte   W96
@  #12 @028   ----------------------------------------
 .byte   W96
@  #12 @029   ----------------------------------------
 .byte   W96
@  #12 @030   ----------------------------------------
 .byte   W96
@  #12 @031   ----------------------------------------
 .byte   W52
 .byte   W01
 .byte   TIE ,Gs4 ,v079
 .byte   W42
 .byte   W01
@  #12 @032   ----------------------------------------
 .byte   W13
 .byte   BEND , c_v+1
 .byte   W04
 .byte   BEND , c_v+3
 .byte   W03
 .byte   BEND , c_v+4
 .byte   W06
 .byte   BEND , c_v+6
 .byte   W04
 .byte   BEND , c_v+8
 .byte   W02
 .byte   BEND , c_v+10
 .byte   W03
 .byte   BEND , c_v+12
 .byte   W03
 .byte   BEND , c_v+13
 .byte   W04
 .byte   BEND , c_v+15
 .byte   W03
 .byte   BEND , c_v+17
 .byte   W02
 .byte   BEND , c_v+19
 .byte   W03
 .byte   BEND , c_v+20
 .byte   W04
 .byte   BEND , c_v+22
 .byte   W06
 .byte   BEND , c_v+24
 .byte   W06
 .byte   BEND , c_v+25
 .byte   W02
 .byte   BEND , c_v+27
 .byte   W02
 .byte   BEND , c_v+29
 .byte   W07
 .byte   BEND , c_v+30
 .byte   W09
 .byte   BEND , c_v+32
 .byte   W10
@  #12 @033   ----------------------------------------
 .byte   W01
 .byte   BEND , c_v+34
 .byte   W05
 .byte   BEND , c_v+35
 .byte   W18
 .byte   BEND , c_v+37
 .byte   W12
 .byte   BEND , c_v+35
 .byte   W07
 .byte   BEND , c_v+34
 .byte   W06
 .byte   BEND , c_v+32
 .byte   W03
 .byte   BEND , c_v+30
 .byte   W06
 .byte   BEND , c_v+29
 .byte   W07
 .byte   BEND , c_v+27
 .byte   W02
 .byte   BEND , c_v+25
 .byte   W04
 .byte   BEND , c_v+24
 .byte   W05
 .byte   BEND , c_v+22
 .byte   W03
 .byte   BEND , c_v+20
 .byte   W05
 .byte   BEND , c_v+19
 .byte   W04
 .byte   BEND , c_v+17
 .byte   W04
 .byte   BEND , c_v+15
 .byte   W03
 .byte   BEND , c_v+13
 .byte   W01
@  #12 @034   ----------------------------------------
 .byte   W01
 .byte   BEND , c_v+12
 .byte   W03
 .byte   BEND , c_v+10
 .byte   W02
 .byte   BEND , c_v+8
 .byte   W03
 .byte   BEND , c_v+7
 .byte   W03
 .byte   BEND , c_v+5
 .byte   W02
 .byte   BEND , c_v+3
 .byte   W04
 .byte   BEND , c_v+2
 .byte   W04
 .byte   BEND , c_v+0
 .byte   W44
 .byte   BEND , c_v-2
 .byte   W03
 .byte   BEND , c_v-4
 .byte   W03
 .byte   BEND , c_v-5
 .byte   W02
 .byte   BEND , c_v-7
 .byte   W04
 .byte   BEND , c_v-9
 .byte   W02
 .byte   BEND , c_v-11
 .byte   W03
 .byte   BEND , c_v-12
 .byte   W03
 .byte   BEND , c_v-14
 .byte   W04
 .byte   BEND , c_v-16
 .byte   W02
 .byte   BEND , c_v-18
 .byte   W03
 .byte   BEND , c_v-20
 .byte   W01
@  #12 @035   ----------------------------------------
 .byte   W02
 .byte   BEND , c_v-21
 .byte   W02
 .byte   BEND , c_v-24
 .byte   W02
 .byte   BEND , c_v-25
 .byte   W02
 .byte   BEND , c_v-28
 .byte   W01
 .byte   BEND , c_v-30
 .byte   W01
 .byte   BEND , c_v-32
 .byte   W03
 .byte   BEND , c_v-34
 .byte   W01
 .byte   BEND , c_v-36
 .byte   W03
 .byte   BEND , c_v-37
 .byte   W02
 .byte   BEND , c_v-39
 .byte   W02
 .byte   BEND , c_v-41
 .byte   W02
 .byte   BEND , c_v-43
 .byte   W03
 .byte   BEND , c_v-45
 .byte   W02
 .byte   BEND , c_v-47
 .byte   W04
 .byte   BEND , c_v-49
 .byte   W02
 .byte   BEND , c_v-50
 .byte   W03
 .byte   BEND , c_v-52
 .byte   W02
 .byte   BEND , c_v-54
 .byte   W03
 .byte   BEND , c_v-56
 .byte   W03
 .byte   BEND , c_v-57
 .byte   W01
 .byte   EOT
 .byte   W01
 .byte   BEND , c_v-59
 .byte   W03
 .byte   BEND , c_v-61
 .byte   W04
 .byte   BEND , c_v-63
 .byte   W03
 .byte   BEND , c_v-64
 .byte   W24
 .byte   W02
 .byte   BEND , c_v-61
 .byte   W01
 .byte   BEND , c_v-59
 .byte   W01
 .byte   BEND , c_v-55
 .byte   W01
 .byte   BEND , c_v-53
 .byte   W01
 .byte   BEND , c_v-51
 .byte   W01
 .byte   BEND , c_v-49
 .byte   W01
 .byte   BEND , c_v-47
 .byte   W01
 .byte   BEND , c_v-41
 .byte   W01
 .byte   BEND , c_v-39
 .byte   W01
 .byte   BEND , c_v-33
 .byte   W01
 .byte   BEND , c_v-29
 .byte   W01
 .byte   BEND , c_v-25
 .byte   W01
 .byte   BEND , c_v-23
 .byte   W01
@  #12 @036   ----------------------------------------
 .byte   BEND , c_v-18
 .byte   W01
 .byte   BEND , c_v-16
 .byte   W01
 .byte   BEND , c_v-10
 .byte   W01
 .byte   BEND , c_v-8
 .byte   W02
 .byte   BEND , c_v-6
 .byte   W01
 .byte   BEND , c_v-4
 .byte   W01
 .byte   BEND , c_v-2
 .byte   W02
 .byte   BEND , c_v+0
 .byte   W68
 .byte   W01
 .byte   N92 ,Gn4 ,v065 ,gtp3
 .byte   W12
 .byte   BEND , c_v+3
 .byte   W01
 .byte   BEND , c_v+9
 .byte   W01
 .byte   BEND , c_v+12
 .byte   W01
 .byte   BEND , c_v+13
 .byte   W01
 .byte   BEND , c_v+15
 .byte   W02
@  #12 @037   ----------------------------------------
 .byte   W02
 .byte   BEND , c_v+13
 .byte   W01
 .byte   BEND , c_v+10
 .byte   W01
 .byte   BEND , c_v+2
 .byte   W01
 .byte   BEND , c_v+0
 .byte   W52
 .byte   BEND , c_v-1
 .byte   W01
 .byte   BEND , c_v-3
 .byte   W02
 .byte   BEND , c_v-5
 .byte   W01
 .byte   BEND , c_v-8
 .byte   W01
 .byte   BEND , c_v-10
 .byte   W02
 .byte   BEND , c_v-13
 .byte   W01
 .byte   BEND , c_v-15
 .byte   W01
 .byte   BEND , c_v-17
 .byte   W01
 .byte   BEND , c_v-18
 .byte   W01
 .byte   BEND , c_v-21
 .byte   W02
 .byte   BEND , c_v-24
 .byte   W02
 .byte   BEND , c_v-29
 .byte   W01
 .byte   BEND , c_v-31
 .byte   W01
 .byte   BEND , c_v-33
 .byte   W01
 .byte   BEND , c_v-35
 .byte   W02
 .byte   BEND , c_v-39
 .byte   W02
 .byte   BEND , c_v-41
 .byte   W02
 .byte   BEND , c_v-43
 .byte   W02
 .byte   BEND , c_v-44
 .byte   W02
 .byte   BEND , c_v-46
 .byte   W08
 .byte   BEND , c_v-44
 .byte   W02
 .byte   BEND , c_v-43
 .byte   W01
@  #12 @038   ----------------------------------------
 .byte   BEND , c_v-40
 .byte   W01
 .byte   BEND , c_v-37
 .byte   W01
 .byte   BEND , c_v-35
 .byte   W01
 .byte   BEND , c_v-33
 .byte   W01
 .byte   BEND , c_v-29
 .byte   W02
 .byte   BEND , c_v-24
 .byte   W01
 .byte   BEND , c_v-23
 .byte   W01
 .byte   BEND , c_v-17
 .byte   W01
 .byte   BEND , c_v-14
 .byte   W01
 .byte   BEND , c_v-10
 .byte   W01
 .byte   BEND , c_v-8
 .byte   W01
 .byte   BEND , c_v-6
 .byte   W01
 .byte   BEND , c_v-4
 .byte   W01
 .byte   BEND , c_v-2
 .byte   W02
 .byte   BEND , c_v+0
 .byte   W60
 .byte   W03
 .byte   N60 ,Bn3 ,v059
 .byte   W17
@  #12 @039   ----------------------------------------
 .byte   W06
 .byte   BEND , c_v-2
 .byte   W02
 .byte   BEND , c_v-4
 .byte   W02
 .byte   BEND , c_v-5
 .byte   W04
 .byte   BEND , c_v-7
 .byte   W03
 .byte   BEND , c_v-9
 .byte   W02
 .byte   BEND , c_v-11
 .byte   W03
 .byte   BEND , c_v-13
 .byte   W02
 .byte   BEND , c_v-15
 .byte   W02
 .byte   BEND , c_v-17
 .byte   W02
 .byte   BEND , c_v-20
 .byte   W02
 .byte   BEND , c_v-21
 .byte   W01
 .byte   BEND , c_v-23
 .byte   W02
 .byte   BEND , c_v-25
 .byte   W01
 .byte   BEND , c_v-27
 .byte   W02
 .byte   BEND , c_v-28
 .byte   W02
 .byte   BEND , c_v-30
 .byte   W01
 .byte   BEND , c_v-32
 .byte   W02
 .byte   BEND , c_v-34
 .byte   W01
 .byte   BEND , c_v-36
 .byte   W02
 .byte   BEND , c_v-38
 .byte   W02
 .byte   BEND , c_v-40
 .byte   W03
 .byte   BEND , c_v-41
 .byte   W04
 .byte   BEND , c_v-43
 .byte   W15
 .byte   BEND , c_v-41
 .byte   W03
 .byte   BEND , c_v-39
 .byte   W01
 .byte   BEND , c_v-37
 .byte   W02
 .byte   BEND , c_v-36
 .byte   W01
 .byte   BEND , c_v-34
 .byte   W01
 .byte   BEND , c_v-32
 .byte   W01
 .byte   BEND , c_v-30
 .byte   W01
 .byte   BEND , c_v-28
 .byte   W01
 .byte   BEND , c_v-27
 .byte   W01
 .byte   BEND , c_v-24
 .byte   W01
 .byte   BEND , c_v-23
 .byte   W01
 .byte   BEND , c_v-20
 .byte   W02
 .byte   BEND , c_v-18
 .byte   W02
 .byte   BEND , c_v-16
 .byte   W02
 .byte   BEND , c_v-14
 .byte   W02
 .byte   BEND , c_v-12
 .byte   W01
 .byte   BEND , c_v-10
 .byte   W03
 .byte   BEND , c_v-6
 .byte   W02
@  #12 @040   ----------------------------------------
 .byte   BEND , c_v-4
 .byte   W02
 .byte   BEND , c_v-2
 .byte   W02
 .byte   BEND , c_v+0
 .byte   W92
@  #12 @041   ----------------------------------------
 .byte   W96
@  #12 @042   ----------------------------------------
 .byte   W96
@  #12 @043   ----------------------------------------
 .byte   W96
@  #12 @044   ----------------------------------------
 .byte   W96
@  #12 @045   ----------------------------------------
 .byte   W96
@  #12 @046   ----------------------------------------
 .byte   W24
 .byte   N12 ,Fs3 ,v072
 .byte   W11
 .byte   N10 ,Ds3 ,v074
 .byte   W11
 .byte   N12 ,Fs2 ,v085
 .byte   W13
 .byte   N09 ,Gn3 ,v088
 .byte   W11
 .byte   N11 ,Ds3 ,v083
 .byte   W11
 .byte   N10 ,Fs2 ,v110
 .byte   W11
 .byte   Fs3 ,v100
 .byte   W04
@  #12 @047   ----------------------------------------
 .byte   W06
 .byte   N12 ,Ds3 ,v085
 .byte   W11
 .byte   N09 ,Fs2 ,v110
 .byte   W10
 .byte   N11 ,Gn3 ,v096
 .byte   W11
 .byte   Ds3 ,v088
 .byte   W11
 .byte   N09 ,Fs2 ,v103
 .byte   W11
 .byte   N10 ,Fs3 ,v088
 .byte   W10
 .byte   N11 ,Ds3 ,v066
 .byte   W11
 .byte   N10 ,Fs2 ,v083
 .byte   W11
 .byte   N09 ,Gn3 ,v070
 .byte   W04
@  #12 @048   ----------------------------------------
 .byte   W07
 .byte   N11 ,Ds3 ,v065
 .byte   W10
 .byte   N12 ,Fs2 ,v064
 .byte   W13
 .byte   N11 ,Fs3 ,v068
 .byte   W11
 .byte   N13 ,Ds3 ,v066
 .byte   W11
 .byte   N12 ,Fs2 ,v056
 .byte   W11
 .byte   N11 ,Gn3 ,v067
 .byte   W12
 .byte   Ds3 ,v066
 .byte   W09
 .byte   N13 ,Fs2 ,v056
 .byte   W12
@  #12 @049   ----------------------------------------
 .byte   W01
 .byte   N09 ,Fs3 ,v071
 .byte   W11
 .byte   N14 ,Ds3 ,v060
 .byte   W11
 .byte   N12 ,Fs2 ,v065
 .byte   W12
 .byte   N11 ,Gn3 ,v070
 .byte   W12
 .byte   N13 ,Ds3 ,v066
 .byte   W11
 .byte   TIE ,Fs2 ,v090
 .byte   W36
 .byte   W02
@  #12 @050   ----------------------------------------
 .byte   W24
 .byte   BEND , c_v+2
 .byte   W01
 .byte   BEND , c_v+4
 .byte   W02
 .byte   BEND , c_v+6
 .byte   W02
 .byte   BEND , c_v+10
 .byte   W01
 .byte   BEND , c_v+12
 .byte   W01
 .byte   BEND , c_v+14
 .byte   W01
 .byte   BEND , c_v+16
 .byte   W02
 .byte   BEND , c_v+18
 .byte   W01
 .byte   BEND , c_v+20
 .byte   W01
 .byte   BEND , c_v+21
 .byte   W02
 .byte   BEND , c_v+24
 .byte   W02
 .byte   BEND , c_v+25
 .byte   W02
 .byte   BEND , c_v+27
 .byte   W01
 .byte   BEND , c_v+29
 .byte   W02
 .byte   BEND , c_v+30
 .byte   W02
 .byte   BEND , c_v+32
 .byte   W01
 .byte   BEND , c_v+34
 .byte   W03
 .byte   BEND , c_v+35
 .byte   W05
 .byte   BEND , c_v+34
 .byte   W02
 .byte   BEND , c_v+31
 .byte   W02
 .byte   BEND , c_v+30
 .byte   W01
 .byte   BEND , c_v+28
 .byte   W01
 .byte   BEND , c_v+26
 .byte   W01
 .byte   BEND , c_v+24
 .byte   W01
 .byte   BEND , c_v+22
 .byte   W01
 .byte   BEND , c_v+20
 .byte   W01
 .byte   BEND , c_v+18
 .byte   W01
 .byte   BEND , c_v+16
 .byte   W01
 .byte   BEND , c_v+13
 .byte   W01
 .byte   BEND , c_v+11
 .byte   W01
 .byte   BEND , c_v+8
 .byte   W01
 .byte   BEND , c_v+4
 .byte   W02
 .byte   BEND , c_v+0
 .byte   W12
 .byte   BEND , c_v-2
 .byte   W01
 .byte   BEND , c_v-6
 .byte   W02
 .byte   BEND , c_v-11
 .byte   W01
 .byte   BEND , c_v-13
 .byte   W02
 .byte   BEND , c_v-15
 .byte   W01
 .byte   BEND , c_v-18
 .byte   W01
 .byte   BEND , c_v-20
 .byte   W01
 .byte   BEND , c_v-22
 .byte   W01
 .byte   BEND , c_v-24
 .byte   W01
@  #12 @051   ----------------------------------------
 .byte   BEND , c_v-26
 .byte   W01
 .byte   BEND , c_v-28
 .byte   W01
 .byte   BEND , c_v-31
 .byte   W01
 .byte   BEND , c_v-33
 .byte   W01
 .byte   BEND , c_v-34
 .byte   W01
 .byte   BEND , c_v-36
 .byte   W01
 .byte   BEND , c_v-40
 .byte   W02
 .byte   BEND , c_v-44
 .byte   W02
 .byte   BEND , c_v-47
 .byte   W01
 .byte   BEND , c_v-49
 .byte   W01
 .byte   BEND , c_v-50
 .byte   W02
 .byte   BEND , c_v-55
 .byte   W02
 .byte   BEND , c_v-56
 .byte   W01
 .byte   BEND , c_v-59
 .byte   W01
 .byte   EOT
 .byte   W01
 .byte   BEND , c_v-60
 .byte   W02
 .byte   BEND , c_v-62
 .byte   W16
 .byte   BEND , c_v-60
 .byte   W01
 .byte   BEND , c_v-57
 .byte   W01
 .byte   BEND , c_v-56
 .byte   W01
 .byte   BEND , c_v-50
 .byte   W01
 .byte   BEND , c_v-48
 .byte   W01
 .byte   BEND , c_v-44
 .byte   W01
 .byte   BEND , c_v-42
 .byte   W01
 .byte   BEND , c_v-36
 .byte   W01
 .byte   BEND , c_v-33
 .byte   W01
 .byte   BEND , c_v-27
 .byte   W01
 .byte   BEND , c_v-24
 .byte   W01
 .byte   BEND , c_v-11
 .byte   W01
 .byte   BEND , c_v-3
 .byte   W01
 .byte   BEND , c_v+0
 .byte   W44
 .byte   W02
@  #12 @052   ----------------------------------------
 .byte   W96
@  #12 @053   ----------------------------------------
 .byte   W96
@  #12 @054   ----------------------------------------
 .byte   W96
@  #12 @055   ----------------------------------------
 .byte   W44
 .byte   W03
 .byte   N19 ,Cn3 ,v100
 .byte   W08
 .byte   BEND , c_v+4
 .byte   W01
 .byte   BEND , c_v+9
 .byte   W01
 .byte   BEND , c_v+14
 .byte   W01
 .byte   BEND , c_v+23
 .byte   W01
 .byte   BEND , c_v+27
 .byte   W01
 .byte   BEND , c_v+34
 .byte   W01
 .byte   BEND , c_v+38
 .byte   W01
 .byte   BEND , c_v+46
 .byte   W01
 .byte   BEND , c_v+48
 .byte   W01
 .byte   BEND , c_v+53
 .byte   W01
 .byte   BEND , c_v+55
 .byte   W01
 .byte   BEND , c_v+58
 .byte   W02
 .byte   BEND , c_v+60
 .byte   W02
 .byte   BEND , c_v+62
 .byte   W03
 .byte   BEND , c_v+57
 .byte   W01
 .byte   BEND , c_v+48
 .byte   W01
 .byte   BEND , c_v+45
 .byte   W01
 .byte   BEND , c_v+41
 .byte   W01
 .byte   BEND , c_v+37
 .byte   W01
 .byte   BEND , c_v+34
 .byte   W01
 .byte   BEND , c_v+32
 .byte   W01
 .byte   BEND , c_v+29
 .byte   W01
 .byte   BEND , c_v+26
 .byte   W01
 .byte   BEND , c_v+25
 .byte   W01
 .byte   BEND , c_v+23
 .byte   W01
 .byte   BEND , c_v+21
 .byte   W02
 .byte   BEND , c_v+19
 .byte   W02
 .byte   BEND , c_v+17
 .byte   W02
 .byte   BEND , c_v+15
 .byte   W02
 .byte   BEND , c_v+13
 .byte   W01
 .byte   BEND , c_v+11
 .byte   W02
 .byte   BEND , c_v+9
 .byte   W01
@  #12 @056   ----------------------------------------
 .byte   BEND , c_v+7
 .byte   W01
 .byte   BEND , c_v+5
 .byte   W02
 .byte   BEND , c_v+3
 .byte   W01
 .byte   BEND , c_v+2
 .byte   W01
 .byte   BEND , c_v+0
 .byte   W56
 .byte   W01
 .byte   N24 ,Cn3 ,v102
 .byte   W11
 .byte   BEND , c_v+2
 .byte   W01
 .byte   BEND , c_v+10
 .byte   W01
 .byte   BEND , c_v+15
 .byte   W01
 .byte   BEND , c_v+22
 .byte   W01
 .byte   BEND , c_v+25
 .byte   W01
 .byte   BEND , c_v+30
 .byte   W01
 .byte   BEND , c_v+33
 .byte   W01
 .byte   BEND , c_v+38
 .byte   W01
 .byte   BEND , c_v+40
 .byte   W01
 .byte   BEND , c_v+43
 .byte   W01
 .byte   BEND , c_v+48
 .byte   W01
 .byte   BEND , c_v+51
 .byte   W01
 .byte   BEND , c_v+56
 .byte   W01
 .byte   BEND , c_v+57
 .byte   W01
 .byte   BEND , c_v+59
 .byte   W01
 .byte   BEND , c_v+61
 .byte   W04
 .byte   BEND , c_v+57
 .byte   W01
 .byte   BEND , c_v+56
 .byte   W01
 .byte   BEND , c_v+49
 .byte   W01
 .byte   BEND , c_v+47
 .byte   W01
@  #12 @057   ----------------------------------------
 .byte   BEND , c_v+40
 .byte   W01
 .byte   BEND , c_v+38
 .byte   W01
 .byte   BEND , c_v+33
 .byte   W01
 .byte   BEND , c_v+30
 .byte   W01
 .byte   BEND , c_v+26
 .byte   W01
 .byte   BEND , c_v+23
 .byte   W01
 .byte   BEND , c_v+19
 .byte   W01
 .byte   BEND , c_v+17
 .byte   W01
 .byte   BEND , c_v+16
 .byte   W01
 .byte   BEND , c_v+13
 .byte   W01
 .byte   BEND , c_v+10
 .byte   W01
 .byte   BEND , c_v+8
 .byte   W01
 .byte   BEND , c_v+6
 .byte   W02
 .byte   BEND , c_v+4
 .byte   W01
 .byte   BEND , c_v+2
 .byte   W01
 .byte   BEND , c_v+0
 .byte   W72
 .byte   W02
 .byte   N24 ,Cn3 ,v100 ,gtp2
 .byte   W06
@  #12 @058   ----------------------------------------
 .byte   W06
 .byte   BEND , c_v+6
 .byte   W01
 .byte   BEND , c_v+11
 .byte   W01
 .byte   BEND , c_v+19
 .byte   W01
 .byte   BEND , c_v+24
 .byte   W01
 .byte   BEND , c_v+33
 .byte   W01
 .byte   BEND , c_v+37
 .byte   W01
 .byte   BEND , c_v+43
 .byte   W01
 .byte   BEND , c_v+46
 .byte   W01
 .byte   BEND , c_v+49
 .byte   W01
 .byte   BEND , c_v+52
 .byte   W01
 .byte   BEND , c_v+54
 .byte   W01
 .byte   BEND , c_v+59
 .byte   W01
 .byte   BEND , c_v+61
 .byte   W01
 .byte   BEND , c_v+63
 .byte   W06
 .byte   BEND , c_v+61
 .byte   W01
 .byte   BEND , c_v+57
 .byte   W01
 .byte   BEND , c_v+53
 .byte   W01
 .byte   BEND , c_v+47
 .byte   W01
 .byte   BEND , c_v+44
 .byte   W01
 .byte   BEND , c_v+38
 .byte   W01
 .byte   BEND , c_v+35
 .byte   W01
 .byte   BEND , c_v+30
 .byte   W02
 .byte   BEND , c_v+28
 .byte   W01
 .byte   BEND , c_v+24
 .byte   W01
 .byte   BEND , c_v+21
 .byte   W01
 .byte   BEND , c_v+15
 .byte   W01
 .byte   BEND , c_v+13
 .byte   W02
 .byte   BEND , c_v+11
 .byte   W01
 .byte   BEND , c_v+8
 .byte   W01
 .byte   BEND , c_v+7
 .byte   W01
 .byte   BEND , c_v+4
 .byte   W01
 .byte   BEND , c_v+2
 .byte   W02
 .byte   BEND , c_v+0
 .byte   W48
 .byte   W02
@  #12 @059   ----------------------------------------
 .byte   W24
 .byte   W03
 .byte   N24 ,Cn3 ,v102 ,gtp3
 .byte   W11
 .byte   BEND , c_v+1
 .byte   W01
 .byte   BEND , c_v+4
 .byte   W01
 .byte   BEND , c_v+11
 .byte   W01
 .byte   BEND , c_v+14
 .byte   W01
 .byte   BEND , c_v+19
 .byte   W01
 .byte   BEND , c_v+21
 .byte   W01
 .byte   BEND , c_v+24
 .byte   W01
 .byte   BEND , c_v+28
 .byte   W02
 .byte   BEND , c_v+33
 .byte   W01
 .byte   BEND , c_v+34
 .byte   W01
 .byte   BEND , c_v+37
 .byte   W01
 .byte   BEND , c_v+40
 .byte   W01
 .byte   BEND , c_v+43
 .byte   W01
 .byte   BEND , c_v+47
 .byte   W01
 .byte   BEND , c_v+48
 .byte   W01
 .byte   BEND , c_v+50
 .byte   W03
 .byte   BEND , c_v+48
 .byte   W01
 .byte   BEND , c_v+46
 .byte   W02
 .byte   BEND , c_v+42
 .byte   W02
 .byte   BEND , c_v+40
 .byte   W01
 .byte   BEND , c_v+38
 .byte   W01
 .byte   BEND , c_v+36
 .byte   W01
 .byte   BEND , c_v+34
 .byte   W01
 .byte   BEND , c_v+32
 .byte   W01
 .byte   BEND , c_v+29
 .byte   W02
 .byte   BEND , c_v+26
 .byte   W01
 .byte   BEND , c_v+24
 .byte   W02
 .byte   BEND , c_v+20
 .byte   W01
 .byte   BEND , c_v+19
 .byte   W01
 .byte   BEND , c_v+16
 .byte   W02
 .byte   BEND , c_v+15
 .byte   W01
 .byte   BEND , c_v+12
 .byte   W01
 .byte   BEND , c_v+11
 .byte   W01
 .byte   BEND , c_v+8
 .byte   W01
 .byte   BEND , c_v+7
 .byte   W01
 .byte   BEND , c_v+5
 .byte   W02
 .byte   BEND , c_v+3
 .byte   W01
 .byte   BEND , c_v+2
 .byte   W02
 .byte   BEND , c_v+0
 .byte   W10
@  #12 @060   ----------------------------------------
 .byte   W68
 .byte   W02
 .byte   N30 ,Cn3 ,v098 ,gtp1
 .byte   W13
 .byte   BEND , c_v+1
 .byte   W01
 .byte   BEND , c_v+4
 .byte   W02
 .byte   BEND , c_v+11
 .byte   W01
 .byte   BEND , c_v+13
 .byte   W01
 .byte   BEND , c_v+18
 .byte   W02
 .byte   BEND , c_v+23
 .byte   W01
 .byte   BEND , c_v+26
 .byte   W01
 .byte   BEND , c_v+31
 .byte   W01
 .byte   BEND , c_v+34
 .byte   W01
 .byte   BEND , c_v+35
 .byte   W01
 .byte   BEND , c_v+39
 .byte   W01
@  #12 @061   ----------------------------------------
 .byte   BEND , c_v+42
 .byte   W01
 .byte   BEND , c_v+46
 .byte   W02
 .byte   BEND , c_v+48
 .byte   W04
 .byte   BEND , c_v+46
 .byte   W02
 .byte   BEND , c_v+44
 .byte   W03
 .byte   BEND , c_v+43
 .byte   W01
 .byte   BEND , c_v+41
 .byte   W01
 .byte   BEND , c_v+39
 .byte   W02
 .byte   BEND , c_v+33
 .byte   W01
 .byte   BEND , c_v+30
 .byte   W01
 .byte   BEND , c_v+28
 .byte   W01
 .byte   BEND , c_v+24
 .byte   W01
 .byte   BEND , c_v+21
 .byte   W01
 .byte   BEND , c_v+20
 .byte   W01
 .byte   BEND , c_v+18
 .byte   W01
 .byte   BEND , c_v+15
 .byte   W01
 .byte   BEND , c_v+12
 .byte   W02
 .byte   BEND , c_v+10
 .byte   W01
 .byte   BEND , c_v+7
 .byte   W01
 .byte   BEND , c_v+5
 .byte   W02
 .byte   BEND , c_v+3
 .byte   W01
 .byte   BEND , c_v+1
 .byte   W01
 .byte   BEND , c_v+0
 .byte   W64
@  #12 @062   ----------------------------------------
 .byte   W02
 .byte   N24 ,Cn3 ,v114 ,gtp2
 .byte   W11
 .byte   BEND , c_v+1
 .byte   W01
 .byte   BEND , c_v+4
 .byte   W01
 .byte   BEND , c_v+6
 .byte   W01
 .byte   BEND , c_v+13
 .byte   W01
 .byte   BEND , c_v+17
 .byte   W01
 .byte   BEND , c_v+22
 .byte   W01
 .byte   BEND , c_v+25
 .byte   W01
 .byte   BEND , c_v+30
 .byte   W01
 .byte   BEND , c_v+34
 .byte   W01
 .byte   BEND , c_v+38
 .byte   W02
 .byte   BEND , c_v+44
 .byte   W01
 .byte   BEND , c_v+46
 .byte   W01
 .byte   BEND , c_v+49
 .byte   W02
 .byte   BEND , c_v+51
 .byte   W03
 .byte   BEND , c_v+49
 .byte   W01
 .byte   BEND , c_v+43
 .byte   W01
 .byte   BEND , c_v+40
 .byte   W01
 .byte   BEND , c_v+34
 .byte   W01
 .byte   BEND , c_v+33
 .byte   W01
 .byte   BEND , c_v+30
 .byte   W02
 .byte   BEND , c_v+28
 .byte   W01
 .byte   BEND , c_v+25
 .byte   W01
 .byte   BEND , c_v+24
 .byte   W01
 .byte   BEND , c_v+22
 .byte   W01
 .byte   BEND , c_v+20
 .byte   W01
 .byte   BEND , c_v+17
 .byte   W01
 .byte   BEND , c_v+16
 .byte   W01
 .byte   BEND , c_v+13
 .byte   W02
 .byte   BEND , c_v+11
 .byte   W01
 .byte   BEND , c_v+8
 .byte   W01
 .byte   BEND , c_v+7
 .byte   W01
 .byte   BEND , c_v+5
 .byte   W02
 .byte   BEND , c_v+3
 .byte   W02
 .byte   BEND , c_v+1
 .byte   W01
 .byte   BEND , c_v+0
 .byte   W40
 .byte   W01
@  #12 @063   ----------------------------------------
 .byte   W28
 .byte   W01
 .byte   N28 ,Cn3 ,v101
 .byte   W12
 .byte   BEND , c_v+1
 .byte   W01
 .byte   BEND , c_v+4
 .byte   W01
 .byte   BEND , c_v+7
 .byte   W01
 .byte   BEND , c_v+14
 .byte   W01
 .byte   BEND , c_v+17
 .byte   W01
 .byte   BEND , c_v+24
 .byte   W01
 .byte   BEND , c_v+27
 .byte   W01
 .byte   BEND , c_v+33
 .byte   W01
 .byte   BEND , c_v+35
 .byte   W01
 .byte   BEND , c_v+41
 .byte   W01
 .byte   BEND , c_v+44
 .byte   W01
 .byte   BEND , c_v+46
 .byte   W01
 .byte   BEND , c_v+49
 .byte   W01
 .byte   BEND , c_v+53
 .byte   W02
 .byte   BEND , c_v+56
 .byte   W05
 .byte   BEND , c_v+53
 .byte   W01
 .byte   BEND , c_v+47
 .byte   W01
 .byte   BEND , c_v+44
 .byte   W01
 .byte   BEND , c_v+39
 .byte   W01
 .byte   BEND , c_v+38
 .byte   W01
 .byte   BEND , c_v+32
 .byte   W01
 .byte   BEND , c_v+29
 .byte   W01
 .byte   BEND , c_v+24
 .byte   W02
 .byte   BEND , c_v+21
 .byte   W01
 .byte   BEND , c_v+19
 .byte   W01
 .byte   BEND , c_v+15
 .byte   W01
 .byte   BEND , c_v+13
 .byte   W01
 .byte   BEND , c_v+11
 .byte   W01
 .byte   BEND , c_v+10
 .byte   W02
 .byte   BEND , c_v+6
 .byte   W01
 .byte   BEND , c_v+4
 .byte   W01
 .byte   BEND , c_v+2
 .byte   W02
 .byte   BEND , c_v+0
 .byte   W15
@  #12 @064   ----------------------------------------
 .byte   W88
 .byte   W01
 .byte   TIE ,Cn3 ,v098
 .byte   W07
@  #12 @065   ----------------------------------------
 .byte   BEND , c_v+1
 .byte   W01
 .byte   BEND , c_v+3
 .byte   W01
 .byte   BEND , c_v+7
 .byte   W01
 .byte   BEND , c_v+11
 .byte   W01
 .byte   BEND , c_v+16
 .byte   W01
 .byte   BEND , c_v+19
 .byte   W01
 .byte   BEND , c_v+23
 .byte   W01
 .byte   BEND , c_v+26
 .byte   W01
 .byte   BEND , c_v+31
 .byte   W01
 .byte   BEND , c_v+34
 .byte   W01
 .byte   BEND , c_v+36
 .byte   W01
 .byte   BEND , c_v+38
 .byte   W01
 .byte   BEND , c_v+40
 .byte   W05
 .byte   BEND , c_v+38
 .byte   W01
 .byte   BEND , c_v+35
 .byte   W02
 .byte   BEND , c_v+31
 .byte   W02
 .byte   BEND , c_v+27
 .byte   W02
 .byte   BEND , c_v+25
 .byte   W01
 .byte   BEND , c_v+22
 .byte   W01
 .byte   BEND , c_v+20
 .byte   W01
 .byte   BEND , c_v+19
 .byte   W02
 .byte   BEND , c_v+17
 .byte   W02
 .byte   BEND , c_v+15
 .byte   W01
 .byte   BEND , c_v+12
 .byte   W02
 .byte   BEND , c_v+10
 .byte   W01
 .byte   BEND , c_v+7
 .byte   W02
 .byte   BEND , c_v+5
 .byte   W02
 .byte   BEND , c_v+3
 .byte   W01
 .byte   BEND , c_v+1
 .byte   W02
 .byte   BEND , c_v+0
 .byte   W30
 .byte   BEND , c_v-1
 .byte   W02
 .byte   BEND , c_v-4
 .byte   W02
 .byte   BEND , c_v-5
 .byte   W01
 .byte   BEND , c_v-7
 .byte   W02
 .byte   BEND , c_v-9
 .byte   W02
 .byte   BEND , c_v-11
 .byte   W01
 .byte   BEND , c_v-12
 .byte   W02
 .byte   BEND , c_v-14
 .byte   W02
 .byte   BEND , c_v-16
 .byte   W01
 .byte   BEND , c_v-18
 .byte   W02
 .byte   BEND , c_v-20
 .byte   W01
 .byte   BEND , c_v-21
 .byte   W02
 .byte   BEND , c_v-23
 .byte   W02
 .byte   BEND , c_v-25
 .byte   W01
 .byte   BEND , c_v-28
 .byte   W01
@  #12 @066   ----------------------------------------
 .byte   BEND , c_v-30
 .byte   W01
 .byte   EOT
 .byte   W01
 .byte   BEND , c_v-33
 .byte   W02
 .byte   BEND , c_v-34
 .byte   W01
 .byte   BEND , c_v-36
 .byte   W01
 .byte   BEND , c_v-38
 .byte   W02
 .byte   BEND , c_v-40
 .byte   W02
 .byte   BEND , c_v-42
 .byte   W01
 .byte   BEND , c_v-44
 .byte   W01
 .byte   BEND , c_v-47
 .byte   W04
 .byte   BEND , c_v-49
 .byte   W04
 .byte   BEND , c_v-50
 .byte   W17
 .byte   BEND , c_v-49
 .byte   W04
 .byte   BEND , c_v-47
 .byte   W02
 .byte   BEND , c_v-44
 .byte   W03
 .byte   BEND , c_v-42
 .byte   W03
 .byte   BEND , c_v-40
 .byte   W03
 .byte   BEND , c_v-39
 .byte   W01
 .byte   BEND , c_v-37
 .byte   W03
 .byte   BEND , c_v-35
 .byte   W04
 .byte   BEND , c_v-33
 .byte   W02
 .byte   BEND , c_v-31
 .byte   W04
 .byte   BEND , c_v-29
 .byte   W01
 .byte   BEND , c_v-27
 .byte   W01
 .byte   BEND , c_v-24
 .byte   W01
 .byte   BEND , c_v-22
 .byte   W01
 .byte   BEND , c_v-20
 .byte   W02
 .byte   BEND , c_v-18
 .byte   W01
 .byte   BEND , c_v-16
 .byte   W01
 .byte   BEND , c_v-14
 .byte   W06
 .byte   BEND , c_v-12
 .byte   W08
 .byte   BEND , c_v-11
 .byte   W02
 .byte   BEND , c_v-9
 .byte   W02
 .byte   BEND , c_v-7
 .byte   W01
 .byte   BEND , c_v-5
 .byte   W01
 .byte   BEND , c_v-4
 .byte   W02
@  #12 @067   ----------------------------------------
 .byte   BEND , c_v-2
 .byte   W04
 .byte   BEND , c_v+0
 .byte   W92
@  #12 @068   ----------------------------------------
 .byte   W21
 .byte   TIE ,As3 ,v078
 .byte   W09
 .byte   BEND , c_v+12
 .byte   W01
 .byte   BEND , c_v+17
 .byte   W01
 .byte   BEND , c_v+26
 .byte   W01
 .byte   BEND , c_v+30
 .byte   W01
 .byte   BEND , c_v+33
 .byte   W01
 .byte   BEND , c_v+34
 .byte   W03
 .byte   BEND , c_v+31
 .byte   W01
 .byte   BEND , c_v+28
 .byte   W01
 .byte   BEND , c_v+19
 .byte   W01
 .byte   BEND , c_v+17
 .byte   W02
 .byte   BEND , c_v+15
 .byte   W01
 .byte   BEND , c_v+12
 .byte   W01
 .byte   BEND , c_v+11
 .byte   W01
 .byte   BEND , c_v+7
 .byte   W02
 .byte   BEND , c_v+4
 .byte   W01
 .byte   BEND , c_v+3
 .byte   W01
 .byte   BEND , c_v+1
 .byte   W05
 .byte   BEND , c_v+6
 .byte   W01
 .byte   BEND , c_v+12
 .byte   W01
 .byte   BEND , c_v+17
 .byte   W01
 .byte   BEND , c_v+21
 .byte   W03
 .byte   BEND , c_v+19
 .byte   W01
 .byte   BEND , c_v+12
 .byte   W01
 .byte   BEND , c_v+8
 .byte   W01
 .byte   BEND , c_v+5
 .byte   W02
 .byte   BEND , c_v+3
 .byte   W01
 .byte   BEND , c_v+2
 .byte   W03
 .byte   BEND , c_v+3
 .byte   W01
 .byte   BEND , c_v+5
 .byte   W01
 .byte   BEND , c_v+14
 .byte   W01
 .byte   BEND , c_v+18
 .byte   W01
 .byte   BEND , c_v+24
 .byte   W01
 .byte   BEND , c_v+26
 .byte   W03
 .byte   BEND , c_v+20
 .byte   W01
 .byte   BEND , c_v+9
 .byte   W01
 .byte   BEND , c_v+4
 .byte   W01
 .byte   BEND , c_v+2
 .byte   W01
 .byte   BEND , c_v+0
 .byte   W04
 .byte   BEND , c_v+4
 .byte   W01
 .byte   BEND , c_v+8
 .byte   W01
 .byte   BEND , c_v+17
 .byte   W01
 .byte   BEND , c_v+20
 .byte   W01
 .byte   BEND , c_v+22
 .byte   W02
 .byte   BEND , c_v+15
 .byte   W01
 .byte   BEND , c_v+9
 .byte   W01
 .byte   BEND , c_v+4
 .byte   W01
 .byte   BEND , c_v+0
 .byte   W01
@  #12 @069   ----------------------------------------
 .byte   W24
 .byte   W01
 .byte   BEND , c_v-5
 .byte   W01
 .byte   BEND , c_v-27
 .byte   W01
 .byte   BEND , c_v-34
 .byte   W01
 .byte   BEND , c_v-43
 .byte   W02
 .byte   BEND , c_v-41
 .byte   W01
 .byte   EOT
 .byte   BEND , c_v-39
 .byte   W01
 .byte   BEND , c_v-32
 .byte   W01
 .byte   BEND , c_v-27
 .byte   W01
 .byte   BEND , c_v-20
 .byte   W01
 .byte   BEND , c_v-17
 .byte   W01
 .byte   BEND , c_v-14
 .byte   W02
 .byte   BEND , c_v-9
 .byte   W02
 .byte   BEND , c_v-6
 .byte   W01
 .byte   BEND , c_v-2
 .byte   W01
 .byte   BEND , c_v+0
 .byte   W54
@  #12 @070   ----------------------------------------
 .byte   W44
 .byte   W02
 .byte   N44 ,As3 ,v088 ,gtp2
 .byte   W07
 .byte   BEND , c_v+1
 .byte   W01
 .byte   BEND , c_v+8
 .byte   W01
 .byte   BEND , c_v+12
 .byte   W01
 .byte   BEND , c_v+13
 .byte   W02
 .byte   BEND , c_v+12
 .byte   W01
 .byte   BEND , c_v+8
 .byte   W01
 .byte   BEND , c_v+2
 .byte   W01
 .byte   BEND , c_v+0
 .byte   W24
 .byte   W01
 .byte   BEND , c_v-4
 .byte   W01
 .byte   BEND , c_v-9
 .byte   W01
 .byte   BEND , c_v-18
 .byte   W01
 .byte   BEND , c_v-22
 .byte   W01
 .byte   BEND , c_v-26
 .byte   W01
 .byte   BEND , c_v-31
 .byte   W05
@  #12 @071   ----------------------------------------
 .byte   BEND , c_v-27
 .byte   W01
 .byte   BEND , c_v-24
 .byte   W01
 .byte   BEND , c_v-18
 .byte   W01
 .byte   BEND , c_v-17
 .byte   W01
 .byte   BEND , c_v-13
 .byte   W02
 .byte   BEND , c_v-9
 .byte   W02
 .byte   BEND , c_v-7
 .byte   W01
 .byte   BEND , c_v-4
 .byte   W01
 .byte   BEND , c_v-1
 .byte   W01
 .byte   BEND , c_v+0
 .byte   W84
 .byte   W01
@  #12 @072   ----------------------------------------
 .byte   W96
@  #12 @073   ----------------------------------------
 .byte   W96
@  #12 @074   ----------------------------------------
 .byte   W96
@  #12 @075   ----------------------------------------
 .byte   W90
 .byte   N05 ,Cn4
 .byte   W06
@  #12 @076   ----------------------------------------
 .byte   W04
 .byte   N06 ,Cn5 ,v095
 .byte   W11
 .byte   TIE ,As4 ,v073
 .byte   W80
 .byte   W01
@  #12 @077   ----------------------------------------
 .byte   W96
@  #12 @078   ----------------------------------------
 .byte   W96
@  #12 @079   ----------------------------------------
 .byte   W21
 .byte   BEND , c_v-1
 .byte   W02
 .byte   BEND , c_v-2
 .byte   W01
 .byte   BEND , c_v-4
 .byte   W02
 .byte   BEND , c_v-7
 .byte   W02
 .byte   BEND , c_v-8
 .byte   W02
 .byte   BEND , c_v-11
 .byte   W01
 .byte   BEND , c_v-14
 .byte   W01
 .byte   BEND , c_v-15
 .byte   W02
 .byte   BEND , c_v-17
 .byte   W01
 .byte   BEND , c_v-20
 .byte   W01
 .byte   BEND , c_v-22
 .byte   W02
 .byte   BEND , c_v-27
 .byte   W01
 .byte   BEND , c_v-30
 .byte   W01
 .byte   BEND , c_v-33
 .byte   W02
 .byte   BEND , c_v-36
 .byte   W01
 .byte   BEND , c_v-39
 .byte   W01
 .byte   BEND , c_v-41
 .byte   W02
 .byte   EOT
 .byte   BEND , c_v-46
 .byte   W01
 .byte   BEND , c_v-48
 .byte   W02
 .byte   BEND , c_v-50
 .byte   W02
 .byte   BEND , c_v-52
 .byte   W02
 .byte   BEND , c_v-54
 .byte   W03
 .byte   BEND , c_v-56
 .byte   W03
 .byte   BEND , c_v-57
 .byte   W09
 .byte   BEND , c_v-56
 .byte   W01
 .byte   BEND , c_v-52
 .byte   W01
 .byte   BEND , c_v-50
 .byte   W01
 .byte   BEND , c_v-48
 .byte   W01
 .byte   BEND , c_v-42
 .byte   W01
 .byte   BEND , c_v-40
 .byte   W01
 .byte   BEND , c_v-36
 .byte   W02
 .byte   BEND , c_v-31
 .byte   W01
 .byte   BEND , c_v-28
 .byte   W01
 .byte   BEND , c_v-24
 .byte   W01
 .byte   BEND , c_v-23
 .byte   W01
 .byte   BEND , c_v-20
 .byte   W02
 .byte   BEND , c_v-15
 .byte   W01
 .byte   BEND , c_v-13
 .byte   W01
 .byte   BEND , c_v-11
 .byte   W01
 .byte   BEND , c_v-8
 .byte   W01
 .byte   BEND , c_v-6
 .byte   W01
 .byte   BEND , c_v-4
 .byte   W01
 .byte   BEND , c_v-2
 .byte   W01
 .byte   BEND , c_v+0
 .byte   W07
@  #12 @080   ----------------------------------------
 .byte   W21
 .byte   N06 ,Cn4 ,v087
 .byte   W09
 .byte   N08 ,As4 ,v085
 .byte   W11
 .byte   TIE ,An4 ,v086
 .byte   W54
 .byte   W01
@  #12 @081   ----------------------------------------
 .byte   W96
@  #12 @082   ----------------------------------------
 .byte   W28
 .byte   EOT
 .byte   W06
 .byte   N07 ,Cn4
 .byte   W11
 .byte   An4 ,v078
 .byte   W10
 .byte   TIE ,Gs4 ,v087
 .byte   W40
 .byte   W01
@  #12 @083   ----------------------------------------
 .byte   W66
 .byte   BEND , c_v+1
 .byte   W02
 .byte   BEND , c_v+3
 .byte   W01
 .byte   BEND , c_v+5
 .byte   W01
 .byte   BEND , c_v+7
 .byte   W02
 .byte   BEND , c_v+10
 .byte   W01
 .byte   BEND , c_v+13
 .byte   W01
 .byte   BEND , c_v+15
 .byte   W04
 .byte   BEND , c_v+13
 .byte   W01
 .byte   BEND , c_v+11
 .byte   W02
 .byte   BEND , c_v+8
 .byte   W01
 .byte   BEND , c_v+6
 .byte   W02
 .byte   BEND , c_v+4
 .byte   W02
 .byte   BEND , c_v+2
 .byte   W02
 .byte   BEND , c_v+0
 .byte   W08
@  #12 @084   ----------------------------------------
 .byte   W44
 .byte   W03
 .byte   EOT
 .byte   W04
 .byte   N13 ,Gs4 ,v092
 .byte   W13
 .byte   N40 ,Ds4 ,v079
 .byte   W32
@  #12 @085   ----------------------------------------
 .byte   W08
 .byte   TIE ,Gn4 ,v092
 .byte   W11
 .byte   BEND , c_v+3
 .byte   W01
 .byte   BEND , c_v+12
 .byte   W01
 .byte   BEND , c_v+16
 .byte   W01
 .byte   BEND , c_v+19
 .byte   W01
 .byte   BEND , c_v+20
 .byte   W02
 .byte   BEND , c_v+17
 .byte   W01
 .byte   BEND , c_v+13
 .byte   W01
 .byte   BEND , c_v+11
 .byte   W01
 .byte   BEND , c_v+6
 .byte   W02
 .byte   BEND , c_v+3
 .byte   W01
 .byte   BEND , c_v+1
 .byte   W01
 .byte   BEND , c_v+0
 .byte   W64
@  #12 @086   ----------------------------------------
 .byte   W96
@  #12 @087   ----------------------------------------
 .byte   W72
 .byte   BEND , c_v-1
 .byte   W02
 .byte   BEND , c_v-2
 .byte   W03
 .byte   BEND , c_v-4
 .byte   W02
 .byte   BEND , c_v-7
 .byte   W02
 .byte   BEND , c_v-8
 .byte   W02
 .byte   BEND , c_v-10
 .byte   W01
 .byte   BEND , c_v-12
 .byte   W02
 .byte   BEND , c_v-14
 .byte   W02
 .byte   BEND , c_v-15
 .byte   W01
 .byte   BEND , c_v-17
 .byte   W03
 .byte   BEND , c_v-19
 .byte   W03
 .byte   BEND , c_v-21
 .byte   W01
@  #12 @088   ----------------------------------------
 .byte   BEND , c_v-23
 .byte   W02
 .byte   BEND , c_v-24
 .byte   W01
 .byte   BEND , c_v-26
 .byte   W01
 .byte   BEND , c_v-28
 .byte   W02
 .byte   BEND , c_v-30
 .byte   W02
 .byte   BEND , c_v-32
 .byte   W03
 .byte   BEND , c_v-34
 .byte   W02
 .byte   BEND , c_v-36
 .byte   W02
 .byte   BEND , c_v-37
 .byte   W02
 .byte   BEND , c_v-39
 .byte   W01
 .byte   BEND , c_v-41
 .byte   W02
 .byte   BEND , c_v-43
 .byte   W01
 .byte   BEND , c_v-44
 .byte   W02
 .byte   BEND , c_v-47
 .byte   W03
 .byte   BEND , c_v-49
 .byte   W02
 .byte   BEND , c_v-50
 .byte   W02
 .byte   BEND , c_v-52
 .byte   W02
 .byte   BEND , c_v-54
 .byte   W02
 .byte   EOT
 .byte   W01
 .byte   BEND , c_v-56
 .byte   W03
 .byte   BEND , c_v-57
 .byte   W03
 .byte   BEND , c_v-59
 .byte   W02
 .byte   BEND , c_v-62
 .byte   W02
 .byte   BEND , c_v-63
 .byte   W17
 .byte   BEND , c_v-64
 .byte   W04
 .byte   BEND , c_v-63
 .byte   W02
 .byte   BEND , c_v-57
 .byte   W02
 .byte   BEND , c_v-50
 .byte   W01
 .byte   BEND , c_v-47
 .byte   W01
 .byte   BEND , c_v-40
 .byte   W01
 .byte   BEND , c_v-37
 .byte   W01
 .byte   BEND , c_v-33
 .byte   W01
 .byte   BEND , c_v-30
 .byte   W01
 .byte   BEND , c_v-27
 .byte   W01
 .byte   BEND , c_v-22
 .byte   W01
 .byte   BEND , c_v-20
 .byte   W01
 .byte   BEND , c_v-16
 .byte   W01
 .byte   BEND , c_v-14
 .byte   W01
 .byte   BEND , c_v-12
 .byte   W01
 .byte   BEND , c_v-8
 .byte   W01
 .byte   BEND , c_v-6
 .byte   W01
 .byte   BEND , c_v-4
 .byte   W02
 .byte   BEND , c_v+0
 .byte   W10
@  #12 @089   ----------------------------------------
 .byte   W72
 .byte   W02
 .byte   N72 ,As3 ,v048 ,gtp3
 .byte   W22
@  #12 @090   ----------------------------------------
 .byte   W15
 .byte   BEND , c_v-1
 .byte   W02
 .byte   BEND , c_v-4
 .byte   W01
 .byte   BEND , c_v-5
 .byte   W02
 .byte   BEND , c_v-7
 .byte   W02
 .byte   BEND , c_v-9
 .byte   W01
 .byte   BEND , c_v-11
 .byte   W01
 .byte   BEND , c_v-12
 .byte   W02
 .byte   BEND , c_v-15
 .byte   W01
 .byte   BEND , c_v-17
 .byte   W02
 .byte   BEND , c_v-18
 .byte   W02
 .byte   BEND , c_v-21
 .byte   W01
 .byte   BEND , c_v-24
 .byte   W01
 .byte   BEND , c_v-26
 .byte   W01
 .byte   BEND , c_v-28
 .byte   W01
 .byte   BEND , c_v-30
 .byte   W01
 .byte   BEND , c_v-33
 .byte   W02
 .byte   BEND , c_v-37
 .byte   W02
 .byte   BEND , c_v-39
 .byte   W01
 .byte   BEND , c_v-41
 .byte   W01
 .byte   BEND , c_v-44
 .byte   W01
 .byte   BEND , c_v-46
 .byte   W02
 .byte   BEND , c_v-48
 .byte   W02
 .byte   BEND , c_v-50
 .byte   W02
 .byte   BEND , c_v-52
 .byte   W01
 .byte   BEND , c_v-54
 .byte   W01
 .byte   BEND , c_v-56
 .byte   W03
 .byte   BEND , c_v-58
 .byte   W01
 .byte   BEND , c_v-60
 .byte   W01
 .byte   BEND , c_v-62
 .byte   W02
 .byte   BEND , c_v-64
 .byte   W07
 .byte   BEND , c_v-63
 .byte   W01
 .byte   BEND , c_v-60
 .byte   W01
 .byte   BEND , c_v-57
 .byte   W01
 .byte   BEND , c_v-50
 .byte   W01
 .byte   BEND , c_v-48
 .byte   W01
 .byte   BEND , c_v-46
 .byte   W01
 .byte   BEND , c_v-40
 .byte   W01
 .byte   BEND , c_v-37
 .byte   W01
 .byte   BEND , c_v-30
 .byte   W01
 .byte   BEND , c_v-24
 .byte   W01
 .byte   BEND , c_v-20
 .byte   W01
 .byte   BEND , c_v-10
 .byte   W01
 .byte   BEND , c_v-6
 .byte   W01
 .byte   BEND , c_v+0
 .byte   W04
 .byte   N80 ,Ds4 ,v078 ,gtp2
 .byte   W14
@  #12 @091   ----------------------------------------
 .byte   W28
 .byte   BEND , c_v-2
 .byte   W03
 .byte   BEND , c_v-4
 .byte   W03
 .byte   BEND , c_v-6
 .byte   W01
 .byte   BEND , c_v-8
 .byte   W02
 .byte   BEND , c_v-9
 .byte   W02
 .byte   BEND , c_v-11
 .byte   W03
 .byte   BEND , c_v-13
 .byte   W03
 .byte   BEND , c_v-15
 .byte   W01
 .byte   BEND , c_v-17
 .byte   W02
 .byte   BEND , c_v-19
 .byte   W02
 .byte   BEND , c_v-21
 .byte   W02
 .byte   BEND , c_v-23
 .byte   W01
 .byte   BEND , c_v-25
 .byte   W01
 .byte   BEND , c_v-27
 .byte   W01
 .byte   BEND , c_v-28
 .byte   W01
 .byte   BEND , c_v-31
 .byte   W02
 .byte   BEND , c_v-33
 .byte   W02
 .byte   BEND , c_v-35
 .byte   W01
 .byte   BEND , c_v-37
 .byte   W01
 .byte   BEND , c_v-39
 .byte   W02
 .byte   BEND , c_v-41
 .byte   W02
 .byte   BEND , c_v-44
 .byte   W01
 .byte   BEND , c_v-46
 .byte   W03
 .byte   BEND , c_v-48
 .byte   W02
 .byte   BEND , c_v-50
 .byte   W03
 .byte   BEND , c_v-52
 .byte   W03
 .byte   BEND , c_v-53
 .byte   W05
 .byte   BEND , c_v-55
 .byte   W04
 .byte   BEND , c_v-53
 .byte   W01
 .byte   BEND , c_v-52
 .byte   W01
 .byte   BEND , c_v-49
 .byte   W01
 .byte   BEND , c_v-47
 .byte   W02
 .byte   BEND , c_v-41
 .byte   W02
 .byte   BEND , c_v-39
 .byte   W01
 .byte   BEND , c_v-36
 .byte   W01
@  #12 @092   ----------------------------------------
 .byte   BEND , c_v-34
 .byte   W03
 .byte   BEND , c_v-30
 .byte   W01
 .byte   BEND , c_v-28
 .byte   W01
 .byte   BEND , c_v-23
 .byte   W02
 .byte   BEND , c_v-18
 .byte   W01
 .byte   BEND , c_v-17
 .byte   W01
 .byte   BEND , c_v-15
 .byte   W01
 .byte   BEND , c_v-11
 .byte   W01
 .byte   BEND , c_v-8
 .byte   W01
 .byte   BEND , c_v-2
 .byte   W01
 .byte   BEND , c_v+0
 .byte   W08
 .byte   TIE ,Cn4 ,v081
 .byte   W72
 .byte   W03
@  #12 @093   ----------------------------------------
 .byte   W18
 .byte   BEND , c_v+4
 .byte   W01
 .byte   BEND , c_v+6
 .byte   W01
 .byte   BEND , c_v+12
 .byte   W01
 .byte   BEND , c_v+13
 .byte   W01
 .byte   BEND , c_v+15
 .byte   W02
 .byte   BEND , c_v+19
 .byte   W01
 .byte   BEND , c_v+21
 .byte   W01
 .byte   BEND , c_v+22
 .byte   W03
 .byte   BEND , c_v+19
 .byte   W01
 .byte   BEND , c_v+13
 .byte   W01
 .byte   BEND , c_v+10
 .byte   W01
 .byte   BEND , c_v+8
 .byte   W01
 .byte   BEND , c_v+3
 .byte   W01
 .byte   BEND , c_v+0
 .byte   W60
 .byte   W02
@  #12 @094   ----------------------------------------
 .byte   W32
 .byte   BEND , c_v-5
 .byte   W01
 .byte   BEND , c_v-12
 .byte   W01
 .byte   BEND , c_v-23
 .byte   W01
 .byte   BEND , c_v-29
 .byte   W01
 .byte   BEND , c_v-34
 .byte   W01
 .byte   BEND , c_v-36
 .byte   W02
 .byte   EOT
 .byte   W14
 .byte   BEND , c_v-34
 .byte   W01
 .byte   BEND , c_v-30
 .byte   W01
 .byte   BEND , c_v-28
 .byte   W01
 .byte   BEND , c_v-24
 .byte   W01
 .byte   BEND , c_v-23
 .byte   W01
 .byte   BEND , c_v-21
 .byte   W01
 .byte   BEND , c_v-17
 .byte   W01
 .byte   BEND , c_v-15
 .byte   W01
 .byte   BEND , c_v-12
 .byte   W02
 .byte   BEND , c_v-10
 .byte   W02
 .byte   BEND , c_v-8
 .byte   W03
 .byte   BEND , c_v-4
 .byte   W02
 .byte   BEND , c_v-2
 .byte   W01
 .byte   BEND , c_v+0
 .byte   W24
 .byte   W01
@  #12 @095   ----------------------------------------
 .byte   W20
 .byte   TIE ,Cn4 ,v064
 .byte   W13
 .byte   BEND , c_v+1
 .byte   W01
 .byte   BEND , c_v+6
 .byte   W01
 .byte   BEND , c_v+8
 .byte   W01
 .byte   BEND , c_v+10
 .byte   W03
 .byte   BEND , c_v+7
 .byte   W01
 .byte   BEND , c_v+2
 .byte   W01
 .byte   BEND , c_v+0
 .byte   W54
 .byte   W01
@  #12 @096   ----------------------------------------
 .byte   W40
 .byte   BEND , c_v-1
 .byte   W01
 .byte   BEND , c_v-4
 .byte   W01
 .byte   BEND , c_v-14
 .byte   W01
 .byte   BEND , c_v-18
 .byte   W01
 .byte   BEND , c_v-30
 .byte   W01
 .byte   BEND , c_v-34
 .byte   W01
 .byte   BEND , c_v-39
 .byte   W02
 .byte   BEND , c_v-41
 .byte   W04
 .byte   EOT
 .byte   W03
 .byte   BEND , c_v-38
 .byte   W01
 .byte   BEND , c_v-36
 .byte   W01
 .byte   BEND , c_v-29
 .byte   W01
 .byte   BEND , c_v-24
 .byte   W01
 .byte   BEND , c_v-14
 .byte   W01
 .byte   BEND , c_v-9
 .byte   W01
 .byte   BEND , c_v-5
 .byte   W01
 .byte   BEND , c_v-1
 .byte   W01
 .byte   BEND , c_v+0
 .byte   W32
 .byte   W01
@  #12 @097   ----------------------------------------
 .byte   W96
@  #12 @098   ----------------------------------------
 .byte   W96
@  #12 @099   ----------------------------------------
 .byte   W96
@  #12 @100   ----------------------------------------
 .byte   W96
@  #12 @101   ----------------------------------------
 .byte   W96
@  #12 @102   ----------------------------------------
 .byte   W96
@  #12 @103   ----------------------------------------
 .byte   W96
@  #12 @104   ----------------------------------------
 .byte   W96
@  #12 @105   ----------------------------------------
 .byte   W96
@  #12 @106   ----------------------------------------
 .byte   W96
@  #12 @107   ----------------------------------------
 .byte   W96
@  #12 @108   ----------------------------------------
 .byte   GOTO
  .word Label_01005DBA
@  #12 @109   ----------------------------------------
 .byte   W96
@  #12 @110   ----------------------------------------
 .byte   PATT
  .word Label_548415
@  #12 @111   ----------------------------------------
 .byte   W96
@  #12 @112   ----------------------------------------
 .byte   W13
 .byte   FINE

@**************** Track 13 (Midi-Chn.12) ****************@

song04_013:
@  #13 @000   ----------------------------------------
 .byte   KEYSH , song04_key+0
Label_01006A0A:
 .byte   VOICE , 14
 .byte   VOL , 20*song04_mvl/mxv
 .byte   PAN , c_v-63
 .byte   W96
@  #13 @001   ----------------------------------------
 .byte   W96
@  #13 @002   ----------------------------------------
 .byte   W96
@  #13 @003   ----------------------------------------
 .byte   W32
 .byte   N07 ,Cn2 ,v086
 .byte   W12
 .byte   N06 ,Fs1 ,v092
 .byte   W12
 .byte   N09 ,Cn1 ,v071
 .byte   W40
@  #13 @004   ----------------------------------------
 .byte   W84
 .byte   W03
 .byte   N07 ,Cn2 ,v086
 .byte   W09
@  #13 @005   ----------------------------------------
 .byte   W03
 .byte   N06 ,Fs1 ,v089
 .byte   W14
 .byte   N09 ,Cs1 ,v080
 .byte   W78
 .byte   W01
@  #13 @006   ----------------------------------------
 .byte   W24
 .byte   N07 ,Cn2
 .byte   W12
 .byte   N06 ,Fs1 ,v096
 .byte   W11
 .byte   N09 ,Cn1 ,v067
 .byte   W48
 .byte   W01
@  #13 @007   ----------------------------------------
 .byte   W96
@  #13 @008   ----------------------------------------
 .byte   W96
@  #13 @009   ----------------------------------------
 .byte   W96
@  #13 @010   ----------------------------------------
 .byte   W84
 .byte   W01
 .byte   N07 ,Cn2 ,v092
 .byte   W11
@  #13 @011   ----------------------------------------
 .byte   W02
 .byte   N06 ,Fs1 ,v096
 .byte   W12
 .byte   N08 ,Cn1 ,v077
 .byte   W80
 .byte   W02
@  #13 @012   ----------------------------------------
 .byte   W16
 .byte   Cn2 ,v089
 .byte   W13
 .byte   N06 ,Fs1 ,v100
 .byte   W12
 .byte   N07 ,Cs1 ,v096
 .byte   W54
 .byte   W01
@  #13 @013   ----------------------------------------
 .byte   W76
 .byte   Cn2 ,v086
 .byte   W12
 .byte   N06 ,Fs1 ,v100
 .byte   W08
@  #13 @014   ----------------------------------------
 .byte   W03
 .byte   N09 ,Cn1 ,v083
 .byte   W92
 .byte   W01
@  #13 @015   ----------------------------------------
 .byte   W96
@  #13 @016   ----------------------------------------
 .byte   W96
@  #13 @017   ----------------------------------------
 .byte   W96
@  #13 @018   ----------------------------------------
 .byte   W96
@  #13 @019   ----------------------------------------
 .byte   W96
@  #13 @020   ----------------------------------------
 .byte   W96
@  #13 @021   ----------------------------------------
 .byte   W54
 .byte   W01
 .byte   N07 ,Cn2 ,v089
 .byte   W13
 .byte   N06 ,Fs1 ,v092
 .byte   W12
 .byte   N08 ,Cn1 ,v062
 .byte   W16
@  #13 @022   ----------------------------------------
 .byte   W84
 .byte   W03
 .byte   N07 ,Cn2 ,v089
 .byte   W09
@  #13 @023   ----------------------------------------
 .byte   W04
 .byte   N06 ,Fs1 ,v096
 .byte   W12
 .byte   N09 ,Cs1 ,v100
 .byte   W80
@  #13 @024   ----------------------------------------
 .byte   W96
@  #13 @025   ----------------------------------------
 .byte   W96
@  #13 @026   ----------------------------------------
 .byte   W96
@  #13 @027   ----------------------------------------
 .byte   W22
 .byte   N06 ,Cn2 ,v083
 .byte   W12
 .byte   Fs1 ,v105
 .byte   W11
 .byte   N07 ,Cn1 ,v092
 .byte   W48
 .byte   W03
@  #13 @028   ----------------------------------------
 .byte   W48
 .byte   W03
 .byte   N06 ,Cn2 ,v089
 .byte   W12
 .byte   N04 ,Fs1 ,v096
 .byte   W10
 .byte   N06 ,Cs1 ,v100
 .byte   W23
@  #13 @029   ----------------------------------------
 .byte   W96
@  #13 @030   ----------------------------------------
 .byte   W96
@  #13 @031   ----------------------------------------
 .byte   W96
@  #13 @032   ----------------------------------------
 .byte   W96
@  #13 @033   ----------------------------------------
 .byte   W96
@  #13 @034   ----------------------------------------
 .byte   W96
@  #13 @035   ----------------------------------------
 .byte   W96
@  #13 @036   ----------------------------------------
 .byte   W24
 .byte   W01
 .byte   N07 ,Cn2 ,v092
 .byte   W12
 .byte   N06 ,Fs1 ,v105
 .byte   W11
 .byte   N09 ,Cn1 ,v073
 .byte   W48
@  #13 @037   ----------------------------------------
 .byte   W96
@  #13 @038   ----------------------------------------
 .byte   W12
 .byte   N06 ,Cn2 ,v086
 .byte   W10
 .byte   Fs1 ,v096
 .byte   W11
 .byte   N09 ,Cs1 ,v092
 .byte   W60
 .byte   W03
@  #13 @039   ----------------------------------------
 .byte   W88
 .byte   N06 ,Cn2 ,v089
 .byte   W08
@  #13 @040   ----------------------------------------
 .byte   W04
 .byte   N05 ,Fs1 ,v105
 .byte   W11
 .byte   N09 ,Cn1 ,v077
 .byte   W80
 .byte   W01
@  #13 @041   ----------------------------------------
 .byte   W96
@  #13 @042   ----------------------------------------
 .byte   W88
 .byte   W01
 .byte   N07 ,Cn2 ,v086
 .byte   W07
@  #13 @043   ----------------------------------------
 .byte   W06
 .byte   N06 ,Fs1 ,v105
 .byte   W11
 .byte   N09 ,Cn1 ,v086
 .byte   W78
 .byte   W01
@  #13 @044   ----------------------------------------
 .byte   W24
 .byte   W03
 .byte   N07 ,Cn2 ,v083
 .byte   W11
 .byte   N06 ,Fs1 ,v100
 .byte   W12
 .byte   N10 ,Cs1
 .byte   W44
 .byte   W02
@  #13 @045   ----------------------------------------
 .byte   W80
 .byte   W03
 .byte   N06 ,Cn2 ,v086
 .byte   W12
 .byte   Fs1 ,v105
 .byte   W01
@  #13 @046   ----------------------------------------
 .byte   W11
 .byte   N09 ,Cn1 ,v089
 .byte   W84
 .byte   W01
@  #13 @047   ----------------------------------------
 .byte   W96
@  #13 @048   ----------------------------------------
 .byte   W96
@  #13 @049   ----------------------------------------
 .byte   W96
@  #13 @050   ----------------------------------------
 .byte   W96
@  #13 @051   ----------------------------------------
 .byte   W96
@  #13 @052   ----------------------------------------
 .byte   W44
 .byte   W01
 .byte   N06 ,Cn2 ,v092
 .byte   W12
 .byte   N05 ,Fs1 ,v110
 .byte   W10
 .byte   N07 ,Cn1 ,v096
 .byte   W28
 .byte   W01
@  #13 @053   ----------------------------------------
 .byte   W96
@  #13 @054   ----------------------------------------
 .byte   W18
 .byte   N06 ,Cn2 ,v083
 .byte   W12
 .byte   N03 ,Fs1 ,v096
 .byte   W01
 .byte   N02 ,Gn1 ,v055
 .byte   W10
 .byte   N07 ,Cs1 ,v100
 .byte   W54
 .byte   W01
@  #13 @055   ----------------------------------------
 .byte   W96
@  #13 @056   ----------------------------------------
 .byte   W96
@  #13 @057   ----------------------------------------
 .byte   W24
 .byte   W01
 .byte   N06 ,Cn2 ,v083
 .byte   W12
 .byte   Fs1 ,v092
 .byte   W11
 .byte   N12 ,Cn1 ,v064
 .byte   W48
@  #13 @058   ----------------------------------------
 .byte   W60
 .byte   N07 ,Cn2 ,v083
 .byte   W12
 .byte   N05 ,Fs1 ,v096
 .byte   W10
 .byte   N23 ,Cs1
 .byte   W14
@  #13 @059   ----------------------------------------
 .byte   W96
@  #13 @060   ----------------------------------------
 .byte   W01
 .byte   N06 ,Cn2 ,v092
 .byte   W11
 .byte   N04 ,Fs1 ,v100
 .byte   W02
 .byte   N02 ,Fn1 ,v080
 .byte   W08
 .byte   N08 ,Cn1 ,v077
 .byte   W72
 .byte   W02
@  #13 @061   ----------------------------------------
 .byte   W42
 .byte   N06 ,Cn2 ,v086
 .byte   W10
 .byte   Fs1 ,v096
 .byte   W11
 .byte   N12 ,Cs1
 .byte   W32
 .byte   W01
@  #13 @062   ----------------------------------------
 .byte   W66
 .byte   W01
 .byte   N06 ,Cn2
 .byte   W12
 .byte   N05 ,Fs1 ,v100
 .byte   W09
 .byte   N09 ,Cn1 ,v083
 .byte   W08
@  #13 @063   ----------------------------------------
 .byte   W96
@  #13 @064   ----------------------------------------
 .byte   N06 ,Cn2 ,v100
 .byte   W11
 .byte   N04 ,Fs1 ,v092
 .byte   W10
 .byte   N12 ,Cs1
 .byte   W72
 .byte   W03
@  #13 @065   ----------------------------------------
 .byte   W96
@  #13 @066   ----------------------------------------
 .byte   W96
@  #13 @067   ----------------------------------------
 .byte   W05
 .byte   N07 ,Cn2 ,v080
 .byte   W12
 .byte   N06 ,Fs1 ,v092
 .byte   W10
 .byte   N09 ,Cn1 ,v071
 .byte   W68
 .byte   W01
@  #13 @068   ----------------------------------------
 .byte   W96
@  #13 @069   ----------------------------------------
 .byte   W60
 .byte   N06 ,Cn2 ,v077
 .byte   W10
 .byte   N05 ,Fs1 ,v092
 .byte   W11
 .byte   N08 ,Cs1 ,v096
 .byte   W15
@  #13 @070   ----------------------------------------
 .byte   W96
@  #13 @071   ----------------------------------------
 .byte   W44
 .byte   N05 ,Cn2 ,v077
 .byte   W09
 .byte   N04 ,Fs1 ,v089
 .byte   W07
 .byte   N07 ,Cn1 ,v071
 .byte   W36
@  #13 @072   ----------------------------------------
 .byte   W96
@  #13 @073   ----------------------------------------
 .byte   W96
@  #13 @074   ----------------------------------------
 .byte   W96
@  #13 @075   ----------------------------------------
 .byte   W96
@  #13 @076   ----------------------------------------
 .byte   W96
@  #13 @077   ----------------------------------------
 .byte   W96
@  #13 @078   ----------------------------------------
 .byte   W96
@  #13 @079   ----------------------------------------
 .byte   W96
@  #13 @080   ----------------------------------------
 .byte   W96
@  #13 @081   ----------------------------------------
 .byte   W96
@  #13 @082   ----------------------------------------
 .byte   W96
@  #13 @083   ----------------------------------------
 .byte   W96
@  #13 @084   ----------------------------------------
 .byte   W96
@  #13 @085   ----------------------------------------
 .byte   W96
@  #13 @086   ----------------------------------------
 .byte   W96
@  #13 @087   ----------------------------------------
 .byte   W96
@  #13 @088   ----------------------------------------
 .byte   W96
@  #13 @089   ----------------------------------------
 .byte   W96
@  #13 @090   ----------------------------------------
 .byte   W96
@  #13 @091   ----------------------------------------
 .byte   W96
@  #13 @092   ----------------------------------------
 .byte   W96
@  #13 @093   ----------------------------------------
 .byte   W96
@  #13 @094   ----------------------------------------
 .byte   W96
@  #13 @095   ----------------------------------------
 .byte   W96
@  #13 @096   ----------------------------------------
 .byte   W96
@  #13 @097   ----------------------------------------
 .byte   W96
@  #13 @098   ----------------------------------------
 .byte   W96
@  #13 @099   ----------------------------------------
 .byte   W96
@  #13 @100   ----------------------------------------
 .byte   W96
@  #13 @101   ----------------------------------------
 .byte   W96
@  #13 @102   ----------------------------------------
 .byte   W96
@  #13 @103   ----------------------------------------
 .byte   W96
@  #13 @104   ----------------------------------------
 .byte   W96
@  #13 @105   ----------------------------------------
 .byte   W96
@  #13 @106   ----------------------------------------
 .byte   W96
@  #13 @107   ----------------------------------------
 .byte   W96
@  #13 @108   ----------------------------------------
 .byte   GOTO
  .word Label_01006A0A
@  #13 @109   ----------------------------------------
 .byte   W96
@  #13 @110   ----------------------------------------
 .byte   PATT
  .word Label_548415
@  #13 @111   ----------------------------------------
 .byte   W96
@  #13 @112   ----------------------------------------
 .byte   W13
 .byte   FINE

@******************************************************@
	.align	2

song04:
	.byte	13	@ NumTrks
	.byte	0	@ NumBlks
	.byte	song04_pri	@ Priority
	.byte	song04_rev	@ Reverb.
    
	.word	song04_grp
    
	.word	song04_001
	.word	song04_002
	.word	song04_003
	.word	song04_004
	.word	song04_005
	.word	song04_006
	.word	song04_007
	.word	song04_008
	.word	song04_009
	.word	song04_010
	.word	song04_011
	.word	song04_012
	.word	song04_013

	.end
