	.include "MPlayDef.s"

	.equ	song02_grp, voicegroup000
	.equ	song02_pri, 0
	.equ	song02_rev, 0
	.equ	song02_mvl, 127
	.equ	song02_key, 0
	.equ	song02_tbs, 1
	.equ	song02_exg, 0
	.equ	song02_cmp, 1

	.section .rodata
	.global	song02
	.align	2


@**************** Track 1 (Midi-Chn.0) ****************@

song02_001:
@  #01 @000   ----------------------------------------
 .byte   KEYSH , song02_key+0
 .byte   TEMPO , 144*song02_tbs/2
Label_01003028:
 .byte   VOICE , 66
 .byte   PAN , c_v-29
 .byte   VOL , 73*song02_mvl/mxv
 .byte   BENDR, 12
 .byte   W96
@  #01 @001   ----------------------------------------
 .byte   W96
@  #01 @002   ----------------------------------------
 .byte   W96
@  #01 @003   ----------------------------------------
 .byte   W96
@  #01 @004   ----------------------------------------
 .byte   W96
@  #01 @005   ----------------------------------------
 .byte   W96
@  #01 @006   ----------------------------------------
 .byte   W96
@  #01 @007   ----------------------------------------
 .byte   W96
@  #01 @008   ----------------------------------------
 .byte   N92 ,Ds3 ,v026 ,gtp3
 .byte   W96
@  #01 @009   ----------------------------------------
 .byte   En3
 .byte   W96
@  #01 @010   ----------------------------------------
 .byte   TIE ,Cs3
 .byte   W96
@  #01 @011   ----------------------------------------
Label_01003042:
 .byte   W68
 .byte   W03
 .byte   EOT
 .byte   Cs3
 .byte   W01
 .byte   N23 ,Ds3 ,v059
 .byte   W24
 .byte   PEND 
@  #01 @012   ----------------------------------------
 .byte   TIE ,En3
 .byte   W96
@  #01 @013   ----------------------------------------
 .byte   W92
 .byte   W03
 .byte   EOT
 .byte   W01
@  #01 @014   ----------------------------------------
 .byte   N92 ,Fs3 ,v059 ,gtp3
 .byte   W96
@  #01 @015   ----------------------------------------
 .byte   Gn3
 .byte   W96
@  #01 @016   ----------------------------------------
 .byte   TIE ,Bn3
 .byte   W96
@  #01 @017   ----------------------------------------
 .byte   W92
 .byte   W03
 .byte   EOT
 .byte   W01
@  #01 @018   ----------------------------------------
 .byte   N92 ,As3 ,v059 ,gtp3
 .byte   W96
@  #01 @019   ----------------------------------------
 .byte   Ds3
 .byte   W96
@  #01 @020   ----------------------------------------
 .byte   TIE ,Bn2
 .byte   W96
@  #01 @021   ----------------------------------------
 .byte   W92
 .byte   W03
 .byte   EOT
 .byte   W01
@  #01 @022   ----------------------------------------
 .byte   N92 ,Cs3 ,v059 ,gtp3
 .byte   W96
@  #01 @023   ----------------------------------------
 .byte   Cs3
 .byte   W96
@  #01 @024   ----------------------------------------
 .byte   TIE ,Bn2 ,v041
 .byte   W96
@  #01 @025   ----------------------------------------
Label_0100307A:
 .byte   W44
 .byte   W03
 .byte   EOT
 .byte   Bn2
 .byte   W01
 .byte   N44 ,Cs3 ,v041 ,gtp3
 .byte   W48
 .byte   PEND 
@  #01 @026   ----------------------------------------
Label_01003085:
 .byte   N44 ,As2 ,v041 ,gtp3
 .byte   W48
 .byte   Bn2
 .byte   W48
 .byte   PEND 
@  #01 @027   ----------------------------------------
Label_0100308D:
 .byte   N44 ,Cs3 ,v041 ,gtp3
 .byte   W48
 .byte   Ds3
 .byte   W48
 .byte   PEND 
@  #01 @028   ----------------------------------------
 .byte   TIE ,Gs2
 .byte   W96
@  #01 @029   ----------------------------------------
 .byte   W92
 .byte   W03
 .byte   EOT
 .byte   W01
@  #01 @030   ----------------------------------------
 .byte   PATT
  .word Label_01003085
@  #01 @031   ----------------------------------------
 .byte   PATT
  .word Label_0100308D
@  #01 @032   ----------------------------------------
 .byte   N92 ,Ds3 ,v026 ,gtp3
 .byte   W96
@  #01 @033   ----------------------------------------
 .byte   En3
 .byte   W96
@  #01 @034   ----------------------------------------
 .byte   TIE ,Cs3
 .byte   W96
@  #01 @035   ----------------------------------------
 .byte   PATT
  .word Label_01003042
@  #01 @036   ----------------------------------------
 .byte   TIE ,En3 ,v059
 .byte   W96
@  #01 @037   ----------------------------------------
 .byte   W92
 .byte   W03
 .byte   EOT
 .byte   W01
@  #01 @038   ----------------------------------------
 .byte   N92 ,Fs3 ,v059 ,gtp3
 .byte   W96
@  #01 @039   ----------------------------------------
 .byte   Gn3
 .byte   W96
@  #01 @040   ----------------------------------------
 .byte   TIE ,Bn3
 .byte   W96
@  #01 @041   ----------------------------------------
 .byte   W92
 .byte   W03
 .byte   EOT
 .byte   W01
@  #01 @042   ----------------------------------------
 .byte   N92 ,As3 ,v059 ,gtp3
 .byte   W96
@  #01 @043   ----------------------------------------
 .byte   Ds3
 .byte   W96
@  #01 @044   ----------------------------------------
 .byte   TIE ,Bn2
 .byte   W96
@  #01 @045   ----------------------------------------
 .byte   W92
 .byte   W03
 .byte   EOT
 .byte   W01
@  #01 @046   ----------------------------------------
 .byte   N92 ,Cs3 ,v059 ,gtp3
 .byte   W96
@  #01 @047   ----------------------------------------
 .byte   Cs3
 .byte   W96
@  #01 @048   ----------------------------------------
 .byte   TIE ,Bn2 ,v041
 .byte   W96
@  #01 @049   ----------------------------------------
 .byte   PATT
  .word Label_0100307A
@  #01 @050   ----------------------------------------
 .byte   PATT
  .word Label_01003085
@  #01 @051   ----------------------------------------
 .byte   PATT
  .word Label_0100308D
@  #01 @052   ----------------------------------------
 .byte   TIE ,Gs2 ,v041
 .byte   W96
@  #01 @053   ----------------------------------------
 .byte   W92
 .byte   W03
 .byte   EOT
 .byte   W01
@  #01 @054   ----------------------------------------
 .byte   PATT
  .word Label_01003085
@  #01 @055   ----------------------------------------
 .byte   PATT
  .word Label_0100308D
@  #01 @056   ----------------------------------------
 .byte   N15 ,Gs3 ,v127
 .byte   W16
 .byte   Ds3 ,v085
 .byte   W16
 .byte   Bn2
 .byte   W16
 .byte   N44 ,Gn3 ,v085 ,gtp3
 .byte   W48
@  #01 @057   ----------------------------------------
 .byte   Fs3
 .byte   W48
 .byte   Fn3
 .byte   W48
@  #01 @058   ----------------------------------------
 .byte   N92 ,Ds3 ,v085 ,gtp3
 .byte   W96
@  #01 @059   ----------------------------------------
 .byte   N44 ,Gs3 ,v085 ,gtp3
 .byte   W48
 .byte   As3
 .byte   W48
@  #01 @060   ----------------------------------------
 .byte   N15 ,Gs3 ,v127
 .byte   W16
 .byte   Ds3 ,v111
 .byte   W16
 .byte   Bn2
 .byte   W16
 .byte   N44 ,Gn3 ,v085 ,gtp3
 .byte   W48
@  #01 @061   ----------------------------------------
 .byte   N48 ,Fs3
 .byte   W48
 .byte   N44 ,Fn3 ,v085 ,gtp3
 .byte   W48
@  #01 @062   ----------------------------------------
 .byte   Ds3
 .byte   W48
 .byte   Gs3
 .byte   W48
@  #01 @063   ----------------------------------------
 .byte   Gn3
 .byte   W48
 .byte   N23 ,Gs3
 .byte   W24
 .byte   As3
 .byte   W24
@  #01 @064   ----------------------------------------
Label_01003144:
 .byte   N23 ,Bn3 ,v085
 .byte   W24
 .byte   N07 ,As3
 .byte   W08
 .byte   N15 ,Gs3
 .byte   W16
 .byte   N23 ,Bn3
 .byte   W24
 .byte   N07 ,As3
 .byte   W08
 .byte   Gs3
 .byte   W16
 .byte   PEND 
@  #01 @065   ----------------------------------------
Label_01003157:
 .byte   N23 ,Gn3 ,v085
 .byte   W24
 .byte   N07 ,Gs3
 .byte   W08
 .byte   As3
 .byte   W16
 .byte   N23 ,Gn3
 .byte   W24
 .byte   N07 ,Gs3
 .byte   W08
 .byte   As3
 .byte   W16
 .byte   PEND 
@  #01 @066   ----------------------------------------
Label_01003169:
 .byte   N44 ,Gs3 ,v085 ,gtp3
 .byte   W48
 .byte   N23 ,As3
 .byte   W24
 .byte   Bn3
 .byte   W24
 .byte   PEND 
@  #01 @067   ----------------------------------------
Label_01003174:
 .byte   N44 ,As3 ,v085 ,gtp3
 .byte   W48
 .byte   Bn3
 .byte   W48
 .byte   PEND 
@  #01 @068   ----------------------------------------
 .byte   PATT
  .word Label_01003144
@  #01 @069   ----------------------------------------
 .byte   PATT
  .word Label_01003157
@  #01 @070   ----------------------------------------
 .byte   PATT
  .word Label_01003169
@  #01 @071   ----------------------------------------
 .byte   PATT
  .word Label_01003174
@  #01 @072   ----------------------------------------
 .byte   W96
@  #01 @073   ----------------------------------------
 .byte   W96
@  #01 @074   ----------------------------------------
 .byte   W96
@  #01 @075   ----------------------------------------
 .byte   W96
@  #01 @076   ----------------------------------------
 .byte   W96
@  #01 @077   ----------------------------------------
 .byte   W96
@  #01 @078   ----------------------------------------
 .byte   W96
@  #01 @079   ----------------------------------------
 .byte   W96
@  #01 @080   ----------------------------------------
 .byte   GOTO
  .word Label_01003028
 .byte   FINE

@**************** Track 2 (Midi-Chn.1) ****************@

song02_002:
@  #02 @000   ----------------------------------------
 .byte   KEYSH , song02_key+0
Label_010005D2:
 .byte   VOICE , 57
 .byte   VOL , 91*song02_mvl/mxv
 .byte   PAN , c_v+27
 .byte   BENDR, 12
 .byte   W96
@  #02 @001   ----------------------------------------
 .byte   W96
@  #02 @002   ----------------------------------------
 .byte   W96
@  #02 @003   ----------------------------------------
 .byte   W96
@  #02 @004   ----------------------------------------
 .byte   W96
@  #02 @005   ----------------------------------------
 .byte   W96
@  #02 @006   ----------------------------------------
 .byte   W96
@  #02 @007   ----------------------------------------
 .byte   W96
@  #02 @008   ----------------------------------------
Label_010005E2:
 .byte   N80 ,Ds3 ,v059 ,gtp3
 .byte   W84
 .byte   N05
 .byte   W06
 .byte   En3
 .byte   W06
 .byte   PEND 
@  #02 @009   ----------------------------------------
 .byte   N92 ,Bn2 ,v059 ,gtp3
 .byte   W96
@  #02 @010   ----------------------------------------
Label_010005F1:
 .byte   N80 ,Cs3 ,v059 ,gtp3
 .byte   W84
 .byte   N05 ,Bn2
 .byte   W06
 .byte   As2
 .byte   W06
 .byte   PEND 
@  #02 @011   ----------------------------------------
 .byte   N92 ,Fs2 ,v059 ,gtp3
 .byte   W96
@  #02 @012   ----------------------------------------
Label_01000601:
 .byte   N60 ,Gs2 ,v059 ,gtp3
 .byte   W64
 .byte   N15 ,As2
 .byte   W16
 .byte   Bn2
 .byte   W16
 .byte   PEND 
@  #02 @013   ----------------------------------------
Label_0100060C:
 .byte   N17 ,As2 ,v059
 .byte   W18
 .byte   N05 ,Fs2
 .byte   W06
 .byte   N68 ,Ds3 ,v059 ,gtp3
 .byte   W72
 .byte   PEND 
@  #02 @014   ----------------------------------------
Label_01000619:
 .byte   N80 ,Cs3 ,v059 ,gtp3
 .byte   W84
 .byte   N05 ,Bn2
 .byte   W06
 .byte   Cs3
 .byte   W06
 .byte   PEND 
@  #02 @015   ----------------------------------------
 .byte   N80 ,As2 ,v059 ,gtp3
 .byte   W96
@  #02 @016   ----------------------------------------
 .byte   PATT
  .word Label_010005E2
@  #02 @017   ----------------------------------------
 .byte   N92 ,Bn2 ,v059 ,gtp3
 .byte   W96
@  #02 @018   ----------------------------------------
 .byte   PATT
  .word Label_010005F1
@  #02 @019   ----------------------------------------
 .byte   N92 ,Fs2 ,v059 ,gtp3
 .byte   W96
@  #02 @020   ----------------------------------------
 .byte   PATT
  .word Label_01000601
@  #02 @021   ----------------------------------------
 .byte   PATT
  .word Label_0100060C
@  #02 @022   ----------------------------------------
 .byte   PATT
  .word Label_01000619
@  #02 @023   ----------------------------------------
 .byte   N80 ,As2 ,v059 ,gtp3
 .byte   W96
@  #02 @024   ----------------------------------------
 .byte   W96
@  #02 @025   ----------------------------------------
 .byte   W96
@  #02 @026   ----------------------------------------
 .byte   W96
@  #02 @027   ----------------------------------------
 .byte   W96
@  #02 @028   ----------------------------------------
 .byte   W96
@  #02 @029   ----------------------------------------
 .byte   W96
@  #02 @030   ----------------------------------------
 .byte   W96
@  #02 @031   ----------------------------------------
 .byte   W96
@  #02 @032   ----------------------------------------
 .byte   PATT
  .word Label_010005E2
@  #02 @033   ----------------------------------------
 .byte   N92 ,Bn2 ,v059 ,gtp3
 .byte   W96
@  #02 @034   ----------------------------------------
 .byte   PATT
  .word Label_010005F1
@  #02 @035   ----------------------------------------
 .byte   N92 ,Fs2 ,v059 ,gtp3
 .byte   W96
@  #02 @036   ----------------------------------------
 .byte   PATT
  .word Label_01000601
@  #02 @037   ----------------------------------------
 .byte   PATT
  .word Label_0100060C
@  #02 @038   ----------------------------------------
 .byte   PATT
  .word Label_01000619
@  #02 @039   ----------------------------------------
 .byte   N80 ,As2 ,v059 ,gtp3
 .byte   W96
@  #02 @040   ----------------------------------------
 .byte   PATT
  .word Label_010005E2
@  #02 @041   ----------------------------------------
 .byte   N92 ,Bn2 ,v059 ,gtp3
 .byte   W96
@  #02 @042   ----------------------------------------
 .byte   PATT
  .word Label_010005F1
@  #02 @043   ----------------------------------------
 .byte   N92 ,Fs2 ,v059 ,gtp3
 .byte   W96
@  #02 @044   ----------------------------------------
 .byte   PATT
  .word Label_01000601
@  #02 @045   ----------------------------------------
 .byte   PATT
  .word Label_0100060C
@  #02 @046   ----------------------------------------
 .byte   N60 ,Cs3 ,v059 ,gtp3
 .byte   W64
 .byte   N15 ,Bn2
 .byte   W16
 .byte   Cs3
 .byte   W16
@  #02 @047   ----------------------------------------
 .byte   N80 ,As2 ,v059 ,gtp3
 .byte   W96
@  #02 @048   ----------------------------------------
 .byte   W96
@  #02 @049   ----------------------------------------
 .byte   W96
@  #02 @050   ----------------------------------------
 .byte   W96
@  #02 @051   ----------------------------------------
 .byte   W96
@  #02 @052   ----------------------------------------
 .byte   W96
@  #02 @053   ----------------------------------------
 .byte   W96
@  #02 @054   ----------------------------------------
 .byte   W96
@  #02 @055   ----------------------------------------
 .byte   W96
@  #02 @056   ----------------------------------------
 .byte   W96
@  #02 @057   ----------------------------------------
 .byte   W96
@  #02 @058   ----------------------------------------
 .byte   W96
@  #02 @059   ----------------------------------------
 .byte   W96
@  #02 @060   ----------------------------------------
 .byte   W96
@  #02 @061   ----------------------------------------
 .byte   W96
@  #02 @062   ----------------------------------------
 .byte   W96
@  #02 @063   ----------------------------------------
 .byte   W96
@  #02 @064   ----------------------------------------
 .byte   W96
@  #02 @065   ----------------------------------------
 .byte   W96
@  #02 @066   ----------------------------------------
 .byte   W96
@  #02 @067   ----------------------------------------
 .byte   W96
@  #02 @068   ----------------------------------------
 .byte   W96
@  #02 @069   ----------------------------------------
 .byte   W96
@  #02 @070   ----------------------------------------
 .byte   W96
@  #02 @071   ----------------------------------------
 .byte   W96
@  #02 @072   ----------------------------------------
 .byte   W96
@  #02 @073   ----------------------------------------
 .byte   W96
@  #02 @074   ----------------------------------------
 .byte   W96
@  #02 @075   ----------------------------------------
 .byte   W96
@  #02 @076   ----------------------------------------
 .byte   W96
@  #02 @077   ----------------------------------------
 .byte   W96
@  #02 @078   ----------------------------------------
 .byte   W96
@  #02 @079   ----------------------------------------
 .byte   W96
@  #02 @080   ----------------------------------------
 .byte   GOTO
  .word Label_010005D2
 .byte   FINE

@**************** Track 3 (Midi-Chn.2) ****************@

song02_003:
@  #03 @000   ----------------------------------------
 .byte   KEYSH , song02_key+0
Label_01003D52:
 .byte   VOICE , 47
 .byte   VOL , 69*song02_mvl/mxv
 .byte   N92 ,En1 ,v059 ,gtp3
 .byte   BENDR, 12
 .byte   W96
@  #03 @001   ----------------------------------------
 .byte   W96
@  #03 @002   ----------------------------------------
 .byte   W96
@  #03 @003   ----------------------------------------
 .byte   N44 ,Gn1 ,v059 ,gtp3
 .byte   W48
 .byte   Fs1
 .byte   W48
@  #03 @004   ----------------------------------------
 .byte   N92 ,En1 ,v059 ,gtp3
 .byte   W96
@  #03 @005   ----------------------------------------
 .byte   W96
@  #03 @006   ----------------------------------------
 .byte   W96
@  #03 @007   ----------------------------------------
 .byte   N44 ,Gn1 ,v059 ,gtp3
 .byte   W48
 .byte   N23 ,Fs1
 .byte   W24
 .byte   N07
 .byte   W08
 .byte   Fs1
 .byte   W08
 .byte   Fs1
 .byte   W08
@  #03 @008   ----------------------------------------
 .byte   N44 ,Gs1 ,v059 ,gtp3
 .byte   W48
 .byte   Gs1 ,v080
 .byte   W48
@  #03 @009   ----------------------------------------
Label_01003D83:
 .byte   N44 ,Gs1 ,v080 ,gtp3
 .byte   W48
 .byte   N23
 .byte   W24
 .byte   Gs1
 .byte   W24
 .byte   PEND 
@  #03 @010   ----------------------------------------
Label_01003D8D:
 .byte   N44 ,Gs1 ,v080 ,gtp3
 .byte   W48
 .byte   Gs1
 .byte   W48
 .byte   PEND 
@  #03 @011   ----------------------------------------
 .byte   PATT
  .word Label_01003D83
@  #03 @012   ----------------------------------------
Label_01003D9A:
 .byte   N44 ,En1 ,v080 ,gtp3
 .byte   W48
 .byte   En1
 .byte   W48
 .byte   PEND 
@  #03 @013   ----------------------------------------
Label_01003DA2:
 .byte   N44 ,En1 ,v080 ,gtp3
 .byte   W48
 .byte   N23
 .byte   W24
 .byte   En1
 .byte   W24
 .byte   PEND 
@  #03 @014   ----------------------------------------
Label_01003DAC:
 .byte   N44 ,Fs1 ,v080 ,gtp3
 .byte   W48
 .byte   Fs1
 .byte   W48
 .byte   PEND 
@  #03 @015   ----------------------------------------
Label_01003DB4:
 .byte   N44 ,Gn1 ,v080 ,gtp3
 .byte   W48
 .byte   N23
 .byte   W24
 .byte   Gn1
 .byte   W24
 .byte   PEND 
@  #03 @016   ----------------------------------------
Label_01003DBE:
 .byte   N44 ,Gs1 ,v080 ,gtp3
 .byte   W48
 .byte   Gs1 ,v103
 .byte   W48
 .byte   PEND 
@  #03 @017   ----------------------------------------
Label_01003DC7:
 .byte   N44 ,Gs1 ,v103 ,gtp3
 .byte   W48
 .byte   N23
 .byte   W24
 .byte   Gs1
 .byte   W24
 .byte   PEND 
@  #03 @018   ----------------------------------------
Label_01003DD1:
 .byte   N44 ,Gs1 ,v103 ,gtp3
 .byte   W48
 .byte   Gs1
 .byte   W48
 .byte   PEND 
@  #03 @019   ----------------------------------------
Label_01003DD9:
 .byte   N44 ,Gs1 ,v103 ,gtp3
 .byte   W48
 .byte   N23
 .byte   W24
 .byte   N17 ,Fs1
 .byte   W18
 .byte   N52 ,En1 ,v103 ,gtp1
 .byte   W06
 .byte   PEND 
@  #03 @020   ----------------------------------------
Label_01003DE9:
 .byte   W48
 .byte   N44 ,En1 ,v103 ,gtp3
 .byte   W48
 .byte   PEND 
@  #03 @021   ----------------------------------------
Label_01003DF0:
 .byte   N44 ,En1 ,v103 ,gtp3
 .byte   W48
 .byte   N15
 .byte   W16
 .byte   En1
 .byte   W16
 .byte   En1
 .byte   W16
 .byte   PEND 
@  #03 @022   ----------------------------------------
Label_01003DFC:
 .byte   N44 ,Fs1 ,v103 ,gtp3
 .byte   W48
 .byte   Fs1
 .byte   W48
 .byte   PEND 
@  #03 @023   ----------------------------------------
Label_01003E04:
 .byte   N44 ,Gn1 ,v103 ,gtp3
 .byte   W48
 .byte   N23
 .byte   W24
 .byte   Gn1
 .byte   W24
 .byte   PEND 
@  #03 @024   ----------------------------------------
 .byte   W96
@  #03 @025   ----------------------------------------
 .byte   W96
@  #03 @026   ----------------------------------------
 .byte   W96
@  #03 @027   ----------------------------------------
 .byte   W96
@  #03 @028   ----------------------------------------
 .byte   W96
@  #03 @029   ----------------------------------------
 .byte   W96
@  #03 @030   ----------------------------------------
 .byte   W96
@  #03 @031   ----------------------------------------
 .byte   W96
@  #03 @032   ----------------------------------------
 .byte   N44 ,Gs1 ,v103 ,gtp3
 .byte   W48
 .byte   Gs1 ,v080
 .byte   W48
@  #03 @033   ----------------------------------------
 .byte   PATT
  .word Label_01003D83
@  #03 @034   ----------------------------------------
 .byte   PATT
  .word Label_01003D8D
@  #03 @035   ----------------------------------------
 .byte   PATT
  .word Label_01003D83
@  #03 @036   ----------------------------------------
 .byte   PATT
  .word Label_01003D9A
@  #03 @037   ----------------------------------------
 .byte   PATT
  .word Label_01003DA2
@  #03 @038   ----------------------------------------
 .byte   PATT
  .word Label_01003DAC
@  #03 @039   ----------------------------------------
 .byte   PATT
  .word Label_01003DB4
@  #03 @040   ----------------------------------------
 .byte   PATT
  .word Label_01003DBE
@  #03 @041   ----------------------------------------
 .byte   PATT
  .word Label_01003DC7
@  #03 @042   ----------------------------------------
 .byte   PATT
  .word Label_01003DD1
@  #03 @043   ----------------------------------------
 .byte   PATT
  .word Label_01003DD9
@  #03 @044   ----------------------------------------
 .byte   PATT
  .word Label_01003DE9
@  #03 @045   ----------------------------------------
 .byte   PATT
  .word Label_01003DF0
@  #03 @046   ----------------------------------------
 .byte   PATT
  .word Label_01003DFC
@  #03 @047   ----------------------------------------
 .byte   PATT
  .word Label_01003E04
@  #03 @048   ----------------------------------------
 .byte   W96
@  #03 @049   ----------------------------------------
 .byte   W96
@  #03 @050   ----------------------------------------
 .byte   W96
@  #03 @051   ----------------------------------------
 .byte   W96
@  #03 @052   ----------------------------------------
 .byte   W96
@  #03 @053   ----------------------------------------
 .byte   W96
@  #03 @054   ----------------------------------------
 .byte   W96
@  #03 @055   ----------------------------------------
 .byte   W96
@  #03 @056   ----------------------------------------
Label_01003E71:
 .byte   N23 ,Gs1 ,v103
 .byte   W24
 .byte   N07
 .byte   W08
 .byte   Gs1
 .byte   W08
 .byte   Gs1
 .byte   W08
 .byte   N23 ,Bn1
 .byte   W24
 .byte   N07
 .byte   W08
 .byte   Bn1
 .byte   W08
 .byte   Bn1
 .byte   W08
 .byte   PEND 
@  #03 @057   ----------------------------------------
Label_01003E85:
 .byte   N23 ,Fs1 ,v103
 .byte   W24
 .byte   N07
 .byte   W08
 .byte   Fs1
 .byte   W08
 .byte   Fs1
 .byte   W08
 .byte   N23 ,Fn1
 .byte   W24
 .byte   N07
 .byte   W08
 .byte   Fn1
 .byte   W08
 .byte   Fn1
 .byte   W08
 .byte   PEND 
@  #03 @058   ----------------------------------------
Label_01003E99:
 .byte   N23 ,Ds1 ,v103
 .byte   W24
 .byte   N07
 .byte   W08
 .byte   Ds1
 .byte   W08
 .byte   Ds1
 .byte   W08
 .byte   N23
 .byte   W24
 .byte   N07
 .byte   W08
 .byte   Ds1
 .byte   W08
 .byte   Ds1
 .byte   W08
 .byte   PEND 
@  #03 @059   ----------------------------------------
Label_01003EAC:
 .byte   N23 ,Ds1 ,v103
 .byte   W24
 .byte   N07
 .byte   W08
 .byte   Ds1
 .byte   W08
 .byte   Ds1
 .byte   W08
 .byte   N15
 .byte   W16
 .byte   Ds1
 .byte   W16
 .byte   Ds1
 .byte   W16
 .byte   PEND 
@  #03 @060   ----------------------------------------
 .byte   PATT
  .word Label_01003E71
@  #03 @061   ----------------------------------------
 .byte   PATT
  .word Label_01003E85
@  #03 @062   ----------------------------------------
 .byte   PATT
  .word Label_01003E99
@  #03 @063   ----------------------------------------
 .byte   PATT
  .word Label_01003EAC
@  #03 @064   ----------------------------------------
 .byte   PATT
  .word Label_01003DD1
@  #03 @065   ----------------------------------------
Label_01003ED6:
 .byte   N15 ,Ds1 ,v127
 .byte   W16
 .byte   Ds1 ,v103
 .byte   W16
 .byte   Ds1
 .byte   W16
 .byte   Ds1 ,v127
 .byte   W16
 .byte   Ds1 ,v103
 .byte   W16
 .byte   Ds1
 .byte   W16
 .byte   PEND 
@  #03 @066   ----------------------------------------
Label_01003EE8:
 .byte   N44 ,En1 ,v103 ,gtp3
 .byte   W48
 .byte   En1
 .byte   W48
 .byte   PEND 
@  #03 @067   ----------------------------------------
Label_01003EF0:
 .byte   N23 ,Ds1 ,v103
 .byte   W24
 .byte   N07
 .byte   W08
 .byte   Ds1
 .byte   W08
 .byte   Ds1
 .byte   W08
 .byte   N23 ,Gn1
 .byte   W24
 .byte   N07
 .byte   W08
 .byte   Gn1
 .byte   W08
 .byte   Gn1
 .byte   W08
 .byte   PEND 
@  #03 @068   ----------------------------------------
 .byte   PATT
  .word Label_01003DD1
@  #03 @069   ----------------------------------------
 .byte   PATT
  .word Label_01003ED6
@  #03 @070   ----------------------------------------
 .byte   PATT
  .word Label_01003EE8
@  #03 @071   ----------------------------------------
 .byte   PATT
  .word Label_01003EF0
@  #03 @072   ----------------------------------------
 .byte   W96
@  #03 @073   ----------------------------------------
 .byte   W96
@  #03 @074   ----------------------------------------
 .byte   W96
@  #03 @075   ----------------------------------------
 .byte   W96
@  #03 @076   ----------------------------------------
 .byte   W96
@  #03 @077   ----------------------------------------
 .byte   W96
@  #03 @078   ----------------------------------------
 .byte   W96
@  #03 @079   ----------------------------------------
 .byte   W96
@  #03 @080   ----------------------------------------
 .byte   GOTO
  .word Label_01003D52
 .byte   FINE

@**************** Track 4 (Midi-Chn.3) ****************@

song02_004:
@  #04 @000   ----------------------------------------
 .byte   KEYSH , song02_key+0
Label_01003F3A:
 .byte   VOICE , 127
 .byte   VOL , 90*song02_mvl/mxv
 .byte   N23 ,Dn1 ,v059
 .byte   BENDR, 12
 .byte   W24
 .byte   N07
 .byte   W08
 .byte   Dn1
 .byte   W08
 .byte   Dn1
 .byte   W08
 .byte   N23
 .byte   W24
 .byte   N07
 .byte   W08
 .byte   Dn1
 .byte   W08
 .byte   Dn1
 .byte   W08
@  #04 @001   ----------------------------------------
Label_01003F52:
 .byte   N23 ,Dn1 ,v059
 .byte   W24
 .byte   N07
 .byte   W08
 .byte   Dn1
 .byte   W08
 .byte   Dn1
 .byte   W08
 .byte   N11
 .byte   W12
 .byte   N02
 .byte   W03
 .byte   Dn1
 .byte   W03
 .byte   N05
 .byte   W06
 .byte   N07
 .byte   W08
 .byte   Dn1
 .byte   W08
 .byte   Dn1
 .byte   W08
 .byte   PEND 
@  #04 @002   ----------------------------------------
Label_01003F6B:
 .byte   N23 ,Dn1 ,v059
 .byte   W24
 .byte   N07
 .byte   W08
 .byte   Dn1
 .byte   W08
 .byte   Dn1
 .byte   W08
 .byte   N23
 .byte   W24
 .byte   N07
 .byte   W08
 .byte   Dn1
 .byte   W08
 .byte   Dn1
 .byte   W08
 .byte   PEND 
@  #04 @003   ----------------------------------------
 .byte   PATT
  .word Label_01003F52
@  #04 @004   ----------------------------------------
 .byte   PATT
  .word Label_01003F6B
@  #04 @005   ----------------------------------------
 .byte   PATT
  .word Label_01003F52
@  #04 @006   ----------------------------------------
 .byte   PATT
  .word Label_01003F6B
@  #04 @007   ----------------------------------------
 .byte   N23 ,Dn1 ,v059
 .byte   W24
 .byte   N78 ,En2 ,v103 ,gtp1
 .byte   N07 ,Dn1 ,v059
 .byte   W08
 .byte   Dn1
 .byte   W08
 .byte   Dn1
 .byte   W08
 .byte   N11
 .byte   W12
 .byte   N02
 .byte   W03
 .byte   Dn1
 .byte   W03
 .byte   N05
 .byte   W06
 .byte   N07
 .byte   W08
 .byte   Dn1
 .byte   W04
 .byte   TIE ,Fn2 ,v103
 .byte   W04
 .byte   N07 ,Dn1 ,v059
 .byte   W08
@  #04 @008   ----------------------------------------
 .byte   N23
 .byte   W24
 .byte   N07
 .byte   W08
 .byte   Dn1
 .byte   W08
 .byte   Dn1
 .byte   W08
 .byte   N23
 .byte   W24
 .byte   N07
 .byte   W08
 .byte   Dn1
 .byte   W05
 .byte   EOT
 .byte   Fn2
 .byte   W03
 .byte   N07 ,Dn1
 .byte   W08
@  #04 @009   ----------------------------------------
 .byte   PATT
  .word Label_01003F52
@  #04 @010   ----------------------------------------
 .byte   PATT
  .word Label_01003F6B
@  #04 @011   ----------------------------------------
 .byte   PATT
  .word Label_01003F52
@  #04 @012   ----------------------------------------
 .byte   PATT
  .word Label_01003F6B
@  #04 @013   ----------------------------------------
 .byte   PATT
  .word Label_01003F52
@  #04 @014   ----------------------------------------
 .byte   PATT
  .word Label_01003F6B
@  #04 @015   ----------------------------------------
 .byte   PATT
  .word Label_01003F52
@  #04 @016   ----------------------------------------
Label_01003FED:
 .byte   N78 ,Cs2 ,v103 ,gtp1
 .byte   N23 ,Dn1 ,v059
 .byte   W24
 .byte   N07
 .byte   W08
 .byte   Dn1
 .byte   W08
 .byte   Dn1
 .byte   W08
 .byte   N23
 .byte   W24
 .byte   N07
 .byte   W08
 .byte   Dn1
 .byte   W08
 .byte   Dn1
 .byte   W08
 .byte   PEND 
@  #04 @017   ----------------------------------------
 .byte   PATT
  .word Label_01003F52
@  #04 @018   ----------------------------------------
 .byte   PATT
  .word Label_01003F6B
@  #04 @019   ----------------------------------------
 .byte   PATT
  .word Label_01003F52
@  #04 @020   ----------------------------------------
 .byte   PATT
  .word Label_01003F6B
@  #04 @021   ----------------------------------------
 .byte   PATT
  .word Label_01003F52
@  #04 @022   ----------------------------------------
 .byte   PATT
  .word Label_01003F6B
@  #04 @023   ----------------------------------------
 .byte   N23 ,Dn1 ,v059
 .byte   W12
 .byte   N84 ,En2 ,v050
 .byte   W12
 .byte   N07 ,Dn1 ,v059
 .byte   W08
 .byte   Dn1
 .byte   W08
 .byte   Dn1
 .byte   W08
 .byte   N11
 .byte   W12
 .byte   N02
 .byte   W03
 .byte   Dn1
 .byte   W03
 .byte   N05
 .byte   W06
 .byte   N07
 .byte   W08
 .byte   Dn1
 .byte   W08
 .byte   Dn1
 .byte   W08
@  #04 @024   ----------------------------------------
 .byte   N23
 .byte   N78 ,Cs2 ,v103 ,gtp1
 .byte   W24
 .byte   N07 ,Dn1 ,v059
 .byte   W08
 .byte   Dn1
 .byte   W08
 .byte   Dn1
 .byte   W08
 .byte   N23
 .byte   W24
 .byte   N07
 .byte   W08
 .byte   Dn1
 .byte   W08
 .byte   Dn1
 .byte   W08
@  #04 @025   ----------------------------------------
 .byte   PATT
  .word Label_01003F52
@  #04 @026   ----------------------------------------
 .byte   PATT
  .word Label_01003F6B
@  #04 @027   ----------------------------------------
 .byte   PATT
  .word Label_01003F52
@  #04 @028   ----------------------------------------
 .byte   PATT
  .word Label_01003F6B
@  #04 @029   ----------------------------------------
 .byte   PATT
  .word Label_01003F52
@  #04 @030   ----------------------------------------
 .byte   PATT
  .word Label_01003F6B
@  #04 @031   ----------------------------------------
 .byte   PATT
  .word Label_01003F52
@  #04 @032   ----------------------------------------
 .byte   PATT
  .word Label_01003FED
@  #04 @033   ----------------------------------------
 .byte   PATT
  .word Label_01003F52
@  #04 @034   ----------------------------------------
 .byte   PATT
  .word Label_01003F6B
@  #04 @035   ----------------------------------------
 .byte   PATT
  .word Label_01003F52
@  #04 @036   ----------------------------------------
 .byte   PATT
  .word Label_01003F6B
@  #04 @037   ----------------------------------------
 .byte   PATT
  .word Label_01003F52
@  #04 @038   ----------------------------------------
 .byte   PATT
  .word Label_01003F6B
@  #04 @039   ----------------------------------------
 .byte   PATT
  .word Label_01003F52
@  #04 @040   ----------------------------------------
 .byte   PATT
  .word Label_01003FED
@  #04 @041   ----------------------------------------
 .byte   PATT
  .word Label_01003F52
@  #04 @042   ----------------------------------------
 .byte   PATT
  .word Label_01003F6B
@  #04 @043   ----------------------------------------
 .byte   PATT
  .word Label_01003F52
@  #04 @044   ----------------------------------------
 .byte   PATT
  .word Label_01003F6B
@  #04 @045   ----------------------------------------
 .byte   PATT
  .word Label_01003F52
@  #04 @046   ----------------------------------------
 .byte   PATT
  .word Label_01003F6B
@  #04 @047   ----------------------------------------
 .byte   PATT
  .word Label_01003F52
@  #04 @048   ----------------------------------------
 .byte   PATT
  .word Label_01003FED
@  #04 @049   ----------------------------------------
 .byte   PATT
  .word Label_01003F52
@  #04 @050   ----------------------------------------
 .byte   PATT
  .word Label_01003F6B
@  #04 @051   ----------------------------------------
 .byte   PATT
  .word Label_01003F52
@  #04 @052   ----------------------------------------
 .byte   PATT
  .word Label_01003F6B
@  #04 @053   ----------------------------------------
 .byte   PATT
  .word Label_01003F52
@  #04 @054   ----------------------------------------
 .byte   PATT
  .word Label_01003F6B
@  #04 @055   ----------------------------------------
 .byte   PATT
  .word Label_01003F52
@  #04 @056   ----------------------------------------
 .byte   N23 ,Dn1 ,v059
 .byte   N48 ,Cs2 ,v080
 .byte   W24
 .byte   N07 ,Dn1 ,v059
 .byte   W08
 .byte   Dn1
 .byte   W08
 .byte   Dn1
 .byte   W08
 .byte   N23
 .byte   W24
 .byte   N07
 .byte   W08
 .byte   Dn1
 .byte   W08
 .byte   Dn1
 .byte   W08
@  #04 @057   ----------------------------------------
 .byte   PATT
  .word Label_01003F52
@  #04 @058   ----------------------------------------
 .byte   PATT
  .word Label_01003F6B
@  #04 @059   ----------------------------------------
 .byte   PATT
  .word Label_01003F52
@  #04 @060   ----------------------------------------
Label_01004117:
 .byte   N48 ,Cs2 ,v080
 .byte   N23 ,Dn1 ,v059
 .byte   W24
 .byte   N07
 .byte   W08
 .byte   Dn1
 .byte   W08
 .byte   Dn1
 .byte   W08
 .byte   N23
 .byte   W24
 .byte   N07
 .byte   W08
 .byte   Dn1
 .byte   W08
 .byte   Dn1
 .byte   W08
 .byte   PEND 
@  #04 @061   ----------------------------------------
 .byte   PATT
  .word Label_01003F52
@  #04 @062   ----------------------------------------
 .byte   PATT
  .word Label_01003F6B
@  #04 @063   ----------------------------------------
 .byte   PATT
  .word Label_01003F52
@  #04 @064   ----------------------------------------
 .byte   PATT
  .word Label_01004117
@  #04 @065   ----------------------------------------
 .byte   PATT
  .word Label_01003F52
@  #04 @066   ----------------------------------------
 .byte   PATT
  .word Label_01003F6B
@  #04 @067   ----------------------------------------
 .byte   PATT
  .word Label_01003F52
@  #04 @068   ----------------------------------------
 .byte   PATT
  .word Label_01004117
@  #04 @069   ----------------------------------------
 .byte   PATT
  .word Label_01003F52
@  #04 @070   ----------------------------------------
 .byte   PATT
  .word Label_01003F6B
@  #04 @071   ----------------------------------------
 .byte   PATT
  .word Label_01003F52
@  #04 @072   ----------------------------------------
 .byte   PATT
  .word Label_01004117
@  #04 @073   ----------------------------------------
 .byte   PATT
  .word Label_01003F52
@  #04 @074   ----------------------------------------
 .byte   PATT
  .word Label_01003F6B
@  #04 @075   ----------------------------------------
 .byte   PATT
  .word Label_01003F52
@  #04 @076   ----------------------------------------
 .byte   PATT
  .word Label_01003F6B
@  #04 @077   ----------------------------------------
 .byte   PATT
  .word Label_01003F52
@  #04 @078   ----------------------------------------
 .byte   PATT
  .word Label_01003F6B
@  #04 @079   ----------------------------------------
 .byte   PATT
  .word Label_01003F52
@  #04 @080   ----------------------------------------
 .byte   GOTO
  .word Label_01003F3A
 .byte   FINE

@**************** Track 5 (Midi-Chn.4) ****************@

song02_005:
@  #05 @000   ----------------------------------------
 .byte   KEYSH , song02_key+0
Label_010041A6:
 .byte   VOICE , 54
 .byte   VOL , 82*song02_mvl/mxv
 .byte   PAN , c_v-28
 .byte   BENDR, 12
 .byte   W96
@  #05 @001   ----------------------------------------
 .byte   W96
@  #05 @002   ----------------------------------------
 .byte   W96
@  #05 @003   ----------------------------------------
 .byte   W96
@  #05 @004   ----------------------------------------
 .byte   W96
@  #05 @005   ----------------------------------------
 .byte   W96
@  #05 @006   ----------------------------------------
 .byte   W96
@  #05 @007   ----------------------------------------
 .byte   W96
@  #05 @008   ----------------------------------------
Label_010041B6:
 .byte   N80 ,Ds4 ,v059 ,gtp3
 .byte   W84
 .byte   N05
 .byte   W06
 .byte   En4
 .byte   W06
 .byte   PEND 
@  #05 @009   ----------------------------------------
 .byte   N92 ,Bn3 ,v059 ,gtp3
 .byte   W96
@  #05 @010   ----------------------------------------
Label_010041C5:
 .byte   N80 ,Cs4 ,v059 ,gtp3
 .byte   W84
 .byte   N05 ,Bn3
 .byte   W06
 .byte   As3
 .byte   W06
 .byte   PEND 
@  #05 @011   ----------------------------------------
 .byte   N92 ,Fs3 ,v059 ,gtp3
 .byte   W96
@  #05 @012   ----------------------------------------
Label_010041D5:
 .byte   N60 ,Gs3 ,v059 ,gtp3
 .byte   W64
 .byte   N15 ,As3
 .byte   W16
 .byte   Bn3
 .byte   W16
 .byte   PEND 
@  #05 @013   ----------------------------------------
Label_010041E0:
 .byte   N17 ,As3 ,v059
 .byte   W18
 .byte   N05 ,Fs3
 .byte   W06
 .byte   N68 ,Ds4 ,v059 ,gtp3
 .byte   W72
 .byte   PEND 
@  #05 @014   ----------------------------------------
Label_010041ED:
 .byte   N80 ,Cs4 ,v059 ,gtp3
 .byte   W84
 .byte   N05 ,Bn3
 .byte   W06
 .byte   Cs4
 .byte   W06
 .byte   PEND 
@  #05 @015   ----------------------------------------
 .byte   N80 ,As3 ,v059 ,gtp3
 .byte   W96
@  #05 @016   ----------------------------------------
Label_010041FD:
 .byte   N92 ,Ds3 ,v059 ,gtp3
 .byte   N80 ,Ds4 ,v059 ,gtp3
 .byte   W84
 .byte   N05
 .byte   W06
 .byte   En4
 .byte   W06
 .byte   PEND 
@  #05 @017   ----------------------------------------
Label_0100420B:
 .byte   N92 ,Dn3 ,v059 ,gtp3
 .byte   Bn3
 .byte   W96
 .byte   PEND 
@  #05 @018   ----------------------------------------
 .byte   PATT
  .word Label_010041C5
@  #05 @019   ----------------------------------------
 .byte   N92 ,Fs3 ,v059 ,gtp3
 .byte   W96
@  #05 @020   ----------------------------------------
 .byte   PATT
  .word Label_010041D5
@  #05 @021   ----------------------------------------
 .byte   PATT
  .word Label_010041E0
@  #05 @022   ----------------------------------------
Label_01004226:
 .byte   N92 ,Fs3 ,v059 ,gtp3
 .byte   N80 ,Cs4 ,v059 ,gtp3
 .byte   W84
 .byte   N05 ,Bn3
 .byte   W06
 .byte   Cs4
 .byte   W06
 .byte   PEND 
@  #05 @023   ----------------------------------------
 .byte   N92 ,As3 ,v059 ,gtp3
 .byte   Gn3
 .byte   W96
@  #05 @024   ----------------------------------------
 .byte   W96
@  #05 @025   ----------------------------------------
 .byte   W96
@  #05 @026   ----------------------------------------
 .byte   W96
@  #05 @027   ----------------------------------------
 .byte   W96
@  #05 @028   ----------------------------------------
 .byte   W96
@  #05 @029   ----------------------------------------
 .byte   W96
@  #05 @030   ----------------------------------------
 .byte   W96
@  #05 @031   ----------------------------------------
 .byte   W96
@  #05 @032   ----------------------------------------
 .byte   PATT
  .word Label_010041B6
@  #05 @033   ----------------------------------------
 .byte   N92 ,Bn3 ,v059 ,gtp3
 .byte   W96
@  #05 @034   ----------------------------------------
 .byte   PATT
  .word Label_010041C5
@  #05 @035   ----------------------------------------
 .byte   N92 ,Fs3 ,v059 ,gtp3
 .byte   W96
@  #05 @036   ----------------------------------------
 .byte   PATT
  .word Label_010041D5
@  #05 @037   ----------------------------------------
 .byte   PATT
  .word Label_010041E0
@  #05 @038   ----------------------------------------
 .byte   PATT
  .word Label_010041ED
@  #05 @039   ----------------------------------------
 .byte   N80 ,As3 ,v059 ,gtp3
 .byte   W96
@  #05 @040   ----------------------------------------
 .byte   PATT
  .word Label_010041FD
@  #05 @041   ----------------------------------------
 .byte   PATT
  .word Label_0100420B
@  #05 @042   ----------------------------------------
 .byte   PATT
  .word Label_010041C5
@  #05 @043   ----------------------------------------
 .byte   N92 ,Fs3 ,v059 ,gtp3
 .byte   W96
@  #05 @044   ----------------------------------------
 .byte   PATT
  .word Label_010041D5
@  #05 @045   ----------------------------------------
 .byte   PATT
  .word Label_010041E0
@  #05 @046   ----------------------------------------
 .byte   PATT
  .word Label_01004226
@  #05 @047   ----------------------------------------
 .byte   N80 ,As3 ,v059 ,gtp3
 .byte   N92 ,Gn3 ,v059 ,gtp3
 .byte   W96
@  #05 @048   ----------------------------------------
 .byte   W96
@  #05 @049   ----------------------------------------
 .byte   W96
@  #05 @050   ----------------------------------------
 .byte   W96
@  #05 @051   ----------------------------------------
 .byte   W96
@  #05 @052   ----------------------------------------
 .byte   W96
@  #05 @053   ----------------------------------------
 .byte   W96
@  #05 @054   ----------------------------------------
 .byte   W96
@  #05 @055   ----------------------------------------
 .byte   W96
@  #05 @056   ----------------------------------------
 .byte   Bn2
 .byte   N92 ,Ds3 ,v059 ,gtp3
 .byte   Gs3
 .byte   W96
@  #05 @057   ----------------------------------------
Label_010042A6:
 .byte   N44 ,Bn3 ,v059 ,gtp3
 .byte   Gs3
 .byte   N44 ,Fs3 ,v059 ,gtp3
 .byte   W48
 .byte   As3
 .byte   N44 ,Fn3 ,v059 ,gtp3
 .byte   En3
 .byte   W48
 .byte   PEND 
@  #05 @058   ----------------------------------------
Label_010042B8:
 .byte   N92 ,Gs3 ,v059 ,gtp3
 .byte   En3
 .byte   N92 ,Ds3 ,v059 ,gtp3
 .byte   W96
 .byte   PEND 
@  #05 @059   ----------------------------------------
Label_010042C3:
 .byte   N92 ,Gn3 ,v059 ,gtp3
 .byte   Ds3
 .byte   N92 ,Cs3 ,v059 ,gtp3
 .byte   W96
 .byte   PEND 
@  #05 @060   ----------------------------------------
 .byte   N44 ,Gs3 ,v059 ,gtp3
 .byte   Ds3
 .byte   N44 ,Bn2 ,v059 ,gtp3
 .byte   W48
 .byte   Gs3
 .byte   N44 ,En3 ,v059 ,gtp3
 .byte   Ds3
 .byte   W48
@  #05 @061   ----------------------------------------
 .byte   PATT
  .word Label_010042A6
@  #05 @062   ----------------------------------------
 .byte   PATT
  .word Label_010042B8
@  #05 @063   ----------------------------------------
 .byte   PATT
  .word Label_010042C3
@  #05 @064   ----------------------------------------
Label_010042EE:
 .byte   N44 ,Bn3 ,v041 ,gtp3
 .byte   As3
 .byte   N44 ,Ds3 ,v041 ,gtp3
 .byte   W48
 .byte   Gs3
 .byte   N44 ,En3 ,v041 ,gtp3
 .byte   Ds3
 .byte   W48
 .byte   PEND 
@  #05 @065   ----------------------------------------
Label_01004300:
 .byte   N44 ,Cs4 ,v041 ,gtp3
 .byte   As3
 .byte   N44 ,Gs3 ,v041 ,gtp3
 .byte   W48
 .byte   Fs4
 .byte   N44 ,Ds4 ,v041 ,gtp3
 .byte   Cs4
 .byte   W48
 .byte   PEND 
@  #05 @066   ----------------------------------------
Label_01004312:
 .byte   N92 ,As3 ,v041 ,gtp3
 .byte   Gs3
 .byte   N92 ,En3 ,v041 ,gtp3
 .byte   W96
 .byte   PEND 
@  #05 @067   ----------------------------------------
 .byte   N44 ,Bn3 ,v041 ,gtp3
 .byte   Gs3
 .byte   N44 ,Fs3 ,v041 ,gtp3
 .byte   W48
 .byte   Gn3
 .byte   N44 ,Ds3 ,v041 ,gtp3
 .byte   Cs3
 .byte   W48
@  #05 @068   ----------------------------------------
 .byte   PATT
  .word Label_010042EE
@  #05 @069   ----------------------------------------
 .byte   PATT
  .word Label_01004300
@  #05 @070   ----------------------------------------
 .byte   PATT
  .word Label_01004312
@  #05 @071   ----------------------------------------
 .byte   N44 ,Fs3 ,v041 ,gtp3
 .byte   Gs3
 .byte   N44 ,Bn3 ,v041 ,gtp3
 .byte   W48
 .byte   Cs3
 .byte   N44 ,Ds3 ,v041 ,gtp3
 .byte   Gn3
 .byte   W48
@  #05 @072   ----------------------------------------
 .byte   W96
@  #05 @073   ----------------------------------------
 .byte   W96
@  #05 @074   ----------------------------------------
 .byte   W96
@  #05 @075   ----------------------------------------
 .byte   W96
@  #05 @076   ----------------------------------------
 .byte   W96
@  #05 @077   ----------------------------------------
 .byte   W96
@  #05 @078   ----------------------------------------
 .byte   W96
@  #05 @079   ----------------------------------------
 .byte   W96
@  #05 @080   ----------------------------------------
 .byte   GOTO
  .word Label_010041A6
 .byte   FINE

@**************** Track 6 (Midi-Chn.5) ****************@

song02_006:
@  #06 @000   ----------------------------------------
 .byte   KEYSH , song02_key+0
Label_01026092:
 .byte   VOICE , 1
 .byte   PAN , c_v+12
 .byte   VOL , 72*song02_mvl/mxv
 .byte   BENDR, 12
 .byte   W96
@  #06 @001   ----------------------------------------
 .byte   W96
@  #06 @002   ----------------------------------------
 .byte   W96
@  #06 @003   ----------------------------------------
 .byte   W96
@  #06 @004   ----------------------------------------
 .byte   W96
@  #06 @005   ----------------------------------------
 .byte   W96
@  #06 @006   ----------------------------------------
 .byte   W96
@  #06 @007   ----------------------------------------
 .byte   W96
@  #06 @008   ----------------------------------------
 .byte   W96
@  #06 @009   ----------------------------------------
 .byte   W96
@  #06 @010   ----------------------------------------
 .byte   W96
@  #06 @011   ----------------------------------------
 .byte   W96
@  #06 @012   ----------------------------------------
 .byte   W96
@  #06 @013   ----------------------------------------
 .byte   W96
@  #06 @014   ----------------------------------------
 .byte   W96
@  #06 @015   ----------------------------------------
 .byte   W96
@  #06 @016   ----------------------------------------
 .byte   W96
@  #06 @017   ----------------------------------------
 .byte   W96
@  #06 @018   ----------------------------------------
 .byte   W96
@  #06 @019   ----------------------------------------
 .byte   W96
@  #06 @020   ----------------------------------------
 .byte   W96
@  #06 @021   ----------------------------------------
 .byte   W96
@  #06 @022   ----------------------------------------
 .byte   W96
@  #06 @023   ----------------------------------------
 .byte   W96
@  #06 @024   ----------------------------------------
 .byte   N17 ,Ds4 ,v116
 .byte   N44 ,En2 ,v103 ,gtp1
 .byte   W18
 .byte   N28 ,Gs3 ,v059 ,gtp1
 .byte   W30
 .byte   N17 ,Ds4 ,v116
 .byte   N44 ,En2 ,v103 ,gtp1
 .byte   W18
 .byte   N28 ,Gs3 ,v059 ,gtp1
 .byte   W30
@  #06 @025   ----------------------------------------
 .byte   N17 ,Ds4 ,v116
 .byte   N44 ,En2 ,v103 ,gtp1
 .byte   W18
 .byte   N28 ,Gs3 ,v059 ,gtp1
 .byte   W30
 .byte   N40 ,Ds4 ,v116 ,gtp1
 .byte   N44 ,En2 ,v103 ,gtp1
 .byte   W48
@  #06 @026   ----------------------------------------
 .byte   N17 ,Cs4 ,v116
 .byte   N44 ,Fs2 ,v103 ,gtp1
 .byte   W18
 .byte   N28 ,Gs3 ,v059 ,gtp1
 .byte   W30
 .byte   N44 ,Fs2 ,v103 ,gtp1
 .byte   N32 ,Cs4 ,v116 ,gtp3
 .byte   W40
 .byte   N07 ,Gs3 ,v059
 .byte   W08
@  #06 @027   ----------------------------------------
 .byte   N44 ,Fs2 ,v103 ,gtp1
 .byte   N15 ,Bn3 ,v116
 .byte   N15 ,Gs3
 .byte   W16
 .byte   Gs3 ,v059
 .byte   W16
 .byte   Gs3
 .byte   W16
 .byte   As3 ,v116
 .byte   N44 ,Fs2 ,v103 ,gtp1
 .byte   W16
 .byte   N15 ,Gs3 ,v059
 .byte   W16
 .byte   N07
 .byte   W08
 .byte   Ds4
 .byte   W08
@  #06 @028   ----------------------------------------
 .byte   N17 ,Ds4 ,v116
 .byte   N44 ,En2 ,v103 ,gtp1
 .byte   W18
 .byte   N28 ,Gs3 ,v059 ,gtp1
 .byte   W30
 .byte   N15 ,Ds4 ,v116
 .byte   N44 ,En2 ,v103 ,gtp1
 .byte   W16
 .byte   N15 ,Gs3 ,v059
 .byte   W16
 .byte   Bn3
 .byte   W16
@  #06 @029   ----------------------------------------
 .byte   N44 ,En2 ,v103 ,gtp1
 .byte   N15 ,Ds4 ,v116
 .byte   W16
 .byte   N36 ,Gs3 ,v059 ,gtp3
 .byte   W32
 .byte   N44 ,En2 ,v103 ,gtp1
 .byte   W16
 .byte   N15 ,Gs3 ,v059
 .byte   W16
 .byte   Ds4
 .byte   W16
@  #06 @030   ----------------------------------------
 .byte   N44 ,Fs2 ,v103 ,gtp1
 .byte   N15 ,Cs4 ,v116
 .byte   W16
 .byte   N24 ,Gs3 ,v059 ,gtp3
 .byte   W32
 .byte   N44 ,Fs2 ,v103 ,gtp1
 .byte   N15 ,Bn3 ,v116
 .byte   W16
 .byte   N32 ,Gs3 ,v059 ,gtp1
 .byte   W32
@  #06 @031   ----------------------------------------
 .byte   N23 ,Cs4 ,v116
 .byte   N44 ,Ds2 ,v103 ,gtp1
 .byte   W24
 .byte   N22 ,Gn3 ,v059
 .byte   W24
 .byte   N44 ,Ds2 ,v103 ,gtp1
 .byte   N44 ,Cs4 ,v116 ,gtp3
 .byte   N23 ,Gn3
 .byte   W24
 .byte   N07 ,Gn3 ,v059
 .byte   W08
 .byte   Gn3
 .byte   W08
 .byte   Gn3
 .byte   W08
@  #06 @032   ----------------------------------------
 .byte   W96
@  #06 @033   ----------------------------------------
 .byte   W96
@  #06 @034   ----------------------------------------
 .byte   W96
@  #06 @035   ----------------------------------------
 .byte   W96
@  #06 @036   ----------------------------------------
 .byte   W96
@  #06 @037   ----------------------------------------
 .byte   W96
@  #06 @038   ----------------------------------------
 .byte   W96
@  #06 @039   ----------------------------------------
 .byte   W96
@  #06 @040   ----------------------------------------
 .byte   W96
@  #06 @041   ----------------------------------------
 .byte   W96
@  #06 @042   ----------------------------------------
 .byte   W96
@  #06 @043   ----------------------------------------
 .byte   W96
@  #06 @044   ----------------------------------------
 .byte   W96
@  #06 @045   ----------------------------------------
 .byte   W96
@  #06 @046   ----------------------------------------
 .byte   W96
@  #06 @047   ----------------------------------------
 .byte   W96
@  #06 @048   ----------------------------------------
 .byte   N17 ,Ds4 ,v116
 .byte   N44 ,En2 ,v103 ,gtp1
 .byte   N15 ,Gs5
 .byte   W16
 .byte   Cs5
 .byte   W02
 .byte   N28 ,Gs3 ,v059 ,gtp1
 .byte   W14
 .byte   N15 ,Gs5 ,v103
 .byte   W16
 .byte   N17 ,Ds4 ,v116
 .byte   N15 ,Cs5 ,v103
 .byte   N44 ,En2 ,v103 ,gtp1
 .byte   W16
 .byte   N15 ,Gs5
 .byte   W02
 .byte   N28 ,Gs3 ,v059 ,gtp1
 .byte   W14
 .byte   N15 ,Cs5 ,v103
 .byte   W16
@  #06 @049   ----------------------------------------
 .byte   N17 ,Ds4 ,v116
 .byte   N44 ,En2 ,v103 ,gtp1
 .byte   N15 ,Gs5
 .byte   W16
 .byte   Cs5
 .byte   W02
 .byte   N28 ,Gs3 ,v059 ,gtp1
 .byte   W14
 .byte   N07 ,Gs5 ,v103
 .byte   W08
 .byte   Ds5
 .byte   W08
 .byte   N40 ,Ds4 ,v116 ,gtp1
 .byte   N44 ,En2 ,v103 ,gtp1
 .byte   N15 ,Cs5
 .byte   W16
 .byte   Gs5
 .byte   W16
 .byte   Cs5
 .byte   W16
@  #06 @050   ----------------------------------------
 .byte   N17 ,Cs4 ,v116
 .byte   N07 ,Gs5 ,v103
 .byte   N44 ,Fs2 ,v103 ,gtp1
 .byte   W08
 .byte   N07 ,As4
 .byte   W08
 .byte   Bn4
 .byte   W02
 .byte   N28 ,Gs3 ,v059 ,gtp1
 .byte   W06
 .byte   N13 ,Fs5 ,v103
 .byte   W16
 .byte   N07 ,As4
 .byte   W08
 .byte   N32 ,Cs4 ,v116 ,gtp3
 .byte   N44 ,Fs2 ,v103 ,gtp1
 .byte   N07 ,Bn4
 .byte   W08
 .byte   N13 ,Fs5
 .byte   W16
 .byte   N07 ,As4
 .byte   W08
 .byte   Bn4
 .byte   W08
 .byte   Gs3 ,v059
 .byte   N13 ,Fs5 ,v103
 .byte   W08
@  #06 @051   ----------------------------------------
 .byte   N15 ,Bn3 ,v116
 .byte   N15 ,Gs3
 .byte   N44 ,Fs2 ,v103 ,gtp1
 .byte   W08
 .byte   N07 ,As4
 .byte   W08
 .byte   N15 ,Gs3 ,v059
 .byte   N07 ,Bn4 ,v103
 .byte   W08
 .byte   N13 ,Fs5
 .byte   W08
 .byte   N15 ,Gs3 ,v059
 .byte   W08
 .byte   N07 ,As4 ,v103
 .byte   W08
 .byte   N15 ,As3 ,v116
 .byte   N07 ,Bn4 ,v103
 .byte   N44 ,Fs2 ,v103 ,gtp1
 .byte   W08
 .byte   N13 ,Fs5
 .byte   W08
 .byte   N15 ,Gs3 ,v059
 .byte   W08
 .byte   N07 ,As4 ,v103
 .byte   W08
 .byte   Gs3 ,v059
 .byte   N07 ,Bn4 ,v103
 .byte   W08
 .byte   Ds4 ,v059
 .byte   N07 ,Fs5 ,v103
 .byte   W08
@  #06 @052   ----------------------------------------
 .byte   N17 ,Ds4 ,v116
 .byte   N44 ,En2 ,v103 ,gtp1
 .byte   N07 ,Gs5
 .byte   W08
 .byte   Ds5
 .byte   W08
 .byte   N13 ,Cs5
 .byte   W02
 .byte   N28 ,Gs3 ,v059 ,gtp1
 .byte   W14
 .byte   N07 ,Gs5 ,v103
 .byte   W08
 .byte   Ds5
 .byte   W08
 .byte   N15 ,Ds4 ,v116
 .byte   N13 ,Cs5 ,v103
 .byte   N44 ,En2 ,v103 ,gtp1
 .byte   W16
 .byte   N15 ,Gs3 ,v059
 .byte   N07 ,Gs5 ,v103
 .byte   W08
 .byte   Ds5
 .byte   W08
 .byte   N15 ,Bn3 ,v059
 .byte   N13 ,Cs5 ,v103
 .byte   W16
@  #06 @053   ----------------------------------------
 .byte   N15 ,Ds4 ,v116
 .byte   N07 ,Gs5 ,v103
 .byte   N44 ,En2 ,v103 ,gtp1
 .byte   W08
 .byte   N07 ,Ds5
 .byte   W08
 .byte   N36 ,Gs3 ,v059 ,gtp3
 .byte   N13 ,Cs5 ,v103
 .byte   W16
 .byte   N07 ,Gs5
 .byte   W08
 .byte   Ds5
 .byte   W08
 .byte   N44 ,En2 ,v103 ,gtp1
 .byte   N13 ,Cs5
 .byte   W16
 .byte   N15 ,Gs3 ,v059
 .byte   N07 ,Gs5 ,v103
 .byte   W08
 .byte   Ds5
 .byte   W08
 .byte   N15 ,Ds4 ,v059
 .byte   N19 ,Cs5 ,v103
 .byte   W16
@  #06 @054   ----------------------------------------
 .byte   N15 ,Cs4 ,v116
 .byte   N44 ,Fs0 ,v103 ,gtp1
 .byte   W08
 .byte   N07 ,As4
 .byte   W08
 .byte   N24 ,Gs3 ,v059 ,gtp3
 .byte   N07 ,Bn4 ,v103
 .byte   W08
 .byte   N13 ,Fs5
 .byte   W16
 .byte   N07 ,As4
 .byte   W08
 .byte   N15 ,Bn3 ,v116
 .byte   N07 ,Bn4 ,v103
 .byte   N44 ,Fs0 ,v103 ,gtp1
 .byte   W08
 .byte   N13 ,Fs5
 .byte   W08
 .byte   N32 ,Gs3 ,v059 ,gtp1
 .byte   W08
 .byte   N07 ,As4 ,v103
 .byte   W08
 .byte   Bn4
 .byte   W08
 .byte   N13 ,Fs5
 .byte   W08
@  #06 @055   ----------------------------------------
 .byte   N23 ,Cs4 ,v116
 .byte   N44 ,Ds2 ,v103 ,gtp1
 .byte   W08
 .byte   N07 ,As4
 .byte   W08
 .byte   Bn4
 .byte   W08
 .byte   N22 ,Gn3 ,v059
 .byte   N13 ,Fs5 ,v103
 .byte   W16
 .byte   N07 ,As4
 .byte   W08
 .byte   N44 ,Cs4 ,v116 ,gtp3
 .byte   N23 ,Gn3
 .byte   N44 ,Ds2 ,v103 ,gtp1
 .byte   N07 ,Bn4
 .byte   W08
 .byte   N13 ,Fs5
 .byte   W16
 .byte   N07 ,Gn3 ,v059
 .byte   N07 ,As4 ,v103
 .byte   W08
 .byte   Gn3 ,v059
 .byte   N07 ,Bn4 ,v103
 .byte   W08
 .byte   Gn3 ,v059
 .byte   N07 ,Gn5 ,v103
 .byte   W08
@  #06 @056   ----------------------------------------
 .byte   W96
@  #06 @057   ----------------------------------------
 .byte   W96
@  #06 @058   ----------------------------------------
 .byte   W96
@  #06 @059   ----------------------------------------
 .byte   W96
@  #06 @060   ----------------------------------------
 .byte   W96
@  #06 @061   ----------------------------------------
 .byte   W96
@  #06 @062   ----------------------------------------
 .byte   W96
@  #06 @063   ----------------------------------------
 .byte   W96
@  #06 @064   ----------------------------------------
 .byte   W96
@  #06 @065   ----------------------------------------
 .byte   W96
@  #06 @066   ----------------------------------------
Label_0102633E:
 .byte   N07 ,Fs5 ,v070
 .byte   N07 ,Ds5
 .byte   W08
 .byte   Fs5
 .byte   N07 ,Ds5
 .byte   W16
 .byte   N22 ,Fs5
 .byte   N22 ,Ds5
 .byte   W24
 .byte   N07 ,Fs5
 .byte   N07 ,Ds5
 .byte   W08
 .byte   Fs5
 .byte   N07 ,Ds5
 .byte   W16
 .byte   N22 ,Fs5
 .byte   N22 ,Ds5
 .byte   W24
 .byte   PEND 
@  #06 @067   ----------------------------------------
Label_0102635C:
 .byte   N07 ,Cs5 ,v070
 .byte   W08
 .byte   Cs5
 .byte   W16
 .byte   N68 ,Cs5 ,v070 ,gtp2
 .byte   W72
 .byte   PEND 
@  #06 @068   ----------------------------------------
 .byte   W96
@  #06 @069   ----------------------------------------
 .byte   W96
@  #06 @070   ----------------------------------------
 .byte   PATT
  .word Label_0102633E
@  #06 @071   ----------------------------------------
 .byte   PATT
  .word Label_0102635C
@  #06 @072   ----------------------------------------
Label_01026374:
 .byte   N90 ,Cs2 ,v080 ,gtp1
 .byte   N07 ,Bn3
 .byte   W08
 .byte   Fs3
 .byte   W08
 .byte   En3
 .byte   W08
 .byte   Bn3
 .byte   W08
 .byte   Fs3
 .byte   W08
 .byte   En3
 .byte   W08
 .byte   Bn3
 .byte   W08
 .byte   Fs3
 .byte   W08
 .byte   En3
 .byte   W08
 .byte   Bn3
 .byte   W08
 .byte   Fs3
 .byte   W08
 .byte   En3
 .byte   W08
 .byte   PEND 
@  #06 @073   ----------------------------------------
 .byte   N72 ,An1 ,v080 ,gtp3
 .byte   N07 ,Bn3
 .byte   W08
 .byte   Fs3
 .byte   W08
 .byte   En3
 .byte   W08
 .byte   Bn3
 .byte   W08
 .byte   Fs3
 .byte   W08
 .byte   En3
 .byte   W08
 .byte   Bn3
 .byte   W08
 .byte   Fs3
 .byte   W08
 .byte   En3
 .byte   W08
 .byte   Fs3
 .byte   W08
 .byte   Dn2
 .byte   N07 ,Bn3
 .byte   W16
@  #06 @074   ----------------------------------------
 .byte   PATT
  .word Label_01026374
@  #06 @075   ----------------------------------------
 .byte   N90 ,Ds2 ,v080 ,gtp1
 .byte   N07 ,Cs4
 .byte   W08
 .byte   Gs3
 .byte   W08
 .byte   Fs3
 .byte   W08
 .byte   Cs4
 .byte   W08
 .byte   Gs3
 .byte   W08
 .byte   Fs3
 .byte   W08
 .byte   Cs4
 .byte   W08
 .byte   Gs3
 .byte   W08
 .byte   Fs3
 .byte   W08
 .byte   Cs4
 .byte   W08
 .byte   Gs3
 .byte   W08
 .byte   Fs3
 .byte   W08
@  #06 @076   ----------------------------------------
 .byte   PATT
  .word Label_01026374
@  #06 @077   ----------------------------------------
 .byte   N90 ,An1 ,v080 ,gtp1
 .byte   N07 ,Bn3
 .byte   W08
 .byte   Fs3
 .byte   W08
 .byte   En3
 .byte   W08
 .byte   Bn3
 .byte   W08
 .byte   Fs3
 .byte   W08
 .byte   En3
 .byte   W08
 .byte   Bn3
 .byte   W08
 .byte   Fs3
 .byte   W08
 .byte   En3
 .byte   W08
 .byte   N15 ,Fs3
 .byte   W16
 .byte   N07 ,Bn3
 .byte   W08
@  #06 @078   ----------------------------------------
 .byte   TIE ,Gs1
 .byte   N07 ,As3
 .byte   W08
 .byte   Ds3
 .byte   W08
 .byte   Cs3
 .byte   W08
 .byte   As3
 .byte   W08
 .byte   Ds3
 .byte   W08
 .byte   Cs3
 .byte   W08
 .byte   As3
 .byte   W08
 .byte   Ds3
 .byte   W08
 .byte   Cs3
 .byte   W08
 .byte   As3
 .byte   W08
 .byte   Ds3
 .byte   W08
 .byte   Cs3
 .byte   W08
@  #06 @079   ----------------------------------------
 .byte   As3
 .byte   W08
 .byte   Ds3
 .byte   W08
 .byte   Cs3
 .byte   W08
 .byte   As3
 .byte   W08
 .byte   Ds3
 .byte   W01
 .byte   EOT
 .byte   Gs1
 .byte   W07
 .byte   N07 ,Cs3
 .byte   W08
 .byte   N48 ,Fs1
 .byte   N07 ,As3
 .byte   W08
 .byte   Ds3
 .byte   W08
 .byte   Cs3
 .byte   W08
 .byte   As3
 .byte   W08
 .byte   N15 ,Ds3
 .byte   W16
@  #06 @080   ----------------------------------------
 .byte   GOTO
  .word Label_01026092
 .byte   FINE

@**************** Track 7 (Midi-Chn.6) ****************@

song02_007:
@  #07 @000   ----------------------------------------
 .byte   KEYSH , song02_key+0
Label_01025F32:
 .byte   VOICE , 110
 .byte   VOL , 90*song02_mvl/mxv
 .byte   TIE ,En3 ,v032
 .byte   TIE ,Bn2
 .byte   BENDR, 12
 .byte   W96
@  #07 @001   ----------------------------------------
 .byte   TIE ,As2
 .byte   W96
@  #07 @002   ----------------------------------------
 .byte   W96
@  #07 @003   ----------------------------------------
 .byte   W92
 .byte   W03
 .byte   EOT
 .byte   Bn2 ,v064
 .byte   As2
 .byte   W01
@  #07 @004   ----------------------------------------
 .byte   TIE ,En3
 .byte   TIE ,Bn2
 .byte   W96
@  #07 @005   ----------------------------------------
 .byte   As2
 .byte   W96
@  #07 @006   ----------------------------------------
 .byte   W96
@  #07 @007   ----------------------------------------
 .byte   W56
 .byte   W03
 .byte   EOT
 .byte   Bn2 ,v064
 .byte   As2
 .byte   W36
 .byte   W01
@  #07 @008   ----------------------------------------
 .byte   TIE ,Gs3
 .byte   W96
@  #07 @009   ----------------------------------------
 .byte   W92
 .byte   W03
 .byte   EOT
 .byte   W01
@  #07 @010   ----------------------------------------
 .byte   TIE ,Fs3
 .byte   W96
@  #07 @011   ----------------------------------------
 .byte   W92
 .byte   W03
 .byte   EOT
 .byte   W01
@  #07 @012   ----------------------------------------
 .byte   TIE ,En3
 .byte   W96
@  #07 @013   ----------------------------------------
 .byte   W92
 .byte   W03
 .byte   EOT
 .byte   W01
@  #07 @014   ----------------------------------------
 .byte   N92 ,Fs3 ,v032 ,gtp3
 .byte   W96
@  #07 @015   ----------------------------------------
 .byte   Gn3
 .byte   W96
@  #07 @016   ----------------------------------------
 .byte   TIE ,Gs3
 .byte   W96
@  #07 @017   ----------------------------------------
 .byte   W92
 .byte   W03
 .byte   EOT
 .byte   W01
@  #07 @018   ----------------------------------------
 .byte   N92 ,Gs3 ,v032 ,gtp3
 .byte   W96
@  #07 @019   ----------------------------------------
 .byte   N44 ,Gs3 ,v032 ,gtp3
 .byte   W48
 .byte   Fs3
 .byte   W48
@  #07 @020   ----------------------------------------
 .byte   TIE ,En3
 .byte   W96
@  #07 @021   ----------------------------------------
 .byte   W92
 .byte   W03
 .byte   EOT
 .byte   W01
@  #07 @022   ----------------------------------------
 .byte   N92 ,Fs3 ,v032 ,gtp3
 .byte   W96
@  #07 @023   ----------------------------------------
 .byte   Gn3
 .byte   W96
@  #07 @024   ----------------------------------------
Label_01025F96:
 .byte   N44 ,Ds4 ,v052 ,gtp3
 .byte   W48
 .byte   Cs4
 .byte   W48
 .byte   PEND 
@  #07 @025   ----------------------------------------
Label_01025F9E:
 .byte   N44 ,Fs4 ,v052 ,gtp3
 .byte   W48
 .byte   Ds4
 .byte   W48
 .byte   PEND 
@  #07 @026   ----------------------------------------
 .byte   N92 ,Cs4 ,v052 ,gtp3
 .byte   W96
@  #07 @027   ----------------------------------------
Label_01025FAB:
 .byte   N44 ,Bn3 ,v052 ,gtp3
 .byte   W48
 .byte   As3
 .byte   W48
 .byte   PEND 
@  #07 @028   ----------------------------------------
Label_01025FB3:
 .byte   N44 ,Gs3 ,v052 ,gtp3
 .byte   W48
 .byte   Ds4
 .byte   W48
 .byte   PEND 
@  #07 @029   ----------------------------------------
Label_01025FBB:
 .byte   N44 ,Cs4 ,v052 ,gtp3
 .byte   W48
 .byte   Fs4
 .byte   W48
 .byte   PEND 
@  #07 @030   ----------------------------------------
 .byte   N92 ,Gs4 ,v052 ,gtp3
 .byte   W96
@  #07 @031   ----------------------------------------
 .byte   As4
 .byte   W96
@  #07 @032   ----------------------------------------
 .byte   TIE ,Gs3
 .byte   W96
@  #07 @033   ----------------------------------------
 .byte   W92
 .byte   W03
 .byte   EOT
 .byte   W01
@  #07 @034   ----------------------------------------
 .byte   TIE ,Fs3
 .byte   W96
@  #07 @035   ----------------------------------------
 .byte   W92
 .byte   W03
 .byte   EOT
 .byte   W01
@  #07 @036   ----------------------------------------
 .byte   TIE ,En3
 .byte   W96
@  #07 @037   ----------------------------------------
 .byte   W92
 .byte   W03
 .byte   EOT
 .byte   W01
@  #07 @038   ----------------------------------------
 .byte   N92 ,Fs3 ,v052 ,gtp3
 .byte   W96
@  #07 @039   ----------------------------------------
 .byte   Gn3
 .byte   W96
@  #07 @040   ----------------------------------------
 .byte   TIE ,Gs3
 .byte   W96
@  #07 @041   ----------------------------------------
 .byte   W92
 .byte   W03
 .byte   EOT
 .byte   W01
@  #07 @042   ----------------------------------------
 .byte   N92 ,Gs3 ,v052 ,gtp3
 .byte   W96
@  #07 @043   ----------------------------------------
 .byte   N44 ,Gs3 ,v052 ,gtp3
 .byte   W48
 .byte   Fs3
 .byte   W48
@  #07 @044   ----------------------------------------
 .byte   TIE ,En3
 .byte   W96
@  #07 @045   ----------------------------------------
 .byte   W92
 .byte   W03
 .byte   EOT
 .byte   W01
@  #07 @046   ----------------------------------------
 .byte   N92 ,Fs3 ,v052 ,gtp3
 .byte   W96
@  #07 @047   ----------------------------------------
 .byte   Gn3
 .byte   W96
@  #07 @048   ----------------------------------------
 .byte   PATT
  .word Label_01025F96
@  #07 @049   ----------------------------------------
 .byte   PATT
  .word Label_01025F9E
@  #07 @050   ----------------------------------------
 .byte   N92 ,Cs4 ,v052 ,gtp3
 .byte   W96
@  #07 @051   ----------------------------------------
 .byte   PATT
  .word Label_01025FAB
@  #07 @052   ----------------------------------------
 .byte   PATT
  .word Label_01025FB3
@  #07 @053   ----------------------------------------
 .byte   PATT
  .word Label_01025FBB
@  #07 @054   ----------------------------------------
 .byte   N92 ,Gs4 ,v052 ,gtp3
 .byte   W96
@  #07 @055   ----------------------------------------
 .byte   As4
 .byte   W96
@  #07 @056   ----------------------------------------
 .byte   Ds4
 .byte   W96
@  #07 @057   ----------------------------------------
 .byte   N44 ,Bn3 ,v052 ,gtp3
 .byte   W48
 .byte   Fs4
 .byte   W48
@  #07 @058   ----------------------------------------
 .byte   N92 ,Ds4 ,v052 ,gtp3
 .byte   W96
@  #07 @059   ----------------------------------------
 .byte   PATT
  .word Label_01025F96
@  #07 @060   ----------------------------------------
 .byte   N44 ,Bn3 ,v052 ,gtp3
 .byte   W48
 .byte   En4
 .byte   W48
@  #07 @061   ----------------------------------------
 .byte   PATT
  .word Label_01025F96
@  #07 @062   ----------------------------------------
 .byte   TIE ,Ds4 ,v052
 .byte   W96
@  #07 @063   ----------------------------------------
 .byte   W92
 .byte   W03
 .byte   EOT
 .byte   W01
@  #07 @064   ----------------------------------------
 .byte   N92 ,Ds4 ,v052 ,gtp3
 .byte   W96
@  #07 @065   ----------------------------------------
 .byte   PATT
  .word Label_01025FBB
@  #07 @066   ----------------------------------------
 .byte   N92 ,Ds4 ,v052 ,gtp3
 .byte   W96
@  #07 @067   ----------------------------------------
 .byte   N44 ,Cs4 ,v052 ,gtp3
 .byte   W48
 .byte   Bn3
 .byte   W48
@  #07 @068   ----------------------------------------
 .byte   N92 ,Ds4 ,v052 ,gtp3
 .byte   W96
@  #07 @069   ----------------------------------------
 .byte   N44 ,Cs4 ,v052 ,gtp3
 .byte   W48
 .byte   En4
 .byte   W48
@  #07 @070   ----------------------------------------
 .byte   N92 ,Ds4 ,v052 ,gtp3
 .byte   W96
@  #07 @071   ----------------------------------------
 .byte   N44 ,As3 ,v052 ,gtp3
 .byte   W48
 .byte   Bn3
 .byte   W48
@  #07 @072   ----------------------------------------
 .byte   W96
@  #07 @073   ----------------------------------------
 .byte   W96
@  #07 @074   ----------------------------------------
 .byte   W96
@  #07 @075   ----------------------------------------
 .byte   W96
@  #07 @076   ----------------------------------------
 .byte   W96
@  #07 @077   ----------------------------------------
 .byte   W96
@  #07 @078   ----------------------------------------
 .byte   W96
@  #07 @079   ----------------------------------------
 .byte   W96
@  #07 @080   ----------------------------------------
 .byte   GOTO
  .word Label_01025F32
 .byte   FINE

@**************** Track 8 (Midi-Chn.7) ****************@

song02_008:
@  #08 @000   ----------------------------------------
 .byte   KEYSH , song02_key+0
Label_01004372:
 .byte   VOICE , 14
 .byte   VOL , 91*song02_mvl/mxv
 .byte   N92 ,En3 ,v050 ,gtp2
 .byte   BENDR, 12
 .byte   W96
@  #08 @001   ----------------------------------------
 .byte   W96
@  #08 @002   ----------------------------------------
 .byte   W96
@  #08 @003   ----------------------------------------
 .byte   W96
@  #08 @004   ----------------------------------------
 .byte   N92 ,En3 ,v050 ,gtp2
 .byte   W96
@  #08 @005   ----------------------------------------
 .byte   W96
@  #08 @006   ----------------------------------------
 .byte   W96
@  #08 @007   ----------------------------------------
 .byte   W96
@  #08 @008   ----------------------------------------
 .byte   W96
@  #08 @009   ----------------------------------------
 .byte   W96
@  #08 @010   ----------------------------------------
 .byte   W96
@  #08 @011   ----------------------------------------
 .byte   W96
@  #08 @012   ----------------------------------------
 .byte   W96
@  #08 @013   ----------------------------------------
 .byte   W96
@  #08 @014   ----------------------------------------
 .byte   W96
@  #08 @015   ----------------------------------------
 .byte   W96
@  #08 @016   ----------------------------------------
 .byte   W96
@  #08 @017   ----------------------------------------
 .byte   W96
@  #08 @018   ----------------------------------------
 .byte   W96
@  #08 @019   ----------------------------------------
 .byte   W96
@  #08 @020   ----------------------------------------
 .byte   W96
@  #08 @021   ----------------------------------------
 .byte   W96
@  #08 @022   ----------------------------------------
 .byte   W96
@  #08 @023   ----------------------------------------
 .byte   W96
@  #08 @024   ----------------------------------------
 .byte   W96
@  #08 @025   ----------------------------------------
 .byte   W96
@  #08 @026   ----------------------------------------
 .byte   W96
@  #08 @027   ----------------------------------------
 .byte   W96
@  #08 @028   ----------------------------------------
 .byte   W96
@  #08 @029   ----------------------------------------
 .byte   W96
@  #08 @030   ----------------------------------------
 .byte   W96
@  #08 @031   ----------------------------------------
 .byte   W96
@  #08 @032   ----------------------------------------
 .byte   W96
@  #08 @033   ----------------------------------------
 .byte   W96
@  #08 @034   ----------------------------------------
 .byte   W96
@  #08 @035   ----------------------------------------
 .byte   W96
@  #08 @036   ----------------------------------------
 .byte   W96
@  #08 @037   ----------------------------------------
 .byte   W96
@  #08 @038   ----------------------------------------
 .byte   W96
@  #08 @039   ----------------------------------------
 .byte   W96
@  #08 @040   ----------------------------------------
 .byte   W96
@  #08 @041   ----------------------------------------
 .byte   W96
@  #08 @042   ----------------------------------------
 .byte   W96
@  #08 @043   ----------------------------------------
 .byte   W96
@  #08 @044   ----------------------------------------
 .byte   W96
@  #08 @045   ----------------------------------------
 .byte   W96
@  #08 @046   ----------------------------------------
 .byte   W96
@  #08 @047   ----------------------------------------
 .byte   W96
@  #08 @048   ----------------------------------------
 .byte   W96
@  #08 @049   ----------------------------------------
 .byte   W96
@  #08 @050   ----------------------------------------
 .byte   W96
@  #08 @051   ----------------------------------------
 .byte   W96
@  #08 @052   ----------------------------------------
 .byte   W96
@  #08 @053   ----------------------------------------
 .byte   W96
@  #08 @054   ----------------------------------------
 .byte   W96
@  #08 @055   ----------------------------------------
 .byte   W96
@  #08 @056   ----------------------------------------
 .byte   W96
@  #08 @057   ----------------------------------------
 .byte   W96
@  #08 @058   ----------------------------------------
 .byte   W96
@  #08 @059   ----------------------------------------
 .byte   W96
@  #08 @060   ----------------------------------------
 .byte   W96
@  #08 @061   ----------------------------------------
 .byte   W96
@  #08 @062   ----------------------------------------
 .byte   W96
@  #08 @063   ----------------------------------------
 .byte   W96
@  #08 @064   ----------------------------------------
 .byte   W96
@  #08 @065   ----------------------------------------
 .byte   W96
@  #08 @066   ----------------------------------------
 .byte   W96
@  #08 @067   ----------------------------------------
 .byte   W96
@  #08 @068   ----------------------------------------
 .byte   W96
@  #08 @069   ----------------------------------------
 .byte   W96
@  #08 @070   ----------------------------------------
 .byte   W96
@  #08 @071   ----------------------------------------
 .byte   W96
@  #08 @072   ----------------------------------------
 .byte   W96
@  #08 @073   ----------------------------------------
 .byte   W96
@  #08 @074   ----------------------------------------
 .byte   W96
@  #08 @075   ----------------------------------------
 .byte   W96
@  #08 @076   ----------------------------------------
 .byte   W96
@  #08 @077   ----------------------------------------
 .byte   W96
@  #08 @078   ----------------------------------------
 .byte   W96
@  #08 @079   ----------------------------------------
 .byte   W96
@  #08 @080   ----------------------------------------
 .byte   GOTO
  .word Label_01004372
 .byte   FINE

@******************************************************@
	.align	2

song02:
	.byte	8	@ NumTrks
	.byte	0	@ NumBlks
	.byte	song02_pri	@ Priority
	.byte	song02_rev	@ Reverb.
    
	.word	song02_grp
    
	.word	song02_001
	.word	song02_002
	.word	song02_003
	.word	song02_004
	.word	song02_005
	.word	song02_006
	.word	song02_007
	.word	song02_008

	.end
