	.include "MPlayDef.s"

	.equ	song02_grp, voicegroup000
	.equ	song02_pri, 0
	.equ	song02_rev, 0
	.equ	song02_mvl, 127
	.equ	song02_key, 0
	.equ	song02_tbs, 1
	.equ	song02_exg, 0
	.equ	song02_cmp, 1

	.section .rodata
	.global	song02
	.align	2


@**************** Track 1 (Midi-Chn.0) ****************@

song02_001:
@  #01 @000   ----------------------------------------
 .byte   KEYSH , song02_key+0
 .byte   VOICE , 18
 .byte   VOL , 20*song02_mvl/mxv
 .byte   PAN , c_v-64
 .byte   N06 ,An4 ,v127
 .byte   BENDR, 12
 .byte   W06
 .byte   N06 ,Cn5
 .byte   W06
 .byte   En5
 .byte   W12
 .byte   Gn5
 .byte   W12
 .byte   An4
 .byte   W06
 .byte   En5
 .byte   W06
 .byte   Dn5
 .byte   W12
 .byte   An5
 .byte   W12
 .byte   An4
 .byte   W06
 .byte   Cn5
 .byte   W06
 .byte   Dn5
 .byte   W06
 .byte   Gn5
 .byte   W06
@  #01 @001   ----------------------------------------
Label_01008081:
 .byte   N06 ,An4 ,v127
 .byte   W06
 .byte   Cn5
 .byte   W06
 .byte   En5
 .byte   W12
 .byte   Gn5
 .byte   W12
 .byte   An4
 .byte   W06
 .byte   En5
 .byte   W06
 .byte   Dn5
 .byte   W12
 .byte   An5
 .byte   W12
 .byte   An4
 .byte   W06
 .byte   Cn5
 .byte   W06
 .byte   Dn5
 .byte   W06
 .byte   Gn5
 .byte   W06
 .byte   PEND 
@  #01 @002   ----------------------------------------
 .byte   PATT
  .word Label_01008081
@  #01 @003   ----------------------------------------
 .byte   PATT
  .word Label_01008081
@  #01 @004   ----------------------------------------
 .byte   PATT
  .word Label_01008081
@  #01 @005   ----------------------------------------
 .byte   PATT
  .word Label_01008081
@  #01 @006   ----------------------------------------
 .byte   PATT
  .word Label_01008081
@  #01 @007   ----------------------------------------
 .byte   PATT
  .word Label_01008081
@  #01 @008   ----------------------------------------
 .byte   W96
@  #01 @009   ----------------------------------------
 .byte   W96
@  #01 @010   ----------------------------------------
 .byte   W96
@  #01 @011   ----------------------------------------
 .byte   W96
@  #01 @012   ----------------------------------------
 .byte   W96
@  #01 @013   ----------------------------------------
 .byte   W96
@  #01 @014   ----------------------------------------
 .byte   W96
@  #01 @015   ----------------------------------------
 .byte   W96
@  #01 @016   ----------------------------------------
 .byte   W96
@  #01 @017   ----------------------------------------
 .byte   W96
@  #01 @018   ----------------------------------------
 .byte   W96
@  #01 @019   ----------------------------------------
 .byte   W96
@  #01 @020   ----------------------------------------
 .byte   W96
@  #01 @021   ----------------------------------------
 .byte   W96
@  #01 @022   ----------------------------------------
 .byte   W96
@  #01 @023   ----------------------------------------
 .byte   W96
@  #01 @024   ----------------------------------------
 .byte   W96
@  #01 @025   ----------------------------------------
 .byte   W96
@  #01 @026   ----------------------------------------
 .byte   W96
@  #01 @027   ----------------------------------------
 .byte   W96
@  #01 @028   ----------------------------------------
 .byte   W96
@  #01 @029   ----------------------------------------
 .byte   W96
@  #01 @030   ----------------------------------------
 .byte   W96
@  #01 @031   ----------------------------------------
 .byte   W96
@  #01 @032   ----------------------------------------
Label_010080D2:
 .byte   N12 ,Fn4 ,v127
 .byte   W12
 .byte   Cn5
 .byte   W12
 .byte   Ds5
 .byte   W12
 .byte   Fn4
 .byte   W12
 .byte   Cn5
 .byte   W12
 .byte   Ds5
 .byte   W36
 .byte   PEND 
@  #01 @033   ----------------------------------------
Label_010080E1:
 .byte   N12 ,Cs4 ,v127
 .byte   W12
 .byte   Fn4
 .byte   W12
 .byte   Cn5
 .byte   W24
 .byte   Cs4
 .byte   W12
 .byte   Cn5
 .byte   W36
 .byte   PEND 
@  #01 @034   ----------------------------------------
Label_010080EE:
 .byte   N12 ,Fn4 ,v127
 .byte   W12
 .byte   Cn5
 .byte   W12
 .byte   Gn5
 .byte   W12
 .byte   Fn4
 .byte   W12
 .byte   Cn5
 .byte   W12
 .byte   Gn5
 .byte   W36
 .byte   PEND 
@  #01 @035   ----------------------------------------
Label_010080FD:
 .byte   N12 ,Fn5 ,v127
 .byte   W12
 .byte   Gs5
 .byte   W12
 .byte   Ds6
 .byte   W12
 .byte   Fn5
 .byte   W12
 .byte   Gn5
 .byte   W12
 .byte   Gs5
 .byte   W12
 .byte   Ds6
 .byte   W12
 .byte   Gs5
 .byte   W12
 .byte   PEND 
@  #01 @036   ----------------------------------------
 .byte   PATT
  .word Label_010080D2
@  #01 @037   ----------------------------------------
 .byte   PATT
  .word Label_010080E1
@  #01 @038   ----------------------------------------
 .byte   PATT
  .word Label_010080EE
@  #01 @039   ----------------------------------------
 .byte   PATT
  .word Label_010080FD
@  #01 @040   ----------------------------------------
 .byte   PATT
  .word Label_010080D2
@  #01 @041   ----------------------------------------
 .byte   PATT
  .word Label_010080E1
@  #01 @042   ----------------------------------------
 .byte   PATT
  .word Label_010080EE
@  #01 @043   ----------------------------------------
 .byte   PATT
  .word Label_010080FD
@  #01 @044   ----------------------------------------
 .byte   PATT
  .word Label_010080D2
@  #01 @045   ----------------------------------------
 .byte   PATT
  .word Label_010080E1
@  #01 @046   ----------------------------------------
 .byte   PATT
  .word Label_010080EE
@  #01 @047   ----------------------------------------
 .byte   PATT
  .word Label_010080FD
@  #01 @048   ----------------------------------------
 .byte   W96
@  #01 @049   ----------------------------------------
 .byte   W96
@  #01 @050   ----------------------------------------
 .byte   W96
@  #01 @051   ----------------------------------------
Label_0100814F:
 .byte   W96
@  #01 @052   ----------------------------------------
 .byte   W96
@  #01 @053   ----------------------------------------
 .byte   W96
@  #01 @054   ----------------------------------------
 .byte   W96
@  #01 @055   ----------------------------------------
 .byte   W96
@  #01 @056   ----------------------------------------
 .byte   W96
@  #01 @057   ----------------------------------------
 .byte   W96
@  #01 @058   ----------------------------------------
 .byte   W96
@  #01 @059   ----------------------------------------
 .byte   W96
@  #01 @060   ----------------------------------------
 .byte   W96
@  #01 @061   ----------------------------------------
 .byte   W96
@  #01 @062   ----------------------------------------
 .byte   W96
@  #01 @063   ----------------------------------------
 .byte   W96
@  #01 @064   ----------------------------------------
 .byte   W96
@  #01 @065   ----------------------------------------
 .byte   W96
@  #01 @066   ----------------------------------------
 .byte   W96
@  #01 @067   ----------------------------------------
 .byte   W96
@  #01 @068   ----------------------------------------
 .byte   W96
@  #01 @069   ----------------------------------------
 .byte   W96
@  #01 @070   ----------------------------------------
 .byte   W96
@  #01 @071   ----------------------------------------
 .byte   W96
@  #01 @072   ----------------------------------------
 .byte   W96
@  #01 @073   ----------------------------------------
 .byte   W96
@  #01 @074   ----------------------------------------
 .byte   W96
@  #01 @075   ----------------------------------------
 .byte   PATT
  .word Label_010080D2
@  #01 @076   ----------------------------------------
 .byte   PATT
  .word Label_010080E1
@  #01 @077   ----------------------------------------
 .byte   PATT
  .word Label_010080EE
@  #01 @078   ----------------------------------------
 .byte   PATT
  .word Label_010080FD
@  #01 @079   ----------------------------------------
 .byte   PATT
  .word Label_010080D2
@  #01 @080   ----------------------------------------
 .byte   PATT
  .word Label_010080E1
@  #01 @081   ----------------------------------------
 .byte   PATT
  .word Label_010080EE
@  #01 @082   ----------------------------------------
 .byte   PATT
  .word Label_010080FD
@  #01 @083   ----------------------------------------
 .byte   PATT
  .word Label_010080D2
@  #01 @084   ----------------------------------------
 .byte   PATT
  .word Label_010080E1
@  #01 @085   ----------------------------------------
 .byte   PATT
  .word Label_010080EE
@  #01 @086   ----------------------------------------
 .byte   PATT
  .word Label_010080FD
@  #01 @087   ----------------------------------------
 .byte   PATT
  .word Label_010080D2
@  #01 @088   ----------------------------------------
 .byte   PATT
  .word Label_010080E1
@  #01 @089   ----------------------------------------
 .byte   PATT
  .word Label_010080EE
@  #01 @090   ----------------------------------------
 .byte   PATT
  .word Label_010080FD
@  #01 @091   ----------------------------------------
 .byte   W96
@  #01 @092   ----------------------------------------
 .byte   W96
@  #01 @093   ----------------------------------------
 .byte   W96
@  #01 @094   ----------------------------------------
 .byte   W96
@  #01 @095   ----------------------------------------
 .byte   W96
@  #01 @096   ----------------------------------------
 .byte   W96
@  #01 @097   ----------------------------------------
 .byte   W96
@  #01 @098   ----------------------------------------
 .byte   W96
@  #01 @099   ----------------------------------------
 .byte   W96
@  #01 @100   ----------------------------------------
 .byte   W96
@  #01 @101   ----------------------------------------
 .byte   W96
@  #01 @102   ----------------------------------------
 .byte   W96
@  #01 @103   ----------------------------------------
 .byte   W96
@  #01 @104   ----------------------------------------
 .byte   W96
@  #01 @105   ----------------------------------------
 .byte   W96
@  #01 @106   ----------------------------------------
 .byte   W96
@  #01 @107   ----------------------------------------
 .byte   W96
@  #01 @108   ----------------------------------------
 .byte   W96
@  #01 @109   ----------------------------------------
 .byte   W96
@  #01 @110   ----------------------------------------
 .byte   W96
@  #01 @111   ----------------------------------------
 .byte   W96
@  #01 @112   ----------------------------------------
 .byte   W96
@  #01 @113   ----------------------------------------
 .byte   W96
@  #01 @114   ----------------------------------------
 .byte   W96
@  #01 @115   ----------------------------------------
 .byte   W96
@  #01 @116   ----------------------------------------
 .byte   W96
@  #01 @117   ----------------------------------------
 .byte   W96
@  #01 @118   ----------------------------------------
 .byte   PATT
  .word Label_010080D2
@  #01 @119   ----------------------------------------
 .byte   PATT
  .word Label_010080E1
@  #01 @120   ----------------------------------------
 .byte   PATT
  .word Label_010080EE
@  #01 @121   ----------------------------------------
 .byte   PATT
  .word Label_010080FD
@  #01 @122   ----------------------------------------
 .byte   PATT
  .word Label_010080D2
@  #01 @123   ----------------------------------------
 .byte   PATT
  .word Label_010080E1
@  #01 @124   ----------------------------------------
 .byte   PATT
  .word Label_010080EE
@  #01 @125   ----------------------------------------
 .byte   PATT
  .word Label_010080FD
@  #01 @126   ----------------------------------------
 .byte   PATT
  .word Label_010080D2
@  #01 @127   ----------------------------------------
 .byte   PATT
  .word Label_010080E1
@  #01 @128   ----------------------------------------
 .byte   PATT
  .word Label_010080EE
@  #01 @129   ----------------------------------------
 .byte   PATT
  .word Label_010080FD
@  #01 @130   ----------------------------------------
 .byte   PATT
  .word Label_010080D2
@  #01 @131   ----------------------------------------
 .byte   PATT
  .word Label_010080E1
@  #01 @132   ----------------------------------------
 .byte   PATT
  .word Label_010080EE
@  #01 @133   ----------------------------------------
 .byte   PATT
  .word Label_010080FD
@  #01 @134   ----------------------------------------
 .byte   W96
@  #01 @135   ----------------------------------------
 .byte   W96
@  #01 @136   ----------------------------------------
 .byte   W96
@  #01 @137   ----------------------------------------
 .byte   GOTO
  .word Label_0100814F
@  #01 @138   ----------------------------------------
 .byte   W96
 .byte   FINE

@**************** Track 2 (Midi-Chn.1) ****************@

song02_002:
@  #02 @000   ----------------------------------------
 .byte   KEYSH , song02_key+0
 .byte   VOICE , 30
 .byte   VOL , 41*song02_mvl/mxv
 .byte   N24 ,An1 ,v127
 .byte   N24 ,An0
 .byte   BENDR, 12
 .byte   W24
 .byte   N12 ,Cn2
 .byte   N12 ,Cn1
 .byte   W12
 .byte   N36 ,Gn1
 .byte   N36 ,Gn2
 .byte   W36
 .byte   N24 ,Dn2
 .byte   N24 ,Dn1
 .byte   W24
@  #02 @001   ----------------------------------------
Label_0100824D:
 .byte   N24 ,An1 ,v127
 .byte   N24 ,An0
 .byte   W24
 .byte   N12 ,Cn2
 .byte   N12 ,Cn1
 .byte   W12
 .byte   N36 ,Gn1
 .byte   N36 ,Gn2
 .byte   W36
 .byte   N24 ,An2
 .byte   N24 ,An1
 .byte   W24
 .byte   PEND 
@  #02 @002   ----------------------------------------
Label_01008263:
 .byte   N24 ,An1 ,v127
 .byte   N24 ,An0
 .byte   W24
 .byte   N12 ,Cn2
 .byte   N12 ,Cn1
 .byte   W12
 .byte   N36 ,Gn1
 .byte   N36 ,Gn2
 .byte   W36
 .byte   N24 ,Dn2
 .byte   N24 ,Dn1
 .byte   W24
 .byte   PEND 
@  #02 @003   ----------------------------------------
 .byte   An1
 .byte   N24 ,An0
 .byte   W24
 .byte   N12 ,Cn2
 .byte   N12 ,Cn1
 .byte   W12
 .byte   N36 ,Gn0
 .byte   N36 ,Gn1
 .byte   W60
@  #02 @004   ----------------------------------------
 .byte   PATT
  .word Label_01008263
@  #02 @005   ----------------------------------------
 .byte   PATT
  .word Label_0100824D
@  #02 @006   ----------------------------------------
 .byte   PATT
  .word Label_01008263
@  #02 @007   ----------------------------------------
 .byte   N24 ,Gn1 ,v127
 .byte   N24 ,Gn0
 .byte   W36
 .byte   N36 ,Dn1
 .byte   N36 ,Dn2
 .byte   W60
@  #02 @008   ----------------------------------------
Label_010082A1:
 .byte   N12 ,An0 ,v127
 .byte   N12 ,An1
 .byte   W12
 .byte   Gn0
 .byte   N12 ,Gn1
 .byte   W12
 .byte   An1
 .byte   N12 ,An0
 .byte   W12
 .byte   N18 ,An1
 .byte   N18 ,An0
 .byte   W48
 .byte   N48 ,Cn1
 .byte   N48 ,Cn2
 .byte   W12
 .byte   PEND 
@  #02 @009   ----------------------------------------
Label_010082BA:
 .byte   W36
 .byte   N24 ,Dn2 ,v127
 .byte   N24 ,Dn1
 .byte   W24
 .byte   N12
 .byte   N12 ,Dn2
 .byte   W12
 .byte   N24 ,Gn1
 .byte   N24 ,Gn0
 .byte   W24
 .byte   PEND 
@  #02 @010   ----------------------------------------
Label_010082CB:
 .byte   N12 ,An0 ,v127
 .byte   N12 ,An1
 .byte   W12
 .byte   Gn1
 .byte   N12 ,Gn0
 .byte   W12
 .byte   An1
 .byte   N12 ,An0
 .byte   W12
 .byte   N18 ,An1
 .byte   N18 ,An0
 .byte   W48
 .byte   N48 ,Gn1
 .byte   N48 ,Gn0
 .byte   W12
 .byte   PEND 
@  #02 @011   ----------------------------------------
Label_010082E4:
 .byte   W36
 .byte   N24 ,Cn1 ,v127
 .byte   N24 ,Cn2
 .byte   W24
 .byte   N12
 .byte   N12 ,Cn1
 .byte   W12
 .byte   N24 ,Bn0
 .byte   N24 ,Bn1
 .byte   W24
 .byte   PEND 
@  #02 @012   ----------------------------------------
 .byte   PATT
  .word Label_010082A1
@  #02 @013   ----------------------------------------
 .byte   PATT
  .word Label_010082BA
@  #02 @014   ----------------------------------------
 .byte   PATT
  .word Label_010082CB
@  #02 @015   ----------------------------------------
Label_01008304:
 .byte   W36
 .byte   N24 ,Cn1 ,v127
 .byte   N24 ,Cn2
 .byte   W24
 .byte   N12 ,Cn1
 .byte   N12 ,Cn2
 .byte   W12
 .byte   N24 ,Bn1
 .byte   N24 ,Bn0
 .byte   W24
 .byte   PEND 
@  #02 @016   ----------------------------------------
Label_01008316:
 .byte   N96 ,An0 ,v127
 .byte   N96 ,An1
 .byte   W96
 .byte   PEND 
@  #02 @017   ----------------------------------------
Label_0100831D:
 .byte   N24 ,An1 ,v127
 .byte   N24 ,An0
 .byte   W24
 .byte   An0
 .byte   N24 ,An1
 .byte   W24
 .byte   N12 ,Gn0
 .byte   N12 ,Gn1
 .byte   W12
 .byte   An1
 .byte   N12 ,An0
 .byte   W12
 .byte   N24 ,Gn1
 .byte   N24 ,Gn0
 .byte   W24
 .byte   PEND 
@  #02 @018   ----------------------------------------
 .byte   PATT
  .word Label_01008316
@  #02 @019   ----------------------------------------
 .byte   PATT
  .word Label_0100831D
@  #02 @020   ----------------------------------------
Label_01008340:
 .byte   TIE ,Gn0 ,v127
 .byte   TIE ,Gn1
 .byte   W96
 .byte   PEND 
@  #02 @021   ----------------------------------------
Label_01008347:
 .byte   W48
 .byte   EOT
 .byte   Gn0 ,v043
 .byte   N48 ,Gn0 ,v127
 .byte   N48 ,Gn1
 .byte   W48
 .byte   PEND 
@  #02 @022   ----------------------------------------
Label_01008352:
 .byte   TIE ,Fn1 ,v127
 .byte   TIE ,Fn0
 .byte   W96
 .byte   PEND 
@  #02 @023   ----------------------------------------
Label_01008359:
 .byte   W48
 .byte   EOT
 .byte   Fn1 ,v029
 .byte   N24 ,Cn2 ,v127
 .byte   N24 ,Cn1
 .byte   W24
 .byte   Gn0
 .byte   N24 ,Gn1
 .byte   W24
 .byte   PEND 
@  #02 @024   ----------------------------------------
 .byte   PATT
  .word Label_01008316
@  #02 @025   ----------------------------------------
 .byte   PATT
  .word Label_0100831D
@  #02 @026   ----------------------------------------
 .byte   PATT
  .word Label_01008316
@  #02 @027   ----------------------------------------
 .byte   PATT
  .word Label_0100831D
@  #02 @028   ----------------------------------------
 .byte   PATT
  .word Label_01008340
@  #02 @029   ----------------------------------------
 .byte   PATT
  .word Label_01008347
@  #02 @030   ----------------------------------------
Label_01008386:
 .byte   N96 ,Fn1 ,v127
 .byte   N96 ,Fn0
 .byte   W96
 .byte   PEND 
@  #02 @031   ----------------------------------------
Label_0100838D:
 .byte   N12 ,Fn1 ,v127
 .byte   N12 ,Fn0
 .byte   W24
 .byte   Fn0
 .byte   N12 ,Fn1
 .byte   W24
 .byte   Gn1
 .byte   N12 ,Gn0
 .byte   W24
 .byte   Cn0
 .byte   N12 ,Cn1
 .byte   W12
 .byte   En1
 .byte   N12 ,En0
 .byte   W12
 .byte   PEND 
@  #02 @032   ----------------------------------------
Label_010083A4:
 .byte   N96 ,Cs1 ,v127
 .byte   N96 ,Cs2
 .byte   W96
 .byte   PEND 
@  #02 @033   ----------------------------------------
Label_010083AB:
 .byte   N96 ,As0 ,v127
 .byte   N96 ,As1
 .byte   W96
 .byte   PEND 
@  #02 @034   ----------------------------------------
 .byte   PATT
  .word Label_01008352
@  #02 @035   ----------------------------------------
 .byte   W96
@  #02 @036   ----------------------------------------
Label_010083B8:
 .byte   EOT
 .byte   Fn0 ,v041
 .byte   N96 ,Cs1 ,v127
 .byte   N96 ,Cs2
 .byte   W96
 .byte   PEND 
@  #02 @037   ----------------------------------------
 .byte   PATT
  .word Label_010083AB
@  #02 @038   ----------------------------------------
Label_010083C7:
 .byte   TIE ,Fn0 ,v127
 .byte   TIE ,Fn1
 .byte   W96
 .byte   PEND 
@  #02 @039   ----------------------------------------
 .byte   W96
@  #02 @040   ----------------------------------------
 .byte   PATT
  .word Label_010083B8
@  #02 @041   ----------------------------------------
 .byte   PATT
  .word Label_010083AB
@  #02 @042   ----------------------------------------
 .byte   PATT
  .word Label_010083C7
@  #02 @043   ----------------------------------------
 .byte   W96
@  #02 @044   ----------------------------------------
Label_010083DF:
 .byte   EOT
 .byte   Fn1 ,v029
 .byte   N96 ,Cs1 ,v127
 .byte   N96 ,Cs2
 .byte   W96
 .byte   PEND 
@  #02 @045   ----------------------------------------
 .byte   PATT
  .word Label_010083AB
@  #02 @046   ----------------------------------------
 .byte   PATT
  .word Label_010083C7
@  #02 @047   ----------------------------------------
 .byte   W96
@  #02 @048   ----------------------------------------
Label_010083F4:
 .byte   EOT
 .byte   Fn0 ,v041
 .byte   N96 ,Cs2 ,v127
 .byte   N96 ,Cs1
 .byte   W96
 .byte   PEND 
@  #02 @049   ----------------------------------------
Label_010083FE:
 .byte   N96 ,Ds2 ,v127
 .byte   N96 ,Ds1
 .byte   W96
 .byte   PEND 
@  #02 @050   ----------------------------------------
Label_01008405:
 .byte   N24 ,Ds2 ,v127
 .byte   N24 ,Ds1
 .byte   W30
 .byte   BEND , c_v-1
 .byte   W06
 .byte   BEND , c_v-2
 .byte   W07
 .byte   BEND , c_v-3
 .byte   W07
 .byte   BEND , c_v-4
 .byte   W06
 .byte   BEND , c_v-5
 .byte   W07
 .byte   BEND , c_v-6
 .byte   W07
 .byte   BEND , c_v-7
 .byte   W07
 .byte   BEND , c_v-8
 .byte   W07
 .byte   BEND , c_v-9
 .byte   W06
 .byte   BEND , c_v-10
 .byte   W06
 .byte   PEND 
@  #02 @051   ----------------------------------------
Label_01008421:
 .byte   N12 ,An0 ,v127
 .byte   N12 ,An1
 .byte   BEND , c_v+0
 .byte   W12
 .byte   N12 ,Gn0
 .byte   N12 ,Gn1
 .byte   W12
 .byte   An1
 .byte   N12 ,An0
 .byte   W12
 .byte   N18 ,An1
 .byte   N18 ,An0
 .byte   W48
 .byte   N48 ,Cn1
 .byte   N48 ,Cn2
 .byte   W12
@  #02 @052   ----------------------------------------
 .byte   PATT
  .word Label_010082BA
@  #02 @053   ----------------------------------------
 .byte   PATT
  .word Label_010082CB
@  #02 @054   ----------------------------------------
 .byte   PATT
  .word Label_010082E4
@  #02 @055   ----------------------------------------
 .byte   PATT
  .word Label_010082A1
@  #02 @056   ----------------------------------------
 .byte   PATT
  .word Label_010082BA
@  #02 @057   ----------------------------------------
 .byte   PATT
  .word Label_010082CB
@  #02 @058   ----------------------------------------
 .byte   PATT
  .word Label_01008304
@  #02 @059   ----------------------------------------
 .byte   PATT
  .word Label_01008316
@  #02 @060   ----------------------------------------
 .byte   PATT
  .word Label_0100831D
@  #02 @061   ----------------------------------------
 .byte   PATT
  .word Label_01008316
@  #02 @062   ----------------------------------------
 .byte   PATT
  .word Label_0100831D
@  #02 @063   ----------------------------------------
 .byte   PATT
  .word Label_01008340
@  #02 @064   ----------------------------------------
 .byte   PATT
  .word Label_01008347
@  #02 @065   ----------------------------------------
 .byte   PATT
  .word Label_01008352
@  #02 @066   ----------------------------------------
 .byte   PATT
  .word Label_01008359
@  #02 @067   ----------------------------------------
 .byte   PATT
  .word Label_01008316
@  #02 @068   ----------------------------------------
 .byte   PATT
  .word Label_0100831D
@  #02 @069   ----------------------------------------
 .byte   PATT
  .word Label_01008316
@  #02 @070   ----------------------------------------
 .byte   PATT
  .word Label_0100831D
@  #02 @071   ----------------------------------------
 .byte   PATT
  .word Label_01008340
@  #02 @072   ----------------------------------------
 .byte   PATT
  .word Label_01008347
@  #02 @073   ----------------------------------------
 .byte   PATT
  .word Label_01008386
@  #02 @074   ----------------------------------------
 .byte   PATT
  .word Label_0100838D
@  #02 @075   ----------------------------------------
 .byte   PATT
  .word Label_010083A4
@  #02 @076   ----------------------------------------
 .byte   PATT
  .word Label_010083AB
@  #02 @077   ----------------------------------------
 .byte   PATT
  .word Label_01008352
@  #02 @078   ----------------------------------------
 .byte   W96
@  #02 @079   ----------------------------------------
 .byte   PATT
  .word Label_010083B8
@  #02 @080   ----------------------------------------
 .byte   PATT
  .word Label_010083AB
@  #02 @081   ----------------------------------------
 .byte   PATT
  .word Label_010083C7
@  #02 @082   ----------------------------------------
 .byte   W96
@  #02 @083   ----------------------------------------
 .byte   PATT
  .word Label_010083B8
@  #02 @084   ----------------------------------------
 .byte   PATT
  .word Label_010083AB
@  #02 @085   ----------------------------------------
 .byte   PATT
  .word Label_010083C7
@  #02 @086   ----------------------------------------
 .byte   W96
@  #02 @087   ----------------------------------------
 .byte   PATT
  .word Label_010083DF
@  #02 @088   ----------------------------------------
 .byte   PATT
  .word Label_010083AB
@  #02 @089   ----------------------------------------
 .byte   PATT
  .word Label_010083C7
@  #02 @090   ----------------------------------------
 .byte   W96
@  #02 @091   ----------------------------------------
 .byte   PATT
  .word Label_010083F4
@  #02 @092   ----------------------------------------
 .byte   PATT
  .word Label_010083FE
@  #02 @093   ----------------------------------------
 .byte   PATT
  .word Label_01008405
@  #02 @094   ----------------------------------------
 .byte   N12 ,An0 ,v127
 .byte   N12 ,An1
 .byte   BEND , c_v+0
 .byte   W12
 .byte   N12 ,Gn0
 .byte   N12 ,Gn1
 .byte   W12
 .byte   An1
 .byte   N12 ,An0
 .byte   W12
 .byte   N18 ,An1
 .byte   N18 ,An0
 .byte   W48
 .byte   N48 ,Cn1
 .byte   N48 ,Cn2
 .byte   W12
@  #02 @095   ----------------------------------------
 .byte   PATT
  .word Label_010082BA
@  #02 @096   ----------------------------------------
 .byte   PATT
  .word Label_010082CB
@  #02 @097   ----------------------------------------
 .byte   PATT
  .word Label_010082E4
@  #02 @098   ----------------------------------------
 .byte   PATT
  .word Label_010082A1
@  #02 @099   ----------------------------------------
 .byte   PATT
  .word Label_010082BA
@  #02 @100   ----------------------------------------
 .byte   PATT
  .word Label_010082CB
@  #02 @101   ----------------------------------------
 .byte   PATT
  .word Label_01008304
@  #02 @102   ----------------------------------------
 .byte   PATT
  .word Label_01008316
@  #02 @103   ----------------------------------------
 .byte   PATT
  .word Label_0100831D
@  #02 @104   ----------------------------------------
 .byte   PATT
  .word Label_01008316
@  #02 @105   ----------------------------------------
 .byte   PATT
  .word Label_0100831D
@  #02 @106   ----------------------------------------
 .byte   PATT
  .word Label_01008340
@  #02 @107   ----------------------------------------
 .byte   PATT
  .word Label_01008347
@  #02 @108   ----------------------------------------
 .byte   PATT
  .word Label_01008352
@  #02 @109   ----------------------------------------
 .byte   PATT
  .word Label_01008359
@  #02 @110   ----------------------------------------
 .byte   PATT
  .word Label_01008316
@  #02 @111   ----------------------------------------
 .byte   PATT
  .word Label_0100831D
@  #02 @112   ----------------------------------------
 .byte   PATT
  .word Label_01008316
@  #02 @113   ----------------------------------------
 .byte   PATT
  .word Label_0100831D
@  #02 @114   ----------------------------------------
 .byte   PATT
  .word Label_01008340
@  #02 @115   ----------------------------------------
 .byte   PATT
  .word Label_01008347
@  #02 @116   ----------------------------------------
 .byte   PATT
  .word Label_01008386
@  #02 @117   ----------------------------------------
 .byte   PATT
  .word Label_0100838D
@  #02 @118   ----------------------------------------
 .byte   PATT
  .word Label_010083A4
@  #02 @119   ----------------------------------------
 .byte   PATT
  .word Label_010083AB
@  #02 @120   ----------------------------------------
 .byte   PATT
  .word Label_01008352
@  #02 @121   ----------------------------------------
 .byte   W96
@  #02 @122   ----------------------------------------
 .byte   PATT
  .word Label_010083B8
@  #02 @123   ----------------------------------------
 .byte   PATT
  .word Label_010083AB
@  #02 @124   ----------------------------------------
 .byte   PATT
  .word Label_010083C7
@  #02 @125   ----------------------------------------
 .byte   W96
@  #02 @126   ----------------------------------------
 .byte   PATT
  .word Label_010083B8
@  #02 @127   ----------------------------------------
 .byte   PATT
  .word Label_010083AB
@  #02 @128   ----------------------------------------
 .byte   PATT
  .word Label_010083C7
@  #02 @129   ----------------------------------------
 .byte   W96
@  #02 @130   ----------------------------------------
 .byte   PATT
  .word Label_010083DF
@  #02 @131   ----------------------------------------
 .byte   PATT
  .word Label_010083AB
@  #02 @132   ----------------------------------------
 .byte   PATT
  .word Label_010083C7
@  #02 @133   ----------------------------------------
 .byte   W96
@  #02 @134   ----------------------------------------
 .byte   PATT
  .word Label_010083F4
@  #02 @135   ----------------------------------------
 .byte   PATT
  .word Label_010083FE
@  #02 @136   ----------------------------------------
 .byte   PATT
  .word Label_01008405
@  #02 @137   ----------------------------------------
 .byte   BEND , c_v+0
 .byte   GOTO
  .word Label_01008421
@  #02 @138   ----------------------------------------
 .byte   W96
@  #02 @139   ----------------------------------------
 .byte   Fs2
 .byte   FINE

@**************** Track 3 (Midi-Chn.2) ****************@

song02_003:
@  #03 @000   ----------------------------------------
 .byte   KEYSH , song02_key+0
 .byte   VOICE , 34
 .byte   VOL , 39*song02_mvl/mxv
 .byte   N24 ,An0 ,v127
 .byte   BENDR, 12
 .byte   W24
 .byte   N12 ,Cn1
 .byte   W12
 .byte   N36 ,Gn0
 .byte   W36
 .byte   N06
 .byte   W12
 .byte   Gn0
 .byte   W12
@  #03 @001   ----------------------------------------
Label_01003D66:
 .byte   N24 ,An0 ,v127
 .byte   W24
 .byte   N12 ,Cn1
 .byte   W12
 .byte   N36 ,Gn0
 .byte   W36
 .byte   N06
 .byte   W12
 .byte   Gn0
 .byte   W12
 .byte   PEND 
@  #03 @002   ----------------------------------------
 .byte   PATT
  .word Label_01003D66
@  #03 @003   ----------------------------------------
 .byte   N24 ,An0 ,v127
 .byte   W24
 .byte   N12 ,Cn1
 .byte   W12
 .byte   N60 ,Gn0
 .byte   W60
@  #03 @004   ----------------------------------------
 .byte   PATT
  .word Label_01003D66
@  #03 @005   ----------------------------------------
 .byte   PATT
  .word Label_01003D66
@  #03 @006   ----------------------------------------
 .byte   PATT
  .word Label_01003D66
@  #03 @007   ----------------------------------------
 .byte   N36 ,Gn0 ,v127
 .byte   W36
 .byte   N60 ,Dn1
 .byte   W60
@  #03 @008   ----------------------------------------
Label_01003D9A:
 .byte   N12 ,An0 ,v127
 .byte   W12
 .byte   Gn0
 .byte   W12
 .byte   An0
 .byte   W12
 .byte   N24
 .byte   W24
 .byte   N12 ,Gn0
 .byte   W12
 .byte   Gn0
 .byte   W12
 .byte   N24 ,Cn1
 .byte   W12
 .byte   PEND 
@  #03 @009   ----------------------------------------
Label_01003DAD:
 .byte   W12
 .byte   N12 ,Cn1 ,v127
 .byte   W12
 .byte   Cn1
 .byte   W12
 .byte   N24 ,Dn1
 .byte   W24
 .byte   N12
 .byte   W12
 .byte   N24 ,Gn0
 .byte   W24
 .byte   PEND 
@  #03 @010   ----------------------------------------
Label_01003DBD:
 .byte   N12 ,An0 ,v127
 .byte   W12
 .byte   Gn0
 .byte   W12
 .byte   An0
 .byte   W12
 .byte   N24
 .byte   W24
 .byte   N12 ,Gn0
 .byte   W12
 .byte   Gn0
 .byte   W12
 .byte   N24
 .byte   W12
 .byte   PEND 
@  #03 @011   ----------------------------------------
Label_01003DCF:
 .byte   W12
 .byte   N12 ,Gn0 ,v127
 .byte   W12
 .byte   Gn0
 .byte   W12
 .byte   N24 ,Cn1
 .byte   W24
 .byte   N12
 .byte   W12
 .byte   N24 ,Bn0
 .byte   W24
 .byte   PEND 
@  #03 @012   ----------------------------------------
 .byte   PATT
  .word Label_01003D9A
@  #03 @013   ----------------------------------------
 .byte   PATT
  .word Label_01003DAD
@  #03 @014   ----------------------------------------
 .byte   PATT
  .word Label_01003DBD
@  #03 @015   ----------------------------------------
 .byte   PATT
  .word Label_01003DCF
@  #03 @016   ----------------------------------------
Label_01003DF3:
 .byte   N12 ,An0 ,v127
 .byte   W12
 .byte   An0
 .byte   W12
 .byte   An0
 .byte   W12
 .byte   An0
 .byte   W12
 .byte   An0
 .byte   W12
 .byte   An0
 .byte   W12
 .byte   An0
 .byte   W12
 .byte   An0
 .byte   W12
 .byte   PEND 
@  #03 @017   ----------------------------------------
 .byte   PATT
  .word Label_01003DF3
@  #03 @018   ----------------------------------------
 .byte   PATT
  .word Label_01003DF3
@  #03 @019   ----------------------------------------
 .byte   PATT
  .word Label_01003DF3
@  #03 @020   ----------------------------------------
Label_01003E15:
 .byte   N12 ,Gn0 ,v127
 .byte   W12
 .byte   Gn0
 .byte   W12
 .byte   Gn0
 .byte   W12
 .byte   Gn0
 .byte   W12
 .byte   Gn0
 .byte   W12
 .byte   Gn0
 .byte   W12
 .byte   Gn0
 .byte   W12
 .byte   Gn0
 .byte   W12
 .byte   PEND 
@  #03 @021   ----------------------------------------
 .byte   PATT
  .word Label_01003E15
@  #03 @022   ----------------------------------------
Label_01003E2D:
 .byte   N12 ,Fn0 ,v127
 .byte   W12
 .byte   Fn0
 .byte   W12
 .byte   Fn0
 .byte   W12
 .byte   Fn0
 .byte   W12
 .byte   Fn0
 .byte   W12
 .byte   Fn0
 .byte   W12
 .byte   Fn0
 .byte   W12
 .byte   Fn0
 .byte   W12
 .byte   PEND 
@  #03 @023   ----------------------------------------
Label_01003E40:
 .byte   N12 ,Fn0 ,v127
 .byte   W12
 .byte   Fn0
 .byte   W12
 .byte   Fn0
 .byte   W12
 .byte   Fn0
 .byte   W12
 .byte   N24 ,Cn1
 .byte   W24
 .byte   Gn0
 .byte   W24
 .byte   PEND 
@  #03 @024   ----------------------------------------
 .byte   PATT
  .word Label_01003DF3
@  #03 @025   ----------------------------------------
 .byte   PATT
  .word Label_01003DF3
@  #03 @026   ----------------------------------------
 .byte   PATT
  .word Label_01003DF3
@  #03 @027   ----------------------------------------
 .byte   PATT
  .word Label_01003DF3
@  #03 @028   ----------------------------------------
 .byte   PATT
  .word Label_01003E15
@  #03 @029   ----------------------------------------
 .byte   PATT
  .word Label_01003E15
@  #03 @030   ----------------------------------------
 .byte   PATT
  .word Label_01003E2D
@  #03 @031   ----------------------------------------
 .byte   PATT
  .word Label_01003E40
@  #03 @032   ----------------------------------------
Label_01003E78:
 .byte   N06 ,Cs1 ,v127
 .byte   W12
 .byte   Cs1
 .byte   W06
 .byte   Cs1
 .byte   W06
 .byte   Cs1
 .byte   W12
 .byte   Cs1
 .byte   W06
 .byte   Cs1
 .byte   W06
 .byte   Cs1
 .byte   W12
 .byte   Cs1
 .byte   W06
 .byte   Cs1
 .byte   W06
 .byte   Cs1
 .byte   W12
 .byte   Cs1
 .byte   W06
 .byte   Cs1
 .byte   W06
 .byte   PEND 
@  #03 @033   ----------------------------------------
Label_01003E93:
 .byte   N06 ,As0 ,v127
 .byte   W12
 .byte   As0
 .byte   W06
 .byte   As0
 .byte   W06
 .byte   As0
 .byte   W12
 .byte   As0
 .byte   W06
 .byte   As0
 .byte   W06
 .byte   As0
 .byte   W12
 .byte   As0
 .byte   W06
 .byte   As0
 .byte   W06
 .byte   As0
 .byte   W12
 .byte   As0
 .byte   W06
 .byte   As0
 .byte   W06
 .byte   PEND 
@  #03 @034   ----------------------------------------
Label_01003EAE:
 .byte   N06 ,Fn0 ,v127
 .byte   W12
 .byte   Fn0
 .byte   W06
 .byte   Fn0
 .byte   W06
 .byte   Fn0
 .byte   W12
 .byte   Fn0
 .byte   W06
 .byte   Fn0
 .byte   W06
 .byte   Fn0
 .byte   W12
 .byte   Fn0
 .byte   W06
 .byte   Fn0
 .byte   W06
 .byte   Fn0
 .byte   W12
 .byte   Fn0
 .byte   W06
 .byte   Fn0
 .byte   W06
 .byte   PEND 
@  #03 @035   ----------------------------------------
Label_01003EC9:
 .byte   N12 ,Fn0 ,v127
 .byte   W12
 .byte   Fn0
 .byte   W12
 .byte   Gs0
 .byte   W12
 .byte   Fn0
 .byte   W12
 .byte   N24 ,As0
 .byte   W24
 .byte   Cn1
 .byte   W24
 .byte   PEND 
@  #03 @036   ----------------------------------------
 .byte   PATT
  .word Label_01003E78
@  #03 @037   ----------------------------------------
 .byte   PATT
  .word Label_01003E93
@  #03 @038   ----------------------------------------
 .byte   PATT
  .word Label_01003EAE
@  #03 @039   ----------------------------------------
 .byte   PATT
  .word Label_01003EC9
@  #03 @040   ----------------------------------------
 .byte   PATT
  .word Label_01003E78
@  #03 @041   ----------------------------------------
 .byte   PATT
  .word Label_01003E93
@  #03 @042   ----------------------------------------
 .byte   PATT
  .word Label_01003EAE
@  #03 @043   ----------------------------------------
 .byte   PATT
  .word Label_01003EC9
@  #03 @044   ----------------------------------------
 .byte   PATT
  .word Label_01003E78
@  #03 @045   ----------------------------------------
 .byte   PATT
  .word Label_01003E93
@  #03 @046   ----------------------------------------
 .byte   PATT
  .word Label_01003EAE
@  #03 @047   ----------------------------------------
 .byte   PATT
  .word Label_01003EC9
@  #03 @048   ----------------------------------------
Label_01003F15:
 .byte   N18 ,Cs1 ,v127
 .byte   W18
 .byte   N06
 .byte   W06
 .byte   N24
 .byte   W24
 .byte   N06
 .byte   W12
 .byte   Cs1
 .byte   W12
 .byte   Cs1
 .byte   W12
 .byte   Cs1
 .byte   W12
 .byte   PEND 
@  #03 @049   ----------------------------------------
Label_01003F26:
 .byte   N18 ,Ds1 ,v127
 .byte   W18
 .byte   N06
 .byte   W06
 .byte   N24
 .byte   W24
 .byte   N06
 .byte   W12
 .byte   Ds1
 .byte   W12
 .byte   Ds1
 .byte   W12
 .byte   Ds1
 .byte   W12
 .byte   PEND 
@  #03 @050   ----------------------------------------
 .byte   N96
 .byte   W96
@  #03 @051   ----------------------------------------
Label_01003F39:
 .byte   N12 ,An0 ,v127
 .byte   W12
 .byte   Gn0
 .byte   W12
 .byte   An0
 .byte   W12
 .byte   N24
 .byte   W24
 .byte   N12 ,Gn0
 .byte   W12
 .byte   Gn0
 .byte   W12
 .byte   N24 ,Cn1
 .byte   W12
@  #03 @052   ----------------------------------------
 .byte   PATT
  .word Label_01003DAD
@  #03 @053   ----------------------------------------
 .byte   PATT
  .word Label_01003DBD
@  #03 @054   ----------------------------------------
 .byte   PATT
  .word Label_01003DCF
@  #03 @055   ----------------------------------------
 .byte   PATT
  .word Label_01003D9A
@  #03 @056   ----------------------------------------
 .byte   PATT
  .word Label_01003DAD
@  #03 @057   ----------------------------------------
 .byte   PATT
  .word Label_01003DBD
@  #03 @058   ----------------------------------------
 .byte   PATT
  .word Label_01003DCF
@  #03 @059   ----------------------------------------
 .byte   PATT
  .word Label_01003DF3
@  #03 @060   ----------------------------------------
 .byte   PATT
  .word Label_01003DF3
@  #03 @061   ----------------------------------------
 .byte   PATT
  .word Label_01003DF3
@  #03 @062   ----------------------------------------
 .byte   PATT
  .word Label_01003DF3
@  #03 @063   ----------------------------------------
 .byte   PATT
  .word Label_01003E15
@  #03 @064   ----------------------------------------
 .byte   PATT
  .word Label_01003E15
@  #03 @065   ----------------------------------------
 .byte   PATT
  .word Label_01003E2D
@  #03 @066   ----------------------------------------
 .byte   PATT
  .word Label_01003E40
@  #03 @067   ----------------------------------------
 .byte   PATT
  .word Label_01003DF3
@  #03 @068   ----------------------------------------
 .byte   PATT
  .word Label_01003DF3
@  #03 @069   ----------------------------------------
 .byte   PATT
  .word Label_01003DF3
@  #03 @070   ----------------------------------------
 .byte   PATT
  .word Label_01003DF3
@  #03 @071   ----------------------------------------
 .byte   PATT
  .word Label_01003E15
@  #03 @072   ----------------------------------------
 .byte   PATT
  .word Label_01003E15
@  #03 @073   ----------------------------------------
 .byte   PATT
  .word Label_01003E2D
@  #03 @074   ----------------------------------------
 .byte   PATT
  .word Label_01003E40
@  #03 @075   ----------------------------------------
 .byte   PATT
  .word Label_01003E78
@  #03 @076   ----------------------------------------
 .byte   PATT
  .word Label_01003E93
@  #03 @077   ----------------------------------------
 .byte   PATT
  .word Label_01003EAE
@  #03 @078   ----------------------------------------
 .byte   PATT
  .word Label_01003EC9
@  #03 @079   ----------------------------------------
 .byte   PATT
  .word Label_01003E78
@  #03 @080   ----------------------------------------
 .byte   PATT
  .word Label_01003E93
@  #03 @081   ----------------------------------------
 .byte   PATT
  .word Label_01003EAE
@  #03 @082   ----------------------------------------
 .byte   PATT
  .word Label_01003EC9
@  #03 @083   ----------------------------------------
 .byte   PATT
  .word Label_01003E78
@  #03 @084   ----------------------------------------
 .byte   PATT
  .word Label_01003E93
@  #03 @085   ----------------------------------------
 .byte   PATT
  .word Label_01003EAE
@  #03 @086   ----------------------------------------
 .byte   PATT
  .word Label_01003EC9
@  #03 @087   ----------------------------------------
 .byte   PATT
  .word Label_01003E78
@  #03 @088   ----------------------------------------
 .byte   PATT
  .word Label_01003E93
@  #03 @089   ----------------------------------------
 .byte   PATT
  .word Label_01003EAE
@  #03 @090   ----------------------------------------
 .byte   PATT
  .word Label_01003EC9
@  #03 @091   ----------------------------------------
 .byte   PATT
  .word Label_01003F15
@  #03 @092   ----------------------------------------
 .byte   PATT
  .word Label_01003F26
@  #03 @093   ----------------------------------------
 .byte   N96 ,Ds1 ,v127
 .byte   W96
@  #03 @094   ----------------------------------------
 .byte   PATT
  .word Label_01003D9A
@  #03 @095   ----------------------------------------
 .byte   PATT
  .word Label_01003DAD
@  #03 @096   ----------------------------------------
 .byte   PATT
  .word Label_01003DBD
@  #03 @097   ----------------------------------------
 .byte   PATT
  .word Label_01003DCF
@  #03 @098   ----------------------------------------
 .byte   PATT
  .word Label_01003D9A
@  #03 @099   ----------------------------------------
 .byte   PATT
  .word Label_01003DAD
@  #03 @100   ----------------------------------------
 .byte   PATT
  .word Label_01003DBD
@  #03 @101   ----------------------------------------
 .byte   PATT
  .word Label_01003DCF
@  #03 @102   ----------------------------------------
 .byte   PATT
  .word Label_01003DF3
@  #03 @103   ----------------------------------------
 .byte   PATT
  .word Label_01003DF3
@  #03 @104   ----------------------------------------
 .byte   PATT
  .word Label_01003DF3
@  #03 @105   ----------------------------------------
 .byte   PATT
  .word Label_01003DF3
@  #03 @106   ----------------------------------------
 .byte   PATT
  .word Label_01003E15
@  #03 @107   ----------------------------------------
 .byte   PATT
  .word Label_01003E15
@  #03 @108   ----------------------------------------
 .byte   PATT
  .word Label_01003E2D
@  #03 @109   ----------------------------------------
 .byte   PATT
  .word Label_01003E40
@  #03 @110   ----------------------------------------
 .byte   PATT
  .word Label_01003DF3
@  #03 @111   ----------------------------------------
 .byte   PATT
  .word Label_01003DF3
@  #03 @112   ----------------------------------------
 .byte   PATT
  .word Label_01003DF3
@  #03 @113   ----------------------------------------
 .byte   PATT
  .word Label_01003DF3
@  #03 @114   ----------------------------------------
 .byte   PATT
  .word Label_01003E15
@  #03 @115   ----------------------------------------
 .byte   PATT
  .word Label_01003E15
@  #03 @116   ----------------------------------------
 .byte   PATT
  .word Label_01003E2D
@  #03 @117   ----------------------------------------
 .byte   PATT
  .word Label_01003E40
@  #03 @118   ----------------------------------------
 .byte   PATT
  .word Label_01003E78
@  #03 @119   ----------------------------------------
 .byte   PATT
  .word Label_01003E93
@  #03 @120   ----------------------------------------
 .byte   PATT
  .word Label_01003EAE
@  #03 @121   ----------------------------------------
 .byte   PATT
  .word Label_01003EC9
@  #03 @122   ----------------------------------------
 .byte   PATT
  .word Label_01003E78
@  #03 @123   ----------------------------------------
 .byte   PATT
  .word Label_01003E93
@  #03 @124   ----------------------------------------
 .byte   PATT
  .word Label_01003EAE
@  #03 @125   ----------------------------------------
 .byte   PATT
  .word Label_01003EC9
@  #03 @126   ----------------------------------------
 .byte   PATT
  .word Label_01003E78
@  #03 @127   ----------------------------------------
 .byte   PATT
  .word Label_01003E93
@  #03 @128   ----------------------------------------
 .byte   PATT
  .word Label_01003EAE
@  #03 @129   ----------------------------------------
 .byte   PATT
  .word Label_01003EC9
@  #03 @130   ----------------------------------------
 .byte   PATT
  .word Label_01003E78
@  #03 @131   ----------------------------------------
 .byte   PATT
  .word Label_01003E93
@  #03 @132   ----------------------------------------
 .byte   PATT
  .word Label_01003EAE
@  #03 @133   ----------------------------------------
 .byte   PATT
  .word Label_01003EC9
@  #03 @134   ----------------------------------------
 .byte   PATT
  .word Label_01003F15
@  #03 @135   ----------------------------------------
 .byte   PATT
  .word Label_01003F26
@  #03 @136   ----------------------------------------
 .byte   N96 ,Ds1 ,v127
 .byte   W96
@  #03 @137   ----------------------------------------
 .byte   GOTO
  .word Label_01003F39
@  #03 @138   ----------------------------------------
 .byte   W96
 .byte   FINE

@**************** Track 4 (Midi-Chn.3) ****************@

song02_004:
@  #04 @000   ----------------------------------------
 .byte   KEYSH , song02_key+0
 .byte   VOICE , 100
 .byte   VOL , 46*song02_mvl/mxv
 .byte   PAN , c_v-8
 .byte   BENDR, 12
 .byte   W96
@  #04 @001   ----------------------------------------
 .byte   W96
@  #04 @002   ----------------------------------------
 .byte   W96
@  #04 @003   ----------------------------------------
 .byte   W96
@  #04 @004   ----------------------------------------
 .byte   W96
@  #04 @005   ----------------------------------------
 .byte   W96
@  #04 @006   ----------------------------------------
 .byte   W96
@  #04 @007   ----------------------------------------
 .byte   W96
@  #04 @008   ----------------------------------------
 .byte   W96
@  #04 @009   ----------------------------------------
 .byte   W96
@  #04 @010   ----------------------------------------
 .byte   W96
@  #04 @011   ----------------------------------------
 .byte   W96
@  #04 @012   ----------------------------------------
 .byte   W96
@  #04 @013   ----------------------------------------
 .byte   W96
@  #04 @014   ----------------------------------------
 .byte   W96
@  #04 @015   ----------------------------------------
 .byte   W96
@  #04 @016   ----------------------------------------
 .byte   W96
@  #04 @017   ----------------------------------------
 .byte   W96
@  #04 @018   ----------------------------------------
 .byte   W96
@  #04 @019   ----------------------------------------
 .byte   W96
@  #04 @020   ----------------------------------------
 .byte   W96
@  #04 @021   ----------------------------------------
 .byte   W96
@  #04 @022   ----------------------------------------
 .byte   W96
@  #04 @023   ----------------------------------------
 .byte   W96
@  #04 @024   ----------------------------------------
 .byte   W96
@  #04 @025   ----------------------------------------
 .byte   W96
@  #04 @026   ----------------------------------------
 .byte   W96
@  #04 @027   ----------------------------------------
 .byte   W96
@  #04 @028   ----------------------------------------
 .byte   W96
@  #04 @029   ----------------------------------------
 .byte   W96
@  #04 @030   ----------------------------------------
 .byte   W96
@  #04 @031   ----------------------------------------
Label_0100304D:
 .byte   W72
 .byte   N06 ,Fn3 ,v127
 .byte   W06
 .byte   Gs3
 .byte   W06
 .byte   Cn4
 .byte   W06
 .byte   Ds4
 .byte   W06
 .byte   PEND 
@  #04 @032   ----------------------------------------
 .byte   TIE ,Fn4
 .byte   W96
@  #04 @033   ----------------------------------------
Label_0100305C:
 .byte   W48
 .byte   EOT
 .byte   Fn4
 .byte   N24 ,Gs4 ,v127
 .byte   W24
 .byte   N12 ,Gn4
 .byte   W12
 .byte   TIE ,Ds4
 .byte   W12
 .byte   PEND 
@  #04 @034   ----------------------------------------
 .byte   W96
@  #04 @035   ----------------------------------------
Label_0100306B:
 .byte   W48
 .byte   EOT
 .byte   Ds4
 .byte   N24 ,Gs4 ,v127
 .byte   W24
 .byte   N12 ,Gn4
 .byte   W12
 .byte   TIE ,Cn4
 .byte   W12
 .byte   PEND 
@  #04 @036   ----------------------------------------
 .byte   W96
@  #04 @037   ----------------------------------------
Label_0100307A:
 .byte   W48
 .byte   EOT
 .byte   Cn4
 .byte   N24 ,Gs4 ,v127
 .byte   W24
 .byte   N12 ,Gn4
 .byte   W12
 .byte   TIE ,Gs3
 .byte   W12
 .byte   PEND 
@  #04 @038   ----------------------------------------
 .byte   W96
@  #04 @039   ----------------------------------------
Label_01003089:
 .byte   EOT
 .byte   Gs3
 .byte   W72
 .byte   N06 ,Fn3 ,v127
 .byte   W06
 .byte   Gs3
 .byte   W06
 .byte   Cn4
 .byte   W06
 .byte   Ds4
 .byte   W06
 .byte   PEND 
@  #04 @040   ----------------------------------------
 .byte   TIE ,Fn4
 .byte   W96
@  #04 @041   ----------------------------------------
 .byte   PATT
  .word Label_0100305C
@  #04 @042   ----------------------------------------
 .byte   W96
@  #04 @043   ----------------------------------------
 .byte   PATT
  .word Label_0100306B
@  #04 @044   ----------------------------------------
 .byte   W96
@  #04 @045   ----------------------------------------
 .byte   PATT
  .word Label_0100307A
@  #04 @046   ----------------------------------------
 .byte   W96
@  #04 @047   ----------------------------------------
 .byte   EOT
 .byte   Gs3
 .byte   W96
@  #04 @048   ----------------------------------------
 .byte   W96
@  #04 @049   ----------------------------------------
 .byte   W96
@  #04 @050   ----------------------------------------
 .byte   W96
@  #04 @051   ----------------------------------------
Label_010030B2:
 .byte   W96
@  #04 @052   ----------------------------------------
 .byte   W96
@  #04 @053   ----------------------------------------
 .byte   W96
@  #04 @054   ----------------------------------------
 .byte   W96
@  #04 @055   ----------------------------------------
 .byte   W96
@  #04 @056   ----------------------------------------
 .byte   W96
@  #04 @057   ----------------------------------------
 .byte   W96
@  #04 @058   ----------------------------------------
 .byte   W96
@  #04 @059   ----------------------------------------
 .byte   W96
@  #04 @060   ----------------------------------------
 .byte   W96
@  #04 @061   ----------------------------------------
 .byte   W96
@  #04 @062   ----------------------------------------
 .byte   W96
@  #04 @063   ----------------------------------------
 .byte   W96
@  #04 @064   ----------------------------------------
 .byte   W96
@  #04 @065   ----------------------------------------
 .byte   W96
@  #04 @066   ----------------------------------------
 .byte   W96
@  #04 @067   ----------------------------------------
 .byte   W96
@  #04 @068   ----------------------------------------
 .byte   W96
@  #04 @069   ----------------------------------------
 .byte   W96
@  #04 @070   ----------------------------------------
 .byte   W96
@  #04 @071   ----------------------------------------
 .byte   W96
@  #04 @072   ----------------------------------------
 .byte   W96
@  #04 @073   ----------------------------------------
 .byte   W96
@  #04 @074   ----------------------------------------
 .byte   PATT
  .word Label_0100304D
@  #04 @075   ----------------------------------------
 .byte   TIE ,Fn4 ,v127
 .byte   W96
@  #04 @076   ----------------------------------------
 .byte   PATT
  .word Label_0100305C
@  #04 @077   ----------------------------------------
 .byte   W96
@  #04 @078   ----------------------------------------
 .byte   PATT
  .word Label_0100306B
@  #04 @079   ----------------------------------------
 .byte   W96
@  #04 @080   ----------------------------------------
 .byte   PATT
  .word Label_0100307A
@  #04 @081   ----------------------------------------
 .byte   W96
@  #04 @082   ----------------------------------------
 .byte   PATT
  .word Label_01003089
@  #04 @083   ----------------------------------------
 .byte   TIE ,Fn4 ,v127
 .byte   W96
@  #04 @084   ----------------------------------------
 .byte   PATT
  .word Label_0100305C
@  #04 @085   ----------------------------------------
 .byte   W96
@  #04 @086   ----------------------------------------
 .byte   PATT
  .word Label_0100306B
@  #04 @087   ----------------------------------------
 .byte   W96
@  #04 @088   ----------------------------------------
 .byte   PATT
  .word Label_0100307A
@  #04 @089   ----------------------------------------
 .byte   W96
@  #04 @090   ----------------------------------------
 .byte   EOT
 .byte   Gs3
 .byte   W96
@  #04 @091   ----------------------------------------
 .byte   W96
@  #04 @092   ----------------------------------------
 .byte   W96
@  #04 @093   ----------------------------------------
 .byte   W96
@  #04 @094   ----------------------------------------
 .byte   W96
@  #04 @095   ----------------------------------------
 .byte   W96
@  #04 @096   ----------------------------------------
 .byte   W96
@  #04 @097   ----------------------------------------
 .byte   W96
@  #04 @098   ----------------------------------------
 .byte   W96
@  #04 @099   ----------------------------------------
 .byte   W96
@  #04 @100   ----------------------------------------
 .byte   W96
@  #04 @101   ----------------------------------------
 .byte   W96
@  #04 @102   ----------------------------------------
 .byte   W96
@  #04 @103   ----------------------------------------
 .byte   W96
@  #04 @104   ----------------------------------------
 .byte   W96
@  #04 @105   ----------------------------------------
 .byte   W96
@  #04 @106   ----------------------------------------
 .byte   W96
@  #04 @107   ----------------------------------------
 .byte   W96
@  #04 @108   ----------------------------------------
 .byte   W96
@  #04 @109   ----------------------------------------
 .byte   W96
@  #04 @110   ----------------------------------------
 .byte   W96
@  #04 @111   ----------------------------------------
 .byte   W96
@  #04 @112   ----------------------------------------
 .byte   W96
@  #04 @113   ----------------------------------------
 .byte   W96
@  #04 @114   ----------------------------------------
 .byte   W96
@  #04 @115   ----------------------------------------
 .byte   W96
@  #04 @116   ----------------------------------------
 .byte   W96
@  #04 @117   ----------------------------------------
 .byte   PATT
  .word Label_0100304D
@  #04 @118   ----------------------------------------
 .byte   TIE ,Fn4 ,v127
 .byte   W96
@  #04 @119   ----------------------------------------
 .byte   PATT
  .word Label_0100305C
@  #04 @120   ----------------------------------------
 .byte   W96
@  #04 @121   ----------------------------------------
 .byte   PATT
  .word Label_0100306B
@  #04 @122   ----------------------------------------
 .byte   W96
@  #04 @123   ----------------------------------------
 .byte   PATT
  .word Label_0100307A
@  #04 @124   ----------------------------------------
 .byte   W96
@  #04 @125   ----------------------------------------
 .byte   PATT
  .word Label_01003089
@  #04 @126   ----------------------------------------
 .byte   TIE ,Fn4 ,v127
 .byte   W96
@  #04 @127   ----------------------------------------
 .byte   PATT
  .word Label_0100305C
@  #04 @128   ----------------------------------------
 .byte   W96
@  #04 @129   ----------------------------------------
 .byte   PATT
  .word Label_0100306B
@  #04 @130   ----------------------------------------
 .byte   W96
@  #04 @131   ----------------------------------------
 .byte   PATT
  .word Label_0100307A
@  #04 @132   ----------------------------------------
 .byte   W96
@  #04 @133   ----------------------------------------
 .byte   EOT
 .byte   Gs3
 .byte   W96
@  #04 @134   ----------------------------------------
 .byte   W96
@  #04 @135   ----------------------------------------
 .byte   W96
@  #04 @136   ----------------------------------------
 .byte   W96
@  #04 @137   ----------------------------------------
 .byte   GOTO
  .word Label_010030B2
@  #04 @138   ----------------------------------------
 .byte   W96
 .byte   FINE

@**************** Track 5 (Midi-Chn.4) ****************@

song02_005:
@  #05 @000   ----------------------------------------
 .byte   KEYSH , song02_key+0
 .byte   VOICE , 100
 .byte   VOL , 46*song02_mvl/mxv
 .byte   PAN , c_v+6
 .byte   BENDR, 12
 .byte   W96
@  #05 @001   ----------------------------------------
 .byte   W96
@  #05 @002   ----------------------------------------
 .byte   W96
@  #05 @003   ----------------------------------------
 .byte   W96
@  #05 @004   ----------------------------------------
 .byte   W96
@  #05 @005   ----------------------------------------
 .byte   W96
@  #05 @006   ----------------------------------------
 .byte   W96
@  #05 @007   ----------------------------------------
 .byte   W96
@  #05 @008   ----------------------------------------
 .byte   W96
@  #05 @009   ----------------------------------------
 .byte   W96
@  #05 @010   ----------------------------------------
 .byte   W96
@  #05 @011   ----------------------------------------
 .byte   W96
@  #05 @012   ----------------------------------------
 .byte   W96
@  #05 @013   ----------------------------------------
 .byte   W96
@  #05 @014   ----------------------------------------
 .byte   W96
@  #05 @015   ----------------------------------------
 .byte   W96
@  #05 @016   ----------------------------------------
 .byte   W96
@  #05 @017   ----------------------------------------
 .byte   W96
@  #05 @018   ----------------------------------------
 .byte   W96
@  #05 @019   ----------------------------------------
 .byte   W96
@  #05 @020   ----------------------------------------
 .byte   W96
@  #05 @021   ----------------------------------------
 .byte   W96
@  #05 @022   ----------------------------------------
 .byte   W96
@  #05 @023   ----------------------------------------
 .byte   W96
@  #05 @024   ----------------------------------------
 .byte   W96
@  #05 @025   ----------------------------------------
 .byte   W96
@  #05 @026   ----------------------------------------
 .byte   W96
@  #05 @027   ----------------------------------------
 .byte   W96
@  #05 @028   ----------------------------------------
 .byte   W96
@  #05 @029   ----------------------------------------
 .byte   W96
@  #05 @030   ----------------------------------------
 .byte   W96
@  #05 @031   ----------------------------------------
 .byte   W96
@  #05 @032   ----------------------------------------
 .byte   W96
@  #05 @033   ----------------------------------------
 .byte   W96
@  #05 @034   ----------------------------------------
Label_010005FC:
 .byte   W48
 .byte   N24 ,Gs4 ,v059
 .byte   W24
 .byte   N12 ,Gn4
 .byte   W12
 .byte   TIE ,Ds4
 .byte   W12
 .byte   PEND 
@  #05 @035   ----------------------------------------
 .byte   W96
@  #05 @036   ----------------------------------------
 .byte   W48
 .byte   EOT
 .byte   W48
@  #05 @037   ----------------------------------------
 .byte   W96
@  #05 @038   ----------------------------------------
 .byte   W96
@  #05 @039   ----------------------------------------
 .byte   W96
@  #05 @040   ----------------------------------------
 .byte   W96
@  #05 @041   ----------------------------------------
 .byte   W96
@  #05 @042   ----------------------------------------
 .byte   PATT
  .word Label_010005FC
@  #05 @043   ----------------------------------------
 .byte   W96
@  #05 @044   ----------------------------------------
 .byte   W48
 .byte   EOT
 .byte   Ds4
 .byte   W48
@  #05 @045   ----------------------------------------
 .byte   W96
@  #05 @046   ----------------------------------------
 .byte   W96
@  #05 @047   ----------------------------------------
 .byte   W96
@  #05 @048   ----------------------------------------
 .byte   W96
@  #05 @049   ----------------------------------------
 .byte   W96
@  #05 @050   ----------------------------------------
 .byte   W96
@  #05 @051   ----------------------------------------
Label_01000621:
 .byte   W96
@  #05 @052   ----------------------------------------
 .byte   W96
@  #05 @053   ----------------------------------------
 .byte   W96
@  #05 @054   ----------------------------------------
 .byte   W96
@  #05 @055   ----------------------------------------
 .byte   W96
@  #05 @056   ----------------------------------------
 .byte   W96
@  #05 @057   ----------------------------------------
 .byte   W96
@  #05 @058   ----------------------------------------
 .byte   W96
@  #05 @059   ----------------------------------------
 .byte   W96
@  #05 @060   ----------------------------------------
 .byte   W96
@  #05 @061   ----------------------------------------
 .byte   W96
@  #05 @062   ----------------------------------------
 .byte   W96
@  #05 @063   ----------------------------------------
 .byte   W96
@  #05 @064   ----------------------------------------
 .byte   W96
@  #05 @065   ----------------------------------------
 .byte   W96
@  #05 @066   ----------------------------------------
 .byte   W96
@  #05 @067   ----------------------------------------
 .byte   W96
@  #05 @068   ----------------------------------------
 .byte   W96
@  #05 @069   ----------------------------------------
 .byte   W96
@  #05 @070   ----------------------------------------
 .byte   W96
@  #05 @071   ----------------------------------------
 .byte   W96
@  #05 @072   ----------------------------------------
 .byte   W96
@  #05 @073   ----------------------------------------
 .byte   W96
@  #05 @074   ----------------------------------------
 .byte   W96
@  #05 @075   ----------------------------------------
 .byte   W96
@  #05 @076   ----------------------------------------
 .byte   W96
@  #05 @077   ----------------------------------------
 .byte   PATT
  .word Label_010005FC
@  #05 @078   ----------------------------------------
 .byte   W96
@  #05 @079   ----------------------------------------
 .byte   W48
 .byte   EOT
 .byte   Ds4
 .byte   W48
@  #05 @080   ----------------------------------------
 .byte   W96
@  #05 @081   ----------------------------------------
 .byte   W96
@  #05 @082   ----------------------------------------
 .byte   W96
@  #05 @083   ----------------------------------------
 .byte   W96
@  #05 @084   ----------------------------------------
 .byte   W96
@  #05 @085   ----------------------------------------
 .byte   PATT
  .word Label_010005FC
@  #05 @086   ----------------------------------------
 .byte   W96
@  #05 @087   ----------------------------------------
 .byte   W48
 .byte   EOT
 .byte   Ds4
 .byte   W48
@  #05 @088   ----------------------------------------
 .byte   W96
@  #05 @089   ----------------------------------------
 .byte   W96
@  #05 @090   ----------------------------------------
 .byte   W96
@  #05 @091   ----------------------------------------
 .byte   W96
@  #05 @092   ----------------------------------------
 .byte   W96
@  #05 @093   ----------------------------------------
 .byte   W96
@  #05 @094   ----------------------------------------
 .byte   W96
@  #05 @095   ----------------------------------------
 .byte   W96
@  #05 @096   ----------------------------------------
 .byte   W96
@  #05 @097   ----------------------------------------
 .byte   W96
@  #05 @098   ----------------------------------------
 .byte   W96
@  #05 @099   ----------------------------------------
 .byte   W96
@  #05 @100   ----------------------------------------
 .byte   W96
@  #05 @101   ----------------------------------------
 .byte   W96
@  #05 @102   ----------------------------------------
 .byte   W96
@  #05 @103   ----------------------------------------
 .byte   W96
@  #05 @104   ----------------------------------------
 .byte   W96
@  #05 @105   ----------------------------------------
 .byte   W96
@  #05 @106   ----------------------------------------
 .byte   W96
@  #05 @107   ----------------------------------------
 .byte   W96
@  #05 @108   ----------------------------------------
 .byte   W96
@  #05 @109   ----------------------------------------
 .byte   W96
@  #05 @110   ----------------------------------------
 .byte   W96
@  #05 @111   ----------------------------------------
 .byte   W96
@  #05 @112   ----------------------------------------
 .byte   W96
@  #05 @113   ----------------------------------------
 .byte   W96
@  #05 @114   ----------------------------------------
 .byte   W96
@  #05 @115   ----------------------------------------
 .byte   W96
@  #05 @116   ----------------------------------------
 .byte   W96
@  #05 @117   ----------------------------------------
 .byte   W96
@  #05 @118   ----------------------------------------
 .byte   W96
@  #05 @119   ----------------------------------------
 .byte   W96
@  #05 @120   ----------------------------------------
 .byte   PATT
  .word Label_010005FC
@  #05 @121   ----------------------------------------
 .byte   W96
@  #05 @122   ----------------------------------------
 .byte   W48
 .byte   EOT
 .byte   Ds4
 .byte   W48
@  #05 @123   ----------------------------------------
 .byte   W96
@  #05 @124   ----------------------------------------
 .byte   W96
@  #05 @125   ----------------------------------------
 .byte   W96
@  #05 @126   ----------------------------------------
 .byte   W96
@  #05 @127   ----------------------------------------
 .byte   W96
@  #05 @128   ----------------------------------------
 .byte   PATT
  .word Label_010005FC
@  #05 @129   ----------------------------------------
 .byte   W96
@  #05 @130   ----------------------------------------
 .byte   W48
 .byte   EOT
 .byte   Ds4
 .byte   W48
@  #05 @131   ----------------------------------------
 .byte   W96
@  #05 @132   ----------------------------------------
 .byte   W96
@  #05 @133   ----------------------------------------
 .byte   W96
@  #05 @134   ----------------------------------------
 .byte   W96
@  #05 @135   ----------------------------------------
 .byte   W96
@  #05 @136   ----------------------------------------
 .byte   W96
@  #05 @137   ----------------------------------------
 .byte   GOTO
  .word Label_01000621
@  #05 @138   ----------------------------------------
 .byte   W96
 .byte   FINE

@**************** Track 6 (Midi-Chn.5) ****************@

song02_006:
@  #06 @000   ----------------------------------------
 .byte   KEYSH , song02_key+0
 .byte   VOICE , 18
 .byte   VOL , 22*song02_mvl/mxv
 .byte   PAN , c_v+63
 .byte   N06 ,An4 ,v127
 .byte   BENDR, 12
 .byte   W06
 .byte   N06 ,Cn5
 .byte   W06
 .byte   En5
 .byte   W12
 .byte   Gn5
 .byte   W12
 .byte   An4
 .byte   W06
 .byte   En5
 .byte   W06
 .byte   Dn5
 .byte   W12
 .byte   An5
 .byte   W12
 .byte   An4
 .byte   W06
 .byte   Cn5
 .byte   W06
 .byte   Dn5
 .byte   W06
 .byte   Gn5
 .byte   W06
@  #06 @001   ----------------------------------------
 .byte   PATT
  .word Label_01008081
@  #06 @002   ----------------------------------------
 .byte   PATT
  .word Label_01008081
@  #06 @003   ----------------------------------------
 .byte   PATT
  .word Label_01008081
@  #06 @004   ----------------------------------------
 .byte   PATT
  .word Label_01008081
@  #06 @005   ----------------------------------------
 .byte   PATT
  .word Label_01008081
@  #06 @006   ----------------------------------------
 .byte   PATT
  .word Label_01008081
@  #06 @007   ----------------------------------------
 .byte   PATT
  .word Label_01008081
@  #06 @008   ----------------------------------------
 .byte   W96
@  #06 @009   ----------------------------------------
 .byte   W96
@  #06 @010   ----------------------------------------
 .byte   W96
@  #06 @011   ----------------------------------------
 .byte   W96
@  #06 @012   ----------------------------------------
 .byte   W96
@  #06 @013   ----------------------------------------
 .byte   W96
@  #06 @014   ----------------------------------------
 .byte   W96
@  #06 @015   ----------------------------------------
 .byte   W96
@  #06 @016   ----------------------------------------
 .byte   W96
@  #06 @017   ----------------------------------------
 .byte   W96
@  #06 @018   ----------------------------------------
 .byte   W96
@  #06 @019   ----------------------------------------
 .byte   W96
@  #06 @020   ----------------------------------------
 .byte   W96
@  #06 @021   ----------------------------------------
 .byte   W96
@  #06 @022   ----------------------------------------
 .byte   W96
@  #06 @023   ----------------------------------------
 .byte   W96
@  #06 @024   ----------------------------------------
 .byte   W96
@  #06 @025   ----------------------------------------
 .byte   W96
@  #06 @026   ----------------------------------------
 .byte   W96
@  #06 @027   ----------------------------------------
 .byte   W96
@  #06 @028   ----------------------------------------
 .byte   W96
@  #06 @029   ----------------------------------------
 .byte   W96
@  #06 @030   ----------------------------------------
 .byte   W96
@  #06 @031   ----------------------------------------
 .byte   W96
@  #06 @032   ----------------------------------------
 .byte   PATT
  .word Label_010080D2
@  #06 @033   ----------------------------------------
 .byte   PATT
  .word Label_010080E1
@  #06 @034   ----------------------------------------
 .byte   PATT
  .word Label_010080EE
@  #06 @035   ----------------------------------------
 .byte   PATT
  .word Label_010080FD
@  #06 @036   ----------------------------------------
 .byte   PATT
  .word Label_010080D2
@  #06 @037   ----------------------------------------
 .byte   PATT
  .word Label_010080E1
@  #06 @038   ----------------------------------------
 .byte   PATT
  .word Label_010080EE
@  #06 @039   ----------------------------------------
 .byte   PATT
  .word Label_010080FD
@  #06 @040   ----------------------------------------
 .byte   PATT
  .word Label_010080D2
@  #06 @041   ----------------------------------------
 .byte   PATT
  .word Label_010080E1
@  #06 @042   ----------------------------------------
 .byte   PATT
  .word Label_010080EE
@  #06 @043   ----------------------------------------
 .byte   PATT
  .word Label_010080FD
@  #06 @044   ----------------------------------------
 .byte   PATT
  .word Label_010080D2
@  #06 @045   ----------------------------------------
 .byte   PATT
  .word Label_010080E1
@  #06 @046   ----------------------------------------
 .byte   PATT
  .word Label_010080EE
@  #06 @047   ----------------------------------------
 .byte   PATT
  .word Label_010080FD
@  #06 @048   ----------------------------------------
 .byte   W96
@  #06 @049   ----------------------------------------
 .byte   W96
@  #06 @050   ----------------------------------------
 .byte   W96
@  #06 @051   ----------------------------------------
Label_010041BF:
 .byte   W96
@  #06 @052   ----------------------------------------
 .byte   W96
@  #06 @053   ----------------------------------------
 .byte   W96
@  #06 @054   ----------------------------------------
 .byte   W96
@  #06 @055   ----------------------------------------
 .byte   W96
@  #06 @056   ----------------------------------------
 .byte   W96
@  #06 @057   ----------------------------------------
 .byte   W96
@  #06 @058   ----------------------------------------
 .byte   W96
@  #06 @059   ----------------------------------------
 .byte   W96
@  #06 @060   ----------------------------------------
 .byte   W96
@  #06 @061   ----------------------------------------
 .byte   W96
@  #06 @062   ----------------------------------------
 .byte   W96
@  #06 @063   ----------------------------------------
 .byte   W96
@  #06 @064   ----------------------------------------
 .byte   W96
@  #06 @065   ----------------------------------------
 .byte   W96
@  #06 @066   ----------------------------------------
 .byte   W96
@  #06 @067   ----------------------------------------
 .byte   W96
@  #06 @068   ----------------------------------------
 .byte   W96
@  #06 @069   ----------------------------------------
 .byte   W96
@  #06 @070   ----------------------------------------
 .byte   W96
@  #06 @071   ----------------------------------------
 .byte   W96
@  #06 @072   ----------------------------------------
 .byte   W96
@  #06 @073   ----------------------------------------
 .byte   W96
@  #06 @074   ----------------------------------------
 .byte   W96
@  #06 @075   ----------------------------------------
 .byte   PATT
  .word Label_010080D2
@  #06 @076   ----------------------------------------
 .byte   PATT
  .word Label_010080E1
@  #06 @077   ----------------------------------------
 .byte   PATT
  .word Label_010080EE
@  #06 @078   ----------------------------------------
 .byte   PATT
  .word Label_010080FD
@  #06 @079   ----------------------------------------
 .byte   PATT
  .word Label_010080D2
@  #06 @080   ----------------------------------------
 .byte   PATT
  .word Label_010080E1
@  #06 @081   ----------------------------------------
 .byte   PATT
  .word Label_010080EE
@  #06 @082   ----------------------------------------
 .byte   PATT
  .word Label_010080FD
@  #06 @083   ----------------------------------------
 .byte   PATT
  .word Label_010080D2
@  #06 @084   ----------------------------------------
 .byte   PATT
  .word Label_010080E1
@  #06 @085   ----------------------------------------
 .byte   PATT
  .word Label_010080EE
@  #06 @086   ----------------------------------------
 .byte   PATT
  .word Label_010080FD
@  #06 @087   ----------------------------------------
 .byte   PATT
  .word Label_010080D2
@  #06 @088   ----------------------------------------
 .byte   PATT
  .word Label_010080E1
@  #06 @089   ----------------------------------------
 .byte   PATT
  .word Label_010080EE
@  #06 @090   ----------------------------------------
 .byte   PATT
  .word Label_010080FD
@  #06 @091   ----------------------------------------
 .byte   W96
@  #06 @092   ----------------------------------------
 .byte   W96
@  #06 @093   ----------------------------------------
 .byte   W96
@  #06 @094   ----------------------------------------
 .byte   W96
@  #06 @095   ----------------------------------------
 .byte   W96
@  #06 @096   ----------------------------------------
 .byte   W96
@  #06 @097   ----------------------------------------
 .byte   W96
@  #06 @098   ----------------------------------------
 .byte   W96
@  #06 @099   ----------------------------------------
 .byte   W96
@  #06 @100   ----------------------------------------
 .byte   W96
@  #06 @101   ----------------------------------------
 .byte   W96
@  #06 @102   ----------------------------------------
 .byte   W96
@  #06 @103   ----------------------------------------
 .byte   W96
@  #06 @104   ----------------------------------------
 .byte   W96
@  #06 @105   ----------------------------------------
 .byte   W96
@  #06 @106   ----------------------------------------
 .byte   W96
@  #06 @107   ----------------------------------------
 .byte   W96
@  #06 @108   ----------------------------------------
 .byte   W96
@  #06 @109   ----------------------------------------
 .byte   W96
@  #06 @110   ----------------------------------------
 .byte   W96
@  #06 @111   ----------------------------------------
 .byte   W96
@  #06 @112   ----------------------------------------
 .byte   W96
@  #06 @113   ----------------------------------------
 .byte   W96
@  #06 @114   ----------------------------------------
 .byte   W96
@  #06 @115   ----------------------------------------
 .byte   W96
@  #06 @116   ----------------------------------------
 .byte   W96
@  #06 @117   ----------------------------------------
 .byte   W96
@  #06 @118   ----------------------------------------
 .byte   PATT
  .word Label_010080D2
@  #06 @119   ----------------------------------------
 .byte   PATT
  .word Label_010080E1
@  #06 @120   ----------------------------------------
 .byte   PATT
  .word Label_010080EE
@  #06 @121   ----------------------------------------
 .byte   PATT
  .word Label_010080FD
@  #06 @122   ----------------------------------------
 .byte   PATT
  .word Label_010080D2
@  #06 @123   ----------------------------------------
 .byte   PATT
  .word Label_010080E1
@  #06 @124   ----------------------------------------
 .byte   PATT
  .word Label_010080EE
@  #06 @125   ----------------------------------------
 .byte   PATT
  .word Label_010080FD
@  #06 @126   ----------------------------------------
 .byte   PATT
  .word Label_010080D2
@  #06 @127   ----------------------------------------
 .byte   PATT
  .word Label_010080E1
@  #06 @128   ----------------------------------------
 .byte   PATT
  .word Label_010080EE
@  #06 @129   ----------------------------------------
 .byte   PATT
  .word Label_010080FD
@  #06 @130   ----------------------------------------
 .byte   PATT
  .word Label_010080D2
@  #06 @131   ----------------------------------------
 .byte   PATT
  .word Label_010080E1
@  #06 @132   ----------------------------------------
 .byte   PATT
  .word Label_010080EE
@  #06 @133   ----------------------------------------
 .byte   PATT
  .word Label_010080FD
@  #06 @134   ----------------------------------------
 .byte   W96
@  #06 @135   ----------------------------------------
 .byte   W96
@  #06 @136   ----------------------------------------
 .byte   W96
@  #06 @137   ----------------------------------------
 .byte   GOTO
  .word Label_010041BF
@  #06 @138   ----------------------------------------
 .byte   W96
 .byte   FINE

@**************** Track 7 (Midi-Chn.6) ****************@

song02_007:
@  #07 @000   ----------------------------------------
 .byte   KEYSH , song02_key+0
 .byte   VOICE , 61
 .byte   VOL , 39*song02_mvl/mxv
 .byte   PAN , c_v-38
 .byte   BENDR, 12
 .byte   W96
@  #07 @001   ----------------------------------------
 .byte   W96
@  #07 @002   ----------------------------------------
 .byte   W96
@  #07 @003   ----------------------------------------
 .byte   W96
@  #07 @004   ----------------------------------------
 .byte   W96
@  #07 @005   ----------------------------------------
 .byte   W96
@  #07 @006   ----------------------------------------
 .byte   W96
@  #07 @007   ----------------------------------------
 .byte   W96
@  #07 @008   ----------------------------------------
Label_010085FA:
 .byte   N84 ,En3 ,v085
 .byte   N84 ,An3 ,v127
 .byte   W84
 .byte   N48 ,Cn4
 .byte   N48 ,Gn3 ,v085
 .byte   W12
 .byte   PEND 
@  #07 @009   ----------------------------------------
Label_01008608:
 .byte   W36
 .byte   N36 ,Dn4 ,v127
 .byte   N36 ,An3 ,v085
 .byte   W36
 .byte   N24 ,Bn3
 .byte   N24 ,En4 ,v127
 .byte   W24
 .byte   PEND 
@  #07 @010   ----------------------------------------
Label_01008617:
 .byte   N72 ,En3 ,v085
 .byte   N72 ,An3 ,v127
 .byte   W72
 .byte   N12 ,Bn2 ,v085
 .byte   N12 ,En3 ,v127
 .byte   W12
 .byte   N48 ,Fn3
 .byte   N48 ,Cn3 ,v085
 .byte   W12
 .byte   PEND 
@  #07 @011   ----------------------------------------
Label_0100862C:
 .byte   W36
 .byte   N36 ,Cn4 ,v127
 .byte   N36 ,Gn3 ,v085
 .byte   W36
 .byte   N24 ,Fs3
 .byte   N24 ,Bn3 ,v127
 .byte   W24
 .byte   PEND 
@  #07 @012   ----------------------------------------
 .byte   PATT
  .word Label_010085FA
@  #07 @013   ----------------------------------------
 .byte   PATT
  .word Label_01008608
@  #07 @014   ----------------------------------------
Label_01008645:
 .byte   N72 ,En3 ,v085
 .byte   N72 ,An3 ,v127
 .byte   W72
 .byte   N12 ,Bn2 ,v085
 .byte   N12 ,En3 ,v127
 .byte   W12
 .byte   N36 ,Fn3
 .byte   N36 ,Cn3 ,v085
 .byte   W12
 .byte   PEND 
@  #07 @015   ----------------------------------------
Label_0100865A:
 .byte   W24
 .byte   N72 ,Gn3 ,v127
 .byte   N72 ,Dn3 ,v085
 .byte   W72
 .byte   PEND 
@  #07 @016   ----------------------------------------
Label_01008663:
 .byte   N12 ,En2 ,v127
 .byte   N12 ,An2
 .byte   W12
 .byte   N60 ,Cn3
 .byte   N60 ,Gn2
 .byte   W60
 .byte   N24 ,Dn3
 .byte   N24 ,Gn3
 .byte   W24
 .byte   PEND 
@  #07 @017   ----------------------------------------
Label_01008674:
 .byte   N72 ,Cs3 ,v127
 .byte   N72 ,Fs3
 .byte   W72
 .byte   N24 ,Fs2
 .byte   N24 ,Bn2
 .byte   W24
 .byte   PEND 
@  #07 @018   ----------------------------------------
Label_01008680:
 .byte   N24 ,Gn2 ,v127
 .byte   N24 ,Cn3
 .byte   W24
 .byte   N12 ,Gn2
 .byte   N12 ,Cn3
 .byte   W12
 .byte   N24 ,Dn3
 .byte   N24 ,An2
 .byte   W24
 .byte   N12
 .byte   N12 ,Dn3
 .byte   W12
 .byte   N24 ,En3
 .byte   N24 ,Bn2
 .byte   W24
 .byte   PEND 
@  #07 @019   ----------------------------------------
Label_0100869A:
 .byte   N96 ,An2 ,v127
 .byte   N96 ,En2
 .byte   W96
 .byte   PEND 
@  #07 @020   ----------------------------------------
Label_010086A1:
 .byte   TIE ,Dn2 ,v127
 .byte   TIE ,Gn2
 .byte   W96
 .byte   PEND 
@  #07 @021   ----------------------------------------
Label_010086A8:
 .byte   W48
 .byte   EOT
 .byte   Gn2 ,v050
 .byte   N12 ,Cn3 ,v127
 .byte   N12 ,Gn2
 .byte   W12
 .byte   An2
 .byte   N12 ,En2
 .byte   W12
 .byte   Gn2
 .byte   N12 ,Cn3
 .byte   W12
 .byte   N24 ,Dn3
 .byte   N24 ,An2
 .byte   W12
 .byte   PEND 
@  #07 @022   ----------------------------------------
Label_010086C0:
 .byte   W12
 .byte   TIE ,Bn2 ,v127
 .byte   TIE ,En3
 .byte   W84
 .byte   PEND 
@  #07 @023   ----------------------------------------
Label_010086C8:
 .byte   W48
 .byte   EOT
 .byte   En3 ,v059
 .byte   W48
 .byte   PEND 
@  #07 @024   ----------------------------------------
 .byte   PATT
  .word Label_01008663
@  #07 @025   ----------------------------------------
 .byte   PATT
  .word Label_01008674
@  #07 @026   ----------------------------------------
 .byte   PATT
  .word Label_01008680
@  #07 @027   ----------------------------------------
 .byte   PATT
  .word Label_0100869A
@  #07 @028   ----------------------------------------
Label_010086E2:
 .byte   N24 ,En2 ,v127
 .byte   N24 ,An2
 .byte   W24
 .byte   N12 ,Gn2
 .byte   N12 ,Dn2
 .byte   W12
 .byte   N24 ,An2
 .byte   N24 ,En2
 .byte   W24
 .byte   N84 ,Cn3
 .byte   N84 ,Gn2
 .byte   W36
 .byte   PEND 
@  #07 @029   ----------------------------------------
Label_010086F8:
 .byte   W48
 .byte   N12 ,Cn3 ,v127
 .byte   N12 ,Gn2
 .byte   W12
 .byte   An2
 .byte   N12 ,En2
 .byte   W12
 .byte   Gn2
 .byte   N12 ,Cn3
 .byte   W12
 .byte   N96 ,Dn3
 .byte   N96 ,An2
 .byte   W12
 .byte   PEND 
@  #07 @030   ----------------------------------------
Label_0100870D:
 .byte   W84
 .byte   TIE ,Bn2 ,v127
 .byte   TIE ,En3
 .byte   W12
 .byte   PEND 
@  #07 @031   ----------------------------------------
 .byte   W96
@  #07 @032   ----------------------------------------
 .byte   EOT
 .byte   Bn2 ,v064
 .byte   W96
@  #07 @033   ----------------------------------------
 .byte   W96
@  #07 @034   ----------------------------------------
 .byte   W96
@  #07 @035   ----------------------------------------
 .byte   W96
@  #07 @036   ----------------------------------------
 .byte   W96
@  #07 @037   ----------------------------------------
 .byte   W96
@  #07 @038   ----------------------------------------
 .byte   W96
@  #07 @039   ----------------------------------------
 .byte   W96
@  #07 @040   ----------------------------------------
 .byte   W96
@  #07 @041   ----------------------------------------
 .byte   W96
@  #07 @042   ----------------------------------------
 .byte   W96
@  #07 @043   ----------------------------------------
 .byte   W96
@  #07 @044   ----------------------------------------
 .byte   W96
@  #07 @045   ----------------------------------------
 .byte   W96
@  #07 @046   ----------------------------------------
 .byte   W96
@  #07 @047   ----------------------------------------
 .byte   W96
@  #07 @048   ----------------------------------------
 .byte   W96
@  #07 @049   ----------------------------------------
 .byte   W96
@  #07 @050   ----------------------------------------
 .byte   W96
@  #07 @051   ----------------------------------------
Label_0100872C:
 .byte   N84 ,En3 ,v085
 .byte   N84 ,An3 ,v127
 .byte   W84
 .byte   N48 ,Cn4
 .byte   N48 ,Gn3 ,v085
 .byte   W12
@  #07 @052   ----------------------------------------
 .byte   PATT
  .word Label_01008608
@  #07 @053   ----------------------------------------
 .byte   PATT
  .word Label_01008617
@  #07 @054   ----------------------------------------
 .byte   PATT
  .word Label_0100862C
@  #07 @055   ----------------------------------------
 .byte   PATT
  .word Label_010085FA
@  #07 @056   ----------------------------------------
 .byte   PATT
  .word Label_01008608
@  #07 @057   ----------------------------------------
 .byte   PATT
  .word Label_01008645
@  #07 @058   ----------------------------------------
 .byte   PATT
  .word Label_0100865A
@  #07 @059   ----------------------------------------
 .byte   PATT
  .word Label_01008663
@  #07 @060   ----------------------------------------
 .byte   PATT
  .word Label_01008674
@  #07 @061   ----------------------------------------
 .byte   PATT
  .word Label_01008680
@  #07 @062   ----------------------------------------
 .byte   PATT
  .word Label_0100869A
@  #07 @063   ----------------------------------------
 .byte   PATT
  .word Label_010086A1
@  #07 @064   ----------------------------------------
 .byte   PATT
  .word Label_010086A8
@  #07 @065   ----------------------------------------
 .byte   PATT
  .word Label_010086C0
@  #07 @066   ----------------------------------------
 .byte   PATT
  .word Label_010086C8
@  #07 @067   ----------------------------------------
 .byte   PATT
  .word Label_01008663
@  #07 @068   ----------------------------------------
 .byte   PATT
  .word Label_01008674
@  #07 @069   ----------------------------------------
 .byte   PATT
  .word Label_01008680
@  #07 @070   ----------------------------------------
 .byte   PATT
  .word Label_0100869A
@  #07 @071   ----------------------------------------
 .byte   PATT
  .word Label_010086E2
@  #07 @072   ----------------------------------------
 .byte   PATT
  .word Label_010086F8
@  #07 @073   ----------------------------------------
 .byte   PATT
  .word Label_0100870D
@  #07 @074   ----------------------------------------
 .byte   W96
@  #07 @075   ----------------------------------------
 .byte   EOT
 .byte   Bn2 ,v064
 .byte   W96
@  #07 @076   ----------------------------------------
 .byte   W96
@  #07 @077   ----------------------------------------
 .byte   W96
@  #07 @078   ----------------------------------------
 .byte   W96
@  #07 @079   ----------------------------------------
 .byte   W96
@  #07 @080   ----------------------------------------
 .byte   W96
@  #07 @081   ----------------------------------------
 .byte   W96
@  #07 @082   ----------------------------------------
 .byte   W96
@  #07 @083   ----------------------------------------
 .byte   W96
@  #07 @084   ----------------------------------------
 .byte   W96
@  #07 @085   ----------------------------------------
 .byte   W96
@  #07 @086   ----------------------------------------
 .byte   W96
@  #07 @087   ----------------------------------------
 .byte   W96
@  #07 @088   ----------------------------------------
 .byte   W96
@  #07 @089   ----------------------------------------
 .byte   W96
@  #07 @090   ----------------------------------------
 .byte   W96
@  #07 @091   ----------------------------------------
 .byte   W96
@  #07 @092   ----------------------------------------
 .byte   W96
@  #07 @093   ----------------------------------------
 .byte   W96
@  #07 @094   ----------------------------------------
 .byte   PATT
  .word Label_010085FA
@  #07 @095   ----------------------------------------
 .byte   PATT
  .word Label_01008608
@  #07 @096   ----------------------------------------
 .byte   PATT
  .word Label_01008617
@  #07 @097   ----------------------------------------
 .byte   PATT
  .word Label_0100862C
@  #07 @098   ----------------------------------------
 .byte   PATT
  .word Label_010085FA
@  #07 @099   ----------------------------------------
 .byte   PATT
  .word Label_01008608
@  #07 @100   ----------------------------------------
 .byte   PATT
  .word Label_01008645
@  #07 @101   ----------------------------------------
 .byte   PATT
  .word Label_0100865A
@  #07 @102   ----------------------------------------
 .byte   PATT
  .word Label_01008663
@  #07 @103   ----------------------------------------
 .byte   PATT
  .word Label_01008674
@  #07 @104   ----------------------------------------
 .byte   PATT
  .word Label_01008680
@  #07 @105   ----------------------------------------
 .byte   PATT
  .word Label_0100869A
@  #07 @106   ----------------------------------------
 .byte   PATT
  .word Label_010086A1
@  #07 @107   ----------------------------------------
 .byte   PATT
  .word Label_010086A8
@  #07 @108   ----------------------------------------
 .byte   PATT
  .word Label_010086C0
@  #07 @109   ----------------------------------------
 .byte   PATT
  .word Label_010086C8
@  #07 @110   ----------------------------------------
 .byte   PATT
  .word Label_01008663
@  #07 @111   ----------------------------------------
 .byte   PATT
  .word Label_01008674
@  #07 @112   ----------------------------------------
 .byte   PATT
  .word Label_01008680
@  #07 @113   ----------------------------------------
 .byte   PATT
  .word Label_0100869A
@  #07 @114   ----------------------------------------
 .byte   PATT
  .word Label_010086E2
@  #07 @115   ----------------------------------------
 .byte   PATT
  .word Label_010086F8
@  #07 @116   ----------------------------------------
 .byte   PATT
  .word Label_0100870D
@  #07 @117   ----------------------------------------
 .byte   W96
@  #07 @118   ----------------------------------------
 .byte   EOT
 .byte   Bn2 ,v064
 .byte   W96
@  #07 @119   ----------------------------------------
 .byte   W96
@  #07 @120   ----------------------------------------
 .byte   W96
@  #07 @121   ----------------------------------------
 .byte   W96
@  #07 @122   ----------------------------------------
 .byte   W96
@  #07 @123   ----------------------------------------
 .byte   W96
@  #07 @124   ----------------------------------------
 .byte   W96
@  #07 @125   ----------------------------------------
 .byte   W96
@  #07 @126   ----------------------------------------
 .byte   W96
@  #07 @127   ----------------------------------------
 .byte   W96
@  #07 @128   ----------------------------------------
 .byte   W96
@  #07 @129   ----------------------------------------
 .byte   W96
@  #07 @130   ----------------------------------------
 .byte   W96
@  #07 @131   ----------------------------------------
 .byte   W96
@  #07 @132   ----------------------------------------
 .byte   W96
@  #07 @133   ----------------------------------------
 .byte   W96
@  #07 @134   ----------------------------------------
 .byte   W96
@  #07 @135   ----------------------------------------
 .byte   W96
@  #07 @136   ----------------------------------------
 .byte   W96
@  #07 @137   ----------------------------------------
 .byte   GOTO
  .word Label_0100872C
@  #07 @138   ----------------------------------------
 .byte   W96
 .byte   FINE

@**************** Track 8 (Midi-Chn.7) ****************@

song02_008:
@  #08 @000   ----------------------------------------
 .byte   KEYSH , song02_key+0
 .byte   VOICE , 66
 .byte   VOL , 39*song02_mvl/mxv
 .byte   PAN , c_v+39
 .byte   BENDR, 12
 .byte   W96
@  #08 @001   ----------------------------------------
 .byte   W96
@  #08 @002   ----------------------------------------
 .byte   W96
@  #08 @003   ----------------------------------------
 .byte   W96
@  #08 @004   ----------------------------------------
 .byte   W96
@  #08 @005   ----------------------------------------
 .byte   W96
@  #08 @006   ----------------------------------------
 .byte   W96
@  #08 @007   ----------------------------------------
 .byte   W96
@  #08 @008   ----------------------------------------
 .byte   PATT
  .word Label_010085FA
@  #08 @009   ----------------------------------------
 .byte   PATT
  .word Label_01008608
@  #08 @010   ----------------------------------------
 .byte   PATT
  .word Label_01008617
@  #08 @011   ----------------------------------------
 .byte   PATT
  .word Label_0100862C
@  #08 @012   ----------------------------------------
 .byte   PATT
  .word Label_010085FA
@  #08 @013   ----------------------------------------
 .byte   PATT
  .word Label_01008608
@  #08 @014   ----------------------------------------
 .byte   PATT
  .word Label_01008645
@  #08 @015   ----------------------------------------
 .byte   PATT
  .word Label_0100865A
@  #08 @016   ----------------------------------------
 .byte   PATT
  .word Label_01008663
@  #08 @017   ----------------------------------------
 .byte   PATT
  .word Label_01008674
@  #08 @018   ----------------------------------------
 .byte   PATT
  .word Label_01008680
@  #08 @019   ----------------------------------------
 .byte   PATT
  .word Label_0100869A
@  #08 @020   ----------------------------------------
 .byte   PATT
  .word Label_010086A1
@  #08 @021   ----------------------------------------
 .byte   PATT
  .word Label_010086A8
@  #08 @022   ----------------------------------------
 .byte   PATT
  .word Label_010086C0
@  #08 @023   ----------------------------------------
 .byte   PATT
  .word Label_010086C8
@  #08 @024   ----------------------------------------
 .byte   PATT
  .word Label_01008663
@  #08 @025   ----------------------------------------
 .byte   PATT
  .word Label_01008674
@  #08 @026   ----------------------------------------
 .byte   PATT
  .word Label_01008680
@  #08 @027   ----------------------------------------
 .byte   PATT
  .word Label_0100869A
@  #08 @028   ----------------------------------------
 .byte   PATT
  .word Label_010086E2
@  #08 @029   ----------------------------------------
 .byte   PATT
  .word Label_010086F8
@  #08 @030   ----------------------------------------
 .byte   PATT
  .word Label_0100870D
@  #08 @031   ----------------------------------------
 .byte   W96
@  #08 @032   ----------------------------------------
 .byte   EOT
 .byte   Bn2 ,v064
 .byte   W96
@  #08 @033   ----------------------------------------
 .byte   W96
@  #08 @034   ----------------------------------------
 .byte   W96
@  #08 @035   ----------------------------------------
 .byte   W96
@  #08 @036   ----------------------------------------
 .byte   W96
@  #08 @037   ----------------------------------------
 .byte   W96
@  #08 @038   ----------------------------------------
 .byte   W96
@  #08 @039   ----------------------------------------
 .byte   W96
@  #08 @040   ----------------------------------------
 .byte   W96
@  #08 @041   ----------------------------------------
 .byte   W96
@  #08 @042   ----------------------------------------
 .byte   W96
@  #08 @043   ----------------------------------------
 .byte   W96
@  #08 @044   ----------------------------------------
 .byte   W96
@  #08 @045   ----------------------------------------
 .byte   W96
@  #08 @046   ----------------------------------------
 .byte   W96
@  #08 @047   ----------------------------------------
 .byte   W96
@  #08 @048   ----------------------------------------
 .byte   W96
@  #08 @049   ----------------------------------------
 .byte   W96
@  #08 @050   ----------------------------------------
 .byte   W96
@  #08 @051   ----------------------------------------
Label_010088EC:
 .byte   N84 ,En3 ,v085
 .byte   N84 ,An3 ,v127
 .byte   W84
 .byte   N48 ,Cn4
 .byte   N48 ,Gn3 ,v085
 .byte   W12
@  #08 @052   ----------------------------------------
 .byte   PATT
  .word Label_01008608
@  #08 @053   ----------------------------------------
 .byte   PATT
  .word Label_01008617
@  #08 @054   ----------------------------------------
 .byte   PATT
  .word Label_0100862C
@  #08 @055   ----------------------------------------
 .byte   PATT
  .word Label_010085FA
@  #08 @056   ----------------------------------------
 .byte   PATT
  .word Label_01008608
@  #08 @057   ----------------------------------------
 .byte   PATT
  .word Label_01008645
@  #08 @058   ----------------------------------------
 .byte   PATT
  .word Label_0100865A
@  #08 @059   ----------------------------------------
 .byte   PATT
  .word Label_01008663
@  #08 @060   ----------------------------------------
 .byte   PATT
  .word Label_01008674
@  #08 @061   ----------------------------------------
 .byte   PATT
  .word Label_01008680
@  #08 @062   ----------------------------------------
 .byte   PATT
  .word Label_0100869A
@  #08 @063   ----------------------------------------
 .byte   PATT
  .word Label_010086A1
@  #08 @064   ----------------------------------------
 .byte   PATT
  .word Label_010086A8
@  #08 @065   ----------------------------------------
 .byte   PATT
  .word Label_010086C0
@  #08 @066   ----------------------------------------
 .byte   PATT
  .word Label_010086C8
@  #08 @067   ----------------------------------------
 .byte   PATT
  .word Label_01008663
@  #08 @068   ----------------------------------------
 .byte   PATT
  .word Label_01008674
@  #08 @069   ----------------------------------------
 .byte   PATT
  .word Label_01008680
@  #08 @070   ----------------------------------------
 .byte   PATT
  .word Label_0100869A
@  #08 @071   ----------------------------------------
 .byte   PATT
  .word Label_010086E2
@  #08 @072   ----------------------------------------
 .byte   PATT
  .word Label_010086F8
@  #08 @073   ----------------------------------------
 .byte   PATT
  .word Label_0100870D
@  #08 @074   ----------------------------------------
 .byte   W96
@  #08 @075   ----------------------------------------
 .byte   EOT
 .byte   Bn2 ,v064
 .byte   W96
@  #08 @076   ----------------------------------------
 .byte   W96
@  #08 @077   ----------------------------------------
 .byte   W96
@  #08 @078   ----------------------------------------
 .byte   W96
@  #08 @079   ----------------------------------------
 .byte   W96
@  #08 @080   ----------------------------------------
 .byte   W96
@  #08 @081   ----------------------------------------
 .byte   W96
@  #08 @082   ----------------------------------------
 .byte   W96
@  #08 @083   ----------------------------------------
 .byte   W96
@  #08 @084   ----------------------------------------
 .byte   W96
@  #08 @085   ----------------------------------------
 .byte   W96
@  #08 @086   ----------------------------------------
 .byte   W96
@  #08 @087   ----------------------------------------
 .byte   W96
@  #08 @088   ----------------------------------------
 .byte   W96
@  #08 @089   ----------------------------------------
 .byte   W96
@  #08 @090   ----------------------------------------
 .byte   W96
@  #08 @091   ----------------------------------------
 .byte   W96
@  #08 @092   ----------------------------------------
 .byte   W96
@  #08 @093   ----------------------------------------
 .byte   W96
@  #08 @094   ----------------------------------------
 .byte   PATT
  .word Label_010085FA
@  #08 @095   ----------------------------------------
 .byte   PATT
  .word Label_01008608
@  #08 @096   ----------------------------------------
 .byte   PATT
  .word Label_01008617
@  #08 @097   ----------------------------------------
 .byte   PATT
  .word Label_0100862C
@  #08 @098   ----------------------------------------
 .byte   PATT
  .word Label_010085FA
@  #08 @099   ----------------------------------------
 .byte   PATT
  .word Label_01008608
@  #08 @100   ----------------------------------------
 .byte   PATT
  .word Label_01008645
@  #08 @101   ----------------------------------------
 .byte   PATT
  .word Label_0100865A
@  #08 @102   ----------------------------------------
 .byte   PATT
  .word Label_01008663
@  #08 @103   ----------------------------------------
 .byte   PATT
  .word Label_01008674
@  #08 @104   ----------------------------------------
 .byte   PATT
  .word Label_01008680
@  #08 @105   ----------------------------------------
 .byte   PATT
  .word Label_0100869A
@  #08 @106   ----------------------------------------
 .byte   PATT
  .word Label_010086A1
@  #08 @107   ----------------------------------------
 .byte   PATT
  .word Label_010086A8
@  #08 @108   ----------------------------------------
 .byte   PATT
  .word Label_010086C0
@  #08 @109   ----------------------------------------
 .byte   PATT
  .word Label_010086C8
@  #08 @110   ----------------------------------------
 .byte   PATT
  .word Label_01008663
@  #08 @111   ----------------------------------------
 .byte   PATT
  .word Label_01008674
@  #08 @112   ----------------------------------------
 .byte   PATT
  .word Label_01008680
@  #08 @113   ----------------------------------------
 .byte   PATT
  .word Label_0100869A
@  #08 @114   ----------------------------------------
 .byte   PATT
  .word Label_010086E2
@  #08 @115   ----------------------------------------
 .byte   PATT
  .word Label_010086F8
@  #08 @116   ----------------------------------------
 .byte   PATT
  .word Label_0100870D
@  #08 @117   ----------------------------------------
 .byte   W96
@  #08 @118   ----------------------------------------
 .byte   EOT
 .byte   Bn2 ,v064
 .byte   W96
@  #08 @119   ----------------------------------------
 .byte   W96
@  #08 @120   ----------------------------------------
 .byte   W96
@  #08 @121   ----------------------------------------
 .byte   W96
@  #08 @122   ----------------------------------------
 .byte   W96
@  #08 @123   ----------------------------------------
 .byte   W96
@  #08 @124   ----------------------------------------
 .byte   W96
@  #08 @125   ----------------------------------------
 .byte   W96
@  #08 @126   ----------------------------------------
 .byte   W96
@  #08 @127   ----------------------------------------
 .byte   W96
@  #08 @128   ----------------------------------------
 .byte   W96
@  #08 @129   ----------------------------------------
 .byte   W96
@  #08 @130   ----------------------------------------
 .byte   W96
@  #08 @131   ----------------------------------------
 .byte   W96
@  #08 @132   ----------------------------------------
 .byte   W96
@  #08 @133   ----------------------------------------
 .byte   W96
@  #08 @134   ----------------------------------------
 .byte   W96
@  #08 @135   ----------------------------------------
 .byte   W96
@  #08 @136   ----------------------------------------
 .byte   W96
@  #08 @137   ----------------------------------------
 .byte   GOTO
  .word Label_010088EC
@  #08 @138   ----------------------------------------
 .byte   W96
 .byte   FINE

@**************** Track 9 (Midi-Chn.8) ****************@

song02_009:
@  #09 @000   ----------------------------------------
 .byte   KEYSH , song02_key+0
 .byte   VOICE , 124
 .byte   VOL , 54*song02_mvl/mxv
 .byte   N06 ,Cn1 ,v127
 .byte   N06 ,Fs1
 .byte   BENDR, 12
 .byte   W12
 .byte   N06
 .byte   W06
 .byte   Fs1
 .byte   W06
 .byte   Fs1
 .byte   N06 ,Cn1
 .byte   W06
 .byte   Fs1
 .byte   W06
 .byte   Fs1
 .byte   W06
 .byte   Fs1
 .byte   W06
 .byte   Cn1
 .byte   N06 ,Fs1
 .byte   W06
 .byte   Fs1
 .byte   W06
 .byte   Fs1
 .byte   W12
 .byte   Fs1
 .byte   N06 ,Cn1
 .byte   W06
 .byte   Fs1
 .byte   W06
 .byte   Fs1
 .byte   W12
@  #09 @001   ----------------------------------------
Label_01008A3C:
 .byte   N06 ,Cn1 ,v127
 .byte   N06 ,Fs1
 .byte   W12
 .byte   Fs1
 .byte   W06
 .byte   Fs1
 .byte   W06
 .byte   Fs1
 .byte   N06 ,Cn1
 .byte   W06
 .byte   Fs1
 .byte   W06
 .byte   Fs1
 .byte   W06
 .byte   Fs1
 .byte   W06
 .byte   Cn1
 .byte   N06 ,Fs1
 .byte   W06
 .byte   Fs1
 .byte   W06
 .byte   Fs1
 .byte   W12
 .byte   Fs1
 .byte   N06 ,Cn1
 .byte   W06
 .byte   Fs1
 .byte   W06
 .byte   Fs1
 .byte   W12
 .byte   PEND 
@  #09 @002   ----------------------------------------
 .byte   PATT
  .word Label_01008A3C
@  #09 @003   ----------------------------------------
 .byte   N06 ,Cn1 ,v127
 .byte   N06 ,Fs1
 .byte   W12
 .byte   Fs1
 .byte   W06
 .byte   Fs1
 .byte   W06
 .byte   Fs1
 .byte   N06 ,Cn1
 .byte   W06
 .byte   Fs1
 .byte   W06
 .byte   Fs1
 .byte   W06
 .byte   Fs1
 .byte   W06
 .byte   Cn1
 .byte   N06 ,Fs1
 .byte   W06
 .byte   Fs1
 .byte   W06
 .byte   Fs1
 .byte   W12
 .byte   Dn1
 .byte   N06 ,Fs1
 .byte   N06 ,Cn1
 .byte   W06
 .byte   Fs1
 .byte   W06
 .byte   Fs1
 .byte   N06 ,Cn1
 .byte   W12
@  #09 @004   ----------------------------------------
 .byte   PATT
  .word Label_01008A3C
@  #09 @005   ----------------------------------------
 .byte   PATT
  .word Label_01008A3C
@  #09 @006   ----------------------------------------
 .byte   N06 ,Cn1 ,v127
 .byte   N06 ,Fs1
 .byte   W12
 .byte   Fs1
 .byte   W06
 .byte   Fs1
 .byte   W06
 .byte   Fs1
 .byte   N06 ,Cn1
 .byte   W06
 .byte   Fs1
 .byte   W06
 .byte   Fs1
 .byte   W06
 .byte   Fs1
 .byte   W06
 .byte   Cn1
 .byte   N06 ,Fs1
 .byte   W06
 .byte   Fs1
 .byte   W06
 .byte   Fs1
 .byte   W12
 .byte   Dn1
 .byte   N06 ,Fs1
 .byte   N06 ,Cn1
 .byte   W06
 .byte   Fs1
 .byte   W06
 .byte   Cn1
 .byte   N06 ,Fs1
 .byte   W12
@  #09 @007   ----------------------------------------
 .byte   Cn1
 .byte   N40 ,Gn2 ,v127 ,gtp1
 .byte   W24
 .byte   N06 ,Dn1
 .byte   W12
 .byte   N21 ,Cs2
 .byte   N06 ,Cn1
 .byte   W24
 .byte   Cn1
 .byte   W12
 .byte   Dn1
 .byte   W24
@  #09 @008   ----------------------------------------
Label_01008AD2:
 .byte   N21 ,Cs2 ,v127
 .byte   N06 ,Cn1
 .byte   N40 ,Gn2 ,v127 ,gtp1
 .byte   W24
 .byte   N06 ,Fs1
 .byte   N06 ,Dn1
 .byte   W12
 .byte   Fs1
 .byte   N06 ,Cn1
 .byte   W12
 .byte   Fs1
 .byte   N06 ,Cn1
 .byte   W12
 .byte   Cn1
 .byte   W12
 .byte   Dn1
 .byte   W12
 .byte   N40 ,Gn2 ,v127 ,gtp1
 .byte   W12
 .byte   PEND 
@  #09 @009   ----------------------------------------
Label_01008AF3:
 .byte   N06 ,Cn1 ,v127
 .byte   W12
 .byte   Fs1
 .byte   W12
 .byte   Fs1
 .byte   N06 ,Dn1
 .byte   W12
 .byte   N21 ,Cs2
 .byte   N06 ,Cn1
 .byte   W12
 .byte   Cn1
 .byte   W12
 .byte   Fs1
 .byte   N06 ,Cn1
 .byte   W12
 .byte   Dn1
 .byte   N06 ,Fs1
 .byte   W12
 .byte   Fs1
 .byte   W12
 .byte   PEND 
@  #09 @010   ----------------------------------------
 .byte   PATT
  .word Label_01008AD2
@  #09 @011   ----------------------------------------
 .byte   PATT
  .word Label_01008AF3
@  #09 @012   ----------------------------------------
 .byte   PATT
  .word Label_01008AD2
@  #09 @013   ----------------------------------------
 .byte   PATT
  .word Label_01008AF3
@  #09 @014   ----------------------------------------
 .byte   PATT
  .word Label_01008AD2
@  #09 @015   ----------------------------------------
Label_01008B28:
 .byte   N06 ,Cn1 ,v127
 .byte   W12
 .byte   Fs1
 .byte   W12
 .byte   Fs1
 .byte   N06 ,Dn1
 .byte   W12
 .byte   N21 ,Cs2
 .byte   N06 ,Cn1
 .byte   W12
 .byte   Dn1
 .byte   W24
 .byte   N21 ,Cs2
 .byte   N40 ,Gn2 ,v127 ,gtp1
 .byte   W24
 .byte   PEND 
@  #09 @016   ----------------------------------------
Label_01008B41:
 .byte   N21 ,Cs2 ,v127
 .byte   N06 ,Cn1
 .byte   W24
 .byte   Dn1
 .byte   N06 ,Gs1
 .byte   W12
 .byte   Gs1
 .byte   W06
 .byte   Gs1
 .byte   W06
 .byte   Cn1
 .byte   N06 ,Gs1
 .byte   W12
 .byte   Gs1
 .byte   W06
 .byte   Gs1
 .byte   W06
 .byte   Gs1
 .byte   N06 ,Dn1
 .byte   W12
 .byte   Gs1
 .byte   W06
 .byte   Gs1
 .byte   W06
 .byte   PEND 
@  #09 @017   ----------------------------------------
Label_01008B60:
 .byte   N06 ,Gs1 ,v127
 .byte   N06 ,Cn1
 .byte   W12
 .byte   Gs1
 .byte   W06
 .byte   Gs1
 .byte   W06
 .byte   Gs1
 .byte   N06 ,Dn1
 .byte   W12
 .byte   Gs1
 .byte   W06
 .byte   Gs1
 .byte   W06
 .byte   Gs1
 .byte   N06 ,Cn1
 .byte   W12
 .byte   Gs1
 .byte   W12
 .byte   N24 ,As1 ,v127 ,gtp2
 .byte   N06 ,Dn1
 .byte   W24
 .byte   PEND 
@  #09 @018   ----------------------------------------
Label_01008B80:
 .byte   N21 ,Cs2 ,v127
 .byte   N06 ,Cn1
 .byte   W12
 .byte   Gs1
 .byte   W12
 .byte   Dn1
 .byte   N06 ,Gs1
 .byte   W12
 .byte   Gs1
 .byte   W06
 .byte   Gs1
 .byte   W06
 .byte   Cn1
 .byte   N06 ,Gs1
 .byte   W12
 .byte   Gs1
 .byte   W06
 .byte   Gs1
 .byte   W06
 .byte   Gs1
 .byte   N06 ,Dn1
 .byte   W12
 .byte   Gs1
 .byte   W06
 .byte   Gs1
 .byte   W06
 .byte   PEND 
@  #09 @019   ----------------------------------------
 .byte   PATT
  .word Label_01008B60
@  #09 @020   ----------------------------------------
 .byte   PATT
  .word Label_01008B41
@  #09 @021   ----------------------------------------
 .byte   PATT
  .word Label_01008B60
@  #09 @022   ----------------------------------------
Label_01008BB0:
 .byte   N21 ,Cs2 ,v127
 .byte   N06 ,Cn1
 .byte   W12
 .byte   Gs1
 .byte   W12
 .byte   Dn1
 .byte   N06 ,Gs1
 .byte   W12
 .byte   Gs1
 .byte   W06
 .byte   Gs1
 .byte   W06
 .byte   Cn1
 .byte   N06 ,Gs1
 .byte   W12
 .byte   Gs1
 .byte   W06
 .byte   Gs1
 .byte   W06
 .byte   Gs1
 .byte   N06 ,Dn1
 .byte   W12
 .byte   An1
 .byte   N06 ,Cn1
 .byte   W06
 .byte   An1
 .byte   N06 ,Cn1
 .byte   W06
 .byte   PEND 
@  #09 @023   ----------------------------------------
Label_01008BD5:
 .byte   N06 ,Cn1 ,v127
 .byte   W12
 .byte   Cn1
 .byte   W12
 .byte   Dn1
 .byte   N06 ,Fs1
 .byte   W12
 .byte   Cn1
 .byte   W12
 .byte   Fs1
 .byte   N06 ,Dn1
 .byte   W24
 .byte   Dn1
 .byte   W06
 .byte   Dn1
 .byte   W06
 .byte   Dn1
 .byte   W06
 .byte   Dn1
 .byte   W06
 .byte   PEND 
@  #09 @024   ----------------------------------------
 .byte   PATT
  .word Label_01008B41
@  #09 @025   ----------------------------------------
 .byte   PATT
  .word Label_01008B60
@  #09 @026   ----------------------------------------
 .byte   PATT
  .word Label_01008B80
@  #09 @027   ----------------------------------------
 .byte   PATT
  .word Label_01008B60
@  #09 @028   ----------------------------------------
 .byte   PATT
  .word Label_01008B41
@  #09 @029   ----------------------------------------
 .byte   PATT
  .word Label_01008B60
@  #09 @030   ----------------------------------------
 .byte   PATT
  .word Label_01008BB0
@  #09 @031   ----------------------------------------
Label_01008C11:
 .byte   N06 ,Cn1 ,v127
 .byte   W24
 .byte   Cn1
 .byte   W24
 .byte   Cn1
 .byte   W24
 .byte   Dn1
 .byte   W12
 .byte   Dn1
 .byte   W12
 .byte   PEND 
@  #09 @032   ----------------------------------------
Label_01008C1E:
 .byte   N06 ,Cn1 ,v127
 .byte   N15 ,Cs2
 .byte   N32 ,Gn2 ,v127 ,gtp3
 .byte   W24
 .byte   N06 ,Gs1
 .byte   N06 ,Dn1
 .byte   W12
 .byte   Gs1
 .byte   W06
 .byte   Gs1
 .byte   W06
 .byte   Gs1
 .byte   N06 ,Cn1
 .byte   W12
 .byte   Gs1
 .byte   W06
 .byte   Gs1
 .byte   W06
 .byte   Dn1
 .byte   N06 ,Gs1
 .byte   W12
 .byte   Gs1
 .byte   W06
 .byte   Gs1
 .byte   W06
 .byte   PEND 
@  #09 @033   ----------------------------------------
Label_01008C42:
 .byte   N06 ,Gs1 ,v127
 .byte   N06 ,Cn1
 .byte   W12
 .byte   Gs1
 .byte   W06
 .byte   Gs1
 .byte   W06
 .byte   Dn1
 .byte   N06 ,Gs1
 .byte   W12
 .byte   Gs1
 .byte   W06
 .byte   Gs1
 .byte   W06
 .byte   Gs1
 .byte   N06 ,Cn1
 .byte   W12
 .byte   Gs1
 .byte   W06
 .byte   Gs1
 .byte   W06
 .byte   Dn1
 .byte   N06 ,Gs1
 .byte   W12
 .byte   Gs1
 .byte   W06
 .byte   Gs1
 .byte   W06
 .byte   PEND 
@  #09 @034   ----------------------------------------
Label_01008C65:
 .byte   N06 ,Gs1 ,v127
 .byte   N06 ,Cn1
 .byte   W12
 .byte   Gs1
 .byte   W06
 .byte   Gs1
 .byte   W06
 .byte   Gs1
 .byte   N06 ,Dn1
 .byte   W12
 .byte   Gs1
 .byte   W06
 .byte   Gs1
 .byte   W06
 .byte   Gs1
 .byte   N06 ,Cn1
 .byte   W12
 .byte   Gs1
 .byte   W06
 .byte   Gs1
 .byte   W06
 .byte   Dn1
 .byte   N06 ,Gs1
 .byte   W12
 .byte   Gs1
 .byte   W06
 .byte   Gs1
 .byte   W06
 .byte   PEND 
@  #09 @035   ----------------------------------------
Label_01008C88:
 .byte   N15 ,Cs2 ,v127
 .byte   N06 ,Gs1
 .byte   N06 ,Cn1
 .byte   W12
 .byte   Gs1
 .byte   W06
 .byte   Gs1
 .byte   W06
 .byte   Dn1
 .byte   N06 ,Gs1
 .byte   W12
 .byte   Gs1
 .byte   W06
 .byte   Gs1
 .byte   W06
 .byte   Gs1
 .byte   N06 ,Cn1
 .byte   W12
 .byte   Gs1
 .byte   W06
 .byte   Gs1
 .byte   W06
 .byte   Dn1
 .byte   N06 ,Gs1
 .byte   W12
 .byte   Gs1
 .byte   W06
 .byte   Gs1
 .byte   W06
 .byte   PEND 
@  #09 @036   ----------------------------------------
Label_01008CAD:
 .byte   N06 ,Cn1 ,v127
 .byte   N32 ,Gn2 ,v127 ,gtp3
 .byte   W24
 .byte   N06 ,Gs1
 .byte   N06 ,Dn1
 .byte   W12
 .byte   Gs1
 .byte   W06
 .byte   Gs1
 .byte   W06
 .byte   Gs1
 .byte   N06 ,Cn1
 .byte   W12
 .byte   Gs1
 .byte   W06
 .byte   Gs1
 .byte   W06
 .byte   Dn1
 .byte   N06 ,Gs1
 .byte   W12
 .byte   Gs1
 .byte   W06
 .byte   Gs1
 .byte   W06
 .byte   PEND 
@  #09 @037   ----------------------------------------
Label_01008CCF:
 .byte   N15 ,Cs2 ,v127
 .byte   N06 ,Cn1
 .byte   W24
 .byte   Dn1
 .byte   N06 ,Gs1
 .byte   W12
 .byte   Gs1
 .byte   W06
 .byte   Gs1
 .byte   W06
 .byte   Gs1
 .byte   N06 ,Cn1
 .byte   W12
 .byte   Gs1
 .byte   W06
 .byte   Gs1
 .byte   W06
 .byte   Dn1
 .byte   N06 ,Gs1
 .byte   W12
 .byte   Gs1
 .byte   W06
 .byte   Gs1
 .byte   W06
 .byte   PEND 
@  #09 @038   ----------------------------------------
 .byte   PATT
  .word Label_01008CAD
@  #09 @039   ----------------------------------------
Label_01008CF3:
 .byte   N15 ,Cs2 ,v127
 .byte   N06 ,Cn1
 .byte   W24
 .byte   Dn1
 .byte   W12
 .byte   Dn1
 .byte   W06
 .byte   Dn1
 .byte   W12
 .byte   Dn1
 .byte   W06
 .byte   Dn1
 .byte   W12
 .byte   Dn1
 .byte   W06
 .byte   Dn1
 .byte   W06
 .byte   Dn1
 .byte   W06
 .byte   Dn1
 .byte   W06
 .byte   PEND 
@  #09 @040   ----------------------------------------
 .byte   PATT
  .word Label_01008CAD
@  #09 @041   ----------------------------------------
 .byte   PATT
  .word Label_01008CCF
@  #09 @042   ----------------------------------------
 .byte   PATT
  .word Label_01008CAD
@  #09 @043   ----------------------------------------
 .byte   PATT
  .word Label_01008CCF
@  #09 @044   ----------------------------------------
 .byte   PATT
  .word Label_01008CAD
@  #09 @045   ----------------------------------------
 .byte   PATT
  .word Label_01008CCF
@  #09 @046   ----------------------------------------
 .byte   PATT
  .word Label_01008CAD
@  #09 @047   ----------------------------------------
 .byte   PATT
  .word Label_01008CCF
@  #09 @048   ----------------------------------------
Label_01008D34:
 .byte   N06 ,Cn1 ,v127
 .byte   N15 ,Cs2
 .byte   N32 ,Gn2 ,v127 ,gtp3
 .byte   W18
 .byte   N06 ,Cn1
 .byte   W06
 .byte   Dn1
 .byte   W24
 .byte   Cn1
 .byte   W12
 .byte   Cn1
 .byte   W12
 .byte   Dn1
 .byte   W12
 .byte   Cn1
 .byte   W12
 .byte   PEND 
@  #09 @049   ----------------------------------------
 .byte   PATT
  .word Label_01008D34
@  #09 @050   ----------------------------------------
Label_01008D51:
 .byte   N06 ,Cn1 ,v127
 .byte   N15 ,Cs2
 .byte   N32 ,Gn2 ,v127 ,gtp3
 .byte   W24
 .byte   N06 ,Dn1
 .byte   N24 ,As1
 .byte   W12
 .byte   N06 ,Cn1
 .byte   W12
 .byte   N02 ,As1
 .byte   W12
 .byte   N06 ,Cn1
 .byte   W06
 .byte   Cn1
 .byte   W06
 .byte   Dn1
 .byte   W06
 .byte   Dn1
 .byte   W06
 .byte   Dn1
 .byte   W06
 .byte   Dn1
 .byte   W06
 .byte   PEND 
@  #09 @051   ----------------------------------------
Label_01008D74:
 .byte   N21 ,Cs2 ,v127
 .byte   N06 ,Cn1
 .byte   N40 ,Gn2 ,v127 ,gtp1
 .byte   W24
 .byte   N06 ,Fs1
 .byte   N06 ,Dn1
 .byte   W12
 .byte   Fs1
 .byte   N06 ,Cn1
 .byte   W12
 .byte   Fs1
 .byte   N06 ,Cn1
 .byte   W12
 .byte   Cn1
 .byte   W12
 .byte   Dn1
 .byte   W12
 .byte   N40 ,Gn2 ,v127 ,gtp1
 .byte   W12
@  #09 @052   ----------------------------------------
 .byte   PATT
  .word Label_01008AF3
@  #09 @053   ----------------------------------------
 .byte   PATT
  .word Label_01008AD2
@  #09 @054   ----------------------------------------
 .byte   PATT
  .word Label_01008AF3
@  #09 @055   ----------------------------------------
 .byte   PATT
  .word Label_01008AD2
@  #09 @056   ----------------------------------------
 .byte   PATT
  .word Label_01008AF3
@  #09 @057   ----------------------------------------
 .byte   PATT
  .word Label_01008AD2
@  #09 @058   ----------------------------------------
 .byte   PATT
  .word Label_01008B28
@  #09 @059   ----------------------------------------
 .byte   PATT
  .word Label_01008B41
@  #09 @060   ----------------------------------------
 .byte   PATT
  .word Label_01008B60
@  #09 @061   ----------------------------------------
 .byte   PATT
  .word Label_01008B80
@  #09 @062   ----------------------------------------
 .byte   PATT
  .word Label_01008B60
@  #09 @063   ----------------------------------------
 .byte   PATT
  .word Label_01008B41
@  #09 @064   ----------------------------------------
 .byte   PATT
  .word Label_01008B60
@  #09 @065   ----------------------------------------
 .byte   PATT
  .word Label_01008BB0
@  #09 @066   ----------------------------------------
 .byte   PATT
  .word Label_01008BD5
@  #09 @067   ----------------------------------------
 .byte   PATT
  .word Label_01008B41
@  #09 @068   ----------------------------------------
 .byte   PATT
  .word Label_01008B60
@  #09 @069   ----------------------------------------
 .byte   PATT
  .word Label_01008B80
@  #09 @070   ----------------------------------------
 .byte   PATT
  .word Label_01008B60
@  #09 @071   ----------------------------------------
 .byte   PATT
  .word Label_01008B41
@  #09 @072   ----------------------------------------
 .byte   PATT
  .word Label_01008B60
@  #09 @073   ----------------------------------------
 .byte   PATT
  .word Label_01008BB0
@  #09 @074   ----------------------------------------
 .byte   PATT
  .word Label_01008C11
@  #09 @075   ----------------------------------------
 .byte   PATT
  .word Label_01008C1E
@  #09 @076   ----------------------------------------
 .byte   PATT
  .word Label_01008C42
@  #09 @077   ----------------------------------------
 .byte   PATT
  .word Label_01008C65
@  #09 @078   ----------------------------------------
 .byte   PATT
  .word Label_01008C88
@  #09 @079   ----------------------------------------
 .byte   PATT
  .word Label_01008CAD
@  #09 @080   ----------------------------------------
 .byte   PATT
  .word Label_01008CCF
@  #09 @081   ----------------------------------------
 .byte   PATT
  .word Label_01008CAD
@  #09 @082   ----------------------------------------
 .byte   PATT
  .word Label_01008CF3
@  #09 @083   ----------------------------------------
 .byte   PATT
  .word Label_01008CAD
@  #09 @084   ----------------------------------------
 .byte   PATT
  .word Label_01008CCF
@  #09 @085   ----------------------------------------
 .byte   PATT
  .word Label_01008CAD
@  #09 @086   ----------------------------------------
 .byte   PATT
  .word Label_01008CCF
@  #09 @087   ----------------------------------------
 .byte   PATT
  .word Label_01008CAD
@  #09 @088   ----------------------------------------
 .byte   PATT
  .word Label_01008CCF
@  #09 @089   ----------------------------------------
 .byte   PATT
  .word Label_01008CAD
@  #09 @090   ----------------------------------------
 .byte   PATT
  .word Label_01008CCF
@  #09 @091   ----------------------------------------
 .byte   PATT
  .word Label_01008D34
@  #09 @092   ----------------------------------------
 .byte   PATT
  .word Label_01008D34
@  #09 @093   ----------------------------------------
 .byte   PATT
  .word Label_01008D51
@  #09 @094   ----------------------------------------
 .byte   PATT
  .word Label_01008AD2
@  #09 @095   ----------------------------------------
 .byte   PATT
  .word Label_01008AF3
@  #09 @096   ----------------------------------------
 .byte   PATT
  .word Label_01008AD2
@  #09 @097   ----------------------------------------
 .byte   PATT
  .word Label_01008AF3
@  #09 @098   ----------------------------------------
 .byte   PATT
  .word Label_01008AD2
@  #09 @099   ----------------------------------------
 .byte   PATT
  .word Label_01008AF3
@  #09 @100   ----------------------------------------
 .byte   PATT
  .word Label_01008AD2
@  #09 @101   ----------------------------------------
 .byte   PATT
  .word Label_01008B28
@  #09 @102   ----------------------------------------
 .byte   PATT
  .word Label_01008B41
@  #09 @103   ----------------------------------------
 .byte   PATT
  .word Label_01008B60
@  #09 @104   ----------------------------------------
 .byte   PATT
  .word Label_01008B80
@  #09 @105   ----------------------------------------
 .byte   PATT
  .word Label_01008B60
@  #09 @106   ----------------------------------------
 .byte   PATT
  .word Label_01008B41
@  #09 @107   ----------------------------------------
 .byte   PATT
  .word Label_01008B60
@  #09 @108   ----------------------------------------
 .byte   PATT
  .word Label_01008BB0
@  #09 @109   ----------------------------------------
 .byte   PATT
  .word Label_01008BD5
@  #09 @110   ----------------------------------------
 .byte   PATT
  .word Label_01008B41
@  #09 @111   ----------------------------------------
 .byte   PATT
  .word Label_01008B60
@  #09 @112   ----------------------------------------
 .byte   PATT
  .word Label_01008B80
@  #09 @113   ----------------------------------------
 .byte   PATT
  .word Label_01008B60
@  #09 @114   ----------------------------------------
 .byte   PATT
  .word Label_01008B41
@  #09 @115   ----------------------------------------
 .byte   PATT
  .word Label_01008B60
@  #09 @116   ----------------------------------------
 .byte   PATT
  .word Label_01008BB0
@  #09 @117   ----------------------------------------
 .byte   PATT
  .word Label_01008C11
@  #09 @118   ----------------------------------------
 .byte   PATT
  .word Label_01008C1E
@  #09 @119   ----------------------------------------
 .byte   PATT
  .word Label_01008C42
@  #09 @120   ----------------------------------------
 .byte   PATT
  .word Label_01008C65
@  #09 @121   ----------------------------------------
 .byte   PATT
  .word Label_01008C88
@  #09 @122   ----------------------------------------
 .byte   PATT
  .word Label_01008CAD
@  #09 @123   ----------------------------------------
 .byte   PATT
  .word Label_01008CCF
@  #09 @124   ----------------------------------------
 .byte   PATT
  .word Label_01008CAD
@  #09 @125   ----------------------------------------
 .byte   PATT
  .word Label_01008CF3
@  #09 @126   ----------------------------------------
 .byte   PATT
  .word Label_01008CAD
@  #09 @127   ----------------------------------------
 .byte   PATT
  .word Label_01008CCF
@  #09 @128   ----------------------------------------
 .byte   PATT
  .word Label_01008CAD
@  #09 @129   ----------------------------------------
 .byte   PATT
  .word Label_01008CCF
@  #09 @130   ----------------------------------------
 .byte   PATT
  .word Label_01008CAD
@  #09 @131   ----------------------------------------
 .byte   PATT
  .word Label_01008CCF
@  #09 @132   ----------------------------------------
 .byte   PATT
  .word Label_01008CAD
@  #09 @133   ----------------------------------------
 .byte   PATT
  .word Label_01008CCF
@  #09 @134   ----------------------------------------
 .byte   PATT
  .word Label_01008D34
@  #09 @135   ----------------------------------------
 .byte   PATT
  .word Label_01008D34
@  #09 @136   ----------------------------------------
 .byte   PATT
  .word Label_01008D51
@  #09 @137   ----------------------------------------
 .byte   GOTO
  .word Label_01008D74
@  #09 @138   ----------------------------------------
 .byte   W96
 .byte   FINE

@**************** Track 10 (Midi-Chn.9) ****************@

song02_010:
@  #10 @000   ----------------------------------------
 .byte   KEYSH , song02_key+0
 .byte   VOICE , 31
 .byte   VOL , 69*song02_mvl/mxv
 .byte   BENDR, 12
 .byte   W96
@  #10 @001   ----------------------------------------
 .byte   W96
@  #10 @002   ----------------------------------------
 .byte   W96
@  #10 @003   ----------------------------------------
 .byte   W96
@  #10 @004   ----------------------------------------
 .byte   W96
@  #10 @005   ----------------------------------------
 .byte   W96
@  #10 @006   ----------------------------------------
 .byte   W96
@  #10 @007   ----------------------------------------
 .byte   W96
@  #10 @008   ----------------------------------------
 .byte   W96
@  #10 @009   ----------------------------------------
 .byte   W96
@  #10 @010   ----------------------------------------
 .byte   W96
@  #10 @011   ----------------------------------------
 .byte   W96
@  #10 @012   ----------------------------------------
 .byte   W96
@  #10 @013   ----------------------------------------
 .byte   W96
@  #10 @014   ----------------------------------------
 .byte   W96
@  #10 @015   ----------------------------------------
 .byte   W96
@  #10 @016   ----------------------------------------
 .byte   W96
@  #10 @017   ----------------------------------------
 .byte   W96
@  #10 @018   ----------------------------------------
 .byte   W96
@  #10 @019   ----------------------------------------
 .byte   W96
@  #10 @020   ----------------------------------------
 .byte   W96
@  #10 @021   ----------------------------------------
 .byte   W96
@  #10 @022   ----------------------------------------
 .byte   W96
@  #10 @023   ----------------------------------------
 .byte   W96
@  #10 @024   ----------------------------------------
 .byte   W96
@  #10 @025   ----------------------------------------
 .byte   W96
@  #10 @026   ----------------------------------------
 .byte   W96
@  #10 @027   ----------------------------------------
 .byte   W96
@  #10 @028   ----------------------------------------
 .byte   W96
@  #10 @029   ----------------------------------------
 .byte   W96
@  #10 @030   ----------------------------------------
 .byte   W96
@  #10 @031   ----------------------------------------
 .byte   W96
@  #10 @032   ----------------------------------------
 .byte   W96
@  #10 @033   ----------------------------------------
 .byte   W96
@  #10 @034   ----------------------------------------
 .byte   W96
@  #10 @035   ----------------------------------------
 .byte   W96
@  #10 @036   ----------------------------------------
 .byte   W96
@  #10 @037   ----------------------------------------
 .byte   W96
@  #10 @038   ----------------------------------------
 .byte   W96
@  #10 @039   ----------------------------------------
 .byte   W96
@  #10 @040   ----------------------------------------
 .byte   W96
@  #10 @041   ----------------------------------------
 .byte   W96
@  #10 @042   ----------------------------------------
 .byte   W96
@  #10 @043   ----------------------------------------
 .byte   W96
@  #10 @044   ----------------------------------------
 .byte   W96
@  #10 @045   ----------------------------------------
 .byte   W96
@  #10 @046   ----------------------------------------
 .byte   W96
@  #10 @047   ----------------------------------------
 .byte   W96
@  #10 @048   ----------------------------------------
 .byte   W96
@  #10 @049   ----------------------------------------
 .byte   W96
@  #10 @050   ----------------------------------------
 .byte   W23
 .byte   N72 ,Cn3 ,v127 ,gtp1
 .byte   W72
 .byte   W01
@  #10 @051   ----------------------------------------
Label_010042F1:
 .byte   W96
@  #10 @052   ----------------------------------------
 .byte   W96
@  #10 @053   ----------------------------------------
 .byte   W96
@  #10 @054   ----------------------------------------
 .byte   W96
@  #10 @055   ----------------------------------------
 .byte   W96
@  #10 @056   ----------------------------------------
 .byte   W96
@  #10 @057   ----------------------------------------
 .byte   W96
@  #10 @058   ----------------------------------------
 .byte   W96
@  #10 @059   ----------------------------------------
 .byte   W96
@  #10 @060   ----------------------------------------
 .byte   W96
@  #10 @061   ----------------------------------------
 .byte   W96
@  #10 @062   ----------------------------------------
 .byte   W96
@  #10 @063   ----------------------------------------
 .byte   W96
@  #10 @064   ----------------------------------------
 .byte   W96
@  #10 @065   ----------------------------------------
 .byte   W96
@  #10 @066   ----------------------------------------
 .byte   W96
@  #10 @067   ----------------------------------------
 .byte   W96
@  #10 @068   ----------------------------------------
 .byte   W96
@  #10 @069   ----------------------------------------
 .byte   W96
@  #10 @070   ----------------------------------------
 .byte   W96
@  #10 @071   ----------------------------------------
 .byte   W96
@  #10 @072   ----------------------------------------
 .byte   W96
@  #10 @073   ----------------------------------------
 .byte   W96
@  #10 @074   ----------------------------------------
 .byte   W96
@  #10 @075   ----------------------------------------
 .byte   W96
@  #10 @076   ----------------------------------------
 .byte   W96
@  #10 @077   ----------------------------------------
 .byte   W96
@  #10 @078   ----------------------------------------
 .byte   W96
@  #10 @079   ----------------------------------------
 .byte   W96
@  #10 @080   ----------------------------------------
 .byte   W96
@  #10 @081   ----------------------------------------
 .byte   W96
@  #10 @082   ----------------------------------------
 .byte   W96
@  #10 @083   ----------------------------------------
 .byte   W96
@  #10 @084   ----------------------------------------
 .byte   W96
@  #10 @085   ----------------------------------------
 .byte   W96
@  #10 @086   ----------------------------------------
 .byte   W96
@  #10 @087   ----------------------------------------
 .byte   W96
@  #10 @088   ----------------------------------------
 .byte   W96
@  #10 @089   ----------------------------------------
 .byte   W96
@  #10 @090   ----------------------------------------
 .byte   W96
@  #10 @091   ----------------------------------------
 .byte   W96
@  #10 @092   ----------------------------------------
 .byte   W96
@  #10 @093   ----------------------------------------
 .byte   W24
 .byte   N72 ,Cn3 ,v127
 .byte   W72
@  #10 @094   ----------------------------------------
 .byte   W96
@  #10 @095   ----------------------------------------
 .byte   W96
@  #10 @096   ----------------------------------------
 .byte   W96
@  #10 @097   ----------------------------------------
 .byte   W96
@  #10 @098   ----------------------------------------
 .byte   W96
@  #10 @099   ----------------------------------------
 .byte   W96
@  #10 @100   ----------------------------------------
 .byte   W96
@  #10 @101   ----------------------------------------
 .byte   W96
@  #10 @102   ----------------------------------------
 .byte   W96
@  #10 @103   ----------------------------------------
 .byte   W96
@  #10 @104   ----------------------------------------
 .byte   W96
@  #10 @105   ----------------------------------------
 .byte   W96
@  #10 @106   ----------------------------------------
 .byte   W96
@  #10 @107   ----------------------------------------
 .byte   W96
@  #10 @108   ----------------------------------------
 .byte   W96
@  #10 @109   ----------------------------------------
 .byte   W96
@  #10 @110   ----------------------------------------
 .byte   W96
@  #10 @111   ----------------------------------------
 .byte   W96
@  #10 @112   ----------------------------------------
 .byte   W96
@  #10 @113   ----------------------------------------
 .byte   W96
@  #10 @114   ----------------------------------------
 .byte   W96
@  #10 @115   ----------------------------------------
 .byte   W96
@  #10 @116   ----------------------------------------
 .byte   W96
@  #10 @117   ----------------------------------------
 .byte   W96
@  #10 @118   ----------------------------------------
 .byte   W96
@  #10 @119   ----------------------------------------
 .byte   W96
@  #10 @120   ----------------------------------------
 .byte   W96
@  #10 @121   ----------------------------------------
 .byte   W96
@  #10 @122   ----------------------------------------
 .byte   W96
@  #10 @123   ----------------------------------------
 .byte   W96
@  #10 @124   ----------------------------------------
 .byte   W96
@  #10 @125   ----------------------------------------
 .byte   W96
@  #10 @126   ----------------------------------------
 .byte   W96
@  #10 @127   ----------------------------------------
 .byte   W96
@  #10 @128   ----------------------------------------
 .byte   W96
@  #10 @129   ----------------------------------------
 .byte   W96
@  #10 @130   ----------------------------------------
 .byte   W96
@  #10 @131   ----------------------------------------
 .byte   W96
@  #10 @132   ----------------------------------------
 .byte   W96
@  #10 @133   ----------------------------------------
 .byte   W96
@  #10 @134   ----------------------------------------
 .byte   W96
@  #10 @135   ----------------------------------------
 .byte   W96
@  #10 @136   ----------------------------------------
 .byte   W24
 .byte   N80 ,Cn3 ,v127 ,gtp1
 .byte   W72
@  #10 @137   ----------------------------------------
 .byte   GOTO
  .word Label_010042F1
@  #10 @138   ----------------------------------------
 .byte   W96
 .byte   FINE

@******************************************************@
	.align	2

song02:
	.byte	10	@ NumTrks
	.byte	0	@ NumBlks
	.byte	song02_pri	@ Priority
	.byte	song02_rev	@ Reverb.
    
	.word	song02_grp
    
	.word	song02_001
	.word	song02_002
	.word	song02_003
	.word	song02_004
	.word	song02_005
	.word	song02_006
	.word	song02_007
	.word	song02_008
	.word	song02_009
	.word	song02_010

	.end
