	.include "MPlayDef.s"

	.equ	song06_grp, voicegroup000
	.equ	song06_pri, 0
	.equ	song06_rev, 0
	.equ	song06_mvl, 127
	.equ	song06_key, 0
	.equ	song06_tbs, 1
	.equ	song06_exg, 0
	.equ	song06_cmp, 1

	.section .rodata
	.global	song06
	.align	2


@**************** Track 1 (Midi-Chn.0) ****************@

song06_001:
@  #01 @000   ----------------------------------------
 .byte   KEYSH , song06_key+0
 .byte   TEMPO , 144*song06_tbs/2
 .byte   VOICE , 57
 .byte   VOL , 49*song06_mvl/mxv
 .byte   PAN , c_v-30
 .byte   W96
@  #01 @001   ----------------------------------------
 .byte   W96
@  #01 @002   ----------------------------------------
 .byte   TIE ,Gn4 ,v080
 .byte   W96
@  #01 @003   ----------------------------------------
 .byte   W96
@  #01 @004   ----------------------------------------
 .byte   W44
 .byte   W03
 .byte   EOT
 .byte   W01
 .byte   N23 ,An4
 .byte   W24
 .byte   Cn5
 .byte   W24
@  #01 @005   ----------------------------------------
 .byte   N88 ,Dn5
 .byte   W96
@  #01 @006   ----------------------------------------
Label_0100C5F9:
 .byte   N60 ,As3 ,v080
 .byte   W64
 .byte   N15 ,An3
 .byte   W16
 .byte   Gn3
 .byte   W16
 .byte   PEND 
@  #01 @007   ----------------------------------------
Label_0100C603:
 .byte   N44 ,Fn3 ,v080
 .byte   W48
 .byte   An3
 .byte   W48
 .byte   PEND 
@  #01 @008   ----------------------------------------
 .byte   N92 ,Fn3
 .byte   W96
@  #01 @009   ----------------------------------------
Label_0100C60D:
 .byte   N23 ,Cn3 ,v080
 .byte   W24
 .byte   En3
 .byte   W24
 .byte   Gn3
 .byte   W24
 .byte   An3
 .byte   W24
 .byte   PEND 
@  #01 @010   ----------------------------------------
 .byte   PATT
  .word Label_0100C5F9
@  #01 @011   ----------------------------------------
 .byte   N92 ,Fn3 ,v080
 .byte   W96
@  #01 @012   ----------------------------------------
Label_0100C621:
 .byte   N23 ,Dn4 ,v080
 .byte   W24
 .byte   Fn3
 .byte   W24
 .byte   As3
 .byte   W24
 .byte   Dn4
 .byte   W24
 .byte   PEND 
@  #01 @013   ----------------------------------------
 .byte   N92 ,Cn4
 .byte   W96
@  #01 @014   ----------------------------------------
 .byte   PATT
  .word Label_0100C5F9
@  #01 @015   ----------------------------------------
 .byte   PATT
  .word Label_0100C603
@  #01 @016   ----------------------------------------
 .byte   N92 ,Fn3 ,v080
 .byte   W96
@  #01 @017   ----------------------------------------
 .byte   PATT
  .word Label_0100C60D
@  #01 @018   ----------------------------------------
 .byte   PATT
  .word Label_0100C5F9
@  #01 @019   ----------------------------------------
 .byte   N92 ,Fn3 ,v080
 .byte   W96
@  #01 @020   ----------------------------------------
 .byte   PATT
  .word Label_0100C621
@  #01 @021   ----------------------------------------
 .byte   N80 ,Cn4 ,v080
 .byte   W84
 .byte   N06 ,Dn4 ,v096
 .byte   W06
 .byte   En4
 .byte   W06
@  #01 @022   ----------------------------------------
Label_0100C65A:
 .byte   N17 ,Fn4 ,v096
 .byte   W24
 .byte   N05
 .byte   W12
 .byte   Gn4
 .byte   W24
 .byte   N05
 .byte   W24
 .byte   An4
 .byte   W12
 .byte   PEND 
@  #01 @023   ----------------------------------------
Label_0100C667:
 .byte   W12
 .byte   N05 ,Cn4 ,v096
 .byte   W24
 .byte   N44 ,Dn4
 .byte   W48
 .byte   N06
 .byte   W06
 .byte   En4
 .byte   W06
 .byte   PEND 
@  #01 @024   ----------------------------------------
 .byte   N17 ,Fn4
 .byte   W24
 .byte   N05
 .byte   W12
 .byte   Gn4
 .byte   W24
 .byte   N05
 .byte   W24
 .byte   N92 ,An4
 .byte   W12
@  #01 @025   ----------------------------------------
 .byte   W96
@  #01 @026   ----------------------------------------
 .byte   PATT
  .word Label_0100C65A
@  #01 @027   ----------------------------------------
 .byte   PATT
  .word Label_0100C667
@  #01 @028   ----------------------------------------
 .byte   N17 ,Fn4 ,v096
 .byte   W24
 .byte   N05
 .byte   W12
 .byte   N06 ,Gn4
 .byte   W24
 .byte   N05
 .byte   W24
 .byte   TIE ,En4
 .byte   W12
@  #01 @029   ----------------------------------------
 .byte   W88
 .byte   W01
 .byte   EOT
 .byte   W07
@  #01 @030   ----------------------------------------
 .byte   W96
@  #01 @031   ----------------------------------------
 .byte   W96
@  #01 @032   ----------------------------------------
 .byte   W96
@  #01 @033   ----------------------------------------
 .byte   W96
@  #01 @034   ----------------------------------------
 .byte   W96
@  #01 @035   ----------------------------------------
 .byte   W96
@  #01 @036   ----------------------------------------
 .byte   W96
@  #01 @037   ----------------------------------------
 .byte   W96
@  #01 @038   ----------------------------------------
 .byte   W96
@  #01 @039   ----------------------------------------
 .byte   W96
@  #01 @040   ----------------------------------------
 .byte   TIE ,Gn4 ,v080
 .byte   W96
@  #01 @041   ----------------------------------------
 .byte   W96
@  #01 @042   ----------------------------------------
 .byte   W44
 .byte   W03
 .byte   EOT
 .byte   W01
 .byte   N23 ,An4
 .byte   W24
 .byte   Cn5
 .byte   W24
@  #01 @043   ----------------------------------------
 .byte   N88 ,Dn5
 .byte   W96
@  #01 @044   ----------------------------------------
 .byte   GOTO
  .word Label_0100C5F9
 .byte   FINE

@**************** Track 2 (Midi-Chn.1) ****************@

song06_002:
@  #02 @000   ----------------------------------------
 .byte   KEYSH , song06_key+0
 .byte   VOICE , 65
 .byte   VOL , 49*song06_mvl/mxv
 .byte   PAN , c_v-19
 .byte   W96
@  #02 @001   ----------------------------------------
 .byte   W96
@  #02 @002   ----------------------------------------
 .byte   TIE ,Cn4 ,v080
 .byte   W96
@  #02 @003   ----------------------------------------
 .byte   W92
 .byte   W03
 .byte   EOT
 .byte   W01
@  #02 @004   ----------------------------------------
Label_0100C6D2:
 .byte   W24
 .byte   N23 ,Dn4 ,v080
 .byte   W24
 .byte   Fn4
 .byte   W24
 .byte   An4
 .byte   W24
 .byte   PEND 
@  #02 @005   ----------------------------------------
 .byte   N88 ,Cn5
 .byte   W96
@  #02 @006   ----------------------------------------
Label_0100C6DF:
 .byte   N92 ,Dn3 ,v080
 .byte   W96
@  #02 @007   ----------------------------------------
 .byte   Cn3
 .byte   W96
@  #02 @008   ----------------------------------------
 .byte   N92
 .byte   W96
@  #02 @009   ----------------------------------------
 .byte   Gn2
 .byte   W96
@  #02 @010   ----------------------------------------
 .byte   Dn3
 .byte   W96
@  #02 @011   ----------------------------------------
 .byte   Cn3
 .byte   W96
@  #02 @012   ----------------------------------------
 .byte   Dn3
 .byte   W96
@  #02 @013   ----------------------------------------
 .byte   N44 ,Fn4
 .byte   W48
 .byte   En4
 .byte   W48
@  #02 @014   ----------------------------------------
 .byte   N92 ,Dn3
 .byte   W96
@  #02 @015   ----------------------------------------
 .byte   Cn3
 .byte   W96
@  #02 @016   ----------------------------------------
 .byte   N92
 .byte   W96
@  #02 @017   ----------------------------------------
 .byte   Gn2
 .byte   W96
@  #02 @018   ----------------------------------------
 .byte   Dn3
 .byte   W96
@  #02 @019   ----------------------------------------
 .byte   Cn3
 .byte   W96
@  #02 @020   ----------------------------------------
 .byte   Dn3
 .byte   W96
@  #02 @021   ----------------------------------------
 .byte   N44 ,Fn4
 .byte   W48
 .byte   N32 ,En4
 .byte   W36
 .byte   N06 ,Gn3 ,v096
 .byte   W06
 .byte   An3
 .byte   W06
@  #02 @022   ----------------------------------------
Label_0100C70F:
 .byte   N17 ,Cn4 ,v096
 .byte   W24
 .byte   N05
 .byte   W12
 .byte   N05
 .byte   W24
 .byte   N05
 .byte   W24
 .byte   N05
 .byte   W12
 .byte   PEND 
@  #02 @023   ----------------------------------------
 .byte   W12
 .byte   Fn3
 .byte   W24
 .byte   N44 ,Cn4
 .byte   W48
 .byte   N06 ,An3
 .byte   W06
 .byte   As3
 .byte   W06
@  #02 @024   ----------------------------------------
 .byte   N17 ,Cn4
 .byte   W24
 .byte   N05
 .byte   W11
 .byte   N05
 .byte   W24
 .byte   N05
 .byte   W24
 .byte   W01
 .byte   N92
 .byte   W12
@  #02 @025   ----------------------------------------
 .byte   W96
@  #02 @026   ----------------------------------------
 .byte   PATT
  .word Label_0100C70F
@  #02 @027   ----------------------------------------
 .byte   W12
 .byte   N05 ,Fn3 ,v096
 .byte   W24
 .byte   N44 ,Cn4
 .byte   W60
@  #02 @028   ----------------------------------------
 .byte   N17
 .byte   W24
 .byte   N05
 .byte   W12
 .byte   N06 ,As3
 .byte   W24
 .byte   N05
 .byte   W24
 .byte   TIE ,Gn3
 .byte   W12
@  #02 @029   ----------------------------------------
 .byte   W88
 .byte   W01
 .byte   EOT
 .byte   W07
@  #02 @030   ----------------------------------------
 .byte   W96
@  #02 @031   ----------------------------------------
 .byte   W96
@  #02 @032   ----------------------------------------
 .byte   W96
@  #02 @033   ----------------------------------------
 .byte   W96
@  #02 @034   ----------------------------------------
 .byte   W96
@  #02 @035   ----------------------------------------
 .byte   W96
@  #02 @036   ----------------------------------------
 .byte   W96
@  #02 @037   ----------------------------------------
 .byte   W96
@  #02 @038   ----------------------------------------
 .byte   W96
@  #02 @039   ----------------------------------------
 .byte   W96
@  #02 @040   ----------------------------------------
 .byte   TIE ,Cn4 ,v080
 .byte   W96
@  #02 @041   ----------------------------------------
 .byte   W92
 .byte   W03
 .byte   EOT
 .byte   W01
@  #02 @042   ----------------------------------------
 .byte   PATT
  .word Label_0100C6D2
@  #02 @043   ----------------------------------------
 .byte   N88 ,Cn5 ,v080
 .byte   W96
@  #02 @044   ----------------------------------------
 .byte   GOTO
  .word Label_0100C6DF
 .byte   FINE

@**************** Track 3 (Midi-Chn.2) ****************@

song06_003:
@  #03 @000   ----------------------------------------
 .byte   KEYSH , song06_key+0
 .byte   VOICE , 69
 .byte   VOL , 52*song06_mvl/mxv
 .byte   PAN , c_v+6
 .byte   W96
@  #03 @001   ----------------------------------------
 .byte   W96
@  #03 @002   ----------------------------------------
 .byte   TIE ,Dn3 ,v080
 .byte   W96
@  #03 @003   ----------------------------------------
 .byte   W23
 .byte   EOT
 .byte   W01
 .byte   N23
 .byte   W24
 .byte   An3
 .byte   W24
 .byte   Cn4
 .byte   W24
@  #03 @004   ----------------------------------------
Label_0102293F:
 .byte   N23 ,Dn4 ,v080
 .byte   W24
 .byte   TIE ,Dn3
 .byte   W72
 .byte   PEND 
@  #03 @005   ----------------------------------------
 .byte   W88
 .byte   W01
 .byte   EOT
 .byte   W07
@  #03 @006   ----------------------------------------
Label_0102294B:
 .byte   W16
 .byte   N15 ,Dn2 ,v080
 .byte   W16
 .byte   An2
 .byte   W16
 .byte   As2
 .byte   W16
 .byte   An2
 .byte   W16
 .byte   As2
 .byte   W16
 .byte   PEND 
@  #03 @007   ----------------------------------------
Label_01022959:
 .byte   N44 ,An2 ,v080
 .byte   W48
 .byte   Fn2
 .byte   W48
 .byte   PEND 
@  #03 @008   ----------------------------------------
Label_01022960:
 .byte   W24
 .byte   N23 ,Cn2 ,v080
 .byte   W24
 .byte   Gn2
 .byte   W24
 .byte   Fn2
 .byte   W24
 .byte   PEND 
@  #03 @009   ----------------------------------------
Label_0102296A:
 .byte   N44 ,En2 ,v080
 .byte   W48
 .byte   N23 ,Dn3
 .byte   W24
 .byte   Cn3
 .byte   W24
 .byte   PEND 
@  #03 @010   ----------------------------------------
 .byte   PATT
  .word Label_0102294B
@  #03 @011   ----------------------------------------
Label_01022979:
 .byte   N23 ,An2 ,v080
 .byte   W24
 .byte   Cn2
 .byte   W24
 .byte   Fn2
 .byte   W24
 .byte   An2
 .byte   W24
 .byte   PEND 
@  #03 @012   ----------------------------------------
Label_01022984:
 .byte   N68 ,As2 ,v080
 .byte   W72
 .byte   N23 ,Fn3
 .byte   W24
 .byte   PEND 
@  #03 @013   ----------------------------------------
 .byte   N92 ,Gn3
 .byte   W96
@  #03 @014   ----------------------------------------
 .byte   PATT
  .word Label_0102294B
@  #03 @015   ----------------------------------------
 .byte   PATT
  .word Label_01022959
@  #03 @016   ----------------------------------------
 .byte   PATT
  .word Label_01022960
@  #03 @017   ----------------------------------------
 .byte   PATT
  .word Label_0102296A
@  #03 @018   ----------------------------------------
 .byte   PATT
  .word Label_0102294B
@  #03 @019   ----------------------------------------
 .byte   PATT
  .word Label_01022979
@  #03 @020   ----------------------------------------
 .byte   PATT
  .word Label_01022984
@  #03 @021   ----------------------------------------
 .byte   N80 ,Gn3 ,v080
 .byte   W84
 .byte   N06 ,En3 ,v096
 .byte   W06
 .byte   Cn3
 .byte   W06
@  #03 @022   ----------------------------------------
Label_010229BC:
 .byte   N17 ,An2 ,v096
 .byte   W24
 .byte   N05
 .byte   W12
 .byte   Gn2
 .byte   W24
 .byte   N05
 .byte   W24
 .byte   An2
 .byte   W12
 .byte   PEND 
@  #03 @023   ----------------------------------------
 .byte   W12
 .byte   N05
 .byte   W24
 .byte   N44 ,Fn3
 .byte   W48
 .byte   N06 ,En3
 .byte   W06
 .byte   Cn3
 .byte   W06
@  #03 @024   ----------------------------------------
 .byte   N17 ,An2
 .byte   W24
 .byte   N05
 .byte   W12
 .byte   Gn2
 .byte   W24
 .byte   N05
 .byte   W24
 .byte   N92 ,Fn3
 .byte   W12
@  #03 @025   ----------------------------------------
 .byte   W96
@  #03 @026   ----------------------------------------
 .byte   PATT
  .word Label_010229BC
@  #03 @027   ----------------------------------------
 .byte   W12
 .byte   N05 ,An2 ,v096
 .byte   W24
 .byte   N44 ,Fn3
 .byte   W48
 .byte   N06
 .byte   W06
 .byte   Gn3
 .byte   W06
@  #03 @028   ----------------------------------------
 .byte   N17 ,Fn3
 .byte   W24
 .byte   N05
 .byte   W12
 .byte   N06
 .byte   W24
 .byte   N05
 .byte   W24
 .byte   TIE ,Cs3
 .byte   W12
@  #03 @029   ----------------------------------------
 .byte   W88
 .byte   W01
 .byte   EOT
 .byte   W07
@  #03 @030   ----------------------------------------
 .byte   W96
@  #03 @031   ----------------------------------------
 .byte   W96
@  #03 @032   ----------------------------------------
 .byte   W96
@  #03 @033   ----------------------------------------
 .byte   W96
@  #03 @034   ----------------------------------------
 .byte   W96
@  #03 @035   ----------------------------------------
 .byte   W96
@  #03 @036   ----------------------------------------
 .byte   W96
@  #03 @037   ----------------------------------------
 .byte   W96
@  #03 @038   ----------------------------------------
 .byte   W96
@  #03 @039   ----------------------------------------
 .byte   W96
@  #03 @040   ----------------------------------------
 .byte   TIE ,Dn3 ,v080
 .byte   W96
@  #03 @041   ----------------------------------------
 .byte   W23
 .byte   EOT
 .byte   W01
 .byte   N23
 .byte   W24
 .byte   An3
 .byte   W24
 .byte   Cn4
 .byte   W24
@  #03 @042   ----------------------------------------
 .byte   PATT
  .word Label_0102293F
@  #03 @043   ----------------------------------------
 .byte   W88
 .byte   W01
 .byte   EOT
 .byte   Dn3
 .byte   W07
@  #03 @044   ----------------------------------------
 .byte   GOTO
  .word Label_0102294B
 .byte   FINE

@**************** Track 4 (Midi-Chn.3) ****************@

song06_004:
@  #04 @000   ----------------------------------------
 .byte   KEYSH , song06_key+0
 .byte   VOICE , 60
 .byte   VOL , 49*song06_mvl/mxv
 .byte   PAN , c_v+30
 .byte   W96
@  #04 @001   ----------------------------------------
 .byte   W96
@  #04 @002   ----------------------------------------
Label_01022A36:
 .byte   N23 ,Gn2 ,v092
 .byte   W24
 .byte   Dn2
 .byte   W24
 .byte   An2
 .byte   W24
 .byte   Cn3
 .byte   W24
 .byte   PEND 
@  #04 @003   ----------------------------------------
Label_01022A41:
 .byte   N23 ,Dn3 ,v092
 .byte   W24
 .byte   TIE ,Gn2
 .byte   W72
 .byte   PEND 
@  #04 @004   ----------------------------------------
 .byte   W96
@  #04 @005   ----------------------------------------
 .byte   W88
 .byte   W01
 .byte   EOT
 .byte   W07
@  #04 @006   ----------------------------------------
Label_01022A4E:
 .byte   W96
@  #04 @007   ----------------------------------------
 .byte   W96
@  #04 @008   ----------------------------------------
 .byte   W96
@  #04 @009   ----------------------------------------
 .byte   W96
@  #04 @010   ----------------------------------------
 .byte   W96
@  #04 @011   ----------------------------------------
 .byte   W96
@  #04 @012   ----------------------------------------
 .byte   W96
@  #04 @013   ----------------------------------------
 .byte   W96
@  #04 @014   ----------------------------------------
 .byte   W96
@  #04 @015   ----------------------------------------
 .byte   W96
@  #04 @016   ----------------------------------------
 .byte   W96
@  #04 @017   ----------------------------------------
 .byte   W96
@  #04 @018   ----------------------------------------
 .byte   W96
@  #04 @019   ----------------------------------------
 .byte   W96
@  #04 @020   ----------------------------------------
 .byte   W96
@  #04 @021   ----------------------------------------
 .byte   W96
@  #04 @022   ----------------------------------------
Label_01022A5E:
 .byte   N17 ,Dn2 ,v104
 .byte   W24
 .byte   N05
 .byte   W12
 .byte   N06 ,Cn2
 .byte   W24
 .byte   En2
 .byte   W12
 .byte   Gn2
 .byte   W12
 .byte   Fn2
 .byte   W12
 .byte   PEND 
@  #04 @023   ----------------------------------------
 .byte   W12
 .byte   N05 ,An1
 .byte   W24
 .byte   N19 ,As1
 .byte   W24
 .byte   N05
 .byte   W12
 .byte   Cn2
 .byte   W24
@  #04 @024   ----------------------------------------
 .byte   N17 ,Dn2
 .byte   W24
 .byte   N05
 .byte   W12
 .byte   N06 ,Cn2
 .byte   W24
 .byte   N05
 .byte   W12
 .byte   Gn2
 .byte   W12
 .byte   N21 ,Fn2
 .byte   W12
@  #04 @025   ----------------------------------------
 .byte   W12
 .byte   N05
 .byte   W24
 .byte   N05
 .byte   W24
 .byte   N05
 .byte   W12
 .byte   Cn2
 .byte   W12
 .byte   Cs2
 .byte   W12
@  #04 @026   ----------------------------------------
 .byte   PATT
  .word Label_01022A5E
@  #04 @027   ----------------------------------------
 .byte   W12
 .byte   N05 ,An1 ,v104
 .byte   W24
 .byte   N19 ,As1
 .byte   W24
 .byte   N05
 .byte   W24
 .byte   An1
 .byte   W12
@  #04 @028   ----------------------------------------
 .byte   N17 ,Gn1
 .byte   W24
 .byte   N05
 .byte   W12
 .byte   N05
 .byte   W24
 .byte   N05
 .byte   W24
 .byte   N17 ,An1
 .byte   W12
@  #04 @029   ----------------------------------------
 .byte   W12
 .byte   N05
 .byte   W24
 .byte   N05
 .byte   W24
 .byte   N05
 .byte   W12
 .byte   Cn2
 .byte   W12
 .byte   Cs2
 .byte   W12
@  #04 @030   ----------------------------------------
 .byte   W96
@  #04 @031   ----------------------------------------
 .byte   W96
@  #04 @032   ----------------------------------------
 .byte   W96
@  #04 @033   ----------------------------------------
 .byte   W96
@  #04 @034   ----------------------------------------
 .byte   W96
@  #04 @035   ----------------------------------------
 .byte   W96
@  #04 @036   ----------------------------------------
 .byte   W96
@  #04 @037   ----------------------------------------
 .byte   W96
@  #04 @038   ----------------------------------------
 .byte   W96
@  #04 @039   ----------------------------------------
 .byte   W96
@  #04 @040   ----------------------------------------
 .byte   PATT
  .word Label_01022A36
@  #04 @041   ----------------------------------------
 .byte   PATT
  .word Label_01022A41
@  #04 @042   ----------------------------------------
 .byte   W96
@  #04 @043   ----------------------------------------
 .byte   W88
 .byte   W01
 .byte   EOT
 .byte   Gn2
 .byte   W07
@  #04 @044   ----------------------------------------
 .byte   GOTO
  .word Label_01022A4E
 .byte   FINE

@**************** Track 5 (Midi-Chn.4) ****************@

song06_005:
@  #05 @000   ----------------------------------------
 .byte   KEYSH , song06_key+0
 .byte   VOICE , 48
 .byte   VOL , 60*song06_mvl/mxv
 .byte   PAN , c_v-30
 .byte   N05 ,Gn3 ,v108
 .byte   W12
 .byte   An3
 .byte   W12
 .byte   As3
 .byte   W12
 .byte   N06 ,Gn3
 .byte   W12
 .byte   N09 ,Cn4
 .byte   W12
 .byte   N06 ,Gn3
 .byte   W12
 .byte   N09 ,Dn4
 .byte   W12
 .byte   N06 ,Gn3
 .byte   W12
@  #05 @001   ----------------------------------------
 .byte   Ds4
 .byte   W12
 .byte   Ds4 ,v056
 .byte   W36
 .byte   N05 ,Fn4 ,v104
 .byte   W12
 .byte   N06
 .byte   W12
 .byte   Fn4 ,v052
 .byte   W24
@  #05 @002   ----------------------------------------
 .byte   W96
@  #05 @003   ----------------------------------------
 .byte   W96
@  #05 @004   ----------------------------------------
 .byte   W96
@  #05 @005   ----------------------------------------
 .byte   W96
@  #05 @006   ----------------------------------------
Label_01022CF5:
 .byte   W96
@  #05 @007   ----------------------------------------
 .byte   W96
@  #05 @008   ----------------------------------------
 .byte   W96
@  #05 @009   ----------------------------------------
 .byte   W96
@  #05 @010   ----------------------------------------
 .byte   W96
@  #05 @011   ----------------------------------------
 .byte   W96
@  #05 @012   ----------------------------------------
 .byte   W96
@  #05 @013   ----------------------------------------
 .byte   W96
@  #05 @014   ----------------------------------------
 .byte   W96
@  #05 @015   ----------------------------------------
 .byte   W96
@  #05 @016   ----------------------------------------
 .byte   W96
@  #05 @017   ----------------------------------------
 .byte   W96
@  #05 @018   ----------------------------------------
 .byte   W96
@  #05 @019   ----------------------------------------
 .byte   W96
@  #05 @020   ----------------------------------------
 .byte   W96
@  #05 @021   ----------------------------------------
 .byte   W96
@  #05 @022   ----------------------------------------
 .byte   W96
@  #05 @023   ----------------------------------------
 .byte   W96
@  #05 @024   ----------------------------------------
 .byte   W96
@  #05 @025   ----------------------------------------
 .byte   W96
@  #05 @026   ----------------------------------------
 .byte   W96
@  #05 @027   ----------------------------------------
 .byte   W96
@  #05 @028   ----------------------------------------
 .byte   W96
@  #05 @029   ----------------------------------------
 .byte   W96
@  #05 @030   ----------------------------------------
 .byte   W96
@  #05 @031   ----------------------------------------
 .byte   W96
@  #05 @032   ----------------------------------------
 .byte   W96
@  #05 @033   ----------------------------------------
 .byte   W96
@  #05 @034   ----------------------------------------
Label_01022D11:
 .byte   N07 ,An4 ,v096
 .byte   W36
 .byte   Dn5
 .byte   W36
 .byte   Gn4
 .byte   W24
 .byte   PEND 
@  #05 @035   ----------------------------------------
 .byte   W12
 .byte   Cn5
 .byte   W36
 .byte   Fn4
 .byte   W24
 .byte   As4
 .byte   W24
@  #05 @036   ----------------------------------------
 .byte   PATT
  .word Label_01022D11
@  #05 @037   ----------------------------------------
 .byte   W12
 .byte   N07 ,Cn5 ,v096
 .byte   W24
 .byte   An4
 .byte   W12
 .byte   Cn5
 .byte   W12
 .byte   Fn5
 .byte   W12
 .byte   En5
 .byte   W12
 .byte   Dn5
 .byte   W12
@  #05 @038   ----------------------------------------
 .byte   N05
 .byte   W12
 .byte   N05
 .byte   W24
 .byte   Ds5
 .byte   W12
 .byte   N05
 .byte   W24
 .byte   Cn5
 .byte   W12
 .byte   N05
 .byte   W12
@  #05 @039   ----------------------------------------
 .byte   W12
 .byte   Cs5
 .byte   W12
 .byte   N05
 .byte   W24
 .byte   N05
 .byte   W12
 .byte   N05
 .byte   W24
 .byte   N05
 .byte   W12
@  #05 @040   ----------------------------------------
 .byte   W96
@  #05 @041   ----------------------------------------
 .byte   W96
@  #05 @042   ----------------------------------------
 .byte   W96
@  #05 @043   ----------------------------------------
 .byte   W96
@  #05 @044   ----------------------------------------
 .byte   GOTO
  .word Label_01022CF5
 .byte   FINE

@**************** Track 6 (Midi-Chn.5) ****************@

song06_006:
@  #06 @000   ----------------------------------------
 .byte   KEYSH , song06_key+0
 .byte   VOICE , 40
 .byte   VOL , 60*song06_mvl/mxv
 .byte   PAN , c_v-19
 .byte   N05 ,Gn2 ,v108
 .byte   W12
 .byte   An2
 .byte   W12
 .byte   As2
 .byte   W12
 .byte   N06 ,Gn2
 .byte   W12
 .byte   N09 ,Cn3
 .byte   W12
 .byte   N06 ,Gn2
 .byte   W12
 .byte   N09 ,Dn3
 .byte   W12
 .byte   N06 ,Gn2
 .byte   W12
@  #06 @001   ----------------------------------------
 .byte   N06
 .byte   W12
 .byte   Gn2 ,v056
 .byte   W36
 .byte   Cn3 ,v108
 .byte   W12
 .byte   N06
 .byte   W12
 .byte   Cn3 ,v056
 .byte   W24
@  #06 @002   ----------------------------------------
 .byte   W96
@  #06 @003   ----------------------------------------
 .byte   W96
@  #06 @004   ----------------------------------------
 .byte   W96
@  #06 @005   ----------------------------------------
 .byte   W96
@  #06 @006   ----------------------------------------
Label_01022D88:
 .byte   W96
@  #06 @007   ----------------------------------------
 .byte   W96
@  #06 @008   ----------------------------------------
 .byte   W96
@  #06 @009   ----------------------------------------
 .byte   W96
@  #06 @010   ----------------------------------------
 .byte   W96
@  #06 @011   ----------------------------------------
 .byte   W96
@  #06 @012   ----------------------------------------
 .byte   W96
@  #06 @013   ----------------------------------------
 .byte   W96
@  #06 @014   ----------------------------------------
 .byte   W96
@  #06 @015   ----------------------------------------
 .byte   W96
@  #06 @016   ----------------------------------------
 .byte   W96
@  #06 @017   ----------------------------------------
 .byte   W96
@  #06 @018   ----------------------------------------
 .byte   W96
@  #06 @019   ----------------------------------------
 .byte   W96
@  #06 @020   ----------------------------------------
 .byte   W96
@  #06 @021   ----------------------------------------
 .byte   W96
@  #06 @022   ----------------------------------------
 .byte   W96
@  #06 @023   ----------------------------------------
 .byte   W96
@  #06 @024   ----------------------------------------
 .byte   W96
@  #06 @025   ----------------------------------------
 .byte   W96
@  #06 @026   ----------------------------------------
 .byte   W96
@  #06 @027   ----------------------------------------
 .byte   W96
@  #06 @028   ----------------------------------------
 .byte   W96
@  #06 @029   ----------------------------------------
 .byte   W96
@  #06 @030   ----------------------------------------
Label_01022DA0:
 .byte   W12
 .byte   N12 ,En4 ,v096
 .byte   W12
 .byte   N05 ,An3
 .byte   W12
 .byte   Fn3
 .byte   W12
 .byte   N12 ,Dn4
 .byte   W12
 .byte   N05 ,Gn3
 .byte   W12
 .byte   Dn3
 .byte   W12
 .byte   N12 ,Cn4
 .byte   W12
 .byte   PEND 
@  #06 @031   ----------------------------------------
Label_01022DB6:
 .byte   N05 ,Gn3 ,v096
 .byte   W12
 .byte   Cn3
 .byte   W12
 .byte   N12 ,As3
 .byte   W12
 .byte   N05 ,Fn3
 .byte   W12
 .byte   As2
 .byte   W12
 .byte   N12 ,An3
 .byte   W12
 .byte   N05 ,En3
 .byte   W12
 .byte   An2
 .byte   W12
 .byte   PEND 
@  #06 @032   ----------------------------------------
Label_01022DCD:
 .byte   W12
 .byte   N12 ,En4 ,v096
 .byte   W12
 .byte   N05 ,An3
 .byte   W12
 .byte   Fn3
 .byte   W12
 .byte   N12 ,Dn4
 .byte   W12
 .byte   N05 ,Gn3
 .byte   W12
 .byte   En3
 .byte   W12
 .byte   N12 ,Fn4
 .byte   W12
 .byte   PEND 
@  #06 @033   ----------------------------------------
Label_01022DE3:
 .byte   N05 ,As3 ,v096
 .byte   W12
 .byte   Gn3
 .byte   W12
 .byte   N12 ,Gn4
 .byte   W12
 .byte   N05 ,Cn4
 .byte   W12
 .byte   As3
 .byte   W12
 .byte   N12 ,An4
 .byte   W12
 .byte   N05 ,Dn4
 .byte   W12
 .byte   An3
 .byte   W12
 .byte   PEND 
@  #06 @034   ----------------------------------------
 .byte   PATT
  .word Label_01022DA0
@  #06 @035   ----------------------------------------
 .byte   PATT
  .word Label_01022DB6
@  #06 @036   ----------------------------------------
 .byte   PATT
  .word Label_01022DCD
@  #06 @037   ----------------------------------------
 .byte   PATT
  .word Label_01022DE3
@  #06 @038   ----------------------------------------
 .byte   N05 ,An4 ,v096
 .byte   W12
 .byte   N05
 .byte   W24
 .byte   As4
 .byte   W12
 .byte   N05
 .byte   W24
 .byte   Gn4
 .byte   W12
 .byte   N05
 .byte   W12
@  #06 @039   ----------------------------------------
 .byte   W12
 .byte   Gs4
 .byte   W12
 .byte   N05
 .byte   W24
 .byte   N05
 .byte   W12
 .byte   N05
 .byte   W24
 .byte   N05
 .byte   W12
@  #06 @040   ----------------------------------------
 .byte   W96
@  #06 @041   ----------------------------------------
 .byte   W96
@  #06 @042   ----------------------------------------
 .byte   W96
@  #06 @043   ----------------------------------------
 .byte   W96
@  #06 @044   ----------------------------------------
 .byte   GOTO
  .word Label_01022D88
 .byte   FINE

@**************** Track 7 (Midi-Chn.6) ****************@

song06_007:
@  #07 @000   ----------------------------------------
 .byte   KEYSH , song06_key+0
 .byte   VOICE , 49
 .byte   VOL , 60*song06_mvl/mxv
 .byte   PAN , c_v+6
 .byte   W96
@  #07 @001   ----------------------------------------
 .byte   N06 ,Ds2 ,v108
 .byte   W12
 .byte   Ds2 ,v056
 .byte   W36
 .byte   Gn2 ,v108
 .byte   W12
 .byte   N06
 .byte   W12
 .byte   Gn2 ,v056
 .byte   W24
@  #07 @002   ----------------------------------------
 .byte   W96
@  #07 @003   ----------------------------------------
 .byte   W96
@  #07 @004   ----------------------------------------
 .byte   W96
@  #07 @005   ----------------------------------------
 .byte   W96
@  #07 @006   ----------------------------------------
Label_01022E50:
 .byte   W96
@  #07 @007   ----------------------------------------
 .byte   W96
@  #07 @008   ----------------------------------------
 .byte   W96
@  #07 @009   ----------------------------------------
 .byte   W96
@  #07 @010   ----------------------------------------
 .byte   W96
@  #07 @011   ----------------------------------------
 .byte   W96
@  #07 @012   ----------------------------------------
 .byte   W96
@  #07 @013   ----------------------------------------
 .byte   W96
@  #07 @014   ----------------------------------------
 .byte   W96
@  #07 @015   ----------------------------------------
 .byte   W96
@  #07 @016   ----------------------------------------
 .byte   W96
@  #07 @017   ----------------------------------------
 .byte   W96
@  #07 @018   ----------------------------------------
 .byte   W96
@  #07 @019   ----------------------------------------
 .byte   W96
@  #07 @020   ----------------------------------------
 .byte   W96
@  #07 @021   ----------------------------------------
 .byte   W96
@  #07 @022   ----------------------------------------
 .byte   W96
@  #07 @023   ----------------------------------------
 .byte   W96
@  #07 @024   ----------------------------------------
 .byte   W96
@  #07 @025   ----------------------------------------
 .byte   W96
@  #07 @026   ----------------------------------------
 .byte   W96
@  #07 @027   ----------------------------------------
 .byte   W96
@  #07 @028   ----------------------------------------
 .byte   W96
@  #07 @029   ----------------------------------------
 .byte   W96
@  #07 @030   ----------------------------------------
Label_01022E68:
 .byte   N05 ,An2 ,v092
 .byte   W24
 .byte   An2 ,v080
 .byte   W24
 .byte   N05
 .byte   W24
 .byte   N05
 .byte   W24
 .byte   PEND 
@  #07 @031   ----------------------------------------
Label_01022E74:
 .byte   N05 ,An2 ,v080
 .byte   W24
 .byte   N05
 .byte   W24
 .byte   Gn2 ,v092
 .byte   W12
 .byte   An2
 .byte   W12
 .byte   Fn2
 .byte   W12
 .byte   N05
 .byte   W12
 .byte   PEND 
@  #07 @032   ----------------------------------------
 .byte   PATT
  .word Label_01022E68
@  #07 @033   ----------------------------------------
Label_01022E89:
 .byte   N05 ,An2 ,v092
 .byte   W24
 .byte   An2 ,v080
 .byte   W24
 .byte   An2 ,v092
 .byte   W12
 .byte   As2
 .byte   W12
 .byte   Cn3
 .byte   W12
 .byte   Dn3
 .byte   W12
 .byte   PEND 
@  #07 @034   ----------------------------------------
 .byte   PATT
  .word Label_01022E68
@  #07 @035   ----------------------------------------
 .byte   PATT
  .word Label_01022E74
@  #07 @036   ----------------------------------------
 .byte   PATT
  .word Label_01022E68
@  #07 @037   ----------------------------------------
 .byte   PATT
  .word Label_01022E89
@  #07 @038   ----------------------------------------
 .byte   N05 ,Dn4 ,v092
 .byte   W12
 .byte   N05
 .byte   W24
 .byte   Ds4
 .byte   W12
 .byte   N05
 .byte   W24
 .byte   Cn4
 .byte   W12
 .byte   N05
 .byte   W12
@  #07 @039   ----------------------------------------
 .byte   W12
 .byte   Cs4
 .byte   W12
 .byte   N05
 .byte   W24
 .byte   N05
 .byte   W12
 .byte   N05
 .byte   W24
 .byte   N05
 .byte   W12
@  #07 @040   ----------------------------------------
 .byte   W96
@  #07 @041   ----------------------------------------
 .byte   W96
@  #07 @042   ----------------------------------------
 .byte   W96
@  #07 @043   ----------------------------------------
 .byte   W96
@  #07 @044   ----------------------------------------
 .byte   GOTO
  .word Label_01022E50
 .byte   FINE

@**************** Track 8 (Midi-Chn.7) ****************@

song06_008:
@  #08 @000   ----------------------------------------
 .byte   KEYSH , song06_key+0
 .byte   VOICE , 33
 .byte   VOL , 60*song06_mvl/mxv
 .byte   PAN , c_v+30
 .byte   N05 ,Dn2 ,v104
 .byte   W24
 .byte   Cn2
 .byte   W24
 .byte   As1
 .byte   W24
 .byte   An1
 .byte   W24
@  #08 @001   ----------------------------------------
 .byte   N06 ,As1
 .byte   W12
 .byte   As1 ,v044
 .byte   W36
 .byte   Cn2 ,v104
 .byte   W12
 .byte   N06
 .byte   W12
 .byte   Cn2 ,v044
 .byte   W24
@  #08 @002   ----------------------------------------
 .byte   W96
@  #08 @003   ----------------------------------------
 .byte   W96
@  #08 @004   ----------------------------------------
 .byte   W96
@  #08 @005   ----------------------------------------
 .byte   W96
@  #08 @006   ----------------------------------------
Label_01022EF8:
 .byte   W96
@  #08 @007   ----------------------------------------
 .byte   W96
@  #08 @008   ----------------------------------------
 .byte   W96
@  #08 @009   ----------------------------------------
 .byte   W96
@  #08 @010   ----------------------------------------
 .byte   W96
@  #08 @011   ----------------------------------------
 .byte   W96
@  #08 @012   ----------------------------------------
 .byte   W96
@  #08 @013   ----------------------------------------
 .byte   W96
@  #08 @014   ----------------------------------------
 .byte   W96
@  #08 @015   ----------------------------------------
 .byte   W96
@  #08 @016   ----------------------------------------
 .byte   W96
@  #08 @017   ----------------------------------------
 .byte   W96
@  #08 @018   ----------------------------------------
 .byte   W96
@  #08 @019   ----------------------------------------
 .byte   W96
@  #08 @020   ----------------------------------------
 .byte   W96
@  #08 @021   ----------------------------------------
 .byte   W96
@  #08 @022   ----------------------------------------
 .byte   W96
@  #08 @023   ----------------------------------------
 .byte   W96
@  #08 @024   ----------------------------------------
 .byte   W96
@  #08 @025   ----------------------------------------
 .byte   W96
@  #08 @026   ----------------------------------------
 .byte   W96
@  #08 @027   ----------------------------------------
 .byte   W96
@  #08 @028   ----------------------------------------
 .byte   W96
@  #08 @029   ----------------------------------------
 .byte   W96
@  #08 @030   ----------------------------------------
Label_01022F10:
 .byte   N06 ,Dn0 ,v092
 .byte   W24
 .byte   Dn0 ,v076
 .byte   W24
 .byte   N06
 .byte   W24
 .byte   N06
 .byte   W24
 .byte   PEND 
@  #08 @031   ----------------------------------------
Label_01022F1C:
 .byte   N06 ,Dn0 ,v092
 .byte   W24
 .byte   Dn0 ,v076
 .byte   W24
 .byte   N06
 .byte   W24
 .byte   Dn0 ,v092
 .byte   W24
 .byte   PEND 
@  #08 @032   ----------------------------------------
 .byte   PATT
  .word Label_01022F10
@  #08 @033   ----------------------------------------
 .byte   PATT
  .word Label_01022F1C
@  #08 @034   ----------------------------------------
 .byte   PATT
  .word Label_01022F10
@  #08 @035   ----------------------------------------
 .byte   PATT
  .word Label_01022F1C
@  #08 @036   ----------------------------------------
 .byte   PATT
  .word Label_01022F10
@  #08 @037   ----------------------------------------
 .byte   PATT
  .word Label_01022F1C
@  #08 @038   ----------------------------------------
 .byte   N05 ,Dn3 ,v100
 .byte   W12
 .byte   N05
 .byte   W24
 .byte   Cn3
 .byte   W12
 .byte   N05
 .byte   W24
 .byte   As2
 .byte   W12
 .byte   N05
 .byte   W12
@  #08 @039   ----------------------------------------
 .byte   W12
 .byte   Gs2
 .byte   W12
 .byte   N05
 .byte   W24
 .byte   N05
 .byte   W12
 .byte   N05
 .byte   W24
 .byte   N05
 .byte   W12
@  #08 @040   ----------------------------------------
 .byte   W96
@  #08 @041   ----------------------------------------
 .byte   W96
@  #08 @042   ----------------------------------------
 .byte   W96
@  #08 @043   ----------------------------------------
 .byte   W96
@  #08 @044   ----------------------------------------
 .byte   GOTO
  .word Label_01022EF8
 .byte   FINE

@**************** Track 9 (Midi-Chn.8) ****************@

song06_009:
@  #09 @000   ----------------------------------------
 .byte   KEYSH , song06_key+0
 .byte   VOICE , 71
 .byte   VOL , 60*song06_mvl/mxv
 .byte   PAN , c_v+41
 .byte   N06 ,Gn0 ,v104
 .byte   W24
 .byte   Fn0
 .byte   W24
 .byte   Ds1
 .byte   W24
 .byte   Dn1
 .byte   W24
@  #09 @001   ----------------------------------------
 .byte   Cn1
 .byte   W12
 .byte   Cn1 ,v056
 .byte   W12
 .byte   Cn1 ,v036
 .byte   W24
 .byte   Dn1 ,v104
 .byte   W12
 .byte   N06
 .byte   W36
@  #09 @002   ----------------------------------------
 .byte   W96
@  #09 @003   ----------------------------------------
 .byte   W96
@  #09 @004   ----------------------------------------
 .byte   W96
@  #09 @005   ----------------------------------------
 .byte   W96
@  #09 @006   ----------------------------------------
Label_01022AFF:
 .byte   W96
@  #09 @007   ----------------------------------------
 .byte   W96
@  #09 @008   ----------------------------------------
 .byte   W96
@  #09 @009   ----------------------------------------
 .byte   W96
@  #09 @010   ----------------------------------------
 .byte   W96
@  #09 @011   ----------------------------------------
 .byte   W96
@  #09 @012   ----------------------------------------
 .byte   W96
@  #09 @013   ----------------------------------------
 .byte   W96
@  #09 @014   ----------------------------------------
 .byte   W96
@  #09 @015   ----------------------------------------
 .byte   W96
@  #09 @016   ----------------------------------------
 .byte   W96
@  #09 @017   ----------------------------------------
 .byte   W96
@  #09 @018   ----------------------------------------
 .byte   W96
@  #09 @019   ----------------------------------------
 .byte   W96
@  #09 @020   ----------------------------------------
 .byte   W96
@  #09 @021   ----------------------------------------
 .byte   W96
@  #09 @022   ----------------------------------------
 .byte   W96
@  #09 @023   ----------------------------------------
 .byte   W96
@  #09 @024   ----------------------------------------
 .byte   W96
@  #09 @025   ----------------------------------------
 .byte   W96
@  #09 @026   ----------------------------------------
 .byte   W96
@  #09 @027   ----------------------------------------
 .byte   W96
@  #09 @028   ----------------------------------------
 .byte   W96
@  #09 @029   ----------------------------------------
 .byte   W96
@  #09 @030   ----------------------------------------
 .byte   W96
@  #09 @031   ----------------------------------------
 .byte   W96
@  #09 @032   ----------------------------------------
 .byte   W96
@  #09 @033   ----------------------------------------
 .byte   W96
@  #09 @034   ----------------------------------------
 .byte   W96
@  #09 @035   ----------------------------------------
 .byte   W96
@  #09 @036   ----------------------------------------
 .byte   W96
@  #09 @037   ----------------------------------------
 .byte   W96
@  #09 @038   ----------------------------------------
 .byte   W96
@  #09 @039   ----------------------------------------
 .byte   W96
@  #09 @040   ----------------------------------------
 .byte   W96
@  #09 @041   ----------------------------------------
 .byte   W96
@  #09 @042   ----------------------------------------
 .byte   W96
@  #09 @043   ----------------------------------------
 .byte   W96
@  #09 @044   ----------------------------------------
 .byte   GOTO
  .word Label_01022AFF
 .byte   FINE

@**************** Track 10 (Midi-Chn.9) ****************@

song06_010:
@  #10 @000   ----------------------------------------
 .byte   KEYSH , song06_key+0
 .byte   VOICE , 39
 .byte   VOL , 60*song06_mvl/mxv
 .byte   PAN , c_v+0
 .byte   BEND , c_v+0
 .byte   W96
@  #10 @001   ----------------------------------------
 .byte   W72
 .byte   N22 ,Dn2 ,v120
 .byte   W02
 .byte   BEND , c_v-1
 .byte   W02
 .byte   BEND , c_v-3
 .byte   W02
 .byte   BEND , c_v-5
 .byte   W02
 .byte   BEND , c_v-7
 .byte   W01
 .byte   BEND , c_v-9
 .byte   W02
 .byte   BEND , c_v-11
 .byte   W01
 .byte   BEND , c_v-13
 .byte   W01
 .byte   BEND , c_v-15
 .byte   W01
 .byte   BEND , c_v-19
 .byte   W01
 .byte   BEND , c_v-21
 .byte   W01
 .byte   BEND , c_v-25
 .byte   W01
 .byte   BEND , c_v-27
 .byte   W01
 .byte   BEND , c_v-31
 .byte   W01
 .byte   BEND , c_v-37
 .byte   W01
 .byte   BEND , c_v-43
 .byte   W01
 .byte   BEND , c_v-49
 .byte   W01
 .byte   BEND , c_v-57
 .byte   W01
 .byte   BEND , c_v-64
 .byte   W01
@  #10 @002   ----------------------------------------
 .byte   BEND , c_v+0
 .byte   TIE ,Gn1 ,v127
 .byte   W96
@  #10 @003   ----------------------------------------
 .byte   W80
 .byte   W02
 .byte   EOT
 .byte   W02
 .byte   N10 ,Dn2 ,v120
 .byte   W12
@  #10 @004   ----------------------------------------
 .byte   TIE ,Gn2 ,v127
 .byte   W96
@  #10 @005   ----------------------------------------
 .byte   W68
 .byte   W02
 .byte   EOT
 .byte   W02
 .byte   N22 ,Gn2 ,v120
 .byte   W02
 .byte   BEND , c_v-1
 .byte   W02
 .byte   BEND , c_v-3
 .byte   W02
 .byte   BEND , c_v-5
 .byte   W02
 .byte   BEND , c_v-7
 .byte   W01
 .byte   BEND , c_v-9
 .byte   W02
 .byte   BEND , c_v-11
 .byte   W01
 .byte   BEND , c_v-13
 .byte   W01
 .byte   BEND , c_v-15
 .byte   W01
 .byte   BEND , c_v-19
 .byte   W01
 .byte   BEND , c_v-21
 .byte   W01
 .byte   BEND , c_v-25
 .byte   W01
 .byte   BEND , c_v-27
 .byte   W01
 .byte   BEND , c_v-31
 .byte   W01
 .byte   BEND , c_v-37
 .byte   W01
 .byte   BEND , c_v-43
 .byte   W01
 .byte   BEND , c_v-49
 .byte   W01
 .byte   BEND , c_v-57
 .byte   W01
 .byte   BEND , c_v-64
 .byte   W01
@  #10 @006   ----------------------------------------
Label_01025082:
 .byte   BEND , c_v+0
 .byte   N16 ,Gn1 ,v127
 .byte   W18
 .byte   Dn2 ,v120
 .byte   W18
 .byte   N28 ,Gn2 ,v127
 .byte   W30
 .byte   N16 ,Dn2 ,v120
 .byte   W18
 .byte   N10 ,Gn1
 .byte   W12
@  #10 @007   ----------------------------------------
Label_01025096:
 .byte   N16 ,Fn1 ,v127
 .byte   W18
 .byte   Cn2 ,v120
 .byte   W18
 .byte   N28 ,Fn2 ,v127
 .byte   W30
 .byte   N16 ,Cn2 ,v120
 .byte   W18
 .byte   N10 ,Fn1
 .byte   W12
 .byte   PEND 
@  #10 @008   ----------------------------------------
Label_010250A9:
 .byte   N16 ,Cn2 ,v127
 .byte   W18
 .byte   Gn1 ,v120
 .byte   W18
 .byte   N44 ,Cn2 ,v127
 .byte   W48
 .byte   N10 ,Gn1 ,v120
 .byte   W12
 .byte   PEND 
@  #10 @009   ----------------------------------------
 .byte   N16 ,Cn2 ,v127
 .byte   W18
 .byte   Gn2 ,v120
 .byte   W18
 .byte   N28 ,Cn3 ,v127
 .byte   W30
 .byte   N02 ,Cn2 ,v120
 .byte   W06
 .byte   N10 ,As1
 .byte   W12
 .byte   An1
 .byte   W12
@  #10 @010   ----------------------------------------
Label_010250CD:
 .byte   N16 ,Gn1 ,v127
 .byte   W18
 .byte   Dn2 ,v120
 .byte   W18
 .byte   N28 ,Gn2 ,v127
 .byte   W30
 .byte   N16 ,Dn2 ,v120
 .byte   W18
 .byte   N10 ,Gn1
 .byte   W12
 .byte   PEND 
@  #10 @011   ----------------------------------------
Label_010250E0:
 .byte   N16 ,An1 ,v127
 .byte   W18
 .byte   Fn2 ,v120
 .byte   W18
 .byte   N28 ,An2 ,v127
 .byte   W30
 .byte   N16 ,Fn2 ,v120
 .byte   W18
 .byte   N10 ,An1
 .byte   W12
 .byte   PEND 
@  #10 @012   ----------------------------------------
Label_010250F3:
 .byte   N16 ,As1 ,v127
 .byte   W18
 .byte   Fn2 ,v120
 .byte   W18
 .byte   N28 ,As2 ,v127
 .byte   W30
 .byte   N16 ,Fn2 ,v120
 .byte   W18
 .byte   N10 ,As2
 .byte   W12
 .byte   PEND 
@  #10 @013   ----------------------------------------
 .byte   N16 ,Cn3 ,v127
 .byte   W18
 .byte   Gn2 ,v120
 .byte   W08
 .byte   BEND , c_v-6
 .byte   W01
 .byte   BEND , c_v-18
 .byte   W01
 .byte   BEND , c_v-23
 .byte   W01
 .byte   BEND , c_v-29
 .byte   W01
 .byte   BEND , c_v-41
 .byte   W01
 .byte   BEND , c_v-46
 .byte   W01
 .byte   BEND , c_v-52
 .byte   W01
 .byte   BEND , c_v-64
 .byte   W03
 .byte   BEND , c_v+0
 .byte   N28 ,Cn2 ,v127
 .byte   W30
 .byte   N02 ,Cn2 ,v120
 .byte   W06
 .byte   N10 ,As1
 .byte   W12
 .byte   An1
 .byte   W12
@  #10 @014   ----------------------------------------
 .byte   PATT
  .word Label_010250CD
@  #10 @015   ----------------------------------------
 .byte   PATT
  .word Label_01025096
@  #10 @016   ----------------------------------------
 .byte   PATT
  .word Label_010250A9
@  #10 @017   ----------------------------------------
 .byte   N16 ,Cn2 ,v127
 .byte   W18
 .byte   Cn3
 .byte   W18
 .byte   N28 ,Cn2
 .byte   W30
 .byte   N02 ,Cn2 ,v120
 .byte   W06
 .byte   N10 ,As1
 .byte   W12
 .byte   An1
 .byte   W12
@  #10 @018   ----------------------------------------
 .byte   PATT
  .word Label_010250CD
@  #10 @019   ----------------------------------------
 .byte   PATT
  .word Label_010250E0
@  #10 @020   ----------------------------------------
 .byte   PATT
  .word Label_010250F3
@  #10 @021   ----------------------------------------
 .byte   N16 ,Cn3 ,v127
 .byte   W18
 .byte   Gn2 ,v120
 .byte   W08
 .byte   BEND , c_v-6
 .byte   W01
 .byte   BEND , c_v-18
 .byte   W01
 .byte   BEND , c_v-23
 .byte   W01
 .byte   BEND , c_v-29
 .byte   W01
 .byte   BEND , c_v-41
 .byte   W01
 .byte   BEND , c_v-46
 .byte   W01
 .byte   BEND , c_v-52
 .byte   W01
 .byte   BEND , c_v-64
 .byte   W03
 .byte   BEND , c_v+0
 .byte   N16 ,Cn2 ,v127
 .byte   W18
 .byte   N02 ,Cn3
 .byte   W06
 .byte   N10 ,Cn2 ,v120
 .byte   W12
 .byte   N10
 .byte   W12
 .byte   Cs2
 .byte   W12
@  #10 @022   ----------------------------------------
 .byte   Dn2 ,v127
 .byte   W12
 .byte   Dn2 ,v120
 .byte   W12
 .byte   Dn2 ,v127
 .byte   W12
 .byte   Cn2
 .byte   W24
 .byte   N10
 .byte   W24
 .byte   Fn2
 .byte   W12
@  #10 @023   ----------------------------------------
 .byte   N02 ,Fn2 ,v080
 .byte   W12
 .byte   N10 ,An1 ,v127
 .byte   W24
 .byte   As1
 .byte   W18
 .byte   N02 ,As2
 .byte   W06
 .byte   N10 ,As1 ,v120
 .byte   W18
 .byte   N02 ,Cn3 ,v127
 .byte   W06
 .byte   N10 ,Cn2 ,v120
 .byte   W12
@  #10 @024   ----------------------------------------
 .byte   Dn2 ,v127
 .byte   W12
 .byte   Dn2 ,v120
 .byte   W12
 .byte   Dn2 ,v127
 .byte   W12
 .byte   Cn2
 .byte   W24
 .byte   N10
 .byte   W24
 .byte   N22 ,Fn1
 .byte   W12
@  #10 @025   ----------------------------------------
 .byte   W12
 .byte   N10 ,Cn2 ,v120
 .byte   W12
 .byte   BEND , c_v-45
 .byte   N22 ,Fn2 ,v127
 .byte   W01
 .byte   BEND , c_v-41
 .byte   W01
 .byte   BEND , c_v-37
 .byte   W01
 .byte   BEND , c_v-28
 .byte   W01
 .byte   BEND , c_v-24
 .byte   W01
 .byte   BEND , c_v-20
 .byte   W01
 .byte   BEND , c_v-11
 .byte   W01
 .byte   BEND , c_v-7
 .byte   W01
 .byte   BEND , c_v+0
 .byte   W22
 .byte   N02
 .byte   W06
 .byte   N07 ,Cn2
 .byte   W12
 .byte   N10 ,Cn2 ,v120
 .byte   W12
 .byte   Cs2
 .byte   W12
@  #10 @026   ----------------------------------------
 .byte   Dn2 ,v127
 .byte   W12
 .byte   Dn2 ,v120
 .byte   W12
 .byte   Dn2 ,v127
 .byte   W12
 .byte   Cn2
 .byte   W24
 .byte   N10
 .byte   W24
 .byte   Fn1
 .byte   W12
@  #10 @027   ----------------------------------------
 .byte   N02 ,Fn1 ,v120
 .byte   W12
 .byte   N10 ,An1 ,v127
 .byte   W24
 .byte   As1
 .byte   W18
 .byte   N02 ,As2
 .byte   W06
 .byte   N10 ,As1 ,v120
 .byte   W12
 .byte   As1 ,v127
 .byte   W12
 .byte   An1 ,v120
 .byte   W12
@  #10 @028   ----------------------------------------
 .byte   Gn1 ,v127
 .byte   W12
 .byte   Gn1 ,v120
 .byte   W12
 .byte   Gn1 ,v127
 .byte   W12
 .byte   N10
 .byte   W24
 .byte   N10
 .byte   W24
 .byte   N22 ,An1
 .byte   W12
@  #10 @029   ----------------------------------------
 .byte   W12
 .byte   N10 ,En2 ,v120
 .byte   W12
 .byte   BEND , c_v-58
 .byte   N22 ,An2 ,v127
 .byte   W01
 .byte   BEND , c_v-53
 .byte   W01
 .byte   BEND , c_v-47
 .byte   W01
 .byte   BEND , c_v-37
 .byte   W01
 .byte   BEND , c_v-32
 .byte   W01
 .byte   BEND , c_v-27
 .byte   W01
 .byte   BEND , c_v-16
 .byte   W01
 .byte   BEND , c_v-11
 .byte   W01
 .byte   BEND , c_v+0
 .byte   W16
 .byte   N02 ,An1
 .byte   W06
 .byte   An2
 .byte   W06
 .byte   N10 ,An1 ,v120
 .byte   W12
 .byte   Cn2
 .byte   W12
 .byte   Cs2
 .byte   W12
@  #10 @030   ----------------------------------------
Label_01025260:
 .byte   N16 ,Dn2 ,v127
 .byte   W24
 .byte   N10 ,Dn2 ,v120
 .byte   W12
 .byte   N44 ,Dn3 ,v127
 .byte   W48
 .byte   N10 ,An2 ,v120
 .byte   W12
 .byte   PEND 
@  #10 @031   ----------------------------------------
Label_01025271:
 .byte   N10 ,Dn2 ,v127
 .byte   W12
 .byte   N44 ,Dn3 ,v120
 .byte   W48
 .byte   N10 ,An1
 .byte   W12
 .byte   Cn2
 .byte   W12
 .byte   Cs2
 .byte   W12
 .byte   PEND 
@  #10 @032   ----------------------------------------
 .byte   PATT
  .word Label_01025260
@  #10 @033   ----------------------------------------
 .byte   BEND , c_v-38
 .byte   N32 ,Fn3 ,v127
 .byte   W01
 .byte   BEND , c_v-33
 .byte   W01
 .byte   BEND , c_v-28
 .byte   W01
 .byte   BEND , c_v-18
 .byte   W01
 .byte   BEND , c_v-13
 .byte   W01
 .byte   BEND , c_v-8
 .byte   W01
 .byte   BEND , c_v+0
 .byte   W09
 .byte   BEND , c_v-8
 .byte   W01
 .byte   BEND , c_v-16
 .byte   W01
 .byte   BEND , c_v-24
 .byte   W01
 .byte   BEND , c_v-33
 .byte   W18
 .byte   BEND , c_v+0
 .byte   N22 ,Dn3 ,v120
 .byte   W24
 .byte   N10 ,An1
 .byte   W12
 .byte   Cn2
 .byte   W12
 .byte   Cs2
 .byte   W12
@  #10 @034   ----------------------------------------
 .byte   PATT
  .word Label_01025260
@  #10 @035   ----------------------------------------
 .byte   PATT
  .word Label_01025271
@  #10 @036   ----------------------------------------
 .byte   PATT
  .word Label_01025260
@  #10 @037   ----------------------------------------
 .byte   BEND , c_v-38
 .byte   N32 ,Fn3 ,v127
 .byte   W01
 .byte   BEND , c_v-33
 .byte   W01
 .byte   BEND , c_v-28
 .byte   W01
 .byte   BEND , c_v-18
 .byte   W01
 .byte   BEND , c_v-13
 .byte   W01
 .byte   BEND , c_v-8
 .byte   W01
 .byte   BEND , c_v+0
 .byte   W09
 .byte   BEND , c_v-8
 .byte   W01
 .byte   BEND , c_v-16
 .byte   W01
 .byte   BEND , c_v-24
 .byte   W01
 .byte   BEND , c_v-33
 .byte   W18
 .byte   BEND , c_v+0
 .byte   N22 ,Cn3 ,v120
 .byte   W24
 .byte   N10 ,An2
 .byte   W06
 .byte   BEND , c_v-16
 .byte   W01
 .byte   BEND , c_v-24
 .byte   W01
 .byte   BEND , c_v-32
 .byte   W01
 .byte   BEND , c_v-48
 .byte   W01
 .byte   BEND , c_v-64
 .byte   W02
 .byte   BEND , c_v+0
 .byte   N10 ,Fn2
 .byte   W12
 .byte   En2
 .byte   W12
@  #10 @038   ----------------------------------------
 .byte   N07 ,Dn2 ,v127
 .byte   W12
 .byte   N04 ,Dn2 ,v120
 .byte   W24
 .byte   N07 ,Cn2 ,v127
 .byte   W12
 .byte   N04 ,Cn2 ,v120
 .byte   W24
 .byte   N07 ,As1 ,v127
 .byte   W12
 .byte   N04 ,As1 ,v120
 .byte   W12
@  #10 @039   ----------------------------------------
 .byte   W12
 .byte   N07 ,Gs1 ,v127
 .byte   W12
 .byte   N04 ,Gs1 ,v120
 .byte   W24
 .byte   N07 ,Gs1 ,v127
 .byte   W12
 .byte   N04 ,Gs1 ,v120
 .byte   W24
 .byte   N04
 .byte   W12
@  #10 @040   ----------------------------------------
 .byte   TIE ,Gn1 ,v127
 .byte   W96
@  #10 @041   ----------------------------------------
 .byte   W80
 .byte   W02
 .byte   EOT
 .byte   W02
 .byte   N10 ,Dn2 ,v120
 .byte   W12
@  #10 @042   ----------------------------------------
 .byte   BEND , c_v-53
 .byte   TIE ,Gn2 ,v127
 .byte   W01
 .byte   BEND , c_v-49
 .byte   W01
 .byte   BEND , c_v-44
 .byte   W01
 .byte   BEND , c_v-36
 .byte   W01
 .byte   BEND , c_v-31
 .byte   W01
 .byte   BEND , c_v-27
 .byte   W01
 .byte   BEND , c_v-18
 .byte   W01
 .byte   BEND , c_v-14
 .byte   W01
 .byte   BEND , c_v-9
 .byte   W01
 .byte   BEND , c_v+0
 .byte   W84
 .byte   W03
@  #10 @043   ----------------------------------------
 .byte   W68
 .byte   W02
 .byte   EOT
 .byte   W02
 .byte   N22 ,Gn2 ,v120
 .byte   W02
 .byte   BEND , c_v-1
 .byte   W02
 .byte   BEND , c_v-3
 .byte   W02
 .byte   BEND , c_v-5
 .byte   W02
 .byte   BEND , c_v-7
 .byte   W01
 .byte   BEND , c_v-9
 .byte   W02
 .byte   BEND , c_v-11
 .byte   W01
 .byte   BEND , c_v-13
 .byte   W01
 .byte   BEND , c_v-15
 .byte   W01
 .byte   BEND , c_v-19
 .byte   W01
 .byte   BEND , c_v-21
 .byte   W01
 .byte   BEND , c_v-25
 .byte   W01
 .byte   BEND , c_v-27
 .byte   W01
 .byte   BEND , c_v-31
 .byte   W01
 .byte   BEND , c_v-37
 .byte   W01
 .byte   BEND , c_v-43
 .byte   W01
 .byte   BEND , c_v-49
 .byte   W01
 .byte   BEND , c_v-57
 .byte   W01
 .byte   BEND , c_v-64
 .byte   W01
@  #10 @044   ----------------------------------------
 .byte   GOTO
  .word Label_01025082
 .byte   FINE

@**************** Track 11 (Midi-Chn.10) ****************@

song06_011:
@  #11 @000   ----------------------------------------
 .byte   KEYSH , song06_key+0
 .byte   VOICE , 29
 .byte   VOL , 10*song06_mvl/mxv
 .byte   PAN , c_v-34
 .byte   W96
@  #11 @001   ----------------------------------------
 .byte   W96
@  #11 @002   ----------------------------------------
 .byte   W96
@  #11 @003   ----------------------------------------
 .byte   W96
@  #11 @004   ----------------------------------------
 .byte   W96
@  #11 @005   ----------------------------------------
 .byte   W96
@  #11 @006   ----------------------------------------
Label_01024BDE:
 .byte   W36
 .byte   BEND , c_v+0
 .byte   N23 ,Dn3 ,v127
 .byte   W24
 .byte   N11 ,An3
 .byte   W12
 .byte   N17 ,As3
 .byte   W18
 .byte   An3
 .byte   W06
@  #11 @007   ----------------------------------------
Label_01024BED:
 .byte   W12
 .byte   N11 ,Gn3 ,v127
 .byte   W12
 .byte   N44 ,Fn3
 .byte   W48
 .byte   An3
 .byte   W24
 .byte   PEND 
@  #11 @008   ----------------------------------------
Label_01024BF8:
 .byte   W13
 .byte   BEND , c_v+12
 .byte   W01
 .byte   BEND , c_v+40
 .byte   W01
 .byte   BEND , c_v+62
 .byte   W01
 .byte   BEND , c_v+63
 .byte   W02
 .byte   BEND , c_v+49
 .byte   W01
 .byte   BEND , c_v+22
 .byte   W01
 .byte   BEND , c_v+0
 .byte   W04
 .byte   N68 ,Gn3 ,v127
 .byte   W72
 .byte   PEND 
@  #11 @009   ----------------------------------------
Label_01024C13:
 .byte   N23 ,Fn3 ,v127
 .byte   W24
 .byte   N44 ,En3
 .byte   W32
 .byte   W03
 .byte   BEND , c_v+27
 .byte   W01
 .byte   BEND , c_v+32
 .byte   W04
 .byte   BEND , c_v+32
 .byte   W01
 .byte   BEND , c_v+5
 .byte   W01
 .byte   BEND , c_v+0
 .byte   W06
 .byte   N23 ,Dn3
 .byte   W24
 .byte   PEND 
@  #11 @010   ----------------------------------------
Label_01024C2E:
 .byte   N23 ,Cn3 ,v127
 .byte   W36
 .byte   Dn3
 .byte   W24
 .byte   N11 ,An3
 .byte   W12
 .byte   N17 ,As3
 .byte   W18
 .byte   An3
 .byte   W06
 .byte   PEND 
@  #11 @011   ----------------------------------------
Label_01024C3D:
 .byte   W12
 .byte   N11 ,As3 ,v127
 .byte   W12
 .byte   N68 ,Cn4
 .byte   W72
 .byte   PEND 
@  #11 @012   ----------------------------------------
 .byte   N23 ,Fn3
 .byte   W24
 .byte   N68 ,Dn4
 .byte   W72
@  #11 @013   ----------------------------------------
 .byte   N23 ,Fn4
 .byte   W24
 .byte   N32
 .byte   W36
 .byte   N11
 .byte   W02
 .byte   BEND , c_v+9
 .byte   W01
 .byte   BEND , c_v+30
 .byte   W01
 .byte   BEND , c_v+42
 .byte   W01
 .byte   BEND , c_v+43
 .byte   W01
 .byte   BEND , c_v+21
 .byte   W01
 .byte   BEND , c_v+0
 .byte   W05
 .byte   N44 ,En4
 .byte   W24
@  #11 @014   ----------------------------------------
 .byte   W36
 .byte   N23 ,Dn3
 .byte   W24
 .byte   N11 ,An3
 .byte   W12
 .byte   N17 ,As3
 .byte   W18
 .byte   An3
 .byte   W06
@  #11 @015   ----------------------------------------
 .byte   PATT
  .word Label_01024BED
@  #11 @016   ----------------------------------------
 .byte   PATT
  .word Label_01024BF8
@  #11 @017   ----------------------------------------
 .byte   PATT
  .word Label_01024C13
@  #11 @018   ----------------------------------------
 .byte   PATT
  .word Label_01024C2E
@  #11 @019   ----------------------------------------
 .byte   PATT
  .word Label_01024C3D
@  #11 @020   ----------------------------------------
 .byte   N23 ,Fn3 ,v127
 .byte   W24
 .byte   Dn4
 .byte   W24
 .byte   N11 ,Fn3
 .byte   W12
 .byte   N23 ,En4
 .byte   W24
 .byte   Fn3
 .byte   W12
@  #11 @021   ----------------------------------------
 .byte   W12
 .byte   N44 ,Fn4
 .byte   W48
 .byte   N11
 .byte   W12
 .byte   N44 ,Gn4
 .byte   W24
@  #11 @022   ----------------------------------------
 .byte   W96
@  #11 @023   ----------------------------------------
 .byte   W96
@  #11 @024   ----------------------------------------
 .byte   W96
@  #11 @025   ----------------------------------------
 .byte   W96
@  #11 @026   ----------------------------------------
 .byte   W96
@  #11 @027   ----------------------------------------
 .byte   W96
@  #11 @028   ----------------------------------------
 .byte   W96
@  #11 @029   ----------------------------------------
 .byte   W96
@  #11 @030   ----------------------------------------
 .byte   W96
@  #11 @031   ----------------------------------------
 .byte   W96
@  #11 @032   ----------------------------------------
 .byte   W96
@  #11 @033   ----------------------------------------
 .byte   W96
@  #11 @034   ----------------------------------------
 .byte   W96
@  #11 @035   ----------------------------------------
 .byte   W96
@  #11 @036   ----------------------------------------
 .byte   W96
@  #11 @037   ----------------------------------------
 .byte   W96
@  #11 @038   ----------------------------------------
 .byte   W96
@  #11 @039   ----------------------------------------
 .byte   W96
@  #11 @040   ----------------------------------------
 .byte   W96
@  #11 @041   ----------------------------------------
 .byte   W96
@  #11 @042   ----------------------------------------
 .byte   W96
@  #11 @043   ----------------------------------------
 .byte   W96
@  #11 @044   ----------------------------------------
 .byte   GOTO
  .word Label_01024BDE
 .byte   FINE

@**************** Track 12 (Midi-Chn.11) ****************@

song06_012:
@  #12 @000   ----------------------------------------
 .byte   KEYSH , song06_key+0
 .byte   VOICE , 104
 .byte   VOL , 39*song06_mvl/mxv
 .byte   PAN , c_v+0
 .byte   W96
@  #12 @001   ----------------------------------------
 .byte   W96
@  #12 @002   ----------------------------------------
 .byte   W96
@  #12 @003   ----------------------------------------
 .byte   W96
@  #12 @004   ----------------------------------------
 .byte   W96
@  #12 @005   ----------------------------------------
 .byte   W96
@  #12 @006   ----------------------------------------
Label_01024CCE:
 .byte   W12
 .byte   BEND , c_v+0
 .byte   N23 ,Dn3 ,v127
 .byte   W24
 .byte   N11 ,An3
 .byte   W12
 .byte   N17 ,As3
 .byte   W18
 .byte   An3
 .byte   W18
 .byte   N11 ,Gn3
 .byte   W12
@  #12 @007   ----------------------------------------
Label_01024CE0:
 .byte   N44 ,Fn3 ,v127
 .byte   W48
 .byte   An3
 .byte   W36
 .byte   W01
 .byte   BEND , c_v+12
 .byte   W01
 .byte   BEND , c_v+40
 .byte   W01
 .byte   BEND , c_v+62
 .byte   W01
 .byte   BEND , c_v+63
 .byte   W02
 .byte   BEND , c_v+49
 .byte   W01
 .byte   BEND , c_v+22
 .byte   W01
 .byte   BEND , c_v+0
 .byte   W04
 .byte   PEND 
@  #12 @008   ----------------------------------------
Label_01024CFD:
 .byte   N68 ,Gn3 ,v127
 .byte   W72
 .byte   N23 ,Fn3
 .byte   W24
 .byte   PEND 
@  #12 @009   ----------------------------------------
Label_01024D05:
 .byte   N44 ,En3 ,v127
 .byte   W32
 .byte   W03
 .byte   BEND , c_v+27
 .byte   W01
 .byte   BEND , c_v+32
 .byte   W04
 .byte   BEND , c_v+32
 .byte   W01
 .byte   BEND , c_v+5
 .byte   W01
 .byte   BEND , c_v+0
 .byte   W06
 .byte   N23 ,Dn3
 .byte   W24
 .byte   Cn3
 .byte   W24
 .byte   PEND 
@  #12 @010   ----------------------------------------
Label_01024D1F:
 .byte   W12
 .byte   N23 ,Dn3 ,v127
 .byte   W24
 .byte   N11 ,An3
 .byte   W12
 .byte   N17 ,As3
 .byte   W18
 .byte   An3
 .byte   W18
 .byte   N11 ,As3
 .byte   W12
 .byte   PEND 
@  #12 @011   ----------------------------------------
Label_01024D30:
 .byte   N68 ,Cn4 ,v127
 .byte   W72
 .byte   N23 ,Fn3
 .byte   W24
 .byte   PEND 
@  #12 @012   ----------------------------------------
 .byte   N68 ,Dn4
 .byte   W72
 .byte   N23 ,Fn4
 .byte   W24
@  #12 @013   ----------------------------------------
 .byte   N32
 .byte   W36
 .byte   N11
 .byte   W02
 .byte   BEND , c_v+9
 .byte   W01
 .byte   BEND , c_v+30
 .byte   W01
 .byte   BEND , c_v+42
 .byte   W01
 .byte   BEND , c_v+43
 .byte   W01
 .byte   BEND , c_v+21
 .byte   W01
 .byte   BEND , c_v+0
 .byte   W05
 .byte   N44 ,En4
 .byte   W48
@  #12 @014   ----------------------------------------
 .byte   W12
 .byte   N23 ,Dn3
 .byte   W24
 .byte   N11 ,An3
 .byte   W12
 .byte   N17 ,As3
 .byte   W18
 .byte   An3
 .byte   W18
 .byte   N11 ,Gn3
 .byte   W12
@  #12 @015   ----------------------------------------
 .byte   PATT
  .word Label_01024CE0
@  #12 @016   ----------------------------------------
 .byte   PATT
  .word Label_01024CFD
@  #12 @017   ----------------------------------------
 .byte   PATT
  .word Label_01024D05
@  #12 @018   ----------------------------------------
 .byte   PATT
  .word Label_01024D1F
@  #12 @019   ----------------------------------------
 .byte   PATT
  .word Label_01024D30
@  #12 @020   ----------------------------------------
 .byte   N23 ,Dn4 ,v127
 .byte   W24
 .byte   N11 ,Fn3
 .byte   W12
 .byte   N23 ,En4
 .byte   W24
 .byte   Fn3
 .byte   W24
 .byte   N44 ,Fn4
 .byte   W12
@  #12 @021   ----------------------------------------
 .byte   W36
 .byte   N11
 .byte   W12
 .byte   N44 ,Gn4
 .byte   W48
@  #12 @022   ----------------------------------------
 .byte   W96
@  #12 @023   ----------------------------------------
 .byte   W96
@  #12 @024   ----------------------------------------
 .byte   W96
@  #12 @025   ----------------------------------------
 .byte   W96
@  #12 @026   ----------------------------------------
 .byte   W96
@  #12 @027   ----------------------------------------
 .byte   W96
@  #12 @028   ----------------------------------------
 .byte   W96
@  #12 @029   ----------------------------------------
 .byte   W96
@  #12 @030   ----------------------------------------
 .byte   W96
@  #12 @031   ----------------------------------------
 .byte   W96
@  #12 @032   ----------------------------------------
 .byte   W96
@  #12 @033   ----------------------------------------
 .byte   W96
@  #12 @034   ----------------------------------------
 .byte   W96
@  #12 @035   ----------------------------------------
 .byte   W96
@  #12 @036   ----------------------------------------
 .byte   W96
@  #12 @037   ----------------------------------------
 .byte   W96
@  #12 @038   ----------------------------------------
 .byte   W96
@  #12 @039   ----------------------------------------
 .byte   W96
@  #12 @040   ----------------------------------------
 .byte   W96
@  #12 @041   ----------------------------------------
 .byte   W96
@  #12 @042   ----------------------------------------
 .byte   W96
@  #12 @043   ----------------------------------------
 .byte   W96
@  #12 @044   ----------------------------------------
 .byte   GOTO
  .word Label_01024CCE
 .byte   FINE

@**************** Track 13 (Midi-Chn.12) ****************@

song06_013:
@  #13 @000   ----------------------------------------
 .byte   KEYSH , song06_key+0
 .byte   VOICE , 122
 .byte   VOL , 60*song06_mvl/mxv
 .byte   PAN , c_v+0
 .byte   W96
@  #13 @001   ----------------------------------------
 .byte   W72
 .byte   N01 ,Cn2 ,v116
 .byte   W18
 .byte   Dn1 ,v040
 .byte   W03
 .byte   N01
 .byte   W03
@  #13 @002   ----------------------------------------
 .byte   N03 ,Cn1 ,v127
 .byte   N01 ,Gn1 ,v116
 .byte   N12 ,Gs1 ,v080
 .byte   N24 ,Cn3 ,v120
 .byte   W06
 .byte   N01 ,Dn1 ,v072
 .byte   W06
 .byte   Gn1 ,v076
 .byte   W06
 .byte   Cn2 ,v116
 .byte   W01
 .byte   Cn2 ,v096
 .byte   W05
 .byte   N03 ,Cn1 ,v112
 .byte   N01 ,Gn1 ,v076
 .byte   N12 ,Gs1 ,v080
 .byte   W12
 .byte   N01 ,An1 ,v116
 .byte   W12
 .byte   N03 ,Cn1 ,v112
 .byte   N01 ,Gn1 ,v076
 .byte   N12 ,Gs1 ,v080
 .byte   W06
 .byte   N01 ,Dn1 ,v100
 .byte   W06
 .byte   Gn1 ,v116
 .byte   W06
 .byte   Dn1 ,v072
 .byte   W03
 .byte   Dn1 ,v040
 .byte   W03
 .byte   N03 ,Cn1 ,v112
 .byte   N01 ,Gn1 ,v096
 .byte   N12 ,Gs1 ,v080
 .byte   W06
 .byte   N01 ,Cn2 ,v116
 .byte   W01
 .byte   Cn2 ,v096
 .byte   W05
 .byte   Gn1 ,v076
 .byte   W03
 .byte   Dn1 ,v040
 .byte   W03
 .byte   Dn1 ,v072
 .byte   W03
 .byte   N01
 .byte   W03
@  #13 @003   ----------------------------------------
 .byte   N03 ,Cn1 ,v127
 .byte   N01 ,Gn1 ,v116
 .byte   N12 ,Gs1 ,v080
 .byte   W06
 .byte   N01 ,Dn1 ,v072
 .byte   W06
 .byte   Gn1 ,v076
 .byte   W06
 .byte   Cn2 ,v116
 .byte   W01
 .byte   Cn2 ,v096
 .byte   W05
 .byte   N03 ,Cn1 ,v112
 .byte   N01 ,Gn1 ,v076
 .byte   N12 ,Gs1 ,v080
 .byte   W12
 .byte   N01 ,An1 ,v116
 .byte   W12
 .byte   N03 ,Cn1 ,v112
 .byte   N01 ,Gn1 ,v076
 .byte   N12 ,Gs1 ,v080
 .byte   W06
 .byte   N01 ,Dn1 ,v100
 .byte   W06
 .byte   Gn1 ,v116
 .byte   W06
 .byte   Dn1 ,v072
 .byte   W03
 .byte   Dn1 ,v040
 .byte   W03
 .byte   N03 ,Cn1 ,v112
 .byte   N01 ,Gn1 ,v096
 .byte   N12 ,Gs1 ,v080
 .byte   W06
 .byte   N01 ,An1 ,v116
 .byte   W01
 .byte   An1 ,v096
 .byte   W05
 .byte   Gn1 ,v076
 .byte   W03
 .byte   Dn1 ,v040
 .byte   W03
 .byte   Dn1 ,v072
 .byte   W03
 .byte   N01
 .byte   W03
@  #13 @004   ----------------------------------------
 .byte   N03 ,Cn1 ,v127
 .byte   N01 ,Gn1 ,v116
 .byte   N12 ,Gs1 ,v080
 .byte   W06
 .byte   N01 ,Dn1 ,v072
 .byte   W06
 .byte   Gn1 ,v076
 .byte   W06
 .byte   Cn2 ,v116
 .byte   W01
 .byte   Cn2 ,v096
 .byte   W05
 .byte   N03 ,Cn1 ,v112
 .byte   N01 ,Gn1 ,v076
 .byte   N12 ,Gs1 ,v080
 .byte   W12
 .byte   N01 ,An1 ,v116
 .byte   W12
 .byte   N03 ,Cn1 ,v112
 .byte   N01 ,Gn1 ,v076
 .byte   N12 ,Gs1 ,v080
 .byte   W06
 .byte   N01 ,Dn1 ,v100
 .byte   W06
 .byte   Gn1 ,v116
 .byte   W06
 .byte   Dn1 ,v072
 .byte   W03
 .byte   Dn1 ,v040
 .byte   W03
 .byte   N03 ,Cn1 ,v112
 .byte   N01 ,Gn1 ,v096
 .byte   N12 ,Gs1 ,v080
 .byte   W06
 .byte   N01 ,Cn2 ,v116
 .byte   W01
 .byte   Cn2 ,v096
 .byte   W05
 .byte   Gn1 ,v076
 .byte   W03
 .byte   Dn1 ,v040
 .byte   W03
 .byte   Dn1 ,v072
 .byte   W03
 .byte   N01
 .byte   W03
@  #13 @005   ----------------------------------------
Label_010255D6:
 .byte   N03 ,Cn1 ,v127
 .byte   N01 ,Gn1 ,v116
 .byte   N12 ,Gs1 ,v080
 .byte   W06
 .byte   N01 ,Dn1 ,v072
 .byte   W12
 .byte   Dn1 ,v127
 .byte   N24 ,Cn3 ,v120
 .byte   W06
 .byte   N03 ,Cn1 ,v112
 .byte   N12 ,Gs1 ,v080
 .byte   W03
 .byte   N01 ,Dn1 ,v040
 .byte   W03
 .byte   Dn1 ,v072
 .byte   W03
 .byte   N01
 .byte   W03
 .byte   Cn2 ,v116
 .byte   W01
 .byte   Cn2 ,v096
 .byte   W05
 .byte   Cn2 ,v116
 .byte   W06
 .byte   N03 ,Cn1 ,v112
 .byte   N12 ,Gs1 ,v080
 .byte   W06
 .byte   N01 ,Dn1 ,v040
 .byte   W03
 .byte   Dn1 ,v072
 .byte   W03
 .byte   Dn1 ,v100
 .byte   W06
 .byte   N01
 .byte   W06
 .byte   N03 ,Cn1 ,v112
 .byte   N01 ,Dn1 ,v100
 .byte   N12 ,Gs1 ,v080
 .byte   W06
 .byte   N01 ,Dn1 ,v127
 .byte   W06
 .byte   An1 ,v116
 .byte   W06
 .byte   Gn1
 .byte   W06
 .byte   PEND 
@  #13 @006   ----------------------------------------
Label_0102562A:
 .byte   N03 ,Cn1 ,v127
 .byte   N12 ,Gs1 ,v080
 .byte   N24 ,Cn3 ,v120
 .byte   W06
 .byte   N01 ,Dn1 ,v072
 .byte   W06
 .byte   Gn1 ,v076
 .byte   W06
 .byte   Cn2 ,v116
 .byte   W01
 .byte   Cn2 ,v096
 .byte   W05
 .byte   N03 ,Cn1 ,v112
 .byte   N01 ,Gn1 ,v076
 .byte   N12 ,Gs1 ,v080
 .byte   W12
 .byte   N01 ,An1 ,v116
 .byte   W12
 .byte   N03 ,Cn1 ,v112
 .byte   N01 ,Gn1 ,v076
 .byte   N12 ,Gs1 ,v080
 .byte   W06
 .byte   N01 ,Dn1 ,v100
 .byte   W06
 .byte   Gn1 ,v116
 .byte   W06
 .byte   Dn1 ,v072
 .byte   W06
 .byte   N03 ,Cn1 ,v112
 .byte   N01 ,Gn1 ,v096
 .byte   N12 ,Gs1 ,v080
 .byte   W06
 .byte   N01 ,Cn2 ,v116
 .byte   W01
 .byte   Cn2 ,v096
 .byte   W05
 .byte   Gn1 ,v076
 .byte   W12
 .byte   PEND 
@  #13 @007   ----------------------------------------
Label_01025678:
 .byte   N03 ,Cn1 ,v127
 .byte   N01 ,Gn1 ,v116
 .byte   N12 ,Gs1 ,v080
 .byte   W06
 .byte   N01 ,Dn1 ,v072
 .byte   W06
 .byte   Gn1 ,v076
 .byte   W06
 .byte   Cn2 ,v116
 .byte   W01
 .byte   Cn2 ,v096
 .byte   W05
 .byte   N03 ,Cn1 ,v112
 .byte   N01 ,Gn1 ,v076
 .byte   N12 ,Gs1 ,v080
 .byte   W12
 .byte   N01 ,An1 ,v116
 .byte   W12
 .byte   N03 ,Cn1 ,v112
 .byte   N01 ,Gn1 ,v076
 .byte   N12 ,Gs1 ,v080
 .byte   W06
 .byte   N01 ,Dn1 ,v100
 .byte   W06
 .byte   Gn1 ,v116
 .byte   W06
 .byte   Dn1 ,v072
 .byte   W06
 .byte   N03 ,Cn1 ,v112
 .byte   N01 ,Gn1 ,v096
 .byte   N12 ,Gs1 ,v080
 .byte   W06
 .byte   N01 ,An1 ,v116
 .byte   W01
 .byte   An1 ,v096
 .byte   W05
 .byte   Gn1 ,v076
 .byte   W12
 .byte   PEND 
@  #13 @008   ----------------------------------------
Label_010256C6:
 .byte   N03 ,Cn1 ,v127
 .byte   N01 ,Gn1 ,v116
 .byte   N12 ,Gs1 ,v080
 .byte   W06
 .byte   N01 ,Dn1 ,v072
 .byte   W06
 .byte   Gn1 ,v076
 .byte   W06
 .byte   Cn2 ,v116
 .byte   W01
 .byte   Cn2 ,v096
 .byte   W05
 .byte   N03 ,Cn1 ,v112
 .byte   N01 ,Gn1 ,v076
 .byte   N12 ,Gs1 ,v080
 .byte   W12
 .byte   N01 ,An1 ,v116
 .byte   W12
 .byte   N03 ,Cn1 ,v112
 .byte   N01 ,Gn1 ,v076
 .byte   N12 ,Gs1 ,v080
 .byte   W06
 .byte   N01 ,Dn1 ,v100
 .byte   W06
 .byte   Gn1 ,v116
 .byte   W06
 .byte   Dn1 ,v072
 .byte   W06
 .byte   N03 ,Cn1 ,v112
 .byte   N01 ,Gn1 ,v096
 .byte   N12 ,Gs1 ,v080
 .byte   W06
 .byte   N01 ,Cn2 ,v116
 .byte   W01
 .byte   Cn2 ,v096
 .byte   W05
 .byte   Gn1 ,v076
 .byte   W12
 .byte   PEND 
@  #13 @009   ----------------------------------------
Label_01025714:
 .byte   N03 ,Cn1 ,v127
 .byte   N01 ,Gn1 ,v116
 .byte   N12 ,Gs1 ,v080
 .byte   W06
 .byte   N01 ,Dn1 ,v072
 .byte   W06
 .byte   Gn1 ,v076
 .byte   W06
 .byte   Cn2 ,v116
 .byte   W01
 .byte   Cn2 ,v096
 .byte   W05
 .byte   N03 ,Cn1 ,v112
 .byte   N01 ,Gn1 ,v076
 .byte   N12 ,Gs1 ,v080
 .byte   W12
 .byte   N01 ,An1 ,v116
 .byte   W12
 .byte   N03 ,Cn1 ,v112
 .byte   N01 ,Gn1 ,v076
 .byte   N12 ,Gs1 ,v080
 .byte   W06
 .byte   N01 ,Dn1 ,v100
 .byte   W06
 .byte   Gn1 ,v116
 .byte   W06
 .byte   Dn1 ,v072
 .byte   W06
 .byte   N03 ,Cn1 ,v112
 .byte   N01 ,Gn1 ,v096
 .byte   N12 ,Gs1 ,v080
 .byte   W06
 .byte   N01 ,Cn2 ,v116
 .byte   W06
 .byte   An1
 .byte   W06
 .byte   Gn1
 .byte   W06
 .byte   PEND 
@  #13 @010   ----------------------------------------
 .byte   PATT
  .word Label_0102562A
@  #13 @011   ----------------------------------------
 .byte   PATT
  .word Label_01025678
@  #13 @012   ----------------------------------------
 .byte   PATT
  .word Label_010256C6
@  #13 @013   ----------------------------------------
 .byte   N03 ,Cn1 ,v127
 .byte   N01 ,Gn1 ,v116
 .byte   N12 ,Gs1 ,v080
 .byte   W06
 .byte   N01 ,Dn1 ,v072
 .byte   W06
 .byte   Gn1 ,v076
 .byte   W06
 .byte   Cn2 ,v116
 .byte   W01
 .byte   Cn2 ,v096
 .byte   W05
 .byte   N03 ,Cn1 ,v112
 .byte   N01 ,Gn1 ,v076
 .byte   N12 ,Gs1 ,v080
 .byte   W12
 .byte   N01 ,An1 ,v116
 .byte   W12
 .byte   N03 ,Cn1 ,v112
 .byte   N01 ,Gn1 ,v076
 .byte   N12 ,Gs1 ,v080
 .byte   W06
 .byte   N01 ,Dn1 ,v100
 .byte   N01 ,Cn2 ,v116
 .byte   W06
 .byte   Gn1
 .byte   W12
 .byte   N03 ,Cn1 ,v112
 .byte   N01 ,Gn1 ,v096
 .byte   N12 ,Gs1 ,v080
 .byte   W06
 .byte   N01 ,Dn1 ,v127
 .byte   W06
 .byte   An1 ,v116
 .byte   W06
 .byte   Gn1
 .byte   W06
@  #13 @014   ----------------------------------------
 .byte   PATT
  .word Label_0102562A
@  #13 @015   ----------------------------------------
 .byte   PATT
  .word Label_01025678
@  #13 @016   ----------------------------------------
 .byte   PATT
  .word Label_010256C6
@  #13 @017   ----------------------------------------
 .byte   PATT
  .word Label_01025714
@  #13 @018   ----------------------------------------
 .byte   PATT
  .word Label_0102562A
@  #13 @019   ----------------------------------------
 .byte   PATT
  .word Label_01025678
@  #13 @020   ----------------------------------------
 .byte   PATT
  .word Label_010256C6
@  #13 @021   ----------------------------------------
 .byte   N03 ,Cn1 ,v127
 .byte   N01 ,Gn1 ,v116
 .byte   N12 ,Gs1 ,v080
 .byte   W06
 .byte   N01 ,Dn1 ,v100
 .byte   W06
 .byte   Gn1 ,v076
 .byte   W06
 .byte   N03 ,Cn1 ,v127
 .byte   W06
 .byte   N01 ,Dn1
 .byte   N06 ,Gs1 ,v080
 .byte   N24 ,Cn3 ,v120
 .byte   W12
 .byte   N06 ,As1 ,v072
 .byte   W06
 .byte   N01 ,Cn2 ,v116
 .byte   W01
 .byte   Cn2 ,v096
 .byte   W05
 .byte   N03 ,Cn1 ,v112
 .byte   N12 ,Gs1 ,v080
 .byte   W06
 .byte   N01 ,An1 ,v116
 .byte   W06
 .byte   Dn1 ,v127
 .byte   W12
 .byte   N03 ,Cn1 ,v112
 .byte   N12 ,Gs1 ,v080
 .byte   W06
 .byte   N01 ,Dn1 ,v127
 .byte   W06
 .byte   An1 ,v116
 .byte   W06
 .byte   Gn1
 .byte   W06
@  #13 @022   ----------------------------------------
Label_01025824:
 .byte   N03 ,Cn1 ,v127
 .byte   N12 ,Gs1 ,v080
 .byte   N03 ,Gs2 ,v120
 .byte   N24 ,Cn3
 .byte   W18
 .byte   N03 ,Cn1 ,v112
 .byte   W06
 .byte   N01 ,Dn1 ,v127
 .byte   N12 ,Gs1 ,v080
 .byte   N03 ,Gs2 ,v120
 .byte   W12
 .byte   Cn1 ,v127
 .byte   N03 ,Gs2 ,v052
 .byte   W06
 .byte   N01 ,Dn1 ,v072
 .byte   W03
 .byte   Dn1 ,v040
 .byte   W03
 .byte   N12 ,Gs1 ,v080
 .byte   N03 ,Gs2 ,v120
 .byte   W06
 .byte   N01 ,Dn1 ,v040
 .byte   W06
 .byte   N03 ,Cn1 ,v127
 .byte   W12
 .byte   N01 ,Dn1
 .byte   N06 ,Gs1 ,v080
 .byte   N03 ,Gs2 ,v120
 .byte   W12
 .byte   Cn1 ,v127
 .byte   N06 ,As1 ,v072
 .byte   N03 ,Gs2
 .byte   W06
 .byte   N01 ,Dn1 ,v040
 .byte   W03
 .byte   Dn1 ,v072
 .byte   W03
 .byte   PEND 
@  #13 @023   ----------------------------------------
 .byte   Dn1 ,v100
 .byte   N06 ,Gs1 ,v080
 .byte   N03 ,Gs2 ,v120
 .byte   W12
 .byte   Cn1 ,v127
 .byte   N06 ,As1 ,v072
 .byte   W12
 .byte   N01 ,Dn1 ,v127
 .byte   N12 ,Gs1 ,v080
 .byte   N03 ,Gs2 ,v120
 .byte   W12
 .byte   Cn1 ,v127
 .byte   N03 ,Gs2 ,v052
 .byte   N24 ,Cn3 ,v120
 .byte   W12
 .byte   N12 ,Gs1 ,v080
 .byte   N03 ,Gs2 ,v120
 .byte   W06
 .byte   N01 ,Dn1 ,v072
 .byte   W06
 .byte   N03 ,Cn1 ,v112
 .byte   W06
 .byte   N03
 .byte   W06
 .byte   N01 ,Dn1 ,v127
 .byte   N12 ,Gs1 ,v080
 .byte   N03 ,Gs2 ,v120
 .byte   N24 ,Cn3
 .byte   W06
 .byte   N03 ,Cn1 ,v112
 .byte   W06
 .byte   Gs2 ,v072
 .byte   W06
 .byte   N01 ,Dn1 ,v040
 .byte   W03
 .byte   N01
 .byte   W03
@  #13 @024   ----------------------------------------
Label_010258BF:
 .byte   N03 ,Cn1 ,v127
 .byte   N12 ,Gs1 ,v080
 .byte   N03 ,Gs2 ,v120
 .byte   W18
 .byte   Cn1 ,v112
 .byte   W06
 .byte   N01 ,Dn1 ,v127
 .byte   N12 ,Gs1 ,v080
 .byte   N03 ,Gs2 ,v120
 .byte   W12
 .byte   Cn1 ,v127
 .byte   N03 ,Gs2 ,v052
 .byte   W06
 .byte   N01 ,Dn1 ,v072
 .byte   W03
 .byte   Dn1 ,v040
 .byte   W03
 .byte   N12 ,Gs1 ,v080
 .byte   N03 ,Gs2 ,v120
 .byte   W06
 .byte   N01 ,Dn1 ,v040
 .byte   W06
 .byte   N03 ,Cn1 ,v127
 .byte   W12
 .byte   N01 ,Dn1
 .byte   N12 ,Gs1 ,v080
 .byte   N03 ,Gs2 ,v120
 .byte   W12
 .byte   Cn1 ,v127
 .byte   N03 ,Gs2 ,v072
 .byte   N24 ,Cn3 ,v120
 .byte   W06
 .byte   N01 ,Dn1 ,v040
 .byte   W03
 .byte   N01
 .byte   W03
 .byte   PEND 
@  #13 @025   ----------------------------------------
 .byte   N06 ,Gs1 ,v080
 .byte   N03 ,Gs2 ,v120
 .byte   W12
 .byte   Cn1 ,v112
 .byte   N06 ,As1 ,v072
 .byte   W06
 .byte   N03 ,Cn1 ,v112
 .byte   W06
 .byte   N01 ,Dn1 ,v127
 .byte   N12 ,Gs1 ,v080
 .byte   N03 ,Gs2 ,v120
 .byte   N24 ,Cn3
 .byte   W12
 .byte   N03 ,Cn1 ,v127
 .byte   N03 ,Gs2 ,v052
 .byte   W03
 .byte   N01 ,Dn1 ,v040
 .byte   W03
 .byte   Dn1 ,v072
 .byte   W03
 .byte   N01
 .byte   W03
 .byte   Dn1 ,v100
 .byte   N12 ,Gs1 ,v080
 .byte   N03 ,Gs2 ,v120
 .byte   W12
 .byte   Cn1 ,v112
 .byte   N01 ,Cn2 ,v116
 .byte   W03
 .byte   Dn1 ,v040
 .byte   W03
 .byte   Dn1 ,v072
 .byte   W03
 .byte   N01
 .byte   W03
 .byte   Dn1 ,v100
 .byte   N12 ,Gs1 ,v080
 .byte   N03 ,Gs2 ,v120
 .byte   W06
 .byte   N01 ,Dn1 ,v127
 .byte   W06
 .byte   N03 ,Cn1 ,v112
 .byte   N01 ,An1 ,v116
 .byte   N03 ,Gs2 ,v072
 .byte   W12
@  #13 @026   ----------------------------------------
 .byte   PATT
  .word Label_01025824
@  #13 @027   ----------------------------------------
 .byte   N01 ,Dn1 ,v100
 .byte   N12 ,Gs1 ,v080
 .byte   N03 ,Gs2 ,v120
 .byte   W12
 .byte   Cn1 ,v127
 .byte   N01 ,Dn1 ,v100
 .byte   W03
 .byte   Dn1 ,v072
 .byte   W03
 .byte   Dn1 ,v040
 .byte   W03
 .byte   Dn1 ,v072
 .byte   W03
 .byte   Dn1 ,v100
 .byte   N12 ,Gs1 ,v080
 .byte   N03 ,Gs2 ,v120
 .byte   W06
 .byte   N01 ,An1 ,v116
 .byte   W06
 .byte   N03 ,Cn1 ,v127
 .byte   N03 ,Gs2 ,v052
 .byte   N24 ,Cn3 ,v120
 .byte   W12
 .byte   N12 ,Gs1 ,v080
 .byte   N03 ,Gs2 ,v120
 .byte   W06
 .byte   N01 ,Dn1 ,v040
 .byte   W06
 .byte   N03 ,Cn1 ,v112
 .byte   W06
 .byte   N03
 .byte   W06
 .byte   N01 ,Dn1 ,v127
 .byte   N12 ,Gs1 ,v080
 .byte   N03 ,Gs2 ,v120
 .byte   N24 ,Cn3
 .byte   W06
 .byte   N03 ,Cn1 ,v127
 .byte   W06
 .byte   Gs2 ,v072
 .byte   W06
 .byte   N01 ,Dn1 ,v040
 .byte   W03
 .byte   N01
 .byte   W03
@  #13 @028   ----------------------------------------
 .byte   PATT
  .word Label_010258BF
@  #13 @029   ----------------------------------------
 .byte   N06 ,Gs1 ,v080
 .byte   N03 ,Gs2 ,v120
 .byte   W12
 .byte   Cn1 ,v112
 .byte   N06 ,As1 ,v072
 .byte   W06
 .byte   N03 ,Cn1 ,v112
 .byte   W06
 .byte   N01 ,Dn1 ,v127
 .byte   N12 ,Gs1 ,v080
 .byte   N03 ,Gs2 ,v120
 .byte   N24 ,Cn3
 .byte   W12
 .byte   N03 ,Cn1 ,v127
 .byte   N03 ,Gs2 ,v052
 .byte   W06
 .byte   N01 ,Cn2 ,v116
 .byte   W06
 .byte   N12 ,Gs1 ,v080
 .byte   N03 ,Gs2 ,v120
 .byte   W06
 .byte   N01 ,An1 ,v116
 .byte   W06
 .byte   N03 ,Cn1 ,v112
 .byte   N01 ,Dn1 ,v100
 .byte   W03
 .byte   Dn1 ,v040
 .byte   W03
 .byte   Dn1 ,v072
 .byte   W03
 .byte   N01
 .byte   W03
 .byte   Dn1 ,v100
 .byte   N12 ,Gs1 ,v080
 .byte   N03 ,Gs2 ,v120
 .byte   W06
 .byte   N01 ,Dn1 ,v127
 .byte   W06
 .byte   N03 ,Cn1 ,v112
 .byte   N01 ,An1 ,v116
 .byte   N03 ,Gs2 ,v072
 .byte   W06
 .byte   N01 ,Gn1 ,v116
 .byte   W06
@  #13 @030   ----------------------------------------
Label_01025A27:
 .byte   N03 ,Cn1 ,v127
 .byte   N12 ,Gs1 ,v080
 .byte   N24 ,Cn3 ,v120
 .byte   W06
 .byte   N01 ,Dn1 ,v072
 .byte   W06
 .byte   Gn1 ,v076
 .byte   W06
 .byte   Cn2 ,v116
 .byte   W01
 .byte   Cn2 ,v096
 .byte   W05
 .byte   N03 ,Cn1 ,v112
 .byte   N01 ,Gn1 ,v076
 .byte   N12 ,Gs1 ,v080
 .byte   W12
 .byte   N01 ,An1 ,v116
 .byte   W12
 .byte   N03 ,Cn1 ,v112
 .byte   N01 ,Gn1 ,v076
 .byte   N12 ,Gs1 ,v080
 .byte   W06
 .byte   N01 ,Dn1 ,v100
 .byte   W06
 .byte   Gn1 ,v116
 .byte   W06
 .byte   Dn1 ,v040
 .byte   W06
 .byte   N03 ,Cn1 ,v112
 .byte   N01 ,Gn1 ,v096
 .byte   N12 ,Gs1 ,v080
 .byte   W06
 .byte   N01 ,Cn2 ,v116
 .byte   W01
 .byte   Cn2 ,v096
 .byte   W05
 .byte   Gn1 ,v076
 .byte   W12
 .byte   PEND 
@  #13 @031   ----------------------------------------
Label_01025A75:
 .byte   N03 ,Cn1 ,v127
 .byte   N01 ,Gn1 ,v116
 .byte   N12 ,Gs1 ,v080
 .byte   W06
 .byte   N01 ,Dn1 ,v072
 .byte   W06
 .byte   Gn1 ,v076
 .byte   W06
 .byte   Cn2 ,v116
 .byte   W01
 .byte   Cn2 ,v096
 .byte   W05
 .byte   N03 ,Cn1 ,v112
 .byte   N01 ,Gn1 ,v076
 .byte   N12 ,Gs1 ,v080
 .byte   W12
 .byte   N01 ,An1 ,v116
 .byte   W12
 .byte   N03 ,Cn1 ,v112
 .byte   N01 ,Gn1 ,v076
 .byte   N12 ,Gs1 ,v080
 .byte   W06
 .byte   N01 ,Dn1 ,v100
 .byte   W06
 .byte   Gn1 ,v116
 .byte   W06
 .byte   Dn1 ,v040
 .byte   W06
 .byte   N03 ,Cn1 ,v112
 .byte   N01 ,Gn1 ,v096
 .byte   N12 ,Gs1 ,v080
 .byte   W06
 .byte   N01 ,An1 ,v116
 .byte   W01
 .byte   An1 ,v096
 .byte   W05
 .byte   Gn1 ,v076
 .byte   W12
 .byte   PEND 
@  #13 @032   ----------------------------------------
Label_01025AC3:
 .byte   N03 ,Cn1 ,v127
 .byte   N01 ,Gn1 ,v116
 .byte   N12 ,Gs1 ,v080
 .byte   N24 ,Cn3 ,v120
 .byte   W06
 .byte   N01 ,Dn1 ,v072
 .byte   W06
 .byte   Gn1 ,v076
 .byte   W06
 .byte   Cn2 ,v116
 .byte   W01
 .byte   Cn2 ,v096
 .byte   W05
 .byte   N03 ,Cn1 ,v112
 .byte   N01 ,Gn1 ,v076
 .byte   N12 ,Gs1 ,v080
 .byte   W12
 .byte   N01 ,An1 ,v116
 .byte   W12
 .byte   N03 ,Cn1 ,v112
 .byte   N01 ,Gn1 ,v076
 .byte   N12 ,Gs1 ,v080
 .byte   W06
 .byte   N01 ,Dn1 ,v100
 .byte   W06
 .byte   Gn1 ,v116
 .byte   W06
 .byte   Dn1 ,v040
 .byte   W06
 .byte   N03 ,Cn1 ,v112
 .byte   N01 ,Gn1 ,v096
 .byte   N12 ,Gs1 ,v080
 .byte   W06
 .byte   N01 ,Cn2 ,v116
 .byte   W01
 .byte   Cn2 ,v096
 .byte   W05
 .byte   Gn1 ,v076
 .byte   W12
 .byte   PEND 
@  #13 @033   ----------------------------------------
 .byte   N03 ,Cn1 ,v127
 .byte   N01 ,Gn1 ,v116
 .byte   N12 ,Gs1 ,v080
 .byte   W06
 .byte   N01 ,Dn1 ,v072
 .byte   W06
 .byte   Gn1 ,v076
 .byte   W06
 .byte   Cn2 ,v116
 .byte   W01
 .byte   Cn2 ,v096
 .byte   W05
 .byte   N03 ,Cn1 ,v112
 .byte   N01 ,Gn1 ,v076
 .byte   N12 ,Gs1 ,v080
 .byte   W12
 .byte   N01 ,An1 ,v116
 .byte   W12
 .byte   N03 ,Cn1 ,v112
 .byte   N01 ,Gn1 ,v076
 .byte   N12 ,Gs1 ,v080
 .byte   W06
 .byte   N01 ,Dn1 ,v100
 .byte   W06
 .byte   Gn1 ,v116
 .byte   W06
 .byte   Dn1 ,v040
 .byte   W06
 .byte   N03 ,Cn1 ,v112
 .byte   N01 ,Gn1 ,v096
 .byte   N12 ,Gs1 ,v080
 .byte   W06
 .byte   N01 ,Cn2 ,v116
 .byte   W06
 .byte   An1
 .byte   W06
 .byte   Gn1
 .byte   W06
@  #13 @034   ----------------------------------------
 .byte   PATT
  .word Label_01025A27
@  #13 @035   ----------------------------------------
 .byte   PATT
  .word Label_01025A75
@  #13 @036   ----------------------------------------
 .byte   PATT
  .word Label_01025AC3
@  #13 @037   ----------------------------------------
 .byte   N03 ,Cn1 ,v127
 .byte   N01 ,Gn1 ,v116
 .byte   N12 ,Gs1 ,v080
 .byte   W06
 .byte   N01 ,Dn1 ,v100
 .byte   W06
 .byte   Gn1 ,v076
 .byte   W06
 .byte   N03 ,Cn1 ,v112
 .byte   W06
 .byte   N01 ,Dn1 ,v127
 .byte   N12 ,Gs1 ,v080
 .byte   N24 ,Cn3 ,v120
 .byte   W12
 .byte   N01 ,Gn1 ,v076
 .byte   W06
 .byte   An1 ,v116
 .byte   W06
 .byte   N03 ,Cn1 ,v112
 .byte   N01 ,Gn1 ,v076
 .byte   N12 ,Gs1 ,v080
 .byte   W06
 .byte   N01 ,Cn2 ,v116
 .byte   W06
 .byte   Dn1 ,v072
 .byte   W06
 .byte   Dn1 ,v100
 .byte   W06
 .byte   N03 ,Cn1 ,v112
 .byte   N01 ,Dn1 ,v100
 .byte   N12 ,Gs1 ,v080
 .byte   W06
 .byte   N01 ,Dn1 ,v127
 .byte   W06
 .byte   N01
 .byte   W06
 .byte   N01
 .byte   W06
@  #13 @038   ----------------------------------------
 .byte   N03 ,Cn1
 .byte   N12 ,Gs1 ,v080
 .byte   N12 ,Cn3 ,v120
 .byte   W12
 .byte   N03 ,Cn1 ,v127
 .byte   N12 ,Cn3 ,v120
 .byte   W06
 .byte   N01 ,Dn1 ,v040
 .byte   W03
 .byte   Dn1 ,v072
 .byte   W03
 .byte   Dn1 ,v100
 .byte   N12 ,Gs1 ,v080
 .byte   W06
 .byte   N01 ,Dn1 ,v127
 .byte   W06
 .byte   N03 ,Cn1
 .byte   N12 ,Cn3 ,v120
 .byte   W12
 .byte   N03 ,Cn1 ,v127
 .byte   N12 ,Gs1 ,v080
 .byte   N12 ,Cn3 ,v120
 .byte   W06
 .byte   N01 ,Dn1 ,v040
 .byte   W03
 .byte   Dn1 ,v072
 .byte   W03
 .byte   N01
 .byte   N01 ,Cn2 ,v116
 .byte   W06
 .byte   An1
 .byte   W06
 .byte   N03 ,Cn1 ,v127
 .byte   N12 ,Gs1 ,v080
 .byte   N12 ,Cn3 ,v120
 .byte   W12
 .byte   N03 ,Cn1 ,v127
 .byte   N12 ,Cn3 ,v120
 .byte   W03
 .byte   N01 ,Dn1 ,v040
 .byte   W03
 .byte   Dn1 ,v072
 .byte   W03
 .byte   N01
 .byte   W03
@  #13 @039   ----------------------------------------
 .byte   Dn1 ,v100
 .byte   N12 ,Gs1 ,v080
 .byte   W06
 .byte   N01 ,Dn1 ,v127
 .byte   W06
 .byte   Cn2 ,v116
 .byte   W06
 .byte   An1
 .byte   W06
 .byte   N03 ,Cn1 ,v127
 .byte   N12 ,Gs1 ,v080
 .byte   N24 ,Cn3 ,v120
 .byte   W12
 .byte   N01 ,An1 ,v116
 .byte   W04
 .byte   An1 ,v076
 .byte   W04
 .byte   Gn1 ,v116
 .byte   W04
 .byte   Dn1 ,v127
 .byte   N12 ,Gs1 ,v080
 .byte   W12
 .byte   N03 ,Cn1 ,v127
 .byte   N24 ,Cn3 ,v120
 .byte   W03
 .byte   N01 ,Dn1 ,v040
 .byte   W03
 .byte   Dn1 ,v072
 .byte   W03
 .byte   N01
 .byte   W03
 .byte   Dn1 ,v100
 .byte   N12 ,Gs1 ,v080
 .byte   W06
 .byte   N01 ,Dn1 ,v127
 .byte   W06
 .byte   Cn2 ,v116
 .byte   W12
@  #13 @040   ----------------------------------------
 .byte   N03 ,Cn1 ,v127
 .byte   N12 ,Gs1 ,v080
 .byte   N01 ,Cn3 ,v120
 .byte   W01
 .byte   N23
 .byte   W05
 .byte   N01 ,Dn1 ,v072
 .byte   W06
 .byte   Gn1 ,v076
 .byte   W06
 .byte   Cn2 ,v116
 .byte   W01
 .byte   Cn2 ,v096
 .byte   W05
 .byte   N03 ,Cn1 ,v112
 .byte   N01 ,Gn1 ,v076
 .byte   N12 ,Gs1 ,v080
 .byte   W12
 .byte   N01 ,An1 ,v116
 .byte   W12
 .byte   N03 ,Cn1 ,v112
 .byte   N01 ,Gn1 ,v076
 .byte   N12 ,Gs1 ,v080
 .byte   W06
 .byte   N01 ,Dn1 ,v100
 .byte   W06
 .byte   Gn1 ,v116
 .byte   W06
 .byte   Dn1 ,v040
 .byte   W03
 .byte   N01
 .byte   W03
 .byte   N03 ,Cn1 ,v112
 .byte   N01 ,Gn1 ,v096
 .byte   N12 ,Gs1 ,v080
 .byte   W06
 .byte   N01 ,Cn2 ,v116
 .byte   W01
 .byte   Cn2 ,v096
 .byte   W05
 .byte   Gn1 ,v076
 .byte   W03
 .byte   Dn1 ,v040
 .byte   W03
 .byte   Dn1 ,v072
 .byte   W03
 .byte   N01
 .byte   W03
@  #13 @041   ----------------------------------------
 .byte   N03 ,Cn1 ,v127
 .byte   N01 ,Gn1 ,v116
 .byte   N12 ,Gs1 ,v080
 .byte   W06
 .byte   N01 ,Dn1 ,v072
 .byte   W06
 .byte   Gn1 ,v076
 .byte   W06
 .byte   Cn2 ,v116
 .byte   W01
 .byte   Cn2 ,v096
 .byte   W05
 .byte   N03 ,Cn1 ,v112
 .byte   N01 ,Gn1 ,v076
 .byte   N12 ,Gs1 ,v080
 .byte   W12
 .byte   N01 ,An1 ,v116
 .byte   W12
 .byte   N03 ,Cn1 ,v112
 .byte   N01 ,Gn1 ,v076
 .byte   N12 ,Gs1 ,v080
 .byte   W06
 .byte   N01 ,Dn1 ,v100
 .byte   W06
 .byte   Gn1 ,v116
 .byte   W06
 .byte   Dn1 ,v040
 .byte   W03
 .byte   N01
 .byte   W03
 .byte   N03 ,Cn1 ,v112
 .byte   N01 ,Gn1 ,v096
 .byte   N12 ,Gs1 ,v080
 .byte   W06
 .byte   N01 ,Cn2 ,v096
 .byte   W06
 .byte   Gn1 ,v076
 .byte   W03
 .byte   Dn1 ,v040
 .byte   W03
 .byte   Dn1 ,v072
 .byte   W03
 .byte   N01
 .byte   W03
@  #13 @042   ----------------------------------------
 .byte   N03 ,Cn1 ,v127
 .byte   N01 ,Gn1 ,v116
 .byte   N12 ,Gs1 ,v080
 .byte   W06
 .byte   N01 ,Dn1 ,v072
 .byte   W06
 .byte   Gn1 ,v076
 .byte   W06
 .byte   Cn2 ,v116
 .byte   W01
 .byte   Cn2 ,v096
 .byte   W05
 .byte   N03 ,Cn1 ,v112
 .byte   N01 ,Gn1 ,v076
 .byte   N12 ,Gs1 ,v080
 .byte   W12
 .byte   N01 ,An1 ,v116
 .byte   W12
 .byte   N03 ,Cn1 ,v112
 .byte   N01 ,Gn1 ,v076
 .byte   N12 ,Gs1 ,v080
 .byte   W06
 .byte   N01 ,Dn1 ,v100
 .byte   W06
 .byte   Gn1 ,v116
 .byte   W06
 .byte   Dn1 ,v040
 .byte   W03
 .byte   N01
 .byte   W03
 .byte   N03 ,Cn1 ,v112
 .byte   N01 ,Gn1 ,v096
 .byte   N12 ,Gs1 ,v080
 .byte   W06
 .byte   N01 ,Cn2 ,v116
 .byte   W01
 .byte   Cn2 ,v096
 .byte   W05
 .byte   Gn1 ,v076
 .byte   W03
 .byte   Dn1 ,v040
 .byte   W03
 .byte   Dn1 ,v072
 .byte   W03
 .byte   N01
 .byte   W03
@  #13 @043   ----------------------------------------
 .byte   PATT
  .word Label_010255D6
@  #13 @044   ----------------------------------------
 .byte   GOTO
  .word Label_0102562A
 .byte   FINE

@**************** Track 14 (Midi-Chn.13) ****************@

song06_014:
@  #14 @000   ----------------------------------------
 .byte   KEYSH , song06_key+0
 .byte   VOICE , 73
 .byte   VOL , 26*song06_mvl/mxv
 .byte   PAN , c_v+0
 .byte   W96
@  #14 @001   ----------------------------------------
 .byte   W96
@  #14 @002   ----------------------------------------
 .byte   W96
@  #14 @003   ----------------------------------------
 .byte   W96
@  #14 @004   ----------------------------------------
 .byte   W96
@  #14 @005   ----------------------------------------
 .byte   W96
@  #14 @006   ----------------------------------------
Label_01024DBE:
 .byte   W96
@  #14 @007   ----------------------------------------
 .byte   W96
@  #14 @008   ----------------------------------------
 .byte   W96
@  #14 @009   ----------------------------------------
 .byte   W96
@  #14 @010   ----------------------------------------
 .byte   W96
@  #14 @011   ----------------------------------------
 .byte   W96
@  #14 @012   ----------------------------------------
 .byte   W96
@  #14 @013   ----------------------------------------
 .byte   W96
@  #14 @014   ----------------------------------------
 .byte   W96
@  #14 @015   ----------------------------------------
 .byte   W96
@  #14 @016   ----------------------------------------
 .byte   W96
@  #14 @017   ----------------------------------------
 .byte   W96
@  #14 @018   ----------------------------------------
 .byte   W96
@  #14 @019   ----------------------------------------
 .byte   W96
@  #14 @020   ----------------------------------------
 .byte   W96
@  #14 @021   ----------------------------------------
 .byte   W96
@  #14 @022   ----------------------------------------
 .byte   W96
@  #14 @023   ----------------------------------------
 .byte   W96
@  #14 @024   ----------------------------------------
 .byte   W96
@  #14 @025   ----------------------------------------
 .byte   W96
@  #14 @026   ----------------------------------------
 .byte   W96
@  #14 @027   ----------------------------------------
 .byte   W96
@  #14 @028   ----------------------------------------
 .byte   W96
@  #14 @029   ----------------------------------------
 .byte   W96
@  #14 @030   ----------------------------------------
Label_01024DD6:
 .byte   W12
 .byte   N05 ,En5 ,v100
 .byte   W12
 .byte   An4
 .byte   W12
 .byte   Fn4
 .byte   W12
 .byte   Dn5
 .byte   W12
 .byte   Gn4
 .byte   W12
 .byte   Dn4
 .byte   W12
 .byte   Cn5
 .byte   W12
 .byte   PEND 
@  #14 @031   ----------------------------------------
Label_01024DE8:
 .byte   N05 ,Gn4 ,v100
 .byte   W12
 .byte   Cn4
 .byte   W12
 .byte   As4
 .byte   W12
 .byte   Fn4
 .byte   W12
 .byte   As3
 .byte   W12
 .byte   An4
 .byte   W12
 .byte   En4
 .byte   W12
 .byte   An3
 .byte   W12
 .byte   PEND 
@  #14 @032   ----------------------------------------
Label_01024DFB:
 .byte   W12
 .byte   N05 ,En5 ,v100
 .byte   W12
 .byte   An4
 .byte   W12
 .byte   Fn4
 .byte   W12
 .byte   Dn5
 .byte   W12
 .byte   Gn4
 .byte   W12
 .byte   En4
 .byte   W12
 .byte   Fn5
 .byte   W12
 .byte   PEND 
@  #14 @033   ----------------------------------------
Label_01024E0D:
 .byte   N05 ,As4 ,v100
 .byte   W12
 .byte   Gn4
 .byte   W12
 .byte   Gn5
 .byte   W12
 .byte   Cn5
 .byte   W12
 .byte   As4
 .byte   W12
 .byte   An5
 .byte   W12
 .byte   Dn5
 .byte   W12
 .byte   An4
 .byte   W12
 .byte   PEND 
@  #14 @034   ----------------------------------------
 .byte   PATT
  .word Label_01024DD6
@  #14 @035   ----------------------------------------
 .byte   PATT
  .word Label_01024DE8
@  #14 @036   ----------------------------------------
 .byte   PATT
  .word Label_01024DFB
@  #14 @037   ----------------------------------------
 .byte   PATT
  .word Label_01024E0D
@  #14 @038   ----------------------------------------
 .byte   N05 ,An4 ,v100
 .byte   N05 ,Dn5
 .byte   W12
 .byte   An4
 .byte   N05 ,Dn5
 .byte   W24
 .byte   As4
 .byte   N05 ,Ds5
 .byte   W12
 .byte   As4
 .byte   N05 ,Ds5
 .byte   W24
 .byte   Gn4
 .byte   N05 ,Cn5
 .byte   W12
 .byte   Gn4
 .byte   N05 ,Cn5
 .byte   W12
@  #14 @039   ----------------------------------------
 .byte   W12
 .byte   Gs4
 .byte   N05 ,Cs5
 .byte   W12
 .byte   Gs4
 .byte   N05 ,Cs5
 .byte   W24
 .byte   Gs4
 .byte   N05 ,Cs5
 .byte   W12
 .byte   Gs4
 .byte   N05 ,Cs5
 .byte   W24
 .byte   Gs4
 .byte   N05 ,Cs5
 .byte   W12
@  #14 @040   ----------------------------------------
 .byte   W96
@  #14 @041   ----------------------------------------
 .byte   W96
@  #14 @042   ----------------------------------------
 .byte   W96
@  #14 @043   ----------------------------------------
 .byte   W96
@  #14 @044   ----------------------------------------
 .byte   GOTO
  .word Label_01024DBE
 .byte   FINE

@**************** Track 15 (Midi-Chn.14) ****************@

song06_015:
@  #15 @000   ----------------------------------------
 .byte   KEYSH , song06_key+0
 .byte   VOICE , 75
 .byte   VOL , 49*song06_mvl/mxv
 .byte   PAN , c_v+6
 .byte   W96
@  #15 @001   ----------------------------------------
 .byte   N44 ,Cn2 ,v108
 .byte   W48
 .byte   N11 ,Dn2
 .byte   W12
 .byte   N32
 .byte   W36
@  #15 @002   ----------------------------------------
 .byte   N68 ,Gn1
 .byte   W96
@  #15 @003   ----------------------------------------
 .byte   W96
@  #15 @004   ----------------------------------------
 .byte   W96
@  #15 @005   ----------------------------------------
 .byte   W96
@  #15 @006   ----------------------------------------
Label_01024E88:
 .byte   W96
@  #15 @007   ----------------------------------------
 .byte   W96
@  #15 @008   ----------------------------------------
 .byte   W96
@  #15 @009   ----------------------------------------
 .byte   W96
@  #15 @010   ----------------------------------------
 .byte   W96
@  #15 @011   ----------------------------------------
 .byte   W96
@  #15 @012   ----------------------------------------
 .byte   W96
@  #15 @013   ----------------------------------------
 .byte   W96
@  #15 @014   ----------------------------------------
 .byte   W96
@  #15 @015   ----------------------------------------
 .byte   W96
@  #15 @016   ----------------------------------------
 .byte   W96
@  #15 @017   ----------------------------------------
 .byte   W96
@  #15 @018   ----------------------------------------
 .byte   W96
@  #15 @019   ----------------------------------------
 .byte   W96
@  #15 @020   ----------------------------------------
 .byte   W96
@  #15 @021   ----------------------------------------
 .byte   W96
@  #15 @022   ----------------------------------------
 .byte   W96
@  #15 @023   ----------------------------------------
 .byte   W96
@  #15 @024   ----------------------------------------
 .byte   W96
@  #15 @025   ----------------------------------------
 .byte   W96
@  #15 @026   ----------------------------------------
 .byte   W96
@  #15 @027   ----------------------------------------
 .byte   W96
@  #15 @028   ----------------------------------------
 .byte   W96
@  #15 @029   ----------------------------------------
 .byte   W96
@  #15 @030   ----------------------------------------
 .byte   W96
@  #15 @031   ----------------------------------------
 .byte   W96
@  #15 @032   ----------------------------------------
 .byte   W96
@  #15 @033   ----------------------------------------
 .byte   W96
@  #15 @034   ----------------------------------------
 .byte   W96
@  #15 @035   ----------------------------------------
 .byte   W96
@  #15 @036   ----------------------------------------
 .byte   W96
@  #15 @037   ----------------------------------------
 .byte   W96
@  #15 @038   ----------------------------------------
 .byte   W96
@  #15 @039   ----------------------------------------
 .byte   W96
@  #15 @040   ----------------------------------------
 .byte   W96
@  #15 @041   ----------------------------------------
 .byte   W96
@  #15 @042   ----------------------------------------
 .byte   W96
@  #15 @043   ----------------------------------------
 .byte   W96
@  #15 @044   ----------------------------------------
 .byte   GOTO
  .word Label_01024E88
 .byte   FINE

@******************************************************@
	.align	2

song06:
	.byte	15	@ NumTrks
	.byte	0	@ NumBlks
	.byte	song06_pri	@ Priority
	.byte	song06_rev	@ Reverb.
    
	.word	song06_grp
    
	.word	song06_001
	.word	song06_002
	.word	song06_003
	.word	song06_004
	.word	song06_005
	.word	song06_006
	.word	song06_007
	.word	song06_008
	.word	song06_009
	.word	song06_010
	.word	song06_011
	.word	song06_012
	.word	song06_013
	.word	song06_014
	.word	song06_015

	.end
