	.include "MPlayDef.s"

	.equ	song02_grp, voicegroup000
	.equ	song02_pri, 0
	.equ	song02_rev, 0
	.equ	song02_mvl, 127
	.equ	song02_key, 0
	.equ	song02_tbs, 1
	.equ	song02_exg, 0
	.equ	song02_cmp, 1

	.section .rodata
	.global	song02
	.align	2


@**************** Track 1 (Midi-Chn.0) ****************@

song02_001:
@  #01 @000   ----------------------------------------
 .byte   KEYSH , song02_key+0
 .byte   TEMPO , 106*song02_tbs/2
Label_010005D4:
 .byte   VOICE , 1
 .byte   VOL , 53*song02_mvl/mxv
 .byte   BENDR, 12
 .byte   N23 ,En3 ,v059
 .byte   W24
 .byte   N17 ,Gn3
 .byte   W18
 .byte   An3
 .byte   W18
 .byte   N11 ,Dn3
 .byte   W12
 .byte   Dn3
 .byte   W12
 .byte   Ds3
 .byte   W12
@  #01 @001   ----------------------------------------
Label_010005EA:
 .byte   N23 ,En3 ,v059
 .byte   W24
 .byte   N17 ,Gn3
 .byte   W18
 .byte   As3
 .byte   W18
 .byte   N11 ,An3
 .byte   W12
 .byte   Gn3
 .byte   W12
 .byte   Ds3
 .byte   W12
 .byte   PEND 
@  #01 @002   ----------------------------------------
Label_010005FB:
 .byte   N23 ,En3 ,v059
 .byte   W24
 .byte   N17 ,Gn3
 .byte   W18
 .byte   An3
 .byte   W18
 .byte   N11 ,Dn3
 .byte   W12
 .byte   Dn3
 .byte   W12
 .byte   Ds3
 .byte   W12
 .byte   PEND 
@  #01 @003   ----------------------------------------
 .byte   PATT
  .word Label_010005EA
@  #01 @004   ----------------------------------------
 .byte   PATT
  .word Label_010005FB
@  #01 @005   ----------------------------------------
 .byte   PATT
  .word Label_010005EA
@  #01 @006   ----------------------------------------
 .byte   PATT
  .word Label_010005FB
@  #01 @007   ----------------------------------------
 .byte   PATT
  .word Label_010005EA
@  #01 @008   ----------------------------------------
 .byte   PATT
  .word Label_010005FB
@  #01 @009   ----------------------------------------
 .byte   PATT
  .word Label_010005EA
@  #01 @010   ----------------------------------------
 .byte   PATT
  .word Label_010005FB
@  #01 @011   ----------------------------------------
 .byte   PATT
  .word Label_010005EA
@  #01 @012   ----------------------------------------
 .byte   PATT
  .word Label_010005FB
@  #01 @013   ----------------------------------------
 .byte   PATT
  .word Label_010005EA
@  #01 @014   ----------------------------------------
 .byte   PATT
  .word Label_010005FB
@  #01 @015   ----------------------------------------
Label_01000648:
 .byte   N23 ,En3 ,v059
 .byte   W24
 .byte   N17 ,Gn3
 .byte   W18
 .byte   As3
 .byte   W18
 .byte   As3
 .byte   W18
 .byte   As3
 .byte   W18
 .byte   PEND 
@  #01 @016   ----------------------------------------
 .byte   PATT
  .word Label_010005FB
@  #01 @017   ----------------------------------------
 .byte   PATT
  .word Label_010005EA
@  #01 @018   ----------------------------------------
 .byte   PATT
  .word Label_010005FB
@  #01 @019   ----------------------------------------
Label_01000665:
 .byte   N23 ,En3 ,v059
 .byte   W24
 .byte   N17 ,Gn3
 .byte   W18
 .byte   As3
 .byte   W18
 .byte   N11 ,Cn4
 .byte   W12
 .byte   Dn4
 .byte   W12
 .byte   En4
 .byte   W12
 .byte   PEND 
@  #01 @020   ----------------------------------------
 .byte   PATT
  .word Label_010005FB
@  #01 @021   ----------------------------------------
 .byte   PATT
  .word Label_010005EA
@  #01 @022   ----------------------------------------
 .byte   PATT
  .word Label_010005FB
@  #01 @023   ----------------------------------------
 .byte   PATT
  .word Label_01000648
@  #01 @024   ----------------------------------------
 .byte   PATT
  .word Label_010005FB
@  #01 @025   ----------------------------------------
 .byte   PATT
  .word Label_010005EA
@  #01 @026   ----------------------------------------
 .byte   PATT
  .word Label_010005FB
@  #01 @027   ----------------------------------------
 .byte   PATT
  .word Label_01000665
@  #01 @028   ----------------------------------------
 .byte   W96
@  #01 @029   ----------------------------------------
 .byte   W96
@  #01 @030   ----------------------------------------
 .byte   W96
@  #01 @031   ----------------------------------------
 .byte   W96
@  #01 @032   ----------------------------------------
 .byte   W96
@  #01 @033   ----------------------------------------
 .byte   W96
@  #01 @034   ----------------------------------------
 .byte   W96
@  #01 @035   ----------------------------------------
 .byte   W96
@  #01 @036   ----------------------------------------
 .byte   W96
@  #01 @037   ----------------------------------------
 .byte   W96
@  #01 @038   ----------------------------------------
 .byte   W96
@  #01 @039   ----------------------------------------
 .byte   W96
@  #01 @040   ----------------------------------------
 .byte   W96
@  #01 @041   ----------------------------------------
 .byte   W96
@  #01 @042   ----------------------------------------
 .byte   W96
@  #01 @043   ----------------------------------------
 .byte   W96
@  #01 @044   ----------------------------------------
 .byte   W96
@  #01 @045   ----------------------------------------
 .byte   W96
@  #01 @046   ----------------------------------------
 .byte   W96
@  #01 @047   ----------------------------------------
 .byte   W96
@  #01 @048   ----------------------------------------
 .byte   W96
@  #01 @049   ----------------------------------------
 .byte   W96
@  #01 @050   ----------------------------------------
 .byte   W96
@  #01 @051   ----------------------------------------
 .byte   W96
@  #01 @052   ----------------------------------------
 .byte   W96
@  #01 @053   ----------------------------------------
 .byte   W96
@  #01 @054   ----------------------------------------
 .byte   W96
@  #01 @055   ----------------------------------------
 .byte   W96
@  #01 @056   ----------------------------------------
 .byte   W96
@  #01 @057   ----------------------------------------
 .byte   W96
@  #01 @058   ----------------------------------------
 .byte   W96
@  #01 @059   ----------------------------------------
 .byte   W96
@  #01 @060   ----------------------------------------
 .byte   W96
@  #01 @061   ----------------------------------------
 .byte   W96
@  #01 @062   ----------------------------------------
 .byte   W96
@  #01 @063   ----------------------------------------
 .byte   W96
@  #01 @064   ----------------------------------------
 .byte   PATT
  .word Label_010005FB
@  #01 @065   ----------------------------------------
 .byte   PATT
  .word Label_010005EA
@  #01 @066   ----------------------------------------
 .byte   PATT
  .word Label_010005FB
@  #01 @067   ----------------------------------------
 .byte   PATT
  .word Label_01000648
@  #01 @068   ----------------------------------------
 .byte   PATT
  .word Label_010005FB
@  #01 @069   ----------------------------------------
 .byte   PATT
  .word Label_010005EA
@  #01 @070   ----------------------------------------
 .byte   PATT
  .word Label_010005FB
@  #01 @071   ----------------------------------------
 .byte   PATT
  .word Label_01000665
@  #01 @072   ----------------------------------------
 .byte   PATT
  .word Label_010005FB
@  #01 @073   ----------------------------------------
 .byte   PATT
  .word Label_010005EA
@  #01 @074   ----------------------------------------
 .byte   PATT
  .word Label_010005FB
@  #01 @075   ----------------------------------------
 .byte   PATT
  .word Label_01000648
@  #01 @076   ----------------------------------------
 .byte   PATT
  .word Label_010005FB
@  #01 @077   ----------------------------------------
 .byte   PATT
  .word Label_010005EA
@  #01 @078   ----------------------------------------
 .byte   PATT
  .word Label_010005FB
@  #01 @079   ----------------------------------------
 .byte   PATT
  .word Label_01000665
@  #01 @080   ----------------------------------------
 .byte   GOTO
  .word Label_010005D4
 .byte   FINE

@**************** Track 2 (Midi-Chn.1) ****************@

song02_002:
@  #02 @000   ----------------------------------------
 .byte   KEYSH , song02_key+0
Label_01025B92:
 .byte   VOICE , 59
 .byte   PAN , c_v-28
 .byte   VOL , 82*song02_mvl/mxv
 .byte   BENDR, 12
 .byte   W96
@  #02 @001   ----------------------------------------
 .byte   W96
@  #02 @002   ----------------------------------------
 .byte   W96
@  #02 @003   ----------------------------------------
 .byte   W96
@  #02 @004   ----------------------------------------
 .byte   W96
@  #02 @005   ----------------------------------------
 .byte   W96
@  #02 @006   ----------------------------------------
 .byte   W96
@  #02 @007   ----------------------------------------
 .byte   W96
@  #02 @008   ----------------------------------------
 .byte   W96
@  #02 @009   ----------------------------------------
 .byte   W96
@  #02 @010   ----------------------------------------
 .byte   W96
@  #02 @011   ----------------------------------------
 .byte   W96
@  #02 @012   ----------------------------------------
 .byte   W96
@  #02 @013   ----------------------------------------
 .byte   W96
@  #02 @014   ----------------------------------------
 .byte   W96
@  #02 @015   ----------------------------------------
 .byte   W96
@  #02 @016   ----------------------------------------
 .byte   W96
@  #02 @017   ----------------------------------------
 .byte   W96
@  #02 @018   ----------------------------------------
 .byte   W96
@  #02 @019   ----------------------------------------
 .byte   W96
@  #02 @020   ----------------------------------------
 .byte   W96
@  #02 @021   ----------------------------------------
 .byte   W96
@  #02 @022   ----------------------------------------
 .byte   W96
@  #02 @023   ----------------------------------------
 .byte   W96
@  #02 @024   ----------------------------------------
 .byte   W96
@  #02 @025   ----------------------------------------
 .byte   W96
@  #02 @026   ----------------------------------------
 .byte   W96
@  #02 @027   ----------------------------------------
 .byte   W96
@  #02 @028   ----------------------------------------
 .byte   W96
@  #02 @029   ----------------------------------------
 .byte   W96
@  #02 @030   ----------------------------------------
 .byte   W96
@  #02 @031   ----------------------------------------
 .byte   W96
@  #02 @032   ----------------------------------------
 .byte   W96
@  #02 @033   ----------------------------------------
 .byte   W96
@  #02 @034   ----------------------------------------
 .byte   W96
@  #02 @035   ----------------------------------------
 .byte   W96
@  #02 @036   ----------------------------------------
 .byte   W96
@  #02 @037   ----------------------------------------
 .byte   W96
@  #02 @038   ----------------------------------------
 .byte   W96
@  #02 @039   ----------------------------------------
 .byte   W96
@  #02 @040   ----------------------------------------
 .byte   W96
@  #02 @041   ----------------------------------------
 .byte   W96
@  #02 @042   ----------------------------------------
 .byte   W96
@  #02 @043   ----------------------------------------
 .byte   W96
@  #02 @044   ----------------------------------------
 .byte   W96
@  #02 @045   ----------------------------------------
 .byte   W96
@  #02 @046   ----------------------------------------
 .byte   W96
@  #02 @047   ----------------------------------------
 .byte   W96
@  #02 @048   ----------------------------------------
Label_01025BCA:
 .byte   W72
 .byte   N23 ,Cn3 ,v059
 .byte   W24
 .byte   PEND 
@  #02 @049   ----------------------------------------
 .byte   PATT
  .word Label_01025BCA
@  #02 @050   ----------------------------------------
 .byte   N44 ,Dn3 ,v059 ,gtp3
 .byte   W72
 .byte   N23 ,Fn3
 .byte   W24
@  #02 @051   ----------------------------------------
 .byte   N44 ,An3 ,v059 ,gtp3
 .byte   W60
 .byte   N11 ,Dn3
 .byte   W12
 .byte   En3
 .byte   W12
 .byte   Gn3
 .byte   W12
@  #02 @052   ----------------------------------------
Label_01025BE9:
 .byte   N05 ,Fn3 ,v059
 .byte   W06
 .byte   N11 ,Gn3
 .byte   W12
 .byte   N05 ,Fn3
 .byte   W06
 .byte   N11 ,Gn3
 .byte   W12
 .byte   N05 ,Fn3
 .byte   W06
 .byte   N11 ,En3
 .byte   W12
 .byte   N05 ,Dn3
 .byte   W06
 .byte   N11 ,Cn3
 .byte   W12
 .byte   N05 ,Dn3
 .byte   W06
 .byte   En3
 .byte   W06
 .byte   Cn3
 .byte   W06
 .byte   N44 ,Dn3 ,v059 ,gtp3
 .byte   W06
 .byte   PEND 
@  #02 @053   ----------------------------------------
Label_01025C0F:
 .byte   W60
 .byte   N11 ,Dn3 ,v059
 .byte   W12
 .byte   Cn3
 .byte   W12
 .byte   N23 ,Dn3
 .byte   W12
 .byte   PEND 
@  #02 @054   ----------------------------------------
Label_01025C1A:
 .byte   W24
 .byte   N11 ,Fn3 ,v059
 .byte   W18
 .byte   Dn3
 .byte   W18
 .byte   Dn3
 .byte   W12
 .byte   Cn3
 .byte   W12
 .byte   Dn3
 .byte   W12
 .byte   PEND 
@  #02 @055   ----------------------------------------
Label_01025C28:
 .byte   W24
 .byte   N11 ,Fn3 ,v059
 .byte   W18
 .byte   Dn3
 .byte   W54
 .byte   PEND 
@  #02 @056   ----------------------------------------
 .byte   PATT
  .word Label_01025BE9
@  #02 @057   ----------------------------------------
 .byte   PATT
  .word Label_01025C0F
@  #02 @058   ----------------------------------------
 .byte   PATT
  .word Label_01025C1A
@  #02 @059   ----------------------------------------
 .byte   PATT
  .word Label_01025C28
@  #02 @060   ----------------------------------------
 .byte   W96
@  #02 @061   ----------------------------------------
 .byte   W96
@  #02 @062   ----------------------------------------
 .byte   W96
@  #02 @063   ----------------------------------------
 .byte   W96
@  #02 @064   ----------------------------------------
 .byte   W96
@  #02 @065   ----------------------------------------
 .byte   W96
@  #02 @066   ----------------------------------------
 .byte   W96
@  #02 @067   ----------------------------------------
 .byte   W96
@  #02 @068   ----------------------------------------
 .byte   W96
@  #02 @069   ----------------------------------------
 .byte   W96
@  #02 @070   ----------------------------------------
 .byte   W96
@  #02 @071   ----------------------------------------
 .byte   W96
@  #02 @072   ----------------------------------------
 .byte   W96
@  #02 @073   ----------------------------------------
 .byte   W96
@  #02 @074   ----------------------------------------
 .byte   W96
@  #02 @075   ----------------------------------------
 .byte   W96
@  #02 @076   ----------------------------------------
 .byte   W96
@  #02 @077   ----------------------------------------
 .byte   W96
@  #02 @078   ----------------------------------------
 .byte   W96
@  #02 @079   ----------------------------------------
 .byte   W96
@  #02 @080   ----------------------------------------
 .byte   GOTO
  .word Label_01025B92
 .byte   FINE

@**************** Track 3 (Midi-Chn.2) ****************@

song02_003:
@  #03 @000   ----------------------------------------
 .byte   KEYSH , song02_key+0
Label_01003F1E:
 .byte   VOICE , 124
 .byte   VOL , 68*song02_mvl/mxv
 .byte   BENDR, 12
 .byte   N42 ,Cn1 ,v059
 .byte   W24
 .byte   N12 ,Cs1
 .byte   W18
 .byte   Cn1
 .byte   W18
 .byte   Cn1
 .byte   W12
 .byte   Cs1
 .byte   W12
 .byte   Cn1
 .byte   W12
@  #03 @001   ----------------------------------------
Label_01003F33:
 .byte   N01 ,Cn1 ,v059
 .byte   W24
 .byte   N12 ,Cs1
 .byte   W18
 .byte   Cn1
 .byte   W12
 .byte   Cs1
 .byte   W06
 .byte   Cn1
 .byte   W12
 .byte   Cs1
 .byte   W12
 .byte   Cn1
 .byte   W12
 .byte   PEND 
@  #03 @002   ----------------------------------------
Label_01003F45:
 .byte   N01 ,Cn1 ,v059
 .byte   W24
 .byte   N12 ,Cs1
 .byte   W18
 .byte   Cn1
 .byte   W18
 .byte   Cn1
 .byte   W12
 .byte   Cs1
 .byte   W12
 .byte   Cn1
 .byte   W12
 .byte   PEND 
@  #03 @003   ----------------------------------------
 .byte   N01
 .byte   W24
 .byte   N12 ,Cs1
 .byte   W18
 .byte   Cn1
 .byte   W06
 .byte   Cs1
 .byte   W06
 .byte   N01 ,Cn1
 .byte   W06
 .byte   N18 ,Dn1
 .byte   W06
 .byte   N01 ,Cn1
 .byte   W06
 .byte   N06 ,Cs1
 .byte   W06
 .byte   N12 ,Dn1
 .byte   N06 ,Cs1
 .byte   W06
 .byte   N12 ,Cn1
 .byte   W06
 .byte   N01 ,Cs1
 .byte   N01 ,Dn1
 .byte   W06
@  #03 @004   ----------------------------------------
 .byte   N24 ,Fs1
 .byte   N01 ,Cn1
 .byte   W24
 .byte   N12 ,Fs1
 .byte   N12 ,Dn1
 .byte   W18
 .byte   Cn1
 .byte   W12
 .byte   Fs1
 .byte   W06
 .byte   Cn1
 .byte   W12
 .byte   Fs1
 .byte   N12 ,Dn1
 .byte   W12
 .byte   Cn1
 .byte   N01 ,Fs1
 .byte   W12
@  #03 @005   ----------------------------------------
Label_01003F8F:
 .byte   N01 ,Cn1 ,v059
 .byte   N01 ,Fs1
 .byte   W24
 .byte   N12
 .byte   N12 ,Dn1
 .byte   W18
 .byte   Cn1
 .byte   W12
 .byte   Dn1
 .byte   W06
 .byte   Cn1
 .byte   N12 ,Fs1
 .byte   W12
 .byte   N01
 .byte   N12 ,Dn1
 .byte   W12
 .byte   Cn1
 .byte   N01 ,Dn1
 .byte   W06
 .byte   N06 ,Fs1
 .byte   N06 ,Dn1
 .byte   W06
 .byte   PEND 
@  #03 @006   ----------------------------------------
Label_01003FAF:
 .byte   N01 ,Cn1 ,v059
 .byte   N06 ,Fs1
 .byte   W24
 .byte   N12
 .byte   N12 ,Dn1
 .byte   W18
 .byte   Cn1
 .byte   W12
 .byte   Fs1
 .byte   W06
 .byte   Cn1
 .byte   W12
 .byte   Fs1
 .byte   N12 ,Dn1
 .byte   W12
 .byte   Cn1
 .byte   N01 ,Fs1
 .byte   W12
 .byte   PEND 
@  #03 @007   ----------------------------------------
 .byte   PATT
  .word Label_01003F8F
@  #03 @008   ----------------------------------------
 .byte   PATT
  .word Label_01003FAF
@  #03 @009   ----------------------------------------
 .byte   PATT
  .word Label_01003F8F
@  #03 @010   ----------------------------------------
 .byte   PATT
  .word Label_01003FAF
@  #03 @011   ----------------------------------------
Label_01003FDC:
 .byte   N01 ,Cn1 ,v059
 .byte   N01 ,Fs1
 .byte   W24
 .byte   N12
 .byte   N12 ,Dn1
 .byte   W18
 .byte   Cn1
 .byte   W12
 .byte   Dn1
 .byte   W06
 .byte   Cn1
 .byte   N12 ,Fs1
 .byte   W12
 .byte   N01
 .byte   N12 ,Dn1
 .byte   W12
 .byte   Cn1
 .byte   N01 ,Dn1
 .byte   W06
 .byte   N12 ,Fs1
 .byte   N06 ,Dn1
 .byte   W06
 .byte   PEND 
@  #03 @012   ----------------------------------------
 .byte   PATT
  .word Label_01003F45
@  #03 @013   ----------------------------------------
 .byte   PATT
  .word Label_01003F33
@  #03 @014   ----------------------------------------
 .byte   PATT
  .word Label_01003F45
@  #03 @015   ----------------------------------------
 .byte   PATT
  .word Label_01003F33
@  #03 @016   ----------------------------------------
 .byte   PATT
  .word Label_01003F45
@  #03 @017   ----------------------------------------
 .byte   PATT
  .word Label_01003F33
@  #03 @018   ----------------------------------------
 .byte   PATT
  .word Label_01003F45
@  #03 @019   ----------------------------------------
 .byte   N01 ,Cn1 ,v059
 .byte   W24
 .byte   N12 ,Cs1
 .byte   W18
 .byte   Cn1
 .byte   W06
 .byte   Cs1
 .byte   W06
 .byte   N01 ,Cn1
 .byte   W06
 .byte   N12 ,Dn1
 .byte   W06
 .byte   N01 ,Cn1
 .byte   W06
 .byte   N06 ,Cs1
 .byte   W06
 .byte   N12 ,Dn1
 .byte   N06 ,Cs1
 .byte   W06
 .byte   N12 ,Cn1
 .byte   W06
 .byte   N01 ,Cs1
 .byte   N01 ,Dn1
 .byte   W06
@  #03 @020   ----------------------------------------
Label_01004043:
 .byte   N01 ,Cn1 ,v059
 .byte   N12 ,Fs1
 .byte   W24
 .byte   Fs1
 .byte   N12 ,Dn1
 .byte   W18
 .byte   Cn1
 .byte   W12
 .byte   Fs1
 .byte   W06
 .byte   Cn1
 .byte   W12
 .byte   Fs1
 .byte   N12 ,Dn1
 .byte   W12
 .byte   Cn1
 .byte   N01 ,Fs1
 .byte   W12
 .byte   PEND 
@  #03 @021   ----------------------------------------
 .byte   PATT
  .word Label_01003F8F
@  #03 @022   ----------------------------------------
 .byte   PATT
  .word Label_01003FAF
@  #03 @023   ----------------------------------------
 .byte   PATT
  .word Label_01003F8F
@  #03 @024   ----------------------------------------
 .byte   PATT
  .word Label_01003FAF
@  #03 @025   ----------------------------------------
 .byte   PATT
  .word Label_01003F8F
@  #03 @026   ----------------------------------------
 .byte   PATT
  .word Label_01003FAF
@  #03 @027   ----------------------------------------
 .byte   PATT
  .word Label_01003F8F
@  #03 @028   ----------------------------------------
 .byte   PATT
  .word Label_01003FAF
@  #03 @029   ----------------------------------------
 .byte   PATT
  .word Label_01003F8F
@  #03 @030   ----------------------------------------
 .byte   PATT
  .word Label_01003FAF
@  #03 @031   ----------------------------------------
 .byte   PATT
  .word Label_01003F8F
@  #03 @032   ----------------------------------------
 .byte   PATT
  .word Label_01003FAF
@  #03 @033   ----------------------------------------
 .byte   PATT
  .word Label_01003F8F
@  #03 @034   ----------------------------------------
 .byte   PATT
  .word Label_01003FAF
@  #03 @035   ----------------------------------------
 .byte   PATT
  .word Label_01003F8F
@  #03 @036   ----------------------------------------
 .byte   PATT
  .word Label_01003FAF
@  #03 @037   ----------------------------------------
 .byte   PATT
  .word Label_01003F8F
@  #03 @038   ----------------------------------------
 .byte   PATT
  .word Label_01003FAF
@  #03 @039   ----------------------------------------
 .byte   PATT
  .word Label_01003F8F
@  #03 @040   ----------------------------------------
 .byte   PATT
  .word Label_01003FAF
@  #03 @041   ----------------------------------------
 .byte   PATT
  .word Label_01003F8F
@  #03 @042   ----------------------------------------
 .byte   PATT
  .word Label_01003FAF
@  #03 @043   ----------------------------------------
 .byte   PATT
  .word Label_01003FDC
@  #03 @044   ----------------------------------------
 .byte   PATT
  .word Label_01003F45
@  #03 @045   ----------------------------------------
 .byte   PATT
  .word Label_01003F33
@  #03 @046   ----------------------------------------
 .byte   PATT
  .word Label_01003F45
@  #03 @047   ----------------------------------------
 .byte   PATT
  .word Label_01003F33
@  #03 @048   ----------------------------------------
 .byte   PATT
  .word Label_01003F45
@  #03 @049   ----------------------------------------
 .byte   PATT
  .word Label_01003F33
@  #03 @050   ----------------------------------------
 .byte   PATT
  .word Label_01003F45
@  #03 @051   ----------------------------------------
 .byte   PATT
  .word Label_01003F33
@  #03 @052   ----------------------------------------
 .byte   PATT
  .word Label_01003F45
@  #03 @053   ----------------------------------------
 .byte   PATT
  .word Label_01003F33
@  #03 @054   ----------------------------------------
 .byte   PATT
  .word Label_01003F45
@  #03 @055   ----------------------------------------
 .byte   PATT
  .word Label_01003F33
@  #03 @056   ----------------------------------------
 .byte   PATT
  .word Label_01003F45
@  #03 @057   ----------------------------------------
 .byte   PATT
  .word Label_01003F33
@  #03 @058   ----------------------------------------
 .byte   PATT
  .word Label_01003F45
@  #03 @059   ----------------------------------------
 .byte   PATT
  .word Label_01003F33
@  #03 @060   ----------------------------------------
 .byte   PATT
  .word Label_01003F45
@  #03 @061   ----------------------------------------
 .byte   PATT
  .word Label_01003F33
@  #03 @062   ----------------------------------------
 .byte   PATT
  .word Label_01003F45
@  #03 @063   ----------------------------------------
 .byte   N01 ,Cn1 ,v059
 .byte   W24
 .byte   N12 ,Cs1
 .byte   W18
 .byte   Cn1
 .byte   W06
 .byte   Cs1
 .byte   W06
 .byte   Cn1
 .byte   W06
 .byte   Dn1
 .byte   W06
 .byte   Cn1
 .byte   W06
 .byte   N06 ,Cs1
 .byte   W06
 .byte   N12 ,Dn1
 .byte   N06 ,Cs1
 .byte   W06
 .byte   N12 ,Cn1
 .byte   W06
 .byte   N01 ,Cs1
 .byte   N01 ,Dn1
 .byte   W06
@  #03 @064   ----------------------------------------
 .byte   PATT
  .word Label_01004043
@  #03 @065   ----------------------------------------
 .byte   PATT
  .word Label_01003F8F
@  #03 @066   ----------------------------------------
 .byte   PATT
  .word Label_01003FAF
@  #03 @067   ----------------------------------------
 .byte   PATT
  .word Label_01003F8F
@  #03 @068   ----------------------------------------
 .byte   PATT
  .word Label_01003FAF
@  #03 @069   ----------------------------------------
 .byte   PATT
  .word Label_01003F8F
@  #03 @070   ----------------------------------------
 .byte   PATT
  .word Label_01003FAF
@  #03 @071   ----------------------------------------
 .byte   PATT
  .word Label_01003F8F
@  #03 @072   ----------------------------------------
 .byte   PATT
  .word Label_01003FAF
@  #03 @073   ----------------------------------------
 .byte   PATT
  .word Label_01003F8F
@  #03 @074   ----------------------------------------
 .byte   PATT
  .word Label_01003FAF
@  #03 @075   ----------------------------------------
 .byte   PATT
  .word Label_01003F8F
@  #03 @076   ----------------------------------------
 .byte   PATT
  .word Label_01003FAF
@  #03 @077   ----------------------------------------
 .byte   PATT
  .word Label_01003F8F
@  #03 @078   ----------------------------------------
 .byte   PATT
  .word Label_01003FAF
@  #03 @079   ----------------------------------------
 .byte   PATT
  .word Label_01003F8F
@  #03 @080   ----------------------------------------
 .byte   GOTO
  .word Label_01003F1E
 .byte   FINE

@**************** Track 4 (Midi-Chn.3) ****************@

song02_004:
@  #04 @000   ----------------------------------------
 .byte   KEYSH , song02_key+0
Label_010041BA:
 .byte   VOICE , 36
 .byte   VOL , 60*song02_mvl/mxv
 .byte   BENDR, 12
 .byte   W96
@  #04 @001   ----------------------------------------
 .byte   W96
@  #04 @002   ----------------------------------------
 .byte   W96
@  #04 @003   ----------------------------------------
 .byte   W96
@  #04 @004   ----------------------------------------
Label_010041C4:
 .byte   N11 ,En1 ,v059
 .byte   W12
 .byte   En2
 .byte   W12
 .byte   Gn1
 .byte   W12
 .byte   N05 ,Gn2
 .byte   W06
 .byte   N17 ,An2
 .byte   W18
 .byte   N11 ,Dn1
 .byte   W12
 .byte   Dn1
 .byte   W12
 .byte   Ds1
 .byte   W12
 .byte   PEND 
@  #04 @005   ----------------------------------------
Label_010041DA:
 .byte   N11 ,En1 ,v059
 .byte   W12
 .byte   En2
 .byte   W12
 .byte   Gn1
 .byte   W12
 .byte   N05 ,Gn2
 .byte   W06
 .byte   N17 ,As2
 .byte   W18
 .byte   N11 ,An1
 .byte   W12
 .byte   Gn1
 .byte   W12
 .byte   Ds1
 .byte   W12
 .byte   PEND 
@  #04 @006   ----------------------------------------
 .byte   PATT
  .word Label_010041C4
@  #04 @007   ----------------------------------------
Label_010041F5:
 .byte   N11 ,En1 ,v059
 .byte   W12
 .byte   En2
 .byte   W12
 .byte   Gn1
 .byte   W12
 .byte   N05 ,Gn2
 .byte   W06
 .byte   N17 ,As2
 .byte   W18
 .byte   As2
 .byte   W18
 .byte   As2
 .byte   W18
 .byte   PEND 
@  #04 @008   ----------------------------------------
 .byte   PATT
  .word Label_010041C4
@  #04 @009   ----------------------------------------
 .byte   PATT
  .word Label_010041DA
@  #04 @010   ----------------------------------------
 .byte   PATT
  .word Label_010041C4
@  #04 @011   ----------------------------------------
Label_01004217:
 .byte   N11 ,En1 ,v059
 .byte   W12
 .byte   En2
 .byte   W12
 .byte   Gn1
 .byte   W12
 .byte   N05 ,Gn2
 .byte   W06
 .byte   N17 ,As2
 .byte   W18
 .byte   N11 ,Cn2
 .byte   W12
 .byte   Dn2
 .byte   W12
 .byte   En2
 .byte   W12
 .byte   PEND 
@  #04 @012   ----------------------------------------
 .byte   PATT
  .word Label_010041C4
@  #04 @013   ----------------------------------------
 .byte   PATT
  .word Label_010041DA
@  #04 @014   ----------------------------------------
 .byte   PATT
  .word Label_010041C4
@  #04 @015   ----------------------------------------
 .byte   PATT
  .word Label_010041F5
@  #04 @016   ----------------------------------------
 .byte   PATT
  .word Label_010041C4
@  #04 @017   ----------------------------------------
 .byte   PATT
  .word Label_010041DA
@  #04 @018   ----------------------------------------
 .byte   PATT
  .word Label_010041C4
@  #04 @019   ----------------------------------------
 .byte   PATT
  .word Label_01004217
@  #04 @020   ----------------------------------------
 .byte   PATT
  .word Label_010041C4
@  #04 @021   ----------------------------------------
 .byte   PATT
  .word Label_010041DA
@  #04 @022   ----------------------------------------
 .byte   PATT
  .word Label_010041C4
@  #04 @023   ----------------------------------------
 .byte   PATT
  .word Label_010041F5
@  #04 @024   ----------------------------------------
 .byte   PATT
  .word Label_010041C4
@  #04 @025   ----------------------------------------
 .byte   PATT
  .word Label_010041DA
@  #04 @026   ----------------------------------------
 .byte   PATT
  .word Label_010041C4
@  #04 @027   ----------------------------------------
 .byte   PATT
  .word Label_01004217
@  #04 @028   ----------------------------------------
 .byte   W96
@  #04 @029   ----------------------------------------
 .byte   W96
@  #04 @030   ----------------------------------------
 .byte   W96
@  #04 @031   ----------------------------------------
 .byte   W96
@  #04 @032   ----------------------------------------
 .byte   W96
@  #04 @033   ----------------------------------------
 .byte   W96
@  #04 @034   ----------------------------------------
 .byte   W96
@  #04 @035   ----------------------------------------
 .byte   W96
@  #04 @036   ----------------------------------------
 .byte   PATT
  .word Label_010041C4
@  #04 @037   ----------------------------------------
 .byte   PATT
  .word Label_010041DA
@  #04 @038   ----------------------------------------
 .byte   PATT
  .word Label_010041C4
@  #04 @039   ----------------------------------------
 .byte   PATT
  .word Label_010041F5
@  #04 @040   ----------------------------------------
 .byte   PATT
  .word Label_010041C4
@  #04 @041   ----------------------------------------
 .byte   PATT
  .word Label_010041DA
@  #04 @042   ----------------------------------------
 .byte   PATT
  .word Label_010041C4
@  #04 @043   ----------------------------------------
 .byte   PATT
  .word Label_01004217
@  #04 @044   ----------------------------------------
 .byte   W96
@  #04 @045   ----------------------------------------
 .byte   W96
@  #04 @046   ----------------------------------------
 .byte   W96
@  #04 @047   ----------------------------------------
 .byte   W96
@  #04 @048   ----------------------------------------
 .byte   W96
@  #04 @049   ----------------------------------------
 .byte   W96
@  #04 @050   ----------------------------------------
 .byte   W96
@  #04 @051   ----------------------------------------
 .byte   W96
@  #04 @052   ----------------------------------------
 .byte   W96
@  #04 @053   ----------------------------------------
 .byte   W96
@  #04 @054   ----------------------------------------
 .byte   W96
@  #04 @055   ----------------------------------------
 .byte   W96
@  #04 @056   ----------------------------------------
 .byte   W96
@  #04 @057   ----------------------------------------
 .byte   W96
@  #04 @058   ----------------------------------------
 .byte   W96
@  #04 @059   ----------------------------------------
 .byte   W96
@  #04 @060   ----------------------------------------
 .byte   W96
@  #04 @061   ----------------------------------------
 .byte   W96
@  #04 @062   ----------------------------------------
 .byte   W96
@  #04 @063   ----------------------------------------
 .byte   W96
@  #04 @064   ----------------------------------------
 .byte   PATT
  .word Label_010041C4
@  #04 @065   ----------------------------------------
 .byte   PATT
  .word Label_010041DA
@  #04 @066   ----------------------------------------
 .byte   PATT
  .word Label_010041C4
@  #04 @067   ----------------------------------------
 .byte   PATT
  .word Label_010041F5
@  #04 @068   ----------------------------------------
 .byte   PATT
  .word Label_010041C4
@  #04 @069   ----------------------------------------
 .byte   PATT
  .word Label_010041DA
@  #04 @070   ----------------------------------------
 .byte   PATT
  .word Label_010041C4
@  #04 @071   ----------------------------------------
 .byte   PATT
  .word Label_01004217
@  #04 @072   ----------------------------------------
 .byte   PATT
  .word Label_010041C4
@  #04 @073   ----------------------------------------
 .byte   PATT
  .word Label_010041DA
@  #04 @074   ----------------------------------------
 .byte   PATT
  .word Label_010041C4
@  #04 @075   ----------------------------------------
 .byte   PATT
  .word Label_010041F5
@  #04 @076   ----------------------------------------
 .byte   PATT
  .word Label_010041C4
@  #04 @077   ----------------------------------------
 .byte   PATT
  .word Label_010041DA
@  #04 @078   ----------------------------------------
 .byte   PATT
  .word Label_010041C4
@  #04 @079   ----------------------------------------
 .byte   PATT
  .word Label_01004217
@  #04 @080   ----------------------------------------
 .byte   GOTO
  .word Label_010041BA
 .byte   FINE

@**************** Track 5 (Midi-Chn.4) ****************@

song02_005:
@  #05 @000   ----------------------------------------
 .byte   KEYSH , song02_key+0
Label_01025C6A:
 .byte   VOICE , 61
 .byte   VOL , 90*song02_mvl/mxv
 .byte   PAN , c_v+26
 .byte   BENDR, 12
 .byte   W96
@  #05 @001   ----------------------------------------
 .byte   W96
@  #05 @002   ----------------------------------------
 .byte   W96
@  #05 @003   ----------------------------------------
 .byte   W96
@  #05 @004   ----------------------------------------
Label_01025C76:
 .byte   N11 ,En2 ,v059
 .byte   N11 ,En1
 .byte   W24
 .byte   Gn2
 .byte   N11 ,Gn1
 .byte   W18
 .byte   An2
 .byte   N11 ,An1
 .byte   W54
 .byte   PEND 
@  #05 @005   ----------------------------------------
Label_01025C85:
 .byte   N11 ,En2 ,v059
 .byte   N11 ,En1
 .byte   W24
 .byte   Gn2
 .byte   N11 ,Gn1
 .byte   W18
 .byte   As2
 .byte   N11 ,As1
 .byte   W54
 .byte   PEND 
@  #05 @006   ----------------------------------------
 .byte   PATT
  .word Label_01025C76
@  #05 @007   ----------------------------------------
 .byte   N11 ,En2 ,v059
 .byte   N11 ,En1
 .byte   W24
 .byte   Gn2
 .byte   N11 ,Gn1
 .byte   W18
 .byte   As2
 .byte   N11 ,As1
 .byte   W18
 .byte   As2
 .byte   N11 ,As1
 .byte   W18
 .byte   As2
 .byte   N11 ,As1
 .byte   W18
@  #05 @008   ----------------------------------------
 .byte   PATT
  .word Label_01025C76
@  #05 @009   ----------------------------------------
 .byte   PATT
  .word Label_01025C85
@  #05 @010   ----------------------------------------
 .byte   PATT
  .word Label_01025C76
@  #05 @011   ----------------------------------------
 .byte   N11 ,En2 ,v059
 .byte   N11 ,En1
 .byte   W24
 .byte   Gn2
 .byte   N11 ,Gn1
 .byte   W18
 .byte   As2
 .byte   N11 ,As1
 .byte   W18
 .byte   Cn3
 .byte   N11 ,Cn2
 .byte   W12
 .byte   Dn3
 .byte   N11 ,Dn2
 .byte   W12
 .byte   En3
 .byte   N11 ,En2
 .byte   W12
@  #05 @012   ----------------------------------------
 .byte   W96
@  #05 @013   ----------------------------------------
 .byte   W96
@  #05 @014   ----------------------------------------
 .byte   W96
@  #05 @015   ----------------------------------------
 .byte   W96
@  #05 @016   ----------------------------------------
 .byte   W96
@  #05 @017   ----------------------------------------
 .byte   W96
@  #05 @018   ----------------------------------------
 .byte   W96
@  #05 @019   ----------------------------------------
 .byte   W96
@  #05 @020   ----------------------------------------
 .byte   W96
@  #05 @021   ----------------------------------------
 .byte   W96
@  #05 @022   ----------------------------------------
 .byte   W96
@  #05 @023   ----------------------------------------
 .byte   W96
@  #05 @024   ----------------------------------------
 .byte   W96
@  #05 @025   ----------------------------------------
 .byte   W96
@  #05 @026   ----------------------------------------
 .byte   W96
@  #05 @027   ----------------------------------------
 .byte   W96
@  #05 @028   ----------------------------------------
 .byte   W96
@  #05 @029   ----------------------------------------
 .byte   W96
@  #05 @030   ----------------------------------------
 .byte   W96
@  #05 @031   ----------------------------------------
 .byte   W96
@  #05 @032   ----------------------------------------
 .byte   W96
@  #05 @033   ----------------------------------------
 .byte   W96
@  #05 @034   ----------------------------------------
 .byte   W96
@  #05 @035   ----------------------------------------
 .byte   W96
@  #05 @036   ----------------------------------------
 .byte   W96
@  #05 @037   ----------------------------------------
 .byte   W96
@  #05 @038   ----------------------------------------
 .byte   W96
@  #05 @039   ----------------------------------------
 .byte   W96
@  #05 @040   ----------------------------------------
 .byte   W96
@  #05 @041   ----------------------------------------
 .byte   W96
@  #05 @042   ----------------------------------------
 .byte   W96
@  #05 @043   ----------------------------------------
 .byte   W96
@  #05 @044   ----------------------------------------
 .byte   W96
@  #05 @045   ----------------------------------------
 .byte   W96
@  #05 @046   ----------------------------------------
 .byte   W96
@  #05 @047   ----------------------------------------
 .byte   W96
@  #05 @048   ----------------------------------------
 .byte   W96
@  #05 @049   ----------------------------------------
 .byte   W96
@  #05 @050   ----------------------------------------
 .byte   W96
@  #05 @051   ----------------------------------------
 .byte   W96
@  #05 @052   ----------------------------------------
 .byte   W96
@  #05 @053   ----------------------------------------
 .byte   W96
@  #05 @054   ----------------------------------------
 .byte   W96
@  #05 @055   ----------------------------------------
 .byte   W96
@  #05 @056   ----------------------------------------
 .byte   W96
@  #05 @057   ----------------------------------------
 .byte   W96
@  #05 @058   ----------------------------------------
 .byte   W96
@  #05 @059   ----------------------------------------
 .byte   W96
@  #05 @060   ----------------------------------------
 .byte   W96
@  #05 @061   ----------------------------------------
 .byte   W96
@  #05 @062   ----------------------------------------
 .byte   W96
@  #05 @063   ----------------------------------------
 .byte   W96
@  #05 @064   ----------------------------------------
 .byte   W96
@  #05 @065   ----------------------------------------
 .byte   W96
@  #05 @066   ----------------------------------------
 .byte   W96
@  #05 @067   ----------------------------------------
 .byte   W96
@  #05 @068   ----------------------------------------
 .byte   W96
@  #05 @069   ----------------------------------------
 .byte   W96
@  #05 @070   ----------------------------------------
 .byte   W96
@  #05 @071   ----------------------------------------
 .byte   W96
@  #05 @072   ----------------------------------------
 .byte   W96
@  #05 @073   ----------------------------------------
 .byte   W96
@  #05 @074   ----------------------------------------
 .byte   W96
@  #05 @075   ----------------------------------------
 .byte   W96
@  #05 @076   ----------------------------------------
 .byte   W96
@  #05 @077   ----------------------------------------
 .byte   W96
@  #05 @078   ----------------------------------------
 .byte   W96
@  #05 @079   ----------------------------------------
 .byte   W96
@  #05 @080   ----------------------------------------
 .byte   GOTO
  .word Label_01025C6A
 .byte   FINE

@**************** Track 6 (Midi-Chn.5) ****************@

song02_006:
@  #06 @000   ----------------------------------------
 .byte   KEYSH , song02_key+0
Label_01003D52:
 .byte   VOICE , 1
 .byte   VOL , 46*song02_mvl/mxv
 .byte   PAN , c_v-28
 .byte   BENDR, 12
 .byte   W96
@  #06 @001   ----------------------------------------
 .byte   W96
@  #06 @002   ----------------------------------------
 .byte   W96
@  #06 @003   ----------------------------------------
 .byte   W96
@  #06 @004   ----------------------------------------
Label_01003D5E:
 .byte   N11 ,En4 ,v059
 .byte   W12
 .byte   N05 ,Gn4
 .byte   W06
 .byte   N11 ,En4
 .byte   W12
 .byte   Gn4
 .byte   W12
 .byte   N05 ,En4
 .byte   W06
 .byte   N11 ,An4
 .byte   W12
 .byte   N05
 .byte   W06
 .byte   N11
 .byte   W12
 .byte   Bn4
 .byte   W12
 .byte   N05
 .byte   W06
 .byte   PEND 
@  #06 @005   ----------------------------------------
Label_01003D79:
 .byte   N11 ,En4 ,v059
 .byte   W12
 .byte   N05 ,Gn4
 .byte   W06
 .byte   N11 ,En4
 .byte   W12
 .byte   Gn4
 .byte   W12
 .byte   N05 ,En4
 .byte   W06
 .byte   N11 ,An4
 .byte   W12
 .byte   N05
 .byte   W06
 .byte   N11
 .byte   W12
 .byte   Gn4
 .byte   W12
 .byte   N05
 .byte   W06
 .byte   PEND 
@  #06 @006   ----------------------------------------
 .byte   PATT
  .word Label_01003D5E
@  #06 @007   ----------------------------------------
 .byte   PATT
  .word Label_01003D79
@  #06 @008   ----------------------------------------
 .byte   PATT
  .word Label_01003D5E
@  #06 @009   ----------------------------------------
 .byte   PATT
  .word Label_01003D79
@  #06 @010   ----------------------------------------
 .byte   PATT
  .word Label_01003D5E
@  #06 @011   ----------------------------------------
 .byte   PATT
  .word Label_01003D79
@  #06 @012   ----------------------------------------
 .byte   W96
@  #06 @013   ----------------------------------------
Label_01003DB3:
 .byte   W48
 .byte   N05 ,En4 ,v059
 .byte   W06
 .byte   Dn4
 .byte   W06
 .byte   En4
 .byte   W06
 .byte   Dn4
 .byte   W06
 .byte   En4
 .byte   W06
 .byte   Dn4
 .byte   W06
 .byte   En4
 .byte   W06
 .byte   Dn4
 .byte   W06
 .byte   PEND 
@  #06 @014   ----------------------------------------
 .byte   W96
@  #06 @015   ----------------------------------------
 .byte   W48
 .byte   Gn4
 .byte   W06
 .byte   En4
 .byte   W06
 .byte   Gn4
 .byte   W06
 .byte   En4
 .byte   W06
 .byte   Gn4
 .byte   W06
 .byte   En4
 .byte   W06
 .byte   Gn4
 .byte   W06
 .byte   En4
 .byte   W06
@  #06 @016   ----------------------------------------
 .byte   W96
@  #06 @017   ----------------------------------------
 .byte   PATT
  .word Label_01003DB3
@  #06 @018   ----------------------------------------
 .byte   W96
@  #06 @019   ----------------------------------------
 .byte   W48
 .byte   N05 ,En5 ,v059
 .byte   W06
 .byte   Dn5
 .byte   W06
 .byte   En5
 .byte   W06
 .byte   Dn5
 .byte   W06
 .byte   En5
 .byte   W06
 .byte   Dn5
 .byte   W06
 .byte   En5
 .byte   W06
 .byte   Dn5
 .byte   W06
@  #06 @020   ----------------------------------------
 .byte   PATT
  .word Label_01003D5E
@  #06 @021   ----------------------------------------
 .byte   PATT
  .word Label_01003D79
@  #06 @022   ----------------------------------------
 .byte   PATT
  .word Label_01003D5E
@  #06 @023   ----------------------------------------
 .byte   PATT
  .word Label_01003D79
@  #06 @024   ----------------------------------------
 .byte   PATT
  .word Label_01003D5E
@  #06 @025   ----------------------------------------
 .byte   PATT
  .word Label_01003D79
@  #06 @026   ----------------------------------------
 .byte   PATT
  .word Label_01003D5E
@  #06 @027   ----------------------------------------
 .byte   PATT
  .word Label_01003D79
@  #06 @028   ----------------------------------------
 .byte   W96
@  #06 @029   ----------------------------------------
 .byte   W96
@  #06 @030   ----------------------------------------
 .byte   W96
@  #06 @031   ----------------------------------------
 .byte   W96
@  #06 @032   ----------------------------------------
 .byte   PATT
  .word Label_01003D5E
@  #06 @033   ----------------------------------------
 .byte   PATT
  .word Label_01003D79
@  #06 @034   ----------------------------------------
 .byte   PATT
  .word Label_01003D5E
@  #06 @035   ----------------------------------------
 .byte   PATT
  .word Label_01003D79
@  #06 @036   ----------------------------------------
 .byte   PATT
  .word Label_01003D5E
@  #06 @037   ----------------------------------------
 .byte   PATT
  .word Label_01003D79
@  #06 @038   ----------------------------------------
 .byte   PATT
  .word Label_01003D5E
@  #06 @039   ----------------------------------------
 .byte   PATT
  .word Label_01003D79
@  #06 @040   ----------------------------------------
 .byte   PATT
  .word Label_01003D5E
@  #06 @041   ----------------------------------------
 .byte   PATT
  .word Label_01003D79
@  #06 @042   ----------------------------------------
 .byte   PATT
  .word Label_01003D5E
@  #06 @043   ----------------------------------------
 .byte   PATT
  .word Label_01003D79
@  #06 @044   ----------------------------------------
 .byte   W96
@  #06 @045   ----------------------------------------
 .byte   W96
@  #06 @046   ----------------------------------------
 .byte   W96
@  #06 @047   ----------------------------------------
 .byte   W96
@  #06 @048   ----------------------------------------
 .byte   W96
@  #06 @049   ----------------------------------------
 .byte   W96
@  #06 @050   ----------------------------------------
 .byte   W96
@  #06 @051   ----------------------------------------
 .byte   W96
@  #06 @052   ----------------------------------------
 .byte   W96
@  #06 @053   ----------------------------------------
 .byte   W96
@  #06 @054   ----------------------------------------
 .byte   W96
@  #06 @055   ----------------------------------------
 .byte   W96
@  #06 @056   ----------------------------------------
 .byte   W96
@  #06 @057   ----------------------------------------
 .byte   W96
@  #06 @058   ----------------------------------------
 .byte   W96
@  #06 @059   ----------------------------------------
 .byte   W96
@  #06 @060   ----------------------------------------
 .byte   W96
@  #06 @061   ----------------------------------------
 .byte   W96
@  #06 @062   ----------------------------------------
 .byte   W96
@  #06 @063   ----------------------------------------
 .byte   W96
@  #06 @064   ----------------------------------------
 .byte   PATT
  .word Label_01003D5E
@  #06 @065   ----------------------------------------
 .byte   PATT
  .word Label_01003D79
@  #06 @066   ----------------------------------------
 .byte   PATT
  .word Label_01003D5E
@  #06 @067   ----------------------------------------
 .byte   PATT
  .word Label_01003D79
@  #06 @068   ----------------------------------------
 .byte   PATT
  .word Label_01003D5E
@  #06 @069   ----------------------------------------
 .byte   PATT
  .word Label_01003D79
@  #06 @070   ----------------------------------------
 .byte   PATT
  .word Label_01003D5E
@  #06 @071   ----------------------------------------
 .byte   PATT
  .word Label_01003D79
@  #06 @072   ----------------------------------------
 .byte   PATT
  .word Label_01003D5E
@  #06 @073   ----------------------------------------
 .byte   PATT
  .word Label_01003D79
@  #06 @074   ----------------------------------------
 .byte   PATT
  .word Label_01003D5E
@  #06 @075   ----------------------------------------
 .byte   PATT
  .word Label_01003D79
@  #06 @076   ----------------------------------------
 .byte   PATT
  .word Label_01003D5E
@  #06 @077   ----------------------------------------
 .byte   PATT
  .word Label_01003D79
@  #06 @078   ----------------------------------------
 .byte   PATT
  .word Label_01003D5E
@  #06 @079   ----------------------------------------
 .byte   PATT
  .word Label_01003D79
@  #06 @080   ----------------------------------------
 .byte   GOTO
  .word Label_01003D52
 .byte   FINE

@**************** Track 7 (Midi-Chn.6) ****************@

song02_007:
@  #07 @000   ----------------------------------------
 .byte   KEYSH , song02_key+0
Label_01004342:
 .byte   VOICE , 1
 .byte   VOL , 47*song02_mvl/mxv
 .byte   PAN , c_v-26
 .byte   BENDR, 12
 .byte   W96
@  #07 @001   ----------------------------------------
 .byte   W96
@  #07 @002   ----------------------------------------
 .byte   W96
@  #07 @003   ----------------------------------------
 .byte   W96
@  #07 @004   ----------------------------------------
 .byte   W96
@  #07 @005   ----------------------------------------
 .byte   W96
@  #07 @006   ----------------------------------------
 .byte   W96
@  #07 @007   ----------------------------------------
 .byte   W96
@  #07 @008   ----------------------------------------
Label_01004352:
 .byte   N11 ,En4 ,v059
 .byte   W12
 .byte   En4
 .byte   W12
 .byte   En4
 .byte   W12
 .byte   N05 ,Dn4
 .byte   W06
 .byte   N11 ,En4
 .byte   W54
 .byte   PEND 
@  #07 @009   ----------------------------------------
 .byte   En4
 .byte   W12
 .byte   En4
 .byte   W12
 .byte   En4
 .byte   W12
 .byte   N05 ,Gn4
 .byte   W06
 .byte   N11 ,En4
 .byte   W54
@  #07 @010   ----------------------------------------
 .byte   PATT
  .word Label_01004352
@  #07 @011   ----------------------------------------
 .byte   N11 ,En4 ,v059
 .byte   W12
 .byte   En4
 .byte   W12
 .byte   En4
 .byte   W12
 .byte   N05 ,Gn4
 .byte   W06
 .byte   En4
 .byte   W06
 .byte   An4
 .byte   W06
 .byte   As4
 .byte   W06
 .byte   An4
 .byte   W06
 .byte   Gn4
 .byte   W06
 .byte   An4
 .byte   W06
 .byte   As4
 .byte   W06
 .byte   An4
 .byte   W06
 .byte   Gn4
 .byte   W06
@  #07 @012   ----------------------------------------
 .byte   W96
@  #07 @013   ----------------------------------------
 .byte   W96
@  #07 @014   ----------------------------------------
 .byte   W96
@  #07 @015   ----------------------------------------
 .byte   W96
@  #07 @016   ----------------------------------------
 .byte   W96
@  #07 @017   ----------------------------------------
 .byte   W96
@  #07 @018   ----------------------------------------
 .byte   W96
@  #07 @019   ----------------------------------------
 .byte   W96
@  #07 @020   ----------------------------------------
 .byte   W96
@  #07 @021   ----------------------------------------
 .byte   W96
@  #07 @022   ----------------------------------------
 .byte   W96
@  #07 @023   ----------------------------------------
 .byte   W96
@  #07 @024   ----------------------------------------
 .byte   W96
@  #07 @025   ----------------------------------------
 .byte   W96
@  #07 @026   ----------------------------------------
 .byte   W96
@  #07 @027   ----------------------------------------
 .byte   W96
@  #07 @028   ----------------------------------------
 .byte   W96
@  #07 @029   ----------------------------------------
 .byte   W96
@  #07 @030   ----------------------------------------
 .byte   W96
@  #07 @031   ----------------------------------------
 .byte   W96
@  #07 @032   ----------------------------------------
 .byte   W96
@  #07 @033   ----------------------------------------
 .byte   W96
@  #07 @034   ----------------------------------------
 .byte   W96
@  #07 @035   ----------------------------------------
 .byte   W96
@  #07 @036   ----------------------------------------
 .byte   W96
@  #07 @037   ----------------------------------------
 .byte   W96
@  #07 @038   ----------------------------------------
 .byte   W96
@  #07 @039   ----------------------------------------
 .byte   W96
@  #07 @040   ----------------------------------------
 .byte   W96
@  #07 @041   ----------------------------------------
 .byte   W96
@  #07 @042   ----------------------------------------
 .byte   W96
@  #07 @043   ----------------------------------------
 .byte   W96
@  #07 @044   ----------------------------------------
 .byte   W96
@  #07 @045   ----------------------------------------
 .byte   W96
@  #07 @046   ----------------------------------------
 .byte   W96
@  #07 @047   ----------------------------------------
 .byte   W96
@  #07 @048   ----------------------------------------
 .byte   W96
@  #07 @049   ----------------------------------------
 .byte   W96
@  #07 @050   ----------------------------------------
 .byte   W96
@  #07 @051   ----------------------------------------
 .byte   W96
@  #07 @052   ----------------------------------------
 .byte   W96
@  #07 @053   ----------------------------------------
 .byte   W96
@  #07 @054   ----------------------------------------
 .byte   W96
@  #07 @055   ----------------------------------------
 .byte   W96
@  #07 @056   ----------------------------------------
 .byte   W96
@  #07 @057   ----------------------------------------
 .byte   W96
@  #07 @058   ----------------------------------------
 .byte   W96
@  #07 @059   ----------------------------------------
 .byte   W96
@  #07 @060   ----------------------------------------
 .byte   W96
@  #07 @061   ----------------------------------------
 .byte   W96
@  #07 @062   ----------------------------------------
 .byte   An4 ,v004
 .byte   W06
 .byte   As4
 .byte   W06
 .byte   An4
 .byte   W06
 .byte   Gn4
 .byte   W06
 .byte   An4 ,v005
 .byte   W06
 .byte   As4
 .byte   W06
 .byte   An4
 .byte   W06
 .byte   Gn4
 .byte   W06
 .byte   An4 ,v006
 .byte   W06
 .byte   As4
 .byte   W06
 .byte   An4
 .byte   W06
 .byte   Gn4
 .byte   W06
 .byte   An4 ,v007
 .byte   W06
 .byte   As4
 .byte   W06
 .byte   An4
 .byte   W06
 .byte   Gn4
 .byte   W06
@  #07 @063   ----------------------------------------
 .byte   An4 ,v008
 .byte   W06
 .byte   As4
 .byte   W06
 .byte   An4
 .byte   W06
 .byte   Gn4
 .byte   W06
 .byte   An4 ,v009
 .byte   W06
 .byte   As4
 .byte   W06
 .byte   An4 ,v010
 .byte   W06
 .byte   Gn4
 .byte   W06
 .byte   An4
 .byte   W06
 .byte   As4
 .byte   W06
 .byte   An4 ,v011
 .byte   W06
 .byte   Gn4
 .byte   W06
 .byte   An4
 .byte   W06
 .byte   As4
 .byte   W06
 .byte   An4 ,v012
 .byte   W06
 .byte   Gn4 ,v013
 .byte   W06
@  #07 @064   ----------------------------------------
 .byte   W96
@  #07 @065   ----------------------------------------
 .byte   W96
@  #07 @066   ----------------------------------------
 .byte   W96
@  #07 @067   ----------------------------------------
 .byte   W96
@  #07 @068   ----------------------------------------
 .byte   W96
@  #07 @069   ----------------------------------------
 .byte   W96
@  #07 @070   ----------------------------------------
 .byte   W96
@  #07 @071   ----------------------------------------
 .byte   W96
@  #07 @072   ----------------------------------------
 .byte   W96
@  #07 @073   ----------------------------------------
 .byte   W96
@  #07 @074   ----------------------------------------
 .byte   W96
@  #07 @075   ----------------------------------------
 .byte   W96
@  #07 @076   ----------------------------------------
 .byte   W96
@  #07 @077   ----------------------------------------
 .byte   W96
@  #07 @078   ----------------------------------------
 .byte   W96
@  #07 @079   ----------------------------------------
 .byte   W96
@  #07 @080   ----------------------------------------
 .byte   GOTO
  .word Label_01004342
 .byte   FINE

@**************** Track 8 (Midi-Chn.7) ****************@

song02_008:
@  #08 @000   ----------------------------------------
 .byte   KEYSH , song02_key+0
Label_01026026:
 .byte   VOICE , 29
 .byte   VOL , 91*song02_mvl/mxv
 .byte   PAN , c_v-28
 .byte   BENDR, 12
 .byte   W96
@  #08 @001   ----------------------------------------
 .byte   W96
@  #08 @002   ----------------------------------------
 .byte   W96
@  #08 @003   ----------------------------------------
 .byte   W96
@  #08 @004   ----------------------------------------
 .byte   W96
@  #08 @005   ----------------------------------------
 .byte   W96
@  #08 @006   ----------------------------------------
 .byte   W96
@  #08 @007   ----------------------------------------
 .byte   W96
@  #08 @008   ----------------------------------------
 .byte   W96
@  #08 @009   ----------------------------------------
 .byte   W96
@  #08 @010   ----------------------------------------
 .byte   W96
@  #08 @011   ----------------------------------------
 .byte   W60
 .byte   N11 ,Cn2 ,v059
 .byte   W12
 .byte   Dn2
 .byte   W12
 .byte   En2
 .byte   W12
@  #08 @012   ----------------------------------------
Label_01026042:
 .byte   N17 ,En2 ,v059
 .byte   W18
 .byte   Cs2
 .byte   W18
 .byte   N32 ,Dn2 ,v059 ,gtp3
 .byte   W36
 .byte   N11 ,Cs2
 .byte   W12
 .byte   N92 ,Bn1 ,v059 ,gtp3
 .byte   W12
 .byte   PEND 
@  #08 @013   ----------------------------------------
 .byte   W96
@  #08 @014   ----------------------------------------
Label_01026057:
 .byte   N17 ,En2 ,v059
 .byte   W18
 .byte   Cs2
 .byte   W18
 .byte   N32 ,Dn2 ,v059 ,gtp3
 .byte   W36
 .byte   N11 ,Cs2
 .byte   W12
 .byte   N92 ,Gs2 ,v059 ,gtp3
 .byte   W12
 .byte   PEND 
@  #08 @015   ----------------------------------------
 .byte   W96
@  #08 @016   ----------------------------------------
 .byte   PATT
  .word Label_01026042
@  #08 @017   ----------------------------------------
 .byte   W96
@  #08 @018   ----------------------------------------
Label_01026072:
 .byte   N17 ,En2 ,v059
 .byte   W18
 .byte   Cs2
 .byte   W18
 .byte   N32 ,Dn2 ,v059 ,gtp3
 .byte   W36
 .byte   N11 ,Cs2
 .byte   W12
 .byte   N92 ,En2 ,v059 ,gtp3
 .byte   W12
 .byte   PEND 
@  #08 @019   ----------------------------------------
 .byte   W96
@  #08 @020   ----------------------------------------
 .byte   PATT
  .word Label_01026042
@  #08 @021   ----------------------------------------
 .byte   W96
@  #08 @022   ----------------------------------------
 .byte   PATT
  .word Label_01026057
@  #08 @023   ----------------------------------------
 .byte   W96
@  #08 @024   ----------------------------------------
 .byte   PATT
  .word Label_01026042
@  #08 @025   ----------------------------------------
 .byte   W96
@  #08 @026   ----------------------------------------
 .byte   PATT
  .word Label_01026072
@  #08 @027   ----------------------------------------
 .byte   W96
@  #08 @028   ----------------------------------------
 .byte   W96
@  #08 @029   ----------------------------------------
 .byte   W96
@  #08 @030   ----------------------------------------
 .byte   W96
@  #08 @031   ----------------------------------------
 .byte   W96
@  #08 @032   ----------------------------------------
 .byte   W96
@  #08 @033   ----------------------------------------
 .byte   W96
@  #08 @034   ----------------------------------------
 .byte   W96
@  #08 @035   ----------------------------------------
 .byte   W96
@  #08 @036   ----------------------------------------
 .byte   W96
@  #08 @037   ----------------------------------------
 .byte   W96
@  #08 @038   ----------------------------------------
 .byte   W96
@  #08 @039   ----------------------------------------
 .byte   W96
@  #08 @040   ----------------------------------------
 .byte   W96
@  #08 @041   ----------------------------------------
 .byte   W96
@  #08 @042   ----------------------------------------
 .byte   W96
@  #08 @043   ----------------------------------------
 .byte   W96
@  #08 @044   ----------------------------------------
 .byte   W96
@  #08 @045   ----------------------------------------
 .byte   W96
@  #08 @046   ----------------------------------------
 .byte   W96
@  #08 @047   ----------------------------------------
 .byte   W96
@  #08 @048   ----------------------------------------
 .byte   W96
@  #08 @049   ----------------------------------------
 .byte   W96
@  #08 @050   ----------------------------------------
 .byte   W96
@  #08 @051   ----------------------------------------
 .byte   W96
@  #08 @052   ----------------------------------------
 .byte   W96
@  #08 @053   ----------------------------------------
 .byte   W96
@  #08 @054   ----------------------------------------
 .byte   W96
@  #08 @055   ----------------------------------------
 .byte   W96
@  #08 @056   ----------------------------------------
 .byte   W96
@  #08 @057   ----------------------------------------
 .byte   W96
@  #08 @058   ----------------------------------------
 .byte   W96
@  #08 @059   ----------------------------------------
 .byte   W96
@  #08 @060   ----------------------------------------
 .byte   W96
@  #08 @061   ----------------------------------------
 .byte   W96
@  #08 @062   ----------------------------------------
 .byte   W96
@  #08 @063   ----------------------------------------
 .byte   W96
@  #08 @064   ----------------------------------------
 .byte   PATT
  .word Label_01026042
@  #08 @065   ----------------------------------------
 .byte   W96
@  #08 @066   ----------------------------------------
 .byte   PATT
  .word Label_01026057
@  #08 @067   ----------------------------------------
 .byte   W96
@  #08 @068   ----------------------------------------
 .byte   PATT
  .word Label_01026042
@  #08 @069   ----------------------------------------
 .byte   W96
@  #08 @070   ----------------------------------------
 .byte   PATT
  .word Label_01026072
@  #08 @071   ----------------------------------------
 .byte   W96
@  #08 @072   ----------------------------------------
 .byte   PATT
  .word Label_01026042
@  #08 @073   ----------------------------------------
 .byte   W96
@  #08 @074   ----------------------------------------
 .byte   PATT
  .word Label_01026057
@  #08 @075   ----------------------------------------
 .byte   W96
@  #08 @076   ----------------------------------------
 .byte   PATT
  .word Label_01026042
@  #08 @077   ----------------------------------------
 .byte   W96
@  #08 @078   ----------------------------------------
 .byte   PATT
  .word Label_01026072
@  #08 @079   ----------------------------------------
 .byte   W96
@  #08 @080   ----------------------------------------
 .byte   GOTO
  .word Label_01026026
 .byte   FINE

@**************** Track 9 (Midi-Chn.8) ****************@

song02_009:
@  #09 @000   ----------------------------------------
 .byte   KEYSH , song02_key+0
Label_0100308A:
 .byte   VOICE , 30
 .byte   VOL , 87*song02_mvl/mxv
 .byte   PAN , c_v+37
 .byte   BENDR, 12
 .byte   W96
@  #09 @001   ----------------------------------------
 .byte   W96
@  #09 @002   ----------------------------------------
 .byte   W96
@  #09 @003   ----------------------------------------
 .byte   W96
@  #09 @004   ----------------------------------------
 .byte   W96
@  #09 @005   ----------------------------------------
 .byte   W96
@  #09 @006   ----------------------------------------
 .byte   W96
@  #09 @007   ----------------------------------------
 .byte   W96
@  #09 @008   ----------------------------------------
 .byte   W96
@  #09 @009   ----------------------------------------
 .byte   W96
@  #09 @010   ----------------------------------------
 .byte   W96
@  #09 @011   ----------------------------------------
 .byte   W96
@  #09 @012   ----------------------------------------
 .byte   W96
@  #09 @013   ----------------------------------------
 .byte   W96
@  #09 @014   ----------------------------------------
 .byte   W96
@  #09 @015   ----------------------------------------
 .byte   W96
@  #09 @016   ----------------------------------------
 .byte   W96
@  #09 @017   ----------------------------------------
 .byte   W96
@  #09 @018   ----------------------------------------
 .byte   W96
@  #09 @019   ----------------------------------------
 .byte   W96
@  #09 @020   ----------------------------------------
 .byte   W96
@  #09 @021   ----------------------------------------
 .byte   W96
@  #09 @022   ----------------------------------------
 .byte   W96
@  #09 @023   ----------------------------------------
 .byte   W96
@  #09 @024   ----------------------------------------
 .byte   W96
@  #09 @025   ----------------------------------------
 .byte   W96
@  #09 @026   ----------------------------------------
 .byte   W96
@  #09 @027   ----------------------------------------
 .byte   W96
@  #09 @028   ----------------------------------------
Label_010030AE:
 .byte   W84
 .byte   N11 ,As1 ,v059
 .byte   W12
 .byte   PEND 
@  #09 @029   ----------------------------------------
Label_010030B4:
 .byte   N11 ,Cn2 ,v059
 .byte   W12
 .byte   Bn1
 .byte   W12
 .byte   N05 ,As1
 .byte   W06
 .byte   Gn1
 .byte   W12
 .byte   N23 ,En1
 .byte   W54
 .byte   PEND 
@  #09 @030   ----------------------------------------
 .byte   N11 ,En2
 .byte   W18
 .byte   N05
 .byte   W06
 .byte   N17 ,Gn2
 .byte   W18
 .byte   Dn2
 .byte   W18
 .byte   Dn2
 .byte   W18
 .byte   N11 ,Ds2
 .byte   W18
@  #09 @031   ----------------------------------------
 .byte   En2
 .byte   W12
 .byte   Gn2
 .byte   W12
 .byte   N05 ,En2
 .byte   W06
 .byte   Dn2
 .byte   W12
 .byte   N17 ,En2
 .byte   W18
 .byte   N11 ,En1
 .byte   W12
 .byte   En1
 .byte   W12
 .byte   En1
 .byte   W12
@  #09 @032   ----------------------------------------
 .byte   PATT
  .word Label_010030AE
@  #09 @033   ----------------------------------------
 .byte   PATT
  .word Label_010030B4
@  #09 @034   ----------------------------------------
 .byte   N11 ,En2 ,v059
 .byte   W18
 .byte   N05
 .byte   W06
 .byte   N11 ,Gn2
 .byte   W18
 .byte   N17 ,Dn2
 .byte   W18
 .byte   Dn2
 .byte   W18
 .byte   N11 ,Ds2
 .byte   W18
@  #09 @035   ----------------------------------------
 .byte   En2
 .byte   W12
 .byte   Gn2
 .byte   W12
 .byte   N05 ,En2
 .byte   W06
 .byte   Dn2
 .byte   W12
 .byte   N11 ,En2
 .byte   W18
 .byte   En1
 .byte   W12
 .byte   En1
 .byte   W12
 .byte   En1
 .byte   W12
@  #09 @036   ----------------------------------------
 .byte   W96
@  #09 @037   ----------------------------------------
 .byte   W96
@  #09 @038   ----------------------------------------
 .byte   W96
@  #09 @039   ----------------------------------------
 .byte   W96
@  #09 @040   ----------------------------------------
 .byte   W96
@  #09 @041   ----------------------------------------
 .byte   W96
@  #09 @042   ----------------------------------------
 .byte   W96
@  #09 @043   ----------------------------------------
 .byte   W96
@  #09 @044   ----------------------------------------
 .byte   W96
@  #09 @045   ----------------------------------------
 .byte   W96
@  #09 @046   ----------------------------------------
 .byte   W96
@  #09 @047   ----------------------------------------
 .byte   W96
@  #09 @048   ----------------------------------------
 .byte   W96
@  #09 @049   ----------------------------------------
 .byte   W96
@  #09 @050   ----------------------------------------
 .byte   W96
@  #09 @051   ----------------------------------------
 .byte   W96
@  #09 @052   ----------------------------------------
 .byte   W96
@  #09 @053   ----------------------------------------
 .byte   W96
@  #09 @054   ----------------------------------------
 .byte   W96
@  #09 @055   ----------------------------------------
 .byte   W96
@  #09 @056   ----------------------------------------
 .byte   W96
@  #09 @057   ----------------------------------------
 .byte   W96
@  #09 @058   ----------------------------------------
 .byte   W96
@  #09 @059   ----------------------------------------
 .byte   W96
@  #09 @060   ----------------------------------------
 .byte   W96
@  #09 @061   ----------------------------------------
 .byte   W96
@  #09 @062   ----------------------------------------
 .byte   W96
@  #09 @063   ----------------------------------------
 .byte   W96
@  #09 @064   ----------------------------------------
 .byte   W96
@  #09 @065   ----------------------------------------
 .byte   W96
@  #09 @066   ----------------------------------------
 .byte   W96
@  #09 @067   ----------------------------------------
 .byte   W96
@  #09 @068   ----------------------------------------
 .byte   W96
@  #09 @069   ----------------------------------------
 .byte   W96
@  #09 @070   ----------------------------------------
 .byte   W96
@  #09 @071   ----------------------------------------
 .byte   W96
@  #09 @072   ----------------------------------------
 .byte   W96
@  #09 @073   ----------------------------------------
 .byte   W96
@  #09 @074   ----------------------------------------
 .byte   W96
@  #09 @075   ----------------------------------------
 .byte   W96
@  #09 @076   ----------------------------------------
 .byte   W96
@  #09 @077   ----------------------------------------
 .byte   W96
@  #09 @078   ----------------------------------------
 .byte   W96
@  #09 @079   ----------------------------------------
 .byte   W96
@  #09 @080   ----------------------------------------
 .byte   GOTO
  .word Label_0100308A
 .byte   FINE

@**************** Track 10 (Midi-Chn.9) ****************@

song02_010:
@  #10 @000   ----------------------------------------
 .byte   KEYSH , song02_key+0
Label_01003026:
 .byte   VOICE , 127
 .byte   VOL , 68*song02_mvl/mxv
 .byte   BENDR, 12
 .byte   W96
@  #10 @001   ----------------------------------------
 .byte   W96
@  #10 @002   ----------------------------------------
 .byte   W96
@  #10 @003   ----------------------------------------
 .byte   W96
@  #10 @004   ----------------------------------------
 .byte   W96
@  #10 @005   ----------------------------------------
 .byte   W96
@  #10 @006   ----------------------------------------
 .byte   W96
@  #10 @007   ----------------------------------------
 .byte   W96
@  #10 @008   ----------------------------------------
 .byte   W96
@  #10 @009   ----------------------------------------
 .byte   W96
@  #10 @010   ----------------------------------------
 .byte   W96
@  #10 @011   ----------------------------------------
 .byte   W96
@  #10 @012   ----------------------------------------
 .byte   N24 ,An2 ,v059
 .byte   W96
@  #10 @013   ----------------------------------------
 .byte   W96
@  #10 @014   ----------------------------------------
 .byte   W96
@  #10 @015   ----------------------------------------
 .byte   W96
@  #10 @016   ----------------------------------------
 .byte   W96
@  #10 @017   ----------------------------------------
 .byte   W96
@  #10 @018   ----------------------------------------
 .byte   W96
@  #10 @019   ----------------------------------------
 .byte   W96
@  #10 @020   ----------------------------------------
 .byte   An2
 .byte   W96
@  #10 @021   ----------------------------------------
 .byte   W96
@  #10 @022   ----------------------------------------
 .byte   W96
@  #10 @023   ----------------------------------------
 .byte   W96
@  #10 @024   ----------------------------------------
 .byte   W96
@  #10 @025   ----------------------------------------
 .byte   W96
@  #10 @026   ----------------------------------------
 .byte   W96
@  #10 @027   ----------------------------------------
 .byte   W96
@  #10 @028   ----------------------------------------
 .byte   W96
@  #10 @029   ----------------------------------------
 .byte   W96
@  #10 @030   ----------------------------------------
 .byte   W96
@  #10 @031   ----------------------------------------
 .byte   W96
@  #10 @032   ----------------------------------------
 .byte   W96
@  #10 @033   ----------------------------------------
 .byte   W96
@  #10 @034   ----------------------------------------
 .byte   W96
@  #10 @035   ----------------------------------------
 .byte   W96
@  #10 @036   ----------------------------------------
 .byte   W96
@  #10 @037   ----------------------------------------
 .byte   W96
@  #10 @038   ----------------------------------------
 .byte   W96
@  #10 @039   ----------------------------------------
 .byte   W96
@  #10 @040   ----------------------------------------
 .byte   W96
@  #10 @041   ----------------------------------------
 .byte   W96
@  #10 @042   ----------------------------------------
 .byte   W96
@  #10 @043   ----------------------------------------
 .byte   W96
@  #10 @044   ----------------------------------------
 .byte   N36
 .byte   W96
@  #10 @045   ----------------------------------------
 .byte   W96
@  #10 @046   ----------------------------------------
 .byte   W96
@  #10 @047   ----------------------------------------
 .byte   W96
@  #10 @048   ----------------------------------------
 .byte   W96
@  #10 @049   ----------------------------------------
 .byte   W96
@  #10 @050   ----------------------------------------
 .byte   W96
@  #10 @051   ----------------------------------------
 .byte   W96
@  #10 @052   ----------------------------------------
 .byte   W96
@  #10 @053   ----------------------------------------
 .byte   W96
@  #10 @054   ----------------------------------------
 .byte   W96
@  #10 @055   ----------------------------------------
 .byte   W96
@  #10 @056   ----------------------------------------
 .byte   W96
@  #10 @057   ----------------------------------------
 .byte   W96
@  #10 @058   ----------------------------------------
 .byte   W96
@  #10 @059   ----------------------------------------
 .byte   W96
@  #10 @060   ----------------------------------------
 .byte   W96
@  #10 @061   ----------------------------------------
 .byte   W96
@  #10 @062   ----------------------------------------
 .byte   W96
@  #10 @063   ----------------------------------------
 .byte   W96
@  #10 @064   ----------------------------------------
 .byte   N30
 .byte   W96
@  #10 @065   ----------------------------------------
 .byte   W96
@  #10 @066   ----------------------------------------
 .byte   W96
@  #10 @067   ----------------------------------------
 .byte   W96
@  #10 @068   ----------------------------------------
 .byte   W96
@  #10 @069   ----------------------------------------
 .byte   W96
@  #10 @070   ----------------------------------------
 .byte   W96
@  #10 @071   ----------------------------------------
 .byte   W96
@  #10 @072   ----------------------------------------
 .byte   W96
@  #10 @073   ----------------------------------------
 .byte   W96
@  #10 @074   ----------------------------------------
 .byte   W96
@  #10 @075   ----------------------------------------
 .byte   W96
@  #10 @076   ----------------------------------------
 .byte   W96
@  #10 @077   ----------------------------------------
 .byte   W96
@  #10 @078   ----------------------------------------
 .byte   W96
@  #10 @079   ----------------------------------------
 .byte   W96
@  #10 @080   ----------------------------------------
 .byte   GOTO
  .word Label_01003026
 .byte   FINE

@**************** Track 11 (Midi-Chn.10) ****************@

song02_011:
@  #11 @000   ----------------------------------------
 .byte   KEYSH , song02_key+0
Label_01025F5A:
 .byte   VOICE , 30
 .byte   VOL , 94*song02_mvl/mxv
 .byte   PAN , c_v+40
 .byte   BENDR, 12
 .byte   W96
@  #11 @001   ----------------------------------------
 .byte   W96
@  #11 @002   ----------------------------------------
 .byte   W96
@  #11 @003   ----------------------------------------
 .byte   W96
@  #11 @004   ----------------------------------------
 .byte   W96
@  #11 @005   ----------------------------------------
 .byte   W96
@  #11 @006   ----------------------------------------
 .byte   W96
@  #11 @007   ----------------------------------------
 .byte   W96
@  #11 @008   ----------------------------------------
 .byte   W96
@  #11 @009   ----------------------------------------
 .byte   W96
@  #11 @010   ----------------------------------------
 .byte   W96
@  #11 @011   ----------------------------------------
 .byte   W96
@  #11 @012   ----------------------------------------
 .byte   W96
@  #11 @013   ----------------------------------------
 .byte   W96
@  #11 @014   ----------------------------------------
 .byte   W96
@  #11 @015   ----------------------------------------
 .byte   W96
@  #11 @016   ----------------------------------------
 .byte   W96
@  #11 @017   ----------------------------------------
 .byte   W96
@  #11 @018   ----------------------------------------
 .byte   W96
@  #11 @019   ----------------------------------------
 .byte   W96
@  #11 @020   ----------------------------------------
 .byte   W96
@  #11 @021   ----------------------------------------
 .byte   W96
@  #11 @022   ----------------------------------------
 .byte   W96
@  #11 @023   ----------------------------------------
 .byte   W96
@  #11 @024   ----------------------------------------
 .byte   W96
@  #11 @025   ----------------------------------------
 .byte   W96
@  #11 @026   ----------------------------------------
 .byte   W96
@  #11 @027   ----------------------------------------
 .byte   W96
@  #11 @028   ----------------------------------------
 .byte   W96
@  #11 @029   ----------------------------------------
 .byte   W96
@  #11 @030   ----------------------------------------
 .byte   W96
@  #11 @031   ----------------------------------------
 .byte   W96
@  #11 @032   ----------------------------------------
 .byte   W96
@  #11 @033   ----------------------------------------
 .byte   W96
@  #11 @034   ----------------------------------------
 .byte   W96
@  #11 @035   ----------------------------------------
 .byte   W96
@  #11 @036   ----------------------------------------
 .byte   W96
@  #11 @037   ----------------------------------------
 .byte   W96
@  #11 @038   ----------------------------------------
 .byte   W96
@  #11 @039   ----------------------------------------
 .byte   W96
@  #11 @040   ----------------------------------------
 .byte   W96
@  #11 @041   ----------------------------------------
 .byte   W96
@  #11 @042   ----------------------------------------
 .byte   W96
@  #11 @043   ----------------------------------------
 .byte   W96
@  #11 @044   ----------------------------------------
Label_01025F8E:
 .byte   N23 ,An1 ,v059
 .byte   W24
 .byte   N11 ,Cn2
 .byte   W18
 .byte   Dn2
 .byte   W18
 .byte   Gn1
 .byte   W12
 .byte   Gn1
 .byte   W12
 .byte   Gs1
 .byte   W12
 .byte   PEND 
@  #11 @045   ----------------------------------------
Label_01025F9E:
 .byte   N23 ,An1 ,v059
 .byte   W24
 .byte   N11 ,Cn2
 .byte   W18
 .byte   Dn2
 .byte   W18
 .byte   Dn2
 .byte   W12
 .byte   Cn2
 .byte   W12
 .byte   Gn1
 .byte   W12
 .byte   PEND 
@  #11 @046   ----------------------------------------
 .byte   PATT
  .word Label_01025F8E
@  #11 @047   ----------------------------------------
Label_01025FB3:
 .byte   N23 ,An1 ,v059
 .byte   W24
 .byte   N17 ,Cn2
 .byte   W18
 .byte   N11 ,Dn2
 .byte   W18
 .byte   Dn2
 .byte   W18
 .byte   Dn2
 .byte   W18
 .byte   PEND 
@  #11 @048   ----------------------------------------
 .byte   PATT
  .word Label_01025F8E
@  #11 @049   ----------------------------------------
 .byte   PATT
  .word Label_01025F9E
@  #11 @050   ----------------------------------------
 .byte   PATT
  .word Label_01025F8E
@  #11 @051   ----------------------------------------
 .byte   PATT
  .word Label_01025FB3
@  #11 @052   ----------------------------------------
 .byte   PATT
  .word Label_01025F8E
@  #11 @053   ----------------------------------------
 .byte   PATT
  .word Label_01025F9E
@  #11 @054   ----------------------------------------
 .byte   PATT
  .word Label_01025F8E
@  #11 @055   ----------------------------------------
 .byte   PATT
  .word Label_01025FB3
@  #11 @056   ----------------------------------------
 .byte   PATT
  .word Label_01025F8E
@  #11 @057   ----------------------------------------
 .byte   PATT
  .word Label_01025F9E
@  #11 @058   ----------------------------------------
 .byte   PATT
  .word Label_01025F8E
@  #11 @059   ----------------------------------------
 .byte   N23 ,An1 ,v059
 .byte   W24
 .byte   N11 ,Cn2
 .byte   W18
 .byte   Dn2
 .byte   W18
 .byte   Fn2
 .byte   W12
 .byte   Gn2
 .byte   W12
 .byte   An2
 .byte   W12
@  #11 @060   ----------------------------------------
 .byte   W96
@  #11 @061   ----------------------------------------
 .byte   W96
@  #11 @062   ----------------------------------------
 .byte   W96
@  #11 @063   ----------------------------------------
 .byte   W96
@  #11 @064   ----------------------------------------
 .byte   W96
@  #11 @065   ----------------------------------------
 .byte   W96
@  #11 @066   ----------------------------------------
 .byte   W96
@  #11 @067   ----------------------------------------
 .byte   W96
@  #11 @068   ----------------------------------------
 .byte   W96
@  #11 @069   ----------------------------------------
 .byte   W96
@  #11 @070   ----------------------------------------
 .byte   W96
@  #11 @071   ----------------------------------------
 .byte   W96
@  #11 @072   ----------------------------------------
 .byte   W96
@  #11 @073   ----------------------------------------
 .byte   W96
@  #11 @074   ----------------------------------------
 .byte   W96
@  #11 @075   ----------------------------------------
 .byte   W96
@  #11 @076   ----------------------------------------
 .byte   W96
@  #11 @077   ----------------------------------------
 .byte   W96
@  #11 @078   ----------------------------------------
 .byte   W96
@  #11 @079   ----------------------------------------
 .byte   W96
@  #11 @080   ----------------------------------------
 .byte   GOTO
  .word Label_01025F5A
 .byte   FINE

@**************** Track 12 (Midi-Chn.11) ****************@

song02_012:
@  #12 @000   ----------------------------------------
 .byte   KEYSH , song02_key+0
Label_01003146:
 .byte   VOICE , 28
 .byte   VOL , 85*song02_mvl/mxv
 .byte   PAN , c_v+40
 .byte   BENDR, 12
 .byte   W96
@  #12 @001   ----------------------------------------
 .byte   W96
@  #12 @002   ----------------------------------------
 .byte   W96
@  #12 @003   ----------------------------------------
 .byte   W96
@  #12 @004   ----------------------------------------
 .byte   W96
@  #12 @005   ----------------------------------------
 .byte   W96
@  #12 @006   ----------------------------------------
 .byte   W96
@  #12 @007   ----------------------------------------
 .byte   W96
@  #12 @008   ----------------------------------------
 .byte   W96
@  #12 @009   ----------------------------------------
 .byte   W96
@  #12 @010   ----------------------------------------
 .byte   W96
@  #12 @011   ----------------------------------------
 .byte   W96
@  #12 @012   ----------------------------------------
 .byte   W96
@  #12 @013   ----------------------------------------
 .byte   W96
@  #12 @014   ----------------------------------------
 .byte   W96
@  #12 @015   ----------------------------------------
 .byte   W96
@  #12 @016   ----------------------------------------
 .byte   W96
@  #12 @017   ----------------------------------------
 .byte   W96
@  #12 @018   ----------------------------------------
 .byte   W96
@  #12 @019   ----------------------------------------
 .byte   W96
@  #12 @020   ----------------------------------------
 .byte   W96
@  #12 @021   ----------------------------------------
 .byte   W96
@  #12 @022   ----------------------------------------
 .byte   W96
@  #12 @023   ----------------------------------------
 .byte   W96
@  #12 @024   ----------------------------------------
 .byte   W96
@  #12 @025   ----------------------------------------
 .byte   W96
@  #12 @026   ----------------------------------------
 .byte   W96
@  #12 @027   ----------------------------------------
 .byte   W96
@  #12 @028   ----------------------------------------
 .byte   W96
@  #12 @029   ----------------------------------------
 .byte   W96
@  #12 @030   ----------------------------------------
 .byte   W96
@  #12 @031   ----------------------------------------
 .byte   W96
@  #12 @032   ----------------------------------------
 .byte   W96
@  #12 @033   ----------------------------------------
 .byte   W96
@  #12 @034   ----------------------------------------
 .byte   W96
@  #12 @035   ----------------------------------------
 .byte   W96
@  #12 @036   ----------------------------------------
 .byte   W96
@  #12 @037   ----------------------------------------
 .byte   W96
@  #12 @038   ----------------------------------------
 .byte   W96
@  #12 @039   ----------------------------------------
 .byte   W96
@  #12 @040   ----------------------------------------
 .byte   W96
@  #12 @041   ----------------------------------------
 .byte   W96
@  #12 @042   ----------------------------------------
 .byte   W96
@  #12 @043   ----------------------------------------
 .byte   W96
@  #12 @044   ----------------------------------------
 .byte   W96
@  #12 @045   ----------------------------------------
 .byte   W96
@  #12 @046   ----------------------------------------
 .byte   W96
@  #12 @047   ----------------------------------------
 .byte   W96
@  #12 @048   ----------------------------------------
 .byte   W96
@  #12 @049   ----------------------------------------
 .byte   W96
@  #12 @050   ----------------------------------------
 .byte   W96
@  #12 @051   ----------------------------------------
 .byte   W96
@  #12 @052   ----------------------------------------
 .byte   W96
@  #12 @053   ----------------------------------------
 .byte   W96
@  #12 @054   ----------------------------------------
 .byte   W96
@  #12 @055   ----------------------------------------
 .byte   W96
@  #12 @056   ----------------------------------------
 .byte   W96
@  #12 @057   ----------------------------------------
 .byte   W96
@  #12 @058   ----------------------------------------
 .byte   W96
@  #12 @059   ----------------------------------------
 .byte   W96
@  #12 @060   ----------------------------------------
Label_0100318A:
 .byte   N11 ,En1 ,v059
 .byte   W24
 .byte   Gn1
 .byte   W18
 .byte   An1
 .byte   W18
 .byte   Dn1
 .byte   W12
 .byte   Dn1
 .byte   W12
 .byte   Ds1
 .byte   W12
 .byte   PEND 
@  #12 @061   ----------------------------------------
 .byte   En1
 .byte   W24
 .byte   Gn1
 .byte   W18
 .byte   As1
 .byte   W18
 .byte   An1
 .byte   W12
 .byte   Gn1
 .byte   W12
 .byte   Ds1
 .byte   W12
@  #12 @062   ----------------------------------------
 .byte   PATT
  .word Label_0100318A
@  #12 @063   ----------------------------------------
 .byte   N11 ,En1 ,v059
 .byte   W24
 .byte   Gn1
 .byte   W18
 .byte   As1
 .byte   W18
 .byte   As1
 .byte   W18
 .byte   As1
 .byte   W18
@  #12 @064   ----------------------------------------
 .byte   W96
@  #12 @065   ----------------------------------------
 .byte   W96
@  #12 @066   ----------------------------------------
 .byte   W96
@  #12 @067   ----------------------------------------
 .byte   W96
@  #12 @068   ----------------------------------------
 .byte   W96
@  #12 @069   ----------------------------------------
 .byte   W96
@  #12 @070   ----------------------------------------
 .byte   W96
@  #12 @071   ----------------------------------------
 .byte   W96
@  #12 @072   ----------------------------------------
 .byte   W96
@  #12 @073   ----------------------------------------
 .byte   W96
@  #12 @074   ----------------------------------------
 .byte   W96
@  #12 @075   ----------------------------------------
 .byte   W96
@  #12 @076   ----------------------------------------
 .byte   W96
@  #12 @077   ----------------------------------------
 .byte   W96
@  #12 @078   ----------------------------------------
 .byte   W96
@  #12 @079   ----------------------------------------
 .byte   W96
@  #12 @080   ----------------------------------------
 .byte   GOTO
  .word Label_01003146
 .byte   FINE

@**************** Track 13 (Midi-Chn.12) ****************@

song02_013:
@  #13 @000   ----------------------------------------
 .byte   KEYSH , song02_key+0
Label_01025DF2:
 .byte   VOICE , 4
 .byte   VOL , 77*song02_mvl/mxv
 .byte   PAN , c_v-16
 .byte   BENDR, 12
 .byte   W96
@  #13 @001   ----------------------------------------
 .byte   W96
@  #13 @002   ----------------------------------------
 .byte   W96
@  #13 @003   ----------------------------------------
 .byte   W96
@  #13 @004   ----------------------------------------
 .byte   W96
@  #13 @005   ----------------------------------------
 .byte   W96
@  #13 @006   ----------------------------------------
 .byte   W96
@  #13 @007   ----------------------------------------
 .byte   W96
@  #13 @008   ----------------------------------------
 .byte   W96
@  #13 @009   ----------------------------------------
 .byte   W96
@  #13 @010   ----------------------------------------
 .byte   W96
@  #13 @011   ----------------------------------------
 .byte   W96
@  #13 @012   ----------------------------------------
 .byte   W96
@  #13 @013   ----------------------------------------
 .byte   W96
@  #13 @014   ----------------------------------------
 .byte   W96
@  #13 @015   ----------------------------------------
 .byte   W96
@  #13 @016   ----------------------------------------
 .byte   W96
@  #13 @017   ----------------------------------------
 .byte   W96
@  #13 @018   ----------------------------------------
 .byte   W96
@  #13 @019   ----------------------------------------
 .byte   W96
@  #13 @020   ----------------------------------------
 .byte   W96
@  #13 @021   ----------------------------------------
 .byte   W96
@  #13 @022   ----------------------------------------
 .byte   W96
@  #13 @023   ----------------------------------------
 .byte   W96
@  #13 @024   ----------------------------------------
 .byte   W96
@  #13 @025   ----------------------------------------
 .byte   W96
@  #13 @026   ----------------------------------------
 .byte   W96
@  #13 @027   ----------------------------------------
 .byte   W96
@  #13 @028   ----------------------------------------
 .byte   W96
@  #13 @029   ----------------------------------------
 .byte   W96
@  #13 @030   ----------------------------------------
 .byte   W96
@  #13 @031   ----------------------------------------
 .byte   W96
@  #13 @032   ----------------------------------------
 .byte   W96
@  #13 @033   ----------------------------------------
 .byte   W96
@  #13 @034   ----------------------------------------
 .byte   W96
@  #13 @035   ----------------------------------------
 .byte   W96
@  #13 @036   ----------------------------------------
 .byte   W96
@  #13 @037   ----------------------------------------
 .byte   W96
@  #13 @038   ----------------------------------------
 .byte   W96
@  #13 @039   ----------------------------------------
 .byte   W96
@  #13 @040   ----------------------------------------
 .byte   W96
@  #13 @041   ----------------------------------------
 .byte   W96
@  #13 @042   ----------------------------------------
 .byte   W96
@  #13 @043   ----------------------------------------
 .byte   W96
@  #13 @044   ----------------------------------------
Label_01025E26:
 .byte   N05 ,En2 ,v059
 .byte   W02
 .byte   N92 ,An2 ,v059 ,gtp1
 .byte   W03
 .byte   N90 ,Cn3
 .byte   W90
 .byte   W01
 .byte   PEND 
@  #13 @045   ----------------------------------------
Label_01025E34:
 .byte   N05 ,Fn2 ,v059
 .byte   W02
 .byte   N92 ,An2 ,v059 ,gtp1
 .byte   W03
 .byte   N90 ,Cn3
 .byte   W90
 .byte   W01
 .byte   PEND 
@  #13 @046   ----------------------------------------
Label_01025E42:
 .byte   N05 ,Gn2 ,v059
 .byte   W02
 .byte   N92 ,An2 ,v059 ,gtp1
 .byte   W03
 .byte   N90 ,Dn3
 .byte   W90
 .byte   W01
 .byte   PEND 
@  #13 @047   ----------------------------------------
Label_01025E50:
 .byte   N05 ,Fs2 ,v059
 .byte   W02
 .byte   N92 ,An2 ,v059 ,gtp1
 .byte   W03
 .byte   N90 ,Dn3
 .byte   W90
 .byte   W01
 .byte   PEND 
@  #13 @048   ----------------------------------------
 .byte   PATT
  .word Label_01025E26
@  #13 @049   ----------------------------------------
 .byte   PATT
  .word Label_01025E34
@  #13 @050   ----------------------------------------
 .byte   PATT
  .word Label_01025E42
@  #13 @051   ----------------------------------------
 .byte   PATT
  .word Label_01025E50
@  #13 @052   ----------------------------------------
 .byte   PATT
  .word Label_01025E26
@  #13 @053   ----------------------------------------
Label_01025E77:
 .byte   N11 ,Fn2 ,v059
 .byte   W02
 .byte   N92 ,An2 ,v059 ,gtp1
 .byte   W03
 .byte   N90 ,Cn3
 .byte   W90
 .byte   W01
 .byte   PEND 
@  #13 @054   ----------------------------------------
Label_01025E85:
 .byte   N11 ,Gn2 ,v059
 .byte   W02
 .byte   N92 ,An2 ,v059 ,gtp1
 .byte   W03
 .byte   N90 ,Dn3
 .byte   W90
 .byte   W01
 .byte   PEND 
@  #13 @055   ----------------------------------------
Label_01025E93:
 .byte   N11 ,Fs2 ,v059
 .byte   W02
 .byte   N92 ,An2 ,v059 ,gtp1
 .byte   W03
 .byte   N90 ,Dn3
 .byte   W90
 .byte   W01
 .byte   PEND 
@  #13 @056   ----------------------------------------
 .byte   N11 ,En2
 .byte   W02
 .byte   N92 ,An2 ,v059 ,gtp1
 .byte   W03
 .byte   N90 ,Cn3
 .byte   W90
 .byte   W01
@  #13 @057   ----------------------------------------
 .byte   PATT
  .word Label_01025E77
@  #13 @058   ----------------------------------------
 .byte   PATT
  .word Label_01025E85
@  #13 @059   ----------------------------------------
 .byte   PATT
  .word Label_01025E93
@  #13 @060   ----------------------------------------
 .byte   W96
@  #13 @061   ----------------------------------------
 .byte   W96
@  #13 @062   ----------------------------------------
 .byte   W96
@  #13 @063   ----------------------------------------
 .byte   W96
@  #13 @064   ----------------------------------------
 .byte   W96
@  #13 @065   ----------------------------------------
 .byte   W96
@  #13 @066   ----------------------------------------
 .byte   W96
@  #13 @067   ----------------------------------------
 .byte   W96
@  #13 @068   ----------------------------------------
 .byte   W96
@  #13 @069   ----------------------------------------
 .byte   W96
@  #13 @070   ----------------------------------------
 .byte   W96
@  #13 @071   ----------------------------------------
 .byte   W96
@  #13 @072   ----------------------------------------
 .byte   W96
@  #13 @073   ----------------------------------------
 .byte   W96
@  #13 @074   ----------------------------------------
 .byte   W96
@  #13 @075   ----------------------------------------
 .byte   W96
@  #13 @076   ----------------------------------------
 .byte   W96
@  #13 @077   ----------------------------------------
 .byte   W96
@  #13 @078   ----------------------------------------
 .byte   W96
@  #13 @079   ----------------------------------------
 .byte   W96
@  #13 @080   ----------------------------------------
 .byte   GOTO
  .word Label_01025DF2
 .byte   FINE

@**************** Track 14 (Midi-Chn.13) ****************@

song02_014:
@  #14 @000   ----------------------------------------
 .byte   KEYSH , song02_key+0
Label_01025EDA:
 .byte   VOICE , 4
 .byte   VOL , 58*song02_mvl/mxv
 .byte   PAN , c_v-16
 .byte   BENDR, 12
 .byte   W96
@  #14 @001   ----------------------------------------
 .byte   W96
@  #14 @002   ----------------------------------------
 .byte   W96
@  #14 @003   ----------------------------------------
 .byte   W96
@  #14 @004   ----------------------------------------
 .byte   W96
@  #14 @005   ----------------------------------------
 .byte   W96
@  #14 @006   ----------------------------------------
 .byte   W96
@  #14 @007   ----------------------------------------
 .byte   W96
@  #14 @008   ----------------------------------------
 .byte   W96
@  #14 @009   ----------------------------------------
 .byte   W96
@  #14 @010   ----------------------------------------
 .byte   W96
@  #14 @011   ----------------------------------------
 .byte   W96
@  #14 @012   ----------------------------------------
 .byte   W96
@  #14 @013   ----------------------------------------
 .byte   W96
@  #14 @014   ----------------------------------------
 .byte   W96
@  #14 @015   ----------------------------------------
 .byte   W96
@  #14 @016   ----------------------------------------
 .byte   W96
@  #14 @017   ----------------------------------------
 .byte   W96
@  #14 @018   ----------------------------------------
 .byte   W96
@  #14 @019   ----------------------------------------
 .byte   W96
@  #14 @020   ----------------------------------------
 .byte   W96
@  #14 @021   ----------------------------------------
 .byte   W96
@  #14 @022   ----------------------------------------
 .byte   W96
@  #14 @023   ----------------------------------------
 .byte   W96
@  #14 @024   ----------------------------------------
 .byte   W96
@  #14 @025   ----------------------------------------
 .byte   W96
@  #14 @026   ----------------------------------------
 .byte   W96
@  #14 @027   ----------------------------------------
 .byte   W96
@  #14 @028   ----------------------------------------
 .byte   W96
@  #14 @029   ----------------------------------------
 .byte   W96
@  #14 @030   ----------------------------------------
 .byte   W96
@  #14 @031   ----------------------------------------
 .byte   W96
@  #14 @032   ----------------------------------------
 .byte   W96
@  #14 @033   ----------------------------------------
 .byte   W96
@  #14 @034   ----------------------------------------
 .byte   W96
@  #14 @035   ----------------------------------------
 .byte   W96
@  #14 @036   ----------------------------------------
 .byte   W96
@  #14 @037   ----------------------------------------
 .byte   W96
@  #14 @038   ----------------------------------------
 .byte   W96
@  #14 @039   ----------------------------------------
 .byte   W96
@  #14 @040   ----------------------------------------
 .byte   W96
@  #14 @041   ----------------------------------------
 .byte   W96
@  #14 @042   ----------------------------------------
 .byte   W96
@  #14 @043   ----------------------------------------
 .byte   W96
@  #14 @044   ----------------------------------------
 .byte   W96
@  #14 @045   ----------------------------------------
 .byte   W96
@  #14 @046   ----------------------------------------
 .byte   W96
@  #14 @047   ----------------------------------------
Label_01025F11:
 .byte   N11 ,An2 ,v059
 .byte   W12
 .byte   Bn2
 .byte   W12
 .byte   Cn3
 .byte   W12
 .byte   Dn3
 .byte   W12
 .byte   Cn3
 .byte   W12
 .byte   Bn2
 .byte   W12
 .byte   N23 ,An2
 .byte   W24
 .byte   PEND 
@  #14 @048   ----------------------------------------
 .byte   W96
@  #14 @049   ----------------------------------------
 .byte   W96
@  #14 @050   ----------------------------------------
 .byte   W96
@  #14 @051   ----------------------------------------
 .byte   PATT
  .word Label_01025F11
@  #14 @052   ----------------------------------------
 .byte   W96
@  #14 @053   ----------------------------------------
 .byte   W96
@  #14 @054   ----------------------------------------
 .byte   W96
@  #14 @055   ----------------------------------------
 .byte   PATT
  .word Label_01025F11
@  #14 @056   ----------------------------------------
 .byte   W96
@  #14 @057   ----------------------------------------
 .byte   W96
@  #14 @058   ----------------------------------------
 .byte   W96
@  #14 @059   ----------------------------------------
 .byte   PATT
  .word Label_01025F11
@  #14 @060   ----------------------------------------
 .byte   W96
@  #14 @061   ----------------------------------------
 .byte   W96
@  #14 @062   ----------------------------------------
 .byte   W96
@  #14 @063   ----------------------------------------
 .byte   W96
@  #14 @064   ----------------------------------------
 .byte   W96
@  #14 @065   ----------------------------------------
 .byte   W96
@  #14 @066   ----------------------------------------
 .byte   W96
@  #14 @067   ----------------------------------------
 .byte   W96
@  #14 @068   ----------------------------------------
 .byte   W96
@  #14 @069   ----------------------------------------
 .byte   W96
@  #14 @070   ----------------------------------------
 .byte   W96
@  #14 @071   ----------------------------------------
 .byte   W96
@  #14 @072   ----------------------------------------
 .byte   W96
@  #14 @073   ----------------------------------------
 .byte   W96
@  #14 @074   ----------------------------------------
 .byte   W96
@  #14 @075   ----------------------------------------
 .byte   W96
@  #14 @076   ----------------------------------------
 .byte   W96
@  #14 @077   ----------------------------------------
 .byte   W96
@  #14 @078   ----------------------------------------
 .byte   W96
@  #14 @079   ----------------------------------------
 .byte   W96
@  #14 @080   ----------------------------------------
 .byte   GOTO
  .word Label_01025EDA
 .byte   FINE

@**************** Track 15 (Midi-Chn.14) ****************@

song02_015:
@  #15 @000   ----------------------------------------
 .byte   KEYSH , song02_key+0
Label_01025D26:
 .byte   VOICE , 63
 .byte   VOL , 90*song02_mvl/mxv
 .byte   PAN , c_v-39
 .byte   BENDR, 12
 .byte   W96
@  #15 @001   ----------------------------------------
 .byte   W96
@  #15 @002   ----------------------------------------
 .byte   W96
@  #15 @003   ----------------------------------------
 .byte   W96
@  #15 @004   ----------------------------------------
 .byte   W96
@  #15 @005   ----------------------------------------
 .byte   W96
@  #15 @006   ----------------------------------------
 .byte   W96
@  #15 @007   ----------------------------------------
 .byte   W96
@  #15 @008   ----------------------------------------
 .byte   W96
@  #15 @009   ----------------------------------------
 .byte   W96
@  #15 @010   ----------------------------------------
 .byte   W96
@  #15 @011   ----------------------------------------
 .byte   W96
@  #15 @012   ----------------------------------------
 .byte   W96
@  #15 @013   ----------------------------------------
 .byte   W96
@  #15 @014   ----------------------------------------
 .byte   W96
@  #15 @015   ----------------------------------------
 .byte   W96
@  #15 @016   ----------------------------------------
 .byte   W96
@  #15 @017   ----------------------------------------
 .byte   W96
@  #15 @018   ----------------------------------------
 .byte   W96
@  #15 @019   ----------------------------------------
 .byte   W96
@  #15 @020   ----------------------------------------
 .byte   W96
@  #15 @021   ----------------------------------------
 .byte   W96
@  #15 @022   ----------------------------------------
 .byte   W96
@  #15 @023   ----------------------------------------
 .byte   W96
@  #15 @024   ----------------------------------------
 .byte   W96
@  #15 @025   ----------------------------------------
 .byte   W96
@  #15 @026   ----------------------------------------
 .byte   W96
@  #15 @027   ----------------------------------------
 .byte   W96
@  #15 @028   ----------------------------------------
Label_01025D4A:
 .byte   N17 ,En2 ,v059
 .byte   W18
 .byte   Gn2
 .byte   W18
 .byte   An2
 .byte   W18
 .byte   As2
 .byte   W18
 .byte   N11 ,An2
 .byte   W12
 .byte   Gn2
 .byte   W12
 .byte   PEND 
@  #15 @029   ----------------------------------------
Label_01025D5A:
 .byte   N17 ,En2 ,v059
 .byte   W18
 .byte   Gn2
 .byte   W18
 .byte   An2
 .byte   W18
 .byte   Cs2
 .byte   W18
 .byte   N11 ,Dn2
 .byte   W12
 .byte   Ds2
 .byte   W12
 .byte   PEND 
@  #15 @030   ----------------------------------------
 .byte   PATT
  .word Label_01025D4A
@  #15 @031   ----------------------------------------
Label_01025D6F:
 .byte   N23 ,En2 ,v059
 .byte   W36
 .byte   N05 ,Dn2
 .byte   W06
 .byte   N23 ,En2
 .byte   W30
 .byte   Dn2
 .byte   W24
 .byte   PEND 
@  #15 @032   ----------------------------------------
 .byte   PATT
  .word Label_01025D4A
@  #15 @033   ----------------------------------------
 .byte   PATT
  .word Label_01025D5A
@  #15 @034   ----------------------------------------
 .byte   PATT
  .word Label_01025D4A
@  #15 @035   ----------------------------------------
Label_01025D8B:
 .byte   N17 ,En2 ,v059
 .byte   W18
 .byte   Gn2
 .byte   W18
 .byte   N11 ,An2
 .byte   W12
 .byte   N17 ,Cn3
 .byte   W18
 .byte   Dn3
 .byte   W18
 .byte   N11 ,En3
 .byte   W12
 .byte   PEND 
@  #15 @036   ----------------------------------------
 .byte   PATT
  .word Label_01025D4A
@  #15 @037   ----------------------------------------
 .byte   PATT
  .word Label_01025D5A
@  #15 @038   ----------------------------------------
 .byte   PATT
  .word Label_01025D4A
@  #15 @039   ----------------------------------------
 .byte   PATT
  .word Label_01025D6F
@  #15 @040   ----------------------------------------
 .byte   PATT
  .word Label_01025D4A
@  #15 @041   ----------------------------------------
 .byte   PATT
  .word Label_01025D5A
@  #15 @042   ----------------------------------------
 .byte   PATT
  .word Label_01025D4A
@  #15 @043   ----------------------------------------
 .byte   PATT
  .word Label_01025D8B
@  #15 @044   ----------------------------------------
 .byte   W96
@  #15 @045   ----------------------------------------
 .byte   W96
@  #15 @046   ----------------------------------------
 .byte   W96
@  #15 @047   ----------------------------------------
 .byte   W96
@  #15 @048   ----------------------------------------
 .byte   W96
@  #15 @049   ----------------------------------------
 .byte   W96
@  #15 @050   ----------------------------------------
 .byte   W96
@  #15 @051   ----------------------------------------
 .byte   W96
@  #15 @052   ----------------------------------------
 .byte   W96
@  #15 @053   ----------------------------------------
 .byte   W96
@  #15 @054   ----------------------------------------
 .byte   W96
@  #15 @055   ----------------------------------------
 .byte   W96
@  #15 @056   ----------------------------------------
 .byte   W96
@  #15 @057   ----------------------------------------
 .byte   W96
@  #15 @058   ----------------------------------------
 .byte   W96
@  #15 @059   ----------------------------------------
 .byte   W96
@  #15 @060   ----------------------------------------
 .byte   W96
@  #15 @061   ----------------------------------------
 .byte   W96
@  #15 @062   ----------------------------------------
 .byte   W96
@  #15 @063   ----------------------------------------
 .byte   W96
@  #15 @064   ----------------------------------------
 .byte   W96
@  #15 @065   ----------------------------------------
 .byte   W96
@  #15 @066   ----------------------------------------
 .byte   W96
@  #15 @067   ----------------------------------------
 .byte   W96
@  #15 @068   ----------------------------------------
 .byte   W96
@  #15 @069   ----------------------------------------
 .byte   W96
@  #15 @070   ----------------------------------------
 .byte   W96
@  #15 @071   ----------------------------------------
 .byte   W96
@  #15 @072   ----------------------------------------
 .byte   W96
@  #15 @073   ----------------------------------------
 .byte   W96
@  #15 @074   ----------------------------------------
 .byte   W96
@  #15 @075   ----------------------------------------
 .byte   W96
@  #15 @076   ----------------------------------------
 .byte   W96
@  #15 @077   ----------------------------------------
 .byte   W96
@  #15 @078   ----------------------------------------
 .byte   W96
@  #15 @079   ----------------------------------------
 .byte   W96
@  #15 @080   ----------------------------------------
 .byte   GOTO
  .word Label_01025D26
 .byte   FINE

@**************** Track 16 (Midi-Chn.15) ****************@

song02_016:
@  #16 @000   ----------------------------------------
 .byte   KEYSH , song02_key+0
Label_0102614A:
 .byte   VOICE , 127
 .byte   VOL , 68*song02_mvl/mxv
 .byte   BENDR, 12
 .byte   W96
@  #16 @001   ----------------------------------------
 .byte   W96
@  #16 @002   ----------------------------------------
 .byte   W96
@  #16 @003   ----------------------------------------
 .byte   W96
@  #16 @004   ----------------------------------------
 .byte   W96
@  #16 @005   ----------------------------------------
 .byte   W96
@  #16 @006   ----------------------------------------
 .byte   W96
@  #16 @007   ----------------------------------------
 .byte   W96
@  #16 @008   ----------------------------------------
 .byte   W96
@  #16 @009   ----------------------------------------
 .byte   W96
@  #16 @010   ----------------------------------------
 .byte   W96
@  #16 @011   ----------------------------------------
 .byte   W96
@  #16 @012   ----------------------------------------
 .byte   W96
@  #16 @013   ----------------------------------------
 .byte   W96
@  #16 @014   ----------------------------------------
 .byte   W96
@  #16 @015   ----------------------------------------
 .byte   W96
@  #16 @016   ----------------------------------------
 .byte   W96
@  #16 @017   ----------------------------------------
 .byte   W96
@  #16 @018   ----------------------------------------
 .byte   W96
@  #16 @019   ----------------------------------------
 .byte   W96
@  #16 @020   ----------------------------------------
 .byte   W96
@  #16 @021   ----------------------------------------
 .byte   W96
@  #16 @022   ----------------------------------------
 .byte   W96
@  #16 @023   ----------------------------------------
 .byte   W96
@  #16 @024   ----------------------------------------
 .byte   W96
@  #16 @025   ----------------------------------------
 .byte   W96
@  #16 @026   ----------------------------------------
 .byte   W96
@  #16 @027   ----------------------------------------
 .byte   W96
@  #16 @028   ----------------------------------------
 .byte   W96
@  #16 @029   ----------------------------------------
 .byte   W96
@  #16 @030   ----------------------------------------
 .byte   W96
@  #16 @031   ----------------------------------------
 .byte   W96
@  #16 @032   ----------------------------------------
 .byte   W96
@  #16 @033   ----------------------------------------
 .byte   W96
@  #16 @034   ----------------------------------------
 .byte   W96
@  #16 @035   ----------------------------------------
 .byte   W96
@  #16 @036   ----------------------------------------
 .byte   W96
@  #16 @037   ----------------------------------------
 .byte   W96
@  #16 @038   ----------------------------------------
 .byte   W96
@  #16 @039   ----------------------------------------
 .byte   W96
@  #16 @040   ----------------------------------------
 .byte   W96
@  #16 @041   ----------------------------------------
 .byte   W96
@  #16 @042   ----------------------------------------
 .byte   W96
@  #16 @043   ----------------------------------------
 .byte   W96
@  #16 @044   ----------------------------------------
 .byte   N12 ,Cn3 ,v059
 .byte   W12
 .byte   N24 ,Fs3
 .byte   N01 ,Cn3
 .byte   W06
 .byte   Cn3
 .byte   W06
 .byte   Cn3
 .byte   W12
 .byte   Fs3
 .byte   N01 ,Cn3
 .byte   W06
 .byte   Cn3
 .byte   W06
 .byte   Cn3
 .byte   W12
 .byte   Fs3
 .byte   N01 ,Cn3
 .byte   W06
 .byte   Cn3
 .byte   W06
 .byte   Cn3
 .byte   W12
 .byte   Fs3
 .byte   N01 ,Cn3
 .byte   W06
 .byte   Cn3
 .byte   W06
@  #16 @045   ----------------------------------------
Label_0102619F:
 .byte   N01 ,Cn3 ,v059
 .byte   W12
 .byte   Fs3
 .byte   N01 ,Cn3
 .byte   W06
 .byte   Cn3
 .byte   W06
 .byte   Cn3
 .byte   W12
 .byte   Fs3
 .byte   N01 ,Cn3
 .byte   W06
 .byte   Cn3
 .byte   W06
 .byte   Cn3
 .byte   W12
 .byte   Fs3
 .byte   N01 ,Cn3
 .byte   W06
 .byte   Cn3
 .byte   W06
 .byte   Cn3
 .byte   W12
 .byte   Fs3
 .byte   N01 ,Cn3
 .byte   W06
 .byte   Cn3
 .byte   W06
 .byte   PEND 
@  #16 @046   ----------------------------------------
 .byte   PATT
  .word Label_0102619F
@  #16 @047   ----------------------------------------
 .byte   PATT
  .word Label_0102619F
@  #16 @048   ----------------------------------------
 .byte   PATT
  .word Label_0102619F
@  #16 @049   ----------------------------------------
 .byte   PATT
  .word Label_0102619F
@  #16 @050   ----------------------------------------
 .byte   PATT
  .word Label_0102619F
@  #16 @051   ----------------------------------------
 .byte   PATT
  .word Label_0102619F
@  #16 @052   ----------------------------------------
 .byte   PATT
  .word Label_0102619F
@  #16 @053   ----------------------------------------
 .byte   PATT
  .word Label_0102619F
@  #16 @054   ----------------------------------------
 .byte   PATT
  .word Label_0102619F
@  #16 @055   ----------------------------------------
 .byte   PATT
  .word Label_0102619F
@  #16 @056   ----------------------------------------
 .byte   PATT
  .word Label_0102619F
@  #16 @057   ----------------------------------------
 .byte   PATT
  .word Label_0102619F
@  #16 @058   ----------------------------------------
 .byte   PATT
  .word Label_0102619F
@  #16 @059   ----------------------------------------
 .byte   PATT
  .word Label_0102619F
@  #16 @060   ----------------------------------------
 .byte   W96
@  #16 @061   ----------------------------------------
 .byte   W96
@  #16 @062   ----------------------------------------
 .byte   W96
@  #16 @063   ----------------------------------------
 .byte   W96
@  #16 @064   ----------------------------------------
 .byte   W96
@  #16 @065   ----------------------------------------
 .byte   W96
@  #16 @066   ----------------------------------------
 .byte   W96
@  #16 @067   ----------------------------------------
 .byte   W96
@  #16 @068   ----------------------------------------
 .byte   W96
@  #16 @069   ----------------------------------------
 .byte   W96
@  #16 @070   ----------------------------------------
 .byte   W96
@  #16 @071   ----------------------------------------
 .byte   W96
@  #16 @072   ----------------------------------------
 .byte   W96
@  #16 @073   ----------------------------------------
 .byte   W96
@  #16 @074   ----------------------------------------
 .byte   W96
@  #16 @075   ----------------------------------------
 .byte   W96
@  #16 @076   ----------------------------------------
 .byte   W96
@  #16 @077   ----------------------------------------
 .byte   W96
@  #16 @078   ----------------------------------------
 .byte   W96
@  #16 @079   ----------------------------------------
 .byte   W96
@  #16 @080   ----------------------------------------
 .byte   GOTO
  .word Label_0102614A
 .byte   FINE

@******************************************************@
	.align	2

song02:
	.byte	16	@ NumTrks
	.byte	0	@ NumBlks
	.byte	song02_pri	@ Priority
	.byte	song02_rev	@ Reverb.
    
	.word	song02_grp
    
	.word	song02_001
	.word	song02_002
	.word	song02_003
	.word	song02_004
	.word	song02_005
	.word	song02_006
	.word	song02_007
	.word	song02_008
	.word	song02_009
	.word	song02_010
	.word	song02_011
	.word	song02_012
	.word	song02_013
	.word	song02_014
	.word	song02_015
	.word	song02_016

	.end
