	.include "MPlayDef.s"

	.equ	song02_grp, voicegroup000
	.equ	song02_pri, 0
	.equ	song02_rev, 0
	.equ	song02_mvl, 127
	.equ	song02_key, 0
	.equ	song02_tbs, 1
	.equ	song02_exg, 0
	.equ	song02_cmp, 1

	.section .rodata
	.global	song02
	.align	2


@**************** Track 1 (Midi-Chn.0) ****************@

song02_001:
@  #01 @000   ----------------------------------------
 .byte   KEYSH , song02_key+0
 .byte   TEMPO , 184*song02_tbs/2
Label_01008060:
 .byte   VOICE , 36
 .byte   VOL , 53*song02_mvl/mxv
 .byte   N12 ,Gn0 ,v085
 .byte   BENDR, 12
 .byte   W12
 .byte   N12
 .byte   W12
 .byte   Dn1
 .byte   W12
 .byte   Gn0
 .byte   W12
 .byte   Dn1
 .byte   W12
 .byte   Gn1
 .byte   W12
 .byte   GnM1
 .byte   W12
 .byte   N24 ,As1
 .byte   W12
@  #01 @001   ----------------------------------------
Label_01008079:
 .byte   W12
 .byte   N12 ,As1 ,v085
 .byte   W12
 .byte   As0
 .byte   W12
 .byte   N24 ,As1
 .byte   W24
 .byte   N12
 .byte   W12
 .byte   As1
 .byte   W12
 .byte   AsM1
 .byte   W12
 .byte   PEND 
@  #01 @002   ----------------------------------------
Label_0100808A:
 .byte   N12 ,Fn1 ,v085
 .byte   W12
 .byte   Fn0
 .byte   W12
 .byte   FnM1
 .byte   W12
 .byte   N24 ,As1
 .byte   W24
 .byte   N12 ,As0
 .byte   W12
 .byte   AsM1
 .byte   W12
 .byte   N24 ,Cn2
 .byte   W12
 .byte   PEND 
@  #01 @003   ----------------------------------------
Label_0100809E:
 .byte   W12
 .byte   N12 ,Cn1 ,v085
 .byte   W12
 .byte   Cn0
 .byte   W12
 .byte   N36 ,Ds1
 .byte   W36
 .byte   N24 ,Fn1
 .byte   W24
 .byte   PEND 
@  #01 @004   ----------------------------------------
Label_010080AC:
 .byte   N18 ,Gn0 ,v085
 .byte   W18
 .byte   As0
 .byte   W18
 .byte   N12 ,Dn1
 .byte   W12
 .byte   N18 ,Gs0
 .byte   W18
 .byte   Cn1
 .byte   W18
 .byte   N12 ,Ds1
 .byte   W12
 .byte   PEND 
@  #01 @005   ----------------------------------------
 .byte   PATT
  .word Label_010080AC
@  #01 @006   ----------------------------------------
 .byte   PATT
  .word Label_010080AC
@  #01 @007   ----------------------------------------
Label_010080C8:
 .byte   N12 ,Dn1 ,v085
 .byte   W12
 .byte   Ds1
 .byte   W12
 .byte   Dn1
 .byte   W12
 .byte   Cn1
 .byte   W12
 .byte   Dn1
 .byte   W12
 .byte   Ds1
 .byte   W12
 .byte   Dn1
 .byte   W12
 .byte   Cn1
 .byte   W12
 .byte   PEND 
@  #01 @008   ----------------------------------------
Label_010080DB:
 .byte   N12 ,Gn0 ,v085
 .byte   W12
 .byte   Gn0
 .byte   W12
 .byte   Dn1
 .byte   W12
 .byte   Gn0
 .byte   W12
 .byte   Dn1
 .byte   W12
 .byte   Gn1
 .byte   W12
 .byte   GnM1
 .byte   W12
 .byte   N24 ,As1
 .byte   W12
 .byte   PEND 
@  #01 @009   ----------------------------------------
 .byte   PATT
  .word Label_01008079
@  #01 @010   ----------------------------------------
Label_010080F4:
 .byte   N12 ,Fn1 ,v085
 .byte   W12
 .byte   Fn1
 .byte   W12
 .byte   FnM1
 .byte   W12
 .byte   N24 ,Fn1
 .byte   W24
 .byte   N12
 .byte   W12
 .byte   Fn0
 .byte   W12
 .byte   N24 ,Cn1
 .byte   W12
 .byte   PEND 
@  #01 @011   ----------------------------------------
Label_01008107:
 .byte   W12
 .byte   N12 ,Cn1 ,v085
 .byte   W12
 .byte   Cn0
 .byte   W12
 .byte   N24 ,Cn1
 .byte   W24
 .byte   N12
 .byte   W12
 .byte   Cn1
 .byte   W12
 .byte   Cn1
 .byte   W12
 .byte   PEND 
@  #01 @012   ----------------------------------------
 .byte   PATT
  .word Label_010080DB
@  #01 @013   ----------------------------------------
 .byte   PATT
  .word Label_01008079
@  #01 @014   ----------------------------------------
 .byte   PATT
  .word Label_0100808A
@  #01 @015   ----------------------------------------
 .byte   PATT
  .word Label_0100809E
@  #01 @016   ----------------------------------------
 .byte   PATT
  .word Label_010080DB
@  #01 @017   ----------------------------------------
 .byte   PATT
  .word Label_01008079
@  #01 @018   ----------------------------------------
 .byte   PATT
  .word Label_010080F4
@  #01 @019   ----------------------------------------
 .byte   PATT
  .word Label_01008107
@  #01 @020   ----------------------------------------
 .byte   PATT
  .word Label_010080DB
@  #01 @021   ----------------------------------------
 .byte   PATT
  .word Label_01008079
@  #01 @022   ----------------------------------------
 .byte   PATT
  .word Label_0100808A
@  #01 @023   ----------------------------------------
 .byte   PATT
  .word Label_0100809E
@  #01 @024   ----------------------------------------
 .byte   PATT
  .word Label_010080AC
@  #01 @025   ----------------------------------------
 .byte   PATT
  .word Label_010080AC
@  #01 @026   ----------------------------------------
 .byte   PATT
  .word Label_010080AC
@  #01 @027   ----------------------------------------
 .byte   PATT
  .word Label_010080C8
@  #01 @028   ----------------------------------------
 .byte   PATT
  .word Label_010080AC
@  #01 @029   ----------------------------------------
 .byte   PATT
  .word Label_010080AC
@  #01 @030   ----------------------------------------
 .byte   PATT
  .word Label_010080AC
@  #01 @031   ----------------------------------------
Label_01008177:
 .byte   N18 ,Gn0 ,v085
 .byte   W18
 .byte   As0
 .byte   W18
 .byte   N12 ,Dn1
 .byte   W12
 .byte   N18 ,Gn0
 .byte   W18
 .byte   As0
 .byte   W18
 .byte   N12 ,Dn1
 .byte   W12
 .byte   PEND 
@  #01 @032   ----------------------------------------
 .byte   PATT
  .word Label_010080AC
@  #01 @033   ----------------------------------------
 .byte   PATT
  .word Label_010080AC
@  #01 @034   ----------------------------------------
 .byte   PATT
  .word Label_010080AC
@  #01 @035   ----------------------------------------
 .byte   PATT
  .word Label_010080C8
@  #01 @036   ----------------------------------------
 .byte   PATT
  .word Label_010080AC
@  #01 @037   ----------------------------------------
 .byte   PATT
  .word Label_010080AC
@  #01 @038   ----------------------------------------
 .byte   PATT
  .word Label_010080AC
@  #01 @039   ----------------------------------------
Label_010081AC:
 .byte   N18 ,Gn0 ,v085
 .byte   W18
 .byte   N06 ,As0
 .byte   W06
 .byte   N18 ,Gn0
 .byte   W18
 .byte   N06 ,As0
 .byte   W06
 .byte   N18 ,Gn0
 .byte   W18
 .byte   N06 ,As0
 .byte   W06
 .byte   N18 ,Gn0
 .byte   W18
 .byte   N06 ,As0
 .byte   W06
 .byte   PEND 
@  #01 @040   ----------------------------------------
 .byte   PATT
  .word Label_010080DB
@  #01 @041   ----------------------------------------
 .byte   PATT
  .word Label_01008079
@  #01 @042   ----------------------------------------
 .byte   PATT
  .word Label_010080F4
@  #01 @043   ----------------------------------------
 .byte   PATT
  .word Label_01008107
@  #01 @044   ----------------------------------------
 .byte   PATT
  .word Label_010080DB
@  #01 @045   ----------------------------------------
 .byte   PATT
  .word Label_01008079
@  #01 @046   ----------------------------------------
 .byte   PATT
  .word Label_0100808A
@  #01 @047   ----------------------------------------
 .byte   PATT
  .word Label_0100809E
@  #01 @048   ----------------------------------------
 .byte   PATT
  .word Label_010080DB
@  #01 @049   ----------------------------------------
 .byte   PATT
  .word Label_01008079
@  #01 @050   ----------------------------------------
 .byte   PATT
  .word Label_010080F4
@  #01 @051   ----------------------------------------
 .byte   PATT
  .word Label_01008107
@  #01 @052   ----------------------------------------
 .byte   PATT
  .word Label_010080DB
@  #01 @053   ----------------------------------------
 .byte   PATT
  .word Label_01008079
@  #01 @054   ----------------------------------------
 .byte   PATT
  .word Label_0100808A
@  #01 @055   ----------------------------------------
 .byte   PATT
  .word Label_0100809E
@  #01 @056   ----------------------------------------
 .byte   W96
@  #01 @057   ----------------------------------------
 .byte   W96
@  #01 @058   ----------------------------------------
 .byte   W96
@  #01 @059   ----------------------------------------
 .byte   W96
@  #01 @060   ----------------------------------------
 .byte   W96
@  #01 @061   ----------------------------------------
 .byte   W96
@  #01 @062   ----------------------------------------
 .byte   W96
@  #01 @063   ----------------------------------------
 .byte   W96
@  #01 @064   ----------------------------------------
 .byte   PATT
  .word Label_010080AC
@  #01 @065   ----------------------------------------
 .byte   PATT
  .word Label_010080AC
@  #01 @066   ----------------------------------------
 .byte   PATT
  .word Label_010080AC
@  #01 @067   ----------------------------------------
 .byte   PATT
  .word Label_010080C8
@  #01 @068   ----------------------------------------
 .byte   PATT
  .word Label_010080AC
@  #01 @069   ----------------------------------------
 .byte   PATT
  .word Label_010080AC
@  #01 @070   ----------------------------------------
 .byte   PATT
  .word Label_010080AC
@  #01 @071   ----------------------------------------
 .byte   PATT
  .word Label_01008177
@  #01 @072   ----------------------------------------
 .byte   PATT
  .word Label_010080AC
@  #01 @073   ----------------------------------------
 .byte   PATT
  .word Label_010080AC
@  #01 @074   ----------------------------------------
 .byte   PATT
  .word Label_010080AC
@  #01 @075   ----------------------------------------
 .byte   PATT
  .word Label_010080C8
@  #01 @076   ----------------------------------------
 .byte   PATT
  .word Label_010080AC
@  #01 @077   ----------------------------------------
 .byte   PATT
  .word Label_010080AC
@  #01 @078   ----------------------------------------
 .byte   PATT
  .word Label_010080AC
@  #01 @079   ----------------------------------------
 .byte   PATT
  .word Label_010081AC
@  #01 @080   ----------------------------------------
 .byte   PATT
  .word Label_010080AC
@  #01 @081   ----------------------------------------
 .byte   PATT
  .word Label_010080AC
@  #01 @082   ----------------------------------------
 .byte   PATT
  .word Label_010080AC
@  #01 @083   ----------------------------------------
 .byte   PATT
  .word Label_010080C8
@  #01 @084   ----------------------------------------
 .byte   PATT
  .word Label_010080AC
@  #01 @085   ----------------------------------------
 .byte   PATT
  .word Label_010080AC
@  #01 @086   ----------------------------------------
 .byte   PATT
  .word Label_010080AC
@  #01 @087   ----------------------------------------
 .byte   PATT
  .word Label_01008177
@  #01 @088   ----------------------------------------
 .byte   PATT
  .word Label_010080AC
@  #01 @089   ----------------------------------------
 .byte   PATT
  .word Label_010080AC
@  #01 @090   ----------------------------------------
 .byte   PATT
  .word Label_010080AC
@  #01 @091   ----------------------------------------
 .byte   PATT
  .word Label_010080C8
@  #01 @092   ----------------------------------------
 .byte   PATT
  .word Label_010080AC
@  #01 @093   ----------------------------------------
 .byte   PATT
  .word Label_010080AC
@  #01 @094   ----------------------------------------
 .byte   PATT
  .word Label_010080AC
@  #01 @095   ----------------------------------------
 .byte   PATT
  .word Label_010081AC
@  #01 @096   ----------------------------------------
 .byte   PATT
  .word Label_010080AC
@  #01 @097   ----------------------------------------
 .byte   PATT
  .word Label_010080AC
@  #01 @098   ----------------------------------------
 .byte   PATT
  .word Label_010080AC
@  #01 @099   ----------------------------------------
 .byte   PATT
  .word Label_010080C8
@  #01 @100   ----------------------------------------
 .byte   PATT
  .word Label_010080AC
@  #01 @101   ----------------------------------------
 .byte   PATT
  .word Label_010080AC
@  #01 @102   ----------------------------------------
 .byte   PATT
  .word Label_010080AC
@  #01 @103   ----------------------------------------
 .byte   PATT
  .word Label_01008177
@  #01 @104   ----------------------------------------
 .byte   PATT
  .word Label_010080AC
@  #01 @105   ----------------------------------------
 .byte   PATT
  .word Label_010080AC
@  #01 @106   ----------------------------------------
 .byte   PATT
  .word Label_010080AC
@  #01 @107   ----------------------------------------
 .byte   PATT
  .word Label_010080C8
@  #01 @108   ----------------------------------------
 .byte   PATT
  .word Label_010080AC
@  #01 @109   ----------------------------------------
 .byte   PATT
  .word Label_010080AC
@  #01 @110   ----------------------------------------
 .byte   PATT
  .word Label_010080AC
@  #01 @111   ----------------------------------------
Label_01008309:
 .byte   N18 ,Gn0 ,v085
 .byte   W18
 .byte   N06 ,As0
 .byte   W06
 .byte   N18 ,Gn0
 .byte   W18
 .byte   N06 ,As0
 .byte   W06
 .byte   N18 ,Gn0
 .byte   W18
 .byte   N06 ,As0
 .byte   W06
 .byte   N18 ,Gn0
 .byte   W18
 .byte   N05 ,As0
 .byte   W06
 .byte   PEND 
@  #01 @112   ----------------------------------------
 .byte   GOTO
  .word Label_01008060
@  #01 @113   ----------------------------------------
 .byte   W96
 .byte   FINE

@**************** Track 2 (Midi-Chn.1) ****************@

song02_002:
@  #02 @000   ----------------------------------------
 .byte   KEYSH , song02_key+0
Label_01003D52:
 .byte   VOICE , 33
 .byte   VOL , 49*song02_mvl/mxv
 .byte   N12 ,Gn0 ,v085
 .byte   BENDR, 12
 .byte   W12
 .byte   N12
 .byte   W12
 .byte   Dn1
 .byte   W12
 .byte   Gn0
 .byte   W12
 .byte   Dn1
 .byte   W12
 .byte   Gn1
 .byte   W12
 .byte   GnM1
 .byte   W12
 .byte   N24 ,As1
 .byte   W12
@  #02 @001   ----------------------------------------
 .byte   PATT
  .word Label_01008079
@  #02 @002   ----------------------------------------
 .byte   PATT
  .word Label_0100808A
@  #02 @003   ----------------------------------------
 .byte   PATT
  .word Label_0100809E
@  #02 @004   ----------------------------------------
 .byte   PATT
  .word Label_010080AC
@  #02 @005   ----------------------------------------
 .byte   PATT
  .word Label_010080AC
@  #02 @006   ----------------------------------------
 .byte   PATT
  .word Label_010080AC
@  #02 @007   ----------------------------------------
 .byte   PATT
  .word Label_010080C8
@  #02 @008   ----------------------------------------
 .byte   PATT
  .word Label_010080DB
@  #02 @009   ----------------------------------------
 .byte   PATT
  .word Label_01008079
@  #02 @010   ----------------------------------------
 .byte   PATT
  .word Label_010080F4
@  #02 @011   ----------------------------------------
 .byte   PATT
  .word Label_01008107
@  #02 @012   ----------------------------------------
 .byte   PATT
  .word Label_010080DB
@  #02 @013   ----------------------------------------
 .byte   PATT
  .word Label_01008079
@  #02 @014   ----------------------------------------
 .byte   PATT
  .word Label_0100808A
@  #02 @015   ----------------------------------------
 .byte   PATT
  .word Label_0100809E
@  #02 @016   ----------------------------------------
 .byte   PATT
  .word Label_010080DB
@  #02 @017   ----------------------------------------
 .byte   PATT
  .word Label_01008079
@  #02 @018   ----------------------------------------
 .byte   PATT
  .word Label_010080F4
@  #02 @019   ----------------------------------------
 .byte   PATT
  .word Label_01008107
@  #02 @020   ----------------------------------------
 .byte   PATT
  .word Label_010080DB
@  #02 @021   ----------------------------------------
 .byte   PATT
  .word Label_01008079
@  #02 @022   ----------------------------------------
 .byte   PATT
  .word Label_0100808A
@  #02 @023   ----------------------------------------
 .byte   PATT
  .word Label_0100809E
@  #02 @024   ----------------------------------------
 .byte   PATT
  .word Label_010080AC
@  #02 @025   ----------------------------------------
 .byte   PATT
  .word Label_010080AC
@  #02 @026   ----------------------------------------
 .byte   PATT
  .word Label_010080AC
@  #02 @027   ----------------------------------------
 .byte   PATT
  .word Label_010080C8
@  #02 @028   ----------------------------------------
 .byte   PATT
  .word Label_010080AC
@  #02 @029   ----------------------------------------
 .byte   PATT
  .word Label_010080AC
@  #02 @030   ----------------------------------------
 .byte   PATT
  .word Label_010080AC
@  #02 @031   ----------------------------------------
 .byte   PATT
  .word Label_01008177
@  #02 @032   ----------------------------------------
 .byte   PATT
  .word Label_010080AC
@  #02 @033   ----------------------------------------
 .byte   PATT
  .word Label_010080AC
@  #02 @034   ----------------------------------------
 .byte   PATT
  .word Label_010080AC
@  #02 @035   ----------------------------------------
 .byte   PATT
  .word Label_010080C8
@  #02 @036   ----------------------------------------
 .byte   PATT
  .word Label_010080AC
@  #02 @037   ----------------------------------------
 .byte   PATT
  .word Label_010080AC
@  #02 @038   ----------------------------------------
 .byte   PATT
  .word Label_010080AC
@  #02 @039   ----------------------------------------
 .byte   PATT
  .word Label_010081AC
@  #02 @040   ----------------------------------------
 .byte   PATT
  .word Label_010080DB
@  #02 @041   ----------------------------------------
 .byte   PATT
  .word Label_01008079
@  #02 @042   ----------------------------------------
 .byte   PATT
  .word Label_010080F4
@  #02 @043   ----------------------------------------
 .byte   PATT
  .word Label_01008107
@  #02 @044   ----------------------------------------
 .byte   PATT
  .word Label_010080DB
@  #02 @045   ----------------------------------------
 .byte   PATT
  .word Label_01008079
@  #02 @046   ----------------------------------------
 .byte   PATT
  .word Label_0100808A
@  #02 @047   ----------------------------------------
 .byte   PATT
  .word Label_0100809E
@  #02 @048   ----------------------------------------
 .byte   PATT
  .word Label_010080DB
@  #02 @049   ----------------------------------------
 .byte   PATT
  .word Label_01008079
@  #02 @050   ----------------------------------------
 .byte   PATT
  .word Label_010080F4
@  #02 @051   ----------------------------------------
 .byte   PATT
  .word Label_01008107
@  #02 @052   ----------------------------------------
 .byte   PATT
  .word Label_010080DB
@  #02 @053   ----------------------------------------
 .byte   PATT
  .word Label_01008079
@  #02 @054   ----------------------------------------
 .byte   PATT
  .word Label_0100808A
@  #02 @055   ----------------------------------------
 .byte   PATT
  .word Label_0100809E
@  #02 @056   ----------------------------------------
 .byte   W96
@  #02 @057   ----------------------------------------
 .byte   W96
@  #02 @058   ----------------------------------------
 .byte   W96
@  #02 @059   ----------------------------------------
 .byte   W96
@  #02 @060   ----------------------------------------
 .byte   W96
@  #02 @061   ----------------------------------------
 .byte   W96
@  #02 @062   ----------------------------------------
 .byte   W96
@  #02 @063   ----------------------------------------
 .byte   W96
@  #02 @064   ----------------------------------------
 .byte   PATT
  .word Label_010080AC
@  #02 @065   ----------------------------------------
 .byte   PATT
  .word Label_010080AC
@  #02 @066   ----------------------------------------
 .byte   PATT
  .word Label_010080AC
@  #02 @067   ----------------------------------------
 .byte   PATT
  .word Label_010080C8
@  #02 @068   ----------------------------------------
 .byte   PATT
  .word Label_010080AC
@  #02 @069   ----------------------------------------
 .byte   PATT
  .word Label_010080AC
@  #02 @070   ----------------------------------------
 .byte   PATT
  .word Label_010080AC
@  #02 @071   ----------------------------------------
 .byte   PATT
  .word Label_01008177
@  #02 @072   ----------------------------------------
 .byte   PATT
  .word Label_010080AC
@  #02 @073   ----------------------------------------
 .byte   PATT
  .word Label_010080AC
@  #02 @074   ----------------------------------------
 .byte   PATT
  .word Label_010080AC
@  #02 @075   ----------------------------------------
 .byte   PATT
  .word Label_010080C8
@  #02 @076   ----------------------------------------
 .byte   PATT
  .word Label_010080AC
@  #02 @077   ----------------------------------------
 .byte   PATT
  .word Label_010080AC
@  #02 @078   ----------------------------------------
 .byte   PATT
  .word Label_010080AC
@  #02 @079   ----------------------------------------
 .byte   PATT
  .word Label_010081AC
@  #02 @080   ----------------------------------------
 .byte   PATT
  .word Label_010080AC
@  #02 @081   ----------------------------------------
 .byte   PATT
  .word Label_010080AC
@  #02 @082   ----------------------------------------
 .byte   PATT
  .word Label_010080AC
@  #02 @083   ----------------------------------------
 .byte   PATT
  .word Label_010080C8
@  #02 @084   ----------------------------------------
 .byte   PATT
  .word Label_010080AC
@  #02 @085   ----------------------------------------
 .byte   PATT
  .word Label_010080AC
@  #02 @086   ----------------------------------------
 .byte   PATT
  .word Label_010080AC
@  #02 @087   ----------------------------------------
 .byte   PATT
  .word Label_01008177
@  #02 @088   ----------------------------------------
 .byte   PATT
  .word Label_010080AC
@  #02 @089   ----------------------------------------
 .byte   PATT
  .word Label_010080AC
@  #02 @090   ----------------------------------------
 .byte   PATT
  .word Label_010080AC
@  #02 @091   ----------------------------------------
 .byte   PATT
  .word Label_010080C8
@  #02 @092   ----------------------------------------
 .byte   PATT
  .word Label_010080AC
@  #02 @093   ----------------------------------------
 .byte   PATT
  .word Label_010080AC
@  #02 @094   ----------------------------------------
 .byte   PATT
  .word Label_010080AC
@  #02 @095   ----------------------------------------
 .byte   PATT
  .word Label_010081AC
@  #02 @096   ----------------------------------------
 .byte   PATT
  .word Label_010080AC
@  #02 @097   ----------------------------------------
 .byte   PATT
  .word Label_010080AC
@  #02 @098   ----------------------------------------
 .byte   PATT
  .word Label_010080AC
@  #02 @099   ----------------------------------------
 .byte   PATT
  .word Label_010080C8
@  #02 @100   ----------------------------------------
 .byte   PATT
  .word Label_010080AC
@  #02 @101   ----------------------------------------
 .byte   PATT
  .word Label_010080AC
@  #02 @102   ----------------------------------------
 .byte   PATT
  .word Label_010080AC
@  #02 @103   ----------------------------------------
 .byte   PATT
  .word Label_01008177
@  #02 @104   ----------------------------------------
 .byte   PATT
  .word Label_010080AC
@  #02 @105   ----------------------------------------
 .byte   PATT
  .word Label_010080AC
@  #02 @106   ----------------------------------------
 .byte   PATT
  .word Label_010080AC
@  #02 @107   ----------------------------------------
 .byte   PATT
  .word Label_010080C8
@  #02 @108   ----------------------------------------
 .byte   PATT
  .word Label_010080AC
@  #02 @109   ----------------------------------------
 .byte   PATT
  .word Label_010080AC
@  #02 @110   ----------------------------------------
 .byte   PATT
  .word Label_010080AC
@  #02 @111   ----------------------------------------
 .byte   PATT
  .word Label_01008309
@  #02 @112   ----------------------------------------
 .byte   GOTO
  .word Label_01003D52
@  #02 @113   ----------------------------------------
 .byte   W96
 .byte   FINE

@**************** Track 3 (Midi-Chn.2) ****************@

song02_003:
@  #03 @000   ----------------------------------------
 .byte   KEYSH , song02_key+0
Label_0100832E:
 .byte   VOICE , 30
 .byte   PAN , c_v+20
 .byte   VOL , 61*song02_mvl/mxv
 .byte   BENDR, 12
 .byte   W96
@  #03 @001   ----------------------------------------
 .byte   W96
@  #03 @002   ----------------------------------------
 .byte   W96
@  #03 @003   ----------------------------------------
 .byte   W96
@  #03 @004   ----------------------------------------
 .byte   W96
@  #03 @005   ----------------------------------------
 .byte   W96
@  #03 @006   ----------------------------------------
 .byte   W96
@  #03 @007   ----------------------------------------
 .byte   W96
@  #03 @008   ----------------------------------------
Label_0100833E:
 .byte   N24 ,Gn0 ,v106
 .byte   N24 ,Gn1
 .byte   W36
 .byte   N18 ,Gn0
 .byte   N18 ,Gn1
 .byte   W60
 .byte   PEND 
@  #03 @009   ----------------------------------------
Label_0100834A:
 .byte   N24 ,As0 ,v106
 .byte   N24 ,As1
 .byte   W36
 .byte   N18 ,As0
 .byte   N18 ,As1
 .byte   W60
 .byte   PEND 
@  #03 @010   ----------------------------------------
Label_01008356:
 .byte   N24 ,Fn0 ,v106
 .byte   N24 ,Fn1
 .byte   W36
 .byte   N18 ,Fn0
 .byte   N18 ,Fn1
 .byte   W60
 .byte   PEND 
@  #03 @011   ----------------------------------------
Label_01008362:
 .byte   N24 ,Cn0 ,v106
 .byte   N24 ,Cn1
 .byte   W36
 .byte   N18 ,Cn0
 .byte   N18 ,Cn1
 .byte   W60
 .byte   PEND 
@  #03 @012   ----------------------------------------
 .byte   PATT
  .word Label_0100833E
@  #03 @013   ----------------------------------------
 .byte   PATT
  .word Label_0100834A
@  #03 @014   ----------------------------------------
Label_01008378:
 .byte   N24 ,Fn0 ,v106
 .byte   N24 ,Fn1
 .byte   W36
 .byte   As0
 .byte   N24 ,As1
 .byte   W48
 .byte   Cn2
 .byte   N24 ,Cn1
 .byte   W12
 .byte   PEND 
@  #03 @015   ----------------------------------------
Label_01008387:
 .byte   W36
 .byte   N24 ,Ds2 ,v106
 .byte   N24 ,Ds1
 .byte   W36
 .byte   Fn2
 .byte   N24 ,Fn1
 .byte   W24
 .byte   PEND 
@  #03 @016   ----------------------------------------
 .byte   PATT
  .word Label_0100833E
@  #03 @017   ----------------------------------------
 .byte   PATT
  .word Label_0100834A
@  #03 @018   ----------------------------------------
 .byte   PATT
  .word Label_01008356
@  #03 @019   ----------------------------------------
 .byte   PATT
  .word Label_01008362
@  #03 @020   ----------------------------------------
 .byte   PATT
  .word Label_0100833E
@  #03 @021   ----------------------------------------
 .byte   PATT
  .word Label_0100834A
@  #03 @022   ----------------------------------------
 .byte   PATT
  .word Label_01008378
@  #03 @023   ----------------------------------------
Label_010083B6:
 .byte   W36
 .byte   N24 ,Ds1 ,v106
 .byte   N24 ,Ds2
 .byte   W36
 .byte   Fn2
 .byte   N24 ,Fn1
 .byte   W24
 .byte   PEND 
@  #03 @024   ----------------------------------------
 .byte   W96
@  #03 @025   ----------------------------------------
 .byte   W96
@  #03 @026   ----------------------------------------
 .byte   W96
@  #03 @027   ----------------------------------------
 .byte   W96
@  #03 @028   ----------------------------------------
 .byte   W96
@  #03 @029   ----------------------------------------
 .byte   W96
@  #03 @030   ----------------------------------------
 .byte   W96
@  #03 @031   ----------------------------------------
 .byte   W96
@  #03 @032   ----------------------------------------
Label_010083CA:
 .byte   W12
 .byte   N24 ,Gn2 ,v085
 .byte   N24 ,Gn1
 .byte   N24 ,Gn0
 .byte   W36
 .byte   Gs0
 .byte   N24 ,Gs1
 .byte   N24 ,Gs2
 .byte   W48
 .byte   PEND 
@  #03 @033   ----------------------------------------
 .byte   PATT
  .word Label_010083CA
@  #03 @034   ----------------------------------------
 .byte   PATT
  .word Label_010083CA
@  #03 @035   ----------------------------------------
Label_010083E4:
 .byte   W12
 .byte   N24 ,Gn2 ,v085
 .byte   N24 ,Gn1
 .byte   N24 ,Gn0
 .byte   W48
 .byte   Gn2
 .byte   N24 ,Gn1
 .byte   N24 ,Gn0
 .byte   W36
 .byte   PEND 
@  #03 @036   ----------------------------------------
Label_010083F4:
 .byte   W12
 .byte   N24 ,Gn2 ,v085
 .byte   N24 ,Gn1
 .byte   N24 ,Gn0
 .byte   W36
 .byte   Gs2
 .byte   N24 ,Gs1
 .byte   N24 ,Gs0
 .byte   W48
 .byte   PEND 
@  #03 @037   ----------------------------------------
Label_01008404:
 .byte   W12
 .byte   N24 ,Gn0 ,v085
 .byte   N24 ,Gn1
 .byte   N24 ,Gn2
 .byte   W36
 .byte   Gs2
 .byte   N24 ,Gs1
 .byte   N24 ,Gs0
 .byte   W48
 .byte   PEND 
@  #03 @038   ----------------------------------------
Label_01008414:
 .byte   W12
 .byte   N24 ,Gn0 ,v085
 .byte   N24 ,Gn1
 .byte   N24 ,Gn2
 .byte   W36
 .byte   Gs0
 .byte   N24 ,Gs1
 .byte   N24 ,Gs2
 .byte   W48
 .byte   PEND 
@  #03 @039   ----------------------------------------
Label_01008424:
 .byte   W12
 .byte   N24 ,Gn0 ,v085
 .byte   N24 ,Gn1
 .byte   N24 ,Gn2
 .byte   W48
 .byte   Gn2
 .byte   N24 ,Gn1
 .byte   N24 ,Gn0
 .byte   W36
 .byte   PEND 
@  #03 @040   ----------------------------------------
 .byte   PATT
  .word Label_0100833E
@  #03 @041   ----------------------------------------
 .byte   PATT
  .word Label_0100834A
@  #03 @042   ----------------------------------------
 .byte   PATT
  .word Label_01008356
@  #03 @043   ----------------------------------------
 .byte   PATT
  .word Label_01008362
@  #03 @044   ----------------------------------------
 .byte   PATT
  .word Label_0100833E
@  #03 @045   ----------------------------------------
 .byte   PATT
  .word Label_0100834A
@  #03 @046   ----------------------------------------
 .byte   PATT
  .word Label_01008378
@  #03 @047   ----------------------------------------
 .byte   PATT
  .word Label_01008387
@  #03 @048   ----------------------------------------
 .byte   PATT
  .word Label_0100833E
@  #03 @049   ----------------------------------------
 .byte   PATT
  .word Label_0100834A
@  #03 @050   ----------------------------------------
 .byte   PATT
  .word Label_01008356
@  #03 @051   ----------------------------------------
 .byte   PATT
  .word Label_01008362
@  #03 @052   ----------------------------------------
 .byte   PATT
  .word Label_0100833E
@  #03 @053   ----------------------------------------
 .byte   PATT
  .word Label_0100834A
@  #03 @054   ----------------------------------------
 .byte   PATT
  .word Label_01008378
@  #03 @055   ----------------------------------------
 .byte   PATT
  .word Label_010083B6
@  #03 @056   ----------------------------------------
 .byte   W96
@  #03 @057   ----------------------------------------
 .byte   W96
@  #03 @058   ----------------------------------------
 .byte   W96
@  #03 @059   ----------------------------------------
 .byte   W96
@  #03 @060   ----------------------------------------
 .byte   W96
@  #03 @061   ----------------------------------------
 .byte   W96
@  #03 @062   ----------------------------------------
 .byte   W96
@  #03 @063   ----------------------------------------
 .byte   W96
@  #03 @064   ----------------------------------------
 .byte   W96
@  #03 @065   ----------------------------------------
 .byte   W96
@  #03 @066   ----------------------------------------
 .byte   W96
@  #03 @067   ----------------------------------------
 .byte   W96
@  #03 @068   ----------------------------------------
 .byte   W96
@  #03 @069   ----------------------------------------
 .byte   W96
@  #03 @070   ----------------------------------------
 .byte   W96
@  #03 @071   ----------------------------------------
 .byte   W96
@  #03 @072   ----------------------------------------
 .byte   W96
@  #03 @073   ----------------------------------------
 .byte   W96
@  #03 @074   ----------------------------------------
 .byte   W96
@  #03 @075   ----------------------------------------
 .byte   W96
@  #03 @076   ----------------------------------------
 .byte   W96
@  #03 @077   ----------------------------------------
 .byte   W96
@  #03 @078   ----------------------------------------
 .byte   W96
@  #03 @079   ----------------------------------------
 .byte   W96
@  #03 @080   ----------------------------------------
 .byte   PATT
  .word Label_010083CA
@  #03 @081   ----------------------------------------
 .byte   PATT
  .word Label_010083CA
@  #03 @082   ----------------------------------------
 .byte   PATT
  .word Label_010083CA
@  #03 @083   ----------------------------------------
 .byte   PATT
  .word Label_010083E4
@  #03 @084   ----------------------------------------
 .byte   PATT
  .word Label_010083F4
@  #03 @085   ----------------------------------------
 .byte   PATT
  .word Label_01008404
@  #03 @086   ----------------------------------------
 .byte   PATT
  .word Label_01008414
@  #03 @087   ----------------------------------------
 .byte   PATT
  .word Label_01008424
@  #03 @088   ----------------------------------------
 .byte   PATT
  .word Label_010083CA
@  #03 @089   ----------------------------------------
 .byte   PATT
  .word Label_010083CA
@  #03 @090   ----------------------------------------
 .byte   PATT
  .word Label_010083CA
@  #03 @091   ----------------------------------------
 .byte   PATT
  .word Label_010083E4
@  #03 @092   ----------------------------------------
 .byte   PATT
  .word Label_010083F4
@  #03 @093   ----------------------------------------
 .byte   PATT
  .word Label_01008404
@  #03 @094   ----------------------------------------
 .byte   PATT
  .word Label_01008414
@  #03 @095   ----------------------------------------
 .byte   PATT
  .word Label_01008424
@  #03 @096   ----------------------------------------
 .byte   W96
@  #03 @097   ----------------------------------------
 .byte   W96
@  #03 @098   ----------------------------------------
 .byte   W96
@  #03 @099   ----------------------------------------
 .byte   W96
@  #03 @100   ----------------------------------------
 .byte   W96
@  #03 @101   ----------------------------------------
 .byte   W96
@  #03 @102   ----------------------------------------
 .byte   W96
@  #03 @103   ----------------------------------------
 .byte   W96
@  #03 @104   ----------------------------------------
 .byte   W96
@  #03 @105   ----------------------------------------
 .byte   W96
@  #03 @106   ----------------------------------------
 .byte   W96
@  #03 @107   ----------------------------------------
 .byte   W96
@  #03 @108   ----------------------------------------
 .byte   W96
@  #03 @109   ----------------------------------------
 .byte   W96
@  #03 @110   ----------------------------------------
 .byte   W96
@  #03 @111   ----------------------------------------
 .byte   W96
@  #03 @112   ----------------------------------------
 .byte   GOTO
  .word Label_0100832E
@  #03 @113   ----------------------------------------
 .byte   W96
 .byte   FINE

@**************** Track 4 (Midi-Chn.3) ****************@

song02_004:
@  #04 @000   ----------------------------------------
 .byte   KEYSH , song02_key+0
Label_01008506:
 .byte   VOICE , 73
 .byte   VOL , 73*song02_mvl/mxv
 .byte   BENDR, 12
 .byte   W96
@  #04 @001   ----------------------------------------
 .byte   W96
@  #04 @002   ----------------------------------------
 .byte   W96
@  #04 @003   ----------------------------------------
 .byte   W96
@  #04 @004   ----------------------------------------
 .byte   W96
@  #04 @005   ----------------------------------------
 .byte   W96
@  #04 @006   ----------------------------------------
 .byte   W96
@  #04 @007   ----------------------------------------
 .byte   W96
@  #04 @008   ----------------------------------------
Label_01008514:
 .byte   W12
 .byte   N12 ,Gn3 ,v085
 .byte   W12
 .byte   Dn4
 .byte   W12
 .byte   Gn3
 .byte   W12
 .byte   Dn4
 .byte   W12
 .byte   Gn4
 .byte   W24
 .byte   Fn4
 .byte   W12
 .byte   PEND 
@  #04 @009   ----------------------------------------
Label_01008524:
 .byte   W12
 .byte   N12 ,Fn4 ,v085
 .byte   W12
 .byte   N06 ,Dn4
 .byte   W06
 .byte   Cn4
 .byte   W06
 .byte   N24 ,As3
 .byte   W24
 .byte   N12 ,Gn3
 .byte   W12
 .byte   As3
 .byte   W12
 .byte   Cn4
 .byte   W12
 .byte   PEND 
@  #04 @010   ----------------------------------------
Label_01008539:
 .byte   N12 ,Dn4 ,v085
 .byte   W12
 .byte   Cn4
 .byte   W12
 .byte   As3
 .byte   W12
 .byte   Gn3
 .byte   W24
 .byte   As3
 .byte   W12
 .byte   Dn4
 .byte   W12
 .byte   N24 ,Cn4
 .byte   W12
 .byte   PEND 
@  #04 @011   ----------------------------------------
Label_0100854B:
 .byte   W12
 .byte   N12 ,Fn4 ,v085
 .byte   W12
 .byte   N06
 .byte   W12
 .byte   N60
 .byte   W60
 .byte   PEND 
@  #04 @012   ----------------------------------------
 .byte   W24
 .byte   N32 ,Gn4 ,v085 ,gtp3
 .byte   W36
 .byte   N12
 .byte   W24
 .byte   Fn4
 .byte   W12
@  #04 @013   ----------------------------------------
 .byte   PATT
  .word Label_01008524
@  #04 @014   ----------------------------------------
Label_01008564:
 .byte   N12 ,Dn4 ,v085
 .byte   W12
 .byte   Cn4
 .byte   W12
 .byte   As3
 .byte   W12
 .byte   N24 ,Gn3
 .byte   W24
 .byte   N12 ,As3
 .byte   W12
 .byte   Cn4
 .byte   W12
 .byte   Dn4
 .byte   W12
 .byte   PEND 
@  #04 @015   ----------------------------------------
Label_01008577:
 .byte   N12 ,Cn4 ,v085
 .byte   W12
 .byte   As3
 .byte   W12
 .byte   Gn3
 .byte   W12
 .byte   N24 ,Fn3
 .byte   W24
 .byte   N12 ,Dn3
 .byte   W12
 .byte   Fn3
 .byte   W12
 .byte   N06 ,Gn3
 .byte   W12
 .byte   PEND 
@  #04 @016   ----------------------------------------
 .byte   PATT
  .word Label_01008514
@  #04 @017   ----------------------------------------
 .byte   PATT
  .word Label_01008524
@  #04 @018   ----------------------------------------
 .byte   PATT
  .word Label_01008539
@  #04 @019   ----------------------------------------
 .byte   PATT
  .word Label_0100854B
@  #04 @020   ----------------------------------------
 .byte   W24
 .byte   N30 ,Gn4 ,v085
 .byte   W36
 .byte   N12
 .byte   W24
 .byte   Fn4
 .byte   W12
@  #04 @021   ----------------------------------------
 .byte   PATT
  .word Label_01008524
@  #04 @022   ----------------------------------------
 .byte   PATT
  .word Label_01008564
@  #04 @023   ----------------------------------------
 .byte   N12 ,Fn4 ,v085
 .byte   W12
 .byte   Gn4
 .byte   W12
 .byte   As4
 .byte   W12
 .byte   Cn5
 .byte   W12
 .byte   Dn5
 .byte   W12
 .byte   Fn5
 .byte   W12
 .byte   Fn5
 .byte   W12
 .byte   Fn5
 .byte   W12
@  #04 @024   ----------------------------------------
 .byte   TIE ,Gn5
 .byte   W96
@  #04 @025   ----------------------------------------
 .byte   W96
@  #04 @026   ----------------------------------------
 .byte   EOT
 .byte   W96
@  #04 @027   ----------------------------------------
 .byte   W96
@  #04 @028   ----------------------------------------
 .byte   W96
@  #04 @029   ----------------------------------------
Label_010085CC:
 .byte   W12
 .byte   N12 ,Gn5 ,v085
 .byte   W12
 .byte   Fn5
 .byte   W12
 .byte   Dn5
 .byte   W12
 .byte   Cn5
 .byte   W12
 .byte   As4
 .byte   W12
 .byte   N06 ,Cn5
 .byte   W06
 .byte   Dn5
 .byte   W06
 .byte   TIE ,Gn4
 .byte   W12
 .byte   PEND 
@  #04 @030   ----------------------------------------
 .byte   W96
@  #04 @031   ----------------------------------------
 .byte   W96
@  #04 @032   ----------------------------------------
Label_010085E4:
 .byte   EOT
 .byte   Gn4
 .byte   TIE ,Gn5 ,v085
 .byte   W96
 .byte   PEND 
@  #04 @033   ----------------------------------------
 .byte   W96
@  #04 @034   ----------------------------------------
 .byte   W12
 .byte   EOT
 .byte   W84
@  #04 @035   ----------------------------------------
 .byte   W96
@  #04 @036   ----------------------------------------
 .byte   W96
@  #04 @037   ----------------------------------------
 .byte   PATT
  .word Label_010085CC
@  #04 @038   ----------------------------------------
 .byte   W96
@  #04 @039   ----------------------------------------
 .byte   W96
@  #04 @040   ----------------------------------------
 .byte   EOT
 .byte   Gn4
 .byte   W12
 .byte   N12 ,Gn3 ,v085
 .byte   W12
 .byte   Dn4
 .byte   W12
 .byte   Gn3
 .byte   W12
 .byte   Dn4
 .byte   W12
 .byte   Gn4
 .byte   W24
 .byte   Fn4
 .byte   W12
@  #04 @041   ----------------------------------------
 .byte   PATT
  .word Label_01008524
@  #04 @042   ----------------------------------------
 .byte   PATT
  .word Label_01008539
@  #04 @043   ----------------------------------------
 .byte   PATT
  .word Label_0100854B
@  #04 @044   ----------------------------------------
 .byte   W24
 .byte   N32 ,Gn4 ,v085 ,gtp2
 .byte   W36
 .byte   N12
 .byte   W24
 .byte   Fn4
 .byte   W12
@  #04 @045   ----------------------------------------
 .byte   PATT
  .word Label_01008524
@  #04 @046   ----------------------------------------
 .byte   PATT
  .word Label_01008564
@  #04 @047   ----------------------------------------
 .byte   PATT
  .word Label_01008577
@  #04 @048   ----------------------------------------
 .byte   PATT
  .word Label_01008514
@  #04 @049   ----------------------------------------
 .byte   PATT
  .word Label_01008524
@  #04 @050   ----------------------------------------
 .byte   PATT
  .word Label_01008539
@  #04 @051   ----------------------------------------
 .byte   PATT
  .word Label_0100854B
@  #04 @052   ----------------------------------------
 .byte   W24
 .byte   N30 ,Gn4 ,v085 ,gtp1
 .byte   W36
 .byte   N12
 .byte   W24
 .byte   Fn4
 .byte   W12
@  #04 @053   ----------------------------------------
 .byte   PATT
  .word Label_01008524
@  #04 @054   ----------------------------------------
 .byte   PATT
  .word Label_01008564
@  #04 @055   ----------------------------------------
 .byte   PATT
  .word Label_01008577
@  #04 @056   ----------------------------------------
 .byte   W96
@  #04 @057   ----------------------------------------
 .byte   W96
@  #04 @058   ----------------------------------------
 .byte   W96
@  #04 @059   ----------------------------------------
 .byte   W96
@  #04 @060   ----------------------------------------
 .byte   W96
@  #04 @061   ----------------------------------------
 .byte   W96
@  #04 @062   ----------------------------------------
 .byte   W96
@  #04 @063   ----------------------------------------
 .byte   W96
@  #04 @064   ----------------------------------------
 .byte   W96
@  #04 @065   ----------------------------------------
 .byte   W96
@  #04 @066   ----------------------------------------
 .byte   W96
@  #04 @067   ----------------------------------------
 .byte   W96
@  #04 @068   ----------------------------------------
 .byte   W96
@  #04 @069   ----------------------------------------
 .byte   W96
@  #04 @070   ----------------------------------------
 .byte   W96
@  #04 @071   ----------------------------------------
 .byte   W96
@  #04 @072   ----------------------------------------
 .byte   W96
@  #04 @073   ----------------------------------------
 .byte   W96
@  #04 @074   ----------------------------------------
 .byte   W96
@  #04 @075   ----------------------------------------
 .byte   W96
@  #04 @076   ----------------------------------------
 .byte   W96
@  #04 @077   ----------------------------------------
 .byte   W96
@  #04 @078   ----------------------------------------
 .byte   W96
@  #04 @079   ----------------------------------------
 .byte   W96
@  #04 @080   ----------------------------------------
 .byte   TIE ,Gn5 ,v085
 .byte   W96
@  #04 @081   ----------------------------------------
 .byte   W96
@  #04 @082   ----------------------------------------
 .byte   EOT
 .byte   W96
@  #04 @083   ----------------------------------------
 .byte   W96
@  #04 @084   ----------------------------------------
 .byte   W96
@  #04 @085   ----------------------------------------
 .byte   PATT
  .word Label_010085CC
@  #04 @086   ----------------------------------------
 .byte   W96
@  #04 @087   ----------------------------------------
 .byte   W96
@  #04 @088   ----------------------------------------
 .byte   PATT
  .word Label_010085E4
@  #04 @089   ----------------------------------------
 .byte   W96
@  #04 @090   ----------------------------------------
 .byte   W12
 .byte   EOT
 .byte   Gn5
 .byte   W84
@  #04 @091   ----------------------------------------
 .byte   W96
@  #04 @092   ----------------------------------------
 .byte   W96
@  #04 @093   ----------------------------------------
 .byte   PATT
  .word Label_010085CC
@  #04 @094   ----------------------------------------
 .byte   W96
@  #04 @095   ----------------------------------------
 .byte   W96
@  #04 @096   ----------------------------------------
 .byte   EOT
 .byte   Gn4
 .byte   W96
@  #04 @097   ----------------------------------------
 .byte   W96
@  #04 @098   ----------------------------------------
 .byte   W96
@  #04 @099   ----------------------------------------
 .byte   W96
@  #04 @100   ----------------------------------------
 .byte   W96
@  #04 @101   ----------------------------------------
 .byte   W96
@  #04 @102   ----------------------------------------
 .byte   W96
@  #04 @103   ----------------------------------------
 .byte   W96
@  #04 @104   ----------------------------------------
 .byte   W96
@  #04 @105   ----------------------------------------
 .byte   W96
@  #04 @106   ----------------------------------------
 .byte   W96
@  #04 @107   ----------------------------------------
 .byte   W96
@  #04 @108   ----------------------------------------
 .byte   W96
@  #04 @109   ----------------------------------------
 .byte   W96
@  #04 @110   ----------------------------------------
 .byte   W96
@  #04 @111   ----------------------------------------
 .byte   W96
@  #04 @112   ----------------------------------------
 .byte   GOTO
  .word Label_01008506
@  #04 @113   ----------------------------------------
 .byte   W96
 .byte   FINE

@**************** Track 5 (Midi-Chn.4) ****************@

song02_005:
@  #05 @000   ----------------------------------------
 .byte   KEYSH , song02_key+0
Label_010086B6:
 .byte   VOICE , 104
 .byte   PAN , c_v-26
 .byte   VOL , 68*song02_mvl/mxv
 .byte   BENDR, 12
 .byte   W96
@  #05 @001   ----------------------------------------
 .byte   W96
@  #05 @002   ----------------------------------------
 .byte   W96
@  #05 @003   ----------------------------------------
 .byte   W96
@  #05 @004   ----------------------------------------
 .byte   W96
@  #05 @005   ----------------------------------------
 .byte   W96
@  #05 @006   ----------------------------------------
 .byte   W96
@  #05 @007   ----------------------------------------
 .byte   W96
@  #05 @008   ----------------------------------------
 .byte   W96
@  #05 @009   ----------------------------------------
 .byte   W96
@  #05 @010   ----------------------------------------
 .byte   W96
@  #05 @011   ----------------------------------------
 .byte   W96
@  #05 @012   ----------------------------------------
 .byte   W96
@  #05 @013   ----------------------------------------
 .byte   W96
@  #05 @014   ----------------------------------------
 .byte   W96
@  #05 @015   ----------------------------------------
 .byte   W96
@  #05 @016   ----------------------------------------
 .byte   W96
@  #05 @017   ----------------------------------------
 .byte   W96
@  #05 @018   ----------------------------------------
 .byte   W96
@  #05 @019   ----------------------------------------
 .byte   W96
@  #05 @020   ----------------------------------------
 .byte   W96
@  #05 @021   ----------------------------------------
 .byte   W96
@  #05 @022   ----------------------------------------
 .byte   W96
@  #05 @023   ----------------------------------------
 .byte   W96
@  #05 @024   ----------------------------------------
Label_010086D6:
 .byte   N12 ,Gn2 ,v085
 .byte   W12
 .byte   N06 ,Gn2 ,v033
 .byte   W06
 .byte   N03
 .byte   W03
 .byte   Gn2
 .byte   W03
 .byte   N12 ,Gn2 ,v085
 .byte   W12
 .byte   Fn2
 .byte   W12
 .byte   Gn2 ,v064
 .byte   BEND , c_v+2
 .byte   W01
 .byte   BEND , c_v+3
 .byte   W02
 .byte   BEND , c_v+4
 .byte   W01
 .byte   BEND , c_v+5
 .byte   W08
 .byte   N12
 .byte   BEND , c_v+2
 .byte   W01
 .byte   BEND , c_v+3
 .byte   W02
 .byte   BEND , c_v+4
 .byte   W01
 .byte   BEND , c_v+5
 .byte   W08
 .byte   N12
 .byte   BEND , c_v+2
 .byte   W01
 .byte   BEND , c_v+3
 .byte   W02
 .byte   BEND , c_v+4
 .byte   W01
 .byte   BEND , c_v+5
 .byte   W08
 .byte   BEND , c_v+0
 .byte   N12 ,Fn2 ,v085
 .byte   W12
 .byte   PEND 
@  #05 @025   ----------------------------------------
 .byte   PATT
  .word Label_010086D6
@  #05 @026   ----------------------------------------
 .byte   PATT
  .word Label_010086D6
@  #05 @027   ----------------------------------------
Label_01008717:
 .byte   N12 ,Dn3 ,v085
 .byte   W12
 .byte   Ds3 ,v056
 .byte   W12
 .byte   Dn3 ,v063
 .byte   W12
 .byte   Cn3 ,v085
 .byte   W12
 .byte   Dn3
 .byte   W12
 .byte   Ds3 ,v068
 .byte   W12
 .byte   Dn3 ,v036
 .byte   W12
 .byte   Cn3 ,v070
 .byte   W12
 .byte   PEND 
@  #05 @028   ----------------------------------------
 .byte   PATT
  .word Label_010086D6
@  #05 @029   ----------------------------------------
 .byte   PATT
  .word Label_010086D6
@  #05 @030   ----------------------------------------
 .byte   PATT
  .word Label_010086D6
@  #05 @031   ----------------------------------------
Label_0100873F:
 .byte   N12 ,Gn2 ,v085
 .byte   W12
 .byte   N06 ,Gn2 ,v033
 .byte   W06
 .byte   N03
 .byte   W03
 .byte   Gn2
 .byte   W03
 .byte   N12 ,Gn2 ,v085
 .byte   W12
 .byte   Fn2
 .byte   W12
 .byte   Gn2
 .byte   W12
 .byte   N06 ,Gn2 ,v033
 .byte   W06
 .byte   N03
 .byte   W03
 .byte   Gn2
 .byte   W03
 .byte   N12 ,Gn2 ,v085
 .byte   W12
 .byte   Fn2
 .byte   W12
 .byte   PEND 
@  #05 @032   ----------------------------------------
 .byte   PATT
  .word Label_010086D6
@  #05 @033   ----------------------------------------
 .byte   PATT
  .word Label_010086D6
@  #05 @034   ----------------------------------------
 .byte   PATT
  .word Label_010086D6
@  #05 @035   ----------------------------------------
 .byte   PATT
  .word Label_01008717
@  #05 @036   ----------------------------------------
 .byte   PATT
  .word Label_010086D6
@  #05 @037   ----------------------------------------
 .byte   PATT
  .word Label_010086D6
@  #05 @038   ----------------------------------------
 .byte   PATT
  .word Label_010086D6
@  #05 @039   ----------------------------------------
Label_01008785:
 .byte   N12 ,Gn2 ,v085
 .byte   W12
 .byte   N06 ,Gn2 ,v033
 .byte   W06
 .byte   N03
 .byte   W03
 .byte   Gn2
 .byte   W03
 .byte   N12 ,Gn2 ,v085
 .byte   W12
 .byte   N06 ,Gn2 ,v033
 .byte   W06
 .byte   N03
 .byte   W03
 .byte   Gn2
 .byte   W03
 .byte   N12 ,Gn2 ,v085
 .byte   W12
 .byte   N06 ,Gn2 ,v033
 .byte   W06
 .byte   N03
 .byte   W03
 .byte   Gn2
 .byte   W03
 .byte   N12 ,Gn2 ,v085
 .byte   W12
 .byte   N06 ,Gn2 ,v033
 .byte   W06
 .byte   N03
 .byte   W03
 .byte   Gn2
 .byte   W03
 .byte   PEND 
@  #05 @040   ----------------------------------------
 .byte   W96
@  #05 @041   ----------------------------------------
 .byte   W96
@  #05 @042   ----------------------------------------
 .byte   W96
@  #05 @043   ----------------------------------------
 .byte   W96
@  #05 @044   ----------------------------------------
 .byte   W96
@  #05 @045   ----------------------------------------
 .byte   W96
@  #05 @046   ----------------------------------------
 .byte   W96
@  #05 @047   ----------------------------------------
 .byte   W96
@  #05 @048   ----------------------------------------
 .byte   W96
@  #05 @049   ----------------------------------------
 .byte   W96
@  #05 @050   ----------------------------------------
 .byte   W96
@  #05 @051   ----------------------------------------
 .byte   W96
@  #05 @052   ----------------------------------------
 .byte   W96
@  #05 @053   ----------------------------------------
 .byte   W96
@  #05 @054   ----------------------------------------
 .byte   W96
@  #05 @055   ----------------------------------------
 .byte   W96
@  #05 @056   ----------------------------------------
 .byte   W96
@  #05 @057   ----------------------------------------
 .byte   W96
@  #05 @058   ----------------------------------------
 .byte   W96
@  #05 @059   ----------------------------------------
 .byte   W96
@  #05 @060   ----------------------------------------
 .byte   W96
@  #05 @061   ----------------------------------------
 .byte   W96
@  #05 @062   ----------------------------------------
 .byte   W96
@  #05 @063   ----------------------------------------
 .byte   W96
@  #05 @064   ----------------------------------------
 .byte   W96
@  #05 @065   ----------------------------------------
 .byte   W96
@  #05 @066   ----------------------------------------
 .byte   W96
@  #05 @067   ----------------------------------------
 .byte   W96
@  #05 @068   ----------------------------------------
 .byte   W96
@  #05 @069   ----------------------------------------
 .byte   W96
@  #05 @070   ----------------------------------------
 .byte   W96
@  #05 @071   ----------------------------------------
 .byte   W96
@  #05 @072   ----------------------------------------
 .byte   W96
@  #05 @073   ----------------------------------------
 .byte   W96
@  #05 @074   ----------------------------------------
 .byte   W96
@  #05 @075   ----------------------------------------
 .byte   W96
@  #05 @076   ----------------------------------------
 .byte   W96
@  #05 @077   ----------------------------------------
 .byte   W96
@  #05 @078   ----------------------------------------
 .byte   W96
@  #05 @079   ----------------------------------------
 .byte   W96
@  #05 @080   ----------------------------------------
 .byte   PATT
  .word Label_010086D6
@  #05 @081   ----------------------------------------
 .byte   PATT
  .word Label_010086D6
@  #05 @082   ----------------------------------------
 .byte   PATT
  .word Label_010086D6
@  #05 @083   ----------------------------------------
 .byte   PATT
  .word Label_01008717
@  #05 @084   ----------------------------------------
 .byte   PATT
  .word Label_010086D6
@  #05 @085   ----------------------------------------
 .byte   PATT
  .word Label_010086D6
@  #05 @086   ----------------------------------------
 .byte   PATT
  .word Label_010086D6
@  #05 @087   ----------------------------------------
 .byte   PATT
  .word Label_0100873F
@  #05 @088   ----------------------------------------
 .byte   PATT
  .word Label_010086D6
@  #05 @089   ----------------------------------------
 .byte   PATT
  .word Label_010086D6
@  #05 @090   ----------------------------------------
 .byte   PATT
  .word Label_010086D6
@  #05 @091   ----------------------------------------
 .byte   PATT
  .word Label_01008717
@  #05 @092   ----------------------------------------
 .byte   PATT
  .word Label_010086D6
@  #05 @093   ----------------------------------------
 .byte   PATT
  .word Label_010086D6
@  #05 @094   ----------------------------------------
 .byte   PATT
  .word Label_010086D6
@  #05 @095   ----------------------------------------
 .byte   PATT
  .word Label_01008785
@  #05 @096   ----------------------------------------
 .byte   W96
@  #05 @097   ----------------------------------------
 .byte   W96
@  #05 @098   ----------------------------------------
 .byte   W96
@  #05 @099   ----------------------------------------
 .byte   W96
@  #05 @100   ----------------------------------------
 .byte   W96
@  #05 @101   ----------------------------------------
 .byte   W96
@  #05 @102   ----------------------------------------
 .byte   W96
@  #05 @103   ----------------------------------------
 .byte   W96
@  #05 @104   ----------------------------------------
 .byte   W96
@  #05 @105   ----------------------------------------
 .byte   W96
@  #05 @106   ----------------------------------------
 .byte   W96
@  #05 @107   ----------------------------------------
 .byte   W96
@  #05 @108   ----------------------------------------
 .byte   W96
@  #05 @109   ----------------------------------------
 .byte   W96
@  #05 @110   ----------------------------------------
 .byte   W96
@  #05 @111   ----------------------------------------
 .byte   W96
@  #05 @112   ----------------------------------------
 .byte   GOTO
  .word Label_010086B6
@  #05 @113   ----------------------------------------
 .byte   W96
 .byte   FINE

@**************** Track 6 (Midi-Chn.5) ****************@

song02_006:
@  #06 @000   ----------------------------------------
 .byte   KEYSH , song02_key+0
Label_010088DA:
 .byte   VOICE , 124
 .byte   VOL , 72*song02_mvl/mxv
 .byte   N06 ,Fn4 ,v085
 .byte   N06 ,Dn3
 .byte   N06 ,Cn3 ,v078
 .byte   N06 ,Ds4 ,v023
 .byte   BENDR, 12
 .byte   W06
 .byte   N06 ,Dn3 ,v085
 .byte   N06 ,Fn4 ,v036
 .byte   W06
 .byte   Fn4 ,v008
 .byte   W06
 .byte   Dn3 ,v044
 .byte   N06 ,Fn4 ,v034
 .byte   W06
 .byte   Dn3 ,v085
 .byte   N06 ,Cn3 ,v045
 .byte   N06 ,Fn4 ,v085
 .byte   W06
 .byte   Ds4 ,v023
 .byte   N06 ,Fn4 ,v036
 .byte   W06
 .byte   Fn4 ,v008
 .byte   W06
 .byte   Fn4 ,v034
 .byte   N06 ,Dn3 ,v085
 .byte   N06 ,Ds4 ,v023
 .byte   W06
 .byte   Dn3 ,v085
 .byte   N06 ,Fn4
 .byte   W06
 .byte   Fn4 ,v036
 .byte   W06
 .byte   Cn3 ,v023
 .byte   N06 ,Fn4 ,v008
 .byte   W06
 .byte   Dn3 ,v044
 .byte   N06 ,Fn4 ,v034
 .byte   W06
 .byte   Fn4 ,v085
 .byte   N06 ,Ds4 ,v023
 .byte   N06 ,Dn3 ,v085
 .byte   W06
 .byte   Fn4 ,v036
 .byte   W06
 .byte   Dn3 ,v085
 .byte   N06 ,Fn4 ,v008
 .byte   W06
 .byte   Fn4 ,v034
 .byte   N06 ,Cn3 ,v076
 .byte   W06
@  #06 @001   ----------------------------------------
 .byte   Dn3 ,v085
 .byte   N06 ,Fn4
 .byte   W06
 .byte   Fn4 ,v036
 .byte   W06
 .byte   Fn4 ,v008
 .byte   W06
 .byte   Ds4 ,v023
 .byte   N06 ,Dn3 ,v044
 .byte   N06 ,Fn4 ,v034
 .byte   W06
 .byte   Dn3 ,v085
 .byte   N06 ,Fn4
 .byte   W06
 .byte   Ds4 ,v023
 .byte   N06 ,Fn4 ,v036
 .byte   W06
 .byte   Fn4 ,v008
 .byte   W06
 .byte   Ds4 ,v023
 .byte   N06 ,Cn3 ,v060
 .byte   N06 ,Fn4 ,v034
 .byte   W06
 .byte   Dn3 ,v085
 .byte   N06 ,Fn4
 .byte   W06
 .byte   Fn4 ,v036
 .byte   W06
 .byte   Fn4 ,v008
 .byte   W06
 .byte   Ds4 ,v023
 .byte   N06 ,Dn3 ,v044
 .byte   N06 ,Fn4 ,v034
 .byte   W06
 .byte   Cn3 ,v085
 .byte   N06 ,Dn3
 .byte   N06 ,Fn4
 .byte   W06
 .byte   Fn4 ,v036
 .byte   W06
 .byte   Fn4 ,v008
 .byte   W06
 .byte   Cn3 ,v068
 .byte   N06 ,Fn4 ,v034
 .byte   W06
@  #06 @002   ----------------------------------------
 .byte   Fn4 ,v085
 .byte   N06 ,Ds4 ,v023
 .byte   N06 ,Dn3 ,v085
 .byte   W06
 .byte   Dn3
 .byte   N06 ,Ds4 ,v023
 .byte   N06 ,Fn4 ,v036
 .byte   W06
 .byte   Fn4 ,v008
 .byte   W06
 .byte   Dn3 ,v044
 .byte   N06 ,Fn4 ,v034
 .byte   W06
 .byte   Cn3 ,v045
 .byte   N06 ,Dn3 ,v085
 .byte   N06 ,Fn4
 .byte   W06
 .byte   Ds4 ,v023
 .byte   N06 ,Fn4 ,v036
 .byte   W06
 .byte   Fn4 ,v008
 .byte   W06
 .byte   Fn4 ,v034
 .byte   N06 ,Ds4 ,v023
 .byte   N06 ,Dn3 ,v085
 .byte   W06
 .byte   Dn3
 .byte   N06 ,Fn4
 .byte   W06
 .byte   Fn4 ,v036
 .byte   W06
 .byte   Cn3 ,v023
 .byte   N06 ,Fn4 ,v008
 .byte   W06
 .byte   Dn3 ,v044
 .byte   N06 ,Fn4 ,v034
 .byte   W06
 .byte   Fn4 ,v085
 .byte   N06 ,Ds4 ,v023
 .byte   N06 ,Dn3 ,v085
 .byte   W06
 .byte   Fn4 ,v036
 .byte   W06
 .byte   Dn3 ,v085
 .byte   N06 ,Fn4 ,v008
 .byte   W06
 .byte   Fn4 ,v034
 .byte   N06 ,Cn3 ,v076
 .byte   W06
@  #06 @003   ----------------------------------------
 .byte   Dn3 ,v085
 .byte   N06 ,Ds4 ,v023
 .byte   N06 ,Fn4 ,v085
 .byte   W06
 .byte   Fn4 ,v036
 .byte   W06
 .byte   Fn4 ,v008
 .byte   W06
 .byte   Dn3 ,v044
 .byte   N06 ,Ds4 ,v023
 .byte   N06 ,Fn4 ,v034
 .byte   W06
 .byte   Dn3 ,v085
 .byte   N06 ,Fn4
 .byte   W06
 .byte   Ds4 ,v023
 .byte   N06 ,Fn4 ,v036
 .byte   W06
 .byte   Fn4 ,v008
 .byte   W06
 .byte   Cn3 ,v060
 .byte   N06 ,Fn4 ,v034
 .byte   W06
 .byte   Dn3 ,v085
 .byte   N06 ,Ds4 ,v023
 .byte   N06 ,Fn4 ,v085
 .byte   W06
 .byte   Fn4 ,v036
 .byte   W06
 .byte   Fn4 ,v008
 .byte   W06
 .byte   Dn3 ,v044
 .byte   N06 ,Ds4 ,v023
 .byte   N06 ,Fn4 ,v034
 .byte   W06
 .byte   Cn3 ,v085
 .byte   N06 ,Dn3
 .byte   N06 ,Fn4
 .byte   W06
 .byte   Fn4 ,v036
 .byte   N06 ,Ds4 ,v023
 .byte   W06
 .byte   Fn4 ,v008
 .byte   N06 ,Ds4 ,v023
 .byte   W06
 .byte   Dn3 ,v044
 .byte   N06 ,Fn4 ,v034
 .byte   W06
@  #06 @004   ----------------------------------------
 .byte   N12 ,Bn1 ,v127
 .byte   N06 ,Fn4 ,v085
 .byte   N06 ,Ds4 ,v023
 .byte   N06 ,Cs3 ,v006
 .byte   N06 ,Dn3 ,v085
 .byte   N12 ,En1 ,v041
 .byte   N12 ,Fs1 ,v127
 .byte   W06
 .byte   N06 ,Dn3 ,v063
 .byte   N06 ,Fn4 ,v036
 .byte   W06
 .byte   Fn4 ,v008
 .byte   W06
 .byte   Dn3 ,v085
 .byte   N06 ,Fn4 ,v034
 .byte   W06
 .byte   N12 ,Fs1 ,v127
 .byte   N12 ,En1 ,v065
 .byte   N06 ,Cn3 ,v043
 .byte   N06 ,Fn4 ,v085
 .byte   W06
 .byte   Dn3
 .byte   N06 ,Fn4 ,v036
 .byte   W06
 .byte   Fn4 ,v008
 .byte   N12 ,Cs1 ,v127
 .byte   N12 ,Fs1
 .byte   W06
 .byte   N06 ,Ds4 ,v023
 .byte   N06 ,Fn4 ,v034
 .byte   W06
 .byte   Fn4 ,v085
 .byte   N06 ,Dn3 ,v070
 .byte   N06 ,Cs3 ,v007
 .byte   N12 ,En1 ,v030
 .byte   N12 ,Fs1 ,v127
 .byte   W06
 .byte   N06 ,Fn4 ,v036
 .byte   W06
 .byte   N12 ,Cs1 ,v127
 .byte   N12 ,Fs1
 .byte   N06 ,Dn3 ,v065
 .byte   N06 ,Fn4 ,v008
 .byte   N12 ,Bn1 ,v127
 .byte   W06
 .byte   N06 ,Fn4 ,v034
 .byte   W06
 .byte   N12 ,En1 ,v068
 .byte   N12 ,Fs1 ,v127
 .byte   N06 ,Cn3 ,v018
 .byte   N06 ,Fn4 ,v085
 .byte   W06
 .byte   Fn4 ,v036
 .byte   W06
 .byte   Fn4 ,v008
 .byte   N12 ,Cs1 ,v127
 .byte   N12 ,Fs1
 .byte   N06 ,Dn3 ,v049
 .byte   W06
 .byte   Dn3 ,v085
 .byte   N06 ,Fn4 ,v034
 .byte   W06
@  #06 @005   ----------------------------------------
 .byte   N12 ,Bn1 ,v127
 .byte   N06 ,Fn4 ,v085
 .byte   N06 ,Ds4 ,v023
 .byte   N06 ,Cs3 ,v010
 .byte   N12 ,Fs1 ,v127
 .byte   N12 ,En1 ,v041
 .byte   W06
 .byte   N06 ,Fn4 ,v036
 .byte   W06
 .byte   Dn3 ,v078
 .byte   N06 ,Fn4 ,v008
 .byte   W06
 .byte   Ds4 ,v023
 .byte   N06 ,Fn4 ,v034
 .byte   W06
 .byte   N12 ,En1 ,v065
 .byte   N12 ,Fs1 ,v127
 .byte   N06 ,Cn3 ,v045
 .byte   N06 ,Fn4 ,v085
 .byte   W06
 .byte   Ds4 ,v023
 .byte   N06 ,Dn3 ,v060
 .byte   N06 ,Fn4 ,v036
 .byte   W06
 .byte   Fn4 ,v008
 .byte   N12 ,Cs1 ,v127
 .byte   N12 ,Fs1
 .byte   N06 ,Dn3 ,v052
 .byte   W06
 .byte   Ds4 ,v023
 .byte   N06 ,Fn4 ,v034
 .byte   W06
 .byte   Fn4 ,v085
 .byte   N06 ,Cs3 ,v018
 .byte   N12 ,En1 ,v030
 .byte   N12 ,Fs1 ,v127
 .byte   W06
 .byte   N06 ,Fn4 ,v036
 .byte   W06
 .byte   N12 ,Cs1 ,v127
 .byte   N12 ,Fs1
 .byte   N06 ,Dn3 ,v024
 .byte   N06 ,Fn4 ,v008
 .byte   N12 ,Bn1 ,v127
 .byte   W06
 .byte   N06 ,Ds4 ,v023
 .byte   N06 ,Fn4 ,v034
 .byte   W06
 .byte   N12 ,En1 ,v068
 .byte   N12 ,Fs1 ,v127
 .byte   N06 ,Cn3 ,v052
 .byte   N06 ,Fn4 ,v085
 .byte   W06
 .byte   Fn4 ,v036
 .byte   W06
 .byte   Fn4 ,v008
 .byte   N12 ,Cs1 ,v127
 .byte   N12 ,Fs1
 .byte   W06
 .byte   N06 ,Dn3 ,v085
 .byte   N06 ,Fn4 ,v034
 .byte   W06
@  #06 @006   ----------------------------------------
 .byte   N12 ,Bn1 ,v127
 .byte   N06 ,Fn4 ,v085
 .byte   N06 ,Ds4 ,v023
 .byte   N06 ,Cs3 ,v012
 .byte   N12 ,Fs1 ,v127
 .byte   N12 ,En1 ,v041
 .byte   W06
 .byte   N06 ,Ds4 ,v023
 .byte   N06 ,Fn4 ,v036
 .byte   W06
 .byte   Dn3 ,v085
 .byte   N06 ,Fn4 ,v008
 .byte   W06
 .byte   Fn4 ,v034
 .byte   W06
 .byte   N12 ,En1 ,v065
 .byte   N12 ,Fs1 ,v127
 .byte   N06 ,Cn3 ,v029
 .byte   N06 ,Fn4 ,v085
 .byte   W06
 .byte   Ds4 ,v023
 .byte   N06 ,Fn4 ,v036
 .byte   W06
 .byte   Fn4 ,v008
 .byte   N12 ,Cs1 ,v127
 .byte   N12 ,Fs1
 .byte   W06
 .byte   N06 ,Dn3 ,v085
 .byte   N06 ,Ds4 ,v023
 .byte   N06 ,Fn4 ,v034
 .byte   W06
 .byte   Fn4 ,v085
 .byte   N06 ,Cs3 ,v016
 .byte   N12 ,En1 ,v030
 .byte   N12 ,Fs1 ,v127
 .byte   W06
 .byte   N06 ,Ds4 ,v023
 .byte   N06 ,Fn4 ,v036
 .byte   W06
 .byte   N12 ,Cs1 ,v127
 .byte   N12 ,Fs1
 .byte   N06 ,Fn4 ,v008
 .byte   N12 ,Bn1 ,v127
 .byte   W06
 .byte   N06 ,Dn3 ,v024
 .byte   N06 ,Fn4 ,v034
 .byte   W06
 .byte   N12 ,En1 ,v068
 .byte   N12 ,Fs1 ,v127
 .byte   N06 ,Cn3 ,v045
 .byte   N06 ,Ds4 ,v023
 .byte   N06 ,Fn4 ,v085
 .byte   W06
 .byte   Dn3 ,v068
 .byte   N06 ,Fn4 ,v036
 .byte   W06
 .byte   Fn4 ,v008
 .byte   N12 ,Cs1 ,v127
 .byte   N12 ,Fs1
 .byte   W06
 .byte   N06 ,Fn4 ,v034
 .byte   N06 ,Dn3 ,v060
 .byte   W06
@  #06 @007   ----------------------------------------
 .byte   Cs3 ,v015
 .byte   N06 ,Dn3 ,v085
 .byte   N06 ,Cn3 ,v027
 .byte   W12
 .byte   Dn3 ,v085
 .byte   W06
 .byte   Dn3
 .byte   N06 ,Cn3 ,v037
 .byte   W06
 .byte   Cn3 ,v045
 .byte   N06 ,Dn3 ,v085
 .byte   W12
 .byte   Dn3
 .byte   W12
 .byte   Cs3 ,v015
 .byte   N06 ,Dn3 ,v085
 .byte   N06 ,Cn3 ,v050
 .byte   W12
 .byte   Dn3 ,v085
 .byte   W06
 .byte   Dn3
 .byte   N06 ,Cn3 ,v032
 .byte   W06
 .byte   Cn3 ,v058
 .byte   N06 ,Dn3 ,v085
 .byte   W12
 .byte   Dn3
 .byte   W06
 .byte   Dn3
 .byte   W06
@  #06 @008   ----------------------------------------
Label_01008C35:
 .byte   N12 ,Bn1 ,v127
 .byte   N06 ,Fn4 ,v085
 .byte   N06 ,Dn3
 .byte   N06 ,As1
 .byte   N12 ,Cn1 ,v109
 .byte   N06 ,Cn3 ,v078
 .byte   N06 ,Ds4 ,v023
 .byte   W06
 .byte   Fs1 ,v085
 .byte   N06 ,Dn3
 .byte   N06 ,Fn4 ,v036
 .byte   W06
 .byte   Fs1 ,v085
 .byte   N06 ,Fn4 ,v008
 .byte   W06
 .byte   Fs1 ,v085
 .byte   N06 ,Dn3 ,v044
 .byte   N06 ,Fn4 ,v034
 .byte   W06
 .byte   Fs1 ,v085
 .byte   N12 ,En1
 .byte   N12 ,Ds1 ,v101
 .byte   N12 ,Dn1 ,v056
 .byte   N06 ,Dn3 ,v085
 .byte   N06 ,Cn3 ,v045
 .byte   N06 ,Fn4 ,v085
 .byte   W06
 .byte   Fs1
 .byte   N06 ,Ds4 ,v023
 .byte   N06 ,Fn4 ,v036
 .byte   W06
 .byte   N12 ,Bn1 ,v127
 .byte   N06 ,Fn4 ,v008
 .byte   N12 ,Cn1 ,v109
 .byte   N06 ,Fs1 ,v085
 .byte   W06
 .byte   Fn4 ,v034
 .byte   N06 ,Dn3 ,v085
 .byte   N06 ,Fs1
 .byte   N06 ,Ds4 ,v023
 .byte   W06
 .byte   N12 ,Cn1 ,v043
 .byte   N06 ,As1 ,v085
 .byte   N06 ,Dn3
 .byte   N06 ,Fn4
 .byte   N12 ,Bn1 ,v127
 .byte   W06
 .byte   N06 ,Fs1 ,v085
 .byte   N06 ,Fn4 ,v036
 .byte   W06
 .byte   N12 ,Cn1 ,v109
 .byte   N06 ,Fs1 ,v085
 .byte   N06 ,Cn3 ,v023
 .byte   N06 ,Fn4 ,v008
 .byte   N12 ,Bn1 ,v127
 .byte   W06
 .byte   N06 ,Fs1 ,v085
 .byte   N06 ,Dn3 ,v044
 .byte   N06 ,Fn4 ,v034
 .byte   W06
 .byte   Fn4 ,v085
 .byte   N06 ,Fs1
 .byte   N12 ,En1
 .byte   N12 ,Ds1 ,v101
 .byte   N12 ,Dn1 ,v056
 .byte   N06 ,Ds4 ,v023
 .byte   N06 ,Dn3 ,v085
 .byte   W06
 .byte   Fs1
 .byte   N06 ,Fn4 ,v036
 .byte   W06
 .byte   Fs1 ,v085
 .byte   N06 ,Dn3
 .byte   N06 ,Fn4 ,v008
 .byte   W06
 .byte   Fn4 ,v034
 .byte   N06 ,Fs1 ,v085
 .byte   N06 ,Cn3 ,v076
 .byte   W06
 .byte   PEND 
@  #06 @009   ----------------------------------------
Label_01008CED:
 .byte   N12 ,Cn1 ,v109
 .byte   N06 ,As1 ,v085
 .byte   N06 ,Dn3
 .byte   N06 ,Fn4
 .byte   N12 ,Bn1 ,v127
 .byte   W06
 .byte   N06 ,Fn4 ,v036
 .byte   N06 ,Fs1 ,v085
 .byte   W06
 .byte   Fn4 ,v008
 .byte   N06 ,Fs1 ,v085
 .byte   W06
 .byte   Fs1
 .byte   N06 ,Ds4 ,v023
 .byte   N06 ,Dn3 ,v044
 .byte   N06 ,Fn4 ,v034
 .byte   W06
 .byte   N12 ,Dn1 ,v056
 .byte   N06 ,Fs1 ,v085
 .byte   N12 ,En1
 .byte   N12 ,Ds1 ,v101
 .byte   N06 ,Dn3 ,v085
 .byte   N06 ,Fn4
 .byte   W06
 .byte   Fs1
 .byte   N06 ,Ds4 ,v023
 .byte   N06 ,Fn4 ,v036
 .byte   W06
 .byte   N12 ,Bn1 ,v127
 .byte   N06 ,Fn4 ,v008
 .byte   N06 ,Fs1 ,v085
 .byte   N12 ,Cn1 ,v109
 .byte   W06
 .byte   N06 ,Fs1 ,v085
 .byte   N06 ,Ds4 ,v023
 .byte   N06 ,Cn3 ,v060
 .byte   N06 ,Fn4 ,v034
 .byte   W06
 .byte   As1 ,v085
 .byte   N12 ,Ds1 ,v101
 .byte   N06 ,Dn3 ,v085
 .byte   N06 ,Fn4
 .byte   N12 ,Bn1 ,v127
 .byte   W06
 .byte   N06 ,Fn4 ,v036
 .byte   N06 ,Fs1 ,v085
 .byte   W06
 .byte   N12 ,Cn1 ,v109
 .byte   N06 ,Fs1 ,v085
 .byte   N06 ,Fn4 ,v008
 .byte   N12 ,Bn1 ,v127
 .byte   W06
 .byte   N06 ,Fs1 ,v085
 .byte   N06 ,Ds4 ,v023
 .byte   N06 ,Dn3 ,v044
 .byte   N06 ,Fn4 ,v034
 .byte   W06
 .byte   Fs1 ,v085
 .byte   N12 ,En1
 .byte   N12 ,Ds1 ,v101
 .byte   N12 ,Dn1 ,v056
 .byte   N06 ,Cn3 ,v085
 .byte   N06 ,Dn3
 .byte   N06 ,Fn4
 .byte   W06
 .byte   N12 ,Bn1 ,v127
 .byte   N06 ,Fn4 ,v036
 .byte   N12 ,Cn1 ,v043
 .byte   N06 ,Fs1 ,v085
 .byte   W06
 .byte   Fn4 ,v008
 .byte   N06 ,Fs1 ,v085
 .byte   W06
 .byte   Fs1
 .byte   N06 ,Cn3 ,v068
 .byte   N06 ,Fn4 ,v034
 .byte   W06
 .byte   PEND 
@  #06 @010   ----------------------------------------
Label_01008DA3:
 .byte   N12 ,Bn1 ,v127
 .byte   N06 ,Fn4 ,v085
 .byte   N06 ,Ds4 ,v023
 .byte   N06 ,Dn3 ,v085
 .byte   N06 ,As1
 .byte   N12 ,Cn1 ,v109
 .byte   W06
 .byte   N06 ,Fs1 ,v085
 .byte   N06 ,Dn3
 .byte   N06 ,Ds4 ,v023
 .byte   N06 ,Fn4 ,v036
 .byte   W06
 .byte   Fs1 ,v085
 .byte   N06 ,Fn4 ,v008
 .byte   W06
 .byte   Fs1 ,v085
 .byte   N06 ,Dn3 ,v044
 .byte   N06 ,Fn4 ,v034
 .byte   W06
 .byte   Fs1 ,v085
 .byte   N12 ,En1
 .byte   N12 ,Ds1 ,v101
 .byte   N12 ,Dn1 ,v056
 .byte   N06 ,Cn3 ,v045
 .byte   N06 ,Dn3 ,v085
 .byte   N06 ,Fn4
 .byte   W06
 .byte   Fs1
 .byte   N06 ,Ds4 ,v023
 .byte   N06 ,Fn4 ,v036
 .byte   W06
 .byte   N12 ,Bn1 ,v127
 .byte   N06 ,Fn4 ,v008
 .byte   N12 ,Cn1 ,v109
 .byte   N06 ,Fs1 ,v085
 .byte   W06
 .byte   Fn4 ,v034
 .byte   N06 ,Ds4 ,v023
 .byte   N06 ,Dn3 ,v085
 .byte   N06 ,Fs1
 .byte   W06
 .byte   N12 ,Cn1 ,v043
 .byte   N06 ,As1 ,v085
 .byte   N06 ,Dn3
 .byte   N06 ,Fn4
 .byte   N12 ,Bn1 ,v127
 .byte   W06
 .byte   N06 ,Fs1 ,v085
 .byte   N06 ,Fn4 ,v036
 .byte   W06
 .byte   N12 ,Cn1 ,v109
 .byte   N06 ,Fs1 ,v085
 .byte   N06 ,Cn3 ,v023
 .byte   N06 ,Fn4 ,v008
 .byte   N12 ,Bn1 ,v127
 .byte   W06
 .byte   N06 ,Fs1 ,v085
 .byte   N06 ,Dn3 ,v044
 .byte   N06 ,Fn4 ,v034
 .byte   W06
 .byte   Fn4 ,v085
 .byte   N06 ,Ds4 ,v023
 .byte   N12 ,En1 ,v085
 .byte   N12 ,Ds1 ,v101
 .byte   N12 ,Dn1 ,v056
 .byte   N06 ,Fs1 ,v085
 .byte   N06 ,Dn3
 .byte   W06
 .byte   Fs1
 .byte   N06 ,Fn4 ,v036
 .byte   W06
 .byte   Fs1 ,v085
 .byte   N06 ,Dn3
 .byte   N06 ,Fn4 ,v008
 .byte   W06
 .byte   Fn4 ,v034
 .byte   N06 ,Fs1 ,v085
 .byte   N06 ,Cn3 ,v076
 .byte   W06
 .byte   PEND 
@  #06 @011   ----------------------------------------
Label_01008E5D:
 .byte   N12 ,Cn1 ,v109
 .byte   N06 ,As1 ,v085
 .byte   N06 ,Dn3
 .byte   N06 ,Ds4 ,v023
 .byte   N06 ,Fn4 ,v085
 .byte   N12 ,Bn1 ,v127
 .byte   W06
 .byte   N06 ,Fn4 ,v036
 .byte   N06 ,Fs1 ,v085
 .byte   W06
 .byte   Fn4 ,v008
 .byte   N06 ,Fs1 ,v085
 .byte   W06
 .byte   Fs1
 .byte   N06 ,Dn3 ,v044
 .byte   N06 ,Ds4 ,v023
 .byte   N06 ,Fn4 ,v034
 .byte   W06
 .byte   N12 ,Dn1 ,v056
 .byte   N06 ,Fs1 ,v085
 .byte   N12 ,En1
 .byte   N12 ,Ds1 ,v101
 .byte   N06 ,Dn3 ,v085
 .byte   N06 ,Fn4
 .byte   W06
 .byte   Fs1
 .byte   N06 ,Ds4 ,v023
 .byte   N06 ,Fn4 ,v036
 .byte   W06
 .byte   N12 ,Bn1 ,v127
 .byte   N06 ,Fn4 ,v008
 .byte   N06 ,Fs1 ,v085
 .byte   N12 ,Cn1 ,v109
 .byte   W06
 .byte   N06 ,Fs1 ,v085
 .byte   N06 ,Cn3 ,v060
 .byte   N06 ,Fn4 ,v034
 .byte   W06
 .byte   As1 ,v085
 .byte   N12 ,Ds1 ,v101
 .byte   N06 ,Dn3 ,v085
 .byte   N06 ,Ds4 ,v023
 .byte   N06 ,Fn4 ,v085
 .byte   N12 ,Bn1 ,v127
 .byte   W06
 .byte   N06 ,Fn4 ,v036
 .byte   N06 ,Fs1 ,v085
 .byte   W06
 .byte   N12 ,Cn1 ,v109
 .byte   N06 ,Fs1 ,v085
 .byte   N06 ,Fn4 ,v008
 .byte   N12 ,Bn1 ,v127
 .byte   W06
 .byte   N06 ,Fs1 ,v085
 .byte   N06 ,Dn3 ,v044
 .byte   N06 ,Ds4 ,v023
 .byte   N06 ,Fn4 ,v034
 .byte   W06
 .byte   Fs1 ,v085
 .byte   N12 ,En1
 .byte   N12 ,Ds1 ,v101
 .byte   N12 ,Dn1 ,v056
 .byte   N06 ,Cn3 ,v085
 .byte   N06 ,Dn3
 .byte   N06 ,Fn4
 .byte   W06
 .byte   N12 ,Bn1 ,v127
 .byte   N06 ,Fn4 ,v036
 .byte   N06 ,Ds4 ,v023
 .byte   N12 ,Cn1 ,v043
 .byte   N06 ,Fs1 ,v085
 .byte   W06
 .byte   Fn4 ,v008
 .byte   N06 ,Ds4 ,v023
 .byte   N06 ,Fs1 ,v085
 .byte   W06
 .byte   Fs1
 .byte   N06 ,Dn3 ,v044
 .byte   N06 ,Fn4 ,v034
 .byte   W06
 .byte   PEND 
@  #06 @012   ----------------------------------------
Label_01008F1E:
 .byte   N12 ,Bn1 ,v127
 .byte   N06 ,Fn4 ,v085
 .byte   N06 ,Ds4 ,v023
 .byte   N06 ,Cs3 ,v006
 .byte   N06 ,Dn3 ,v085
 .byte   N06 ,As1
 .byte   N12 ,Cn1 ,v109
 .byte   W06
 .byte   N06 ,Fs1 ,v085
 .byte   N06 ,Dn3 ,v063
 .byte   N06 ,Fn4 ,v036
 .byte   W06
 .byte   Fs1 ,v085
 .byte   N06 ,Fn4 ,v008
 .byte   W06
 .byte   Fs1 ,v085
 .byte   N06 ,Dn3
 .byte   N06 ,Fn4 ,v034
 .byte   W06
 .byte   Fs1 ,v085
 .byte   N12 ,En1
 .byte   N12 ,Ds1 ,v101
 .byte   N12 ,Dn1 ,v056
 .byte   N06 ,Cn3 ,v043
 .byte   N06 ,Fn4 ,v085
 .byte   W06
 .byte   Fs1
 .byte   N06 ,Dn3
 .byte   N06 ,Fn4 ,v036
 .byte   W06
 .byte   N12 ,Bn1 ,v127
 .byte   N06 ,Fn4 ,v008
 .byte   N12 ,Cn1 ,v109
 .byte   N06 ,Fs1 ,v085
 .byte   W06
 .byte   Fs1
 .byte   N06 ,Ds4 ,v023
 .byte   N06 ,Fn4 ,v034
 .byte   W06
 .byte   N12 ,Bn1 ,v127
 .byte   N06 ,Fn4 ,v085
 .byte   N06 ,Dn3 ,v070
 .byte   N06 ,Cs3 ,v007
 .byte   N12 ,Cn1 ,v043
 .byte   N06 ,As1 ,v085
 .byte   W06
 .byte   Fs1
 .byte   N06 ,Fn4 ,v036
 .byte   W06
 .byte   N12 ,Cn1 ,v109
 .byte   N06 ,Fs1 ,v085
 .byte   N06 ,Dn3 ,v065
 .byte   N06 ,Fn4 ,v008
 .byte   N12 ,Bn1 ,v127
 .byte   W06
 .byte   N06 ,Fs1 ,v085
 .byte   N06 ,Fn4 ,v034
 .byte   W06
 .byte   N12 ,En1 ,v085
 .byte   N12 ,Ds1 ,v101
 .byte   N12 ,Dn1 ,v056
 .byte   N06 ,Fs1 ,v085
 .byte   N06 ,Cn3 ,v018
 .byte   N06 ,Fn4 ,v085
 .byte   W06
 .byte   Fs1
 .byte   N06 ,Fn4 ,v036
 .byte   W06
 .byte   Fn4 ,v008
 .byte   N06 ,Fs1 ,v085
 .byte   N06 ,Dn3 ,v049
 .byte   W06
 .byte   Fs1 ,v085
 .byte   N06 ,Dn3
 .byte   N06 ,Fn4 ,v034
 .byte   W06
 .byte   PEND 
@  #06 @013   ----------------------------------------
Label_01008FD1:
 .byte   N12 ,Bn1 ,v127
 .byte   N06 ,Fn4 ,v085
 .byte   N06 ,Cs3 ,v010
 .byte   N12 ,Cn1 ,v109
 .byte   N06 ,As1 ,v085
 .byte   N06 ,Ds4 ,v023
 .byte   W06
 .byte   Fs1 ,v085
 .byte   N06 ,Fn4 ,v036
 .byte   W06
 .byte   Fs1 ,v085
 .byte   N06 ,Dn3 ,v078
 .byte   N06 ,Fn4 ,v008
 .byte   W06
 .byte   Fs1 ,v085
 .byte   N06 ,Ds4 ,v023
 .byte   N06 ,Fn4 ,v034
 .byte   W06
 .byte   N12 ,Dn1 ,v056
 .byte   N06 ,Fs1 ,v085
 .byte   N12 ,En1
 .byte   N12 ,Ds1 ,v101
 .byte   N06 ,Cn3 ,v045
 .byte   N06 ,Fn4 ,v085
 .byte   W06
 .byte   Fs1
 .byte   N06 ,Ds4 ,v023
 .byte   N06 ,Dn3 ,v060
 .byte   N06 ,Fn4 ,v036
 .byte   W06
 .byte   N12 ,Bn1 ,v127
 .byte   N06 ,Fn4 ,v008
 .byte   N06 ,Fs1 ,v085
 .byte   N12 ,Cn1 ,v109
 .byte   N06 ,Dn3 ,v052
 .byte   W06
 .byte   Fs1 ,v085
 .byte   N06 ,Ds4 ,v023
 .byte   N06 ,Fn4 ,v034
 .byte   W06
 .byte   N12 ,Bn1 ,v127
 .byte   N06 ,Fn4 ,v085
 .byte   N06 ,Cs3 ,v018
 .byte   N06 ,As1 ,v085
 .byte   N12 ,Ds1 ,v101
 .byte   W06
 .byte   N06 ,Fs1 ,v085
 .byte   N06 ,Fn4 ,v036
 .byte   W06
 .byte   N12 ,Cn1 ,v109
 .byte   N06 ,Fs1 ,v085
 .byte   N06 ,Dn3 ,v024
 .byte   N06 ,Fn4 ,v008
 .byte   N12 ,Bn1 ,v127
 .byte   W06
 .byte   N06 ,Fs1 ,v085
 .byte   N06 ,Ds4 ,v023
 .byte   N06 ,Fn4 ,v034
 .byte   W06
 .byte   Fs1 ,v085
 .byte   N12 ,En1
 .byte   N12 ,Ds1 ,v101
 .byte   N12 ,Dn1 ,v056
 .byte   N06 ,Cn3 ,v052
 .byte   N06 ,Fn4 ,v085
 .byte   W06
 .byte   N12 ,Cn1 ,v043
 .byte   N06 ,Fs1 ,v085
 .byte   N06 ,Fn4 ,v036
 .byte   N12 ,Bn1 ,v127
 .byte   W06
 .byte   N06 ,Fn4 ,v008
 .byte   N06 ,Fs1 ,v085
 .byte   W06
 .byte   Fs1
 .byte   N06 ,Dn3
 .byte   N06 ,Fn4 ,v034
 .byte   W06
 .byte   PEND 
@  #06 @014   ----------------------------------------
Label_01009090:
 .byte   N12 ,Bn1 ,v127
 .byte   N06 ,Fn4 ,v085
 .byte   N06 ,Ds4 ,v023
 .byte   N06 ,Cs3 ,v012
 .byte   N06 ,As1 ,v085
 .byte   N12 ,Cn1 ,v109
 .byte   W06
 .byte   N06 ,Fs1 ,v085
 .byte   N06 ,Ds4 ,v023
 .byte   N06 ,Fn4 ,v036
 .byte   W06
 .byte   Dn3 ,v085
 .byte   N06 ,Fs1
 .byte   N06 ,Fn4 ,v008
 .byte   W06
 .byte   Fs1 ,v085
 .byte   N06 ,Fn4 ,v034
 .byte   W06
 .byte   Fs1 ,v085
 .byte   N12 ,En1
 .byte   N12 ,Ds1 ,v101
 .byte   N12 ,Dn1 ,v056
 .byte   N06 ,Cn3 ,v029
 .byte   N06 ,Fn4 ,v085
 .byte   W06
 .byte   Fs1
 .byte   N06 ,Ds4 ,v023
 .byte   N06 ,Fn4 ,v036
 .byte   W06
 .byte   N12 ,Bn1 ,v127
 .byte   N06 ,Fn4 ,v008
 .byte   N12 ,Cn1 ,v109
 .byte   N06 ,Fs1 ,v085
 .byte   W06
 .byte   Fs1
 .byte   N06 ,Dn3
 .byte   N06 ,Ds4 ,v023
 .byte   N06 ,Fn4 ,v034
 .byte   W06
 .byte   N12 ,Bn1 ,v127
 .byte   N06 ,Fn4 ,v085
 .byte   N06 ,Cs3 ,v016
 .byte   N12 ,Cn1 ,v043
 .byte   N06 ,As1 ,v085
 .byte   W06
 .byte   Fs1
 .byte   N06 ,Ds4 ,v023
 .byte   N06 ,Fn4 ,v036
 .byte   W06
 .byte   N12 ,Cn1 ,v109
 .byte   N06 ,Fs1 ,v085
 .byte   N06 ,Fn4 ,v008
 .byte   N12 ,Bn1 ,v127
 .byte   W06
 .byte   N06 ,Fs1 ,v085
 .byte   N06 ,Dn3 ,v024
 .byte   N06 ,Fn4 ,v034
 .byte   W06
 .byte   Ds4 ,v023
 .byte   N12 ,En1 ,v085
 .byte   N12 ,Ds1 ,v101
 .byte   N12 ,Dn1 ,v056
 .byte   N06 ,Fs1 ,v085
 .byte   N06 ,Cn3 ,v045
 .byte   N06 ,Fn4 ,v085
 .byte   W06
 .byte   Fs1
 .byte   N06 ,Dn3 ,v068
 .byte   N06 ,Fn4 ,v036
 .byte   W06
 .byte   Fn4 ,v008
 .byte   N06 ,Fs1 ,v085
 .byte   W06
 .byte   Fn4 ,v034
 .byte   N06 ,Dn3 ,v060
 .byte   N06 ,Fs1 ,v085
 .byte   W06
 .byte   PEND 
@  #06 @015   ----------------------------------------
Label_01009147:
 .byte   N06 ,Cs3 ,v015
 .byte   N06 ,Dn3 ,v085
 .byte   N06 ,Cn3 ,v027
 .byte   N12 ,Cn1 ,v109
 .byte   N06 ,As1 ,v085
 .byte   N06 ,Ds4 ,v023
 .byte   N06 ,Fn4 ,v085
 .byte   N12 ,Bn1 ,v127
 .byte   W06
 .byte   N06 ,Fs1 ,v085
 .byte   N06 ,Fn4 ,v036
 .byte   W06
 .byte   Dn3 ,v085
 .byte   N06 ,Fs1
 .byte   N06 ,Fn4 ,v008
 .byte   W06
 .byte   Cn3 ,v037
 .byte   N06 ,Dn3 ,v085
 .byte   N06 ,Ds4 ,v023
 .byte   N06 ,Fs1 ,v085
 .byte   N06 ,Fn4 ,v034
 .byte   W06
 .byte   Dn3 ,v085
 .byte   N06 ,Cn3 ,v045
 .byte   N12 ,Ds1 ,v101
 .byte   N12 ,En1 ,v085
 .byte   N06 ,Fs1
 .byte   N12 ,Dn1 ,v056
 .byte   N06 ,Fn4 ,v085
 .byte   W06
 .byte   Ds4 ,v023
 .byte   N06 ,Fs1 ,v085
 .byte   N06 ,Fn4 ,v036
 .byte   W06
 .byte   N12 ,Bn1 ,v127
 .byte   N06 ,Fn4 ,v008
 .byte   N06 ,Fs1 ,v085
 .byte   N06 ,Dn3
 .byte   N12 ,Cn1 ,v109
 .byte   W06
 .byte   N06 ,Fs1 ,v085
 .byte   N06 ,Fn4 ,v034
 .byte   W06
 .byte   N12 ,Ds1 ,v101
 .byte   N06 ,Cs3 ,v015
 .byte   N06 ,Dn3 ,v085
 .byte   N06 ,Cn3 ,v050
 .byte   N06 ,As1 ,v085
 .byte   N06 ,Ds4 ,v023
 .byte   N06 ,Fn4 ,v085
 .byte   N12 ,Bn1 ,v127
 .byte   W06
 .byte   N06 ,Fs1 ,v085
 .byte   N06 ,Fn4 ,v036
 .byte   W06
 .byte   Fs1 ,v085
 .byte   N06 ,Dn3
 .byte   N12 ,Cn1 ,v109
 .byte   N06 ,Fn4 ,v008
 .byte   N12 ,Bn1 ,v127
 .byte   W06
 .byte   N06 ,Cn3 ,v032
 .byte   N06 ,Dn3 ,v085
 .byte   N06 ,Ds4 ,v023
 .byte   N06 ,Fs1 ,v085
 .byte   N06 ,Fn4 ,v034
 .byte   W06
 .byte   Dn3 ,v085
 .byte   N06 ,Cn3 ,v058
 .byte   N12 ,Dn1 ,v056
 .byte   N12 ,Ds1 ,v101
 .byte   N12 ,En1 ,v085
 .byte   N06 ,Fs1
 .byte   N06 ,Fn4
 .byte   W06
 .byte   Fs1
 .byte   N12 ,Cn1 ,v043
 .byte   N06 ,Fn4 ,v036
 .byte   N12 ,Bn1 ,v127
 .byte   W06
 .byte   N06 ,Fn4 ,v008
 .byte   N06 ,Fs1 ,v085
 .byte   N06 ,Dn3
 .byte   W06
 .byte   Dn3
 .byte   N06 ,Fs1
 .byte   N06 ,Fn4 ,v034
 .byte   W06
 .byte   PEND 
@  #06 @016   ----------------------------------------
 .byte   PATT
  .word Label_01008C35
@  #06 @017   ----------------------------------------
 .byte   PATT
  .word Label_01008CED
@  #06 @018   ----------------------------------------
 .byte   PATT
  .word Label_01008DA3
@  #06 @019   ----------------------------------------
 .byte   PATT
  .word Label_01008E5D
@  #06 @020   ----------------------------------------
 .byte   PATT
  .word Label_01008F1E
@  #06 @021   ----------------------------------------
 .byte   PATT
  .word Label_01008FD1
@  #06 @022   ----------------------------------------
 .byte   PATT
  .word Label_01009090
@  #06 @023   ----------------------------------------
Label_01009241:
 .byte   N12 ,Cn1 ,v109
 .byte   N06 ,As1 ,v085
 .byte   N06 ,Dn3
 .byte   N06 ,Cs3 ,v015
 .byte   N06 ,Ds4 ,v023
 .byte   N06 ,Fn4 ,v085
 .byte   N12 ,Bn1 ,v127
 .byte   W06
 .byte   N06 ,Fs1 ,v085
 .byte   N06 ,Fn4 ,v036
 .byte   W06
 .byte   Fs1 ,v085
 .byte   N06 ,Fn4 ,v008
 .byte   W06
 .byte   Ds4 ,v023
 .byte   N06 ,Fs1 ,v085
 .byte   N06 ,Dn3
 .byte   N06 ,Fn4 ,v034
 .byte   W06
 .byte   N12 ,Ds1 ,v101
 .byte   N12 ,En1 ,v085
 .byte   N06 ,Fs1
 .byte   N12 ,Dn1 ,v056
 .byte   N06 ,Dn3 ,v085
 .byte   N06 ,Cn3 ,v068
 .byte   N06 ,Fn4 ,v085
 .byte   W06
 .byte   Ds4 ,v023
 .byte   N06 ,Fs1 ,v085
 .byte   N06 ,Fn4 ,v036
 .byte   W06
 .byte   N12 ,Bn1 ,v127
 .byte   N06 ,Fn4 ,v008
 .byte   N06 ,Dn3 ,v085
 .byte   N12 ,Cn1 ,v109
 .byte   N06 ,Fs1 ,v085
 .byte   W06
 .byte   Fs1
 .byte   N06 ,Fn4 ,v034
 .byte   W06
 .byte   N12 ,Ds1 ,v101
 .byte   N06 ,As1 ,v085
 .byte   N06 ,Dn3
 .byte   N06 ,Cs3 ,v015
 .byte   N06 ,Ds4 ,v023
 .byte   N06 ,Fn4 ,v085
 .byte   N12 ,Bn1 ,v127
 .byte   W06
 .byte   N06 ,Fs1 ,v085
 .byte   N06 ,Fn4 ,v036
 .byte   W06
 .byte   Fs1 ,v085
 .byte   N12 ,Cn1 ,v109
 .byte   N06 ,Fn4 ,v008
 .byte   N12 ,Bn1 ,v127
 .byte   W06
 .byte   N06 ,Ds4 ,v023
 .byte   N06 ,Fs1 ,v085
 .byte   N06 ,Dn3
 .byte   N06 ,Fn4 ,v034
 .byte   W06
 .byte   N12 ,Dn1 ,v056
 .byte   N12 ,Ds1 ,v101
 .byte   N12 ,En1 ,v085
 .byte   N06 ,Fs1
 .byte   N06 ,Cn3
 .byte   N06 ,Dn3
 .byte   N06 ,Fn4
 .byte   W06
 .byte   Fs1
 .byte   N12 ,Cn1 ,v043
 .byte   N06 ,Fn4 ,v036
 .byte   N12 ,Bn1 ,v127
 .byte   W06
 .byte   N06 ,Fn4 ,v008
 .byte   N06 ,Fs1 ,v085
 .byte   W06
 .byte   Fs1
 .byte   N06 ,Dn3
 .byte   N06 ,Fn4 ,v034
 .byte   W06
 .byte   PEND 
@  #06 @024   ----------------------------------------
Label_01009301:
 .byte   N12 ,Bn1 ,v109
 .byte   N12 ,Ds2 ,v033
 .byte   N06 ,Gs1 ,v109
 .byte   N12 ,Cn1
 .byte   N06 ,Cs3 ,v006
 .byte   N06 ,Dn3 ,v085
 .byte   N12 ,An2 ,v029
 .byte   W06
 .byte   N06 ,Dn3 ,v063
 .byte   N06 ,Gs1 ,v109
 .byte   W06
 .byte   Gs1
 .byte   N12 ,Ds2 ,v033
 .byte   W06
 .byte   N06 ,Gs1 ,v109
 .byte   N06 ,Dn3 ,v085
 .byte   W06
 .byte   Cn3 ,v043
 .byte   N12 ,Cn1 ,v109
 .byte   N06 ,Gs1
 .byte   N12 ,Ds2 ,v033
 .byte   N12 ,Dn1 ,v021
 .byte   N12 ,Bn1 ,v109
 .byte   W06
 .byte   N06 ,Dn3 ,v085
 .byte   N06 ,Gs1 ,v109
 .byte   W06
 .byte   N12 ,Ds2 ,v033
 .byte   N06 ,Gs1 ,v109
 .byte   W06
 .byte   Gs1
 .byte   W06
 .byte   N12 ,Bn1
 .byte   N12 ,Ds2 ,v033
 .byte   N12 ,Cn1 ,v109
 .byte   N06 ,Dn3 ,v070
 .byte   N06 ,Cs3 ,v007
 .byte   N06 ,Gs1 ,v109
 .byte   W06
 .byte   Gs1
 .byte   W06
 .byte   Gs1
 .byte   N06 ,Dn3 ,v065
 .byte   N12 ,Ds2 ,v033
 .byte   W06
 .byte   N06 ,Gs1 ,v109
 .byte   W06
 .byte   Gs1
 .byte   N06 ,Cn3 ,v018
 .byte   N12 ,Cn1 ,v109
 .byte   N12 ,Ds2 ,v033
 .byte   N12 ,Dn1 ,v021
 .byte   N12 ,Bn1 ,v109
 .byte   W06
 .byte   N06 ,Gs1
 .byte   W06
 .byte   N12 ,Ds2 ,v033
 .byte   N06 ,Dn3 ,v049
 .byte   N06 ,Gs1 ,v109
 .byte   W06
 .byte   Dn3 ,v085
 .byte   N06 ,Gs1 ,v109
 .byte   W06
 .byte   PEND 
@  #06 @025   ----------------------------------------
Label_0100938F:
 .byte   N12 ,Bn1 ,v109
 .byte   N12 ,Ds2 ,v033
 .byte   N06 ,Gs1 ,v109
 .byte   N12 ,Cn1
 .byte   N06 ,Cs3 ,v010
 .byte   W06
 .byte   Gs1 ,v109
 .byte   W06
 .byte   Dn3 ,v078
 .byte   N06 ,Gs1 ,v109
 .byte   N12 ,Ds2 ,v033
 .byte   W06
 .byte   N06 ,Gs1 ,v109
 .byte   W06
 .byte   Cn3 ,v045
 .byte   N12 ,Cn1 ,v109
 .byte   N06 ,Gs1
 .byte   N12 ,Ds2 ,v033
 .byte   N12 ,Dn1 ,v021
 .byte   N12 ,Bn1 ,v109
 .byte   W06
 .byte   N06 ,Dn3 ,v060
 .byte   N06 ,Gs1 ,v109
 .byte   W06
 .byte   N12 ,Ds2 ,v033
 .byte   N06 ,Gs1 ,v109
 .byte   N06 ,Dn3 ,v052
 .byte   W06
 .byte   Gs1 ,v109
 .byte   W06
 .byte   N12 ,Bn1
 .byte   N12 ,Ds2 ,v033
 .byte   N06 ,Gs1 ,v109
 .byte   N12 ,Cn1
 .byte   N06 ,Cs3 ,v018
 .byte   W06
 .byte   Gs1 ,v109
 .byte   W06
 .byte   Dn3 ,v024
 .byte   N06 ,Gs1 ,v109
 .byte   N12 ,Ds2 ,v033
 .byte   W06
 .byte   N06 ,Gs1 ,v109
 .byte   W06
 .byte   Cn3 ,v052
 .byte   N12 ,Cn1 ,v109
 .byte   N06 ,Gs1
 .byte   N12 ,Ds2 ,v033
 .byte   N12 ,Dn1 ,v021
 .byte   N12 ,Bn1 ,v109
 .byte   W06
 .byte   N06 ,Gs1
 .byte   W06
 .byte   N12 ,Ds2 ,v033
 .byte   N06 ,Gs1 ,v109
 .byte   W06
 .byte   Dn3 ,v085
 .byte   N06 ,Gs1 ,v109
 .byte   W06
 .byte   PEND 
@  #06 @026   ----------------------------------------
Label_01009413:
 .byte   N12 ,Bn1 ,v109
 .byte   N12 ,Ds2 ,v033
 .byte   N06 ,Gs1 ,v109
 .byte   N12 ,Cn1
 .byte   N12 ,An2 ,v029
 .byte   N06 ,Cs3 ,v012
 .byte   W06
 .byte   Gs1 ,v109
 .byte   W06
 .byte   Dn3 ,v085
 .byte   N06 ,Gs1 ,v109
 .byte   N12 ,Ds2 ,v033
 .byte   W06
 .byte   N06 ,Gs1 ,v109
 .byte   W06
 .byte   Cn3 ,v029
 .byte   N12 ,Cn1 ,v109
 .byte   N06 ,Gs1
 .byte   N12 ,Ds2 ,v033
 .byte   N12 ,Dn1 ,v021
 .byte   N12 ,Bn1 ,v109
 .byte   W06
 .byte   N06 ,Gs1
 .byte   W06
 .byte   N12 ,Ds2 ,v033
 .byte   N06 ,Gs1 ,v109
 .byte   W06
 .byte   Dn3 ,v085
 .byte   N06 ,Gs1 ,v109
 .byte   W06
 .byte   N12 ,Bn1
 .byte   N12 ,Ds2 ,v033
 .byte   N12 ,Cn1 ,v109
 .byte   N06 ,Gs1
 .byte   N06 ,Cs3 ,v016
 .byte   W06
 .byte   Gs1 ,v109
 .byte   W06
 .byte   Gs1
 .byte   N12 ,Ds2 ,v033
 .byte   W06
 .byte   N06 ,Dn3 ,v024
 .byte   N06 ,Gs1 ,v109
 .byte   W06
 .byte   Gs1
 .byte   N06 ,Cn3 ,v045
 .byte   N12 ,Cn1 ,v109
 .byte   N12 ,Ds2 ,v033
 .byte   N12 ,Dn1 ,v021
 .byte   N12 ,Bn1 ,v109
 .byte   W06
 .byte   N06 ,Dn3 ,v068
 .byte   N06 ,Gs1 ,v109
 .byte   W06
 .byte   N12 ,Ds2 ,v033
 .byte   N06 ,Gs1 ,v109
 .byte   W06
 .byte   Gs1
 .byte   N06 ,Dn3 ,v060
 .byte   W06
 .byte   PEND 
@  #06 @027   ----------------------------------------
Label_01009498:
 .byte   N06 ,Dn3 ,v085
 .byte   N06 ,Cs3 ,v015
 .byte   N12 ,Cn1 ,v109
 .byte   N06 ,Gs1
 .byte   N12 ,Ds2 ,v033
 .byte   N12 ,Bn1 ,v109
 .byte   W06
 .byte   N06 ,Gs1
 .byte   W06
 .byte   Gs1
 .byte   N12 ,Ds2 ,v033
 .byte   W06
 .byte   N06 ,Dn3 ,v085
 .byte   N06 ,Gs1 ,v109
 .byte   W06
 .byte   Cn3 ,v068
 .byte   N06 ,Dn3 ,v085
 .byte   N12 ,Cn1 ,v109
 .byte   N06 ,Gs1
 .byte   N12 ,Ds2 ,v033
 .byte   N12 ,Dn1 ,v021
 .byte   N12 ,Bn1 ,v109
 .byte   W06
 .byte   N06 ,Gs1
 .byte   W06
 .byte   N12 ,Ds2 ,v033
 .byte   N06 ,Gs1 ,v109
 .byte   N06 ,Dn3 ,v085
 .byte   W06
 .byte   Gs1 ,v109
 .byte   W06
 .byte   Dn3 ,v085
 .byte   N06 ,Cs3 ,v015
 .byte   N12 ,Cn1 ,v109
 .byte   N06 ,Gs1
 .byte   N12 ,Ds2 ,v033
 .byte   N12 ,Bn1 ,v109
 .byte   W06
 .byte   N06 ,Gs1
 .byte   W06
 .byte   Gs1
 .byte   N12 ,Ds2 ,v033
 .byte   W06
 .byte   N06 ,Dn3 ,v085
 .byte   N06 ,Gs1 ,v109
 .byte   W06
 .byte   Dn3 ,v085
 .byte   N06 ,Cn3
 .byte   N12 ,Cn1 ,v109
 .byte   N06 ,Gs1
 .byte   N12 ,Ds2 ,v033
 .byte   N12 ,Dn1 ,v021
 .byte   N12 ,Bn1 ,v109
 .byte   W06
 .byte   N06 ,Gs1
 .byte   W06
 .byte   N12 ,Ds2 ,v033
 .byte   N06 ,Gs1 ,v109
 .byte   W06
 .byte   Dn3 ,v085
 .byte   N06 ,Gs1 ,v109
 .byte   W06
 .byte   PEND 
@  #06 @028   ----------------------------------------
Label_01009521:
 .byte   N12 ,Bn1 ,v109
 .byte   N12 ,Ds2 ,v033
 .byte   N06 ,Gs1 ,v109
 .byte   N12 ,Cn1
 .byte   N12 ,An2 ,v029
 .byte   N06 ,Cs3 ,v006
 .byte   N06 ,Dn3 ,v085
 .byte   W06
 .byte   Dn3 ,v063
 .byte   N06 ,Gs1 ,v109
 .byte   W06
 .byte   Gs1
 .byte   N12 ,Ds2 ,v033
 .byte   W06
 .byte   N06 ,Dn3 ,v085
 .byte   N06 ,Gs1 ,v109
 .byte   W06
 .byte   Cn3 ,v043
 .byte   N12 ,Cn1 ,v109
 .byte   N06 ,Gs1
 .byte   N12 ,Ds2 ,v033
 .byte   N12 ,Dn1 ,v021
 .byte   N12 ,Bn1 ,v109
 .byte   W06
 .byte   N06 ,Dn3 ,v085
 .byte   N06 ,Gs1 ,v109
 .byte   W06
 .byte   N12 ,Ds2 ,v033
 .byte   N06 ,Gs1 ,v109
 .byte   W06
 .byte   Gs1
 .byte   W06
 .byte   N12 ,Bn1
 .byte   N12 ,Ds2 ,v033
 .byte   N12 ,Cn1 ,v109
 .byte   N06 ,Gs1
 .byte   N06 ,Dn3 ,v070
 .byte   N06 ,Cs3 ,v007
 .byte   W06
 .byte   Gs1 ,v109
 .byte   W06
 .byte   Dn3 ,v065
 .byte   N06 ,Gs1 ,v109
 .byte   N12 ,Ds2 ,v033
 .byte   W06
 .byte   N06 ,Gs1 ,v109
 .byte   W06
 .byte   Gs1
 .byte   N06 ,Cn3 ,v018
 .byte   N12 ,Cn1 ,v109
 .byte   N12 ,Ds2 ,v033
 .byte   N12 ,Dn1 ,v021
 .byte   N12 ,Bn1 ,v109
 .byte   W06
 .byte   N06 ,Gs1
 .byte   W06
 .byte   N12 ,Ds2 ,v033
 .byte   N06 ,Gs1 ,v109
 .byte   N06 ,Dn3 ,v049
 .byte   W06
 .byte   Dn3 ,v085
 .byte   N06 ,Gs1 ,v109
 .byte   W06
 .byte   PEND 
@  #06 @029   ----------------------------------------
 .byte   PATT
  .word Label_0100938F
@  #06 @030   ----------------------------------------
 .byte   PATT
  .word Label_01009413
@  #06 @031   ----------------------------------------
Label_010095B9:
 .byte   N06 ,Dn3 ,v085
 .byte   N06 ,Cs3 ,v015
 .byte   N12 ,Cn1 ,v109
 .byte   N06 ,Gs1
 .byte   N12 ,Ds2 ,v033
 .byte   N12 ,Bn1 ,v109
 .byte   W06
 .byte   N06 ,Gs1
 .byte   W06
 .byte   N12 ,Ds2 ,v033
 .byte   N06 ,Gs1 ,v109
 .byte   W06
 .byte   Dn3 ,v085
 .byte   N06 ,Gs1 ,v109
 .byte   W06
 .byte   N12 ,Cn1
 .byte   N06 ,Gs1
 .byte   N12 ,Ds2 ,v033
 .byte   N06 ,Cn3 ,v068
 .byte   N06 ,Dn3 ,v085
 .byte   N12 ,Dn1 ,v021
 .byte   N12 ,Bn1 ,v109
 .byte   W06
 .byte   N06 ,Gs1
 .byte   W06
 .byte   N12 ,Ds2 ,v033
 .byte   N06 ,Gs1 ,v109
 .byte   N06 ,Dn3 ,v085
 .byte   W06
 .byte   Gs1 ,v109
 .byte   W06
 .byte   Dn3 ,v085
 .byte   N06 ,Cs3 ,v015
 .byte   N12 ,Cn1 ,v109
 .byte   N06 ,Gs1
 .byte   N12 ,Ds2 ,v033
 .byte   N12 ,Bn1 ,v109
 .byte   W06
 .byte   N06 ,Gs1
 .byte   W06
 .byte   N12 ,Ds2 ,v033
 .byte   N06 ,Gs1 ,v109
 .byte   W06
 .byte   Dn3 ,v085
 .byte   N06 ,Gs1 ,v109
 .byte   W06
 .byte   N12 ,Cn1
 .byte   N06 ,Gs1
 .byte   N12 ,Ds2 ,v033
 .byte   N06 ,Cn3 ,v085
 .byte   N06 ,Dn3
 .byte   N12 ,Dn1 ,v021
 .byte   N12 ,Bn1 ,v109
 .byte   W06
 .byte   N06 ,Gs1
 .byte   W06
 .byte   N12 ,Ds2 ,v033
 .byte   N06 ,Gs1 ,v109
 .byte   W06
 .byte   Dn3 ,v085
 .byte   N06 ,Gs1 ,v109
 .byte   W06
 .byte   PEND 
@  #06 @032   ----------------------------------------
 .byte   N12 ,Bn1
 .byte   N06 ,Fs1 ,v085
 .byte   N12 ,Cn1 ,v109
 .byte   N06 ,Cs3 ,v006
 .byte   N06 ,Dn3 ,v085
 .byte   N12 ,An2 ,v029
 .byte   W06
 .byte   N06 ,Dn3 ,v063
 .byte   N06 ,Fs1 ,v085
 .byte   W06
 .byte   Fs1
 .byte   W06
 .byte   Dn3
 .byte   N06 ,Fs1
 .byte   W06
 .byte   Cn3 ,v043
 .byte   N12 ,Cn1 ,v109
 .byte   N12 ,Dn1 ,v056
 .byte   N12 ,Ds1 ,v101
 .byte   N06 ,Fs1 ,v085
 .byte   N12 ,En1
 .byte   N12 ,Bn1 ,v109
 .byte   W06
 .byte   N06 ,Dn3 ,v085
 .byte   N06 ,Fs1
 .byte   W06
 .byte   Fs1
 .byte   W06
 .byte   Fs1
 .byte   W06
 .byte   N12 ,Bn1 ,v109
 .byte   N06 ,Fs1 ,v085
 .byte   N12 ,Cn1 ,v109
 .byte   N06 ,Dn3 ,v070
 .byte   N06 ,Cs3 ,v007
 .byte   W06
 .byte   Fs1 ,v085
 .byte   W06
 .byte   Dn3 ,v065
 .byte   N06 ,Fs1 ,v085
 .byte   W06
 .byte   Fs1
 .byte   W06
 .byte   Cn3 ,v018
 .byte   N12 ,Cn1 ,v109
 .byte   N06 ,Fs1 ,v085
 .byte   N12 ,Dn1 ,v056
 .byte   N12 ,Ds1 ,v101
 .byte   N12 ,En1 ,v085
 .byte   N12 ,Bn1 ,v109
 .byte   W06
 .byte   N06 ,Fs1 ,v085
 .byte   W06
 .byte   Fs1
 .byte   N06 ,Dn3 ,v049
 .byte   W06
 .byte   Dn3 ,v085
 .byte   N06 ,Fs1
 .byte   W06
@  #06 @033   ----------------------------------------
Label_010096BF:
 .byte   N12 ,Bn1 ,v109
 .byte   N06 ,Fs1 ,v085
 .byte   N12 ,Cn1 ,v109
 .byte   N06 ,Cs3 ,v010
 .byte   W06
 .byte   Fs1 ,v085
 .byte   W06
 .byte   Dn3 ,v078
 .byte   N06 ,Fs1 ,v085
 .byte   W06
 .byte   Fs1
 .byte   W06
 .byte   Cn3 ,v045
 .byte   N12 ,Cn1 ,v109
 .byte   N12 ,Ds1 ,v101
 .byte   N12 ,En1 ,v085
 .byte   N06 ,Fs1
 .byte   N12 ,Dn1 ,v056
 .byte   N12 ,Bn1 ,v109
 .byte   W06
 .byte   N06 ,Dn3 ,v060
 .byte   N06 ,Fs1 ,v085
 .byte   W06
 .byte   Fs1
 .byte   N06 ,Dn3 ,v052
 .byte   W06
 .byte   Fs1 ,v085
 .byte   W06
 .byte   N12 ,Bn1 ,v109
 .byte   N12 ,Ds1 ,v101
 .byte   N06 ,Fs1 ,v085
 .byte   N12 ,Cn1 ,v109
 .byte   N06 ,Cs3 ,v018
 .byte   W06
 .byte   Fs1 ,v085
 .byte   W06
 .byte   Dn3 ,v024
 .byte   N06 ,Fs1 ,v085
 .byte   W06
 .byte   Fs1
 .byte   W06
 .byte   Cn3 ,v052
 .byte   N12 ,Cn1 ,v109
 .byte   N12 ,Dn1 ,v056
 .byte   N12 ,Ds1 ,v101
 .byte   N12 ,En1 ,v085
 .byte   N06 ,Fs1
 .byte   N12 ,Bn1 ,v109
 .byte   W06
 .byte   N06 ,Fs1 ,v085
 .byte   W06
 .byte   Fs1
 .byte   W06
 .byte   Dn3
 .byte   N06 ,Fs1
 .byte   W06
 .byte   PEND 
@  #06 @034   ----------------------------------------
 .byte   N12 ,Bn1 ,v109
 .byte   N06 ,Fs1 ,v085
 .byte   N12 ,Cn1 ,v109
 .byte   N12 ,An2 ,v029
 .byte   N06 ,Cs3 ,v012
 .byte   W06
 .byte   Fs1 ,v085
 .byte   W06
 .byte   Dn3
 .byte   N06 ,Fs1
 .byte   W06
 .byte   Fs1
 .byte   W06
 .byte   Cn3 ,v029
 .byte   N12 ,Cn1 ,v109
 .byte   N06 ,Fs1 ,v085
 .byte   N12 ,En1
 .byte   N12 ,Ds1 ,v101
 .byte   N12 ,Dn1 ,v056
 .byte   N12 ,Bn1 ,v109
 .byte   W06
 .byte   N06 ,Fs1 ,v085
 .byte   W06
 .byte   Fs1
 .byte   W06
 .byte   Dn3
 .byte   N06 ,Fs1
 .byte   W06
 .byte   N12 ,Bn1 ,v109
 .byte   N06 ,Fs1 ,v085
 .byte   N12 ,Cn1 ,v109
 .byte   N06 ,Cs3 ,v016
 .byte   W06
 .byte   Fs1 ,v085
 .byte   W06
 .byte   Fs1
 .byte   W06
 .byte   Dn3 ,v024
 .byte   N06 ,Fs1 ,v085
 .byte   W06
 .byte   Cn3 ,v045
 .byte   N12 ,Cn1 ,v109
 .byte   N06 ,Fs1 ,v085
 .byte   N12 ,Dn1 ,v056
 .byte   N12 ,Ds1 ,v101
 .byte   N12 ,En1 ,v085
 .byte   N12 ,Bn1 ,v109
 .byte   W06
 .byte   N06 ,Dn3 ,v068
 .byte   N06 ,Fs1 ,v085
 .byte   W06
 .byte   Fs1
 .byte   W06
 .byte   Fs1
 .byte   N06 ,Dn3 ,v060
 .byte   W06
@  #06 @035   ----------------------------------------
 .byte   Dn3 ,v085
 .byte   N06 ,Cs3 ,v015
 .byte   N12 ,Cn1 ,v109
 .byte   N06 ,Fs1 ,v085
 .byte   N12 ,Bn1 ,v109
 .byte   W06
 .byte   N06 ,Fs1 ,v085
 .byte   W06
 .byte   Fs1
 .byte   W06
 .byte   Dn3
 .byte   N06 ,Fs1
 .byte   W06
 .byte   Cn3 ,v068
 .byte   N06 ,Dn3 ,v085
 .byte   N12 ,Cn1 ,v109
 .byte   N12 ,Ds1 ,v101
 .byte   N12 ,En1 ,v085
 .byte   N06 ,Fs1
 .byte   N12 ,Dn1 ,v056
 .byte   N12 ,Bn1 ,v109
 .byte   W06
 .byte   N06 ,Fs1 ,v085
 .byte   W06
 .byte   Fs1
 .byte   N06 ,Dn3
 .byte   W06
 .byte   Fs1
 .byte   W06
 .byte   Dn3
 .byte   N06 ,Cs3 ,v015
 .byte   N12 ,Cn1 ,v109
 .byte   N12 ,Ds1 ,v101
 .byte   N06 ,Fs1 ,v085
 .byte   N12 ,Bn1 ,v109
 .byte   W06
 .byte   N06 ,Fs1 ,v085
 .byte   W06
 .byte   Fs1
 .byte   W06
 .byte   Dn3
 .byte   N06 ,Fs1
 .byte   W06
 .byte   Dn3
 .byte   N06 ,Cn3
 .byte   N12 ,Cn1 ,v109
 .byte   N06 ,Fs1 ,v085
 .byte   N12 ,En1
 .byte   N12 ,Ds1 ,v101
 .byte   N12 ,Dn1 ,v056
 .byte   N12 ,Bn1 ,v109
 .byte   W06
 .byte   N06 ,Fs1 ,v085
 .byte   W06
 .byte   Fs1
 .byte   W06
 .byte   Dn3
 .byte   N06 ,Fs1
 .byte   W06
@  #06 @036   ----------------------------------------
 .byte   N12 ,Bn1 ,v109
 .byte   N06 ,Fs1 ,v085
 .byte   N12 ,Cn1 ,v109
 .byte   N12 ,An2 ,v029
 .byte   N06 ,Cs3 ,v006
 .byte   N06 ,Dn3 ,v085
 .byte   W06
 .byte   Dn3 ,v063
 .byte   N06 ,Fs1 ,v085
 .byte   W06
 .byte   Fs1
 .byte   W06
 .byte   Dn3
 .byte   N06 ,Fs1
 .byte   W06
 .byte   Cn3 ,v043
 .byte   N12 ,Cn1 ,v109
 .byte   N12 ,Dn1 ,v056
 .byte   N12 ,Ds1 ,v101
 .byte   N12 ,En1 ,v085
 .byte   N06 ,Fs1
 .byte   N12 ,Bn1 ,v109
 .byte   W06
 .byte   N06 ,Dn3 ,v085
 .byte   N06 ,Fs1
 .byte   W06
 .byte   Fs1
 .byte   W06
 .byte   Fs1
 .byte   W06
 .byte   N12 ,Bn1 ,v109
 .byte   N12 ,Cn1
 .byte   N06 ,Fs1 ,v085
 .byte   N06 ,Dn3 ,v070
 .byte   N06 ,Cs3 ,v007
 .byte   W06
 .byte   Fs1 ,v085
 .byte   W06
 .byte   Fs1
 .byte   N06 ,Dn3 ,v065
 .byte   W06
 .byte   Fs1 ,v085
 .byte   W06
 .byte   N12 ,Cn1 ,v109
 .byte   N06 ,Fs1 ,v085
 .byte   N12 ,Dn1 ,v056
 .byte   N12 ,Ds1 ,v101
 .byte   N12 ,En1 ,v085
 .byte   N06 ,Cn3 ,v018
 .byte   N12 ,Bn1 ,v109
 .byte   W06
 .byte   N06 ,Fs1 ,v085
 .byte   W06
 .byte   Fs1
 .byte   N06 ,Dn3 ,v049
 .byte   W06
 .byte   Dn3 ,v085
 .byte   N06 ,Fs1
 .byte   W06
@  #06 @037   ----------------------------------------
 .byte   N12 ,Bn1 ,v109
 .byte   N06 ,Cs3 ,v010
 .byte   N12 ,Cn1 ,v109
 .byte   N06 ,Fs1 ,v085
 .byte   W06
 .byte   Fs1
 .byte   W06
 .byte   Fs1
 .byte   N06 ,Dn3 ,v078
 .byte   W06
 .byte   Fs1 ,v085
 .byte   W06
 .byte   N12 ,Cn1 ,v109
 .byte   N12 ,Ds1 ,v101
 .byte   N12 ,En1 ,v085
 .byte   N06 ,Fs1
 .byte   N12 ,Dn1 ,v056
 .byte   N06 ,Cn3 ,v045
 .byte   N12 ,Bn1 ,v109
 .byte   W06
 .byte   N06 ,Dn3 ,v060
 .byte   N06 ,Fs1 ,v085
 .byte   W06
 .byte   Fs1
 .byte   N06 ,Dn3 ,v052
 .byte   W06
 .byte   Fs1 ,v085
 .byte   W06
 .byte   N12 ,Bn1 ,v109
 .byte   N12 ,Cn1
 .byte   N06 ,Fs1 ,v085
 .byte   N12 ,Ds1 ,v101
 .byte   N06 ,Cs3 ,v018
 .byte   W06
 .byte   Fs1 ,v085
 .byte   W06
 .byte   Fs1
 .byte   N06 ,Dn3 ,v024
 .byte   W06
 .byte   Fs1 ,v085
 .byte   W06
 .byte   N12 ,Cn1 ,v109
 .byte   N12 ,Dn1 ,v056
 .byte   N12 ,Ds1 ,v101
 .byte   N12 ,En1 ,v085
 .byte   N06 ,Fs1
 .byte   N06 ,Cn3 ,v052
 .byte   N12 ,Bn1 ,v109
 .byte   W06
 .byte   N06 ,Fs1 ,v085
 .byte   W06
 .byte   Fs1
 .byte   W06
 .byte   Dn3
 .byte   N06 ,Fs1
 .byte   W06
@  #06 @038   ----------------------------------------
 .byte   N12 ,Bn1 ,v109
 .byte   N06 ,Cs3 ,v012
 .byte   N12 ,An2 ,v029
 .byte   N12 ,Cn1 ,v109
 .byte   N06 ,Fs1 ,v085
 .byte   W06
 .byte   Fs1
 .byte   W06
 .byte   Fs1
 .byte   N06 ,Dn3
 .byte   W06
 .byte   Fs1
 .byte   W06
 .byte   Cn3 ,v029
 .byte   N12 ,Cn1 ,v109
 .byte   N06 ,Fs1 ,v085
 .byte   N12 ,Ds1 ,v101
 .byte   N12 ,Dn1 ,v056
 .byte   N12 ,En1 ,v085
 .byte   N12 ,Bn1 ,v109
 .byte   W06
 .byte   N06 ,Fs1 ,v085
 .byte   W06
 .byte   Fs1
 .byte   W06
 .byte   Dn3
 .byte   N06 ,Fs1
 .byte   W06
 .byte   N12 ,Bn1 ,v109
 .byte   N06 ,Fs1 ,v085
 .byte   N12 ,Cn1 ,v109
 .byte   N06 ,Cs3 ,v016
 .byte   W06
 .byte   Fs1 ,v085
 .byte   W06
 .byte   Fs1
 .byte   W06
 .byte   Dn3 ,v024
 .byte   N06 ,Fs1 ,v085
 .byte   W06
 .byte   Cn3 ,v045
 .byte   N12 ,Cn1 ,v109
 .byte   N06 ,Fs1 ,v085
 .byte   N12 ,Dn1 ,v056
 .byte   N12 ,Ds1 ,v101
 .byte   N12 ,En1 ,v085
 .byte   N12 ,Bn1 ,v109
 .byte   W06
 .byte   N06 ,Dn3 ,v068
 .byte   N06 ,Fs1 ,v085
 .byte   W06
 .byte   Fs1
 .byte   W06
 .byte   Fs1
 .byte   N06 ,Dn3 ,v060
 .byte   W06
@  #06 @039   ----------------------------------------
 .byte   N12 ,Cn1 ,v109
 .byte   N12 ,Gs1 ,v085
 .byte   N12 ,Bn1 ,v109
 .byte   W12
 .byte   Fs1 ,v085
 .byte   W12
 .byte   Cn1 ,v109
 .byte   N12 ,Gs1 ,v085
 .byte   N12 ,Bn1 ,v109
 .byte   W12
 .byte   Fs1 ,v085
 .byte   W12
 .byte   Gs1
 .byte   N12 ,Cn1 ,v109
 .byte   N12 ,Bn1
 .byte   W12
 .byte   Fs1 ,v085
 .byte   W12
 .byte   Cn1 ,v109
 .byte   N12 ,Gs1 ,v085
 .byte   N12 ,Bn1 ,v109
 .byte   W12
 .byte   Fs1 ,v085
 .byte   W12
@  #06 @040   ----------------------------------------
 .byte   Bn1 ,v127
 .byte   N06 ,Fn4 ,v085
 .byte   N06 ,Dn3
 .byte   N12 ,Cn1 ,v109
 .byte   N06 ,As1 ,v085
 .byte   N06 ,Cn3 ,v078
 .byte   N06 ,Ds4 ,v023
 .byte   W06
 .byte   Fs1 ,v085
 .byte   N06 ,Dn3
 .byte   N06 ,Fn4 ,v036
 .byte   W06
 .byte   Fs1 ,v085
 .byte   N06 ,Fn4 ,v008
 .byte   W06
 .byte   Fs1 ,v085
 .byte   N06 ,Dn3 ,v044
 .byte   N06 ,Fn4 ,v034
 .byte   W06
 .byte   Fs1 ,v085
 .byte   N12 ,En1
 .byte   N12 ,Ds1 ,v101
 .byte   N12 ,Dn1 ,v056
 .byte   N06 ,Dn3 ,v085
 .byte   N06 ,Cn3 ,v045
 .byte   N06 ,Fn4 ,v085
 .byte   W06
 .byte   Fs1
 .byte   N06 ,Ds4 ,v023
 .byte   N06 ,Fn4 ,v036
 .byte   W06
 .byte   N12 ,Bn1 ,v127
 .byte   N06 ,Fn4 ,v008
 .byte   N12 ,Cn1 ,v109
 .byte   N06 ,Fs1 ,v085
 .byte   W06
 .byte   Fn4 ,v034
 .byte   N06 ,Dn3 ,v085
 .byte   N06 ,Fs1
 .byte   N06 ,Ds4 ,v023
 .byte   W06
 .byte   N12 ,Cn1 ,v043
 .byte   N06 ,As1 ,v085
 .byte   N06 ,Dn3
 .byte   N06 ,Fn4
 .byte   N12 ,Bn1 ,v127
 .byte   W06
 .byte   N06 ,Fs1 ,v085
 .byte   N06 ,Fn4 ,v036
 .byte   W06
 .byte   N12 ,Cn1 ,v109
 .byte   N06 ,Fs1 ,v085
 .byte   N06 ,Cn3 ,v023
 .byte   N06 ,Fn4 ,v008
 .byte   N12 ,Bn1 ,v127
 .byte   W06
 .byte   N06 ,Fs1 ,v085
 .byte   N06 ,Dn3 ,v044
 .byte   N06 ,Fn4 ,v034
 .byte   W06
 .byte   Fn4 ,v085
 .byte   N06 ,Fs1
 .byte   N12 ,En1
 .byte   N12 ,Ds1 ,v101
 .byte   N12 ,Dn1 ,v056
 .byte   N06 ,Ds4 ,v023
 .byte   N06 ,Dn3 ,v085
 .byte   W06
 .byte   Fs1
 .byte   N06 ,Fn4 ,v036
 .byte   W06
 .byte   Fs1 ,v085
 .byte   N06 ,Dn3
 .byte   N06 ,Fn4 ,v008
 .byte   W06
 .byte   Fn4 ,v034
 .byte   N06 ,Fs1 ,v085
 .byte   N06 ,Cn3 ,v076
 .byte   W06
@  #06 @041   ----------------------------------------
 .byte   PATT
  .word Label_01008CED
@  #06 @042   ----------------------------------------
 .byte   PATT
  .word Label_01008DA3
@  #06 @043   ----------------------------------------
 .byte   PATT
  .word Label_01008E5D
@  #06 @044   ----------------------------------------
 .byte   PATT
  .word Label_01008F1E
@  #06 @045   ----------------------------------------
 .byte   PATT
  .word Label_01008FD1
@  #06 @046   ----------------------------------------
 .byte   PATT
  .word Label_01009090
@  #06 @047   ----------------------------------------
 .byte   PATT
  .word Label_01009147
@  #06 @048   ----------------------------------------
 .byte   PATT
  .word Label_01008C35
@  #06 @049   ----------------------------------------
 .byte   PATT
  .word Label_01008CED
@  #06 @050   ----------------------------------------
 .byte   PATT
  .word Label_01008DA3
@  #06 @051   ----------------------------------------
 .byte   PATT
  .word Label_01008E5D
@  #06 @052   ----------------------------------------
 .byte   PATT
  .word Label_01008F1E
@  #06 @053   ----------------------------------------
 .byte   PATT
  .word Label_01008FD1
@  #06 @054   ----------------------------------------
 .byte   PATT
  .word Label_01009090
@  #06 @055   ----------------------------------------
 .byte   PATT
  .word Label_01009241
@  #06 @056   ----------------------------------------
Label_01009AAC:
 .byte   N06 ,As1 ,v085
 .byte   N12 ,Cn1 ,v109
 .byte   N12 ,Bn1 ,v127
 .byte   W06
 .byte   N06 ,Fs1 ,v085
 .byte   W06
 .byte   Fs1
 .byte   W06
 .byte   Fs1
 .byte   W06
 .byte   N12 ,Dn1 ,v056
 .byte   N12 ,Ds1 ,v101
 .byte   N12 ,En1 ,v085
 .byte   N06 ,Fs1
 .byte   W06
 .byte   Fs1
 .byte   W06
 .byte   N12 ,Cn1 ,v109
 .byte   N06 ,Fs1 ,v085
 .byte   N12 ,Bn1 ,v127
 .byte   W06
 .byte   N06 ,Fs1 ,v085
 .byte   W06
 .byte   N12 ,Cn1 ,v043
 .byte   N06 ,As1 ,v085
 .byte   N12 ,Bn1 ,v127
 .byte   W06
 .byte   N06 ,Fs1 ,v085
 .byte   W06
 .byte   N12 ,Cn1 ,v109
 .byte   N06 ,Fs1 ,v085
 .byte   N12 ,Bn1 ,v127
 .byte   W06
 .byte   N06 ,Fs1 ,v085
 .byte   W06
 .byte   Fs1
 .byte   N12 ,Dn1 ,v056
 .byte   N12 ,Ds1 ,v101
 .byte   N12 ,En1 ,v085
 .byte   W06
 .byte   N06 ,Fs1
 .byte   W06
 .byte   Fs1
 .byte   W06
 .byte   Fs1
 .byte   W06
 .byte   PEND 
@  #06 @057   ----------------------------------------
Label_01009B09:
 .byte   N12 ,Cn1 ,v109
 .byte   N06 ,As1 ,v085
 .byte   N12 ,Bn1 ,v127
 .byte   W06
 .byte   N06 ,Fs1 ,v085
 .byte   W06
 .byte   Fs1
 .byte   W06
 .byte   Fs1
 .byte   W06
 .byte   N12 ,Ds1 ,v101
 .byte   N12 ,En1 ,v085
 .byte   N06 ,Fs1
 .byte   N12 ,Dn1 ,v056
 .byte   W06
 .byte   N06 ,Fs1 ,v085
 .byte   W06
 .byte   N12 ,Cn1 ,v109
 .byte   N06 ,Fs1 ,v085
 .byte   N12 ,Bn1 ,v127
 .byte   W06
 .byte   N06 ,Fs1 ,v085
 .byte   W06
 .byte   As1
 .byte   N12 ,Ds1 ,v101
 .byte   N12 ,Bn1 ,v127
 .byte   W06
 .byte   N06 ,Fs1 ,v085
 .byte   W06
 .byte   N12 ,Cn1 ,v109
 .byte   N06 ,Fs1 ,v085
 .byte   N12 ,Bn1 ,v127
 .byte   W06
 .byte   N06 ,Fs1 ,v085
 .byte   W06
 .byte   N12 ,Dn1 ,v056
 .byte   N12 ,Ds1 ,v101
 .byte   N12 ,En1 ,v085
 .byte   N06 ,Fs1
 .byte   W06
 .byte   Fs1
 .byte   N12 ,Cn1 ,v043
 .byte   N12 ,Bn1 ,v127
 .byte   W06
 .byte   N06 ,Fs1 ,v085
 .byte   W06
 .byte   Fs1
 .byte   W06
 .byte   PEND 
@  #06 @058   ----------------------------------------
Label_01009B6E:
 .byte   N06 ,As1 ,v085
 .byte   N12 ,Cn1 ,v109
 .byte   N12 ,Bn1 ,v127
 .byte   W06
 .byte   N06 ,Fs1 ,v085
 .byte   W06
 .byte   Fs1
 .byte   W06
 .byte   Fs1
 .byte   W06
 .byte   Fs1
 .byte   N12 ,En1
 .byte   N12 ,Ds1 ,v101
 .byte   N12 ,Dn1 ,v056
 .byte   W06
 .byte   N06 ,Fs1 ,v085
 .byte   W06
 .byte   N12 ,Cn1 ,v109
 .byte   N06 ,Fs1 ,v085
 .byte   N12 ,Bn1 ,v127
 .byte   W06
 .byte   N06 ,Fs1 ,v085
 .byte   W06
 .byte   N12 ,Cn1 ,v043
 .byte   N06 ,As1 ,v085
 .byte   N12 ,Bn1 ,v127
 .byte   W06
 .byte   N06 ,Fs1 ,v085
 .byte   W06
 .byte   N12 ,Cn1 ,v109
 .byte   N06 ,Fs1 ,v085
 .byte   N12 ,Bn1 ,v127
 .byte   W06
 .byte   N06 ,Fs1 ,v085
 .byte   W06
 .byte   Fs1
 .byte   N12 ,Dn1 ,v056
 .byte   N12 ,Ds1 ,v101
 .byte   N12 ,En1 ,v085
 .byte   W06
 .byte   N06 ,Fs1
 .byte   W06
 .byte   Fs1
 .byte   W06
 .byte   Fs1
 .byte   W06
 .byte   PEND 
@  #06 @059   ----------------------------------------
Label_01009BCB:
 .byte   N12 ,Cn1 ,v109
 .byte   N06 ,As1 ,v085
 .byte   N12 ,Bn1 ,v127
 .byte   W06
 .byte   N06 ,Fs1 ,v085
 .byte   W06
 .byte   Fs1
 .byte   W06
 .byte   Fs1
 .byte   W06
 .byte   N12 ,Ds1 ,v101
 .byte   N12 ,En1 ,v085
 .byte   N06 ,Fs1
 .byte   N12 ,Dn1 ,v056
 .byte   W06
 .byte   N06 ,Fs1 ,v085
 .byte   W06
 .byte   N12 ,Cn1 ,v109
 .byte   N06 ,Fs1 ,v085
 .byte   N12 ,Bn1 ,v127
 .byte   W06
 .byte   N06 ,Fs1 ,v085
 .byte   W06
 .byte   N12 ,Ds1 ,v101
 .byte   N06 ,As1 ,v085
 .byte   N12 ,Bn1 ,v127
 .byte   W06
 .byte   N06 ,Fs1 ,v085
 .byte   W06
 .byte   Fs1
 .byte   N12 ,Cn1 ,v109
 .byte   N12 ,Bn1 ,v127
 .byte   W06
 .byte   N06 ,Fs1 ,v085
 .byte   W06
 .byte   Fs1
 .byte   N12 ,En1
 .byte   N12 ,Ds1 ,v101
 .byte   N12 ,Dn1 ,v056
 .byte   W06
 .byte   Cn1 ,v043
 .byte   N06 ,Fs1 ,v085
 .byte   N12 ,Bn1 ,v127
 .byte   W06
 .byte   N06 ,Fs1 ,v085
 .byte   W06
 .byte   Fs1
 .byte   W06
 .byte   PEND 
@  #06 @060   ----------------------------------------
 .byte   PATT
  .word Label_01009AAC
@  #06 @061   ----------------------------------------
 .byte   PATT
  .word Label_01009B09
@  #06 @062   ----------------------------------------
 .byte   PATT
  .word Label_01009B6E
@  #06 @063   ----------------------------------------
 .byte   PATT
  .word Label_01009BCB
@  #06 @064   ----------------------------------------
 .byte   N12 ,Bn1 ,v127
 .byte   N06 ,Ds4 ,v023
 .byte   N06 ,Cn3 ,v078
 .byte   N06 ,As1 ,v085
 .byte   N12 ,Cn1 ,v109
 .byte   N06 ,Dn3 ,v085
 .byte   W06
 .byte   Fs1
 .byte   N06 ,Dn3
 .byte   W06
 .byte   Fs1
 .byte   W06
 .byte   Fs1
 .byte   N06 ,Dn3 ,v044
 .byte   W06
 .byte   N12 ,Dn1 ,v056
 .byte   N12 ,Ds1 ,v101
 .byte   N12 ,En1 ,v085
 .byte   N06 ,Fs1
 .byte   N06 ,Cn3 ,v045
 .byte   N06 ,Dn3 ,v085
 .byte   W06
 .byte   Fs1
 .byte   N06 ,Ds4 ,v023
 .byte   W06
 .byte   N12 ,Bn1 ,v127
 .byte   N12 ,Cn1 ,v109
 .byte   N06 ,Fs1 ,v085
 .byte   W06
 .byte   Ds4 ,v023
 .byte   N06 ,Fs1 ,v085
 .byte   N06 ,Dn3
 .byte   W06
 .byte   N12 ,Cn1 ,v043
 .byte   N06 ,As1 ,v085
 .byte   N06 ,Dn3
 .byte   N12 ,Bn1 ,v127
 .byte   W06
 .byte   N06 ,Fs1 ,v085
 .byte   W06
 .byte   N12 ,Cn1 ,v109
 .byte   N06 ,Fs1 ,v085
 .byte   N06 ,Cn3 ,v023
 .byte   N12 ,Bn1 ,v127
 .byte   W06
 .byte   N06 ,Fs1 ,v085
 .byte   N06 ,Dn3 ,v044
 .byte   W06
 .byte   Ds4 ,v023
 .byte   N06 ,Dn3 ,v085
 .byte   N06 ,Fs1
 .byte   N12 ,Dn1 ,v056
 .byte   N12 ,Ds1 ,v101
 .byte   N12 ,En1 ,v085
 .byte   W06
 .byte   N06 ,Fs1
 .byte   W06
 .byte   Fs1
 .byte   N06 ,Dn3
 .byte   W06
 .byte   Cn3 ,v076
 .byte   N06 ,Fs1 ,v085
 .byte   W06
@  #06 @065   ----------------------------------------
 .byte   N12 ,Cn1 ,v109
 .byte   N06 ,As1 ,v085
 .byte   N06 ,Dn3
 .byte   N12 ,Bn1 ,v127
 .byte   W06
 .byte   N06 ,Fs1 ,v085
 .byte   W06
 .byte   Fs1
 .byte   W06
 .byte   Fs1
 .byte   N06 ,Dn3 ,v044
 .byte   N06 ,Ds4 ,v023
 .byte   W06
 .byte   N12 ,Ds1 ,v101
 .byte   N12 ,En1 ,v085
 .byte   N06 ,Fs1
 .byte   N12 ,Dn1 ,v056
 .byte   N06 ,Dn3 ,v085
 .byte   W06
 .byte   Fs1
 .byte   N06 ,Ds4 ,v023
 .byte   W06
 .byte   N12 ,Bn1 ,v127
 .byte   N12 ,Cn1 ,v109
 .byte   N06 ,Fs1 ,v085
 .byte   W06
 .byte   Fs1
 .byte   N06 ,Cn3 ,v060
 .byte   N06 ,Ds4 ,v023
 .byte   W06
 .byte   As1 ,v085
 .byte   N12 ,Ds1 ,v101
 .byte   N06 ,Dn3 ,v085
 .byte   N12 ,Bn1 ,v127
 .byte   W06
 .byte   N06 ,Fs1 ,v085
 .byte   W06
 .byte   N12 ,Cn1 ,v109
 .byte   N06 ,Fs1 ,v085
 .byte   N12 ,Bn1 ,v127
 .byte   W06
 .byte   N06 ,Fs1 ,v085
 .byte   N06 ,Dn3 ,v044
 .byte   N06 ,Ds4 ,v023
 .byte   W06
 .byte   N12 ,Dn1 ,v056
 .byte   N12 ,Ds1 ,v101
 .byte   N12 ,En1 ,v085
 .byte   N06 ,Fs1
 .byte   N06 ,Dn3
 .byte   N06 ,Cn3
 .byte   W06
 .byte   N12 ,Bn1 ,v127
 .byte   N06 ,Fs1 ,v085
 .byte   N12 ,Cn1 ,v043
 .byte   W06
 .byte   N06 ,Fs1 ,v085
 .byte   W06
 .byte   Fs1
 .byte   N06 ,Cn3 ,v068
 .byte   W06
@  #06 @066   ----------------------------------------
 .byte   N12 ,Bn1 ,v127
 .byte   N06 ,Ds4 ,v023
 .byte   N06 ,As1 ,v085
 .byte   N12 ,Cn1 ,v109
 .byte   N06 ,Dn3 ,v085
 .byte   W06
 .byte   Fs1
 .byte   N06 ,Dn3
 .byte   N06 ,Ds4 ,v023
 .byte   W06
 .byte   Fs1 ,v085
 .byte   W06
 .byte   Fs1
 .byte   N06 ,Dn3 ,v044
 .byte   W06
 .byte   Fs1 ,v085
 .byte   N12 ,En1
 .byte   N12 ,Ds1 ,v101
 .byte   N12 ,Dn1 ,v056
 .byte   N06 ,Dn3 ,v085
 .byte   N06 ,Cn3 ,v045
 .byte   W06
 .byte   Fs1 ,v085
 .byte   N06 ,Ds4 ,v023
 .byte   W06
 .byte   N12 ,Bn1 ,v127
 .byte   N12 ,Cn1 ,v109
 .byte   N06 ,Fs1 ,v085
 .byte   W06
 .byte   Ds4 ,v023
 .byte   N06 ,Fs1 ,v085
 .byte   N06 ,Dn3
 .byte   W06
 .byte   N12 ,Cn1 ,v043
 .byte   N06 ,As1 ,v085
 .byte   N06 ,Dn3
 .byte   N12 ,Bn1 ,v127
 .byte   W06
 .byte   N06 ,Fs1 ,v085
 .byte   W06
 .byte   N12 ,Cn1 ,v109
 .byte   N06 ,Fs1 ,v085
 .byte   N06 ,Cn3 ,v023
 .byte   N12 ,Bn1 ,v127
 .byte   W06
 .byte   N06 ,Fs1 ,v085
 .byte   N06 ,Dn3 ,v044
 .byte   W06
 .byte   Ds4 ,v023
 .byte   N06 ,Dn3 ,v085
 .byte   N06 ,Fs1
 .byte   N12 ,Dn1 ,v056
 .byte   N12 ,Ds1 ,v101
 .byte   N12 ,En1 ,v085
 .byte   W06
 .byte   N06 ,Fs1
 .byte   W06
 .byte   Fs1
 .byte   N06 ,Dn3
 .byte   W06
 .byte   Cn3 ,v076
 .byte   N06 ,Fs1 ,v085
 .byte   W06
@  #06 @067   ----------------------------------------
 .byte   N12 ,Cn1 ,v109
 .byte   N06 ,As1 ,v085
 .byte   N06 ,Dn3
 .byte   N06 ,Ds4 ,v023
 .byte   N12 ,Bn1 ,v127
 .byte   W06
 .byte   N06 ,Fs1 ,v085
 .byte   W06
 .byte   Fs1
 .byte   W06
 .byte   Fs1
 .byte   N06 ,Dn3 ,v044
 .byte   N06 ,Ds4 ,v023
 .byte   W06
 .byte   N12 ,Ds1 ,v101
 .byte   N12 ,En1 ,v085
 .byte   N06 ,Fs1
 .byte   N12 ,Dn1 ,v056
 .byte   N06 ,Dn3 ,v085
 .byte   W06
 .byte   Fs1
 .byte   N06 ,Ds4 ,v023
 .byte   W06
 .byte   N12 ,Bn1 ,v127
 .byte   N12 ,Cn1 ,v109
 .byte   N06 ,Fs1 ,v085
 .byte   W06
 .byte   Fs1
 .byte   N06 ,Cn3 ,v060
 .byte   W06
 .byte   N12 ,Ds1 ,v101
 .byte   N06 ,As1 ,v085
 .byte   N06 ,Dn3
 .byte   N06 ,Ds4 ,v023
 .byte   N12 ,Bn1 ,v127
 .byte   W06
 .byte   N06 ,Fs1 ,v085
 .byte   W06
 .byte   Fs1
 .byte   N12 ,Cn1 ,v109
 .byte   N12 ,Bn1 ,v127
 .byte   W06
 .byte   N06 ,Fs1 ,v085
 .byte   N06 ,Dn3 ,v044
 .byte   N06 ,Ds4 ,v023
 .byte   W06
 .byte   Fs1 ,v085
 .byte   N12 ,En1
 .byte   N12 ,Ds1 ,v101
 .byte   N12 ,Dn1 ,v056
 .byte   N06 ,Dn3 ,v085
 .byte   N06 ,Cn3
 .byte   W06
 .byte   N12 ,Bn1 ,v127
 .byte   N06 ,Ds4 ,v023
 .byte   N12 ,Cn1 ,v043
 .byte   N06 ,Fs1 ,v085
 .byte   W06
 .byte   Ds4 ,v023
 .byte   N06 ,Fs1 ,v085
 .byte   W06
 .byte   Fs1
 .byte   N06 ,Dn3 ,v044
 .byte   W06
@  #06 @068   ----------------------------------------
 .byte   N12 ,Bn1 ,v127
 .byte   N06 ,Ds4 ,v023
 .byte   N06 ,Cs3 ,v006
 .byte   N06 ,Dn3 ,v085
 .byte   N06 ,As1
 .byte   N12 ,Cn1 ,v109
 .byte   W06
 .byte   N06 ,Fs1 ,v085
 .byte   N06 ,Dn3 ,v063
 .byte   W06
 .byte   Fs1 ,v085
 .byte   W06
 .byte   Fs1
 .byte   N06 ,Dn3
 .byte   W06
 .byte   N12 ,Dn1 ,v056
 .byte   N12 ,Ds1 ,v101
 .byte   N12 ,En1 ,v085
 .byte   N06 ,Fs1
 .byte   N06 ,Cn3 ,v043
 .byte   W06
 .byte   Fs1 ,v085
 .byte   N06 ,Dn3
 .byte   W06
 .byte   N12 ,Bn1 ,v127
 .byte   N12 ,Cn1 ,v109
 .byte   N06 ,Fs1 ,v085
 .byte   W06
 .byte   Fs1
 .byte   N06 ,Ds4 ,v023
 .byte   W06
 .byte   N12 ,Bn1 ,v127
 .byte   N06 ,Dn3 ,v070
 .byte   N06 ,Cs3 ,v007
 .byte   N12 ,Cn1 ,v043
 .byte   N06 ,As1 ,v085
 .byte   W06
 .byte   Fs1
 .byte   W06
 .byte   N12 ,Cn1 ,v109
 .byte   N06 ,Fs1 ,v085
 .byte   N06 ,Dn3 ,v065
 .byte   N12 ,Bn1 ,v127
 .byte   W06
 .byte   N06 ,Fs1 ,v085
 .byte   W06
 .byte   Fs1
 .byte   N12 ,Dn1 ,v056
 .byte   N12 ,Ds1 ,v101
 .byte   N12 ,En1 ,v085
 .byte   N06 ,Cn3 ,v018
 .byte   W06
 .byte   Fs1 ,v085
 .byte   W06
 .byte   Dn3 ,v049
 .byte   N06 ,Fs1 ,v085
 .byte   W06
 .byte   Fs1
 .byte   N06 ,Dn3
 .byte   W06
@  #06 @069   ----------------------------------------
 .byte   N12 ,Bn1 ,v127
 .byte   N06 ,Ds4 ,v023
 .byte   N12 ,Cn1 ,v109
 .byte   N06 ,As1 ,v085
 .byte   N06 ,Cs3 ,v010
 .byte   W06
 .byte   Fs1 ,v085
 .byte   W06
 .byte   Fs1
 .byte   N06 ,Dn3 ,v078
 .byte   W06
 .byte   Fs1 ,v085
 .byte   N06 ,Ds4 ,v023
 .byte   W06
 .byte   N12 ,Ds1 ,v101
 .byte   N12 ,En1 ,v085
 .byte   N06 ,Fs1
 .byte   N12 ,Dn1 ,v056
 .byte   N06 ,Cn3 ,v045
 .byte   W06
 .byte   Fs1 ,v085
 .byte   N06 ,Dn3 ,v060
 .byte   N06 ,Ds4 ,v023
 .byte   W06
 .byte   N12 ,Bn1 ,v127
 .byte   N06 ,Dn3 ,v052
 .byte   N12 ,Cn1 ,v109
 .byte   N06 ,Fs1 ,v085
 .byte   W06
 .byte   Fs1
 .byte   N06 ,Ds4 ,v023
 .byte   W06
 .byte   N12 ,Bn1 ,v127
 .byte   N06 ,As1 ,v085
 .byte   N12 ,Ds1 ,v101
 .byte   N06 ,Cs3 ,v018
 .byte   W06
 .byte   Fs1 ,v085
 .byte   W06
 .byte   N12 ,Cn1 ,v109
 .byte   N06 ,Fs1 ,v085
 .byte   N06 ,Dn3 ,v024
 .byte   N12 ,Bn1 ,v127
 .byte   W06
 .byte   N06 ,Fs1 ,v085
 .byte   N06 ,Ds4 ,v023
 .byte   W06
 .byte   N12 ,Dn1 ,v056
 .byte   N12 ,Ds1 ,v101
 .byte   N12 ,En1 ,v085
 .byte   N06 ,Fs1
 .byte   N06 ,Cn3 ,v052
 .byte   W06
 .byte   Fs1 ,v085
 .byte   N12 ,Cn1 ,v043
 .byte   N12 ,Bn1 ,v127
 .byte   W06
 .byte   N06 ,Fs1 ,v085
 .byte   W06
 .byte   Fs1
 .byte   N06 ,Dn3
 .byte   W06
@  #06 @070   ----------------------------------------
 .byte   N12 ,Bn1 ,v127
 .byte   N06 ,Ds4 ,v023
 .byte   N06 ,As1 ,v085
 .byte   N12 ,Cn1 ,v109
 .byte   N06 ,Cs3 ,v012
 .byte   W06
 .byte   Fs1 ,v085
 .byte   N06 ,Ds4 ,v023
 .byte   W06
 .byte   Fs1 ,v085
 .byte   N06 ,Dn3
 .byte   W06
 .byte   Fs1
 .byte   W06
 .byte   Fs1
 .byte   N12 ,En1
 .byte   N12 ,Ds1 ,v101
 .byte   N12 ,Dn1 ,v056
 .byte   N06 ,Cn3 ,v029
 .byte   W06
 .byte   Fs1 ,v085
 .byte   N06 ,Ds4 ,v023
 .byte   W06
 .byte   N12 ,Bn1 ,v127
 .byte   N12 ,Cn1 ,v109
 .byte   N06 ,Fs1 ,v085
 .byte   W06
 .byte   Fs1
 .byte   N06 ,Dn3
 .byte   N06 ,Ds4 ,v023
 .byte   W06
 .byte   N12 ,Bn1 ,v127
 .byte   N12 ,Cn1 ,v043
 .byte   N06 ,As1 ,v085
 .byte   N06 ,Cs3 ,v016
 .byte   W06
 .byte   Fs1 ,v085
 .byte   N06 ,Ds4 ,v023
 .byte   W06
 .byte   N12 ,Cn1 ,v109
 .byte   N06 ,Fs1 ,v085
 .byte   N12 ,Bn1 ,v127
 .byte   W06
 .byte   N06 ,Fs1 ,v085
 .byte   N06 ,Dn3 ,v024
 .byte   W06
 .byte   Fs1 ,v085
 .byte   N12 ,Dn1 ,v056
 .byte   N12 ,Ds1 ,v101
 .byte   N12 ,En1 ,v085
 .byte   N06 ,Cn3 ,v045
 .byte   N06 ,Ds4 ,v023
 .byte   W06
 .byte   Fs1 ,v085
 .byte   N06 ,Dn3 ,v068
 .byte   W06
 .byte   Fs1 ,v085
 .byte   W06
 .byte   Fs1
 .byte   N06 ,Dn3 ,v060
 .byte   W06
@  #06 @071   ----------------------------------------
 .byte   N12 ,Cn1 ,v109
 .byte   N06 ,As1 ,v085
 .byte   N06 ,Cs3 ,v015
 .byte   N06 ,Dn3 ,v085
 .byte   N06 ,Cn3 ,v027
 .byte   N06 ,Ds4 ,v023
 .byte   N12 ,Bn1 ,v127
 .byte   W06
 .byte   N06 ,Fs1 ,v085
 .byte   W06
 .byte   Fs1
 .byte   N06 ,Dn3
 .byte   W06
 .byte   Fs1
 .byte   N06 ,Dn3
 .byte   N06 ,Cn3 ,v037
 .byte   N06 ,Ds4 ,v023
 .byte   W06
 .byte   N12 ,Ds1 ,v101
 .byte   N12 ,En1 ,v085
 .byte   N06 ,Fs1
 .byte   N12 ,Dn1 ,v056
 .byte   N06 ,Cn3 ,v045
 .byte   N06 ,Dn3 ,v085
 .byte   W06
 .byte   Fs1
 .byte   N06 ,Ds4 ,v023
 .byte   W06
 .byte   N12 ,Bn1 ,v127
 .byte   N06 ,Dn3 ,v085
 .byte   N12 ,Cn1 ,v109
 .byte   N06 ,Fs1 ,v085
 .byte   W06
 .byte   Fs1
 .byte   W06
 .byte   N12 ,Ds1 ,v101
 .byte   N06 ,As1 ,v085
 .byte   N06 ,Cs3 ,v015
 .byte   N06 ,Dn3 ,v085
 .byte   N06 ,Cn3 ,v050
 .byte   N06 ,Ds4 ,v023
 .byte   N12 ,Bn1 ,v127
 .byte   W06
 .byte   N06 ,Fs1 ,v085
 .byte   W06
 .byte   Fs1
 .byte   N12 ,Cn1 ,v109
 .byte   N06 ,Dn3 ,v085
 .byte   N12 ,Bn1 ,v127
 .byte   W06
 .byte   N06 ,Fs1 ,v085
 .byte   N06 ,Dn3
 .byte   N06 ,Cn3 ,v032
 .byte   N06 ,Ds4 ,v023
 .byte   W06
 .byte   Fs1 ,v085
 .byte   N12 ,En1
 .byte   N12 ,Ds1 ,v101
 .byte   N12 ,Dn1 ,v056
 .byte   N06 ,Cn3 ,v058
 .byte   N06 ,Dn3 ,v085
 .byte   W06
 .byte   N12 ,Cn1 ,v043
 .byte   N06 ,Fs1 ,v085
 .byte   N12 ,Bn1 ,v127
 .byte   W06
 .byte   N06 ,Dn3 ,v085
 .byte   N06 ,Fs1
 .byte   W06
 .byte   Fs1
 .byte   N06 ,Dn3
 .byte   W06
@  #06 @072   ----------------------------------------
Label_0100A0A0:
 .byte   N06 ,Cn3 ,v078
 .byte   N06 ,Dn3 ,v085
 .byte   W06
 .byte   Dn3
 .byte   W12
 .byte   Dn3 ,v044
 .byte   W06
 .byte   Cn3 ,v045
 .byte   N06 ,Dn3 ,v085
 .byte   W18
 .byte   Dn3
 .byte   W06
 .byte   Dn3
 .byte   W12
 .byte   Cn3 ,v023
 .byte   W06
 .byte   Dn3 ,v044
 .byte   W06
 .byte   Dn3 ,v085
 .byte   W12
 .byte   Dn3
 .byte   W06
 .byte   Cn3 ,v076
 .byte   W06
 .byte   PEND 
@  #06 @073   ----------------------------------------
Label_0100A0C5:
 .byte   N06 ,Dn3 ,v085
 .byte   W18
 .byte   Dn3 ,v044
 .byte   W06
 .byte   Dn3 ,v085
 .byte   W18
 .byte   Cn3 ,v060
 .byte   W06
 .byte   Dn3 ,v085
 .byte   W18
 .byte   Dn3 ,v044
 .byte   W06
 .byte   Dn3 ,v085
 .byte   N06 ,Cn3
 .byte   W18
 .byte   Cn3 ,v068
 .byte   W06
 .byte   PEND 
@  #06 @074   ----------------------------------------
Label_0100A0E1:
 .byte   N06 ,Dn3 ,v085
 .byte   W06
 .byte   Dn3
 .byte   W12
 .byte   Dn3 ,v044
 .byte   W06
 .byte   Dn3 ,v085
 .byte   N06 ,Cn3 ,v045
 .byte   W18
 .byte   Dn3 ,v085
 .byte   W06
 .byte   Dn3
 .byte   W12
 .byte   Cn3 ,v023
 .byte   W06
 .byte   Dn3 ,v044
 .byte   W06
 .byte   Dn3 ,v085
 .byte   W12
 .byte   Dn3
 .byte   W06
 .byte   Cn3 ,v076
 .byte   W06
 .byte   PEND 
@  #06 @075   ----------------------------------------
Label_0100A104:
 .byte   N06 ,Dn3 ,v085
 .byte   W18
 .byte   Dn3 ,v044
 .byte   W06
 .byte   Dn3 ,v085
 .byte   W18
 .byte   Cn3 ,v060
 .byte   W06
 .byte   Dn3 ,v085
 .byte   W18
 .byte   Dn3 ,v044
 .byte   W06
 .byte   Dn3 ,v085
 .byte   N06 ,Cn3
 .byte   W18
 .byte   Dn3 ,v044
 .byte   W06
 .byte   PEND 
@  #06 @076   ----------------------------------------
Label_0100A120:
 .byte   N06 ,Cs3 ,v006
 .byte   N06 ,Dn3 ,v085
 .byte   W06
 .byte   Dn3 ,v063
 .byte   W12
 .byte   Dn3 ,v085
 .byte   W06
 .byte   Cn3 ,v043
 .byte   W06
 .byte   Dn3 ,v085
 .byte   W18
 .byte   Dn3 ,v070
 .byte   N06 ,Cs3 ,v007
 .byte   W12
 .byte   Dn3 ,v065
 .byte   W12
 .byte   Cn3 ,v018
 .byte   W12
 .byte   Dn3 ,v049
 .byte   W06
 .byte   Dn3 ,v085
 .byte   W06
 .byte   PEND 
@  #06 @077   ----------------------------------------
Label_0100A146:
 .byte   N06 ,Cs3 ,v010
 .byte   W12
 .byte   Dn3 ,v078
 .byte   W12
 .byte   Cn3 ,v045
 .byte   W06
 .byte   Dn3 ,v060
 .byte   W06
 .byte   Dn3 ,v052
 .byte   W12
 .byte   Cs3 ,v018
 .byte   W12
 .byte   Dn3 ,v024
 .byte   W12
 .byte   Cn3 ,v052
 .byte   W18
 .byte   Dn3 ,v085
 .byte   W06
 .byte   PEND 
@  #06 @078   ----------------------------------------
Label_0100A163:
 .byte   N06 ,Cs3 ,v012
 .byte   W12
 .byte   Dn3 ,v085
 .byte   W12
 .byte   Cn3 ,v029
 .byte   W18
 .byte   Dn3 ,v085
 .byte   W06
 .byte   Cs3 ,v016
 .byte   W18
 .byte   Dn3 ,v024
 .byte   W06
 .byte   Cn3 ,v045
 .byte   W06
 .byte   Dn3 ,v068
 .byte   W12
 .byte   Dn3 ,v060
 .byte   W06
 .byte   PEND 
@  #06 @079   ----------------------------------------
 .byte   W96
@  #06 @080   ----------------------------------------
 .byte   PATT
  .word Label_01009301
@  #06 @081   ----------------------------------------
 .byte   PATT
  .word Label_0100938F
@  #06 @082   ----------------------------------------
 .byte   PATT
  .word Label_01009413
@  #06 @083   ----------------------------------------
 .byte   PATT
  .word Label_01009498
@  #06 @084   ----------------------------------------
 .byte   PATT
  .word Label_01009521
@  #06 @085   ----------------------------------------
 .byte   PATT
  .word Label_0100938F
@  #06 @086   ----------------------------------------
 .byte   PATT
  .word Label_01009413
@  #06 @087   ----------------------------------------
 .byte   PATT
  .word Label_010095B9
@  #06 @088   ----------------------------------------
 .byte   N12 ,Bn1 ,v109
 .byte   N06 ,Fs1 ,v085
 .byte   N12 ,Cn1 ,v109
 .byte   N06 ,Cs3 ,v006
 .byte   N06 ,Dn3 ,v085
 .byte   N12 ,An2 ,v029
 .byte   W06
 .byte   N06 ,Fs1 ,v085
 .byte   N06 ,Dn3 ,v063
 .byte   W06
 .byte   Fs1 ,v085
 .byte   W06
 .byte   Dn3
 .byte   N06 ,Fs1
 .byte   W06
 .byte   Cn3 ,v043
 .byte   N12 ,Cn1 ,v109
 .byte   N12 ,Dn1 ,v056
 .byte   N12 ,Ds1 ,v101
 .byte   N06 ,Fs1 ,v085
 .byte   N12 ,En1
 .byte   N12 ,Bn1 ,v109
 .byte   W06
 .byte   N06 ,Dn3 ,v085
 .byte   N06 ,Fs1
 .byte   W06
 .byte   Fs1
 .byte   W06
 .byte   Fs1
 .byte   W06
 .byte   N12 ,Bn1 ,v109
 .byte   N06 ,Fs1 ,v085
 .byte   N12 ,Cn1 ,v109
 .byte   N06 ,Dn3 ,v070
 .byte   N06 ,Cs3 ,v007
 .byte   W06
 .byte   Fs1 ,v085
 .byte   W06
 .byte   Dn3 ,v065
 .byte   N06 ,Fs1 ,v085
 .byte   W06
 .byte   Fs1
 .byte   W06
 .byte   Cn3 ,v018
 .byte   N12 ,Cn1 ,v109
 .byte   N06 ,Fs1 ,v085
 .byte   N12 ,Dn1 ,v056
 .byte   N12 ,Ds1 ,v101
 .byte   N12 ,En1 ,v085
 .byte   N12 ,Bn1 ,v109
 .byte   W06
 .byte   N06 ,Fs1 ,v085
 .byte   W06
 .byte   Fs1
 .byte   N06 ,Dn3 ,v049
 .byte   W06
 .byte   Dn3 ,v085
 .byte   N06 ,Fs1
 .byte   W06
@  #06 @089   ----------------------------------------
 .byte   PATT
  .word Label_010096BF
@  #06 @090   ----------------------------------------
 .byte   N12 ,Bn1 ,v109
 .byte   N06 ,Cs3 ,v012
 .byte   N12 ,An2 ,v029
 .byte   N12 ,Cn1 ,v109
 .byte   N06 ,Fs1 ,v085
 .byte   W06
 .byte   Fs1
 .byte   W06
 .byte   Dn3
 .byte   N06 ,Fs1
 .byte   W06
 .byte   Fs1
 .byte   W06
 .byte   Cn3 ,v029
 .byte   N12 ,Cn1 ,v109
 .byte   N06 ,Fs1 ,v085
 .byte   N12 ,En1
 .byte   N12 ,Ds1 ,v101
 .byte   N12 ,Dn1 ,v056
 .byte   N12 ,Bn1 ,v109
 .byte   W06
 .byte   N06 ,Fs1 ,v085
 .byte   W06
 .byte   Fs1
 .byte   W06
 .byte   Fs1
 .byte   N06 ,Dn3
 .byte   W06
 .byte   N12 ,Bn1 ,v109
 .byte   N06 ,Fs1 ,v085
 .byte   N12 ,Cn1 ,v109
 .byte   N06 ,Cs3 ,v016
 .byte   W06
 .byte   Fs1 ,v085
 .byte   W06
 .byte   Fs1
 .byte   W06
 .byte   Dn3 ,v024
 .byte   N06 ,Fs1 ,v085
 .byte   W06
 .byte   Cn3 ,v045
 .byte   N12 ,Cn1 ,v109
 .byte   N06 ,Fs1 ,v085
 .byte   N12 ,Dn1 ,v056
 .byte   N12 ,Ds1 ,v101
 .byte   N12 ,En1 ,v085
 .byte   N12 ,Bn1 ,v109
 .byte   W06
 .byte   N06 ,Dn3 ,v068
 .byte   N06 ,Fs1 ,v085
 .byte   W06
 .byte   Fs1
 .byte   W06
 .byte   Fs1
 .byte   N06 ,Dn3 ,v060
 .byte   W06
@  #06 @091   ----------------------------------------
 .byte   N12 ,Cn1 ,v109
 .byte   N06 ,Fs1 ,v085
 .byte   N06 ,Dn3
 .byte   N06 ,Cs3 ,v015
 .byte   N12 ,Bn1 ,v109
 .byte   W06
 .byte   N06 ,Fs1 ,v085
 .byte   W06
 .byte   Fs1
 .byte   W06
 .byte   Dn3
 .byte   N06 ,Fs1
 .byte   W06
 .byte   Cn3 ,v068
 .byte   N06 ,Dn3 ,v085
 .byte   N12 ,Cn1 ,v109
 .byte   N12 ,Ds1 ,v101
 .byte   N12 ,En1 ,v085
 .byte   N06 ,Fs1
 .byte   N12 ,Dn1 ,v056
 .byte   N12 ,Bn1 ,v109
 .byte   W06
 .byte   N06 ,Fs1 ,v085
 .byte   W06
 .byte   Fs1
 .byte   N06 ,Dn3
 .byte   W06
 .byte   Fs1
 .byte   W06
 .byte   N12 ,Cn1 ,v109
 .byte   N12 ,Ds1 ,v101
 .byte   N06 ,Fs1 ,v085
 .byte   N06 ,Dn3
 .byte   N06 ,Cs3 ,v015
 .byte   N12 ,Bn1 ,v109
 .byte   W06
 .byte   N06 ,Fs1 ,v085
 .byte   W06
 .byte   Fs1
 .byte   W06
 .byte   Dn3
 .byte   N06 ,Fs1
 .byte   W06
 .byte   Dn3
 .byte   N06 ,Cn3
 .byte   N12 ,Cn1 ,v109
 .byte   N06 ,Fs1 ,v085
 .byte   N12 ,En1
 .byte   N12 ,Ds1 ,v101
 .byte   N12 ,Dn1 ,v056
 .byte   N12 ,Bn1 ,v109
 .byte   W06
 .byte   N06 ,Fs1 ,v085
 .byte   W06
 .byte   Fs1
 .byte   W06
 .byte   Dn3
 .byte   N06 ,Fs1
 .byte   W06
@  #06 @092   ----------------------------------------
 .byte   N12 ,Bn1 ,v109
 .byte   N06 ,Cs3 ,v006
 .byte   N06 ,Dn3 ,v085
 .byte   N12 ,An2 ,v029
 .byte   N12 ,Cn1 ,v109
 .byte   N06 ,Fs1 ,v085
 .byte   W06
 .byte   Fs1
 .byte   N06 ,Dn3 ,v063
 .byte   W06
 .byte   Fs1 ,v085
 .byte   W06
 .byte   Dn3
 .byte   N06 ,Fs1
 .byte   W06
 .byte   Cn3 ,v043
 .byte   N12 ,Cn1 ,v109
 .byte   N12 ,Dn1 ,v056
 .byte   N12 ,Ds1 ,v101
 .byte   N12 ,En1 ,v085
 .byte   N06 ,Fs1
 .byte   N12 ,Bn1 ,v109
 .byte   W06
 .byte   N06 ,Dn3 ,v085
 .byte   N06 ,Fs1
 .byte   W06
 .byte   Fs1
 .byte   W06
 .byte   Fs1
 .byte   W06
 .byte   N12 ,Bn1 ,v109
 .byte   N12 ,Cn1
 .byte   N06 ,Fs1 ,v085
 .byte   N06 ,Dn3 ,v070
 .byte   N06 ,Cs3 ,v007
 .byte   W06
 .byte   Fs1 ,v085
 .byte   W06
 .byte   Fs1
 .byte   N06 ,Dn3 ,v065
 .byte   W06
 .byte   Fs1 ,v085
 .byte   W06
 .byte   N12 ,Cn1 ,v109
 .byte   N06 ,Fs1 ,v085
 .byte   N12 ,Dn1 ,v056
 .byte   N12 ,Ds1 ,v101
 .byte   N12 ,En1 ,v085
 .byte   N06 ,Cn3 ,v018
 .byte   N12 ,Bn1 ,v109
 .byte   W06
 .byte   N06 ,Fs1 ,v085
 .byte   W06
 .byte   Fs1
 .byte   N06 ,Dn3 ,v049
 .byte   W06
 .byte   Dn3 ,v085
 .byte   N06 ,Fs1
 .byte   W06
@  #06 @093   ----------------------------------------
 .byte   N12 ,Bn1 ,v109
 .byte   N06 ,Fs1 ,v085
 .byte   N12 ,Cn1 ,v109
 .byte   N06 ,Cs3 ,v010
 .byte   W06
 .byte   Fs1 ,v085
 .byte   W06
 .byte   Fs1
 .byte   N06 ,Dn3 ,v078
 .byte   W06
 .byte   Fs1 ,v085
 .byte   W06
 .byte   N12 ,Cn1 ,v109
 .byte   N12 ,Ds1 ,v101
 .byte   N12 ,En1 ,v085
 .byte   N06 ,Fs1
 .byte   N12 ,Dn1 ,v056
 .byte   N06 ,Cn3 ,v045
 .byte   N12 ,Bn1 ,v109
 .byte   W06
 .byte   N06 ,Dn3 ,v060
 .byte   N06 ,Fs1 ,v085
 .byte   W06
 .byte   Fs1
 .byte   N06 ,Dn3 ,v052
 .byte   W06
 .byte   Fs1 ,v085
 .byte   W06
 .byte   N12 ,Bn1 ,v109
 .byte   N12 ,Cn1
 .byte   N06 ,Fs1 ,v085
 .byte   N12 ,Ds1 ,v101
 .byte   N06 ,Cs3 ,v018
 .byte   W06
 .byte   Fs1 ,v085
 .byte   W06
 .byte   Fs1
 .byte   N06 ,Dn3 ,v024
 .byte   W06
 .byte   Fs1 ,v085
 .byte   W06
 .byte   N12 ,Cn1 ,v109
 .byte   N12 ,Dn1 ,v056
 .byte   N12 ,Ds1 ,v101
 .byte   N12 ,En1 ,v085
 .byte   N06 ,Fs1
 .byte   N06 ,Cn3 ,v052
 .byte   N12 ,Bn1 ,v109
 .byte   W06
 .byte   N06 ,Fs1 ,v085
 .byte   W06
 .byte   Fs1
 .byte   W06
 .byte   Dn3
 .byte   N06 ,Fs1
 .byte   W06
@  #06 @094   ----------------------------------------
 .byte   N12 ,Bn1 ,v109
 .byte   N06 ,Fs1 ,v085
 .byte   N12 ,Cn1 ,v109
 .byte   N12 ,An2 ,v029
 .byte   N06 ,Cs3 ,v012
 .byte   W06
 .byte   Fs1 ,v085
 .byte   W06
 .byte   Fs1
 .byte   N06 ,Dn3
 .byte   W06
 .byte   Fs1
 .byte   W06
 .byte   Cn3 ,v029
 .byte   N12 ,Cn1 ,v109
 .byte   N06 ,Fs1 ,v085
 .byte   N12 ,Ds1 ,v101
 .byte   N12 ,Dn1 ,v056
 .byte   N12 ,En1 ,v085
 .byte   N12 ,Bn1 ,v109
 .byte   W06
 .byte   N06 ,Fs1 ,v085
 .byte   W06
 .byte   Fs1
 .byte   W06
 .byte   Fs1
 .byte   N06 ,Dn3
 .byte   W06
 .byte   N12 ,Bn1 ,v109
 .byte   N06 ,Fs1 ,v085
 .byte   N12 ,Cn1 ,v109
 .byte   N06 ,Cs3 ,v016
 .byte   W06
 .byte   Fs1 ,v085
 .byte   W06
 .byte   Fs1
 .byte   W06
 .byte   Dn3 ,v024
 .byte   N06 ,Fs1 ,v085
 .byte   W06
 .byte   Cn3 ,v045
 .byte   N12 ,Cn1 ,v109
 .byte   N06 ,Fs1 ,v085
 .byte   N12 ,Dn1 ,v056
 .byte   N12 ,Ds1 ,v101
 .byte   N12 ,En1 ,v085
 .byte   N12 ,Bn1 ,v109
 .byte   W06
 .byte   N06 ,Dn3 ,v068
 .byte   N06 ,Fs1 ,v085
 .byte   W06
 .byte   Fs1
 .byte   W06
 .byte   Fs1
 .byte   N06 ,Dn3 ,v060
 .byte   W06
@  #06 @095   ----------------------------------------
 .byte   N12 ,Cn1 ,v109
 .byte   N12 ,Gs1 ,v085
 .byte   N12 ,Bn1 ,v109
 .byte   W12
 .byte   Fs1 ,v085
 .byte   W12
 .byte   Cn1 ,v109
 .byte   N12 ,Gs1 ,v085
 .byte   N12 ,Bn1 ,v109
 .byte   W12
 .byte   Fs1 ,v085
 .byte   W12
 .byte   Cn1 ,v109
 .byte   N12 ,Gs1 ,v085
 .byte   N12 ,Bn1 ,v109
 .byte   W12
 .byte   Fs1 ,v085
 .byte   W12
 .byte   Cn1 ,v109
 .byte   N12 ,Gs1 ,v085
 .byte   N12 ,Bn1 ,v109
 .byte   W12
 .byte   Fs1 ,v085
 .byte   W12
@  #06 @096   ----------------------------------------
 .byte   PATT
  .word Label_01009AAC
@  #06 @097   ----------------------------------------
 .byte   PATT
  .word Label_01009B09
@  #06 @098   ----------------------------------------
 .byte   PATT
  .word Label_01009B6E
@  #06 @099   ----------------------------------------
 .byte   PATT
  .word Label_01009BCB
@  #06 @100   ----------------------------------------
 .byte   PATT
  .word Label_01009AAC
@  #06 @101   ----------------------------------------
 .byte   PATT
  .word Label_01009B09
@  #06 @102   ----------------------------------------
 .byte   PATT
  .word Label_01009B6E
@  #06 @103   ----------------------------------------
 .byte   PATT
  .word Label_01009BCB
@  #06 @104   ----------------------------------------
 .byte   PATT
  .word Label_0100A0A0
@  #06 @105   ----------------------------------------
 .byte   PATT
  .word Label_0100A0C5
@  #06 @106   ----------------------------------------
 .byte   PATT
  .word Label_0100A0E1
@  #06 @107   ----------------------------------------
 .byte   PATT
  .word Label_0100A104
@  #06 @108   ----------------------------------------
 .byte   PATT
  .word Label_0100A120
@  #06 @109   ----------------------------------------
 .byte   PATT
  .word Label_0100A146
@  #06 @110   ----------------------------------------
 .byte   PATT
  .word Label_0100A163
@  #06 @111   ----------------------------------------
 .byte   W96
@  #06 @112   ----------------------------------------
 .byte   GOTO
  .word Label_010088DA
@  #06 @113   ----------------------------------------
 .byte   W96
 .byte   FINE

@******************************************************@
	.align	2

song02:
	.byte	6	@ NumTrks
	.byte	0	@ NumBlks
	.byte	song02_pri	@ Priority
	.byte	song02_rev	@ Reverb.
    
	.word	song02_grp
    
	.word	song02_001
	.word	song02_002
	.word	song02_003
	.word	song02_004
	.word	song02_005
	.word	song02_006

	.end
