	.include "MPlayDef.s"

	.equ	song0106_grp, voicegroup000
	.equ	song0106_pri, 0
	.equ	song0106_rev, 0
	.equ	song0106_mvl, 127
	.equ	song0106_key, 0
	.equ	song0106_tbs, 1
	.equ	song0106_exg, 0
	.equ	song0106_cmp, 1

	.section .rodata
	.global	song0106
	.align	2


@**************** Track 1 (Midi-Chn.0) ****************@

song0106_001:
@  #01 @000   ----------------------------------------
 .byte   KEYSH , song0106_key+0
 .byte   TEMPO , 200*song0106_tbs/2
Label_D56874:
 .byte   VOICE , 81
 .byte   VOL , 87*song0106_mvl/mxv
 .byte   PAN , c_v-1
 .byte   N36 ,En5 ,v127
 .byte   W36
 .byte   Bn4
 .byte   W36
 .byte   N24 ,Gs4
 .byte   W24
@  #01 @001   ----------------------------------------
 .byte   N36 ,Fs4
 .byte   W36
 .byte   N60 ,Cs5
 .byte   W60
@  #01 @002   ----------------------------------------
 .byte   N36 ,Gn5
 .byte   W36
 .byte   Dn5
 .byte   W36
 .byte   N24 ,Gn4
 .byte   W24
@  #01 @003   ----------------------------------------
 .byte   An4
 .byte   W24
 .byte   N12 ,En5
 .byte   W12
 .byte   N24 ,An5
 .byte   W24
 .byte   N12 ,En6
 .byte   W12
 .byte   N24 ,Fs6
 .byte   W24
@  #01 @004   ----------------------------------------
 .byte   W96
@  #01 @005   ----------------------------------------
 .byte   W96
@  #01 @006   ----------------------------------------
 .byte   W96
@  #01 @007   ----------------------------------------
 .byte   W96
@  #01 @008   ----------------------------------------
 .byte   W96
@  #01 @009   ----------------------------------------
 .byte   W96
@  #01 @010   ----------------------------------------
 .byte   W96
@  #01 @011   ----------------------------------------
 .byte   W48
 .byte   N48 ,En5
 .byte   W48
@  #01 @012   ----------------------------------------
Label_D568AA:
 .byte   N60 ,Bn5 ,v127
 .byte   W60
 .byte   N12 ,An5
 .byte   W12
 .byte   Gs5
 .byte   W12
 .byte   An5
 .byte   W12
 .byte   PEND 
@  #01 @013   ----------------------------------------
 .byte   Bn5
 .byte   W12
 .byte   En5
 .byte   W12
 .byte   En6
 .byte   W12
 .byte   N84 ,Bn5
 .byte   W60
@  #01 @014   ----------------------------------------
 .byte   W24
 .byte   N12 ,Cs5
 .byte   W12
 .byte   N24 ,En5
 .byte   W24
 .byte   An5
 .byte   W24
 .byte   N12 ,Cs6
 .byte   W12
@  #01 @015   ----------------------------------------
 .byte   N24 ,Bn5
 .byte   W24
 .byte   N12
 .byte   W12
 .byte   N24 ,Fs6
 .byte   W24
 .byte   N12 ,En6
 .byte   W12
 .byte   Ds6
 .byte   W12
 .byte   En6
 .byte   W12
@  #01 @016   ----------------------------------------
 .byte   PATT
  .word Label_D568AA
@  #01 @017   ----------------------------------------
 .byte   N12 ,Bn5 ,v127
 .byte   W12
 .byte   En5
 .byte   W12
 .byte   En6
 .byte   W12
 .byte   N24 ,Bn5
 .byte   W24
 .byte   N12 ,Gs5
 .byte   W12
 .byte   An5
 .byte   W12
 .byte   Bn5
 .byte   W12
@  #01 @018   ----------------------------------------
 .byte   N24 ,Cs6
 .byte   W24
 .byte   N12 ,Ds6
 .byte   W12
 .byte   N24 ,En6
 .byte   W24
 .byte   N12 ,Cs6
 .byte   W12
 .byte   Ds6
 .byte   W12
 .byte   En6
 .byte   W12
@  #01 @019   ----------------------------------------
 .byte   N96 ,Fs6
 .byte   W96
@  #01 @020   ----------------------------------------
 .byte   W96
@  #01 @021   ----------------------------------------
 .byte   W96
@  #01 @022   ----------------------------------------
 .byte   W96
@  #01 @023   ----------------------------------------
 .byte   W96
@  #01 @024   ----------------------------------------
 .byte   W96
@  #01 @025   ----------------------------------------
 .byte   W96
@  #01 @026   ----------------------------------------
 .byte   W96
@  #01 @027   ----------------------------------------
 .byte   W96
@  #01 @028   ----------------------------------------
 .byte   W96
@  #01 @029   ----------------------------------------
 .byte   W96
@  #01 @030   ----------------------------------------
 .byte   W96
@  #01 @031   ----------------------------------------
 .byte   W96
@  #01 @032   ----------------------------------------
 .byte   W96
@  #01 @033   ----------------------------------------
 .byte   W96
@  #01 @034   ----------------------------------------
 .byte   W96
@  #01 @035   ----------------------------------------
 .byte   W96
@  #01 @036   ----------------------------------------
 .byte   W96
@  #01 @037   ----------------------------------------
 .byte   W96
@  #01 @038   ----------------------------------------
 .byte   W96
@  #01 @039   ----------------------------------------
 .byte   W96
@  #01 @040   ----------------------------------------
 .byte   GOTO
  .word Label_D56874
 .byte   FINE

@**************** Track 2 (Midi-Chn.1) ****************@

song0106_002:
@  #02 @000   ----------------------------------------
 .byte   KEYSH , song0106_key+0
Label_D56920:
 .byte   VOICE , 63
 .byte   VOL , 64*song0106_mvl/mxv
 .byte   PAN , c_v-1
 .byte   W96
@  #02 @001   ----------------------------------------
 .byte   W96
@  #02 @002   ----------------------------------------
 .byte   W96
@  #02 @003   ----------------------------------------
 .byte   W96
@  #02 @004   ----------------------------------------
 .byte   N24 ,Gs4 ,v100
 .byte   N24 ,Gs5
 .byte   W24
 .byte   N12 ,En4
 .byte   N12 ,En5
 .byte   W12
 .byte   N84 ,Bn3
 .byte   N84 ,Bn4
 .byte   W60
@  #02 @005   ----------------------------------------
 .byte   W24
 .byte   N24 ,Gs3
 .byte   N24 ,Gs4
 .byte   W24
 .byte   N16 ,Bn3
 .byte   N16 ,Bn4
 .byte   W16
 .byte   En4
 .byte   N16 ,En5
 .byte   W16
 .byte   Gs4
 .byte   N16 ,Gs5
 .byte   W16
@  #02 @006   ----------------------------------------
 .byte   N36 ,Gs4
 .byte   N36 ,Gs5
 .byte   W36
 .byte   TIE ,Fs4
 .byte   TIE ,Fs5
 .byte   W60
@  #02 @007   ----------------------------------------
 .byte   W48
 .byte   EOT
 .byte   EOT
 .byte   Fs4
 .byte   N48 ,An4
 .byte   N48 ,An5
 .byte   W48
@  #02 @008   ----------------------------------------
 .byte   N24 ,Gs5
 .byte   N24 ,Gs4
 .byte   W24
 .byte   N12 ,En5
 .byte   N12 ,En4
 .byte   W12
 .byte   N84 ,Bn4
 .byte   N84 ,Bn3
 .byte   W60
@  #02 @009   ----------------------------------------
 .byte   W24
 .byte   N24 ,Gs4
 .byte   N24 ,Gs3
 .byte   W24
 .byte   N16 ,Bn4
 .byte   N16 ,Bn3
 .byte   W16
 .byte   En5
 .byte   N16 ,En4
 .byte   W16
 .byte   Cs6
 .byte   N16 ,Cs5
 .byte   W16
@  #02 @010   ----------------------------------------
 .byte   N36 ,Cs6
 .byte   N36 ,Cs5
 .byte   W36
 .byte   TIE ,Bn5
 .byte   TIE ,Bn4
 .byte   W60
@  #02 @011   ----------------------------------------
 .byte   W48
 .byte   EOT
 .byte   EOT
 .byte   Bn5
 .byte   W48
@  #02 @012   ----------------------------------------
 .byte   W96
@  #02 @013   ----------------------------------------
 .byte   W96
@  #02 @014   ----------------------------------------
 .byte   W96
@  #02 @015   ----------------------------------------
 .byte   W96
@  #02 @016   ----------------------------------------
 .byte   W96
@  #02 @017   ----------------------------------------
 .byte   W96
@  #02 @018   ----------------------------------------
 .byte   W96
@  #02 @019   ----------------------------------------
 .byte   W96
@  #02 @020   ----------------------------------------
Label_D56999:
 .byte   N12 ,Ds5 ,v100
 .byte   N12 ,Ds4
 .byte   W12
 .byte   En5
 .byte   N12 ,En4
 .byte   W12
 .byte   Fs5
 .byte   N12 ,Fs4
 .byte   W12
 .byte   N24 ,Bn4
 .byte   N24 ,Bn3
 .byte   W24
 .byte   N60 ,Bn5
 .byte   N60 ,Bn4
 .byte   W36
 .byte   PEND 
@  #02 @021   ----------------------------------------
Label_D569B2:
 .byte   W24
 .byte   N24 ,An5 ,v100
 .byte   N24 ,An4
 .byte   W24
 .byte   Gs5
 .byte   N24 ,Gs4
 .byte   W24
 .byte   Fs5
 .byte   N24 ,Fs4
 .byte   W24
 .byte   PEND 
@  #02 @022   ----------------------------------------
Label_D569C2:
 .byte   N12 ,Gs5 ,v100
 .byte   N12 ,Gs4
 .byte   W12
 .byte   Fs5
 .byte   N12 ,Fs4
 .byte   W12
 .byte   Gs5
 .byte   N12 ,Gs4
 .byte   W12
 .byte   N60 ,Cs5
 .byte   N60 ,Cs4
 .byte   W60
 .byte   PEND 
@  #02 @023   ----------------------------------------
Label_D569D6:
 .byte   N12 ,Gs5 ,v100
 .byte   N12 ,Gs4
 .byte   W12
 .byte   Fs5
 .byte   N12 ,Fs4
 .byte   W12
 .byte   Gs5
 .byte   N12 ,Gs4
 .byte   W12
 .byte   N60 ,Cn5
 .byte   N60 ,Cn4
 .byte   W60
 .byte   PEND 
@  #02 @024   ----------------------------------------
Label_D569EA:
 .byte   N48 ,Bn4 ,v100
 .byte   N48 ,Bn3
 .byte   W48
 .byte   N12 ,Fs5
 .byte   N12 ,Fs4
 .byte   W12
 .byte   N24 ,En5
 .byte   N24 ,En4
 .byte   W24
 .byte   N36 ,Ds5
 .byte   N36 ,Ds4
 .byte   W12
 .byte   PEND 
@  #02 @025   ----------------------------------------
Label_D56A00:
 .byte   W24
 .byte   N24 ,En5 ,v100
 .byte   N24 ,En4
 .byte   W24
 .byte   Gs5
 .byte   N24 ,Gs4
 .byte   W24
 .byte   Fs6
 .byte   N24 ,Fs5
 .byte   W24
 .byte   PEND 
@  #02 @026   ----------------------------------------
 .byte   N84 ,Ds6
 .byte   N84 ,Ds5
 .byte   W84
 .byte   N48 ,Cs6
 .byte   N48 ,Cs5
 .byte   W12
@  #02 @027   ----------------------------------------
 .byte   W36
 .byte   N60 ,Ds6
 .byte   N60 ,Ds5
 .byte   W60
@  #02 @028   ----------------------------------------
 .byte   PATT
  .word Label_D56999
@  #02 @029   ----------------------------------------
 .byte   PATT
  .word Label_D569B2
@  #02 @030   ----------------------------------------
 .byte   PATT
  .word Label_D569C2
@  #02 @031   ----------------------------------------
 .byte   PATT
  .word Label_D569D6
@  #02 @032   ----------------------------------------
 .byte   PATT
  .word Label_D569EA
@  #02 @033   ----------------------------------------
 .byte   PATT
  .word Label_D56A00
@  #02 @034   ----------------------------------------
 .byte   N60 ,Ds6 ,v100
 .byte   N60 ,Ds5
 .byte   W60
 .byte   N12 ,Cs6
 .byte   N12 ,Cs5
 .byte   W12
 .byte   Ds6
 .byte   N12 ,Ds5
 .byte   W12
 .byte   N36 ,En6
 .byte   N36 ,En5
 .byte   W12
@  #02 @035   ----------------------------------------
 .byte   W24
 .byte   N12 ,Ds6
 .byte   N12 ,Ds5
 .byte   W12
 .byte   N24 ,Cs6
 .byte   N24 ,Cs5
 .byte   W24
 .byte   N36 ,Ds6
 .byte   N36 ,Ds5
 .byte   W36
@  #02 @036   ----------------------------------------
 .byte   N96 ,En6
 .byte   N96 ,En5
 .byte   W96
@  #02 @037   ----------------------------------------
 .byte   N36 ,Cs5
 .byte   N36 ,Cs4
 .byte   W36
 .byte   Cn5
 .byte   N36 ,Cn4
 .byte   W36
 .byte   N24 ,Dn5
 .byte   N24 ,Dn4
 .byte   W24
@  #02 @038   ----------------------------------------
 .byte   N36 ,En5
 .byte   N36 ,En4
 .byte   W36
 .byte   N24 ,Gs4
 .byte   N24 ,Gs3
 .byte   W24
 .byte   N12 ,Bn4
 .byte   N12 ,Bn3
 .byte   W12
 .byte   En5
 .byte   N12 ,En4
 .byte   W12
 .byte   Gs5
 .byte   N12 ,Gs4
 .byte   W12
@  #02 @039   ----------------------------------------
 .byte   N36 ,Cn6
 .byte   N36 ,Cn5
 .byte   W36
 .byte   N24 ,Dn6
 .byte   N24 ,Dn5
 .byte   W60
@  #02 @040   ----------------------------------------
 .byte   GOTO
  .word Label_D56920
 .byte   FINE

@**************** Track 3 (Midi-Chn.2) ****************@

song0106_003:
@  #03 @000   ----------------------------------------
 .byte   KEYSH , song0106_key+0
Label_D56A9E:
 .byte   VOICE , 81
 .byte   VOL , 58*song0106_mvl/mxv
 .byte   PAN , c_v-1
 .byte   W12
 .byte   N36 ,En5 ,v127
 .byte   W36
 .byte   Bn4
 .byte   W36
 .byte   N24 ,Gs4
 .byte   W12
@  #03 @001   ----------------------------------------
 .byte   W12
 .byte   N36 ,Fs4
 .byte   W36
 .byte   N60 ,Cs5
 .byte   W48
@  #03 @002   ----------------------------------------
 .byte   W12
 .byte   N36 ,Gn5
 .byte   W36
 .byte   Dn5
 .byte   W36
 .byte   N24 ,Gn4
 .byte   W12
@  #03 @003   ----------------------------------------
 .byte   W12
 .byte   An4
 .byte   W24
 .byte   N12 ,En5
 .byte   W12
 .byte   N24 ,An5
 .byte   W24
 .byte   N12 ,En6
 .byte   W12
 .byte   N24 ,Fs6
 .byte   W12
@  #03 @004   ----------------------------------------
 .byte   W96
@  #03 @005   ----------------------------------------
 .byte   W96
@  #03 @006   ----------------------------------------
 .byte   W96
@  #03 @007   ----------------------------------------
 .byte   W96
@  #03 @008   ----------------------------------------
 .byte   W96
@  #03 @009   ----------------------------------------
 .byte   W96
@  #03 @010   ----------------------------------------
 .byte   W96
@  #03 @011   ----------------------------------------
 .byte   W60
 .byte   N48 ,En5
 .byte   W36
@  #03 @012   ----------------------------------------
 .byte   W12
 .byte   N60 ,Bn5
 .byte   W60
 .byte   N12 ,An5
 .byte   W12
 .byte   Gs5
 .byte   W12
@  #03 @013   ----------------------------------------
 .byte   An5
 .byte   W12
 .byte   Bn5
 .byte   W12
 .byte   En5
 .byte   W12
 .byte   En6
 .byte   W12
 .byte   N84 ,Bn5
 .byte   W48
@  #03 @014   ----------------------------------------
 .byte   W36
 .byte   N12 ,Cs5
 .byte   W12
 .byte   N24 ,En5
 .byte   W24
 .byte   An5
 .byte   W24
@  #03 @015   ----------------------------------------
 .byte   N12 ,Cs6
 .byte   W12
 .byte   N24 ,Bn5
 .byte   W24
 .byte   N12
 .byte   W12
 .byte   N24 ,Fs6
 .byte   W24
 .byte   N12 ,En6
 .byte   W12
 .byte   Ds6
 .byte   W12
@  #03 @016   ----------------------------------------
 .byte   En6
 .byte   W12
 .byte   N60 ,Bn5
 .byte   W60
 .byte   N12 ,An5
 .byte   W12
 .byte   Gs5
 .byte   W12
@  #03 @017   ----------------------------------------
 .byte   An5
 .byte   W12
 .byte   Bn5
 .byte   W12
 .byte   En5
 .byte   W12
 .byte   En6
 .byte   W12
 .byte   N24 ,Bn5
 .byte   W24
 .byte   N12 ,Gs5
 .byte   W12
 .byte   An5
 .byte   W12
@  #03 @018   ----------------------------------------
 .byte   Bn5
 .byte   W12
 .byte   N24 ,Cs6
 .byte   W24
 .byte   N12 ,Ds6
 .byte   W12
 .byte   N24 ,En6
 .byte   W24
 .byte   N12 ,Cs6
 .byte   W12
 .byte   Ds6
 .byte   W12
@  #03 @019   ----------------------------------------
 .byte   En6
 .byte   W12
 .byte   N96 ,Fs6
 .byte   W84
@  #03 @020   ----------------------------------------
 .byte   W96
@  #03 @021   ----------------------------------------
 .byte   W96
@  #03 @022   ----------------------------------------
 .byte   W96
@  #03 @023   ----------------------------------------
 .byte   W96
@  #03 @024   ----------------------------------------
 .byte   W96
@  #03 @025   ----------------------------------------
 .byte   W96
@  #03 @026   ----------------------------------------
 .byte   W96
@  #03 @027   ----------------------------------------
 .byte   W96
@  #03 @028   ----------------------------------------
 .byte   W96
@  #03 @029   ----------------------------------------
 .byte   W96
@  #03 @030   ----------------------------------------
 .byte   W96
@  #03 @031   ----------------------------------------
 .byte   W96
@  #03 @032   ----------------------------------------
 .byte   W96
@  #03 @033   ----------------------------------------
 .byte   W96
@  #03 @034   ----------------------------------------
 .byte   W96
@  #03 @035   ----------------------------------------
 .byte   W96
@  #03 @036   ----------------------------------------
 .byte   W96
@  #03 @037   ----------------------------------------
 .byte   W96
@  #03 @038   ----------------------------------------
 .byte   W96
@  #03 @039   ----------------------------------------
 .byte   W96
@  #03 @040   ----------------------------------------
 .byte   GOTO
  .word Label_D56A9E
 .byte   FINE

@**************** Track 4 (Midi-Chn.3) ****************@

song0106_004:
@  #04 @000   ----------------------------------------
 .byte   KEYSH , song0106_key+0
Label_D56B50:
 .byte   VOICE , 63
 .byte   VOL , 33*song0106_mvl/mxv
 .byte   PAN , c_v-1
 .byte   W96
@  #04 @001   ----------------------------------------
 .byte   W96
@  #04 @002   ----------------------------------------
 .byte   W96
@  #04 @003   ----------------------------------------
 .byte   W96
@  #04 @004   ----------------------------------------
 .byte   W12
 .byte   N24 ,Gs4 ,v100
 .byte   N24 ,Gs5
 .byte   W24
 .byte   N12 ,En4
 .byte   N12 ,En5
 .byte   W12
 .byte   N84 ,Bn3
 .byte   N84 ,Bn4
 .byte   W48
@  #04 @005   ----------------------------------------
 .byte   W36
 .byte   N24 ,Gs3
 .byte   N24 ,Gs4
 .byte   W24
 .byte   N16 ,Bn3
 .byte   N16 ,Bn4
 .byte   W16
 .byte   En4
 .byte   N16 ,En5
 .byte   W16
 .byte   Gs4
 .byte   N16 ,Gs5
 .byte   W04
@  #04 @006   ----------------------------------------
 .byte   W12
 .byte   N36 ,Gs4
 .byte   N36 ,Gs5
 .byte   W36
 .byte   TIE ,Fs4
 .byte   TIE ,Fs5
 .byte   W48
@  #04 @007   ----------------------------------------
 .byte   W60
 .byte   EOT
 .byte   EOT
 .byte   Fs4
 .byte   N48 ,An4
 .byte   N48 ,An5
 .byte   W36
@  #04 @008   ----------------------------------------
 .byte   W12
 .byte   N24 ,Gs5
 .byte   N24 ,Gs4
 .byte   W24
 .byte   N12 ,En5
 .byte   N12 ,En4
 .byte   W12
 .byte   N84 ,Bn4
 .byte   N84 ,Bn3
 .byte   W48
@  #04 @009   ----------------------------------------
 .byte   W36
 .byte   N24 ,Gs4
 .byte   N24 ,Gs3
 .byte   W24
 .byte   N16 ,Bn4
 .byte   N16 ,Bn3
 .byte   W16
 .byte   En5
 .byte   N16 ,En4
 .byte   W16
 .byte   Cs6
 .byte   N16 ,Cs5
 .byte   W04
@  #04 @010   ----------------------------------------
 .byte   W12
 .byte   N36 ,Cs6
 .byte   N36 ,Cs5
 .byte   W36
 .byte   TIE ,Bn5
 .byte   TIE ,Bn4
 .byte   W48
@  #04 @011   ----------------------------------------
 .byte   W60
 .byte   EOT
 .byte   EOT
 .byte   Bn5
 .byte   W36
@  #04 @012   ----------------------------------------
 .byte   W96
@  #04 @013   ----------------------------------------
 .byte   W96
@  #04 @014   ----------------------------------------
 .byte   W96
@  #04 @015   ----------------------------------------
 .byte   W96
@  #04 @016   ----------------------------------------
 .byte   W96
@  #04 @017   ----------------------------------------
 .byte   W96
@  #04 @018   ----------------------------------------
 .byte   W96
@  #04 @019   ----------------------------------------
 .byte   W96
@  #04 @020   ----------------------------------------
Label_D56BCD:
 .byte   W12
 .byte   N12 ,Ds5 ,v100
 .byte   N12 ,Ds4
 .byte   W12
 .byte   En5
 .byte   N12 ,En4
 .byte   W12
 .byte   Fs5
 .byte   N12 ,Fs4
 .byte   W12
 .byte   N24 ,Bn4
 .byte   N24 ,Bn3
 .byte   W24
 .byte   N60 ,Bn5
 .byte   N60 ,Bn4
 .byte   W24
 .byte   PEND 
@  #04 @021   ----------------------------------------
Label_D56BE7:
 .byte   W36
 .byte   N24 ,An5 ,v100
 .byte   N24 ,An4
 .byte   W24
 .byte   Gs5
 .byte   N24 ,Gs4
 .byte   W24
 .byte   Fs5
 .byte   N24 ,Fs4
 .byte   W12
 .byte   PEND 
@  #04 @022   ----------------------------------------
Label_D56BF7:
 .byte   W12
 .byte   N12 ,Gs5 ,v100
 .byte   N12 ,Gs4
 .byte   W12
 .byte   Fs5
 .byte   N12 ,Fs4
 .byte   W12
 .byte   Gs5
 .byte   N12 ,Gs4
 .byte   W12
 .byte   N60 ,Cs5
 .byte   N60 ,Cs4
 .byte   W48
 .byte   PEND 
@  #04 @023   ----------------------------------------
Label_D56C0C:
 .byte   W12
 .byte   N12 ,Gs5 ,v100
 .byte   N12 ,Gs4
 .byte   W12
 .byte   Fs5
 .byte   N12 ,Fs4
 .byte   W12
 .byte   Gs5
 .byte   N12 ,Gs4
 .byte   W12
 .byte   N60 ,Cn5
 .byte   N60 ,Cn4
 .byte   W48
 .byte   PEND 
@  #04 @024   ----------------------------------------
Label_D56C21:
 .byte   W12
 .byte   N48 ,Bn4 ,v100
 .byte   N48 ,Bn3
 .byte   W48
 .byte   N12 ,Fs5
 .byte   N12 ,Fs4
 .byte   W12
 .byte   N24 ,En5
 .byte   N24 ,En4
 .byte   W24
 .byte   PEND 
@  #04 @025   ----------------------------------------
Label_D56C33:
 .byte   N36 ,Ds5 ,v100
 .byte   N36 ,Ds4
 .byte   W36
 .byte   N24 ,En5
 .byte   N24 ,En4
 .byte   W24
 .byte   Gs5
 .byte   N24 ,Gs4
 .byte   W24
 .byte   Fs6
 .byte   N24 ,Fs5
 .byte   W12
 .byte   PEND 
@  #04 @026   ----------------------------------------
 .byte   W12
 .byte   N84 ,Ds6
 .byte   N84 ,Ds5
 .byte   W84
@  #04 @027   ----------------------------------------
 .byte   N48 ,Cs6
 .byte   N48 ,Cs5
 .byte   W48
 .byte   N60 ,Ds6
 .byte   N60 ,Ds5
 .byte   W48
@  #04 @028   ----------------------------------------
 .byte   PATT
  .word Label_D56BCD
@  #04 @029   ----------------------------------------
 .byte   PATT
  .word Label_D56BE7
@  #04 @030   ----------------------------------------
 .byte   PATT
  .word Label_D56BF7
@  #04 @031   ----------------------------------------
 .byte   PATT
  .word Label_D56C0C
@  #04 @032   ----------------------------------------
 .byte   PATT
  .word Label_D56C21
@  #04 @033   ----------------------------------------
 .byte   PATT
  .word Label_D56C33
@  #04 @034   ----------------------------------------
 .byte   W12
 .byte   N60 ,Ds6 ,v100
 .byte   N60 ,Ds5
 .byte   W60
 .byte   N12 ,Cs6
 .byte   N12 ,Cs5
 .byte   W12
 .byte   Ds6
 .byte   N12 ,Ds5
 .byte   W12
@  #04 @035   ----------------------------------------
 .byte   N36 ,En6
 .byte   N36 ,En5
 .byte   W36
 .byte   N12 ,Ds6
 .byte   N12 ,Ds5
 .byte   W12
 .byte   N24 ,Cs6
 .byte   N24 ,Cs5
 .byte   W24
 .byte   N36 ,Ds6
 .byte   N36 ,Ds5
 .byte   W24
@  #04 @036   ----------------------------------------
 .byte   W12
 .byte   N96 ,En6
 .byte   N96 ,En5
 .byte   W84
@  #04 @037   ----------------------------------------
 .byte   W12
 .byte   N36 ,Cs5
 .byte   N36 ,Cs4
 .byte   W36
 .byte   Cn5
 .byte   N36 ,Cn4
 .byte   W36
 .byte   N24 ,Dn5
 .byte   N24 ,Dn4
 .byte   W12
@  #04 @038   ----------------------------------------
 .byte   W12
 .byte   N36 ,En5
 .byte   N36 ,En4
 .byte   W36
 .byte   N24 ,Gs4
 .byte   N24 ,Gs3
 .byte   W24
 .byte   N12 ,Bn4
 .byte   N12 ,Bn3
 .byte   W12
 .byte   En5
 .byte   N12 ,En4
 .byte   W12
@  #04 @039   ----------------------------------------
 .byte   Gs5
 .byte   N12 ,Gs4
 .byte   W12
 .byte   N36 ,Cn6
 .byte   N36 ,Cn5
 .byte   W36
 .byte   N24 ,Dn6
 .byte   N24 ,Dn5
 .byte   W48
@  #04 @040   ----------------------------------------
 .byte   GOTO
  .word Label_D56B50
 .byte   FINE

@**************** Track 5 (Midi-Chn.4) ****************@

song0106_005:
@  #05 @000   ----------------------------------------
 .byte   KEYSH , song0106_key+0
Label_D56CD8:
 .byte   VOICE , 50
 .byte   VOL , 38*song0106_mvl/mxv
 .byte   PAN , c_v-28
 .byte   N08 ,Bn3 ,v100
 .byte   N08 ,Bn2
 .byte   W08
 .byte   En4
 .byte   N08 ,En3
 .byte   W08
 .byte   Fs4
 .byte   N08 ,Fs3
 .byte   W08
 .byte   Bn4
 .byte   N08 ,Bn3
 .byte   W08
 .byte   En5
 .byte   N08 ,En4
 .byte   W08
 .byte   Fs5
 .byte   N08 ,Fs4
 .byte   W08
 .byte   Bn5
 .byte   N08 ,Bn4
 .byte   W08
 .byte   Fs5
 .byte   N08 ,Fs4
 .byte   W08
 .byte   En5
 .byte   N08 ,En4
 .byte   W08
 .byte   Bn4
 .byte   N08 ,Bn3
 .byte   W08
 .byte   Fs4
 .byte   N08 ,Fs3
 .byte   W08
 .byte   En4
 .byte   N08 ,En3
 .byte   W08
@  #05 @001   ----------------------------------------
 .byte   Cs4
 .byte   N08 ,Cs3
 .byte   W08
 .byte   Fs4
 .byte   N08 ,Fs3
 .byte   W08
 .byte   Gs4
 .byte   N08 ,Gs3
 .byte   W08
 .byte   Cs5
 .byte   N08 ,Cs4
 .byte   W08
 .byte   Fs5
 .byte   N08 ,Fs4
 .byte   W08
 .byte   Gs5
 .byte   N08 ,Gs4
 .byte   W08
 .byte   Cs6
 .byte   N08 ,Cs5
 .byte   W08
 .byte   Gs5
 .byte   N08 ,Gs4
 .byte   W08
 .byte   Fs5
 .byte   N08 ,Fs4
 .byte   W08
 .byte   Cs5
 .byte   N08 ,Cs4
 .byte   W08
 .byte   Gs4
 .byte   N08 ,Gs3
 .byte   W08
 .byte   Fs4
 .byte   N08 ,Fs3
 .byte   W08
@  #05 @002   ----------------------------------------
 .byte   Dn4
 .byte   N08 ,Dn3
 .byte   W08
 .byte   Gn4
 .byte   N08 ,Gn3
 .byte   W08
 .byte   An4
 .byte   N08 ,An3
 .byte   W08
 .byte   Dn5
 .byte   N08 ,Dn4
 .byte   W08
 .byte   Gn5
 .byte   N08 ,Gn4
 .byte   W08
 .byte   An5
 .byte   N08 ,An4
 .byte   W08
 .byte   Dn6
 .byte   N08 ,Dn5
 .byte   W08
 .byte   An5
 .byte   N08 ,An4
 .byte   W08
 .byte   Gn5
 .byte   N08 ,Gn4
 .byte   W08
 .byte   Dn5
 .byte   N08 ,Dn4
 .byte   W08
 .byte   An4
 .byte   N08 ,An3
 .byte   W08
 .byte   Gn4
 .byte   N08 ,Gn3
 .byte   W08
@  #05 @003   ----------------------------------------
 .byte   En4
 .byte   N08 ,En3
 .byte   W08
 .byte   An4
 .byte   N08 ,An3
 .byte   W08
 .byte   Bn4
 .byte   N08 ,Bn3
 .byte   W08
 .byte   En5
 .byte   N08 ,En4
 .byte   W08
 .byte   An5
 .byte   N08 ,An4
 .byte   W08
 .byte   En6
 .byte   N08 ,En5
 .byte   W08
 .byte   Bn5
 .byte   N08 ,Bn4
 .byte   W08
 .byte   An5
 .byte   N08 ,An4
 .byte   W08
 .byte   En5
 .byte   N08 ,En4
 .byte   W08
 .byte   Bn4
 .byte   N08 ,Bn3
 .byte   W08
 .byte   An4
 .byte   N08 ,An3
 .byte   W08
 .byte   En4
 .byte   N08 ,En3
 .byte   W08
@  #05 @004   ----------------------------------------
 .byte   W96
@  #05 @005   ----------------------------------------
 .byte   W96
@  #05 @006   ----------------------------------------
 .byte   W96
@  #05 @007   ----------------------------------------
 .byte   W96
@  #05 @008   ----------------------------------------
 .byte   W96
@  #05 @009   ----------------------------------------
 .byte   W96
@  #05 @010   ----------------------------------------
 .byte   W96
@  #05 @011   ----------------------------------------
 .byte   W96
@  #05 @012   ----------------------------------------
 .byte   W96
@  #05 @013   ----------------------------------------
 .byte   W96
@  #05 @014   ----------------------------------------
 .byte   W96
@  #05 @015   ----------------------------------------
 .byte   W96
@  #05 @016   ----------------------------------------
 .byte   W96
@  #05 @017   ----------------------------------------
 .byte   W96
@  #05 @018   ----------------------------------------
 .byte   W96
@  #05 @019   ----------------------------------------
 .byte   W96
@  #05 @020   ----------------------------------------
 .byte   W96
@  #05 @021   ----------------------------------------
 .byte   W96
@  #05 @022   ----------------------------------------
 .byte   W96
@  #05 @023   ----------------------------------------
 .byte   W96
@  #05 @024   ----------------------------------------
 .byte   W96
@  #05 @025   ----------------------------------------
 .byte   W96
@  #05 @026   ----------------------------------------
 .byte   W96
@  #05 @027   ----------------------------------------
 .byte   W96
@  #05 @028   ----------------------------------------
 .byte   W96
@  #05 @029   ----------------------------------------
 .byte   W96
@  #05 @030   ----------------------------------------
 .byte   W96
@  #05 @031   ----------------------------------------
 .byte   W96
@  #05 @032   ----------------------------------------
 .byte   W96
@  #05 @033   ----------------------------------------
 .byte   W96
@  #05 @034   ----------------------------------------
 .byte   W96
@  #05 @035   ----------------------------------------
 .byte   W96
@  #05 @036   ----------------------------------------
 .byte   W96
@  #05 @037   ----------------------------------------
 .byte   W96
@  #05 @038   ----------------------------------------
 .byte   W96
@  #05 @039   ----------------------------------------
 .byte   W96
@  #05 @040   ----------------------------------------
 .byte   GOTO
  .word Label_D56CD8
 .byte   FINE

@**************** Track 6 (Midi-Chn.5) ****************@

song0106_006:
@  #06 @000   ----------------------------------------
 .byte   KEYSH , song0106_key+0
Label_D56DCC:
 .byte   VOICE , 48
 .byte   VOL , 70*song0106_mvl/mxv
 .byte   PAN , c_v-1
 .byte   W96
@  #06 @001   ----------------------------------------
 .byte   W96
@  #06 @002   ----------------------------------------
 .byte   W96
@  #06 @003   ----------------------------------------
 .byte   W96
@  #06 @004   ----------------------------------------
Label_D56DD6:
 .byte   N48 ,Bn3 ,v100
 .byte   W48
 .byte   Bn2
 .byte   W48
 .byte   PEND 
@  #06 @005   ----------------------------------------
Label_D56DDD:
 .byte   N48 ,En3 ,v100
 .byte   W48
 .byte   Bn3
 .byte   W48
 .byte   PEND 
@  #06 @006   ----------------------------------------
Label_D56DE4:
 .byte   N48 ,An3 ,v100
 .byte   W48
 .byte   Dn3
 .byte   W48
 .byte   PEND 
@  #06 @007   ----------------------------------------
 .byte   Cs4
 .byte   W48
 .byte   Dn4
 .byte   W48
@  #06 @008   ----------------------------------------
 .byte   PATT
  .word Label_D56DD6
@  #06 @009   ----------------------------------------
 .byte   PATT
  .word Label_D56DDD
@  #06 @010   ----------------------------------------
 .byte   PATT
  .word Label_D56DE4
@  #06 @011   ----------------------------------------
 .byte   N48 ,Cs4 ,v100
 .byte   W48
 .byte   Cn4
 .byte   W48
@  #06 @012   ----------------------------------------
 .byte   W96
@  #06 @013   ----------------------------------------
 .byte   W96
@  #06 @014   ----------------------------------------
 .byte   W96
@  #06 @015   ----------------------------------------
 .byte   W96
@  #06 @016   ----------------------------------------
 .byte   W96
@  #06 @017   ----------------------------------------
 .byte   W96
@  #06 @018   ----------------------------------------
 .byte   N24 ,Bn2
 .byte   W24
 .byte   En3
 .byte   W24
 .byte   An3
 .byte   W24
 .byte   Cs4
 .byte   W24
@  #06 @019   ----------------------------------------
 .byte   En4
 .byte   W24
 .byte   N12 ,Fs4
 .byte   W12
 .byte   Gs4
 .byte   W12
 .byte   An4
 .byte   W12
 .byte   Bn4
 .byte   W12
 .byte   Cs5
 .byte   W12
 .byte   Ds5
 .byte   W12
@  #06 @020   ----------------------------------------
 .byte   N96 ,En5
 .byte   W96
@  #06 @021   ----------------------------------------
Label_D56E25:
 .byte   N24 ,Fs3 ,v100
 .byte   W24
 .byte   Bn3
 .byte   W24
 .byte   Cs4
 .byte   W24
 .byte   Ds4
 .byte   W24
 .byte   PEND 
@  #06 @022   ----------------------------------------
Label_D56E30:
 .byte   N12 ,En4 ,v100
 .byte   W12
 .byte   Ds4
 .byte   W12
 .byte   En4
 .byte   W12
 .byte   N24 ,An3
 .byte   W60
 .byte   PEND 
@  #06 @023   ----------------------------------------
 .byte   PATT
  .word Label_D56E30
@  #06 @024   ----------------------------------------
Label_D56E41:
 .byte   N48 ,Fs3 ,v100
 .byte   W48
 .byte   N36 ,En3
 .byte   W36
 .byte   N60 ,Bn2
 .byte   W12
 .byte   PEND 
@  #06 @025   ----------------------------------------
Label_D56E4C:
 .byte   W48
 .byte   N48 ,En3 ,v100
 .byte   W48
 .byte   PEND 
@  #06 @026   ----------------------------------------
Label_D56E52:
 .byte   N48 ,Gs3 ,v100
 .byte   W48
 .byte   N36 ,Cs3
 .byte   W36
 .byte   N24 ,Cs4
 .byte   W12
 .byte   PEND 
@  #06 @027   ----------------------------------------
Label_D56E5D:
 .byte   W12
 .byte   N12 ,Ds4 ,v100
 .byte   W12
 .byte   En4
 .byte   W12
 .byte   N24 ,Fs4
 .byte   W24
 .byte   N12 ,Gs4
 .byte   W12
 .byte   An4
 .byte   W12
 .byte   Bn4
 .byte   W12
 .byte   PEND 
@  #06 @028   ----------------------------------------
 .byte   N96 ,En5
 .byte   W96
@  #06 @029   ----------------------------------------
 .byte   PATT
  .word Label_D56E25
@  #06 @030   ----------------------------------------
 .byte   PATT
  .word Label_D56E30
@  #06 @031   ----------------------------------------
 .byte   PATT
  .word Label_D56E30
@  #06 @032   ----------------------------------------
 .byte   PATT
  .word Label_D56E41
@  #06 @033   ----------------------------------------
 .byte   PATT
  .word Label_D56E4C
@  #06 @034   ----------------------------------------
 .byte   PATT
  .word Label_D56E52
@  #06 @035   ----------------------------------------
 .byte   PATT
  .word Label_D56E5D
@  #06 @036   ----------------------------------------
 .byte   W96
@  #06 @037   ----------------------------------------
 .byte   W96
@  #06 @038   ----------------------------------------
 .byte   W96
@  #06 @039   ----------------------------------------
 .byte   W96
@  #06 @040   ----------------------------------------
 .byte   GOTO
  .word Label_D56DCC
 .byte   FINE

@**************** Track 7 (Midi-Chn.6) ****************@

song0106_007:
@  #07 @000   ----------------------------------------
 .byte   KEYSH , song0106_key+0
Label_D56EA1:
 .byte   VOICE , 80
 .byte   VOL , 55*song0106_mvl/mxv
 .byte   PAN , c_v-1
 .byte   W96
@  #07 @001   ----------------------------------------
 .byte   W96
@  #07 @002   ----------------------------------------
 .byte   W96
@  #07 @003   ----------------------------------------
 .byte   W96
@  #07 @004   ----------------------------------------
 .byte   W96
@  #07 @005   ----------------------------------------
 .byte   W96
@  #07 @006   ----------------------------------------
 .byte   W96
@  #07 @007   ----------------------------------------
 .byte   W96
@  #07 @008   ----------------------------------------
 .byte   W96
@  #07 @009   ----------------------------------------
 .byte   W96
@  #07 @010   ----------------------------------------
 .byte   W96
@  #07 @011   ----------------------------------------
 .byte   W96
@  #07 @012   ----------------------------------------
Label_D56EB3:
 .byte   N06 ,En2 ,v100
 .byte   W12
 .byte   Bn1
 .byte   W12
 .byte   En2
 .byte   W12
 .byte   En3
 .byte   W12
 .byte   Bn2
 .byte   W12
 .byte   Fs3
 .byte   W12
 .byte   En3
 .byte   W12
 .byte   Bn2
 .byte   W12
 .byte   PEND 
@  #07 @013   ----------------------------------------
 .byte   PATT
  .word Label_D56EB3
@  #07 @014   ----------------------------------------
 .byte   PATT
  .word Label_D56EB3
@  #07 @015   ----------------------------------------
 .byte   PATT
  .word Label_D56EB3
@  #07 @016   ----------------------------------------
 .byte   PATT
  .word Label_D56EB3
@  #07 @017   ----------------------------------------
 .byte   PATT
  .word Label_D56EB3
@  #07 @018   ----------------------------------------
 .byte   W96
@  #07 @019   ----------------------------------------
 .byte   W96
@  #07 @020   ----------------------------------------
 .byte   W96
@  #07 @021   ----------------------------------------
 .byte   W96
@  #07 @022   ----------------------------------------
 .byte   W96
@  #07 @023   ----------------------------------------
 .byte   W96
@  #07 @024   ----------------------------------------
 .byte   W96
@  #07 @025   ----------------------------------------
 .byte   W96
@  #07 @026   ----------------------------------------
 .byte   W96
@  #07 @027   ----------------------------------------
 .byte   W96
@  #07 @028   ----------------------------------------
 .byte   W96
@  #07 @029   ----------------------------------------
 .byte   W96
@  #07 @030   ----------------------------------------
 .byte   W96
@  #07 @031   ----------------------------------------
 .byte   W96
@  #07 @032   ----------------------------------------
 .byte   W96
@  #07 @033   ----------------------------------------
 .byte   W96
@  #07 @034   ----------------------------------------
 .byte   W96
@  #07 @035   ----------------------------------------
 .byte   W96
@  #07 @036   ----------------------------------------
 .byte   W96
@  #07 @037   ----------------------------------------
 .byte   W96
@  #07 @038   ----------------------------------------
 .byte   W96
@  #07 @039   ----------------------------------------
 .byte   W96
@  #07 @040   ----------------------------------------
 .byte   GOTO
  .word Label_D56EA1
 .byte   FINE

@**************** Track 8 (Midi-Chn.7) ****************@

song0106_008:
@  #08 @000   ----------------------------------------
 .byte   KEYSH , song0106_key+0
Label_D56EFD:
 .byte   VOICE , 100
 .byte   VOL , 71*song0106_mvl/mxv
 .byte   PAN , c_v-1
 .byte   W96
@  #08 @001   ----------------------------------------
 .byte   W96
@  #08 @002   ----------------------------------------
 .byte   W96
@  #08 @003   ----------------------------------------
 .byte   W96
@  #08 @004   ----------------------------------------
 .byte   W96
@  #08 @005   ----------------------------------------
 .byte   W96
@  #08 @006   ----------------------------------------
 .byte   W96
@  #08 @007   ----------------------------------------
 .byte   W96
@  #08 @008   ----------------------------------------
 .byte   W96
@  #08 @009   ----------------------------------------
 .byte   W96
@  #08 @010   ----------------------------------------
 .byte   W96
@  #08 @011   ----------------------------------------
 .byte   W96
@  #08 @012   ----------------------------------------
 .byte   W96
@  #08 @013   ----------------------------------------
 .byte   W96
@  #08 @014   ----------------------------------------
 .byte   W96
@  #08 @015   ----------------------------------------
 .byte   W96
@  #08 @016   ----------------------------------------
 .byte   W96
@  #08 @017   ----------------------------------------
 .byte   W96
@  #08 @018   ----------------------------------------
 .byte   W96
@  #08 @019   ----------------------------------------
 .byte   W96
@  #08 @020   ----------------------------------------
 .byte   W96
@  #08 @021   ----------------------------------------
 .byte   W96
@  #08 @022   ----------------------------------------
Label_D56F19:
 .byte   W60
 .byte   N12 ,En3 ,v100
 .byte   W12
 .byte   An3
 .byte   W12
 .byte   En4
 .byte   W12
 .byte   PEND 
@  #08 @023   ----------------------------------------
 .byte   PATT
  .word Label_D56F19
@  #08 @024   ----------------------------------------
 .byte   W96
@  #08 @025   ----------------------------------------
 .byte   W96
@  #08 @026   ----------------------------------------
 .byte   W96
@  #08 @027   ----------------------------------------
 .byte   W96
@  #08 @028   ----------------------------------------
 .byte   W96
@  #08 @029   ----------------------------------------
 .byte   W96
@  #08 @030   ----------------------------------------
 .byte   PATT
  .word Label_D56F19
@  #08 @031   ----------------------------------------
 .byte   PATT
  .word Label_D56F19
@  #08 @032   ----------------------------------------
 .byte   W96
@  #08 @033   ----------------------------------------
 .byte   W96
@  #08 @034   ----------------------------------------
 .byte   W96
@  #08 @035   ----------------------------------------
 .byte   W96
@  #08 @036   ----------------------------------------
 .byte   W96
@  #08 @037   ----------------------------------------
 .byte   W96
@  #08 @038   ----------------------------------------
 .byte   W96
@  #08 @039   ----------------------------------------
 .byte   W96
@  #08 @040   ----------------------------------------
 .byte   GOTO
  .word Label_D56EFD
 .byte   FINE

@**************** Track 9 (Midi-Chn.8) ****************@

song0106_009:
@  #09 @000   ----------------------------------------
 .byte   KEYSH , song0106_key+0
Label_D56F48:
 .byte   VOICE , 61
 .byte   VOL , 69*song0106_mvl/mxv
 .byte   PAN , c_v+32
 .byte   W96
@  #09 @001   ----------------------------------------
 .byte   W96
@  #09 @002   ----------------------------------------
 .byte   W96
@  #09 @003   ----------------------------------------
 .byte   W96
@  #09 @004   ----------------------------------------
 .byte   W96
@  #09 @005   ----------------------------------------
 .byte   W96
@  #09 @006   ----------------------------------------
 .byte   W96
@  #09 @007   ----------------------------------------
 .byte   W96
@  #09 @008   ----------------------------------------
 .byte   W96
@  #09 @009   ----------------------------------------
 .byte   W96
@  #09 @010   ----------------------------------------
 .byte   W96
@  #09 @011   ----------------------------------------
 .byte   W96
@  #09 @012   ----------------------------------------
 .byte   W96
@  #09 @013   ----------------------------------------
 .byte   W96
@  #09 @014   ----------------------------------------
 .byte   W96
@  #09 @015   ----------------------------------------
 .byte   W96
@  #09 @016   ----------------------------------------
 .byte   W96
@  #09 @017   ----------------------------------------
 .byte   W96
@  #09 @018   ----------------------------------------
 .byte   W96
@  #09 @019   ----------------------------------------
 .byte   W96
@  #09 @020   ----------------------------------------
 .byte   W96
@  #09 @021   ----------------------------------------
 .byte   W96
@  #09 @022   ----------------------------------------
 .byte   W96
@  #09 @023   ----------------------------------------
 .byte   W96
@  #09 @024   ----------------------------------------
 .byte   W96
@  #09 @025   ----------------------------------------
 .byte   W96
@  #09 @026   ----------------------------------------
 .byte   W96
@  #09 @027   ----------------------------------------
 .byte   W96
@  #09 @028   ----------------------------------------
 .byte   W96
@  #09 @029   ----------------------------------------
 .byte   W96
@  #09 @030   ----------------------------------------
 .byte   W96
@  #09 @031   ----------------------------------------
 .byte   W96
@  #09 @032   ----------------------------------------
 .byte   W96
@  #09 @033   ----------------------------------------
 .byte   W96
@  #09 @034   ----------------------------------------
 .byte   W96
@  #09 @035   ----------------------------------------
 .byte   W96
@  #09 @036   ----------------------------------------
 .byte   N36 ,Gs4 ,v100
 .byte   N36 ,Gs3
 .byte   W36
 .byte   N60 ,Fs4
 .byte   N60 ,Fs3
 .byte   W60
@  #09 @037   ----------------------------------------
 .byte   N36 ,Cs4
 .byte   N36 ,Cs3
 .byte   W36
 .byte   En4
 .byte   N36 ,En3
 .byte   W36
 .byte   N24 ,Fs4
 .byte   N24 ,Fs3
 .byte   W24
@  #09 @038   ----------------------------------------
 .byte   N36 ,Gs4
 .byte   N36 ,Gs3
 .byte   W36
 .byte   N24 ,Bn3
 .byte   N24 ,Bn2
 .byte   W24
 .byte   N12 ,En4
 .byte   N12 ,En3
 .byte   W12
 .byte   Gs4
 .byte   N12 ,Gs3
 .byte   W12
 .byte   Bn4
 .byte   N12 ,Bn3
 .byte   W12
@  #09 @039   ----------------------------------------
 .byte   N36 ,En5
 .byte   N36 ,En4
 .byte   W36
 .byte   N24 ,Fs5
 .byte   N24 ,Fs4
 .byte   W60
@  #09 @040   ----------------------------------------
 .byte   GOTO
  .word Label_D56F48
 .byte   FINE

@**************** Track 10 (Midi-Chn.9) ****************@

song0106_010:
@  #10 @000   ----------------------------------------
 .byte   KEYSH , song0106_key+0
Label_D56FB4:
 .byte   VOICE , 52
 .byte   VOL , 51*song0106_mvl/mxv
 .byte   PAN , c_v+16
 .byte   N96 ,Bn2 ,v100
 .byte   N96 ,En3
 .byte   W96
@  #10 @001   ----------------------------------------
Label_D56FC0:
 .byte   N96 ,Cs3 ,v100
 .byte   N96 ,Fs3
 .byte   W96
 .byte   PEND 
@  #10 @002   ----------------------------------------
 .byte   Dn3
 .byte   N96 ,Gn3
 .byte   W96
@  #10 @003   ----------------------------------------
 .byte   N36 ,En3
 .byte   N36 ,An3
 .byte   W36
 .byte   Gn3
 .byte   N36 ,Cn4
 .byte   W36
 .byte   N24 ,Dn4
 .byte   N24 ,An3
 .byte   W24
@  #10 @004   ----------------------------------------
 .byte   W96
@  #10 @005   ----------------------------------------
 .byte   W96
@  #10 @006   ----------------------------------------
 .byte   W96
@  #10 @007   ----------------------------------------
 .byte   W96
@  #10 @008   ----------------------------------------
 .byte   W96
@  #10 @009   ----------------------------------------
 .byte   W96
@  #10 @010   ----------------------------------------
 .byte   W96
@  #10 @011   ----------------------------------------
 .byte   W96
@  #10 @012   ----------------------------------------
Label_D56FE1:
 .byte   N96 ,En3 ,v100
 .byte   N96 ,An3
 .byte   W96
 .byte   PEND 
@  #10 @013   ----------------------------------------
Label_D56FE8:
 .byte   N96 ,Bn2 ,v100
 .byte   N96 ,En3
 .byte   W96
 .byte   PEND 
@  #10 @014   ----------------------------------------
 .byte   En2
 .byte   N96 ,An2
 .byte   W96
@  #10 @015   ----------------------------------------
Label_D56FF3:
 .byte   N96 ,En3 ,v100
 .byte   N96 ,Bn2
 .byte   W96
 .byte   PEND 
@  #10 @016   ----------------------------------------
 .byte   PATT
  .word Label_D56FE1
@  #10 @017   ----------------------------------------
 .byte   PATT
  .word Label_D56FF3
@  #10 @018   ----------------------------------------
 .byte   N24 ,En2 ,v100
 .byte   N24 ,An2
 .byte   W24
 .byte   Fs2
 .byte   N24 ,Bn2
 .byte   W24
 .byte   Bn2
 .byte   N24 ,En3
 .byte   W24
 .byte   Cs3
 .byte   N24 ,Fs3
 .byte   W24
@  #10 @019   ----------------------------------------
 .byte   N48 ,En3
 .byte   N48 ,An3
 .byte   W48
 .byte   Bn3
 .byte   N48 ,En4
 .byte   W48
@  #10 @020   ----------------------------------------
Label_D5701F:
 .byte   N96 ,Fs2 ,v100
 .byte   N96 ,Bn2
 .byte   W96
 .byte   PEND 
@  #10 @021   ----------------------------------------
 .byte   PATT
  .word Label_D56FE8
@  #10 @022   ----------------------------------------
 .byte   PATT
  .word Label_D56FC0
@  #10 @023   ----------------------------------------
Label_D57030:
 .byte   N96 ,An3 ,v100
 .byte   N96 ,En3
 .byte   W96
 .byte   PEND 
@  #10 @024   ----------------------------------------
 .byte   W96
@  #10 @025   ----------------------------------------
 .byte   W96
@  #10 @026   ----------------------------------------
 .byte   W96
@  #10 @027   ----------------------------------------
 .byte   W96
@  #10 @028   ----------------------------------------
 .byte   PATT
  .word Label_D5701F
@  #10 @029   ----------------------------------------
 .byte   PATT
  .word Label_D56FE8
@  #10 @030   ----------------------------------------
 .byte   PATT
  .word Label_D56FC0
@  #10 @031   ----------------------------------------
 .byte   PATT
  .word Label_D57030
@  #10 @032   ----------------------------------------
 .byte   W96
@  #10 @033   ----------------------------------------
 .byte   W96
@  #10 @034   ----------------------------------------
 .byte   W96
@  #10 @035   ----------------------------------------
 .byte   W96
@  #10 @036   ----------------------------------------
 .byte   N36 ,Bn3 ,v100
 .byte   N36 ,En4
 .byte   W36
 .byte   N60 ,An3
 .byte   N60 ,Dn4
 .byte   W60
@  #10 @037   ----------------------------------------
 .byte   N36 ,En3
 .byte   N36 ,An3
 .byte   W36
 .byte   Gn3
 .byte   N36 ,Cn4
 .byte   W36
 .byte   N24 ,An3
 .byte   N24 ,Dn4
 .byte   W24
@  #10 @038   ----------------------------------------
 .byte   N36 ,Bn3
 .byte   N36 ,En4
 .byte   W36
 .byte   Fs3
 .byte   N36 ,Bn3
 .byte   W36
 .byte   N24 ,Bn2
 .byte   N24 ,En3
 .byte   W24
@  #10 @039   ----------------------------------------
 .byte   N36 ,Gn3
 .byte   N36 ,Cn4
 .byte   W36
 .byte   N24 ,An3
 .byte   N24 ,Dn4
 .byte   W60
@  #10 @040   ----------------------------------------
 .byte   GOTO
  .word Label_D56FB4
 .byte   FINE

@**************** Track 11 (Midi-Chn.10) ****************@

song0106_011:
@  #11 @000   ----------------------------------------
 .byte   KEYSH , song0106_key+0
Label_D5708C:
 .byte   VOICE , 48
 .byte   VOL , 70*song0106_mvl/mxv
 .byte   PAN , c_v-16
 .byte   W96
@  #11 @001   ----------------------------------------
 .byte   W96
@  #11 @002   ----------------------------------------
 .byte   W96
@  #11 @003   ----------------------------------------
 .byte   W96
@  #11 @004   ----------------------------------------
Label_D57096:
 .byte   N48 ,En3 ,v100
 .byte   W48
 .byte   Gs2
 .byte   W48
 .byte   PEND 
@  #11 @005   ----------------------------------------
Label_D5709D:
 .byte   N48 ,Bn2 ,v100
 .byte   W48
 .byte   En3
 .byte   W48
 .byte   PEND 
@  #11 @006   ----------------------------------------
Label_D570A4:
 .byte   N48 ,Dn3 ,v100
 .byte   W48
 .byte   An2
 .byte   W48
 .byte   PEND 
@  #11 @007   ----------------------------------------
Label_D570AB:
 .byte   N48 ,Fs3 ,v100
 .byte   W48
 .byte   An3
 .byte   W48
 .byte   PEND 
@  #11 @008   ----------------------------------------
 .byte   PATT
  .word Label_D57096
@  #11 @009   ----------------------------------------
 .byte   PATT
  .word Label_D5709D
@  #11 @010   ----------------------------------------
 .byte   PATT
  .word Label_D570A4
@  #11 @011   ----------------------------------------
 .byte   PATT
  .word Label_D570AB
@  #11 @012   ----------------------------------------
 .byte   W96
@  #11 @013   ----------------------------------------
 .byte   W96
@  #11 @014   ----------------------------------------
 .byte   W96
@  #11 @015   ----------------------------------------
 .byte   W96
@  #11 @016   ----------------------------------------
 .byte   W96
@  #11 @017   ----------------------------------------
 .byte   W96
@  #11 @018   ----------------------------------------
 .byte   W96
@  #11 @019   ----------------------------------------
 .byte   W96
@  #11 @020   ----------------------------------------
 .byte   W96
@  #11 @021   ----------------------------------------
 .byte   W96
@  #11 @022   ----------------------------------------
 .byte   W96
@  #11 @023   ----------------------------------------
 .byte   W96
@  #11 @024   ----------------------------------------
Label_D570D2:
 .byte   N84 ,Bn2 ,v100
 .byte   W84
 .byte   N60 ,En2
 .byte   W12
 .byte   PEND 
@  #11 @025   ----------------------------------------
Label_D570DA:
 .byte   W48
 .byte   N48 ,Bn2 ,v100
 .byte   W48
 .byte   PEND 
@  #11 @026   ----------------------------------------
Label_D570E0:
 .byte   N48 ,Cs3 ,v100
 .byte   W48
 .byte   N36 ,Fs2
 .byte   W36
 .byte   N48 ,Fs3
 .byte   W12
 .byte   PEND 
@  #11 @027   ----------------------------------------
Label_D570EB:
 .byte   W36
 .byte   N24 ,Bn2 ,v100
 .byte   W24
 .byte   N12
 .byte   W12
 .byte   Cs3
 .byte   W12
 .byte   Ds3
 .byte   W12
 .byte   PEND 
@  #11 @028   ----------------------------------------
 .byte   W96
@  #11 @029   ----------------------------------------
 .byte   W96
@  #11 @030   ----------------------------------------
 .byte   W96
@  #11 @031   ----------------------------------------
 .byte   W96
@  #11 @032   ----------------------------------------
 .byte   PATT
  .word Label_D570D2
@  #11 @033   ----------------------------------------
 .byte   PATT
  .word Label_D570DA
@  #11 @034   ----------------------------------------
 .byte   PATT
  .word Label_D570E0
@  #11 @035   ----------------------------------------
 .byte   PATT
  .word Label_D570EB
@  #11 @036   ----------------------------------------
 .byte   W96
@  #11 @037   ----------------------------------------
 .byte   W96
@  #11 @038   ----------------------------------------
 .byte   W96
@  #11 @039   ----------------------------------------
 .byte   W96
@  #11 @040   ----------------------------------------
 .byte   GOTO
  .word Label_D5708C
 .byte   FINE

@**************** Track 12 (Midi-Chn.11) ****************@

song0106_012:
@  #12 @000   ----------------------------------------
 .byte   KEYSH , song0106_key+0
Label_D5711B:
 .byte   VOICE , 39
 .byte   VOL , 93*song0106_mvl/mxv
 .byte   PAN , c_v-1
 .byte   N12 ,En1 ,v100
 .byte   W12
 .byte   En1 ,v101
 .byte   W12
 .byte   En1
 .byte   W12
 .byte   En1
 .byte   W12
 .byte   En1
 .byte   W12
 .byte   En1
 .byte   W12
 .byte   En1
 .byte   W12
 .byte   En1
 .byte   W12
@  #12 @001   ----------------------------------------
 .byte   En1
 .byte   W12
 .byte   En1
 .byte   W12
 .byte   En1
 .byte   W12
 .byte   En1
 .byte   W12
 .byte   En1
 .byte   W12
 .byte   En1
 .byte   W12
 .byte   En1
 .byte   W12
 .byte   En2
 .byte   W12
@  #12 @002   ----------------------------------------
 .byte   En1
 .byte   W12
 .byte   En1
 .byte   W12
 .byte   En1
 .byte   W12
 .byte   En1
 .byte   W12
 .byte   En1
 .byte   W12
 .byte   En1
 .byte   W12
 .byte   En1
 .byte   W12
 .byte   En1
 .byte   W12
@  #12 @003   ----------------------------------------
 .byte   En1
 .byte   W12
 .byte   En1
 .byte   W12
 .byte   En1
 .byte   W12
 .byte   N24 ,Cn2
 .byte   W24
 .byte   N12 ,Cn1
 .byte   W12
 .byte   N24 ,Dn2
 .byte   W24
@  #12 @004   ----------------------------------------
Label_D57163:
 .byte   N12 ,En2 ,v101
 .byte   W12
 .byte   Cs2
 .byte   W12
 .byte   Dn2
 .byte   W12
 .byte   Ds2
 .byte   W12
 .byte   En2
 .byte   W12
 .byte   Cs2
 .byte   W12
 .byte   Dn2
 .byte   W12
 .byte   N24 ,En2
 .byte   W12
 .byte   PEND 
@  #12 @005   ----------------------------------------
Label_D57177:
 .byte   W12
 .byte   N12 ,Cs2 ,v101
 .byte   W12
 .byte   Dn2
 .byte   W12
 .byte   Ds2
 .byte   W12
 .byte   En2
 .byte   W12
 .byte   Cs2
 .byte   W12
 .byte   Dn2
 .byte   W12
 .byte   Ds2
 .byte   W12
 .byte   PEND 
@  #12 @006   ----------------------------------------
 .byte   PATT
  .word Label_D57163
@  #12 @007   ----------------------------------------
 .byte   PATT
  .word Label_D57177
@  #12 @008   ----------------------------------------
 .byte   PATT
  .word Label_D57163
@  #12 @009   ----------------------------------------
 .byte   PATT
  .word Label_D57177
@  #12 @010   ----------------------------------------
 .byte   PATT
  .word Label_D57163
@  #12 @011   ----------------------------------------
 .byte   W12
 .byte   N12 ,En1 ,v101
 .byte   W12
 .byte   Fs2
 .byte   W12
 .byte   Fs1
 .byte   W12
 .byte   Gn2
 .byte   W12
 .byte   Gn1
 .byte   W12
 .byte   Gs2
 .byte   W12
 .byte   Gs1
 .byte   W12
@  #12 @012   ----------------------------------------
Label_D571B3:
 .byte   N12 ,Gs1 ,v101
 .byte   W12
 .byte   N24 ,An1
 .byte   W24
 .byte   An2
 .byte   W24
 .byte   N12 ,An1
 .byte   W12
 .byte   N24 ,An2
 .byte   W24
 .byte   PEND 
@  #12 @013   ----------------------------------------
Label_D571C3:
 .byte   N12 ,Fs1 ,v101
 .byte   W12
 .byte   N24 ,Gs1
 .byte   W24
 .byte   Gs2
 .byte   W24
 .byte   N12 ,Gs1
 .byte   W12
 .byte   N24 ,Gs2
 .byte   W24
 .byte   PEND 
@  #12 @014   ----------------------------------------
 .byte   N12 ,En1
 .byte   W12
 .byte   N24 ,Fs1
 .byte   W24
 .byte   Fs2
 .byte   W24
 .byte   N12 ,Fs1
 .byte   W12
 .byte   N24 ,Fs2
 .byte   W24
@  #12 @015   ----------------------------------------
 .byte   N12 ,En1
 .byte   W12
 .byte   En2
 .byte   W12
 .byte   Bn1
 .byte   W12
 .byte   An1
 .byte   W12
 .byte   Gs1
 .byte   W12
 .byte   An1
 .byte   W12
 .byte   Bn1
 .byte   W12
 .byte   En1
 .byte   W12
@  #12 @016   ----------------------------------------
 .byte   PATT
  .word Label_D571B3
@  #12 @017   ----------------------------------------
 .byte   PATT
  .word Label_D571C3
@  #12 @018   ----------------------------------------
 .byte   N24 ,Fs1 ,v101
 .byte   W24
 .byte   Gs1
 .byte   W24
 .byte   An1
 .byte   W24
 .byte   As1
 .byte   W24
@  #12 @019   ----------------------------------------
 .byte   N12 ,Bn1
 .byte   W12
 .byte   Bn2
 .byte   W12
 .byte   Bn2
 .byte   W12
 .byte   Bn1
 .byte   W12
 .byte   Bn2
 .byte   W12
 .byte   Bn1
 .byte   W12
 .byte   Bn2
 .byte   W12
 .byte   Bn2 ,v102
 .byte   W12
@  #12 @020   ----------------------------------------
Label_D57218:
 .byte   N12 ,En1 ,v102
 .byte   W12
 .byte   En1
 .byte   W12
 .byte   En1
 .byte   W12
 .byte   En1
 .byte   W12
 .byte   En1
 .byte   W12
 .byte   En1
 .byte   W12
 .byte   En1
 .byte   W12
 .byte   N24 ,Gs1
 .byte   W12
 .byte   PEND 
@  #12 @021   ----------------------------------------
Label_D5722C:
 .byte   W12
 .byte   N12 ,Gs1 ,v102
 .byte   W12
 .byte   Gs1
 .byte   W12
 .byte   Gs1
 .byte   W12
 .byte   Gs1
 .byte   W12
 .byte   Gs1
 .byte   W12
 .byte   Gs1
 .byte   W12
 .byte   Gs1
 .byte   W12
 .byte   PEND 
@  #12 @022   ----------------------------------------
Label_D5723E:
 .byte   N12 ,An1 ,v102
 .byte   W12
 .byte   An1
 .byte   W12
 .byte   An1
 .byte   W12
 .byte   An1
 .byte   W12
 .byte   An1
 .byte   W12
 .byte   An1
 .byte   W12
 .byte   An1
 .byte   W12
 .byte   N24
 .byte   W12
 .byte   PEND 
@  #12 @023   ----------------------------------------
Label_D57251:
 .byte   W12
 .byte   N12 ,An1 ,v102
 .byte   W12
 .byte   An1
 .byte   W12
 .byte   An1
 .byte   W12
 .byte   An1
 .byte   W12
 .byte   An1
 .byte   W12
 .byte   An1
 .byte   W12
 .byte   An1
 .byte   W12
 .byte   PEND 
@  #12 @024   ----------------------------------------
Label_D57263:
 .byte   N12 ,Gs1 ,v102
 .byte   W12
 .byte   Gs1
 .byte   W12
 .byte   Gs1
 .byte   W12
 .byte   Gs1
 .byte   W12
 .byte   Gs1
 .byte   W12
 .byte   Ds2
 .byte   W12
 .byte   Dn2
 .byte   W12
 .byte   N24 ,Cs2
 .byte   W12
 .byte   PEND 
@  #12 @025   ----------------------------------------
Label_D57277:
 .byte   W12
 .byte   N12 ,Cs2 ,v102
 .byte   W12
 .byte   Cs2
 .byte   W12
 .byte   Cs2
 .byte   W12
 .byte   Bn1
 .byte   W12
 .byte   Bn1
 .byte   W12
 .byte   Bn1
 .byte   W12
 .byte   Bn1
 .byte   W12
 .byte   PEND 
@  #12 @026   ----------------------------------------
Label_D57289:
 .byte   N12 ,As1 ,v102
 .byte   W12
 .byte   As1
 .byte   W12
 .byte   As1
 .byte   W12
 .byte   As1
 .byte   W12
 .byte   As2
 .byte   W12
 .byte   As1
 .byte   W12
 .byte   As1
 .byte   W12
 .byte   N24 ,An1
 .byte   W12
 .byte   PEND 
@  #12 @027   ----------------------------------------
Label_D5729D:
 .byte   W12
 .byte   N12 ,An1 ,v102
 .byte   W12
 .byte   An1
 .byte   W12
 .byte   N24 ,Bn1
 .byte   W24
 .byte   N12 ,Bn2
 .byte   W12
 .byte   Bn1
 .byte   W12
 .byte   Bn1
 .byte   W12
 .byte   PEND 
@  #12 @028   ----------------------------------------
 .byte   PATT
  .word Label_D57218
@  #12 @029   ----------------------------------------
 .byte   PATT
  .word Label_D5722C
@  #12 @030   ----------------------------------------
 .byte   PATT
  .word Label_D5723E
@  #12 @031   ----------------------------------------
 .byte   PATT
  .word Label_D57251
@  #12 @032   ----------------------------------------
 .byte   PATT
  .word Label_D57263
@  #12 @033   ----------------------------------------
 .byte   PATT
  .word Label_D57277
@  #12 @034   ----------------------------------------
 .byte   PATT
  .word Label_D57289
@  #12 @035   ----------------------------------------
 .byte   PATT
  .word Label_D5729D
@  #12 @036   ----------------------------------------
Label_D572D7:
 .byte   N12 ,En1 ,v102
 .byte   W12
 .byte   En1
 .byte   W12
 .byte   En1
 .byte   W12
 .byte   En1
 .byte   W12
 .byte   En1
 .byte   W12
 .byte   En1
 .byte   W12
 .byte   En2
 .byte   W12
 .byte   En1
 .byte   W12
 .byte   PEND 
@  #12 @037   ----------------------------------------
 .byte   PATT
  .word Label_D572D7
@  #12 @038   ----------------------------------------
 .byte   PATT
  .word Label_D572D7
@  #12 @039   ----------------------------------------
 .byte   N12 ,En1 ,v102
 .byte   W12
 .byte   En1
 .byte   W12
 .byte   En1
 .byte   W12
 .byte   En1
 .byte   W60
@  #12 @040   ----------------------------------------
 .byte   GOTO
  .word Label_D5711B
 .byte   FINE

@**************** Track 13 (Midi-Chn.12) ****************@

song0106_013:
@  #13 @000   ----------------------------------------
 .byte   KEYSH , song0106_key+0
Label_D57306:
 .byte   VOICE , 33
 .byte   VOL , 69*song0106_mvl/mxv
 .byte   PAN , c_v-1
 .byte   N12 ,En1 ,v089
 .byte   W12
 .byte   En1 ,v090
 .byte   W12
 .byte   En1
 .byte   W12
 .byte   En1
 .byte   W12
 .byte   En1
 .byte   W12
 .byte   En1
 .byte   W12
 .byte   En1
 .byte   W12
 .byte   En1
 .byte   W12
@  #13 @001   ----------------------------------------
 .byte   En1
 .byte   W12
 .byte   En1
 .byte   W12
 .byte   En1
 .byte   W12
 .byte   En1
 .byte   W12
 .byte   En1
 .byte   W12
 .byte   En1
 .byte   W12
 .byte   En1
 .byte   W12
 .byte   En2
 .byte   W12
@  #13 @002   ----------------------------------------
 .byte   En1
 .byte   W12
 .byte   En1
 .byte   W12
 .byte   En1
 .byte   W12
 .byte   En1
 .byte   W12
 .byte   En1
 .byte   W12
 .byte   En1
 .byte   W12
 .byte   En1
 .byte   W12
 .byte   En1
 .byte   W12
@  #13 @003   ----------------------------------------
 .byte   En1
 .byte   W12
 .byte   En1
 .byte   W12
 .byte   En1
 .byte   W12
 .byte   N24 ,Cn2
 .byte   W24
 .byte   N12 ,Cn1
 .byte   W12
 .byte   N24 ,Dn2
 .byte   W24
@  #13 @004   ----------------------------------------
Label_D5734E:
 .byte   N12 ,En2 ,v090
 .byte   W12
 .byte   Cs2
 .byte   W12
 .byte   Dn2
 .byte   W12
 .byte   Ds2
 .byte   W12
 .byte   En2
 .byte   W12
 .byte   Cs2
 .byte   W12
 .byte   Dn2
 .byte   W12
 .byte   N24 ,En2
 .byte   W12
 .byte   PEND 
@  #13 @005   ----------------------------------------
Label_D57362:
 .byte   W12
 .byte   N12 ,Cs2 ,v090
 .byte   W12
 .byte   Dn2
 .byte   W12
 .byte   Ds2
 .byte   W12
 .byte   En2
 .byte   W12
 .byte   Cs2
 .byte   W12
 .byte   Dn2
 .byte   W12
 .byte   Ds2
 .byte   W12
 .byte   PEND 
@  #13 @006   ----------------------------------------
 .byte   PATT
  .word Label_D5734E
@  #13 @007   ----------------------------------------
 .byte   PATT
  .word Label_D57362
@  #13 @008   ----------------------------------------
 .byte   PATT
  .word Label_D5734E
@  #13 @009   ----------------------------------------
 .byte   PATT
  .word Label_D57362
@  #13 @010   ----------------------------------------
 .byte   PATT
  .word Label_D5734E
@  #13 @011   ----------------------------------------
 .byte   W12
 .byte   N12 ,En1 ,v090
 .byte   W12
 .byte   Fs2
 .byte   W12
 .byte   Fs1
 .byte   W12
 .byte   Gn2
 .byte   W12
 .byte   Gn1
 .byte   W12
 .byte   Gs2
 .byte   W12
 .byte   Gs1
 .byte   W12
@  #13 @012   ----------------------------------------
Label_D5739E:
 .byte   N12 ,Gs1 ,v090
 .byte   W12
 .byte   N24 ,An1
 .byte   W24
 .byte   An2
 .byte   W24
 .byte   N12 ,An1
 .byte   W12
 .byte   N24 ,An2
 .byte   W24
 .byte   PEND 
@  #13 @013   ----------------------------------------
Label_D573AE:
 .byte   N12 ,Fs1 ,v090
 .byte   W12
 .byte   N24 ,Gs1
 .byte   W24
 .byte   Gs2
 .byte   W24
 .byte   N12 ,Gs1
 .byte   W12
 .byte   N24 ,Gs2
 .byte   W24
 .byte   PEND 
@  #13 @014   ----------------------------------------
 .byte   N12 ,En1
 .byte   W12
 .byte   N24 ,Fs1
 .byte   W24
 .byte   Fs2
 .byte   W24
 .byte   N12 ,Fs1
 .byte   W12
 .byte   N24 ,Fs2
 .byte   W24
@  #13 @015   ----------------------------------------
 .byte   N12 ,En1
 .byte   W12
 .byte   En2
 .byte   W12
 .byte   Bn1
 .byte   W12
 .byte   An1
 .byte   W12
 .byte   Gs1
 .byte   W12
 .byte   An1
 .byte   W12
 .byte   Bn1
 .byte   W12
 .byte   En1
 .byte   W12
@  #13 @016   ----------------------------------------
 .byte   PATT
  .word Label_D5739E
@  #13 @017   ----------------------------------------
 .byte   PATT
  .word Label_D573AE
@  #13 @018   ----------------------------------------
 .byte   N24 ,Fs1 ,v090
 .byte   W24
 .byte   Gs1
 .byte   W24
 .byte   An1
 .byte   W24
 .byte   As1
 .byte   W24
@  #13 @019   ----------------------------------------
 .byte   N12 ,Bn1
 .byte   W12
 .byte   Bn2
 .byte   W12
 .byte   Bn2
 .byte   W12
 .byte   Bn1
 .byte   W12
 .byte   Bn2
 .byte   W12
 .byte   Bn1
 .byte   W12
 .byte   Bn2
 .byte   W12
 .byte   Bn2
 .byte   W12
@  #13 @020   ----------------------------------------
Label_D57402:
 .byte   N12 ,En1 ,v090
 .byte   W12
 .byte   En1
 .byte   W12
 .byte   En1
 .byte   W12
 .byte   En1
 .byte   W12
 .byte   En1
 .byte   W12
 .byte   En1
 .byte   W12
 .byte   En1
 .byte   W12
 .byte   N24 ,Gs1
 .byte   W12
 .byte   PEND 
@  #13 @021   ----------------------------------------
Label_D57416:
 .byte   W12
 .byte   N12 ,Gs1 ,v090
 .byte   W12
 .byte   Gs1
 .byte   W12
 .byte   Gs1
 .byte   W12
 .byte   Gs1
 .byte   W12
 .byte   Gs1
 .byte   W12
 .byte   Gs1
 .byte   W12
 .byte   Gs1
 .byte   W12
 .byte   PEND 
@  #13 @022   ----------------------------------------
Label_D57428:
 .byte   N12 ,An1 ,v090
 .byte   W12
 .byte   An1
 .byte   W12
 .byte   An1
 .byte   W12
 .byte   An1
 .byte   W12
 .byte   An1
 .byte   W12
 .byte   An1
 .byte   W12
 .byte   An1
 .byte   W12
 .byte   N24
 .byte   W12
 .byte   PEND 
@  #13 @023   ----------------------------------------
Label_D5743B:
 .byte   W12
 .byte   N12 ,An1 ,v090
 .byte   W12
 .byte   An1
 .byte   W12
 .byte   An1
 .byte   W12
 .byte   An1
 .byte   W12
 .byte   An1
 .byte   W12
 .byte   An1
 .byte   W12
 .byte   An1
 .byte   W12
 .byte   PEND 
@  #13 @024   ----------------------------------------
Label_D5744D:
 .byte   N12 ,Gs1 ,v090
 .byte   W12
 .byte   Gs1
 .byte   W12
 .byte   Gs1
 .byte   W12
 .byte   Gs1
 .byte   W12
 .byte   Gs1
 .byte   W12
 .byte   Ds2
 .byte   W12
 .byte   Dn2
 .byte   W12
 .byte   N24 ,Cs2
 .byte   W12
 .byte   PEND 
@  #13 @025   ----------------------------------------
Label_D57461:
 .byte   W12
 .byte   N12 ,Cs2 ,v090
 .byte   W12
 .byte   Cs2
 .byte   W12
 .byte   Cs2
 .byte   W12
 .byte   Bn1
 .byte   W12
 .byte   Bn1
 .byte   W12
 .byte   Bn1
 .byte   W12
 .byte   Bn1
 .byte   W12
 .byte   PEND 
@  #13 @026   ----------------------------------------
Label_D57473:
 .byte   N12 ,As1 ,v090
 .byte   W12
 .byte   As1
 .byte   W12
 .byte   As1
 .byte   W12
 .byte   As1
 .byte   W12
 .byte   As2
 .byte   W12
 .byte   As1
 .byte   W12
 .byte   As1
 .byte   W12
 .byte   N24 ,An1
 .byte   W12
 .byte   PEND 
@  #13 @027   ----------------------------------------
Label_D57487:
 .byte   W12
 .byte   N12 ,An1 ,v090
 .byte   W12
 .byte   An1
 .byte   W12
 .byte   N24 ,Bn1
 .byte   W24
 .byte   N12 ,Bn2
 .byte   W12
 .byte   Bn1
 .byte   W12
 .byte   Bn1
 .byte   W12
 .byte   PEND 
@  #13 @028   ----------------------------------------
 .byte   PATT
  .word Label_D57402
@  #13 @029   ----------------------------------------
 .byte   PATT
  .word Label_D57416
@  #13 @030   ----------------------------------------
 .byte   PATT
  .word Label_D57428
@  #13 @031   ----------------------------------------
 .byte   PATT
  .word Label_D5743B
@  #13 @032   ----------------------------------------
 .byte   PATT
  .word Label_D5744D
@  #13 @033   ----------------------------------------
 .byte   PATT
  .word Label_D57461
@  #13 @034   ----------------------------------------
 .byte   PATT
  .word Label_D57473
@  #13 @035   ----------------------------------------
 .byte   PATT
  .word Label_D57487
@  #13 @036   ----------------------------------------
Label_D574C1:
 .byte   N12 ,En1 ,v090
 .byte   W12
 .byte   En1
 .byte   W12
 .byte   En1
 .byte   W12
 .byte   En1
 .byte   W12
 .byte   En1
 .byte   W12
 .byte   En1
 .byte   W12
 .byte   En2
 .byte   W12
 .byte   En1
 .byte   W12
 .byte   PEND 
@  #13 @037   ----------------------------------------
 .byte   PATT
  .word Label_D574C1
@  #13 @038   ----------------------------------------
 .byte   PATT
  .word Label_D574C1
@  #13 @039   ----------------------------------------
 .byte   N12 ,En1 ,v090
 .byte   W12
 .byte   En1
 .byte   W12
 .byte   En1
 .byte   W12
 .byte   En1
 .byte   W60
@  #13 @040   ----------------------------------------
 .byte   GOTO
  .word Label_D57306
 .byte   FINE

@**************** Track 14 (Midi-Chn.13) ****************@

song0106_014:
@  #14 @000   ----------------------------------------
 .byte   KEYSH , song0106_key+0
Label_D574F0:
 .byte   VOICE , 123
 .byte   VOL , 58*song0106_mvl/mxv
 .byte   PAN , c_v-1
 .byte   N03 ,Cn1 ,v100
 .byte   W24
 .byte   Cn1
 .byte   W24
 .byte   Cn1
 .byte   W24
 .byte   Cn1
 .byte   W24
@  #14 @001   ----------------------------------------
Label_D57500:
 .byte   N03 ,Cn1 ,v100
 .byte   W24
 .byte   Cn1
 .byte   W24
 .byte   Cn1
 .byte   W24
 .byte   Cn1
 .byte   W12
 .byte   Dn1
 .byte   W12
 .byte   PEND 
@  #14 @002   ----------------------------------------
 .byte   PATT
  .word Label_D57500
@  #14 @003   ----------------------------------------
 .byte   N03 ,Cn1 ,v100
 .byte   W24
 .byte   Cn1
 .byte   W12
 .byte   Dn1
 .byte   W12
 .byte   Cn1
 .byte   W12
 .byte   Dn1
 .byte   W12
 .byte   Dn1
 .byte   W12
 .byte   Dn1
 .byte   W12
@  #14 @004   ----------------------------------------
Label_D57522:
 .byte   N03 ,Cn1 ,v100
 .byte   W12
 .byte   Cn1
 .byte   W12
 .byte   Dn1
 .byte   W12
 .byte   Cn1
 .byte   W12
 .byte   Cn1
 .byte   W12
 .byte   Cn1
 .byte   W12
 .byte   Dn1
 .byte   W12
 .byte   Cn1
 .byte   W12
 .byte   PEND 
@  #14 @005   ----------------------------------------
Label_D57535:
 .byte   W12
 .byte   N03 ,Cn1 ,v100
 .byte   W12
 .byte   Dn1
 .byte   W12
 .byte   Cn1
 .byte   W12
 .byte   Cn1
 .byte   W12
 .byte   Cn1
 .byte   W12
 .byte   Dn1
 .byte   W12
 .byte   Cn1
 .byte   W12
 .byte   PEND 
@  #14 @006   ----------------------------------------
 .byte   PATT
  .word Label_D57522
@  #14 @007   ----------------------------------------
 .byte   PATT
  .word Label_D57535
@  #14 @008   ----------------------------------------
 .byte   PATT
  .word Label_D57522
@  #14 @009   ----------------------------------------
 .byte   PATT
  .word Label_D57535
@  #14 @010   ----------------------------------------
 .byte   PATT
  .word Label_D57522
@  #14 @011   ----------------------------------------
 .byte   PATT
  .word Label_D57535
@  #14 @012   ----------------------------------------
Label_D57565:
 .byte   N03 ,Cn1 ,v100
 .byte   W24
 .byte   Dn1
 .byte   W12
 .byte   Cn1
 .byte   W24
 .byte   Cn1
 .byte   W12
 .byte   Dn1
 .byte   W12
 .byte   Cn1
 .byte   W12
 .byte   PEND 
@  #14 @013   ----------------------------------------
Label_D57574:
 .byte   N03 ,Cn1 ,v100
 .byte   W24
 .byte   Dn1
 .byte   W12
 .byte   Cn1
 .byte   W24
 .byte   Cn1
 .byte   W12
 .byte   Dn1
 .byte   W24
 .byte   PEND 
@  #14 @014   ----------------------------------------
 .byte   PATT
  .word Label_D57565
@  #14 @015   ----------------------------------------
 .byte   PATT
  .word Label_D57574
@  #14 @016   ----------------------------------------
 .byte   PATT
  .word Label_D57565
@  #14 @017   ----------------------------------------
 .byte   PATT
  .word Label_D57574
@  #14 @018   ----------------------------------------
 .byte   N03 ,Cn1 ,v100
 .byte   W24
 .byte   Cn1
 .byte   W24
 .byte   Cn1
 .byte   W24
 .byte   Cn1
 .byte   W24
@  #14 @019   ----------------------------------------
 .byte   Cn1
 .byte   W12
 .byte   Dn1
 .byte   W12
 .byte   Dn1
 .byte   W12
 .byte   Cn1
 .byte   W12
 .byte   Dn1
 .byte   W12
 .byte   Cn1
 .byte   W12
 .byte   Dn1
 .byte   W12
 .byte   Dn1
 .byte   W12
@  #14 @020   ----------------------------------------
 .byte   PATT
  .word Label_D57522
@  #14 @021   ----------------------------------------
 .byte   PATT
  .word Label_D57535
@  #14 @022   ----------------------------------------
 .byte   PATT
  .word Label_D57522
@  #14 @023   ----------------------------------------
 .byte   PATT
  .word Label_D57535
@  #14 @024   ----------------------------------------
 .byte   PATT
  .word Label_D57522
@  #14 @025   ----------------------------------------
 .byte   PATT
  .word Label_D57535
@  #14 @026   ----------------------------------------
 .byte   PATT
  .word Label_D57522
@  #14 @027   ----------------------------------------
Label_D575D2:
 .byte   N03 ,Cn1 ,v100
 .byte   W12
 .byte   Dn1
 .byte   W12
 .byte   Cn1
 .byte   W12
 .byte   Cn1
 .byte   W12
 .byte   Dn1
 .byte   W12
 .byte   Cn1
 .byte   W12
 .byte   Dn1
 .byte   W12
 .byte   Dn1
 .byte   W12
 .byte   PEND 
@  #14 @028   ----------------------------------------
 .byte   PATT
  .word Label_D57522
@  #14 @029   ----------------------------------------
 .byte   PATT
  .word Label_D57535
@  #14 @030   ----------------------------------------
 .byte   PATT
  .word Label_D57522
@  #14 @031   ----------------------------------------
 .byte   PATT
  .word Label_D57535
@  #14 @032   ----------------------------------------
 .byte   PATT
  .word Label_D57522
@  #14 @033   ----------------------------------------
 .byte   PATT
  .word Label_D57535
@  #14 @034   ----------------------------------------
 .byte   PATT
  .word Label_D57522
@  #14 @035   ----------------------------------------
 .byte   PATT
  .word Label_D575D2
@  #14 @036   ----------------------------------------
 .byte   PATT
  .word Label_D57522
@  #14 @037   ----------------------------------------
 .byte   PATT
  .word Label_D57522
@  #14 @038   ----------------------------------------
 .byte   PATT
  .word Label_D57522
@  #14 @039   ----------------------------------------
 .byte   N03 ,Cn1 ,v100
 .byte   W12
 .byte   Cn1
 .byte   W12
 .byte   Dn1
 .byte   W12
 .byte   Cn1
 .byte   W12
 .byte   Dn1
 .byte   N48 ,Cs2
 .byte   W12
 .byte   N03 ,Cn1
 .byte   W06
 .byte   Cn1
 .byte   W06
 .byte   Dn1 ,v127
 .byte   W24
@  #14 @040   ----------------------------------------
 .byte   GOTO
  .word Label_D574F0
 .byte   FINE

@******************************************************@
	.align	2

song0106:
	.byte	14	@ NumTrks
	.byte	0	@ NumBlks
	.byte	song0106_pri	@ Priority
	.byte	song0106_rev	@ Reverb.
    
	.word	song0106_grp
    
	.word	song0106_001
	.word	song0106_002
	.word	song0106_003
	.word	song0106_004
	.word	song0106_005
	.word	song0106_006
	.word	song0106_007
	.word	song0106_008
	.word	song0106_009
	.word	song0106_010
	.word	song0106_011
	.word	song0106_012
	.word	song0106_013
	.word	song0106_014

	.end
