	.include "MPlayDef.s"

	.equ	song02_grp, voicegroup000
	.equ	song02_pri, 0
	.equ	song02_rev, 0
	.equ	song02_mvl, 127
	.equ	song02_key, 0
	.equ	song02_tbs, 1
	.equ	song02_exg, 0
	.equ	song02_cmp, 1

	.section .rodata
	.global	song02
	.align	2


@**************** Track 1 (Midi-Chn.0) ****************@

song02_001:
@  #01 @000   ----------------------------------------
 .byte   KEYSH , song02_key+0
 .byte   TEMPO , 80*song02_tbs/2
 .byte   VOICE , 124
 .byte   VOL , 60*song02_mvl/mxv
 .byte   N09 ,Fs1 ,v127
 .byte   BENDR, 12
 .byte   W09
 .byte   N03
 .byte   W03
 .byte   N09
 .byte   W09
 .byte   N03
 .byte   W03
 .byte   N14 ,Fs2
 .byte   W09
 .byte   N03 ,Fs1
 .byte   W03
 .byte   N09
 .byte   W09
 .byte   N03
 .byte   W03
 .byte   N09
 .byte   W09
 .byte   N03
 .byte   W03
 .byte   N09
 .byte   W09
 .byte   N03
 .byte   W03
 .byte   N14 ,Fs2
 .byte   W09
 .byte   N03 ,Fs1
 .byte   W03
 .byte   N09
 .byte   W09
 .byte   N08 ,As1
 .byte   W03
@  #01 @001   ----------------------------------------
Label_01003D81:
 .byte   N09 ,Fs1 ,v127
 .byte   W09
 .byte   N03
 .byte   W03
 .byte   N09
 .byte   W09
 .byte   N03
 .byte   W03
 .byte   N14 ,Fs2
 .byte   W09
 .byte   N03 ,Fs1
 .byte   W03
 .byte   N09
 .byte   W09
 .byte   N03
 .byte   W03
 .byte   N09
 .byte   W09
 .byte   N03
 .byte   W03
 .byte   N09
 .byte   W09
 .byte   N03
 .byte   W03
 .byte   N14 ,Fs2
 .byte   W09
 .byte   N03 ,Fs1
 .byte   W03
 .byte   N09
 .byte   W09
 .byte   N08 ,As1
 .byte   W03
 .byte   PEND 
@  #01 @002   ----------------------------------------
Label_01003DA9:
 .byte   N09 ,Fs1 ,v127
 .byte   W09
 .byte   N03
 .byte   W03
 .byte   N09
 .byte   W09
 .byte   N03
 .byte   W03
 .byte   N14 ,Fs2
 .byte   W09
 .byte   N03 ,Fs1
 .byte   W03
 .byte   N09
 .byte   W09
 .byte   N03
 .byte   W03
 .byte   N09
 .byte   W09
 .byte   N03
 .byte   W03
 .byte   N09
 .byte   W09
 .byte   N03
 .byte   W03
 .byte   N14 ,Fs2
 .byte   W09
 .byte   N03 ,Fs1
 .byte   W03
 .byte   N09
 .byte   W09
 .byte   N08 ,As1
 .byte   W03
@  #01 @003   ----------------------------------------
 .byte   PATT
  .word Label_01003D81
@  #01 @004   ----------------------------------------
 .byte   PATT
  .word Label_01003D81
@  #01 @005   ----------------------------------------
 .byte   PATT
  .word Label_01003D81
@  #01 @006   ----------------------------------------
 .byte   PATT
  .word Label_01003D81
@  #01 @007   ----------------------------------------
 .byte   PATT
  .word Label_01003D81
@  #01 @008   ----------------------------------------
 .byte   PATT
  .word Label_01003D81
@  #01 @009   ----------------------------------------
 .byte   PATT
  .word Label_01003D81
@  #01 @010   ----------------------------------------
 .byte   PATT
  .word Label_01003D81
@  #01 @011   ----------------------------------------
 .byte   PATT
  .word Label_01003D81
@  #01 @012   ----------------------------------------
 .byte   PATT
  .word Label_01003D81
@  #01 @013   ----------------------------------------
 .byte   PATT
  .word Label_01003D81
@  #01 @014   ----------------------------------------
 .byte   PATT
  .word Label_01003D81
@  #01 @015   ----------------------------------------
 .byte   PATT
  .word Label_01003D81
@  #01 @016   ----------------------------------------
 .byte   PATT
  .word Label_01003D81
@  #01 @017   ----------------------------------------
 .byte   PATT
  .word Label_01003D81
@  #01 @018   ----------------------------------------
 .byte   PATT
  .word Label_01003D81
@  #01 @019   ----------------------------------------
 .byte   PATT
  .word Label_01003D81
@  #01 @020   ----------------------------------------
 .byte   PATT
  .word Label_01003D81
@  #01 @021   ----------------------------------------
 .byte   PATT
  .word Label_01003D81
@  #01 @022   ----------------------------------------
 .byte   PATT
  .word Label_01003D81
@  #01 @023   ----------------------------------------
 .byte   PATT
  .word Label_01003D81
@  #01 @024   ----------------------------------------
 .byte   PATT
  .word Label_01003D81
@  #01 @025   ----------------------------------------
 .byte   PATT
  .word Label_01003D81
@  #01 @026   ----------------------------------------
 .byte   PATT
  .word Label_01003D81
@  #01 @027   ----------------------------------------
 .byte   PATT
  .word Label_01003D81
@  #01 @028   ----------------------------------------
 .byte   PATT
  .word Label_01003D81
@  #01 @029   ----------------------------------------
 .byte   PATT
  .word Label_01003D81
@  #01 @030   ----------------------------------------
 .byte   PATT
  .word Label_01003D81
@  #01 @031   ----------------------------------------
 .byte   PATT
  .word Label_01003D81
@  #01 @032   ----------------------------------------
 .byte   PATT
  .word Label_01003D81
@  #01 @033   ----------------------------------------
 .byte   PATT
  .word Label_01003D81
@  #01 @034   ----------------------------------------
 .byte   PATT
  .word Label_01003D81
@  #01 @035   ----------------------------------------
 .byte   PATT
  .word Label_01003D81
@  #01 @036   ----------------------------------------
 .byte   PATT
  .word Label_01003D81
@  #01 @037   ----------------------------------------
 .byte   PATT
  .word Label_01003D81
@  #01 @038   ----------------------------------------
 .byte   PATT
  .word Label_01003D81
@  #01 @039   ----------------------------------------
 .byte   PATT
  .word Label_01003D81
@  #01 @040   ----------------------------------------
 .byte   PATT
  .word Label_01003D81
@  #01 @041   ----------------------------------------
 .byte   PATT
  .word Label_01003D81
@  #01 @042   ----------------------------------------
 .byte   PATT
  .word Label_01003D81
@  #01 @043   ----------------------------------------
 .byte   PATT
  .word Label_01003D81
@  #01 @044   ----------------------------------------
 .byte   PATT
  .word Label_01003D81
@  #01 @045   ----------------------------------------
 .byte   PATT
  .word Label_01003D81
@  #01 @046   ----------------------------------------
 .byte   PATT
  .word Label_01003D81
@  #01 @047   ----------------------------------------
 .byte   PATT
  .word Label_01003D81
@  #01 @048   ----------------------------------------
 .byte   PATT
  .word Label_01003D81
@  #01 @049   ----------------------------------------
 .byte   PATT
  .word Label_01003D81
@  #01 @050   ----------------------------------------
 .byte   PATT
  .word Label_01003D81
@  #01 @051   ----------------------------------------
 .byte   PATT
  .word Label_01003D81
@  #01 @052   ----------------------------------------
 .byte   PATT
  .word Label_01003D81
@  #01 @053   ----------------------------------------
 .byte   PATT
  .word Label_01003D81
@  #01 @054   ----------------------------------------
 .byte   PATT
  .word Label_01003D81
@  #01 @055   ----------------------------------------
 .byte   PATT
  .word Label_01003D81
@  #01 @056   ----------------------------------------
 .byte   PATT
  .word Label_01003D81
@  #01 @057   ----------------------------------------
 .byte   PATT
  .word Label_01003D81
@  #01 @058   ----------------------------------------
 .byte   PATT
  .word Label_01003D81
@  #01 @059   ----------------------------------------
 .byte   PATT
  .word Label_01003D81
@  #01 @060   ----------------------------------------
 .byte   PATT
  .word Label_01003D81
@  #01 @061   ----------------------------------------
 .byte   PATT
  .word Label_01003D81
@  #01 @062   ----------------------------------------
 .byte   PATT
  .word Label_01003D81
@  #01 @063   ----------------------------------------
 .byte   PATT
  .word Label_01003D81
@  #01 @064   ----------------------------------------
 .byte   PATT
  .word Label_01003D81
@  #01 @065   ----------------------------------------
 .byte   PATT
  .word Label_01003D81
@  #01 @066   ----------------------------------------
 .byte   PATT
  .word Label_01003D81
@  #01 @067   ----------------------------------------
 .byte   PATT
  .word Label_01003D81
@  #01 @068   ----------------------------------------
 .byte   PATT
  .word Label_01003D81
@  #01 @069   ----------------------------------------
 .byte   PATT
  .word Label_01003D81
@  #01 @070   ----------------------------------------
 .byte   PATT
  .word Label_01003D81
@  #01 @071   ----------------------------------------
 .byte   PATT
  .word Label_01003D81
@  #01 @072   ----------------------------------------
 .byte   PATT
  .word Label_01003D81
@  #01 @073   ----------------------------------------
 .byte   PATT
  .word Label_01003D81
@  #01 @074   ----------------------------------------
 .byte   PATT
  .word Label_01003D81
@  #01 @075   ----------------------------------------
 .byte   PATT
  .word Label_01003D81
@  #01 @076   ----------------------------------------
 .byte   PATT
  .word Label_01003D81
@  #01 @077   ----------------------------------------
 .byte   PATT
  .word Label_01003D81
@  #01 @078   ----------------------------------------
 .byte   PATT
  .word Label_01003D81
@  #01 @079   ----------------------------------------
 .byte   PATT
  .word Label_01003D81
@  #01 @080   ----------------------------------------
 .byte   PATT
  .word Label_01003D81
@  #01 @081   ----------------------------------------
 .byte   PATT
  .word Label_01003D81
@  #01 @082   ----------------------------------------
 .byte   PATT
  .word Label_01003D81
@  #01 @083   ----------------------------------------
 .byte   PATT
  .word Label_01003D81
@  #01 @084   ----------------------------------------
 .byte   PATT
  .word Label_01003D81
@  #01 @085   ----------------------------------------
 .byte   PATT
  .word Label_01003D81
@  #01 @086   ----------------------------------------
 .byte   PATT
  .word Label_01003D81
@  #01 @087   ----------------------------------------
 .byte   PATT
  .word Label_01003D81
@  #01 @088   ----------------------------------------
 .byte   GOTO
  .word Label_01003DA9
@  #01 @089   ----------------------------------------
 .byte   W96
 .byte   FINE

@**************** Track 2 (Midi-Chn.1) ****************@

song02_002:
@  #02 @000   ----------------------------------------
 .byte   KEYSH , song02_key+0
 .byte   VOICE , 100
 .byte   VOL , 81*song02_mvl/mxv
 .byte   PAN , c_v+31
 .byte   BENDR, 12
 .byte   W96
@  #02 @001   ----------------------------------------
 .byte   W96
@  #02 @002   ----------------------------------------
Label_01003F9C:
 .byte   N17 ,En4 ,v053
 .byte   W18
 .byte   N60 ,Cs4
 .byte   W60
 .byte   N17 ,An4
 .byte   W18
@  #02 @003   ----------------------------------------
 .byte   N90 ,Fs4
 .byte   W96
@  #02 @004   ----------------------------------------
 .byte   N17 ,En4
 .byte   W18
 .byte   N40 ,Fs4 ,v053 ,gtp1
 .byte   W42
 .byte   N20 ,An4
 .byte   W24
 .byte   N11 ,Gs4
 .byte   W12
@  #02 @005   ----------------------------------------
 .byte   N54 ,Cs4
 .byte   W60
 .byte   N17 ,An3
 .byte   W18
 .byte   Cs4
 .byte   W18
@  #02 @006   ----------------------------------------
Label_01003FBF:
 .byte   N42 ,Fs3 ,v053
 .byte   W60
 .byte   N17 ,Fs4
 .byte   W18
 .byte   Cs4
 .byte   W18
 .byte   PEND 
@  #02 @007   ----------------------------------------
 .byte   En4
 .byte   W18
 .byte   Gs4
 .byte   W18
 .byte   N36 ,Cs4 ,v053 ,gtp1
 .byte   W42
 .byte   N17 ,An4
 .byte   W18
@  #02 @008   ----------------------------------------
 .byte   Gs4
 .byte   W18
 .byte   Bn4
 .byte   W18
 .byte   N36 ,Fs4 ,v053 ,gtp1
 .byte   W42
 .byte   N17 ,En4
 .byte   W18
@  #02 @009   ----------------------------------------
 .byte   Gs4
 .byte   W18
 .byte   N48 ,Cs4 ,v053 ,gtp1
 .byte   W60
 .byte   N17 ,En4
 .byte   W18
@  #02 @010   ----------------------------------------
Label_01003FEB:
 .byte   N17 ,Cs3 ,v053
 .byte   W18
 .byte   Gs3
 .byte   W18
 .byte   N20 ,En3
 .byte   W42
 .byte   N17 ,Fs3
 .byte   W18
 .byte   PEND 
@  #02 @011   ----------------------------------------
 .byte   Gs3
 .byte   W18
 .byte   N40 ,Cs3
 .byte   W42
 .byte   N17 ,Fs3
 .byte   W18
 .byte   Gs3
 .byte   W18
@  #02 @012   ----------------------------------------
Label_01004002:
 .byte   N17 ,En3 ,v053
 .byte   W18
 .byte   Fs3
 .byte   W18
 .byte   En3
 .byte   W18
 .byte   Fs3
 .byte   W18
 .byte   N11 ,Gs3
 .byte   W12
 .byte   An3
 .byte   W12
 .byte   PEND 
@  #02 @013   ----------------------------------------
 .byte   N90 ,Cs3
 .byte   W96
@  #02 @014   ----------------------------------------
Label_01004015:
 .byte   N17 ,Cs3 ,v053
 .byte   W18
 .byte   Gs3
 .byte   W18
 .byte   N40 ,En3
 .byte   W42
 .byte   N17 ,Fs3
 .byte   W18
 .byte   PEND 
@  #02 @015   ----------------------------------------
Label_01004022:
 .byte   N17 ,An3 ,v053
 .byte   W18
 .byte   Gs3
 .byte   W18
 .byte   En3
 .byte   W18
 .byte   N36 ,Cs3 ,v053 ,gtp2
 .byte   W42
 .byte   PEND 
@  #02 @016   ----------------------------------------
Label_01004030:
 .byte   N17 ,En3 ,v053
 .byte   W18
 .byte   Fs3
 .byte   W18
 .byte   N42
 .byte   W48
 .byte   N11 ,En3
 .byte   W12
 .byte   PEND 
@  #02 @017   ----------------------------------------
 .byte   N90 ,Fs3
 .byte   W96
@  #02 @018   ----------------------------------------
Label_0100403F:
 .byte   N17 ,Cs3 ,v053
 .byte   W18
 .byte   Gs3
 .byte   W18
 .byte   N36 ,En3 ,v053 ,gtp3
 .byte   W42
 .byte   N17 ,Fs3
 .byte   W18
 .byte   PEND 
@  #02 @019   ----------------------------------------
 .byte   Gs3
 .byte   W18
 .byte   N36 ,Cs3 ,v053 ,gtp3
 .byte   W42
 .byte   N17 ,Fs3
 .byte   W18
 .byte   Gs3
 .byte   W18
@  #02 @020   ----------------------------------------
 .byte   PATT
  .word Label_01004002
@  #02 @021   ----------------------------------------
 .byte   N90 ,Cs3 ,v053
 .byte   W96
@  #02 @022   ----------------------------------------
Label_01004063:
 .byte   N17 ,Cs3 ,v053
 .byte   W18
 .byte   Gs3
 .byte   W18
 .byte   N42 ,En3
 .byte   W42
 .byte   N17 ,Fs3
 .byte   W18
 .byte   PEND 
@  #02 @023   ----------------------------------------
 .byte   PATT
  .word Label_01004022
@  #02 @024   ----------------------------------------
 .byte   N17 ,En3 ,v053
 .byte   W18
 .byte   Fs3
 .byte   W18
 .byte   N36 ,Fs3 ,v053 ,gtp1
 .byte   W48
 .byte   N11 ,En3
 .byte   W12
@  #02 @025   ----------------------------------------
 .byte   N90 ,Fs3
 .byte   W96
@  #02 @026   ----------------------------------------
 .byte   W96
@  #02 @027   ----------------------------------------
 .byte   W96
@  #02 @028   ----------------------------------------
 .byte   W96
@  #02 @029   ----------------------------------------
Label_01004089:
 .byte   W72
 .byte   N11 ,Cs4 ,v053
 .byte   W12
 .byte   En4
 .byte   W12
 .byte   PEND 
@  #02 @030   ----------------------------------------
Label_01004091:
 .byte   N17 ,Gs4 ,v053
 .byte   W18
 .byte   N48 ,Cs4
 .byte   W60
 .byte   N17 ,Fs4
 .byte   W18
 .byte   PEND 
@  #02 @031   ----------------------------------------
Label_0100409C:
 .byte   N17 ,Gs4 ,v053
 .byte   W18
 .byte   N44 ,Cs4
 .byte   W54
 .byte   N11
 .byte   W12
 .byte   En4
 .byte   W12
 .byte   PEND 
@  #02 @032   ----------------------------------------
 .byte   N17 ,Gs4
 .byte   W18
 .byte   N48 ,Cs4 ,v053 ,gtp3
 .byte   W60
 .byte   N17 ,Fs4
 .byte   W18
@  #02 @033   ----------------------------------------
 .byte   Gs4
 .byte   W18
 .byte   N64 ,Cs4 ,v053 ,gtp1
 .byte   W78
@  #02 @034   ----------------------------------------
Label_010040BA:
 .byte   N17 ,Gs4 ,v053
 .byte   W18
 .byte   N52 ,Cs4
 .byte   W60
 .byte   N17 ,Fs4
 .byte   W18
 .byte   PEND 
@  #02 @035   ----------------------------------------
 .byte   Gs4
 .byte   W18
 .byte   N42 ,Cs4 ,v053 ,gtp1
 .byte   W54
 .byte   N11
 .byte   W12
 .byte   En4
 .byte   W12
@  #02 @036   ----------------------------------------
 .byte   N17 ,Gs4
 .byte   W18
 .byte   N48 ,Cs4 ,v053 ,gtp2
 .byte   W60
 .byte   N17 ,Fs4
 .byte   W18
@  #02 @037   ----------------------------------------
Label_010040DB:
 .byte   N17 ,Gs4 ,v053
 .byte   W18
 .byte   N20 ,Cs4
 .byte   W78
 .byte   PEND 
@  #02 @038   ----------------------------------------
 .byte   PATT
  .word Label_010040BA
@  #02 @039   ----------------------------------------
Label_010040E8:
 .byte   N17 ,Gs4 ,v053
 .byte   W18
 .byte   N44 ,Cs4 ,v053 ,gtp1
 .byte   W54
 .byte   N11
 .byte   W12
 .byte   En4
 .byte   W12
 .byte   PEND 
@  #02 @040   ----------------------------------------
 .byte   PATT
  .word Label_01004091
@  #02 @041   ----------------------------------------
 .byte   N17 ,Gs4 ,v053
 .byte   W18
 .byte   N66 ,Cs4 ,v053 ,gtp1
 .byte   W78
@  #02 @042   ----------------------------------------
 .byte   W96
@  #02 @043   ----------------------------------------
 .byte   W96
@  #02 @044   ----------------------------------------
 .byte   N17 ,En4
 .byte   W18
 .byte   N56 ,Cs4
 .byte   W60
 .byte   N17 ,An4
 .byte   W18
@  #02 @045   ----------------------------------------
 .byte   N90 ,Fs4
 .byte   W96
@  #02 @046   ----------------------------------------
 .byte   N17 ,En4
 .byte   W18
 .byte   N36 ,Fs4 ,v053 ,gtp2
 .byte   W42
 .byte   N20 ,An4
 .byte   W24
 .byte   N11 ,Gs4
 .byte   W12
@  #02 @047   ----------------------------------------
 .byte   N52 ,Cs4
 .byte   W60
 .byte   N17 ,An3
 .byte   W18
 .byte   Cs4
 .byte   W18
@  #02 @048   ----------------------------------------
 .byte   N56 ,Fs3
 .byte   W60
 .byte   N17 ,Fs4
 .byte   W18
 .byte   Cs4
 .byte   W18
@  #02 @049   ----------------------------------------
 .byte   En4
 .byte   W18
 .byte   Gs4
 .byte   W18
 .byte   N52 ,Cs4
 .byte   W42
 .byte   N17 ,An4
 .byte   W18
@  #02 @050   ----------------------------------------
 .byte   Gs4
 .byte   W18
 .byte   Bn4
 .byte   W18
 .byte   N32 ,Fs4 ,v053 ,gtp2
 .byte   W42
 .byte   N17 ,En4
 .byte   W18
@  #02 @051   ----------------------------------------
 .byte   Gs4
 .byte   W18
 .byte   N44 ,Cs4 ,v053 ,gtp3
 .byte   W60
 .byte   N17 ,En4
 .byte   W18
@  #02 @052   ----------------------------------------
 .byte   PATT
  .word Label_0100403F
@  #02 @053   ----------------------------------------
Label_01004155:
 .byte   N17 ,Gs3 ,v053
 .byte   W18
 .byte   N40 ,Cs3 ,v053 ,gtp1
 .byte   W42
 .byte   N17 ,Fs3
 .byte   W18
 .byte   Gs3
 .byte   W18
 .byte   PEND 
@  #02 @054   ----------------------------------------
 .byte   PATT
  .word Label_01004002
@  #02 @055   ----------------------------------------
 .byte   N90 ,Cs3 ,v053
 .byte   W96
@  #02 @056   ----------------------------------------
 .byte   PATT
  .word Label_01003FEB
@  #02 @057   ----------------------------------------
 .byte   PATT
  .word Label_01004022
@  #02 @058   ----------------------------------------
 .byte   N17 ,En3 ,v053
 .byte   W18
 .byte   Fs3
 .byte   W18
 .byte   N44
 .byte   W48
 .byte   N11 ,En3
 .byte   W12
@  #02 @059   ----------------------------------------
 .byte   N90 ,Fs3
 .byte   W96
@  #02 @060   ----------------------------------------
 .byte   PATT
  .word Label_01004063
@  #02 @061   ----------------------------------------
 .byte   PATT
  .word Label_01004155
@  #02 @062   ----------------------------------------
 .byte   PATT
  .word Label_01004002
@  #02 @063   ----------------------------------------
 .byte   N90 ,Cs3 ,v053
 .byte   W96
@  #02 @064   ----------------------------------------
 .byte   PATT
  .word Label_01004015
@  #02 @065   ----------------------------------------
 .byte   PATT
  .word Label_01004022
@  #02 @066   ----------------------------------------
 .byte   PATT
  .word Label_01004030
@  #02 @067   ----------------------------------------
 .byte   N90 ,Fs3 ,v053
 .byte   W96
@  #02 @068   ----------------------------------------
 .byte   W96
@  #02 @069   ----------------------------------------
 .byte   W96
@  #02 @070   ----------------------------------------
 .byte   W96
@  #02 @071   ----------------------------------------
 .byte   PATT
  .word Label_01004089
@  #02 @072   ----------------------------------------
 .byte   PATT
  .word Label_010040BA
@  #02 @073   ----------------------------------------
 .byte   N17 ,Gs4 ,v053
 .byte   W18
 .byte   N42 ,Cs4
 .byte   W54
 .byte   N11
 .byte   W12
 .byte   En4
 .byte   W12
@  #02 @074   ----------------------------------------
 .byte   N17 ,Gs4
 .byte   W18
 .byte   N44 ,Cs4 ,v053 ,gtp3
 .byte   W60
 .byte   N17 ,Fs4
 .byte   W18
@  #02 @075   ----------------------------------------
 .byte   Gs4
 .byte   W18
 .byte   N56 ,Cs4 ,v053 ,gtp2
 .byte   W78
@  #02 @076   ----------------------------------------
Label_010041D5:
 .byte   N17 ,Gs4 ,v053
 .byte   W18
 .byte   N52 ,Cs4 ,v053 ,gtp1
 .byte   W60
 .byte   N17 ,Fs4
 .byte   W18
 .byte   PEND 
@  #02 @077   ----------------------------------------
 .byte   PATT
  .word Label_0100409C
@  #02 @078   ----------------------------------------
 .byte   N17 ,Gs4 ,v053
 .byte   W18
 .byte   N54 ,Cs4 ,v053 ,gtp1
 .byte   W60
 .byte   N17 ,Fs4
 .byte   W18
@  #02 @079   ----------------------------------------
 .byte   Gs4
 .byte   W18
 .byte   N64 ,Cs4
 .byte   W78
@  #02 @080   ----------------------------------------
 .byte   N17 ,Gs4
 .byte   W18
 .byte   N56 ,Cs4 ,v053 ,gtp1
 .byte   W60
 .byte   N17 ,Fs4
 .byte   W18
@  #02 @081   ----------------------------------------
 .byte   PATT
  .word Label_010040E8
@  #02 @082   ----------------------------------------
 .byte   PATT
  .word Label_010041D5
@  #02 @083   ----------------------------------------
 .byte   N17 ,Gs4 ,v053
 .byte   W18
 .byte   N54 ,Cs4
 .byte   W78
@  #02 @084   ----------------------------------------
 .byte   W96
@  #02 @085   ----------------------------------------
 .byte   W96
@  #02 @086   ----------------------------------------
 .byte   W96
@  #02 @087   ----------------------------------------
 .byte   W96
@  #02 @088   ----------------------------------------
 .byte   GOTO
  .word Label_01003F9C
@  #02 @089   ----------------------------------------
 .byte   W96
 .byte   FINE

@**************** Track 3 (Midi-Chn.2) ****************@

song02_003:
@  #03 @000   ----------------------------------------
 .byte   KEYSH , song02_key+0
 .byte   VOICE , 124
 .byte   VOL , 65*song02_mvl/mxv
 .byte   BENDR, 12
 .byte   W96
@  #03 @001   ----------------------------------------
 .byte   W96
@  #03 @002   ----------------------------------------
Label_0100302E:
 .byte   W96
@  #03 @003   ----------------------------------------
 .byte   W96
@  #03 @004   ----------------------------------------
 .byte   W96
@  #03 @005   ----------------------------------------
 .byte   W96
@  #03 @006   ----------------------------------------
Label_01003032:
 .byte   N12 ,Dn2 ,v127
 .byte   N12 ,Cn1
 .byte   W12
 .byte   Dn2
 .byte   N12 ,Cn1
 .byte   W12
 .byte   Dn2
 .byte   N10 ,En1
 .byte   W12
 .byte   N09 ,Dn2
 .byte   W09
 .byte   N03 ,Cn1
 .byte   W03
 .byte   N12 ,Dn2
 .byte   N12 ,Cn1
 .byte   W12
 .byte   Dn2
 .byte   N12 ,Cn1
 .byte   W12
 .byte   Dn2
 .byte   N10 ,En1
 .byte   W12
 .byte   N09 ,Dn2
 .byte   W09
 .byte   N03 ,Cn1
 .byte   W03
 .byte   PEND 
@  #03 @007   ----------------------------------------
 .byte   PATT
  .word Label_01003032
@  #03 @008   ----------------------------------------
 .byte   PATT
  .word Label_01003032
@  #03 @009   ----------------------------------------
 .byte   PATT
  .word Label_01003032
@  #03 @010   ----------------------------------------
 .byte   PATT
  .word Label_01003032
@  #03 @011   ----------------------------------------
 .byte   PATT
  .word Label_01003032
@  #03 @012   ----------------------------------------
 .byte   PATT
  .word Label_01003032
@  #03 @013   ----------------------------------------
 .byte   PATT
  .word Label_01003032
@  #03 @014   ----------------------------------------
 .byte   PATT
  .word Label_01003032
@  #03 @015   ----------------------------------------
 .byte   PATT
  .word Label_01003032
@  #03 @016   ----------------------------------------
 .byte   PATT
  .word Label_01003032
@  #03 @017   ----------------------------------------
 .byte   PATT
  .word Label_01003032
@  #03 @018   ----------------------------------------
 .byte   PATT
  .word Label_01003032
@  #03 @019   ----------------------------------------
 .byte   PATT
  .word Label_01003032
@  #03 @020   ----------------------------------------
 .byte   PATT
  .word Label_01003032
@  #03 @021   ----------------------------------------
 .byte   PATT
  .word Label_01003032
@  #03 @022   ----------------------------------------
 .byte   PATT
  .word Label_01003032
@  #03 @023   ----------------------------------------
 .byte   PATT
  .word Label_01003032
@  #03 @024   ----------------------------------------
 .byte   PATT
  .word Label_01003032
@  #03 @025   ----------------------------------------
Label_010030B4:
 .byte   N12 ,Dn2 ,v127
 .byte   N12 ,Cn1
 .byte   W12
 .byte   Dn2
 .byte   N12 ,Cn1
 .byte   W12
 .byte   Dn2
 .byte   N10 ,En1
 .byte   W12
 .byte   N09 ,Dn2
 .byte   W09
 .byte   N03 ,Cn1
 .byte   W03
 .byte   N12 ,Dn2
 .byte   N12 ,Cn1
 .byte   W12
 .byte   Dn2
 .byte   N12 ,Cn1
 .byte   W12
 .byte   Dn2
 .byte   N10 ,En1
 .byte   W12
 .byte   N12 ,Dn2
 .byte   W12
 .byte   PEND 
@  #03 @026   ----------------------------------------
 .byte   N90 ,An2
 .byte   W96
@  #03 @027   ----------------------------------------
 .byte   W96
@  #03 @028   ----------------------------------------
 .byte   W96
@  #03 @029   ----------------------------------------
 .byte   W96
@  #03 @030   ----------------------------------------
 .byte   W96
@  #03 @031   ----------------------------------------
 .byte   W96
@  #03 @032   ----------------------------------------
 .byte   W96
@  #03 @033   ----------------------------------------
 .byte   W96
@  #03 @034   ----------------------------------------
 .byte   PATT
  .word Label_01003032
@  #03 @035   ----------------------------------------
 .byte   PATT
  .word Label_01003032
@  #03 @036   ----------------------------------------
 .byte   PATT
  .word Label_01003032
@  #03 @037   ----------------------------------------
 .byte   PATT
  .word Label_01003032
@  #03 @038   ----------------------------------------
 .byte   PATT
  .word Label_01003032
@  #03 @039   ----------------------------------------
 .byte   PATT
  .word Label_01003032
@  #03 @040   ----------------------------------------
 .byte   PATT
  .word Label_01003032
@  #03 @041   ----------------------------------------
Label_01003106:
 .byte   N12 ,Dn2 ,v127
 .byte   N12 ,Cn1
 .byte   W12
 .byte   Dn2
 .byte   N12 ,Cn1
 .byte   W12
 .byte   Dn2
 .byte   N10 ,En1
 .byte   W12
 .byte   N09 ,Dn2
 .byte   W09
 .byte   N03 ,Cn1
 .byte   W03
 .byte   N12 ,Dn2
 .byte   N12 ,Cn1
 .byte   W12
 .byte   Dn2
 .byte   N12 ,Cn1
 .byte   W12
 .byte   Dn2
 .byte   N10 ,En1
 .byte   W12
 .byte   N11 ,Dn2
 .byte   W12
 .byte   PEND 
@  #03 @042   ----------------------------------------
 .byte   W96
@  #03 @043   ----------------------------------------
 .byte   W96
@  #03 @044   ----------------------------------------
 .byte   W96
@  #03 @045   ----------------------------------------
 .byte   W96
@  #03 @046   ----------------------------------------
 .byte   W96
@  #03 @047   ----------------------------------------
 .byte   W96
@  #03 @048   ----------------------------------------
 .byte   PATT
  .word Label_01003032
@  #03 @049   ----------------------------------------
 .byte   PATT
  .word Label_01003032
@  #03 @050   ----------------------------------------
 .byte   PATT
  .word Label_01003032
@  #03 @051   ----------------------------------------
 .byte   PATT
  .word Label_01003032
@  #03 @052   ----------------------------------------
 .byte   PATT
  .word Label_01003032
@  #03 @053   ----------------------------------------
 .byte   PATT
  .word Label_01003032
@  #03 @054   ----------------------------------------
 .byte   PATT
  .word Label_01003032
@  #03 @055   ----------------------------------------
 .byte   PATT
  .word Label_01003032
@  #03 @056   ----------------------------------------
 .byte   PATT
  .word Label_01003032
@  #03 @057   ----------------------------------------
 .byte   PATT
  .word Label_01003032
@  #03 @058   ----------------------------------------
 .byte   PATT
  .word Label_01003032
@  #03 @059   ----------------------------------------
 .byte   PATT
  .word Label_01003032
@  #03 @060   ----------------------------------------
 .byte   PATT
  .word Label_01003032
@  #03 @061   ----------------------------------------
 .byte   PATT
  .word Label_01003032
@  #03 @062   ----------------------------------------
 .byte   PATT
  .word Label_01003032
@  #03 @063   ----------------------------------------
 .byte   PATT
  .word Label_01003032
@  #03 @064   ----------------------------------------
 .byte   PATT
  .word Label_01003032
@  #03 @065   ----------------------------------------
 .byte   PATT
  .word Label_01003032
@  #03 @066   ----------------------------------------
 .byte   PATT
  .word Label_01003032
@  #03 @067   ----------------------------------------
 .byte   PATT
  .word Label_010030B4
@  #03 @068   ----------------------------------------
 .byte   N90 ,An2 ,v127
 .byte   W96
@  #03 @069   ----------------------------------------
 .byte   W96
@  #03 @070   ----------------------------------------
 .byte   W96
@  #03 @071   ----------------------------------------
 .byte   W96
@  #03 @072   ----------------------------------------
 .byte   W96
@  #03 @073   ----------------------------------------
 .byte   W96
@  #03 @074   ----------------------------------------
 .byte   W96
@  #03 @075   ----------------------------------------
 .byte   W96
@  #03 @076   ----------------------------------------
 .byte   PATT
  .word Label_01003032
@  #03 @077   ----------------------------------------
 .byte   PATT
  .word Label_01003032
@  #03 @078   ----------------------------------------
 .byte   PATT
  .word Label_01003032
@  #03 @079   ----------------------------------------
 .byte   PATT
  .word Label_01003032
@  #03 @080   ----------------------------------------
 .byte   PATT
  .word Label_01003032
@  #03 @081   ----------------------------------------
 .byte   PATT
  .word Label_01003032
@  #03 @082   ----------------------------------------
 .byte   PATT
  .word Label_01003032
@  #03 @083   ----------------------------------------
 .byte   PATT
  .word Label_01003106
@  #03 @084   ----------------------------------------
 .byte   W96
@  #03 @085   ----------------------------------------
 .byte   W96
@  #03 @086   ----------------------------------------
 .byte   W96
@  #03 @087   ----------------------------------------
 .byte   W96
@  #03 @088   ----------------------------------------
 .byte   GOTO
  .word Label_0100302E
@  #03 @089   ----------------------------------------
 .byte   W96
 .byte   FINE

@**************** Track 4 (Midi-Chn.3) ****************@

song02_004:
@  #04 @000   ----------------------------------------
 .byte   KEYSH , song02_key+0
 .byte   VOICE , 49
 .byte   VOL , 69*song02_mvl/mxv
 .byte   PAN , c_v+39
 .byte   N66 ,Cs3 ,v036
 .byte   N66 ,An2
 .byte   N66 ,Fs2
 .byte   BENDR, 12
 .byte   W96
@  #04 @001   ----------------------------------------
Label_01004242:
 .byte   N66 ,Cs3 ,v036
 .byte   N66 ,An2
 .byte   N66 ,Fs2
 .byte   W96
 .byte   PEND 
@  #04 @002   ----------------------------------------
Label_0100424B:
 .byte   N66 ,Cs3 ,v036
 .byte   N66 ,An2
 .byte   N66 ,Fs2
 .byte   W96
@  #04 @003   ----------------------------------------
 .byte   PATT
  .word Label_01004242
@  #04 @004   ----------------------------------------
 .byte   PATT
  .word Label_01004242
@  #04 @005   ----------------------------------------
 .byte   PATT
  .word Label_01004242
@  #04 @006   ----------------------------------------
 .byte   PATT
  .word Label_01004242
@  #04 @007   ----------------------------------------
 .byte   PATT
  .word Label_01004242
@  #04 @008   ----------------------------------------
 .byte   PATT
  .word Label_01004242
@  #04 @009   ----------------------------------------
 .byte   PATT
  .word Label_01004242
@  #04 @010   ----------------------------------------
 .byte   PATT
  .word Label_01004242
@  #04 @011   ----------------------------------------
 .byte   PATT
  .word Label_01004242
@  #04 @012   ----------------------------------------
 .byte   PATT
  .word Label_01004242
@  #04 @013   ----------------------------------------
 .byte   PATT
  .word Label_01004242
@  #04 @014   ----------------------------------------
 .byte   PATT
  .word Label_01004242
@  #04 @015   ----------------------------------------
 .byte   PATT
  .word Label_01004242
@  #04 @016   ----------------------------------------
 .byte   PATT
  .word Label_01004242
@  #04 @017   ----------------------------------------
 .byte   PATT
  .word Label_01004242
@  #04 @018   ----------------------------------------
 .byte   PATT
  .word Label_01004242
@  #04 @019   ----------------------------------------
 .byte   PATT
  .word Label_01004242
@  #04 @020   ----------------------------------------
 .byte   PATT
  .word Label_01004242
@  #04 @021   ----------------------------------------
 .byte   PATT
  .word Label_01004242
@  #04 @022   ----------------------------------------
 .byte   PATT
  .word Label_01004242
@  #04 @023   ----------------------------------------
 .byte   PATT
  .word Label_01004242
@  #04 @024   ----------------------------------------
 .byte   PATT
  .word Label_01004242
@  #04 @025   ----------------------------------------
 .byte   PATT
  .word Label_01004242
@  #04 @026   ----------------------------------------
Label_010042C6:
 .byte   N90 ,Fs4 ,v036
 .byte   N90 ,Dn4
 .byte   N90 ,Cs4
 .byte   N90 ,An3
 .byte   W96
 .byte   PEND 
@  #04 @027   ----------------------------------------
Label_010042D1:
 .byte   N90 ,Gs3 ,v036
 .byte   N90 ,En3
 .byte   N90 ,Cs3
 .byte   W96
 .byte   PEND 
@  #04 @028   ----------------------------------------
 .byte   PATT
  .word Label_010042C6
@  #04 @029   ----------------------------------------
 .byte   PATT
  .word Label_010042D1
@  #04 @030   ----------------------------------------
 .byte   PATT
  .word Label_010042C6
@  #04 @031   ----------------------------------------
 .byte   PATT
  .word Label_010042D1
@  #04 @032   ----------------------------------------
 .byte   PATT
  .word Label_010042C6
@  #04 @033   ----------------------------------------
 .byte   PATT
  .word Label_010042D1
@  #04 @034   ----------------------------------------
 .byte   PATT
  .word Label_010042C6
@  #04 @035   ----------------------------------------
 .byte   PATT
  .word Label_010042D1
@  #04 @036   ----------------------------------------
 .byte   PATT
  .word Label_010042C6
@  #04 @037   ----------------------------------------
 .byte   PATT
  .word Label_010042D1
@  #04 @038   ----------------------------------------
 .byte   PATT
  .word Label_010042C6
@  #04 @039   ----------------------------------------
 .byte   PATT
  .word Label_010042D1
@  #04 @040   ----------------------------------------
 .byte   PATT
  .word Label_010042C6
@  #04 @041   ----------------------------------------
 .byte   PATT
  .word Label_010042D1
@  #04 @042   ----------------------------------------
 .byte   PATT
  .word Label_01004242
@  #04 @043   ----------------------------------------
 .byte   PATT
  .word Label_01004242
@  #04 @044   ----------------------------------------
 .byte   PATT
  .word Label_01004242
@  #04 @045   ----------------------------------------
 .byte   PATT
  .word Label_01004242
@  #04 @046   ----------------------------------------
 .byte   PATT
  .word Label_01004242
@  #04 @047   ----------------------------------------
 .byte   PATT
  .word Label_01004242
@  #04 @048   ----------------------------------------
 .byte   PATT
  .word Label_01004242
@  #04 @049   ----------------------------------------
 .byte   PATT
  .word Label_01004242
@  #04 @050   ----------------------------------------
 .byte   PATT
  .word Label_01004242
@  #04 @051   ----------------------------------------
 .byte   PATT
  .word Label_01004242
@  #04 @052   ----------------------------------------
 .byte   PATT
  .word Label_01004242
@  #04 @053   ----------------------------------------
 .byte   PATT
  .word Label_01004242
@  #04 @054   ----------------------------------------
 .byte   PATT
  .word Label_01004242
@  #04 @055   ----------------------------------------
 .byte   PATT
  .word Label_01004242
@  #04 @056   ----------------------------------------
 .byte   PATT
  .word Label_01004242
@  #04 @057   ----------------------------------------
 .byte   PATT
  .word Label_01004242
@  #04 @058   ----------------------------------------
 .byte   PATT
  .word Label_01004242
@  #04 @059   ----------------------------------------
 .byte   PATT
  .word Label_01004242
@  #04 @060   ----------------------------------------
 .byte   PATT
  .word Label_01004242
@  #04 @061   ----------------------------------------
 .byte   PATT
  .word Label_01004242
@  #04 @062   ----------------------------------------
 .byte   PATT
  .word Label_01004242
@  #04 @063   ----------------------------------------
 .byte   PATT
  .word Label_01004242
@  #04 @064   ----------------------------------------
 .byte   PATT
  .word Label_01004242
@  #04 @065   ----------------------------------------
 .byte   PATT
  .word Label_01004242
@  #04 @066   ----------------------------------------
 .byte   PATT
  .word Label_01004242
@  #04 @067   ----------------------------------------
 .byte   PATT
  .word Label_01004242
@  #04 @068   ----------------------------------------
 .byte   PATT
  .word Label_010042C6
@  #04 @069   ----------------------------------------
 .byte   PATT
  .word Label_010042D1
@  #04 @070   ----------------------------------------
 .byte   PATT
  .word Label_010042C6
@  #04 @071   ----------------------------------------
 .byte   PATT
  .word Label_010042D1
@  #04 @072   ----------------------------------------
 .byte   PATT
  .word Label_010042C6
@  #04 @073   ----------------------------------------
 .byte   PATT
  .word Label_010042D1
@  #04 @074   ----------------------------------------
 .byte   PATT
  .word Label_010042C6
@  #04 @075   ----------------------------------------
 .byte   PATT
  .word Label_010042D1
@  #04 @076   ----------------------------------------
 .byte   PATT
  .word Label_010042C6
@  #04 @077   ----------------------------------------
 .byte   PATT
  .word Label_010042D1
@  #04 @078   ----------------------------------------
 .byte   PATT
  .word Label_010042C6
@  #04 @079   ----------------------------------------
 .byte   PATT
  .word Label_010042D1
@  #04 @080   ----------------------------------------
 .byte   PATT
  .word Label_010042C6
@  #04 @081   ----------------------------------------
 .byte   PATT
  .word Label_010042D1
@  #04 @082   ----------------------------------------
 .byte   PATT
  .word Label_010042C6
@  #04 @083   ----------------------------------------
 .byte   PATT
  .word Label_010042D1
@  #04 @084   ----------------------------------------
 .byte   PATT
  .word Label_01004242
@  #04 @085   ----------------------------------------
 .byte   PATT
  .word Label_01004242
@  #04 @086   ----------------------------------------
 .byte   PATT
  .word Label_01004242
@  #04 @087   ----------------------------------------
 .byte   PATT
  .word Label_01004242
@  #04 @088   ----------------------------------------
 .byte   GOTO
  .word Label_0100424B
@  #04 @089   ----------------------------------------
 .byte   W96
 .byte   FINE

@**************** Track 5 (Midi-Chn.4) ****************@

song02_005:
@  #05 @000   ----------------------------------------
 .byte   KEYSH , song02_key+0
 .byte   VOICE , 4
 .byte   VOL , 77*song02_mvl/mxv
 .byte   PAN , c_v-32
 .byte   BENDR, 12
 .byte   W96
@  #05 @001   ----------------------------------------
 .byte   W96
@  #05 @002   ----------------------------------------
Label_01025B9C:
 .byte   N17 ,En4 ,v053
 .byte   W18
 .byte   N20 ,Cs4
 .byte   W60
 .byte   N17 ,An4
 .byte   W18
@  #05 @003   ----------------------------------------
 .byte   N90 ,Fs4
 .byte   W96
@  #05 @004   ----------------------------------------
Label_01025BA9:
 .byte   N17 ,En4 ,v053
 .byte   W18
 .byte   N20 ,Fs4
 .byte   W42
 .byte   An4
 .byte   W24
 .byte   N11 ,Gs4
 .byte   W12
 .byte   PEND 
@  #05 @005   ----------------------------------------
Label_01025BB6:
 .byte   N42 ,Cs4 ,v053
 .byte   W60
 .byte   N17 ,An3
 .byte   W18
 .byte   Cs4
 .byte   W18
 .byte   PEND 
@  #05 @006   ----------------------------------------
 .byte   PATT
  .word Label_01003FBF
@  #05 @007   ----------------------------------------
Label_01025BC5:
 .byte   N17 ,En4 ,v053
 .byte   W18
 .byte   Gs4
 .byte   W18
 .byte   N20 ,Cs4
 .byte   W42
 .byte   N17 ,An4
 .byte   W18
 .byte   PEND 
@  #05 @008   ----------------------------------------
Label_01025BD2:
 .byte   N17 ,Gs4 ,v053
 .byte   W18
 .byte   Bn4
 .byte   W18
 .byte   N20 ,Fs4
 .byte   W42
 .byte   N17 ,En4
 .byte   W18
 .byte   PEND 
@  #05 @009   ----------------------------------------
Label_01025BDF:
 .byte   N17 ,Gs4 ,v053
 .byte   W18
 .byte   N20 ,Cs4
 .byte   W60
 .byte   N17 ,En4
 .byte   W18
 .byte   PEND 
@  #05 @010   ----------------------------------------
 .byte   PATT
  .word Label_01003FEB
@  #05 @011   ----------------------------------------
Label_01025BEF:
 .byte   N17 ,Gs3 ,v053
 .byte   W18
 .byte   N20 ,Cs3
 .byte   W42
 .byte   N17 ,Fs3
 .byte   W18
 .byte   Gs3
 .byte   W18
 .byte   PEND 
@  #05 @012   ----------------------------------------
 .byte   PATT
  .word Label_01004002
@  #05 @013   ----------------------------------------
 .byte   N90 ,Cs3 ,v053
 .byte   W96
@  #05 @014   ----------------------------------------
 .byte   PATT
  .word Label_01003FEB
@  #05 @015   ----------------------------------------
 .byte   PATT
  .word Label_01004022
@  #05 @016   ----------------------------------------
Label_01025C0F:
 .byte   N17 ,En3 ,v053
 .byte   W18
 .byte   Fs3
 .byte   W18
 .byte   N20
 .byte   W48
 .byte   N11 ,En3
 .byte   W12
 .byte   PEND 
@  #05 @017   ----------------------------------------
 .byte   N90 ,Fs3
 .byte   W96
@  #05 @018   ----------------------------------------
 .byte   PATT
  .word Label_01003FEB
@  #05 @019   ----------------------------------------
 .byte   PATT
  .word Label_01025BEF
@  #05 @020   ----------------------------------------
 .byte   PATT
  .word Label_01004002
@  #05 @021   ----------------------------------------
 .byte   N90 ,Cs3 ,v053
 .byte   W96
@  #05 @022   ----------------------------------------
 .byte   PATT
  .word Label_01003FEB
@  #05 @023   ----------------------------------------
 .byte   PATT
  .word Label_01004022
@  #05 @024   ----------------------------------------
 .byte   PATT
  .word Label_01025C0F
@  #05 @025   ----------------------------------------
 .byte   N90 ,Fs3 ,v053
 .byte   W96
@  #05 @026   ----------------------------------------
 .byte   W96
@  #05 @027   ----------------------------------------
 .byte   W96
@  #05 @028   ----------------------------------------
 .byte   W96
@  #05 @029   ----------------------------------------
 .byte   PATT
  .word Label_01004089
@  #05 @030   ----------------------------------------
Label_01025C4C:
 .byte   N17 ,Gs4 ,v053
 .byte   W18
 .byte   N20 ,Cs4
 .byte   W60
 .byte   N17 ,Fs4
 .byte   W18
 .byte   PEND 
@  #05 @031   ----------------------------------------
Label_01025C57:
 .byte   N17 ,Gs4 ,v053
 .byte   W18
 .byte   N32 ,Cs4
 .byte   W54
 .byte   N11
 .byte   W12
 .byte   En4
 .byte   W12
 .byte   PEND 
@  #05 @032   ----------------------------------------
 .byte   PATT
  .word Label_01025C4C
@  #05 @033   ----------------------------------------
 .byte   PATT
  .word Label_010040DB
@  #05 @034   ----------------------------------------
 .byte   PATT
  .word Label_01025C4C
@  #05 @035   ----------------------------------------
 .byte   PATT
  .word Label_01025C57
@  #05 @036   ----------------------------------------
 .byte   PATT
  .word Label_01025C4C
@  #05 @037   ----------------------------------------
 .byte   PATT
  .word Label_010040DB
@  #05 @038   ----------------------------------------
 .byte   PATT
  .word Label_01025C4C
@  #05 @039   ----------------------------------------
 .byte   PATT
  .word Label_01025C57
@  #05 @040   ----------------------------------------
 .byte   PATT
  .word Label_01025C4C
@  #05 @041   ----------------------------------------
 .byte   PATT
  .word Label_010040DB
@  #05 @042   ----------------------------------------
 .byte   W96
@  #05 @043   ----------------------------------------
 .byte   W96
@  #05 @044   ----------------------------------------
 .byte   N17 ,En4 ,v053
 .byte   W18
 .byte   N20 ,Cs4
 .byte   W60
 .byte   N17 ,An4
 .byte   W18
@  #05 @045   ----------------------------------------
 .byte   N90 ,Fs4
 .byte   W96
@  #05 @046   ----------------------------------------
 .byte   PATT
  .word Label_01025BA9
@  #05 @047   ----------------------------------------
 .byte   PATT
  .word Label_01025BB6
@  #05 @048   ----------------------------------------
 .byte   PATT
  .word Label_01003FBF
@  #05 @049   ----------------------------------------
 .byte   PATT
  .word Label_01025BC5
@  #05 @050   ----------------------------------------
 .byte   PATT
  .word Label_01025BD2
@  #05 @051   ----------------------------------------
 .byte   PATT
  .word Label_01025BDF
@  #05 @052   ----------------------------------------
 .byte   PATT
  .word Label_01003FEB
@  #05 @053   ----------------------------------------
 .byte   PATT
  .word Label_01025BEF
@  #05 @054   ----------------------------------------
 .byte   PATT
  .word Label_01004002
@  #05 @055   ----------------------------------------
 .byte   N90 ,Cs3 ,v053
 .byte   W96
@  #05 @056   ----------------------------------------
 .byte   PATT
  .word Label_01003FEB
@  #05 @057   ----------------------------------------
 .byte   PATT
  .word Label_01004022
@  #05 @058   ----------------------------------------
 .byte   PATT
  .word Label_01025C0F
@  #05 @059   ----------------------------------------
 .byte   N90 ,Fs3 ,v053
 .byte   W96
@  #05 @060   ----------------------------------------
 .byte   PATT
  .word Label_01003FEB
@  #05 @061   ----------------------------------------
 .byte   PATT
  .word Label_01025BEF
@  #05 @062   ----------------------------------------
 .byte   PATT
  .word Label_01004002
@  #05 @063   ----------------------------------------
 .byte   N90 ,Cs3 ,v053
 .byte   W96
@  #05 @064   ----------------------------------------
 .byte   PATT
  .word Label_01003FEB
@  #05 @065   ----------------------------------------
 .byte   PATT
  .word Label_01004022
@  #05 @066   ----------------------------------------
 .byte   PATT
  .word Label_01025C0F
@  #05 @067   ----------------------------------------
 .byte   N90 ,Fs3 ,v053
 .byte   W96
@  #05 @068   ----------------------------------------
 .byte   W96
@  #05 @069   ----------------------------------------
 .byte   W96
@  #05 @070   ----------------------------------------
 .byte   W96
@  #05 @071   ----------------------------------------
 .byte   PATT
  .word Label_01004089
@  #05 @072   ----------------------------------------
 .byte   PATT
  .word Label_01025C4C
@  #05 @073   ----------------------------------------
 .byte   PATT
  .word Label_01025C57
@  #05 @074   ----------------------------------------
 .byte   PATT
  .word Label_01025C4C
@  #05 @075   ----------------------------------------
 .byte   PATT
  .word Label_010040DB
@  #05 @076   ----------------------------------------
 .byte   PATT
  .word Label_01025C4C
@  #05 @077   ----------------------------------------
 .byte   PATT
  .word Label_01025C57
@  #05 @078   ----------------------------------------
 .byte   PATT
  .word Label_01025C4C
@  #05 @079   ----------------------------------------
 .byte   PATT
  .word Label_010040DB
@  #05 @080   ----------------------------------------
 .byte   PATT
  .word Label_01025C4C
@  #05 @081   ----------------------------------------
 .byte   PATT
  .word Label_01025C57
@  #05 @082   ----------------------------------------
 .byte   PATT
  .word Label_01025C4C
@  #05 @083   ----------------------------------------
 .byte   PATT
  .word Label_010040DB
@  #05 @084   ----------------------------------------
 .byte   W96
@  #05 @085   ----------------------------------------
 .byte   W96
@  #05 @086   ----------------------------------------
 .byte   W96
@  #05 @087   ----------------------------------------
 .byte   W96
@  #05 @088   ----------------------------------------
 .byte   GOTO
  .word Label_01025B9C
@  #05 @089   ----------------------------------------
 .byte   W96
 .byte   FINE

@**************** Track 6 (Midi-Chn.5) ****************@

song02_006:
@  #06 @000   ----------------------------------------
 .byte   KEYSH , song02_key+0
 .byte   VOICE , 110
 .byte   VOL , 82*song02_mvl/mxv
 .byte   PAN , c_v-51
 .byte   BENDR, 12
 .byte   W96
@  #06 @001   ----------------------------------------
 .byte   W96
@  #06 @002   ----------------------------------------
Label_010005DC:
 .byte   W96
@  #06 @003   ----------------------------------------
 .byte   W96
@  #06 @004   ----------------------------------------
 .byte   W96
@  #06 @005   ----------------------------------------
 .byte   W96
@  #06 @006   ----------------------------------------
 .byte   W96
@  #06 @007   ----------------------------------------
 .byte   W96
@  #06 @008   ----------------------------------------
 .byte   W96
@  #06 @009   ----------------------------------------
 .byte   W96
@  #06 @010   ----------------------------------------
Label_010005E4:
 .byte   N90 ,En4 ,v023
 .byte   TIE ,An3
 .byte   W96
 .byte   PEND 
@  #06 @011   ----------------------------------------
 .byte   N90 ,Ds4
 .byte   W96
@  #06 @012   ----------------------------------------
 .byte   TIE ,Cs4
 .byte   W96
@  #06 @013   ----------------------------------------
 .byte   W90
 .byte   EOT
 .byte   W06
@  #06 @014   ----------------------------------------
 .byte   N90 ,En4
 .byte   W96
@  #06 @015   ----------------------------------------
 .byte   Ds4
 .byte   W96
@  #06 @016   ----------------------------------------
 .byte   TIE ,Cs4
 .byte   W96
@  #06 @017   ----------------------------------------
 .byte   W90
 .byte   EOT
 .byte   W06
@  #06 @018   ----------------------------------------
 .byte   N90 ,En4
 .byte   W96
@  #06 @019   ----------------------------------------
 .byte   Ds4
 .byte   W96
@  #06 @020   ----------------------------------------
 .byte   TIE ,Cs4
 .byte   W96
@  #06 @021   ----------------------------------------
 .byte   W90
 .byte   EOT
 .byte   W06
@  #06 @022   ----------------------------------------
 .byte   N90 ,En4
 .byte   W96
@  #06 @023   ----------------------------------------
 .byte   Ds4
 .byte   W96
@  #06 @024   ----------------------------------------
 .byte   TIE ,Cs4
 .byte   W96
@  #06 @025   ----------------------------------------
Label_01000612:
 .byte   W90
 .byte   EOT
 .byte   Cs4 ,v069
 .byte   W06
 .byte   PEND 
@  #06 @026   ----------------------------------------
 .byte   W96
@  #06 @027   ----------------------------------------
 .byte   W96
@  #06 @028   ----------------------------------------
 .byte   W96
@  #06 @029   ----------------------------------------
 .byte   W96
@  #06 @030   ----------------------------------------
 .byte   W96
@  #06 @031   ----------------------------------------
 .byte   W96
@  #06 @032   ----------------------------------------
 .byte   W96
@  #06 @033   ----------------------------------------
 .byte   W96
@  #06 @034   ----------------------------------------
 .byte   W96
@  #06 @035   ----------------------------------------
 .byte   W96
@  #06 @036   ----------------------------------------
 .byte   W96
@  #06 @037   ----------------------------------------
 .byte   W96
@  #06 @038   ----------------------------------------
 .byte   W96
@  #06 @039   ----------------------------------------
 .byte   W96
@  #06 @040   ----------------------------------------
 .byte   W96
@  #06 @041   ----------------------------------------
 .byte   W96
@  #06 @042   ----------------------------------------
 .byte   W96
@  #06 @043   ----------------------------------------
 .byte   W96
@  #06 @044   ----------------------------------------
 .byte   W96
@  #06 @045   ----------------------------------------
 .byte   W96
@  #06 @046   ----------------------------------------
 .byte   W96
@  #06 @047   ----------------------------------------
 .byte   W96
@  #06 @048   ----------------------------------------
 .byte   W96
@  #06 @049   ----------------------------------------
 .byte   W96
@  #06 @050   ----------------------------------------
 .byte   W96
@  #06 @051   ----------------------------------------
 .byte   W96
@  #06 @052   ----------------------------------------
 .byte   PATT
  .word Label_010005E4
@  #06 @053   ----------------------------------------
 .byte   N90 ,Ds4 ,v023
 .byte   W96
@  #06 @054   ----------------------------------------
 .byte   TIE ,Cs4
 .byte   W96
@  #06 @055   ----------------------------------------
 .byte   W90
 .byte   EOT
 .byte   W06
@  #06 @056   ----------------------------------------
 .byte   N90 ,En4
 .byte   W96
@  #06 @057   ----------------------------------------
 .byte   Ds4
 .byte   W96
@  #06 @058   ----------------------------------------
 .byte   TIE ,Cs4
 .byte   W96
@  #06 @059   ----------------------------------------
 .byte   W90
 .byte   EOT
 .byte   W06
@  #06 @060   ----------------------------------------
 .byte   N90 ,En4
 .byte   W96
@  #06 @061   ----------------------------------------
 .byte   Ds4
 .byte   W96
@  #06 @062   ----------------------------------------
 .byte   TIE ,Cs4
 .byte   W96
@  #06 @063   ----------------------------------------
 .byte   W90
 .byte   EOT
 .byte   W06
@  #06 @064   ----------------------------------------
 .byte   N90 ,En4
 .byte   W96
@  #06 @065   ----------------------------------------
 .byte   Ds4
 .byte   W96
@  #06 @066   ----------------------------------------
 .byte   TIE ,Cs4
 .byte   W96
@  #06 @067   ----------------------------------------
 .byte   PATT
  .word Label_01000612
@  #06 @068   ----------------------------------------
 .byte   W96
@  #06 @069   ----------------------------------------
 .byte   W96
@  #06 @070   ----------------------------------------
 .byte   W96
@  #06 @071   ----------------------------------------
 .byte   W96
@  #06 @072   ----------------------------------------
 .byte   W96
@  #06 @073   ----------------------------------------
 .byte   W96
@  #06 @074   ----------------------------------------
 .byte   W96
@  #06 @075   ----------------------------------------
 .byte   W96
@  #06 @076   ----------------------------------------
 .byte   W96
@  #06 @077   ----------------------------------------
 .byte   W96
@  #06 @078   ----------------------------------------
 .byte   W96
@  #06 @079   ----------------------------------------
 .byte   W96
@  #06 @080   ----------------------------------------
 .byte   W96
@  #06 @081   ----------------------------------------
 .byte   W96
@  #06 @082   ----------------------------------------
 .byte   W96
@  #06 @083   ----------------------------------------
 .byte   W96
@  #06 @084   ----------------------------------------
 .byte   W96
@  #06 @085   ----------------------------------------
 .byte   W96
@  #06 @086   ----------------------------------------
 .byte   W96
@  #06 @087   ----------------------------------------
 .byte   W96
@  #06 @088   ----------------------------------------
 .byte   GOTO
  .word Label_010005DC
@  #06 @089   ----------------------------------------
 .byte   W96
 .byte   FINE

@**************** Track 7 (Midi-Chn.6) ****************@

song02_007:
@  #07 @000   ----------------------------------------
 .byte   KEYSH , song02_key+0
 .byte   VOICE , 29
 .byte   VOL , 68*song02_mvl/mxv
 .byte   PAN , c_v+31
 .byte   BENDR, 12
 .byte   W96
@  #07 @001   ----------------------------------------
 .byte   W96
@  #07 @002   ----------------------------------------
Label_01025E64:
 .byte   W96
@  #07 @003   ----------------------------------------
 .byte   W96
@  #07 @004   ----------------------------------------
 .byte   W96
@  #07 @005   ----------------------------------------
 .byte   W96
@  #07 @006   ----------------------------------------
 .byte   W96
@  #07 @007   ----------------------------------------
 .byte   W96
@  #07 @008   ----------------------------------------
 .byte   W96
@  #07 @009   ----------------------------------------
 .byte   W96
@  #07 @010   ----------------------------------------
 .byte   W96
@  #07 @011   ----------------------------------------
 .byte   W96
@  #07 @012   ----------------------------------------
 .byte   W96
@  #07 @013   ----------------------------------------
 .byte   W96
@  #07 @014   ----------------------------------------
 .byte   W96
@  #07 @015   ----------------------------------------
 .byte   W96
@  #07 @016   ----------------------------------------
 .byte   W96
@  #07 @017   ----------------------------------------
 .byte   W96
@  #07 @018   ----------------------------------------
Label_01025E74:
 .byte   N80 ,Cs2 ,v127 ,gtp3
 .byte   W84
 .byte   N11 ,En2
 .byte   W12
 .byte   PEND 
@  #07 @019   ----------------------------------------
 .byte   N90 ,Fs2
 .byte   W96
@  #07 @020   ----------------------------------------
 .byte   PATT
  .word Label_01025E74
@  #07 @021   ----------------------------------------
 .byte   N90 ,Fs2 ,v127
 .byte   W96
@  #07 @022   ----------------------------------------
 .byte   PATT
  .word Label_01025E74
@  #07 @023   ----------------------------------------
 .byte   N90 ,Fs2 ,v127
 .byte   W96
@  #07 @024   ----------------------------------------
 .byte   PATT
  .word Label_01025E74
@  #07 @025   ----------------------------------------
 .byte   N90 ,Fs2 ,v127
 .byte   W96
@  #07 @026   ----------------------------------------
 .byte   W96
@  #07 @027   ----------------------------------------
 .byte   W96
@  #07 @028   ----------------------------------------
 .byte   W96
@  #07 @029   ----------------------------------------
 .byte   W96
@  #07 @030   ----------------------------------------
 .byte   PATT
  .word Label_01025E74
@  #07 @031   ----------------------------------------
 .byte   N90 ,Fs2 ,v127
 .byte   W96
@  #07 @032   ----------------------------------------
 .byte   PATT
  .word Label_01025E74
@  #07 @033   ----------------------------------------
Label_01025EAD:
 .byte   N66 ,Fs2 ,v127
 .byte   W72
 .byte   N11 ,Cs3
 .byte   W12
 .byte   En3
 .byte   W12
 .byte   PEND 
@  #07 @034   ----------------------------------------
Label_01025EB7:
 .byte   N17 ,Gs3 ,v127
 .byte   W18
 .byte   Fs3
 .byte   W18
 .byte   N32 ,En3
 .byte   W42
 .byte   N17 ,Fs3
 .byte   W18
 .byte   PEND 
@  #07 @035   ----------------------------------------
Label_01025EC4:
 .byte   N66 ,Cs3 ,v127
 .byte   W72
 .byte   N11
 .byte   W12
 .byte   En3
 .byte   W12
 .byte   PEND 
@  #07 @036   ----------------------------------------
 .byte   PATT
  .word Label_01025EB7
@  #07 @037   ----------------------------------------
Label_01025ED2:
 .byte   N42 ,Cs3 ,v127
 .byte   W60
 .byte   N17 ,An2
 .byte   W18
 .byte   Cs3
 .byte   W18
 .byte   PEND 
@  #07 @038   ----------------------------------------
 .byte   TIE ,Fs2
 .byte   W96
@  #07 @039   ----------------------------------------
Label_01025EDF:
 .byte   W42
 .byte   EOT
 .byte   Fs2
 .byte   W18
 .byte   N17 ,An2 ,v127
 .byte   W18
 .byte   Cs3
 .byte   W18
 .byte   PEND 
@  #07 @040   ----------------------------------------
 .byte   TIE ,Fs2
 .byte   W96
@  #07 @041   ----------------------------------------
 .byte   W90
 .byte   EOT
 .byte   W06
@  #07 @042   ----------------------------------------
 .byte   W96
@  #07 @043   ----------------------------------------
 .byte   W96
@  #07 @044   ----------------------------------------
 .byte   W96
@  #07 @045   ----------------------------------------
 .byte   W96
@  #07 @046   ----------------------------------------
 .byte   W96
@  #07 @047   ----------------------------------------
 .byte   W96
@  #07 @048   ----------------------------------------
 .byte   W96
@  #07 @049   ----------------------------------------
 .byte   W96
@  #07 @050   ----------------------------------------
 .byte   W96
@  #07 @051   ----------------------------------------
 .byte   W96
@  #07 @052   ----------------------------------------
 .byte   W96
@  #07 @053   ----------------------------------------
 .byte   W96
@  #07 @054   ----------------------------------------
 .byte   W96
@  #07 @055   ----------------------------------------
 .byte   W96
@  #07 @056   ----------------------------------------
 .byte   W96
@  #07 @057   ----------------------------------------
 .byte   W96
@  #07 @058   ----------------------------------------
 .byte   W96
@  #07 @059   ----------------------------------------
 .byte   W96
@  #07 @060   ----------------------------------------
 .byte   PATT
  .word Label_01025E74
@  #07 @061   ----------------------------------------
 .byte   N90 ,Fs2 ,v127
 .byte   W96
@  #07 @062   ----------------------------------------
 .byte   PATT
  .word Label_01025E74
@  #07 @063   ----------------------------------------
 .byte   N90 ,Fs2 ,v127
 .byte   W96
@  #07 @064   ----------------------------------------
 .byte   PATT
  .word Label_01025E74
@  #07 @065   ----------------------------------------
 .byte   N90 ,Fs2 ,v127
 .byte   W96
@  #07 @066   ----------------------------------------
 .byte   PATT
  .word Label_01025E74
@  #07 @067   ----------------------------------------
 .byte   N90 ,Fs2 ,v127
 .byte   W96
@  #07 @068   ----------------------------------------
 .byte   W96
@  #07 @069   ----------------------------------------
 .byte   W96
@  #07 @070   ----------------------------------------
 .byte   W96
@  #07 @071   ----------------------------------------
 .byte   W96
@  #07 @072   ----------------------------------------
 .byte   PATT
  .word Label_01025E74
@  #07 @073   ----------------------------------------
 .byte   N90 ,Fs2 ,v127
 .byte   W96
@  #07 @074   ----------------------------------------
 .byte   PATT
  .word Label_01025E74
@  #07 @075   ----------------------------------------
 .byte   PATT
  .word Label_01025EAD
@  #07 @076   ----------------------------------------
 .byte   PATT
  .word Label_01025EB7
@  #07 @077   ----------------------------------------
 .byte   PATT
  .word Label_01025EC4
@  #07 @078   ----------------------------------------
 .byte   PATT
  .word Label_01025EB7
@  #07 @079   ----------------------------------------
 .byte   PATT
  .word Label_01025ED2
@  #07 @080   ----------------------------------------
 .byte   TIE ,Fs2 ,v127
 .byte   W96
@  #07 @081   ----------------------------------------
 .byte   PATT
  .word Label_01025EDF
@  #07 @082   ----------------------------------------
 .byte   TIE ,Fs2 ,v127
 .byte   W96
@  #07 @083   ----------------------------------------
 .byte   W90
 .byte   EOT
 .byte   W06
@  #07 @084   ----------------------------------------
 .byte   W96
@  #07 @085   ----------------------------------------
 .byte   W96
@  #07 @086   ----------------------------------------
 .byte   W96
@  #07 @087   ----------------------------------------
 .byte   W96
@  #07 @088   ----------------------------------------
 .byte   GOTO
  .word Label_01025E64
@  #07 @089   ----------------------------------------
 .byte   W96
 .byte   FINE

@******************************************************@
	.align	2

song02:
	.byte	7	@ NumTrks
	.byte	0	@ NumBlks
	.byte	song02_pri	@ Priority
	.byte	song02_rev	@ Reverb.
    
	.word	song02_grp
    
	.word	song02_001
	.word	song02_002
	.word	song02_003
	.word	song02_004
	.word	song02_005
	.word	song02_006
	.word	song02_007

	.end
