	.include "MPlayDef.s"

	.equ	song02_grp, voicegroup000
	.equ	song02_pri, 0
	.equ	song02_rev, 0
	.equ	song02_mvl, 127
	.equ	song02_key, 0
	.equ	song02_tbs, 1
	.equ	song02_exg, 0
	.equ	song02_cmp, 1

	.section .rodata
	.global	song02
	.align	2


@**************** Track 1 (Midi-Chn.0) ****************@

song02_001:
@  #01 @000   ----------------------------------------
 .byte   KEYSH , song02_key+0
 .byte   TEMPO , 64*song02_tbs/2
Label_010041CC:
 .byte   VOICE , 11
 .byte   VOL , 106*song02_mvl/mxv
 .byte   BENDR, 12
 .byte   N11 ,Gn4 ,v053
 .byte   W12
 .byte   Fn4
 .byte   W12
 .byte   An3
 .byte   W12
 .byte   N56 ,En4 ,v053 ,gtp3
 .byte   W60
@  #01 @001   ----------------------------------------
 .byte   N11 ,Gn4
 .byte   W12
 .byte   Fn4
 .byte   W12
 .byte   An3
 .byte   W12
 .byte   N20 ,En4
 .byte   W36
 .byte   En4
 .byte   W24
@  #01 @002   ----------------------------------------
Label_010041EB:
 .byte   N11 ,En4 ,v053
 .byte   W12
 .byte   N20 ,Fn4
 .byte   W24
 .byte   N56 ,Dn4 ,v053 ,gtp3
 .byte   W60
 .byte   PEND 
@  #01 @003   ----------------------------------------
Label_010041F8:
 .byte   N11 ,Gn4 ,v053
 .byte   W12
 .byte   Fn4
 .byte   W12
 .byte   An3
 .byte   W12
 .byte   N20 ,En4
 .byte   W24
 .byte   N11 ,Fn4
 .byte   W12
 .byte   N20 ,An4
 .byte   W24
 .byte   PEND 
@  #01 @004   ----------------------------------------
 .byte   N11 ,Gn4
 .byte   W12
 .byte   Fn4
 .byte   W12
 .byte   An3
 .byte   W12
 .byte   N56 ,En4 ,v053 ,gtp3
 .byte   W60
@  #01 @005   ----------------------------------------
 .byte   N11 ,Gn4
 .byte   W12
 .byte   Fn4
 .byte   W12
 .byte   An3
 .byte   W12
 .byte   N20 ,En4
 .byte   W24
 .byte   N11 ,Fn4
 .byte   W12
 .byte   N20 ,En4
 .byte   W24
@  #01 @006   ----------------------------------------
 .byte   PATT
  .word Label_010041EB
@  #01 @007   ----------------------------------------
 .byte   PATT
  .word Label_010041F8
@  #01 @008   ----------------------------------------
Label_01004230:
 .byte   N12 ,Dn3 ,v053
 .byte   W12
 .byte   An3
 .byte   W12
 .byte   Dn4
 .byte   W12
 .byte   En4
 .byte   W12
 .byte   Fn4
 .byte   W12
 .byte   An4
 .byte   W12
 .byte   Dn4
 .byte   W12
 .byte   En4
 .byte   W12
 .byte   PEND 
@  #01 @009   ----------------------------------------
Label_01004243:
 .byte   N12 ,Cn3 ,v053
 .byte   W12
 .byte   An3
 .byte   W12
 .byte   Dn4
 .byte   W12
 .byte   En4
 .byte   W12
 .byte   Fn4
 .byte   W12
 .byte   An4
 .byte   W12
 .byte   Dn4
 .byte   W12
 .byte   En4
 .byte   W12
 .byte   PEND 
@  #01 @010   ----------------------------------------
Label_01004256:
 .byte   N12 ,As2 ,v053
 .byte   W12
 .byte   An3
 .byte   W12
 .byte   Dn4
 .byte   W12
 .byte   En4
 .byte   W12
 .byte   Fn4
 .byte   W12
 .byte   An4
 .byte   W12
 .byte   Dn4
 .byte   W12
 .byte   En4
 .byte   W12
 .byte   PEND 
@  #01 @011   ----------------------------------------
Label_01004269:
 .byte   N12 ,Gn2 ,v053
 .byte   W12
 .byte   An3
 .byte   W12
 .byte   Dn4
 .byte   W12
 .byte   En4
 .byte   W12
 .byte   Fn4
 .byte   W12
 .byte   An4
 .byte   W12
 .byte   Dn4
 .byte   W12
 .byte   En4
 .byte   W12
 .byte   PEND 
@  #01 @012   ----------------------------------------
 .byte   PATT
  .word Label_01004230
@  #01 @013   ----------------------------------------
 .byte   PATT
  .word Label_01004243
@  #01 @014   ----------------------------------------
 .byte   PATT
  .word Label_01004256
@  #01 @015   ----------------------------------------
 .byte   PATT
  .word Label_01004269
@  #01 @016   ----------------------------------------
Label_01004290:
 .byte   N11 ,Fn4 ,v053
 .byte   W12
 .byte   En4
 .byte   W12
 .byte   Cn4
 .byte   W12
 .byte   N20 ,Gn3
 .byte   W24
 .byte   N11 ,Cn4
 .byte   W12
 .byte   Fn4
 .byte   W12
 .byte   En4
 .byte   W12
 .byte   PEND 
@  #01 @017   ----------------------------------------
Label_010042A3:
 .byte   N11 ,Cn4 ,v053
 .byte   W12
 .byte   N20 ,Gn3
 .byte   W24
 .byte   N11 ,Cn4
 .byte   W12
 .byte   Fn4
 .byte   W12
 .byte   En4
 .byte   W12
 .byte   Cn4
 .byte   W12
 .byte   N20 ,Gn3
 .byte   W12
 .byte   PEND 
@  #01 @018   ----------------------------------------
Label_010042B7:
 .byte   W12
 .byte   N11 ,Cn4 ,v053
 .byte   W12
 .byte   Fn4
 .byte   W12
 .byte   En4
 .byte   W12
 .byte   Cn4
 .byte   W12
 .byte   N20 ,Gn3
 .byte   W24
 .byte   N11 ,Cn4
 .byte   W12
 .byte   PEND 
@  #01 @019   ----------------------------------------
 .byte   PATT
  .word Label_01004290
@  #01 @020   ----------------------------------------
 .byte   PATT
  .word Label_010042A3
@  #01 @021   ----------------------------------------
 .byte   W12
 .byte   N11 ,Cn4 ,v053
 .byte   W12
 .byte   Fn4
 .byte   W12
 .byte   En4
 .byte   W12
 .byte   Cn4
 .byte   W12
 .byte   Gn4
 .byte   W12
 .byte   Fn4
 .byte   W12
 .byte   En4
 .byte   W12
@  #01 @022   ----------------------------------------
 .byte   PATT
  .word Label_01004290
@  #01 @023   ----------------------------------------
 .byte   PATT
  .word Label_010042A3
@  #01 @024   ----------------------------------------
 .byte   PATT
  .word Label_010042B7
@  #01 @025   ----------------------------------------
 .byte   N11 ,Fn4 ,v053
 .byte   W12
 .byte   Ds4
 .byte   W12
 .byte   Bn3
 .byte   W12
 .byte   N20 ,Gs3
 .byte   W24
 .byte   N11 ,Bn3
 .byte   W12
 .byte   Fn4
 .byte   W12
 .byte   Ds4
 .byte   W12
@  #01 @026   ----------------------------------------
 .byte   Bn3
 .byte   W12
 .byte   N20 ,Gs3
 .byte   W24
 .byte   N11 ,Bn3
 .byte   W12
 .byte   Fn4
 .byte   W12
 .byte   Cn4
 .byte   W12
 .byte   As3
 .byte   W12
 .byte   N20 ,Fn3
 .byte   W12
@  #01 @027   ----------------------------------------
 .byte   W12
 .byte   N11 ,Cn4
 .byte   W12
 .byte   Fn4
 .byte   W12
 .byte   Cn4
 .byte   W12
 .byte   As3
 .byte   W12
 .byte   Fs3
 .byte   W12
 .byte   Fn4
 .byte   W12
 .byte   As3
 .byte   W12
@  #01 @028   ----------------------------------------
Label_01004326:
 .byte   N11 ,Dn3 ,v053
 .byte   W12
 .byte   An3
 .byte   W12
 .byte   Cn4
 .byte   W12
 .byte   En4
 .byte   W12
 .byte   Gn4
 .byte   W12
 .byte   Cn4
 .byte   W12
 .byte   En4
 .byte   W12
 .byte   Cn4
 .byte   W12
 .byte   PEND 
@  #01 @029   ----------------------------------------
 .byte   PATT
  .word Label_01004326
@  #01 @030   ----------------------------------------
 .byte   PATT
  .word Label_01004326
@  #01 @031   ----------------------------------------
 .byte   PATT
  .word Label_01004326
@  #01 @032   ----------------------------------------
 .byte   PATT
  .word Label_01004326
@  #01 @033   ----------------------------------------
 .byte   PATT
  .word Label_01004326
@  #01 @034   ----------------------------------------
 .byte   PATT
  .word Label_01004326
@  #01 @035   ----------------------------------------
 .byte   PATT
  .word Label_01004326
@  #01 @036   ----------------------------------------
 .byte   GOTO
  .word Label_010041CC
 .byte   FINE

@**************** Track 2 (Midi-Chn.1) ****************@

song02_002:
@  #02 @000   ----------------------------------------
 .byte   KEYSH , song02_key+0
Label_010005D2:
 .byte   VOICE , 11
 .byte   VOL , 107*song02_mvl/mxv
 .byte   BENDR, 12
 .byte   N11 ,En4 ,v036
 .byte   W24
 .byte   An4
 .byte   W24
 .byte   Fn4
 .byte   W12
 .byte   Cn5
 .byte   W12
 .byte   Dn4
 .byte   W12
 .byte   En4
 .byte   W12
@  #02 @001   ----------------------------------------
Label_010005E6:
 .byte   N11 ,An4 ,v036
 .byte   W12
 .byte   N20 ,En4
 .byte   W24
 .byte   N11 ,Gn4
 .byte   W12
 .byte   En4
 .byte   W12
 .byte   Fn4
 .byte   W12
 .byte   Cn5
 .byte   W12
 .byte   Dn5
 .byte   W12
 .byte   PEND 
@  #02 @002   ----------------------------------------
Label_010005F9:
 .byte   N11 ,Gn4 ,v036
 .byte   W24
 .byte   An4
 .byte   W12
 .byte   En4
 .byte   W12
 .byte   Fn4
 .byte   W12
 .byte   Cn5
 .byte   W12
 .byte   Dn4
 .byte   W12
 .byte   En4
 .byte   W12
 .byte   PEND 
@  #02 @003   ----------------------------------------
Label_0100060A:
 .byte   N11 ,An4 ,v036
 .byte   W12
 .byte   Gn4
 .byte   W24
 .byte   An4
 .byte   W12
 .byte   En4
 .byte   W24
 .byte   Cn5
 .byte   W12
 .byte   Dn5
 .byte   W12
 .byte   PEND 
@  #02 @004   ----------------------------------------
 .byte   En4
 .byte   W24
 .byte   An4
 .byte   W24
 .byte   Fn4
 .byte   W12
 .byte   Cn5
 .byte   W12
 .byte   Dn4
 .byte   W12
 .byte   En4
 .byte   W12
@  #02 @005   ----------------------------------------
 .byte   PATT
  .word Label_010005E6
@  #02 @006   ----------------------------------------
 .byte   PATT
  .word Label_010005F9
@  #02 @007   ----------------------------------------
 .byte   PATT
  .word Label_0100060A
@  #02 @008   ----------------------------------------
 .byte   N24 ,An3 ,v023
 .byte   W96
@  #02 @009   ----------------------------------------
 .byte   An3
 .byte   W96
@  #02 @010   ----------------------------------------
 .byte   An3
 .byte   W96
@  #02 @011   ----------------------------------------
Label_0100063C:
 .byte   N12 ,Gn3 ,v023
 .byte   W48
 .byte   An3
 .byte   W48
 .byte   PEND 
@  #02 @012   ----------------------------------------
 .byte   An3
 .byte   W96
@  #02 @013   ----------------------------------------
 .byte   An3
 .byte   W96
@  #02 @014   ----------------------------------------
 .byte   An3
 .byte   W96
@  #02 @015   ----------------------------------------
 .byte   PATT
  .word Label_0100063C
@  #02 @016   ----------------------------------------
 .byte   N24 ,Fn4 ,v023
 .byte   W96
@  #02 @017   ----------------------------------------
Label_01000652:
 .byte   W48
 .byte   N24 ,Fn4 ,v023
 .byte   W48
 .byte   PEND 
@  #02 @018   ----------------------------------------
 .byte   W96
@  #02 @019   ----------------------------------------
 .byte   Fn4
 .byte   W96
@  #02 @020   ----------------------------------------
 .byte   PATT
  .word Label_01000652
@  #02 @021   ----------------------------------------
 .byte   W96
@  #02 @022   ----------------------------------------
 .byte   N24 ,Fn4 ,v023
 .byte   W96
@  #02 @023   ----------------------------------------
 .byte   PATT
  .word Label_01000652
@  #02 @024   ----------------------------------------
 .byte   W96
@  #02 @025   ----------------------------------------
 .byte   N24 ,Fn4 ,v023
 .byte   W96
@  #02 @026   ----------------------------------------
 .byte   PATT
  .word Label_01000652
@  #02 @027   ----------------------------------------
 .byte   W96
@  #02 @028   ----------------------------------------
 .byte   N12 ,An4 ,v053
 .byte   W72
 .byte   Gn4
 .byte   W12
 .byte   An4
 .byte   W12
@  #02 @029   ----------------------------------------
 .byte   En4
 .byte   W72
 .byte   Dn4
 .byte   W12
 .byte   En4
 .byte   W12
@  #02 @030   ----------------------------------------
Label_01000683:
 .byte   N12 ,Cn4 ,v053
 .byte   W72
 .byte   Bn3
 .byte   W12
 .byte   Cn4
 .byte   W12
 .byte   PEND 
@  #02 @031   ----------------------------------------
 .byte   An3
 .byte   W48
 .byte   Gn3
 .byte   W48
@  #02 @032   ----------------------------------------
 .byte   PATT
  .word Label_01000683
@  #02 @033   ----------------------------------------
 .byte   N12 ,An3 ,v053
 .byte   W84
 .byte   Bn3
 .byte   W12
@  #02 @034   ----------------------------------------
 .byte   Cn4
 .byte   W72
 .byte   Dn4
 .byte   W24
@  #02 @035   ----------------------------------------
 .byte   An3
 .byte   W96
@  #02 @036   ----------------------------------------
 .byte   GOTO
  .word Label_010005D2
 .byte   FINE

@**************** Track 3 (Midi-Chn.2) ****************@

song02_003:
@  #03 @000   ----------------------------------------
 .byte   KEYSH , song02_key+0
Label_01003D52:
 .byte   VOICE , 68
 .byte   VOL , 102*song02_mvl/mxv
 .byte   PAN , c_v+24
 .byte   BENDR, 12
 .byte   N48 ,An2 ,v048
 .byte   W48
 .byte   N24 ,En3
 .byte   W24
 .byte   Fn3
 .byte   W24
@  #03 @001   ----------------------------------------
 .byte   N42 ,Gn3
 .byte   W48
 .byte   N24 ,Cn3
 .byte   W24
 .byte   N20 ,An2
 .byte   W24
@  #03 @002   ----------------------------------------
 .byte   N48 ,Dn3
 .byte   W48
 .byte   N24 ,En3
 .byte   W24
 .byte   Fn3
 .byte   W24
@  #03 @003   ----------------------------------------
 .byte   N48 ,Gn3
 .byte   W48
 .byte   Cn3
 .byte   W48
@  #03 @004   ----------------------------------------
 .byte   W72
 .byte   N12 ,Fn3
 .byte   W12
 .byte   N08 ,Gn3
 .byte   W12
@  #03 @005   ----------------------------------------
 .byte   Fn3
 .byte   W12
 .byte   En3
 .byte   W12
 .byte   An2
 .byte   W12
 .byte   En3
 .byte   W12
 .byte   N24 ,Fn3
 .byte   W24
 .byte   Gn3
 .byte   W24
@  #03 @006   ----------------------------------------
 .byte   N11 ,An3
 .byte   W12
 .byte   N04 ,As3
 .byte   W12
 .byte   An3
 .byte   W12
 .byte   Fn3
 .byte   W12
 .byte   N12 ,Dn3
 .byte   W12
 .byte   N04 ,Fn3
 .byte   W12
 .byte   N12 ,Gn3
 .byte   W12
 .byte   N04 ,An3
 .byte   W12
@  #03 @007   ----------------------------------------
 .byte   N12 ,Fn3
 .byte   W12
 .byte   N04 ,Gn3
 .byte   W12
 .byte   Fn3
 .byte   W12
 .byte   En3
 .byte   W12
 .byte   N12 ,Cn3
 .byte   W12
 .byte   N04 ,En3
 .byte   W12
 .byte   N12 ,An3
 .byte   W12
 .byte   N04 ,En3
 .byte   W12
@  #03 @008   ----------------------------------------
 .byte   W96
@  #03 @009   ----------------------------------------
 .byte   W96
@  #03 @010   ----------------------------------------
 .byte   W96
@  #03 @011   ----------------------------------------
 .byte   W96
@  #03 @012   ----------------------------------------
 .byte   W96
@  #03 @013   ----------------------------------------
 .byte   W96
@  #03 @014   ----------------------------------------
 .byte   W96
@  #03 @015   ----------------------------------------
 .byte   W96
@  #03 @016   ----------------------------------------
 .byte   W96
@  #03 @017   ----------------------------------------
 .byte   W96
@  #03 @018   ----------------------------------------
 .byte   W96
@  #03 @019   ----------------------------------------
 .byte   W96
@  #03 @020   ----------------------------------------
 .byte   W96
@  #03 @021   ----------------------------------------
 .byte   W96
@  #03 @022   ----------------------------------------
 .byte   W96
@  #03 @023   ----------------------------------------
 .byte   W96
@  #03 @024   ----------------------------------------
 .byte   W96
@  #03 @025   ----------------------------------------
 .byte   W96
@  #03 @026   ----------------------------------------
 .byte   W96
@  #03 @027   ----------------------------------------
 .byte   W96
@  #03 @028   ----------------------------------------
 .byte   W96
@  #03 @029   ----------------------------------------
 .byte   W96
@  #03 @030   ----------------------------------------
 .byte   W96
@  #03 @031   ----------------------------------------
 .byte   W96
@  #03 @032   ----------------------------------------
 .byte   W96
@  #03 @033   ----------------------------------------
 .byte   W96
@  #03 @034   ----------------------------------------
 .byte   W96
@  #03 @035   ----------------------------------------
 .byte   W96
@  #03 @036   ----------------------------------------
 .byte   GOTO
  .word Label_01003D52
 .byte   FINE

@**************** Track 4 (Midi-Chn.3) ****************@

song02_004:
@  #04 @000   ----------------------------------------
 .byte   KEYSH , song02_key+0
Label_010006BE:
 .byte   VOICE , 73
 .byte   VOL , 122*song02_mvl/mxv
 .byte   PAN , c_v-22
 .byte   BENDR, 12
 .byte   W96
@  #04 @001   ----------------------------------------
 .byte   W96
@  #04 @002   ----------------------------------------
 .byte   W96
@  #04 @003   ----------------------------------------
 .byte   W96
@  #04 @004   ----------------------------------------
 .byte   N12 ,En5 ,v031
 .byte   W12
 .byte   N04 ,Fn5
 .byte   W12
 .byte   En5
 .byte   W12
 .byte   Cn5
 .byte   W12
 .byte   N12 ,Gn4
 .byte   W12
 .byte   N04 ,Cn5
 .byte   W12
 .byte   N66 ,An4
 .byte   W24
@  #04 @005   ----------------------------------------
 .byte   W48
 .byte   N20 ,Dn5
 .byte   W24
 .byte   En5
 .byte   W24
@  #04 @006   ----------------------------------------
 .byte   N11
 .byte   W12
 .byte   N04 ,Fn5
 .byte   W12
 .byte   En5
 .byte   W12
 .byte   Cn5
 .byte   W12
 .byte   N12 ,Gn4
 .byte   W12
 .byte   N04 ,Cn5
 .byte   W12
 .byte   N12 ,Dn5
 .byte   W12
 .byte   N04 ,En5
 .byte   W12
@  #04 @007   ----------------------------------------
 .byte   N12 ,Cn5
 .byte   W12
 .byte   N04 ,Dn5
 .byte   W12
 .byte   An4
 .byte   W12
 .byte   Fn4
 .byte   W12
 .byte   N12 ,En4
 .byte   W12
 .byte   N04 ,Cn5
 .byte   W12
 .byte   N12 ,En5
 .byte   W12
 .byte   N04 ,Cn5
 .byte   W12
@  #04 @008   ----------------------------------------
 .byte   W96
@  #04 @009   ----------------------------------------
 .byte   W96
@  #04 @010   ----------------------------------------
 .byte   W96
@  #04 @011   ----------------------------------------
 .byte   W96
@  #04 @012   ----------------------------------------
 .byte   W96
@  #04 @013   ----------------------------------------
 .byte   W96
@  #04 @014   ----------------------------------------
 .byte   W96
@  #04 @015   ----------------------------------------
 .byte   W96
@  #04 @016   ----------------------------------------
 .byte   W96
@  #04 @017   ----------------------------------------
 .byte   W96
@  #04 @018   ----------------------------------------
 .byte   W96
@  #04 @019   ----------------------------------------
 .byte   W96
@  #04 @020   ----------------------------------------
 .byte   W96
@  #04 @021   ----------------------------------------
 .byte   W96
@  #04 @022   ----------------------------------------
 .byte   W96
@  #04 @023   ----------------------------------------
 .byte   W96
@  #04 @024   ----------------------------------------
 .byte   W96
@  #04 @025   ----------------------------------------
 .byte   W96
@  #04 @026   ----------------------------------------
 .byte   W96
@  #04 @027   ----------------------------------------
 .byte   W96
@  #04 @028   ----------------------------------------
 .byte   W96
@  #04 @029   ----------------------------------------
 .byte   W96
@  #04 @030   ----------------------------------------
 .byte   W96
@  #04 @031   ----------------------------------------
 .byte   W96
@  #04 @032   ----------------------------------------
 .byte   W96
@  #04 @033   ----------------------------------------
 .byte   W96
@  #04 @034   ----------------------------------------
 .byte   W96
@  #04 @035   ----------------------------------------
 .byte   W96
@  #04 @036   ----------------------------------------
 .byte   GOTO
  .word Label_010006BE
 .byte   FINE

@**************** Track 5 (Midi-Chn.4) ****************@

song02_005:
@  #05 @000   ----------------------------------------
 .byte   KEYSH , song02_key+0
Label_01003DF2:
 .byte   VOICE , 50
 .byte   VOL , 124*song02_mvl/mxv
 .byte   BENDR, 12
 .byte   N96 ,Dn1 ,v036
 .byte   W96
@  #05 @001   ----------------------------------------
 .byte   Cn1
 .byte   W96
@  #05 @002   ----------------------------------------
 .byte   As0
 .byte   W96
@  #05 @003   ----------------------------------------
Label_01003E00:
 .byte   N48 ,Gn0 ,v036
 .byte   W48
 .byte   An0
 .byte   W48
 .byte   PEND 
@  #05 @004   ----------------------------------------
 .byte   N96 ,Dn1
 .byte   W96
@  #05 @005   ----------------------------------------
 .byte   Cn1
 .byte   W96
@  #05 @006   ----------------------------------------
 .byte   As0
 .byte   W96
@  #05 @007   ----------------------------------------
 .byte   N48 ,Gn0
 .byte   W48
 .byte   N42 ,An0
 .byte   W48
@  #05 @008   ----------------------------------------
 .byte   N96 ,Dn1
 .byte   W96
@  #05 @009   ----------------------------------------
 .byte   Cn1
 .byte   W96
@  #05 @010   ----------------------------------------
 .byte   As0
 .byte   W96
@  #05 @011   ----------------------------------------
 .byte   PATT
  .word Label_01003E00
@  #05 @012   ----------------------------------------
 .byte   N96 ,Dn1 ,v036
 .byte   W96
@  #05 @013   ----------------------------------------
 .byte   Cn1
 .byte   W96
@  #05 @014   ----------------------------------------
 .byte   As0
 .byte   W96
@  #05 @015   ----------------------------------------
 .byte   PATT
  .word Label_01003E00
@  #05 @016   ----------------------------------------
 .byte   TIE ,As0 ,v036
 .byte   W96
@  #05 @017   ----------------------------------------
Label_01003E31:
 .byte   W48
 .byte   EOT
 .byte   As0
 .byte   TIE ,An0 ,v036
 .byte   W48
 .byte   PEND 
@  #05 @018   ----------------------------------------
 .byte   W96
@  #05 @019   ----------------------------------------
 .byte   EOT
 .byte   TIE ,As0
 .byte   W96
@  #05 @020   ----------------------------------------
 .byte   W48
 .byte   EOT
 .byte   N72 ,An0
 .byte   W48
@  #05 @021   ----------------------------------------
 .byte   W24
 .byte   Dn1
 .byte   W72
@  #05 @022   ----------------------------------------
 .byte   TIE ,As0
 .byte   W96
@  #05 @023   ----------------------------------------
 .byte   PATT
  .word Label_01003E31
@  #05 @024   ----------------------------------------
 .byte   W96
@  #05 @025   ----------------------------------------
 .byte   EOT
 .byte   An0
 .byte   TIE ,Gs0 ,v036
 .byte   W96
@  #05 @026   ----------------------------------------
 .byte   W48
 .byte   EOT
 .byte   N72 ,Gn0
 .byte   W48
@  #05 @027   ----------------------------------------
 .byte   W24
 .byte   Fs0
 .byte   W72
@  #05 @028   ----------------------------------------
Label_01003E5D:
 .byte   W12
 .byte   N12 ,Dn0 ,v036
 .byte   W12
 .byte   An0
 .byte   W12
 .byte   En1
 .byte   W12
 .byte   N24 ,Fn1
 .byte   W48
 .byte   PEND 
@  #05 @029   ----------------------------------------
Label_01003E6A:
 .byte   W12
 .byte   N12 ,Dn0 ,v036
 .byte   W12
 .byte   An0
 .byte   W12
 .byte   En1
 .byte   W12
 .byte   Fn1
 .byte   W12
 .byte   Cn1
 .byte   W36
 .byte   PEND 
@  #05 @030   ----------------------------------------
 .byte   PATT
  .word Label_01003E5D
@  #05 @031   ----------------------------------------
Label_01003E7D:
 .byte   W12
 .byte   N12 ,Dn0 ,v036
 .byte   W12
 .byte   An0
 .byte   W12
 .byte   En1
 .byte   W12
 .byte   Fn1
 .byte   W12
 .byte   Cn1
 .byte   W12
 .byte   An0
 .byte   W12
 .byte   Fn0
 .byte   W12
 .byte   PEND 
@  #05 @032   ----------------------------------------
 .byte   PATT
  .word Label_01003E5D
@  #05 @033   ----------------------------------------
 .byte   PATT
  .word Label_01003E6A
@  #05 @034   ----------------------------------------
 .byte   PATT
  .word Label_01003E5D
@  #05 @035   ----------------------------------------
 .byte   PATT
  .word Label_01003E7D
@  #05 @036   ----------------------------------------
 .byte   GOTO
  .word Label_01003DF2
 .byte   FINE

@**************** Track 6 (Midi-Chn.5) ****************@

song02_006:
@  #06 @000   ----------------------------------------
 .byte   KEYSH , song02_key+0
Label_01003EBE:
 .byte   VOICE , 110
 .byte   VOL , 124*song02_mvl/mxv
 .byte   BENDR, 12
 .byte   N96 ,Dn3 ,v036
 .byte   W96
@  #06 @001   ----------------------------------------
 .byte   Cn3
 .byte   W96
@  #06 @002   ----------------------------------------
 .byte   As2
 .byte   W96
@  #06 @003   ----------------------------------------
Label_01003ECC:
 .byte   N48 ,Gn2 ,v036
 .byte   W48
 .byte   An2
 .byte   W48
 .byte   PEND 
@  #06 @004   ----------------------------------------
 .byte   N96 ,Dn3
 .byte   W96
@  #06 @005   ----------------------------------------
 .byte   Cn3
 .byte   W96
@  #06 @006   ----------------------------------------
 .byte   As2
 .byte   W96
@  #06 @007   ----------------------------------------
 .byte   N48 ,Gn2
 .byte   W48
 .byte   N42 ,An2
 .byte   W48
@  #06 @008   ----------------------------------------
 .byte   N96 ,Dn3
 .byte   W96
@  #06 @009   ----------------------------------------
 .byte   Cn3
 .byte   W96
@  #06 @010   ----------------------------------------
 .byte   As2
 .byte   W96
@  #06 @011   ----------------------------------------
 .byte   PATT
  .word Label_01003ECC
@  #06 @012   ----------------------------------------
 .byte   N96 ,Dn3 ,v036
 .byte   W96
@  #06 @013   ----------------------------------------
 .byte   Cn3
 .byte   W96
@  #06 @014   ----------------------------------------
 .byte   As2
 .byte   W96
@  #06 @015   ----------------------------------------
 .byte   PATT
  .word Label_01003ECC
@  #06 @016   ----------------------------------------
 .byte   TIE ,As2 ,v036
 .byte   W96
@  #06 @017   ----------------------------------------
Label_01003EFD:
 .byte   W48
 .byte   EOT
 .byte   As2
 .byte   TIE ,An2 ,v036
 .byte   W48
 .byte   PEND 
@  #06 @018   ----------------------------------------
 .byte   W96
@  #06 @019   ----------------------------------------
 .byte   EOT
 .byte   TIE ,As2
 .byte   W96
@  #06 @020   ----------------------------------------
 .byte   W48
 .byte   EOT
 .byte   N72 ,An2
 .byte   W48
@  #06 @021   ----------------------------------------
 .byte   W24
 .byte   Dn3
 .byte   W72
@  #06 @022   ----------------------------------------
 .byte   TIE ,As2
 .byte   W96
@  #06 @023   ----------------------------------------
 .byte   PATT
  .word Label_01003EFD
@  #06 @024   ----------------------------------------
 .byte   W96
@  #06 @025   ----------------------------------------
 .byte   EOT
 .byte   An2
 .byte   TIE ,Gs2 ,v036
 .byte   W96
@  #06 @026   ----------------------------------------
 .byte   W48
 .byte   EOT
 .byte   N72 ,Gn2
 .byte   W48
@  #06 @027   ----------------------------------------
 .byte   W24
 .byte   Fs2
 .byte   W72
@  #06 @028   ----------------------------------------
Label_01003F29:
 .byte   W12
 .byte   N12 ,Dn2 ,v036
 .byte   W12
 .byte   An2
 .byte   W12
 .byte   En3
 .byte   W12
 .byte   N24 ,Fn3
 .byte   W48
 .byte   PEND 
@  #06 @029   ----------------------------------------
Label_01003F36:
 .byte   W12
 .byte   N12 ,Dn2 ,v036
 .byte   W12
 .byte   An2
 .byte   W12
 .byte   En3
 .byte   W12
 .byte   Fn3
 .byte   W12
 .byte   N36 ,Cn3
 .byte   W36
 .byte   PEND 
@  #06 @030   ----------------------------------------
 .byte   PATT
  .word Label_01003F29
@  #06 @031   ----------------------------------------
Label_01003F4A:
 .byte   W12
 .byte   N12 ,Dn2 ,v036
 .byte   W12
 .byte   An2
 .byte   W12
 .byte   En3
 .byte   W12
 .byte   Fn3
 .byte   W12
 .byte   Cn3
 .byte   W12
 .byte   An2
 .byte   W12
 .byte   Fn2
 .byte   W12
 .byte   PEND 
@  #06 @032   ----------------------------------------
 .byte   PATT
  .word Label_01003F29
@  #06 @033   ----------------------------------------
 .byte   PATT
  .word Label_01003F36
@  #06 @034   ----------------------------------------
 .byte   PATT
  .word Label_01003F29
@  #06 @035   ----------------------------------------
 .byte   PATT
  .word Label_01003F4A
@  #06 @036   ----------------------------------------
 .byte   GOTO
  .word Label_01003EBE
 .byte   FINE

@**************** Track 7 (Midi-Chn.6) ****************@

song02_007:
@  #07 @000   ----------------------------------------
 .byte   KEYSH , song02_key+0
Label_01003F8A:
 .byte   VOICE , 68
 .byte   VOL , 117*song02_mvl/mxv
 .byte   PAN , c_v+27
 .byte   BENDR, 12
 .byte   W96
@  #07 @001   ----------------------------------------
 .byte   W96
@  #07 @002   ----------------------------------------
 .byte   W96
@  #07 @003   ----------------------------------------
 .byte   W96
@  #07 @004   ----------------------------------------
 .byte   W96
@  #07 @005   ----------------------------------------
 .byte   W96
@  #07 @006   ----------------------------------------
 .byte   W96
@  #07 @007   ----------------------------------------
 .byte   W96
@  #07 @008   ----------------------------------------
 .byte   W96
@  #07 @009   ----------------------------------------
 .byte   W96
@  #07 @010   ----------------------------------------
 .byte   W96
@  #07 @011   ----------------------------------------
 .byte   W96
@  #07 @012   ----------------------------------------
 .byte   W96
@  #07 @013   ----------------------------------------
 .byte   W96
@  #07 @014   ----------------------------------------
 .byte   W96
@  #07 @015   ----------------------------------------
 .byte   W96
@  #07 @016   ----------------------------------------
Label_01003FA2:
 .byte   W72
 .byte   N24 ,An3 ,v033
 .byte   W24
 .byte   PEND 
@  #07 @017   ----------------------------------------
Label_01003FA8:
 .byte   N24 ,Gn3 ,v033
 .byte   W24
 .byte   Dn4
 .byte   W24
 .byte   N72 ,An3
 .byte   W48
 .byte   PEND 
@  #07 @018   ----------------------------------------
 .byte   W24
 .byte   N48 ,En3
 .byte   W48
 .byte   N12 ,Fn3
 .byte   W12
 .byte   Gn3
 .byte   W12
@  #07 @019   ----------------------------------------
 .byte   PATT
  .word Label_01003FA2
@  #07 @020   ----------------------------------------
 .byte   PATT
  .word Label_01003FA8
@  #07 @021   ----------------------------------------
 .byte   W24
 .byte   N24 ,Cn3 ,v033
 .byte   W24
 .byte   An2
 .byte   W24
 .byte   Dn3
 .byte   W24
@  #07 @022   ----------------------------------------
 .byte   PATT
  .word Label_01003FA2
@  #07 @023   ----------------------------------------
 .byte   PATT
  .word Label_01003FA8
@  #07 @024   ----------------------------------------
 .byte   W24
 .byte   N48 ,En3 ,v033
 .byte   W72
@  #07 @025   ----------------------------------------
 .byte   W72
 .byte   N24 ,Gs3
 .byte   W24
@  #07 @026   ----------------------------------------
 .byte   Fs3
 .byte   W24
 .byte   Ds4
 .byte   W24
 .byte   N72 ,Gn3
 .byte   W48
@  #07 @027   ----------------------------------------
 .byte   W24
 .byte   Fs3
 .byte   W72
@  #07 @028   ----------------------------------------
 .byte   W96
@  #07 @029   ----------------------------------------
 .byte   W96
@  #07 @030   ----------------------------------------
 .byte   W96
@  #07 @031   ----------------------------------------
 .byte   W96
@  #07 @032   ----------------------------------------
 .byte   W96
@  #07 @033   ----------------------------------------
 .byte   W96
@  #07 @034   ----------------------------------------
 .byte   W96
@  #07 @035   ----------------------------------------
 .byte   W96
@  #07 @036   ----------------------------------------
 .byte   GOTO
  .word Label_01003F8A
 .byte   FINE

@**************** Track 8 (Midi-Chn.7) ****************@

song02_008:
@  #08 @000   ----------------------------------------
 .byte   KEYSH , song02_key+0
Label_0100400E:
 .byte   VOICE , 76
 .byte   VOL , 127*song02_mvl/mxv
 .byte   PAN , c_v-19
 .byte   BENDR, 12
 .byte   W96
@  #08 @001   ----------------------------------------
 .byte   W96
@  #08 @002   ----------------------------------------
 .byte   W96
@  #08 @003   ----------------------------------------
 .byte   W96
@  #08 @004   ----------------------------------------
 .byte   W96
@  #08 @005   ----------------------------------------
 .byte   W96
@  #08 @006   ----------------------------------------
 .byte   W96
@  #08 @007   ----------------------------------------
 .byte   W96
@  #08 @008   ----------------------------------------
Label_0100401E:
 .byte   N84 ,Fn4 ,v043
 .byte   W84
 .byte   N06 ,En4
 .byte   W06
 .byte   Fn4
 .byte   W06
 .byte   PEND 
@  #08 @009   ----------------------------------------
 .byte   N84 ,En4
 .byte   W84
 .byte   N12 ,Fn4
 .byte   W12
@  #08 @010   ----------------------------------------
Label_0100402E:
 .byte   N06 ,En4 ,v043
 .byte   W06
 .byte   Fn4
 .byte   W06
 .byte   N84 ,Dn4
 .byte   W84
 .byte   PEND 
@  #08 @011   ----------------------------------------
Label_01004038:
 .byte   N48 ,Dn4 ,v043
 .byte   W48
 .byte   Cs4
 .byte   W48
 .byte   PEND 
@  #08 @012   ----------------------------------------
 .byte   PATT
  .word Label_0100401E
@  #08 @013   ----------------------------------------
 .byte   N72 ,En4 ,v043
 .byte   W72
 .byte   N06
 .byte   W06
 .byte   Fn4
 .byte   W06
 .byte   Gn4
 .byte   W06
 .byte   An4
 .byte   W06
@  #08 @014   ----------------------------------------
 .byte   PATT
  .word Label_0100402E
@  #08 @015   ----------------------------------------
 .byte   PATT
  .word Label_01004038
@  #08 @016   ----------------------------------------
Label_0100405A:
 .byte   N24 ,An4 ,v043
 .byte   W24
 .byte   Gn4
 .byte   W24
 .byte   Dn5
 .byte   W24
 .byte   N48 ,An4
 .byte   W24
 .byte   PEND 
@  #08 @017   ----------------------------------------
Label_01004066:
 .byte   W24
 .byte   N12 ,Fn4 ,v043
 .byte   W12
 .byte   Gn4
 .byte   W12
 .byte   N24 ,An4
 .byte   W24
 .byte   Gn4
 .byte   W24
 .byte   PEND 
@  #08 @018   ----------------------------------------
Label_01004073:
 .byte   N24 ,Cn5 ,v043
 .byte   W24
 .byte   N48 ,An4
 .byte   W48
 .byte   N12 ,Fn4
 .byte   W12
 .byte   Gn4
 .byte   W12
 .byte   PEND 
@  #08 @019   ----------------------------------------
 .byte   PATT
  .word Label_0100405A
@  #08 @020   ----------------------------------------
 .byte   PATT
  .word Label_01004066
@  #08 @021   ----------------------------------------
 .byte   N24 ,Cn5 ,v043
 .byte   W24
 .byte   N12 ,En5
 .byte   W12
 .byte   Fn5
 .byte   W12
 .byte   En5
 .byte   W12
 .byte   Cn5
 .byte   W12
 .byte   An4
 .byte   W12
 .byte   Fn4
 .byte   W12
@  #08 @022   ----------------------------------------
 .byte   PATT
  .word Label_0100405A
@  #08 @023   ----------------------------------------
 .byte   PATT
  .word Label_01004066
@  #08 @024   ----------------------------------------
 .byte   PATT
  .word Label_01004073
@  #08 @025   ----------------------------------------
 .byte   N24 ,Gs4 ,v043
 .byte   W24
 .byte   Fs4
 .byte   W24
 .byte   Ds5
 .byte   W24
 .byte   N48 ,Gs4
 .byte   W24
@  #08 @026   ----------------------------------------
 .byte   W24
 .byte   N12 ,Fs4
 .byte   W12
 .byte   Gs4
 .byte   W12
 .byte   N24 ,Gn4
 .byte   W24
 .byte   Fn4
 .byte   W24
@  #08 @027   ----------------------------------------
 .byte   Cn5
 .byte   W24
 .byte   N66 ,As4
 .byte   W72
@  #08 @028   ----------------------------------------
Label_010040C5:
 .byte   W48
 .byte   N96 ,En4 ,v043
 .byte   W48
 .byte   PEND 
@  #08 @029   ----------------------------------------
Label_010040CB:
 .byte   W48
 .byte   N24 ,En4 ,v043
 .byte   W24
 .byte   N72 ,Cn4
 .byte   W24
 .byte   PEND 
@  #08 @030   ----------------------------------------
 .byte   PATT
  .word Label_010040C5
@  #08 @031   ----------------------------------------
 .byte   W48
 .byte   N24 ,Gn4 ,v043
 .byte   W24
 .byte   N72 ,Cn4
 .byte   W24
@  #08 @032   ----------------------------------------
 .byte   PATT
  .word Label_010040C5
@  #08 @033   ----------------------------------------
 .byte   PATT
  .word Label_010040CB
@  #08 @034   ----------------------------------------
 .byte   PATT
  .word Label_010040C5
@  #08 @035   ----------------------------------------
 .byte   W48
 .byte   N24 ,Gn4 ,v043
 .byte   W24
 .byte   Cn4
 .byte   W24
@  #08 @036   ----------------------------------------
 .byte   GOTO
  .word Label_0100400E
 .byte   FINE

@**************** Track 9 (Midi-Chn.8) ****************@

song02_009:
@  #09 @000   ----------------------------------------
 .byte   KEYSH , song02_key+0
Label_01004112:
 .byte   VOICE , 51
 .byte   VOL , 127*song02_mvl/mxv
 .byte   BENDR, 12
 .byte   W96
@  #09 @001   ----------------------------------------
 .byte   W96
@  #09 @002   ----------------------------------------
 .byte   W96
@  #09 @003   ----------------------------------------
 .byte   W96
@  #09 @004   ----------------------------------------
 .byte   W96
@  #09 @005   ----------------------------------------
 .byte   W96
@  #09 @006   ----------------------------------------
 .byte   W96
@  #09 @007   ----------------------------------------
 .byte   W96
@  #09 @008   ----------------------------------------
 .byte   N96 ,Dn2 ,v036
 .byte   W96
@  #09 @009   ----------------------------------------
 .byte   Cn2
 .byte   W96
@  #09 @010   ----------------------------------------
 .byte   As1
 .byte   W96
@  #09 @011   ----------------------------------------
Label_01004128:
 .byte   N48 ,Gn1 ,v036
 .byte   W48
 .byte   An1
 .byte   W48
 .byte   PEND 
@  #09 @012   ----------------------------------------
 .byte   N96 ,Dn2
 .byte   W96
@  #09 @013   ----------------------------------------
 .byte   Cn2
 .byte   W96
@  #09 @014   ----------------------------------------
 .byte   As1
 .byte   W96
@  #09 @015   ----------------------------------------
 .byte   PATT
  .word Label_01004128
@  #09 @016   ----------------------------------------
 .byte   TIE ,As1 ,v036
 .byte   W96
@  #09 @017   ----------------------------------------
Label_0100413F:
 .byte   W48
 .byte   EOT
 .byte   As1
 .byte   TIE ,An1 ,v036
 .byte   W48
 .byte   PEND 
@  #09 @018   ----------------------------------------
 .byte   W96
@  #09 @019   ----------------------------------------
 .byte   EOT
 .byte   TIE ,As1
 .byte   W96
@  #09 @020   ----------------------------------------
 .byte   W48
 .byte   EOT
 .byte   N72 ,An1
 .byte   W48
@  #09 @021   ----------------------------------------
 .byte   W24
 .byte   Dn2
 .byte   W72
@  #09 @022   ----------------------------------------
 .byte   TIE ,As1
 .byte   W96
@  #09 @023   ----------------------------------------
 .byte   PATT
  .word Label_0100413F
@  #09 @024   ----------------------------------------
 .byte   W96
@  #09 @025   ----------------------------------------
 .byte   EOT
 .byte   An1
 .byte   TIE ,Gs1 ,v036
 .byte   W96
@  #09 @026   ----------------------------------------
 .byte   W48
 .byte   EOT
 .byte   N72 ,Gn1
 .byte   W48
@  #09 @027   ----------------------------------------
 .byte   W24
 .byte   Fs1
 .byte   W72
@  #09 @028   ----------------------------------------
 .byte   W96
@  #09 @029   ----------------------------------------
 .byte   W96
@  #09 @030   ----------------------------------------
 .byte   W96
@  #09 @031   ----------------------------------------
 .byte   W96
@  #09 @032   ----------------------------------------
 .byte   W96
@  #09 @033   ----------------------------------------
 .byte   W96
@  #09 @034   ----------------------------------------
 .byte   W96
@  #09 @035   ----------------------------------------
 .byte   W96
@  #09 @036   ----------------------------------------
 .byte   GOTO
  .word Label_01004112
 .byte   FINE

@******************************************************@
	.align	2

song02:
	.byte	9	@ NumTrks
	.byte	0	@ NumBlks
	.byte	song02_pri	@ Priority
	.byte	song02_rev	@ Reverb.
    
	.word	song02_grp
    
	.word	song02_001
	.word	song02_002
	.word	song02_003
	.word	song02_004
	.word	song02_005
	.word	song02_006
	.word	song02_007
	.word	song02_008
	.word	song02_009

	.end
