	.include "MPlayDef.s"

	.equ	song07_grp, voicegroup000
	.equ	song07_pri, 0
	.equ	song07_rev, 0
	.equ	song07_mvl, 127
	.equ	song07_key, 0
	.equ	song07_tbs, 1
	.equ	song07_exg, 0
	.equ	song07_cmp, 1

	.section .rodata
	.global	song07
	.align	2


@**************** Track 1 (Midi-Chn.0) ****************@

song07_001:
@  #01 @000   ----------------------------------------
 .byte   KEYSH , song07_key+0
 .byte   TEMPO , 148*song07_tbs/2
Label_0103338C:
 .byte   VOICE , 40
 .byte   BENDR, 12
 .byte   VOL , 35*song07_mvl/mxv
 .byte   W96
@  #01 @001   ----------------------------------------
 .byte   W96
@  #01 @002   ----------------------------------------
 .byte   W96
@  #01 @003   ----------------------------------------
 .byte   W96
@  #01 @004   ----------------------------------------
 .byte   W96
@  #01 @005   ----------------------------------------
 .byte   W96
@  #01 @006   ----------------------------------------
 .byte   W96
@  #01 @007   ----------------------------------------
 .byte   W96
@  #01 @008   ----------------------------------------
 .byte   W96
@  #01 @009   ----------------------------------------
 .byte   W96
@  #01 @010   ----------------------------------------
 .byte   W96
@  #01 @011   ----------------------------------------
 .byte   W96
@  #01 @012   ----------------------------------------
 .byte   W96
@  #01 @013   ----------------------------------------
 .byte   W96
@  #01 @014   ----------------------------------------
 .byte   W96
@  #01 @015   ----------------------------------------
 .byte   W96
@  #01 @016   ----------------------------------------
 .byte   W96
@  #01 @017   ----------------------------------------
 .byte   W96
@  #01 @018   ----------------------------------------
 .byte   W96
@  #01 @019   ----------------------------------------
 .byte   W96
@  #01 @020   ----------------------------------------
 .byte   W96
@  #01 @021   ----------------------------------------
 .byte   W96
@  #01 @022   ----------------------------------------
 .byte   W96
@  #01 @023   ----------------------------------------
 .byte   W96
@  #01 @024   ----------------------------------------
 .byte   W96
@  #01 @025   ----------------------------------------
 .byte   W96
@  #01 @026   ----------------------------------------
 .byte   W96
@  #01 @027   ----------------------------------------
 .byte   W96
@  #01 @028   ----------------------------------------
 .byte   W96
@  #01 @029   ----------------------------------------
 .byte   W96
@  #01 @030   ----------------------------------------
 .byte   W96
@  #01 @031   ----------------------------------------
 .byte   W96
@  #01 @032   ----------------------------------------
 .byte   W96
@  #01 @033   ----------------------------------------
 .byte   W96
@  #01 @034   ----------------------------------------
 .byte   W96
@  #01 @035   ----------------------------------------
 .byte   W96
@  #01 @036   ----------------------------------------
 .byte   W96
@  #01 @037   ----------------------------------------
 .byte   W96
@  #01 @038   ----------------------------------------
 .byte   W96
@  #01 @039   ----------------------------------------
 .byte   W96
@  #01 @040   ----------------------------------------
 .byte   W96
@  #01 @041   ----------------------------------------
 .byte   W96
@  #01 @042   ----------------------------------------
 .byte   W96
@  #01 @043   ----------------------------------------
 .byte   W96
@  #01 @044   ----------------------------------------
 .byte   W96
@  #01 @045   ----------------------------------------
 .byte   W96
@  #01 @046   ----------------------------------------
 .byte   W96
@  #01 @047   ----------------------------------------
 .byte   W96
@  #01 @048   ----------------------------------------
Label_010333C2:
 .byte   N72 ,Cn4 ,v127
 .byte   W68
 .byte   W02
 .byte   N24 ,Fn3 ,v127 ,gtp2
 .byte   W24
 .byte   W02
 .byte   PEND 
@  #01 @049   ----------------------------------------
Label_010333CE:
 .byte   N24 ,Cs4 ,v127 ,gtp1
 .byte   W24
 .byte   Cn4
 .byte   W24
 .byte   Gs3
 .byte   W24
 .byte   N24 ,Fn3
 .byte   W24
 .byte   PEND 
@  #01 @050   ----------------------------------------
Label_010333DB:
 .byte   N36 ,As3 ,v127 ,gtp1
 .byte   W36
 .byte   TIE ,Fn3
 .byte   W60
 .byte   PEND 
@  #01 @051   ----------------------------------------
 .byte   W72
 .byte   EOT
 .byte   W24
@  #01 @052   ----------------------------------------
 .byte   PATT
  .word Label_010333C2
@  #01 @053   ----------------------------------------
Label_010333EC:
 .byte   N24 ,Cs4 ,v127 ,gtp1
 .byte   W24
 .byte   Cn4
 .byte   W24
 .byte   Cs4
 .byte   W24
 .byte   N13 ,Ds4
 .byte   W12
 .byte   TIE ,As3
 .byte   W12
 .byte   PEND 
@  #01 @054   ----------------------------------------
 .byte   W84
 .byte   W01
 .byte   BEND , c_v-1
 .byte   W11
@  #01 @055   ----------------------------------------
Label_01033401:
 .byte   W09
 .byte   BEND , c_v-2
 .byte   W14
 .byte   BEND , c_v-3
 .byte   W12
 .byte   BEND , c_v-4
 .byte   W10
 .byte   BEND , c_v-5
 .byte   W09
 .byte   BEND , c_v-6
 .byte   W07
 .byte   BEND , c_v-7
 .byte   W07
 .byte   BEND , c_v-8
 .byte   W04
 .byte   EOT
 .byte   As3
 .byte   W03
 .byte   BEND , c_v-9
 .byte   W05
 .byte   BEND , c_v-10
 .byte   W05
 .byte   BEND , c_v-11
 .byte   W05
 .byte   BEND , c_v-12
 .byte   W04
 .byte   BEND , c_v-13
 .byte   W02
 .byte   PEND 
@  #01 @056   ----------------------------------------
Label_01033420:
 .byte   N72 ,Cn5 ,v127
 .byte   BEND , c_v+0
 .byte   W68
 .byte   W02
 .byte   N24 ,Fn4 ,v127 ,gtp2
 .byte   W12
 .byte   N02 ,Ds4
 .byte   W14
 .byte   PEND 
@  #01 @057   ----------------------------------------
Label_01033430:
 .byte   N24 ,Cs5 ,v127 ,gtp1
 .byte   W21
 .byte   N03 ,As4
 .byte   W03
 .byte   N24 ,Cn5 ,v127 ,gtp1
 .byte   W21
 .byte   N03 ,Fn4
 .byte   W03
 .byte   N24 ,Gs4 ,v127 ,gtp1
 .byte   W21
 .byte   N03 ,Cs4
 .byte   W03
 .byte   N24 ,Fn4
 .byte   W21
 .byte   N03 ,As3
 .byte   W03
 .byte   PEND 
@  #01 @058   ----------------------------------------
Label_0103344F:
 .byte   N24 ,As4 ,v127 ,gtp1
 .byte   W24
 .byte   N03 ,Cn5
 .byte   W01
 .byte   N05 ,Fn4
 .byte   W05
 .byte   N06 ,Ds4
 .byte   W06
 .byte   TIE ,Fn4
 .byte   W60
 .byte   PEND 
@  #01 @059   ----------------------------------------
 .byte   W72
 .byte   EOT
 .byte   W24
@  #01 @060   ----------------------------------------
Label_01033464:
 .byte   N72 ,Cn5 ,v127
 .byte   W68
 .byte   W02
 .byte   N24 ,Fn4 ,v127 ,gtp2
 .byte   W12
 .byte   N02 ,Ds4
 .byte   W14
 .byte   PEND 
@  #01 @061   ----------------------------------------
Label_01033472:
 .byte   N24 ,Cs5 ,v127 ,gtp1
 .byte   W15
 .byte   N01 ,Ds5
 .byte   W06
 .byte   N03 ,As4
 .byte   W03
 .byte   N24 ,Cn5 ,v127 ,gtp1
 .byte   W24
 .byte   Cs5
 .byte   W24
 .byte   N13 ,Ds5
 .byte   W09
 .byte   N01 ,Fn5
 .byte   W03
 .byte   TIE ,As4
 .byte   W12
 .byte   PEND 
@  #01 @062   ----------------------------------------
 .byte   W84
 .byte   W01
 .byte   BEND , c_v-1
 .byte   W11
@  #01 @063   ----------------------------------------
Label_01033493:
 .byte   W09
 .byte   BEND , c_v-2
 .byte   W14
 .byte   BEND , c_v-3
 .byte   W12
 .byte   BEND , c_v-4
 .byte   W10
 .byte   BEND , c_v-5
 .byte   W09
 .byte   BEND , c_v-6
 .byte   W07
 .byte   BEND , c_v-7
 .byte   W07
 .byte   BEND , c_v-8
 .byte   W07
 .byte   BEND , c_v-9
 .byte   W05
 .byte   BEND , c_v-10
 .byte   W04
 .byte   EOT
 .byte   As4
 .byte   W01
 .byte   BEND , c_v-11
 .byte   W05
 .byte   BEND , c_v-12
 .byte   W04
 .byte   BEND , c_v-13
 .byte   W02
 .byte   PEND 
@  #01 @064   ----------------------------------------
Label_010334B2:
 .byte   N72 ,Cn5 ,v127
 .byte   BEND , c_v+0
 .byte   W18
 .byte   N01 ,Cs5
 .byte   W18
 .byte   N03
 .byte   W10
 .byte   N02 ,Dn5
 .byte   W08
 .byte   N03 ,Ds5
 .byte   W16
 .byte   N24 ,Fn4 ,v127 ,gtp2
 .byte   W12
 .byte   N02 ,Ds4
 .byte   W11
 .byte   N03 ,As3
 .byte   W03
 .byte   PEND 
@  #01 @065   ----------------------------------------
Label_010334CF:
 .byte   N24 ,Cs5 ,v127 ,gtp1
 .byte   W06
 .byte   N04 ,Fn5
 .byte   W12
 .byte   N03 ,Gs4
 .byte   W06
 .byte   N24 ,Cn5 ,v127 ,gtp1
 .byte   W06
 .byte   N04 ,Fn5
 .byte   W12
 .byte   N03 ,Gs4
 .byte   W06
 .byte   N24 ,Gs4 ,v127 ,gtp1
 .byte   W06
 .byte   N04 ,Cs5
 .byte   W12
 .byte   Cs4
 .byte   W06
 .byte   N24 ,Fn4
 .byte   W12
 .byte   N03 ,Fn3
 .byte   W06
 .byte   Ds3
 .byte   W03
 .byte   As3
 .byte   W03
 .byte   PEND 
@  #01 @066   ----------------------------------------
Label_010334FA:
 .byte   N24 ,As4 ,v127 ,gtp1
 .byte   W15
 .byte   N01 ,Cs5
 .byte   W03
 .byte   Cn5
 .byte   W06
 .byte   N03
 .byte   W01
 .byte   N05 ,Fn4
 .byte   W05
 .byte   N06 ,Ds4
 .byte   W06
 .byte   N60 ,Fn4
 .byte   W12
 .byte   N03 ,Gs4
 .byte   W48
 .byte   PEND 
@  #01 @067   ----------------------------------------
Label_01033513:
 .byte   W12
 .byte   N13 ,Fn5 ,v096
 .byte   W04
 .byte   N03 ,As5
 .byte   W08
 .byte   N13 ,Gs5
 .byte   W12
 .byte   Fn5
 .byte   W12
 .byte   Ds5
 .byte   W12
 .byte   Cs5
 .byte   W12
 .byte   Cn5
 .byte   W12
 .byte   N12 ,Cs5
 .byte   W12
 .byte   PEND 
@  #01 @068   ----------------------------------------
Label_0103352A:
 .byte   N72 ,Cn5 ,v127
 .byte   W68
 .byte   W02
 .byte   N24 ,Fn4 ,v127 ,gtp2
 .byte   W12
 .byte   N03 ,Gs4
 .byte   W11
 .byte   N01 ,Cs4
 .byte   W03
 .byte   PEND 
@  #01 @069   ----------------------------------------
Label_0103353B:
 .byte   N24 ,Cs5 ,v127 ,gtp1
 .byte   W06
 .byte   N04 ,Fn5
 .byte   W12
 .byte   N03 ,Gs4
 .byte   W03
 .byte   As4
 .byte   W03
 .byte   N24 ,Cn5 ,v127 ,gtp1
 .byte   W10
 .byte   N05 ,Fn4
 .byte   W14
 .byte   N24 ,Cs5 ,v127 ,gtp1
 .byte   W10
 .byte   N05 ,Fn5
 .byte   W14
 .byte   N13 ,Ds5
 .byte   W09
 .byte   N01 ,Fn5
 .byte   W03
 .byte   TIE ,As4
 .byte   W12
 .byte   PEND 
@  #01 @070   ----------------------------------------
Label_01033562:
 .byte   N03 ,Ds5 ,v127
 .byte   W30
 .byte   N01 ,Fn5
 .byte   W06
 .byte   Fn5
 .byte   W06
 .byte   N03
 .byte   W06
 .byte   Fn5
 .byte   W06
 .byte   Fn5
 .byte   W06
 .byte   N04
 .byte   W06
 .byte   Fn5
 .byte   W19
 .byte   BEND , c_v-1
 .byte   W11
 .byte   PEND 
@  #01 @071   ----------------------------------------
 .byte   PATT
  .word Label_01033493
@  #01 @072   ----------------------------------------
 .byte   BEND , c_v+0
 .byte   GOTO
  .word Label_0103338C
@  #01 @073   ----------------------------------------
 .byte   W96
@  #01 @074   ----------------------------------------
 .byte   W96
@  #01 @075   ----------------------------------------
 .byte   W96
@  #01 @076   ----------------------------------------
 .byte   W96
@  #01 @077   ----------------------------------------
 .byte   W96
@  #01 @078   ----------------------------------------
 .byte   W96
@  #01 @079   ----------------------------------------
 .byte   W96
@  #01 @080   ----------------------------------------
 .byte   W96
@  #01 @081   ----------------------------------------
 .byte   W96
@  #01 @082   ----------------------------------------
 .byte   W96
@  #01 @083   ----------------------------------------
 .byte   W96
@  #01 @084   ----------------------------------------
 .byte   W96
@  #01 @085   ----------------------------------------
 .byte   W96
@  #01 @086   ----------------------------------------
 .byte   W96
@  #01 @087   ----------------------------------------
 .byte   W96
@  #01 @088   ----------------------------------------
 .byte   W96
@  #01 @089   ----------------------------------------
 .byte   W96
@  #01 @090   ----------------------------------------
 .byte   W96
@  #01 @091   ----------------------------------------
 .byte   W96
@  #01 @092   ----------------------------------------
 .byte   W96
@  #01 @093   ----------------------------------------
 .byte   W96
@  #01 @094   ----------------------------------------
 .byte   W96
@  #01 @095   ----------------------------------------
 .byte   W96
@  #01 @096   ----------------------------------------
 .byte   W96
@  #01 @097   ----------------------------------------
 .byte   W96
@  #01 @098   ----------------------------------------
 .byte   W96
@  #01 @099   ----------------------------------------
 .byte   W96
@  #01 @100   ----------------------------------------
 .byte   W96
@  #01 @101   ----------------------------------------
 .byte   W96
@  #01 @102   ----------------------------------------
 .byte   W96
@  #01 @103   ----------------------------------------
 .byte   W96
@  #01 @104   ----------------------------------------
 .byte   W96
@  #01 @105   ----------------------------------------
 .byte   W96
@  #01 @106   ----------------------------------------
 .byte   W96
@  #01 @107   ----------------------------------------
 .byte   W96
@  #01 @108   ----------------------------------------
 .byte   W96
@  #01 @109   ----------------------------------------
 .byte   W96
@  #01 @110   ----------------------------------------
 .byte   W96
@  #01 @111   ----------------------------------------
 .byte   W96
@  #01 @112   ----------------------------------------
 .byte   W96
@  #01 @113   ----------------------------------------
 .byte   W96
@  #01 @114   ----------------------------------------
 .byte   W96
@  #01 @115   ----------------------------------------
 .byte   W96
@  #01 @116   ----------------------------------------
 .byte   W96
@  #01 @117   ----------------------------------------
 .byte   W96
@  #01 @118   ----------------------------------------
 .byte   W96
@  #01 @119   ----------------------------------------
 .byte   W96
@  #01 @120   ----------------------------------------
 .byte   W96
@  #01 @121   ----------------------------------------
 .byte   PATT
  .word Label_010333C2
@  #01 @122   ----------------------------------------
 .byte   PATT
  .word Label_010333CE
@  #01 @123   ----------------------------------------
 .byte   PATT
  .word Label_010333DB
@  #01 @124   ----------------------------------------
 .byte   W72
 .byte   EOT
 .byte   Fn3
 .byte   W24
@  #01 @125   ----------------------------------------
 .byte   PATT
  .word Label_010333C2
@  #01 @126   ----------------------------------------
 .byte   PATT
  .word Label_010333EC
@  #01 @127   ----------------------------------------
 .byte   W84
 .byte   W01
 .byte   BEND , c_v-1
 .byte   W11
@  #01 @128   ----------------------------------------
 .byte   PATT
  .word Label_01033401
@  #01 @129   ----------------------------------------
 .byte   PATT
  .word Label_01033420
@  #01 @130   ----------------------------------------
 .byte   PATT
  .word Label_01033430
@  #01 @131   ----------------------------------------
 .byte   PATT
  .word Label_0103344F
@  #01 @132   ----------------------------------------
 .byte   W72
 .byte   EOT
 .byte   Fn4
 .byte   W24
@  #01 @133   ----------------------------------------
 .byte   PATT
  .word Label_01033464
@  #01 @134   ----------------------------------------
 .byte   PATT
  .word Label_01033472
@  #01 @135   ----------------------------------------
 .byte   W84
 .byte   W01
 .byte   BEND , c_v-1
 .byte   W11
@  #01 @136   ----------------------------------------
 .byte   PATT
  .word Label_01033493
@  #01 @137   ----------------------------------------
 .byte   PATT
  .word Label_010334B2
@  #01 @138   ----------------------------------------
 .byte   PATT
  .word Label_010334CF
@  #01 @139   ----------------------------------------
 .byte   PATT
  .word Label_010334FA
@  #01 @140   ----------------------------------------
 .byte   PATT
  .word Label_01033513
@  #01 @141   ----------------------------------------
 .byte   PATT
  .word Label_0103352A
@  #01 @142   ----------------------------------------
 .byte   PATT
  .word Label_0103353B
@  #01 @143   ----------------------------------------
 .byte   PATT
  .word Label_01033562
@  #01 @144   ----------------------------------------
 .byte   PATT
  .word Label_01033493
@  #01 @145   ----------------------------------------
 .byte   W96
@  #01 @146   ----------------------------------------
 .byte   W96
@  #01 @147   ----------------------------------------
 .byte   W96
@  #01 @148   ----------------------------------------
 .byte   W96
@  #01 @149   ----------------------------------------
 .byte   W96
@  #01 @150   ----------------------------------------
 .byte   W96
@  #01 @151   ----------------------------------------
 .byte   W96
@  #01 @152   ----------------------------------------
 .byte   W96
@  #01 @153   ----------------------------------------
 .byte   W96
@  #01 @154   ----------------------------------------
 .byte   W96
@  #01 @155   ----------------------------------------
 .byte   W96
@  #01 @156   ----------------------------------------
 .byte   W96
@  #01 @157   ----------------------------------------
 .byte   W96
@  #01 @158   ----------------------------------------
 .byte   W96
@  #01 @159   ----------------------------------------
 .byte   W96
@  #01 @160   ----------------------------------------
 .byte   W96
@  #01 @161   ----------------------------------------
 .byte   W96
@  #01 @162   ----------------------------------------
 .byte   W96
@  #01 @163   ----------------------------------------
 .byte   W96
@  #01 @164   ----------------------------------------
 .byte   W96
@  #01 @165   ----------------------------------------
 .byte   W96
@  #01 @166   ----------------------------------------
 .byte   W96
@  #01 @167   ----------------------------------------
 .byte   W96
@  #01 @168   ----------------------------------------
 .byte   W96
@  #01 @169   ----------------------------------------
 .byte   W96
@  #01 @170   ----------------------------------------
 .byte   W96
@  #01 @171   ----------------------------------------
 .byte   W96
@  #01 @172   ----------------------------------------
 .byte   W96
@  #01 @173   ----------------------------------------
 .byte   W96
@  #01 @174   ----------------------------------------
 .byte   W96
@  #01 @175   ----------------------------------------
 .byte   W96
@  #01 @176   ----------------------------------------
 .byte   W96
@  #01 @177   ----------------------------------------
 .byte   W96
@  #01 @178   ----------------------------------------
 .byte   W96
@  #01 @179   ----------------------------------------
 .byte   W96
@  #01 @180   ----------------------------------------
 .byte   W96
@  #01 @181   ----------------------------------------
 .byte   W96
@  #01 @182   ----------------------------------------
 .byte   W96
@  #01 @183   ----------------------------------------
 .byte   W96
@  #01 @184   ----------------------------------------
 .byte   W96
@  #01 @185   ----------------------------------------
 .byte   W96
@  #01 @186   ----------------------------------------
 .byte   W96
@  #01 @187   ----------------------------------------
 .byte   W96
@  #01 @188   ----------------------------------------
 .byte   W96
@  #01 @189   ----------------------------------------
 .byte   W96
@  #01 @190   ----------------------------------------
 .byte   W96
@  #01 @191   ----------------------------------------
 .byte   W96
@  #01 @192   ----------------------------------------
 .byte   W96
@  #01 @193   ----------------------------------------
Label_0103365B:
 .byte   N72 ,Cn4 ,v127
 .byte   BEND , c_v+0
 .byte   W68
 .byte   W02
 .byte   N24 ,Fn3 ,v127 ,gtp2
 .byte   W24
 .byte   W02
 .byte   PEND 
@  #01 @194   ----------------------------------------
 .byte   PATT
  .word Label_010333CE
@  #01 @195   ----------------------------------------
 .byte   PATT
  .word Label_010333DB
@  #01 @196   ----------------------------------------
 .byte   W72
 .byte   EOT
 .byte   Fn3
 .byte   W24
@  #01 @197   ----------------------------------------
 .byte   PATT
  .word Label_010333C2
@  #01 @198   ----------------------------------------
 .byte   PATT
  .word Label_010333EC
@  #01 @199   ----------------------------------------
 .byte   W84
 .byte   W01
 .byte   BEND , c_v-1
 .byte   W11
@  #01 @200   ----------------------------------------
 .byte   PATT
  .word Label_01033401
@  #01 @201   ----------------------------------------
 .byte   PATT
  .word Label_01033420
@  #01 @202   ----------------------------------------
 .byte   PATT
  .word Label_01033430
@  #01 @203   ----------------------------------------
 .byte   PATT
  .word Label_0103344F
@  #01 @204   ----------------------------------------
 .byte   W72
 .byte   EOT
 .byte   Fn4
 .byte   W24
@  #01 @205   ----------------------------------------
 .byte   PATT
  .word Label_01033464
@  #01 @206   ----------------------------------------
 .byte   PATT
  .word Label_01033472
@  #01 @207   ----------------------------------------
 .byte   W84
 .byte   W01
 .byte   BEND , c_v-1
 .byte   W11
@  #01 @208   ----------------------------------------
 .byte   PATT
  .word Label_01033493
@  #01 @209   ----------------------------------------
 .byte   PATT
  .word Label_010334B2
@  #01 @210   ----------------------------------------
 .byte   PATT
  .word Label_010334CF
@  #01 @211   ----------------------------------------
 .byte   PATT
  .word Label_010334FA
@  #01 @212   ----------------------------------------
 .byte   PATT
  .word Label_01033513
@  #01 @213   ----------------------------------------
 .byte   PATT
  .word Label_0103352A
@  #01 @214   ----------------------------------------
 .byte   PATT
  .word Label_0103353B
@  #01 @215   ----------------------------------------
 .byte   PATT
  .word Label_01033562
@  #01 @216   ----------------------------------------
 .byte   EOT
 .byte   As4
 .byte   W14
 .byte   FINE

@**************** Track 2 (Midi-Chn.1) ****************@

song07_002:
@  #02 @000   ----------------------------------------
 .byte   KEYSH , song07_key+0
Label_01031F56:
 .byte   VOICE , 49
 .byte   BENDR, 12
 .byte   VOL , 35*song07_mvl/mxv
 .byte   W96
@  #02 @001   ----------------------------------------
 .byte   W96
@  #02 @002   ----------------------------------------
 .byte   W96
@  #02 @003   ----------------------------------------
 .byte   W96
@  #02 @004   ----------------------------------------
 .byte   W96
@  #02 @005   ----------------------------------------
 .byte   W96
@  #02 @006   ----------------------------------------
 .byte   W96
@  #02 @007   ----------------------------------------
 .byte   W96
@  #02 @008   ----------------------------------------
 .byte   W96
@  #02 @009   ----------------------------------------
 .byte   W96
@  #02 @010   ----------------------------------------
 .byte   W96
@  #02 @011   ----------------------------------------
 .byte   W96
@  #02 @012   ----------------------------------------
 .byte   W96
@  #02 @013   ----------------------------------------
 .byte   W96
@  #02 @014   ----------------------------------------
 .byte   W96
@  #02 @015   ----------------------------------------
 .byte   W96
@  #02 @016   ----------------------------------------
 .byte   W96
@  #02 @017   ----------------------------------------
 .byte   W96
@  #02 @018   ----------------------------------------
 .byte   W96
@  #02 @019   ----------------------------------------
 .byte   W96
@  #02 @020   ----------------------------------------
 .byte   W96
@  #02 @021   ----------------------------------------
 .byte   W96
@  #02 @022   ----------------------------------------
 .byte   W96
@  #02 @023   ----------------------------------------
 .byte   W96
@  #02 @024   ----------------------------------------
 .byte   W96
@  #02 @025   ----------------------------------------
 .byte   W96
@  #02 @026   ----------------------------------------
 .byte   W96
@  #02 @027   ----------------------------------------
 .byte   W96
@  #02 @028   ----------------------------------------
 .byte   W96
@  #02 @029   ----------------------------------------
 .byte   W96
@  #02 @030   ----------------------------------------
 .byte   W96
@  #02 @031   ----------------------------------------
 .byte   W96
@  #02 @032   ----------------------------------------
 .byte   W96
@  #02 @033   ----------------------------------------
 .byte   W96
@  #02 @034   ----------------------------------------
 .byte   W96
@  #02 @035   ----------------------------------------
 .byte   W96
@  #02 @036   ----------------------------------------
 .byte   W96
@  #02 @037   ----------------------------------------
 .byte   W96
@  #02 @038   ----------------------------------------
 .byte   W96
@  #02 @039   ----------------------------------------
 .byte   W96
@  #02 @040   ----------------------------------------
 .byte   W96
@  #02 @041   ----------------------------------------
 .byte   W96
@  #02 @042   ----------------------------------------
 .byte   W96
@  #02 @043   ----------------------------------------
 .byte   W96
@  #02 @044   ----------------------------------------
 .byte   W96
@  #02 @045   ----------------------------------------
 .byte   W96
@  #02 @046   ----------------------------------------
 .byte   W96
@  #02 @047   ----------------------------------------
 .byte   W96
@  #02 @048   ----------------------------------------
Label_01031F8C:
 .byte   N72 ,Cn3 ,v127
 .byte   W68
 .byte   W02
 .byte   N24 ,Fn2 ,v127 ,gtp2
 .byte   W24
 .byte   W02
 .byte   PEND 
@  #02 @049   ----------------------------------------
Label_01031F98:
 .byte   N24 ,Cs3 ,v127 ,gtp1
 .byte   W24
 .byte   Cn3
 .byte   W24
 .byte   Gs2
 .byte   W24
 .byte   N24 ,Fn2
 .byte   W24
 .byte   PEND 
@  #02 @050   ----------------------------------------
Label_01031FA5:
 .byte   N36 ,As2 ,v127 ,gtp1
 .byte   W36
 .byte   TIE ,Fn2
 .byte   W60
 .byte   PEND 
@  #02 @051   ----------------------------------------
 .byte   W72
 .byte   EOT
 .byte   W24
@  #02 @052   ----------------------------------------
 .byte   PATT
  .word Label_01031F8C
@  #02 @053   ----------------------------------------
Label_01031FB6:
 .byte   N24 ,Cs3 ,v127 ,gtp1
 .byte   W24
 .byte   Cn3
 .byte   W24
 .byte   Cs3
 .byte   W24
 .byte   N13 ,Ds3
 .byte   W12
 .byte   TIE ,As2
 .byte   W12
 .byte   PEND 
@  #02 @054   ----------------------------------------
 .byte   W84
 .byte   W01
 .byte   BEND , c_v-1
 .byte   W11
@  #02 @055   ----------------------------------------
Label_01031FCB:
 .byte   W09
 .byte   BEND , c_v-2
 .byte   W14
 .byte   BEND , c_v-3
 .byte   W12
 .byte   BEND , c_v-4
 .byte   W10
 .byte   BEND , c_v-5
 .byte   W09
 .byte   BEND , c_v-6
 .byte   W07
 .byte   BEND , c_v-7
 .byte   W07
 .byte   BEND , c_v-8
 .byte   W04
 .byte   EOT
 .byte   As2
 .byte   W03
 .byte   BEND , c_v-9
 .byte   W05
 .byte   BEND , c_v-10
 .byte   W05
 .byte   BEND , c_v-11
 .byte   W05
 .byte   BEND , c_v-12
 .byte   W04
 .byte   BEND , c_v-13
 .byte   W02
 .byte   PEND 
@  #02 @056   ----------------------------------------
Label_01031FEA:
 .byte   N72 ,Cn4 ,v127
 .byte   BEND , c_v+0
 .byte   W68
 .byte   W02
 .byte   N24 ,Fn3 ,v127 ,gtp2
 .byte   W12
 .byte   N02 ,Ds3
 .byte   W14
 .byte   PEND 
@  #02 @057   ----------------------------------------
Label_01031FFA:
 .byte   N24 ,Cs4 ,v127 ,gtp1
 .byte   W21
 .byte   N03 ,As3
 .byte   W03
 .byte   N24 ,Cn4 ,v127 ,gtp1
 .byte   W21
 .byte   N03 ,Fn3
 .byte   W03
 .byte   N24 ,Gs3 ,v127 ,gtp1
 .byte   W21
 .byte   N03 ,Cs3
 .byte   W03
 .byte   N24 ,Fn3
 .byte   W21
 .byte   N03 ,As2
 .byte   W03
 .byte   PEND 
@  #02 @058   ----------------------------------------
Label_01032019:
 .byte   N24 ,As3 ,v127 ,gtp1
 .byte   W24
 .byte   N03 ,Cn4
 .byte   W01
 .byte   N05 ,Fn3
 .byte   W05
 .byte   N06 ,Ds3
 .byte   W06
 .byte   TIE ,Fn3
 .byte   W60
 .byte   PEND 
@  #02 @059   ----------------------------------------
 .byte   W72
 .byte   EOT
 .byte   W24
@  #02 @060   ----------------------------------------
Label_0103202E:
 .byte   N72 ,Cn4 ,v127
 .byte   W68
 .byte   W02
 .byte   N24 ,Fn3 ,v127 ,gtp2
 .byte   W12
 .byte   N02 ,Ds3
 .byte   W14
 .byte   PEND 
@  #02 @061   ----------------------------------------
Label_0103203C:
 .byte   N24 ,Cs4 ,v127 ,gtp1
 .byte   W15
 .byte   N01 ,Ds4
 .byte   W06
 .byte   N03 ,As3
 .byte   W03
 .byte   N24 ,Cn4 ,v127 ,gtp1
 .byte   W24
 .byte   Cs4
 .byte   W24
 .byte   N13 ,Ds4
 .byte   W09
 .byte   N01 ,Fn4
 .byte   W03
 .byte   TIE ,As3
 .byte   W12
 .byte   PEND 
@  #02 @062   ----------------------------------------
 .byte   W84
 .byte   W01
 .byte   BEND , c_v-1
 .byte   W11
@  #02 @063   ----------------------------------------
Label_0103205D:
 .byte   W09
 .byte   BEND , c_v-2
 .byte   W14
 .byte   BEND , c_v-3
 .byte   W12
 .byte   BEND , c_v-4
 .byte   W10
 .byte   BEND , c_v-5
 .byte   W09
 .byte   BEND , c_v-6
 .byte   W07
 .byte   BEND , c_v-7
 .byte   W07
 .byte   BEND , c_v-8
 .byte   W07
 .byte   BEND , c_v-9
 .byte   W05
 .byte   BEND , c_v-10
 .byte   W04
 .byte   EOT
 .byte   As3
 .byte   W01
 .byte   BEND , c_v-11
 .byte   W05
 .byte   BEND , c_v-12
 .byte   W04
 .byte   BEND , c_v-13
 .byte   W02
 .byte   PEND 
@  #02 @064   ----------------------------------------
Label_0103207C:
 .byte   N72 ,Cn4 ,v127
 .byte   BEND , c_v+0
 .byte   W18
 .byte   N01 ,Cs4
 .byte   W18
 .byte   N03
 .byte   W10
 .byte   N02 ,Dn4
 .byte   W08
 .byte   N03 ,Ds4
 .byte   W16
 .byte   N24 ,Fn3 ,v127 ,gtp2
 .byte   W12
 .byte   N02 ,Ds3
 .byte   W11
 .byte   N03 ,As2
 .byte   W03
 .byte   PEND 
@  #02 @065   ----------------------------------------
Label_01032099:
 .byte   N24 ,Cs4 ,v127 ,gtp1
 .byte   W06
 .byte   N04 ,Fn4
 .byte   W12
 .byte   N03 ,Gs3
 .byte   W06
 .byte   N24 ,Cn4 ,v127 ,gtp1
 .byte   W06
 .byte   N04 ,Fn4
 .byte   W12
 .byte   N03 ,Gs3
 .byte   W06
 .byte   N24 ,Gs3 ,v127 ,gtp1
 .byte   W06
 .byte   N04 ,Cs4
 .byte   W12
 .byte   Cs3
 .byte   W06
 .byte   N24 ,Fn3
 .byte   W12
 .byte   N03 ,Fn2
 .byte   W06
 .byte   Ds2
 .byte   W03
 .byte   As2
 .byte   W03
 .byte   PEND 
@  #02 @066   ----------------------------------------
Label_010320C4:
 .byte   N24 ,As3 ,v127 ,gtp1
 .byte   W15
 .byte   N01 ,Cs4
 .byte   W03
 .byte   Cn4
 .byte   W06
 .byte   N03
 .byte   W01
 .byte   N05 ,Fn3
 .byte   W05
 .byte   N06 ,Ds3
 .byte   W06
 .byte   N60 ,Fn3
 .byte   W12
 .byte   N03 ,Gs3
 .byte   W48
 .byte   PEND 
@  #02 @067   ----------------------------------------
Label_010320DD:
 .byte   W12
 .byte   N13 ,Fn4 ,v096
 .byte   W04
 .byte   N03 ,As4
 .byte   W08
 .byte   N13 ,Gs4
 .byte   W12
 .byte   Fn4
 .byte   W12
 .byte   Ds4
 .byte   W12
 .byte   Cs4
 .byte   W12
 .byte   Cn4
 .byte   W12
 .byte   N12 ,Cs4
 .byte   W12
 .byte   PEND 
@  #02 @068   ----------------------------------------
Label_010320F4:
 .byte   N72 ,Cn4 ,v127
 .byte   W68
 .byte   W02
 .byte   N24 ,Fn3 ,v127 ,gtp2
 .byte   W12
 .byte   N03 ,Gs3
 .byte   W11
 .byte   N01 ,Cs3
 .byte   W03
 .byte   PEND 
@  #02 @069   ----------------------------------------
Label_01032105:
 .byte   N24 ,Cs4 ,v127 ,gtp1
 .byte   W06
 .byte   N04 ,Fn4
 .byte   W12
 .byte   N03 ,Gs3
 .byte   W03
 .byte   As3
 .byte   W03
 .byte   N24 ,Cn4 ,v127 ,gtp1
 .byte   W10
 .byte   N05 ,Fn3
 .byte   W14
 .byte   N24 ,Cs4 ,v127 ,gtp1
 .byte   W10
 .byte   N05 ,Fn4
 .byte   W14
 .byte   N13 ,Ds4
 .byte   W09
 .byte   N01 ,Fn4
 .byte   W03
 .byte   TIE ,As3
 .byte   W12
 .byte   PEND 
@  #02 @070   ----------------------------------------
Label_0103212C:
 .byte   N03 ,Ds4 ,v127
 .byte   W30
 .byte   N01 ,Fn4
 .byte   W06
 .byte   Fn4
 .byte   W06
 .byte   N03
 .byte   W06
 .byte   Fn4
 .byte   W06
 .byte   Fn4
 .byte   W06
 .byte   N04
 .byte   W06
 .byte   Fn4
 .byte   W19
 .byte   BEND , c_v-1
 .byte   W11
 .byte   PEND 
@  #02 @071   ----------------------------------------
 .byte   PATT
  .word Label_0103205D
@  #02 @072   ----------------------------------------
 .byte   BEND , c_v+0
 .byte   GOTO
  .word Label_01031F56
@  #02 @073   ----------------------------------------
 .byte   W96
@  #02 @074   ----------------------------------------
 .byte   W96
@  #02 @075   ----------------------------------------
 .byte   W96
@  #02 @076   ----------------------------------------
 .byte   W96
@  #02 @077   ----------------------------------------
 .byte   W96
@  #02 @078   ----------------------------------------
 .byte   W96
@  #02 @079   ----------------------------------------
 .byte   W96
@  #02 @080   ----------------------------------------
 .byte   W96
@  #02 @081   ----------------------------------------
 .byte   W96
@  #02 @082   ----------------------------------------
 .byte   W96
@  #02 @083   ----------------------------------------
 .byte   W96
@  #02 @084   ----------------------------------------
 .byte   W96
@  #02 @085   ----------------------------------------
 .byte   W96
@  #02 @086   ----------------------------------------
 .byte   W96
@  #02 @087   ----------------------------------------
 .byte   W96
@  #02 @088   ----------------------------------------
 .byte   W96
@  #02 @089   ----------------------------------------
 .byte   W96
@  #02 @090   ----------------------------------------
 .byte   W96
@  #02 @091   ----------------------------------------
 .byte   W96
@  #02 @092   ----------------------------------------
 .byte   W96
@  #02 @093   ----------------------------------------
 .byte   W96
@  #02 @094   ----------------------------------------
 .byte   W96
@  #02 @095   ----------------------------------------
 .byte   W96
@  #02 @096   ----------------------------------------
 .byte   W96
@  #02 @097   ----------------------------------------
 .byte   W96
@  #02 @098   ----------------------------------------
 .byte   W96
@  #02 @099   ----------------------------------------
 .byte   W96
@  #02 @100   ----------------------------------------
 .byte   W96
@  #02 @101   ----------------------------------------
 .byte   W96
@  #02 @102   ----------------------------------------
 .byte   W96
@  #02 @103   ----------------------------------------
 .byte   W96
@  #02 @104   ----------------------------------------
 .byte   W96
@  #02 @105   ----------------------------------------
 .byte   W96
@  #02 @106   ----------------------------------------
 .byte   W96
@  #02 @107   ----------------------------------------
 .byte   W96
@  #02 @108   ----------------------------------------
 .byte   W96
@  #02 @109   ----------------------------------------
 .byte   W96
@  #02 @110   ----------------------------------------
 .byte   W96
@  #02 @111   ----------------------------------------
 .byte   W96
@  #02 @112   ----------------------------------------
 .byte   W96
@  #02 @113   ----------------------------------------
 .byte   W96
@  #02 @114   ----------------------------------------
 .byte   W96
@  #02 @115   ----------------------------------------
 .byte   W96
@  #02 @116   ----------------------------------------
 .byte   W96
@  #02 @117   ----------------------------------------
 .byte   W96
@  #02 @118   ----------------------------------------
 .byte   W96
@  #02 @119   ----------------------------------------
 .byte   W96
@  #02 @120   ----------------------------------------
 .byte   W96
@  #02 @121   ----------------------------------------
 .byte   PATT
  .word Label_01031F8C
@  #02 @122   ----------------------------------------
 .byte   PATT
  .word Label_01031F98
@  #02 @123   ----------------------------------------
 .byte   PATT
  .word Label_01031FA5
@  #02 @124   ----------------------------------------
 .byte   W72
 .byte   EOT
 .byte   Fn2
 .byte   W24
@  #02 @125   ----------------------------------------
 .byte   PATT
  .word Label_01031F8C
@  #02 @126   ----------------------------------------
 .byte   PATT
  .word Label_01031FB6
@  #02 @127   ----------------------------------------
 .byte   W84
 .byte   W01
 .byte   BEND , c_v-1
 .byte   W11
@  #02 @128   ----------------------------------------
 .byte   PATT
  .word Label_01031FCB
@  #02 @129   ----------------------------------------
 .byte   PATT
  .word Label_01031FEA
@  #02 @130   ----------------------------------------
 .byte   PATT
  .word Label_01031FFA
@  #02 @131   ----------------------------------------
 .byte   PATT
  .word Label_01032019
@  #02 @132   ----------------------------------------
 .byte   W72
 .byte   EOT
 .byte   Fn3
 .byte   W24
@  #02 @133   ----------------------------------------
 .byte   PATT
  .word Label_0103202E
@  #02 @134   ----------------------------------------
 .byte   PATT
  .word Label_0103203C
@  #02 @135   ----------------------------------------
 .byte   W84
 .byte   W01
 .byte   BEND , c_v-1
 .byte   W11
@  #02 @136   ----------------------------------------
 .byte   PATT
  .word Label_0103205D
@  #02 @137   ----------------------------------------
 .byte   PATT
  .word Label_0103207C
@  #02 @138   ----------------------------------------
 .byte   PATT
  .word Label_01032099
@  #02 @139   ----------------------------------------
 .byte   PATT
  .word Label_010320C4
@  #02 @140   ----------------------------------------
 .byte   PATT
  .word Label_010320DD
@  #02 @141   ----------------------------------------
 .byte   PATT
  .word Label_010320F4
@  #02 @142   ----------------------------------------
 .byte   PATT
  .word Label_01032105
@  #02 @143   ----------------------------------------
 .byte   PATT
  .word Label_0103212C
@  #02 @144   ----------------------------------------
 .byte   PATT
  .word Label_0103205D
@  #02 @145   ----------------------------------------
 .byte   W96
@  #02 @146   ----------------------------------------
 .byte   W96
@  #02 @147   ----------------------------------------
 .byte   W96
@  #02 @148   ----------------------------------------
 .byte   W96
@  #02 @149   ----------------------------------------
 .byte   W96
@  #02 @150   ----------------------------------------
 .byte   W96
@  #02 @151   ----------------------------------------
 .byte   W96
@  #02 @152   ----------------------------------------
 .byte   W96
@  #02 @153   ----------------------------------------
 .byte   W96
@  #02 @154   ----------------------------------------
 .byte   W96
@  #02 @155   ----------------------------------------
 .byte   W96
@  #02 @156   ----------------------------------------
 .byte   W96
@  #02 @157   ----------------------------------------
 .byte   W96
@  #02 @158   ----------------------------------------
 .byte   W96
@  #02 @159   ----------------------------------------
 .byte   W96
@  #02 @160   ----------------------------------------
 .byte   W96
@  #02 @161   ----------------------------------------
 .byte   W96
@  #02 @162   ----------------------------------------
 .byte   W96
@  #02 @163   ----------------------------------------
 .byte   W96
@  #02 @164   ----------------------------------------
 .byte   W96
@  #02 @165   ----------------------------------------
 .byte   W96
@  #02 @166   ----------------------------------------
 .byte   W96
@  #02 @167   ----------------------------------------
 .byte   W96
@  #02 @168   ----------------------------------------
 .byte   W96
@  #02 @169   ----------------------------------------
 .byte   W96
@  #02 @170   ----------------------------------------
 .byte   W96
@  #02 @171   ----------------------------------------
 .byte   W96
@  #02 @172   ----------------------------------------
 .byte   W96
@  #02 @173   ----------------------------------------
 .byte   W96
@  #02 @174   ----------------------------------------
 .byte   W96
@  #02 @175   ----------------------------------------
 .byte   W96
@  #02 @176   ----------------------------------------
 .byte   W96
@  #02 @177   ----------------------------------------
 .byte   W96
@  #02 @178   ----------------------------------------
 .byte   W96
@  #02 @179   ----------------------------------------
 .byte   W96
@  #02 @180   ----------------------------------------
 .byte   W96
@  #02 @181   ----------------------------------------
 .byte   W96
@  #02 @182   ----------------------------------------
 .byte   W96
@  #02 @183   ----------------------------------------
 .byte   W96
@  #02 @184   ----------------------------------------
 .byte   W96
@  #02 @185   ----------------------------------------
 .byte   W96
@  #02 @186   ----------------------------------------
 .byte   W96
@  #02 @187   ----------------------------------------
 .byte   W96
@  #02 @188   ----------------------------------------
 .byte   W96
@  #02 @189   ----------------------------------------
 .byte   W96
@  #02 @190   ----------------------------------------
 .byte   W96
@  #02 @191   ----------------------------------------
 .byte   W96
@  #02 @192   ----------------------------------------
 .byte   W96
@  #02 @193   ----------------------------------------
 .byte   N72 ,Cn3 ,v127
 .byte   BEND , c_v+0
 .byte   W68
 .byte   W02
 .byte   N24 ,Fn2 ,v127 ,gtp2
 .byte   W24
 .byte   W02
@  #02 @194   ----------------------------------------
 .byte   PATT
  .word Label_01031F98
@  #02 @195   ----------------------------------------
 .byte   PATT
  .word Label_01031FA5
@  #02 @196   ----------------------------------------
 .byte   W72
 .byte   EOT
 .byte   Fn2
 .byte   W24
@  #02 @197   ----------------------------------------
 .byte   PATT
  .word Label_01031F8C
@  #02 @198   ----------------------------------------
 .byte   PATT
  .word Label_01031FB6
@  #02 @199   ----------------------------------------
 .byte   W84
 .byte   W01
 .byte   BEND , c_v-1
 .byte   W11
@  #02 @200   ----------------------------------------
 .byte   PATT
  .word Label_01031FCB
@  #02 @201   ----------------------------------------
 .byte   PATT
  .word Label_01031FEA
@  #02 @202   ----------------------------------------
 .byte   PATT
  .word Label_01031FFA
@  #02 @203   ----------------------------------------
 .byte   PATT
  .word Label_01032019
@  #02 @204   ----------------------------------------
 .byte   W72
 .byte   EOT
 .byte   Fn3
 .byte   W24
@  #02 @205   ----------------------------------------
 .byte   PATT
  .word Label_0103202E
@  #02 @206   ----------------------------------------
 .byte   PATT
  .word Label_0103203C
@  #02 @207   ----------------------------------------
 .byte   W84
 .byte   W01
 .byte   BEND , c_v-1
 .byte   W11
@  #02 @208   ----------------------------------------
 .byte   PATT
  .word Label_0103205D
@  #02 @209   ----------------------------------------
 .byte   PATT
  .word Label_0103207C
@  #02 @210   ----------------------------------------
 .byte   PATT
  .word Label_01032099
@  #02 @211   ----------------------------------------
 .byte   PATT
  .word Label_010320C4
@  #02 @212   ----------------------------------------
 .byte   PATT
  .word Label_010320DD
@  #02 @213   ----------------------------------------
 .byte   PATT
  .word Label_010320F4
@  #02 @214   ----------------------------------------
 .byte   PATT
  .word Label_01032105
@  #02 @215   ----------------------------------------
 .byte   N03 ,Ds4 ,v127
 .byte   W30
 .byte   N01 ,Fn4
 .byte   W06
 .byte   Fn4
 .byte   W06
 .byte   N03
 .byte   W06
 .byte   Fn4
 .byte   W06
 .byte   Fn4
 .byte   W06
 .byte   N04
 .byte   W06
 .byte   Fn4
 .byte   W19
 .byte   BEND , c_v-1
 .byte   W10
 .byte   EOT
 .byte   As3
 .byte   W01
@  #02 @216   ----------------------------------------
 .byte   W14
 .byte   FINE

@**************** Track 3 (Midi-Chn.2) ****************@

song07_003:
@  #03 @000   ----------------------------------------
 .byte   KEYSH , song07_key+0
Label_0102DA96:
 .byte   VOICE , 57
 .byte   BENDR, 12
 .byte   VOL , 35*song07_mvl/mxv
 .byte   W96
@  #03 @001   ----------------------------------------
 .byte   W96
@  #03 @002   ----------------------------------------
 .byte   W96
@  #03 @003   ----------------------------------------
 .byte   W96
@  #03 @004   ----------------------------------------
 .byte   W96
@  #03 @005   ----------------------------------------
 .byte   W96
@  #03 @006   ----------------------------------------
 .byte   W96
@  #03 @007   ----------------------------------------
 .byte   W96
@  #03 @008   ----------------------------------------
 .byte   W96
@  #03 @009   ----------------------------------------
 .byte   W96
@  #03 @010   ----------------------------------------
 .byte   W96
@  #03 @011   ----------------------------------------
 .byte   W96
@  #03 @012   ----------------------------------------
 .byte   W96
@  #03 @013   ----------------------------------------
 .byte   W96
@  #03 @014   ----------------------------------------
 .byte   W96
@  #03 @015   ----------------------------------------
 .byte   W96
@  #03 @016   ----------------------------------------
 .byte   W96
@  #03 @017   ----------------------------------------
 .byte   W96
@  #03 @018   ----------------------------------------
 .byte   W96
@  #03 @019   ----------------------------------------
 .byte   W96
@  #03 @020   ----------------------------------------
 .byte   W96
@  #03 @021   ----------------------------------------
 .byte   W96
@  #03 @022   ----------------------------------------
 .byte   W96
@  #03 @023   ----------------------------------------
 .byte   W96
@  #03 @024   ----------------------------------------
 .byte   W96
@  #03 @025   ----------------------------------------
 .byte   W96
@  #03 @026   ----------------------------------------
 .byte   W96
@  #03 @027   ----------------------------------------
 .byte   W96
@  #03 @028   ----------------------------------------
 .byte   W96
@  #03 @029   ----------------------------------------
 .byte   W96
@  #03 @030   ----------------------------------------
 .byte   W96
@  #03 @031   ----------------------------------------
 .byte   W96
@  #03 @032   ----------------------------------------
 .byte   W96
@  #03 @033   ----------------------------------------
 .byte   W96
@  #03 @034   ----------------------------------------
 .byte   W96
@  #03 @035   ----------------------------------------
 .byte   W96
@  #03 @036   ----------------------------------------
 .byte   W96
@  #03 @037   ----------------------------------------
 .byte   W96
@  #03 @038   ----------------------------------------
 .byte   W96
@  #03 @039   ----------------------------------------
 .byte   W96
@  #03 @040   ----------------------------------------
 .byte   W96
@  #03 @041   ----------------------------------------
 .byte   W96
@  #03 @042   ----------------------------------------
 .byte   W96
@  #03 @043   ----------------------------------------
 .byte   W96
@  #03 @044   ----------------------------------------
 .byte   W96
@  #03 @045   ----------------------------------------
 .byte   W96
@  #03 @046   ----------------------------------------
 .byte   W96
@  #03 @047   ----------------------------------------
 .byte   W96
@  #03 @048   ----------------------------------------
 .byte   PATT
  .word Label_010333C2
@  #03 @049   ----------------------------------------
 .byte   PATT
  .word Label_010333CE
@  #03 @050   ----------------------------------------
 .byte   PATT
  .word Label_010333DB
@  #03 @051   ----------------------------------------
 .byte   W72
 .byte   EOT
 .byte   Fn3
 .byte   W24
@  #03 @052   ----------------------------------------
 .byte   PATT
  .word Label_010333C2
@  #03 @053   ----------------------------------------
 .byte   PATT
  .word Label_010333EC
@  #03 @054   ----------------------------------------
 .byte   W84
 .byte   W01
 .byte   BEND , c_v-1
 .byte   W11
@  #03 @055   ----------------------------------------
 .byte   PATT
  .word Label_01033401
@  #03 @056   ----------------------------------------
 .byte   PATT
  .word Label_01033420
@  #03 @057   ----------------------------------------
 .byte   PATT
  .word Label_01033430
@  #03 @058   ----------------------------------------
 .byte   PATT
  .word Label_0103344F
@  #03 @059   ----------------------------------------
 .byte   W72
 .byte   EOT
 .byte   Fn4
 .byte   W24
@  #03 @060   ----------------------------------------
 .byte   PATT
  .word Label_01033464
@  #03 @061   ----------------------------------------
 .byte   PATT
  .word Label_01033472
@  #03 @062   ----------------------------------------
 .byte   W84
 .byte   W01
 .byte   BEND , c_v-1
 .byte   W11
@  #03 @063   ----------------------------------------
 .byte   PATT
  .word Label_01033493
@  #03 @064   ----------------------------------------
 .byte   PATT
  .word Label_010334B2
@  #03 @065   ----------------------------------------
 .byte   PATT
  .word Label_010334CF
@  #03 @066   ----------------------------------------
 .byte   PATT
  .word Label_010334FA
@  #03 @067   ----------------------------------------
 .byte   PATT
  .word Label_01033513
@  #03 @068   ----------------------------------------
 .byte   PATT
  .word Label_0103352A
@  #03 @069   ----------------------------------------
 .byte   PATT
  .word Label_0103353B
@  #03 @070   ----------------------------------------
Label_0102DB38:
 .byte   N03 ,Ds5 ,v127
 .byte   W30
 .byte   N01 ,Fn5
 .byte   W06
 .byte   Fn5
 .byte   W06
 .byte   N03
 .byte   W06
 .byte   Fn5
 .byte   W06
 .byte   Fn5
 .byte   W06
 .byte   Fn5
 .byte   W06
 .byte   N04
 .byte   W19
 .byte   BEND , c_v-1
 .byte   W11
 .byte   PEND 
@  #03 @071   ----------------------------------------
 .byte   PATT
  .word Label_01033493
@  #03 @072   ----------------------------------------
 .byte   BEND , c_v+0
 .byte   GOTO
  .word Label_0102DA96
@  #03 @073   ----------------------------------------
 .byte   W96
@  #03 @074   ----------------------------------------
 .byte   W96
@  #03 @075   ----------------------------------------
 .byte   W96
@  #03 @076   ----------------------------------------
 .byte   W96
@  #03 @077   ----------------------------------------
 .byte   W96
@  #03 @078   ----------------------------------------
 .byte   W96
@  #03 @079   ----------------------------------------
 .byte   W96
@  #03 @080   ----------------------------------------
 .byte   W96
@  #03 @081   ----------------------------------------
 .byte   W96
@  #03 @082   ----------------------------------------
 .byte   W96
@  #03 @083   ----------------------------------------
 .byte   W96
@  #03 @084   ----------------------------------------
 .byte   W96
@  #03 @085   ----------------------------------------
 .byte   W96
@  #03 @086   ----------------------------------------
 .byte   W96
@  #03 @087   ----------------------------------------
 .byte   W96
@  #03 @088   ----------------------------------------
 .byte   W96
@  #03 @089   ----------------------------------------
 .byte   W96
@  #03 @090   ----------------------------------------
 .byte   W96
@  #03 @091   ----------------------------------------
 .byte   W96
@  #03 @092   ----------------------------------------
 .byte   W96
@  #03 @093   ----------------------------------------
 .byte   W96
@  #03 @094   ----------------------------------------
 .byte   W96
@  #03 @095   ----------------------------------------
 .byte   W96
@  #03 @096   ----------------------------------------
 .byte   W96
@  #03 @097   ----------------------------------------
 .byte   W96
@  #03 @098   ----------------------------------------
 .byte   W96
@  #03 @099   ----------------------------------------
 .byte   W96
@  #03 @100   ----------------------------------------
 .byte   W96
@  #03 @101   ----------------------------------------
 .byte   W96
@  #03 @102   ----------------------------------------
 .byte   W96
@  #03 @103   ----------------------------------------
 .byte   W96
@  #03 @104   ----------------------------------------
 .byte   W96
@  #03 @105   ----------------------------------------
 .byte   W96
@  #03 @106   ----------------------------------------
 .byte   W96
@  #03 @107   ----------------------------------------
 .byte   W96
@  #03 @108   ----------------------------------------
 .byte   W96
@  #03 @109   ----------------------------------------
 .byte   W96
@  #03 @110   ----------------------------------------
 .byte   W96
@  #03 @111   ----------------------------------------
 .byte   W96
@  #03 @112   ----------------------------------------
 .byte   W96
@  #03 @113   ----------------------------------------
 .byte   W96
@  #03 @114   ----------------------------------------
 .byte   W96
@  #03 @115   ----------------------------------------
 .byte   W96
@  #03 @116   ----------------------------------------
 .byte   W96
@  #03 @117   ----------------------------------------
 .byte   W96
@  #03 @118   ----------------------------------------
 .byte   W96
@  #03 @119   ----------------------------------------
 .byte   W96
@  #03 @120   ----------------------------------------
 .byte   W96
@  #03 @121   ----------------------------------------
 .byte   PATT
  .word Label_010333C2
@  #03 @122   ----------------------------------------
 .byte   PATT
  .word Label_010333CE
@  #03 @123   ----------------------------------------
 .byte   PATT
  .word Label_010333DB
@  #03 @124   ----------------------------------------
 .byte   W72
 .byte   EOT
 .byte   Fn3
 .byte   W24
@  #03 @125   ----------------------------------------
 .byte   PATT
  .word Label_010333C2
@  #03 @126   ----------------------------------------
 .byte   PATT
  .word Label_010333EC
@  #03 @127   ----------------------------------------
 .byte   W84
 .byte   W01
 .byte   BEND , c_v-1
 .byte   W11
@  #03 @128   ----------------------------------------
 .byte   PATT
  .word Label_01033401
@  #03 @129   ----------------------------------------
 .byte   PATT
  .word Label_01033420
@  #03 @130   ----------------------------------------
 .byte   PATT
  .word Label_01033430
@  #03 @131   ----------------------------------------
 .byte   PATT
  .word Label_0103344F
@  #03 @132   ----------------------------------------
 .byte   W72
 .byte   EOT
 .byte   Fn4
 .byte   W24
@  #03 @133   ----------------------------------------
 .byte   PATT
  .word Label_01033464
@  #03 @134   ----------------------------------------
 .byte   PATT
  .word Label_01033472
@  #03 @135   ----------------------------------------
 .byte   W84
 .byte   W01
 .byte   BEND , c_v-1
 .byte   W11
@  #03 @136   ----------------------------------------
 .byte   PATT
  .word Label_01033493
@  #03 @137   ----------------------------------------
 .byte   PATT
  .word Label_010334B2
@  #03 @138   ----------------------------------------
 .byte   PATT
  .word Label_010334CF
@  #03 @139   ----------------------------------------
 .byte   PATT
  .word Label_010334FA
@  #03 @140   ----------------------------------------
 .byte   PATT
  .word Label_01033513
@  #03 @141   ----------------------------------------
 .byte   PATT
  .word Label_0103352A
@  #03 @142   ----------------------------------------
 .byte   PATT
  .word Label_0103353B
@  #03 @143   ----------------------------------------
 .byte   PATT
  .word Label_0102DB38
@  #03 @144   ----------------------------------------
 .byte   PATT
  .word Label_01033493
@  #03 @145   ----------------------------------------
 .byte   W96
@  #03 @146   ----------------------------------------
 .byte   W96
@  #03 @147   ----------------------------------------
 .byte   W96
@  #03 @148   ----------------------------------------
 .byte   W96
@  #03 @149   ----------------------------------------
 .byte   W96
@  #03 @150   ----------------------------------------
 .byte   W96
@  #03 @151   ----------------------------------------
 .byte   W96
@  #03 @152   ----------------------------------------
 .byte   W96
@  #03 @153   ----------------------------------------
 .byte   W96
@  #03 @154   ----------------------------------------
 .byte   W96
@  #03 @155   ----------------------------------------
 .byte   W96
@  #03 @156   ----------------------------------------
 .byte   W96
@  #03 @157   ----------------------------------------
 .byte   W96
@  #03 @158   ----------------------------------------
 .byte   W96
@  #03 @159   ----------------------------------------
 .byte   W96
@  #03 @160   ----------------------------------------
 .byte   W96
@  #03 @161   ----------------------------------------
 .byte   W96
@  #03 @162   ----------------------------------------
 .byte   W96
@  #03 @163   ----------------------------------------
 .byte   W96
@  #03 @164   ----------------------------------------
 .byte   W96
@  #03 @165   ----------------------------------------
 .byte   W96
@  #03 @166   ----------------------------------------
 .byte   W96
@  #03 @167   ----------------------------------------
 .byte   W96
@  #03 @168   ----------------------------------------
 .byte   W96
@  #03 @169   ----------------------------------------
 .byte   W96
@  #03 @170   ----------------------------------------
 .byte   W96
@  #03 @171   ----------------------------------------
 .byte   W96
@  #03 @172   ----------------------------------------
 .byte   W96
@  #03 @173   ----------------------------------------
 .byte   W96
@  #03 @174   ----------------------------------------
 .byte   W96
@  #03 @175   ----------------------------------------
 .byte   W96
@  #03 @176   ----------------------------------------
 .byte   W96
@  #03 @177   ----------------------------------------
 .byte   W96
@  #03 @178   ----------------------------------------
 .byte   W96
@  #03 @179   ----------------------------------------
 .byte   W96
@  #03 @180   ----------------------------------------
 .byte   W96
@  #03 @181   ----------------------------------------
 .byte   W96
@  #03 @182   ----------------------------------------
 .byte   W96
@  #03 @183   ----------------------------------------
 .byte   W96
@  #03 @184   ----------------------------------------
 .byte   W96
@  #03 @185   ----------------------------------------
 .byte   W96
@  #03 @186   ----------------------------------------
 .byte   W96
@  #03 @187   ----------------------------------------
 .byte   W96
@  #03 @188   ----------------------------------------
 .byte   W96
@  #03 @189   ----------------------------------------
 .byte   W96
@  #03 @190   ----------------------------------------
 .byte   W96
@  #03 @191   ----------------------------------------
 .byte   W96
@  #03 @192   ----------------------------------------
 .byte   W96
@  #03 @193   ----------------------------------------
 .byte   PATT
  .word Label_0103365B
@  #03 @194   ----------------------------------------
 .byte   PATT
  .word Label_010333CE
@  #03 @195   ----------------------------------------
 .byte   PATT
  .word Label_010333DB
@  #03 @196   ----------------------------------------
 .byte   W72
 .byte   EOT
 .byte   Fn3
 .byte   W24
@  #03 @197   ----------------------------------------
 .byte   PATT
  .word Label_010333C2
@  #03 @198   ----------------------------------------
 .byte   PATT
  .word Label_010333EC
@  #03 @199   ----------------------------------------
 .byte   W84
 .byte   W01
 .byte   BEND , c_v-1
 .byte   W11
@  #03 @200   ----------------------------------------
 .byte   PATT
  .word Label_01033401
@  #03 @201   ----------------------------------------
 .byte   PATT
  .word Label_01033420
@  #03 @202   ----------------------------------------
 .byte   PATT
  .word Label_01033430
@  #03 @203   ----------------------------------------
 .byte   PATT
  .word Label_0103344F
@  #03 @204   ----------------------------------------
 .byte   W72
 .byte   EOT
 .byte   Fn4
 .byte   W24
@  #03 @205   ----------------------------------------
 .byte   PATT
  .word Label_01033464
@  #03 @206   ----------------------------------------
 .byte   PATT
  .word Label_01033472
@  #03 @207   ----------------------------------------
 .byte   W84
 .byte   W01
 .byte   BEND , c_v-1
 .byte   W11
@  #03 @208   ----------------------------------------
 .byte   PATT
  .word Label_01033493
@  #03 @209   ----------------------------------------
 .byte   PATT
  .word Label_010334B2
@  #03 @210   ----------------------------------------
 .byte   PATT
  .word Label_010334CF
@  #03 @211   ----------------------------------------
 .byte   PATT
  .word Label_010334FA
@  #03 @212   ----------------------------------------
 .byte   PATT
  .word Label_01033513
@  #03 @213   ----------------------------------------
 .byte   PATT
  .word Label_0103352A
@  #03 @214   ----------------------------------------
 .byte   PATT
  .word Label_0103353B
@  #03 @215   ----------------------------------------
 .byte   PATT
  .word Label_0102DB38
@  #03 @216   ----------------------------------------
 .byte   EOT
 .byte   As4
 .byte   W14
 .byte   FINE

@**************** Track 4 (Midi-Chn.3) ****************@

song07_004:
@  #04 @000   ----------------------------------------
 .byte   KEYSH , song07_key+0
Label_0102DCAA:
 .byte   VOICE , 68
 .byte   BENDR, 12
 .byte   VOL , 35*song07_mvl/mxv
 .byte   W96
@  #04 @001   ----------------------------------------
 .byte   W96
@  #04 @002   ----------------------------------------
 .byte   W96
@  #04 @003   ----------------------------------------
 .byte   W96
@  #04 @004   ----------------------------------------
 .byte   W96
@  #04 @005   ----------------------------------------
 .byte   W96
@  #04 @006   ----------------------------------------
 .byte   W96
@  #04 @007   ----------------------------------------
 .byte   W96
@  #04 @008   ----------------------------------------
 .byte   W96
@  #04 @009   ----------------------------------------
 .byte   W96
@  #04 @010   ----------------------------------------
 .byte   W96
@  #04 @011   ----------------------------------------
 .byte   W96
@  #04 @012   ----------------------------------------
 .byte   W96
@  #04 @013   ----------------------------------------
 .byte   W96
@  #04 @014   ----------------------------------------
 .byte   W96
@  #04 @015   ----------------------------------------
 .byte   W96
@  #04 @016   ----------------------------------------
 .byte   W96
@  #04 @017   ----------------------------------------
 .byte   W96
@  #04 @018   ----------------------------------------
 .byte   W96
@  #04 @019   ----------------------------------------
 .byte   W96
@  #04 @020   ----------------------------------------
 .byte   W96
@  #04 @021   ----------------------------------------
 .byte   W96
@  #04 @022   ----------------------------------------
 .byte   W96
@  #04 @023   ----------------------------------------
 .byte   W96
@  #04 @024   ----------------------------------------
 .byte   W96
@  #04 @025   ----------------------------------------
 .byte   W96
@  #04 @026   ----------------------------------------
 .byte   W96
@  #04 @027   ----------------------------------------
 .byte   W96
@  #04 @028   ----------------------------------------
 .byte   W96
@  #04 @029   ----------------------------------------
 .byte   W96
@  #04 @030   ----------------------------------------
 .byte   W96
@  #04 @031   ----------------------------------------
 .byte   W96
@  #04 @032   ----------------------------------------
 .byte   W96
@  #04 @033   ----------------------------------------
Label_0102DCD1:
 .byte   N12 ,Gs4 ,v078
 .byte   W12
 .byte   As4 ,v090
 .byte   W12
 .byte   Bn4 ,v102
 .byte   W12
 .byte   Cs5 ,v114
 .byte   W12
 .byte   Ds5 ,v127
 .byte   W12
 .byte   Cs5
 .byte   W12
 .byte   Bn4
 .byte   W12
 .byte   As4
 .byte   W12
 .byte   PEND 
@  #04 @034   ----------------------------------------
Label_0102DCE8:
 .byte   N96 ,An4 ,v127
 .byte   W60
 .byte   N84 ,En4
 .byte   W36
 .byte   PEND 
@  #04 @035   ----------------------------------------
Label_0102DCF0:
 .byte   W24
 .byte   BEND , c_v+3
 .byte   W01
 .byte   BEND , c_v+5
 .byte   W01
 .byte   BEND , c_v+8
 .byte   W01
 .byte   BEND , c_v+11
 .byte   W01
 .byte   BEND , c_v+13
 .byte   W01
 .byte   BEND , c_v+16
 .byte   W01
 .byte   BEND , c_v+19
 .byte   W01
 .byte   BEND , c_v+21
 .byte   W01
 .byte   BEND , c_v+24
 .byte   W01
 .byte   BEND , c_v+27
 .byte   W01
 .byte   BEND , c_v+29
 .byte   W01
 .byte   BEND , c_v+32
 .byte   W01
 .byte   BEND , c_v+35
 .byte   W01
 .byte   BEND , c_v+37
 .byte   W01
 .byte   BEND , c_v+40
 .byte   W01
 .byte   BEND , c_v+43
 .byte   W01
 .byte   BEND , c_v+45
 .byte   W01
 .byte   BEND , c_v+48
 .byte   W01
 .byte   BEND , c_v+51
 .byte   W01
 .byte   BEND , c_v+53
 .byte   W01
 .byte   BEND , c_v+56
 .byte   W01
 .byte   BEND , c_v+59
 .byte   W01
 .byte   BEND , c_v+61
 .byte   W01
 .byte   BEND , c_v+63
 .byte   W01
 .byte   N48 ,Fs5 ,v127
 .byte   BEND , c_v+0
 .byte   W30
 .byte   N18 ,En5
 .byte   W18
 .byte   PEND 
@  #04 @036   ----------------------------------------
 .byte   N96 ,Ds5
 .byte   W96
@  #04 @037   ----------------------------------------
Label_0102DD2F:
 .byte   W12
 .byte   N12 ,Fs5 ,v127
 .byte   W12
 .byte   Cs5
 .byte   W12
 .byte   Bn4
 .byte   W12
 .byte   As4
 .byte   W12
 .byte   Gs4
 .byte   W12
 .byte   Fs4
 .byte   W12
 .byte   As4
 .byte   W12
 .byte   PEND 
@  #04 @038   ----------------------------------------
Label_0102DD41:
 .byte   N84 ,An4 ,v127
 .byte   W84
 .byte   N06 ,Fs4
 .byte   W06
 .byte   En4
 .byte   W06
 .byte   PEND 
@  #04 @039   ----------------------------------------
 .byte   N84 ,Fs4
 .byte   W96
@  #04 @040   ----------------------------------------
 .byte   W96
@  #04 @041   ----------------------------------------
Label_0102DD4F:
 .byte   N12 ,Gs4 ,v127
 .byte   W12
 .byte   As4
 .byte   W12
 .byte   Bn4
 .byte   W12
 .byte   Cs5
 .byte   W12
 .byte   Ds5
 .byte   W12
 .byte   Cs5
 .byte   W12
 .byte   Bn4
 .byte   W12
 .byte   As4
 .byte   W12
 .byte   PEND 
@  #04 @042   ----------------------------------------
 .byte   PATT
  .word Label_0102DCE8
@  #04 @043   ----------------------------------------
 .byte   PATT
  .word Label_0102DCF0
@  #04 @044   ----------------------------------------
 .byte   N96 ,Ds5 ,v127
 .byte   W96
@  #04 @045   ----------------------------------------
 .byte   PATT
  .word Label_0102DD2F
@  #04 @046   ----------------------------------------
 .byte   PATT
  .word Label_0102DD41
@  #04 @047   ----------------------------------------
 .byte   N72 ,Fs4 ,v127
 .byte   W96
@  #04 @048   ----------------------------------------
 .byte   W96
@  #04 @049   ----------------------------------------
 .byte   W96
@  #04 @050   ----------------------------------------
 .byte   W96
@  #04 @051   ----------------------------------------
Label_0102DD81:
 .byte   W12
 .byte   N12 ,Fn3 ,v127
 .byte   W12
 .byte   Ds3
 .byte   W12
 .byte   Cs3
 .byte   W12
 .byte   Cn3
 .byte   W12
 .byte   Cs3
 .byte   W12
 .byte   Ds3
 .byte   W12
 .byte   Gs3
 .byte   W12
 .byte   PEND 
@  #04 @052   ----------------------------------------
 .byte   W96
@  #04 @053   ----------------------------------------
 .byte   W96
@  #04 @054   ----------------------------------------
 .byte   W96
@  #04 @055   ----------------------------------------
 .byte   W96
@  #04 @056   ----------------------------------------
 .byte   W96
@  #04 @057   ----------------------------------------
 .byte   W96
@  #04 @058   ----------------------------------------
 .byte   W96
@  #04 @059   ----------------------------------------
 .byte   PATT
  .word Label_0102DD81
@  #04 @060   ----------------------------------------
 .byte   W96
@  #04 @061   ----------------------------------------
 .byte   W96
@  #04 @062   ----------------------------------------
 .byte   W96
@  #04 @063   ----------------------------------------
 .byte   W96
@  #04 @064   ----------------------------------------
 .byte   W96
@  #04 @065   ----------------------------------------
 .byte   W96
@  #04 @066   ----------------------------------------
 .byte   W96
@  #04 @067   ----------------------------------------
 .byte   PATT
  .word Label_0102DD81
@  #04 @068   ----------------------------------------
 .byte   W96
@  #04 @069   ----------------------------------------
 .byte   W96
@  #04 @070   ----------------------------------------
 .byte   W96
@  #04 @071   ----------------------------------------
 .byte   W96
@  #04 @072   ----------------------------------------
 .byte   GOTO
  .word Label_0102DCAA
@  #04 @073   ----------------------------------------
 .byte   W96
@  #04 @074   ----------------------------------------
 .byte   W96
@  #04 @075   ----------------------------------------
 .byte   W96
@  #04 @076   ----------------------------------------
 .byte   W96
@  #04 @077   ----------------------------------------
 .byte   W96
@  #04 @078   ----------------------------------------
 .byte   W96
@  #04 @079   ----------------------------------------
 .byte   W96
@  #04 @080   ----------------------------------------
 .byte   W96
@  #04 @081   ----------------------------------------
 .byte   W96
@  #04 @082   ----------------------------------------
 .byte   W96
@  #04 @083   ----------------------------------------
 .byte   W96
@  #04 @084   ----------------------------------------
 .byte   W96
@  #04 @085   ----------------------------------------
 .byte   W96
@  #04 @086   ----------------------------------------
 .byte   W96
@  #04 @087   ----------------------------------------
 .byte   W96
@  #04 @088   ----------------------------------------
 .byte   W96
@  #04 @089   ----------------------------------------
 .byte   W96
@  #04 @090   ----------------------------------------
 .byte   W96
@  #04 @091   ----------------------------------------
 .byte   W96
@  #04 @092   ----------------------------------------
 .byte   W96
@  #04 @093   ----------------------------------------
 .byte   W96
@  #04 @094   ----------------------------------------
 .byte   W96
@  #04 @095   ----------------------------------------
 .byte   W96
@  #04 @096   ----------------------------------------
 .byte   W96
@  #04 @097   ----------------------------------------
 .byte   W96
@  #04 @098   ----------------------------------------
 .byte   W96
@  #04 @099   ----------------------------------------
 .byte   W96
@  #04 @100   ----------------------------------------
 .byte   W96
@  #04 @101   ----------------------------------------
 .byte   W96
@  #04 @102   ----------------------------------------
 .byte   W96
@  #04 @103   ----------------------------------------
 .byte   W96
@  #04 @104   ----------------------------------------
 .byte   W96
@  #04 @105   ----------------------------------------
 .byte   W96
@  #04 @106   ----------------------------------------
 .byte   PATT
  .word Label_0102DCD1
@  #04 @107   ----------------------------------------
 .byte   PATT
  .word Label_0102DCE8
@  #04 @108   ----------------------------------------
 .byte   PATT
  .word Label_0102DCF0
@  #04 @109   ----------------------------------------
 .byte   N96 ,Ds5 ,v127
 .byte   W96
@  #04 @110   ----------------------------------------
 .byte   PATT
  .word Label_0102DD2F
@  #04 @111   ----------------------------------------
 .byte   PATT
  .word Label_0102DD41
@  #04 @112   ----------------------------------------
 .byte   N84 ,Fs4 ,v127
 .byte   W96
@  #04 @113   ----------------------------------------
 .byte   W96
@  #04 @114   ----------------------------------------
 .byte   PATT
  .word Label_0102DD4F
@  #04 @115   ----------------------------------------
 .byte   PATT
  .word Label_0102DCE8
@  #04 @116   ----------------------------------------
 .byte   PATT
  .word Label_0102DCF0
@  #04 @117   ----------------------------------------
 .byte   N96 ,Ds5 ,v127
 .byte   W96
@  #04 @118   ----------------------------------------
 .byte   PATT
  .word Label_0102DD2F
@  #04 @119   ----------------------------------------
 .byte   PATT
  .word Label_0102DD41
@  #04 @120   ----------------------------------------
 .byte   N72 ,Fs4 ,v127
 .byte   W96
@  #04 @121   ----------------------------------------
 .byte   W96
@  #04 @122   ----------------------------------------
 .byte   W96
@  #04 @123   ----------------------------------------
 .byte   W96
@  #04 @124   ----------------------------------------
 .byte   PATT
  .word Label_0102DD81
@  #04 @125   ----------------------------------------
 .byte   W96
@  #04 @126   ----------------------------------------
 .byte   W96
@  #04 @127   ----------------------------------------
 .byte   W96
@  #04 @128   ----------------------------------------
 .byte   W96
@  #04 @129   ----------------------------------------
 .byte   W96
@  #04 @130   ----------------------------------------
 .byte   W96
@  #04 @131   ----------------------------------------
 .byte   W96
@  #04 @132   ----------------------------------------
 .byte   PATT
  .word Label_0102DD81
@  #04 @133   ----------------------------------------
 .byte   W96
@  #04 @134   ----------------------------------------
 .byte   W96
@  #04 @135   ----------------------------------------
 .byte   W96
@  #04 @136   ----------------------------------------
 .byte   W96
@  #04 @137   ----------------------------------------
 .byte   W96
@  #04 @138   ----------------------------------------
 .byte   W96
@  #04 @139   ----------------------------------------
 .byte   W96
@  #04 @140   ----------------------------------------
 .byte   PATT
  .word Label_0102DD81
@  #04 @141   ----------------------------------------
 .byte   W96
@  #04 @142   ----------------------------------------
 .byte   W96
@  #04 @143   ----------------------------------------
 .byte   W96
@  #04 @144   ----------------------------------------
 .byte   W96
@  #04 @145   ----------------------------------------
 .byte   W96
@  #04 @146   ----------------------------------------
 .byte   W96
@  #04 @147   ----------------------------------------
 .byte   W96
@  #04 @148   ----------------------------------------
 .byte   W96
@  #04 @149   ----------------------------------------
 .byte   W96
@  #04 @150   ----------------------------------------
 .byte   W96
@  #04 @151   ----------------------------------------
 .byte   W96
@  #04 @152   ----------------------------------------
 .byte   W96
@  #04 @153   ----------------------------------------
 .byte   W96
@  #04 @154   ----------------------------------------
 .byte   W96
@  #04 @155   ----------------------------------------
 .byte   W96
@  #04 @156   ----------------------------------------
 .byte   W96
@  #04 @157   ----------------------------------------
 .byte   W96
@  #04 @158   ----------------------------------------
 .byte   W96
@  #04 @159   ----------------------------------------
 .byte   W96
@  #04 @160   ----------------------------------------
 .byte   W96
@  #04 @161   ----------------------------------------
 .byte   W96
@  #04 @162   ----------------------------------------
 .byte   W96
@  #04 @163   ----------------------------------------
 .byte   W96
@  #04 @164   ----------------------------------------
 .byte   W96
@  #04 @165   ----------------------------------------
 .byte   W96
@  #04 @166   ----------------------------------------
 .byte   W96
@  #04 @167   ----------------------------------------
 .byte   W96
@  #04 @168   ----------------------------------------
 .byte   W96
@  #04 @169   ----------------------------------------
 .byte   W96
@  #04 @170   ----------------------------------------
 .byte   W96
@  #04 @171   ----------------------------------------
 .byte   W96
@  #04 @172   ----------------------------------------
 .byte   W96
@  #04 @173   ----------------------------------------
 .byte   W96
@  #04 @174   ----------------------------------------
 .byte   W96
@  #04 @175   ----------------------------------------
 .byte   W96
@  #04 @176   ----------------------------------------
 .byte   W96
@  #04 @177   ----------------------------------------
 .byte   W96
@  #04 @178   ----------------------------------------
 .byte   PATT
  .word Label_0102DCD1
@  #04 @179   ----------------------------------------
 .byte   PATT
  .word Label_0102DCE8
@  #04 @180   ----------------------------------------
 .byte   PATT
  .word Label_0102DCF0
@  #04 @181   ----------------------------------------
 .byte   N96 ,Ds5 ,v127
 .byte   W96
@  #04 @182   ----------------------------------------
 .byte   PATT
  .word Label_0102DD2F
@  #04 @183   ----------------------------------------
 .byte   PATT
  .word Label_0102DD41
@  #04 @184   ----------------------------------------
 .byte   N84 ,Fs4 ,v127
 .byte   W96
@  #04 @185   ----------------------------------------
 .byte   W96
@  #04 @186   ----------------------------------------
 .byte   PATT
  .word Label_0102DD4F
@  #04 @187   ----------------------------------------
 .byte   PATT
  .word Label_0102DCE8
@  #04 @188   ----------------------------------------
 .byte   PATT
  .word Label_0102DCF0
@  #04 @189   ----------------------------------------
 .byte   N96 ,Ds5 ,v127
 .byte   W96
@  #04 @190   ----------------------------------------
 .byte   PATT
  .word Label_0102DD2F
@  #04 @191   ----------------------------------------
 .byte   PATT
  .word Label_0102DD41
@  #04 @192   ----------------------------------------
 .byte   N72 ,Fs4 ,v127
 .byte   W96
@  #04 @193   ----------------------------------------
 .byte   W96
@  #04 @194   ----------------------------------------
 .byte   W96
@  #04 @195   ----------------------------------------
 .byte   W96
@  #04 @196   ----------------------------------------
 .byte   PATT
  .word Label_0102DD81
@  #04 @197   ----------------------------------------
 .byte   W96
@  #04 @198   ----------------------------------------
 .byte   W96
@  #04 @199   ----------------------------------------
 .byte   W96
@  #04 @200   ----------------------------------------
 .byte   W96
@  #04 @201   ----------------------------------------
 .byte   W96
@  #04 @202   ----------------------------------------
 .byte   W96
@  #04 @203   ----------------------------------------
 .byte   W96
@  #04 @204   ----------------------------------------
 .byte   PATT
  .word Label_0102DD81
@  #04 @205   ----------------------------------------
 .byte   W96
@  #04 @206   ----------------------------------------
 .byte   W96
@  #04 @207   ----------------------------------------
 .byte   W96
@  #04 @208   ----------------------------------------
 .byte   W96
@  #04 @209   ----------------------------------------
 .byte   W96
@  #04 @210   ----------------------------------------
 .byte   W96
@  #04 @211   ----------------------------------------
 .byte   W96
@  #04 @212   ----------------------------------------
 .byte   PATT
  .word Label_0102DD81
@  #04 @213   ----------------------------------------
 .byte   W96
@  #04 @214   ----------------------------------------
 .byte   W96
@  #04 @215   ----------------------------------------
 .byte   W96
@  #04 @216   ----------------------------------------
 .byte   W14
 .byte   FINE

@**************** Track 5 (Midi-Chn.4) ****************@

song07_005:
@  #05 @000   ----------------------------------------
 .byte   KEYSH , song07_key+0
Label_01032E0A:
 .byte   VOICE , 29
 .byte   BENDR, 12
 .byte   VOL , 35*song07_mvl/mxv
 .byte   W96
@  #05 @001   ----------------------------------------
 .byte   W96
@  #05 @002   ----------------------------------------
 .byte   W96
@  #05 @003   ----------------------------------------
 .byte   W96
@  #05 @004   ----------------------------------------
 .byte   W96
@  #05 @005   ----------------------------------------
 .byte   W96
@  #05 @006   ----------------------------------------
 .byte   W96
@  #05 @007   ----------------------------------------
 .byte   W96
@  #05 @008   ----------------------------------------
 .byte   W96
@  #05 @009   ----------------------------------------
 .byte   W96
@  #05 @010   ----------------------------------------
 .byte   W96
@  #05 @011   ----------------------------------------
 .byte   W96
@  #05 @012   ----------------------------------------
 .byte   W96
@  #05 @013   ----------------------------------------
 .byte   W96
@  #05 @014   ----------------------------------------
 .byte   W96
@  #05 @015   ----------------------------------------
 .byte   W96
@  #05 @016   ----------------------------------------
 .byte   W96
@  #05 @017   ----------------------------------------
 .byte   W96
@  #05 @018   ----------------------------------------
 .byte   W96
@  #05 @019   ----------------------------------------
 .byte   W96
@  #05 @020   ----------------------------------------
 .byte   W96
@  #05 @021   ----------------------------------------
 .byte   W96
@  #05 @022   ----------------------------------------
 .byte   W96
@  #05 @023   ----------------------------------------
 .byte   W96
@  #05 @024   ----------------------------------------
 .byte   W96
@  #05 @025   ----------------------------------------
 .byte   W96
@  #05 @026   ----------------------------------------
 .byte   W96
@  #05 @027   ----------------------------------------
 .byte   W96
@  #05 @028   ----------------------------------------
 .byte   W96
@  #05 @029   ----------------------------------------
 .byte   W96
@  #05 @030   ----------------------------------------
 .byte   W96
@  #05 @031   ----------------------------------------
 .byte   W96
@  #05 @032   ----------------------------------------
 .byte   W96
@  #05 @033   ----------------------------------------
 .byte   PATT
  .word Label_0102DCD1
@  #05 @034   ----------------------------------------
 .byte   PATT
  .word Label_0102DCE8
@  #05 @035   ----------------------------------------
 .byte   PATT
  .word Label_0102DCF0
@  #05 @036   ----------------------------------------
 .byte   N96 ,Ds5 ,v127
 .byte   W96
@  #05 @037   ----------------------------------------
 .byte   PATT
  .word Label_0102DD2F
@  #05 @038   ----------------------------------------
 .byte   PATT
  .word Label_0102DD41
@  #05 @039   ----------------------------------------
 .byte   N84 ,Fs4 ,v127
 .byte   W96
@  #05 @040   ----------------------------------------
 .byte   W96
@  #05 @041   ----------------------------------------
 .byte   PATT
  .word Label_0102DD4F
@  #05 @042   ----------------------------------------
 .byte   PATT
  .word Label_0102DCE8
@  #05 @043   ----------------------------------------
 .byte   PATT
  .word Label_0102DCF0
@  #05 @044   ----------------------------------------
 .byte   N96 ,Ds5 ,v127
 .byte   W96
@  #05 @045   ----------------------------------------
 .byte   PATT
  .word Label_0102DD2F
@  #05 @046   ----------------------------------------
 .byte   PATT
  .word Label_0102DD41
@  #05 @047   ----------------------------------------
 .byte   N72 ,Fs4 ,v127
 .byte   W96
@  #05 @048   ----------------------------------------
 .byte   W96
@  #05 @049   ----------------------------------------
 .byte   W96
@  #05 @050   ----------------------------------------
 .byte   W96
@  #05 @051   ----------------------------------------
Label_01032E77:
 .byte   W12
 .byte   N12 ,Fn4 ,v127
 .byte   W12
 .byte   Ds4
 .byte   W12
 .byte   Cs4
 .byte   W12
 .byte   Cn4
 .byte   W12
 .byte   Cs4
 .byte   W12
 .byte   Ds4
 .byte   W12
 .byte   Gs4
 .byte   W12
 .byte   PEND 
@  #05 @052   ----------------------------------------
 .byte   W96
@  #05 @053   ----------------------------------------
 .byte   W96
@  #05 @054   ----------------------------------------
 .byte   W96
@  #05 @055   ----------------------------------------
 .byte   W96
@  #05 @056   ----------------------------------------
 .byte   W96
@  #05 @057   ----------------------------------------
 .byte   W96
@  #05 @058   ----------------------------------------
 .byte   W96
@  #05 @059   ----------------------------------------
 .byte   PATT
  .word Label_01032E77
@  #05 @060   ----------------------------------------
 .byte   W96
@  #05 @061   ----------------------------------------
 .byte   W96
@  #05 @062   ----------------------------------------
 .byte   W96
@  #05 @063   ----------------------------------------
 .byte   W96
@  #05 @064   ----------------------------------------
 .byte   W96
@  #05 @065   ----------------------------------------
 .byte   W96
@  #05 @066   ----------------------------------------
 .byte   W96
@  #05 @067   ----------------------------------------
 .byte   PATT
  .word Label_01032E77
@  #05 @068   ----------------------------------------
 .byte   W96
@  #05 @069   ----------------------------------------
 .byte   W96
@  #05 @070   ----------------------------------------
 .byte   W96
@  #05 @071   ----------------------------------------
 .byte   W96
@  #05 @072   ----------------------------------------
 .byte   GOTO
  .word Label_01032E0A
@  #05 @073   ----------------------------------------
 .byte   W96
@  #05 @074   ----------------------------------------
 .byte   W96
@  #05 @075   ----------------------------------------
 .byte   W96
@  #05 @076   ----------------------------------------
 .byte   W96
@  #05 @077   ----------------------------------------
 .byte   W96
@  #05 @078   ----------------------------------------
 .byte   W96
@  #05 @079   ----------------------------------------
 .byte   W96
@  #05 @080   ----------------------------------------
 .byte   W96
@  #05 @081   ----------------------------------------
 .byte   W96
@  #05 @082   ----------------------------------------
 .byte   W96
@  #05 @083   ----------------------------------------
 .byte   W96
@  #05 @084   ----------------------------------------
 .byte   W96
@  #05 @085   ----------------------------------------
 .byte   W96
@  #05 @086   ----------------------------------------
 .byte   W96
@  #05 @087   ----------------------------------------
 .byte   W96
@  #05 @088   ----------------------------------------
 .byte   W96
@  #05 @089   ----------------------------------------
 .byte   W96
@  #05 @090   ----------------------------------------
 .byte   W96
@  #05 @091   ----------------------------------------
 .byte   W96
@  #05 @092   ----------------------------------------
 .byte   W96
@  #05 @093   ----------------------------------------
 .byte   W96
@  #05 @094   ----------------------------------------
 .byte   W96
@  #05 @095   ----------------------------------------
 .byte   W96
@  #05 @096   ----------------------------------------
 .byte   W96
@  #05 @097   ----------------------------------------
 .byte   W96
@  #05 @098   ----------------------------------------
 .byte   W96
@  #05 @099   ----------------------------------------
 .byte   W96
@  #05 @100   ----------------------------------------
 .byte   W96
@  #05 @101   ----------------------------------------
 .byte   W96
@  #05 @102   ----------------------------------------
 .byte   W96
@  #05 @103   ----------------------------------------
 .byte   W96
@  #05 @104   ----------------------------------------
 .byte   W96
@  #05 @105   ----------------------------------------
 .byte   W96
@  #05 @106   ----------------------------------------
 .byte   PATT
  .word Label_0102DCD1
@  #05 @107   ----------------------------------------
 .byte   PATT
  .word Label_0102DCE8
@  #05 @108   ----------------------------------------
 .byte   PATT
  .word Label_0102DCF0
@  #05 @109   ----------------------------------------
 .byte   N96 ,Ds5 ,v127
 .byte   W96
@  #05 @110   ----------------------------------------
 .byte   PATT
  .word Label_0102DD2F
@  #05 @111   ----------------------------------------
 .byte   PATT
  .word Label_0102DD41
@  #05 @112   ----------------------------------------
 .byte   N84 ,Fs4 ,v127
 .byte   W96
@  #05 @113   ----------------------------------------
 .byte   W96
@  #05 @114   ----------------------------------------
 .byte   PATT
  .word Label_0102DD4F
@  #05 @115   ----------------------------------------
 .byte   PATT
  .word Label_0102DCE8
@  #05 @116   ----------------------------------------
 .byte   PATT
  .word Label_0102DCF0
@  #05 @117   ----------------------------------------
 .byte   N96 ,Ds5 ,v127
 .byte   W96
@  #05 @118   ----------------------------------------
 .byte   PATT
  .word Label_0102DD2F
@  #05 @119   ----------------------------------------
 .byte   PATT
  .word Label_0102DD41
@  #05 @120   ----------------------------------------
 .byte   N72 ,Fs4 ,v127
 .byte   W96
@  #05 @121   ----------------------------------------
 .byte   W96
@  #05 @122   ----------------------------------------
 .byte   W96
@  #05 @123   ----------------------------------------
 .byte   W96
@  #05 @124   ----------------------------------------
 .byte   PATT
  .word Label_01032E77
@  #05 @125   ----------------------------------------
 .byte   W96
@  #05 @126   ----------------------------------------
 .byte   W96
@  #05 @127   ----------------------------------------
 .byte   W96
@  #05 @128   ----------------------------------------
 .byte   W96
@  #05 @129   ----------------------------------------
 .byte   W96
@  #05 @130   ----------------------------------------
 .byte   W96
@  #05 @131   ----------------------------------------
 .byte   W96
@  #05 @132   ----------------------------------------
 .byte   PATT
  .word Label_01032E77
@  #05 @133   ----------------------------------------
 .byte   W96
@  #05 @134   ----------------------------------------
 .byte   W96
@  #05 @135   ----------------------------------------
 .byte   W96
@  #05 @136   ----------------------------------------
 .byte   W96
@  #05 @137   ----------------------------------------
 .byte   W96
@  #05 @138   ----------------------------------------
 .byte   W96
@  #05 @139   ----------------------------------------
 .byte   W96
@  #05 @140   ----------------------------------------
 .byte   PATT
  .word Label_01032E77
@  #05 @141   ----------------------------------------
 .byte   W96
@  #05 @142   ----------------------------------------
 .byte   W96
@  #05 @143   ----------------------------------------
 .byte   W96
@  #05 @144   ----------------------------------------
 .byte   W96
@  #05 @145   ----------------------------------------
 .byte   W96
@  #05 @146   ----------------------------------------
 .byte   W96
@  #05 @147   ----------------------------------------
 .byte   W96
@  #05 @148   ----------------------------------------
 .byte   W96
@  #05 @149   ----------------------------------------
 .byte   W96
@  #05 @150   ----------------------------------------
 .byte   W96
@  #05 @151   ----------------------------------------
 .byte   W96
@  #05 @152   ----------------------------------------
 .byte   W96
@  #05 @153   ----------------------------------------
 .byte   W96
@  #05 @154   ----------------------------------------
 .byte   W96
@  #05 @155   ----------------------------------------
 .byte   W96
@  #05 @156   ----------------------------------------
 .byte   W96
@  #05 @157   ----------------------------------------
 .byte   W96
@  #05 @158   ----------------------------------------
 .byte   W96
@  #05 @159   ----------------------------------------
 .byte   W96
@  #05 @160   ----------------------------------------
 .byte   W96
@  #05 @161   ----------------------------------------
 .byte   W96
@  #05 @162   ----------------------------------------
 .byte   W96
@  #05 @163   ----------------------------------------
 .byte   W96
@  #05 @164   ----------------------------------------
 .byte   W96
@  #05 @165   ----------------------------------------
 .byte   W96
@  #05 @166   ----------------------------------------
 .byte   W96
@  #05 @167   ----------------------------------------
 .byte   W96
@  #05 @168   ----------------------------------------
 .byte   W96
@  #05 @169   ----------------------------------------
 .byte   W96
@  #05 @170   ----------------------------------------
 .byte   W96
@  #05 @171   ----------------------------------------
 .byte   W96
@  #05 @172   ----------------------------------------
 .byte   W96
@  #05 @173   ----------------------------------------
 .byte   W96
@  #05 @174   ----------------------------------------
 .byte   W96
@  #05 @175   ----------------------------------------
 .byte   W96
@  #05 @176   ----------------------------------------
 .byte   W96
@  #05 @177   ----------------------------------------
 .byte   W96
@  #05 @178   ----------------------------------------
 .byte   PATT
  .word Label_0102DCD1
@  #05 @179   ----------------------------------------
 .byte   PATT
  .word Label_0102DCE8
@  #05 @180   ----------------------------------------
 .byte   PATT
  .word Label_0102DCF0
@  #05 @181   ----------------------------------------
 .byte   N96 ,Ds5 ,v127
 .byte   W96
@  #05 @182   ----------------------------------------
 .byte   PATT
  .word Label_0102DD2F
@  #05 @183   ----------------------------------------
 .byte   PATT
  .word Label_0102DD41
@  #05 @184   ----------------------------------------
 .byte   N84 ,Fs4 ,v127
 .byte   W96
@  #05 @185   ----------------------------------------
 .byte   W96
@  #05 @186   ----------------------------------------
 .byte   PATT
  .word Label_0102DD4F
@  #05 @187   ----------------------------------------
 .byte   PATT
  .word Label_0102DCE8
@  #05 @188   ----------------------------------------
 .byte   PATT
  .word Label_0102DCF0
@  #05 @189   ----------------------------------------
 .byte   N96 ,Ds5 ,v127
 .byte   W96
@  #05 @190   ----------------------------------------
 .byte   PATT
  .word Label_0102DD2F
@  #05 @191   ----------------------------------------
 .byte   PATT
  .word Label_0102DD41
@  #05 @192   ----------------------------------------
 .byte   N72 ,Fs4 ,v127
 .byte   W96
@  #05 @193   ----------------------------------------
 .byte   W96
@  #05 @194   ----------------------------------------
 .byte   W96
@  #05 @195   ----------------------------------------
 .byte   W96
@  #05 @196   ----------------------------------------
 .byte   PATT
  .word Label_01032E77
@  #05 @197   ----------------------------------------
 .byte   W96
@  #05 @198   ----------------------------------------
 .byte   W96
@  #05 @199   ----------------------------------------
 .byte   W96
@  #05 @200   ----------------------------------------
 .byte   W96
@  #05 @201   ----------------------------------------
 .byte   W96
@  #05 @202   ----------------------------------------
 .byte   W96
@  #05 @203   ----------------------------------------
 .byte   W96
@  #05 @204   ----------------------------------------
 .byte   PATT
  .word Label_01032E77
@  #05 @205   ----------------------------------------
 .byte   W96
@  #05 @206   ----------------------------------------
 .byte   W96
@  #05 @207   ----------------------------------------
 .byte   W96
@  #05 @208   ----------------------------------------
 .byte   W96
@  #05 @209   ----------------------------------------
 .byte   W96
@  #05 @210   ----------------------------------------
 .byte   W96
@  #05 @211   ----------------------------------------
 .byte   W96
@  #05 @212   ----------------------------------------
 .byte   PATT
  .word Label_01032E77
@  #05 @213   ----------------------------------------
 .byte   W96
@  #05 @214   ----------------------------------------
 .byte   W96
@  #05 @215   ----------------------------------------
 .byte   W96
@  #05 @216   ----------------------------------------
 .byte   W14
 .byte   FINE

@**************** Track 6 (Midi-Chn.5) ****************@

song07_006:
@  #06 @000   ----------------------------------------
 .byte   KEYSH , song07_key+0
Label_01032FBE:
 .byte   VOICE , 42
 .byte   BENDR, 12
 .byte   VOL , 35*song07_mvl/mxv
 .byte   W96
@  #06 @001   ----------------------------------------
 .byte   W96
@  #06 @002   ----------------------------------------
 .byte   W96
@  #06 @003   ----------------------------------------
 .byte   W96
@  #06 @004   ----------------------------------------
 .byte   W96
@  #06 @005   ----------------------------------------
 .byte   W96
@  #06 @006   ----------------------------------------
 .byte   W96
@  #06 @007   ----------------------------------------
 .byte   W96
@  #06 @008   ----------------------------------------
 .byte   W96
@  #06 @009   ----------------------------------------
 .byte   W96
@  #06 @010   ----------------------------------------
 .byte   W96
@  #06 @011   ----------------------------------------
 .byte   W96
@  #06 @012   ----------------------------------------
 .byte   W96
@  #06 @013   ----------------------------------------
 .byte   W96
@  #06 @014   ----------------------------------------
 .byte   W96
@  #06 @015   ----------------------------------------
 .byte   W96
@  #06 @016   ----------------------------------------
Label_01032FD4:
 .byte   N48 ,Ds3 ,v120
 .byte   W36
 .byte   N36 ,Bn2
 .byte   W36
 .byte   N24 ,Bn3
 .byte   W24
 .byte   PEND 
@  #06 @017   ----------------------------------------
Label_01032FDF:
 .byte   N24 ,As3 ,v120
 .byte   W24
 .byte   Fs3
 .byte   W24
 .byte   Ds3
 .byte   W24
 .byte   Cs3
 .byte   W24
 .byte   PEND 
@  #06 @018   ----------------------------------------
Label_01032FEA:
 .byte   N48 ,En3 ,v120
 .byte   W48
 .byte   N24 ,An2
 .byte   W24
 .byte   An3
 .byte   W24
 .byte   PEND 
@  #06 @019   ----------------------------------------
Label_01032FF4:
 .byte   N24 ,Gs3 ,v120
 .byte   W24
 .byte   En3
 .byte   W24
 .byte   Cs3
 .byte   W24
 .byte   En3
 .byte   W24
 .byte   PEND 
@  #06 @020   ----------------------------------------
 .byte   PATT
  .word Label_01032FD4
@  #06 @021   ----------------------------------------
Label_01033004:
 .byte   N24 ,As3 ,v120
 .byte   W24
 .byte   Fs3
 .byte   W24
 .byte   Ds3
 .byte   W24
 .byte   En3
 .byte   W24
 .byte   PEND 
@  #06 @022   ----------------------------------------
Label_0103300F:
 .byte   N72 ,Fs3 ,v120
 .byte   W72
 .byte   N12 ,En3
 .byte   W12
 .byte   Ds3
 .byte   W12
 .byte   PEND 
@  #06 @023   ----------------------------------------
Label_01033019:
 .byte   N48 ,Cs3 ,v120
 .byte   W48
 .byte   N24 ,Bn2
 .byte   W24
 .byte   En3
 .byte   W24
 .byte   PEND 
@  #06 @024   ----------------------------------------
 .byte   PATT
  .word Label_01032FD4
@  #06 @025   ----------------------------------------
 .byte   PATT
  .word Label_01032FDF
@  #06 @026   ----------------------------------------
 .byte   PATT
  .word Label_01032FEA
@  #06 @027   ----------------------------------------
 .byte   PATT
  .word Label_01032FF4
@  #06 @028   ----------------------------------------
 .byte   PATT
  .word Label_01032FD4
@  #06 @029   ----------------------------------------
 .byte   PATT
  .word Label_01033004
@  #06 @030   ----------------------------------------
 .byte   PATT
  .word Label_0103300F
@  #06 @031   ----------------------------------------
 .byte   PATT
  .word Label_01033019
@  #06 @032   ----------------------------------------
Label_0103304B:
 .byte   TIE ,Ds3 ,v120
 .byte   W76
 .byte   W01
 .byte   BEND , c_v-1
 .byte   W12
 .byte   BEND , c_v-2
 .byte   W07
 .byte   PEND 
@  #06 @033   ----------------------------------------
Label_01033056:
 .byte   W04
 .byte   BEND , c_v-3
 .byte   W11
 .byte   BEND , c_v-4
 .byte   W12
 .byte   BEND , c_v-5
 .byte   W11
 .byte   BEND , c_v-6
 .byte   W11
 .byte   BEND , c_v-7
 .byte   W12
 .byte   BEND , c_v-8
 .byte   W11
 .byte   BEND , c_v-9
 .byte   W11
 .byte   BEND , c_v-10
 .byte   W11
 .byte   BEND , c_v-11
 .byte   W02
 .byte   PEND 
@  #06 @034   ----------------------------------------
 .byte   EOT
 .byte   Ds3
 .byte   W96
@  #06 @035   ----------------------------------------
Label_0103306E:
 .byte   W30
 .byte   W01
 .byte   BEND , c_v-10
 .byte   W32
 .byte   W01
 .byte   BEND , c_v-9
 .byte   W09
 .byte   BEND , c_v-8
 .byte   W05
 .byte   BEND , c_v-7
 .byte   W04
 .byte   BEND , c_v-6
 .byte   W03
 .byte   BEND , c_v-5
 .byte   W03
 .byte   BEND , c_v-4
 .byte   W02
 .byte   BEND , c_v-3
 .byte   W02
 .byte   BEND , c_v-2
 .byte   W01
 .byte   BEND , c_v-1
 .byte   W02
 .byte   BEND , c_v+0
 .byte   W01
 .byte   PEND 
@  #06 @036   ----------------------------------------
 .byte   W96
@  #06 @037   ----------------------------------------
 .byte   W96
@  #06 @038   ----------------------------------------
 .byte   W96
@  #06 @039   ----------------------------------------
 .byte   W96
@  #06 @040   ----------------------------------------
 .byte   W96
@  #06 @041   ----------------------------------------
 .byte   W96
@  #06 @042   ----------------------------------------
 .byte   W96
@  #06 @043   ----------------------------------------
 .byte   W96
@  #06 @044   ----------------------------------------
 .byte   W96
@  #06 @045   ----------------------------------------
 .byte   W96
@  #06 @046   ----------------------------------------
 .byte   W96
@  #06 @047   ----------------------------------------
 .byte   W96
@  #06 @048   ----------------------------------------
 .byte   W96
@  #06 @049   ----------------------------------------
 .byte   W96
@  #06 @050   ----------------------------------------
 .byte   W96
@  #06 @051   ----------------------------------------
 .byte   W96
@  #06 @052   ----------------------------------------
 .byte   W96
@  #06 @053   ----------------------------------------
 .byte   W96
@  #06 @054   ----------------------------------------
 .byte   W96
@  #06 @055   ----------------------------------------
 .byte   W96
@  #06 @056   ----------------------------------------
 .byte   W96
@  #06 @057   ----------------------------------------
 .byte   W96
@  #06 @058   ----------------------------------------
 .byte   W96
@  #06 @059   ----------------------------------------
 .byte   W96
@  #06 @060   ----------------------------------------
 .byte   W96
@  #06 @061   ----------------------------------------
 .byte   W96
@  #06 @062   ----------------------------------------
 .byte   W96
@  #06 @063   ----------------------------------------
 .byte   W96
@  #06 @064   ----------------------------------------
 .byte   W96
@  #06 @065   ----------------------------------------
 .byte   W96
@  #06 @066   ----------------------------------------
 .byte   W96
@  #06 @067   ----------------------------------------
 .byte   W96
@  #06 @068   ----------------------------------------
 .byte   W96
@  #06 @069   ----------------------------------------
 .byte   W96
@  #06 @070   ----------------------------------------
 .byte   W96
@  #06 @071   ----------------------------------------
 .byte   W96
@  #06 @072   ----------------------------------------
 .byte   GOTO
  .word Label_01032FBE
@  #06 @073   ----------------------------------------
 .byte   W96
@  #06 @074   ----------------------------------------
 .byte   W96
@  #06 @075   ----------------------------------------
 .byte   W96
@  #06 @076   ----------------------------------------
 .byte   W96
@  #06 @077   ----------------------------------------
 .byte   W96
@  #06 @078   ----------------------------------------
 .byte   W96
@  #06 @079   ----------------------------------------
 .byte   W96
@  #06 @080   ----------------------------------------
 .byte   W96
@  #06 @081   ----------------------------------------
 .byte   W96
@  #06 @082   ----------------------------------------
 .byte   W96
@  #06 @083   ----------------------------------------
 .byte   W96
@  #06 @084   ----------------------------------------
 .byte   W96
@  #06 @085   ----------------------------------------
 .byte   W96
@  #06 @086   ----------------------------------------
 .byte   W96
@  #06 @087   ----------------------------------------
 .byte   W96
@  #06 @088   ----------------------------------------
 .byte   W96
@  #06 @089   ----------------------------------------
 .byte   PATT
  .word Label_01032FD4
@  #06 @090   ----------------------------------------
 .byte   PATT
  .word Label_01032FDF
@  #06 @091   ----------------------------------------
 .byte   PATT
  .word Label_01032FEA
@  #06 @092   ----------------------------------------
 .byte   PATT
  .word Label_01032FF4
@  #06 @093   ----------------------------------------
 .byte   PATT
  .word Label_01032FD4
@  #06 @094   ----------------------------------------
 .byte   PATT
  .word Label_01033004
@  #06 @095   ----------------------------------------
 .byte   PATT
  .word Label_0103300F
@  #06 @096   ----------------------------------------
 .byte   PATT
  .word Label_01033019
@  #06 @097   ----------------------------------------
 .byte   PATT
  .word Label_01032FD4
@  #06 @098   ----------------------------------------
 .byte   PATT
  .word Label_01032FDF
@  #06 @099   ----------------------------------------
 .byte   PATT
  .word Label_01032FEA
@  #06 @100   ----------------------------------------
 .byte   PATT
  .word Label_01032FF4
@  #06 @101   ----------------------------------------
 .byte   PATT
  .word Label_01032FD4
@  #06 @102   ----------------------------------------
 .byte   PATT
  .word Label_01033004
@  #06 @103   ----------------------------------------
 .byte   PATT
  .word Label_0103300F
@  #06 @104   ----------------------------------------
 .byte   PATT
  .word Label_01033019
@  #06 @105   ----------------------------------------
 .byte   PATT
  .word Label_0103304B
@  #06 @106   ----------------------------------------
 .byte   PATT
  .word Label_01033056
@  #06 @107   ----------------------------------------
 .byte   EOT
 .byte   Ds3
 .byte   W96
@  #06 @108   ----------------------------------------
 .byte   PATT
  .word Label_0103306E
@  #06 @109   ----------------------------------------
 .byte   W96
@  #06 @110   ----------------------------------------
 .byte   W96
@  #06 @111   ----------------------------------------
 .byte   W96
@  #06 @112   ----------------------------------------
 .byte   W96
@  #06 @113   ----------------------------------------
 .byte   W96
@  #06 @114   ----------------------------------------
 .byte   W96
@  #06 @115   ----------------------------------------
 .byte   W96
@  #06 @116   ----------------------------------------
 .byte   W96
@  #06 @117   ----------------------------------------
 .byte   W96
@  #06 @118   ----------------------------------------
 .byte   W96
@  #06 @119   ----------------------------------------
 .byte   W96
@  #06 @120   ----------------------------------------
 .byte   W96
@  #06 @121   ----------------------------------------
 .byte   W96
@  #06 @122   ----------------------------------------
 .byte   W96
@  #06 @123   ----------------------------------------
 .byte   W96
@  #06 @124   ----------------------------------------
 .byte   W96
@  #06 @125   ----------------------------------------
 .byte   W96
@  #06 @126   ----------------------------------------
 .byte   W96
@  #06 @127   ----------------------------------------
 .byte   W96
@  #06 @128   ----------------------------------------
 .byte   W96
@  #06 @129   ----------------------------------------
 .byte   W96
@  #06 @130   ----------------------------------------
 .byte   W96
@  #06 @131   ----------------------------------------
 .byte   W96
@  #06 @132   ----------------------------------------
 .byte   W96
@  #06 @133   ----------------------------------------
 .byte   W96
@  #06 @134   ----------------------------------------
 .byte   W96
@  #06 @135   ----------------------------------------
 .byte   W96
@  #06 @136   ----------------------------------------
 .byte   W96
@  #06 @137   ----------------------------------------
 .byte   W96
@  #06 @138   ----------------------------------------
 .byte   W96
@  #06 @139   ----------------------------------------
 .byte   W96
@  #06 @140   ----------------------------------------
 .byte   W96
@  #06 @141   ----------------------------------------
 .byte   W96
@  #06 @142   ----------------------------------------
 .byte   W96
@  #06 @143   ----------------------------------------
 .byte   W96
@  #06 @144   ----------------------------------------
 .byte   W96
@  #06 @145   ----------------------------------------
 .byte   W96
@  #06 @146   ----------------------------------------
 .byte   W96
@  #06 @147   ----------------------------------------
 .byte   W96
@  #06 @148   ----------------------------------------
 .byte   W96
@  #06 @149   ----------------------------------------
 .byte   W96
@  #06 @150   ----------------------------------------
 .byte   W96
@  #06 @151   ----------------------------------------
 .byte   W96
@  #06 @152   ----------------------------------------
 .byte   W96
@  #06 @153   ----------------------------------------
 .byte   W96
@  #06 @154   ----------------------------------------
 .byte   W96
@  #06 @155   ----------------------------------------
 .byte   W96
@  #06 @156   ----------------------------------------
 .byte   W96
@  #06 @157   ----------------------------------------
 .byte   W96
@  #06 @158   ----------------------------------------
 .byte   W96
@  #06 @159   ----------------------------------------
 .byte   W96
@  #06 @160   ----------------------------------------
 .byte   W96
@  #06 @161   ----------------------------------------
 .byte   PATT
  .word Label_01032FD4
@  #06 @162   ----------------------------------------
 .byte   PATT
  .word Label_01032FDF
@  #06 @163   ----------------------------------------
 .byte   PATT
  .word Label_01032FEA
@  #06 @164   ----------------------------------------
 .byte   PATT
  .word Label_01032FF4
@  #06 @165   ----------------------------------------
 .byte   PATT
  .word Label_01032FD4
@  #06 @166   ----------------------------------------
 .byte   PATT
  .word Label_01033004
@  #06 @167   ----------------------------------------
 .byte   PATT
  .word Label_0103300F
@  #06 @168   ----------------------------------------
 .byte   PATT
  .word Label_01033019
@  #06 @169   ----------------------------------------
 .byte   PATT
  .word Label_01032FD4
@  #06 @170   ----------------------------------------
 .byte   PATT
  .word Label_01032FDF
@  #06 @171   ----------------------------------------
 .byte   PATT
  .word Label_01032FEA
@  #06 @172   ----------------------------------------
 .byte   PATT
  .word Label_01032FF4
@  #06 @173   ----------------------------------------
 .byte   PATT
  .word Label_01032FD4
@  #06 @174   ----------------------------------------
 .byte   PATT
  .word Label_01033004
@  #06 @175   ----------------------------------------
 .byte   PATT
  .word Label_0103300F
@  #06 @176   ----------------------------------------
 .byte   PATT
  .word Label_01033019
@  #06 @177   ----------------------------------------
 .byte   PATT
  .word Label_0103304B
@  #06 @178   ----------------------------------------
 .byte   PATT
  .word Label_01033056
@  #06 @179   ----------------------------------------
 .byte   EOT
 .byte   Ds3
 .byte   W96
@  #06 @180   ----------------------------------------
 .byte   PATT
  .word Label_0103306E
@  #06 @181   ----------------------------------------
 .byte   W96
@  #06 @182   ----------------------------------------
 .byte   W96
@  #06 @183   ----------------------------------------
 .byte   W96
@  #06 @184   ----------------------------------------
 .byte   W96
@  #06 @185   ----------------------------------------
 .byte   W96
@  #06 @186   ----------------------------------------
 .byte   W96
@  #06 @187   ----------------------------------------
 .byte   W96
@  #06 @188   ----------------------------------------
 .byte   W96
@  #06 @189   ----------------------------------------
 .byte   W96
@  #06 @190   ----------------------------------------
 .byte   W96
@  #06 @191   ----------------------------------------
 .byte   W96
@  #06 @192   ----------------------------------------
 .byte   W96
@  #06 @193   ----------------------------------------
 .byte   W96
@  #06 @194   ----------------------------------------
 .byte   W96
@  #06 @195   ----------------------------------------
 .byte   W96
@  #06 @196   ----------------------------------------
 .byte   W96
@  #06 @197   ----------------------------------------
 .byte   W96
@  #06 @198   ----------------------------------------
 .byte   W96
@  #06 @199   ----------------------------------------
 .byte   W96
@  #06 @200   ----------------------------------------
 .byte   W96
@  #06 @201   ----------------------------------------
 .byte   W96
@  #06 @202   ----------------------------------------
 .byte   W96
@  #06 @203   ----------------------------------------
 .byte   W96
@  #06 @204   ----------------------------------------
 .byte   W96
@  #06 @205   ----------------------------------------
 .byte   W96
@  #06 @206   ----------------------------------------
 .byte   W96
@  #06 @207   ----------------------------------------
 .byte   W96
@  #06 @208   ----------------------------------------
 .byte   W96
@  #06 @209   ----------------------------------------
 .byte   W96
@  #06 @210   ----------------------------------------
 .byte   W96
@  #06 @211   ----------------------------------------
 .byte   W96
@  #06 @212   ----------------------------------------
 .byte   W96
@  #06 @213   ----------------------------------------
 .byte   W96
@  #06 @214   ----------------------------------------
 .byte   W96
@  #06 @215   ----------------------------------------
 .byte   W96
@  #06 @216   ----------------------------------------
 .byte   W14
 .byte   FINE

@**************** Track 7 (Midi-Chn.6) ****************@

song07_007:
@  #07 @000   ----------------------------------------
 .byte   KEYSH , song07_key+0
Label_0103383E:
 .byte   VOICE , 42
 .byte   BENDR, 12
 .byte   VOL , 35*song07_mvl/mxv
 .byte   W96
@  #07 @001   ----------------------------------------
 .byte   W96
@  #07 @002   ----------------------------------------
 .byte   W96
@  #07 @003   ----------------------------------------
 .byte   W96
@  #07 @004   ----------------------------------------
 .byte   W96
@  #07 @005   ----------------------------------------
 .byte   W96
@  #07 @006   ----------------------------------------
 .byte   W96
@  #07 @007   ----------------------------------------
 .byte   W96
@  #07 @008   ----------------------------------------
 .byte   W96
@  #07 @009   ----------------------------------------
 .byte   W96
@  #07 @010   ----------------------------------------
 .byte   W96
@  #07 @011   ----------------------------------------
 .byte   W96
@  #07 @012   ----------------------------------------
 .byte   W96
@  #07 @013   ----------------------------------------
 .byte   W96
@  #07 @014   ----------------------------------------
 .byte   W96
@  #07 @015   ----------------------------------------
 .byte   W96
@  #07 @016   ----------------------------------------
 .byte   W96
@  #07 @017   ----------------------------------------
 .byte   W96
@  #07 @018   ----------------------------------------
 .byte   W96
@  #07 @019   ----------------------------------------
 .byte   W96
@  #07 @020   ----------------------------------------
 .byte   W96
@  #07 @021   ----------------------------------------
 .byte   W96
@  #07 @022   ----------------------------------------
 .byte   W96
@  #07 @023   ----------------------------------------
 .byte   W96
@  #07 @024   ----------------------------------------
 .byte   W96
@  #07 @025   ----------------------------------------
 .byte   W96
@  #07 @026   ----------------------------------------
 .byte   W96
@  #07 @027   ----------------------------------------
 .byte   W96
@  #07 @028   ----------------------------------------
 .byte   W96
@  #07 @029   ----------------------------------------
 .byte   W96
@  #07 @030   ----------------------------------------
 .byte   W96
@  #07 @031   ----------------------------------------
 .byte   W96
@  #07 @032   ----------------------------------------
 .byte   W96
@  #07 @033   ----------------------------------------
Label_01033865:
 .byte   N12 ,Gs3 ,v078
 .byte   W12
 .byte   As3 ,v090
 .byte   W12
 .byte   Bn3 ,v102
 .byte   W12
 .byte   Cs4 ,v114
 .byte   W12
 .byte   Ds4 ,v127
 .byte   W12
 .byte   Cs4
 .byte   W12
 .byte   Bn3
 .byte   W12
 .byte   As3
 .byte   W12
 .byte   PEND 
@  #07 @034   ----------------------------------------
Label_0103387C:
 .byte   N96 ,An3 ,v127
 .byte   W60
 .byte   N84 ,En3
 .byte   W36
 .byte   PEND 
@  #07 @035   ----------------------------------------
Label_01033884:
 .byte   W24
 .byte   BEND , c_v+3
 .byte   W01
 .byte   BEND , c_v+5
 .byte   W01
 .byte   BEND , c_v+8
 .byte   W01
 .byte   BEND , c_v+11
 .byte   W01
 .byte   BEND , c_v+13
 .byte   W01
 .byte   BEND , c_v+16
 .byte   W01
 .byte   BEND , c_v+19
 .byte   W01
 .byte   BEND , c_v+21
 .byte   W01
 .byte   BEND , c_v+24
 .byte   W01
 .byte   BEND , c_v+27
 .byte   W01
 .byte   BEND , c_v+29
 .byte   W01
 .byte   BEND , c_v+32
 .byte   W01
 .byte   BEND , c_v+35
 .byte   W01
 .byte   BEND , c_v+37
 .byte   W01
 .byte   BEND , c_v+40
 .byte   W01
 .byte   BEND , c_v+43
 .byte   W01
 .byte   BEND , c_v+45
 .byte   W01
 .byte   BEND , c_v+48
 .byte   W01
 .byte   BEND , c_v+51
 .byte   W01
 .byte   BEND , c_v+53
 .byte   W01
 .byte   BEND , c_v+56
 .byte   W01
 .byte   BEND , c_v+59
 .byte   W01
 .byte   BEND , c_v+61
 .byte   W01
 .byte   BEND , c_v+63
 .byte   W01
 .byte   N48 ,Fs4 ,v127
 .byte   BEND , c_v+0
 .byte   W30
 .byte   N18 ,En4
 .byte   W18
 .byte   PEND 
@  #07 @036   ----------------------------------------
 .byte   N96 ,Ds4
 .byte   W96
@  #07 @037   ----------------------------------------
Label_010338C3:
 .byte   W12
 .byte   N12 ,Fs4 ,v127
 .byte   W12
 .byte   Cs4
 .byte   W12
 .byte   Bn3
 .byte   W12
 .byte   As3
 .byte   W12
 .byte   Gs3
 .byte   W12
 .byte   Fs3
 .byte   W12
 .byte   As3
 .byte   W12
 .byte   PEND 
@  #07 @038   ----------------------------------------
Label_010338D5:
 .byte   N84 ,An3 ,v127
 .byte   W84
 .byte   N06 ,Fs3
 .byte   W06
 .byte   En3
 .byte   W06
 .byte   PEND 
@  #07 @039   ----------------------------------------
 .byte   N84 ,Fs3
 .byte   W96
@  #07 @040   ----------------------------------------
 .byte   W96
@  #07 @041   ----------------------------------------
Label_010338E3:
 .byte   N12 ,Gs3 ,v127
 .byte   W12
 .byte   As3
 .byte   W12
 .byte   Bn3
 .byte   W12
 .byte   Cs4
 .byte   W12
 .byte   Ds4
 .byte   W12
 .byte   Cs4
 .byte   W12
 .byte   Bn3
 .byte   W12
 .byte   As3
 .byte   W12
 .byte   PEND 
@  #07 @042   ----------------------------------------
 .byte   PATT
  .word Label_0103387C
@  #07 @043   ----------------------------------------
 .byte   PATT
  .word Label_01033884
@  #07 @044   ----------------------------------------
 .byte   N96 ,Ds4 ,v127
 .byte   W96
@  #07 @045   ----------------------------------------
 .byte   PATT
  .word Label_010338C3
@  #07 @046   ----------------------------------------
 .byte   PATT
  .word Label_010338D5
@  #07 @047   ----------------------------------------
 .byte   N72 ,Fs3 ,v127
 .byte   W96
@  #07 @048   ----------------------------------------
 .byte   W96
@  #07 @049   ----------------------------------------
 .byte   W96
@  #07 @050   ----------------------------------------
 .byte   W96
@  #07 @051   ----------------------------------------
 .byte   W96
@  #07 @052   ----------------------------------------
 .byte   W96
@  #07 @053   ----------------------------------------
 .byte   W96
@  #07 @054   ----------------------------------------
 .byte   W96
@  #07 @055   ----------------------------------------
 .byte   W96
@  #07 @056   ----------------------------------------
 .byte   W96
@  #07 @057   ----------------------------------------
 .byte   W96
@  #07 @058   ----------------------------------------
 .byte   W96
@  #07 @059   ----------------------------------------
 .byte   W96
@  #07 @060   ----------------------------------------
 .byte   W96
@  #07 @061   ----------------------------------------
 .byte   W96
@  #07 @062   ----------------------------------------
 .byte   W96
@  #07 @063   ----------------------------------------
 .byte   W96
@  #07 @064   ----------------------------------------
 .byte   W96
@  #07 @065   ----------------------------------------
 .byte   W96
@  #07 @066   ----------------------------------------
 .byte   W96
@  #07 @067   ----------------------------------------
 .byte   W96
@  #07 @068   ----------------------------------------
 .byte   W96
@  #07 @069   ----------------------------------------
 .byte   W96
@  #07 @070   ----------------------------------------
 .byte   W96
@  #07 @071   ----------------------------------------
 .byte   W96
@  #07 @072   ----------------------------------------
 .byte   GOTO
  .word Label_0103383E
@  #07 @073   ----------------------------------------
 .byte   W96
@  #07 @074   ----------------------------------------
 .byte   W96
@  #07 @075   ----------------------------------------
 .byte   W96
@  #07 @076   ----------------------------------------
 .byte   W96
@  #07 @077   ----------------------------------------
 .byte   W96
@  #07 @078   ----------------------------------------
 .byte   W96
@  #07 @079   ----------------------------------------
 .byte   W96
@  #07 @080   ----------------------------------------
 .byte   W96
@  #07 @081   ----------------------------------------
 .byte   W96
@  #07 @082   ----------------------------------------
 .byte   W96
@  #07 @083   ----------------------------------------
 .byte   W96
@  #07 @084   ----------------------------------------
 .byte   W96
@  #07 @085   ----------------------------------------
 .byte   W96
@  #07 @086   ----------------------------------------
 .byte   W96
@  #07 @087   ----------------------------------------
 .byte   W96
@  #07 @088   ----------------------------------------
 .byte   W96
@  #07 @089   ----------------------------------------
 .byte   W96
@  #07 @090   ----------------------------------------
 .byte   W96
@  #07 @091   ----------------------------------------
 .byte   W96
@  #07 @092   ----------------------------------------
 .byte   W96
@  #07 @093   ----------------------------------------
 .byte   W96
@  #07 @094   ----------------------------------------
 .byte   W96
@  #07 @095   ----------------------------------------
 .byte   W96
@  #07 @096   ----------------------------------------
 .byte   W96
@  #07 @097   ----------------------------------------
 .byte   W96
@  #07 @098   ----------------------------------------
 .byte   W96
@  #07 @099   ----------------------------------------
 .byte   W96
@  #07 @100   ----------------------------------------
 .byte   W96
@  #07 @101   ----------------------------------------
 .byte   W96
@  #07 @102   ----------------------------------------
 .byte   W96
@  #07 @103   ----------------------------------------
 .byte   W96
@  #07 @104   ----------------------------------------
 .byte   W96
@  #07 @105   ----------------------------------------
 .byte   W96
@  #07 @106   ----------------------------------------
 .byte   PATT
  .word Label_01033865
@  #07 @107   ----------------------------------------
 .byte   PATT
  .word Label_0103387C
@  #07 @108   ----------------------------------------
 .byte   PATT
  .word Label_01033884
@  #07 @109   ----------------------------------------
 .byte   N96 ,Ds4 ,v127
 .byte   W96
@  #07 @110   ----------------------------------------
 .byte   PATT
  .word Label_010338C3
@  #07 @111   ----------------------------------------
 .byte   PATT
  .word Label_010338D5
@  #07 @112   ----------------------------------------
 .byte   N84 ,Fs3 ,v127
 .byte   W96
@  #07 @113   ----------------------------------------
 .byte   W96
@  #07 @114   ----------------------------------------
 .byte   PATT
  .word Label_010338E3
@  #07 @115   ----------------------------------------
 .byte   PATT
  .word Label_0103387C
@  #07 @116   ----------------------------------------
 .byte   PATT
  .word Label_01033884
@  #07 @117   ----------------------------------------
 .byte   N96 ,Ds4 ,v127
 .byte   W96
@  #07 @118   ----------------------------------------
 .byte   PATT
  .word Label_010338C3
@  #07 @119   ----------------------------------------
 .byte   PATT
  .word Label_010338D5
@  #07 @120   ----------------------------------------
 .byte   N72 ,Fs3 ,v127
 .byte   W96
@  #07 @121   ----------------------------------------
 .byte   W96
@  #07 @122   ----------------------------------------
 .byte   W96
@  #07 @123   ----------------------------------------
 .byte   W96
@  #07 @124   ----------------------------------------
 .byte   W96
@  #07 @125   ----------------------------------------
 .byte   W96
@  #07 @126   ----------------------------------------
 .byte   W96
@  #07 @127   ----------------------------------------
 .byte   W96
@  #07 @128   ----------------------------------------
 .byte   W96
@  #07 @129   ----------------------------------------
 .byte   W96
@  #07 @130   ----------------------------------------
 .byte   W96
@  #07 @131   ----------------------------------------
 .byte   W96
@  #07 @132   ----------------------------------------
 .byte   W96
@  #07 @133   ----------------------------------------
 .byte   W96
@  #07 @134   ----------------------------------------
 .byte   W96
@  #07 @135   ----------------------------------------
 .byte   W96
@  #07 @136   ----------------------------------------
 .byte   W96
@  #07 @137   ----------------------------------------
 .byte   W96
@  #07 @138   ----------------------------------------
 .byte   W96
@  #07 @139   ----------------------------------------
 .byte   W96
@  #07 @140   ----------------------------------------
 .byte   W96
@  #07 @141   ----------------------------------------
 .byte   W96
@  #07 @142   ----------------------------------------
 .byte   W96
@  #07 @143   ----------------------------------------
 .byte   W96
@  #07 @144   ----------------------------------------
 .byte   W96
@  #07 @145   ----------------------------------------
 .byte   W96
@  #07 @146   ----------------------------------------
 .byte   W96
@  #07 @147   ----------------------------------------
 .byte   W96
@  #07 @148   ----------------------------------------
 .byte   W96
@  #07 @149   ----------------------------------------
 .byte   W96
@  #07 @150   ----------------------------------------
 .byte   W96
@  #07 @151   ----------------------------------------
 .byte   W96
@  #07 @152   ----------------------------------------
 .byte   W96
@  #07 @153   ----------------------------------------
 .byte   W96
@  #07 @154   ----------------------------------------
 .byte   W96
@  #07 @155   ----------------------------------------
 .byte   W96
@  #07 @156   ----------------------------------------
 .byte   W96
@  #07 @157   ----------------------------------------
 .byte   W96
@  #07 @158   ----------------------------------------
 .byte   W96
@  #07 @159   ----------------------------------------
 .byte   W96
@  #07 @160   ----------------------------------------
 .byte   W96
@  #07 @161   ----------------------------------------
 .byte   W96
@  #07 @162   ----------------------------------------
 .byte   W96
@  #07 @163   ----------------------------------------
 .byte   W96
@  #07 @164   ----------------------------------------
 .byte   W96
@  #07 @165   ----------------------------------------
 .byte   W96
@  #07 @166   ----------------------------------------
 .byte   W96
@  #07 @167   ----------------------------------------
 .byte   W96
@  #07 @168   ----------------------------------------
 .byte   W96
@  #07 @169   ----------------------------------------
 .byte   W96
@  #07 @170   ----------------------------------------
 .byte   W96
@  #07 @171   ----------------------------------------
 .byte   W96
@  #07 @172   ----------------------------------------
 .byte   W96
@  #07 @173   ----------------------------------------
 .byte   W96
@  #07 @174   ----------------------------------------
 .byte   W96
@  #07 @175   ----------------------------------------
 .byte   W96
@  #07 @176   ----------------------------------------
 .byte   W96
@  #07 @177   ----------------------------------------
 .byte   W96
@  #07 @178   ----------------------------------------
 .byte   PATT
  .word Label_01033865
@  #07 @179   ----------------------------------------
 .byte   PATT
  .word Label_0103387C
@  #07 @180   ----------------------------------------
 .byte   PATT
  .word Label_01033884
@  #07 @181   ----------------------------------------
 .byte   N96 ,Ds4 ,v127
 .byte   W96
@  #07 @182   ----------------------------------------
 .byte   PATT
  .word Label_010338C3
@  #07 @183   ----------------------------------------
 .byte   PATT
  .word Label_010338D5
@  #07 @184   ----------------------------------------
 .byte   N84 ,Fs3 ,v127
 .byte   W96
@  #07 @185   ----------------------------------------
 .byte   W96
@  #07 @186   ----------------------------------------
 .byte   PATT
  .word Label_010338E3
@  #07 @187   ----------------------------------------
 .byte   PATT
  .word Label_0103387C
@  #07 @188   ----------------------------------------
 .byte   PATT
  .word Label_01033884
@  #07 @189   ----------------------------------------
 .byte   N96 ,Ds4 ,v127
 .byte   W96
@  #07 @190   ----------------------------------------
 .byte   PATT
  .word Label_010338C3
@  #07 @191   ----------------------------------------
 .byte   PATT
  .word Label_010338D5
@  #07 @192   ----------------------------------------
 .byte   N72 ,Fs3 ,v127
 .byte   W96
@  #07 @193   ----------------------------------------
 .byte   W96
@  #07 @194   ----------------------------------------
 .byte   W96
@  #07 @195   ----------------------------------------
 .byte   W96
@  #07 @196   ----------------------------------------
 .byte   W96
@  #07 @197   ----------------------------------------
 .byte   W96
@  #07 @198   ----------------------------------------
 .byte   W96
@  #07 @199   ----------------------------------------
 .byte   W96
@  #07 @200   ----------------------------------------
 .byte   W96
@  #07 @201   ----------------------------------------
 .byte   W96
@  #07 @202   ----------------------------------------
 .byte   W96
@  #07 @203   ----------------------------------------
 .byte   W96
@  #07 @204   ----------------------------------------
 .byte   W96
@  #07 @205   ----------------------------------------
 .byte   W96
@  #07 @206   ----------------------------------------
 .byte   W96
@  #07 @207   ----------------------------------------
 .byte   W96
@  #07 @208   ----------------------------------------
 .byte   W96
@  #07 @209   ----------------------------------------
 .byte   W96
@  #07 @210   ----------------------------------------
 .byte   W96
@  #07 @211   ----------------------------------------
 .byte   W96
@  #07 @212   ----------------------------------------
 .byte   W96
@  #07 @213   ----------------------------------------
 .byte   W96
@  #07 @214   ----------------------------------------
 .byte   W96
@  #07 @215   ----------------------------------------
 .byte   W96
@  #07 @216   ----------------------------------------
 .byte   W14
 .byte   FINE

@**************** Track 8 (Midi-Chn.7) ****************@

song07_008:
@  #08 @000   ----------------------------------------
 .byte   KEYSH , song07_key+0
Label_01033A2A:
 .byte   VOICE , 11
 .byte   BENDR, 12
 .byte   VOL , 35*song07_mvl/mxv
 .byte   W96
@  #08 @001   ----------------------------------------
 .byte   W96
@  #08 @002   ----------------------------------------
 .byte   W96
@  #08 @003   ----------------------------------------
 .byte   W96
@  #08 @004   ----------------------------------------
 .byte   W96
@  #08 @005   ----------------------------------------
 .byte   W96
@  #08 @006   ----------------------------------------
 .byte   W96
@  #08 @007   ----------------------------------------
 .byte   W96
@  #08 @008   ----------------------------------------
 .byte   W96
@  #08 @009   ----------------------------------------
 .byte   W96
@  #08 @010   ----------------------------------------
 .byte   W96
@  #08 @011   ----------------------------------------
 .byte   W96
@  #08 @012   ----------------------------------------
 .byte   W96
@  #08 @013   ----------------------------------------
 .byte   W96
@  #08 @014   ----------------------------------------
 .byte   W96
@  #08 @015   ----------------------------------------
 .byte   W96
@  #08 @016   ----------------------------------------
Label_01033A40:
 .byte   N48 ,Ds4 ,v120
 .byte   W36
 .byte   N36 ,Bn3
 .byte   W36
 .byte   N24 ,Bn4
 .byte   W24
 .byte   PEND 
@  #08 @017   ----------------------------------------
Label_01033A4B:
 .byte   N24 ,As4 ,v120
 .byte   W24
 .byte   Fs4
 .byte   W24
 .byte   Ds4
 .byte   W24
 .byte   Cs4
 .byte   W24
 .byte   PEND 
@  #08 @018   ----------------------------------------
Label_01033A56:
 .byte   N48 ,En4 ,v120
 .byte   W48
 .byte   N24 ,An3
 .byte   W24
 .byte   An4
 .byte   W24
 .byte   PEND 
@  #08 @019   ----------------------------------------
Label_01033A60:
 .byte   N24 ,Gs4 ,v120
 .byte   W24
 .byte   En4
 .byte   W24
 .byte   Cs4
 .byte   W24
 .byte   En4
 .byte   W24
 .byte   PEND 
@  #08 @020   ----------------------------------------
 .byte   PATT
  .word Label_01033A40
@  #08 @021   ----------------------------------------
Label_01033A70:
 .byte   N24 ,As4 ,v120
 .byte   W24
 .byte   Fs4
 .byte   W24
 .byte   Ds4
 .byte   W24
 .byte   En4
 .byte   W24
 .byte   PEND 
@  #08 @022   ----------------------------------------
Label_01033A7B:
 .byte   N72 ,Fs4 ,v120
 .byte   W72
 .byte   N12 ,En4
 .byte   W12
 .byte   Ds4
 .byte   W12
 .byte   PEND 
@  #08 @023   ----------------------------------------
Label_01033A85:
 .byte   N48 ,Cs4 ,v120
 .byte   W48
 .byte   N24 ,Bn3
 .byte   W24
 .byte   En4
 .byte   W24
 .byte   PEND 
@  #08 @024   ----------------------------------------
 .byte   PATT
  .word Label_01033A40
@  #08 @025   ----------------------------------------
 .byte   PATT
  .word Label_01033A4B
@  #08 @026   ----------------------------------------
 .byte   PATT
  .word Label_01033A56
@  #08 @027   ----------------------------------------
 .byte   PATT
  .word Label_01033A60
@  #08 @028   ----------------------------------------
 .byte   PATT
  .word Label_01033A40
@  #08 @029   ----------------------------------------
 .byte   PATT
  .word Label_01033A70
@  #08 @030   ----------------------------------------
 .byte   PATT
  .word Label_01033A7B
@  #08 @031   ----------------------------------------
 .byte   PATT
  .word Label_01033A85
@  #08 @032   ----------------------------------------
Label_01033AB7:
 .byte   TIE ,Ds4 ,v120
 .byte   W76
 .byte   W01
 .byte   BEND , c_v-1
 .byte   W12
 .byte   BEND , c_v-2
 .byte   W07
 .byte   PEND 
@  #08 @033   ----------------------------------------
 .byte   PATT
  .word Label_01033056
@  #08 @034   ----------------------------------------
 .byte   EOT
 .byte   Ds4
 .byte   W96
@  #08 @035   ----------------------------------------
 .byte   PATT
  .word Label_0103306E
@  #08 @036   ----------------------------------------
 .byte   W96
@  #08 @037   ----------------------------------------
 .byte   W96
@  #08 @038   ----------------------------------------
 .byte   W96
@  #08 @039   ----------------------------------------
 .byte   W96
@  #08 @040   ----------------------------------------
 .byte   W96
@  #08 @041   ----------------------------------------
 .byte   W96
@  #08 @042   ----------------------------------------
 .byte   W96
@  #08 @043   ----------------------------------------
 .byte   W96
@  #08 @044   ----------------------------------------
 .byte   W96
@  #08 @045   ----------------------------------------
 .byte   W96
@  #08 @046   ----------------------------------------
 .byte   W96
@  #08 @047   ----------------------------------------
 .byte   W96
@  #08 @048   ----------------------------------------
 .byte   W96
@  #08 @049   ----------------------------------------
 .byte   W96
@  #08 @050   ----------------------------------------
 .byte   W96
@  #08 @051   ----------------------------------------
 .byte   W96
@  #08 @052   ----------------------------------------
 .byte   W96
@  #08 @053   ----------------------------------------
 .byte   W96
@  #08 @054   ----------------------------------------
 .byte   W96
@  #08 @055   ----------------------------------------
 .byte   W96
@  #08 @056   ----------------------------------------
 .byte   W96
@  #08 @057   ----------------------------------------
 .byte   W96
@  #08 @058   ----------------------------------------
 .byte   W96
@  #08 @059   ----------------------------------------
 .byte   W96
@  #08 @060   ----------------------------------------
 .byte   W96
@  #08 @061   ----------------------------------------
 .byte   W96
@  #08 @062   ----------------------------------------
 .byte   W96
@  #08 @063   ----------------------------------------
 .byte   W96
@  #08 @064   ----------------------------------------
 .byte   W96
@  #08 @065   ----------------------------------------
 .byte   W96
@  #08 @066   ----------------------------------------
 .byte   W96
@  #08 @067   ----------------------------------------
 .byte   W96
@  #08 @068   ----------------------------------------
 .byte   W96
@  #08 @069   ----------------------------------------
 .byte   W96
@  #08 @070   ----------------------------------------
 .byte   W96
@  #08 @071   ----------------------------------------
 .byte   W96
@  #08 @072   ----------------------------------------
 .byte   GOTO
  .word Label_01033A2A
@  #08 @073   ----------------------------------------
 .byte   W96
@  #08 @074   ----------------------------------------
 .byte   W96
@  #08 @075   ----------------------------------------
 .byte   W96
@  #08 @076   ----------------------------------------
 .byte   W96
@  #08 @077   ----------------------------------------
 .byte   W96
@  #08 @078   ----------------------------------------
 .byte   W96
@  #08 @079   ----------------------------------------
 .byte   W96
@  #08 @080   ----------------------------------------
 .byte   W96
@  #08 @081   ----------------------------------------
 .byte   W96
@  #08 @082   ----------------------------------------
 .byte   W96
@  #08 @083   ----------------------------------------
 .byte   W96
@  #08 @084   ----------------------------------------
 .byte   W96
@  #08 @085   ----------------------------------------
 .byte   W96
@  #08 @086   ----------------------------------------
 .byte   W96
@  #08 @087   ----------------------------------------
 .byte   W96
@  #08 @088   ----------------------------------------
 .byte   W96
@  #08 @089   ----------------------------------------
 .byte   PATT
  .word Label_01033A40
@  #08 @090   ----------------------------------------
 .byte   PATT
  .word Label_01033A4B
@  #08 @091   ----------------------------------------
 .byte   PATT
  .word Label_01033A56
@  #08 @092   ----------------------------------------
 .byte   PATT
  .word Label_01033A60
@  #08 @093   ----------------------------------------
 .byte   PATT
  .word Label_01033A40
@  #08 @094   ----------------------------------------
 .byte   PATT
  .word Label_01033A70
@  #08 @095   ----------------------------------------
 .byte   PATT
  .word Label_01033A7B
@  #08 @096   ----------------------------------------
 .byte   PATT
  .word Label_01033A85
@  #08 @097   ----------------------------------------
 .byte   PATT
  .word Label_01033A40
@  #08 @098   ----------------------------------------
 .byte   PATT
  .word Label_01033A4B
@  #08 @099   ----------------------------------------
 .byte   PATT
  .word Label_01033A56
@  #08 @100   ----------------------------------------
 .byte   PATT
  .word Label_01033A60
@  #08 @101   ----------------------------------------
 .byte   PATT
  .word Label_01033A40
@  #08 @102   ----------------------------------------
 .byte   PATT
  .word Label_01033A70
@  #08 @103   ----------------------------------------
 .byte   PATT
  .word Label_01033A7B
@  #08 @104   ----------------------------------------
 .byte   PATT
  .word Label_01033A85
@  #08 @105   ----------------------------------------
 .byte   PATT
  .word Label_01033AB7
@  #08 @106   ----------------------------------------
 .byte   PATT
  .word Label_01033056
@  #08 @107   ----------------------------------------
 .byte   EOT
 .byte   Ds4
 .byte   W96
@  #08 @108   ----------------------------------------
 .byte   PATT
  .word Label_0103306E
@  #08 @109   ----------------------------------------
 .byte   W96
@  #08 @110   ----------------------------------------
 .byte   W96
@  #08 @111   ----------------------------------------
 .byte   W96
@  #08 @112   ----------------------------------------
 .byte   W96
@  #08 @113   ----------------------------------------
 .byte   W96
@  #08 @114   ----------------------------------------
 .byte   W96
@  #08 @115   ----------------------------------------
 .byte   W96
@  #08 @116   ----------------------------------------
 .byte   W96
@  #08 @117   ----------------------------------------
 .byte   W96
@  #08 @118   ----------------------------------------
 .byte   W96
@  #08 @119   ----------------------------------------
 .byte   W96
@  #08 @120   ----------------------------------------
 .byte   W96
@  #08 @121   ----------------------------------------
 .byte   W96
@  #08 @122   ----------------------------------------
 .byte   W96
@  #08 @123   ----------------------------------------
 .byte   W96
@  #08 @124   ----------------------------------------
 .byte   W96
@  #08 @125   ----------------------------------------
 .byte   W96
@  #08 @126   ----------------------------------------
 .byte   W96
@  #08 @127   ----------------------------------------
 .byte   W96
@  #08 @128   ----------------------------------------
 .byte   W96
@  #08 @129   ----------------------------------------
 .byte   W96
@  #08 @130   ----------------------------------------
 .byte   W96
@  #08 @131   ----------------------------------------
 .byte   W96
@  #08 @132   ----------------------------------------
 .byte   W96
@  #08 @133   ----------------------------------------
 .byte   W96
@  #08 @134   ----------------------------------------
 .byte   W96
@  #08 @135   ----------------------------------------
 .byte   W96
@  #08 @136   ----------------------------------------
 .byte   W96
@  #08 @137   ----------------------------------------
 .byte   W96
@  #08 @138   ----------------------------------------
 .byte   W96
@  #08 @139   ----------------------------------------
 .byte   W96
@  #08 @140   ----------------------------------------
 .byte   W96
@  #08 @141   ----------------------------------------
 .byte   W96
@  #08 @142   ----------------------------------------
 .byte   W96
@  #08 @143   ----------------------------------------
 .byte   W96
@  #08 @144   ----------------------------------------
 .byte   W96
@  #08 @145   ----------------------------------------
 .byte   W96
@  #08 @146   ----------------------------------------
 .byte   W96
@  #08 @147   ----------------------------------------
 .byte   W96
@  #08 @148   ----------------------------------------
 .byte   W96
@  #08 @149   ----------------------------------------
 .byte   W96
@  #08 @150   ----------------------------------------
 .byte   W96
@  #08 @151   ----------------------------------------
 .byte   W96
@  #08 @152   ----------------------------------------
 .byte   W96
@  #08 @153   ----------------------------------------
 .byte   W96
@  #08 @154   ----------------------------------------
 .byte   W96
@  #08 @155   ----------------------------------------
 .byte   W96
@  #08 @156   ----------------------------------------
 .byte   W96
@  #08 @157   ----------------------------------------
 .byte   W96
@  #08 @158   ----------------------------------------
 .byte   W96
@  #08 @159   ----------------------------------------
 .byte   W96
@  #08 @160   ----------------------------------------
 .byte   W96
@  #08 @161   ----------------------------------------
 .byte   PATT
  .word Label_01033A40
@  #08 @162   ----------------------------------------
 .byte   PATT
  .word Label_01033A4B
@  #08 @163   ----------------------------------------
 .byte   PATT
  .word Label_01033A56
@  #08 @164   ----------------------------------------
 .byte   PATT
  .word Label_01033A60
@  #08 @165   ----------------------------------------
 .byte   PATT
  .word Label_01033A40
@  #08 @166   ----------------------------------------
 .byte   PATT
  .word Label_01033A70
@  #08 @167   ----------------------------------------
 .byte   PATT
  .word Label_01033A7B
@  #08 @168   ----------------------------------------
 .byte   PATT
  .word Label_01033A85
@  #08 @169   ----------------------------------------
 .byte   PATT
  .word Label_01033A40
@  #08 @170   ----------------------------------------
 .byte   PATT
  .word Label_01033A4B
@  #08 @171   ----------------------------------------
 .byte   PATT
  .word Label_01033A56
@  #08 @172   ----------------------------------------
 .byte   PATT
  .word Label_01033A60
@  #08 @173   ----------------------------------------
 .byte   PATT
  .word Label_01033A40
@  #08 @174   ----------------------------------------
 .byte   PATT
  .word Label_01033A70
@  #08 @175   ----------------------------------------
 .byte   PATT
  .word Label_01033A7B
@  #08 @176   ----------------------------------------
 .byte   PATT
  .word Label_01033A85
@  #08 @177   ----------------------------------------
 .byte   PATT
  .word Label_01033AB7
@  #08 @178   ----------------------------------------
 .byte   PATT
  .word Label_01033056
@  #08 @179   ----------------------------------------
 .byte   EOT
 .byte   Ds4
 .byte   W96
@  #08 @180   ----------------------------------------
 .byte   PATT
  .word Label_0103306E
@  #08 @181   ----------------------------------------
 .byte   W96
@  #08 @182   ----------------------------------------
 .byte   W96
@  #08 @183   ----------------------------------------
 .byte   W96
@  #08 @184   ----------------------------------------
 .byte   W96
@  #08 @185   ----------------------------------------
 .byte   W96
@  #08 @186   ----------------------------------------
 .byte   W96
@  #08 @187   ----------------------------------------
 .byte   W96
@  #08 @188   ----------------------------------------
 .byte   W96
@  #08 @189   ----------------------------------------
 .byte   W96
@  #08 @190   ----------------------------------------
 .byte   W96
@  #08 @191   ----------------------------------------
 .byte   W96
@  #08 @192   ----------------------------------------
 .byte   W96
@  #08 @193   ----------------------------------------
 .byte   W96
@  #08 @194   ----------------------------------------
 .byte   W96
@  #08 @195   ----------------------------------------
 .byte   W96
@  #08 @196   ----------------------------------------
 .byte   W96
@  #08 @197   ----------------------------------------
 .byte   W96
@  #08 @198   ----------------------------------------
 .byte   W96
@  #08 @199   ----------------------------------------
 .byte   W96
@  #08 @200   ----------------------------------------
 .byte   W96
@  #08 @201   ----------------------------------------
 .byte   W96
@  #08 @202   ----------------------------------------
 .byte   W96
@  #08 @203   ----------------------------------------
 .byte   W96
@  #08 @204   ----------------------------------------
 .byte   W96
@  #08 @205   ----------------------------------------
 .byte   W96
@  #08 @206   ----------------------------------------
 .byte   W96
@  #08 @207   ----------------------------------------
 .byte   W96
@  #08 @208   ----------------------------------------
 .byte   W96
@  #08 @209   ----------------------------------------
 .byte   W96
@  #08 @210   ----------------------------------------
 .byte   W96
@  #08 @211   ----------------------------------------
 .byte   W96
@  #08 @212   ----------------------------------------
 .byte   W96
@  #08 @213   ----------------------------------------
 .byte   W96
@  #08 @214   ----------------------------------------
 .byte   W96
@  #08 @215   ----------------------------------------
 .byte   W96
@  #08 @216   ----------------------------------------
 .byte   W14
 .byte   FINE

@**************** Track 9 (Midi-Chn.8) ****************@

song07_009:
@  #09 @000   ----------------------------------------
 .byte   KEYSH , song07_key+0
Label_01011CC2:
 .byte   VOICE , 1
 .byte   BENDR, 12
 .byte   VOL , 40*song07_mvl/mxv
 .byte   W96
@  #09 @001   ----------------------------------------
 .byte   W96
@  #09 @002   ----------------------------------------
 .byte   W96
@  #09 @003   ----------------------------------------
 .byte   W96
@  #09 @004   ----------------------------------------
 .byte   W96
@  #09 @005   ----------------------------------------
 .byte   W96
@  #09 @006   ----------------------------------------
 .byte   W96
@  #09 @007   ----------------------------------------
 .byte   W96
@  #09 @008   ----------------------------------------
 .byte   W96
@  #09 @009   ----------------------------------------
 .byte   W96
@  #09 @010   ----------------------------------------
 .byte   W96
@  #09 @011   ----------------------------------------
 .byte   W96
@  #09 @012   ----------------------------------------
 .byte   W96
@  #09 @013   ----------------------------------------
 .byte   W96
@  #09 @014   ----------------------------------------
 .byte   W96
@  #09 @015   ----------------------------------------
 .byte   W96
@  #09 @016   ----------------------------------------
 .byte   PATT
  .word Label_01032FD4
@  #09 @017   ----------------------------------------
 .byte   PATT
  .word Label_01032FDF
@  #09 @018   ----------------------------------------
 .byte   PATT
  .word Label_01032FEA
@  #09 @019   ----------------------------------------
 .byte   PATT
  .word Label_01032FF4
@  #09 @020   ----------------------------------------
 .byte   PATT
  .word Label_01032FD4
@  #09 @021   ----------------------------------------
 .byte   PATT
  .word Label_01033004
@  #09 @022   ----------------------------------------
 .byte   PATT
  .word Label_0103300F
@  #09 @023   ----------------------------------------
 .byte   PATT
  .word Label_01033019
@  #09 @024   ----------------------------------------
 .byte   PATT
  .word Label_01032FD4
@  #09 @025   ----------------------------------------
 .byte   PATT
  .word Label_01032FDF
@  #09 @026   ----------------------------------------
 .byte   PATT
  .word Label_01032FEA
@  #09 @027   ----------------------------------------
 .byte   PATT
  .word Label_01032FF4
@  #09 @028   ----------------------------------------
 .byte   PATT
  .word Label_01032FD4
@  #09 @029   ----------------------------------------
 .byte   PATT
  .word Label_01033004
@  #09 @030   ----------------------------------------
 .byte   PATT
  .word Label_0103300F
@  #09 @031   ----------------------------------------
 .byte   PATT
  .word Label_01033019
@  #09 @032   ----------------------------------------
 .byte   PATT
  .word Label_0103304B
@  #09 @033   ----------------------------------------
 .byte   PATT
  .word Label_01033056
@  #09 @034   ----------------------------------------
 .byte   EOT
 .byte   Ds3
 .byte   W96
@  #09 @035   ----------------------------------------
 .byte   PATT
  .word Label_0103306E
@  #09 @036   ----------------------------------------
 .byte   W96
@  #09 @037   ----------------------------------------
 .byte   W96
@  #09 @038   ----------------------------------------
 .byte   W96
@  #09 @039   ----------------------------------------
 .byte   W96
@  #09 @040   ----------------------------------------
 .byte   W96
@  #09 @041   ----------------------------------------
 .byte   W96
@  #09 @042   ----------------------------------------
 .byte   W96
@  #09 @043   ----------------------------------------
 .byte   W96
@  #09 @044   ----------------------------------------
 .byte   W96
@  #09 @045   ----------------------------------------
 .byte   W96
@  #09 @046   ----------------------------------------
 .byte   W96
@  #09 @047   ----------------------------------------
 .byte   W92
 .byte   W03
 .byte   PAN , c_v-32
 .byte   W01
@  #09 @048   ----------------------------------------
Label_01011D4A:
 .byte   N04 ,As4 ,v120
 .byte   W06
 .byte   Cs5
 .byte   W06
 .byte   Ds5
 .byte   W06
 .byte   Gs5
 .byte   W06
 .byte   As4 ,v100
 .byte   PAN , c_v+32
 .byte   W06
 .byte   N04 ,Cs5
 .byte   W06
 .byte   Ds5
 .byte   W06
 .byte   Gs5
 .byte   W06
 .byte   As4 ,v076
 .byte   PAN , c_v-32
 .byte   W06
 .byte   N04 ,Cs5
 .byte   W06
 .byte   Ds5
 .byte   W06
 .byte   Gs5
 .byte   W06
 .byte   As4 ,v060
 .byte   PAN , c_v+32
 .byte   W06
 .byte   N04 ,Cs5
 .byte   W06
 .byte   Ds5
 .byte   W06
 .byte   Gs5
 .byte   W06
 .byte   PEND 
@  #09 @049   ----------------------------------------
Label_01011D79:
 .byte   N04 ,As4 ,v120
 .byte   PAN , c_v-32
 .byte   W06
 .byte   N04 ,Cs5
 .byte   W06
 .byte   Ds5
 .byte   W06
 .byte   Gs5
 .byte   W06
 .byte   As4 ,v100
 .byte   PAN , c_v+32
 .byte   W06
 .byte   N04 ,Cs5
 .byte   W06
 .byte   Ds5
 .byte   W06
 .byte   Gs5
 .byte   W06
 .byte   As4 ,v076
 .byte   PAN , c_v-32
 .byte   W06
 .byte   N04 ,Cs5
 .byte   W06
 .byte   Ds5
 .byte   W06
 .byte   Gs5
 .byte   W06
 .byte   As4 ,v060
 .byte   PAN , c_v+32
 .byte   W06
 .byte   N04 ,Cs5
 .byte   W06
 .byte   Ds5
 .byte   W06
 .byte   Gs5
 .byte   W05
 .byte   PAN , c_v+31
 .byte   W01
 .byte   PEND 
@  #09 @050   ----------------------------------------
Label_01011DAE:
 .byte   N04 ,Fn5 ,v120
 .byte   PAN , c_v-32
 .byte   W06
 .byte   N04 ,Ds5
 .byte   W06
 .byte   Cs5
 .byte   W06
 .byte   As4
 .byte   W06
 .byte   Fn5 ,v100
 .byte   PAN , c_v+32
 .byte   W06
 .byte   N04 ,Ds5
 .byte   W04
 .byte   N05 ,Cs5
 .byte   W08
 .byte   N04 ,As4
 .byte   W06
 .byte   Fn5 ,v076
 .byte   W06
 .byte   Ds5
 .byte   W06
 .byte   Cs5
 .byte   W06
 .byte   As4
 .byte   W06
 .byte   Fn5 ,v120
 .byte   PAN , c_v-32
 .byte   W06
 .byte   N04 ,Ds5
 .byte   W06
 .byte   Cs5
 .byte   W06
 .byte   As4
 .byte   W06
 .byte   PEND 
@  #09 @051   ----------------------------------------
Label_01011DDF:
 .byte   W12
 .byte   N12 ,Fn5 ,v120
 .byte   PAN , c_v+32
 .byte   W12
 .byte   N12 ,Ds5
 .byte   W12
 .byte   Cs5
 .byte   W12
 .byte   Cn5
 .byte   W12
 .byte   Cs5
 .byte   W12
 .byte   Ds5
 .byte   W12
 .byte   Gs5
 .byte   W12
 .byte   PEND 
@  #09 @052   ----------------------------------------
Label_01011DF4:
 .byte   N04 ,As4 ,v120
 .byte   PAN , c_v-32
 .byte   W06
 .byte   N04 ,Cs5
 .byte   W06
 .byte   Ds5
 .byte   W06
 .byte   Gs5
 .byte   W06
 .byte   As4 ,v100
 .byte   PAN , c_v+32
 .byte   W06
 .byte   N04 ,Cs5
 .byte   W06
 .byte   Ds5
 .byte   W06
 .byte   Gs5
 .byte   W06
 .byte   As4 ,v076
 .byte   PAN , c_v-32
 .byte   W06
 .byte   N04 ,Cs5
 .byte   W06
 .byte   Ds5
 .byte   W06
 .byte   Gs5
 .byte   W06
 .byte   As4 ,v060
 .byte   PAN , c_v+32
 .byte   W06
 .byte   N04 ,Cs5
 .byte   W06
 .byte   Ds5
 .byte   W06
 .byte   Gs5
 .byte   W06
 .byte   PEND 
@  #09 @053   ----------------------------------------
 .byte   PATT
  .word Label_01011D79
@  #09 @054   ----------------------------------------
 .byte   PATT
  .word Label_01011DAE
@  #09 @055   ----------------------------------------
Label_01011E30:
 .byte   N04 ,En5 ,v120
 .byte   W06
 .byte   Ds5
 .byte   W06
 .byte   Bn4
 .byte   W06
 .byte   Gs4
 .byte   W06
 .byte   En5 ,v100
 .byte   PAN , c_v+32
 .byte   W06
 .byte   N04 ,Ds5
 .byte   W06
 .byte   Bn4
 .byte   W06
 .byte   Gs4
 .byte   W06
 .byte   En5 ,v076
 .byte   W06
 .byte   Ds5
 .byte   W06
 .byte   Bn4
 .byte   W06
 .byte   Gs4
 .byte   W06
 .byte   En5 ,v060
 .byte   PAN , c_v+0
 .byte   W06
 .byte   N04 ,Ds5
 .byte   W06
 .byte   Bn4
 .byte   W06
 .byte   Gs4
 .byte   W06
 .byte   PEND 
@  #09 @056   ----------------------------------------
 .byte   PATT
  .word Label_01011DF4
@  #09 @057   ----------------------------------------
 .byte   PATT
  .word Label_01011D79
@  #09 @058   ----------------------------------------
 .byte   PATT
  .word Label_01011DAE
@  #09 @059   ----------------------------------------
 .byte   PATT
  .word Label_01011DDF
@  #09 @060   ----------------------------------------
 .byte   PATT
  .word Label_01011DF4
@  #09 @061   ----------------------------------------
 .byte   PATT
  .word Label_01011D79
@  #09 @062   ----------------------------------------
 .byte   PATT
  .word Label_01011DAE
@  #09 @063   ----------------------------------------
 .byte   PATT
  .word Label_01011E30
@  #09 @064   ----------------------------------------
 .byte   PATT
  .word Label_01011DF4
@  #09 @065   ----------------------------------------
 .byte   PATT
  .word Label_01011D79
@  #09 @066   ----------------------------------------
 .byte   PATT
  .word Label_01011DAE
@  #09 @067   ----------------------------------------
 .byte   PATT
  .word Label_01011DDF
@  #09 @068   ----------------------------------------
 .byte   PATT
  .word Label_01011DF4
@  #09 @069   ----------------------------------------
 .byte   PATT
  .word Label_01011D79
@  #09 @070   ----------------------------------------
 .byte   PATT
  .word Label_01011DAE
@  #09 @071   ----------------------------------------
 .byte   PATT
  .word Label_01011E30
@  #09 @072   ----------------------------------------
 .byte   GOTO
  .word Label_01011CC2
@  #09 @073   ----------------------------------------
 .byte   W96
@  #09 @074   ----------------------------------------
 .byte   W96
@  #09 @075   ----------------------------------------
 .byte   W96
@  #09 @076   ----------------------------------------
 .byte   W96
@  #09 @077   ----------------------------------------
 .byte   W96
@  #09 @078   ----------------------------------------
 .byte   W96
@  #09 @079   ----------------------------------------
 .byte   W96
@  #09 @080   ----------------------------------------
 .byte   W96
@  #09 @081   ----------------------------------------
 .byte   W96
@  #09 @082   ----------------------------------------
 .byte   W96
@  #09 @083   ----------------------------------------
 .byte   W96
@  #09 @084   ----------------------------------------
 .byte   W96
@  #09 @085   ----------------------------------------
 .byte   W96
@  #09 @086   ----------------------------------------
 .byte   W96
@  #09 @087   ----------------------------------------
 .byte   W96
@  #09 @088   ----------------------------------------
 .byte   W96
@  #09 @089   ----------------------------------------
 .byte   PATT
  .word Label_01032FD4
@  #09 @090   ----------------------------------------
 .byte   PATT
  .word Label_01032FDF
@  #09 @091   ----------------------------------------
 .byte   PATT
  .word Label_01032FEA
@  #09 @092   ----------------------------------------
 .byte   PATT
  .word Label_01032FF4
@  #09 @093   ----------------------------------------
 .byte   PATT
  .word Label_01032FD4
@  #09 @094   ----------------------------------------
 .byte   PATT
  .word Label_01033004
@  #09 @095   ----------------------------------------
 .byte   PATT
  .word Label_0103300F
@  #09 @096   ----------------------------------------
 .byte   PATT
  .word Label_01033019
@  #09 @097   ----------------------------------------
 .byte   PATT
  .word Label_01032FD4
@  #09 @098   ----------------------------------------
 .byte   PATT
  .word Label_01032FDF
@  #09 @099   ----------------------------------------
 .byte   PATT
  .word Label_01032FEA
@  #09 @100   ----------------------------------------
 .byte   PATT
  .word Label_01032FF4
@  #09 @101   ----------------------------------------
 .byte   PATT
  .word Label_01032FD4
@  #09 @102   ----------------------------------------
 .byte   PATT
  .word Label_01033004
@  #09 @103   ----------------------------------------
 .byte   PATT
  .word Label_0103300F
@  #09 @104   ----------------------------------------
 .byte   PATT
  .word Label_01033019
@  #09 @105   ----------------------------------------
 .byte   PATT
  .word Label_0103304B
@  #09 @106   ----------------------------------------
 .byte   PATT
  .word Label_01033056
@  #09 @107   ----------------------------------------
 .byte   EOT
 .byte   Ds3
 .byte   W96
@  #09 @108   ----------------------------------------
 .byte   PATT
  .word Label_0103306E
@  #09 @109   ----------------------------------------
 .byte   W96
@  #09 @110   ----------------------------------------
 .byte   W96
@  #09 @111   ----------------------------------------
 .byte   W96
@  #09 @112   ----------------------------------------
 .byte   W96
@  #09 @113   ----------------------------------------
 .byte   W96
@  #09 @114   ----------------------------------------
 .byte   W96
@  #09 @115   ----------------------------------------
 .byte   W96
@  #09 @116   ----------------------------------------
 .byte   W96
@  #09 @117   ----------------------------------------
 .byte   W96
@  #09 @118   ----------------------------------------
 .byte   W96
@  #09 @119   ----------------------------------------
 .byte   W96
@  #09 @120   ----------------------------------------
 .byte   W92
 .byte   W03
 .byte   PAN , c_v-32
 .byte   W01
@  #09 @121   ----------------------------------------
 .byte   PATT
  .word Label_01011D4A
@  #09 @122   ----------------------------------------
 .byte   PATT
  .word Label_01011D79
@  #09 @123   ----------------------------------------
 .byte   PATT
  .word Label_01011DAE
@  #09 @124   ----------------------------------------
 .byte   PATT
  .word Label_01011DDF
@  #09 @125   ----------------------------------------
 .byte   PATT
  .word Label_01011DF4
@  #09 @126   ----------------------------------------
 .byte   PATT
  .word Label_01011D79
@  #09 @127   ----------------------------------------
 .byte   PATT
  .word Label_01011DAE
@  #09 @128   ----------------------------------------
 .byte   PATT
  .word Label_01011E30
@  #09 @129   ----------------------------------------
 .byte   PATT
  .word Label_01011DF4
@  #09 @130   ----------------------------------------
 .byte   PATT
  .word Label_01011D79
@  #09 @131   ----------------------------------------
 .byte   PATT
  .word Label_01011DAE
@  #09 @132   ----------------------------------------
 .byte   PATT
  .word Label_01011DDF
@  #09 @133   ----------------------------------------
 .byte   PATT
  .word Label_01011DF4
@  #09 @134   ----------------------------------------
 .byte   PATT
  .word Label_01011D79
@  #09 @135   ----------------------------------------
 .byte   PATT
  .word Label_01011DAE
@  #09 @136   ----------------------------------------
 .byte   PATT
  .word Label_01011E30
@  #09 @137   ----------------------------------------
 .byte   PATT
  .word Label_01011DF4
@  #09 @138   ----------------------------------------
 .byte   PATT
  .word Label_01011D79
@  #09 @139   ----------------------------------------
 .byte   PATT
  .word Label_01011DAE
@  #09 @140   ----------------------------------------
 .byte   PATT
  .word Label_01011DDF
@  #09 @141   ----------------------------------------
 .byte   PATT
  .word Label_01011DF4
@  #09 @142   ----------------------------------------
 .byte   PATT
  .word Label_01011D79
@  #09 @143   ----------------------------------------
 .byte   PATT
  .word Label_01011DAE
@  #09 @144   ----------------------------------------
 .byte   PATT
  .word Label_01011E30
@  #09 @145   ----------------------------------------
 .byte   W96
@  #09 @146   ----------------------------------------
 .byte   W96
@  #09 @147   ----------------------------------------
 .byte   W96
@  #09 @148   ----------------------------------------
 .byte   W96
@  #09 @149   ----------------------------------------
 .byte   W96
@  #09 @150   ----------------------------------------
 .byte   W96
@  #09 @151   ----------------------------------------
 .byte   W96
@  #09 @152   ----------------------------------------
 .byte   W96
@  #09 @153   ----------------------------------------
 .byte   W96
@  #09 @154   ----------------------------------------
 .byte   W96
@  #09 @155   ----------------------------------------
 .byte   W96
@  #09 @156   ----------------------------------------
 .byte   W96
@  #09 @157   ----------------------------------------
 .byte   W96
@  #09 @158   ----------------------------------------
 .byte   W96
@  #09 @159   ----------------------------------------
 .byte   W96
@  #09 @160   ----------------------------------------
 .byte   W96
@  #09 @161   ----------------------------------------
 .byte   PATT
  .word Label_01032FD4
@  #09 @162   ----------------------------------------
 .byte   PATT
  .word Label_01032FDF
@  #09 @163   ----------------------------------------
 .byte   PATT
  .word Label_01032FEA
@  #09 @164   ----------------------------------------
 .byte   PATT
  .word Label_01032FF4
@  #09 @165   ----------------------------------------
 .byte   PATT
  .word Label_01032FD4
@  #09 @166   ----------------------------------------
 .byte   PATT
  .word Label_01033004
@  #09 @167   ----------------------------------------
 .byte   PATT
  .word Label_0103300F
@  #09 @168   ----------------------------------------
 .byte   PATT
  .word Label_01033019
@  #09 @169   ----------------------------------------
 .byte   PATT
  .word Label_01032FD4
@  #09 @170   ----------------------------------------
 .byte   PATT
  .word Label_01032FDF
@  #09 @171   ----------------------------------------
 .byte   PATT
  .word Label_01032FEA
@  #09 @172   ----------------------------------------
 .byte   PATT
  .word Label_01032FF4
@  #09 @173   ----------------------------------------
 .byte   PATT
  .word Label_01032FD4
@  #09 @174   ----------------------------------------
 .byte   PATT
  .word Label_01033004
@  #09 @175   ----------------------------------------
 .byte   PATT
  .word Label_0103300F
@  #09 @176   ----------------------------------------
 .byte   PATT
  .word Label_01033019
@  #09 @177   ----------------------------------------
 .byte   PATT
  .word Label_0103304B
@  #09 @178   ----------------------------------------
 .byte   PATT
  .word Label_01033056
@  #09 @179   ----------------------------------------
 .byte   EOT
 .byte   Ds3
 .byte   W96
@  #09 @180   ----------------------------------------
 .byte   PATT
  .word Label_0103306E
@  #09 @181   ----------------------------------------
 .byte   W96
@  #09 @182   ----------------------------------------
 .byte   W96
@  #09 @183   ----------------------------------------
 .byte   W96
@  #09 @184   ----------------------------------------
 .byte   W96
@  #09 @185   ----------------------------------------
 .byte   W96
@  #09 @186   ----------------------------------------
 .byte   W96
@  #09 @187   ----------------------------------------
 .byte   W96
@  #09 @188   ----------------------------------------
 .byte   W96
@  #09 @189   ----------------------------------------
 .byte   W96
@  #09 @190   ----------------------------------------
 .byte   W96
@  #09 @191   ----------------------------------------
 .byte   W96
@  #09 @192   ----------------------------------------
 .byte   W92
 .byte   W03
 .byte   PAN , c_v-32
 .byte   W01
@  #09 @193   ----------------------------------------
 .byte   PATT
  .word Label_01011D4A
@  #09 @194   ----------------------------------------
 .byte   PATT
  .word Label_01011D79
@  #09 @195   ----------------------------------------
 .byte   PATT
  .word Label_01011DAE
@  #09 @196   ----------------------------------------
 .byte   PATT
  .word Label_01011DDF
@  #09 @197   ----------------------------------------
 .byte   PATT
  .word Label_01011DF4
@  #09 @198   ----------------------------------------
 .byte   PATT
  .word Label_01011D79
@  #09 @199   ----------------------------------------
 .byte   PATT
  .word Label_01011DAE
@  #09 @200   ----------------------------------------
 .byte   PATT
  .word Label_01011E30
@  #09 @201   ----------------------------------------
 .byte   PATT
  .word Label_01011DF4
@  #09 @202   ----------------------------------------
 .byte   PATT
  .word Label_01011D79
@  #09 @203   ----------------------------------------
 .byte   PATT
  .word Label_01011DAE
@  #09 @204   ----------------------------------------
 .byte   PATT
  .word Label_01011DDF
@  #09 @205   ----------------------------------------
 .byte   PATT
  .word Label_01011DF4
@  #09 @206   ----------------------------------------
 .byte   PATT
  .word Label_01011D79
@  #09 @207   ----------------------------------------
 .byte   PATT
  .word Label_01011DAE
@  #09 @208   ----------------------------------------
 .byte   PATT
  .word Label_01011E30
@  #09 @209   ----------------------------------------
 .byte   PATT
  .word Label_01011DF4
@  #09 @210   ----------------------------------------
 .byte   PATT
  .word Label_01011D79
@  #09 @211   ----------------------------------------
 .byte   PATT
  .word Label_01011DAE
@  #09 @212   ----------------------------------------
 .byte   PATT
  .word Label_01011DDF
@  #09 @213   ----------------------------------------
 .byte   PATT
  .word Label_01011DF4
@  #09 @214   ----------------------------------------
 .byte   PATT
  .word Label_01011D79
@  #09 @215   ----------------------------------------
 .byte   PATT
  .word Label_01011DAE
@  #09 @216   ----------------------------------------
 .byte   W14
 .byte   FINE

@**************** Track 10 (Midi-Chn.9) ****************@

song07_010:
@  #10 @000   ----------------------------------------
 .byte   KEYSH , song07_key+0
Label_01033DCA:
 .byte   VOICE , 121
 .byte   N03 ,Cn1 ,v106
 .byte   N03 ,Cs2
 .byte   BENDR, 12
 .byte   VOL , 35*song07_mvl/mxv
 .byte   W12
 .byte   N03 ,Fs1 ,v036
 .byte   N03 ,An1 ,v108
 .byte   W06
 .byte   Fs1 ,v050
 .byte   N03 ,An1 ,v108
 .byte   W06
 .byte   Cn1 ,v064
 .byte   N03 ,Dn1 ,v127
 .byte   N03 ,As1 ,v064
 .byte   W06
 .byte   Cn1
 .byte   N03 ,As1 ,v092
 .byte   W06
 .byte   Cn1 ,v106
 .byte   N03 ,Cs2 ,v078
 .byte   N03 ,As1 ,v092
 .byte   N03 ,An1 ,v108
 .byte   W06
 .byte   Cn1 ,v106
 .byte   N03 ,Cs2
 .byte   W12
 .byte   Gs1 ,v092
 .byte   N03 ,An1 ,v108
 .byte   W06
 .byte   Ds2 ,v092
 .byte   N03 ,An1 ,v108
 .byte   W06
 .byte   Cn1 ,v064
 .byte   N03 ,Fs1 ,v092
 .byte   N03 ,An1 ,v108
 .byte   W06
 .byte   Cn1 ,v078
 .byte   N03 ,Dn1 ,v127
 .byte   N03 ,Fs1 ,v092
 .byte   W06
 .byte   Cn1 ,v078
 .byte   N03 ,Ds2 ,v092
 .byte   W06
 .byte   Cn1 ,v106
 .byte   N03 ,As1 ,v092
 .byte   N03 ,Cs2 ,v106
 .byte   W12
@  #10 @001   ----------------------------------------
Label_01033E2F:
 .byte   N03 ,Cn1 ,v106
 .byte   N03 ,Cs2
 .byte   W12
 .byte   Fs1 ,v036
 .byte   N03 ,An1 ,v108
 .byte   W06
 .byte   Fs1 ,v050
 .byte   N03 ,An1 ,v108
 .byte   W06
 .byte   Cn1 ,v064
 .byte   N03 ,Dn1 ,v127
 .byte   N03 ,As1 ,v064
 .byte   W06
 .byte   Cn1
 .byte   N03 ,As1 ,v092
 .byte   W06
 .byte   Cn1 ,v106
 .byte   N03 ,Cs2 ,v078
 .byte   N03 ,As1 ,v092
 .byte   N03 ,An1 ,v108
 .byte   W06
 .byte   Cn1 ,v106
 .byte   N03 ,Cs2
 .byte   W12
 .byte   Gs1 ,v092
 .byte   N03 ,An1 ,v108
 .byte   W06
 .byte   Ds2 ,v092
 .byte   N03 ,An1 ,v108
 .byte   W06
 .byte   Cn1 ,v064
 .byte   N03 ,Fs1 ,v092
 .byte   N03 ,An1 ,v108
 .byte   W06
 .byte   Cn1 ,v078
 .byte   N03 ,Dn1 ,v127
 .byte   N03 ,Fs1 ,v092
 .byte   W06
 .byte   Cn1 ,v078
 .byte   N03 ,Ds2 ,v092
 .byte   W06
 .byte   Cn1 ,v106
 .byte   N03 ,Cs2
 .byte   N03 ,As1 ,v092
 .byte   W12
 .byte   PEND 
@  #10 @002   ----------------------------------------
Label_01033E8D:
 .byte   N03 ,Cn1 ,v106
 .byte   N03 ,Cs2
 .byte   W12
 .byte   Fs1 ,v036
 .byte   N03 ,An1 ,v108
 .byte   W06
 .byte   Fs1 ,v050
 .byte   N03 ,An1 ,v108
 .byte   W06
 .byte   Cn1 ,v064
 .byte   N03 ,Dn1 ,v127
 .byte   N03 ,As1 ,v064
 .byte   W06
 .byte   Cn1
 .byte   N03 ,As1 ,v092
 .byte   W06
 .byte   Cn1 ,v106
 .byte   N03 ,Cs2 ,v078
 .byte   N03 ,As1 ,v092
 .byte   N03 ,An1 ,v108
 .byte   W06
 .byte   Cn1 ,v106
 .byte   N03 ,Cs2
 .byte   W12
 .byte   Gs1 ,v092
 .byte   N03 ,An1 ,v108
 .byte   W06
 .byte   Ds2 ,v092
 .byte   N03 ,An1 ,v108
 .byte   W06
 .byte   Cn1 ,v064
 .byte   N03 ,Fs1 ,v092
 .byte   N03 ,An1 ,v108
 .byte   W06
 .byte   Cn1 ,v078
 .byte   N03 ,Dn1 ,v127
 .byte   N03 ,Fs1 ,v092
 .byte   W06
 .byte   Cn1 ,v078
 .byte   N03 ,Ds2 ,v092
 .byte   W06
 .byte   Cn1 ,v106
 .byte   N03 ,As1 ,v092
 .byte   N03 ,Cs2 ,v106
 .byte   W12
 .byte   PEND 
@  #10 @003   ----------------------------------------
 .byte   PATT
  .word Label_01033E2F
@  #10 @004   ----------------------------------------
 .byte   PATT
  .word Label_01033E8D
@  #10 @005   ----------------------------------------
 .byte   PATT
  .word Label_01033E2F
@  #10 @006   ----------------------------------------
 .byte   PATT
  .word Label_01033E8D
@  #10 @007   ----------------------------------------
 .byte   PATT
  .word Label_01033E2F
@  #10 @008   ----------------------------------------
 .byte   PATT
  .word Label_01033E8D
@  #10 @009   ----------------------------------------
 .byte   PATT
  .word Label_01033E2F
@  #10 @010   ----------------------------------------
 .byte   PATT
  .word Label_01033E8D
@  #10 @011   ----------------------------------------
 .byte   PATT
  .word Label_01033E2F
@  #10 @012   ----------------------------------------
 .byte   PATT
  .word Label_01033E8D
@  #10 @013   ----------------------------------------
 .byte   PATT
  .word Label_01033E2F
@  #10 @014   ----------------------------------------
 .byte   PATT
  .word Label_01033E8D
@  #10 @015   ----------------------------------------
Label_01033F28:
 .byte   N03 ,Cn1 ,v106
 .byte   N03 ,Cs2
 .byte   W12
 .byte   As1
 .byte   W06
 .byte   Fs1 ,v050
 .byte   W06
 .byte   Cn1 ,v064
 .byte   N03 ,As1 ,v106
 .byte   W06
 .byte   Cn1 ,v064
 .byte   N03 ,Dn1 ,v078
 .byte   N03 ,Fs1 ,v092
 .byte   W06
 .byte   Cn1 ,v106
 .byte   N03 ,Dn1
 .byte   N03 ,Fs1 ,v092
 .byte   N03 ,Cs2 ,v078
 .byte   W06
 .byte   Cn1 ,v106
 .byte   N03 ,Dn1 ,v078
 .byte   W06
 .byte   Cn1 ,v106
 .byte   W06
 .byte   Dn1 ,v108
 .byte   N03 ,En1
 .byte   N03 ,Gs1 ,v092
 .byte   W06
 .byte   Cn1 ,v106
 .byte   N03 ,Ds2 ,v092
 .byte   W06
 .byte   Dn1 ,v108
 .byte   N03 ,En1
 .byte   N03 ,Fs1 ,v092
 .byte   W06
 .byte   Cn1 ,v106
 .byte   N03 ,En1 ,v108
 .byte   W06
 .byte   En1
 .byte   W03
 .byte   En1
 .byte   W03
 .byte   Cn1 ,v106
 .byte   N03 ,Gn1 ,v108
 .byte   W06
 .byte   Cn1 ,v106
 .byte   N03 ,Fn1 ,v108
 .byte   W06
 .byte   PEND 
@  #10 @016   ----------------------------------------
Label_01033F83:
 .byte   N03 ,Cn1 ,v106
 .byte   N03 ,Cs2 ,v108
 .byte   N03 ,Ds2 ,v106
 .byte   W12
 .byte   Dn1 ,v127
 .byte   N03 ,Fs1 ,v106
 .byte   W06
 .byte   Fs1
 .byte   W06
 .byte   Cn1
 .byte   N03 ,Ds2
 .byte   W06
 .byte   Cn1 ,v102
 .byte   W06
 .byte   Dn1 ,v127
 .byte   N03 ,Fs1 ,v106
 .byte   W06
 .byte   Fs1
 .byte   W06
 .byte   Cn1
 .byte   N03 ,Ds2
 .byte   W06
 .byte   Fs1
 .byte   W06
 .byte   Dn1 ,v127
 .byte   W06
 .byte   Cn1 ,v106
 .byte   N03 ,Fs1
 .byte   W06
 .byte   Ds2
 .byte   W06
 .byte   Cn1 ,v102
 .byte   N03 ,Fs1 ,v106
 .byte   W06
 .byte   Dn1 ,v127
 .byte   N03 ,Fs1 ,v106
 .byte   W12
 .byte   PEND 
@  #10 @017   ----------------------------------------
Label_01033FC1:
 .byte   N03 ,Cn1 ,v106
 .byte   N03 ,Ds2
 .byte   W12
 .byte   Dn1 ,v127
 .byte   N03 ,Fs1 ,v106
 .byte   W06
 .byte   Fs1
 .byte   W06
 .byte   Cn1
 .byte   N03 ,Ds2
 .byte   W06
 .byte   Cn1 ,v102
 .byte   W06
 .byte   Dn1 ,v127
 .byte   N03 ,Fs1 ,v106
 .byte   W06
 .byte   Fs1
 .byte   W06
 .byte   Cn1
 .byte   N03 ,Ds2
 .byte   W06
 .byte   Fs1
 .byte   W06
 .byte   Dn1 ,v127
 .byte   W06
 .byte   Cn1 ,v106
 .byte   N03 ,Fs1
 .byte   W06
 .byte   Ds2
 .byte   W06
 .byte   Cn1 ,v102
 .byte   N03 ,Fs1 ,v106
 .byte   W06
 .byte   Dn1 ,v127
 .byte   N03 ,Fs1 ,v106
 .byte   W12
 .byte   PEND 
@  #10 @018   ----------------------------------------
 .byte   PATT
  .word Label_01033FC1
@  #10 @019   ----------------------------------------
 .byte   PATT
  .word Label_01033FC1
@  #10 @020   ----------------------------------------
 .byte   PATT
  .word Label_01033FC1
@  #10 @021   ----------------------------------------
 .byte   PATT
  .word Label_01033FC1
@  #10 @022   ----------------------------------------
 .byte   PATT
  .word Label_01033FC1
@  #10 @023   ----------------------------------------
 .byte   PATT
  .word Label_01033FC1
@  #10 @024   ----------------------------------------
 .byte   PATT
  .word Label_01033F83
@  #10 @025   ----------------------------------------
 .byte   PATT
  .word Label_01033FC1
@  #10 @026   ----------------------------------------
 .byte   PATT
  .word Label_01033FC1
@  #10 @027   ----------------------------------------
 .byte   PATT
  .word Label_01033FC1
@  #10 @028   ----------------------------------------
 .byte   PATT
  .word Label_01033FC1
@  #10 @029   ----------------------------------------
 .byte   PATT
  .word Label_01033FC1
@  #10 @030   ----------------------------------------
 .byte   PATT
  .word Label_01033FC1
@  #10 @031   ----------------------------------------
 .byte   PATT
  .word Label_01033FC1
@  #10 @032   ----------------------------------------
 .byte   PATT
  .word Label_01033FC1
@  #10 @033   ----------------------------------------
 .byte   PATT
  .word Label_01033FC1
@  #10 @034   ----------------------------------------
 .byte   PATT
  .word Label_01033FC1
@  #10 @035   ----------------------------------------
 .byte   PATT
  .word Label_01033FC1
@  #10 @036   ----------------------------------------
 .byte   PATT
  .word Label_01033FC1
@  #10 @037   ----------------------------------------
 .byte   PATT
  .word Label_01033FC1
@  #10 @038   ----------------------------------------
 .byte   PATT
  .word Label_01033FC1
@  #10 @039   ----------------------------------------
 .byte   PATT
  .word Label_01033FC1
@  #10 @040   ----------------------------------------
 .byte   PATT
  .word Label_01033FC1
@  #10 @041   ----------------------------------------
 .byte   PATT
  .word Label_01033FC1
@  #10 @042   ----------------------------------------
 .byte   PATT
  .word Label_01033FC1
@  #10 @043   ----------------------------------------
 .byte   PATT
  .word Label_01033FC1
@  #10 @044   ----------------------------------------
 .byte   PATT
  .word Label_01033FC1
@  #10 @045   ----------------------------------------
 .byte   PATT
  .word Label_01033FC1
@  #10 @046   ----------------------------------------
 .byte   PATT
  .word Label_01033FC1
@  #10 @047   ----------------------------------------
Label_0103408C:
 .byte   N03 ,Cn1 ,v106
 .byte   N03 ,Ds2
 .byte   W12
 .byte   Dn1 ,v127
 .byte   N03 ,Fs1 ,v106
 .byte   W06
 .byte   Fs1
 .byte   W06
 .byte   Cn1
 .byte   N03 ,Ds2
 .byte   W06
 .byte   Cn1 ,v102
 .byte   W06
 .byte   Dn1 ,v127
 .byte   N03 ,Fs1 ,v106
 .byte   W06
 .byte   Fs1
 .byte   W06
 .byte   Cn1
 .byte   N03 ,En1 ,v120
 .byte   N03 ,Ds2 ,v106
 .byte   W06
 .byte   Fs1
 .byte   W06
 .byte   Dn1 ,v127
 .byte   N03 ,En1 ,v120
 .byte   W06
 .byte   Cn1 ,v106
 .byte   N03 ,En1 ,v120
 .byte   N03 ,Fs1 ,v106
 .byte   W06
 .byte   Ds2
 .byte   W06
 .byte   Cn1 ,v102
 .byte   N03 ,En1 ,v120
 .byte   N03 ,Fs1 ,v106
 .byte   W06
 .byte   Dn1 ,v127
 .byte   N03 ,En1 ,v120
 .byte   N03 ,Fs1 ,v106
 .byte   W06
 .byte   En1 ,v120
 .byte   W06
 .byte   PEND 
@  #10 @048   ----------------------------------------
Label_010340DA:
 .byte   N03 ,Cn1 ,v106
 .byte   N03 ,Fs1
 .byte   N03 ,Cs2 ,v108
 .byte   W06
 .byte   Fs1 ,v106
 .byte   W06
 .byte   As1
 .byte   W06
 .byte   Cn1
 .byte   N03 ,Fs1
 .byte   W06
 .byte   Cn1
 .byte   N03 ,Fs1
 .byte   W12
 .byte   Cn1
 .byte   N03 ,Fs1
 .byte   W06
 .byte   Dn1 ,v086
 .byte   W06
 .byte   Cn1 ,v106
 .byte   N03 ,Fs1
 .byte   W06
 .byte   Fs1
 .byte   W06
 .byte   Cn1
 .byte   N03 ,As1
 .byte   W06
 .byte   Cn1
 .byte   N03 ,Fs1
 .byte   W06
 .byte   Dn1 ,v122
 .byte   N03 ,Fs1 ,v106
 .byte   W12
 .byte   Cn1
 .byte   N03 ,Fs1
 .byte   W06
 .byte   Fs1
 .byte   W06
 .byte   PEND 
@  #10 @049   ----------------------------------------
Label_01034113:
 .byte   N03 ,Cn1 ,v106
 .byte   N03 ,Fs1
 .byte   W06
 .byte   Fs1
 .byte   W06
 .byte   As1
 .byte   W06
 .byte   Cn1
 .byte   N03 ,Fs1
 .byte   W06
 .byte   Dn1 ,v122
 .byte   N03 ,Fs1 ,v106
 .byte   W12
 .byte   Cn1
 .byte   N03 ,Fs1
 .byte   W06
 .byte   Dn1 ,v086
 .byte   W06
 .byte   Cn1 ,v106
 .byte   N03 ,Fs1
 .byte   W06
 .byte   Fs1
 .byte   W06
 .byte   Cn1
 .byte   N03 ,As1
 .byte   W06
 .byte   Cn1
 .byte   N03 ,Fs1
 .byte   W06
 .byte   Dn1 ,v122
 .byte   N03 ,Fs1 ,v106
 .byte   W12
 .byte   Cn1
 .byte   N03 ,Fs1
 .byte   W06
 .byte   Fs1
 .byte   W06
 .byte   PEND 
@  #10 @050   ----------------------------------------
Label_0103414A:
 .byte   N03 ,Cn1 ,v106
 .byte   N03 ,Fs1
 .byte   W06
 .byte   Fs1
 .byte   W06
 .byte   As1
 .byte   W06
 .byte   Cn1
 .byte   N03 ,Fs1
 .byte   W06
 .byte   Cn1
 .byte   N03 ,Fs1
 .byte   W12
 .byte   Cn1
 .byte   N03 ,Fs1
 .byte   W06
 .byte   Dn1 ,v086
 .byte   W06
 .byte   Cn1 ,v106
 .byte   N03 ,Fs1
 .byte   W06
 .byte   Fs1
 .byte   W06
 .byte   Cn1
 .byte   N03 ,As1
 .byte   W06
 .byte   Cn1
 .byte   N03 ,Fs1
 .byte   W06
 .byte   Dn1 ,v122
 .byte   N03 ,Fs1 ,v106
 .byte   W12
 .byte   Cn1
 .byte   N03 ,Fs1
 .byte   W06
 .byte   Fs1
 .byte   W06
 .byte   PEND 
@  #10 @051   ----------------------------------------
 .byte   PATT
  .word Label_01034113
@  #10 @052   ----------------------------------------
 .byte   PATT
  .word Label_010340DA
@  #10 @053   ----------------------------------------
 .byte   PATT
  .word Label_01034113
@  #10 @054   ----------------------------------------
 .byte   PATT
  .word Label_0103414A
@  #10 @055   ----------------------------------------
 .byte   PATT
  .word Label_01034113
@  #10 @056   ----------------------------------------
 .byte   PATT
  .word Label_01033F83
@  #10 @057   ----------------------------------------
 .byte   PATT
  .word Label_01033FC1
@  #10 @058   ----------------------------------------
 .byte   PATT
  .word Label_01033FC1
@  #10 @059   ----------------------------------------
 .byte   PATT
  .word Label_01033FC1
@  #10 @060   ----------------------------------------
 .byte   PATT
  .word Label_01033F83
@  #10 @061   ----------------------------------------
 .byte   PATT
  .word Label_01033FC1
@  #10 @062   ----------------------------------------
 .byte   PATT
  .word Label_01033FC1
@  #10 @063   ----------------------------------------
 .byte   PATT
  .word Label_01033FC1
@  #10 @064   ----------------------------------------
 .byte   PATT
  .word Label_01033F83
@  #10 @065   ----------------------------------------
 .byte   PATT
  .word Label_01033FC1
@  #10 @066   ----------------------------------------
 .byte   PATT
  .word Label_01033FC1
@  #10 @067   ----------------------------------------
 .byte   PATT
  .word Label_01033FC1
@  #10 @068   ----------------------------------------
 .byte   PATT
  .word Label_01033F83
@  #10 @069   ----------------------------------------
 .byte   PATT
  .word Label_01033FC1
@  #10 @070   ----------------------------------------
 .byte   PATT
  .word Label_01033FC1
@  #10 @071   ----------------------------------------
 .byte   W96
@  #10 @072   ----------------------------------------
 .byte   N03 ,Cn1 ,v106
 .byte   N03 ,Cs2
 .byte   GOTO
  .word Label_01033DCA
@  #10 @073   ----------------------------------------
 .byte   W12
 .byte   Fs1 ,v036
 .byte   N03 ,An1 ,v108
 .byte   W06
 .byte   Fs1 ,v050
 .byte   N03 ,An1 ,v108
 .byte   W06
 .byte   Cn1 ,v064
 .byte   N03 ,Dn1 ,v127
 .byte   N03 ,As1 ,v064
 .byte   W06
 .byte   Cn1
 .byte   N03 ,As1 ,v092
 .byte   W06
 .byte   Cn1 ,v106
 .byte   N03 ,Cs2 ,v078
 .byte   N03 ,As1 ,v092
 .byte   N03 ,An1 ,v108
 .byte   W06
 .byte   Cn1 ,v106
 .byte   N03 ,Cs2
 .byte   W12
 .byte   Gs1 ,v092
 .byte   N03 ,An1 ,v108
 .byte   W06
 .byte   Ds2 ,v092
 .byte   N03 ,An1 ,v108
 .byte   W06
 .byte   Cn1 ,v064
 .byte   N03 ,Fs1 ,v092
 .byte   N03 ,An1 ,v108
 .byte   W06
 .byte   Cn1 ,v078
 .byte   N03 ,Dn1 ,v127
 .byte   N03 ,Fs1 ,v092
 .byte   W06
 .byte   Cn1 ,v078
 .byte   N03 ,Ds2 ,v092
 .byte   W06
 .byte   Cn1 ,v106
 .byte   N03 ,As1 ,v092
 .byte   N03 ,Cs2 ,v106
 .byte   W12
@  #10 @074   ----------------------------------------
 .byte   PATT
  .word Label_01033E2F
@  #10 @075   ----------------------------------------
 .byte   PATT
  .word Label_01033E8D
@  #10 @076   ----------------------------------------
 .byte   PATT
  .word Label_01033E2F
@  #10 @077   ----------------------------------------
 .byte   PATT
  .word Label_01033E8D
@  #10 @078   ----------------------------------------
 .byte   PATT
  .word Label_01033E2F
@  #10 @079   ----------------------------------------
 .byte   PATT
  .word Label_01033E8D
@  #10 @080   ----------------------------------------
 .byte   PATT
  .word Label_01033E2F
@  #10 @081   ----------------------------------------
 .byte   PATT
  .word Label_01033E8D
@  #10 @082   ----------------------------------------
 .byte   PATT
  .word Label_01033E2F
@  #10 @083   ----------------------------------------
 .byte   PATT
  .word Label_01033E8D
@  #10 @084   ----------------------------------------
 .byte   PATT
  .word Label_01033E2F
@  #10 @085   ----------------------------------------
 .byte   PATT
  .word Label_01033E8D
@  #10 @086   ----------------------------------------
 .byte   PATT
  .word Label_01033E2F
@  #10 @087   ----------------------------------------
 .byte   PATT
  .word Label_01033E8D
@  #10 @088   ----------------------------------------
 .byte   PATT
  .word Label_01033F28
@  #10 @089   ----------------------------------------
 .byte   PATT
  .word Label_01033F83
@  #10 @090   ----------------------------------------
 .byte   PATT
  .word Label_01033FC1
@  #10 @091   ----------------------------------------
 .byte   PATT
  .word Label_01033FC1
@  #10 @092   ----------------------------------------
 .byte   PATT
  .word Label_01033FC1
@  #10 @093   ----------------------------------------
 .byte   PATT
  .word Label_01033FC1
@  #10 @094   ----------------------------------------
 .byte   PATT
  .word Label_01033FC1
@  #10 @095   ----------------------------------------
 .byte   PATT
  .word Label_01033FC1
@  #10 @096   ----------------------------------------
 .byte   PATT
  .word Label_01033FC1
@  #10 @097   ----------------------------------------
 .byte   PATT
  .word Label_01033F83
@  #10 @098   ----------------------------------------
 .byte   PATT
  .word Label_01033FC1
@  #10 @099   ----------------------------------------
 .byte   PATT
  .word Label_01033FC1
@  #10 @100   ----------------------------------------
 .byte   PATT
  .word Label_01033FC1
@  #10 @101   ----------------------------------------
 .byte   PATT
  .word Label_01033FC1
@  #10 @102   ----------------------------------------
 .byte   PATT
  .word Label_01033FC1
@  #10 @103   ----------------------------------------
 .byte   PATT
  .word Label_01033FC1
@  #10 @104   ----------------------------------------
 .byte   PATT
  .word Label_01033FC1
@  #10 @105   ----------------------------------------
 .byte   PATT
  .word Label_01033FC1
@  #10 @106   ----------------------------------------
 .byte   PATT
  .word Label_01033FC1
@  #10 @107   ----------------------------------------
 .byte   PATT
  .word Label_01033FC1
@  #10 @108   ----------------------------------------
 .byte   PATT
  .word Label_01033FC1
@  #10 @109   ----------------------------------------
 .byte   PATT
  .word Label_01033FC1
@  #10 @110   ----------------------------------------
 .byte   PATT
  .word Label_01033FC1
@  #10 @111   ----------------------------------------
 .byte   PATT
  .word Label_01033FC1
@  #10 @112   ----------------------------------------
 .byte   PATT
  .word Label_01033FC1
@  #10 @113   ----------------------------------------
 .byte   PATT
  .word Label_01033FC1
@  #10 @114   ----------------------------------------
 .byte   PATT
  .word Label_01033FC1
@  #10 @115   ----------------------------------------
 .byte   PATT
  .word Label_01033FC1
@  #10 @116   ----------------------------------------
 .byte   PATT
  .word Label_01033FC1
@  #10 @117   ----------------------------------------
 .byte   PATT
  .word Label_01033FC1
@  #10 @118   ----------------------------------------
 .byte   PATT
  .word Label_01033FC1
@  #10 @119   ----------------------------------------
 .byte   PATT
  .word Label_01033FC1
@  #10 @120   ----------------------------------------
 .byte   PATT
  .word Label_0103408C
@  #10 @121   ----------------------------------------
 .byte   PATT
  .word Label_010340DA
@  #10 @122   ----------------------------------------
 .byte   PATT
  .word Label_01034113
@  #10 @123   ----------------------------------------
 .byte   PATT
  .word Label_0103414A
@  #10 @124   ----------------------------------------
 .byte   PATT
  .word Label_01034113
@  #10 @125   ----------------------------------------
 .byte   PATT
  .word Label_010340DA
@  #10 @126   ----------------------------------------
 .byte   PATT
  .word Label_01034113
@  #10 @127   ----------------------------------------
 .byte   PATT
  .word Label_0103414A
@  #10 @128   ----------------------------------------
 .byte   PATT
  .word Label_01034113
@  #10 @129   ----------------------------------------
 .byte   PATT
  .word Label_01033F83
@  #10 @130   ----------------------------------------
 .byte   PATT
  .word Label_01033FC1
@  #10 @131   ----------------------------------------
 .byte   PATT
  .word Label_01033FC1
@  #10 @132   ----------------------------------------
 .byte   PATT
  .word Label_01033FC1
@  #10 @133   ----------------------------------------
 .byte   PATT
  .word Label_01033F83
@  #10 @134   ----------------------------------------
 .byte   PATT
  .word Label_01033FC1
@  #10 @135   ----------------------------------------
 .byte   PATT
  .word Label_01033FC1
@  #10 @136   ----------------------------------------
 .byte   PATT
  .word Label_01033FC1
@  #10 @137   ----------------------------------------
 .byte   PATT
  .word Label_01033F83
@  #10 @138   ----------------------------------------
 .byte   PATT
  .word Label_01033FC1
@  #10 @139   ----------------------------------------
 .byte   PATT
  .word Label_01033FC1
@  #10 @140   ----------------------------------------
 .byte   PATT
  .word Label_01033FC1
@  #10 @141   ----------------------------------------
 .byte   PATT
  .word Label_01033F83
@  #10 @142   ----------------------------------------
 .byte   PATT
  .word Label_01033FC1
@  #10 @143   ----------------------------------------
 .byte   PATT
  .word Label_01033FC1
@  #10 @144   ----------------------------------------
 .byte   W96
@  #10 @145   ----------------------------------------
 .byte   PATT
  .word Label_01033E8D
@  #10 @146   ----------------------------------------
 .byte   PATT
  .word Label_01033E2F
@  #10 @147   ----------------------------------------
 .byte   PATT
  .word Label_01033E8D
@  #10 @148   ----------------------------------------
 .byte   PATT
  .word Label_01033E2F
@  #10 @149   ----------------------------------------
 .byte   PATT
  .word Label_01033E8D
@  #10 @150   ----------------------------------------
 .byte   PATT
  .word Label_01033E2F
@  #10 @151   ----------------------------------------
 .byte   PATT
  .word Label_01033E8D
@  #10 @152   ----------------------------------------
 .byte   PATT
  .word Label_01033E2F
@  #10 @153   ----------------------------------------
 .byte   PATT
  .word Label_01033E8D
@  #10 @154   ----------------------------------------
 .byte   PATT
  .word Label_01033E2F
@  #10 @155   ----------------------------------------
 .byte   PATT
  .word Label_01033E8D
@  #10 @156   ----------------------------------------
 .byte   PATT
  .word Label_01033E2F
@  #10 @157   ----------------------------------------
 .byte   PATT
  .word Label_01033E8D
@  #10 @158   ----------------------------------------
 .byte   PATT
  .word Label_01033E2F
@  #10 @159   ----------------------------------------
 .byte   PATT
  .word Label_01033E8D
@  #10 @160   ----------------------------------------
 .byte   PATT
  .word Label_01033F28
@  #10 @161   ----------------------------------------
 .byte   PATT
  .word Label_01033F83
@  #10 @162   ----------------------------------------
 .byte   PATT
  .word Label_01033FC1
@  #10 @163   ----------------------------------------
 .byte   PATT
  .word Label_01033FC1
@  #10 @164   ----------------------------------------
 .byte   PATT
  .word Label_01033FC1
@  #10 @165   ----------------------------------------
 .byte   PATT
  .word Label_01033FC1
@  #10 @166   ----------------------------------------
 .byte   PATT
  .word Label_01033FC1
@  #10 @167   ----------------------------------------
 .byte   PATT
  .word Label_01033FC1
@  #10 @168   ----------------------------------------
 .byte   PATT
  .word Label_01033FC1
@  #10 @169   ----------------------------------------
 .byte   PATT
  .word Label_01033F83
@  #10 @170   ----------------------------------------
 .byte   PATT
  .word Label_01033FC1
@  #10 @171   ----------------------------------------
 .byte   PATT
  .word Label_01033FC1
@  #10 @172   ----------------------------------------
 .byte   PATT
  .word Label_01033FC1
@  #10 @173   ----------------------------------------
 .byte   PATT
  .word Label_01033FC1
@  #10 @174   ----------------------------------------
 .byte   PATT
  .word Label_01033FC1
@  #10 @175   ----------------------------------------
 .byte   PATT
  .word Label_01033FC1
@  #10 @176   ----------------------------------------
 .byte   PATT
  .word Label_01033FC1
@  #10 @177   ----------------------------------------
 .byte   PATT
  .word Label_01033FC1
@  #10 @178   ----------------------------------------
 .byte   PATT
  .word Label_01033FC1
@  #10 @179   ----------------------------------------
 .byte   PATT
  .word Label_01033FC1
@  #10 @180   ----------------------------------------
 .byte   PATT
  .word Label_01033FC1
@  #10 @181   ----------------------------------------
 .byte   PATT
  .word Label_01033FC1
@  #10 @182   ----------------------------------------
 .byte   PATT
  .word Label_01033FC1
@  #10 @183   ----------------------------------------
 .byte   PATT
  .word Label_01033FC1
@  #10 @184   ----------------------------------------
 .byte   PATT
  .word Label_01033FC1
@  #10 @185   ----------------------------------------
 .byte   PATT
  .word Label_01033FC1
@  #10 @186   ----------------------------------------
 .byte   PATT
  .word Label_01033FC1
@  #10 @187   ----------------------------------------
 .byte   PATT
  .word Label_01033FC1
@  #10 @188   ----------------------------------------
 .byte   PATT
  .word Label_01033FC1
@  #10 @189   ----------------------------------------
 .byte   PATT
  .word Label_01033FC1
@  #10 @190   ----------------------------------------
 .byte   PATT
  .word Label_01033FC1
@  #10 @191   ----------------------------------------
 .byte   PATT
  .word Label_01033FC1
@  #10 @192   ----------------------------------------
 .byte   PATT
  .word Label_0103408C
@  #10 @193   ----------------------------------------
 .byte   PATT
  .word Label_010340DA
@  #10 @194   ----------------------------------------
 .byte   PATT
  .word Label_01034113
@  #10 @195   ----------------------------------------
 .byte   PATT
  .word Label_0103414A
@  #10 @196   ----------------------------------------
 .byte   PATT
  .word Label_01034113
@  #10 @197   ----------------------------------------
 .byte   PATT
  .word Label_010340DA
@  #10 @198   ----------------------------------------
 .byte   PATT
  .word Label_01034113
@  #10 @199   ----------------------------------------
 .byte   PATT
  .word Label_0103414A
@  #10 @200   ----------------------------------------
 .byte   PATT
  .word Label_01034113
@  #10 @201   ----------------------------------------
 .byte   PATT
  .word Label_01033F83
@  #10 @202   ----------------------------------------
 .byte   PATT
  .word Label_01033FC1
@  #10 @203   ----------------------------------------
 .byte   PATT
  .word Label_01033FC1
@  #10 @204   ----------------------------------------
 .byte   PATT
  .word Label_01033FC1
@  #10 @205   ----------------------------------------
 .byte   PATT
  .word Label_01033F83
@  #10 @206   ----------------------------------------
 .byte   PATT
  .word Label_01033FC1
@  #10 @207   ----------------------------------------
 .byte   PATT
  .word Label_01033FC1
@  #10 @208   ----------------------------------------
 .byte   PATT
  .word Label_01033FC1
@  #10 @209   ----------------------------------------
 .byte   PATT
  .word Label_01033F83
@  #10 @210   ----------------------------------------
 .byte   PATT
  .word Label_01033FC1
@  #10 @211   ----------------------------------------
 .byte   PATT
  .word Label_01033FC1
@  #10 @212   ----------------------------------------
 .byte   PATT
  .word Label_01033FC1
@  #10 @213   ----------------------------------------
 .byte   PATT
  .word Label_01033F83
@  #10 @214   ----------------------------------------
 .byte   PATT
  .word Label_01033FC1
@  #10 @215   ----------------------------------------
 .byte   PATT
  .word Label_01033FC1
@  #10 @216   ----------------------------------------
 .byte   W14
 .byte   FINE

@**************** Track 11 (Midi-Chn.10) ****************@

song07_011:
@  #11 @000   ----------------------------------------
 .byte   KEYSH , song07_key+0
Label_0102EAC2:
 .byte   VOICE , 52
 .byte   BENDR, 12
 .byte   VOL , 25*song07_mvl/mxv
 .byte   W96
@  #11 @001   ----------------------------------------
 .byte   W96
@  #11 @002   ----------------------------------------
 .byte   W96
@  #11 @003   ----------------------------------------
 .byte   W96
@  #11 @004   ----------------------------------------
Label_0102EACC:
 .byte   TIE ,An4 ,v100
 .byte   TIE ,Fs5
 .byte   TIE ,Ds5
 .byte   TIE ,Fs4 ,v120
 .byte   TIE ,Fs3
 .byte   TIE ,An3
 .byte   TIE ,Ds4
 .byte   BEND , c_v-29
 .byte   W01
 .byte   BEND , c_v-25
 .byte   W01
 .byte   BEND , c_v-22
 .byte   W01
 .byte   BEND , c_v-19
 .byte   W01
 .byte   BEND , c_v-17
 .byte   W01
 .byte   BEND , c_v-14
 .byte   W01
 .byte   BEND , c_v-12
 .byte   W01
 .byte   BEND , c_v-11
 .byte   W01
 .byte   BEND , c_v-9
 .byte   W01
 .byte   BEND , c_v-8
 .byte   W01
 .byte   BEND , c_v-7
 .byte   W01
 .byte   BEND , c_v-6
 .byte   W01
 .byte   BEND , c_v-5
 .byte   W01
 .byte   BEND , c_v-4
 .byte   W01
 .byte   BEND , c_v-3
 .byte   W02
 .byte   BEND , c_v-2
 .byte   W02
 .byte   BEND , c_v-1
 .byte   W03
 .byte   BEND , c_v+0
 .byte   W72
 .byte   W03
 .byte   PEND 
@  #11 @005   ----------------------------------------
 .byte   W03
 .byte   Ds3
 .byte   W08
 .byte   Dn3
 .byte   W06
 .byte   Cs3
 .byte   W06
 .byte   Cn3
 .byte   W06
 .byte   Bn2
 .byte   W05
 .byte   As2
 .byte   W04
 .byte   An2
 .byte   W05
 .byte   Gs2
 .byte   W04
 .byte   Gn2
 .byte   W04
 .byte   Fs2
 .byte   W04
 .byte   Fn2
 .byte   W04
 .byte   En2
 .byte   W03
 .byte   Ds2
 .byte   W04
 .byte   Dn2
 .byte   W03
 .byte   Cs2
 .byte   W03
 .byte   EOT
 .byte   An3 ,v075
 .byte   An4 ,v090
 .byte   Ds5 ,v078
 .byte   Fs3
 .byte   BEND , c_v-16
 .byte   W03
 .byte   BEND , c_v-17
 .byte   W02
 .byte   BEND , c_v-18
 .byte   W03
 .byte   BEND , c_v-19
 .byte   W03
 .byte   BEND , c_v-20
 .byte   W02
 .byte   BEND , c_v-21
 .byte   W03
 .byte   BEND , c_v-22
 .byte   W02
 .byte   BEND , c_v-23
 .byte   W02
 .byte   BEND , c_v-24
 .byte   W02
 .byte   BEND , c_v-25
 .byte   W02
@  #11 @006   ----------------------------------------
Label_0102EB3F:
 .byte   TIE ,An3 ,v120
 .byte   TIE ,Fs4
 .byte   TIE ,Ds4
 .byte   TIE ,Fs3
 .byte   TIE ,Ds5 ,v100
 .byte   TIE ,An4
 .byte   TIE ,Fs5
 .byte   BEND , c_v-29
 .byte   W01
 .byte   BEND , c_v-25
 .byte   W01
 .byte   BEND , c_v-22
 .byte   W01
 .byte   BEND , c_v-19
 .byte   W01
 .byte   BEND , c_v-17
 .byte   W01
 .byte   BEND , c_v-14
 .byte   W01
 .byte   BEND , c_v-12
 .byte   W01
 .byte   BEND , c_v-11
 .byte   W01
 .byte   BEND , c_v-9
 .byte   W01
 .byte   BEND , c_v-8
 .byte   W01
 .byte   BEND , c_v-7
 .byte   W01
 .byte   BEND , c_v-6
 .byte   W01
 .byte   BEND , c_v-5
 .byte   W01
 .byte   BEND , c_v-4
 .byte   W01
 .byte   BEND , c_v-3
 .byte   W02
 .byte   BEND , c_v-2
 .byte   W02
 .byte   BEND , c_v-1
 .byte   W03
 .byte   BEND , c_v+0
 .byte   W72
 .byte   W03
 .byte   PEND 
@  #11 @007   ----------------------------------------
 .byte   W03
 .byte   Ds3
 .byte   W08
 .byte   Dn3
 .byte   W06
 .byte   Cs3
 .byte   W06
 .byte   Cn3
 .byte   W06
 .byte   Bn2
 .byte   W05
 .byte   As2
 .byte   W04
 .byte   An2
 .byte   W05
 .byte   Gs2
 .byte   W04
 .byte   Gn2
 .byte   W04
 .byte   Fs2
 .byte   W04
 .byte   Fn2
 .byte   W04
 .byte   En2
 .byte   W03
 .byte   Ds2
 .byte   W04
 .byte   Dn2
 .byte   W03
 .byte   Cs2
 .byte   W03
 .byte   EOT
 .byte   An4 ,v090
 .byte   An3 ,v078
 .byte   Ds4 ,v066
 .byte   Ds5
 .byte   BEND , c_v-16
 .byte   W03
 .byte   BEND , c_v-17
 .byte   W02
 .byte   BEND , c_v-18
 .byte   W03
 .byte   BEND , c_v-19
 .byte   W03
 .byte   BEND , c_v-20
 .byte   W02
 .byte   BEND , c_v-21
 .byte   W03
 .byte   BEND , c_v-22
 .byte   W02
 .byte   BEND , c_v-23
 .byte   W02
 .byte   BEND , c_v-24
 .byte   W02
 .byte   BEND , c_v-25
 .byte   W02
@  #11 @008   ----------------------------------------
 .byte   W96
@  #11 @009   ----------------------------------------
 .byte   W96
@  #11 @010   ----------------------------------------
 .byte   W96
@  #11 @011   ----------------------------------------
 .byte   W96
@  #11 @012   ----------------------------------------
Label_0102EBB6:
 .byte   TIE ,Ds4 ,v120
 .byte   TIE ,Fs3
 .byte   TIE ,Fs4
 .byte   TIE ,Ds5 ,v100
 .byte   TIE ,Fs5
 .byte   TIE ,An4
 .byte   TIE ,An3 ,v120
 .byte   BEND , c_v-29
 .byte   W01
 .byte   BEND , c_v-25
 .byte   W01
 .byte   BEND , c_v-22
 .byte   W01
 .byte   BEND , c_v-19
 .byte   W01
 .byte   BEND , c_v-17
 .byte   W01
 .byte   BEND , c_v-14
 .byte   W01
 .byte   BEND , c_v-12
 .byte   W01
 .byte   BEND , c_v-11
 .byte   W01
 .byte   BEND , c_v-9
 .byte   W01
 .byte   BEND , c_v-8
 .byte   W01
 .byte   BEND , c_v-7
 .byte   W01
 .byte   BEND , c_v-6
 .byte   W01
 .byte   BEND , c_v-5
 .byte   W01
 .byte   BEND , c_v-4
 .byte   W01
 .byte   BEND , c_v-3
 .byte   W02
 .byte   BEND , c_v-2
 .byte   W02
 .byte   BEND , c_v-1
 .byte   W03
 .byte   BEND , c_v+0
 .byte   W72
 .byte   W03
 .byte   PEND 
@  #11 @013   ----------------------------------------
 .byte   W03
 .byte   Ds3
 .byte   W08
 .byte   Dn3
 .byte   W06
 .byte   Cs3
 .byte   W06
 .byte   Cn3
 .byte   W06
 .byte   Bn2
 .byte   W05
 .byte   As2
 .byte   W04
 .byte   An2
 .byte   W05
 .byte   Gs2
 .byte   W04
 .byte   Gn2
 .byte   W04
 .byte   Fs2
 .byte   W04
 .byte   Fn2
 .byte   W04
 .byte   En2
 .byte   W03
 .byte   Ds2
 .byte   W04
 .byte   Dn2
 .byte   W03
 .byte   Cs2
 .byte   W03
 .byte   EOT
 .byte   An4 ,v069
 .byte   Fs5 ,v087
 .byte   Ds4 ,v066
 .byte   Fs4
 .byte   BEND , c_v-16
 .byte   W03
 .byte   BEND , c_v-17
 .byte   W02
 .byte   BEND , c_v-18
 .byte   W03
 .byte   BEND , c_v-19
 .byte   W03
 .byte   BEND , c_v-20
 .byte   W02
 .byte   BEND , c_v-21
 .byte   W03
 .byte   BEND , c_v-22
 .byte   W02
 .byte   BEND , c_v-23
 .byte   W02
 .byte   BEND , c_v-24
 .byte   W02
 .byte   BEND , c_v-25
 .byte   W02
@  #11 @014   ----------------------------------------
Label_0102EC2A:
 .byte   TIE ,Fs5 ,v100
 .byte   TIE ,An4
 .byte   TIE ,Ds5
 .byte   TIE ,Fs3 ,v120
 .byte   TIE ,Ds4
 .byte   TIE ,Fs4
 .byte   TIE ,An3
 .byte   BEND , c_v-29
 .byte   W01
 .byte   BEND , c_v-25
 .byte   W01
 .byte   BEND , c_v-22
 .byte   W01
 .byte   BEND , c_v-19
 .byte   W01
 .byte   BEND , c_v-17
 .byte   W01
 .byte   BEND , c_v-14
 .byte   W01
 .byte   BEND , c_v-12
 .byte   W01
 .byte   BEND , c_v-11
 .byte   W01
 .byte   BEND , c_v-9
 .byte   W01
 .byte   BEND , c_v-8
 .byte   W01
 .byte   BEND , c_v-7
 .byte   W01
 .byte   BEND , c_v-6
 .byte   W01
 .byte   BEND , c_v-5
 .byte   W01
 .byte   BEND , c_v-4
 .byte   W01
 .byte   BEND , c_v-3
 .byte   W02
 .byte   BEND , c_v-2
 .byte   W02
 .byte   BEND , c_v-1
 .byte   W03
 .byte   BEND , c_v+0
 .byte   W72
 .byte   W03
 .byte   PEND 
@  #11 @015   ----------------------------------------
 .byte   W03
 .byte   Ds3
 .byte   W08
 .byte   Dn3
 .byte   W06
 .byte   Cs3
 .byte   W06
 .byte   Cn3
 .byte   W06
 .byte   Bn2
 .byte   W05
 .byte   As2
 .byte   W04
 .byte   An2
 .byte   W05
 .byte   Gs2
 .byte   W04
 .byte   Gn2
 .byte   W01
 .byte   EOT
 .byte   Fs4 ,v069
 .byte   Fs5 ,v081
 .byte   Ds5 ,v066
 .byte   Ds4
 .byte   W03
 .byte   BEND , c_v-10
 .byte   W04
 .byte   BEND , c_v-11
 .byte   W04
 .byte   BEND , c_v-12
 .byte   W03
 .byte   BEND , c_v-13
 .byte   W04
 .byte   BEND , c_v-14
 .byte   W03
 .byte   BEND , c_v-15
 .byte   W03
 .byte   BEND , c_v-16
 .byte   W03
 .byte   BEND , c_v-17
 .byte   W02
 .byte   BEND , c_v-18
 .byte   W03
 .byte   BEND , c_v-19
 .byte   W03
 .byte   BEND , c_v-20
 .byte   W02
 .byte   BEND , c_v-21
 .byte   W03
 .byte   BEND , c_v-22
 .byte   W02
 .byte   BEND , c_v-23
 .byte   W02
 .byte   BEND , c_v-24
 .byte   W02
 .byte   BEND , c_v-25
 .byte   W02
@  #11 @016   ----------------------------------------
Label_0102EC9E:
 .byte   N96 ,Ds3 ,v120
 .byte   N96 ,Gs2
 .byte   N96 ,Bn2
 .byte   BEND , c_v+0
 .byte   W96
 .byte   PEND 
@  #11 @017   ----------------------------------------
Label_0102ECA9:
 .byte   N96 ,Bn2 ,v120
 .byte   N96 ,Gs2
 .byte   N96 ,Ds3
 .byte   W96
 .byte   PEND 
@  #11 @018   ----------------------------------------
Label_0102ECB2:
 .byte   N96 ,En3 ,v120
 .byte   N96 ,Cs3
 .byte   N96 ,Gs3
 .byte   W96
 .byte   PEND 
@  #11 @019   ----------------------------------------
Label_0102ECBB:
 .byte   N96 ,Cs3 ,v120
 .byte   N48 ,Fs2
 .byte   N96 ,An2
 .byte   W48
 .byte   N48 ,En3
 .byte   W48
 .byte   PEND 
@  #11 @020   ----------------------------------------
 .byte   PATT
  .word Label_0102ECA9
@  #11 @021   ----------------------------------------
Label_0102ECCC:
 .byte   N96 ,Ds3 ,v120
 .byte   N96 ,Gs2
 .byte   N96 ,Bn2
 .byte   W96
 .byte   PEND 
@  #11 @022   ----------------------------------------
 .byte   PATT
  .word Label_0102ECB2
@  #11 @023   ----------------------------------------
Label_0102ECDA:
 .byte   N96 ,An2 ,v120
 .byte   N48 ,Fs2
 .byte   N96 ,Cs3
 .byte   W48
 .byte   N48 ,En3
 .byte   W48
 .byte   PEND 
@  #11 @024   ----------------------------------------
 .byte   PATT
  .word Label_0102ECA9
@  #11 @025   ----------------------------------------
 .byte   PATT
  .word Label_0102ECCC
@  #11 @026   ----------------------------------------
Label_0102ECF0:
 .byte   N96 ,Gs3 ,v120
 .byte   N96 ,Cs3
 .byte   N96 ,En3
 .byte   W96
 .byte   PEND 
@  #11 @027   ----------------------------------------
 .byte   PATT
  .word Label_0102ECBB
@  #11 @028   ----------------------------------------
 .byte   PATT
  .word Label_0102ECA9
@  #11 @029   ----------------------------------------
 .byte   PATT
  .word Label_0102ECA9
@  #11 @030   ----------------------------------------
 .byte   PATT
  .word Label_0102ECF0
@  #11 @031   ----------------------------------------
 .byte   PATT
  .word Label_0102ECBB
@  #11 @032   ----------------------------------------
Label_0102ED12:
 .byte   N96 ,Gs2 ,v120
 .byte   N96 ,En2
 .byte   N96 ,Ds3
 .byte   N96 ,As2
 .byte   W96
 .byte   PEND 
@  #11 @033   ----------------------------------------
Label_0102ED1D:
 .byte   N96 ,Bn2 ,v120
 .byte   N96 ,Ds3
 .byte   N96 ,En2
 .byte   N96 ,Gs2
 .byte   W96
 .byte   PEND 
@  #11 @034   ----------------------------------------
Label_0102ED28:
 .byte   N96 ,Fn3 ,v120
 .byte   N96 ,An2
 .byte   N96 ,Fn2
 .byte   N96 ,Cs3
 .byte   W96
 .byte   PEND 
@  #11 @035   ----------------------------------------
Label_0102ED33:
 .byte   N24 ,En3 ,v127
 .byte   N96 ,Fs2 ,v120
 .byte   N96 ,An2
 .byte   W24
 .byte   N24 ,Ds3 ,v127
 .byte   W24
 .byte   Cs3
 .byte   W24
 .byte   Ds3
 .byte   W24
 .byte   PEND 
@  #11 @036   ----------------------------------------
 .byte   PATT
  .word Label_0102ED12
@  #11 @037   ----------------------------------------
 .byte   PATT
  .word Label_0102ED1D
@  #11 @038   ----------------------------------------
Label_0102ED4F:
 .byte   N96 ,Cs3 ,v120
 .byte   N96 ,Fn2
 .byte   N96 ,An2
 .byte   N96 ,Fn3
 .byte   W96
 .byte   PEND 
@  #11 @039   ----------------------------------------
Label_0102ED5A:
 .byte   N96 ,An2 ,v120
 .byte   N96 ,Fs2
 .byte   N24 ,En3 ,v127
 .byte   W24
 .byte   Ds3
 .byte   W24
 .byte   Cs3
 .byte   W24
 .byte   Ds3
 .byte   W24
 .byte   PEND 
@  #11 @040   ----------------------------------------
Label_0102ED6A:
 .byte   N96 ,As2 ,v120
 .byte   N96 ,Ds3
 .byte   N96 ,En2
 .byte   N96 ,Gs2
 .byte   W96
 .byte   PEND 
@  #11 @041   ----------------------------------------
Label_0102ED75:
 .byte   N96 ,Gs2 ,v120
 .byte   N96 ,En2
 .byte   N96 ,Ds3
 .byte   N96 ,Bn2
 .byte   W96
 .byte   PEND 
@  #11 @042   ----------------------------------------
 .byte   PATT
  .word Label_0102ED28
@  #11 @043   ----------------------------------------
 .byte   PATT
  .word Label_0102ED5A
@  #11 @044   ----------------------------------------
 .byte   PATT
  .word Label_0102ED12
@  #11 @045   ----------------------------------------
Label_0102ED8F:
 .byte   N96 ,Bn2 ,v120
 .byte   N96 ,En2
 .byte   N96 ,Gs2
 .byte   N96 ,Ds3
 .byte   W96
 .byte   PEND 
@  #11 @046   ----------------------------------------
 .byte   PATT
  .word Label_0102ED28
@  #11 @047   ----------------------------------------
 .byte   PATT
  .word Label_0102ED5A
@  #11 @048   ----------------------------------------
Label_0102EDA4:
 .byte   N96 ,Gs3 ,v120
 .byte   N96 ,Fn3
 .byte   N96 ,As2
 .byte   N96 ,Cs3
 .byte   W96
 .byte   PEND 
@  #11 @049   ----------------------------------------
Label_0102EDAF:
 .byte   N96 ,As2 ,v120
 .byte   N96 ,Cs3
 .byte   N96 ,Fn3
 .byte   N96 ,Gs3
 .byte   W96
 .byte   PEND 
@  #11 @050   ----------------------------------------
Label_0102EDBA:
 .byte   N96 ,Fn3 ,v120
 .byte   N96 ,Cs3
 .byte   N96 ,Fn2
 .byte   N96 ,As2
 .byte   W96
 .byte   PEND 
@  #11 @051   ----------------------------------------
Label_0102EDC5:
 .byte   N96 ,Ds3 ,v120
 .byte   N96 ,Ds2
 .byte   N96 ,As2
 .byte   N96 ,Fs2
 .byte   W96
 .byte   PEND 
@  #11 @052   ----------------------------------------
 .byte   PATT
  .word Label_0102EDA4
@  #11 @053   ----------------------------------------
Label_0102EDD5:
 .byte   N96 ,Gs3 ,v120
 .byte   N96 ,Fn3
 .byte   N96 ,Cs3
 .byte   N96 ,As2
 .byte   W96
 .byte   PEND 
@  #11 @054   ----------------------------------------
Label_0102EDE0:
 .byte   N96 ,An2 ,v120
 .byte   N96 ,Fn3
 .byte   N96 ,Cs3
 .byte   N96 ,Gn3
 .byte   W80
 .byte   BEND , c_v-1
 .byte   W16
 .byte   PEND 
@  #11 @055   ----------------------------------------
Label_0102EDEE:
 .byte   N92 ,Cn3 ,v120 ,gtp1
 .byte   Gn3
 .byte   N92 ,An2 ,v120 ,gtp1
 .byte   Fn3
 .byte   BEND , c_v-2
 .byte   W13
 .byte   BEND , c_v-3
 .byte   W12
 .byte   BEND , c_v-4
 .byte   W11
 .byte   BEND , c_v-5
 .byte   W09
 .byte   BEND , c_v-6
 .byte   W09
 .byte   BEND , c_v-7
 .byte   W08
 .byte   BEND , c_v-8
 .byte   W07
 .byte   BEND , c_v-9
 .byte   W07
 .byte   BEND , c_v-10
 .byte   W06
 .byte   BEND , c_v-11
 .byte   W06
 .byte   BEND , c_v-12
 .byte   W06
 .byte   BEND , c_v-13
 .byte   W02
 .byte   PEND 
@  #11 @056   ----------------------------------------
Label_0102EE12:
 .byte   N96 ,Gs3 ,v120
 .byte   N96 ,Fn3
 .byte   N96 ,As2
 .byte   N96 ,Cs3
 .byte   BEND , c_v+0
 .byte   W96
 .byte   PEND 
@  #11 @057   ----------------------------------------
 .byte   PATT
  .word Label_0102EDAF
@  #11 @058   ----------------------------------------
 .byte   PATT
  .word Label_0102EDBA
@  #11 @059   ----------------------------------------
 .byte   PATT
  .word Label_0102EDC5
@  #11 @060   ----------------------------------------
 .byte   PATT
  .word Label_0102EDA4
@  #11 @061   ----------------------------------------
 .byte   PATT
  .word Label_0102EDD5
@  #11 @062   ----------------------------------------
 .byte   PATT
  .word Label_0102EDE0
@  #11 @063   ----------------------------------------
 .byte   PATT
  .word Label_0102EDEE
@  #11 @064   ----------------------------------------
 .byte   PATT
  .word Label_0102EE12
@  #11 @065   ----------------------------------------
 .byte   PATT
  .word Label_0102EDAF
@  #11 @066   ----------------------------------------
Label_0102EE4C:
 .byte   N96 ,As2 ,v120
 .byte   N96 ,Fn2
 .byte   N96 ,Cs3
 .byte   N96 ,Fn3
 .byte   W96
 .byte   PEND 
@  #11 @067   ----------------------------------------
Label_0102EE57:
 .byte   N96 ,Fs2 ,v120
 .byte   N96 ,As2
 .byte   N96 ,Ds2
 .byte   N96 ,Ds3
 .byte   W96
 .byte   PEND 
@  #11 @068   ----------------------------------------
Label_0102EE62:
 .byte   N96 ,Cs3 ,v120
 .byte   N96 ,As2
 .byte   N96 ,Fn3
 .byte   N96 ,Gs3
 .byte   W96
 .byte   PEND 
@  #11 @069   ----------------------------------------
 .byte   PATT
  .word Label_0102EDAF
@  #11 @070   ----------------------------------------
Label_0102EE72:
 .byte   N96 ,Gn3 ,v120
 .byte   N96 ,Cs3
 .byte   N96 ,Fn3
 .byte   N96 ,An2
 .byte   W80
 .byte   BEND , c_v-1
 .byte   W16
 .byte   PEND 
@  #11 @071   ----------------------------------------
 .byte   PATT
  .word Label_0102EDEE
@  #11 @072   ----------------------------------------
 .byte   BEND , c_v+0
 .byte   GOTO
  .word Label_0102EAC2
@  #11 @073   ----------------------------------------
 .byte   W96
@  #11 @074   ----------------------------------------
 .byte   W96
@  #11 @075   ----------------------------------------
 .byte   W96
@  #11 @076   ----------------------------------------
 .byte   W96
@  #11 @077   ----------------------------------------
 .byte   PATT
  .word Label_0102EACC
@  #11 @078   ----------------------------------------
Label_0102EE95:
 .byte   W03
 .byte   BEND , c_v-1
 .byte   W08
 .byte   BEND , c_v-2
 .byte   W06
 .byte   BEND , c_v-3
 .byte   W06
 .byte   BEND , c_v-4
 .byte   W06
 .byte   BEND , c_v-5
 .byte   W05
 .byte   BEND , c_v-6
 .byte   W04
 .byte   BEND , c_v-7
 .byte   W05
 .byte   BEND , c_v-8
 .byte   W04
 .byte   BEND , c_v-9
 .byte   W04
 .byte   BEND , c_v-10
 .byte   W04
 .byte   BEND , c_v-11
 .byte   W04
 .byte   BEND , c_v-12
 .byte   W03
 .byte   BEND , c_v-13
 .byte   W04
 .byte   BEND , c_v-14
 .byte   W03
 .byte   BEND , c_v-15
 .byte   W03
 .byte   EOT
 .byte   Ds4 ,v081
 .byte   Fs5 ,v087
 .byte   Fs4 ,v069
 .byte   Fs3
 .byte   BEND , c_v-16
 .byte   W03
 .byte   BEND , c_v-17
 .byte   W02
 .byte   BEND , c_v-18
 .byte   W03
 .byte   BEND , c_v-19
 .byte   W03
 .byte   BEND , c_v-20
 .byte   W02
 .byte   BEND , c_v-21
 .byte   W03
 .byte   BEND , c_v-22
 .byte   W02
 .byte   BEND , c_v-23
 .byte   W02
 .byte   BEND , c_v-24
 .byte   W02
 .byte   BEND , c_v-25
 .byte   W02
 .byte   PEND 
@  #11 @079   ----------------------------------------
 .byte   PATT
  .word Label_0102EB3F
@  #11 @080   ----------------------------------------
Label_0102EED8:
 .byte   W03
 .byte   BEND , c_v-1
 .byte   W08
 .byte   BEND , c_v-2
 .byte   W06
 .byte   BEND , c_v-3
 .byte   W06
 .byte   BEND , c_v-4
 .byte   W06
 .byte   BEND , c_v-5
 .byte   W05
 .byte   BEND , c_v-6
 .byte   W04
 .byte   BEND , c_v-7
 .byte   W05
 .byte   BEND , c_v-8
 .byte   W04
 .byte   BEND , c_v-9
 .byte   W04
 .byte   BEND , c_v-10
 .byte   W04
 .byte   BEND , c_v-11
 .byte   W04
 .byte   BEND , c_v-12
 .byte   W03
 .byte   BEND , c_v-13
 .byte   W04
 .byte   BEND , c_v-14
 .byte   W03
 .byte   BEND , c_v-15
 .byte   W03
 .byte   EOT
 .byte   Fs5 ,v069
 .byte   Fs4 ,v075
 .byte   Fs3 ,v081
 .byte   Ds5
 .byte   BEND , c_v-16
 .byte   W03
 .byte   BEND , c_v-17
 .byte   W02
 .byte   BEND , c_v-18
 .byte   W03
 .byte   BEND , c_v-19
 .byte   W03
 .byte   BEND , c_v-20
 .byte   W02
 .byte   BEND , c_v-21
 .byte   W03
 .byte   BEND , c_v-22
 .byte   W02
 .byte   BEND , c_v-23
 .byte   W02
 .byte   BEND , c_v-24
 .byte   W02
 .byte   BEND , c_v-25
 .byte   W02
 .byte   PEND 
@  #11 @081   ----------------------------------------
 .byte   W96
@  #11 @082   ----------------------------------------
 .byte   W96
@  #11 @083   ----------------------------------------
 .byte   W96
@  #11 @084   ----------------------------------------
 .byte   W96
@  #11 @085   ----------------------------------------
 .byte   PATT
  .word Label_0102EBB6
@  #11 @086   ----------------------------------------
Label_0102EF1F:
 .byte   W03
 .byte   BEND , c_v-1
 .byte   W08
 .byte   BEND , c_v-2
 .byte   W06
 .byte   BEND , c_v-3
 .byte   W06
 .byte   BEND , c_v-4
 .byte   W06
 .byte   BEND , c_v-5
 .byte   W05
 .byte   BEND , c_v-6
 .byte   W04
 .byte   BEND , c_v-7
 .byte   W05
 .byte   BEND , c_v-8
 .byte   W04
 .byte   BEND , c_v-9
 .byte   W04
 .byte   BEND , c_v-10
 .byte   W04
 .byte   BEND , c_v-11
 .byte   W04
 .byte   BEND , c_v-12
 .byte   W03
 .byte   BEND , c_v-13
 .byte   W04
 .byte   BEND , c_v-14
 .byte   W03
 .byte   BEND , c_v-15
 .byte   W03
 .byte   EOT
 .byte   An3 ,v081
 .byte   Fs5 ,v075
 .byte   Fs3 ,v078
 .byte   Ds5
 .byte   BEND , c_v-16
 .byte   W03
 .byte   BEND , c_v-17
 .byte   W02
 .byte   BEND , c_v-18
 .byte   W03
 .byte   BEND , c_v-19
 .byte   W03
 .byte   BEND , c_v-20
 .byte   W02
 .byte   BEND , c_v-21
 .byte   W03
 .byte   BEND , c_v-22
 .byte   W02
 .byte   BEND , c_v-23
 .byte   W02
 .byte   BEND , c_v-24
 .byte   W02
 .byte   BEND , c_v-25
 .byte   W02
 .byte   PEND 
@  #11 @087   ----------------------------------------
 .byte   PATT
  .word Label_0102EC2A
@  #11 @088   ----------------------------------------
Label_0102EF62:
 .byte   W03
 .byte   BEND , c_v-1
 .byte   W08
 .byte   BEND , c_v-2
 .byte   W06
 .byte   BEND , c_v-3
 .byte   W06
 .byte   BEND , c_v-4
 .byte   W06
 .byte   BEND , c_v-5
 .byte   W05
 .byte   BEND , c_v-6
 .byte   W04
 .byte   BEND , c_v-7
 .byte   W05
 .byte   BEND , c_v-8
 .byte   W04
 .byte   BEND , c_v-9
 .byte   W01
 .byte   EOT
 .byte   An3 ,v090
 .byte   An4 ,v087
 .byte   Fs3 ,v075
 .byte   Fs4
 .byte   W03
 .byte   BEND , c_v-10
 .byte   W04
 .byte   BEND , c_v-11
 .byte   W04
 .byte   BEND , c_v-12
 .byte   W03
 .byte   BEND , c_v-13
 .byte   W04
 .byte   BEND , c_v-14
 .byte   W03
 .byte   BEND , c_v-15
 .byte   W03
 .byte   BEND , c_v-16
 .byte   W03
 .byte   BEND , c_v-17
 .byte   W02
 .byte   BEND , c_v-18
 .byte   W03
 .byte   BEND , c_v-19
 .byte   W03
 .byte   BEND , c_v-20
 .byte   W02
 .byte   BEND , c_v-21
 .byte   W03
 .byte   BEND , c_v-22
 .byte   W02
 .byte   BEND , c_v-23
 .byte   W02
 .byte   BEND , c_v-24
 .byte   W02
 .byte   BEND , c_v-25
 .byte   W02
 .byte   PEND 
@  #11 @089   ----------------------------------------
 .byte   PATT
  .word Label_0102EC9E
@  #11 @090   ----------------------------------------
 .byte   PATT
  .word Label_0102ECA9
@  #11 @091   ----------------------------------------
 .byte   PATT
  .word Label_0102ECB2
@  #11 @092   ----------------------------------------
 .byte   PATT
  .word Label_0102ECBB
@  #11 @093   ----------------------------------------
 .byte   PATT
  .word Label_0102ECA9
@  #11 @094   ----------------------------------------
 .byte   PATT
  .word Label_0102ECCC
@  #11 @095   ----------------------------------------
 .byte   PATT
  .word Label_0102ECB2
@  #11 @096   ----------------------------------------
 .byte   PATT
  .word Label_0102ECDA
@  #11 @097   ----------------------------------------
 .byte   PATT
  .word Label_0102ECA9
@  #11 @098   ----------------------------------------
 .byte   PATT
  .word Label_0102ECCC
@  #11 @099   ----------------------------------------
 .byte   PATT
  .word Label_0102ECF0
@  #11 @100   ----------------------------------------
 .byte   PATT
  .word Label_0102ECBB
@  #11 @101   ----------------------------------------
 .byte   PATT
  .word Label_0102ECA9
@  #11 @102   ----------------------------------------
 .byte   PATT
  .word Label_0102ECA9
@  #11 @103   ----------------------------------------
 .byte   PATT
  .word Label_0102ECF0
@  #11 @104   ----------------------------------------
 .byte   PATT
  .word Label_0102ECBB
@  #11 @105   ----------------------------------------
 .byte   PATT
  .word Label_0102ED12
@  #11 @106   ----------------------------------------
 .byte   PATT
  .word Label_0102ED1D
@  #11 @107   ----------------------------------------
 .byte   PATT
  .word Label_0102ED28
@  #11 @108   ----------------------------------------
 .byte   PATT
  .word Label_0102ED33
@  #11 @109   ----------------------------------------
 .byte   PATT
  .word Label_0102ED12
@  #11 @110   ----------------------------------------
 .byte   PATT
  .word Label_0102ED1D
@  #11 @111   ----------------------------------------
 .byte   PATT
  .word Label_0102ED4F
@  #11 @112   ----------------------------------------
 .byte   PATT
  .word Label_0102ED5A
@  #11 @113   ----------------------------------------
 .byte   PATT
  .word Label_0102ED6A
@  #11 @114   ----------------------------------------
 .byte   PATT
  .word Label_0102ED75
@  #11 @115   ----------------------------------------
 .byte   PATT
  .word Label_0102ED28
@  #11 @116   ----------------------------------------
 .byte   PATT
  .word Label_0102ED5A
@  #11 @117   ----------------------------------------
 .byte   PATT
  .word Label_0102ED12
@  #11 @118   ----------------------------------------
 .byte   PATT
  .word Label_0102ED8F
@  #11 @119   ----------------------------------------
 .byte   PATT
  .word Label_0102ED28
@  #11 @120   ----------------------------------------
 .byte   PATT
  .word Label_0102ED5A
@  #11 @121   ----------------------------------------
 .byte   PATT
  .word Label_0102EDA4
@  #11 @122   ----------------------------------------
 .byte   PATT
  .word Label_0102EDAF
@  #11 @123   ----------------------------------------
 .byte   PATT
  .word Label_0102EDBA
@  #11 @124   ----------------------------------------
 .byte   PATT
  .word Label_0102EDC5
@  #11 @125   ----------------------------------------
 .byte   PATT
  .word Label_0102EDA4
@  #11 @126   ----------------------------------------
 .byte   PATT
  .word Label_0102EDD5
@  #11 @127   ----------------------------------------
 .byte   PATT
  .word Label_0102EDE0
@  #11 @128   ----------------------------------------
 .byte   PATT
  .word Label_0102EDEE
@  #11 @129   ----------------------------------------
 .byte   PATT
  .word Label_0102EE12
@  #11 @130   ----------------------------------------
 .byte   PATT
  .word Label_0102EDAF
@  #11 @131   ----------------------------------------
 .byte   PATT
  .word Label_0102EDBA
@  #11 @132   ----------------------------------------
 .byte   PATT
  .word Label_0102EDC5
@  #11 @133   ----------------------------------------
 .byte   PATT
  .word Label_0102EDA4
@  #11 @134   ----------------------------------------
 .byte   PATT
  .word Label_0102EDD5
@  #11 @135   ----------------------------------------
 .byte   PATT
  .word Label_0102EDE0
@  #11 @136   ----------------------------------------
 .byte   PATT
  .word Label_0102EDEE
@  #11 @137   ----------------------------------------
 .byte   PATT
  .word Label_0102EE12
@  #11 @138   ----------------------------------------
 .byte   PATT
  .word Label_0102EDAF
@  #11 @139   ----------------------------------------
 .byte   PATT
  .word Label_0102EE4C
@  #11 @140   ----------------------------------------
 .byte   PATT
  .word Label_0102EE57
@  #11 @141   ----------------------------------------
 .byte   PATT
  .word Label_0102EE62
@  #11 @142   ----------------------------------------
 .byte   PATT
  .word Label_0102EDAF
@  #11 @143   ----------------------------------------
 .byte   PATT
  .word Label_0102EE72
@  #11 @144   ----------------------------------------
 .byte   PATT
  .word Label_0102EDEE
@  #11 @145   ----------------------------------------
 .byte   W96
@  #11 @146   ----------------------------------------
 .byte   W96
@  #11 @147   ----------------------------------------
 .byte   W96
@  #11 @148   ----------------------------------------
 .byte   W96
@  #11 @149   ----------------------------------------
 .byte   PATT
  .word Label_0102EACC
@  #11 @150   ----------------------------------------
 .byte   PATT
  .word Label_0102EE95
@  #11 @151   ----------------------------------------
 .byte   PATT
  .word Label_0102EB3F
@  #11 @152   ----------------------------------------
 .byte   PATT
  .word Label_0102EED8
@  #11 @153   ----------------------------------------
 .byte   W96
@  #11 @154   ----------------------------------------
 .byte   W96
@  #11 @155   ----------------------------------------
 .byte   W96
@  #11 @156   ----------------------------------------
 .byte   W96
@  #11 @157   ----------------------------------------
 .byte   PATT
  .word Label_0102EBB6
@  #11 @158   ----------------------------------------
 .byte   PATT
  .word Label_0102EF1F
@  #11 @159   ----------------------------------------
 .byte   PATT
  .word Label_0102EC2A
@  #11 @160   ----------------------------------------
 .byte   PATT
  .word Label_0102EF62
@  #11 @161   ----------------------------------------
 .byte   PATT
  .word Label_0102EC9E
@  #11 @162   ----------------------------------------
 .byte   PATT
  .word Label_0102ECA9
@  #11 @163   ----------------------------------------
 .byte   PATT
  .word Label_0102ECB2
@  #11 @164   ----------------------------------------
 .byte   PATT
  .word Label_0102ECBB
@  #11 @165   ----------------------------------------
 .byte   PATT
  .word Label_0102ECA9
@  #11 @166   ----------------------------------------
 .byte   PATT
  .word Label_0102ECCC
@  #11 @167   ----------------------------------------
 .byte   PATT
  .word Label_0102ECB2
@  #11 @168   ----------------------------------------
 .byte   PATT
  .word Label_0102ECDA
@  #11 @169   ----------------------------------------
 .byte   PATT
  .word Label_0102ECA9
@  #11 @170   ----------------------------------------
 .byte   PATT
  .word Label_0102ECCC
@  #11 @171   ----------------------------------------
 .byte   PATT
  .word Label_0102ECF0
@  #11 @172   ----------------------------------------
 .byte   PATT
  .word Label_0102ECBB
@  #11 @173   ----------------------------------------
 .byte   PATT
  .word Label_0102ECA9
@  #11 @174   ----------------------------------------
 .byte   PATT
  .word Label_0102ECA9
@  #11 @175   ----------------------------------------
 .byte   PATT
  .word Label_0102ECF0
@  #11 @176   ----------------------------------------
 .byte   PATT
  .word Label_0102ECBB
@  #11 @177   ----------------------------------------
 .byte   PATT
  .word Label_0102ED12
@  #11 @178   ----------------------------------------
 .byte   PATT
  .word Label_0102ED1D
@  #11 @179   ----------------------------------------
 .byte   PATT
  .word Label_0102ED28
@  #11 @180   ----------------------------------------
 .byte   PATT
  .word Label_0102ED33
@  #11 @181   ----------------------------------------
 .byte   PATT
  .word Label_0102ED12
@  #11 @182   ----------------------------------------
 .byte   PATT
  .word Label_0102ED1D
@  #11 @183   ----------------------------------------
 .byte   PATT
  .word Label_0102ED4F
@  #11 @184   ----------------------------------------
 .byte   PATT
  .word Label_0102ED5A
@  #11 @185   ----------------------------------------
 .byte   PATT
  .word Label_0102ED6A
@  #11 @186   ----------------------------------------
 .byte   PATT
  .word Label_0102ED75
@  #11 @187   ----------------------------------------
 .byte   PATT
  .word Label_0102ED28
@  #11 @188   ----------------------------------------
 .byte   PATT
  .word Label_0102ED5A
@  #11 @189   ----------------------------------------
 .byte   PATT
  .word Label_0102ED12
@  #11 @190   ----------------------------------------
 .byte   PATT
  .word Label_0102ED8F
@  #11 @191   ----------------------------------------
 .byte   PATT
  .word Label_0102ED28
@  #11 @192   ----------------------------------------
 .byte   PATT
  .word Label_0102ED5A
@  #11 @193   ----------------------------------------
 .byte   PATT
  .word Label_0102EDA4
@  #11 @194   ----------------------------------------
 .byte   PATT
  .word Label_0102EDAF
@  #11 @195   ----------------------------------------
 .byte   PATT
  .word Label_0102EDBA
@  #11 @196   ----------------------------------------
 .byte   PATT
  .word Label_0102EDC5
@  #11 @197   ----------------------------------------
 .byte   PATT
  .word Label_0102EDA4
@  #11 @198   ----------------------------------------
 .byte   PATT
  .word Label_0102EDD5
@  #11 @199   ----------------------------------------
 .byte   PATT
  .word Label_0102EDE0
@  #11 @200   ----------------------------------------
 .byte   PATT
  .word Label_0102EDEE
@  #11 @201   ----------------------------------------
 .byte   PATT
  .word Label_0102EE12
@  #11 @202   ----------------------------------------
 .byte   PATT
  .word Label_0102EDAF
@  #11 @203   ----------------------------------------
 .byte   PATT
  .word Label_0102EDBA
@  #11 @204   ----------------------------------------
 .byte   PATT
  .word Label_0102EDC5
@  #11 @205   ----------------------------------------
 .byte   PATT
  .word Label_0102EDA4
@  #11 @206   ----------------------------------------
 .byte   PATT
  .word Label_0102EDD5
@  #11 @207   ----------------------------------------
 .byte   PATT
  .word Label_0102EDE0
@  #11 @208   ----------------------------------------
 .byte   PATT
  .word Label_0102EDEE
@  #11 @209   ----------------------------------------
 .byte   PATT
  .word Label_0102EE12
@  #11 @210   ----------------------------------------
 .byte   PATT
  .word Label_0102EDAF
@  #11 @211   ----------------------------------------
 .byte   PATT
  .word Label_0102EE4C
@  #11 @212   ----------------------------------------
 .byte   PATT
  .word Label_0102EE57
@  #11 @213   ----------------------------------------
 .byte   PATT
  .word Label_0102EE62
@  #11 @214   ----------------------------------------
 .byte   PATT
  .word Label_0102EDAF
@  #11 @215   ----------------------------------------
 .byte   PATT
  .word Label_0102EE72
@  #11 @216   ----------------------------------------
 .byte   W14
 .byte   FINE

@**************** Track 12 (Midi-Chn.11) ****************@

song07_012:
@  #12 @000   ----------------------------------------
 .byte   KEYSH , song07_key+0
Label_0102D1E2:
 .byte   VOICE , 1
 .byte   BENDR, 12
 .byte   VOL , 35*song07_mvl/mxv
 .byte   W96
@  #12 @001   ----------------------------------------
 .byte   W96
@  #12 @002   ----------------------------------------
 .byte   W96
@  #12 @003   ----------------------------------------
 .byte   W96
@  #12 @004   ----------------------------------------
 .byte   W96
@  #12 @005   ----------------------------------------
 .byte   W96
@  #12 @006   ----------------------------------------
 .byte   W96
@  #12 @007   ----------------------------------------
 .byte   W96
@  #12 @008   ----------------------------------------
 .byte   W96
@  #12 @009   ----------------------------------------
 .byte   W96
@  #12 @010   ----------------------------------------
 .byte   W96
@  #12 @011   ----------------------------------------
 .byte   W96
@  #12 @012   ----------------------------------------
 .byte   W96
@  #12 @013   ----------------------------------------
 .byte   W96
@  #12 @014   ----------------------------------------
 .byte   W96
@  #12 @015   ----------------------------------------
 .byte   W96
@  #12 @016   ----------------------------------------
Label_0102D1F8:
 .byte   N11 ,Ds5 ,v100
 .byte   N11 ,Gs4
 .byte   W12
 .byte   Bn5
 .byte   N11 ,Ds5
 .byte   W12
 .byte   Cs5
 .byte   N11 ,As5
 .byte   W12
 .byte   Ds5
 .byte   N11 ,Bn5
 .byte   W12
 .byte   N06 ,As4
 .byte   N06 ,Fs5
 .byte   W12
 .byte   Bn4
 .byte   N06 ,Gs5
 .byte   W06
 .byte   Ds5
 .byte   N06 ,Bn5
 .byte   W06
 .byte   As5
 .byte   N06 ,Cs5
 .byte   W06
 .byte   Gs5
 .byte   N06 ,Bn4
 .byte   W06
 .byte   N11 ,As4
 .byte   N11 ,Fs5
 .byte   W12
 .byte   PEND 
@  #12 @017   ----------------------------------------
Label_0102D225:
 .byte   N11 ,Gs4 ,v100
 .byte   N11 ,Ds5
 .byte   W12
 .byte   Ds5
 .byte   N11 ,Bn5
 .byte   W12
 .byte   Cs5
 .byte   N11 ,As5
 .byte   W12
 .byte   Ds5
 .byte   N11 ,Bn5
 .byte   W12
 .byte   N06 ,As4
 .byte   N06 ,Fs5
 .byte   W12
 .byte   Bn4
 .byte   N06 ,Gs5
 .byte   W06
 .byte   Ds5
 .byte   N06 ,Bn5
 .byte   W06
 .byte   N11 ,Ds5
 .byte   N11 ,Fs4
 .byte   W12
 .byte   Ds5
 .byte   N11 ,Gs4
 .byte   W12
 .byte   PEND 
@  #12 @018   ----------------------------------------
Label_0102D24E:
 .byte   N11 ,An4 ,v100
 .byte   N11 ,En5
 .byte   W12
 .byte   Cs5
 .byte   N11 ,An5
 .byte   W12
 .byte   Bn4
 .byte   N11 ,Gs5
 .byte   W12
 .byte   Cs5
 .byte   N11 ,An5
 .byte   W12
 .byte   N06 ,Fs5
 .byte   N06 ,An4
 .byte   W12
 .byte   An5
 .byte   N06 ,Bn4
 .byte   W06
 .byte   Cs5
 .byte   N06 ,Bn5
 .byte   W06
 .byte   Gs5
 .byte   N06 ,Bn4
 .byte   W06
 .byte   Cs5
 .byte   N06 ,An5
 .byte   W06
 .byte   Bn5
 .byte   N06 ,Ds5
 .byte   W06
 .byte   En5
 .byte   N06 ,Cs6
 .byte   W06
 .byte   PEND 
@  #12 @019   ----------------------------------------
Label_0102D27E:
 .byte   N11 ,Cs5 ,v100
 .byte   N11 ,Fs4
 .byte   W12
 .byte   An5
 .byte   N11 ,Cs5
 .byte   W12
 .byte   Gs5
 .byte   N11 ,Bn4
 .byte   W12
 .byte   An5
 .byte   N11 ,Cs5
 .byte   W12
 .byte   N06 ,En5
 .byte   N06 ,Gs4
 .byte   W12
 .byte   Fs5
 .byte   N06 ,An4
 .byte   W06
 .byte   An5
 .byte   N06 ,Cs5
 .byte   W06
 .byte   Gs5
 .byte   N06 ,Bn4
 .byte   W06
 .byte   Fs5
 .byte   N06 ,An4
 .byte   W06
 .byte   N11 ,Gs4
 .byte   N11 ,En5
 .byte   W12
 .byte   PEND 
@  #12 @020   ----------------------------------------
Label_0102D2AB:
 .byte   N11 ,Ds5 ,v100
 .byte   N11 ,Gs4
 .byte   W12
 .byte   Bn5
 .byte   N11 ,Ds5
 .byte   W12
 .byte   As5
 .byte   N11 ,Cs5
 .byte   W12
 .byte   Ds5
 .byte   N11 ,Bn5
 .byte   W12
 .byte   N06 ,Fs5
 .byte   N06 ,As4
 .byte   W12
 .byte   Gs5
 .byte   N06 ,Bn4
 .byte   W06
 .byte   Ds5
 .byte   N06 ,Bn5
 .byte   W06
 .byte   As5
 .byte   N06 ,Cs5
 .byte   W06
 .byte   Bn4
 .byte   N06 ,Gs5
 .byte   W06
 .byte   N11 ,As4
 .byte   N11 ,Fs5
 .byte   W12
 .byte   PEND 
@  #12 @021   ----------------------------------------
Label_0102D2D8:
 .byte   N11 ,Gs4 ,v100
 .byte   N11 ,Ds5
 .byte   W12
 .byte   Ds5
 .byte   N11 ,Bn5
 .byte   W12
 .byte   As5
 .byte   N11 ,Cs5
 .byte   W12
 .byte   Bn5
 .byte   N11 ,Ds5
 .byte   W12
 .byte   N06 ,As4
 .byte   N06 ,Fs5
 .byte   W12
 .byte   Bn4
 .byte   N06 ,Gs5
 .byte   W06
 .byte   Ds5
 .byte   N06 ,Bn5
 .byte   W06
 .byte   N11 ,Fs4
 .byte   N11 ,Ds5
 .byte   W12
 .byte   Gs4
 .byte   N11 ,Ds5
 .byte   W12
 .byte   PEND 
@  #12 @022   ----------------------------------------
Label_0102D301:
 .byte   N11 ,En5 ,v100
 .byte   N11 ,An4
 .byte   W12
 .byte   An5
 .byte   N11 ,Cs5
 .byte   W12
 .byte   Gs5
 .byte   N11 ,Bn4
 .byte   W12
 .byte   An5
 .byte   N11 ,Cs5
 .byte   W12
 .byte   N06 ,An4
 .byte   N06 ,Fs5
 .byte   W12
 .byte   An5
 .byte   N06 ,Bn4
 .byte   W06
 .byte   Bn5
 .byte   N06 ,Cs5
 .byte   W06
 .byte   Gs5
 .byte   N06 ,Bn4
 .byte   W06
 .byte   Cs5
 .byte   N06 ,An5
 .byte   W06
 .byte   Ds5
 .byte   N06 ,Bn5
 .byte   W06
 .byte   En5
 .byte   N06 ,Cs6
 .byte   W06
 .byte   PEND 
@  #12 @023   ----------------------------------------
Label_0102D331:
 .byte   N11 ,Fs4 ,v100
 .byte   N11 ,Cs5
 .byte   W12
 .byte   An5
 .byte   N11 ,Cs5
 .byte   W12
 .byte   Gs5
 .byte   N11 ,Bn4
 .byte   W12
 .byte   An5
 .byte   N11 ,Cs5
 .byte   W12
 .byte   N06 ,Gs4
 .byte   N06 ,En5
 .byte   W12
 .byte   An4
 .byte   N06 ,Fs5
 .byte   W06
 .byte   Cs5
 .byte   N06 ,An5
 .byte   W06
 .byte   Bn4
 .byte   N06 ,Gs5
 .byte   W06
 .byte   An4
 .byte   N06 ,Fs5
 .byte   W06
 .byte   N11 ,Gs4
 .byte   N11 ,En5
 .byte   W12
 .byte   PEND 
@  #12 @024   ----------------------------------------
Label_0102D35E:
 .byte   N11 ,Gs4 ,v100
 .byte   N11 ,Ds5
 .byte   W12
 .byte   Bn5
 .byte   N11 ,Ds5
 .byte   W12
 .byte   Cs5
 .byte   N11 ,As5
 .byte   W12
 .byte   Ds5
 .byte   N11 ,Bn5
 .byte   W12
 .byte   N06 ,As4
 .byte   N06 ,Fs5
 .byte   W12
 .byte   Gs5
 .byte   N06 ,Bn4
 .byte   W06
 .byte   Ds5
 .byte   N06 ,Bn5
 .byte   W06
 .byte   As5
 .byte   N06 ,Cs5
 .byte   W06
 .byte   Bn4
 .byte   N06 ,Gs5
 .byte   W06
 .byte   N11 ,Fs5
 .byte   N11 ,As4
 .byte   W12
 .byte   PEND 
@  #12 @025   ----------------------------------------
Label_0102D38B:
 .byte   N11 ,Ds5 ,v100
 .byte   N11 ,Gs4
 .byte   W12
 .byte   Ds5
 .byte   N11 ,Bn5
 .byte   W12
 .byte   As5
 .byte   N11 ,Cs5
 .byte   W12
 .byte   Bn5
 .byte   N11 ,Ds5
 .byte   W12
 .byte   N06 ,Fs5
 .byte   N06 ,As4
 .byte   W12
 .byte   Bn4
 .byte   N06 ,Gs5
 .byte   W06
 .byte   Ds5
 .byte   N06 ,Bn5
 .byte   W06
 .byte   N11 ,Fs4
 .byte   N11 ,Ds5
 .byte   W12
 .byte   Gs4
 .byte   N11 ,Ds5
 .byte   W12
 .byte   PEND 
@  #12 @026   ----------------------------------------
Label_0102D3B4:
 .byte   N11 ,En5 ,v100
 .byte   N11 ,An4
 .byte   W12
 .byte   An5
 .byte   N11 ,Cs5
 .byte   W12
 .byte   Gs5
 .byte   N11 ,Bn4
 .byte   W12
 .byte   An5
 .byte   N11 ,Cs5
 .byte   W12
 .byte   N06 ,An4
 .byte   N06 ,Fs5
 .byte   W12
 .byte   An5
 .byte   N06 ,Bn4
 .byte   W06
 .byte   Bn5
 .byte   N06 ,Cs5
 .byte   W06
 .byte   Bn4
 .byte   N06 ,Gs5
 .byte   W06
 .byte   An5
 .byte   N06 ,Cs5
 .byte   W06
 .byte   Bn5
 .byte   N06 ,Ds5
 .byte   W06
 .byte   Cs6
 .byte   N06 ,En5
 .byte   W06
 .byte   PEND 
@  #12 @027   ----------------------------------------
Label_0102D3E4:
 .byte   N11 ,Cs5 ,v100
 .byte   N11 ,Fs4
 .byte   W12
 .byte   Cs5
 .byte   N11 ,An5
 .byte   W12
 .byte   Bn4
 .byte   N11 ,Gs5
 .byte   W12
 .byte   Cs5
 .byte   N11 ,An5
 .byte   W12
 .byte   N06 ,Gs4
 .byte   N06 ,En5
 .byte   W12
 .byte   Fs5
 .byte   N06 ,An4
 .byte   W06
 .byte   An5
 .byte   N06 ,Cs5
 .byte   W06
 .byte   Gs5
 .byte   N06 ,Bn4
 .byte   W06
 .byte   Fs5
 .byte   N06 ,An4
 .byte   W06
 .byte   N11 ,En5
 .byte   N11 ,Gs4
 .byte   W12
 .byte   PEND 
@  #12 @028   ----------------------------------------
Label_0102D411:
 .byte   N11 ,Ds5 ,v100
 .byte   N11 ,Gs4
 .byte   W12
 .byte   Bn5
 .byte   N11 ,Ds5
 .byte   W12
 .byte   As5
 .byte   N11 ,Cs5
 .byte   W12
 .byte   Ds5
 .byte   N11 ,Bn5
 .byte   W12
 .byte   N06 ,As4
 .byte   N06 ,Fs5
 .byte   W12
 .byte   Gs5
 .byte   N06 ,Bn4
 .byte   W06
 .byte   Ds5
 .byte   N06 ,Bn5
 .byte   W06
 .byte   As5
 .byte   N06 ,Cs5
 .byte   W06
 .byte   Bn4
 .byte   N06 ,Gs5
 .byte   W06
 .byte   N11 ,Fs5
 .byte   N11 ,As4
 .byte   W12
 .byte   PEND 
@  #12 @029   ----------------------------------------
Label_0102D43E:
 .byte   N11 ,Ds5 ,v100
 .byte   N11 ,Gs4
 .byte   W12
 .byte   Bn5
 .byte   N11 ,Ds5
 .byte   W12
 .byte   Cs5
 .byte   N11 ,As5
 .byte   W12
 .byte   Ds5
 .byte   N11 ,Bn5
 .byte   W12
 .byte   N06 ,Fs5
 .byte   N06 ,As4
 .byte   W12
 .byte   Gs5
 .byte   N06 ,Bn4
 .byte   W06
 .byte   Bn5
 .byte   N06 ,Ds5
 .byte   W06
 .byte   N11
 .byte   N11 ,Fs4
 .byte   W12
 .byte   Ds5
 .byte   N11 ,Gs4
 .byte   W12
 .byte   PEND 
@  #12 @030   ----------------------------------------
Label_0102D466:
 .byte   N11 ,An4 ,v100
 .byte   N11 ,En5
 .byte   W12
 .byte   Cs5
 .byte   N11 ,An5
 .byte   W12
 .byte   Bn4
 .byte   N11 ,Gs5
 .byte   W12
 .byte   Cs5
 .byte   N11 ,An5
 .byte   W12
 .byte   N06 ,Fs5
 .byte   N06 ,An4
 .byte   W12
 .byte   Bn4
 .byte   N06 ,An5
 .byte   W06
 .byte   Bn5
 .byte   N06 ,Cs5
 .byte   W06
 .byte   Bn4
 .byte   N06 ,Gs5
 .byte   W06
 .byte   An5
 .byte   N06 ,Cs5
 .byte   W06
 .byte   Ds5
 .byte   N06 ,Bn5
 .byte   W06
 .byte   Cs6
 .byte   N06 ,En5
 .byte   W06
 .byte   PEND 
@  #12 @031   ----------------------------------------
Label_0102D496:
 .byte   N11 ,Cs5 ,v100
 .byte   N11 ,Fs4
 .byte   W12
 .byte   Cs5
 .byte   N11 ,An5
 .byte   W12
 .byte   Bn4
 .byte   N11 ,Gs5
 .byte   W12
 .byte   Cs5
 .byte   N11 ,An5
 .byte   W12
 .byte   N06 ,En5
 .byte   N06 ,Gs4
 .byte   W12
 .byte   Fs5
 .byte   N06 ,An4
 .byte   W06
 .byte   Cs5
 .byte   N06 ,An5
 .byte   W06
 .byte   Gs5
 .byte   N06 ,Bn4
 .byte   W06
 .byte   An4
 .byte   N06 ,Fs5
 .byte   W06
 .byte   N11 ,Gs4
 .byte   N11 ,En5
 .byte   W12
 .byte   PEND 
@  #12 @032   ----------------------------------------
Label_0102D4C3:
 .byte   N11 ,Ds5 ,v100
 .byte   N11 ,Gs4
 .byte   W12
 .byte   Bn5
 .byte   N11 ,En5
 .byte   W12
 .byte   As5
 .byte   N11 ,Ds5
 .byte   W12
 .byte   En5
 .byte   N11 ,Bn5
 .byte   W12
 .byte   N06 ,As4
 .byte   N06 ,Fs5
 .byte   W12
 .byte   Bn4
 .byte   N06 ,Gs5
 .byte   W06
 .byte   En5
 .byte   N06 ,Bn5
 .byte   W06
 .byte   Ds5
 .byte   N06 ,As5
 .byte   W06
 .byte   Gs5
 .byte   N06 ,Bn4
 .byte   W06
 .byte   N11 ,As4
 .byte   N11 ,Fs5
 .byte   W12
 .byte   PEND 
@  #12 @033   ----------------------------------------
Label_0102D4F0:
 .byte   N11 ,Gs4 ,v100
 .byte   N11 ,En5
 .byte   W12
 .byte   Bn5
 .byte   N11 ,En5
 .byte   W12
 .byte   Ds5
 .byte   N11 ,As5
 .byte   W12
 .byte   Bn5
 .byte   N11 ,En5
 .byte   W12
 .byte   N06 ,Fs5
 .byte   N06 ,As4
 .byte   W12
 .byte   Bn4
 .byte   N06 ,Gs5
 .byte   W06
 .byte   Bn5
 .byte   N06 ,En5
 .byte   W06
 .byte   N11
 .byte   N11 ,Fs4
 .byte   W12
 .byte   Gs4
 .byte   N11 ,En5
 .byte   W12
 .byte   PEND 
@  #12 @034   ----------------------------------------
Label_0102D518:
 .byte   N11 ,En5 ,v100
 .byte   N11 ,An4
 .byte   W12
 .byte   Cs5
 .byte   N11 ,An5
 .byte   W12
 .byte   Bn4
 .byte   N11 ,Gs5
 .byte   W12
 .byte   Cs5
 .byte   N11 ,An5
 .byte   W12
 .byte   N06 ,Fs5
 .byte   N06 ,An4
 .byte   W12
 .byte   An5
 .byte   N06 ,Bn4
 .byte   W06
 .byte   Cs5
 .byte   N06 ,Bn5
 .byte   W06
 .byte   Gs5
 .byte   N06 ,Bn4
 .byte   W06
 .byte   Cs5
 .byte   N06 ,An5
 .byte   W06
 .byte   Bn5
 .byte   N06 ,Ds5
 .byte   W06
 .byte   En5
 .byte   N06 ,Cs6
 .byte   W06
 .byte   PEND 
@  #12 @035   ----------------------------------------
Label_0102D548:
 .byte   N11 ,Cs5 ,v100
 .byte   N11 ,Fs4
 .byte   W12
 .byte   An5
 .byte   N11 ,Cs5
 .byte   W12
 .byte   Gs5
 .byte   N11 ,Bn4
 .byte   W12
 .byte   An5
 .byte   N11 ,Cs5
 .byte   W12
 .byte   N06 ,Gs4
 .byte   N06 ,En5
 .byte   W12
 .byte   Fs5
 .byte   N06 ,An4
 .byte   W06
 .byte   Cs5
 .byte   N06 ,An5
 .byte   W06
 .byte   Gs5
 .byte   N06 ,Bn4
 .byte   W06
 .byte   Fs5
 .byte   N06 ,An4
 .byte   W06
 .byte   N11 ,En5
 .byte   N11 ,Gs4
 .byte   W12
 .byte   PEND 
@  #12 @036   ----------------------------------------
Label_0102D575:
 .byte   N11 ,Ds5 ,v100
 .byte   N11 ,Gs4
 .byte   W12
 .byte   Bn5
 .byte   N11 ,En5
 .byte   W12
 .byte   Ds5
 .byte   N11 ,As5
 .byte   W12
 .byte   En5
 .byte   N11 ,Bn5
 .byte   W12
 .byte   N06 ,Fs5
 .byte   N06 ,As4
 .byte   W12
 .byte   Gs5
 .byte   N06 ,Bn4
 .byte   W06
 .byte   En5
 .byte   N06 ,Bn5
 .byte   W06
 .byte   As5
 .byte   N06 ,Ds5
 .byte   W06
 .byte   Gs5
 .byte   N06 ,Bn4
 .byte   W06
 .byte   N11 ,As4
 .byte   N11 ,Fs5
 .byte   W12
 .byte   PEND 
@  #12 @037   ----------------------------------------
Label_0102D5A2:
 .byte   N11 ,Gs4 ,v100
 .byte   N11 ,En5
 .byte   W12
 .byte   En5
 .byte   N11 ,Bn5
 .byte   W12
 .byte   Ds5
 .byte   N11 ,As5
 .byte   W12
 .byte   Bn5
 .byte   N11 ,En5
 .byte   W12
 .byte   N06 ,As4
 .byte   N06 ,Fs5
 .byte   W12
 .byte   Bn4
 .byte   N06 ,Gs5
 .byte   W06
 .byte   Bn5
 .byte   N06 ,En5
 .byte   W06
 .byte   N11
 .byte   N11 ,Fs4
 .byte   W12
 .byte   En5
 .byte   N11 ,Gs4
 .byte   W12
 .byte   PEND 
@  #12 @038   ----------------------------------------
Label_0102D5CA:
 .byte   N11 ,An4 ,v100
 .byte   N11 ,En5
 .byte   W12
 .byte   An5
 .byte   N11 ,Cs5
 .byte   W12
 .byte   Gs5
 .byte   N11 ,Bn4
 .byte   W12
 .byte   An5
 .byte   N11 ,Cs5
 .byte   W12
 .byte   N06 ,An4
 .byte   N06 ,Fs5
 .byte   W12
 .byte   An5
 .byte   N06 ,Bn4
 .byte   W06
 .byte   Bn5
 .byte   N06 ,Cs5
 .byte   W06
 .byte   Gs5
 .byte   N06 ,Bn4
 .byte   W06
 .byte   An5
 .byte   N06 ,Cs5
 .byte   W06
 .byte   Bn5
 .byte   N06 ,Ds5
 .byte   W06
 .byte   En5
 .byte   N06 ,Cs6
 .byte   W06
 .byte   PEND 
@  #12 @039   ----------------------------------------
Label_0102D5FA:
 .byte   N11 ,Fs4 ,v100
 .byte   N11 ,Cs5
 .byte   W12
 .byte   Cs5
 .byte   N11 ,An5
 .byte   W12
 .byte   Bn4
 .byte   N11 ,Gs5
 .byte   W12
 .byte   An5
 .byte   N11 ,Cs5
 .byte   W12
 .byte   N06 ,En5
 .byte   N06 ,Gs4
 .byte   W12
 .byte   Fs5
 .byte   N06 ,An4
 .byte   W06
 .byte   An5
 .byte   N06 ,Cs5
 .byte   W06
 .byte   Gs5
 .byte   N06 ,Bn4
 .byte   W06
 .byte   An4
 .byte   N06 ,Fs5
 .byte   W06
 .byte   N11 ,Gs4
 .byte   N11 ,En5
 .byte   W12
 .byte   PEND 
@  #12 @040   ----------------------------------------
Label_0102D627:
 .byte   N11 ,Gs4 ,v100
 .byte   N11 ,Ds5
 .byte   W12
 .byte   Bn5
 .byte   N11 ,En5
 .byte   W12
 .byte   Ds5
 .byte   N11 ,As5
 .byte   W12
 .byte   En5
 .byte   N11 ,Bn5
 .byte   W12
 .byte   N06 ,As4
 .byte   N06 ,Fs5
 .byte   W12
 .byte   Gs5
 .byte   N06 ,Bn4
 .byte   W06
 .byte   Bn5
 .byte   N06 ,En5
 .byte   W06
 .byte   As5
 .byte   N06 ,Ds5
 .byte   W06
 .byte   Bn4
 .byte   N06 ,Gs5
 .byte   W06
 .byte   N11 ,As4
 .byte   N11 ,Fs5
 .byte   W12
 .byte   PEND 
@  #12 @041   ----------------------------------------
Label_0102D654:
 .byte   N11 ,En5 ,v100
 .byte   N11 ,Gs4
 .byte   W12
 .byte   En5
 .byte   N11 ,Bn5
 .byte   W12
 .byte   Ds5
 .byte   N11 ,As5
 .byte   W12
 .byte   En5
 .byte   N11 ,Bn5
 .byte   W12
 .byte   N06 ,Fs5
 .byte   N06 ,As4
 .byte   W12
 .byte   Gs5
 .byte   N06 ,Bn4
 .byte   W06
 .byte   Bn5
 .byte   N06 ,En5
 .byte   W06
 .byte   N11
 .byte   N11 ,Fs4
 .byte   W12
 .byte   Gs4
 .byte   N11 ,En5
 .byte   W12
 .byte   PEND 
@  #12 @042   ----------------------------------------
Label_0102D67C:
 .byte   N11 ,En5 ,v100
 .byte   N11 ,An4
 .byte   W12
 .byte   Cs5
 .byte   N11 ,An5
 .byte   W12
 .byte   Bn4
 .byte   N11 ,Gs5
 .byte   W12
 .byte   Cs5
 .byte   N11 ,An5
 .byte   W12
 .byte   N06 ,Fs5
 .byte   N06 ,An4
 .byte   W12
 .byte   An5
 .byte   N06 ,Bn4
 .byte   W06
 .byte   Cs5
 .byte   N06 ,Bn5
 .byte   W06
 .byte   Bn4
 .byte   N06 ,Gs5
 .byte   W06
 .byte   Cs5
 .byte   N06 ,An5
 .byte   W06
 .byte   Ds5
 .byte   N06 ,Bn5
 .byte   W06
 .byte   En5
 .byte   N06 ,Cs6
 .byte   W06
 .byte   PEND 
@  #12 @043   ----------------------------------------
Label_0102D6AC:
 .byte   N11 ,Fs4 ,v100
 .byte   N11 ,Cs5
 .byte   W12
 .byte   An5
 .byte   N11 ,Cs5
 .byte   W12
 .byte   Gs5
 .byte   N11 ,Bn4
 .byte   W12
 .byte   Cs5
 .byte   N11 ,An5
 .byte   W12
 .byte   N06 ,En5
 .byte   N06 ,Gs4
 .byte   W12
 .byte   An4
 .byte   N06 ,Fs5
 .byte   W06
 .byte   Cs5
 .byte   N06 ,An5
 .byte   W06
 .byte   Bn4
 .byte   N06 ,Gs5
 .byte   W06
 .byte   Fs5
 .byte   N06 ,An4
 .byte   W06
 .byte   N11 ,Gs4
 .byte   N11 ,En5
 .byte   W12
 .byte   PEND 
@  #12 @044   ----------------------------------------
Label_0102D6D9:
 .byte   N11 ,Ds5 ,v100
 .byte   N11 ,Gs4
 .byte   W12
 .byte   Bn5
 .byte   N11 ,En5
 .byte   W12
 .byte   Ds5
 .byte   N11 ,As5
 .byte   W12
 .byte   En5
 .byte   N11 ,Bn5
 .byte   W12
 .byte   N06 ,As4
 .byte   N06 ,Fs5
 .byte   W12
 .byte   Gs5
 .byte   N06 ,Bn4
 .byte   W06
 .byte   Bn5
 .byte   N06 ,En5
 .byte   W06
 .byte   As5
 .byte   N06 ,Ds5
 .byte   W06
 .byte   Bn4
 .byte   N06 ,Gs5
 .byte   W06
 .byte   N11 ,As4
 .byte   N11 ,Fs5
 .byte   W12
 .byte   PEND 
@  #12 @045   ----------------------------------------
Label_0102D706:
 .byte   N11 ,Gs4 ,v100
 .byte   N11 ,En5
 .byte   W12
 .byte   En5
 .byte   N11 ,Bn5
 .byte   W12
 .byte   Ds5
 .byte   N11 ,As5
 .byte   W12
 .byte   En5
 .byte   N11 ,Bn5
 .byte   W12
 .byte   N06 ,Fs5
 .byte   N06 ,As4
 .byte   W12
 .byte   Gs5
 .byte   N06 ,Bn4
 .byte   W06
 .byte   Bn5
 .byte   N06 ,En5
 .byte   W06
 .byte   N11
 .byte   N11 ,Fs4
 .byte   W12
 .byte   Gs4
 .byte   N11 ,En5
 .byte   W12
 .byte   PEND 
@  #12 @046   ----------------------------------------
Label_0102D72E:
 .byte   N11 ,En5 ,v100
 .byte   N11 ,An4
 .byte   W12
 .byte   Cs5
 .byte   N11 ,An5
 .byte   W12
 .byte   Bn4
 .byte   N11 ,Gs5
 .byte   W12
 .byte   An5
 .byte   N11 ,Cs5
 .byte   W12
 .byte   N06 ,An4
 .byte   N06 ,Fs5
 .byte   W12
 .byte   An5
 .byte   N06 ,Bn4
 .byte   W06
 .byte   Cs5
 .byte   N06 ,Bn5
 .byte   W06
 .byte   Gs5
 .byte   N06 ,Bn4
 .byte   W06
 .byte   Cs5
 .byte   N06 ,An5
 .byte   W06
 .byte   Ds5
 .byte   N06 ,Bn5
 .byte   W06
 .byte   En5
 .byte   N06 ,Cs6
 .byte   W06
 .byte   PEND 
@  #12 @047   ----------------------------------------
Label_0102D75E:
 .byte   N11 ,Fs4 ,v100
 .byte   N11 ,Cs5
 .byte   W12
 .byte   An5
 .byte   N11 ,Cs5
 .byte   W12
 .byte   Gs5
 .byte   N11 ,Bn4
 .byte   W12
 .byte   An5
 .byte   N11 ,Cs5
 .byte   W12
 .byte   N06 ,En5
 .byte   N06 ,Gs4
 .byte   W12
 .byte   Fs5
 .byte   N06 ,An4
 .byte   W06
 .byte   An5
 .byte   N06 ,Cs5
 .byte   W06
 .byte   Bn4
 .byte   N06 ,Gs5
 .byte   W06
 .byte   An4
 .byte   N06 ,Fs5
 .byte   W06
 .byte   N11 ,En5
 .byte   N11 ,Gs4
 .byte   W12
 .byte   PEND 
@  #12 @048   ----------------------------------------
 .byte   W96
@  #12 @049   ----------------------------------------
 .byte   W96
@  #12 @050   ----------------------------------------
 .byte   W96
@  #12 @051   ----------------------------------------
 .byte   W96
@  #12 @052   ----------------------------------------
 .byte   W96
@  #12 @053   ----------------------------------------
 .byte   W96
@  #12 @054   ----------------------------------------
 .byte   W96
@  #12 @055   ----------------------------------------
 .byte   W96
@  #12 @056   ----------------------------------------
 .byte   W96
@  #12 @057   ----------------------------------------
 .byte   W96
@  #12 @058   ----------------------------------------
 .byte   W96
@  #12 @059   ----------------------------------------
 .byte   W96
@  #12 @060   ----------------------------------------
 .byte   W96
@  #12 @061   ----------------------------------------
 .byte   W96
@  #12 @062   ----------------------------------------
 .byte   W96
@  #12 @063   ----------------------------------------
 .byte   W96
@  #12 @064   ----------------------------------------
 .byte   W96
@  #12 @065   ----------------------------------------
 .byte   W96
@  #12 @066   ----------------------------------------
 .byte   W96
@  #12 @067   ----------------------------------------
 .byte   W96
@  #12 @068   ----------------------------------------
 .byte   W96
@  #12 @069   ----------------------------------------
 .byte   W96
@  #12 @070   ----------------------------------------
 .byte   W96
@  #12 @071   ----------------------------------------
 .byte   W96
@  #12 @072   ----------------------------------------
 .byte   GOTO
  .word Label_0102D1E2
@  #12 @073   ----------------------------------------
 .byte   W96
@  #12 @074   ----------------------------------------
 .byte   W96
@  #12 @075   ----------------------------------------
 .byte   W96
@  #12 @076   ----------------------------------------
 .byte   W96
@  #12 @077   ----------------------------------------
 .byte   W96
@  #12 @078   ----------------------------------------
 .byte   W96
@  #12 @079   ----------------------------------------
 .byte   W96
@  #12 @080   ----------------------------------------
 .byte   W96
@  #12 @081   ----------------------------------------
 .byte   W96
@  #12 @082   ----------------------------------------
 .byte   W96
@  #12 @083   ----------------------------------------
 .byte   W96
@  #12 @084   ----------------------------------------
 .byte   W96
@  #12 @085   ----------------------------------------
 .byte   W96
@  #12 @086   ----------------------------------------
 .byte   W96
@  #12 @087   ----------------------------------------
 .byte   W96
@  #12 @088   ----------------------------------------
 .byte   W96
@  #12 @089   ----------------------------------------
 .byte   PATT
  .word Label_0102D1F8
@  #12 @090   ----------------------------------------
 .byte   PATT
  .word Label_0102D225
@  #12 @091   ----------------------------------------
 .byte   PATT
  .word Label_0102D24E
@  #12 @092   ----------------------------------------
 .byte   PATT
  .word Label_0102D27E
@  #12 @093   ----------------------------------------
 .byte   PATT
  .word Label_0102D2AB
@  #12 @094   ----------------------------------------
 .byte   PATT
  .word Label_0102D2D8
@  #12 @095   ----------------------------------------
 .byte   PATT
  .word Label_0102D301
@  #12 @096   ----------------------------------------
 .byte   PATT
  .word Label_0102D331
@  #12 @097   ----------------------------------------
 .byte   PATT
  .word Label_0102D35E
@  #12 @098   ----------------------------------------
 .byte   PATT
  .word Label_0102D38B
@  #12 @099   ----------------------------------------
 .byte   PATT
  .word Label_0102D3B4
@  #12 @100   ----------------------------------------
 .byte   PATT
  .word Label_0102D3E4
@  #12 @101   ----------------------------------------
 .byte   PATT
  .word Label_0102D411
@  #12 @102   ----------------------------------------
 .byte   PATT
  .word Label_0102D43E
@  #12 @103   ----------------------------------------
 .byte   PATT
  .word Label_0102D466
@  #12 @104   ----------------------------------------
 .byte   PATT
  .word Label_0102D496
@  #12 @105   ----------------------------------------
 .byte   PATT
  .word Label_0102D4C3
@  #12 @106   ----------------------------------------
 .byte   PATT
  .word Label_0102D4F0
@  #12 @107   ----------------------------------------
 .byte   PATT
  .word Label_0102D518
@  #12 @108   ----------------------------------------
 .byte   PATT
  .word Label_0102D548
@  #12 @109   ----------------------------------------
 .byte   PATT
  .word Label_0102D575
@  #12 @110   ----------------------------------------
 .byte   PATT
  .word Label_0102D5A2
@  #12 @111   ----------------------------------------
 .byte   PATT
  .word Label_0102D5CA
@  #12 @112   ----------------------------------------
 .byte   PATT
  .word Label_0102D5FA
@  #12 @113   ----------------------------------------
 .byte   PATT
  .word Label_0102D627
@  #12 @114   ----------------------------------------
 .byte   PATT
  .word Label_0102D654
@  #12 @115   ----------------------------------------
 .byte   PATT
  .word Label_0102D67C
@  #12 @116   ----------------------------------------
 .byte   PATT
  .word Label_0102D6AC
@  #12 @117   ----------------------------------------
 .byte   PATT
  .word Label_0102D6D9
@  #12 @118   ----------------------------------------
 .byte   PATT
  .word Label_0102D706
@  #12 @119   ----------------------------------------
 .byte   PATT
  .word Label_0102D72E
@  #12 @120   ----------------------------------------
 .byte   PATT
  .word Label_0102D75E
@  #12 @121   ----------------------------------------
 .byte   W96
@  #12 @122   ----------------------------------------
 .byte   W96
@  #12 @123   ----------------------------------------
 .byte   W96
@  #12 @124   ----------------------------------------
 .byte   W96
@  #12 @125   ----------------------------------------
 .byte   W96
@  #12 @126   ----------------------------------------
 .byte   W96
@  #12 @127   ----------------------------------------
 .byte   W96
@  #12 @128   ----------------------------------------
 .byte   W96
@  #12 @129   ----------------------------------------
 .byte   W96
@  #12 @130   ----------------------------------------
 .byte   W96
@  #12 @131   ----------------------------------------
 .byte   W96
@  #12 @132   ----------------------------------------
 .byte   W96
@  #12 @133   ----------------------------------------
 .byte   W96
@  #12 @134   ----------------------------------------
 .byte   W96
@  #12 @135   ----------------------------------------
 .byte   W96
@  #12 @136   ----------------------------------------
 .byte   W96
@  #12 @137   ----------------------------------------
 .byte   W96
@  #12 @138   ----------------------------------------
 .byte   W96
@  #12 @139   ----------------------------------------
 .byte   W96
@  #12 @140   ----------------------------------------
 .byte   W96
@  #12 @141   ----------------------------------------
 .byte   W96
@  #12 @142   ----------------------------------------
 .byte   W96
@  #12 @143   ----------------------------------------
 .byte   W96
@  #12 @144   ----------------------------------------
 .byte   W96
@  #12 @145   ----------------------------------------
 .byte   W96
@  #12 @146   ----------------------------------------
 .byte   W96
@  #12 @147   ----------------------------------------
 .byte   W96
@  #12 @148   ----------------------------------------
 .byte   W96
@  #12 @149   ----------------------------------------
 .byte   W96
@  #12 @150   ----------------------------------------
 .byte   W96
@  #12 @151   ----------------------------------------
 .byte   W96
@  #12 @152   ----------------------------------------
 .byte   W96
@  #12 @153   ----------------------------------------
 .byte   W96
@  #12 @154   ----------------------------------------
 .byte   W96
@  #12 @155   ----------------------------------------
 .byte   W96
@  #12 @156   ----------------------------------------
 .byte   W96
@  #12 @157   ----------------------------------------
 .byte   W96
@  #12 @158   ----------------------------------------
 .byte   W96
@  #12 @159   ----------------------------------------
 .byte   W96
@  #12 @160   ----------------------------------------
 .byte   W96
@  #12 @161   ----------------------------------------
 .byte   PATT
  .word Label_0102D1F8
@  #12 @162   ----------------------------------------
 .byte   PATT
  .word Label_0102D225
@  #12 @163   ----------------------------------------
 .byte   PATT
  .word Label_0102D24E
@  #12 @164   ----------------------------------------
 .byte   PATT
  .word Label_0102D27E
@  #12 @165   ----------------------------------------
 .byte   PATT
  .word Label_0102D2AB
@  #12 @166   ----------------------------------------
 .byte   PATT
  .word Label_0102D2D8
@  #12 @167   ----------------------------------------
 .byte   PATT
  .word Label_0102D301
@  #12 @168   ----------------------------------------
 .byte   PATT
  .word Label_0102D331
@  #12 @169   ----------------------------------------
 .byte   PATT
  .word Label_0102D35E
@  #12 @170   ----------------------------------------
 .byte   PATT
  .word Label_0102D38B
@  #12 @171   ----------------------------------------
 .byte   PATT
  .word Label_0102D3B4
@  #12 @172   ----------------------------------------
 .byte   PATT
  .word Label_0102D3E4
@  #12 @173   ----------------------------------------
 .byte   PATT
  .word Label_0102D411
@  #12 @174   ----------------------------------------
 .byte   PATT
  .word Label_0102D43E
@  #12 @175   ----------------------------------------
 .byte   PATT
  .word Label_0102D466
@  #12 @176   ----------------------------------------
 .byte   PATT
  .word Label_0102D496
@  #12 @177   ----------------------------------------
 .byte   PATT
  .word Label_0102D4C3
@  #12 @178   ----------------------------------------
 .byte   PATT
  .word Label_0102D4F0
@  #12 @179   ----------------------------------------
 .byte   PATT
  .word Label_0102D518
@  #12 @180   ----------------------------------------
 .byte   PATT
  .word Label_0102D548
@  #12 @181   ----------------------------------------
 .byte   PATT
  .word Label_0102D575
@  #12 @182   ----------------------------------------
 .byte   PATT
  .word Label_0102D5A2
@  #12 @183   ----------------------------------------
 .byte   PATT
  .word Label_0102D5CA
@  #12 @184   ----------------------------------------
 .byte   PATT
  .word Label_0102D5FA
@  #12 @185   ----------------------------------------
 .byte   PATT
  .word Label_0102D627
@  #12 @186   ----------------------------------------
 .byte   PATT
  .word Label_0102D654
@  #12 @187   ----------------------------------------
 .byte   PATT
  .word Label_0102D67C
@  #12 @188   ----------------------------------------
 .byte   PATT
  .word Label_0102D6AC
@  #12 @189   ----------------------------------------
 .byte   PATT
  .word Label_0102D6D9
@  #12 @190   ----------------------------------------
 .byte   PATT
  .word Label_0102D706
@  #12 @191   ----------------------------------------
 .byte   PATT
  .word Label_0102D72E
@  #12 @192   ----------------------------------------
 .byte   PATT
  .word Label_0102D75E
@  #12 @193   ----------------------------------------
 .byte   W96
@  #12 @194   ----------------------------------------
 .byte   W96
@  #12 @195   ----------------------------------------
 .byte   W96
@  #12 @196   ----------------------------------------
 .byte   W96
@  #12 @197   ----------------------------------------
 .byte   W96
@  #12 @198   ----------------------------------------
 .byte   W96
@  #12 @199   ----------------------------------------
 .byte   W96
@  #12 @200   ----------------------------------------
 .byte   W96
@  #12 @201   ----------------------------------------
 .byte   W96
@  #12 @202   ----------------------------------------
 .byte   W96
@  #12 @203   ----------------------------------------
 .byte   W96
@  #12 @204   ----------------------------------------
 .byte   W96
@  #12 @205   ----------------------------------------
 .byte   W96
@  #12 @206   ----------------------------------------
 .byte   W96
@  #12 @207   ----------------------------------------
 .byte   W96
@  #12 @208   ----------------------------------------
 .byte   W96
@  #12 @209   ----------------------------------------
 .byte   W96
@  #12 @210   ----------------------------------------
 .byte   W96
@  #12 @211   ----------------------------------------
 .byte   W96
@  #12 @212   ----------------------------------------
 .byte   W96
@  #12 @213   ----------------------------------------
 .byte   W96
@  #12 @214   ----------------------------------------
 .byte   W96
@  #12 @215   ----------------------------------------
 .byte   W96
@  #12 @216   ----------------------------------------
 .byte   W14
 .byte   FINE

@**************** Track 13 (Midi-Chn.12) ****************@

song07_013:
@  #13 @000   ----------------------------------------
 .byte   KEYSH , song07_key+0
Label_0102CABA:
 .byte   VOICE , 30
 .byte   BENDR, 12
 .byte   VOL , 35*song07_mvl/mxv
 .byte   N04 ,Gs1 ,v120
 .byte   W06
 .byte   Gs1
 .byte   W06
 .byte   Gs1
 .byte   W06
 .byte   Gs1
 .byte   W06
 .byte   Gs1
 .byte   W06
 .byte   Gs1
 .byte   W06
 .byte   Gs1
 .byte   W06
 .byte   Gs1
 .byte   W06
 .byte   Gs1
 .byte   W06
 .byte   Gs1
 .byte   W06
 .byte   An1
 .byte   W06
 .byte   An1
 .byte   W06
 .byte   As1
 .byte   W06
 .byte   As1
 .byte   W06
 .byte   Bn1
 .byte   W06
 .byte   Cn2
 .byte   W06
@  #13 @001   ----------------------------------------
Label_0102CAE2:
 .byte   N04 ,Gs1 ,v120
 .byte   W06
 .byte   Gs1
 .byte   W06
 .byte   Gs1
 .byte   W06
 .byte   Gs1
 .byte   W06
 .byte   Gs1
 .byte   W06
 .byte   Gs1
 .byte   W06
 .byte   Gs1
 .byte   W06
 .byte   Gs1
 .byte   W06
 .byte   Gs1
 .byte   W06
 .byte   Gs1
 .byte   W06
 .byte   An1
 .byte   W06
 .byte   An1
 .byte   W06
 .byte   As1
 .byte   W06
 .byte   As1
 .byte   W06
 .byte   Bn1
 .byte   W06
 .byte   Cn2
 .byte   W06
 .byte   PEND 
@  #13 @002   ----------------------------------------
 .byte   PATT
  .word Label_0102CAE2
@  #13 @003   ----------------------------------------
 .byte   PATT
  .word Label_0102CAE2
@  #13 @004   ----------------------------------------
 .byte   PATT
  .word Label_0102CAE2
@  #13 @005   ----------------------------------------
 .byte   PATT
  .word Label_0102CAE2
@  #13 @006   ----------------------------------------
 .byte   PATT
  .word Label_0102CAE2
@  #13 @007   ----------------------------------------
 .byte   PATT
  .word Label_0102CAE2
@  #13 @008   ----------------------------------------
 .byte   PATT
  .word Label_0102CAE2
@  #13 @009   ----------------------------------------
 .byte   PATT
  .word Label_0102CAE2
@  #13 @010   ----------------------------------------
 .byte   PATT
  .word Label_0102CAE2
@  #13 @011   ----------------------------------------
 .byte   PATT
  .word Label_0102CAE2
@  #13 @012   ----------------------------------------
 .byte   PATT
  .word Label_0102CAE2
@  #13 @013   ----------------------------------------
 .byte   PATT
  .word Label_0102CAE2
@  #13 @014   ----------------------------------------
 .byte   W96
@  #13 @015   ----------------------------------------
 .byte   W96
@  #13 @016   ----------------------------------------
 .byte   PATT
  .word Label_0102CAE2
@  #13 @017   ----------------------------------------
 .byte   PATT
  .word Label_0102CAE2
@  #13 @018   ----------------------------------------
Label_0102CB4D:
 .byte   N04 ,An1 ,v120
 .byte   W06
 .byte   An1
 .byte   W06
 .byte   An1
 .byte   W06
 .byte   An1
 .byte   W06
 .byte   An1
 .byte   W06
 .byte   An1
 .byte   W06
 .byte   An1
 .byte   W06
 .byte   An1
 .byte   W06
 .byte   An1
 .byte   W06
 .byte   An1
 .byte   W06
 .byte   As1
 .byte   W06
 .byte   As1
 .byte   W06
 .byte   Bn1
 .byte   W06
 .byte   Bn1
 .byte   W06
 .byte   Cn2
 .byte   W06
 .byte   Cs2
 .byte   W06
 .byte   PEND 
@  #13 @019   ----------------------------------------
Label_0102CB70:
 .byte   N04 ,Fs1 ,v120
 .byte   W06
 .byte   Fs1
 .byte   W06
 .byte   Fs1
 .byte   W06
 .byte   Fs1
 .byte   W06
 .byte   Fs1
 .byte   W06
 .byte   Fs1
 .byte   W06
 .byte   Fs1
 .byte   W06
 .byte   Fs1
 .byte   W06
 .byte   Fs1
 .byte   W06
 .byte   Fs1
 .byte   W06
 .byte   Gn1
 .byte   W06
 .byte   Gn1
 .byte   W06
 .byte   Gs1
 .byte   W06
 .byte   Gs1
 .byte   W06
 .byte   An1
 .byte   W06
 .byte   As1
 .byte   W06
 .byte   PEND 
@  #13 @020   ----------------------------------------
 .byte   PATT
  .word Label_0102CAE2
@  #13 @021   ----------------------------------------
 .byte   PATT
  .word Label_0102CAE2
@  #13 @022   ----------------------------------------
 .byte   PATT
  .word Label_0102CB4D
@  #13 @023   ----------------------------------------
 .byte   PATT
  .word Label_0102CB70
@  #13 @024   ----------------------------------------
 .byte   PATT
  .word Label_0102CAE2
@  #13 @025   ----------------------------------------
 .byte   PATT
  .word Label_0102CAE2
@  #13 @026   ----------------------------------------
 .byte   PATT
  .word Label_0102CB4D
@  #13 @027   ----------------------------------------
 .byte   PATT
  .word Label_0102CB70
@  #13 @028   ----------------------------------------
 .byte   PATT
  .word Label_0102CAE2
@  #13 @029   ----------------------------------------
 .byte   PATT
  .word Label_0102CAE2
@  #13 @030   ----------------------------------------
 .byte   PATT
  .word Label_0102CB4D
@  #13 @031   ----------------------------------------
 .byte   PATT
  .word Label_0102CB70
@  #13 @032   ----------------------------------------
Label_0102CBCF:
 .byte   N04 ,En1 ,v120
 .byte   W06
 .byte   En1
 .byte   W06
 .byte   En1
 .byte   W06
 .byte   En1
 .byte   W06
 .byte   En1
 .byte   W06
 .byte   En1
 .byte   W06
 .byte   En1
 .byte   W06
 .byte   En1
 .byte   W06
 .byte   En1
 .byte   W06
 .byte   En1
 .byte   W06
 .byte   Fn1
 .byte   W06
 .byte   Fn1
 .byte   W06
 .byte   Fs1
 .byte   W06
 .byte   Fs1
 .byte   W06
 .byte   Gn1
 .byte   W06
 .byte   Gs1
 .byte   W06
 .byte   PEND 
@  #13 @033   ----------------------------------------
 .byte   PATT
  .word Label_0102CBCF
@  #13 @034   ----------------------------------------
 .byte   PATT
  .word Label_0102CB4D
@  #13 @035   ----------------------------------------
 .byte   PATT
  .word Label_0102CB70
@  #13 @036   ----------------------------------------
 .byte   PATT
  .word Label_0102CBCF
@  #13 @037   ----------------------------------------
 .byte   PATT
  .word Label_0102CBCF
@  #13 @038   ----------------------------------------
 .byte   PATT
  .word Label_0102CB4D
@  #13 @039   ----------------------------------------
 .byte   PATT
  .word Label_0102CB70
@  #13 @040   ----------------------------------------
 .byte   PATT
  .word Label_0102CBCF
@  #13 @041   ----------------------------------------
 .byte   PATT
  .word Label_0102CBCF
@  #13 @042   ----------------------------------------
 .byte   PATT
  .word Label_0102CB4D
@  #13 @043   ----------------------------------------
 .byte   PATT
  .word Label_0102CB70
@  #13 @044   ----------------------------------------
 .byte   PATT
  .word Label_0102CBCF
@  #13 @045   ----------------------------------------
 .byte   PATT
  .word Label_0102CBCF
@  #13 @046   ----------------------------------------
 .byte   PATT
  .word Label_0102CB4D
@  #13 @047   ----------------------------------------
 .byte   PATT
  .word Label_0102CB70
@  #13 @048   ----------------------------------------
 .byte   W96
@  #13 @049   ----------------------------------------
 .byte   W96
@  #13 @050   ----------------------------------------
 .byte   W96
@  #13 @051   ----------------------------------------
 .byte   W96
@  #13 @052   ----------------------------------------
 .byte   W96
@  #13 @053   ----------------------------------------
 .byte   W96
@  #13 @054   ----------------------------------------
 .byte   W96
@  #13 @055   ----------------------------------------
 .byte   W96
@  #13 @056   ----------------------------------------
Label_0102CC45:
 .byte   N04 ,As1 ,v120
 .byte   W06
 .byte   As1
 .byte   W06
 .byte   As1
 .byte   W06
 .byte   As1
 .byte   W06
 .byte   As1
 .byte   W06
 .byte   As1
 .byte   W06
 .byte   As1
 .byte   W06
 .byte   As1
 .byte   W06
 .byte   As1
 .byte   W06
 .byte   As1
 .byte   W06
 .byte   Bn1
 .byte   W06
 .byte   Bn1
 .byte   W06
 .byte   Cn2
 .byte   W06
 .byte   Cn2
 .byte   W06
 .byte   Cs2
 .byte   W06
 .byte   Dn2
 .byte   W06
 .byte   PEND 
@  #13 @057   ----------------------------------------
 .byte   PATT
  .word Label_0102CC45
@  #13 @058   ----------------------------------------
Label_0102CC6D:
 .byte   N04 ,Fs1 ,v120
 .byte   W06
 .byte   Fs1
 .byte   W06
 .byte   Fs1
 .byte   W06
 .byte   Fs1
 .byte   W06
 .byte   Fs2
 .byte   W06
 .byte   Fs1
 .byte   W06
 .byte   Fs1
 .byte   W06
 .byte   Gs2
 .byte   W06
 .byte   Fs1
 .byte   W06
 .byte   Fs1
 .byte   W06
 .byte   Fs1
 .byte   W06
 .byte   Fs1
 .byte   W06
 .byte   Fn2
 .byte   W06
 .byte   Ds2
 .byte   W06
 .byte   Fn2
 .byte   W06
 .byte   Fs2
 .byte   W06
 .byte   PEND 
@  #13 @059   ----------------------------------------
 .byte   PATT
  .word Label_0102CC6D
@  #13 @060   ----------------------------------------
 .byte   PATT
  .word Label_0102CC45
@  #13 @061   ----------------------------------------
 .byte   PATT
  .word Label_0102CC45
@  #13 @062   ----------------------------------------
 .byte   PATT
  .word Label_0102CB4D
@  #13 @063   ----------------------------------------
Label_0102CCA4:
 .byte   N04 ,Gn1 ,v120
 .byte   W06
 .byte   Gn1
 .byte   W06
 .byte   Gn1
 .byte   W06
 .byte   Gn1
 .byte   W06
 .byte   Gn1
 .byte   W06
 .byte   Gn1
 .byte   W06
 .byte   Gn1
 .byte   W06
 .byte   Gn1
 .byte   W06
 .byte   Gn1
 .byte   W06
 .byte   Gn1
 .byte   W06
 .byte   Gs1
 .byte   W06
 .byte   Gs1
 .byte   W06
 .byte   An1
 .byte   W06
 .byte   An1
 .byte   W06
 .byte   As1
 .byte   W06
 .byte   Bn1
 .byte   W06
 .byte   PEND 
@  #13 @064   ----------------------------------------
 .byte   PATT
  .word Label_0102CC45
@  #13 @065   ----------------------------------------
 .byte   PATT
  .word Label_0102CC45
@  #13 @066   ----------------------------------------
 .byte   PATT
  .word Label_0102CC6D
@  #13 @067   ----------------------------------------
 .byte   PATT
  .word Label_0102CC6D
@  #13 @068   ----------------------------------------
 .byte   PATT
  .word Label_0102CC45
@  #13 @069   ----------------------------------------
 .byte   PATT
  .word Label_0102CC45
@  #13 @070   ----------------------------------------
 .byte   PATT
  .word Label_0102CB4D
@  #13 @071   ----------------------------------------
 .byte   PATT
  .word Label_0102CCA4
@  #13 @072   ----------------------------------------
 .byte   N04 ,Gs1 ,v120
 .byte   GOTO
  .word Label_0102CABA
@  #13 @073   ----------------------------------------
 .byte   W06
 .byte   Gs1
 .byte   W06
 .byte   Gs1
 .byte   W06
 .byte   Gs1
 .byte   W06
 .byte   Gs1
 .byte   W06
 .byte   Gs1
 .byte   W06
 .byte   Gs1
 .byte   W06
 .byte   Gs1
 .byte   W06
 .byte   Gs1
 .byte   W06
 .byte   Gs1
 .byte   W06
 .byte   An1
 .byte   W06
 .byte   An1
 .byte   W06
 .byte   As1
 .byte   W06
 .byte   As1
 .byte   W06
 .byte   Bn1
 .byte   W06
 .byte   Cn2
 .byte   W06
@  #13 @074   ----------------------------------------
 .byte   PATT
  .word Label_0102CAE2
@  #13 @075   ----------------------------------------
 .byte   PATT
  .word Label_0102CAE2
@  #13 @076   ----------------------------------------
 .byte   PATT
  .word Label_0102CAE2
@  #13 @077   ----------------------------------------
 .byte   PATT
  .word Label_0102CAE2
@  #13 @078   ----------------------------------------
 .byte   PATT
  .word Label_0102CAE2
@  #13 @079   ----------------------------------------
 .byte   PATT
  .word Label_0102CAE2
@  #13 @080   ----------------------------------------
 .byte   PATT
  .word Label_0102CAE2
@  #13 @081   ----------------------------------------
 .byte   PATT
  .word Label_0102CAE2
@  #13 @082   ----------------------------------------
 .byte   PATT
  .word Label_0102CAE2
@  #13 @083   ----------------------------------------
 .byte   PATT
  .word Label_0102CAE2
@  #13 @084   ----------------------------------------
 .byte   PATT
  .word Label_0102CAE2
@  #13 @085   ----------------------------------------
 .byte   PATT
  .word Label_0102CAE2
@  #13 @086   ----------------------------------------
 .byte   PATT
  .word Label_0102CAE2
@  #13 @087   ----------------------------------------
 .byte   W96
@  #13 @088   ----------------------------------------
 .byte   W96
@  #13 @089   ----------------------------------------
 .byte   PATT
  .word Label_0102CAE2
@  #13 @090   ----------------------------------------
 .byte   PATT
  .word Label_0102CAE2
@  #13 @091   ----------------------------------------
 .byte   PATT
  .word Label_0102CB4D
@  #13 @092   ----------------------------------------
 .byte   PATT
  .word Label_0102CB70
@  #13 @093   ----------------------------------------
 .byte   PATT
  .word Label_0102CAE2
@  #13 @094   ----------------------------------------
 .byte   PATT
  .word Label_0102CAE2
@  #13 @095   ----------------------------------------
 .byte   PATT
  .word Label_0102CB4D
@  #13 @096   ----------------------------------------
 .byte   PATT
  .word Label_0102CB70
@  #13 @097   ----------------------------------------
 .byte   PATT
  .word Label_0102CAE2
@  #13 @098   ----------------------------------------
 .byte   PATT
  .word Label_0102CAE2
@  #13 @099   ----------------------------------------
 .byte   PATT
  .word Label_0102CB4D
@  #13 @100   ----------------------------------------
 .byte   PATT
  .word Label_0102CB70
@  #13 @101   ----------------------------------------
 .byte   PATT
  .word Label_0102CAE2
@  #13 @102   ----------------------------------------
 .byte   PATT
  .word Label_0102CAE2
@  #13 @103   ----------------------------------------
 .byte   PATT
  .word Label_0102CB4D
@  #13 @104   ----------------------------------------
 .byte   PATT
  .word Label_0102CB70
@  #13 @105   ----------------------------------------
 .byte   PATT
  .word Label_0102CBCF
@  #13 @106   ----------------------------------------
 .byte   PATT
  .word Label_0102CBCF
@  #13 @107   ----------------------------------------
 .byte   PATT
  .word Label_0102CB4D
@  #13 @108   ----------------------------------------
 .byte   PATT
  .word Label_0102CB70
@  #13 @109   ----------------------------------------
 .byte   PATT
  .word Label_0102CBCF
@  #13 @110   ----------------------------------------
 .byte   PATT
  .word Label_0102CBCF
@  #13 @111   ----------------------------------------
 .byte   PATT
  .word Label_0102CB4D
@  #13 @112   ----------------------------------------
 .byte   PATT
  .word Label_0102CB70
@  #13 @113   ----------------------------------------
 .byte   PATT
  .word Label_0102CBCF
@  #13 @114   ----------------------------------------
 .byte   PATT
  .word Label_0102CBCF
@  #13 @115   ----------------------------------------
 .byte   PATT
  .word Label_0102CB4D
@  #13 @116   ----------------------------------------
 .byte   PATT
  .word Label_0102CB70
@  #13 @117   ----------------------------------------
 .byte   PATT
  .word Label_0102CBCF
@  #13 @118   ----------------------------------------
 .byte   PATT
  .word Label_0102CBCF
@  #13 @119   ----------------------------------------
 .byte   PATT
  .word Label_0102CB4D
@  #13 @120   ----------------------------------------
 .byte   PATT
  .word Label_0102CB70
@  #13 @121   ----------------------------------------
 .byte   W96
@  #13 @122   ----------------------------------------
 .byte   W96
@  #13 @123   ----------------------------------------
 .byte   W96
@  #13 @124   ----------------------------------------
 .byte   W96
@  #13 @125   ----------------------------------------
 .byte   W96
@  #13 @126   ----------------------------------------
 .byte   W96
@  #13 @127   ----------------------------------------
 .byte   W96
@  #13 @128   ----------------------------------------
 .byte   W96
@  #13 @129   ----------------------------------------
 .byte   PATT
  .word Label_0102CC45
@  #13 @130   ----------------------------------------
 .byte   PATT
  .word Label_0102CC45
@  #13 @131   ----------------------------------------
 .byte   PATT
  .word Label_0102CC6D
@  #13 @132   ----------------------------------------
 .byte   PATT
  .word Label_0102CC6D
@  #13 @133   ----------------------------------------
 .byte   PATT
  .word Label_0102CC45
@  #13 @134   ----------------------------------------
 .byte   PATT
  .word Label_0102CC45
@  #13 @135   ----------------------------------------
 .byte   PATT
  .word Label_0102CB4D
@  #13 @136   ----------------------------------------
 .byte   PATT
  .word Label_0102CCA4
@  #13 @137   ----------------------------------------
 .byte   PATT
  .word Label_0102CC45
@  #13 @138   ----------------------------------------
 .byte   PATT
  .word Label_0102CC45
@  #13 @139   ----------------------------------------
 .byte   PATT
  .word Label_0102CC6D
@  #13 @140   ----------------------------------------
 .byte   PATT
  .word Label_0102CC6D
@  #13 @141   ----------------------------------------
 .byte   PATT
  .word Label_0102CC45
@  #13 @142   ----------------------------------------
 .byte   PATT
  .word Label_0102CC45
@  #13 @143   ----------------------------------------
 .byte   PATT
  .word Label_0102CB4D
@  #13 @144   ----------------------------------------
 .byte   PATT
  .word Label_0102CCA4
@  #13 @145   ----------------------------------------
 .byte   PATT
  .word Label_0102CAE2
@  #13 @146   ----------------------------------------
 .byte   PATT
  .word Label_0102CAE2
@  #13 @147   ----------------------------------------
 .byte   PATT
  .word Label_0102CAE2
@  #13 @148   ----------------------------------------
 .byte   PATT
  .word Label_0102CAE2
@  #13 @149   ----------------------------------------
 .byte   PATT
  .word Label_0102CAE2
@  #13 @150   ----------------------------------------
 .byte   PATT
  .word Label_0102CAE2
@  #13 @151   ----------------------------------------
 .byte   PATT
  .word Label_0102CAE2
@  #13 @152   ----------------------------------------
 .byte   PATT
  .word Label_0102CAE2
@  #13 @153   ----------------------------------------
 .byte   PATT
  .word Label_0102CAE2
@  #13 @154   ----------------------------------------
 .byte   PATT
  .word Label_0102CAE2
@  #13 @155   ----------------------------------------
 .byte   PATT
  .word Label_0102CAE2
@  #13 @156   ----------------------------------------
 .byte   PATT
  .word Label_0102CAE2
@  #13 @157   ----------------------------------------
 .byte   PATT
  .word Label_0102CAE2
@  #13 @158   ----------------------------------------
 .byte   PATT
  .word Label_0102CAE2
@  #13 @159   ----------------------------------------
 .byte   W96
@  #13 @160   ----------------------------------------
 .byte   W96
@  #13 @161   ----------------------------------------
 .byte   PATT
  .word Label_0102CAE2
@  #13 @162   ----------------------------------------
 .byte   PATT
  .word Label_0102CAE2
@  #13 @163   ----------------------------------------
 .byte   PATT
  .word Label_0102CB4D
@  #13 @164   ----------------------------------------
 .byte   PATT
  .word Label_0102CB70
@  #13 @165   ----------------------------------------
 .byte   PATT
  .word Label_0102CAE2
@  #13 @166   ----------------------------------------
 .byte   PATT
  .word Label_0102CAE2
@  #13 @167   ----------------------------------------
 .byte   PATT
  .word Label_0102CB4D
@  #13 @168   ----------------------------------------
 .byte   PATT
  .word Label_0102CB70
@  #13 @169   ----------------------------------------
 .byte   PATT
  .word Label_0102CAE2
@  #13 @170   ----------------------------------------
 .byte   PATT
  .word Label_0102CAE2
@  #13 @171   ----------------------------------------
 .byte   PATT
  .word Label_0102CB4D
@  #13 @172   ----------------------------------------
 .byte   PATT
  .word Label_0102CB70
@  #13 @173   ----------------------------------------
 .byte   PATT
  .word Label_0102CAE2
@  #13 @174   ----------------------------------------
 .byte   PATT
  .word Label_0102CAE2
@  #13 @175   ----------------------------------------
 .byte   PATT
  .word Label_0102CB4D
@  #13 @176   ----------------------------------------
 .byte   PATT
  .word Label_0102CB70
@  #13 @177   ----------------------------------------
 .byte   PATT
  .word Label_0102CBCF
@  #13 @178   ----------------------------------------
 .byte   PATT
  .word Label_0102CBCF
@  #13 @179   ----------------------------------------
 .byte   PATT
  .word Label_0102CB4D
@  #13 @180   ----------------------------------------
 .byte   PATT
  .word Label_0102CB70
@  #13 @181   ----------------------------------------
 .byte   PATT
  .word Label_0102CBCF
@  #13 @182   ----------------------------------------
 .byte   PATT
  .word Label_0102CBCF
@  #13 @183   ----------------------------------------
 .byte   PATT
  .word Label_0102CB4D
@  #13 @184   ----------------------------------------
 .byte   PATT
  .word Label_0102CB70
@  #13 @185   ----------------------------------------
 .byte   PATT
  .word Label_0102CBCF
@  #13 @186   ----------------------------------------
 .byte   PATT
  .word Label_0102CBCF
@  #13 @187   ----------------------------------------
 .byte   PATT
  .word Label_0102CB4D
@  #13 @188   ----------------------------------------
 .byte   PATT
  .word Label_0102CB70
@  #13 @189   ----------------------------------------
 .byte   PATT
  .word Label_0102CBCF
@  #13 @190   ----------------------------------------
 .byte   PATT
  .word Label_0102CBCF
@  #13 @191   ----------------------------------------
 .byte   PATT
  .word Label_0102CB4D
@  #13 @192   ----------------------------------------
 .byte   PATT
  .word Label_0102CB70
@  #13 @193   ----------------------------------------
 .byte   W96
@  #13 @194   ----------------------------------------
 .byte   W96
@  #13 @195   ----------------------------------------
 .byte   W96
@  #13 @196   ----------------------------------------
 .byte   W96
@  #13 @197   ----------------------------------------
 .byte   W96
@  #13 @198   ----------------------------------------
 .byte   W96
@  #13 @199   ----------------------------------------
 .byte   W96
@  #13 @200   ----------------------------------------
 .byte   W96
@  #13 @201   ----------------------------------------
 .byte   PATT
  .word Label_0102CC45
@  #13 @202   ----------------------------------------
 .byte   PATT
  .word Label_0102CC45
@  #13 @203   ----------------------------------------
 .byte   PATT
  .word Label_0102CC6D
@  #13 @204   ----------------------------------------
 .byte   PATT
  .word Label_0102CC6D
@  #13 @205   ----------------------------------------
 .byte   PATT
  .word Label_0102CC45
@  #13 @206   ----------------------------------------
 .byte   PATT
  .word Label_0102CC45
@  #13 @207   ----------------------------------------
 .byte   PATT
  .word Label_0102CB4D
@  #13 @208   ----------------------------------------
 .byte   PATT
  .word Label_0102CCA4
@  #13 @209   ----------------------------------------
 .byte   PATT
  .word Label_0102CC45
@  #13 @210   ----------------------------------------
 .byte   PATT
  .word Label_0102CC45
@  #13 @211   ----------------------------------------
 .byte   PATT
  .word Label_0102CC6D
@  #13 @212   ----------------------------------------
 .byte   PATT
  .word Label_0102CC6D
@  #13 @213   ----------------------------------------
 .byte   PATT
  .word Label_0102CC45
@  #13 @214   ----------------------------------------
 .byte   PATT
  .word Label_0102CC45
@  #13 @215   ----------------------------------------
 .byte   PATT
  .word Label_0102CB4D
@  #13 @216   ----------------------------------------
 .byte   W14
 .byte   FINE

@**************** Track 14 (Midi-Chn.13) ****************@

song07_014:
@  #14 @000   ----------------------------------------
 .byte   KEYSH , song07_key+0
Label_0102FE6A:
 .byte   VOICE , 30
 .byte   BENDR, 12
 .byte   VOL , 35*song07_mvl/mxv
 .byte   N04 ,Gs1 ,v120
 .byte   W06
 .byte   Gs1
 .byte   W06
 .byte   Gs1
 .byte   W06
 .byte   Gs1
 .byte   W06
 .byte   Gs1
 .byte   W06
 .byte   Gs1
 .byte   W06
 .byte   Gs1
 .byte   W06
 .byte   Gs1
 .byte   W06
 .byte   Gs1
 .byte   W06
 .byte   Gs1
 .byte   W06
 .byte   An1
 .byte   W06
 .byte   An1
 .byte   W06
 .byte   As1
 .byte   W06
 .byte   As1
 .byte   W06
 .byte   Bn1
 .byte   W06
 .byte   Cn2
 .byte   W06
@  #14 @001   ----------------------------------------
 .byte   PATT
  .word Label_0102CAE2
@  #14 @002   ----------------------------------------
 .byte   PATT
  .word Label_0102CAE2
@  #14 @003   ----------------------------------------
 .byte   PATT
  .word Label_0102CAE2
@  #14 @004   ----------------------------------------
 .byte   PATT
  .word Label_0102CAE2
@  #14 @005   ----------------------------------------
 .byte   PATT
  .word Label_0102CAE2
@  #14 @006   ----------------------------------------
 .byte   PATT
  .word Label_0102CAE2
@  #14 @007   ----------------------------------------
 .byte   PATT
  .word Label_0102CAE2
@  #14 @008   ----------------------------------------
 .byte   PATT
  .word Label_0102CAE2
@  #14 @009   ----------------------------------------
 .byte   PATT
  .word Label_0102CAE2
@  #14 @010   ----------------------------------------
 .byte   PATT
  .word Label_0102CAE2
@  #14 @011   ----------------------------------------
 .byte   PATT
  .word Label_0102CAE2
@  #14 @012   ----------------------------------------
 .byte   PATT
  .word Label_0102CAE2
@  #14 @013   ----------------------------------------
 .byte   PATT
  .word Label_0102CAE2
@  #14 @014   ----------------------------------------
 .byte   W96
@  #14 @015   ----------------------------------------
 .byte   W96
@  #14 @016   ----------------------------------------
 .byte   PATT
  .word Label_0102CAE2
@  #14 @017   ----------------------------------------
 .byte   PATT
  .word Label_0102CAE2
@  #14 @018   ----------------------------------------
 .byte   PATT
  .word Label_0102CB4D
@  #14 @019   ----------------------------------------
 .byte   PATT
  .word Label_0102CB70
@  #14 @020   ----------------------------------------
 .byte   PATT
  .word Label_0102CAE2
@  #14 @021   ----------------------------------------
 .byte   PATT
  .word Label_0102CAE2
@  #14 @022   ----------------------------------------
 .byte   PATT
  .word Label_0102CB4D
@  #14 @023   ----------------------------------------
 .byte   PATT
  .word Label_0102CB70
@  #14 @024   ----------------------------------------
 .byte   PATT
  .word Label_0102CAE2
@  #14 @025   ----------------------------------------
 .byte   PATT
  .word Label_0102CAE2
@  #14 @026   ----------------------------------------
 .byte   PATT
  .word Label_0102CB4D
@  #14 @027   ----------------------------------------
 .byte   PATT
  .word Label_0102CB70
@  #14 @028   ----------------------------------------
 .byte   PATT
  .word Label_0102CAE2
@  #14 @029   ----------------------------------------
 .byte   PATT
  .word Label_0102CAE2
@  #14 @030   ----------------------------------------
 .byte   PATT
  .word Label_0102CB4D
@  #14 @031   ----------------------------------------
 .byte   PATT
  .word Label_0102CB70
@  #14 @032   ----------------------------------------
 .byte   PATT
  .word Label_0102CBCF
@  #14 @033   ----------------------------------------
 .byte   PATT
  .word Label_0102CBCF
@  #14 @034   ----------------------------------------
 .byte   PATT
  .word Label_0102CB4D
@  #14 @035   ----------------------------------------
 .byte   PATT
  .word Label_0102CB70
@  #14 @036   ----------------------------------------
 .byte   PATT
  .word Label_0102CBCF
@  #14 @037   ----------------------------------------
 .byte   PATT
  .word Label_0102CBCF
@  #14 @038   ----------------------------------------
 .byte   PATT
  .word Label_0102CB4D
@  #14 @039   ----------------------------------------
 .byte   PATT
  .word Label_0102CB70
@  #14 @040   ----------------------------------------
 .byte   PATT
  .word Label_0102CBCF
@  #14 @041   ----------------------------------------
 .byte   PATT
  .word Label_0102CBCF
@  #14 @042   ----------------------------------------
 .byte   PATT
  .word Label_0102CB4D
@  #14 @043   ----------------------------------------
 .byte   PATT
  .word Label_0102CB70
@  #14 @044   ----------------------------------------
 .byte   PATT
  .word Label_0102CBCF
@  #14 @045   ----------------------------------------
 .byte   PATT
  .word Label_0102CBCF
@  #14 @046   ----------------------------------------
 .byte   PATT
  .word Label_0102CB4D
@  #14 @047   ----------------------------------------
 .byte   PATT
  .word Label_0102CB70
@  #14 @048   ----------------------------------------
 .byte   W96
@  #14 @049   ----------------------------------------
 .byte   W96
@  #14 @050   ----------------------------------------
 .byte   W96
@  #14 @051   ----------------------------------------
 .byte   W96
@  #14 @052   ----------------------------------------
 .byte   W96
@  #14 @053   ----------------------------------------
 .byte   W96
@  #14 @054   ----------------------------------------
 .byte   W96
@  #14 @055   ----------------------------------------
 .byte   W96
@  #14 @056   ----------------------------------------
 .byte   PATT
  .word Label_0102CC45
@  #14 @057   ----------------------------------------
 .byte   PATT
  .word Label_0102CC45
@  #14 @058   ----------------------------------------
 .byte   PATT
  .word Label_0102CC6D
@  #14 @059   ----------------------------------------
 .byte   PATT
  .word Label_0102CC6D
@  #14 @060   ----------------------------------------
 .byte   PATT
  .word Label_0102CC45
@  #14 @061   ----------------------------------------
 .byte   PATT
  .word Label_0102CC45
@  #14 @062   ----------------------------------------
 .byte   PATT
  .word Label_0102CB4D
@  #14 @063   ----------------------------------------
 .byte   PATT
  .word Label_0102CCA4
@  #14 @064   ----------------------------------------
 .byte   PATT
  .word Label_0102CC45
@  #14 @065   ----------------------------------------
 .byte   PATT
  .word Label_0102CC45
@  #14 @066   ----------------------------------------
 .byte   PATT
  .word Label_0102CC6D
@  #14 @067   ----------------------------------------
 .byte   PATT
  .word Label_0102CC6D
@  #14 @068   ----------------------------------------
 .byte   PATT
  .word Label_0102CC45
@  #14 @069   ----------------------------------------
 .byte   PATT
  .word Label_0102CC45
@  #14 @070   ----------------------------------------
 .byte   PATT
  .word Label_0102CB4D
@  #14 @071   ----------------------------------------
 .byte   PATT
  .word Label_0102CCA4
@  #14 @072   ----------------------------------------
 .byte   N04 ,Gs1 ,v120
 .byte   GOTO
  .word Label_0102FE6A
@  #14 @073   ----------------------------------------
 .byte   W06
 .byte   Gs1
 .byte   W06
 .byte   Gs1
 .byte   W06
 .byte   Gs1
 .byte   W06
 .byte   Gs1
 .byte   W06
 .byte   Gs1
 .byte   W06
 .byte   Gs1
 .byte   W06
 .byte   Gs1
 .byte   W06
 .byte   Gs1
 .byte   W06
 .byte   Gs1
 .byte   W06
 .byte   An1
 .byte   W06
 .byte   An1
 .byte   W06
 .byte   As1
 .byte   W06
 .byte   As1
 .byte   W06
 .byte   Bn1
 .byte   W06
 .byte   Cn2
 .byte   W06
@  #14 @074   ----------------------------------------
 .byte   PATT
  .word Label_0102CAE2
@  #14 @075   ----------------------------------------
 .byte   PATT
  .word Label_0102CAE2
@  #14 @076   ----------------------------------------
 .byte   PATT
  .word Label_0102CAE2
@  #14 @077   ----------------------------------------
 .byte   PATT
  .word Label_0102CAE2
@  #14 @078   ----------------------------------------
 .byte   PATT
  .word Label_0102CAE2
@  #14 @079   ----------------------------------------
 .byte   PATT
  .word Label_0102CAE2
@  #14 @080   ----------------------------------------
 .byte   PATT
  .word Label_0102CAE2
@  #14 @081   ----------------------------------------
 .byte   PATT
  .word Label_0102CAE2
@  #14 @082   ----------------------------------------
 .byte   PATT
  .word Label_0102CAE2
@  #14 @083   ----------------------------------------
 .byte   PATT
  .word Label_0102CAE2
@  #14 @084   ----------------------------------------
 .byte   PATT
  .word Label_0102CAE2
@  #14 @085   ----------------------------------------
 .byte   PATT
  .word Label_0102CAE2
@  #14 @086   ----------------------------------------
 .byte   PATT
  .word Label_0102CAE2
@  #14 @087   ----------------------------------------
 .byte   W96
@  #14 @088   ----------------------------------------
 .byte   W96
@  #14 @089   ----------------------------------------
 .byte   PATT
  .word Label_0102CAE2
@  #14 @090   ----------------------------------------
 .byte   PATT
  .word Label_0102CAE2
@  #14 @091   ----------------------------------------
 .byte   PATT
  .word Label_0102CB4D
@  #14 @092   ----------------------------------------
 .byte   PATT
  .word Label_0102CB70
@  #14 @093   ----------------------------------------
 .byte   PATT
  .word Label_0102CAE2
@  #14 @094   ----------------------------------------
 .byte   PATT
  .word Label_0102CAE2
@  #14 @095   ----------------------------------------
 .byte   PATT
  .word Label_0102CB4D
@  #14 @096   ----------------------------------------
 .byte   PATT
  .word Label_0102CB70
@  #14 @097   ----------------------------------------
 .byte   PATT
  .word Label_0102CAE2
@  #14 @098   ----------------------------------------
 .byte   PATT
  .word Label_0102CAE2
@  #14 @099   ----------------------------------------
 .byte   PATT
  .word Label_0102CB4D
@  #14 @100   ----------------------------------------
 .byte   PATT
  .word Label_0102CB70
@  #14 @101   ----------------------------------------
 .byte   PATT
  .word Label_0102CAE2
@  #14 @102   ----------------------------------------
 .byte   PATT
  .word Label_0102CAE2
@  #14 @103   ----------------------------------------
 .byte   PATT
  .word Label_0102CB4D
@  #14 @104   ----------------------------------------
 .byte   PATT
  .word Label_0102CB70
@  #14 @105   ----------------------------------------
 .byte   PATT
  .word Label_0102CBCF
@  #14 @106   ----------------------------------------
 .byte   PATT
  .word Label_0102CBCF
@  #14 @107   ----------------------------------------
 .byte   PATT
  .word Label_0102CB4D
@  #14 @108   ----------------------------------------
 .byte   PATT
  .word Label_0102CB70
@  #14 @109   ----------------------------------------
 .byte   PATT
  .word Label_0102CBCF
@  #14 @110   ----------------------------------------
 .byte   PATT
  .word Label_0102CBCF
@  #14 @111   ----------------------------------------
 .byte   PATT
  .word Label_0102CB4D
@  #14 @112   ----------------------------------------
 .byte   PATT
  .word Label_0102CB70
@  #14 @113   ----------------------------------------
 .byte   PATT
  .word Label_0102CBCF
@  #14 @114   ----------------------------------------
 .byte   PATT
  .word Label_0102CBCF
@  #14 @115   ----------------------------------------
 .byte   PATT
  .word Label_0102CB4D
@  #14 @116   ----------------------------------------
 .byte   PATT
  .word Label_0102CB70
@  #14 @117   ----------------------------------------
 .byte   PATT
  .word Label_0102CBCF
@  #14 @118   ----------------------------------------
 .byte   PATT
  .word Label_0102CBCF
@  #14 @119   ----------------------------------------
 .byte   PATT
  .word Label_0102CB4D
@  #14 @120   ----------------------------------------
 .byte   PATT
  .word Label_0102CB70
@  #14 @121   ----------------------------------------
 .byte   W96
@  #14 @122   ----------------------------------------
 .byte   W96
@  #14 @123   ----------------------------------------
 .byte   W96
@  #14 @124   ----------------------------------------
 .byte   W96
@  #14 @125   ----------------------------------------
 .byte   W96
@  #14 @126   ----------------------------------------
 .byte   W96
@  #14 @127   ----------------------------------------
 .byte   W96
@  #14 @128   ----------------------------------------
 .byte   W96
@  #14 @129   ----------------------------------------
 .byte   PATT
  .word Label_0102CC45
@  #14 @130   ----------------------------------------
 .byte   PATT
  .word Label_0102CC45
@  #14 @131   ----------------------------------------
 .byte   PATT
  .word Label_0102CC6D
@  #14 @132   ----------------------------------------
 .byte   PATT
  .word Label_0102CC6D
@  #14 @133   ----------------------------------------
 .byte   PATT
  .word Label_0102CC45
@  #14 @134   ----------------------------------------
 .byte   PATT
  .word Label_0102CC45
@  #14 @135   ----------------------------------------
 .byte   PATT
  .word Label_0102CB4D
@  #14 @136   ----------------------------------------
 .byte   PATT
  .word Label_0102CCA4
@  #14 @137   ----------------------------------------
 .byte   PATT
  .word Label_0102CC45
@  #14 @138   ----------------------------------------
 .byte   PATT
  .word Label_0102CC45
@  #14 @139   ----------------------------------------
 .byte   PATT
  .word Label_0102CC6D
@  #14 @140   ----------------------------------------
 .byte   PATT
  .word Label_0102CC6D
@  #14 @141   ----------------------------------------
 .byte   PATT
  .word Label_0102CC45
@  #14 @142   ----------------------------------------
 .byte   PATT
  .word Label_0102CC45
@  #14 @143   ----------------------------------------
 .byte   PATT
  .word Label_0102CB4D
@  #14 @144   ----------------------------------------
 .byte   PATT
  .word Label_0102CCA4
@  #14 @145   ----------------------------------------
 .byte   PATT
  .word Label_0102CAE2
@  #14 @146   ----------------------------------------
 .byte   PATT
  .word Label_0102CAE2
@  #14 @147   ----------------------------------------
 .byte   PATT
  .word Label_0102CAE2
@  #14 @148   ----------------------------------------
 .byte   PATT
  .word Label_0102CAE2
@  #14 @149   ----------------------------------------
 .byte   PATT
  .word Label_0102CAE2
@  #14 @150   ----------------------------------------
 .byte   PATT
  .word Label_0102CAE2
@  #14 @151   ----------------------------------------
 .byte   PATT
  .word Label_0102CAE2
@  #14 @152   ----------------------------------------
 .byte   PATT
  .word Label_0102CAE2
@  #14 @153   ----------------------------------------
 .byte   PATT
  .word Label_0102CAE2
@  #14 @154   ----------------------------------------
 .byte   PATT
  .word Label_0102CAE2
@  #14 @155   ----------------------------------------
 .byte   PATT
  .word Label_0102CAE2
@  #14 @156   ----------------------------------------
 .byte   PATT
  .word Label_0102CAE2
@  #14 @157   ----------------------------------------
 .byte   PATT
  .word Label_0102CAE2
@  #14 @158   ----------------------------------------
 .byte   PATT
  .word Label_0102CAE2
@  #14 @159   ----------------------------------------
 .byte   W96
@  #14 @160   ----------------------------------------
 .byte   W96
@  #14 @161   ----------------------------------------
 .byte   PATT
  .word Label_0102CAE2
@  #14 @162   ----------------------------------------
 .byte   PATT
  .word Label_0102CAE2
@  #14 @163   ----------------------------------------
 .byte   PATT
  .word Label_0102CB4D
@  #14 @164   ----------------------------------------
 .byte   PATT
  .word Label_0102CB70
@  #14 @165   ----------------------------------------
 .byte   PATT
  .word Label_0102CAE2
@  #14 @166   ----------------------------------------
 .byte   PATT
  .word Label_0102CAE2
@  #14 @167   ----------------------------------------
 .byte   PATT
  .word Label_0102CB4D
@  #14 @168   ----------------------------------------
 .byte   PATT
  .word Label_0102CB70
@  #14 @169   ----------------------------------------
 .byte   PATT
  .word Label_0102CAE2
@  #14 @170   ----------------------------------------
 .byte   PATT
  .word Label_0102CAE2
@  #14 @171   ----------------------------------------
 .byte   PATT
  .word Label_0102CB4D
@  #14 @172   ----------------------------------------
 .byte   PATT
  .word Label_0102CB70
@  #14 @173   ----------------------------------------
 .byte   PATT
  .word Label_0102CAE2
@  #14 @174   ----------------------------------------
 .byte   PATT
  .word Label_0102CAE2
@  #14 @175   ----------------------------------------
 .byte   PATT
  .word Label_0102CB4D
@  #14 @176   ----------------------------------------
 .byte   PATT
  .word Label_0102CB70
@  #14 @177   ----------------------------------------
 .byte   PATT
  .word Label_0102CBCF
@  #14 @178   ----------------------------------------
 .byte   PATT
  .word Label_0102CBCF
@  #14 @179   ----------------------------------------
 .byte   PATT
  .word Label_0102CB4D
@  #14 @180   ----------------------------------------
 .byte   PATT
  .word Label_0102CB70
@  #14 @181   ----------------------------------------
 .byte   PATT
  .word Label_0102CBCF
@  #14 @182   ----------------------------------------
 .byte   PATT
  .word Label_0102CBCF
@  #14 @183   ----------------------------------------
 .byte   PATT
  .word Label_0102CB4D
@  #14 @184   ----------------------------------------
 .byte   PATT
  .word Label_0102CB70
@  #14 @185   ----------------------------------------
 .byte   PATT
  .word Label_0102CBCF
@  #14 @186   ----------------------------------------
 .byte   PATT
  .word Label_0102CBCF
@  #14 @187   ----------------------------------------
 .byte   PATT
  .word Label_0102CB4D
@  #14 @188   ----------------------------------------
 .byte   PATT
  .word Label_0102CB70
@  #14 @189   ----------------------------------------
 .byte   PATT
  .word Label_0102CBCF
@  #14 @190   ----------------------------------------
 .byte   PATT
  .word Label_0102CBCF
@  #14 @191   ----------------------------------------
 .byte   PATT
  .word Label_0102CB4D
@  #14 @192   ----------------------------------------
 .byte   PATT
  .word Label_0102CB70
@  #14 @193   ----------------------------------------
 .byte   W96
@  #14 @194   ----------------------------------------
 .byte   W96
@  #14 @195   ----------------------------------------
 .byte   W96
@  #14 @196   ----------------------------------------
 .byte   W96
@  #14 @197   ----------------------------------------
 .byte   W96
@  #14 @198   ----------------------------------------
 .byte   W96
@  #14 @199   ----------------------------------------
 .byte   W96
@  #14 @200   ----------------------------------------
 .byte   W96
@  #14 @201   ----------------------------------------
 .byte   PATT
  .word Label_0102CC45
@  #14 @202   ----------------------------------------
 .byte   PATT
  .word Label_0102CC45
@  #14 @203   ----------------------------------------
 .byte   PATT
  .word Label_0102CC6D
@  #14 @204   ----------------------------------------
 .byte   PATT
  .word Label_0102CC6D
@  #14 @205   ----------------------------------------
 .byte   PATT
  .word Label_0102CC45
@  #14 @206   ----------------------------------------
 .byte   PATT
  .word Label_0102CC45
@  #14 @207   ----------------------------------------
 .byte   PATT
  .word Label_0102CB4D
@  #14 @208   ----------------------------------------
 .byte   PATT
  .word Label_0102CCA4
@  #14 @209   ----------------------------------------
 .byte   PATT
  .word Label_0102CC45
@  #14 @210   ----------------------------------------
 .byte   PATT
  .word Label_0102CC45
@  #14 @211   ----------------------------------------
 .byte   PATT
  .word Label_0102CC6D
@  #14 @212   ----------------------------------------
 .byte   PATT
  .word Label_0102CC6D
@  #14 @213   ----------------------------------------
 .byte   PATT
  .word Label_0102CC45
@  #14 @214   ----------------------------------------
 .byte   PATT
  .word Label_0102CC45
@  #14 @215   ----------------------------------------
 .byte   PATT
  .word Label_0102CB4D
@  #14 @216   ----------------------------------------
 .byte   W14
 .byte   FINE

@**************** Track 15 (Midi-Chn.14) ****************@

song07_015:
@  #15 @000   ----------------------------------------
 .byte   KEYSH , song07_key+0
Label_0103244E:
 .byte   VOICE , 1
 .byte   BENDR, 12
 .byte   VOL , 35*song07_mvl/mxv
 .byte   N03 ,Gs0 ,v120
 .byte   W06
 .byte   Gs0
 .byte   W06
 .byte   Gs0
 .byte   W06
 .byte   Gs0
 .byte   W06
 .byte   Gs0
 .byte   W06
 .byte   Gs0
 .byte   W06
 .byte   Gs0
 .byte   W06
 .byte   Gs0
 .byte   W06
 .byte   Gs0
 .byte   W06
 .byte   Gs0
 .byte   W06
 .byte   An0
 .byte   W06
 .byte   An0
 .byte   W06
 .byte   As0
 .byte   W06
 .byte   As0
 .byte   W06
 .byte   Bn0
 .byte   W06
 .byte   Cn1
 .byte   W06
@  #15 @001   ----------------------------------------
Label_01032476:
 .byte   N03 ,Gs0 ,v120
 .byte   W06
 .byte   Gs0
 .byte   W06
 .byte   Gs0
 .byte   W06
 .byte   Gs0
 .byte   W06
 .byte   Gs0
 .byte   W06
 .byte   Gs0
 .byte   W06
 .byte   Gs0
 .byte   W06
 .byte   Gs0
 .byte   W06
 .byte   Gs0
 .byte   W06
 .byte   Gs0
 .byte   W06
 .byte   An0
 .byte   W06
 .byte   An0
 .byte   W06
 .byte   As0
 .byte   W06
 .byte   As0
 .byte   W06
 .byte   Bn0
 .byte   W06
 .byte   Cn1
 .byte   W06
 .byte   PEND 
@  #15 @002   ----------------------------------------
 .byte   PATT
  .word Label_01032476
@  #15 @003   ----------------------------------------
 .byte   PATT
  .word Label_01032476
@  #15 @004   ----------------------------------------
 .byte   PATT
  .word Label_01032476
@  #15 @005   ----------------------------------------
 .byte   PATT
  .word Label_01032476
@  #15 @006   ----------------------------------------
 .byte   PATT
  .word Label_01032476
@  #15 @007   ----------------------------------------
 .byte   PATT
  .word Label_01032476
@  #15 @008   ----------------------------------------
 .byte   PATT
  .word Label_01032476
@  #15 @009   ----------------------------------------
 .byte   PATT
  .word Label_01032476
@  #15 @010   ----------------------------------------
 .byte   PATT
  .word Label_01032476
@  #15 @011   ----------------------------------------
 .byte   PATT
  .word Label_01032476
@  #15 @012   ----------------------------------------
 .byte   PATT
  .word Label_01032476
@  #15 @013   ----------------------------------------
 .byte   PATT
  .word Label_01032476
@  #15 @014   ----------------------------------------
 .byte   PATT
  .word Label_01032476
@  #15 @015   ----------------------------------------
Label_010324DA:
 .byte   N03 ,Gs0 ,v120
 .byte   W06
 .byte   Gs0
 .byte   W06
 .byte   Gs0
 .byte   W06
 .byte   Gs0
 .byte   W06
 .byte   Gs0
 .byte   W06
 .byte   Gs0
 .byte   W06
 .byte   Gs0
 .byte   W06
 .byte   Gs0
 .byte   W54
 .byte   PEND 
@  #15 @016   ----------------------------------------
 .byte   PATT
  .word Label_01032476
@  #15 @017   ----------------------------------------
 .byte   PATT
  .word Label_01032476
@  #15 @018   ----------------------------------------
Label_010324F7:
 .byte   N03 ,An0 ,v120
 .byte   W06
 .byte   An0
 .byte   W06
 .byte   An0
 .byte   W06
 .byte   An0
 .byte   W06
 .byte   An0
 .byte   W06
 .byte   An0
 .byte   W06
 .byte   An0
 .byte   W06
 .byte   An0
 .byte   W06
 .byte   An0
 .byte   W06
 .byte   An0
 .byte   W06
 .byte   As0
 .byte   W06
 .byte   As0
 .byte   W06
 .byte   Bn0
 .byte   W06
 .byte   Bn0
 .byte   W06
 .byte   Cn1
 .byte   W06
 .byte   Cs1
 .byte   W06
 .byte   PEND 
@  #15 @019   ----------------------------------------
Label_0103251A:
 .byte   N03 ,Fs0 ,v120
 .byte   W06
 .byte   Fs0
 .byte   W06
 .byte   Fs0
 .byte   W06
 .byte   Fs0
 .byte   W06
 .byte   Fs0
 .byte   W06
 .byte   Fs0
 .byte   W06
 .byte   Fs0
 .byte   W06
 .byte   Fs0
 .byte   W06
 .byte   Fs0
 .byte   W06
 .byte   Fs0
 .byte   W06
 .byte   Gn0
 .byte   W06
 .byte   Gn0
 .byte   W06
 .byte   Gs0
 .byte   W06
 .byte   Gs0
 .byte   W06
 .byte   An0
 .byte   W06
 .byte   As0
 .byte   W06
 .byte   PEND 
@  #15 @020   ----------------------------------------
 .byte   PATT
  .word Label_01032476
@  #15 @021   ----------------------------------------
 .byte   PATT
  .word Label_01032476
@  #15 @022   ----------------------------------------
 .byte   PATT
  .word Label_010324F7
@  #15 @023   ----------------------------------------
 .byte   PATT
  .word Label_0103251A
@  #15 @024   ----------------------------------------
 .byte   PATT
  .word Label_01032476
@  #15 @025   ----------------------------------------
 .byte   PATT
  .word Label_01032476
@  #15 @026   ----------------------------------------
 .byte   PATT
  .word Label_010324F7
@  #15 @027   ----------------------------------------
 .byte   PATT
  .word Label_0103251A
@  #15 @028   ----------------------------------------
 .byte   PATT
  .word Label_01032476
@  #15 @029   ----------------------------------------
 .byte   PATT
  .word Label_01032476
@  #15 @030   ----------------------------------------
 .byte   PATT
  .word Label_010324F7
@  #15 @031   ----------------------------------------
 .byte   PATT
  .word Label_0103251A
@  #15 @032   ----------------------------------------
Label_01032579:
 .byte   N03 ,En0 ,v120
 .byte   W06
 .byte   En0
 .byte   W06
 .byte   En0
 .byte   W06
 .byte   En0
 .byte   W06
 .byte   En0
 .byte   W06
 .byte   En0
 .byte   W06
 .byte   En0
 .byte   W06
 .byte   En0
 .byte   W06
 .byte   En0
 .byte   W06
 .byte   En0
 .byte   W06
 .byte   Fn0
 .byte   W06
 .byte   Fn0
 .byte   W06
 .byte   Fs0
 .byte   W06
 .byte   Fs0
 .byte   W06
 .byte   Gn0
 .byte   W06
 .byte   Gs0
 .byte   W06
 .byte   PEND 
@  #15 @033   ----------------------------------------
 .byte   PATT
  .word Label_01032579
@  #15 @034   ----------------------------------------
 .byte   PATT
  .word Label_010324F7
@  #15 @035   ----------------------------------------
 .byte   PATT
  .word Label_0103251A
@  #15 @036   ----------------------------------------
 .byte   PATT
  .word Label_01032579
@  #15 @037   ----------------------------------------
 .byte   PATT
  .word Label_01032579
@  #15 @038   ----------------------------------------
 .byte   PATT
  .word Label_010324F7
@  #15 @039   ----------------------------------------
 .byte   PATT
  .word Label_0103251A
@  #15 @040   ----------------------------------------
 .byte   PATT
  .word Label_01032579
@  #15 @041   ----------------------------------------
 .byte   PATT
  .word Label_01032579
@  #15 @042   ----------------------------------------
 .byte   PATT
  .word Label_010324F7
@  #15 @043   ----------------------------------------
 .byte   PATT
  .word Label_0103251A
@  #15 @044   ----------------------------------------
 .byte   PATT
  .word Label_01032579
@  #15 @045   ----------------------------------------
 .byte   PATT
  .word Label_01032579
@  #15 @046   ----------------------------------------
 .byte   PATT
  .word Label_010324F7
@  #15 @047   ----------------------------------------
 .byte   PATT
  .word Label_0103251A
@  #15 @048   ----------------------------------------
Label_010325E7:
 .byte   N03 ,As0 ,v120
 .byte   W06
 .byte   As0
 .byte   W06
 .byte   As0
 .byte   W06
 .byte   As0
 .byte   W06
 .byte   As0
 .byte   W06
 .byte   As0
 .byte   W06
 .byte   As0
 .byte   W06
 .byte   As0
 .byte   W06
 .byte   As0
 .byte   W06
 .byte   As0
 .byte   W06
 .byte   Bn0
 .byte   W06
 .byte   Bn0
 .byte   W06
 .byte   Cn1
 .byte   W06
 .byte   Cn1
 .byte   W06
 .byte   Cs1
 .byte   W06
 .byte   Dn1
 .byte   W06
 .byte   PEND 
@  #15 @049   ----------------------------------------
 .byte   PATT
  .word Label_010325E7
@  #15 @050   ----------------------------------------
Label_0103260F:
 .byte   N03 ,Fs0 ,v120
 .byte   W06
 .byte   Fs0
 .byte   W06
 .byte   Fs0
 .byte   W06
 .byte   Fs0
 .byte   W06
 .byte   Fs1
 .byte   W06
 .byte   Fs0
 .byte   W06
 .byte   Fs0
 .byte   W06
 .byte   Gs1
 .byte   W06
 .byte   Fs0
 .byte   W06
 .byte   Fs0
 .byte   W06
 .byte   Fs0
 .byte   W06
 .byte   Fs0
 .byte   W06
 .byte   Fn1
 .byte   W06
 .byte   Ds1
 .byte   W06
 .byte   Fn1
 .byte   W06
 .byte   Fs1
 .byte   W06
 .byte   PEND 
@  #15 @051   ----------------------------------------
 .byte   PATT
  .word Label_0103260F
@  #15 @052   ----------------------------------------
 .byte   PATT
  .word Label_010325E7
@  #15 @053   ----------------------------------------
 .byte   PATT
  .word Label_010325E7
@  #15 @054   ----------------------------------------
 .byte   PATT
  .word Label_010324F7
@  #15 @055   ----------------------------------------
Label_01032646:
 .byte   N03 ,Gn0 ,v120
 .byte   W06
 .byte   Gn0
 .byte   W06
 .byte   Gn0
 .byte   W06
 .byte   Gn0
 .byte   W06
 .byte   Gn0
 .byte   W06
 .byte   Gn0
 .byte   W06
 .byte   Gn0
 .byte   W06
 .byte   Gn0
 .byte   W06
 .byte   Gn0
 .byte   W06
 .byte   Gn0
 .byte   W06
 .byte   Gs0
 .byte   W06
 .byte   Gs0
 .byte   W06
 .byte   An0
 .byte   W06
 .byte   An0
 .byte   W06
 .byte   As0
 .byte   W06
 .byte   Bn0
 .byte   W06
 .byte   PEND 
@  #15 @056   ----------------------------------------
 .byte   PATT
  .word Label_010325E7
@  #15 @057   ----------------------------------------
 .byte   PATT
  .word Label_010325E7
@  #15 @058   ----------------------------------------
 .byte   PATT
  .word Label_0103260F
@  #15 @059   ----------------------------------------
 .byte   PATT
  .word Label_0103260F
@  #15 @060   ----------------------------------------
 .byte   PATT
  .word Label_010325E7
@  #15 @061   ----------------------------------------
 .byte   PATT
  .word Label_010325E7
@  #15 @062   ----------------------------------------
 .byte   PATT
  .word Label_010324F7
@  #15 @063   ----------------------------------------
 .byte   PATT
  .word Label_01032646
@  #15 @064   ----------------------------------------
 .byte   PATT
  .word Label_010325E7
@  #15 @065   ----------------------------------------
 .byte   PATT
  .word Label_010325E7
@  #15 @066   ----------------------------------------
 .byte   PATT
  .word Label_0103260F
@  #15 @067   ----------------------------------------
 .byte   PATT
  .word Label_0103260F
@  #15 @068   ----------------------------------------
 .byte   PATT
  .word Label_010325E7
@  #15 @069   ----------------------------------------
 .byte   PATT
  .word Label_010325E7
@  #15 @070   ----------------------------------------
 .byte   PATT
  .word Label_010324F7
@  #15 @071   ----------------------------------------
 .byte   PATT
  .word Label_01032646
@  #15 @072   ----------------------------------------
 .byte   N03 ,Gs0 ,v120
 .byte   GOTO
  .word Label_0103244E
@  #15 @073   ----------------------------------------
 .byte   W06
 .byte   Gs0
 .byte   W06
 .byte   Gs0
 .byte   W06
 .byte   Gs0
 .byte   W06
 .byte   Gs0
 .byte   W06
 .byte   Gs0
 .byte   W06
 .byte   Gs0
 .byte   W06
 .byte   Gs0
 .byte   W06
 .byte   Gs0
 .byte   W06
 .byte   Gs0
 .byte   W06
 .byte   An0
 .byte   W06
 .byte   An0
 .byte   W06
 .byte   As0
 .byte   W06
 .byte   As0
 .byte   W06
 .byte   Bn0
 .byte   W06
 .byte   Cn1
 .byte   W06
@  #15 @074   ----------------------------------------
 .byte   PATT
  .word Label_01032476
@  #15 @075   ----------------------------------------
 .byte   PATT
  .word Label_01032476
@  #15 @076   ----------------------------------------
 .byte   PATT
  .word Label_01032476
@  #15 @077   ----------------------------------------
 .byte   PATT
  .word Label_01032476
@  #15 @078   ----------------------------------------
 .byte   PATT
  .word Label_01032476
@  #15 @079   ----------------------------------------
 .byte   PATT
  .word Label_01032476
@  #15 @080   ----------------------------------------
 .byte   PATT
  .word Label_01032476
@  #15 @081   ----------------------------------------
 .byte   PATT
  .word Label_01032476
@  #15 @082   ----------------------------------------
 .byte   PATT
  .word Label_01032476
@  #15 @083   ----------------------------------------
 .byte   PATT
  .word Label_01032476
@  #15 @084   ----------------------------------------
 .byte   PATT
  .word Label_01032476
@  #15 @085   ----------------------------------------
 .byte   PATT
  .word Label_01032476
@  #15 @086   ----------------------------------------
 .byte   PATT
  .word Label_01032476
@  #15 @087   ----------------------------------------
 .byte   PATT
  .word Label_01032476
@  #15 @088   ----------------------------------------
 .byte   PATT
  .word Label_010324DA
@  #15 @089   ----------------------------------------
 .byte   PATT
  .word Label_01032476
@  #15 @090   ----------------------------------------
 .byte   PATT
  .word Label_01032476
@  #15 @091   ----------------------------------------
 .byte   PATT
  .word Label_010324F7
@  #15 @092   ----------------------------------------
 .byte   PATT
  .word Label_0103251A
@  #15 @093   ----------------------------------------
 .byte   PATT
  .word Label_01032476
@  #15 @094   ----------------------------------------
 .byte   PATT
  .word Label_01032476
@  #15 @095   ----------------------------------------
 .byte   PATT
  .word Label_010324F7
@  #15 @096   ----------------------------------------
 .byte   PATT
  .word Label_0103251A
@  #15 @097   ----------------------------------------
 .byte   PATT
  .word Label_01032476
@  #15 @098   ----------------------------------------
 .byte   PATT
  .word Label_01032476
@  #15 @099   ----------------------------------------
 .byte   PATT
  .word Label_010324F7
@  #15 @100   ----------------------------------------
 .byte   PATT
  .word Label_0103251A
@  #15 @101   ----------------------------------------
 .byte   PATT
  .word Label_01032476
@  #15 @102   ----------------------------------------
 .byte   PATT
  .word Label_01032476
@  #15 @103   ----------------------------------------
 .byte   PATT
  .word Label_010324F7
@  #15 @104   ----------------------------------------
 .byte   PATT
  .word Label_0103251A
@  #15 @105   ----------------------------------------
 .byte   PATT
  .word Label_01032579
@  #15 @106   ----------------------------------------
 .byte   PATT
  .word Label_01032579
@  #15 @107   ----------------------------------------
 .byte   PATT
  .word Label_010324F7
@  #15 @108   ----------------------------------------
 .byte   PATT
  .word Label_0103251A
@  #15 @109   ----------------------------------------
 .byte   PATT
  .word Label_01032579
@  #15 @110   ----------------------------------------
 .byte   PATT
  .word Label_01032579
@  #15 @111   ----------------------------------------
 .byte   PATT
  .word Label_010324F7
@  #15 @112   ----------------------------------------
 .byte   PATT
  .word Label_0103251A
@  #15 @113   ----------------------------------------
 .byte   PATT
  .word Label_01032579
@  #15 @114   ----------------------------------------
 .byte   PATT
  .word Label_01032579
@  #15 @115   ----------------------------------------
 .byte   PATT
  .word Label_010324F7
@  #15 @116   ----------------------------------------
 .byte   PATT
  .word Label_0103251A
@  #15 @117   ----------------------------------------
 .byte   PATT
  .word Label_01032579
@  #15 @118   ----------------------------------------
 .byte   PATT
  .word Label_01032579
@  #15 @119   ----------------------------------------
 .byte   PATT
  .word Label_010324F7
@  #15 @120   ----------------------------------------
 .byte   PATT
  .word Label_0103251A
@  #15 @121   ----------------------------------------
 .byte   PATT
  .word Label_010325E7
@  #15 @122   ----------------------------------------
 .byte   PATT
  .word Label_010325E7
@  #15 @123   ----------------------------------------
 .byte   PATT
  .word Label_0103260F
@  #15 @124   ----------------------------------------
 .byte   PATT
  .word Label_0103260F
@  #15 @125   ----------------------------------------
 .byte   PATT
  .word Label_010325E7
@  #15 @126   ----------------------------------------
 .byte   PATT
  .word Label_010325E7
@  #15 @127   ----------------------------------------
 .byte   PATT
  .word Label_010324F7
@  #15 @128   ----------------------------------------
 .byte   PATT
  .word Label_01032646
@  #15 @129   ----------------------------------------
 .byte   PATT
  .word Label_010325E7
@  #15 @130   ----------------------------------------
 .byte   PATT
  .word Label_010325E7
@  #15 @131   ----------------------------------------
 .byte   PATT
  .word Label_0103260F
@  #15 @132   ----------------------------------------
 .byte   PATT
  .word Label_0103260F
@  #15 @133   ----------------------------------------
 .byte   PATT
  .word Label_010325E7
@  #15 @134   ----------------------------------------
 .byte   PATT
  .word Label_010325E7
@  #15 @135   ----------------------------------------
 .byte   PATT
  .word Label_010324F7
@  #15 @136   ----------------------------------------
 .byte   PATT
  .word Label_01032646
@  #15 @137   ----------------------------------------
 .byte   PATT
  .word Label_010325E7
@  #15 @138   ----------------------------------------
 .byte   PATT
  .word Label_010325E7
@  #15 @139   ----------------------------------------
 .byte   PATT
  .word Label_0103260F
@  #15 @140   ----------------------------------------
 .byte   PATT
  .word Label_0103260F
@  #15 @141   ----------------------------------------
 .byte   PATT
  .word Label_010325E7
@  #15 @142   ----------------------------------------
 .byte   PATT
  .word Label_010325E7
@  #15 @143   ----------------------------------------
 .byte   PATT
  .word Label_010324F7
@  #15 @144   ----------------------------------------
 .byte   PATT
  .word Label_01032646
@  #15 @145   ----------------------------------------
 .byte   PATT
  .word Label_01032476
@  #15 @146   ----------------------------------------
 .byte   PATT
  .word Label_01032476
@  #15 @147   ----------------------------------------
 .byte   PATT
  .word Label_01032476
@  #15 @148   ----------------------------------------
 .byte   PATT
  .word Label_01032476
@  #15 @149   ----------------------------------------
 .byte   PATT
  .word Label_01032476
@  #15 @150   ----------------------------------------
 .byte   PATT
  .word Label_01032476
@  #15 @151   ----------------------------------------
 .byte   PATT
  .word Label_01032476
@  #15 @152   ----------------------------------------
 .byte   PATT
  .word Label_01032476
@  #15 @153   ----------------------------------------
 .byte   PATT
  .word Label_01032476
@  #15 @154   ----------------------------------------
 .byte   PATT
  .word Label_01032476
@  #15 @155   ----------------------------------------
 .byte   PATT
  .word Label_01032476
@  #15 @156   ----------------------------------------
 .byte   PATT
  .word Label_01032476
@  #15 @157   ----------------------------------------
 .byte   PATT
  .word Label_01032476
@  #15 @158   ----------------------------------------
 .byte   PATT
  .word Label_01032476
@  #15 @159   ----------------------------------------
 .byte   PATT
  .word Label_01032476
@  #15 @160   ----------------------------------------
 .byte   PATT
  .word Label_010324DA
@  #15 @161   ----------------------------------------
 .byte   PATT
  .word Label_01032476
@  #15 @162   ----------------------------------------
 .byte   PATT
  .word Label_01032476
@  #15 @163   ----------------------------------------
 .byte   PATT
  .word Label_010324F7
@  #15 @164   ----------------------------------------
 .byte   PATT
  .word Label_0103251A
@  #15 @165   ----------------------------------------
 .byte   PATT
  .word Label_01032476
@  #15 @166   ----------------------------------------
 .byte   PATT
  .word Label_01032476
@  #15 @167   ----------------------------------------
 .byte   PATT
  .word Label_010324F7
@  #15 @168   ----------------------------------------
 .byte   PATT
  .word Label_0103251A
@  #15 @169   ----------------------------------------
 .byte   PATT
  .word Label_01032476
@  #15 @170   ----------------------------------------
 .byte   PATT
  .word Label_01032476
@  #15 @171   ----------------------------------------
 .byte   PATT
  .word Label_010324F7
@  #15 @172   ----------------------------------------
 .byte   PATT
  .word Label_0103251A
@  #15 @173   ----------------------------------------
 .byte   PATT
  .word Label_01032476
@  #15 @174   ----------------------------------------
 .byte   PATT
  .word Label_01032476
@  #15 @175   ----------------------------------------
 .byte   PATT
  .word Label_010324F7
@  #15 @176   ----------------------------------------
 .byte   PATT
  .word Label_0103251A
@  #15 @177   ----------------------------------------
 .byte   PATT
  .word Label_01032579
@  #15 @178   ----------------------------------------
 .byte   PATT
  .word Label_01032579
@  #15 @179   ----------------------------------------
 .byte   PATT
  .word Label_010324F7
@  #15 @180   ----------------------------------------
 .byte   PATT
  .word Label_0103251A
@  #15 @181   ----------------------------------------
 .byte   PATT
  .word Label_01032579
@  #15 @182   ----------------------------------------
 .byte   PATT
  .word Label_01032579
@  #15 @183   ----------------------------------------
 .byte   PATT
  .word Label_010324F7
@  #15 @184   ----------------------------------------
 .byte   PATT
  .word Label_0103251A
@  #15 @185   ----------------------------------------
 .byte   PATT
  .word Label_01032579
@  #15 @186   ----------------------------------------
 .byte   PATT
  .word Label_01032579
@  #15 @187   ----------------------------------------
 .byte   PATT
  .word Label_010324F7
@  #15 @188   ----------------------------------------
 .byte   PATT
  .word Label_0103251A
@  #15 @189   ----------------------------------------
 .byte   PATT
  .word Label_01032579
@  #15 @190   ----------------------------------------
 .byte   PATT
  .word Label_01032579
@  #15 @191   ----------------------------------------
 .byte   PATT
  .word Label_010324F7
@  #15 @192   ----------------------------------------
 .byte   PATT
  .word Label_0103251A
@  #15 @193   ----------------------------------------
 .byte   PATT
  .word Label_010325E7
@  #15 @194   ----------------------------------------
 .byte   PATT
  .word Label_010325E7
@  #15 @195   ----------------------------------------
 .byte   PATT
  .word Label_0103260F
@  #15 @196   ----------------------------------------
 .byte   PATT
  .word Label_0103260F
@  #15 @197   ----------------------------------------
 .byte   PATT
  .word Label_010325E7
@  #15 @198   ----------------------------------------
 .byte   PATT
  .word Label_010325E7
@  #15 @199   ----------------------------------------
 .byte   PATT
  .word Label_010324F7
@  #15 @200   ----------------------------------------
 .byte   PATT
  .word Label_01032646
@  #15 @201   ----------------------------------------
 .byte   PATT
  .word Label_010325E7
@  #15 @202   ----------------------------------------
 .byte   PATT
  .word Label_010325E7
@  #15 @203   ----------------------------------------
 .byte   PATT
  .word Label_0103260F
@  #15 @204   ----------------------------------------
 .byte   PATT
  .word Label_0103260F
@  #15 @205   ----------------------------------------
 .byte   PATT
  .word Label_010325E7
@  #15 @206   ----------------------------------------
 .byte   PATT
  .word Label_010325E7
@  #15 @207   ----------------------------------------
 .byte   PATT
  .word Label_010324F7
@  #15 @208   ----------------------------------------
 .byte   PATT
  .word Label_01032646
@  #15 @209   ----------------------------------------
 .byte   PATT
  .word Label_010325E7
@  #15 @210   ----------------------------------------
 .byte   PATT
  .word Label_010325E7
@  #15 @211   ----------------------------------------
 .byte   PATT
  .word Label_0103260F
@  #15 @212   ----------------------------------------
 .byte   PATT
  .word Label_0103260F
@  #15 @213   ----------------------------------------
 .byte   PATT
  .word Label_010325E7
@  #15 @214   ----------------------------------------
 .byte   PATT
  .word Label_010325E7
@  #15 @215   ----------------------------------------
 .byte   PATT
  .word Label_010324F7
@  #15 @216   ----------------------------------------
 .byte   W14
 .byte   FINE

@******************************************************@
	.align	2

song07:
	.byte	15	@ NumTrks
	.byte	0	@ NumBlks
	.byte	song07_pri	@ Priority
	.byte	song07_rev	@ Reverb.
    
	.word	song07_grp
    
	.word	song07_001
	.word	song07_002
	.word	song07_003
	.word	song07_004
	.word	song07_005
	.word	song07_006
	.word	song07_007
	.word	song07_008
	.word	song07_009
	.word	song07_010
	.word	song07_011
	.word	song07_012
	.word	song07_013
	.word	song07_014
	.word	song07_015

	.end
