	.include "MPlayDef.s"

	.equ	song07_grp, voicegroup000
	.equ	song07_pri, 0
	.equ	song07_rev, 0
	.equ	song07_mvl, 127
	.equ	song07_key, 0
	.equ	song07_tbs, 1
	.equ	song07_exg, 0
	.equ	song07_cmp, 1

	.section .rodata
	.global	song07
	.align	2


@**************** Track 1 (Midi-Chn.0) ****************@

song07_001:
@  #01 @000   ----------------------------------------
 .byte   KEYSH , song07_key+0
Label_54A906:
 .byte   TEMPO , 144*song07_tbs/2
 .byte   VOICE , 73
 .byte   VOL , 62*song07_mvl/mxv
 .byte   PAN , c_v+0
 .byte   W96
@  #01 @001   ----------------------------------------
 .byte   W96
@  #01 @002   ----------------------------------------
 .byte   W96
@  #01 @003   ----------------------------------------
 .byte   W96
@  #01 @004   ----------------------------------------
 .byte   TEMPO , 144*song07_tbs/2
 .byte   W96
@  #01 @005   ----------------------------------------
 .byte   W96
@  #01 @006   ----------------------------------------
 .byte   W96
@  #01 @007   ----------------------------------------
 .byte   W96
@  #01 @008   ----------------------------------------
 .byte   W96
@  #01 @009   ----------------------------------------
 .byte   W96
@  #01 @010   ----------------------------------------
Label_54A91A:
 .byte   W84
 .byte   N05 ,Gn4 ,v080
 .byte   W06
 .byte   An4
 .byte   W06
 .byte   PEND 
@  #01 @011   ----------------------------------------
Label_54A922:
 .byte   N05 ,As4 ,v080
 .byte   W12
 .byte   An4
 .byte   W06
 .byte   Gn4
 .byte   W06
 .byte   An4
 .byte   W12
 .byte   Gn4
 .byte   W06
 .byte   Fn4
 .byte   W06
 .byte   Gn4
 .byte   W12
 .byte   Fn4
 .byte   W06
 .byte   Ds4
 .byte   W06
 .byte   Fn4
 .byte   W12
 .byte   Ds4
 .byte   W06
 .byte   Dn4
 .byte   W06
 .byte   PEND 
@  #01 @012   ----------------------------------------
 .byte   W96
@  #01 @013   ----------------------------------------
 .byte   W96
@  #01 @014   ----------------------------------------
 .byte   PATT
  .word Label_54A91A
@  #01 @015   ----------------------------------------
 .byte   PATT
  .word Label_54A922
@  #01 @016   ----------------------------------------
 .byte   W96
@  #01 @017   ----------------------------------------
 .byte   W96
@  #01 @018   ----------------------------------------
 .byte   W96
@  #01 @019   ----------------------------------------
 .byte   W96
@  #01 @020   ----------------------------------------
 .byte   W96
@  #01 @021   ----------------------------------------
 .byte   W96
@  #01 @022   ----------------------------------------
 .byte   W96
@  #01 @023   ----------------------------------------
 .byte   W96
@  #01 @024   ----------------------------------------
 .byte   W96
@  #01 @025   ----------------------------------------
 .byte   W96
@  #01 @026   ----------------------------------------
 .byte   PATT
  .word Label_54A91A
@  #01 @027   ----------------------------------------
 .byte   PATT
  .word Label_54A922
@  #01 @028   ----------------------------------------
 .byte   W96
@  #01 @029   ----------------------------------------
 .byte   W96
@  #01 @030   ----------------------------------------
 .byte   PATT
  .word Label_54A91A
@  #01 @031   ----------------------------------------
 .byte   PATT
  .word Label_54A922
@  #01 @032   ----------------------------------------
 .byte   W96
@  #01 @033   ----------------------------------------
 .byte   W96
@  #01 @034   ----------------------------------------
 .byte   W96
@  #01 @035   ----------------------------------------
 .byte   W96
@  #01 @036   ----------------------------------------
 .byte   W96
@  #01 @037   ----------------------------------------
 .byte   W96
@  #01 @038   ----------------------------------------
 .byte   W96
@  #01 @039   ----------------------------------------
 .byte   W96
@  #01 @040   ----------------------------------------
 .byte   W96
@  #01 @041   ----------------------------------------
 .byte   W96
@  #01 @042   ----------------------------------------
 .byte   W96
@  #01 @043   ----------------------------------------
 .byte   W96
@  #01 @044   ----------------------------------------
 .byte   W96
@  #01 @045   ----------------------------------------
 .byte   W96
@  #01 @046   ----------------------------------------
 .byte   W24
 .byte   N05 ,Bn4 ,v080
 .byte   W12
 .byte   Cs5
 .byte   W12
 .byte   N23 ,Bn4
 .byte   W24
 .byte   N05 ,Gs4
 .byte   W12
 .byte   An4
 .byte   W12
@  #01 @047   ----------------------------------------
 .byte   N23 ,Bn4
 .byte   W24
 .byte   N05 ,An4
 .byte   W12
 .byte   Gs4
 .byte   W12
 .byte   N23 ,Fs4
 .byte   W24
 .byte   Gs4
 .byte   W24
@  #01 @048   ----------------------------------------
Label_54A993:
 .byte   W12
 .byte   N05 ,Fn4 ,v096
 .byte   W12
 .byte   Gs4
 .byte   W12
 .byte   As4
 .byte   W12
 .byte   N11 ,Cs4
 .byte   W12
 .byte   Cn4
 .byte   W12
 .byte   Cs4
 .byte   W12
 .byte   As4
 .byte   W12
 .byte   PEND 
@  #01 @049   ----------------------------------------
 .byte   N23 ,Gs4
 .byte   W48
 .byte   N05 ,Cs4
 .byte   W12
 .byte   Cn4
 .byte   W12
 .byte   Cs4
 .byte   W12
 .byte   Gs4
 .byte   W12
@  #01 @050   ----------------------------------------
 .byte   PATT
  .word Label_54A993
@  #01 @051   ----------------------------------------
 .byte   N11 ,Cn5 ,v096
 .byte   W12
 .byte   N05 ,Cs5
 .byte   W12
 .byte   Gs5
 .byte   W12
 .byte   Fn5
 .byte   W12
 .byte   Ds5
 .byte   W12
 .byte   Cs5
 .byte   W12
 .byte   Cn5
 .byte   W12
 .byte   Cs5
 .byte   W12
@  #01 @052   ----------------------------------------
 .byte   W24
 .byte   Bn4
 .byte   W12
 .byte   Cs5
 .byte   W12
 .byte   N23 ,Bn4
 .byte   W24
 .byte   N05 ,Gs4
 .byte   W12
 .byte   An4
 .byte   W12
@  #01 @053   ----------------------------------------
 .byte   N23 ,Bn4
 .byte   W24
 .byte   N05 ,An4
 .byte   W12
 .byte   Gs4
 .byte   W12
 .byte   N23 ,Fs4
 .byte   W24
 .byte   Gs4
 .byte   W24
@  #01 @054   ----------------------------------------
 .byte   Cn5
 .byte   W24
 .byte   Dn5
 .byte   W24
 .byte   En5
 .byte   W24
 .byte   Gn5
 .byte   W24
@  #01 @055   ----------------------------------------
 .byte   N44 ,Fs5
 .byte   W48
 .byte   Dn5
 .byte   W48
@  #01 @056   ----------------------------------------
 .byte   W96
@  #01 @057   ----------------------------------------
 .byte   W96
@  #01 @058   ----------------------------------------
 .byte   W96
@  #01 @059   ----------------------------------------
 .byte   W96
@  #01 @060   ----------------------------------------
 .byte   W96
@  #01 @061   ----------------------------------------
 .byte   W96
@  #01 @062   ----------------------------------------
 .byte   W96
@  #01 @063   ----------------------------------------
 .byte   W96
@  #01 @064   ----------------------------------------
 .byte   W96
@  #01 @065   ----------------------------------------
 .byte   W96
@  #01 @066   ----------------------------------------
 .byte   W96
@  #01 @067   ----------------------------------------
 .byte   W96
@  #01 @068   ----------------------------------------
 .byte   W96
@  #01 @069   ----------------------------------------
 .byte   W96
@  #01 @070   ----------------------------------------
 .byte   W96
@  #01 @071   ----------------------------------------
 .byte   W96
@  #01 @072   ----------------------------------------
 .byte   W96
@  #01 @073   ----------------------------------------
 .byte   W96
@  #01 @074   ----------------------------------------
 .byte   W96
@  #01 @075   ----------------------------------------
 .byte   W96
@  #01 @076   ----------------------------------------
 .byte   W96
@  #01 @077   ----------------------------------------
 .byte   W96
@  #01 @078   ----------------------------------------
 .byte   W96
@  #01 @079   ----------------------------------------
 .byte   W92
 .byte   W03
 .byte   GOTO
  .word Label_54A906
 .byte   FINE

@**************** Track 2 (Midi-Chn.1) ****************@

song07_002:
@  #02 @000   ----------------------------------------
 .byte   KEYSH , song07_key+0
Label_54B0DA:
 .byte   VOICE , 61
 .byte   VOL , 62*song07_mvl/mxv
 .byte   PAN , c_v+0
 .byte   W96
@  #02 @001   ----------------------------------------
 .byte   W96
@  #02 @002   ----------------------------------------
 .byte   W96
@  #02 @003   ----------------------------------------
 .byte   W96
@  #02 @004   ----------------------------------------
 .byte   W96
@  #02 @005   ----------------------------------------
 .byte   W96
@  #02 @006   ----------------------------------------
 .byte   W96
@  #02 @007   ----------------------------------------
 .byte   W96
@  #02 @008   ----------------------------------------
 .byte   W96
@  #02 @009   ----------------------------------------
 .byte   W96
@  #02 @010   ----------------------------------------
 .byte   W96
@  #02 @011   ----------------------------------------
 .byte   W96
@  #02 @012   ----------------------------------------
 .byte   W96
@  #02 @013   ----------------------------------------
 .byte   W96
@  #02 @014   ----------------------------------------
 .byte   W96
@  #02 @015   ----------------------------------------
 .byte   W96
@  #02 @016   ----------------------------------------
 .byte   W96
@  #02 @017   ----------------------------------------
 .byte   W96
@  #02 @018   ----------------------------------------
 .byte   W96
@  #02 @019   ----------------------------------------
 .byte   W96
@  #02 @020   ----------------------------------------
 .byte   W96
@  #02 @021   ----------------------------------------
 .byte   W96
@  #02 @022   ----------------------------------------
Label_54B0F6:
 .byte   W24
 .byte   N23 ,Cs4 ,v080
 .byte   N23 ,Fn4
 .byte   W24
 .byte   As3
 .byte   N23 ,Cs4
 .byte   W24
 .byte   Fn3
 .byte   N23 ,As3
 .byte   W24
 .byte   PEND 
@  #02 @023   ----------------------------------------
Label_54B106:
 .byte   N11 ,Ds3 ,v080
 .byte   N11 ,Gs3
 .byte   W12
 .byte   Fs3
 .byte   N11 ,As3
 .byte   W12
 .byte   Fn3
 .byte   N11 ,Cs4
 .byte   W12
 .byte   N11
 .byte   N11 ,Fn4
 .byte   W12
 .byte   N44 ,As3
 .byte   N44 ,Gs4
 .byte   W48
 .byte   PEND 
@  #02 @024   ----------------------------------------
 .byte   W96
@  #02 @025   ----------------------------------------
 .byte   W96
@  #02 @026   ----------------------------------------
 .byte   W96
@  #02 @027   ----------------------------------------
 .byte   W96
@  #02 @028   ----------------------------------------
 .byte   W96
@  #02 @029   ----------------------------------------
 .byte   W96
@  #02 @030   ----------------------------------------
 .byte   W96
@  #02 @031   ----------------------------------------
 .byte   W96
@  #02 @032   ----------------------------------------
 .byte   W96
@  #02 @033   ----------------------------------------
 .byte   W96
@  #02 @034   ----------------------------------------
 .byte   W96
@  #02 @035   ----------------------------------------
 .byte   W96
@  #02 @036   ----------------------------------------
 .byte   W96
@  #02 @037   ----------------------------------------
 .byte   W96
@  #02 @038   ----------------------------------------
 .byte   PATT
  .word Label_54B0F6
@  #02 @039   ----------------------------------------
 .byte   PATT
  .word Label_54B106
@  #02 @040   ----------------------------------------
 .byte   W96
@  #02 @041   ----------------------------------------
 .byte   W96
@  #02 @042   ----------------------------------------
 .byte   W96
@  #02 @043   ----------------------------------------
 .byte   W96
@  #02 @044   ----------------------------------------
 .byte   W96
@  #02 @045   ----------------------------------------
 .byte   W96
@  #02 @046   ----------------------------------------
 .byte   W96
@  #02 @047   ----------------------------------------
 .byte   W96
@  #02 @048   ----------------------------------------
 .byte   W96
@  #02 @049   ----------------------------------------
 .byte   W96
@  #02 @050   ----------------------------------------
 .byte   W96
@  #02 @051   ----------------------------------------
 .byte   W96
@  #02 @052   ----------------------------------------
 .byte   W96
@  #02 @053   ----------------------------------------
 .byte   W96
@  #02 @054   ----------------------------------------
 .byte   W96
@  #02 @055   ----------------------------------------
 .byte   W96
@  #02 @056   ----------------------------------------
 .byte   W96
@  #02 @057   ----------------------------------------
 .byte   W96
@  #02 @058   ----------------------------------------
 .byte   W96
@  #02 @059   ----------------------------------------
 .byte   W96
@  #02 @060   ----------------------------------------
 .byte   W96
@  #02 @061   ----------------------------------------
 .byte   W96
@  #02 @062   ----------------------------------------
 .byte   W96
@  #02 @063   ----------------------------------------
 .byte   W96
@  #02 @064   ----------------------------------------
 .byte   W96
@  #02 @065   ----------------------------------------
 .byte   W96
@  #02 @066   ----------------------------------------
 .byte   W96
@  #02 @067   ----------------------------------------
 .byte   W96
@  #02 @068   ----------------------------------------
 .byte   W96
@  #02 @069   ----------------------------------------
 .byte   W96
@  #02 @070   ----------------------------------------
 .byte   W96
@  #02 @071   ----------------------------------------
 .byte   W96
@  #02 @072   ----------------------------------------
 .byte   W96
@  #02 @073   ----------------------------------------
 .byte   W96
@  #02 @074   ----------------------------------------
 .byte   W96
@  #02 @075   ----------------------------------------
 .byte   W96
@  #02 @076   ----------------------------------------
 .byte   W96
@  #02 @077   ----------------------------------------
 .byte   W96
@  #02 @078   ----------------------------------------
 .byte   W96
@  #02 @079   ----------------------------------------
 .byte   W92
 .byte   W03
 .byte   GOTO
  .word Label_54B0DA
 .byte   FINE

@**************** Track 3 (Midi-Chn.2) ****************@

song07_003:
@  #03 @000   ----------------------------------------
 .byte   KEYSH , song07_key+0
Label_01011852:
 .byte   VOICE , 40
 .byte   VOL , 62*song07_mvl/mxv
 .byte   PAN , c_v+0
 .byte   W96
@  #03 @001   ----------------------------------------
 .byte   W96
@  #03 @002   ----------------------------------------
 .byte   W96
@  #03 @003   ----------------------------------------
 .byte   W96
@  #03 @004   ----------------------------------------
 .byte   W96
@  #03 @005   ----------------------------------------
 .byte   W96
@  #03 @006   ----------------------------------------
 .byte   W96
@  #03 @007   ----------------------------------------
 .byte   W96
@  #03 @008   ----------------------------------------
Label_01011860:
 .byte   W24
 .byte   N11 ,Gn4 ,v096
 .byte   W24
 .byte   N32 ,Cn4
 .byte   W36
 .byte   N05 ,Dn4
 .byte   W06
 .byte   Ds4
 .byte   W06
 .byte   PEND 
@  #03 @009   ----------------------------------------
Label_0101186E:
 .byte   N05 ,Fn4 ,v096
 .byte   W12
 .byte   N05
 .byte   W12
 .byte   N23 ,Ds4
 .byte   W24
 .byte   N11 ,Dn4
 .byte   W24
 .byte   N23 ,As3
 .byte   W24
 .byte   PEND 
@  #03 @010   ----------------------------------------
Label_0101187E:
 .byte   N11 ,Cn4 ,v096
 .byte   W24
 .byte   N44 ,Gn3
 .byte   W72
 .byte   PEND 
@  #03 @011   ----------------------------------------
 .byte   W96
@  #03 @012   ----------------------------------------
 .byte   PATT
  .word Label_01011860
@  #03 @013   ----------------------------------------
 .byte   PATT
  .word Label_0101186E
@  #03 @014   ----------------------------------------
Label_01011891:
 .byte   N11 ,Cn4 ,v096
 .byte   W24
 .byte   N44 ,Gn4
 .byte   W72
 .byte   PEND 
@  #03 @015   ----------------------------------------
 .byte   W96
@  #03 @016   ----------------------------------------
 .byte   PATT
  .word Label_01011860
@  #03 @017   ----------------------------------------
 .byte   PATT
  .word Label_0101186E
@  #03 @018   ----------------------------------------
Label_010118A4:
 .byte   W24
 .byte   N11 ,As4 ,v096
 .byte   W24
 .byte   N32 ,Ds4
 .byte   W36
 .byte   N05 ,Fn4
 .byte   W06
 .byte   Fs4
 .byte   W06
 .byte   PEND 
@  #03 @019   ----------------------------------------
Label_010118B2:
 .byte   N05 ,Gs4 ,v096
 .byte   W12
 .byte   N05
 .byte   W12
 .byte   N23 ,Fs4
 .byte   W24
 .byte   N11 ,Fn4
 .byte   W24
 .byte   N23 ,Cs4
 .byte   W24
 .byte   PEND 
@  #03 @020   ----------------------------------------
Label_010118C2:
 .byte   N05 ,Gs4 ,v096
 .byte   W12
 .byte   Gn4
 .byte   W06
 .byte   Fn4
 .byte   W06
 .byte   N68 ,Ds4
 .byte   W72
 .byte   PEND 
@  #03 @021   ----------------------------------------
Label_010118CE:
 .byte   W24
 .byte   N23 ,As3 ,v096
 .byte   W24
 .byte   Ds4
 .byte   W24
 .byte   Gs4
 .byte   W24
 .byte   PEND 
@  #03 @022   ----------------------------------------
 .byte   W96
@  #03 @023   ----------------------------------------
 .byte   W96
@  #03 @024   ----------------------------------------
 .byte   PATT
  .word Label_01011860
@  #03 @025   ----------------------------------------
 .byte   PATT
  .word Label_0101186E
@  #03 @026   ----------------------------------------
 .byte   PATT
  .word Label_0101187E
@  #03 @027   ----------------------------------------
 .byte   W96
@  #03 @028   ----------------------------------------
 .byte   PATT
  .word Label_01011860
@  #03 @029   ----------------------------------------
 .byte   PATT
  .word Label_0101186E
@  #03 @030   ----------------------------------------
 .byte   PATT
  .word Label_01011891
@  #03 @031   ----------------------------------------
 .byte   W96
@  #03 @032   ----------------------------------------
 .byte   PATT
  .word Label_01011860
@  #03 @033   ----------------------------------------
 .byte   PATT
  .word Label_0101186E
@  #03 @034   ----------------------------------------
 .byte   PATT
  .word Label_010118A4
@  #03 @035   ----------------------------------------
 .byte   PATT
  .word Label_010118B2
@  #03 @036   ----------------------------------------
 .byte   PATT
  .word Label_010118C2
@  #03 @037   ----------------------------------------
 .byte   PATT
  .word Label_010118CE
@  #03 @038   ----------------------------------------
 .byte   W96
@  #03 @039   ----------------------------------------
 .byte   W96
@  #03 @040   ----------------------------------------
Label_0101191A:
 .byte   W24
 .byte   N11 ,Fn4 ,v096
 .byte   W24
 .byte   N23 ,As3
 .byte   W24
 .byte   N11 ,Cn4
 .byte   W12
 .byte   Cs4
 .byte   W12
 .byte   PEND 
@  #03 @041   ----------------------------------------
Label_01011928:
 .byte   N23 ,Ds4 ,v096
 .byte   W24
 .byte   Cs4
 .byte   W24
 .byte   Cn4
 .byte   W24
 .byte   Gs3
 .byte   W24
 .byte   PEND 
@  #03 @042   ----------------------------------------
 .byte   PATT
  .word Label_0101191A
@  #03 @043   ----------------------------------------
 .byte   PATT
  .word Label_01011928
@  #03 @044   ----------------------------------------
Label_0101193D:
 .byte   W24
 .byte   N11 ,Gs4 ,v096
 .byte   W24
 .byte   N23 ,Cs4
 .byte   W24
 .byte   N11 ,Ds4
 .byte   W12
 .byte   En4
 .byte   W12
 .byte   PEND 
@  #03 @045   ----------------------------------------
Label_0101194B:
 .byte   N23 ,Fs4 ,v096
 .byte   W24
 .byte   En4
 .byte   W24
 .byte   Ds4
 .byte   W24
 .byte   Bn3
 .byte   W24
 .byte   PEND 
@  #03 @046   ----------------------------------------
 .byte   PATT
  .word Label_0101193D
@  #03 @047   ----------------------------------------
 .byte   PATT
  .word Label_0101194B
@  #03 @048   ----------------------------------------
 .byte   PATT
  .word Label_0101191A
@  #03 @049   ----------------------------------------
 .byte   PATT
  .word Label_01011928
@  #03 @050   ----------------------------------------
 .byte   PATT
  .word Label_0101191A
@  #03 @051   ----------------------------------------
 .byte   PATT
  .word Label_01011928
@  #03 @052   ----------------------------------------
 .byte   PATT
  .word Label_0101193D
@  #03 @053   ----------------------------------------
 .byte   PATT
  .word Label_0101194B
@  #03 @054   ----------------------------------------
 .byte   N23 ,En4 ,v096
 .byte   W24
 .byte   Fs4
 .byte   W24
 .byte   Gn4
 .byte   W24
 .byte   Bn4
 .byte   W24
@  #03 @055   ----------------------------------------
 .byte   N44 ,An4
 .byte   W48
 .byte   Fs4
 .byte   W48
@  #03 @056   ----------------------------------------
Label_0101198D:
 .byte   N08 ,Fn4 ,v096
 .byte   W18
 .byte   N05 ,Gn4
 .byte   W06
 .byte   N23 ,Cn5
 .byte   W24
 .byte   Cn5 ,v056
 .byte   W24
 .byte   Cn5 ,v044
 .byte   W24
 .byte   PEND 
@  #03 @057   ----------------------------------------
Label_0101199E:
 .byte   N23 ,Cn5 ,v036
 .byte   W24
 .byte   Cn5 ,v024
 .byte   W24
 .byte   Cn5 ,v016
 .byte   W24
 .byte   Cn5 ,v004
 .byte   W24
 .byte   PEND 
@  #03 @058   ----------------------------------------
 .byte   PATT
  .word Label_0101198D
@  #03 @059   ----------------------------------------
 .byte   PATT
  .word Label_0101199E
@  #03 @060   ----------------------------------------
 .byte   PATT
  .word Label_0101198D
@  #03 @061   ----------------------------------------
 .byte   PATT
  .word Label_0101199E
@  #03 @062   ----------------------------------------
 .byte   PATT
  .word Label_0101198D
@  #03 @063   ----------------------------------------
 .byte   PATT
  .word Label_0101199E
@  #03 @064   ----------------------------------------
 .byte   W96
@  #03 @065   ----------------------------------------
 .byte   W96
@  #03 @066   ----------------------------------------
 .byte   W96
@  #03 @067   ----------------------------------------
 .byte   W96
@  #03 @068   ----------------------------------------
 .byte   W96
@  #03 @069   ----------------------------------------
 .byte   W96
@  #03 @070   ----------------------------------------
 .byte   W96
@  #03 @071   ----------------------------------------
 .byte   W96
@  #03 @072   ----------------------------------------
 .byte   W96
@  #03 @073   ----------------------------------------
 .byte   W96
@  #03 @074   ----------------------------------------
 .byte   W96
@  #03 @075   ----------------------------------------
 .byte   W96
@  #03 @076   ----------------------------------------
 .byte   W96
@  #03 @077   ----------------------------------------
 .byte   W96
@  #03 @078   ----------------------------------------
 .byte   W96
@  #03 @079   ----------------------------------------
 .byte   W92
 .byte   W03
 .byte   GOTO
  .word Label_01011852
 .byte   FINE

@**************** Track 4 (Midi-Chn.3) ****************@

song07_004:
@  #04 @000   ----------------------------------------
 .byte   KEYSH , song07_key+0
Label_01010E8A:
 .byte   VOICE , 49
 .byte   VOL , 62*song07_mvl/mxv
 .byte   PAN , c_v+0
 .byte   N32 ,Ds3 ,v080
 .byte   N92 ,Gn3
 .byte   W36
 .byte   N11 ,Ds3 ,v064
 .byte   W12
 .byte   Dn3 ,v080
 .byte   W12
 .byte   Ds3
 .byte   W12
 .byte   Cn3
 .byte   W12
 .byte   Dn3
 .byte   W12
@  #04 @001   ----------------------------------------
Label_01010EA3:
 .byte   N32 ,Ds3 ,v080
 .byte   N92 ,An3
 .byte   W36
 .byte   N11 ,Ds3
 .byte   W12
 .byte   Dn3
 .byte   W12
 .byte   Ds3
 .byte   W12
 .byte   Cn3
 .byte   W12
 .byte   Dn3
 .byte   W12
 .byte   PEND 
@  #04 @002   ----------------------------------------
Label_01010EB5:
 .byte   N32 ,Ds3 ,v080
 .byte   N92 ,As3
 .byte   W36
 .byte   N11 ,Ds3
 .byte   W12
 .byte   Dn3
 .byte   W12
 .byte   Ds3
 .byte   W12
 .byte   Cn3
 .byte   W12
 .byte   Dn3
 .byte   W12
 .byte   PEND 
@  #04 @003   ----------------------------------------
Label_01010EC7:
 .byte   N32 ,Ds3 ,v080
 .byte   N32 ,Cn4
 .byte   W36
 .byte   N11 ,Ds3
 .byte   N11 ,Gn3
 .byte   W12
 .byte   As2
 .byte   N11 ,Fn3
 .byte   W12
 .byte   Ds3
 .byte   N11 ,As3
 .byte   W12
 .byte   Fn3
 .byte   N11 ,An3
 .byte   W12
 .byte   Dn3
 .byte   N11 ,Fn3
 .byte   W12
 .byte   PEND 
@  #04 @004   ----------------------------------------
 .byte   N32 ,Ds3
 .byte   N92 ,Gn3
 .byte   W36
 .byte   N11 ,Ds3 ,v064
 .byte   W12
 .byte   Dn3 ,v080
 .byte   W12
 .byte   Ds3
 .byte   W12
 .byte   Cn3
 .byte   W12
 .byte   Dn3
 .byte   W12
@  #04 @005   ----------------------------------------
 .byte   PATT
  .word Label_01010EA3
@  #04 @006   ----------------------------------------
 .byte   PATT
  .word Label_01010EB5
@  #04 @007   ----------------------------------------
 .byte   PATT
  .word Label_01010EC7
@  #04 @008   ----------------------------------------
Label_01010F04:
 .byte   N92 ,Ds2 ,v080
 .byte   N92 ,Gn2
 .byte   W96
 .byte   PEND 
@  #04 @009   ----------------------------------------
Label_01010F0B:
 .byte   N92 ,Fn2 ,v080
 .byte   N92 ,An2
 .byte   W96
 .byte   PEND 
@  #04 @010   ----------------------------------------
Label_01010F12:
 .byte   N92 ,Gn2 ,v080
 .byte   N92 ,As2
 .byte   W96
 .byte   PEND 
@  #04 @011   ----------------------------------------
 .byte   PATT
  .word Label_01010F0B
@  #04 @012   ----------------------------------------
 .byte   PATT
  .word Label_01010F04
@  #04 @013   ----------------------------------------
 .byte   PATT
  .word Label_01010F0B
@  #04 @014   ----------------------------------------
 .byte   PATT
  .word Label_01010F12
@  #04 @015   ----------------------------------------
 .byte   PATT
  .word Label_01010F0B
@  #04 @016   ----------------------------------------
Label_01010F32:
 .byte   N92 ,Cn2 ,v080
 .byte   N92 ,Gs2
 .byte   W96
 .byte   PEND 
@  #04 @017   ----------------------------------------
Label_01010F39:
 .byte   N92 ,Dn2 ,v080
 .byte   N92 ,As2
 .byte   W96
 .byte   PEND 
@  #04 @018   ----------------------------------------
Label_01010F40:
 .byte   N92 ,Ds2 ,v080
 .byte   N92 ,Bn2
 .byte   W96
 .byte   PEND 
@  #04 @019   ----------------------------------------
Label_01010F47:
 .byte   N92 ,Fn2 ,v080
 .byte   N92 ,Cs3
 .byte   W96
 .byte   PEND 
@  #04 @020   ----------------------------------------
Label_01010F4E:
 .byte   N05 ,Gn3 ,v080
 .byte   N05 ,As3
 .byte   W12
 .byte   N02 ,Ds3
 .byte   N02 ,Gn3
 .byte   W06
 .byte   Ds3
 .byte   N02 ,Gn3
 .byte   W06
 .byte   N05
 .byte   N05 ,As3
 .byte   W12
 .byte   N02 ,Ds3
 .byte   N02 ,Gn3
 .byte   W06
 .byte   Ds3
 .byte   N02 ,Gn3
 .byte   W06
 .byte   N02
 .byte   N02 ,As3
 .byte   W06
 .byte   Gn3
 .byte   N02 ,As3
 .byte   W06
 .byte   N05 ,Ds3
 .byte   N05 ,Gn3
 .byte   W12
 .byte   N05
 .byte   N05 ,As3
 .byte   W12
 .byte   N02 ,Ds3
 .byte   N02 ,Gn3
 .byte   W06
 .byte   Ds3
 .byte   N02 ,Gn3
 .byte   W06
 .byte   PEND 
@  #04 @021   ----------------------------------------
Label_01010F85:
 .byte   N05 ,Gn3 ,v080
 .byte   N05 ,As3
 .byte   W12
 .byte   N02 ,Ds3
 .byte   N02 ,Gn3
 .byte   W06
 .byte   Ds3
 .byte   N02 ,Gn3
 .byte   W06
 .byte   N05 ,As2
 .byte   N05 ,Ds3
 .byte   W06
 .byte   Gs2
 .byte   N05 ,Cs3
 .byte   W06
 .byte   N05
 .byte   N05 ,Fn3
 .byte   W12
 .byte   Ds3
 .byte   N05 ,As3
 .byte   W12
 .byte   Fn3
 .byte   N05 ,Cs4
 .byte   W12
 .byte   Gn3
 .byte   N05 ,Ds4
 .byte   W12
 .byte   Ds3
 .byte   N05 ,Gn3
 .byte   W12
 .byte   PEND 
@  #04 @022   ----------------------------------------
 .byte   W96
@  #04 @023   ----------------------------------------
 .byte   W96
@  #04 @024   ----------------------------------------
 .byte   PATT
  .word Label_01010F04
@  #04 @025   ----------------------------------------
 .byte   PATT
  .word Label_01010F0B
@  #04 @026   ----------------------------------------
 .byte   PATT
  .word Label_01010F12
@  #04 @027   ----------------------------------------
 .byte   PATT
  .word Label_01010F0B
@  #04 @028   ----------------------------------------
 .byte   PATT
  .word Label_01010F04
@  #04 @029   ----------------------------------------
 .byte   PATT
  .word Label_01010F0B
@  #04 @030   ----------------------------------------
 .byte   PATT
  .word Label_01010F12
@  #04 @031   ----------------------------------------
 .byte   PATT
  .word Label_01010F0B
@  #04 @032   ----------------------------------------
 .byte   PATT
  .word Label_01010F32
@  #04 @033   ----------------------------------------
 .byte   PATT
  .word Label_01010F39
@  #04 @034   ----------------------------------------
 .byte   PATT
  .word Label_01010F40
@  #04 @035   ----------------------------------------
 .byte   PATT
  .word Label_01010F47
@  #04 @036   ----------------------------------------
 .byte   PATT
  .word Label_01010F4E
@  #04 @037   ----------------------------------------
 .byte   PATT
  .word Label_01010F85
@  #04 @038   ----------------------------------------
 .byte   W96
@  #04 @039   ----------------------------------------
 .byte   W96
@  #04 @040   ----------------------------------------
Label_01010FFC:
 .byte   N11 ,Fs2 ,v080
 .byte   N11 ,As2
 .byte   W12
 .byte   Fs2
 .byte   W12
 .byte   As1
 .byte   N11 ,Cs3
 .byte   W12
 .byte   Fs2
 .byte   W12
 .byte   Cs2
 .byte   N11 ,Fs3
 .byte   W12
 .byte   Fs2
 .byte   W12
 .byte   N11
 .byte   N11 ,As2
 .byte   W12
 .byte   Cs2
 .byte   W12
 .byte   PEND 
@  #04 @041   ----------------------------------------
Label_01011017:
 .byte   N11 ,Fn2 ,v080
 .byte   N11 ,Gs2
 .byte   W12
 .byte   Fn2
 .byte   W12
 .byte   Gs1
 .byte   N11 ,Ds3
 .byte   W12
 .byte   Fn2
 .byte   W12
 .byte   Cn2
 .byte   N11 ,Fn3
 .byte   W12
 .byte   Fn2
 .byte   W12
 .byte   N11
 .byte   N11 ,Cn3
 .byte   W12
 .byte   Gs2
 .byte   W12
 .byte   PEND 
@  #04 @042   ----------------------------------------
 .byte   PATT
  .word Label_01010FFC
@  #04 @043   ----------------------------------------
 .byte   PATT
  .word Label_01011017
@  #04 @044   ----------------------------------------
Label_0101103C:
 .byte   N11 ,An2 ,v080
 .byte   N11 ,Cs3
 .byte   W12
 .byte   An2
 .byte   W12
 .byte   Cs2
 .byte   N11 ,En3
 .byte   W12
 .byte   An2
 .byte   W12
 .byte   En2
 .byte   N11 ,An3
 .byte   W12
 .byte   An2
 .byte   W12
 .byte   N11
 .byte   N11 ,Cs3
 .byte   W12
 .byte   En2
 .byte   W12
 .byte   PEND 
@  #04 @045   ----------------------------------------
Label_01011057:
 .byte   N11 ,Gs2 ,v080
 .byte   N11 ,Bn2
 .byte   W12
 .byte   Gs2
 .byte   W12
 .byte   Bn1
 .byte   N11 ,Fs3
 .byte   W12
 .byte   Gs2
 .byte   W12
 .byte   Ds2
 .byte   N11 ,Gs3
 .byte   W12
 .byte   Gs2
 .byte   W12
 .byte   N11
 .byte   N11 ,Ds3
 .byte   W12
 .byte   Ds2
 .byte   W12
 .byte   PEND 
@  #04 @046   ----------------------------------------
 .byte   PATT
  .word Label_0101103C
@  #04 @047   ----------------------------------------
 .byte   PATT
  .word Label_01011057
@  #04 @048   ----------------------------------------
 .byte   PATT
  .word Label_01010FFC
@  #04 @049   ----------------------------------------
 .byte   PATT
  .word Label_01011017
@  #04 @050   ----------------------------------------
 .byte   PATT
  .word Label_01010FFC
@  #04 @051   ----------------------------------------
 .byte   PATT
  .word Label_01011017
@  #04 @052   ----------------------------------------
 .byte   PATT
  .word Label_0101103C
@  #04 @053   ----------------------------------------
 .byte   PATT
  .word Label_01011057
@  #04 @054   ----------------------------------------
 .byte   N11 ,An2 ,v080
 .byte   N11 ,Cn3
 .byte   W12
 .byte   An2
 .byte   W12
 .byte   En2
 .byte   N11 ,Dn3
 .byte   W12
 .byte   Bn2
 .byte   W12
 .byte   An2
 .byte   N11 ,En3
 .byte   W12
 .byte   Cn3
 .byte   W12
 .byte   N11
 .byte   N11 ,Gn3
 .byte   W12
 .byte   En3
 .byte   W12
@  #04 @055   ----------------------------------------
 .byte   Dn3
 .byte   N11 ,Fs3
 .byte   W12
 .byte   En3
 .byte   W12
 .byte   An2
 .byte   N11 ,Dn3
 .byte   W12
 .byte   Bn2
 .byte   W12
 .byte   Dn2
 .byte   N11 ,An2
 .byte   W12
 .byte   Bn2
 .byte   W12
 .byte   N23 ,An2
 .byte   N23 ,Dn3
 .byte   W24
@  #04 @056   ----------------------------------------
 .byte   N11 ,Cn3
 .byte   N11 ,En3
 .byte   W11
 .byte   W01
 .byte   Dn3
 .byte   N11 ,Fn3
 .byte   W10
 .byte   W02
 .byte   Cn3
 .byte   N11 ,En3
 .byte   W09
 .byte   W03
 .byte   Dn3
 .byte   N11 ,Fn3
 .byte   W09
 .byte   W03
 .byte   Cn3 ,v076
 .byte   N11 ,En3
 .byte   W08
 .byte   W04
 .byte   Dn3
 .byte   N11 ,Fn3
 .byte   W07
 .byte   W05
 .byte   Cn3
 .byte   N11 ,En3
 .byte   W06
 .byte   W06
 .byte   Dn3
 .byte   N11 ,Fn3
 .byte   W06
 .byte   W06
@  #04 @057   ----------------------------------------
 .byte   Cn3 ,v072
 .byte   N11 ,En3
 .byte   W05
 .byte   W07
 .byte   Dn3
 .byte   N11 ,Fn3
 .byte   W04
 .byte   W08
 .byte   Cn3
 .byte   N11 ,En3
 .byte   W03
 .byte   W09
 .byte   Dn3
 .byte   N11 ,Fn3
 .byte   W03
 .byte   W09
 .byte   Cn3 ,v068
 .byte   N11 ,En3
 .byte   W02
 .byte   W10
 .byte   Dn3
 .byte   N11 ,Fn3
 .byte   W01
 .byte   W11
 .byte   Cn3
 .byte   N11 ,En3
 .byte   W12
 .byte   Dn3 ,v064
 .byte   N11 ,Fn3
 .byte   W12
@  #04 @058   ----------------------------------------
 .byte   Ds3 ,v080
 .byte   N11 ,Gn3
 .byte   W03
 .byte   W04
 .byte   W04
 .byte   W01
 .byte   Fn3
 .byte   N11 ,Gs3
 .byte   W03
 .byte   W04
 .byte   W04
 .byte   W01
 .byte   Ds3 ,v076
 .byte   N11 ,Gn3
 .byte   W02
 .byte   W04
 .byte   W04
 .byte   W02
 .byte   Fn3 ,v072
 .byte   N11 ,Gs3
 .byte   W02
 .byte   W04
 .byte   W04
 .byte   W02
 .byte   Ds3 ,v068
 .byte   N11 ,Gn3
 .byte   W01
 .byte   W04
 .byte   W04
 .byte   W03
 .byte   Fn3
 .byte   N11 ,Gs3
 .byte   W01
 .byte   W04
 .byte   W03
 .byte   W04
 .byte   Ds3 ,v064
 .byte   N11 ,Gn3
 .byte   W04
 .byte   W04
 .byte   W04
 .byte   Fn3 ,v060
 .byte   N11 ,Gs3
 .byte   W04
 .byte   W03
 .byte   W04
 .byte   W01
@  #04 @059   ----------------------------------------
 .byte   Ds3 ,v056
 .byte   N11 ,Gn3
 .byte   W03
 .byte   W04
 .byte   W04
 .byte   W01
 .byte   Fn3 ,v052
 .byte   N11 ,Gs3
 .byte   W03
 .byte   W03
 .byte   W04
 .byte   W02
 .byte   Ds3
 .byte   N11 ,Gn3
 .byte   W02
 .byte   W04
 .byte   W04
 .byte   W02
 .byte   Fn3 ,v048
 .byte   N11 ,Gs3
 .byte   W02
 .byte   W03
 .byte   W04
 .byte   W03
 .byte   Ds3 ,v044
 .byte   N11 ,Gn3
 .byte   W01
 .byte   W04
 .byte   W04
 .byte   W03
 .byte   Fn3 ,v040
 .byte   N11 ,Gs3
 .byte   W01
 .byte   W03
 .byte   W04
 .byte   W04
 .byte   Ds3
 .byte   N11 ,Gn3
 .byte   W04
 .byte   W04
 .byte   W04
 .byte   Fn3 ,v036
 .byte   N11 ,Gs3
 .byte   W12
@  #04 @060   ----------------------------------------
 .byte   Cn3 ,v080
 .byte   N11 ,En3
 .byte   W05
 .byte   W06
 .byte   W01
 .byte   Dn3
 .byte   N11 ,Fn3
 .byte   W05
 .byte   W06
 .byte   W01
 .byte   Cn3 ,v076
 .byte   N11 ,En3
 .byte   W05
 .byte   W05
 .byte   W02
 .byte   Dn3
 .byte   N11 ,Fn3
 .byte   W04
 .byte   W06
 .byte   W02
 .byte   Cn3 ,v072
 .byte   N11 ,En3
 .byte   W04
 .byte   W06
 .byte   W02
 .byte   Dn3
 .byte   N11 ,Fn3
 .byte   W03
 .byte   W06
 .byte   W03
 .byte   Cn3 ,v068
 .byte   N11 ,En3
 .byte   W03
 .byte   W06
 .byte   W03
 .byte   Dn3
 .byte   N11 ,Fn3
 .byte   W03
 .byte   W05
 .byte   W04
@  #04 @061   ----------------------------------------
 .byte   Cn3 ,v064
 .byte   N11 ,En3
 .byte   W02
 .byte   W06
 .byte   W04
 .byte   Dn3
 .byte   N11 ,Fn3
 .byte   W02
 .byte   W06
 .byte   W04
 .byte   Cn3 ,v060
 .byte   N11 ,En3
 .byte   W01
 .byte   W06
 .byte   W05
 .byte   Dn3
 .byte   N11 ,Fn3
 .byte   W01
 .byte   W06
 .byte   W05
 .byte   Cn3 ,v056
 .byte   N11 ,En3
 .byte   W01
 .byte   W06
 .byte   W05
 .byte   Dn3
 .byte   N11 ,Fn3
 .byte   W06
 .byte   W06
 .byte   Cn3 ,v052
 .byte   N11 ,En3
 .byte   W06
 .byte   W06
 .byte   Dn3
 .byte   N11 ,Fn3
 .byte   W12
@  #04 @062   ----------------------------------------
 .byte   W96
@  #04 @063   ----------------------------------------
 .byte   W96
@  #04 @064   ----------------------------------------
 .byte   W96
@  #04 @065   ----------------------------------------
 .byte   W96
@  #04 @066   ----------------------------------------
 .byte   W96
@  #04 @067   ----------------------------------------
 .byte   W96
@  #04 @068   ----------------------------------------
 .byte   W96
@  #04 @069   ----------------------------------------
 .byte   W96
@  #04 @070   ----------------------------------------
 .byte   W96
@  #04 @071   ----------------------------------------
 .byte   W96
@  #04 @072   ----------------------------------------
 .byte   W96
@  #04 @073   ----------------------------------------
 .byte   W96
@  #04 @074   ----------------------------------------
 .byte   W96
@  #04 @075   ----------------------------------------
 .byte   W96
@  #04 @076   ----------------------------------------
 .byte   W96
@  #04 @077   ----------------------------------------
 .byte   W96
@  #04 @078   ----------------------------------------
 .byte   W96
@  #04 @079   ----------------------------------------
 .byte   W92
 .byte   W03
 .byte   GOTO
  .word Label_01010E8A
 .byte   FINE

@**************** Track 5 (Midi-Chn.4) ****************@

song07_005:
@  #05 @000   ----------------------------------------
 .byte   KEYSH , song07_key+0
Label_54B00A:
 .byte   VOICE , 102
 .byte   VOL , 62*song07_mvl/mxv
 .byte   PAN , c_v+0
 .byte   W96
@  #05 @001   ----------------------------------------
 .byte   W96
@  #05 @002   ----------------------------------------
 .byte   W96
@  #05 @003   ----------------------------------------
 .byte   W96
@  #05 @004   ----------------------------------------
 .byte   W96
@  #05 @005   ----------------------------------------
 .byte   W96
@  #05 @006   ----------------------------------------
 .byte   W96
@  #05 @007   ----------------------------------------
 .byte   W96
@  #05 @008   ----------------------------------------
 .byte   W96
@  #05 @009   ----------------------------------------
 .byte   W96
@  #05 @010   ----------------------------------------
 .byte   W96
@  #05 @011   ----------------------------------------
 .byte   W96
@  #05 @012   ----------------------------------------
 .byte   W96
@  #05 @013   ----------------------------------------
 .byte   W96
@  #05 @014   ----------------------------------------
 .byte   W96
@  #05 @015   ----------------------------------------
 .byte   W96
@  #05 @016   ----------------------------------------
 .byte   W96
@  #05 @017   ----------------------------------------
 .byte   W96
@  #05 @018   ----------------------------------------
 .byte   W96
@  #05 @019   ----------------------------------------
 .byte   W96
@  #05 @020   ----------------------------------------
 .byte   W96
@  #05 @021   ----------------------------------------
 .byte   W96
@  #05 @022   ----------------------------------------
 .byte   W96
@  #05 @023   ----------------------------------------
 .byte   W96
@  #05 @024   ----------------------------------------
 .byte   W96
@  #05 @025   ----------------------------------------
 .byte   W96
@  #05 @026   ----------------------------------------
 .byte   W96
@  #05 @027   ----------------------------------------
 .byte   W96
@  #05 @028   ----------------------------------------
 .byte   W96
@  #05 @029   ----------------------------------------
 .byte   W96
@  #05 @030   ----------------------------------------
 .byte   W96
@  #05 @031   ----------------------------------------
 .byte   W96
@  #05 @032   ----------------------------------------
 .byte   W96
@  #05 @033   ----------------------------------------
 .byte   W96
@  #05 @034   ----------------------------------------
 .byte   W96
@  #05 @035   ----------------------------------------
 .byte   W96
@  #05 @036   ----------------------------------------
 .byte   W96
@  #05 @037   ----------------------------------------
 .byte   W96
@  #05 @038   ----------------------------------------
 .byte   W96
@  #05 @039   ----------------------------------------
 .byte   W96
@  #05 @040   ----------------------------------------
 .byte   W96
@  #05 @041   ----------------------------------------
 .byte   W96
@  #05 @042   ----------------------------------------
 .byte   W96
@  #05 @043   ----------------------------------------
 .byte   W96
@  #05 @044   ----------------------------------------
 .byte   W96
@  #05 @045   ----------------------------------------
 .byte   W96
@  #05 @046   ----------------------------------------
 .byte   W96
@  #05 @047   ----------------------------------------
 .byte   W96
@  #05 @048   ----------------------------------------
 .byte   W96
@  #05 @049   ----------------------------------------
 .byte   W96
@  #05 @050   ----------------------------------------
 .byte   W96
@  #05 @051   ----------------------------------------
 .byte   W96
@  #05 @052   ----------------------------------------
 .byte   W96
@  #05 @053   ----------------------------------------
 .byte   W96
@  #05 @054   ----------------------------------------
 .byte   W96
@  #05 @055   ----------------------------------------
 .byte   W96
@  #05 @056   ----------------------------------------
 .byte   W96
@  #05 @057   ----------------------------------------
 .byte   W96
@  #05 @058   ----------------------------------------
 .byte   W96
@  #05 @059   ----------------------------------------
 .byte   W96
@  #05 @060   ----------------------------------------
 .byte   W96
@  #05 @061   ----------------------------------------
 .byte   W96
@  #05 @062   ----------------------------------------
 .byte   N11 ,As2 ,v080
 .byte   N11 ,Dn3
 .byte   W12
 .byte   Cn3
 .byte   N11 ,Ds3
 .byte   W12
 .byte   As2
 .byte   N11 ,Dn3
 .byte   W12
 .byte   Cn3
 .byte   N11 ,Ds3
 .byte   W12
 .byte   As2
 .byte   N11 ,Dn3
 .byte   W12
 .byte   Cn3
 .byte   N11 ,Ds3
 .byte   W12
 .byte   As2
 .byte   N11 ,Dn3
 .byte   W12
 .byte   Cn3
 .byte   N11 ,Ds3
 .byte   W12
@  #05 @063   ----------------------------------------
 .byte   Gs2
 .byte   N11 ,Cn3
 .byte   W12
 .byte   As2
 .byte   N11 ,Cs3
 .byte   W12
 .byte   Gs2
 .byte   N11 ,Cn3
 .byte   W12
 .byte   As2
 .byte   N11 ,Cs3
 .byte   W12
 .byte   Fs2
 .byte   N11 ,As2
 .byte   W12
 .byte   Gs2
 .byte   N11 ,Bn2
 .byte   W12
 .byte   Fs2
 .byte   N11 ,As2
 .byte   W12
 .byte   Gs2
 .byte   N11 ,Bn2
 .byte   W12
@  #05 @064   ----------------------------------------
 .byte   W96
@  #05 @065   ----------------------------------------
 .byte   W96
@  #05 @066   ----------------------------------------
 .byte   W96
@  #05 @067   ----------------------------------------
 .byte   W96
@  #05 @068   ----------------------------------------
 .byte   W96
@  #05 @069   ----------------------------------------
 .byte   W96
@  #05 @070   ----------------------------------------
 .byte   W96
@  #05 @071   ----------------------------------------
 .byte   W96
@  #05 @072   ----------------------------------------
 .byte   W96
@  #05 @073   ----------------------------------------
 .byte   W96
@  #05 @074   ----------------------------------------
 .byte   W96
@  #05 @075   ----------------------------------------
 .byte   W96
@  #05 @076   ----------------------------------------
 .byte   W96
@  #05 @077   ----------------------------------------
 .byte   W96
@  #05 @078   ----------------------------------------
 .byte   W96
@  #05 @079   ----------------------------------------
 .byte   W92
 .byte   W03
 .byte   GOTO
  .word Label_54B00A
 .byte   FINE

@**************** Track 6 (Midi-Chn.5) ****************@

song07_006:
@  #06 @000   ----------------------------------------
 .byte   KEYSH , song07_key+0
Label_0101153A:
 .byte   VOICE , 121
 .byte   VOL , 62*song07_mvl/mxv
 .byte   PAN , c_v+0
 .byte   VOL , 62*song07_mvl/mxv
 .byte   PAN , c_v+0
 .byte   N11 ,En1 ,v064
 .byte   W12
 .byte   N05 ,En1 ,v056
 .byte   W06
 .byte   N05
 .byte   W06
 .byte   N11 ,En1 ,v064
 .byte   W12
 .byte   N05 ,En1 ,v056
 .byte   W06
 .byte   N05
 .byte   W06
 .byte   En1 ,v064
 .byte   W06
 .byte   En1 ,v056
 .byte   W06
 .byte   N05
 .byte   W06
 .byte   N05
 .byte   W06
 .byte   N11 ,En1 ,v064
 .byte   W12
 .byte   En1 ,v056
 .byte   W12
@  #06 @001   ----------------------------------------
Label_01011569:
 .byte   N11 ,En1 ,v064
 .byte   W12
 .byte   N05 ,En1 ,v056
 .byte   W06
 .byte   N05
 .byte   W06
 .byte   N11 ,En1 ,v064
 .byte   W12
 .byte   N05 ,En1 ,v056
 .byte   W06
 .byte   N05
 .byte   W06
 .byte   En1 ,v064
 .byte   W06
 .byte   En1 ,v056
 .byte   W06
 .byte   N05
 .byte   W06
 .byte   N05
 .byte   W06
 .byte   N11 ,En1 ,v064
 .byte   W12
 .byte   En1 ,v056
 .byte   W12
 .byte   PEND 
@  #06 @002   ----------------------------------------
 .byte   PATT
  .word Label_01011569
@  #06 @003   ----------------------------------------
 .byte   PATT
  .word Label_01011569
@  #06 @004   ----------------------------------------
 .byte   PATT
  .word Label_01011569
@  #06 @005   ----------------------------------------
 .byte   PATT
  .word Label_01011569
@  #06 @006   ----------------------------------------
 .byte   PATT
  .word Label_01011569
@  #06 @007   ----------------------------------------
 .byte   PATT
  .word Label_01011569
@  #06 @008   ----------------------------------------
 .byte   PATT
  .word Label_01011569
@  #06 @009   ----------------------------------------
 .byte   PATT
  .word Label_01011569
@  #06 @010   ----------------------------------------
 .byte   PATT
  .word Label_01011569
@  #06 @011   ----------------------------------------
 .byte   PATT
  .word Label_01011569
@  #06 @012   ----------------------------------------
 .byte   PATT
  .word Label_01011569
@  #06 @013   ----------------------------------------
 .byte   PATT
  .word Label_01011569
@  #06 @014   ----------------------------------------
 .byte   PATT
  .word Label_01011569
@  #06 @015   ----------------------------------------
 .byte   PATT
  .word Label_01011569
@  #06 @016   ----------------------------------------
 .byte   PATT
  .word Label_01011569
@  #06 @017   ----------------------------------------
 .byte   PATT
  .word Label_01011569
@  #06 @018   ----------------------------------------
 .byte   PATT
  .word Label_01011569
@  #06 @019   ----------------------------------------
 .byte   PATT
  .word Label_01011569
@  #06 @020   ----------------------------------------
 .byte   PATT
  .word Label_01011569
@  #06 @021   ----------------------------------------
 .byte   PATT
  .word Label_01011569
@  #06 @022   ----------------------------------------
 .byte   W96
@  #06 @023   ----------------------------------------
 .byte   W96
@  #06 @024   ----------------------------------------
 .byte   PATT
  .word Label_01011569
@  #06 @025   ----------------------------------------
 .byte   PATT
  .word Label_01011569
@  #06 @026   ----------------------------------------
 .byte   PATT
  .word Label_01011569
@  #06 @027   ----------------------------------------
 .byte   PATT
  .word Label_01011569
@  #06 @028   ----------------------------------------
 .byte   PATT
  .word Label_01011569
@  #06 @029   ----------------------------------------
 .byte   PATT
  .word Label_01011569
@  #06 @030   ----------------------------------------
 .byte   PATT
  .word Label_01011569
@  #06 @031   ----------------------------------------
 .byte   PATT
  .word Label_01011569
@  #06 @032   ----------------------------------------
 .byte   PATT
  .word Label_01011569
@  #06 @033   ----------------------------------------
 .byte   PATT
  .word Label_01011569
@  #06 @034   ----------------------------------------
 .byte   PATT
  .word Label_01011569
@  #06 @035   ----------------------------------------
 .byte   PATT
  .word Label_01011569
@  #06 @036   ----------------------------------------
 .byte   PATT
  .word Label_01011569
@  #06 @037   ----------------------------------------
 .byte   PATT
  .word Label_01011569
@  #06 @038   ----------------------------------------
 .byte   W96
@  #06 @039   ----------------------------------------
 .byte   W96
@  #06 @040   ----------------------------------------
 .byte   PATT
  .word Label_01011569
@  #06 @041   ----------------------------------------
 .byte   PATT
  .word Label_01011569
@  #06 @042   ----------------------------------------
 .byte   PATT
  .word Label_01011569
@  #06 @043   ----------------------------------------
 .byte   PATT
  .word Label_01011569
@  #06 @044   ----------------------------------------
 .byte   PATT
  .word Label_01011569
@  #06 @045   ----------------------------------------
 .byte   PATT
  .word Label_01011569
@  #06 @046   ----------------------------------------
 .byte   PATT
  .word Label_01011569
@  #06 @047   ----------------------------------------
 .byte   PATT
  .word Label_01011569
@  #06 @048   ----------------------------------------
 .byte   PATT
  .word Label_01011569
@  #06 @049   ----------------------------------------
 .byte   PATT
  .word Label_01011569
@  #06 @050   ----------------------------------------
 .byte   PATT
  .word Label_01011569
@  #06 @051   ----------------------------------------
 .byte   PATT
  .word Label_01011569
@  #06 @052   ----------------------------------------
 .byte   PATT
  .word Label_01011569
@  #06 @053   ----------------------------------------
 .byte   PATT
  .word Label_01011569
@  #06 @054   ----------------------------------------
 .byte   PATT
  .word Label_01011569
@  #06 @055   ----------------------------------------
 .byte   PATT
  .word Label_01011569
@  #06 @056   ----------------------------------------
 .byte   W96
@  #06 @057   ----------------------------------------
 .byte   W96
@  #06 @058   ----------------------------------------
 .byte   W96
@  #06 @059   ----------------------------------------
 .byte   W96
@  #06 @060   ----------------------------------------
 .byte   PATT
  .word Label_01011569
@  #06 @061   ----------------------------------------
 .byte   PATT
  .word Label_01011569
@  #06 @062   ----------------------------------------
 .byte   PATT
  .word Label_01011569
@  #06 @063   ----------------------------------------
 .byte   PATT
  .word Label_01011569
@  #06 @064   ----------------------------------------
 .byte   N92 ,Cn1 ,v080
 .byte   W96
@  #06 @065   ----------------------------------------
 .byte   W96
@  #06 @066   ----------------------------------------
 .byte   N92
 .byte   W96
@  #06 @067   ----------------------------------------
 .byte   W96
@  #06 @068   ----------------------------------------
 .byte   N92
 .byte   W96
@  #06 @069   ----------------------------------------
 .byte   W96
@  #06 @070   ----------------------------------------
 .byte   N92
 .byte   W96
@  #06 @071   ----------------------------------------
 .byte   W96
@  #06 @072   ----------------------------------------
 .byte   PATT
  .word Label_01011569
@  #06 @073   ----------------------------------------
 .byte   PATT
  .word Label_01011569
@  #06 @074   ----------------------------------------
 .byte   PATT
  .word Label_01011569
@  #06 @075   ----------------------------------------
 .byte   PATT
  .word Label_01011569
@  #06 @076   ----------------------------------------
 .byte   PATT
  .word Label_01011569
@  #06 @077   ----------------------------------------
 .byte   PATT
  .word Label_01011569
@  #06 @078   ----------------------------------------
 .byte   PATT
  .word Label_01011569
@  #06 @079   ----------------------------------------
 .byte   N11 ,En1 ,v064
 .byte   W12
 .byte   N05 ,En1 ,v056
 .byte   W06
 .byte   N05
 .byte   W06
 .byte   N11 ,En1 ,v064
 .byte   W12
 .byte   N05 ,En1 ,v056
 .byte   W06
 .byte   N05
 .byte   W06
 .byte   En1 ,v064
 .byte   W06
 .byte   En1 ,v056
 .byte   W06
 .byte   N05
 .byte   W06
 .byte   N05
 .byte   W06
 .byte   N11 ,En1 ,v064
 .byte   W12
 .byte   En1 ,v056
 .byte   W11
 .byte   GOTO
  .word Label_0101153A
 .byte   FINE

@**************** Track 7 (Midi-Chn.6) ****************@

song07_007:
@  #07 @000   ----------------------------------------
 .byte   KEYSH , song07_key+0
Label_0101022E:
 .byte   VOICE , 34
 .byte   VOL , 62*song07_mvl/mxv
 .byte   PAN , c_v+0
 .byte   N05 ,Cn3 ,v080
 .byte   W12
 .byte   N05
 .byte   W06
 .byte   N05
 .byte   W06
 .byte   N05
 .byte   W12
 .byte   N05
 .byte   W06
 .byte   N05
 .byte   W06
 .byte   N05
 .byte   W06
 .byte   N05
 .byte   W06
 .byte   N05
 .byte   W12
 .byte   N05
 .byte   W06
 .byte   N17 ,As2
 .byte   W18
@  #07 @001   ----------------------------------------
Label_0101024D:
 .byte   N05 ,Cn3 ,v080
 .byte   W12
 .byte   N05
 .byte   W06
 .byte   N05
 .byte   W06
 .byte   N05
 .byte   W12
 .byte   N05
 .byte   W06
 .byte   N05
 .byte   W06
 .byte   N05
 .byte   W06
 .byte   N05
 .byte   W06
 .byte   N05
 .byte   W12
 .byte   N05
 .byte   W06
 .byte   N17 ,As2
 .byte   W18
 .byte   PEND 
@  #07 @002   ----------------------------------------
 .byte   PATT
  .word Label_0101024D
@  #07 @003   ----------------------------------------
 .byte   PATT
  .word Label_0101024D
@  #07 @004   ----------------------------------------
 .byte   PATT
  .word Label_0101024D
@  #07 @005   ----------------------------------------
 .byte   PATT
  .word Label_0101024D
@  #07 @006   ----------------------------------------
 .byte   PATT
  .word Label_0101024D
@  #07 @007   ----------------------------------------
 .byte   PATT
  .word Label_0101024D
@  #07 @008   ----------------------------------------
 .byte   PATT
  .word Label_0101024D
@  #07 @009   ----------------------------------------
 .byte   PATT
  .word Label_0101024D
@  #07 @010   ----------------------------------------
 .byte   PATT
  .word Label_0101024D
@  #07 @011   ----------------------------------------
 .byte   PATT
  .word Label_0101024D
@  #07 @012   ----------------------------------------
 .byte   PATT
  .word Label_0101024D
@  #07 @013   ----------------------------------------
 .byte   PATT
  .word Label_0101024D
@  #07 @014   ----------------------------------------
 .byte   PATT
  .word Label_0101024D
@  #07 @015   ----------------------------------------
 .byte   PATT
  .word Label_0101024D
@  #07 @016   ----------------------------------------
Label_010102AD:
 .byte   N11 ,Gs2 ,v080
 .byte   W12
 .byte   N05 ,Gs3
 .byte   W06
 .byte   Gs2
 .byte   W06
 .byte   N05
 .byte   W12
 .byte   N05
 .byte   W06
 .byte   N05
 .byte   W06
 .byte   N05
 .byte   W06
 .byte   N05
 .byte   W06
 .byte   N05
 .byte   W12
 .byte   N05
 .byte   W12
 .byte   N11
 .byte   W12
 .byte   PEND 
@  #07 @017   ----------------------------------------
Label_010102C7:
 .byte   N11 ,As2 ,v080
 .byte   W12
 .byte   N05 ,As3
 .byte   W06
 .byte   As2
 .byte   W06
 .byte   N05
 .byte   W12
 .byte   N05
 .byte   W06
 .byte   N05
 .byte   W06
 .byte   N05
 .byte   W06
 .byte   N05
 .byte   W06
 .byte   N05
 .byte   W12
 .byte   N05
 .byte   W12
 .byte   N11
 .byte   W12
 .byte   PEND 
@  #07 @018   ----------------------------------------
Label_010102E1:
 .byte   N11 ,Bn2 ,v080
 .byte   W12
 .byte   N05 ,Bn3
 .byte   W06
 .byte   Bn2
 .byte   W06
 .byte   N05
 .byte   W12
 .byte   N05
 .byte   W06
 .byte   N05
 .byte   W06
 .byte   N05
 .byte   W06
 .byte   N05
 .byte   W06
 .byte   N05
 .byte   W12
 .byte   N05
 .byte   W12
 .byte   N11
 .byte   W12
 .byte   PEND 
@  #07 @019   ----------------------------------------
Label_010102FB:
 .byte   N11 ,Cs3 ,v080
 .byte   W12
 .byte   N05 ,Cs4
 .byte   W06
 .byte   Cs3
 .byte   W06
 .byte   N05
 .byte   W12
 .byte   N05
 .byte   W06
 .byte   N05
 .byte   W06
 .byte   N05
 .byte   W06
 .byte   N05
 .byte   W06
 .byte   N05
 .byte   W12
 .byte   N05
 .byte   W12
 .byte   N11
 .byte   W12
 .byte   PEND 
@  #07 @020   ----------------------------------------
Label_01010315:
 .byte   N05 ,Ds3 ,v080
 .byte   W12
 .byte   N02 ,Ds4
 .byte   W06
 .byte   Gn3
 .byte   W06
 .byte   N05 ,Ds3
 .byte   W12
 .byte   N02
 .byte   W06
 .byte   N02
 .byte   W06
 .byte   N02
 .byte   W06
 .byte   N02
 .byte   W06
 .byte   N05
 .byte   W12
 .byte   N05
 .byte   W12
 .byte   N23
 .byte   W12
 .byte   PEND 
@  #07 @021   ----------------------------------------
Label_01010330:
 .byte   W12
 .byte   N02 ,Ds4 ,v080
 .byte   W06
 .byte   Gn3
 .byte   W06
 .byte   N05 ,Ds3
 .byte   W12
 .byte   N02
 .byte   W06
 .byte   N02
 .byte   W06
 .byte   N02
 .byte   W06
 .byte   N02
 .byte   W06
 .byte   N05
 .byte   W12
 .byte   N05
 .byte   W12
 .byte   N11
 .byte   W12
 .byte   PEND 
@  #07 @022   ----------------------------------------
Label_01010349:
 .byte   N92 ,As2 ,v080
 .byte   W96
 .byte   PEND 
@  #07 @023   ----------------------------------------
Label_0101034E:
 .byte   N92 ,As1 ,v080
 .byte   W96
 .byte   PEND 
@  #07 @024   ----------------------------------------
 .byte   PATT
  .word Label_0101024D
@  #07 @025   ----------------------------------------
 .byte   PATT
  .word Label_0101024D
@  #07 @026   ----------------------------------------
 .byte   PATT
  .word Label_0101024D
@  #07 @027   ----------------------------------------
 .byte   PATT
  .word Label_0101024D
@  #07 @028   ----------------------------------------
 .byte   PATT
  .word Label_0101024D
@  #07 @029   ----------------------------------------
 .byte   PATT
  .word Label_0101024D
@  #07 @030   ----------------------------------------
 .byte   PATT
  .word Label_0101024D
@  #07 @031   ----------------------------------------
 .byte   PATT
  .word Label_0101024D
@  #07 @032   ----------------------------------------
 .byte   PATT
  .word Label_010102AD
@  #07 @033   ----------------------------------------
 .byte   PATT
  .word Label_010102C7
@  #07 @034   ----------------------------------------
 .byte   PATT
  .word Label_010102E1
@  #07 @035   ----------------------------------------
 .byte   PATT
  .word Label_010102FB
@  #07 @036   ----------------------------------------
 .byte   PATT
  .word Label_01010315
@  #07 @037   ----------------------------------------
 .byte   PATT
  .word Label_01010330
@  #07 @038   ----------------------------------------
 .byte   PATT
  .word Label_01010349
@  #07 @039   ----------------------------------------
 .byte   PATT
  .word Label_0101034E
@  #07 @040   ----------------------------------------
Label_010103A3:
 .byte   N05 ,Fs2 ,v080
 .byte   W12
 .byte   N05
 .byte   W06
 .byte   N05
 .byte   W06
 .byte   N17
 .byte   W18
 .byte   N05
 .byte   W06
 .byte   N05
 .byte   W06
 .byte   N05
 .byte   W06
 .byte   N11
 .byte   W12
 .byte   Cs3
 .byte   W12
 .byte   Fs2
 .byte   W12
 .byte   PEND 
@  #07 @041   ----------------------------------------
Label_010103BA:
 .byte   N05 ,Fn2 ,v080
 .byte   W12
 .byte   N05
 .byte   W06
 .byte   N05
 .byte   W06
 .byte   N17
 .byte   W18
 .byte   N05
 .byte   W06
 .byte   N05
 .byte   W06
 .byte   N05
 .byte   W06
 .byte   N11
 .byte   W12
 .byte   Cn3
 .byte   W12
 .byte   Fn2
 .byte   W12
 .byte   PEND 
@  #07 @042   ----------------------------------------
 .byte   PATT
  .word Label_010103A3
@  #07 @043   ----------------------------------------
 .byte   PATT
  .word Label_010103BA
@  #07 @044   ----------------------------------------
Label_010103DB:
 .byte   N05 ,An2 ,v080
 .byte   W12
 .byte   N05
 .byte   W06
 .byte   N05
 .byte   W06
 .byte   N17
 .byte   W18
 .byte   N05
 .byte   W06
 .byte   N05
 .byte   W06
 .byte   N05
 .byte   W06
 .byte   N11
 .byte   W12
 .byte   En3
 .byte   W12
 .byte   An2
 .byte   W12
 .byte   PEND 
@  #07 @045   ----------------------------------------
Label_010103F2:
 .byte   N05 ,Gs2 ,v080
 .byte   W12
 .byte   N05
 .byte   W06
 .byte   N05
 .byte   W06
 .byte   N17
 .byte   W18
 .byte   N05
 .byte   W06
 .byte   N05
 .byte   W06
 .byte   N05
 .byte   W06
 .byte   N11
 .byte   W12
 .byte   Ds3
 .byte   W12
 .byte   Gs2
 .byte   W12
 .byte   PEND 
@  #07 @046   ----------------------------------------
 .byte   PATT
  .word Label_010103DB
@  #07 @047   ----------------------------------------
 .byte   PATT
  .word Label_010103F2
@  #07 @048   ----------------------------------------
 .byte   PATT
  .word Label_010103A3
@  #07 @049   ----------------------------------------
 .byte   PATT
  .word Label_010103BA
@  #07 @050   ----------------------------------------
 .byte   PATT
  .word Label_010103A3
@  #07 @051   ----------------------------------------
 .byte   PATT
  .word Label_010103BA
@  #07 @052   ----------------------------------------
 .byte   PATT
  .word Label_010103DB
@  #07 @053   ----------------------------------------
 .byte   PATT
  .word Label_010103F2
@  #07 @054   ----------------------------------------
 .byte   N05 ,Cn3 ,v080
 .byte   W12
 .byte   N05
 .byte   W06
 .byte   N05
 .byte   W06
 .byte   N17
 .byte   W18
 .byte   N05
 .byte   W06
 .byte   N05
 .byte   W06
 .byte   N05
 .byte   W06
 .byte   N11
 .byte   W12
 .byte   Gn3
 .byte   W12
 .byte   Cn3
 .byte   W12
@  #07 @055   ----------------------------------------
 .byte   N05 ,Bn2
 .byte   W12
 .byte   N05
 .byte   W06
 .byte   N05
 .byte   W06
 .byte   N17
 .byte   W18
 .byte   N05
 .byte   W06
 .byte   N05
 .byte   W06
 .byte   N05
 .byte   W06
 .byte   N11
 .byte   W12
 .byte   Fs3
 .byte   W12
 .byte   Bn2
 .byte   W12
@  #07 @056   ----------------------------------------
Label_0101045C:
 .byte   TIE ,Fn2 ,v080
 .byte   W96
 .byte   PEND 
@  #07 @057   ----------------------------------------
 .byte   W92
 .byte   W03
 .byte   EOT
 .byte   W01
@  #07 @058   ----------------------------------------
 .byte   TIE ,Ds2
 .byte   W96
@  #07 @059   ----------------------------------------
 .byte   W92
 .byte   W03
 .byte   EOT
 .byte   W01
@  #07 @060   ----------------------------------------
 .byte   PATT
  .word Label_0101045C
@  #07 @061   ----------------------------------------
 .byte   W92
 .byte   W03
 .byte   EOT
 .byte   Fn2
 .byte   W01
@  #07 @062   ----------------------------------------
 .byte   N92 ,Ds2 ,v080
 .byte   W96
@  #07 @063   ----------------------------------------
 .byte   N44 ,Cs2
 .byte   W48
 .byte   Bn1
 .byte   W48
@  #07 @064   ----------------------------------------
 .byte   W96
@  #07 @065   ----------------------------------------
 .byte   W96
@  #07 @066   ----------------------------------------
 .byte   W96
@  #07 @067   ----------------------------------------
 .byte   W96
@  #07 @068   ----------------------------------------
 .byte   W96
@  #07 @069   ----------------------------------------
 .byte   W96
@  #07 @070   ----------------------------------------
 .byte   W96
@  #07 @071   ----------------------------------------
 .byte   W96
@  #07 @072   ----------------------------------------
 .byte   W96
@  #07 @073   ----------------------------------------
 .byte   W96
@  #07 @074   ----------------------------------------
 .byte   W96
@  #07 @075   ----------------------------------------
 .byte   W96
@  #07 @076   ----------------------------------------
 .byte   PATT
  .word Label_0101024D
@  #07 @077   ----------------------------------------
 .byte   PATT
  .word Label_0101024D
@  #07 @078   ----------------------------------------
 .byte   PATT
  .word Label_0101024D
@  #07 @079   ----------------------------------------
 .byte   N05 ,Cn3 ,v080
 .byte   W12
 .byte   N05
 .byte   W06
 .byte   N05
 .byte   W06
 .byte   N05
 .byte   W12
 .byte   N05
 .byte   W06
 .byte   N05
 .byte   W06
 .byte   N05
 .byte   W06
 .byte   N05
 .byte   W06
 .byte   N05
 .byte   W12
 .byte   N05
 .byte   W06
 .byte   N17 ,As2
 .byte   W17
 .byte   GOTO
  .word Label_0101022E
 .byte   FINE

@**************** Track 8 (Midi-Chn.7) ****************@

song07_008:
@  #08 @000   ----------------------------------------
 .byte   KEYSH , song07_key+0
Label_54A4E6:
 .byte   VOICE , 47
 .byte   PAN , c_v+0
 .byte   VOL , 62*song07_mvl/mxv
 .byte   W96
@  #08 @001   ----------------------------------------
 .byte   W96
@  #08 @002   ----------------------------------------
 .byte   W96
@  #08 @003   ----------------------------------------
 .byte   W96
@  #08 @004   ----------------------------------------
 .byte   W96
@  #08 @005   ----------------------------------------
 .byte   W96
@  #08 @006   ----------------------------------------
 .byte   W96
@  #08 @007   ----------------------------------------
 .byte   W96
@  #08 @008   ----------------------------------------
 .byte   W96
@  #08 @009   ----------------------------------------
 .byte   W96
@  #08 @010   ----------------------------------------
 .byte   W96
@  #08 @011   ----------------------------------------
 .byte   W96
@  #08 @012   ----------------------------------------
 .byte   W96
@  #08 @013   ----------------------------------------
 .byte   W96
@  #08 @014   ----------------------------------------
 .byte   W96
@  #08 @015   ----------------------------------------
 .byte   W96
@  #08 @016   ----------------------------------------
 .byte   W96
@  #08 @017   ----------------------------------------
 .byte   W96
@  #08 @018   ----------------------------------------
 .byte   W96
@  #08 @019   ----------------------------------------
 .byte   W96
@  #08 @020   ----------------------------------------
 .byte   W96
@  #08 @021   ----------------------------------------
 .byte   W96
@  #08 @022   ----------------------------------------
 .byte   W96
@  #08 @023   ----------------------------------------
 .byte   W96
@  #08 @024   ----------------------------------------
 .byte   W96
@  #08 @025   ----------------------------------------
 .byte   W96
@  #08 @026   ----------------------------------------
 .byte   W96
@  #08 @027   ----------------------------------------
 .byte   W96
@  #08 @028   ----------------------------------------
 .byte   W96
@  #08 @029   ----------------------------------------
 .byte   W96
@  #08 @030   ----------------------------------------
 .byte   W96
@  #08 @031   ----------------------------------------
 .byte   W96
@  #08 @032   ----------------------------------------
 .byte   W96
@  #08 @033   ----------------------------------------
 .byte   W96
@  #08 @034   ----------------------------------------
 .byte   W96
@  #08 @035   ----------------------------------------
 .byte   W96
@  #08 @036   ----------------------------------------
 .byte   W96
@  #08 @037   ----------------------------------------
 .byte   W96
@  #08 @038   ----------------------------------------
 .byte   W96
@  #08 @039   ----------------------------------------
 .byte   W96
@  #08 @040   ----------------------------------------
 .byte   W96
@  #08 @041   ----------------------------------------
 .byte   W96
@  #08 @042   ----------------------------------------
 .byte   W96
@  #08 @043   ----------------------------------------
 .byte   W96
@  #08 @044   ----------------------------------------
 .byte   W96
@  #08 @045   ----------------------------------------
 .byte   W96
@  #08 @046   ----------------------------------------
 .byte   W96
@  #08 @047   ----------------------------------------
 .byte   W96
@  #08 @048   ----------------------------------------
 .byte   W96
@  #08 @049   ----------------------------------------
 .byte   W96
@  #08 @050   ----------------------------------------
 .byte   W96
@  #08 @051   ----------------------------------------
 .byte   W96
@  #08 @052   ----------------------------------------
 .byte   W96
@  #08 @053   ----------------------------------------
 .byte   W96
@  #08 @054   ----------------------------------------
 .byte   W96
@  #08 @055   ----------------------------------------
 .byte   W96
@  #08 @056   ----------------------------------------
 .byte   W96
@  #08 @057   ----------------------------------------
 .byte   W96
@  #08 @058   ----------------------------------------
 .byte   W96
@  #08 @059   ----------------------------------------
 .byte   W96
@  #08 @060   ----------------------------------------
 .byte   W96
@  #08 @061   ----------------------------------------
 .byte   W96
@  #08 @062   ----------------------------------------
 .byte   W96
@  #08 @063   ----------------------------------------
 .byte   W96
@  #08 @064   ----------------------------------------
 .byte   N92 ,Cn1 ,v080
 .byte   W96
@  #08 @065   ----------------------------------------
 .byte   W96
@  #08 @066   ----------------------------------------
 .byte   N92
 .byte   W96
@  #08 @067   ----------------------------------------
 .byte   W96
@  #08 @068   ----------------------------------------
 .byte   N92
 .byte   W96
@  #08 @069   ----------------------------------------
 .byte   W96
@  #08 @070   ----------------------------------------
 .byte   N92
 .byte   W96
@  #08 @071   ----------------------------------------
 .byte   W96
@  #08 @072   ----------------------------------------
 .byte   W96
@  #08 @073   ----------------------------------------
 .byte   W96
@  #08 @074   ----------------------------------------
 .byte   W96
@  #08 @075   ----------------------------------------
 .byte   W96
@  #08 @076   ----------------------------------------
 .byte   W96
@  #08 @077   ----------------------------------------
 .byte   W96
@  #08 @078   ----------------------------------------
 .byte   W96
@  #08 @079   ----------------------------------------
 .byte   W92
 .byte   W03
 .byte   GOTO
  .word Label_54A4E6
 .byte   FINE

@******************************************************@
	.align	2

song07:
	.byte	8	@ NumTrks
	.byte	0	@ NumBlks
	.byte	song07_pri	@ Priority
	.byte	song07_rev	@ Reverb.
    
	.word	song07_grp
    
	.word	song07_001
	.word	song07_002
	.word	song07_003
	.word	song07_004
	.word	song07_005
	.word	song07_006
	.word	song07_007
	.word	song07_008

	.end
