	.include "MPlayDef.s"

	.equ	song0149_grp, voicegroup000
	.equ	song0149_pri, 0
	.equ	song0149_rev, 160
	.equ	song0149_mvl, 127
	.equ	song0149_key, 0
	.equ	song0149_tbs, 1
	.equ	song0149_exg, 0
	.equ	song0149_cmp, 1

	.section .rodata
	.global	song0149
	.align	2


@**************** Track 1 (Midi-Chn.0) ****************@

song0149_001:
@  #01 @000   ----------------------------------------
 .byte   KEYSH , song0149_key+0
 .byte   TEMPO , 100*song0149_tbs/2
 .byte   VOICE , 0
 .byte   VOL , 59*song0149_mvl/mxv
 .byte   PAN , c_v+5
 .byte   N11 ,Fs2 ,v080
 .byte   W12
 .byte   Cs3
 .byte   W12
 .byte   N23 ,An2
 .byte   W24
 .byte   N11 ,Gs2
 .byte   W12
 .byte   An2
 .byte   W12
 .byte   N44 ,Bn2
 .byte   W24
@  #01 @001   ----------------------------------------
Label_01943BD3:
 .byte   W36
 .byte   N11 ,En2 ,v080
 .byte   W12
 .byte   Fs2
 .byte   W12
 .byte   Cs3
 .byte   W12
 .byte   N23 ,An2
 .byte   W24
 .byte   PEND 
@  #01 @002   ----------------------------------------
Label_01943BE0:
 .byte   N11 ,Gs2 ,v080
 .byte   W12
 .byte   An2
 .byte   W12
 .byte   N68 ,Bn2
 .byte   W72
 .byte   PEND 
@  #01 @003   ----------------------------------------
Label_01943BEA:
 .byte   N11 ,Fs2 ,v080
 .byte   W12
 .byte   Cs3
 .byte   W12
 .byte   N23 ,An2
 .byte   W24
 .byte   N11 ,Gs2
 .byte   W12
 .byte   An2
 .byte   W12
 .byte   N44 ,Bn2
 .byte   W24
 .byte   PEND 
@  #01 @004   ----------------------------------------
 .byte   PATT
  .word Label_01943BD3
@  #01 @005   ----------------------------------------
 .byte   PATT
  .word Label_01943BE0
@  #01 @006   ----------------------------------------
 .byte   PATT
  .word Label_01943BEA
@  #01 @007   ----------------------------------------
 .byte   PATT
  .word Label_01943BD3
@  #01 @008   ----------------------------------------
 .byte   PATT
  .word Label_01943BE0
@  #01 @009   ----------------------------------------
 .byte   N11 ,Fs2 ,v080
 .byte   W12
 .byte   Cs3
 .byte   W12
 .byte   N23 ,An2
 .byte   W24
 .byte   N11 ,Gs2
 .byte   W12
 .byte   An2
 .byte   W12
 .byte   N23 ,Bn2
 .byte   W24
@  #01 @010   ----------------------------------------
 .byte   N11 ,Bn1
 .byte   W12
 .byte   En2
 .byte   W12
 .byte   An2
 .byte   W12
 .byte   Gs2
 .byte   W12
 .byte   Fs2
 .byte   W12
 .byte   Cs3
 .byte   W12
 .byte   N23 ,An2
 .byte   W24
@  #01 @011   ----------------------------------------
 .byte   N11 ,Gs2
 .byte   W12
 .byte   An2
 .byte   W12
 .byte   N23 ,Bn2
 .byte   W24
 .byte   N11 ,Ds3
 .byte   W12
 .byte   Bn2
 .byte   W12
 .byte   Cs3
 .byte   W12
 .byte   En3
 .byte   W12
@  #01 @012   ----------------------------------------
 .byte   Fs2
 .byte   W12
 .byte   Cs3
 .byte   W12
 .byte   N23 ,An2
 .byte   W24
 .byte   N11 ,Gs2
 .byte   W12
 .byte   An2
 .byte   W12
 .byte   N68 ,Bn2
 .byte   W24
@  #01 @013   ----------------------------------------
 .byte   W48
 .byte   N11 ,Fs3
 .byte   W12
 .byte   Cs4
 .byte   W12
 .byte   N23 ,An3
 .byte   W24
@  #01 @014   ----------------------------------------
Label_01943C5F:
 .byte   N11 ,Gs3 ,v080
 .byte   W12
 .byte   An3
 .byte   W12
 .byte   N68 ,Bn3
 .byte   W72
 .byte   PEND 
@  #01 @015   ----------------------------------------
 .byte   N11 ,Dn3
 .byte   W12
 .byte   Cs4
 .byte   W12
 .byte   N23 ,An3
 .byte   W24
 .byte   N11 ,Gs3
 .byte   W12
 .byte   An3
 .byte   W12
 .byte   N68 ,Bn3
 .byte   W24
@  #01 @016   ----------------------------------------
 .byte   W48
 .byte   N11 ,Fs4
 .byte   W12
 .byte   Ds4
 .byte   W12
 .byte   N23 ,Bn3
 .byte   W24
@  #01 @017   ----------------------------------------
 .byte   N11 ,Gs3
 .byte   W12
 .byte   Bn3
 .byte   W12
 .byte   N32 ,En4
 .byte   W36
 .byte   N11 ,Cs3
 .byte   W12
 .byte   Dn3
 .byte   W12
 .byte   En3
 .byte   W12
@  #01 @018   ----------------------------------------
 .byte   N23 ,Cs4
 .byte   W24
 .byte   An3
 .byte   W24
 .byte   N11 ,Gs3
 .byte   W12
 .byte   An3
 .byte   W12
 .byte   N68 ,Bn3
 .byte   W24
@  #01 @019   ----------------------------------------
 .byte   W48
 .byte   N23 ,Cs4
 .byte   W24
 .byte   An3
 .byte   W24
@  #01 @020   ----------------------------------------
 .byte   PATT
  .word Label_01943C5F
@  #01 @021   ----------------------------------------
 .byte   N11 ,Gs3 ,v080
 .byte   W12
 .byte   Bn3
 .byte   W12
 .byte   En4
 .byte   W12
 .byte   Cs4
 .byte   W12
 .byte   Ds4
 .byte   W12
 .byte   En4
 .byte   W12
 .byte   N68 ,Gs4
 .byte   W24
@  #01 @022   ----------------------------------------
 .byte   W72
 .byte   N23 ,An4
 .byte   W24
@  #01 @023   ----------------------------------------
 .byte   N11 ,Gn4
 .byte   W12
 .byte   An4
 .byte   W12
 .byte   N68 ,Bn4
 .byte   W72
@  #01 @024   ----------------------------------------
 .byte   W24
 .byte   N23 ,An4
 .byte   W24
 .byte   N11 ,Fs4
 .byte   W12
 .byte   An4
 .byte   W12
 .byte   N68 ,Cs5
 .byte   W24
@  #01 @025   ----------------------------------------
 .byte   W96
@  #01 @026   ----------------------------------------
 .byte   W96
@  #01 @027   ----------------------------------------
 .byte   W96
@  #01 @028   ----------------------------------------
 .byte   W96
@  #01 @029   ----------------------------------------
 .byte   W96
@  #01 @030   ----------------------------------------
 .byte   W96
@  #01 @031   ----------------------------------------
 .byte   W96
@  #01 @032   ----------------------------------------
 .byte   W96
@  #01 @033   ----------------------------------------
 .byte   W96
@  #01 @034   ----------------------------------------
 .byte   W96
@  #01 @035   ----------------------------------------
 .byte   W96
@  #01 @036   ----------------------------------------
 .byte   W96
@  #01 @037   ----------------------------------------
 .byte   W48
Label_01943CDF:
 .byte   W48
@  #01 @038   ----------------------------------------
 .byte   W96
@  #01 @039   ----------------------------------------
 .byte   W96
@  #01 @040   ----------------------------------------
 .byte   W96
@  #01 @041   ----------------------------------------
 .byte   W96
@  #01 @042   ----------------------------------------
 .byte   W96
@  #01 @043   ----------------------------------------
 .byte   W96
@  #01 @044   ----------------------------------------
 .byte   W96
@  #01 @045   ----------------------------------------
 .byte   W96
@  #01 @046   ----------------------------------------
 .byte   W96
@  #01 @047   ----------------------------------------
 .byte   W96
@  #01 @048   ----------------------------------------
 .byte   W96
@  #01 @049   ----------------------------------------
 .byte   W96
@  #01 @050   ----------------------------------------
 .byte   W96
@  #01 @051   ----------------------------------------
 .byte   W96
@  #01 @052   ----------------------------------------
 .byte   W96
@  #01 @053   ----------------------------------------
 .byte   W96
@  #01 @054   ----------------------------------------
 .byte   W96
@  #01 @055   ----------------------------------------
 .byte   W96
@  #01 @056   ----------------------------------------
 .byte   W96
@  #01 @057   ----------------------------------------
 .byte   W96
@  #01 @058   ----------------------------------------
 .byte   W96
@  #01 @059   ----------------------------------------
 .byte   W96
@  #01 @060   ----------------------------------------
 .byte   W96
@  #01 @061   ----------------------------------------
 .byte   W96
@  #01 @062   ----------------------------------------
 .byte   W96
@  #01 @063   ----------------------------------------
 .byte   W96
@  #01 @064   ----------------------------------------
 .byte   W96
@  #01 @065   ----------------------------------------
 .byte   W96
@  #01 @066   ----------------------------------------
 .byte   W96
@  #01 @067   ----------------------------------------
 .byte   W96
@  #01 @068   ----------------------------------------
 .byte   W96
@  #01 @069   ----------------------------------------
 .byte   W96
@  #01 @070   ----------------------------------------
 .byte   W96
@  #01 @071   ----------------------------------------
 .byte   W96
@  #01 @072   ----------------------------------------
 .byte   W96
@  #01 @073   ----------------------------------------
 .byte   W96
@  #01 @074   ----------------------------------------
 .byte   W96
@  #01 @075   ----------------------------------------
 .byte   W96
@  #01 @076   ----------------------------------------
 .byte   W96
@  #01 @077   ----------------------------------------
 .byte   W96
@  #01 @078   ----------------------------------------
 .byte   W96
@  #01 @079   ----------------------------------------
 .byte   W48
 .byte   GOTO
  .word Label_01943CDF
@  #01 @080   ----------------------------------------
 .byte   W48
 .byte   W96
@  #01 @081   ----------------------------------------
 .byte   W96
@  #01 @082   ----------------------------------------
 .byte   W96
@  #01 @083   ----------------------------------------
 .byte   W96
@  #01 @084   ----------------------------------------
 .byte   W96
@  #01 @085   ----------------------------------------
 .byte   W44
 .byte   W03
 .byte   FINE

@**************** Track 2 (Midi-Chn.1) ****************@

song0149_002:
@  #02 @000   ----------------------------------------
 .byte   KEYSH , song0149_key+0
 .byte   VOICE , 1
 .byte   VOL , 56*song0149_mvl/mxv
 .byte   PAN , c_v+5
 .byte   W96
@  #02 @001   ----------------------------------------
 .byte   W96
@  #02 @002   ----------------------------------------
 .byte   W96
@  #02 @003   ----------------------------------------
 .byte   W96
@  #02 @004   ----------------------------------------
 .byte   W96
@  #02 @005   ----------------------------------------
 .byte   W96
@  #02 @006   ----------------------------------------
 .byte   W96
@  #02 @007   ----------------------------------------
 .byte   W96
@  #02 @008   ----------------------------------------
 .byte   W96
@  #02 @009   ----------------------------------------
 .byte   W96
@  #02 @010   ----------------------------------------
Label_015B8356:
 .byte   N11 ,Ds5 ,v080
 .byte   W12
 .byte   En5
 .byte   W12
 .byte   Ds5
 .byte   W12
 .byte   En5
 .byte   W12
 .byte   N32 ,Ds5
 .byte   W36
 .byte   Fs5
 .byte   W12
 .byte   PEND 
@  #02 @011   ----------------------------------------
 .byte   W24
 .byte   N68 ,Cs5
 .byte   W72
@  #02 @012   ----------------------------------------
 .byte   W96
@  #02 @013   ----------------------------------------
 .byte   W12
 .byte   N11 ,Gs5
 .byte   W12
 .byte   An5
 .byte   W12
 .byte   Gs5
 .byte   W12
 .byte   TIE ,Bn5
 .byte   W48
@  #02 @014   ----------------------------------------
 .byte   W56
 .byte   W03
 .byte   EOT
 .byte   W01
 .byte   N11 ,Gs5
 .byte   W12
 .byte   An5
 .byte   W12
 .byte   Gs5
 .byte   W12
@  #02 @015   ----------------------------------------
 .byte   N92 ,Bn5
 .byte   W96
@  #02 @016   ----------------------------------------
 .byte   PATT
  .word Label_015B8356
@  #02 @017   ----------------------------------------
 .byte   W24
 .byte   N68 ,Cs5 ,v080
 .byte   W72
@  #02 @018   ----------------------------------------
 .byte   W96
@  #02 @019   ----------------------------------------
 .byte   W12
 .byte   N11 ,Gs6 ,v096
 .byte   W12
 .byte   An6
 .byte   W12
 .byte   Gs6
 .byte   W12
 .byte   N92 ,Cs6
 .byte   N92 ,Cs7
 .byte   W48
@  #02 @020   ----------------------------------------
 .byte   W48
 .byte   N11 ,Cs6
 .byte   W12
 .byte   Dn6
 .byte   W12
 .byte   Cs6
 .byte   W12
 .byte   Dn6
 .byte   W12
@  #02 @021   ----------------------------------------
 .byte   N32 ,Cs6
 .byte   W36
 .byte   En6
 .byte   W36
 .byte   Bn6
 .byte   W24
@  #02 @022   ----------------------------------------
 .byte   W12
 .byte   Fs6
 .byte   W36
 .byte   N68 ,Dn6
 .byte   W48
@  #02 @023   ----------------------------------------
 .byte   W96
@  #02 @024   ----------------------------------------
 .byte   W96
@  #02 @025   ----------------------------------------
 .byte   W96
@  #02 @026   ----------------------------------------
 .byte   W96
@  #02 @027   ----------------------------------------
 .byte   W96
@  #02 @028   ----------------------------------------
 .byte   W96
@  #02 @029   ----------------------------------------
 .byte   W96
@  #02 @030   ----------------------------------------
 .byte   W96
@  #02 @031   ----------------------------------------
 .byte   W96
@  #02 @032   ----------------------------------------
 .byte   W96
@  #02 @033   ----------------------------------------
 .byte   W96
@  #02 @034   ----------------------------------------
 .byte   W96
@  #02 @035   ----------------------------------------
 .byte   W96
@  #02 @036   ----------------------------------------
 .byte   W96
@  #02 @037   ----------------------------------------
 .byte   W48
Label_015B83C3:
 .byte   W48
@  #02 @038   ----------------------------------------
 .byte   W96
@  #02 @039   ----------------------------------------
 .byte   W96
@  #02 @040   ----------------------------------------
 .byte   W96
@  #02 @041   ----------------------------------------
 .byte   W96
@  #02 @042   ----------------------------------------
 .byte   W96
@  #02 @043   ----------------------------------------
 .byte   W96
@  #02 @044   ----------------------------------------
 .byte   W96
@  #02 @045   ----------------------------------------
 .byte   W96
@  #02 @046   ----------------------------------------
 .byte   W96
@  #02 @047   ----------------------------------------
 .byte   W96
@  #02 @048   ----------------------------------------
 .byte   W96
@  #02 @049   ----------------------------------------
 .byte   W96
@  #02 @050   ----------------------------------------
 .byte   W96
@  #02 @051   ----------------------------------------
 .byte   W96
@  #02 @052   ----------------------------------------
 .byte   W96
@  #02 @053   ----------------------------------------
 .byte   W96
@  #02 @054   ----------------------------------------
 .byte   W96
@  #02 @055   ----------------------------------------
 .byte   W96
@  #02 @056   ----------------------------------------
 .byte   W96
@  #02 @057   ----------------------------------------
 .byte   W96
@  #02 @058   ----------------------------------------
 .byte   W96
@  #02 @059   ----------------------------------------
 .byte   W96
@  #02 @060   ----------------------------------------
 .byte   W96
@  #02 @061   ----------------------------------------
 .byte   W96
@  #02 @062   ----------------------------------------
 .byte   W96
@  #02 @063   ----------------------------------------
 .byte   W96
@  #02 @064   ----------------------------------------
 .byte   W96
@  #02 @065   ----------------------------------------
 .byte   W96
@  #02 @066   ----------------------------------------
 .byte   W96
@  #02 @067   ----------------------------------------
 .byte   W96
@  #02 @068   ----------------------------------------
 .byte   W96
@  #02 @069   ----------------------------------------
 .byte   W96
@  #02 @070   ----------------------------------------
 .byte   W96
@  #02 @071   ----------------------------------------
 .byte   W96
@  #02 @072   ----------------------------------------
 .byte   W96
@  #02 @073   ----------------------------------------
 .byte   W96
@  #02 @074   ----------------------------------------
 .byte   W96
@  #02 @075   ----------------------------------------
 .byte   W96
@  #02 @076   ----------------------------------------
 .byte   W96
@  #02 @077   ----------------------------------------
 .byte   W96
@  #02 @078   ----------------------------------------
 .byte   W96
@  #02 @079   ----------------------------------------
 .byte   W48
 .byte   GOTO
  .word Label_015B83C3
@  #02 @080   ----------------------------------------
 .byte   W48
 .byte   W96
@  #02 @081   ----------------------------------------
 .byte   W96
@  #02 @082   ----------------------------------------
 .byte   W96
@  #02 @083   ----------------------------------------
 .byte   W96
@  #02 @084   ----------------------------------------
 .byte   W96
@  #02 @085   ----------------------------------------
 .byte   W44
 .byte   W03
 .byte   FINE

@**************** Track 3 (Midi-Chn.2) ****************@

song0149_003:
@  #03 @000   ----------------------------------------
 .byte   VOL , 80*song0149_mvl/mxv
 .byte   KEYSH , song0149_key+0
 .byte   VOICE , 73
 .byte   W96
@  #03 @001   ----------------------------------------
 .byte   W96
@  #03 @002   ----------------------------------------
 .byte   W96
@  #03 @003   ----------------------------------------
 .byte   W96
@  #03 @004   ----------------------------------------
 .byte   W96
@  #03 @005   ----------------------------------------
 .byte   W96
@  #03 @006   ----------------------------------------
 .byte   W96
@  #03 @007   ----------------------------------------
 .byte   W96
@  #03 @008   ----------------------------------------
 .byte   W60
 .byte   N11 ,Bn2 ,v080
 .byte   W12
 .byte   En3
 .byte   W12
 .byte   Cs3
 .byte   W12
@  #03 @009   ----------------------------------------
Label_015B8633:
 .byte   N23 ,En3 ,v080
 .byte   W24
 .byte   N32
 .byte   W36
 .byte   N11
 .byte   W12
 .byte   N68 ,Ds3
 .byte   W24
 .byte   PEND 
@  #03 @010   ----------------------------------------
 .byte   W48
 .byte   N23 ,En3
 .byte   W24
 .byte   N32
 .byte   W24
@  #03 @011   ----------------------------------------
 .byte   W12
 .byte   N11
 .byte   W12
 .byte   N68 ,Ds3
 .byte   W72
@  #03 @012   ----------------------------------------
 .byte   PATT
  .word Label_015B8633
@  #03 @013   ----------------------------------------
 .byte   W48
 .byte   N23 ,En4 ,v080
 .byte   W24
 .byte   N32
 .byte   W24
@  #03 @014   ----------------------------------------
 .byte   W12
 .byte   N11
 .byte   W12
 .byte   N68 ,Ds4
 .byte   W72
@  #03 @015   ----------------------------------------
 .byte   N23 ,En4
 .byte   W24
 .byte   N32
 .byte   W36
 .byte   N11
 .byte   W12
 .byte   N68 ,Ds4
 .byte   W24
@  #03 @016   ----------------------------------------
 .byte   W48
 .byte   N23 ,Fs4
 .byte   W24
 .byte   N32
 .byte   W24
@  #03 @017   ----------------------------------------
 .byte   W12
 .byte   N11
 .byte   W12
 .byte   N32 ,Cs4
 .byte   W36
 .byte   N11 ,Gs2
 .byte   W12
 .byte   An2
 .byte   W12
 .byte   Bn2
 .byte   W12
@  #03 @018   ----------------------------------------
 .byte   N23 ,Cs3
 .byte   W24
 .byte   N11
 .byte   W12
 .byte   An2
 .byte   W12
 .byte   Bn2
 .byte   W12
 .byte   Cs3
 .byte   W12
 .byte   N68 ,Ds3
 .byte   W24
@  #03 @019   ----------------------------------------
 .byte   W48
 .byte   N23 ,Cs3
 .byte   W24
 .byte   An2
 .byte   W24
@  #03 @020   ----------------------------------------
 .byte   N11 ,Gs2
 .byte   W12
 .byte   An2
 .byte   W12
 .byte   N68 ,Bn2
 .byte   W72
@  #03 @021   ----------------------------------------
 .byte   W36
 .byte   N11 ,En4
 .byte   W12
 .byte   Fs4
 .byte   W12
 .byte   An4
 .byte   W12
 .byte   N68 ,En4
 .byte   W24
@  #03 @022   ----------------------------------------
 .byte   W48
 .byte   N11 ,Gn3
 .byte   W12
 .byte   Dn4
 .byte   W12
 .byte   En4
 .byte   W12
 .byte   Fs4
 .byte   W12
@  #03 @023   ----------------------------------------
 .byte   Dn4
 .byte   W12
 .byte   En4
 .byte   W12
 .byte   N68 ,Fs4
 .byte   W72
@  #03 @024   ----------------------------------------
 .byte   N11 ,Gn3
 .byte   W12
 .byte   Dn4
 .byte   W12
 .byte   En4
 .byte   W12
 .byte   Fs4
 .byte   W12
 .byte   Cs4
 .byte   W12
 .byte   Dn4
 .byte   W12
 .byte   N68 ,Fn4
 .byte   W24
@  #03 @025   ----------------------------------------
 .byte   W96
@  #03 @026   ----------------------------------------
 .byte   W96
@  #03 @027   ----------------------------------------
 .byte   W96
@  #03 @028   ----------------------------------------
 .byte   W96
@  #03 @029   ----------------------------------------
 .byte   W96
@  #03 @030   ----------------------------------------
 .byte   W96
@  #03 @031   ----------------------------------------
 .byte   W96
@  #03 @032   ----------------------------------------
 .byte   W96
@  #03 @033   ----------------------------------------
 .byte   W96
@  #03 @034   ----------------------------------------
 .byte   W96
@  #03 @035   ----------------------------------------
 .byte   W96
@  #03 @036   ----------------------------------------
 .byte   W96
@  #03 @037   ----------------------------------------
 .byte   W48
Label_015B86CF:
 .byte   W48
@  #03 @038   ----------------------------------------
 .byte   W96
@  #03 @039   ----------------------------------------
 .byte   W96
@  #03 @040   ----------------------------------------
 .byte   W96
@  #03 @041   ----------------------------------------
 .byte   W96
@  #03 @042   ----------------------------------------
 .byte   W96
@  #03 @043   ----------------------------------------
 .byte   W96
@  #03 @044   ----------------------------------------
 .byte   W96
@  #03 @045   ----------------------------------------
 .byte   W96
@  #03 @046   ----------------------------------------
 .byte   W96
@  #03 @047   ----------------------------------------
 .byte   W96
@  #03 @048   ----------------------------------------
 .byte   W96
@  #03 @049   ----------------------------------------
 .byte   W96
@  #03 @050   ----------------------------------------
 .byte   W96
@  #03 @051   ----------------------------------------
 .byte   W96
@  #03 @052   ----------------------------------------
 .byte   W96
@  #03 @053   ----------------------------------------
 .byte   W96
@  #03 @054   ----------------------------------------
 .byte   W96
@  #03 @055   ----------------------------------------
 .byte   W96
@  #03 @056   ----------------------------------------
 .byte   W96
@  #03 @057   ----------------------------------------
 .byte   W96
@  #03 @058   ----------------------------------------
 .byte   W96
@  #03 @059   ----------------------------------------
 .byte   W96
@  #03 @060   ----------------------------------------
 .byte   W96
@  #03 @061   ----------------------------------------
 .byte   W96
@  #03 @062   ----------------------------------------
 .byte   W96
@  #03 @063   ----------------------------------------
 .byte   W96
@  #03 @064   ----------------------------------------
 .byte   W96
@  #03 @065   ----------------------------------------
 .byte   W96
@  #03 @066   ----------------------------------------
 .byte   W96
@  #03 @067   ----------------------------------------
 .byte   W96
@  #03 @068   ----------------------------------------
 .byte   W96
@  #03 @069   ----------------------------------------
 .byte   W96
@  #03 @070   ----------------------------------------
 .byte   W96
@  #03 @071   ----------------------------------------
 .byte   W96
@  #03 @072   ----------------------------------------
 .byte   W96
@  #03 @073   ----------------------------------------
 .byte   W96
@  #03 @074   ----------------------------------------
 .byte   W96
@  #03 @075   ----------------------------------------
 .byte   W96
@  #03 @076   ----------------------------------------
 .byte   W96
@  #03 @077   ----------------------------------------
 .byte   W96
@  #03 @078   ----------------------------------------
 .byte   W96
@  #03 @079   ----------------------------------------
 .byte   W48
 .byte   GOTO
  .word Label_015B86CF
@  #03 @080   ----------------------------------------
 .byte   W48
 .byte   W96
@  #03 @081   ----------------------------------------
 .byte   W96
@  #03 @082   ----------------------------------------
 .byte   W96
@  #03 @083   ----------------------------------------
 .byte   W96
@  #03 @084   ----------------------------------------
 .byte   W96
@  #03 @085   ----------------------------------------
 .byte   W44
 .byte   W03
 .byte   FINE

@**************** Track 4 (Midi-Chn.3) ****************@

song0149_004:
@  #04 @000   ----------------------------------------
 .byte   KEYSH , song0149_key+0
 .byte   VOICE , 34
 .byte   VOL , 80*song0149_mvl/mxv
 .byte   PAN , c_v+2
 .byte   W96
@  #04 @001   ----------------------------------------
 .byte   W96
@  #04 @002   ----------------------------------------
 .byte   W96
@  #04 @003   ----------------------------------------
 .byte   W96
@  #04 @004   ----------------------------------------
 .byte   W96
@  #04 @005   ----------------------------------------
 .byte   W96
@  #04 @006   ----------------------------------------
 .byte   W96
@  #04 @007   ----------------------------------------
 .byte   W96
@  #04 @008   ----------------------------------------
 .byte   W96
@  #04 @009   ----------------------------------------
 .byte   W96
@  #04 @010   ----------------------------------------
 .byte   W96
@  #04 @011   ----------------------------------------
 .byte   W96
@  #04 @012   ----------------------------------------
 .byte   W96
@  #04 @013   ----------------------------------------
 .byte   W96
@  #04 @014   ----------------------------------------
 .byte   W96
@  #04 @015   ----------------------------------------
 .byte   W96
@  #04 @016   ----------------------------------------
 .byte   W96
@  #04 @017   ----------------------------------------
 .byte   W96
@  #04 @018   ----------------------------------------
 .byte   W96
@  #04 @019   ----------------------------------------
 .byte   W96
@  #04 @020   ----------------------------------------
 .byte   W96
@  #04 @021   ----------------------------------------
 .byte   W96
@  #04 @022   ----------------------------------------
 .byte   W96
@  #04 @023   ----------------------------------------
 .byte   W96
@  #04 @024   ----------------------------------------
 .byte   W96
@  #04 @025   ----------------------------------------
 .byte   W48
 .byte   N23 ,Dn2 ,v080
 .byte   W24
 .byte   Fs2
 .byte   W24
@  #04 @026   ----------------------------------------
Label_015B844C:
 .byte   N23 ,Cs3 ,v080
 .byte   W24
 .byte   Dn2
 .byte   W24
 .byte   Fs2
 .byte   W24
 .byte   Cs3
 .byte   W24
 .byte   PEND 
@  #04 @027   ----------------------------------------
Label_015B8457:
 .byte   N23 ,En2 ,v080
 .byte   W24
 .byte   Bn2
 .byte   W24
 .byte   En3
 .byte   W24
 .byte   En2
 .byte   W24
 .byte   PEND 
@  #04 @028   ----------------------------------------
Label_015B8462:
 .byte   N23 ,Bn2 ,v080
 .byte   W24
 .byte   Gs3
 .byte   W24
 .byte   Fs2
 .byte   W24
 .byte   Cs3
 .byte   W24
 .byte   PEND 
@  #04 @029   ----------------------------------------
Label_015B846D:
 .byte   N23 ,Gs3 ,v080
 .byte   W24
 .byte   Fs2
 .byte   W24
 .byte   Bn2
 .byte   W24
 .byte   Gs3
 .byte   W24
 .byte   PEND 
@  #04 @030   ----------------------------------------
 .byte   En2
 .byte   W24
 .byte   Bn2
 .byte   W24
 .byte   Fs3
 .byte   W24
 .byte   En2
 .byte   W24
@  #04 @031   ----------------------------------------
 .byte   An2
 .byte   W24
 .byte   Fs3
 .byte   W24
 .byte   Dn2
 .byte   W24
 .byte   Fs2
 .byte   W24
@  #04 @032   ----------------------------------------
 .byte   PATT
  .word Label_015B844C
@  #04 @033   ----------------------------------------
 .byte   PATT
  .word Label_015B8457
@  #04 @034   ----------------------------------------
 .byte   PATT
  .word Label_015B8462
@  #04 @035   ----------------------------------------
 .byte   PATT
  .word Label_015B846D
@  #04 @036   ----------------------------------------
 .byte   N92 ,Fs2 ,v080
 .byte   N92 ,Fs4
 .byte   W96
@  #04 @037   ----------------------------------------
 .byte   N11 ,Cs3
 .byte   W12
 .byte   Bn2
 .byte   W12
 .byte   An2
 .byte   W12
 .byte   Gs2
 .byte   W12
Label_015B84AB:
 .byte   N11 ,Dn2 ,v080
 .byte   W12
 .byte   Fs2
 .byte   W12
 .byte   An2
 .byte   W12
 .byte   Cs3
 .byte   W12
@  #04 @038   ----------------------------------------
Label_015B84B5:
 .byte   N11 ,An2 ,v080
 .byte   W12
 .byte   Fs2
 .byte   W12
 .byte   Dn2
 .byte   W12
 .byte   Fs2
 .byte   W12
 .byte   An2
 .byte   W12
 .byte   Cs3
 .byte   W12
 .byte   An2
 .byte   W12
 .byte   Fs2
 .byte   W12
 .byte   PEND 
@  #04 @039   ----------------------------------------
Label_015B84C8:
 .byte   N11 ,En2 ,v080
 .byte   W12
 .byte   Bn2
 .byte   W12
 .byte   En3
 .byte   W12
 .byte   Bn2
 .byte   W12
 .byte   En3
 .byte   W12
 .byte   Bn2
 .byte   W12
 .byte   En2
 .byte   W12
 .byte   Bn2
 .byte   W12
 .byte   PEND 
@  #04 @040   ----------------------------------------
Label_015B84DB:
 .byte   N11 ,En3 ,v080
 .byte   W12
 .byte   Gs3
 .byte   W12
 .byte   En3
 .byte   W12
 .byte   Bn2
 .byte   W12
 .byte   Fs2
 .byte   W12
 .byte   Cs3
 .byte   W12
 .byte   Fs3
 .byte   W12
 .byte   Cs3
 .byte   W12
 .byte   PEND 
@  #04 @041   ----------------------------------------
Label_015B84EE:
 .byte   N11 ,Fs3 ,v080
 .byte   W12
 .byte   Cs3
 .byte   W12
 .byte   Fs2
 .byte   W12
 .byte   Cs3
 .byte   W12
 .byte   An3
 .byte   W12
 .byte   Gs3
 .byte   W12
 .byte   Cs3
 .byte   W12
 .byte   An2
 .byte   W12
 .byte   PEND 
@  #04 @042   ----------------------------------------
Label_015B8501:
 .byte   N11 ,En2 ,v080
 .byte   W12
 .byte   Bn2
 .byte   W12
 .byte   En3
 .byte   W12
 .byte   Bn2
 .byte   W12
 .byte   Gs3
 .byte   W12
 .byte   Bn2
 .byte   W12
 .byte   En2
 .byte   W12
 .byte   Bn2
 .byte   W12
 .byte   PEND 
@  #04 @043   ----------------------------------------
Label_015B8514:
 .byte   N11 ,An3 ,v080
 .byte   W12
 .byte   Gs3
 .byte   W12
 .byte   En3
 .byte   W12
 .byte   Bn2
 .byte   W12
 .byte   Dn2
 .byte   W12
 .byte   Fs2
 .byte   W12
 .byte   An2
 .byte   W12
 .byte   Cs3
 .byte   W12
 .byte   PEND 
@  #04 @044   ----------------------------------------
 .byte   PATT
  .word Label_015B84B5
@  #04 @045   ----------------------------------------
 .byte   PATT
  .word Label_015B84C8
@  #04 @046   ----------------------------------------
 .byte   PATT
  .word Label_015B84DB
@  #04 @047   ----------------------------------------
Label_015B8536:
 .byte   N11 ,Fs3 ,v080
 .byte   W12
 .byte   Cs3
 .byte   W12
 .byte   Fs2
 .byte   W12
 .byte   Cs3
 .byte   W12
 .byte   Gs3
 .byte   W12
 .byte   Fs3
 .byte   W12
 .byte   Cs3
 .byte   W12
 .byte   An2
 .byte   W12
 .byte   PEND 
@  #04 @048   ----------------------------------------
 .byte   PATT
  .word Label_015B8501
@  #04 @049   ----------------------------------------
 .byte   PATT
  .word Label_015B8514
@  #04 @050   ----------------------------------------
 .byte   PATT
  .word Label_015B84B5
@  #04 @051   ----------------------------------------
 .byte   PATT
  .word Label_015B84C8
@  #04 @052   ----------------------------------------
 .byte   PATT
  .word Label_015B84DB
@  #04 @053   ----------------------------------------
 .byte   PATT
  .word Label_015B84EE
@  #04 @054   ----------------------------------------
 .byte   PATT
  .word Label_015B8501
@  #04 @055   ----------------------------------------
 .byte   PATT
  .word Label_015B8514
@  #04 @056   ----------------------------------------
 .byte   PATT
  .word Label_015B84B5
@  #04 @057   ----------------------------------------
 .byte   PATT
  .word Label_015B84C8
@  #04 @058   ----------------------------------------
 .byte   PATT
  .word Label_015B84DB
@  #04 @059   ----------------------------------------
 .byte   PATT
  .word Label_015B8536
@  #04 @060   ----------------------------------------
 .byte   PATT
  .word Label_015B8501
@  #04 @061   ----------------------------------------
 .byte   PATT
  .word Label_015B8514
@  #04 @062   ----------------------------------------
 .byte   PATT
  .word Label_015B84B5
@  #04 @063   ----------------------------------------
 .byte   PATT
  .word Label_015B84C8
@  #04 @064   ----------------------------------------
 .byte   PATT
  .word Label_015B84DB
@  #04 @065   ----------------------------------------
 .byte   PATT
  .word Label_015B84EE
@  #04 @066   ----------------------------------------
 .byte   PATT
  .word Label_015B8501
@  #04 @067   ----------------------------------------
 .byte   PATT
  .word Label_015B8514
@  #04 @068   ----------------------------------------
 .byte   PATT
  .word Label_015B84B5
@  #04 @069   ----------------------------------------
 .byte   PATT
  .word Label_015B84C8
@  #04 @070   ----------------------------------------
 .byte   PATT
  .word Label_015B84DB
@  #04 @071   ----------------------------------------
 .byte   PATT
  .word Label_015B8536
@  #04 @072   ----------------------------------------
 .byte   PATT
  .word Label_015B8501
@  #04 @073   ----------------------------------------
 .byte   PATT
  .word Label_015B8514
@  #04 @074   ----------------------------------------
 .byte   PATT
  .word Label_015B84B5
@  #04 @075   ----------------------------------------
 .byte   PATT
  .word Label_015B84C8
@  #04 @076   ----------------------------------------
 .byte   PATT
  .word Label_015B84DB
@  #04 @077   ----------------------------------------
 .byte   PATT
  .word Label_015B84EE
@  #04 @078   ----------------------------------------
 .byte   PATT
  .word Label_015B8501
@  #04 @079   ----------------------------------------
 .byte   N11 ,An3 ,v080
 .byte   W12
 .byte   Gs3
 .byte   W12
 .byte   En3
 .byte   W12
 .byte   Bn2
 .byte   W12
 .byte   GOTO
  .word Label_015B84AB
@  #04 @080   ----------------------------------------
 .byte   N11 ,Dn2 ,v080
 .byte   W12
 .byte   Fs2
 .byte   W12
 .byte   An2
 .byte   W12
 .byte   Cs3
 .byte   W12
@  #04 @081   ----------------------------------------
 .byte   PATT
  .word Label_015B84B5
@  #04 @082   ----------------------------------------
 .byte   PATT
  .word Label_015B84C8
@  #04 @083   ----------------------------------------
 .byte   PATT
  .word Label_015B84DB
@  #04 @084   ----------------------------------------
 .byte   PATT
  .word Label_015B8536
@  #04 @085   ----------------------------------------
 .byte   TIE ,Fs2 ,v080
 .byte   W96
@  #04 @086   ----------------------------------------
 .byte   W44
 .byte   W03
 .byte   EOT
 .byte   FINE

@**************** Track 5 (Midi-Chn.4) ****************@

song0149_005:
@  #05 @000   ----------------------------------------
 .byte   KEYSH , song0149_key+0
 .byte   VOICE , 48
 .byte   PAN , c_v+5
 .byte   VOL , 59*song0149_mvl/mxv
 .byte   W96
@  #05 @001   ----------------------------------------
 .byte   W96
@  #05 @002   ----------------------------------------
 .byte   W96
@  #05 @003   ----------------------------------------
 .byte   W96
@  #05 @004   ----------------------------------------
 .byte   W96
@  #05 @005   ----------------------------------------
 .byte   W96
@  #05 @006   ----------------------------------------
 .byte   W96
@  #05 @007   ----------------------------------------
 .byte   W96
@  #05 @008   ----------------------------------------
 .byte   W96
@  #05 @009   ----------------------------------------
 .byte   W96
@  #05 @010   ----------------------------------------
 .byte   W96
@  #05 @011   ----------------------------------------
 .byte   W96
@  #05 @012   ----------------------------------------
 .byte   W96
@  #05 @013   ----------------------------------------
 .byte   W96
@  #05 @014   ----------------------------------------
 .byte   W96
@  #05 @015   ----------------------------------------
 .byte   W96
@  #05 @016   ----------------------------------------
 .byte   W96
@  #05 @017   ----------------------------------------
 .byte   W96
@  #05 @018   ----------------------------------------
 .byte   W96
@  #05 @019   ----------------------------------------
 .byte   W96
@  #05 @020   ----------------------------------------
 .byte   W96
@  #05 @021   ----------------------------------------
 .byte   W96
@  #05 @022   ----------------------------------------
 .byte   W96
@  #05 @023   ----------------------------------------
 .byte   W96
@  #05 @024   ----------------------------------------
 .byte   W96
@  #05 @025   ----------------------------------------
 .byte   W96
@  #05 @026   ----------------------------------------
 .byte   W96
@  #05 @027   ----------------------------------------
 .byte   W96
@  #05 @028   ----------------------------------------
 .byte   W96
@  #05 @029   ----------------------------------------
 .byte   W96
@  #05 @030   ----------------------------------------
 .byte   W96
@  #05 @031   ----------------------------------------
 .byte   W96
@  #05 @032   ----------------------------------------
 .byte   W96
@  #05 @033   ----------------------------------------
 .byte   W96
@  #05 @034   ----------------------------------------
 .byte   W96
@  #05 @035   ----------------------------------------
 .byte   W96
@  #05 @036   ----------------------------------------
 .byte   W96
@  #05 @037   ----------------------------------------
 .byte   W48
Label_015B8162:
 .byte   TIE ,Dn2 ,v064
 .byte   TIE ,Fs2
 .byte   TIE ,An2
 .byte   TIE ,Cs3
 .byte   W48
@  #05 @038   ----------------------------------------
 .byte   W92
 .byte   W03
 .byte   EOT
 .byte   Dn2 ,v054
 .byte   An2 ,v061
 .byte   W01
@  #05 @039   ----------------------------------------
Label_015B8174:
 .byte   TIE ,En2 ,v064
 .byte   TIE ,Bn2
 .byte   TIE ,En3
 .byte   W96
 .byte   PEND 
@  #05 @040   ----------------------------------------
 .byte   W44
 .byte   W03
 .byte   EOT
 .byte   En2 ,v059
 .byte   En3
 .byte   W01
 .byte   TIE ,Fs2
 .byte   TIE ,Cs3
 .byte   TIE ,Fs3
 .byte   W48
@  #05 @041   ----------------------------------------
 .byte   W92
 .byte   W03
 .byte   EOT
 .byte   Fs2 ,v061
 .byte   Fs3
 .byte   W01
@  #05 @042   ----------------------------------------
Label_015B8192:
 .byte   TIE ,En2 ,v064
 .byte   TIE ,Bn2
 .byte   TIE ,En3
 .byte   TIE ,Gs3
 .byte   W96
 .byte   PEND 
@  #05 @043   ----------------------------------------
 .byte   W44
 .byte   W03
 .byte   EOT
 .byte   En2 ,v059
 .byte   En3 ,v068
 .byte   W01
 .byte   TIE ,Dn2
 .byte   TIE ,Fs2
 .byte   TIE ,An2
 .byte   TIE ,Cs3
 .byte   W48
@  #05 @044   ----------------------------------------
 .byte   W92
 .byte   W03
 .byte   EOT
 .byte   Dn2 ,v054
 .byte   An2 ,v061
 .byte   W01
@  #05 @045   ----------------------------------------
 .byte   PATT
  .word Label_015B8174
@  #05 @046   ----------------------------------------
 .byte   W44
 .byte   W03
 .byte   EOT
 .byte   En2 ,v059
 .byte   En3
 .byte   W01
 .byte   TIE ,Fs2 ,v064
 .byte   TIE ,Cs3
 .byte   TIE ,Fs3
 .byte   W48
@  #05 @047   ----------------------------------------
 .byte   W92
 .byte   W03
 .byte   EOT
 .byte   Fs2 ,v061
 .byte   Fs3
 .byte   W01
@  #05 @048   ----------------------------------------
 .byte   PATT
  .word Label_015B8192
@  #05 @049   ----------------------------------------
 .byte   W44
 .byte   W03
 .byte   EOT
 .byte   En2 ,v059
 .byte   En3 ,v068
 .byte   W01
 .byte   TIE ,Dn2 ,v064
 .byte   TIE ,Fs2
 .byte   TIE ,An2
 .byte   TIE ,Cs3
 .byte   W48
@  #05 @050   ----------------------------------------
 .byte   W92
 .byte   W03
 .byte   EOT
 .byte   Dn2 ,v054
 .byte   An2 ,v061
 .byte   W01
@  #05 @051   ----------------------------------------
 .byte   PATT
  .word Label_015B8174
@  #05 @052   ----------------------------------------
 .byte   W44
 .byte   W03
 .byte   EOT
 .byte   En2 ,v059
 .byte   En3
 .byte   W01
 .byte   TIE ,Fs2 ,v064
 .byte   TIE ,Cs3
 .byte   TIE ,Fs3
 .byte   W48
@  #05 @053   ----------------------------------------
 .byte   W92
 .byte   W03
 .byte   EOT
 .byte   Fs2 ,v061
 .byte   Fs3
 .byte   W01
@  #05 @054   ----------------------------------------
 .byte   PATT
  .word Label_015B8192
@  #05 @055   ----------------------------------------
 .byte   W44
 .byte   W03
 .byte   EOT
 .byte   En2 ,v059
 .byte   En3 ,v068
 .byte   W01
 .byte   TIE ,Dn2 ,v064
 .byte   TIE ,Fs2
 .byte   TIE ,An2
 .byte   TIE ,Cs3
 .byte   W48
@  #05 @056   ----------------------------------------
 .byte   W92
 .byte   W03
 .byte   EOT
 .byte   Dn2 ,v054
 .byte   An2 ,v061
 .byte   W01
@  #05 @057   ----------------------------------------
 .byte   PATT
  .word Label_015B8174
@  #05 @058   ----------------------------------------
 .byte   W44
 .byte   W03
 .byte   EOT
 .byte   En2 ,v059
 .byte   En3
 .byte   W01
 .byte   TIE ,Fs2 ,v064
 .byte   TIE ,Cs3
 .byte   TIE ,Fs3
 .byte   W48
@  #05 @059   ----------------------------------------
 .byte   W92
 .byte   W03
 .byte   EOT
 .byte   Fs2 ,v061
 .byte   Fs3
 .byte   W01
@  #05 @060   ----------------------------------------
 .byte   PATT
  .word Label_015B8192
@  #05 @061   ----------------------------------------
 .byte   W44
 .byte   W03
 .byte   EOT
 .byte   En2 ,v059
 .byte   En3 ,v068
 .byte   W01
 .byte   TIE ,Dn2 ,v064
 .byte   TIE ,Fs2
 .byte   TIE ,An2
 .byte   TIE ,Cs3
 .byte   W48
@  #05 @062   ----------------------------------------
 .byte   W92
 .byte   W03
 .byte   EOT
 .byte   Dn2 ,v054
 .byte   An2 ,v061
 .byte   W01
@  #05 @063   ----------------------------------------
 .byte   PATT
  .word Label_015B8174
@  #05 @064   ----------------------------------------
 .byte   W44
 .byte   W03
 .byte   EOT
 .byte   En2 ,v059
 .byte   En3
 .byte   W01
 .byte   TIE ,Fs2 ,v064
 .byte   TIE ,Cs3
 .byte   TIE ,Fs3
 .byte   W48
@  #05 @065   ----------------------------------------
 .byte   W92
 .byte   W03
 .byte   EOT
 .byte   Fs2 ,v061
 .byte   Fs3
 .byte   W01
@  #05 @066   ----------------------------------------
 .byte   PATT
  .word Label_015B8192
@  #05 @067   ----------------------------------------
 .byte   W44
 .byte   W03
 .byte   EOT
 .byte   En2 ,v059
 .byte   En3 ,v068
 .byte   W01
 .byte   TIE ,Dn2 ,v064
 .byte   TIE ,Fs2
 .byte   TIE ,An2
 .byte   TIE ,Cs3
 .byte   W48
@  #05 @068   ----------------------------------------
 .byte   W92
 .byte   W03
 .byte   EOT
 .byte   Dn2 ,v054
 .byte   An2 ,v061
 .byte   W01
@  #05 @069   ----------------------------------------
 .byte   PATT
  .word Label_015B8174
@  #05 @070   ----------------------------------------
 .byte   W44
 .byte   W03
 .byte   EOT
 .byte   En2 ,v059
 .byte   En3
 .byte   W01
 .byte   TIE ,Fs2 ,v064
 .byte   TIE ,Cs3
 .byte   TIE ,Fs3
 .byte   W48
@  #05 @071   ----------------------------------------
 .byte   W92
 .byte   W03
 .byte   EOT
 .byte   Fs2 ,v061
 .byte   Fs3
 .byte   W01
@  #05 @072   ----------------------------------------
 .byte   PATT
  .word Label_015B8192
@  #05 @073   ----------------------------------------
 .byte   W44
 .byte   W03
 .byte   EOT
 .byte   En2 ,v059
 .byte   En3 ,v068
 .byte   W01
 .byte   TIE ,Dn2 ,v064
 .byte   TIE ,Fs2
 .byte   TIE ,An2
 .byte   TIE ,Cs3
 .byte   W48
@  #05 @074   ----------------------------------------
 .byte   W92
 .byte   W03
 .byte   EOT
 .byte   Dn2 ,v054
 .byte   An2 ,v061
 .byte   W01
@  #05 @075   ----------------------------------------
 .byte   PATT
  .word Label_015B8174
@  #05 @076   ----------------------------------------
 .byte   W44
 .byte   W03
 .byte   EOT
 .byte   En2 ,v059
 .byte   En3
 .byte   W01
 .byte   TIE ,Fs2 ,v064
 .byte   TIE ,Cs3
 .byte   TIE ,Fs3
 .byte   W48
@  #05 @077   ----------------------------------------
 .byte   W92
 .byte   W03
 .byte   EOT
 .byte   Fs2 ,v061
 .byte   Fs3
 .byte   W01
@  #05 @078   ----------------------------------------
 .byte   PATT
  .word Label_015B8192
@  #05 @079   ----------------------------------------
 .byte   W44
 .byte   W03
 .byte   EOT
 .byte   En2 ,v059
 .byte   En3 ,v068
 .byte   W01
 .byte   GOTO
  .word Label_015B8162
@  #05 @080   ----------------------------------------
 .byte   TIE ,Dn2 ,v064
 .byte   TIE ,Fs2
 .byte   TIE ,An2
 .byte   TIE ,Cs3
 .byte   W48
 .byte   W92
@  #05 @081   ----------------------------------------
 .byte   W03
 .byte   EOT
 .byte   Dn2 ,v054
 .byte   An2 ,v061
 .byte   W01
@  #05 @082   ----------------------------------------
 .byte   PATT
  .word Label_015B8174
@  #05 @083   ----------------------------------------
 .byte   W44
 .byte   W03
 .byte   EOT
 .byte   En2 ,v059
 .byte   En3
 .byte   W01
 .byte   TIE ,Fs2 ,v064
 .byte   TIE ,Cs3
 .byte   TIE ,Fs3
 .byte   W48
@  #05 @084   ----------------------------------------
 .byte   W92
 .byte   W03
 .byte   EOT
 .byte   Fs2 ,v061
 .byte   Fs3
 .byte   W01
@  #05 @085   ----------------------------------------
 .byte   TIE ,Fs3 ,v080
 .byte   TIE ,Bn3
 .byte   TIE ,En4
 .byte   W96
@  #05 @086   ----------------------------------------
 .byte   W44
 .byte   W03
 .byte   EOT
 .byte   Fs3 ,v071
 .byte   En4
 .byte   FINE

@**************** Track 6 (Midi-Chn.5) ****************@

song0149_006:
@  #06 @000   ----------------------------------------
 .byte   KEYSH , song0149_key+0
 .byte   VOICE , 1
 .byte   VOL , 80*song0149_mvl/mxv
 .byte   PAN , c_v+2
 .byte   W96
@  #06 @001   ----------------------------------------
 .byte   W96
@  #06 @002   ----------------------------------------
 .byte   W48
 .byte   N11 ,Ds4 ,v080
 .byte   W12
 .byte   En4
 .byte   W12
 .byte   N02 ,Ds4
 .byte   W03
 .byte   En4
 .byte   W03
 .byte   N05 ,Ds4
 .byte   W06
 .byte   N11 ,Bn3
 .byte   W12
@  #06 @003   ----------------------------------------
 .byte   N32 ,Cs4
 .byte   W36
 .byte   N23 ,Fs4
 .byte   W24
 .byte   N11 ,An4
 .byte   W12
 .byte   N23 ,Fs4
 .byte   W24
@  #06 @004   ----------------------------------------
 .byte   N11 ,Gs4
 .byte   W12
 .byte   An4
 .byte   W12
 .byte   Bn4
 .byte   W12
 .byte   Gs4
 .byte   W12
 .byte   N32 ,An4
 .byte   W36
 .byte   N23 ,Gs4
 .byte   W12
@  #06 @005   ----------------------------------------
 .byte   W12
 .byte   N05 ,Fs4
 .byte   W06
 .byte   En4
 .byte   W06
 .byte   N23 ,Ds4
 .byte   W24
 .byte   N11 ,An4
 .byte   W12
 .byte   Bn4
 .byte   W12
 .byte   Cs5
 .byte   W12
 .byte   Ds5
 .byte   W12
@  #06 @006   ----------------------------------------
 .byte   N32 ,An4
 .byte   W36
 .byte   N23 ,Gs4
 .byte   W24
 .byte   N11 ,Cs4
 .byte   W12
 .byte   N23 ,Fs4
 .byte   W24
@  #06 @007   ----------------------------------------
 .byte   En4
 .byte   W24
 .byte   Ds4
 .byte   W24
 .byte   N11 ,En4
 .byte   W12
 .byte   Ds4
 .byte   W12
 .byte   Cs4
 .byte   W12
 .byte   N23 ,Bn3
 .byte   W12
@  #06 @008   ----------------------------------------
 .byte   W12
 .byte   N11 ,Fs4
 .byte   W12
 .byte   N32 ,Cs4
 .byte   W36
 .byte   N11 ,Gs3 ,v096
 .byte   W12
 .byte   An3
 .byte   W12
 .byte   Gs3
 .byte   W12
@  #06 @009   ----------------------------------------
 .byte   TIE ,Bn3
 .byte   W96
@  #06 @010   ----------------------------------------
 .byte   W44
 .byte   W03
 .byte   EOT
 .byte   W48
 .byte   W01
@  #06 @011   ----------------------------------------
Label_01943D92:
 .byte   W60
 .byte   N11 ,Gs4 ,v096
 .byte   W12
 .byte   An4
 .byte   W12
 .byte   Gs4
 .byte   W12
 .byte   PEND 
@  #06 @012   ----------------------------------------
 .byte   TIE ,Bn4
 .byte   W96
@  #06 @013   ----------------------------------------
 .byte   W44
 .byte   W03
 .byte   EOT
 .byte   W48
 .byte   W01
@  #06 @014   ----------------------------------------
 .byte   W96
@  #06 @015   ----------------------------------------
 .byte   W96
@  #06 @016   ----------------------------------------
 .byte   W96
@  #06 @017   ----------------------------------------
 .byte   PATT
  .word Label_01943D92
@  #06 @018   ----------------------------------------
 .byte   TIE ,Bn4 ,v096
 .byte   W96
@  #06 @019   ----------------------------------------
 .byte   W44
 .byte   W03
 .byte   EOT
 .byte   W48
 .byte   W01
@  #06 @020   ----------------------------------------
 .byte   W96
@  #06 @021   ----------------------------------------
 .byte   W96
@  #06 @022   ----------------------------------------
 .byte   W96
@  #06 @023   ----------------------------------------
 .byte   W96
@  #06 @024   ----------------------------------------
 .byte   W96
@  #06 @025   ----------------------------------------
 .byte   W48
 .byte   N23 ,Cs4 ,v080
 .byte   W24
 .byte   Fs4
 .byte   W24
@  #06 @026   ----------------------------------------
 .byte   An4
 .byte   W24
 .byte   N44 ,Fs4
 .byte   W48
 .byte   N11 ,Gs4
 .byte   W12
 .byte   An4
 .byte   W12
@  #06 @027   ----------------------------------------
 .byte   N32 ,Bn4
 .byte   W36
 .byte   N11 ,An4
 .byte   W12
 .byte   Gs4
 .byte   W12
 .byte   Fs4
 .byte   W12
 .byte   N23 ,Cs4
 .byte   W24
@  #06 @028   ----------------------------------------
 .byte   N11 ,Gs4
 .byte   W12
 .byte   An4
 .byte   W12
 .byte   Bn4
 .byte   W12
 .byte   Cs5
 .byte   W12
 .byte   TIE ,Gs4
 .byte   W48
@  #06 @029   ----------------------------------------
 .byte   W92
 .byte   W03
 .byte   EOT
 .byte   W01
@  #06 @030   ----------------------------------------
 .byte   N44
 .byte   W48
 .byte   N23 ,Fs4
 .byte   W24
 .byte   N68 ,Cs4
 .byte   W24
@  #06 @031   ----------------------------------------
 .byte   W48
 .byte   N23 ,Fs3
 .byte   N23 ,Cs4
 .byte   W24
 .byte   N23
 .byte   N23 ,Fs4
 .byte   W24
@  #06 @032   ----------------------------------------
 .byte   En4
 .byte   N23 ,An4
 .byte   W24
 .byte   N44 ,Cs4
 .byte   N44 ,Fs4
 .byte   W48
 .byte   N11 ,En4
 .byte   N11 ,Gs4
 .byte   W12
 .byte   Fs4
 .byte   N11 ,An4
 .byte   W12
@  #06 @033   ----------------------------------------
 .byte   N32 ,Gs4
 .byte   N32 ,Bn4
 .byte   W36
 .byte   N11 ,En4
 .byte   N11 ,An4
 .byte   W12
 .byte   Cs4
 .byte   N11 ,Gs4
 .byte   W12
 .byte   Bn3
 .byte   N11 ,Fs4
 .byte   W12
 .byte   N23 ,An3
 .byte   N23 ,Cs4
 .byte   W24
@  #06 @034   ----------------------------------------
 .byte   N11
 .byte   N11 ,Gs4
 .byte   W12
 .byte   En4
 .byte   N11 ,An4
 .byte   W12
 .byte   Fs4
 .byte   N11 ,Bn4
 .byte   W12
 .byte   Gs4
 .byte   N11 ,Cs5
 .byte   W12
 .byte   TIE ,Bn4
 .byte   TIE ,En5
 .byte   W48
@  #06 @035   ----------------------------------------
 .byte   W92
 .byte   W03
 .byte   EOT
 .byte   Bn4 ,v088
 .byte   W01
@  #06 @036   ----------------------------------------
 .byte   N92 ,As4
 .byte   N92 ,Cs5
 .byte   W96
@  #06 @037   ----------------------------------------
 .byte   N11 ,An3 ,v096
 .byte   W12
 .byte   Gs3
 .byte   W12
 .byte   Fs3
 .byte   W12
 .byte   En3
 .byte   W12
Label_01943E4D:
 .byte   N23 ,An2 ,v096
 .byte   N23 ,Cs3
 .byte   W24
 .byte   N23
 .byte   N23 ,Fs3
 .byte   W24
@  #06 @038   ----------------------------------------
Label_01943E57:
 .byte   N23 ,En3 ,v096
 .byte   N23 ,An3
 .byte   W24
 .byte   N44 ,Cs3
 .byte   N44 ,Fs3
 .byte   W48
 .byte   N11 ,Cs3
 .byte   N11 ,Gs3
 .byte   W12
 .byte   Dn3
 .byte   N11 ,An3
 .byte   W12
 .byte   PEND 
@  #06 @039   ----------------------------------------
Label_01943E6C:
 .byte   N23 ,En3 ,v096
 .byte   N23 ,Bn3
 .byte   W24
 .byte   Dn3
 .byte   N23 ,An3
 .byte   W24
 .byte   N11 ,Cs3
 .byte   N11 ,Gs3
 .byte   W12
 .byte   Bn2
 .byte   N11 ,Fs3
 .byte   W12
 .byte   N23 ,Gs2
 .byte   N23 ,Cs3
 .byte   W24
 .byte   PEND 
@  #06 @040   ----------------------------------------
Label_01943E85:
 .byte   N11 ,Cs3 ,v096
 .byte   N11 ,Gs3
 .byte   W12
 .byte   En3
 .byte   N11 ,An3
 .byte   W12
 .byte   Fs3
 .byte   N11 ,Bn3
 .byte   W12
 .byte   Gs3
 .byte   N11 ,Cs4
 .byte   W12
 .byte   TIE ,Cs3
 .byte   W01
 .byte   En3
 .byte   W02
 .byte   Gs3
 .byte   W44
 .byte   W01
 .byte   PEND 
@  #06 @041   ----------------------------------------
 .byte   W92
 .byte   W03
 .byte   EOT
 .byte   Cs3 ,v064
 .byte   Gs3
 .byte   W01
@  #06 @042   ----------------------------------------
Label_01943EA7:
 .byte   N44 ,Bn2 ,v096
 .byte   W03
 .byte   Cs3
 .byte   W03
 .byte   N40 ,Gs3
 .byte   W42
 .byte   N23 ,Bn2
 .byte   N23 ,Fs3
 .byte   W24
 .byte   N44 ,Fs2
 .byte   N44 ,Cs3
 .byte   W24
 .byte   PEND 
@  #06 @043   ----------------------------------------
Label_01943EBB:
 .byte   W48
 .byte   N23 ,An2 ,v096
 .byte   N23 ,Cs3
 .byte   W24
 .byte   N23
 .byte   N23 ,Fs3
 .byte   W24
 .byte   PEND 
@  #06 @044   ----------------------------------------
 .byte   PATT
  .word Label_01943E57
@  #06 @045   ----------------------------------------
 .byte   PATT
  .word Label_01943E6C
@  #06 @046   ----------------------------------------
Label_01943ED1:
 .byte   N11 ,Cs3 ,v096
 .byte   N11 ,Gs3
 .byte   W12
 .byte   En3
 .byte   N11 ,An3
 .byte   W12
 .byte   Fs3
 .byte   N11 ,Bn3
 .byte   W12
 .byte   Gs3
 .byte   N11 ,Cs4
 .byte   W12
 .byte   TIE ,Cs3
 .byte   W01
 .byte   Fs3
 .byte   W02
 .byte   Gs3
 .byte   W44
 .byte   W01
 .byte   PEND 
@  #06 @047   ----------------------------------------
 .byte   W92
 .byte   W03
 .byte   EOT
 .byte   Cs3 ,v066
 .byte   Gs3
 .byte   W01
@  #06 @048   ----------------------------------------
Label_01943EF3:
 .byte   N44 ,An3 ,v096
 .byte   W03
 .byte   Cs4
 .byte   W03
 .byte   N40 ,Fs4
 .byte   W42
 .byte   N23 ,En4
 .byte   N23 ,An4
 .byte   W24
 .byte   N68 ,En4
 .byte   N68 ,Gs4
 .byte   W24
 .byte   PEND 
@  #06 @049   ----------------------------------------
 .byte   PATT
  .word Label_01943EBB
@  #06 @050   ----------------------------------------
 .byte   PATT
  .word Label_01943E57
@  #06 @051   ----------------------------------------
 .byte   PATT
  .word Label_01943E6C
@  #06 @052   ----------------------------------------
 .byte   PATT
  .word Label_01943E85
@  #06 @053   ----------------------------------------
 .byte   W92
 .byte   W03
 .byte   EOT
 .byte   Cs3 ,v064
 .byte   Gs3
 .byte   W01
@  #06 @054   ----------------------------------------
 .byte   PATT
  .word Label_01943EA7
@  #06 @055   ----------------------------------------
 .byte   PATT
  .word Label_01943EBB
@  #06 @056   ----------------------------------------
 .byte   PATT
  .word Label_01943E57
@  #06 @057   ----------------------------------------
 .byte   PATT
  .word Label_01943E6C
@  #06 @058   ----------------------------------------
 .byte   PATT
  .word Label_01943ED1
@  #06 @059   ----------------------------------------
 .byte   W92
 .byte   W03
 .byte   EOT
 .byte   Cs3 ,v066
 .byte   Gs3
 .byte   W01
@  #06 @060   ----------------------------------------
 .byte   PATT
  .word Label_01943EF3
@  #06 @061   ----------------------------------------
 .byte   PATT
  .word Label_01943EBB
@  #06 @062   ----------------------------------------
 .byte   PATT
  .word Label_01943E57
@  #06 @063   ----------------------------------------
 .byte   PATT
  .word Label_01943E6C
@  #06 @064   ----------------------------------------
 .byte   PATT
  .word Label_01943E85
@  #06 @065   ----------------------------------------
 .byte   W92
 .byte   W03
 .byte   EOT
 .byte   Cs3 ,v064
 .byte   Gs3
 .byte   W01
@  #06 @066   ----------------------------------------
 .byte   N44 ,Bn2 ,v096
 .byte   W03
 .byte   Cs3
 .byte   W03
 .byte   N40 ,Gs3
 .byte   W42
 .byte   N23 ,Bn2
 .byte   N23 ,Fs3
 .byte   W24
 .byte   N68 ,Fs2
 .byte   N68 ,Cs3
 .byte   W24
@  #06 @067   ----------------------------------------
 .byte   PATT
  .word Label_01943EBB
@  #06 @068   ----------------------------------------
 .byte   PATT
  .word Label_01943E57
@  #06 @069   ----------------------------------------
 .byte   PATT
  .word Label_01943E6C
@  #06 @070   ----------------------------------------
 .byte   PATT
  .word Label_01943ED1
@  #06 @071   ----------------------------------------
 .byte   W92
 .byte   W03
 .byte   EOT
 .byte   Cs3 ,v066
 .byte   Gs3
 .byte   W01
@  #06 @072   ----------------------------------------
 .byte   PATT
  .word Label_01943EF3
@  #06 @073   ----------------------------------------
 .byte   PATT
  .word Label_01943EBB
@  #06 @074   ----------------------------------------
 .byte   PATT
  .word Label_01943E57
@  #06 @075   ----------------------------------------
 .byte   PATT
  .word Label_01943E6C
@  #06 @076   ----------------------------------------
 .byte   PATT
  .word Label_01943E85
@  #06 @077   ----------------------------------------
 .byte   W92
 .byte   W03
 .byte   EOT
 .byte   Cs3 ,v064
 .byte   Gs3
 .byte   W01
@  #06 @078   ----------------------------------------
 .byte   N44 ,Bn2 ,v096
 .byte   W03
 .byte   En3
 .byte   W03
 .byte   N40 ,Gs3
 .byte   W42
 .byte   N23 ,Gs2
 .byte   N23 ,Cs3
 .byte   N23 ,Fs3
 .byte   W24
 .byte   Cs3
 .byte   N23 ,Fs3
 .byte   N23 ,An3
 .byte   W24
@  #06 @079   ----------------------------------------
 .byte   Bn2
 .byte   N23 ,En3
 .byte   N23 ,Gs3
 .byte   W24
 .byte   Bn2
 .byte   N23 ,En3
 .byte   W24
 .byte   GOTO
  .word Label_01943E4D
@  #06 @080   ----------------------------------------
 .byte   N23 ,An2 ,v096
 .byte   N23 ,Cs3
 .byte   W24
 .byte   N23
 .byte   N23 ,Fs3
 .byte   W24
@  #06 @081   ----------------------------------------
 .byte   PATT
  .word Label_01943E57
@  #06 @082   ----------------------------------------
 .byte   PATT
  .word Label_01943E6C
@  #06 @083   ----------------------------------------
 .byte   PATT
  .word Label_01943ED1
@  #06 @084   ----------------------------------------
 .byte   W92
 .byte   W03
 .byte   EOT
 .byte   Cs3 ,v066
 .byte   Gs3
 .byte   W01
@  #06 @085   ----------------------------------------
 .byte   TIE ,Bn3 ,v080
 .byte   TIE ,En4
 .byte   W96
@  #06 @086   ----------------------------------------
 .byte   W44
 .byte   W03
 .byte   EOT
 .byte   Bn3 ,v076
 .byte   FINE

@******************************************************@
	.align	2

song0149:
	.byte	6	@ NumTrks
	.byte	0	@ NumBlks
	.byte	song0149_pri	@ Priority
	.byte	song0149_rev	@ Reverb.
    
	.word	song0149_grp
    
	.word	song0149_001
	.word	song0149_002
	.word	song0149_003
	.word	song0149_004
	.word	song0149_005
	.word	song0149_006

	.end
