	.include "MPlayDef.s"

	.equ	song06_grp, voicegroup000
	.equ	song06_pri, 0
	.equ	song06_rev, 0
	.equ	song06_mvl, 127
	.equ	song06_key, 0
	.equ	song06_tbs, 1
	.equ	song06_exg, 0
	.equ	song06_cmp, 1

	.section .rodata
	.global	song06
	.align	2


@**************** Track 1 (Midi-Chn.0) ****************@

song06_001:
@  #01 @000   ----------------------------------------
 .byte   KEYSH , song06_key+0
 .byte   TEMPO , 150*song06_tbs/2
 .byte   VOICE , 34
 .byte   VOL , 47*song06_mvl/mxv
 .byte   PAN , c_v+0
 .byte   N12 ,Cn2 ,v108
 .byte   W24
 .byte   N12
 .byte   W24
 .byte   N12
 .byte   W24
 .byte   N12
 .byte   W24
@  #01 @001   ----------------------------------------
Label_01025000:
 .byte   N12 ,Cn2 ,v108
 .byte   W24
 .byte   N12
 .byte   W24
 .byte   N12
 .byte   W24
 .byte   N12
 .byte   W24
 .byte   PEND 
@  #01 @002   ----------------------------------------
 .byte   PATT
  .word Label_01025000
@  #01 @003   ----------------------------------------
 .byte   PATT
  .word Label_01025000
@  #01 @004   ----------------------------------------
 .byte   N12 ,Cn2 ,v108
 .byte   W12
Label_01025019:
 .byte   W12
 .byte   N12 ,Cn2 ,v108
 .byte   W24
 .byte   N12
 .byte   W24
 .byte   N12
 .byte   W24
@  #01 @005   ----------------------------------------
 .byte   PATT
  .word Label_01025000
@  #01 @006   ----------------------------------------
 .byte   PATT
  .word Label_01025000
@  #01 @007   ----------------------------------------
 .byte   PATT
  .word Label_01025000
@  #01 @008   ----------------------------------------
 .byte   PATT
  .word Label_01025000
@  #01 @009   ----------------------------------------
 .byte   PATT
  .word Label_01025000
@  #01 @010   ----------------------------------------
 .byte   PATT
  .word Label_01025000
@  #01 @011   ----------------------------------------
 .byte   PATT
  .word Label_01025000
@  #01 @012   ----------------------------------------
 .byte   PATT
  .word Label_01025000
@  #01 @013   ----------------------------------------
 .byte   PATT
  .word Label_01025000
@  #01 @014   ----------------------------------------
 .byte   PATT
  .word Label_01025000
@  #01 @015   ----------------------------------------
 .byte   PATT
  .word Label_01025000
@  #01 @016   ----------------------------------------
 .byte   PATT
  .word Label_01025000
@  #01 @017   ----------------------------------------
 .byte   PATT
  .word Label_01025000
@  #01 @018   ----------------------------------------
 .byte   PATT
  .word Label_01025000
@  #01 @019   ----------------------------------------
Label_01025068:
 .byte   N12 ,Cn2 ,v108
 .byte   W24
 .byte   N12
 .byte   W24
 .byte   N12
 .byte   W48
 .byte   PEND 
@  #01 @020   ----------------------------------------
Label_01025071:
 .byte   N12 ,Fn2 ,v108
 .byte   W24
 .byte   Cn2
 .byte   W24
 .byte   Fn2
 .byte   W24
 .byte   Cn2
 .byte   W24
 .byte   PEND 
@  #01 @021   ----------------------------------------
Label_0102507C:
 .byte   N12 ,Gn2 ,v108
 .byte   W24
 .byte   Dn2
 .byte   W24
 .byte   Gn2
 .byte   W24
 .byte   Dn2
 .byte   W24
 .byte   PEND 
@  #01 @022   ----------------------------------------
Label_01025087:
 .byte   N12 ,Gs2 ,v108
 .byte   W24
 .byte   Ds2
 .byte   W24
 .byte   Gs2
 .byte   W24
 .byte   Ds2
 .byte   W24
 .byte   PEND 
@  #01 @023   ----------------------------------------
Label_01025092:
 .byte   N12 ,Ds2 ,v108
 .byte   W24
 .byte   As1
 .byte   W24
 .byte   Cs2
 .byte   W24
 .byte   Gn2
 .byte   W24
 .byte   PEND 
@  #01 @024   ----------------------------------------
 .byte   PATT
  .word Label_01025071
@  #01 @025   ----------------------------------------
 .byte   PATT
  .word Label_0102507C
@  #01 @026   ----------------------------------------
 .byte   PATT
  .word Label_01025087
@  #01 @027   ----------------------------------------
Label_010250AC:
 .byte   N12 ,Fn2 ,v108
 .byte   W24
 .byte   Cn2
 .byte   W24
 .byte   N05 ,Gn2
 .byte   W12
 .byte   Fn2
 .byte   W12
 .byte   Ds2
 .byte   W12
 .byte   Dn2
 .byte   W12
 .byte   PEND 
@  #01 @028   ----------------------------------------
 .byte   PATT
  .word Label_01025071
@  #01 @029   ----------------------------------------
 .byte   PATT
  .word Label_0102507C
@  #01 @030   ----------------------------------------
 .byte   PATT
  .word Label_01025087
@  #01 @031   ----------------------------------------
 .byte   PATT
  .word Label_01025092
@  #01 @032   ----------------------------------------
Label_010250D0:
 .byte   N12 ,Fn2 ,v092
 .byte   W24
 .byte   Cn2
 .byte   W24
 .byte   Fn2
 .byte   W24
 .byte   Cn2
 .byte   W24
 .byte   PEND 
@  #01 @033   ----------------------------------------
Label_010250DB:
 .byte   N12 ,Gn2 ,v092
 .byte   W24
 .byte   Dn2
 .byte   W24
 .byte   Gn2
 .byte   W24
 .byte   Dn2
 .byte   W24
 .byte   PEND 
@  #01 @034   ----------------------------------------
Label_010250E6:
 .byte   N12 ,Gs2 ,v092
 .byte   W24
 .byte   N12
 .byte   W24
 .byte   N36
 .byte   W48
 .byte   PEND 
@  #01 @035   ----------------------------------------
Label_010250EF:
 .byte   N12 ,Gn1 ,v092
 .byte   W12
 .byte   N12
 .byte   W12
 .byte   Bn1
 .byte   W24
 .byte   Cn2
 .byte   W48
 .byte   PEND 
@  #01 @036   ----------------------------------------
Label_010250FA:
 .byte   TEMPO , 150*song06_tbs/2
 .byte   N12 ,Cn2 ,v108
 .byte   W24
 .byte   N12
 .byte   W24
 .byte   N12
 .byte   W24
 .byte   N12
 .byte   W24
 .byte   PEND 
@  #01 @037   ----------------------------------------
 .byte   PATT
  .word Label_01025000
@  #01 @038   ----------------------------------------
 .byte   PATT
  .word Label_01025000
@  #01 @039   ----------------------------------------
 .byte   PATT
  .word Label_01025000
@  #01 @040   ----------------------------------------
 .byte   N12 ,Cn2 ,v108
 .byte   W12
 .byte   GOTO
  .word Label_01025019
@  #01 @041   ----------------------------------------
 .byte   W12
 .byte   N12 ,Cn2 ,v108
 .byte   W24
 .byte   N12
 .byte   W24
 .byte   N12
 .byte   W24
@  #01 @042   ----------------------------------------
 .byte   PATT
  .word Label_01025000
@  #01 @043   ----------------------------------------
 .byte   PATT
  .word Label_01025000
@  #01 @044   ----------------------------------------
 .byte   PATT
  .word Label_01025000
@  #01 @045   ----------------------------------------
 .byte   PATT
  .word Label_01025000
@  #01 @046   ----------------------------------------
 .byte   PATT
  .word Label_01025000
@  #01 @047   ----------------------------------------
 .byte   PATT
  .word Label_01025000
@  #01 @048   ----------------------------------------
 .byte   PATT
  .word Label_01025000
@  #01 @049   ----------------------------------------
 .byte   PATT
  .word Label_01025000
@  #01 @050   ----------------------------------------
 .byte   PATT
  .word Label_01025000
@  #01 @051   ----------------------------------------
 .byte   PATT
  .word Label_01025000
@  #01 @052   ----------------------------------------
 .byte   PATT
  .word Label_01025000
@  #01 @053   ----------------------------------------
 .byte   PATT
  .word Label_01025000
@  #01 @054   ----------------------------------------
 .byte   PATT
  .word Label_01025000
@  #01 @055   ----------------------------------------
 .byte   PATT
  .word Label_01025000
@  #01 @056   ----------------------------------------
 .byte   PATT
  .word Label_01025068
@  #01 @057   ----------------------------------------
 .byte   PATT
  .word Label_01025071
@  #01 @058   ----------------------------------------
 .byte   PATT
  .word Label_0102507C
@  #01 @059   ----------------------------------------
 .byte   PATT
  .word Label_01025087
@  #01 @060   ----------------------------------------
 .byte   PATT
  .word Label_01025092
@  #01 @061   ----------------------------------------
 .byte   PATT
  .word Label_01025071
@  #01 @062   ----------------------------------------
 .byte   PATT
  .word Label_0102507C
@  #01 @063   ----------------------------------------
 .byte   PATT
  .word Label_01025087
@  #01 @064   ----------------------------------------
 .byte   PATT
  .word Label_010250AC
@  #01 @065   ----------------------------------------
 .byte   PATT
  .word Label_01025071
@  #01 @066   ----------------------------------------
 .byte   PATT
  .word Label_0102507C
@  #01 @067   ----------------------------------------
 .byte   PATT
  .word Label_01025087
@  #01 @068   ----------------------------------------
 .byte   PATT
  .word Label_01025092
@  #01 @069   ----------------------------------------
 .byte   PATT
  .word Label_010250D0
@  #01 @070   ----------------------------------------
 .byte   PATT
  .word Label_010250DB
@  #01 @071   ----------------------------------------
 .byte   PATT
  .word Label_010250E6
@  #01 @072   ----------------------------------------
 .byte   PATT
  .word Label_010250EF
@  #01 @073   ----------------------------------------
 .byte   PATT
  .word Label_010250FA
@  #01 @074   ----------------------------------------
 .byte   PATT
  .word Label_01025000
@  #01 @075   ----------------------------------------
 .byte   PATT
  .word Label_01025000
@  #01 @076   ----------------------------------------
 .byte   PATT
  .word Label_01025000
@  #01 @077   ----------------------------------------
 .byte   PATT
  .word Label_01025000
@  #01 @078   ----------------------------------------
 .byte   PATT
  .word Label_01025000
@  #01 @079   ----------------------------------------
 .byte   PATT
  .word Label_01025000
@  #01 @080   ----------------------------------------
 .byte   PATT
  .word Label_01025000
@  #01 @081   ----------------------------------------
 .byte   PATT
  .word Label_01025000
@  #01 @082   ----------------------------------------
 .byte   PATT
  .word Label_01025000
@  #01 @083   ----------------------------------------
 .byte   PATT
  .word Label_01025000
@  #01 @084   ----------------------------------------
 .byte   PATT
  .word Label_01025000
@  #01 @085   ----------------------------------------
 .byte   PATT
  .word Label_01025000
@  #01 @086   ----------------------------------------
 .byte   PATT
  .word Label_01025000
@  #01 @087   ----------------------------------------
 .byte   PATT
  .word Label_01025000
@  #01 @088   ----------------------------------------
 .byte   PATT
  .word Label_01025000
@  #01 @089   ----------------------------------------
 .byte   PATT
  .word Label_01025000
@  #01 @090   ----------------------------------------
 .byte   PATT
  .word Label_01025000
@  #01 @091   ----------------------------------------
 .byte   PATT
  .word Label_01025000
@  #01 @092   ----------------------------------------
 .byte   PATT
  .word Label_01025068
@  #01 @093   ----------------------------------------
 .byte   PATT
  .word Label_01025071
@  #01 @094   ----------------------------------------
 .byte   PATT
  .word Label_0102507C
@  #01 @095   ----------------------------------------
 .byte   PATT
  .word Label_01025087
@  #01 @096   ----------------------------------------
 .byte   PATT
  .word Label_01025092
@  #01 @097   ----------------------------------------
 .byte   PATT
  .word Label_01025071
@  #01 @098   ----------------------------------------
 .byte   PATT
  .word Label_0102507C
@  #01 @099   ----------------------------------------
 .byte   PATT
  .word Label_01025087
@  #01 @100   ----------------------------------------
 .byte   PATT
  .word Label_010250AC
@  #01 @101   ----------------------------------------
 .byte   PATT
  .word Label_01025071
@  #01 @102   ----------------------------------------
 .byte   PATT
  .word Label_0102507C
@  #01 @103   ----------------------------------------
 .byte   PATT
  .word Label_01025087
@  #01 @104   ----------------------------------------
 .byte   PATT
  .word Label_01025092
@  #01 @105   ----------------------------------------
 .byte   PATT
  .word Label_010250D0
@  #01 @106   ----------------------------------------
 .byte   PATT
  .word Label_010250DB
@  #01 @107   ----------------------------------------
 .byte   PATT
  .word Label_010250E6
@  #01 @108   ----------------------------------------
 .byte   N12 ,Gn1 ,v092
 .byte   W12
 .byte   N12
 .byte   W12
 .byte   Bn1
 .byte   W24
 .byte   Cn2
 .byte   W44
 .byte   W03
 .byte   FINE

@**************** Track 2 (Midi-Chn.1) ****************@

song06_002:
@  #02 @000   ----------------------------------------
 .byte   KEYSH , song06_key+0
 .byte   VOICE , 57
 .byte   VOL , 47*song06_mvl/mxv
 .byte   PAN , c_v+0
 .byte   W96
@  #02 @001   ----------------------------------------
 .byte   W96
@  #02 @002   ----------------------------------------
 .byte   W96
@  #02 @003   ----------------------------------------
 .byte   W96
@  #02 @004   ----------------------------------------
 .byte   W12
Label_0100C5E9:
 .byte   W84
@  #02 @005   ----------------------------------------
 .byte   W96
@  #02 @006   ----------------------------------------
 .byte   W96
@  #02 @007   ----------------------------------------
 .byte   W96
@  #02 @008   ----------------------------------------
 .byte   W96
@  #02 @009   ----------------------------------------
 .byte   W96
@  #02 @010   ----------------------------------------
 .byte   W96
@  #02 @011   ----------------------------------------
 .byte   W96
@  #02 @012   ----------------------------------------
 .byte   W96
@  #02 @013   ----------------------------------------
 .byte   W96
@  #02 @014   ----------------------------------------
 .byte   W96
@  #02 @015   ----------------------------------------
 .byte   W96
@  #02 @016   ----------------------------------------
 .byte   W96
@  #02 @017   ----------------------------------------
 .byte   W96
@  #02 @018   ----------------------------------------
 .byte   W96
@  #02 @019   ----------------------------------------
 .byte   W96
@  #02 @020   ----------------------------------------
Label_0100C5F9:
 .byte   N12 ,Fn1 ,v112
 .byte   W24
 .byte   Cn1
 .byte   W24
 .byte   Fn1
 .byte   W24
 .byte   Cn1
 .byte   W24
 .byte   PEND 
@  #02 @021   ----------------------------------------
Label_0100C604:
 .byte   N12 ,Gn1 ,v112
 .byte   W24
 .byte   Dn1
 .byte   W24
 .byte   Gn1
 .byte   W24
 .byte   Dn1
 .byte   W24
 .byte   PEND 
@  #02 @022   ----------------------------------------
Label_0100C60F:
 .byte   N12 ,Gs1 ,v112
 .byte   W24
 .byte   Ds1
 .byte   W24
 .byte   Gs1
 .byte   W24
 .byte   Ds1
 .byte   W24
 .byte   PEND 
@  #02 @023   ----------------------------------------
Label_0100C61A:
 .byte   N12 ,Ds1 ,v112
 .byte   W24
 .byte   As0
 .byte   W24
 .byte   Cs1
 .byte   W24
 .byte   Gn1
 .byte   W24
 .byte   PEND 
@  #02 @024   ----------------------------------------
 .byte   PATT
  .word Label_0100C5F9
@  #02 @025   ----------------------------------------
 .byte   PATT
  .word Label_0100C604
@  #02 @026   ----------------------------------------
 .byte   PATT
  .word Label_0100C60F
@  #02 @027   ----------------------------------------
Label_0100C634:
 .byte   N12 ,Fn1 ,v112
 .byte   W24
 .byte   Cn1
 .byte   W24
 .byte   N05 ,Gn1
 .byte   W12
 .byte   Fn1
 .byte   W12
 .byte   Ds1
 .byte   W12
 .byte   Dn1
 .byte   W12
 .byte   PEND 
@  #02 @028   ----------------------------------------
 .byte   PATT
  .word Label_0100C5F9
@  #02 @029   ----------------------------------------
 .byte   PATT
  .word Label_0100C604
@  #02 @030   ----------------------------------------
 .byte   PATT
  .word Label_0100C60F
@  #02 @031   ----------------------------------------
 .byte   PATT
  .word Label_0100C61A
@  #02 @032   ----------------------------------------
 .byte   W96
@  #02 @033   ----------------------------------------
 .byte   W96
@  #02 @034   ----------------------------------------
 .byte   W96
@  #02 @035   ----------------------------------------
 .byte   W96
@  #02 @036   ----------------------------------------
 .byte   W96
@  #02 @037   ----------------------------------------
 .byte   W96
@  #02 @038   ----------------------------------------
 .byte   W96
@  #02 @039   ----------------------------------------
 .byte   W96
@  #02 @040   ----------------------------------------
 .byte   W12
 .byte   GOTO
  .word Label_0100C5E9
@  #02 @041   ----------------------------------------
 .byte   W84
 .byte   W96
@  #02 @042   ----------------------------------------
 .byte   W96
@  #02 @043   ----------------------------------------
 .byte   W96
@  #02 @044   ----------------------------------------
 .byte   W96
@  #02 @045   ----------------------------------------
 .byte   W96
@  #02 @046   ----------------------------------------
 .byte   W96
@  #02 @047   ----------------------------------------
 .byte   W96
@  #02 @048   ----------------------------------------
 .byte   W96
@  #02 @049   ----------------------------------------
 .byte   W96
@  #02 @050   ----------------------------------------
 .byte   W96
@  #02 @051   ----------------------------------------
 .byte   W96
@  #02 @052   ----------------------------------------
 .byte   W96
@  #02 @053   ----------------------------------------
 .byte   W96
@  #02 @054   ----------------------------------------
 .byte   W96
@  #02 @055   ----------------------------------------
 .byte   W96
@  #02 @056   ----------------------------------------
 .byte   PATT
  .word Label_0100C5F9
@  #02 @057   ----------------------------------------
 .byte   PATT
  .word Label_0100C604
@  #02 @058   ----------------------------------------
 .byte   PATT
  .word Label_0100C60F
@  #02 @059   ----------------------------------------
 .byte   PATT
  .word Label_0100C61A
@  #02 @060   ----------------------------------------
 .byte   PATT
  .word Label_0100C5F9
@  #02 @061   ----------------------------------------
 .byte   PATT
  .word Label_0100C604
@  #02 @062   ----------------------------------------
 .byte   PATT
  .word Label_0100C60F
@  #02 @063   ----------------------------------------
 .byte   PATT
  .word Label_0100C634
@  #02 @064   ----------------------------------------
 .byte   PATT
  .word Label_0100C5F9
@  #02 @065   ----------------------------------------
 .byte   PATT
  .word Label_0100C604
@  #02 @066   ----------------------------------------
 .byte   PATT
  .word Label_0100C60F
@  #02 @067   ----------------------------------------
 .byte   PATT
  .word Label_0100C61A
@  #02 @068   ----------------------------------------
 .byte   W96
@  #02 @069   ----------------------------------------
 .byte   W96
@  #02 @070   ----------------------------------------
 .byte   W96
@  #02 @071   ----------------------------------------
 .byte   W96
@  #02 @072   ----------------------------------------
 .byte   W96
@  #02 @073   ----------------------------------------
 .byte   W96
@  #02 @074   ----------------------------------------
 .byte   W96
@  #02 @075   ----------------------------------------
 .byte   W96
@  #02 @076   ----------------------------------------
 .byte   W96
@  #02 @077   ----------------------------------------
 .byte   W96
@  #02 @078   ----------------------------------------
 .byte   W96
@  #02 @079   ----------------------------------------
 .byte   W96
@  #02 @080   ----------------------------------------
 .byte   W96
@  #02 @081   ----------------------------------------
 .byte   W96
@  #02 @082   ----------------------------------------
 .byte   W96
@  #02 @083   ----------------------------------------
 .byte   W96
@  #02 @084   ----------------------------------------
 .byte   W96
@  #02 @085   ----------------------------------------
 .byte   W96
@  #02 @086   ----------------------------------------
 .byte   W96
@  #02 @087   ----------------------------------------
 .byte   W96
@  #02 @088   ----------------------------------------
 .byte   W96
@  #02 @089   ----------------------------------------
 .byte   W96
@  #02 @090   ----------------------------------------
 .byte   W96
@  #02 @091   ----------------------------------------
 .byte   W96
@  #02 @092   ----------------------------------------
 .byte   PATT
  .word Label_0100C5F9
@  #02 @093   ----------------------------------------
 .byte   PATT
  .word Label_0100C604
@  #02 @094   ----------------------------------------
 .byte   PATT
  .word Label_0100C60F
@  #02 @095   ----------------------------------------
 .byte   PATT
  .word Label_0100C61A
@  #02 @096   ----------------------------------------
 .byte   PATT
  .word Label_0100C5F9
@  #02 @097   ----------------------------------------
 .byte   PATT
  .word Label_0100C604
@  #02 @098   ----------------------------------------
 .byte   PATT
  .word Label_0100C60F
@  #02 @099   ----------------------------------------
 .byte   PATT
  .word Label_0100C634
@  #02 @100   ----------------------------------------
 .byte   PATT
  .word Label_0100C5F9
@  #02 @101   ----------------------------------------
 .byte   PATT
  .word Label_0100C604
@  #02 @102   ----------------------------------------
 .byte   PATT
  .word Label_0100C60F
@  #02 @103   ----------------------------------------
 .byte   PATT
  .word Label_0100C61A
@  #02 @104   ----------------------------------------
 .byte   W96
@  #02 @105   ----------------------------------------
 .byte   W96
@  #02 @106   ----------------------------------------
 .byte   W96
@  #02 @107   ----------------------------------------
 .byte   W92
 .byte   W03
 .byte   FINE

@**************** Track 3 (Midi-Chn.2) ****************@

song06_003:
@  #03 @000   ----------------------------------------
 .byte   KEYSH , song06_key+0
 .byte   VOICE , 57
 .byte   VOL , 47*song06_mvl/mxv
 .byte   PAN , c_v+0
 .byte   W96
@  #03 @001   ----------------------------------------
 .byte   W96
@  #03 @002   ----------------------------------------
 .byte   W96
@  #03 @003   ----------------------------------------
 .byte   W96
@  #03 @004   ----------------------------------------
 .byte   W12
Label_010245E9:
 .byte   W84
@  #03 @005   ----------------------------------------
 .byte   W96
@  #03 @006   ----------------------------------------
 .byte   W96
@  #03 @007   ----------------------------------------
 .byte   W96
@  #03 @008   ----------------------------------------
 .byte   W96
@  #03 @009   ----------------------------------------
 .byte   W96
@  #03 @010   ----------------------------------------
 .byte   W96
@  #03 @011   ----------------------------------------
 .byte   W96
@  #03 @012   ----------------------------------------
 .byte   W96
@  #03 @013   ----------------------------------------
 .byte   W96
@  #03 @014   ----------------------------------------
 .byte   W96
@  #03 @015   ----------------------------------------
 .byte   W96
@  #03 @016   ----------------------------------------
 .byte   W96
@  #03 @017   ----------------------------------------
 .byte   W96
@  #03 @018   ----------------------------------------
 .byte   W96
@  #03 @019   ----------------------------------------
 .byte   W96
@  #03 @020   ----------------------------------------
Label_010245F9:
 .byte   N12 ,Fn0 ,v112
 .byte   W24
 .byte   Cn0
 .byte   W24
 .byte   Fn0
 .byte   W24
 .byte   Cn0
 .byte   W24
 .byte   PEND 
@  #03 @021   ----------------------------------------
Label_01024604:
 .byte   N12 ,Gn0 ,v112
 .byte   W24
 .byte   Dn0
 .byte   W24
 .byte   Gn0
 .byte   W24
 .byte   Dn0
 .byte   W24
 .byte   PEND 
@  #03 @022   ----------------------------------------
Label_0102460F:
 .byte   N12 ,Gs0 ,v112
 .byte   W24
 .byte   Ds0
 .byte   W24
 .byte   Gs0
 .byte   W24
 .byte   Ds0
 .byte   W24
 .byte   PEND 
@  #03 @023   ----------------------------------------
Label_0102461A:
 .byte   N12 ,Ds0 ,v112
 .byte   W24
 .byte   AsM1
 .byte   W24
 .byte   Cs0
 .byte   W24
 .byte   Gn0
 .byte   W24
 .byte   PEND 
@  #03 @024   ----------------------------------------
 .byte   PATT
  .word Label_010245F9
@  #03 @025   ----------------------------------------
 .byte   PATT
  .word Label_01024604
@  #03 @026   ----------------------------------------
 .byte   PATT
  .word Label_0102460F
@  #03 @027   ----------------------------------------
Label_01024634:
 .byte   N12 ,Fn0 ,v112
 .byte   W24
 .byte   Cn0
 .byte   W24
 .byte   N05 ,Gn0
 .byte   W12
 .byte   Fn0
 .byte   W12
 .byte   Ds0
 .byte   W12
 .byte   Dn0
 .byte   W12
 .byte   PEND 
@  #03 @028   ----------------------------------------
 .byte   PATT
  .word Label_010245F9
@  #03 @029   ----------------------------------------
 .byte   PATT
  .word Label_01024604
@  #03 @030   ----------------------------------------
 .byte   PATT
  .word Label_0102460F
@  #03 @031   ----------------------------------------
 .byte   PATT
  .word Label_0102461A
@  #03 @032   ----------------------------------------
 .byte   W96
@  #03 @033   ----------------------------------------
 .byte   W96
@  #03 @034   ----------------------------------------
 .byte   W96
@  #03 @035   ----------------------------------------
 .byte   W96
@  #03 @036   ----------------------------------------
 .byte   W96
@  #03 @037   ----------------------------------------
 .byte   W96
@  #03 @038   ----------------------------------------
 .byte   W96
@  #03 @039   ----------------------------------------
 .byte   W96
@  #03 @040   ----------------------------------------
 .byte   W12
 .byte   GOTO
  .word Label_010245E9
@  #03 @041   ----------------------------------------
 .byte   W84
 .byte   W96
@  #03 @042   ----------------------------------------
 .byte   W96
@  #03 @043   ----------------------------------------
 .byte   W96
@  #03 @044   ----------------------------------------
 .byte   W96
@  #03 @045   ----------------------------------------
 .byte   W96
@  #03 @046   ----------------------------------------
 .byte   W96
@  #03 @047   ----------------------------------------
 .byte   W96
@  #03 @048   ----------------------------------------
 .byte   W96
@  #03 @049   ----------------------------------------
 .byte   W96
@  #03 @050   ----------------------------------------
 .byte   W96
@  #03 @051   ----------------------------------------
 .byte   W96
@  #03 @052   ----------------------------------------
 .byte   W96
@  #03 @053   ----------------------------------------
 .byte   W96
@  #03 @054   ----------------------------------------
 .byte   W96
@  #03 @055   ----------------------------------------
 .byte   W96
@  #03 @056   ----------------------------------------
 .byte   PATT
  .word Label_010245F9
@  #03 @057   ----------------------------------------
 .byte   PATT
  .word Label_01024604
@  #03 @058   ----------------------------------------
 .byte   PATT
  .word Label_0102460F
@  #03 @059   ----------------------------------------
 .byte   PATT
  .word Label_0102461A
@  #03 @060   ----------------------------------------
 .byte   PATT
  .word Label_010245F9
@  #03 @061   ----------------------------------------
 .byte   PATT
  .word Label_01024604
@  #03 @062   ----------------------------------------
 .byte   PATT
  .word Label_0102460F
@  #03 @063   ----------------------------------------
 .byte   PATT
  .word Label_01024634
@  #03 @064   ----------------------------------------
 .byte   PATT
  .word Label_010245F9
@  #03 @065   ----------------------------------------
 .byte   PATT
  .word Label_01024604
@  #03 @066   ----------------------------------------
 .byte   PATT
  .word Label_0102460F
@  #03 @067   ----------------------------------------
 .byte   PATT
  .word Label_0102461A
@  #03 @068   ----------------------------------------
 .byte   W96
@  #03 @069   ----------------------------------------
 .byte   W96
@  #03 @070   ----------------------------------------
 .byte   W96
@  #03 @071   ----------------------------------------
 .byte   W96
@  #03 @072   ----------------------------------------
 .byte   W96
@  #03 @073   ----------------------------------------
 .byte   W96
@  #03 @074   ----------------------------------------
 .byte   W96
@  #03 @075   ----------------------------------------
 .byte   W96
@  #03 @076   ----------------------------------------
 .byte   W96
@  #03 @077   ----------------------------------------
 .byte   W96
@  #03 @078   ----------------------------------------
 .byte   W96
@  #03 @079   ----------------------------------------
 .byte   W96
@  #03 @080   ----------------------------------------
 .byte   W96
@  #03 @081   ----------------------------------------
 .byte   W96
@  #03 @082   ----------------------------------------
 .byte   W96
@  #03 @083   ----------------------------------------
 .byte   W96
@  #03 @084   ----------------------------------------
 .byte   W96
@  #03 @085   ----------------------------------------
 .byte   W96
@  #03 @086   ----------------------------------------
 .byte   W96
@  #03 @087   ----------------------------------------
 .byte   W96
@  #03 @088   ----------------------------------------
 .byte   W96
@  #03 @089   ----------------------------------------
 .byte   W96
@  #03 @090   ----------------------------------------
 .byte   W96
@  #03 @091   ----------------------------------------
 .byte   W96
@  #03 @092   ----------------------------------------
 .byte   PATT
  .word Label_010245F9
@  #03 @093   ----------------------------------------
 .byte   PATT
  .word Label_01024604
@  #03 @094   ----------------------------------------
 .byte   PATT
  .word Label_0102460F
@  #03 @095   ----------------------------------------
 .byte   PATT
  .word Label_0102461A
@  #03 @096   ----------------------------------------
 .byte   PATT
  .word Label_010245F9
@  #03 @097   ----------------------------------------
 .byte   PATT
  .word Label_01024604
@  #03 @098   ----------------------------------------
 .byte   PATT
  .word Label_0102460F
@  #03 @099   ----------------------------------------
 .byte   PATT
  .word Label_01024634
@  #03 @100   ----------------------------------------
 .byte   PATT
  .word Label_010245F9
@  #03 @101   ----------------------------------------
 .byte   PATT
  .word Label_01024604
@  #03 @102   ----------------------------------------
 .byte   PATT
  .word Label_0102460F
@  #03 @103   ----------------------------------------
 .byte   PATT
  .word Label_0102461A
@  #03 @104   ----------------------------------------
 .byte   W96
@  #03 @105   ----------------------------------------
 .byte   W96
@  #03 @106   ----------------------------------------
 .byte   W96
@  #03 @107   ----------------------------------------
 .byte   W92
 .byte   W03
 .byte   FINE

@**************** Track 4 (Midi-Chn.3) ****************@

song06_004:
@  #04 @000   ----------------------------------------
 .byte   KEYSH , song06_key+0
 .byte   VOICE , 68
 .byte   VOL , 47*song06_mvl/mxv
 .byte   PAN , c_v+0
 .byte   W96
@  #04 @001   ----------------------------------------
 .byte   W96
@  #04 @002   ----------------------------------------
 .byte   W96
@  #04 @003   ----------------------------------------
 .byte   W96
@  #04 @004   ----------------------------------------
 .byte   W12
Label_01022935:
 .byte   W84
@  #04 @005   ----------------------------------------
 .byte   W96
@  #04 @006   ----------------------------------------
 .byte   W96
@  #04 @007   ----------------------------------------
 .byte   W96
@  #04 @008   ----------------------------------------
 .byte   W96
@  #04 @009   ----------------------------------------
 .byte   W96
@  #04 @010   ----------------------------------------
 .byte   W96
@  #04 @011   ----------------------------------------
 .byte   W96
@  #04 @012   ----------------------------------------
 .byte   W96
@  #04 @013   ----------------------------------------
 .byte   W96
@  #04 @014   ----------------------------------------
 .byte   W96
@  #04 @015   ----------------------------------------
 .byte   W96
@  #04 @016   ----------------------------------------
 .byte   W96
@  #04 @017   ----------------------------------------
 .byte   W96
@  #04 @018   ----------------------------------------
 .byte   W96
@  #04 @019   ----------------------------------------
 .byte   W96
@  #04 @020   ----------------------------------------
Label_01022945:
 .byte   W12
 .byte   N05 ,Gs2 ,v092
 .byte   W12
 .byte   Cn3
 .byte   W12
 .byte   Fn3
 .byte   W12
 .byte   N24 ,Gs3
 .byte   W24
 .byte   Fn3
 .byte   W24
 .byte   PEND 
@  #04 @021   ----------------------------------------
Label_01022954:
 .byte   N05 ,Dn3 ,v092
 .byte   W12
 .byte   Ds3
 .byte   W12
 .byte   N02 ,Fn3
 .byte   W03
 .byte   N02
 .byte   W03
 .byte   N17
 .byte   W18
 .byte   N05 ,Dn3
 .byte   W12
 .byte   Bn2
 .byte   W12
 .byte   Cn3
 .byte   W12
 .byte   Dn3
 .byte   W12
 .byte   PEND 
@  #04 @022   ----------------------------------------
Label_0102296B:
 .byte   N18 ,Ds3 ,v092
 .byte   W18
 .byte   N03 ,Fn3
 .byte   W03
 .byte   Ds3
 .byte   W03
 .byte   N05 ,Dn3
 .byte   W12
 .byte   Cn3
 .byte   W12
 .byte   N24 ,Gs3
 .byte   W24
 .byte   N05 ,Gn3
 .byte   W12
 .byte   Fn3
 .byte   W12
 .byte   PEND 
@  #04 @023   ----------------------------------------
Label_01022982:
 .byte   N17 ,Ds3 ,v092
 .byte   W18
 .byte   N02 ,Fn3
 .byte   W03
 .byte   Ds3
 .byte   W03
 .byte   N05 ,Dn3
 .byte   W12
 .byte   Fn3
 .byte   W12
 .byte   N42 ,Ds3
 .byte   W48
 .byte   PEND 
@  #04 @024   ----------------------------------------
 .byte   PATT
  .word Label_01022945
@  #04 @025   ----------------------------------------
 .byte   PATT
  .word Label_01022954
@  #04 @026   ----------------------------------------
Label_0102299E:
 .byte   N18 ,Ds3 ,v092
 .byte   W18
 .byte   N03 ,Fn3
 .byte   W03
 .byte   Ds3
 .byte   W03
 .byte   N05 ,Dn3
 .byte   W12
 .byte   Cn3
 .byte   W12
 .byte   N24 ,Gs3
 .byte   W24
 .byte   N05 ,As3
 .byte   W12
 .byte   Cn4
 .byte   W12
 .byte   PEND 
@  #04 @027   ----------------------------------------
Label_010229B5:
 .byte   N05 ,As3 ,v092
 .byte   W12
 .byte   Gs3
 .byte   W12
 .byte   Gn3
 .byte   W12
 .byte   Dn3
 .byte   W12
 .byte   N02 ,Bn2
 .byte   W03
 .byte   N02
 .byte   W03
 .byte   N36
 .byte   W42
 .byte   PEND 
@  #04 @028   ----------------------------------------
 .byte   PATT
  .word Label_01022945
@  #04 @029   ----------------------------------------
 .byte   PATT
  .word Label_01022954
@  #04 @030   ----------------------------------------
 .byte   PATT
  .word Label_0102296B
@  #04 @031   ----------------------------------------
 .byte   PATT
  .word Label_01022982
@  #04 @032   ----------------------------------------
 .byte   W96
@  #04 @033   ----------------------------------------
 .byte   W96
@  #04 @034   ----------------------------------------
 .byte   W96
@  #04 @035   ----------------------------------------
 .byte   W96
@  #04 @036   ----------------------------------------
 .byte   W96
@  #04 @037   ----------------------------------------
 .byte   W96
@  #04 @038   ----------------------------------------
 .byte   W96
@  #04 @039   ----------------------------------------
 .byte   W96
@  #04 @040   ----------------------------------------
 .byte   W12
 .byte   GOTO
  .word Label_01022935
@  #04 @041   ----------------------------------------
 .byte   W84
 .byte   W96
@  #04 @042   ----------------------------------------
 .byte   W96
@  #04 @043   ----------------------------------------
 .byte   W96
@  #04 @044   ----------------------------------------
 .byte   W96
@  #04 @045   ----------------------------------------
 .byte   W96
@  #04 @046   ----------------------------------------
 .byte   W96
@  #04 @047   ----------------------------------------
 .byte   W96
@  #04 @048   ----------------------------------------
 .byte   W96
@  #04 @049   ----------------------------------------
 .byte   W96
@  #04 @050   ----------------------------------------
 .byte   W96
@  #04 @051   ----------------------------------------
 .byte   W96
@  #04 @052   ----------------------------------------
 .byte   W96
@  #04 @053   ----------------------------------------
 .byte   W96
@  #04 @054   ----------------------------------------
 .byte   W96
@  #04 @055   ----------------------------------------
 .byte   W96
@  #04 @056   ----------------------------------------
 .byte   PATT
  .word Label_01022945
@  #04 @057   ----------------------------------------
 .byte   PATT
  .word Label_01022954
@  #04 @058   ----------------------------------------
 .byte   PATT
  .word Label_0102296B
@  #04 @059   ----------------------------------------
 .byte   PATT
  .word Label_01022982
@  #04 @060   ----------------------------------------
 .byte   PATT
  .word Label_01022945
@  #04 @061   ----------------------------------------
 .byte   PATT
  .word Label_01022954
@  #04 @062   ----------------------------------------
 .byte   PATT
  .word Label_0102299E
@  #04 @063   ----------------------------------------
 .byte   PATT
  .word Label_010229B5
@  #04 @064   ----------------------------------------
 .byte   PATT
  .word Label_01022945
@  #04 @065   ----------------------------------------
 .byte   PATT
  .word Label_01022954
@  #04 @066   ----------------------------------------
 .byte   PATT
  .word Label_0102296B
@  #04 @067   ----------------------------------------
 .byte   PATT
  .word Label_01022982
@  #04 @068   ----------------------------------------
 .byte   W96
@  #04 @069   ----------------------------------------
 .byte   W96
@  #04 @070   ----------------------------------------
 .byte   W96
@  #04 @071   ----------------------------------------
 .byte   W96
@  #04 @072   ----------------------------------------
 .byte   W96
@  #04 @073   ----------------------------------------
 .byte   W96
@  #04 @074   ----------------------------------------
 .byte   W96
@  #04 @075   ----------------------------------------
 .byte   W96
@  #04 @076   ----------------------------------------
 .byte   W96
@  #04 @077   ----------------------------------------
 .byte   W96
@  #04 @078   ----------------------------------------
 .byte   W96
@  #04 @079   ----------------------------------------
 .byte   W96
@  #04 @080   ----------------------------------------
 .byte   W96
@  #04 @081   ----------------------------------------
 .byte   W96
@  #04 @082   ----------------------------------------
 .byte   W96
@  #04 @083   ----------------------------------------
 .byte   W96
@  #04 @084   ----------------------------------------
 .byte   W96
@  #04 @085   ----------------------------------------
 .byte   W96
@  #04 @086   ----------------------------------------
 .byte   W96
@  #04 @087   ----------------------------------------
 .byte   W96
@  #04 @088   ----------------------------------------
 .byte   W96
@  #04 @089   ----------------------------------------
 .byte   W96
@  #04 @090   ----------------------------------------
 .byte   W96
@  #04 @091   ----------------------------------------
 .byte   W96
@  #04 @092   ----------------------------------------
 .byte   PATT
  .word Label_01022945
@  #04 @093   ----------------------------------------
 .byte   PATT
  .word Label_01022954
@  #04 @094   ----------------------------------------
 .byte   PATT
  .word Label_0102296B
@  #04 @095   ----------------------------------------
 .byte   PATT
  .word Label_01022982
@  #04 @096   ----------------------------------------
 .byte   PATT
  .word Label_01022945
@  #04 @097   ----------------------------------------
 .byte   PATT
  .word Label_01022954
@  #04 @098   ----------------------------------------
 .byte   PATT
  .word Label_0102299E
@  #04 @099   ----------------------------------------
 .byte   PATT
  .word Label_010229B5
@  #04 @100   ----------------------------------------
 .byte   PATT
  .word Label_01022945
@  #04 @101   ----------------------------------------
 .byte   PATT
  .word Label_01022954
@  #04 @102   ----------------------------------------
 .byte   PATT
  .word Label_0102296B
@  #04 @103   ----------------------------------------
 .byte   PATT
  .word Label_01022982
@  #04 @104   ----------------------------------------
 .byte   W96
@  #04 @105   ----------------------------------------
 .byte   W96
@  #04 @106   ----------------------------------------
 .byte   W96
@  #04 @107   ----------------------------------------
 .byte   W92
 .byte   W03
 .byte   FINE

@**************** Track 5 (Midi-Chn.4) ****************@

song06_005:
@  #05 @000   ----------------------------------------
 .byte   KEYSH , song06_key+0
 .byte   VOICE , 73
 .byte   VOL , 47*song06_mvl/mxv
 .byte   PAN , c_v+0
 .byte   W96
@  #05 @001   ----------------------------------------
 .byte   W96
@  #05 @002   ----------------------------------------
 .byte   W96
@  #05 @003   ----------------------------------------
 .byte   W96
@  #05 @004   ----------------------------------------
 .byte   W12
Label_01022CD1:
 .byte   W84
@  #05 @005   ----------------------------------------
 .byte   W96
@  #05 @006   ----------------------------------------
 .byte   W96
@  #05 @007   ----------------------------------------
 .byte   W96
@  #05 @008   ----------------------------------------
 .byte   W96
@  #05 @009   ----------------------------------------
 .byte   W96
@  #05 @010   ----------------------------------------
 .byte   W96
@  #05 @011   ----------------------------------------
 .byte   W96
@  #05 @012   ----------------------------------------
 .byte   W96
@  #05 @013   ----------------------------------------
 .byte   W96
@  #05 @014   ----------------------------------------
 .byte   W96
@  #05 @015   ----------------------------------------
 .byte   W96
@  #05 @016   ----------------------------------------
 .byte   W96
@  #05 @017   ----------------------------------------
 .byte   W96
@  #05 @018   ----------------------------------------
 .byte   W96
@  #05 @019   ----------------------------------------
 .byte   W96
@  #05 @020   ----------------------------------------
 .byte   W96
@  #05 @021   ----------------------------------------
 .byte   W96
@  #05 @022   ----------------------------------------
 .byte   W96
@  #05 @023   ----------------------------------------
 .byte   W96
@  #05 @024   ----------------------------------------
 .byte   W96
@  #05 @025   ----------------------------------------
 .byte   W96
@  #05 @026   ----------------------------------------
 .byte   W96
@  #05 @027   ----------------------------------------
 .byte   W96
@  #05 @028   ----------------------------------------
Label_01022CE9:
 .byte   W12
 .byte   N05 ,Fn4 ,v092
 .byte   W12
 .byte   Gs4
 .byte   W12
 .byte   Cn5
 .byte   W12
 .byte   N02 ,En5
 .byte   W03
 .byte   N21 ,Fn5
 .byte   W21
 .byte   N24 ,Cn5
 .byte   W24
 .byte   PEND 
@  #05 @029   ----------------------------------------
Label_01022CFC:
 .byte   N05 ,Bn4 ,v092
 .byte   W12
 .byte   Cn5
 .byte   W12
 .byte   N03 ,Dn5
 .byte   W03
 .byte   Ds5
 .byte   W03
 .byte   N18 ,Dn5
 .byte   W18
 .byte   N05 ,Bn4
 .byte   W12
 .byte   Gn4
 .byte   W12
 .byte   Bn4
 .byte   W12
 .byte   Dn5
 .byte   W12
 .byte   PEND 
@  #05 @030   ----------------------------------------
Label_01022D14:
 .byte   N17 ,Ds5 ,v092
 .byte   W18
 .byte   N03 ,Fn5
 .byte   W03
 .byte   Ds5
 .byte   W03
 .byte   N05 ,Dn5
 .byte   W12
 .byte   Cn5
 .byte   W12
 .byte   N24 ,Cn6
 .byte   W24
 .byte   N05 ,As5
 .byte   W12
 .byte   Gs5
 .byte   W12
 .byte   PEND 
@  #05 @031   ----------------------------------------
Label_01022D2B:
 .byte   N17 ,Gn5 ,v092
 .byte   W18
 .byte   N03 ,Gs5
 .byte   W03
 .byte   Gn5
 .byte   W03
 .byte   N05 ,Fn5
 .byte   W12
 .byte   Gs5
 .byte   W12
 .byte   N42 ,Gn5
 .byte   W48
 .byte   PEND 
@  #05 @032   ----------------------------------------
 .byte   W96
@  #05 @033   ----------------------------------------
 .byte   W96
@  #05 @034   ----------------------------------------
 .byte   W96
@  #05 @035   ----------------------------------------
 .byte   W96
@  #05 @036   ----------------------------------------
 .byte   W96
@  #05 @037   ----------------------------------------
 .byte   W96
@  #05 @038   ----------------------------------------
 .byte   W96
@  #05 @039   ----------------------------------------
 .byte   W96
@  #05 @040   ----------------------------------------
 .byte   W12
 .byte   GOTO
  .word Label_01022CD1
@  #05 @041   ----------------------------------------
 .byte   W84
 .byte   W96
@  #05 @042   ----------------------------------------
 .byte   W96
@  #05 @043   ----------------------------------------
 .byte   W96
@  #05 @044   ----------------------------------------
 .byte   W96
@  #05 @045   ----------------------------------------
 .byte   W96
@  #05 @046   ----------------------------------------
 .byte   W96
@  #05 @047   ----------------------------------------
 .byte   W96
@  #05 @048   ----------------------------------------
 .byte   W96
@  #05 @049   ----------------------------------------
 .byte   W96
@  #05 @050   ----------------------------------------
 .byte   W96
@  #05 @051   ----------------------------------------
 .byte   W96
@  #05 @052   ----------------------------------------
 .byte   W96
@  #05 @053   ----------------------------------------
 .byte   W96
@  #05 @054   ----------------------------------------
 .byte   W96
@  #05 @055   ----------------------------------------
 .byte   W96
@  #05 @056   ----------------------------------------
 .byte   W96
@  #05 @057   ----------------------------------------
 .byte   W96
@  #05 @058   ----------------------------------------
 .byte   W96
@  #05 @059   ----------------------------------------
 .byte   W96
@  #05 @060   ----------------------------------------
 .byte   W96
@  #05 @061   ----------------------------------------
 .byte   W96
@  #05 @062   ----------------------------------------
 .byte   W96
@  #05 @063   ----------------------------------------
 .byte   W96
@  #05 @064   ----------------------------------------
 .byte   PATT
  .word Label_01022CE9
@  #05 @065   ----------------------------------------
 .byte   PATT
  .word Label_01022CFC
@  #05 @066   ----------------------------------------
 .byte   PATT
  .word Label_01022D14
@  #05 @067   ----------------------------------------
 .byte   PATT
  .word Label_01022D2B
@  #05 @068   ----------------------------------------
 .byte   W96
@  #05 @069   ----------------------------------------
 .byte   W96
@  #05 @070   ----------------------------------------
 .byte   W96
@  #05 @071   ----------------------------------------
 .byte   W96
@  #05 @072   ----------------------------------------
 .byte   W96
@  #05 @073   ----------------------------------------
 .byte   W96
@  #05 @074   ----------------------------------------
 .byte   W96
@  #05 @075   ----------------------------------------
 .byte   W96
@  #05 @076   ----------------------------------------
 .byte   W96
@  #05 @077   ----------------------------------------
 .byte   W96
@  #05 @078   ----------------------------------------
 .byte   W96
@  #05 @079   ----------------------------------------
 .byte   W96
@  #05 @080   ----------------------------------------
 .byte   W96
@  #05 @081   ----------------------------------------
 .byte   W96
@  #05 @082   ----------------------------------------
 .byte   W96
@  #05 @083   ----------------------------------------
 .byte   W96
@  #05 @084   ----------------------------------------
 .byte   W96
@  #05 @085   ----------------------------------------
 .byte   W96
@  #05 @086   ----------------------------------------
 .byte   W96
@  #05 @087   ----------------------------------------
 .byte   W96
@  #05 @088   ----------------------------------------
 .byte   W96
@  #05 @089   ----------------------------------------
 .byte   W96
@  #05 @090   ----------------------------------------
 .byte   W96
@  #05 @091   ----------------------------------------
 .byte   W96
@  #05 @092   ----------------------------------------
 .byte   W96
@  #05 @093   ----------------------------------------
 .byte   W96
@  #05 @094   ----------------------------------------
 .byte   W96
@  #05 @095   ----------------------------------------
 .byte   W96
@  #05 @096   ----------------------------------------
 .byte   W96
@  #05 @097   ----------------------------------------
 .byte   W96
@  #05 @098   ----------------------------------------
 .byte   W96
@  #05 @099   ----------------------------------------
 .byte   W96
@  #05 @100   ----------------------------------------
 .byte   PATT
  .word Label_01022CE9
@  #05 @101   ----------------------------------------
 .byte   PATT
  .word Label_01022CFC
@  #05 @102   ----------------------------------------
 .byte   PATT
  .word Label_01022D14
@  #05 @103   ----------------------------------------
 .byte   PATT
  .word Label_01022D2B
@  #05 @104   ----------------------------------------
 .byte   W96
@  #05 @105   ----------------------------------------
 .byte   W96
@  #05 @106   ----------------------------------------
 .byte   W96
@  #05 @107   ----------------------------------------
 .byte   W92
 .byte   W03
 .byte   FINE

@**************** Track 6 (Midi-Chn.5) ****************@

song06_006:
@  #06 @000   ----------------------------------------
 .byte   KEYSH , song06_key+0
 .byte   VOICE , 121
 .byte   VOL , 47*song06_mvl/mxv
 .byte   PAN , c_v+0
 .byte   VOL , 47*song06_mvl/mxv
 .byte   PAN , c_v+0
 .byte   N20 ,Cn1 ,v108
 .byte   W12
 .byte   N11 ,Fs1 ,v112
 .byte   W12
 .byte   N20 ,Dn1 ,v108
 .byte   W12
 .byte   N11 ,As1 ,v112
 .byte   W12
 .byte   N20 ,Cn1 ,v108
 .byte   N11 ,Gs1 ,v112
 .byte   W12
 .byte   As1
 .byte   W12
 .byte   Dn1 ,v108
 .byte   N05 ,Gs1 ,v112
 .byte   W06
 .byte   Fs1
 .byte   W06
 .byte   N11 ,Cn1 ,v108
 .byte   N05 ,Fs1 ,v112
 .byte   W12
@  #06 @001   ----------------------------------------
Label_01024144:
 .byte   N20 ,Cn1 ,v108
 .byte   W12
 .byte   N11 ,Fs1 ,v112
 .byte   W12
 .byte   N20 ,Dn1 ,v108
 .byte   W12
 .byte   N11 ,As1 ,v112
 .byte   W12
 .byte   N20 ,Cn1 ,v108
 .byte   N11 ,Gs1 ,v112
 .byte   W12
 .byte   As1
 .byte   W12
 .byte   Dn1 ,v108
 .byte   N05 ,Gs1 ,v112
 .byte   W06
 .byte   Fs1
 .byte   W06
 .byte   N11 ,Cn1 ,v108
 .byte   N05 ,Fs1 ,v112
 .byte   W12
 .byte   PEND 
@  #06 @002   ----------------------------------------
 .byte   PATT
  .word Label_01024144
@  #06 @003   ----------------------------------------
 .byte   PATT
  .word Label_01024144
@  #06 @004   ----------------------------------------
 .byte   N20 ,Cn1 ,v108
 .byte   W12
Label_0102417B:
 .byte   N11 ,Fs1 ,v112
 .byte   W12
 .byte   N20 ,Dn1 ,v108
 .byte   W12
 .byte   N11 ,As1 ,v112
 .byte   W12
 .byte   N20 ,Cn1 ,v108
 .byte   N11 ,Gs1 ,v112
 .byte   W12
 .byte   As1
 .byte   W12
 .byte   Dn1 ,v108
 .byte   N05 ,Gs1 ,v112
 .byte   W06
 .byte   Fs1
 .byte   W06
 .byte   N11 ,Cn1 ,v108
 .byte   N05 ,Fs1 ,v112
 .byte   W12
@  #06 @005   ----------------------------------------
 .byte   PATT
  .word Label_01024144
@  #06 @006   ----------------------------------------
 .byte   PATT
  .word Label_01024144
@  #06 @007   ----------------------------------------
 .byte   PATT
  .word Label_01024144
@  #06 @008   ----------------------------------------
 .byte   PATT
  .word Label_01024144
@  #06 @009   ----------------------------------------
 .byte   PATT
  .word Label_01024144
@  #06 @010   ----------------------------------------
 .byte   PATT
  .word Label_01024144
@  #06 @011   ----------------------------------------
 .byte   PATT
  .word Label_01024144
@  #06 @012   ----------------------------------------
 .byte   PATT
  .word Label_01024144
@  #06 @013   ----------------------------------------
 .byte   PATT
  .word Label_01024144
@  #06 @014   ----------------------------------------
 .byte   PATT
  .word Label_01024144
@  #06 @015   ----------------------------------------
 .byte   PATT
  .word Label_01024144
@  #06 @016   ----------------------------------------
 .byte   PATT
  .word Label_01024144
@  #06 @017   ----------------------------------------
 .byte   PATT
  .word Label_01024144
@  #06 @018   ----------------------------------------
 .byte   PATT
  .word Label_01024144
@  #06 @019   ----------------------------------------
Label_010241E5:
 .byte   N20 ,Cn1 ,v108
 .byte   W12
 .byte   N11 ,Fs1 ,v112
 .byte   W12
 .byte   N20 ,Dn1 ,v108
 .byte   W12
 .byte   N11 ,As1 ,v112
 .byte   W12
 .byte   N20 ,Cn1 ,v108
 .byte   N05 ,Fs1 ,v112
 .byte   W12
 .byte   N05
 .byte   W12
 .byte   N05
 .byte   W06
 .byte   N05
 .byte   W06
 .byte   As1
 .byte   W12
 .byte   PEND 
@  #06 @020   ----------------------------------------
Label_01024205:
 .byte   N20 ,Cn1 ,v108
 .byte   N11 ,Fs1 ,v112
 .byte   N11 ,Cs2
 .byte   W12
 .byte   As1
 .byte   W12
 .byte   N20 ,Dn1 ,v108
 .byte   N11 ,Fs1 ,v112
 .byte   W12
 .byte   As1
 .byte   W12
 .byte   N20 ,Cn1 ,v108
 .byte   N11 ,Fs1 ,v112
 .byte   W12
 .byte   As1
 .byte   W12
 .byte   Dn1 ,v108
 .byte   N11 ,Fs1 ,v112
 .byte   W12
 .byte   Cn1 ,v108
 .byte   N11 ,As1 ,v112
 .byte   W12
 .byte   PEND 
@  #06 @021   ----------------------------------------
Label_0102422F:
 .byte   N20 ,Cn1 ,v108
 .byte   N11 ,Fs1 ,v112
 .byte   W12
 .byte   As1
 .byte   W12
 .byte   N20 ,Dn1 ,v108
 .byte   N11 ,Fs1 ,v112
 .byte   W12
 .byte   As1
 .byte   W12
 .byte   N20 ,Cn1 ,v108
 .byte   N11 ,Fs1 ,v112
 .byte   W12
 .byte   As1
 .byte   W12
 .byte   Dn1 ,v108
 .byte   N11 ,Fs1 ,v112
 .byte   W12
 .byte   Cn1 ,v108
 .byte   N11 ,As1 ,v112
 .byte   W12
 .byte   PEND 
@  #06 @022   ----------------------------------------
 .byte   PATT
  .word Label_0102422F
@  #06 @023   ----------------------------------------
 .byte   PATT
  .word Label_0102422F
@  #06 @024   ----------------------------------------
 .byte   PATT
  .word Label_01024205
@  #06 @025   ----------------------------------------
 .byte   PATT
  .word Label_0102422F
@  #06 @026   ----------------------------------------
 .byte   PATT
  .word Label_0102422F
@  #06 @027   ----------------------------------------
 .byte   PATT
  .word Label_0102422F
@  #06 @028   ----------------------------------------
 .byte   PATT
  .word Label_01024205
@  #06 @029   ----------------------------------------
 .byte   PATT
  .word Label_0102422F
@  #06 @030   ----------------------------------------
 .byte   PATT
  .word Label_0102422F
@  #06 @031   ----------------------------------------
 .byte   PATT
  .word Label_0102422F
@  #06 @032   ----------------------------------------
Label_01024289:
 .byte   N11 ,Cn1 ,v076
 .byte   W12
 .byte   En1
 .byte   W12
 .byte   Cn1
 .byte   W12
 .byte   En1
 .byte   W12
 .byte   Cn1
 .byte   W12
 .byte   En1
 .byte   W12
 .byte   N05
 .byte   W06
 .byte   N05
 .byte   W06
 .byte   N11
 .byte   W12
 .byte   PEND 
@  #06 @033   ----------------------------------------
 .byte   PATT
  .word Label_01024289
@  #06 @034   ----------------------------------------
Label_010242A3:
 .byte   N11 ,Cn1 ,v076
 .byte   W12
 .byte   N11
 .byte   W12
 .byte   En1
 .byte   W12
 .byte   Cn1
 .byte   W12
 .byte   En1
 .byte   W48
 .byte   PEND 
@  #06 @035   ----------------------------------------
Label_010242B0:
 .byte   N11 ,En1 ,v076
 .byte   W12
 .byte   N11
 .byte   W12
 .byte   Cn1
 .byte   W12
 .byte   En1
 .byte   W12
 .byte   Cn1
 .byte   W36
 .byte   DnM2
 .byte   W12
 .byte   PEND 
@  #06 @036   ----------------------------------------
 .byte   PATT
  .word Label_01024144
@  #06 @037   ----------------------------------------
 .byte   PATT
  .word Label_01024144
@  #06 @038   ----------------------------------------
 .byte   PATT
  .word Label_01024144
@  #06 @039   ----------------------------------------
 .byte   PATT
  .word Label_01024144
@  #06 @040   ----------------------------------------
 .byte   N20 ,Cn1 ,v108
 .byte   W12
 .byte   GOTO
  .word Label_0102417B
@  #06 @041   ----------------------------------------
 .byte   N11 ,Fs1 ,v112
 .byte   W12
 .byte   N20 ,Dn1 ,v108
 .byte   W12
 .byte   N11 ,As1 ,v112
 .byte   W12
 .byte   N20 ,Cn1 ,v108
 .byte   N11 ,Gs1 ,v112
 .byte   W12
 .byte   As1
 .byte   W12
 .byte   Dn1 ,v108
 .byte   N05 ,Gs1 ,v112
 .byte   W06
 .byte   Fs1
 .byte   W06
 .byte   N11 ,Cn1 ,v108
 .byte   N05 ,Fs1 ,v112
 .byte   W12
@  #06 @042   ----------------------------------------
 .byte   PATT
  .word Label_01024144
@  #06 @043   ----------------------------------------
 .byte   PATT
  .word Label_01024144
@  #06 @044   ----------------------------------------
 .byte   PATT
  .word Label_01024144
@  #06 @045   ----------------------------------------
 .byte   PATT
  .word Label_01024144
@  #06 @046   ----------------------------------------
 .byte   PATT
  .word Label_01024144
@  #06 @047   ----------------------------------------
 .byte   PATT
  .word Label_01024144
@  #06 @048   ----------------------------------------
 .byte   PATT
  .word Label_01024144
@  #06 @049   ----------------------------------------
 .byte   PATT
  .word Label_01024144
@  #06 @050   ----------------------------------------
 .byte   PATT
  .word Label_01024144
@  #06 @051   ----------------------------------------
 .byte   PATT
  .word Label_01024144
@  #06 @052   ----------------------------------------
 .byte   PATT
  .word Label_01024144
@  #06 @053   ----------------------------------------
 .byte   PATT
  .word Label_01024144
@  #06 @054   ----------------------------------------
 .byte   PATT
  .word Label_01024144
@  #06 @055   ----------------------------------------
 .byte   PATT
  .word Label_01024144
@  #06 @056   ----------------------------------------
 .byte   PATT
  .word Label_010241E5
@  #06 @057   ----------------------------------------
 .byte   PATT
  .word Label_01024205
@  #06 @058   ----------------------------------------
 .byte   PATT
  .word Label_0102422F
@  #06 @059   ----------------------------------------
 .byte   PATT
  .word Label_0102422F
@  #06 @060   ----------------------------------------
 .byte   PATT
  .word Label_0102422F
@  #06 @061   ----------------------------------------
 .byte   PATT
  .word Label_01024205
@  #06 @062   ----------------------------------------
 .byte   PATT
  .word Label_0102422F
@  #06 @063   ----------------------------------------
 .byte   PATT
  .word Label_0102422F
@  #06 @064   ----------------------------------------
 .byte   PATT
  .word Label_0102422F
@  #06 @065   ----------------------------------------
 .byte   PATT
  .word Label_01024205
@  #06 @066   ----------------------------------------
 .byte   PATT
  .word Label_0102422F
@  #06 @067   ----------------------------------------
 .byte   PATT
  .word Label_0102422F
@  #06 @068   ----------------------------------------
 .byte   PATT
  .word Label_0102422F
@  #06 @069   ----------------------------------------
 .byte   PATT
  .word Label_01024289
@  #06 @070   ----------------------------------------
 .byte   PATT
  .word Label_01024289
@  #06 @071   ----------------------------------------
 .byte   PATT
  .word Label_010242A3
@  #06 @072   ----------------------------------------
 .byte   PATT
  .word Label_010242B0
@  #06 @073   ----------------------------------------
 .byte   PATT
  .word Label_01024144
@  #06 @074   ----------------------------------------
 .byte   PATT
  .word Label_01024144
@  #06 @075   ----------------------------------------
 .byte   PATT
  .word Label_01024144
@  #06 @076   ----------------------------------------
 .byte   PATT
  .word Label_01024144
@  #06 @077   ----------------------------------------
 .byte   PATT
  .word Label_01024144
@  #06 @078   ----------------------------------------
 .byte   PATT
  .word Label_01024144
@  #06 @079   ----------------------------------------
 .byte   PATT
  .word Label_01024144
@  #06 @080   ----------------------------------------
 .byte   PATT
  .word Label_01024144
@  #06 @081   ----------------------------------------
 .byte   PATT
  .word Label_01024144
@  #06 @082   ----------------------------------------
 .byte   PATT
  .word Label_01024144
@  #06 @083   ----------------------------------------
 .byte   PATT
  .word Label_01024144
@  #06 @084   ----------------------------------------
 .byte   PATT
  .word Label_01024144
@  #06 @085   ----------------------------------------
 .byte   PATT
  .word Label_01024144
@  #06 @086   ----------------------------------------
 .byte   PATT
  .word Label_01024144
@  #06 @087   ----------------------------------------
 .byte   PATT
  .word Label_01024144
@  #06 @088   ----------------------------------------
 .byte   PATT
  .word Label_01024144
@  #06 @089   ----------------------------------------
 .byte   PATT
  .word Label_01024144
@  #06 @090   ----------------------------------------
 .byte   PATT
  .word Label_01024144
@  #06 @091   ----------------------------------------
 .byte   PATT
  .word Label_01024144
@  #06 @092   ----------------------------------------
 .byte   PATT
  .word Label_010241E5
@  #06 @093   ----------------------------------------
 .byte   PATT
  .word Label_01024205
@  #06 @094   ----------------------------------------
 .byte   PATT
  .word Label_0102422F
@  #06 @095   ----------------------------------------
 .byte   PATT
  .word Label_0102422F
@  #06 @096   ----------------------------------------
 .byte   PATT
  .word Label_0102422F
@  #06 @097   ----------------------------------------
 .byte   PATT
  .word Label_01024205
@  #06 @098   ----------------------------------------
 .byte   PATT
  .word Label_0102422F
@  #06 @099   ----------------------------------------
 .byte   PATT
  .word Label_0102422F
@  #06 @100   ----------------------------------------
 .byte   PATT
  .word Label_0102422F
@  #06 @101   ----------------------------------------
 .byte   PATT
  .word Label_01024205
@  #06 @102   ----------------------------------------
 .byte   PATT
  .word Label_0102422F
@  #06 @103   ----------------------------------------
 .byte   PATT
  .word Label_0102422F
@  #06 @104   ----------------------------------------
 .byte   PATT
  .word Label_0102422F
@  #06 @105   ----------------------------------------
 .byte   PATT
  .word Label_01024289
@  #06 @106   ----------------------------------------
 .byte   PATT
  .word Label_01024289
@  #06 @107   ----------------------------------------
 .byte   PATT
  .word Label_010242A3
@  #06 @108   ----------------------------------------
 .byte   N11 ,En1 ,v076
 .byte   W12
 .byte   N11
 .byte   W12
 .byte   Cn1
 .byte   W12
 .byte   En1
 .byte   W12
 .byte   Cn1
 .byte   W36
 .byte   DnM2
 .byte   W11
 .byte   FINE

@**************** Track 7 (Midi-Chn.6) ****************@

song06_007:
@  #07 @000   ----------------------------------------
 .byte   KEYSH , song06_key+0
 .byte   VOICE , 33
 .byte   VOL , 47*song06_mvl/mxv
 .byte   PAN , c_v+0
 .byte   W12
 .byte   N05 ,Ds3 ,v108
 .byte   N05 ,Gn3
 .byte   W24
 .byte   Fs3
 .byte   N05 ,An3
 .byte   W24
 .byte   Ds3
 .byte   N05 ,Gn3
 .byte   W24
 .byte   Dn3
 .byte   N05 ,Fs3
 .byte   W12
@  #07 @001   ----------------------------------------
Label_01024BEB:
 .byte   W12
 .byte   N05 ,Ds3 ,v108
 .byte   N05 ,Gn3
 .byte   W24
 .byte   Fs3
 .byte   N05 ,An3
 .byte   W24
 .byte   Ds3
 .byte   N05 ,Gn3
 .byte   W24
 .byte   Dn3
 .byte   N05 ,Fs3
 .byte   W12
 .byte   PEND 
@  #07 @002   ----------------------------------------
 .byte   PATT
  .word Label_01024BEB
@  #07 @003   ----------------------------------------
 .byte   PATT
  .word Label_01024BEB
@  #07 @004   ----------------------------------------
 .byte   W12
Label_01024C0A:
 .byte   N05 ,Ds3 ,v108
 .byte   N05 ,Gn3
 .byte   W24
 .byte   Fs3
 .byte   N05 ,An3
 .byte   W24
 .byte   Ds3
 .byte   N05 ,Gn3
 .byte   W24
 .byte   Dn3
 .byte   N05 ,Fs3
 .byte   W12
@  #07 @005   ----------------------------------------
 .byte   PATT
  .word Label_01024BEB
@  #07 @006   ----------------------------------------
 .byte   PATT
  .word Label_01024BEB
@  #07 @007   ----------------------------------------
 .byte   PATT
  .word Label_01024BEB
@  #07 @008   ----------------------------------------
 .byte   PATT
  .word Label_01024BEB
@  #07 @009   ----------------------------------------
 .byte   PATT
  .word Label_01024BEB
@  #07 @010   ----------------------------------------
 .byte   PATT
  .word Label_01024BEB
@  #07 @011   ----------------------------------------
 .byte   PATT
  .word Label_01024BEB
@  #07 @012   ----------------------------------------
 .byte   PATT
  .word Label_01024BEB
@  #07 @013   ----------------------------------------
 .byte   PATT
  .word Label_01024BEB
@  #07 @014   ----------------------------------------
 .byte   PATT
  .word Label_01024BEB
@  #07 @015   ----------------------------------------
 .byte   PATT
  .word Label_01024BEB
@  #07 @016   ----------------------------------------
 .byte   PATT
  .word Label_01024BEB
@  #07 @017   ----------------------------------------
 .byte   PATT
  .word Label_01024BEB
@  #07 @018   ----------------------------------------
 .byte   PATT
  .word Label_01024BEB
@  #07 @019   ----------------------------------------
Label_01024C62:
 .byte   W12
 .byte   N05 ,Ds3 ,v108
 .byte   N05 ,Gn3
 .byte   W24
 .byte   Fs3
 .byte   N05 ,An3
 .byte   W60
 .byte   PEND 
@  #07 @020   ----------------------------------------
 .byte   W96
@  #07 @021   ----------------------------------------
 .byte   W96
@  #07 @022   ----------------------------------------
 .byte   W96
@  #07 @023   ----------------------------------------
 .byte   W96
@  #07 @024   ----------------------------------------
 .byte   W96
@  #07 @025   ----------------------------------------
 .byte   W96
@  #07 @026   ----------------------------------------
 .byte   W96
@  #07 @027   ----------------------------------------
 .byte   W96
@  #07 @028   ----------------------------------------
 .byte   W96
@  #07 @029   ----------------------------------------
 .byte   W96
@  #07 @030   ----------------------------------------
 .byte   W96
@  #07 @031   ----------------------------------------
 .byte   W96
@  #07 @032   ----------------------------------------
Label_01024C7A:
 .byte   W12
 .byte   N05 ,Cn3 ,v092
 .byte   N05 ,Fn3
 .byte   W24
 .byte   Cn3
 .byte   N05 ,Fn3
 .byte   W24
 .byte   Cn3
 .byte   N05 ,Fn3
 .byte   W24
 .byte   Cn3
 .byte   N05 ,Fn3
 .byte   W12
 .byte   PEND 
@  #07 @033   ----------------------------------------
Label_01024C8E:
 .byte   W12
 .byte   N05 ,Dn3 ,v092
 .byte   N05 ,Gn3
 .byte   W24
 .byte   Dn3
 .byte   N05 ,Gn3
 .byte   W24
 .byte   Dn3
 .byte   N05 ,Gn3
 .byte   W24
 .byte   Dn3
 .byte   N05 ,Gn3
 .byte   W12
 .byte   PEND 
@  #07 @034   ----------------------------------------
Label_01024CA2:
 .byte   W12
 .byte   N05 ,Ds3 ,v092
 .byte   N05 ,Gs3
 .byte   W24
 .byte   Ds3
 .byte   N05 ,Gs3
 .byte   W60
 .byte   PEND 
@  #07 @035   ----------------------------------------
 .byte   W96
@  #07 @036   ----------------------------------------
 .byte   PATT
  .word Label_01024BEB
@  #07 @037   ----------------------------------------
 .byte   PATT
  .word Label_01024BEB
@  #07 @038   ----------------------------------------
 .byte   PATT
  .word Label_01024BEB
@  #07 @039   ----------------------------------------
 .byte   PATT
  .word Label_01024BEB
@  #07 @040   ----------------------------------------
 .byte   W12
 .byte   GOTO
  .word Label_01024C0A
@  #07 @041   ----------------------------------------
 .byte   N05 ,Ds3 ,v108
 .byte   N05 ,Gn3
 .byte   W24
 .byte   Fs3
 .byte   N05 ,An3
 .byte   W24
 .byte   Ds3
 .byte   N05 ,Gn3
 .byte   W24
 .byte   Dn3
 .byte   N05 ,Fs3
 .byte   W12
@  #07 @042   ----------------------------------------
 .byte   PATT
  .word Label_01024BEB
@  #07 @043   ----------------------------------------
 .byte   PATT
  .word Label_01024BEB
@  #07 @044   ----------------------------------------
 .byte   PATT
  .word Label_01024BEB
@  #07 @045   ----------------------------------------
 .byte   PATT
  .word Label_01024BEB
@  #07 @046   ----------------------------------------
 .byte   PATT
  .word Label_01024BEB
@  #07 @047   ----------------------------------------
 .byte   PATT
  .word Label_01024BEB
@  #07 @048   ----------------------------------------
 .byte   PATT
  .word Label_01024BEB
@  #07 @049   ----------------------------------------
 .byte   PATT
  .word Label_01024BEB
@  #07 @050   ----------------------------------------
 .byte   PATT
  .word Label_01024BEB
@  #07 @051   ----------------------------------------
 .byte   PATT
  .word Label_01024BEB
@  #07 @052   ----------------------------------------
 .byte   PATT
  .word Label_01024BEB
@  #07 @053   ----------------------------------------
 .byte   PATT
  .word Label_01024BEB
@  #07 @054   ----------------------------------------
 .byte   PATT
  .word Label_01024BEB
@  #07 @055   ----------------------------------------
 .byte   PATT
  .word Label_01024BEB
@  #07 @056   ----------------------------------------
 .byte   PATT
  .word Label_01024C62
@  #07 @057   ----------------------------------------
 .byte   W96
@  #07 @058   ----------------------------------------
 .byte   W96
@  #07 @059   ----------------------------------------
 .byte   W96
@  #07 @060   ----------------------------------------
 .byte   W96
@  #07 @061   ----------------------------------------
 .byte   W96
@  #07 @062   ----------------------------------------
 .byte   W96
@  #07 @063   ----------------------------------------
 .byte   W96
@  #07 @064   ----------------------------------------
 .byte   W96
@  #07 @065   ----------------------------------------
 .byte   W96
@  #07 @066   ----------------------------------------
 .byte   W96
@  #07 @067   ----------------------------------------
 .byte   W96
@  #07 @068   ----------------------------------------
 .byte   W96
@  #07 @069   ----------------------------------------
 .byte   PATT
  .word Label_01024C7A
@  #07 @070   ----------------------------------------
 .byte   PATT
  .word Label_01024C8E
@  #07 @071   ----------------------------------------
 .byte   PATT
  .word Label_01024CA2
@  #07 @072   ----------------------------------------
 .byte   W96
@  #07 @073   ----------------------------------------
 .byte   PATT
  .word Label_01024BEB
@  #07 @074   ----------------------------------------
 .byte   PATT
  .word Label_01024BEB
@  #07 @075   ----------------------------------------
 .byte   PATT
  .word Label_01024BEB
@  #07 @076   ----------------------------------------
 .byte   PATT
  .word Label_01024BEB
@  #07 @077   ----------------------------------------
 .byte   PATT
  .word Label_01024BEB
@  #07 @078   ----------------------------------------
 .byte   PATT
  .word Label_01024BEB
@  #07 @079   ----------------------------------------
 .byte   PATT
  .word Label_01024BEB
@  #07 @080   ----------------------------------------
 .byte   PATT
  .word Label_01024BEB
@  #07 @081   ----------------------------------------
 .byte   PATT
  .word Label_01024BEB
@  #07 @082   ----------------------------------------
 .byte   PATT
  .word Label_01024BEB
@  #07 @083   ----------------------------------------
 .byte   PATT
  .word Label_01024BEB
@  #07 @084   ----------------------------------------
 .byte   PATT
  .word Label_01024BEB
@  #07 @085   ----------------------------------------
 .byte   PATT
  .word Label_01024BEB
@  #07 @086   ----------------------------------------
 .byte   PATT
  .word Label_01024BEB
@  #07 @087   ----------------------------------------
 .byte   PATT
  .word Label_01024BEB
@  #07 @088   ----------------------------------------
 .byte   PATT
  .word Label_01024BEB
@  #07 @089   ----------------------------------------
 .byte   PATT
  .word Label_01024BEB
@  #07 @090   ----------------------------------------
 .byte   PATT
  .word Label_01024BEB
@  #07 @091   ----------------------------------------
 .byte   PATT
  .word Label_01024BEB
@  #07 @092   ----------------------------------------
 .byte   PATT
  .word Label_01024C62
@  #07 @093   ----------------------------------------
 .byte   W96
@  #07 @094   ----------------------------------------
 .byte   W96
@  #07 @095   ----------------------------------------
 .byte   W96
@  #07 @096   ----------------------------------------
 .byte   W96
@  #07 @097   ----------------------------------------
 .byte   W96
@  #07 @098   ----------------------------------------
 .byte   W96
@  #07 @099   ----------------------------------------
 .byte   W96
@  #07 @100   ----------------------------------------
 .byte   W96
@  #07 @101   ----------------------------------------
 .byte   W96
@  #07 @102   ----------------------------------------
 .byte   W96
@  #07 @103   ----------------------------------------
 .byte   W96
@  #07 @104   ----------------------------------------
 .byte   W96
@  #07 @105   ----------------------------------------
 .byte   PATT
  .word Label_01024C7A
@  #07 @106   ----------------------------------------
 .byte   PATT
  .word Label_01024C8E
@  #07 @107   ----------------------------------------
 .byte   PATT
  .word Label_01024CA2
@  #07 @108   ----------------------------------------
 .byte   W92
 .byte   W03
 .byte   FINE

@**************** Track 8 (Midi-Chn.7) ****************@

song06_008:
@  #08 @000   ----------------------------------------
 .byte   KEYSH , song06_key+0
 .byte   VOICE , 104
 .byte   VOL , 47*song06_mvl/mxv
 .byte   PAN , c_v+0
 .byte   W96
@  #08 @001   ----------------------------------------
 .byte   W96
@  #08 @002   ----------------------------------------
 .byte   W96
@  #08 @003   ----------------------------------------
 .byte   W96
@  #08 @004   ----------------------------------------
 .byte   W12
Label_01023BE9:
 .byte   N05 ,Cn3 ,v112
 .byte   W12
 .byte   Gn3
 .byte   W12
 .byte   Cn4
 .byte   W12
 .byte   N24 ,Ds4
 .byte   W24
 .byte   Cn4
 .byte   W24
@  #08 @005   ----------------------------------------
Label_01023BF6:
 .byte   N05 ,Bn3 ,v112
 .byte   W12
 .byte   Cn4
 .byte   W12
 .byte   N24 ,Dn4
 .byte   W24
 .byte   N05 ,Cn4
 .byte   W12
 .byte   Gn3
 .byte   W12
 .byte   Ds3
 .byte   W12
 .byte   Cn3
 .byte   W12
 .byte   PEND 
@  #08 @006   ----------------------------------------
Label_01023C09:
 .byte   N05 ,Dn3 ,v112
 .byte   W12
 .byte   Ds3
 .byte   W12
 .byte   N24 ,Fs3
 .byte   W24
 .byte   N05 ,Gn3
 .byte   W12
 .byte   Ds3
 .byte   W12
 .byte   Cn3
 .byte   W12
 .byte   Gn2
 .byte   W12
 .byte   PEND 
@  #08 @007   ----------------------------------------
Label_01023C1C:
 .byte   N05 ,Bn2 ,v112
 .byte   W12
 .byte   Cn3
 .byte   W12
 .byte   N24 ,Dn3
 .byte   W24
 .byte   N05 ,Cn3
 .byte   W48
 .byte   PEND 
@  #08 @008   ----------------------------------------
Label_01023C29:
 .byte   W12
 .byte   N05 ,Cn3 ,v112
 .byte   W12
 .byte   Gn3
 .byte   W12
 .byte   Cn4
 .byte   W12
 .byte   N18 ,Ds4
 .byte   W18
 .byte   N02 ,Gs4
 .byte   W03
 .byte   An4
 .byte   W03
 .byte   N24 ,As4
 .byte   W24
 .byte   PEND 
@  #08 @009   ----------------------------------------
Label_01023C3E:
 .byte   N05 ,An4 ,v112
 .byte   W12
 .byte   Gn4
 .byte   W12
 .byte   N24 ,An4
 .byte   W24
 .byte   N05 ,As4
 .byte   W12
 .byte   Gn4
 .byte   W12
 .byte   Ds4
 .byte   W12
 .byte   Cn4
 .byte   W12
 .byte   PEND 
@  #08 @010   ----------------------------------------
Label_01023C51:
 .byte   N05 ,Bn3 ,v112
 .byte   W12
 .byte   Cn4
 .byte   W12
 .byte   N24 ,Dn4
 .byte   W24
 .byte   N05 ,Ds4
 .byte   W12
 .byte   Cn4
 .byte   W12
 .byte   Gn3
 .byte   W12
 .byte   Ds3
 .byte   W12
 .byte   PEND 
@  #08 @011   ----------------------------------------
Label_01023C64:
 .byte   N11 ,Bn3 ,v112
 .byte   W12
 .byte   N05 ,An3
 .byte   W12
 .byte   N02 ,Bn3
 .byte   W03
 .byte   Cn4
 .byte   W03
 .byte   Bn3
 .byte   W03
 .byte   Cn4
 .byte   W03
 .byte   N11 ,Bn3
 .byte   W12
 .byte   Cn4
 .byte   W48
 .byte   PEND 
@  #08 @012   ----------------------------------------
Label_01023C7A:
 .byte   W12
 .byte   N05 ,Cn3 ,v112
 .byte   W12
 .byte   Gn3
 .byte   W12
 .byte   Cn4
 .byte   W12
 .byte   N24 ,Ds4
 .byte   W24
 .byte   Cn4
 .byte   W24
 .byte   PEND 
@  #08 @013   ----------------------------------------
 .byte   PATT
  .word Label_01023BF6
@  #08 @014   ----------------------------------------
 .byte   PATT
  .word Label_01023C09
@  #08 @015   ----------------------------------------
Label_01023C93:
 .byte   N05 ,Dn3 ,v112
 .byte   W12
 .byte   Cn3
 .byte   W12
 .byte   N24 ,Dn3
 .byte   W24
 .byte   N05 ,Cn3
 .byte   W48
 .byte   PEND 
@  #08 @016   ----------------------------------------
 .byte   PATT
  .word Label_01023C29
@  #08 @017   ----------------------------------------
 .byte   PATT
  .word Label_01023C3E
@  #08 @018   ----------------------------------------
 .byte   PATT
  .word Label_01023C51
@  #08 @019   ----------------------------------------
 .byte   PATT
  .word Label_01023C64
@  #08 @020   ----------------------------------------
 .byte   W96
@  #08 @021   ----------------------------------------
 .byte   W96
@  #08 @022   ----------------------------------------
 .byte   W96
@  #08 @023   ----------------------------------------
 .byte   W96
@  #08 @024   ----------------------------------------
 .byte   W96
@  #08 @025   ----------------------------------------
 .byte   W96
@  #08 @026   ----------------------------------------
 .byte   W96
@  #08 @027   ----------------------------------------
 .byte   W96
@  #08 @028   ----------------------------------------
 .byte   W96
@  #08 @029   ----------------------------------------
 .byte   W96
@  #08 @030   ----------------------------------------
 .byte   W96
@  #08 @031   ----------------------------------------
 .byte   W96
@  #08 @032   ----------------------------------------
 .byte   W96
@  #08 @033   ----------------------------------------
 .byte   W96
@  #08 @034   ----------------------------------------
 .byte   W96
@  #08 @035   ----------------------------------------
 .byte   W96
@  #08 @036   ----------------------------------------
 .byte   W96
@  #08 @037   ----------------------------------------
 .byte   W96
@  #08 @038   ----------------------------------------
 .byte   W96
@  #08 @039   ----------------------------------------
 .byte   W96
@  #08 @040   ----------------------------------------
 .byte   W12
 .byte   GOTO
  .word Label_01023BE9
@  #08 @041   ----------------------------------------
 .byte   N05 ,Cn3 ,v112
 .byte   W12
 .byte   Gn3
 .byte   W12
 .byte   Cn4
 .byte   W12
 .byte   N24 ,Ds4
 .byte   W24
 .byte   Cn4
 .byte   W24
@  #08 @042   ----------------------------------------
 .byte   PATT
  .word Label_01023BF6
@  #08 @043   ----------------------------------------
 .byte   PATT
  .word Label_01023C09
@  #08 @044   ----------------------------------------
 .byte   PATT
  .word Label_01023C1C
@  #08 @045   ----------------------------------------
 .byte   PATT
  .word Label_01023C29
@  #08 @046   ----------------------------------------
 .byte   PATT
  .word Label_01023C3E
@  #08 @047   ----------------------------------------
 .byte   PATT
  .word Label_01023C51
@  #08 @048   ----------------------------------------
 .byte   PATT
  .word Label_01023C64
@  #08 @049   ----------------------------------------
 .byte   PATT
  .word Label_01023C7A
@  #08 @050   ----------------------------------------
 .byte   PATT
  .word Label_01023BF6
@  #08 @051   ----------------------------------------
 .byte   PATT
  .word Label_01023C09
@  #08 @052   ----------------------------------------
 .byte   PATT
  .word Label_01023C93
@  #08 @053   ----------------------------------------
 .byte   PATT
  .word Label_01023C29
@  #08 @054   ----------------------------------------
 .byte   PATT
  .word Label_01023C3E
@  #08 @055   ----------------------------------------
 .byte   PATT
  .word Label_01023C51
@  #08 @056   ----------------------------------------
 .byte   PATT
  .word Label_01023C64
@  #08 @057   ----------------------------------------
 .byte   W96
@  #08 @058   ----------------------------------------
 .byte   W96
@  #08 @059   ----------------------------------------
 .byte   W96
@  #08 @060   ----------------------------------------
 .byte   W96
@  #08 @061   ----------------------------------------
 .byte   W96
@  #08 @062   ----------------------------------------
 .byte   W96
@  #08 @063   ----------------------------------------
 .byte   W96
@  #08 @064   ----------------------------------------
 .byte   W96
@  #08 @065   ----------------------------------------
 .byte   W96
@  #08 @066   ----------------------------------------
 .byte   W96
@  #08 @067   ----------------------------------------
 .byte   W96
@  #08 @068   ----------------------------------------
 .byte   W96
@  #08 @069   ----------------------------------------
 .byte   W96
@  #08 @070   ----------------------------------------
 .byte   W96
@  #08 @071   ----------------------------------------
 .byte   W96
@  #08 @072   ----------------------------------------
 .byte   W96
@  #08 @073   ----------------------------------------
 .byte   W96
@  #08 @074   ----------------------------------------
 .byte   W96
@  #08 @075   ----------------------------------------
 .byte   W96
@  #08 @076   ----------------------------------------
 .byte   W96
@  #08 @077   ----------------------------------------
 .byte   PATT
  .word Label_01023C7A
@  #08 @078   ----------------------------------------
 .byte   PATT
  .word Label_01023BF6
@  #08 @079   ----------------------------------------
 .byte   PATT
  .word Label_01023C09
@  #08 @080   ----------------------------------------
 .byte   PATT
  .word Label_01023C1C
@  #08 @081   ----------------------------------------
 .byte   PATT
  .word Label_01023C29
@  #08 @082   ----------------------------------------
 .byte   PATT
  .word Label_01023C3E
@  #08 @083   ----------------------------------------
 .byte   PATT
  .word Label_01023C51
@  #08 @084   ----------------------------------------
 .byte   PATT
  .word Label_01023C64
@  #08 @085   ----------------------------------------
 .byte   PATT
  .word Label_01023C7A
@  #08 @086   ----------------------------------------
 .byte   PATT
  .word Label_01023BF6
@  #08 @087   ----------------------------------------
 .byte   PATT
  .word Label_01023C09
@  #08 @088   ----------------------------------------
 .byte   PATT
  .word Label_01023C93
@  #08 @089   ----------------------------------------
 .byte   PATT
  .word Label_01023C29
@  #08 @090   ----------------------------------------
 .byte   PATT
  .word Label_01023C3E
@  #08 @091   ----------------------------------------
 .byte   PATT
  .word Label_01023C51
@  #08 @092   ----------------------------------------
 .byte   PATT
  .word Label_01023C64
@  #08 @093   ----------------------------------------
 .byte   W96
@  #08 @094   ----------------------------------------
 .byte   W96
@  #08 @095   ----------------------------------------
 .byte   W96
@  #08 @096   ----------------------------------------
 .byte   W96
@  #08 @097   ----------------------------------------
 .byte   W96
@  #08 @098   ----------------------------------------
 .byte   W96
@  #08 @099   ----------------------------------------
 .byte   W96
@  #08 @100   ----------------------------------------
 .byte   W96
@  #08 @101   ----------------------------------------
 .byte   W96
@  #08 @102   ----------------------------------------
 .byte   W96
@  #08 @103   ----------------------------------------
 .byte   W96
@  #08 @104   ----------------------------------------
 .byte   W96
@  #08 @105   ----------------------------------------
 .byte   W96
@  #08 @106   ----------------------------------------
 .byte   W96
@  #08 @107   ----------------------------------------
 .byte   W96
@  #08 @108   ----------------------------------------
 .byte   W92
 .byte   W03
 .byte   FINE

@**************** Track 9 (Midi-Chn.8) ****************@

song06_009:
@  #09 @000   ----------------------------------------
 .byte   KEYSH , song06_key+0
 .byte   VOICE , 49
 .byte   VOL , 47*song06_mvl/mxv
 .byte   PAN , c_v+0
 .byte   W96
@  #09 @001   ----------------------------------------
 .byte   W96
@  #09 @002   ----------------------------------------
 .byte   W96
@  #09 @003   ----------------------------------------
 .byte   W96
@  #09 @004   ----------------------------------------
 .byte   W12
Label_01023DA9:
 .byte   W84
@  #09 @005   ----------------------------------------
 .byte   W96
@  #09 @006   ----------------------------------------
 .byte   W96
@  #09 @007   ----------------------------------------
 .byte   W96
@  #09 @008   ----------------------------------------
 .byte   W96
@  #09 @009   ----------------------------------------
 .byte   W96
@  #09 @010   ----------------------------------------
 .byte   W96
@  #09 @011   ----------------------------------------
 .byte   W96
@  #09 @012   ----------------------------------------
Label_01023DB1:
 .byte   W12
 .byte   N05 ,Ds4 ,v108
 .byte   W12
 .byte   Cn4
 .byte   W12
 .byte   Gn3
 .byte   W12
 .byte   N24 ,Bn3
 .byte   W24
 .byte   Gs4
 .byte   W24
 .byte   PEND 
@  #09 @013   ----------------------------------------
Label_01023DC0:
 .byte   N05 ,Gn4 ,v108
 .byte   W12
 .byte   Fs4
 .byte   W12
 .byte   N24 ,Gn4
 .byte   W24
 .byte   N05 ,Cn5
 .byte   W12
 .byte   Gn4
 .byte   W12
 .byte   Ds4
 .byte   W12
 .byte   Cn4
 .byte   W12
 .byte   PEND 
@  #09 @014   ----------------------------------------
Label_01023DD3:
 .byte   N05 ,Gn3 ,v108
 .byte   W12
 .byte   Cn4
 .byte   W12
 .byte   N24 ,Dn4
 .byte   W24
 .byte   N05 ,Ds4
 .byte   W12
 .byte   Cn4
 .byte   W12
 .byte   Gn3
 .byte   W12
 .byte   Ds3
 .byte   W12
 .byte   PEND 
@  #09 @015   ----------------------------------------
Label_01023DE6:
 .byte   N05 ,Gn3 ,v108
 .byte   W12
 .byte   Cn4
 .byte   W12
 .byte   N24 ,Dn4
 .byte   W24
 .byte   N05 ,Cn4
 .byte   W48
 .byte   PEND 
@  #09 @016   ----------------------------------------
 .byte   W96
@  #09 @017   ----------------------------------------
 .byte   W96
@  #09 @018   ----------------------------------------
 .byte   W96
@  #09 @019   ----------------------------------------
 .byte   W96
@  #09 @020   ----------------------------------------
Label_01023DF7:
 .byte   W12
 .byte   N05 ,Gs2 ,v092
 .byte   W12
 .byte   Cn3
 .byte   W12
 .byte   Fn3
 .byte   W12
 .byte   N24 ,Gs3
 .byte   W24
 .byte   Fn3
 .byte   W24
 .byte   PEND 
@  #09 @021   ----------------------------------------
Label_01023E06:
 .byte   N05 ,Dn3 ,v092
 .byte   W12
 .byte   Ds3
 .byte   W12
 .byte   N02 ,Fn3
 .byte   W03
 .byte   N02
 .byte   W03
 .byte   N17
 .byte   W18
 .byte   N05 ,Dn3
 .byte   W12
 .byte   Bn2
 .byte   W12
 .byte   Cn3
 .byte   W12
 .byte   Dn3
 .byte   W12
 .byte   PEND 
@  #09 @022   ----------------------------------------
Label_01023E1D:
 .byte   N18 ,Ds3 ,v092
 .byte   W18
 .byte   N03 ,Fn3
 .byte   W03
 .byte   Ds3
 .byte   W03
 .byte   N05 ,Dn3
 .byte   W12
 .byte   Cn3
 .byte   W12
 .byte   N24 ,Gs3
 .byte   W24
 .byte   N05 ,Gn3
 .byte   W12
 .byte   Fn3
 .byte   W12
 .byte   PEND 
@  #09 @023   ----------------------------------------
Label_01023E34:
 .byte   N17 ,Ds3 ,v092
 .byte   W18
 .byte   N02 ,Fn3
 .byte   W03
 .byte   Ds3
 .byte   W03
 .byte   N05 ,Dn3
 .byte   W12
 .byte   Fn3
 .byte   W12
 .byte   N42 ,Ds3
 .byte   W48
 .byte   PEND 
@  #09 @024   ----------------------------------------
 .byte   PATT
  .word Label_01023DF7
@  #09 @025   ----------------------------------------
 .byte   PATT
  .word Label_01023E06
@  #09 @026   ----------------------------------------
Label_01023E50:
 .byte   N18 ,Ds3 ,v092
 .byte   W18
 .byte   N03 ,Fn3
 .byte   W03
 .byte   Ds3
 .byte   W03
 .byte   N05 ,Dn3
 .byte   W12
 .byte   Cn3
 .byte   W12
 .byte   N24 ,Gs3
 .byte   W24
 .byte   N05 ,As3
 .byte   W12
 .byte   Cn4
 .byte   W12
 .byte   PEND 
@  #09 @027   ----------------------------------------
Label_01023E67:
 .byte   N05 ,As3 ,v092
 .byte   W12
 .byte   Gs3
 .byte   W12
 .byte   Gn3
 .byte   W12
 .byte   Dn3
 .byte   W12
 .byte   N02 ,Bn2
 .byte   W03
 .byte   N02
 .byte   W03
 .byte   N36
 .byte   W42
 .byte   PEND 
@  #09 @028   ----------------------------------------
 .byte   PATT
  .word Label_01023DF7
@  #09 @029   ----------------------------------------
 .byte   PATT
  .word Label_01023E06
@  #09 @030   ----------------------------------------
 .byte   PATT
  .word Label_01023E1D
@  #09 @031   ----------------------------------------
 .byte   PATT
  .word Label_01023E34
@  #09 @032   ----------------------------------------
 .byte   W96
@  #09 @033   ----------------------------------------
 .byte   W96
@  #09 @034   ----------------------------------------
 .byte   W96
@  #09 @035   ----------------------------------------
 .byte   W72
 .byte   N12 ,Cn5 ,v092
 .byte   W24
@  #09 @036   ----------------------------------------
 .byte   W96
@  #09 @037   ----------------------------------------
 .byte   W96
@  #09 @038   ----------------------------------------
 .byte   W96
@  #09 @039   ----------------------------------------
 .byte   W96
@  #09 @040   ----------------------------------------
 .byte   W12
 .byte   GOTO
  .word Label_01023DA9
@  #09 @041   ----------------------------------------
 .byte   W84
 .byte   W96
@  #09 @042   ----------------------------------------
 .byte   W96
@  #09 @043   ----------------------------------------
 .byte   W96
@  #09 @044   ----------------------------------------
 .byte   W96
@  #09 @045   ----------------------------------------
 .byte   W96
@  #09 @046   ----------------------------------------
 .byte   W96
@  #09 @047   ----------------------------------------
 .byte   W96
@  #09 @048   ----------------------------------------
 .byte   PATT
  .word Label_01023DB1
@  #09 @049   ----------------------------------------
 .byte   PATT
  .word Label_01023DC0
@  #09 @050   ----------------------------------------
 .byte   PATT
  .word Label_01023DD3
@  #09 @051   ----------------------------------------
 .byte   PATT
  .word Label_01023DE6
@  #09 @052   ----------------------------------------
 .byte   W96
@  #09 @053   ----------------------------------------
 .byte   W96
@  #09 @054   ----------------------------------------
 .byte   W96
@  #09 @055   ----------------------------------------
 .byte   W96
@  #09 @056   ----------------------------------------
 .byte   PATT
  .word Label_01023DF7
@  #09 @057   ----------------------------------------
 .byte   PATT
  .word Label_01023E06
@  #09 @058   ----------------------------------------
 .byte   PATT
  .word Label_01023E1D
@  #09 @059   ----------------------------------------
 .byte   PATT
  .word Label_01023E34
@  #09 @060   ----------------------------------------
 .byte   PATT
  .word Label_01023DF7
@  #09 @061   ----------------------------------------
 .byte   PATT
  .word Label_01023E06
@  #09 @062   ----------------------------------------
 .byte   PATT
  .word Label_01023E50
@  #09 @063   ----------------------------------------
 .byte   PATT
  .word Label_01023E67
@  #09 @064   ----------------------------------------
 .byte   PATT
  .word Label_01023DF7
@  #09 @065   ----------------------------------------
 .byte   PATT
  .word Label_01023E06
@  #09 @066   ----------------------------------------
 .byte   PATT
  .word Label_01023E1D
@  #09 @067   ----------------------------------------
 .byte   PATT
  .word Label_01023E34
@  #09 @068   ----------------------------------------
 .byte   W96
@  #09 @069   ----------------------------------------
 .byte   W96
@  #09 @070   ----------------------------------------
 .byte   W96
@  #09 @071   ----------------------------------------
 .byte   W72
 .byte   N12 ,Cn5 ,v092
 .byte   W24
@  #09 @072   ----------------------------------------
 .byte   W96
@  #09 @073   ----------------------------------------
 .byte   W96
@  #09 @074   ----------------------------------------
 .byte   W96
@  #09 @075   ----------------------------------------
 .byte   W96
@  #09 @076   ----------------------------------------
 .byte   W96
@  #09 @077   ----------------------------------------
 .byte   W96
@  #09 @078   ----------------------------------------
 .byte   W96
@  #09 @079   ----------------------------------------
 .byte   W96
@  #09 @080   ----------------------------------------
 .byte   W96
@  #09 @081   ----------------------------------------
 .byte   W96
@  #09 @082   ----------------------------------------
 .byte   W96
@  #09 @083   ----------------------------------------
 .byte   W96
@  #09 @084   ----------------------------------------
 .byte   PATT
  .word Label_01023DB1
@  #09 @085   ----------------------------------------
 .byte   PATT
  .word Label_01023DC0
@  #09 @086   ----------------------------------------
 .byte   PATT
  .word Label_01023DD3
@  #09 @087   ----------------------------------------
 .byte   PATT
  .word Label_01023DE6
@  #09 @088   ----------------------------------------
 .byte   W96
@  #09 @089   ----------------------------------------
 .byte   W96
@  #09 @090   ----------------------------------------
 .byte   W96
@  #09 @091   ----------------------------------------
 .byte   W96
@  #09 @092   ----------------------------------------
 .byte   PATT
  .word Label_01023DF7
@  #09 @093   ----------------------------------------
 .byte   PATT
  .word Label_01023E06
@  #09 @094   ----------------------------------------
 .byte   PATT
  .word Label_01023E1D
@  #09 @095   ----------------------------------------
 .byte   PATT
  .word Label_01023E34
@  #09 @096   ----------------------------------------
 .byte   PATT
  .word Label_01023DF7
@  #09 @097   ----------------------------------------
 .byte   PATT
  .word Label_01023E06
@  #09 @098   ----------------------------------------
 .byte   PATT
  .word Label_01023E50
@  #09 @099   ----------------------------------------
 .byte   PATT
  .word Label_01023E67
@  #09 @100   ----------------------------------------
 .byte   PATT
  .word Label_01023DF7
@  #09 @101   ----------------------------------------
 .byte   PATT
  .word Label_01023E06
@  #09 @102   ----------------------------------------
 .byte   PATT
  .word Label_01023E1D
@  #09 @103   ----------------------------------------
 .byte   PATT
  .word Label_01023E34
@  #09 @104   ----------------------------------------
 .byte   W96
@  #09 @105   ----------------------------------------
 .byte   W96
@  #09 @106   ----------------------------------------
 .byte   W96
@  #09 @107   ----------------------------------------
 .byte   W72
 .byte   N12 ,Cn5 ,v092
 .byte   W23
 .byte   FINE

@**************** Track 10 (Midi-Chn.9) ****************@

song06_010:
@  #10 @000   ----------------------------------------
 .byte   KEYSH , song06_key+0
 .byte   VOICE , 104
 .byte   VOL , 47*song06_mvl/mxv
 .byte   PAN , c_v+0
 .byte   W96
@  #10 @001   ----------------------------------------
 .byte   W96
@  #10 @002   ----------------------------------------
 .byte   W96
@  #10 @003   ----------------------------------------
 .byte   W96
@  #10 @004   ----------------------------------------
 .byte   W12
Label_010254C5:
 .byte   W84
@  #10 @005   ----------------------------------------
 .byte   W96
@  #10 @006   ----------------------------------------
 .byte   W96
@  #10 @007   ----------------------------------------
 .byte   W96
@  #10 @008   ----------------------------------------
 .byte   W96
@  #10 @009   ----------------------------------------
 .byte   W96
@  #10 @010   ----------------------------------------
 .byte   W96
@  #10 @011   ----------------------------------------
 .byte   W96
@  #10 @012   ----------------------------------------
 .byte   W96
@  #10 @013   ----------------------------------------
 .byte   W96
@  #10 @014   ----------------------------------------
 .byte   W96
@  #10 @015   ----------------------------------------
 .byte   W96
@  #10 @016   ----------------------------------------
 .byte   W48
 .byte   N18 ,Cn3 ,v112
 .byte   W18
 .byte   N02 ,Fn3
 .byte   W03
 .byte   N02
 .byte   W03
 .byte   N24 ,Gn3
 .byte   W24
@  #10 @017   ----------------------------------------
 .byte   N05 ,Fs3
 .byte   W12
 .byte   En3
 .byte   W12
 .byte   N24 ,Fs3
 .byte   W24
 .byte   N05 ,Gn3
 .byte   W12
 .byte   Ds3
 .byte   W12
 .byte   Cn3
 .byte   W12
 .byte   Fn2
 .byte   W12
@  #10 @018   ----------------------------------------
 .byte   Gn2
 .byte   W12
 .byte   Cn3
 .byte   W12
 .byte   N24 ,Dn3
 .byte   W24
 .byte   N05 ,Ds3
 .byte   W12
 .byte   Cn3
 .byte   W12
 .byte   Gn2
 .byte   W12
 .byte   Ds2
 .byte   W12
@  #10 @019   ----------------------------------------
 .byte   N11 ,Bn1
 .byte   W12
 .byte   N05 ,Gn1
 .byte   W12
 .byte   N02 ,Gn2
 .byte   W03
 .byte   Gs2
 .byte   W03
 .byte   Gn2
 .byte   W03
 .byte   Gs2
 .byte   W03
 .byte   N11 ,Gn2
 .byte   W12
 .byte   Cn2
 .byte   W48
@  #10 @020   ----------------------------------------
 .byte   W96
@  #10 @021   ----------------------------------------
 .byte   W96
@  #10 @022   ----------------------------------------
 .byte   W96
@  #10 @023   ----------------------------------------
 .byte   W96
@  #10 @024   ----------------------------------------
 .byte   W96
@  #10 @025   ----------------------------------------
 .byte   W96
@  #10 @026   ----------------------------------------
 .byte   W96
@  #10 @027   ----------------------------------------
 .byte   W96
@  #10 @028   ----------------------------------------
 .byte   W96
@  #10 @029   ----------------------------------------
 .byte   W96
@  #10 @030   ----------------------------------------
 .byte   W96
@  #10 @031   ----------------------------------------
 .byte   W96
@  #10 @032   ----------------------------------------
Label_0102551F:
 .byte   W12
 .byte   N05 ,Fn3 ,v092
 .byte   W12
 .byte   Gs3
 .byte   W12
 .byte   Cn4
 .byte   W12
 .byte   N18 ,Fn4
 .byte   W18
 .byte   N02
 .byte   W03
 .byte   Gn4
 .byte   W03
 .byte   N24 ,Gs4
 .byte   W24
 .byte   PEND 
@  #10 @033   ----------------------------------------
Label_01025533:
 .byte   N05 ,Gn4 ,v092
 .byte   W12
 .byte   Fn4
 .byte   W12
 .byte   N11 ,Dn4
 .byte   W24
 .byte   Bn3
 .byte   W18
 .byte   N02 ,Cn4
 .byte   W03
 .byte   Dn4
 .byte   W03
 .byte   N11 ,Ds4
 .byte   W12
 .byte   Dn4
 .byte   W12
 .byte   PEND 
@  #10 @034   ----------------------------------------
Label_01025549:
 .byte   N11 ,Cn4 ,v092
 .byte   W12
 .byte   Bn3
 .byte   W12
 .byte   Cn4
 .byte   W12
 .byte   Dn4
 .byte   W12
 .byte   Ds4
 .byte   W24
 .byte   Cn4
 .byte   W24
 .byte   PEND 
@  #10 @035   ----------------------------------------
Label_01025558:
 .byte   N11 ,Bn3 ,v092
 .byte   W12
 .byte   Cn4
 .byte   W12
 .byte   Dn4
 .byte   W24
 .byte   Cn4
 .byte   W48
 .byte   PEND 
@  #10 @036   ----------------------------------------
 .byte   W96
@  #10 @037   ----------------------------------------
 .byte   W96
@  #10 @038   ----------------------------------------
 .byte   W96
@  #10 @039   ----------------------------------------
 .byte   W96
@  #10 @040   ----------------------------------------
 .byte   W12
 .byte   GOTO
  .word Label_010254C5
@  #10 @041   ----------------------------------------
 .byte   W84
 .byte   W96
@  #10 @042   ----------------------------------------
 .byte   W96
@  #10 @043   ----------------------------------------
 .byte   W96
@  #10 @044   ----------------------------------------
 .byte   W96
@  #10 @045   ----------------------------------------
 .byte   W96
@  #10 @046   ----------------------------------------
 .byte   W96
@  #10 @047   ----------------------------------------
 .byte   W96
@  #10 @048   ----------------------------------------
 .byte   W96
@  #10 @049   ----------------------------------------
 .byte   W96
@  #10 @050   ----------------------------------------
 .byte   W96
@  #10 @051   ----------------------------------------
 .byte   W96
@  #10 @052   ----------------------------------------
Label_01025579:
 .byte   W48
 .byte   N18 ,Cn3 ,v092
 .byte   W18
 .byte   N02 ,Fn3
 .byte   W03
 .byte   N02
 .byte   W03
 .byte   N24 ,Gn3
 .byte   W24
 .byte   PEND 
@  #10 @053   ----------------------------------------
Label_01025587:
 .byte   N05 ,Fs3 ,v092
 .byte   W12
 .byte   En3
 .byte   W12
 .byte   N24 ,Fs3
 .byte   W24
 .byte   N05 ,Gn3
 .byte   W12
 .byte   Ds3
 .byte   W12
 .byte   Cn3
 .byte   W12
 .byte   Fn2
 .byte   W12
 .byte   PEND 
@  #10 @054   ----------------------------------------
Label_0102559A:
 .byte   N05 ,Gn2 ,v092
 .byte   W12
 .byte   Cn3
 .byte   W12
 .byte   N24 ,Dn3
 .byte   W24
 .byte   N05 ,Ds3
 .byte   W12
 .byte   Cn3
 .byte   W12
 .byte   Gn2
 .byte   W12
 .byte   Ds2
 .byte   W12
 .byte   PEND 
@  #10 @055   ----------------------------------------
Label_010255AD:
 .byte   N11 ,Bn1 ,v092
 .byte   W12
 .byte   N05 ,Gn1
 .byte   W12
 .byte   N02 ,Gn2
 .byte   W03
 .byte   Gs2
 .byte   W03
 .byte   Gn2
 .byte   W03
 .byte   Gs2
 .byte   W03
 .byte   N11 ,Gn2
 .byte   W12
 .byte   Cn2
 .byte   W48
 .byte   PEND 
@  #10 @056   ----------------------------------------
 .byte   W96
@  #10 @057   ----------------------------------------
 .byte   W96
@  #10 @058   ----------------------------------------
 .byte   W96
@  #10 @059   ----------------------------------------
 .byte   W96
@  #10 @060   ----------------------------------------
 .byte   W96
@  #10 @061   ----------------------------------------
 .byte   W96
@  #10 @062   ----------------------------------------
 .byte   W96
@  #10 @063   ----------------------------------------
 .byte   W96
@  #10 @064   ----------------------------------------
 .byte   W96
@  #10 @065   ----------------------------------------
 .byte   W96
@  #10 @066   ----------------------------------------
 .byte   W96
@  #10 @067   ----------------------------------------
 .byte   W96
@  #10 @068   ----------------------------------------
 .byte   PATT
  .word Label_0102551F
@  #10 @069   ----------------------------------------
 .byte   PATT
  .word Label_01025533
@  #10 @070   ----------------------------------------
 .byte   PATT
  .word Label_01025549
@  #10 @071   ----------------------------------------
 .byte   PATT
  .word Label_01025558
@  #10 @072   ----------------------------------------
 .byte   W96
@  #10 @073   ----------------------------------------
 .byte   W96
@  #10 @074   ----------------------------------------
 .byte   W96
@  #10 @075   ----------------------------------------
 .byte   W96
@  #10 @076   ----------------------------------------
 .byte   W96
@  #10 @077   ----------------------------------------
 .byte   W96
@  #10 @078   ----------------------------------------
 .byte   W96
@  #10 @079   ----------------------------------------
 .byte   W96
@  #10 @080   ----------------------------------------
 .byte   W96
@  #10 @081   ----------------------------------------
 .byte   W96
@  #10 @082   ----------------------------------------
 .byte   W96
@  #10 @083   ----------------------------------------
 .byte   W96
@  #10 @084   ----------------------------------------
 .byte   W96
@  #10 @085   ----------------------------------------
 .byte   W96
@  #10 @086   ----------------------------------------
 .byte   W96
@  #10 @087   ----------------------------------------
 .byte   W96
@  #10 @088   ----------------------------------------
 .byte   PATT
  .word Label_01025579
@  #10 @089   ----------------------------------------
 .byte   PATT
  .word Label_01025587
@  #10 @090   ----------------------------------------
 .byte   PATT
  .word Label_0102559A
@  #10 @091   ----------------------------------------
 .byte   PATT
  .word Label_010255AD
@  #10 @092   ----------------------------------------
 .byte   W96
@  #10 @093   ----------------------------------------
 .byte   W96
@  #10 @094   ----------------------------------------
 .byte   W96
@  #10 @095   ----------------------------------------
 .byte   W96
@  #10 @096   ----------------------------------------
 .byte   W96
@  #10 @097   ----------------------------------------
 .byte   W96
@  #10 @098   ----------------------------------------
 .byte   W96
@  #10 @099   ----------------------------------------
 .byte   W96
@  #10 @100   ----------------------------------------
 .byte   W96
@  #10 @101   ----------------------------------------
 .byte   W96
@  #10 @102   ----------------------------------------
 .byte   W96
@  #10 @103   ----------------------------------------
 .byte   W96
@  #10 @104   ----------------------------------------
 .byte   PATT
  .word Label_0102551F
@  #10 @105   ----------------------------------------
 .byte   PATT
  .word Label_01025533
@  #10 @106   ----------------------------------------
 .byte   PATT
  .word Label_01025549
@  #10 @107   ----------------------------------------
 .byte   N11 ,Bn3 ,v092
 .byte   W12
 .byte   Cn4
 .byte   W12
 .byte   Dn4
 .byte   W24
 .byte   Cn4
 .byte   W44
 .byte   W03
 .byte   FINE

@**************** Track 11 (Midi-Chn.10) ****************@

song06_011:
@  #11 @000   ----------------------------------------
 .byte   KEYSH , song06_key+0
 .byte   VOICE , 13
 .byte   VOL , 47*song06_mvl/mxv
 .byte   PAN , c_v+0
 .byte   W96
@  #11 @001   ----------------------------------------
 .byte   W96
@  #11 @002   ----------------------------------------
 .byte   W96
@  #11 @003   ----------------------------------------
 .byte   W96
@  #11 @004   ----------------------------------------
 .byte   W12
Label_01022DC1:
 .byte   W84
@  #11 @005   ----------------------------------------
 .byte   W96
@  #11 @006   ----------------------------------------
 .byte   W96
@  #11 @007   ----------------------------------------
 .byte   W96
@  #11 @008   ----------------------------------------
 .byte   W96
@  #11 @009   ----------------------------------------
 .byte   W96
@  #11 @010   ----------------------------------------
 .byte   W96
@  #11 @011   ----------------------------------------
 .byte   W96
@  #11 @012   ----------------------------------------
 .byte   W96
@  #11 @013   ----------------------------------------
 .byte   W96
@  #11 @014   ----------------------------------------
 .byte   W96
@  #11 @015   ----------------------------------------
 .byte   W96
@  #11 @016   ----------------------------------------
 .byte   W96
@  #11 @017   ----------------------------------------
 .byte   W96
@  #11 @018   ----------------------------------------
 .byte   W96
@  #11 @019   ----------------------------------------
 .byte   W96
@  #11 @020   ----------------------------------------
Label_01022DD1:
 .byte   W12
 .byte   N11 ,Gs2 ,v092
 .byte   N11 ,Cn3
 .byte   W24
 .byte   Gs2
 .byte   N11 ,Cn3
 .byte   W24
 .byte   Gs2
 .byte   N11 ,Cn3
 .byte   W24
 .byte   Gs2
 .byte   N11 ,Cn3
 .byte   W12
 .byte   PEND 
@  #11 @021   ----------------------------------------
Label_01022DE5:
 .byte   W12
 .byte   N11 ,Bn2 ,v092
 .byte   N11 ,Dn3
 .byte   W24
 .byte   Bn2
 .byte   N11 ,Dn3
 .byte   W24
 .byte   Bn2
 .byte   N11 ,Dn3
 .byte   W24
 .byte   Bn2
 .byte   N11 ,Dn3
 .byte   W12
 .byte   PEND 
@  #11 @022   ----------------------------------------
Label_01022DF9:
 .byte   W12
 .byte   N11 ,Cn3 ,v092
 .byte   N11 ,Ds3
 .byte   W24
 .byte   Cn3
 .byte   N11 ,Ds3
 .byte   W24
 .byte   Cn3
 .byte   N11 ,Ds3
 .byte   W24
 .byte   Cn3
 .byte   N11 ,Ds3
 .byte   W12
 .byte   PEND 
@  #11 @023   ----------------------------------------
Label_01022E0D:
 .byte   W12
 .byte   N11 ,Gn2 ,v092
 .byte   N11 ,As2
 .byte   W24
 .byte   Gn2
 .byte   N11 ,As2
 .byte   W24
 .byte   Fn2
 .byte   N11 ,Gs2
 .byte   W24
 .byte   N11
 .byte   N11 ,Cs3
 .byte   W12
 .byte   PEND 
@  #11 @024   ----------------------------------------
 .byte   PATT
  .word Label_01022DD1
@  #11 @025   ----------------------------------------
 .byte   PATT
  .word Label_01022DE5
@  #11 @026   ----------------------------------------
 .byte   PATT
  .word Label_01022DF9
@  #11 @027   ----------------------------------------
Label_01022E30:
 .byte   W12
 .byte   N11 ,Gs2 ,v092
 .byte   N11 ,Dn3
 .byte   W24
 .byte   Gs2
 .byte   N11 ,Dn3
 .byte   W24
 .byte   Gn2
 .byte   N11 ,Bn2
 .byte   W24
 .byte   Gn2
 .byte   N11 ,Bn2
 .byte   W12
 .byte   PEND 
@  #11 @028   ----------------------------------------
 .byte   PATT
  .word Label_01022DD1
@  #11 @029   ----------------------------------------
 .byte   PATT
  .word Label_01022DE5
@  #11 @030   ----------------------------------------
 .byte   PATT
  .word Label_01022DF9
@  #11 @031   ----------------------------------------
 .byte   PATT
  .word Label_01022E0D
@  #11 @032   ----------------------------------------
 .byte   W96
@  #11 @033   ----------------------------------------
 .byte   W96
@  #11 @034   ----------------------------------------
 .byte   W96
@  #11 @035   ----------------------------------------
 .byte   W96
@  #11 @036   ----------------------------------------
 .byte   W96
@  #11 @037   ----------------------------------------
 .byte   W96
@  #11 @038   ----------------------------------------
 .byte   W96
@  #11 @039   ----------------------------------------
 .byte   W96
@  #11 @040   ----------------------------------------
 .byte   W12
 .byte   GOTO
  .word Label_01022DC1
@  #11 @041   ----------------------------------------
 .byte   W84
 .byte   W96
@  #11 @042   ----------------------------------------
 .byte   W96
@  #11 @043   ----------------------------------------
 .byte   W96
@  #11 @044   ----------------------------------------
 .byte   W96
@  #11 @045   ----------------------------------------
 .byte   W96
@  #11 @046   ----------------------------------------
 .byte   W96
@  #11 @047   ----------------------------------------
 .byte   W96
@  #11 @048   ----------------------------------------
 .byte   W96
@  #11 @049   ----------------------------------------
 .byte   W96
@  #11 @050   ----------------------------------------
 .byte   W96
@  #11 @051   ----------------------------------------
 .byte   W96
@  #11 @052   ----------------------------------------
 .byte   W96
@  #11 @053   ----------------------------------------
 .byte   W96
@  #11 @054   ----------------------------------------
 .byte   W96
@  #11 @055   ----------------------------------------
 .byte   W96
@  #11 @056   ----------------------------------------
 .byte   PATT
  .word Label_01022DD1
@  #11 @057   ----------------------------------------
 .byte   PATT
  .word Label_01022DE5
@  #11 @058   ----------------------------------------
 .byte   PATT
  .word Label_01022DF9
@  #11 @059   ----------------------------------------
 .byte   PATT
  .word Label_01022E0D
@  #11 @060   ----------------------------------------
 .byte   PATT
  .word Label_01022DD1
@  #11 @061   ----------------------------------------
 .byte   PATT
  .word Label_01022DE5
@  #11 @062   ----------------------------------------
 .byte   PATT
  .word Label_01022DF9
@  #11 @063   ----------------------------------------
 .byte   PATT
  .word Label_01022E30
@  #11 @064   ----------------------------------------
 .byte   PATT
  .word Label_01022DD1
@  #11 @065   ----------------------------------------
 .byte   PATT
  .word Label_01022DE5
@  #11 @066   ----------------------------------------
 .byte   PATT
  .word Label_01022DF9
@  #11 @067   ----------------------------------------
 .byte   PATT
  .word Label_01022E0D
@  #11 @068   ----------------------------------------
 .byte   W96
@  #11 @069   ----------------------------------------
 .byte   W96
@  #11 @070   ----------------------------------------
 .byte   W96
@  #11 @071   ----------------------------------------
 .byte   W96
@  #11 @072   ----------------------------------------
 .byte   W96
@  #11 @073   ----------------------------------------
 .byte   W96
@  #11 @074   ----------------------------------------
 .byte   W96
@  #11 @075   ----------------------------------------
 .byte   W96
@  #11 @076   ----------------------------------------
 .byte   W96
@  #11 @077   ----------------------------------------
 .byte   W96
@  #11 @078   ----------------------------------------
 .byte   W96
@  #11 @079   ----------------------------------------
 .byte   W96
@  #11 @080   ----------------------------------------
 .byte   W96
@  #11 @081   ----------------------------------------
 .byte   W96
@  #11 @082   ----------------------------------------
 .byte   W96
@  #11 @083   ----------------------------------------
 .byte   W96
@  #11 @084   ----------------------------------------
 .byte   W96
@  #11 @085   ----------------------------------------
 .byte   W96
@  #11 @086   ----------------------------------------
 .byte   W96
@  #11 @087   ----------------------------------------
 .byte   W96
@  #11 @088   ----------------------------------------
 .byte   W96
@  #11 @089   ----------------------------------------
 .byte   W96
@  #11 @090   ----------------------------------------
 .byte   W96
@  #11 @091   ----------------------------------------
 .byte   W96
@  #11 @092   ----------------------------------------
 .byte   PATT
  .word Label_01022DD1
@  #11 @093   ----------------------------------------
 .byte   PATT
  .word Label_01022DE5
@  #11 @094   ----------------------------------------
 .byte   PATT
  .word Label_01022DF9
@  #11 @095   ----------------------------------------
 .byte   PATT
  .word Label_01022E0D
@  #11 @096   ----------------------------------------
 .byte   PATT
  .word Label_01022DD1
@  #11 @097   ----------------------------------------
 .byte   PATT
  .word Label_01022DE5
@  #11 @098   ----------------------------------------
 .byte   PATT
  .word Label_01022DF9
@  #11 @099   ----------------------------------------
 .byte   PATT
  .word Label_01022E30
@  #11 @100   ----------------------------------------
 .byte   PATT
  .word Label_01022DD1
@  #11 @101   ----------------------------------------
 .byte   PATT
  .word Label_01022DE5
@  #11 @102   ----------------------------------------
 .byte   PATT
  .word Label_01022DF9
@  #11 @103   ----------------------------------------
 .byte   PATT
  .word Label_01022E0D
@  #11 @104   ----------------------------------------
 .byte   W96
@  #11 @105   ----------------------------------------
 .byte   W96
@  #11 @106   ----------------------------------------
 .byte   W96
@  #11 @107   ----------------------------------------
 .byte   W92
 .byte   W03
 .byte   FINE

@**************** Track 12 (Midi-Chn.11) ****************@

song06_012:
@  #12 @000   ----------------------------------------
 .byte   KEYSH , song06_key+0
 .byte   VOICE , 40
 .byte   VOL , 47*song06_mvl/mxv
 .byte   PAN , c_v+0
 .byte   W96
@  #12 @001   ----------------------------------------
 .byte   W96
@  #12 @002   ----------------------------------------
 .byte   W96
@  #12 @003   ----------------------------------------
 .byte   W96
@  #12 @004   ----------------------------------------
 .byte   W12
Label_0102563D:
 .byte   W84
@  #12 @005   ----------------------------------------
 .byte   W96
@  #12 @006   ----------------------------------------
 .byte   W96
@  #12 @007   ----------------------------------------
 .byte   W96
@  #12 @008   ----------------------------------------
 .byte   W96
@  #12 @009   ----------------------------------------
 .byte   W96
@  #12 @010   ----------------------------------------
 .byte   W96
@  #12 @011   ----------------------------------------
 .byte   W96
@  #12 @012   ----------------------------------------
 .byte   W96
@  #12 @013   ----------------------------------------
 .byte   W96
@  #12 @014   ----------------------------------------
 .byte   W96
@  #12 @015   ----------------------------------------
 .byte   W96
@  #12 @016   ----------------------------------------
 .byte   W96
@  #12 @017   ----------------------------------------
 .byte   W96
@  #12 @018   ----------------------------------------
 .byte   W96
@  #12 @019   ----------------------------------------
 .byte   W96
@  #12 @020   ----------------------------------------
Label_0102564D:
 .byte   W12
 .byte   N05 ,Fn3 ,v127
 .byte   W12
 .byte   Gs3
 .byte   W12
 .byte   Cn4
 .byte   W12
 .byte   N02 ,En4
 .byte   W03
 .byte   N21 ,Fn4
 .byte   W21
 .byte   N24 ,Cn4
 .byte   W24
 .byte   PEND 
@  #12 @021   ----------------------------------------
Label_01025660:
 .byte   N05 ,Bn3 ,v127
 .byte   W12
 .byte   Cn4
 .byte   W12
 .byte   N03 ,Dn4
 .byte   W03
 .byte   Ds4
 .byte   W03
 .byte   N18 ,Dn4
 .byte   W18
 .byte   N05 ,Bn3
 .byte   W12
 .byte   Gn3
 .byte   W12
 .byte   Bn3
 .byte   W12
 .byte   Dn4
 .byte   W12
 .byte   PEND 
@  #12 @022   ----------------------------------------
Label_01025678:
 .byte   N17 ,Ds4 ,v127
 .byte   W18
 .byte   N03 ,Fn4
 .byte   W03
 .byte   Ds4
 .byte   W03
 .byte   N05 ,Dn4
 .byte   W12
 .byte   Cn4
 .byte   W12
 .byte   N24 ,Cn5
 .byte   W24
 .byte   N05 ,As4
 .byte   W12
 .byte   Gs4
 .byte   W12
 .byte   PEND 
@  #12 @023   ----------------------------------------
Label_0102568F:
 .byte   N17 ,Gn4 ,v127
 .byte   W18
 .byte   N03 ,Gs4
 .byte   W03
 .byte   Gn4
 .byte   W03
 .byte   N05 ,Fn4
 .byte   W12
 .byte   Gs4
 .byte   W12
 .byte   N48 ,Gn4
 .byte   W48
 .byte   PEND 
@  #12 @024   ----------------------------------------
 .byte   PATT
  .word Label_0102564D
@  #12 @025   ----------------------------------------
 .byte   PATT
  .word Label_01025660
@  #12 @026   ----------------------------------------
Label_010256AB:
 .byte   N17 ,Ds4 ,v127
 .byte   W18
 .byte   N03 ,Fn4
 .byte   W03
 .byte   Ds4
 .byte   W03
 .byte   N05 ,Dn4
 .byte   W12
 .byte   Cn4
 .byte   W12
 .byte   N24 ,Cn5
 .byte   W24
 .byte   N05 ,Dn5
 .byte   W12
 .byte   Ds5
 .byte   W12
 .byte   PEND 
@  #12 @027   ----------------------------------------
Label_010256C2:
 .byte   N05 ,Dn5 ,v127
 .byte   W12
 .byte   Cn5
 .byte   W12
 .byte   Bn4
 .byte   W12
 .byte   Gs4
 .byte   W12
 .byte   N02 ,Gn4
 .byte   W03
 .byte   Gs4
 .byte   W03
 .byte   N36 ,Gn4
 .byte   W42
 .byte   PEND 
@  #12 @028   ----------------------------------------
 .byte   PATT
  .word Label_0102564D
@  #12 @029   ----------------------------------------
 .byte   PATT
  .word Label_01025660
@  #12 @030   ----------------------------------------
 .byte   PATT
  .word Label_01025678
@  #12 @031   ----------------------------------------
 .byte   PATT
  .word Label_0102568F
@  #12 @032   ----------------------------------------
 .byte   W96
@  #12 @033   ----------------------------------------
 .byte   W96
@  #12 @034   ----------------------------------------
 .byte   W96
@  #12 @035   ----------------------------------------
 .byte   W96
@  #12 @036   ----------------------------------------
 .byte   W96
@  #12 @037   ----------------------------------------
 .byte   W96
@  #12 @038   ----------------------------------------
 .byte   W96
@  #12 @039   ----------------------------------------
 .byte   W96
@  #12 @040   ----------------------------------------
 .byte   W12
 .byte   GOTO
  .word Label_0102563D
@  #12 @041   ----------------------------------------
 .byte   W84
 .byte   W96
@  #12 @042   ----------------------------------------
 .byte   W96
@  #12 @043   ----------------------------------------
 .byte   W96
@  #12 @044   ----------------------------------------
 .byte   W96
@  #12 @045   ----------------------------------------
 .byte   W96
@  #12 @046   ----------------------------------------
 .byte   W96
@  #12 @047   ----------------------------------------
 .byte   W96
@  #12 @048   ----------------------------------------
 .byte   W96
@  #12 @049   ----------------------------------------
 .byte   W96
@  #12 @050   ----------------------------------------
 .byte   W96
@  #12 @051   ----------------------------------------
 .byte   W96
@  #12 @052   ----------------------------------------
 .byte   W96
@  #12 @053   ----------------------------------------
 .byte   W96
@  #12 @054   ----------------------------------------
 .byte   W96
@  #12 @055   ----------------------------------------
 .byte   W96
@  #12 @056   ----------------------------------------
 .byte   PATT
  .word Label_0102564D
@  #12 @057   ----------------------------------------
 .byte   PATT
  .word Label_01025660
@  #12 @058   ----------------------------------------
 .byte   PATT
  .word Label_01025678
@  #12 @059   ----------------------------------------
 .byte   PATT
  .word Label_0102568F
@  #12 @060   ----------------------------------------
 .byte   PATT
  .word Label_0102564D
@  #12 @061   ----------------------------------------
 .byte   PATT
  .word Label_01025660
@  #12 @062   ----------------------------------------
 .byte   PATT
  .word Label_010256AB
@  #12 @063   ----------------------------------------
 .byte   PATT
  .word Label_010256C2
@  #12 @064   ----------------------------------------
 .byte   PATT
  .word Label_0102564D
@  #12 @065   ----------------------------------------
 .byte   PATT
  .word Label_01025660
@  #12 @066   ----------------------------------------
 .byte   PATT
  .word Label_01025678
@  #12 @067   ----------------------------------------
 .byte   PATT
  .word Label_0102568F
@  #12 @068   ----------------------------------------
 .byte   W96
@  #12 @069   ----------------------------------------
 .byte   W96
@  #12 @070   ----------------------------------------
 .byte   W96
@  #12 @071   ----------------------------------------
 .byte   W96
@  #12 @072   ----------------------------------------
 .byte   W96
@  #12 @073   ----------------------------------------
 .byte   W96
@  #12 @074   ----------------------------------------
 .byte   W96
@  #12 @075   ----------------------------------------
 .byte   W96
@  #12 @076   ----------------------------------------
 .byte   W96
@  #12 @077   ----------------------------------------
 .byte   W96
@  #12 @078   ----------------------------------------
 .byte   W96
@  #12 @079   ----------------------------------------
 .byte   W96
@  #12 @080   ----------------------------------------
 .byte   W96
@  #12 @081   ----------------------------------------
 .byte   W96
@  #12 @082   ----------------------------------------
 .byte   W96
@  #12 @083   ----------------------------------------
 .byte   W96
@  #12 @084   ----------------------------------------
 .byte   W96
@  #12 @085   ----------------------------------------
 .byte   W96
@  #12 @086   ----------------------------------------
 .byte   W96
@  #12 @087   ----------------------------------------
 .byte   W96
@  #12 @088   ----------------------------------------
 .byte   W96
@  #12 @089   ----------------------------------------
 .byte   W96
@  #12 @090   ----------------------------------------
 .byte   W96
@  #12 @091   ----------------------------------------
 .byte   W96
@  #12 @092   ----------------------------------------
 .byte   PATT
  .word Label_0102564D
@  #12 @093   ----------------------------------------
 .byte   PATT
  .word Label_01025660
@  #12 @094   ----------------------------------------
 .byte   PATT
  .word Label_01025678
@  #12 @095   ----------------------------------------
 .byte   PATT
  .word Label_0102568F
@  #12 @096   ----------------------------------------
 .byte   PATT
  .word Label_0102564D
@  #12 @097   ----------------------------------------
 .byte   PATT
  .word Label_01025660
@  #12 @098   ----------------------------------------
 .byte   PATT
  .word Label_010256AB
@  #12 @099   ----------------------------------------
 .byte   PATT
  .word Label_010256C2
@  #12 @100   ----------------------------------------
 .byte   PATT
  .word Label_0102564D
@  #12 @101   ----------------------------------------
 .byte   PATT
  .word Label_01025660
@  #12 @102   ----------------------------------------
 .byte   PATT
  .word Label_01025678
@  #12 @103   ----------------------------------------
 .byte   PATT
  .word Label_0102568F
@  #12 @104   ----------------------------------------
 .byte   W96
@  #12 @105   ----------------------------------------
 .byte   W96
@  #12 @106   ----------------------------------------
 .byte   W96
@  #12 @107   ----------------------------------------
 .byte   W92
 .byte   W03
 .byte   FINE

@******************************************************@
	.align	2

song06:
	.byte	12	@ NumTrks
	.byte	0	@ NumBlks
	.byte	song06_pri	@ Priority
	.byte	song06_rev	@ Reverb.
    
	.word	song06_grp
    
	.word	song06_001
	.word	song06_002
	.word	song06_003
	.word	song06_004
	.word	song06_005
	.word	song06_006
	.word	song06_007
	.word	song06_008
	.word	song06_009
	.word	song06_010
	.word	song06_011
	.word	song06_012

	.end
