	.include "MPlayDef.s"

	.equ	song1C_grp, voicegroup000
	.equ	song1C_pri, 0
	.equ	song1C_rev, 128
	.equ	song1C_mvl, 127
	.equ	song1C_key, 0
	.equ	song1C_tbs, 1
	.equ	song1C_exg, 0
	.equ	song1C_cmp, 1

	.section .rodata
	.global	song1C
	.align	2


@**************** Track 1 (Midi-Chn.0) ****************@

song1C_001:
@  #01 @000   ----------------------------------------
 .byte   KEYSH , song1C_key+0
 .byte   TEMPO , 370*song1C_tbs/2
 .byte   VOICE , 30
 .byte   MODT 0
 .byte   LFOS 44
 .byte   VOL , 45*song1C_mvl/mxv
 .byte   PAN , c_v-29
 .byte   MODT 1
 .byte   W48
 .byte   N48 ,Fs2 ,v108
 .byte   W48
@  #01 @001   ----------------------------------------
 .byte   W96
@  #01 @002   ----------------------------------------
Label_01BC9E06:
 .byte   W24
 .byte   N24 ,Fs2 ,v108
 .byte   W24
 .byte   Gn2
 .byte   W24
 .byte   Cn3
 .byte   W24
 .byte   PEND 
@  #01 @003   ----------------------------------------
Label_01BC9E10:
 .byte   N24 ,Fs2 ,v108
 .byte   W24
 .byte   Gn2
 .byte   W24
 .byte   Cn3
 .byte   W24
 .byte   Fs2
 .byte   W24
 .byte   PEND 
@  #01 @004   ----------------------------------------
 .byte   Gn2
 .byte   W24
 .byte   Cn3
 .byte   W24
 .byte   N48 ,Fs2
 .byte   W48
@  #01 @005   ----------------------------------------
 .byte   W96
@  #01 @006   ----------------------------------------
 .byte   PATT
  .word Label_01BC9E06
@  #01 @007   ----------------------------------------
 .byte   PATT
  .word Label_01BC9E10
@  #01 @008   ----------------------------------------
 .byte   N24 ,Gn2 ,v108
 .byte   W24
 .byte   Cn3
 .byte   W48
 .byte   Fs2
 .byte   W24
@  #01 @009   ----------------------------------------
 .byte   Cn3
 .byte   W24
 .byte   Bn2
 .byte   W24
 .byte   Fs2
 .byte   W24
 .byte   Cn3
 .byte   W24
@  #01 @010   ----------------------------------------
 .byte   Bn2
 .byte   W24
 .byte   Fs2
 .byte   W24
 .byte   Cn3
 .byte   W24
 .byte   Bn2
 .byte   W24
@  #01 @011   ----------------------------------------
 .byte   Fs2
 .byte   W24
 .byte   Cn3
 .byte   W24
 .byte   Bn2
 .byte   W48
@  #01 @012   ----------------------------------------
 .byte   W48
Label_01BC9E4C:
 .byte   W48
@  #01 @013   ----------------------------------------
 .byte   N24 ,Bn1 ,v108
 .byte   W24
 .byte   N24
 .byte   W24
 .byte   Cn2
 .byte   W24
 .byte   N24
 .byte   W24
@  #01 @014   ----------------------------------------
 .byte   An1
 .byte   W24
 .byte   N24
 .byte   W24
 .byte   Bn1
 .byte   W24
 .byte   N24
 .byte   W24
@  #01 @015   ----------------------------------------
 .byte   W96
@  #01 @016   ----------------------------------------
 .byte   N24
 .byte   W48
 .byte   N12 ,Bn3
 .byte   W12
 .byte   An3
 .byte   W12
 .byte   Gn3
 .byte   W12
 .byte   Fs3
 .byte   W12
@  #01 @017   ----------------------------------------
 .byte   An3
 .byte   W12
 .byte   Gn3
 .byte   W12
 .byte   Fs3
 .byte   W12
 .byte   En3
 .byte   W60
@  #01 @018   ----------------------------------------
 .byte   W48
 .byte   N12
 .byte   W12
 .byte   Dn3
 .byte   W12
 .byte   Cn3
 .byte   W12
 .byte   Bn2
 .byte   W12
@  #01 @019   ----------------------------------------
 .byte   Dn3
 .byte   W12
 .byte   Cn3
 .byte   W12
 .byte   Bn2
 .byte   W12
 .byte   An2
 .byte   W12
 .byte   Cn3
 .byte   W12
 .byte   Bn2
 .byte   W12
 .byte   An2
 .byte   W12
 .byte   Gn2
 .byte   W12
@  #01 @020   ----------------------------------------
 .byte   Bn2
 .byte   W12
 .byte   An2
 .byte   W12
 .byte   Gn2
 .byte   W12
 .byte   Fn2
 .byte   W12
 .byte   N24 ,Cn2
 .byte   W24
 .byte   N48
 .byte   W24
@  #01 @021   ----------------------------------------
Label_01BC9E99:
 .byte   W24
 .byte   N48 ,Cn2 ,v108
 .byte   W48
 .byte   N24
 .byte   W24
 .byte   PEND 
@  #01 @022   ----------------------------------------
Label_01BC9EA1:
 .byte   N48 ,Cn2 ,v108
 .byte   W48
 .byte   An1
 .byte   W48
 .byte   PEND 
@  #01 @023   ----------------------------------------
Label_01BC9EA8:
 .byte   N24 ,An2 ,v108
 .byte   W42
 .byte   N06 ,An1
 .byte   W06
 .byte   N24 ,An2
 .byte   W24
 .byte   N24
 .byte   W24
 .byte   PEND 
@  #01 @024   ----------------------------------------
Label_01BC9EB5:
 .byte   W12
 .byte   N12 ,Gn2 ,v108
 .byte   W12
 .byte   Fs2
 .byte   W12
 .byte   En2
 .byte   W12
 .byte   N24 ,En1
 .byte   W24
 .byte   N48
 .byte   W24
 .byte   PEND 
@  #01 @025   ----------------------------------------
Label_01BC9EC4:
 .byte   W24
 .byte   N48 ,En1 ,v108
 .byte   W48
 .byte   N24
 .byte   W24
 .byte   PEND 
@  #01 @026   ----------------------------------------
 .byte   N24
 .byte   W48
 .byte   N48
 .byte   W48
@  #01 @027   ----------------------------------------
 .byte   N48
 .byte   W72
 .byte   Bn1
 .byte   W24
@  #01 @028   ----------------------------------------
 .byte   W24
 .byte   N24 ,Cn2
 .byte   W24
 .byte   N24
 .byte   W24
 .byte   N48
 .byte   W24
@  #01 @029   ----------------------------------------
 .byte   PATT
  .word Label_01BC9E99
@  #01 @030   ----------------------------------------
 .byte   PATT
  .word Label_01BC9EA1
@  #01 @031   ----------------------------------------
 .byte   PATT
  .word Label_01BC9EA8
@  #01 @032   ----------------------------------------
 .byte   PATT
  .word Label_01BC9EB5
@  #01 @033   ----------------------------------------
 .byte   PATT
  .word Label_01BC9EC4
@  #01 @034   ----------------------------------------
 .byte   N24 ,En1 ,v108
 .byte   W48
 .byte   N32 ,En2
 .byte   W32
 .byte   N16 ,En1
 .byte   W16
@  #01 @035   ----------------------------------------
 .byte   W48
 .byte   Dn4
 .byte   W16
 .byte   Gn3
 .byte   W16
 .byte   Fs3
 .byte   W16
@  #01 @036   ----------------------------------------
 .byte   Cs4
 .byte   W16
 .byte   Fs3
 .byte   W16
 .byte   Fn3
 .byte   W16
 .byte   En3
 .byte   W16
 .byte   N16
 .byte   W16
 .byte   N16
 .byte   W16
@  #01 @037   ----------------------------------------
Label_01BC9F12:
 .byte   N16 ,En3 ,v108
 .byte   W16
 .byte   N16
 .byte   W16
 .byte   N16
 .byte   W16
 .byte   N48 ,Gn3
 .byte   N48 ,Bn3
 .byte   W48
 .byte   PEND 
@  #01 @038   ----------------------------------------
Label_01BC9F20:
 .byte   N16 ,En3 ,v108
 .byte   W16
 .byte   N16
 .byte   W16
 .byte   N16
 .byte   W16
 .byte   N16
 .byte   W16
 .byte   N16
 .byte   W16
 .byte   N16
 .byte   W16
 .byte   PEND 
@  #01 @039   ----------------------------------------
Label_01BC9F2F:
 .byte   N48 ,As3 ,v108
 .byte   N48 ,Dn4
 .byte   W48
 .byte   N16 ,En3
 .byte   W16
 .byte   N16
 .byte   W16
 .byte   N16
 .byte   W16
 .byte   PEND 
@  #01 @040   ----------------------------------------
Label_01BC9F3D:
 .byte   N16 ,En3 ,v108
 .byte   W16
 .byte   N16
 .byte   W16
 .byte   N16
 .byte   W16
 .byte   N48 ,Fs3
 .byte   N48 ,An3
 .byte   W48
 .byte   PEND 
@  #01 @041   ----------------------------------------
 .byte   PATT
  .word Label_01BC9F20
@  #01 @042   ----------------------------------------
Label_01BC9F50:
 .byte   N48 ,Gn3 ,v108
 .byte   N48 ,Bn3
 .byte   W48
 .byte   N16 ,En3
 .byte   W16
 .byte   N16
 .byte   W16
 .byte   N16
 .byte   W16
 .byte   PEND 
@  #01 @043   ----------------------------------------
 .byte   N16
 .byte   W16
 .byte   N16
 .byte   W16
 .byte   N16
 .byte   W16
 .byte   As3
 .byte   W16
 .byte   En3
 .byte   W16
 .byte   Ds3
 .byte   W16
@  #01 @044   ----------------------------------------
 .byte   An3
 .byte   W16
 .byte   Ds3
 .byte   W16
 .byte   Dn3
 .byte   W16
 .byte   En3
 .byte   W16
 .byte   N16
 .byte   W16
 .byte   N16
 .byte   W16
@  #01 @045   ----------------------------------------
 .byte   PATT
  .word Label_01BC9F12
@  #01 @046   ----------------------------------------
 .byte   PATT
  .word Label_01BC9F20
@  #01 @047   ----------------------------------------
 .byte   PATT
  .word Label_01BC9F2F
@  #01 @048   ----------------------------------------
 .byte   PATT
  .word Label_01BC9F3D
@  #01 @049   ----------------------------------------
 .byte   PATT
  .word Label_01BC9F20
@  #01 @050   ----------------------------------------
 .byte   PATT
  .word Label_01BC9F50
@  #01 @051   ----------------------------------------
 .byte   N16 ,En3 ,v108
 .byte   W16
 .byte   N16
 .byte   W16
 .byte   N16
 .byte   W64
@  #01 @052   ----------------------------------------
 .byte   W48
 .byte   GOTO
  .word Label_01BC9E4C
@  #01 @053   ----------------------------------------
 .byte   TEMPO , 370*song1C_tbs/2
 .byte   VOICE , 81
 .byte   FINE

@**************** Track 2 (Midi-Chn.1) ****************@

song1C_002:
@  #02 @000   ----------------------------------------
 .byte   KEYSH , song1C_key+0
 .byte   VOICE , 48
 .byte   MODT 0
 .byte   LFOS 44
 .byte   VOL , 42*song1C_mvl/mxv
 .byte   MODT 1
 .byte   W96
@  #02 @001   ----------------------------------------
 .byte   W96
@  #02 @002   ----------------------------------------
 .byte   W96
@  #02 @003   ----------------------------------------
 .byte   W96
@  #02 @004   ----------------------------------------
 .byte   W96
@  #02 @005   ----------------------------------------
 .byte   W96
@  #02 @006   ----------------------------------------
 .byte   W96
@  #02 @007   ----------------------------------------
 .byte   W96
@  #02 @008   ----------------------------------------
 .byte   W96
@  #02 @009   ----------------------------------------
 .byte   W96
@  #02 @010   ----------------------------------------
 .byte   W96
@  #02 @011   ----------------------------------------
 .byte   W96
@  #02 @012   ----------------------------------------
 .byte   W48
Label_0155BDCD:
 .byte   N48 ,Bn1 ,v080
 .byte   N48 ,Bn3 ,v104
 .byte   W48
@  #02 @013   ----------------------------------------
 .byte   Fs2 ,v080
 .byte   N48 ,Fs4 ,v104
 .byte   W48
 .byte   Gn2 ,v080
 .byte   N48 ,Gn4 ,v104
 .byte   W48
@  #02 @014   ----------------------------------------
 .byte   Cn3 ,v080
 .byte   N48 ,Cn5 ,v104
 .byte   W48
 .byte   TIE ,Bn2 ,v080
 .byte   TIE ,Bn4 ,v104
 .byte   W48
@  #02 @015   ----------------------------------------
 .byte   W96
@  #02 @016   ----------------------------------------
 .byte   EOT
 .byte   Bn2 ,v083
 .byte   N24 ,Fs2 ,v080
 .byte   N24 ,Fs4 ,v104
 .byte   W24
 .byte   Gn2 ,v080
 .byte   N24 ,Gn4 ,v104
 .byte   W24
 .byte   N72 ,An2 ,v080
 .byte   N72 ,An4 ,v104
 .byte   W48
@  #02 @017   ----------------------------------------
 .byte   W24
 .byte   N24 ,Bn2 ,v080
 .byte   N24 ,Bn4 ,v104
 .byte   W24
 .byte   N48 ,Gn2 ,v080
 .byte   N48 ,Gn4 ,v104
 .byte   W48
@  #02 @018   ----------------------------------------
 .byte   N24 ,En2 ,v080
 .byte   N24 ,En4 ,v104
 .byte   W24
 .byte   Fs2 ,v080
 .byte   N24 ,Fs4 ,v104
 .byte   W24
 .byte   N72 ,Gn2 ,v080
 .byte   N72 ,Gn4 ,v104
 .byte   W48
@  #02 @019   ----------------------------------------
 .byte   W24
 .byte   N24 ,An2 ,v080
 .byte   N24 ,An4 ,v104
 .byte   W24
 .byte   N96 ,Fs2 ,v080
 .byte   N96 ,Fs4 ,v104
 .byte   W48
@  #02 @020   ----------------------------------------
 .byte   W96
@  #02 @021   ----------------------------------------
 .byte   W96
@  #02 @022   ----------------------------------------
 .byte   W96
@  #02 @023   ----------------------------------------
 .byte   W96
@  #02 @024   ----------------------------------------
 .byte   W96
@  #02 @025   ----------------------------------------
 .byte   W96
@  #02 @026   ----------------------------------------
 .byte   W96
@  #02 @027   ----------------------------------------
 .byte   W96
@  #02 @028   ----------------------------------------
 .byte   W96
@  #02 @029   ----------------------------------------
 .byte   W96
@  #02 @030   ----------------------------------------
 .byte   W96
@  #02 @031   ----------------------------------------
 .byte   W96
@  #02 @032   ----------------------------------------
 .byte   W96
@  #02 @033   ----------------------------------------
 .byte   W96
@  #02 @034   ----------------------------------------
 .byte   W96
@  #02 @035   ----------------------------------------
 .byte   W96
@  #02 @036   ----------------------------------------
 .byte   W96
@  #02 @037   ----------------------------------------
 .byte   W96
@  #02 @038   ----------------------------------------
 .byte   W96
@  #02 @039   ----------------------------------------
 .byte   W96
@  #02 @040   ----------------------------------------
 .byte   W96
@  #02 @041   ----------------------------------------
 .byte   W96
@  #02 @042   ----------------------------------------
 .byte   W96
@  #02 @043   ----------------------------------------
 .byte   W96
@  #02 @044   ----------------------------------------
 .byte   W96
@  #02 @045   ----------------------------------------
 .byte   W96
@  #02 @046   ----------------------------------------
 .byte   W96
@  #02 @047   ----------------------------------------
 .byte   W96
@  #02 @048   ----------------------------------------
 .byte   W96
@  #02 @049   ----------------------------------------
 .byte   W96
@  #02 @050   ----------------------------------------
 .byte   W96
@  #02 @051   ----------------------------------------
 .byte   W96
@  #02 @052   ----------------------------------------
 .byte   W48
 .byte   GOTO
  .word Label_0155BDCD
@  #02 @053   ----------------------------------------
 .byte   VOICE , 80
 .byte   MODT 1
 .byte   FINE

@**************** Track 3 (Midi-Chn.2) ****************@

song1C_003:
@  #03 @000   ----------------------------------------
 .byte   KEYSH , song1C_key+0
 .byte   VOICE , 40
 .byte   MODT 0
 .byte   LFOS 44
 .byte   VOL , 49*song1C_mvl/mxv
 .byte   MODT 1
 .byte   W96
@  #03 @001   ----------------------------------------
 .byte   W96
@  #03 @002   ----------------------------------------
 .byte   W96
@  #03 @003   ----------------------------------------
 .byte   W96
@  #03 @004   ----------------------------------------
 .byte   W96
@  #03 @005   ----------------------------------------
 .byte   W96
@  #03 @006   ----------------------------------------
 .byte   W96
@  #03 @007   ----------------------------------------
 .byte   W96
@  #03 @008   ----------------------------------------
 .byte   W48
 .byte   PAN , c_v+0
 .byte   BEND , c_v+0
 .byte   TIE ,Bn3 ,v068
 .byte   TIE ,Fs4
 .byte   TIE ,Bn4
 .byte   W48
@  #03 @009   ----------------------------------------
 .byte   W96
@  #03 @010   ----------------------------------------
 .byte   W96
@  #03 @011   ----------------------------------------
 .byte   W48
 .byte   EOT
 .byte   Bn3 ,v078
 .byte   Bn4
 .byte   W48
@  #03 @012   ----------------------------------------
 .byte   W48
Label_018AFA7E:
 .byte   W48
@  #03 @013   ----------------------------------------
 .byte   W96
@  #03 @014   ----------------------------------------
 .byte   W96
@  #03 @015   ----------------------------------------
 .byte   W96
@  #03 @016   ----------------------------------------
 .byte   W96
@  #03 @017   ----------------------------------------
 .byte   W96
@  #03 @018   ----------------------------------------
 .byte   W96
@  #03 @019   ----------------------------------------
 .byte   W96
@  #03 @020   ----------------------------------------
 .byte   W48
 .byte   N24 ,En3 ,v068
 .byte   W24
 .byte   Fs3
 .byte   W24
@  #03 @021   ----------------------------------------
Label_018AFA8D:
 .byte   N24 ,Gn3 ,v068
 .byte   W24
 .byte   N48 ,Dn4
 .byte   W48
 .byte   N24 ,Gn3
 .byte   W24
 .byte   PEND 
@  #03 @022   ----------------------------------------
Label_018AFA98:
 .byte   N24 ,Fs3 ,v068
 .byte   W24
 .byte   Gn3
 .byte   W24
 .byte   Dn4
 .byte   W24
 .byte   Gn3
 .byte   W24
 .byte   PEND 
@  #03 @023   ----------------------------------------
Label_018AFAA3:
 .byte   N24 ,Gn4 ,v068
 .byte   W24
 .byte   N48 ,Fs4
 .byte   W48
 .byte   N24 ,Dn4
 .byte   W24
 .byte   PEND 
@  #03 @024   ----------------------------------------
Label_018AFAAE:
 .byte   N24 ,An3 ,v068
 .byte   W24
 .byte   Gn3
 .byte   W24
 .byte   En3
 .byte   W24
 .byte   Fs3
 .byte   W24
 .byte   PEND 
@  #03 @025   ----------------------------------------
 .byte   PATT
  .word Label_018AFA8D
@  #03 @026   ----------------------------------------
 .byte   PATT
  .word Label_018AFA98
@  #03 @027   ----------------------------------------
 .byte   N24 ,Cn4 ,v068
 .byte   W24
 .byte   N48 ,Bn3
 .byte   W48
 .byte   N24 ,Dn3
 .byte   W24
@  #03 @028   ----------------------------------------
 .byte   PATT
  .word Label_018AFAAE
@  #03 @029   ----------------------------------------
 .byte   PATT
  .word Label_018AFA8D
@  #03 @030   ----------------------------------------
 .byte   PATT
  .word Label_018AFA98
@  #03 @031   ----------------------------------------
 .byte   PATT
  .word Label_018AFAA3
@  #03 @032   ----------------------------------------
 .byte   PATT
  .word Label_018AFAAE
@  #03 @033   ----------------------------------------
 .byte   PATT
  .word Label_018AFA8D
@  #03 @034   ----------------------------------------
 .byte   N24 ,Fs3 ,v068
 .byte   W24
 .byte   Gn3
 .byte   W24
 .byte   N24
 .byte   W48
@  #03 @035   ----------------------------------------
 .byte   W96
@  #03 @036   ----------------------------------------
 .byte   W96
@  #03 @037   ----------------------------------------
 .byte   W96
@  #03 @038   ----------------------------------------
 .byte   W96
@  #03 @039   ----------------------------------------
 .byte   W96
@  #03 @040   ----------------------------------------
 .byte   W96
@  #03 @041   ----------------------------------------
 .byte   W96
@  #03 @042   ----------------------------------------
 .byte   W96
@  #03 @043   ----------------------------------------
 .byte   W96
@  #03 @044   ----------------------------------------
 .byte   W96
@  #03 @045   ----------------------------------------
 .byte   W96
@  #03 @046   ----------------------------------------
 .byte   W96
@  #03 @047   ----------------------------------------
 .byte   W96
@  #03 @048   ----------------------------------------
 .byte   W96
@  #03 @049   ----------------------------------------
 .byte   W96
@  #03 @050   ----------------------------------------
 .byte   W96
@  #03 @051   ----------------------------------------
 .byte   W96
@  #03 @052   ----------------------------------------
 .byte   W48
 .byte   GOTO
  .word Label_018AFA7E
@  #03 @053   ----------------------------------------
 .byte   VOICE , 48
 .byte   MODT 1
 .byte   FINE

@**************** Track 4 (Midi-Chn.3) ****************@

song1C_004:
@  #04 @000   ----------------------------------------
 .byte   KEYSH , song1C_key+0
 .byte   VOICE , 30
 .byte   MODT 0
 .byte   LFOS 44
 .byte   VOL , 45*song1C_mvl/mxv
 .byte   PAN , c_v+30
 .byte   MODT 1
 .byte   W48
 .byte   N48 ,Fs2 ,v108
 .byte   W48
@  #04 @001   ----------------------------------------
 .byte   W96
@  #04 @002   ----------------------------------------
Label_018AFCCC:
 .byte   N24 ,Cn3 ,v108
 .byte   W24
 .byte   N24
 .byte   W48
 .byte   N24
 .byte   W24
 .byte   PEND 
@  #04 @003   ----------------------------------------
Label_018AFCD5:
 .byte   N24 ,Cn3 ,v108
 .byte   W48
 .byte   N48
 .byte   W48
 .byte   PEND 
@  #04 @004   ----------------------------------------
 .byte   N48
 .byte   W48
 .byte   Fs2
 .byte   W48
@  #04 @005   ----------------------------------------
 .byte   W96
@  #04 @006   ----------------------------------------
 .byte   PATT
  .word Label_018AFCCC
@  #04 @007   ----------------------------------------
 .byte   PATT
  .word Label_018AFCD5
@  #04 @008   ----------------------------------------
 .byte   N48 ,Cn3 ,v108
 .byte   W48
 .byte   N96 ,Bn2
 .byte   W48
@  #04 @009   ----------------------------------------
 .byte   W96
@  #04 @010   ----------------------------------------
 .byte   W96
@  #04 @011   ----------------------------------------
 .byte   W96
@  #04 @012   ----------------------------------------
 .byte   W48
Label_018AFCF6:
 .byte   W48
@  #04 @013   ----------------------------------------
 .byte   W96
@  #04 @014   ----------------------------------------
 .byte   N24 ,An1 ,v108
 .byte   W24
 .byte   N24
 .byte   W24
 .byte   Bn1
 .byte   W24
 .byte   N24
 .byte   W24
@  #04 @015   ----------------------------------------
 .byte   Cn2
 .byte   W24
 .byte   N24
 .byte   W24
 .byte   An1
 .byte   W24
 .byte   N24
 .byte   W24
@  #04 @016   ----------------------------------------
 .byte   Bn1
 .byte   W96
@  #04 @017   ----------------------------------------
 .byte   W48
 .byte   N12 ,Gn3
 .byte   W12
 .byte   Fs3
 .byte   W12
 .byte   En3
 .byte   W12
 .byte   Dn3
 .byte   W12
@  #04 @018   ----------------------------------------
 .byte   Fs3
 .byte   W12
 .byte   En3
 .byte   W12
 .byte   Dn3
 .byte   W12
 .byte   Cn3
 .byte   W60
@  #04 @019   ----------------------------------------
 .byte   W48
 .byte   N12
 .byte   W12
 .byte   Bn2
 .byte   W12
 .byte   An2
 .byte   W12
 .byte   Gn2
 .byte   W12
@  #04 @020   ----------------------------------------
 .byte   Bn2
 .byte   W12
 .byte   An2
 .byte   W12
 .byte   Gn2
 .byte   W12
 .byte   Fn2
 .byte   W12
 .byte   N24 ,Cn2
 .byte   W24
 .byte   N48
 .byte   W24
@  #04 @021   ----------------------------------------
Label_018AFD34:
 .byte   W24
 .byte   N48 ,Cn2 ,v108
 .byte   W48
 .byte   N24
 .byte   W24
 .byte   PEND 
@  #04 @022   ----------------------------------------
Label_018AFD3C:
 .byte   N48 ,Cn2 ,v108
 .byte   W48
 .byte   N24 ,An1
 .byte   W48
 .byte   PEND 
@  #04 @023   ----------------------------------------
Label_018AFD44:
 .byte   N24 ,An1 ,v108
 .byte   W72
 .byte   N72
 .byte   W24
 .byte   PEND 
@  #04 @024   ----------------------------------------
Label_018AFD4B:
 .byte   W48
 .byte   N24 ,En1 ,v108
 .byte   W24
 .byte   N48
 .byte   W24
 .byte   PEND 
@  #04 @025   ----------------------------------------
Label_018AFD53:
 .byte   W24
 .byte   N48 ,En1 ,v108
 .byte   W48
 .byte   N24
 .byte   W24
 .byte   PEND 
@  #04 @026   ----------------------------------------
 .byte   N48
 .byte   W48
 .byte   N48
 .byte   W48
@  #04 @027   ----------------------------------------
 .byte   N48
 .byte   W72
 .byte   Bn1
 .byte   W24
@  #04 @028   ----------------------------------------
 .byte   W24
 .byte   N24 ,Cn2
 .byte   W24
 .byte   N24
 .byte   W24
 .byte   N48
 .byte   W24
@  #04 @029   ----------------------------------------
 .byte   PATT
  .word Label_018AFD34
@  #04 @030   ----------------------------------------
 .byte   PATT
  .word Label_018AFD3C
@  #04 @031   ----------------------------------------
 .byte   PATT
  .word Label_018AFD44
@  #04 @032   ----------------------------------------
 .byte   PATT
  .word Label_018AFD4B
@  #04 @033   ----------------------------------------
 .byte   PATT
  .word Label_018AFD53
@  #04 @034   ----------------------------------------
 .byte   N48 ,En1 ,v108
 .byte   W48
 .byte   N32
 .byte   W48
@  #04 @035   ----------------------------------------
 .byte   W48
 .byte   N32
 .byte   W48
@  #04 @036   ----------------------------------------
 .byte   W48
 .byte   N16
 .byte   W16
 .byte   N16
 .byte   W16
 .byte   N16
 .byte   W16
@  #04 @037   ----------------------------------------
Label_018AFD94:
 .byte   N16 ,En1 ,v108
 .byte   W16
 .byte   N16
 .byte   W16
 .byte   N16
 .byte   W16
 .byte   N48
 .byte   W48
 .byte   PEND 
@  #04 @038   ----------------------------------------
Label_018AFD9F:
 .byte   N16 ,En1 ,v108
 .byte   W16
 .byte   N16
 .byte   W16
 .byte   N16
 .byte   W16
 .byte   N16
 .byte   W16
 .byte   N16
 .byte   W16
 .byte   N16
 .byte   W16
 .byte   PEND 
@  #04 @039   ----------------------------------------
Label_018AFDAE:
 .byte   N48 ,En1 ,v108
 .byte   W48
 .byte   N16
 .byte   W16
 .byte   N16
 .byte   W16
 .byte   N16
 .byte   W16
 .byte   PEND 
@  #04 @040   ----------------------------------------
 .byte   PATT
  .word Label_018AFD94
@  #04 @041   ----------------------------------------
 .byte   PATT
  .word Label_018AFD9F
@  #04 @042   ----------------------------------------
 .byte   PATT
  .word Label_018AFDAE
@  #04 @043   ----------------------------------------
 .byte   N16 ,En1 ,v108
 .byte   W16
 .byte   N16
 .byte   W16
 .byte   N16
 .byte   W16
 .byte   Bn3 ,v127
 .byte   W16
 .byte   En3
 .byte   W16
 .byte   Ds3
 .byte   W16
@  #04 @044   ----------------------------------------
 .byte   An3
 .byte   W16
 .byte   Ds3
 .byte   W16
 .byte   Dn3
 .byte   W16
 .byte   En1 ,v108
 .byte   W16
 .byte   N16
 .byte   W16
 .byte   N16
 .byte   W16
@  #04 @045   ----------------------------------------
 .byte   PATT
  .word Label_018AFD94
@  #04 @046   ----------------------------------------
 .byte   PATT
  .word Label_018AFD9F
@  #04 @047   ----------------------------------------
 .byte   PATT
  .word Label_018AFDAE
@  #04 @048   ----------------------------------------
 .byte   PATT
  .word Label_018AFD94
@  #04 @049   ----------------------------------------
 .byte   PATT
  .word Label_018AFD9F
@  #04 @050   ----------------------------------------
 .byte   PATT
  .word Label_018AFDAE
@  #04 @051   ----------------------------------------
 .byte   N16 ,En1 ,v108
 .byte   W16
 .byte   N16
 .byte   W16
 .byte   N16
 .byte   W64
@  #04 @052   ----------------------------------------
 .byte   W48
 .byte   GOTO
  .word Label_018AFCF6
@  #04 @053   ----------------------------------------
 .byte   VOICE , 29
 .byte   MODT 1
 .byte   FINE

@**************** Track 5 (Midi-Chn.4) ****************@

song1C_005:
@  #05 @000   ----------------------------------------
 .byte   VOL , 60*song1C_mvl/mxv
 .byte   KEYSH , song1C_key+0
 .byte   VOICE , 31
 .byte   MODT 0
 .byte   LFOS 44
 .byte   W96
@  #05 @001   ----------------------------------------
 .byte   W96
@  #05 @002   ----------------------------------------
 .byte   W96
@  #05 @003   ----------------------------------------
 .byte   W96
@  #05 @004   ----------------------------------------
 .byte   W96
@  #05 @005   ----------------------------------------
 .byte   W96
@  #05 @006   ----------------------------------------
 .byte   W96
@  #05 @007   ----------------------------------------
 .byte   W96
@  #05 @008   ----------------------------------------
 .byte   W48
 .byte   TIE ,Cn2 ,v088
 .byte   W48
@  #05 @009   ----------------------------------------
 .byte   W96
@  #05 @010   ----------------------------------------
 .byte   W96
@  #05 @011   ----------------------------------------
 .byte   W24
 .byte   EOT
 .byte   W72
@  #05 @012   ----------------------------------------
 .byte   W48
Label_0155BE8D:
 .byte   W48
@  #05 @013   ----------------------------------------
 .byte   W96
@  #05 @014   ----------------------------------------
 .byte   W96
@  #05 @015   ----------------------------------------
 .byte   W96
@  #05 @016   ----------------------------------------
 .byte   W96
@  #05 @017   ----------------------------------------
 .byte   W96
@  #05 @018   ----------------------------------------
 .byte   W96
@  #05 @019   ----------------------------------------
 .byte   W96
@  #05 @020   ----------------------------------------
 .byte   W96
@  #05 @021   ----------------------------------------
 .byte   W96
@  #05 @022   ----------------------------------------
 .byte   W96
@  #05 @023   ----------------------------------------
 .byte   W96
@  #05 @024   ----------------------------------------
 .byte   W96
@  #05 @025   ----------------------------------------
 .byte   W96
@  #05 @026   ----------------------------------------
 .byte   W96
@  #05 @027   ----------------------------------------
 .byte   W96
@  #05 @028   ----------------------------------------
 .byte   W96
@  #05 @029   ----------------------------------------
 .byte   W96
@  #05 @030   ----------------------------------------
 .byte   W96
@  #05 @031   ----------------------------------------
 .byte   W96
@  #05 @032   ----------------------------------------
 .byte   W96
@  #05 @033   ----------------------------------------
 .byte   W96
@  #05 @034   ----------------------------------------
 .byte   W96
@  #05 @035   ----------------------------------------
 .byte   W96
@  #05 @036   ----------------------------------------
 .byte   W96
@  #05 @037   ----------------------------------------
 .byte   W96
@  #05 @038   ----------------------------------------
 .byte   W96
@  #05 @039   ----------------------------------------
 .byte   W96
@  #05 @040   ----------------------------------------
 .byte   W96
@  #05 @041   ----------------------------------------
 .byte   W96
@  #05 @042   ----------------------------------------
 .byte   W96
@  #05 @043   ----------------------------------------
 .byte   W96
@  #05 @044   ----------------------------------------
 .byte   W96
@  #05 @045   ----------------------------------------
 .byte   W96
@  #05 @046   ----------------------------------------
 .byte   W96
@  #05 @047   ----------------------------------------
 .byte   W96
@  #05 @048   ----------------------------------------
 .byte   W96
@  #05 @049   ----------------------------------------
 .byte   W96
@  #05 @050   ----------------------------------------
 .byte   W96
@  #05 @051   ----------------------------------------
 .byte   W96
@  #05 @052   ----------------------------------------
 .byte   W48
 .byte   GOTO
  .word Label_0155BE8D
 .byte   FINE

@**************** Track 6 (Midi-Chn.5) ****************@

song1C_006:
@  #06 @000   ----------------------------------------
 .byte   KEYSH , song1C_key+0
 .byte   VOICE , 47
 .byte   MODT 0
 .byte   LFOS 44
 .byte   VOL , 44*song1C_mvl/mxv
 .byte   MODT 1
 .byte   W48
 .byte   N48 ,Fs3 ,v127
 .byte   N48 ,Fs4 ,v108
 .byte   W48
@  #06 @001   ----------------------------------------
 .byte   W96
@  #06 @002   ----------------------------------------
Label_0155BD19:
 .byte   N24 ,Cn3 ,v108
 .byte   N24 ,Cn4
 .byte   W24
 .byte   Cn3
 .byte   N24 ,Cn4
 .byte   W48
 .byte   Cn3
 .byte   N24 ,Cn4
 .byte   W24
 .byte   PEND 
@  #06 @003   ----------------------------------------
Label_0155BD28:
 .byte   N24 ,Cn3 ,v108
 .byte   N24 ,Cn4
 .byte   W48
 .byte   N48 ,Cn3
 .byte   N48 ,Cn4
 .byte   W48
 .byte   PEND 
@  #06 @004   ----------------------------------------
 .byte   Cn3
 .byte   N48 ,Cn4
 .byte   W48
 .byte   Fs3 ,v127
 .byte   W48
@  #06 @005   ----------------------------------------
 .byte   W96
@  #06 @006   ----------------------------------------
 .byte   PATT
  .word Label_0155BD19
@  #06 @007   ----------------------------------------
 .byte   PATT
  .word Label_0155BD28
@  #06 @008   ----------------------------------------
 .byte   N48 ,Cn3 ,v108
 .byte   N48 ,Cn4
 .byte   W48
 .byte   N96 ,Bn2
 .byte   W48
@  #06 @009   ----------------------------------------
 .byte   W96
@  #06 @010   ----------------------------------------
 .byte   W96
@  #06 @011   ----------------------------------------
 .byte   W96
@  #06 @012   ----------------------------------------
 .byte   W48
Label_0155BD53:
 .byte   W48
@  #06 @013   ----------------------------------------
 .byte   W96
@  #06 @014   ----------------------------------------
 .byte   W96
@  #06 @015   ----------------------------------------
 .byte   W96
@  #06 @016   ----------------------------------------
 .byte   W96
@  #06 @017   ----------------------------------------
 .byte   W96
@  #06 @018   ----------------------------------------
 .byte   W96
@  #06 @019   ----------------------------------------
 .byte   W96
@  #06 @020   ----------------------------------------
 .byte   W96
@  #06 @021   ----------------------------------------
 .byte   W96
@  #06 @022   ----------------------------------------
 .byte   W96
@  #06 @023   ----------------------------------------
 .byte   W96
@  #06 @024   ----------------------------------------
 .byte   W96
@  #06 @025   ----------------------------------------
 .byte   W96
@  #06 @026   ----------------------------------------
 .byte   W96
@  #06 @027   ----------------------------------------
 .byte   W96
@  #06 @028   ----------------------------------------
 .byte   W96
@  #06 @029   ----------------------------------------
 .byte   W96
@  #06 @030   ----------------------------------------
 .byte   W96
@  #06 @031   ----------------------------------------
 .byte   W96
@  #06 @032   ----------------------------------------
 .byte   W96
@  #06 @033   ----------------------------------------
 .byte   W96
@  #06 @034   ----------------------------------------
 .byte   W96
@  #06 @035   ----------------------------------------
 .byte   W96
@  #06 @036   ----------------------------------------
 .byte   W96
@  #06 @037   ----------------------------------------
 .byte   W96
@  #06 @038   ----------------------------------------
 .byte   W96
@  #06 @039   ----------------------------------------
 .byte   W96
@  #06 @040   ----------------------------------------
 .byte   W96
@  #06 @041   ----------------------------------------
 .byte   W96
@  #06 @042   ----------------------------------------
 .byte   W96
@  #06 @043   ----------------------------------------
 .byte   W96
@  #06 @044   ----------------------------------------
 .byte   W96
@  #06 @045   ----------------------------------------
 .byte   W96
@  #06 @046   ----------------------------------------
 .byte   W96
@  #06 @047   ----------------------------------------
 .byte   W96
@  #06 @048   ----------------------------------------
 .byte   W96
@  #06 @049   ----------------------------------------
 .byte   W96
@  #06 @050   ----------------------------------------
 .byte   W96
@  #06 @051   ----------------------------------------
 .byte   W96
@  #06 @052   ----------------------------------------
 .byte   W48
 .byte   GOTO
  .word Label_0155BD53
@  #06 @053   ----------------------------------------
 .byte   MODT 1
 .byte   FINE

@**************** Track 7 (Midi-Chn.6) ****************@

song1C_007:
@  #07 @000   ----------------------------------------
 .byte   KEYSH , song1C_key+0
 .byte   VOICE , 34
 .byte   MODT 0
 .byte   LFOS 44
 .byte   PAN , c_v+0
 .byte   MODT 1
 .byte   VOL , 40*song1C_mvl/mxv
 .byte   VOL , 32*song1C_mvl/mxv
 .byte   W48
 .byte   N48 ,Fs3 ,v127
 .byte   W48
@  #07 @001   ----------------------------------------
 .byte   W96
@  #07 @002   ----------------------------------------
Label_0155BAE5:
 .byte   W24
 .byte   N24 ,Fs3 ,v127
 .byte   W24
 .byte   Gn3
 .byte   W24
 .byte   Cn4
 .byte   W24
 .byte   PEND 
@  #07 @003   ----------------------------------------
Label_0155BAEF:
 .byte   N24 ,Fs3 ,v127
 .byte   W24
 .byte   Gn3
 .byte   W24
 .byte   Cn4
 .byte   W24
 .byte   Fs3
 .byte   W24
 .byte   PEND 
@  #07 @004   ----------------------------------------
 .byte   Gn3
 .byte   W24
 .byte   Cn4
 .byte   W24
 .byte   N48 ,Fs3
 .byte   W48
@  #07 @005   ----------------------------------------
 .byte   W96
@  #07 @006   ----------------------------------------
 .byte   PATT
  .word Label_0155BAE5
@  #07 @007   ----------------------------------------
 .byte   PATT
  .word Label_0155BAEF
@  #07 @008   ----------------------------------------
 .byte   N24 ,Gn3 ,v127
 .byte   W24
 .byte   Cn4
 .byte   W48
 .byte   Fs3
 .byte   W24
@  #07 @009   ----------------------------------------
 .byte   Cn4
 .byte   W24
 .byte   Bn3
 .byte   W24
 .byte   Fs3
 .byte   W24
 .byte   Cn4
 .byte   W24
@  #07 @010   ----------------------------------------
 .byte   Bn3
 .byte   W24
 .byte   Fs3
 .byte   W24
 .byte   Cn4
 .byte   W24
 .byte   Bn3
 .byte   W24
@  #07 @011   ----------------------------------------
 .byte   Fs3
 .byte   W24
 .byte   Cn4
 .byte   W24
 .byte   Bn3
 .byte   W24
 .byte   MODT 1
 .byte   W24
@  #07 @012   ----------------------------------------
 .byte   W48
Label_0155BB2E:
 .byte   N48 ,Bn2 ,v127
 .byte   W48
@  #07 @013   ----------------------------------------
 .byte   Fs3
 .byte   W48
 .byte   Gn3
 .byte   W48
@  #07 @014   ----------------------------------------
 .byte   Cn4
 .byte   W48
 .byte   TIE ,Bn3
 .byte   W48
@  #07 @015   ----------------------------------------
 .byte   W96
@  #07 @016   ----------------------------------------
 .byte   EOT
 .byte   N24 ,Fs3
 .byte   W24
 .byte   Gn3
 .byte   W24
 .byte   N72 ,An3
 .byte   W48
@  #07 @017   ----------------------------------------
 .byte   W24
 .byte   N24 ,Bn3
 .byte   W24
 .byte   N48 ,Gn3
 .byte   W48
@  #07 @018   ----------------------------------------
 .byte   N24 ,En3
 .byte   W24
 .byte   Fs3
 .byte   W24
 .byte   N72 ,Gn3
 .byte   W48
@  #07 @019   ----------------------------------------
 .byte   W24
 .byte   N24 ,An3
 .byte   W24
 .byte   N96 ,Fs3
 .byte   W48
@  #07 @020   ----------------------------------------
 .byte   W48
 .byte   N24 ,Cn3
 .byte   W24
 .byte   N48
 .byte   W24
@  #07 @021   ----------------------------------------
Label_0155BB61:
 .byte   W24
 .byte   N48 ,Cn3 ,v127
 .byte   W48
 .byte   N24
 .byte   W24
 .byte   PEND 
@  #07 @022   ----------------------------------------
Label_0155BB69:
 .byte   N48 ,Cn3 ,v127
 .byte   W48
 .byte   An2
 .byte   W48
 .byte   PEND 
@  #07 @023   ----------------------------------------
Label_0155BB70:
 .byte   N24 ,An3 ,v127
 .byte   W42
 .byte   N06 ,An2
 .byte   W06
 .byte   N24 ,An3
 .byte   W24
 .byte   N24
 .byte   W24
 .byte   PEND 
@  #07 @024   ----------------------------------------
Label_0155BB7D:
 .byte   W12
 .byte   N12 ,Gn3 ,v127
 .byte   W12
 .byte   Fs3
 .byte   W12
 .byte   En3
 .byte   W12
 .byte   N24 ,En2
 .byte   W24
 .byte   N48
 .byte   W24
 .byte   PEND 
@  #07 @025   ----------------------------------------
Label_0155BB8C:
 .byte   W24
 .byte   N48 ,En2 ,v127
 .byte   W48
 .byte   N24
 .byte   W24
 .byte   PEND 
@  #07 @026   ----------------------------------------
 .byte   N24
 .byte   W48
 .byte   N48
 .byte   W48
@  #07 @027   ----------------------------------------
 .byte   N48
 .byte   W72
 .byte   Bn2
 .byte   W24
@  #07 @028   ----------------------------------------
 .byte   W24
 .byte   N24 ,Cn3
 .byte   W24
 .byte   N24
 .byte   W24
 .byte   N48
 .byte   W24
@  #07 @029   ----------------------------------------
 .byte   PATT
  .word Label_0155BB61
@  #07 @030   ----------------------------------------
 .byte   PATT
  .word Label_0155BB69
@  #07 @031   ----------------------------------------
 .byte   PATT
  .word Label_0155BB70
@  #07 @032   ----------------------------------------
 .byte   PATT
  .word Label_0155BB7D
@  #07 @033   ----------------------------------------
 .byte   PATT
  .word Label_0155BB8C
@  #07 @034   ----------------------------------------
 .byte   N24 ,En2 ,v127
 .byte   W48
 .byte   N32 ,En3
 .byte   W32
 .byte   En2
 .byte   W16
@  #07 @035   ----------------------------------------
 .byte   W16
 .byte   N32
 .byte   W32
 .byte   En3
 .byte   W48
@  #07 @036   ----------------------------------------
Label_0155BBCB:
 .byte   W48
 .byte   N16 ,En2 ,v127
 .byte   W16
 .byte   N16
 .byte   W16
 .byte   N16
 .byte   W16
 .byte   PEND 
@  #07 @037   ----------------------------------------
Label_0155BBD5:
 .byte   N16 ,En2 ,v127
 .byte   W16
 .byte   N16
 .byte   W16
 .byte   N16
 .byte   W16
 .byte   N48
 .byte   W48
 .byte   PEND 
@  #07 @038   ----------------------------------------
Label_0155BBE0:
 .byte   N16 ,En2 ,v127
 .byte   W16
 .byte   N16
 .byte   W16
 .byte   N16
 .byte   W16
 .byte   N16
 .byte   W16
 .byte   N16
 .byte   W16
 .byte   N16
 .byte   W16
 .byte   PEND 
@  #07 @039   ----------------------------------------
Label_0155BBEF:
 .byte   N48 ,En2 ,v127
 .byte   W48
 .byte   N16
 .byte   W16
 .byte   N16
 .byte   W16
 .byte   N16
 .byte   W16
 .byte   PEND 
@  #07 @040   ----------------------------------------
 .byte   PATT
  .word Label_0155BBD5
@  #07 @041   ----------------------------------------
 .byte   PATT
  .word Label_0155BBE0
@  #07 @042   ----------------------------------------
 .byte   PATT
  .word Label_0155BBEF
@  #07 @043   ----------------------------------------
 .byte   N16 ,En2 ,v127
 .byte   W16
 .byte   N16
 .byte   W16
 .byte   N16
 .byte   W64
@  #07 @044   ----------------------------------------
 .byte   PATT
  .word Label_0155BBCB
@  #07 @045   ----------------------------------------
 .byte   PATT
  .word Label_0155BBD5
@  #07 @046   ----------------------------------------
 .byte   PATT
  .word Label_0155BBE0
@  #07 @047   ----------------------------------------
 .byte   PATT
  .word Label_0155BBEF
@  #07 @048   ----------------------------------------
 .byte   PATT
  .word Label_0155BBD5
@  #07 @049   ----------------------------------------
 .byte   PATT
  .word Label_0155BBE0
@  #07 @050   ----------------------------------------
 .byte   PATT
  .word Label_0155BBEF
@  #07 @051   ----------------------------------------
 .byte   N16 ,En2 ,v127
 .byte   W16
 .byte   N16
 .byte   W16
 .byte   N16
 .byte   W16
 .byte   N12 ,Bn2
 .byte   W12
 .byte   N12
 .byte   W12
 .byte   N12
 .byte   W12
 .byte   N12
 .byte   W12
@  #07 @052   ----------------------------------------
 .byte   N48
 .byte   W48
 .byte   GOTO
  .word Label_0155BB2E
@  #07 @053   ----------------------------------------
 .byte   MODT 1
 .byte   FINE

@**************** Track 8 (Midi-Chn.7) ****************@

song1C_008:
@  #08 @000   ----------------------------------------
 .byte   KEYSH , song1C_key+0
 .byte   VOICE , 127
 .byte   MODT 0
 .byte   LFOS 44
 .byte   VOL , 44*song1C_mvl/mxv
 .byte   MODT 1
 .byte   N08 ,Dn1 ,v108
 .byte   W08
 .byte   N08
 .byte   W08
 .byte   N08
 .byte   W08
 .byte   N08
 .byte   W08
 .byte   N08
 .byte   W08
 .byte   N08
 .byte   W08
 .byte   N48
 .byte   TIE ,As1
 .byte   W48
@  #08 @001   ----------------------------------------
Label_01BCA176:
 .byte   N12 ,Dn1 ,v108
 .byte   W12
 .byte   N12
 .byte   W12
 .byte   N12
 .byte   W12
 .byte   N12
 .byte   W12
 .byte   N12
 .byte   W12
 .byte   Bn1
 .byte   W12
 .byte   An1
 .byte   W12
 .byte   Gn1
 .byte   W12
 .byte   PEND 
@  #08 @002   ----------------------------------------
 .byte   VOICE , 127
 .byte   MODT 1
 .byte   N24 ,Cn1
 .byte   W24
 .byte   N24
 .byte   W24
 .byte   EOT
 .byte   As1
 .byte   N24 ,Dn1
 .byte   W24
 .byte   Cn1
 .byte   W24
@  #08 @003   ----------------------------------------
 .byte   N24
 .byte   W24
 .byte   N24
 .byte   W48
 .byte   N12
 .byte   W12
 .byte   N12
 .byte   W12
@  #08 @004   ----------------------------------------
 .byte   VOICE , 127
 .byte   MODT 1
 .byte   N24 ,Dn1
 .byte   W24
 .byte   Cn1
 .byte   W24
 .byte   N48 ,Dn1
 .byte   N96 ,As1
 .byte   W48
@  #08 @005   ----------------------------------------
 .byte   PATT
  .word Label_01BCA176
@  #08 @006   ----------------------------------------
 .byte   VOICE , 127
 .byte   MODT 1
 .byte   N24 ,Cn1 ,v108
 .byte   N96 ,As1
 .byte   W24
 .byte   N24 ,Cn1
 .byte   W24
 .byte   Fs1
 .byte   W24
 .byte   Dn1
 .byte   W24
@  #08 @007   ----------------------------------------
 .byte   N24
 .byte   W24
 .byte   Cn1
 .byte   W48
 .byte   N24
 .byte   W24
@  #08 @008   ----------------------------------------
 .byte   VOICE , 127
 .byte   MODT 1
 .byte   N24 ,Dn1
 .byte   W24
 .byte   Cn1
 .byte   W24
 .byte   Dn1
 .byte   W24
 .byte   N12 ,Fs1
 .byte   W12
 .byte   N12
 .byte   W12
@  #08 @009   ----------------------------------------
 .byte   N24
 .byte   W24
 .byte   N12
 .byte   W12
 .byte   N12
 .byte   W12
 .byte   N24
 .byte   W24
 .byte   N12
 .byte   W12
 .byte   N12
 .byte   W12
@  #08 @010   ----------------------------------------
 .byte   VOICE , 127
 .byte   MODT 1
 .byte   N24
 .byte   W24
 .byte   N12
 .byte   W12
 .byte   N12
 .byte   W12
 .byte   N24
 .byte   W24
 .byte   N12
 .byte   W12
 .byte   N12
 .byte   W12
@  #08 @011   ----------------------------------------
 .byte   N24
 .byte   W24
 .byte   An1
 .byte   W24
 .byte   N12 ,Gn1
 .byte   W12
 .byte   N12
 .byte   W12
 .byte   N12
 .byte   W12
 .byte   Fs1
 .byte   W12
@  #08 @012   ----------------------------------------
 .byte   VOICE , 127
 .byte   MODT 1
 .byte   N12 ,Dn1
 .byte   W12
 .byte   Bn1
 .byte   W12
 .byte   An1
 .byte   W12
 .byte   Gn1
 .byte   W12
Label_01BCA211:
 .byte   N48 ,Dn1 ,v108
 .byte   N48 ,Cs2
 .byte   W48
@  #08 @013   ----------------------------------------
Label_01BCA217:
 .byte   N24 ,Cn1 ,v108
 .byte   N24 ,As1
 .byte   W24
 .byte   Cn1
 .byte   N24 ,As1
 .byte   W24
 .byte   Cn1
 .byte   N24 ,As1
 .byte   W24
 .byte   Cn1
 .byte   N24 ,As1
 .byte   W24
 .byte   PEND 
@  #08 @014   ----------------------------------------
 .byte   VOICE , 127
 .byte   MODT 1
 .byte   N24 ,Cn1
 .byte   N24 ,As1
 .byte   W24
 .byte   Cn1
 .byte   N24 ,As1
 .byte   W24
 .byte   Cn1
 .byte   N24 ,As1
 .byte   W24
 .byte   Cn1
 .byte   N24 ,As1
 .byte   W24
@  #08 @015   ----------------------------------------
 .byte   PATT
  .word Label_01BCA217
@  #08 @016   ----------------------------------------
 .byte   VOICE , 127
 .byte   MODT 1
 .byte   N12 ,Dn1 ,v108
 .byte   N24 ,Gs1
 .byte   W12
 .byte   N12 ,Dn1
 .byte   W12
 .byte   N12
 .byte   W12
 .byte   N12
 .byte   W12
 .byte   N24 ,Cn1
 .byte   N96 ,Cn2
 .byte   W24
 .byte   N24 ,Cn1
 .byte   W24
@  #08 @017   ----------------------------------------
 .byte   N24
 .byte   W24
 .byte   Fs1
 .byte   W24
 .byte   Cn1
 .byte   W24
 .byte   N24
 .byte   W24
@  #08 @018   ----------------------------------------
 .byte   VOICE , 127
 .byte   MODT 1
 .byte   N24 ,Dn1
 .byte   W24
 .byte   Cn1
 .byte   W24
 .byte   N24
 .byte   W24
 .byte   N24
 .byte   W24
@  #08 @019   ----------------------------------------
 .byte   Dn1
 .byte   W24
 .byte   Cn1
 .byte   W24
 .byte   N06 ,Dn1
 .byte   W06
 .byte   N06
 .byte   W06
 .byte   N06
 .byte   W06
 .byte   N06
 .byte   W06
 .byte   N06
 .byte   W06
 .byte   N06
 .byte   W06
 .byte   N06
 .byte   W06
 .byte   N06
 .byte   W06
@  #08 @020   ----------------------------------------
 .byte   VOICE , 127
 .byte   MODT 1
 .byte   N06
 .byte   W06
 .byte   N06
 .byte   W06
 .byte   N06
 .byte   W06
 .byte   N06
 .byte   W06
 .byte   N06
 .byte   W06
 .byte   N06
 .byte   W06
 .byte   N06
 .byte   W06
 .byte   N06
 .byte   W06
 .byte   N24 ,Cn1
 .byte   N48 ,Cs2
 .byte   W24
 .byte   Cn1
 .byte   W24
@  #08 @021   ----------------------------------------
Label_01BCA2A2:
 .byte   N48 ,Ds2 ,v108
 .byte   W24
 .byte   Dn1
 .byte   W24
 .byte   Ds2
 .byte   W24
 .byte   N24 ,Cn1
 .byte   W24
 .byte   PEND 
@  #08 @022   ----------------------------------------
Label_01BCA2AE:
 .byte   VOICE , 127
 .byte   MODT 1
 .byte   N24 ,Dn1 ,v108
 .byte   N48 ,Ds2
 .byte   W48
 .byte   Cn1
 .byte   N48 ,Ds2
 .byte   W48
 .byte   PEND 
@  #08 @023   ----------------------------------------
Label_01BCA2BD:
 .byte   N24 ,Dn1 ,v108
 .byte   N48 ,Ds2
 .byte   W36
 .byte   N12 ,Cn1
 .byte   W12
 .byte   N24 ,Dn1
 .byte   N48 ,Ds2
 .byte   W24
 .byte   N24 ,Dn1
 .byte   W24
 .byte   PEND 
@  #08 @024   ----------------------------------------
Label_01BCA2CF:
 .byte   VOICE , 127
 .byte   MODT 1
 .byte   N48 ,Ds2 ,v108
 .byte   W48
 .byte   N24 ,Cn1
 .byte   N48 ,Ds2
 .byte   W24
 .byte   Cn1
 .byte   W24
 .byte   PEND 
@  #08 @025   ----------------------------------------
 .byte   PATT
  .word Label_01BCA2A2
@  #08 @026   ----------------------------------------
 .byte   VOICE , 127
 .byte   MODT 1
 .byte   N24 ,Dn1 ,v108
 .byte   N48 ,Ds2
 .byte   W24
 .byte   N24 ,Cn1
 .byte   W24
 .byte   N48 ,Ds2
 .byte   W24
 .byte   N12 ,Cn1
 .byte   W12
 .byte   N12
 .byte   W12
@  #08 @027   ----------------------------------------
 .byte   N24 ,Dn1
 .byte   N48 ,Ds2
 .byte   W24
 .byte   N24 ,Cn1
 .byte   W24
 .byte   Dn1
 .byte   W24
 .byte   N36 ,As1
 .byte   W24
@  #08 @028   ----------------------------------------
 .byte   VOICE , 127
 .byte   MODT 1
 .byte   W48
 .byte   N24 ,Cn1
 .byte   N48 ,Cs2
 .byte   W24
 .byte   Cn1
 .byte   W24
@  #08 @029   ----------------------------------------
 .byte   PATT
  .word Label_01BCA2A2
@  #08 @030   ----------------------------------------
 .byte   PATT
  .word Label_01BCA2AE
@  #08 @031   ----------------------------------------
 .byte   PATT
  .word Label_01BCA2BD
@  #08 @032   ----------------------------------------
 .byte   PATT
  .word Label_01BCA2CF
@  #08 @033   ----------------------------------------
 .byte   PATT
  .word Label_01BCA2A2
@  #08 @034   ----------------------------------------
 .byte   VOICE , 127
 .byte   MODT 1
 .byte   N24 ,Dn1 ,v108
 .byte   N48 ,Ds2
 .byte   W24
 .byte   N24 ,Cn1
 .byte   W24
 .byte   N32 ,Dn1
 .byte   W32
 .byte   Cn1
 .byte   N32 ,Gn1
 .byte   W16
@  #08 @035   ----------------------------------------
 .byte   W16
 .byte   Cn1
 .byte   N32 ,Gn1
 .byte   W32
 .byte   N16 ,Cn1
 .byte   N16 ,Dn1
 .byte   W16
 .byte   Cn1
 .byte   W16
 .byte   N16
 .byte   W16
@  #08 @036   ----------------------------------------
 .byte   VOICE , 127
 .byte   MODT 1
 .byte   N16
 .byte   W16
 .byte   N16
 .byte   W16
 .byte   N16
 .byte   W16
 .byte   N16
 .byte   N48 ,Cs2
 .byte   W16
 .byte   N16 ,Cn1
 .byte   W16
 .byte   N16
 .byte   W16
@  #08 @037   ----------------------------------------
Label_01BCA360:
 .byte   N16 ,Dn1 ,v108
 .byte   W16
 .byte   Cn1
 .byte   N16 ,As1
 .byte   W16
 .byte   Cn1
 .byte   N16 ,As1
 .byte   W16
 .byte   N48 ,Dn1
 .byte   N32 ,As1
 .byte   W48
 .byte   PEND 
@  #08 @038   ----------------------------------------
Label_01BCA372:
 .byte   VOICE , 127
 .byte   MODT 1
 .byte   N16 ,Cn1 ,v108
 .byte   W16
 .byte   Dn1
 .byte   W16
 .byte   N16
 .byte   W16
 .byte   Cn1
 .byte   W16
 .byte   Dn1
 .byte   N16 ,As1
 .byte   W16
 .byte   Cn1
 .byte   N16 ,As1
 .byte   W16
 .byte   PEND 
@  #08 @039   ----------------------------------------
 .byte   N48 ,Dn1
 .byte   N48 ,As1
 .byte   W48
 .byte   N16 ,Cn1
 .byte   N48 ,As1
 .byte   W16
 .byte   N16 ,Cn1
 .byte   W16
 .byte   N16
 .byte   W16
@  #08 @040   ----------------------------------------
Label_01BCA398:
 .byte   VOICE , 127
 .byte   MODT 1
 .byte   N16 ,Dn1 ,v108
 .byte   W16
 .byte   Cn1
 .byte   N16 ,As1
 .byte   W16
 .byte   Cn1
 .byte   N16 ,As1
 .byte   W16
 .byte   N48 ,Dn1
 .byte   N32 ,As1
 .byte   W32
 .byte   N16
 .byte   W16
 .byte   PEND 
@  #08 @041   ----------------------------------------
 .byte   Dn1
 .byte   N32 ,As1
 .byte   W16
 .byte   N16 ,Cn1
 .byte   W16
 .byte   N16
 .byte   W16
 .byte   Dn1
 .byte   W16
 .byte   Cn1
 .byte   N16 ,As1
 .byte   W16
 .byte   Cn1
 .byte   N16 ,As1
 .byte   W16
@  #08 @042   ----------------------------------------
 .byte   VOICE , 127
 .byte   MODT 1
 .byte   N48 ,Dn1
 .byte   N32 ,As1
 .byte   W32
 .byte   N16
 .byte   W16
 .byte   Cn1
 .byte   N96 ,As1
 .byte   W16
 .byte   N16 ,Cn1
 .byte   W16
 .byte   N16
 .byte   W16
@  #08 @043   ----------------------------------------
 .byte   Dn1
 .byte   W16
 .byte   Cn1
 .byte   W16
 .byte   N16
 .byte   W16
 .byte   N16
 .byte   N96 ,As1
 .byte   W16
 .byte   N16 ,Cn1
 .byte   W16
 .byte   Dn1
 .byte   W16
@  #08 @044   ----------------------------------------
 .byte   VOICE , 127
 .byte   MODT 1
 .byte   N16
 .byte   W16
 .byte   Cn1
 .byte   W16
 .byte   N16
 .byte   W16
 .byte   N16
 .byte   W16
 .byte   N16
 .byte   W16
 .byte   N16
 .byte   W16
@  #08 @045   ----------------------------------------
 .byte   PATT
  .word Label_01BCA360
@  #08 @046   ----------------------------------------
 .byte   PATT
  .word Label_01BCA372
@  #08 @047   ----------------------------------------
 .byte   N48 ,Dn1 ,v108
 .byte   N32 ,As1
 .byte   W48
 .byte   N16 ,Cn1
 .byte   N48 ,As1
 .byte   W16
 .byte   N16 ,Cn1
 .byte   W16
 .byte   N16
 .byte   W16
@  #08 @048   ----------------------------------------
 .byte   PATT
  .word Label_01BCA398
@  #08 @049   ----------------------------------------
 .byte   N16 ,Dn1 ,v108
 .byte   N48 ,As1
 .byte   W16
 .byte   N16 ,Cn1
 .byte   W16
 .byte   N16
 .byte   W16
 .byte   N16
 .byte   N48 ,As1
 .byte   W16
 .byte   N16 ,Cn1
 .byte   W16
 .byte   N16
 .byte   W16
@  #08 @050   ----------------------------------------
 .byte   VOICE , 127
 .byte   MODT 1
 .byte   N48 ,Dn1
 .byte   N48 ,As1
 .byte   W48
 .byte   N16 ,Cn1
 .byte   N48 ,As1
 .byte   W16
 .byte   N16 ,Cn1
 .byte   W16
 .byte   N16
 .byte   W16
@  #08 @051   ----------------------------------------
 .byte   N16
 .byte   N48 ,As1
 .byte   W16
 .byte   N16 ,Cn1
 .byte   W16
 .byte   N16
 .byte   W16
 .byte   N12 ,Dn1
 .byte   W12
 .byte   N12
 .byte   W12
 .byte   N12
 .byte   W12
 .byte   N12
 .byte   W12
@  #08 @052   ----------------------------------------
 .byte   VOICE , 127
 .byte   MODT 1
 .byte   N12
 .byte   N12 ,Bn1
 .byte   W12
 .byte   An1
 .byte   W12
 .byte   Gn1
 .byte   W12
 .byte   Fn1
 .byte   W12
 .byte   GOTO
  .word Label_01BCA211
@  #08 @053   ----------------------------------------
 .byte   VOICE , 127
 .byte   MODT 1
 .byte   FINE

@******************************************************@
	.align	2

song1C:
	.byte	8	@ NumTrks
	.byte	0	@ NumBlks
	.byte	song1C_pri	@ Priority
	.byte	song1C_rev	@ Reverb.
    
	.word	song1C_grp
    
	.word	song1C_001
	.word	song1C_002
	.word	song1C_003
	.word	song1C_004
	.word	song1C_005
	.word	song1C_006
	.word	song1C_007
	.word	song1C_008

	.end
