	.include "MPlayDef.s"

	.equ	song06_grp, voicegroup000
	.equ	song06_pri, 0
	.equ	song06_rev, 0
	.equ	song06_mvl, 127
	.equ	song06_key, 0
	.equ	song06_tbs, 1
	.equ	song06_exg, 0
	.equ	song06_cmp, 1

	.section .rodata
	.global	song06
	.align	2


@**************** Track 1 (Midi-Chn.0) ****************@

song06_001:
@  #01 @000   ----------------------------------------
 .byte   KEYSH , song06_key+0
 .byte   TEMPO , 156*song06_tbs/2
 .byte   VOICE , 79
 .byte   VOL , 65*song06_mvl/mxv
 .byte   PAN , c_v+0
 .byte   VOL , 47*song06_mvl/mxv
 .byte   PAN , c_v+0
 .byte   W96
@  #01 @001   ----------------------------------------
 .byte   W96
@  #01 @002   ----------------------------------------
 .byte   W96
@  #01 @003   ----------------------------------------
 .byte   W96
@  #01 @004   ----------------------------------------
 .byte   W96
@  #01 @005   ----------------------------------------
 .byte   W96
@  #01 @006   ----------------------------------------
 .byte   W96
@  #01 @007   ----------------------------------------
 .byte   W96
@  #01 @008   ----------------------------------------
 .byte   W96
@  #01 @009   ----------------------------------------
 .byte   W24
Label_01034A2C:
 .byte   W72
@  #01 @010   ----------------------------------------
 .byte   W96
@  #01 @011   ----------------------------------------
 .byte   W96
@  #01 @012   ----------------------------------------
 .byte   W96
@  #01 @013   ----------------------------------------
 .byte   W96
@  #01 @014   ----------------------------------------
 .byte   W96
@  #01 @015   ----------------------------------------
 .byte   N68 ,An3 ,v080
 .byte   W24
 .byte   W24
 .byte   W24
 .byte   Cn4
 .byte   W24
@  #01 @016   ----------------------------------------
Label_01034A3A:
 .byte   W24
 .byte   W24
 .byte   N68 ,An3 ,v080
 .byte   W24
 .byte   W24
 .byte   PEND 
@  #01 @017   ----------------------------------------
 .byte   W24
 .byte   N72 ,Dn4
 .byte   W24
 .byte   W24
 .byte   W24
@  #01 @018   ----------------------------------------
 .byte   N68 ,An3
 .byte   W24
 .byte   W24
 .byte   W24
 .byte   N72 ,En4
 .byte   W24
@  #01 @019   ----------------------------------------
 .byte   PATT
  .word Label_01034A3A
@  #01 @020   ----------------------------------------
 .byte   W24
 .byte   N68 ,Fs4 ,v080
 .byte   W36
 .byte   W36
@  #01 @021   ----------------------------------------
 .byte   TIE ,An0 ,v092
 .byte   W96
@  #01 @022   ----------------------------------------
 .byte   W96
@  #01 @023   ----------------------------------------
 .byte   W96
@  #01 @024   ----------------------------------------
 .byte   W96
@  #01 @025   ----------------------------------------
 .byte   W96
@  #01 @026   ----------------------------------------
 .byte   W92
 .byte   W03
 .byte   EOT
 .byte   W01
@  #01 @027   ----------------------------------------
 .byte   TIE ,Gn1
 .byte   W96
@  #01 @028   ----------------------------------------
 .byte   W44
 .byte   W03
 .byte   EOT
 .byte   W01
 .byte   TIE ,Fs1
 .byte   W48
@  #01 @029   ----------------------------------------
 .byte   W92
 .byte   W03
 .byte   EOT
 .byte   W01
@  #01 @030   ----------------------------------------
 .byte   N68 ,Cn2
 .byte   W72
 .byte   Bn1
 .byte   W24
@  #01 @031   ----------------------------------------
 .byte   W48
 .byte   TIE ,As1
 .byte   W48
@  #01 @032   ----------------------------------------
 .byte   W92
 .byte   W03
 .byte   EOT
 .byte   W01
@  #01 @033   ----------------------------------------
 .byte   N68 ,Bn1
 .byte   W72
 .byte   En1
 .byte   W24
@  #01 @034   ----------------------------------------
 .byte   W48
 .byte   An1
 .byte   W48
@  #01 @035   ----------------------------------------
 .byte   W24
 .byte   Gn1
 .byte   W72
@  #01 @036   ----------------------------------------
 .byte   Fn1
 .byte   W72
 .byte   As1
 .byte   W24
@  #01 @037   ----------------------------------------
 .byte   W48
 .byte   TIE ,Bn1
 .byte   W48
@  #01 @038   ----------------------------------------
 .byte   W92
 .byte   W03
 .byte   EOT
 .byte   W01
@  #01 @039   ----------------------------------------
 .byte   TIE ,En1
 .byte   W96
@  #01 @040   ----------------------------------------
 .byte   W44
 .byte   W03
 .byte   EOT
 .byte   W01
 .byte   TIE ,An0
 .byte   N03 ,Dn4 ,v080
 .byte   W04
 .byte   TIE ,En4
 .byte   W44
@  #01 @041   ----------------------------------------
 .byte   W96
@  #01 @042   ----------------------------------------
 .byte   W60
 .byte   W01
 .byte   EOT
 .byte   W11
 .byte   N03 ,Cn4
 .byte   W04
 .byte   N64 ,Dn4
 .byte   W20
@  #01 @043   ----------------------------------------
 .byte   W48
 .byte   N03
 .byte   W04
 .byte   TIE ,En4
 .byte   W44
@  #01 @044   ----------------------------------------
 .byte   W96
@  #01 @045   ----------------------------------------
 .byte   W60
 .byte   W01
 .byte   EOT
 .byte   W11
 .byte   N32 ,Dn4
 .byte   W24
@  #01 @046   ----------------------------------------
 .byte   W12
 .byte   N11 ,Gn4
 .byte   W12
 .byte   N05 ,An4
 .byte   W06
 .byte   Gn4
 .byte   W06
 .byte   Fs4
 .byte   W06
 .byte   Gn4
 .byte   W05
 .byte   EOT
 .byte   An0
 .byte   W01
 .byte   TIE ,An0 ,v092
 .byte   N80 ,An4 ,v080
 .byte   W48
@  #01 @047   ----------------------------------------
Label_01034AD9:
 .byte   W48
 .byte   TIE ,An4 ,v080
 .byte   W48
 .byte   PEND 
@  #01 @048   ----------------------------------------
 .byte   W64
 .byte   W01
 .byte   EOT
 .byte   W07
 .byte   N03 ,Fs4
 .byte   W04
 .byte   N30 ,Gn4
 .byte   W20
@  #01 @049   ----------------------------------------
 .byte   W12
 .byte   N32 ,Dn4
 .byte   W36
 .byte   N03 ,Gn4
 .byte   W04
 .byte   N72 ,An4
 .byte   W44
@  #01 @050   ----------------------------------------
 .byte   PATT
  .word Label_01034AD9
@  #01 @051   ----------------------------------------
 .byte   W64
 .byte   W01
 .byte   EOT
 .byte   An4
 .byte   W07
 .byte   N03 ,Fs4 ,v080
 .byte   W04
 .byte   N30 ,Gn4
 .byte   W20
@  #01 @052   ----------------------------------------
 .byte   W12
 .byte   N44 ,Cn5
 .byte   W32
 .byte   W03
 .byte   EOT
 .byte   An0
 .byte   W01
 .byte   TIE ,Fn1 ,v092
 .byte   W24
 .byte   N11 ,En4 ,v080
 .byte   W12
 .byte   N11
 .byte   W12
@  #01 @053   ----------------------------------------
Label_01034B16:
 .byte   N11 ,Dn4 ,v080
 .byte   W12
 .byte   Gn4
 .byte   W12
 .byte   TIE ,En4
 .byte   W72
 .byte   PEND 
@  #01 @054   ----------------------------------------
 .byte   W96
@  #01 @055   ----------------------------------------
 .byte   W36
 .byte   W01
 .byte   EOT
 .byte   W10
 .byte   EOT
 .byte   Fn1
 .byte   W01
 .byte   TIE ,En1 ,v092
 .byte   N03 ,Dn4 ,v080
 .byte   W04
 .byte   TIE ,En4
 .byte   W44
@  #01 @056   ----------------------------------------
 .byte   W66
 .byte   EOT
 .byte   W06
 .byte   N11 ,Dn4
 .byte   W12
 .byte   Cn4
 .byte   W12
@  #01 @057   ----------------------------------------
 .byte   N03
 .byte   W04
 .byte   N64 ,Bn3
 .byte   W68
 .byte   N68 ,Gn3
 .byte   W24
@  #01 @058   ----------------------------------------
 .byte   W44
 .byte   W03
 .byte   EOT
 .byte   En1
 .byte   W01
 .byte   TIE ,Fn1 ,v092
 .byte   W24
 .byte   N11 ,En4 ,v080
 .byte   W12
 .byte   N11
 .byte   W12
@  #01 @059   ----------------------------------------
 .byte   PATT
  .word Label_01034B16
@  #01 @060   ----------------------------------------
 .byte   W96
@  #01 @061   ----------------------------------------
 .byte   W36
 .byte   W01
 .byte   EOT
 .byte   En4
 .byte   W10
 .byte   Fn1
 .byte   W01
 .byte   TIE ,Gn1 ,v092
 .byte   N03 ,An4 ,v080
 .byte   W04
 .byte   TIE ,Bn4
 .byte   W44
@  #01 @062   ----------------------------------------
 .byte   W54
 .byte   EOT
 .byte   W06
 .byte   N11 ,Cn5
 .byte   W12
 .byte   N03
 .byte   W04
 .byte   N07 ,Bn4
 .byte   W08
 .byte   N11 ,Gn4
 .byte   W12
@  #01 @063   ----------------------------------------
 .byte   En4
 .byte   W12
 .byte   N56
 .byte   W60
 .byte   N11 ,Dn4
 .byte   W12
 .byte   N56
 .byte   W12
@  #01 @064   ----------------------------------------
 .byte   W44
 .byte   W03
 .byte   EOT
 .byte   Gn1
 .byte   W01
 .byte   TIE ,Fn1 ,v092
 .byte   W24
 .byte   N11 ,En4 ,v080
 .byte   W12
 .byte   N11
 .byte   W12
@  #01 @065   ----------------------------------------
 .byte   PATT
  .word Label_01034B16
@  #01 @066   ----------------------------------------
 .byte   W96
@  #01 @067   ----------------------------------------
 .byte   W36
 .byte   W01
 .byte   EOT
 .byte   En4
 .byte   W10
 .byte   Fn1
 .byte   W01
 .byte   TIE ,En1 ,v092
 .byte   N03 ,Gn4 ,v080
 .byte   W04
 .byte   N40 ,An4
 .byte   W44
@  #01 @068   ----------------------------------------
 .byte   N44
 .byte   W48
 .byte   N03 ,Gn4
 .byte   W04
 .byte   N18 ,An4
 .byte   W20
 .byte   N03
 .byte   W04
 .byte   N07 ,Gn4
 .byte   W08
 .byte   N11 ,An4
 .byte   W12
@  #01 @069   ----------------------------------------
 .byte   N68 ,Bn4
 .byte   W72
 .byte   N11 ,En4
 .byte   W12
 .byte   N22
 .byte   W12
@  #01 @070   ----------------------------------------
 .byte   W12
 .byte   N11 ,Dn4
 .byte   W12
 .byte   N22
 .byte   W23
 .byte   EOT
 .byte   En1
 .byte   W01
 .byte   TIE ,Fn1 ,v092
 .byte   W24
 .byte   N11 ,En4 ,v080
 .byte   W12
 .byte   N11
 .byte   W12
@  #01 @071   ----------------------------------------
 .byte   PATT
  .word Label_01034B16
@  #01 @072   ----------------------------------------
 .byte   W96
@  #01 @073   ----------------------------------------
 .byte   W36
 .byte   W01
 .byte   EOT
 .byte   En4
 .byte   W10
 .byte   Fn1
 .byte   W01
 .byte   TIE ,Bn0 ,v092
 .byte   N03 ,Gn4 ,v080
 .byte   W04
 .byte   N40 ,An4
 .byte   W44
@  #01 @074   ----------------------------------------
 .byte   N44
 .byte   W48
 .byte   N03 ,Gn4
 .byte   W04
 .byte   N07 ,An4
 .byte   W08
 .byte   N03 ,Cn5
 .byte   W04
 .byte   N07 ,An4
 .byte   W08
 .byte   N11 ,Gn4
 .byte   W12
 .byte   An4
 .byte   W11
 .byte   EOT
 .byte   Bn0
 .byte   W01
@  #01 @075   ----------------------------------------
 .byte   TIE ,As0 ,v092
 .byte   N03 ,As4 ,v080
 .byte   W04
 .byte   N64 ,Cn5
 .byte   W68
 .byte   N68 ,As4
 .byte   W24
@  #01 @076   ----------------------------------------
 .byte   W44
 .byte   W03
 .byte   EOT
 .byte   As0
 .byte   W48
 .byte   W01
@  #01 @077   ----------------------------------------
 .byte   W96
@  #01 @078   ----------------------------------------
 .byte   TIE ,Gn1 ,v092
 .byte   W96
@  #01 @079   ----------------------------------------
 .byte   W44
 .byte   W03
 .byte   EOT
 .byte   W01
 .byte   TIE ,Fs1
 .byte   W48
@  #01 @080   ----------------------------------------
 .byte   W92
 .byte   W03
 .byte   EOT
 .byte   W01
@  #01 @081   ----------------------------------------
 .byte   TIE ,Fn1
 .byte   W96
@  #01 @082   ----------------------------------------
 .byte   W44
 .byte   W03
 .byte   EOT
 .byte   W01
 .byte   TIE ,An1
 .byte   W48
@  #01 @083   ----------------------------------------
 .byte   W92
 .byte   W03
 .byte   EOT
 .byte   W01
@  #01 @084   ----------------------------------------
 .byte   TIE ,Gn1
 .byte   W96
@  #01 @085   ----------------------------------------
 .byte   W44
 .byte   W03
 .byte   EOT
 .byte   W01
 .byte   TIE ,Fs1
 .byte   W48
@  #01 @086   ----------------------------------------
 .byte   W92
 .byte   W03
 .byte   EOT
 .byte   W01
@  #01 @087   ----------------------------------------
 .byte   TIE ,Fn1
 .byte   W96
@  #01 @088   ----------------------------------------
 .byte   W44
 .byte   W03
 .byte   EOT
 .byte   W01
 .byte   TIE ,An1
 .byte   W48
@  #01 @089   ----------------------------------------
 .byte   W96
@  #01 @090   ----------------------------------------
 .byte   W96
@  #01 @091   ----------------------------------------
 .byte   W23
 .byte   EOT
 .byte   W72
 .byte   W01
@  #01 @092   ----------------------------------------
 .byte   W96
@  #01 @093   ----------------------------------------
 .byte   W96
@  #01 @094   ----------------------------------------
 .byte   W96
@  #01 @095   ----------------------------------------
 .byte   W96
@  #01 @096   ----------------------------------------
 .byte   W96
@  #01 @097   ----------------------------------------
 .byte   W72
 .byte   GOTO
  .word Label_01034A2C
@  #01 @098   ----------------------------------------
 .byte   W24
 .byte   W96
@  #01 @099   ----------------------------------------
 .byte   W96
@  #01 @100   ----------------------------------------
 .byte   W96
@  #01 @101   ----------------------------------------
 .byte   W96
@  #01 @102   ----------------------------------------
 .byte   W96
@  #01 @103   ----------------------------------------
 .byte   W96
@  #01 @104   ----------------------------------------
 .byte   W96
@  #01 @105   ----------------------------------------
 .byte   W96
@  #01 @106   ----------------------------------------
 .byte   W96
@  #01 @107   ----------------------------------------
 .byte   W96
@  #01 @108   ----------------------------------------
 .byte   W96
@  #01 @109   ----------------------------------------
 .byte   W48
 .byte   TIE ,An0 ,v092
 .byte   W48
@  #01 @110   ----------------------------------------
 .byte   W96
@  #01 @111   ----------------------------------------
 .byte   W96
@  #01 @112   ----------------------------------------
 .byte   W96
@  #01 @113   ----------------------------------------
 .byte   W96
@  #01 @114   ----------------------------------------
 .byte   W96
@  #01 @115   ----------------------------------------
 .byte   W44
 .byte   W03
 .byte   EOT
 .byte   W01
 .byte   TIE ,Gn1
 .byte   W48
@  #01 @116   ----------------------------------------
 .byte   W92
 .byte   W03
 .byte   EOT
 .byte   W01
@  #01 @117   ----------------------------------------
 .byte   TIE ,Fs1
 .byte   W96
@  #01 @118   ----------------------------------------
 .byte   W44
 .byte   W03
 .byte   EOT
 .byte   W01
 .byte   N68 ,Cn2
 .byte   W48
@  #01 @119   ----------------------------------------
 .byte   W24
 .byte   Bn1
 .byte   W72
@  #01 @120   ----------------------------------------
 .byte   TIE ,As1
 .byte   W96
@  #01 @121   ----------------------------------------
 .byte   W44
 .byte   W03
 .byte   EOT
 .byte   W01
 .byte   N68 ,Bn1
 .byte   W48
@  #01 @122   ----------------------------------------
 .byte   W24
 .byte   En1
 .byte   W72
@  #01 @123   ----------------------------------------
 .byte   An1
 .byte   W72
 .byte   Gn1
 .byte   W24
@  #01 @124   ----------------------------------------
 .byte   W48
 .byte   Fn1
 .byte   W48
@  #01 @125   ----------------------------------------
 .byte   W24
 .byte   As1
 .byte   W72
@  #01 @126   ----------------------------------------
 .byte   TIE ,Bn1
 .byte   W96
@  #01 @127   ----------------------------------------
 .byte   W44
 .byte   W03
 .byte   EOT
 .byte   W01
 .byte   TIE ,En1
 .byte   W48
@  #01 @128   ----------------------------------------
 .byte   W92
 .byte   W03
 .byte   EOT
 .byte   W01
@  #01 @129   ----------------------------------------
 .byte   TIE ,An0
 .byte   N03 ,Dn4 ,v080
 .byte   W04
 .byte   TIE ,En4
 .byte   W92
@  #01 @130   ----------------------------------------
 .byte   W96
@  #01 @131   ----------------------------------------
 .byte   W13
 .byte   EOT
 .byte   W11
 .byte   N03 ,Cn4
 .byte   W04
 .byte   N64 ,Dn4
 .byte   W68
@  #01 @132   ----------------------------------------
 .byte   N03
 .byte   W04
 .byte   TIE ,En4
 .byte   W92
@  #01 @133   ----------------------------------------
 .byte   W96
@  #01 @134   ----------------------------------------
 .byte   W13
 .byte   EOT
 .byte   W11
 .byte   N32 ,Dn4
 .byte   W36
 .byte   N11 ,Gn4
 .byte   W12
 .byte   N05 ,An4
 .byte   W06
 .byte   Gn4
 .byte   W06
 .byte   Fs4
 .byte   W06
 .byte   Gn4
 .byte   W05
 .byte   EOT
 .byte   An0
 .byte   W01
@  #01 @135   ----------------------------------------
 .byte   TIE ,An0 ,v092
 .byte   N80 ,An4 ,v080
 .byte   W96
@  #01 @136   ----------------------------------------
 .byte   TIE
 .byte   W96
@  #01 @137   ----------------------------------------
 .byte   W17
 .byte   EOT
 .byte   W07
 .byte   N03 ,Fs4
 .byte   W04
 .byte   N30 ,Gn4
 .byte   W32
 .byte   N32 ,Dn4
 .byte   W36
@  #01 @138   ----------------------------------------
 .byte   N03 ,Gn4
 .byte   W04
 .byte   N72 ,An4
 .byte   W92
@  #01 @139   ----------------------------------------
 .byte   TIE
 .byte   W96
@  #01 @140   ----------------------------------------
 .byte   W17
 .byte   EOT
 .byte   W07
 .byte   N03 ,Fs4
 .byte   W04
 .byte   N30 ,Gn4
 .byte   W32
 .byte   N44 ,Cn5
 .byte   W32
 .byte   W03
 .byte   EOT
 .byte   An0
 .byte   W01
@  #01 @141   ----------------------------------------
Label_01034D05:
 .byte   TIE ,Fn1 ,v092
 .byte   W24
 .byte   N11 ,En4 ,v080
 .byte   W12
 .byte   N11
 .byte   W12
 .byte   Dn4
 .byte   W12
 .byte   Gn4
 .byte   W12
 .byte   TIE ,En4
 .byte   W24
 .byte   PEND 
@  #01 @142   ----------------------------------------
 .byte   W96
@  #01 @143   ----------------------------------------
 .byte   W84
 .byte   W01
 .byte   EOT
 .byte   W10
 .byte   EOT
 .byte   Fn1
 .byte   W01
@  #01 @144   ----------------------------------------
 .byte   TIE ,En1 ,v092
 .byte   N03 ,Dn4 ,v080
 .byte   W04
 .byte   TIE ,En4
 .byte   W92
@  #01 @145   ----------------------------------------
 .byte   W18
 .byte   EOT
 .byte   W06
 .byte   N11 ,Dn4
 .byte   W12
 .byte   Cn4
 .byte   W12
 .byte   N03
 .byte   W04
 .byte   N64 ,Bn3
 .byte   W44
@  #01 @146   ----------------------------------------
 .byte   W24
 .byte   N68 ,Gn3
 .byte   W68
 .byte   W03
 .byte   EOT
 .byte   En1
 .byte   W01
@  #01 @147   ----------------------------------------
 .byte   PATT
  .word Label_01034D05
@  #01 @148   ----------------------------------------
 .byte   W96
@  #01 @149   ----------------------------------------
 .byte   W84
 .byte   W01
 .byte   EOT
 .byte   En4
 .byte   W10
 .byte   Fn1
 .byte   W01
@  #01 @150   ----------------------------------------
 .byte   TIE ,Gn1 ,v092
 .byte   N03 ,An4 ,v080
 .byte   W04
 .byte   TIE ,Bn4
 .byte   W92
@  #01 @151   ----------------------------------------
 .byte   W06
 .byte   EOT
 .byte   W06
 .byte   N11 ,Cn5
 .byte   W12
 .byte   N03
 .byte   W04
 .byte   N07 ,Bn4
 .byte   W08
 .byte   N11 ,Gn4
 .byte   W12
 .byte   En4
 .byte   W12
 .byte   N56
 .byte   W36
@  #01 @152   ----------------------------------------
 .byte   W24
 .byte   N11 ,Dn4
 .byte   W12
 .byte   N56
 .byte   W56
 .byte   W03
 .byte   EOT
 .byte   Gn1
 .byte   W01
@  #01 @153   ----------------------------------------
 .byte   PATT
  .word Label_01034D05
@  #01 @154   ----------------------------------------
 .byte   W96
@  #01 @155   ----------------------------------------
 .byte   W84
 .byte   W01
 .byte   EOT
 .byte   En4
 .byte   W10
 .byte   Fn1
 .byte   W01
@  #01 @156   ----------------------------------------
 .byte   TIE ,En1 ,v092
 .byte   N03 ,Gn4 ,v080
 .byte   W04
 .byte   N40 ,An4
 .byte   W44
 .byte   N44
 .byte   W48
@  #01 @157   ----------------------------------------
 .byte   N03 ,Gn4
 .byte   W04
 .byte   N18 ,An4
 .byte   W20
 .byte   N03
 .byte   W04
 .byte   N07 ,Gn4
 .byte   W08
 .byte   N11 ,An4
 .byte   W12
 .byte   N68 ,Bn4
 .byte   W48
@  #01 @158   ----------------------------------------
 .byte   W24
 .byte   N11 ,En4
 .byte   W12
 .byte   N22
 .byte   W24
 .byte   N11 ,Dn4
 .byte   W12
 .byte   N22
 .byte   W23
 .byte   EOT
 .byte   En1
 .byte   W01
@  #01 @159   ----------------------------------------
 .byte   PATT
  .word Label_01034D05
@  #01 @160   ----------------------------------------
 .byte   W96
@  #01 @161   ----------------------------------------
 .byte   W84
 .byte   W01
 .byte   EOT
 .byte   En4
 .byte   W10
 .byte   Fn1
 .byte   W01
@  #01 @162   ----------------------------------------
 .byte   TIE ,Bn0 ,v092
 .byte   N03 ,Gn4 ,v080
 .byte   W04
 .byte   N40 ,An4
 .byte   W44
 .byte   N44
 .byte   W48
@  #01 @163   ----------------------------------------
 .byte   N03 ,Gn4
 .byte   W04
 .byte   N07 ,An4
 .byte   W08
 .byte   N03 ,Cn5
 .byte   W04
 .byte   N07 ,An4
 .byte   W08
 .byte   N11 ,Gn4
 .byte   W12
 .byte   An4
 .byte   W11
 .byte   EOT
 .byte   Bn0
 .byte   W01
 .byte   TIE ,As0 ,v092
 .byte   N03 ,As4 ,v080
 .byte   W04
 .byte   N64 ,Cn5
 .byte   W44
@  #01 @164   ----------------------------------------
 .byte   W24
 .byte   N68 ,As4
 .byte   W68
 .byte   W03
 .byte   EOT
 .byte   As0
 .byte   W01
@  #01 @165   ----------------------------------------
 .byte   W96
@  #01 @166   ----------------------------------------
 .byte   W48
 .byte   TIE ,Gn1 ,v092
 .byte   W48
@  #01 @167   ----------------------------------------
 .byte   W92
 .byte   W03
 .byte   EOT
 .byte   W01
@  #01 @168   ----------------------------------------
 .byte   TIE ,Fs1
 .byte   W96
@  #01 @169   ----------------------------------------
 .byte   W44
 .byte   W03
 .byte   EOT
 .byte   W01
 .byte   TIE ,Fn1
 .byte   W48
@  #01 @170   ----------------------------------------
 .byte   W92
 .byte   W03
 .byte   EOT
 .byte   W01
@  #01 @171   ----------------------------------------
 .byte   TIE ,An1
 .byte   W96
@  #01 @172   ----------------------------------------
 .byte   W44
 .byte   W03
 .byte   EOT
 .byte   W01
 .byte   TIE ,Gn1
 .byte   W48
@  #01 @173   ----------------------------------------
 .byte   W92
 .byte   W03
 .byte   EOT
 .byte   W01
@  #01 @174   ----------------------------------------
 .byte   TIE ,Fs1
 .byte   W96
@  #01 @175   ----------------------------------------
 .byte   W44
 .byte   W03
 .byte   EOT
 .byte   W01
 .byte   TIE ,Fn1
 .byte   W48
@  #01 @176   ----------------------------------------
 .byte   W92
 .byte   W03
 .byte   EOT
 .byte   W01
@  #01 @177   ----------------------------------------
 .byte   TIE ,An1
 .byte   W96
@  #01 @178   ----------------------------------------
 .byte   W96
@  #01 @179   ----------------------------------------
 .byte   W68
 .byte   W03
 .byte   EOT
 .byte   W24
 .byte   FINE

@**************** Track 2 (Midi-Chn.1) ****************@

song06_002:
@  #02 @000   ----------------------------------------
 .byte   KEYSH , song06_key+0
 .byte   VOICE , 61
 .byte   VOL , 47*song06_mvl/mxv
 .byte   PAN , c_v+0
 .byte   VOL , 47*song06_mvl/mxv
 .byte   PAN , c_v+0
 .byte   W96
@  #02 @001   ----------------------------------------
 .byte   W96
@  #02 @002   ----------------------------------------
 .byte   W96
@  #02 @003   ----------------------------------------
 .byte   W96
@  #02 @004   ----------------------------------------
 .byte   W96
@  #02 @005   ----------------------------------------
 .byte   W96
@  #02 @006   ----------------------------------------
 .byte   W96
@  #02 @007   ----------------------------------------
 .byte   W96
@  #02 @008   ----------------------------------------
 .byte   W96
@  #02 @009   ----------------------------------------
 .byte   W24
Label_010268A6:
 .byte   W72
@  #02 @010   ----------------------------------------
 .byte   W96
@  #02 @011   ----------------------------------------
 .byte   W96
@  #02 @012   ----------------------------------------
 .byte   W96
@  #02 @013   ----------------------------------------
 .byte   W96
@  #02 @014   ----------------------------------------
 .byte   W96
@  #02 @015   ----------------------------------------
 .byte   W96
@  #02 @016   ----------------------------------------
 .byte   W96
@  #02 @017   ----------------------------------------
 .byte   W96
@  #02 @018   ----------------------------------------
 .byte   W96
@  #02 @019   ----------------------------------------
 .byte   W96
@  #02 @020   ----------------------------------------
 .byte   W96
@  #02 @021   ----------------------------------------
Label_010268B2:
 .byte   N68 ,En2 ,v080
 .byte   N68 ,An2
 .byte   W72
 .byte   Fs2
 .byte   N68 ,Bn2
 .byte   W24
 .byte   PEND 
@  #02 @022   ----------------------------------------
Label_010268BD:
 .byte   W48
 .byte   N68 ,Gn2 ,v080
 .byte   N68 ,Cn3
 .byte   W48
 .byte   PEND 
@  #02 @023   ----------------------------------------
Label_010268C5:
 .byte   W24
 .byte   N68 ,Fs2 ,v080
 .byte   N68 ,Bn2
 .byte   W72
 .byte   PEND 
@  #02 @024   ----------------------------------------
 .byte   PATT
  .word Label_010268B2
@  #02 @025   ----------------------------------------
 .byte   PATT
  .word Label_010268BD
@  #02 @026   ----------------------------------------
 .byte   PATT
  .word Label_010268C5
@  #02 @027   ----------------------------------------
 .byte   TIE ,As2 ,v080
 .byte   N68 ,Dn3
 .byte   W72
 .byte   TIE ,Cs3
 .byte   W24
@  #02 @028   ----------------------------------------
 .byte   W44
 .byte   W03
 .byte   EOT
 .byte   As2
 .byte   W01
 .byte   N68 ,An2
 .byte   W48
@  #02 @029   ----------------------------------------
 .byte   W23
 .byte   EOT
 .byte   Cs3
 .byte   W01
 .byte   N68 ,An2
 .byte   N68 ,Dn3
 .byte   W72
@  #02 @030   ----------------------------------------
 .byte   As2
 .byte   TIE ,Ds3
 .byte   W72
 .byte   An2
 .byte   W24
@  #02 @031   ----------------------------------------
 .byte   W44
 .byte   W03
 .byte   EOT
 .byte   Ds3
 .byte   W01
 .byte   TIE ,Dn3
 .byte   W48
@  #02 @032   ----------------------------------------
 .byte   W23
 .byte   EOT
 .byte   An2
 .byte   W01
 .byte   N68 ,Gn2
 .byte   W68
 .byte   W03
 .byte   EOT
 .byte   Dn3
 .byte   W01
@  #02 @033   ----------------------------------------
 .byte   TIE ,Bn2
 .byte   N68 ,Dn3
 .byte   W72
 .byte   N32
 .byte   W24
@  #02 @034   ----------------------------------------
 .byte   W12
 .byte   Cs3
 .byte   W32
 .byte   W03
 .byte   EOT
 .byte   Bn2
 .byte   W01
 .byte   N68
 .byte   TIE ,Cn3
 .byte   W48
@  #02 @035   ----------------------------------------
 .byte   W24
 .byte   N68 ,An2
 .byte   W68
 .byte   W03
 .byte   EOT
 .byte   Cn3
 .byte   W01
@  #02 @036   ----------------------------------------
 .byte   TIE ,An2
 .byte   N68 ,Cn3
 .byte   W72
 .byte   Dn3
 .byte   W24
@  #02 @037   ----------------------------------------
 .byte   W44
 .byte   W03
 .byte   EOT
 .byte   An2
 .byte   W01
 .byte   TIE ,Bn2
 .byte   TIE ,En3
 .byte   W48
@  #02 @038   ----------------------------------------
 .byte   W92
 .byte   W03
 .byte   EOT
 .byte   Bn2 ,v064
 .byte   W01
@  #02 @039   ----------------------------------------
 .byte   TIE ,Bn2
 .byte   N32 ,Dn3
 .byte   W36
 .byte   Cs3
 .byte   W36
 .byte   N68 ,Cn3
 .byte   W24
@  #02 @040   ----------------------------------------
 .byte   W44
 .byte   W03
 .byte   EOT
 .byte   Bn2
 .byte   W01
 .byte   N68 ,En2
 .byte   N68 ,An2
 .byte   W48
@  #02 @041   ----------------------------------------
 .byte   PATT
  .word Label_010268C5
@  #02 @042   ----------------------------------------
Label_01026959:
 .byte   N68 ,Gn2 ,v080
 .byte   N68 ,Cn3
 .byte   W72
 .byte   Fs2
 .byte   N68 ,Bn2
 .byte   W24
 .byte   PEND 
@  #02 @043   ----------------------------------------
Label_01026964:
 .byte   W48
 .byte   N68 ,En2 ,v080
 .byte   N68 ,An2
 .byte   W48
 .byte   PEND 
@  #02 @044   ----------------------------------------
 .byte   PATT
  .word Label_010268C5
@  #02 @045   ----------------------------------------
 .byte   PATT
  .word Label_01026959
@  #02 @046   ----------------------------------------
 .byte   PATT
  .word Label_01026964
@  #02 @047   ----------------------------------------
 .byte   PATT
  .word Label_010268C5
@  #02 @048   ----------------------------------------
 .byte   PATT
  .word Label_01026959
@  #02 @049   ----------------------------------------
 .byte   PATT
  .word Label_01026964
@  #02 @050   ----------------------------------------
 .byte   PATT
  .word Label_010268C5
@  #02 @051   ----------------------------------------
 .byte   PATT
  .word Label_01026959
@  #02 @052   ----------------------------------------
 .byte   W96
@  #02 @053   ----------------------------------------
 .byte   W96
@  #02 @054   ----------------------------------------
 .byte   W96
@  #02 @055   ----------------------------------------
 .byte   W96
@  #02 @056   ----------------------------------------
 .byte   W96
@  #02 @057   ----------------------------------------
 .byte   W96
@  #02 @058   ----------------------------------------
 .byte   W96
@  #02 @059   ----------------------------------------
 .byte   W96
@  #02 @060   ----------------------------------------
 .byte   W96
@  #02 @061   ----------------------------------------
 .byte   W96
@  #02 @062   ----------------------------------------
 .byte   W96
@  #02 @063   ----------------------------------------
 .byte   W96
@  #02 @064   ----------------------------------------
 .byte   W96
@  #02 @065   ----------------------------------------
 .byte   W96
@  #02 @066   ----------------------------------------
 .byte   W96
@  #02 @067   ----------------------------------------
 .byte   W96
@  #02 @068   ----------------------------------------
 .byte   W96
@  #02 @069   ----------------------------------------
 .byte   W96
@  #02 @070   ----------------------------------------
 .byte   W96
@  #02 @071   ----------------------------------------
 .byte   W96
@  #02 @072   ----------------------------------------
 .byte   W96
@  #02 @073   ----------------------------------------
 .byte   W96
@  #02 @074   ----------------------------------------
 .byte   W96
@  #02 @075   ----------------------------------------
 .byte   W96
@  #02 @076   ----------------------------------------
 .byte   W96
@  #02 @077   ----------------------------------------
 .byte   W96
@  #02 @078   ----------------------------------------
 .byte   W96
@  #02 @079   ----------------------------------------
 .byte   W96
@  #02 @080   ----------------------------------------
 .byte   W96
@  #02 @081   ----------------------------------------
 .byte   W96
@  #02 @082   ----------------------------------------
 .byte   W96
@  #02 @083   ----------------------------------------
 .byte   W96
@  #02 @084   ----------------------------------------
 .byte   W96
@  #02 @085   ----------------------------------------
 .byte   W96
@  #02 @086   ----------------------------------------
 .byte   W96
@  #02 @087   ----------------------------------------
 .byte   W96
@  #02 @088   ----------------------------------------
 .byte   W96
@  #02 @089   ----------------------------------------
 .byte   W96
@  #02 @090   ----------------------------------------
 .byte   W96
@  #02 @091   ----------------------------------------
 .byte   W96
@  #02 @092   ----------------------------------------
 .byte   W96
@  #02 @093   ----------------------------------------
 .byte   W96
@  #02 @094   ----------------------------------------
 .byte   W96
@  #02 @095   ----------------------------------------
 .byte   W96
@  #02 @096   ----------------------------------------
 .byte   W96
@  #02 @097   ----------------------------------------
 .byte   W72
 .byte   GOTO
  .word Label_010268A6
@  #02 @098   ----------------------------------------
 .byte   W24
 .byte   W96
@  #02 @099   ----------------------------------------
 .byte   W96
@  #02 @100   ----------------------------------------
 .byte   W96
@  #02 @101   ----------------------------------------
 .byte   W96
@  #02 @102   ----------------------------------------
 .byte   W96
@  #02 @103   ----------------------------------------
 .byte   W96
@  #02 @104   ----------------------------------------
 .byte   W96
@  #02 @105   ----------------------------------------
 .byte   W96
@  #02 @106   ----------------------------------------
 .byte   W96
@  #02 @107   ----------------------------------------
 .byte   W96
@  #02 @108   ----------------------------------------
 .byte   W96
@  #02 @109   ----------------------------------------
 .byte   PATT
  .word Label_01026964
@  #02 @110   ----------------------------------------
 .byte   PATT
  .word Label_010268C5
@  #02 @111   ----------------------------------------
 .byte   PATT
  .word Label_01026959
@  #02 @112   ----------------------------------------
 .byte   PATT
  .word Label_01026964
@  #02 @113   ----------------------------------------
 .byte   PATT
  .word Label_010268C5
@  #02 @114   ----------------------------------------
 .byte   PATT
  .word Label_01026959
@  #02 @115   ----------------------------------------
 .byte   W48
 .byte   TIE ,As2 ,v080
 .byte   N68 ,Dn3
 .byte   W48
@  #02 @116   ----------------------------------------
 .byte   W24
 .byte   TIE ,Cs3
 .byte   W68
 .byte   W03
 .byte   EOT
 .byte   As2
 .byte   W01
@  #02 @117   ----------------------------------------
 .byte   N68 ,An2
 .byte   W68
 .byte   W03
 .byte   EOT
 .byte   Cs3
 .byte   W01
 .byte   N68 ,An2
 .byte   N68 ,Dn3
 .byte   W24
@  #02 @118   ----------------------------------------
 .byte   W48
 .byte   As2
 .byte   TIE ,Ds3
 .byte   W48
@  #02 @119   ----------------------------------------
 .byte   W24
 .byte   An2
 .byte   W68
 .byte   W03
 .byte   EOT
 .byte   Ds3
 .byte   W01
@  #02 @120   ----------------------------------------
 .byte   TIE ,Dn3
 .byte   W68
 .byte   W03
 .byte   EOT
 .byte   An2
 .byte   W01
 .byte   N68 ,Gn2
 .byte   W24
@  #02 @121   ----------------------------------------
 .byte   W44
 .byte   W03
 .byte   EOT
 .byte   Dn3
 .byte   W01
 .byte   TIE ,Bn2
 .byte   N68 ,Dn3
 .byte   W48
@  #02 @122   ----------------------------------------
 .byte   W24
 .byte   N32
 .byte   W36
 .byte   Cs3
 .byte   W32
 .byte   W03
 .byte   EOT
 .byte   Bn2
 .byte   W01
@  #02 @123   ----------------------------------------
 .byte   N68
 .byte   TIE ,Cn3
 .byte   W72
 .byte   N68 ,An2
 .byte   W24
@  #02 @124   ----------------------------------------
 .byte   W44
 .byte   W03
 .byte   EOT
 .byte   Cn3
 .byte   W01
 .byte   TIE ,An2
 .byte   N68 ,Cn3
 .byte   W48
@  #02 @125   ----------------------------------------
 .byte   W24
 .byte   Dn3
 .byte   W68
 .byte   W03
 .byte   EOT
 .byte   An2
 .byte   W01
@  #02 @126   ----------------------------------------
 .byte   TIE ,Bn2
 .byte   TIE ,En3
 .byte   W96
@  #02 @127   ----------------------------------------
 .byte   W44
 .byte   W03
 .byte   EOT
 .byte   Bn2 ,v064
 .byte   W01
 .byte   TIE ,Bn2
 .byte   N32 ,Dn3
 .byte   W36
 .byte   Cs3
 .byte   W12
@  #02 @128   ----------------------------------------
 .byte   W24
 .byte   N68 ,Cn3
 .byte   W68
 .byte   W03
 .byte   EOT
 .byte   Bn2
 .byte   W01
@  #02 @129   ----------------------------------------
 .byte   PATT
  .word Label_010268B2
@  #02 @130   ----------------------------------------
 .byte   PATT
  .word Label_010268BD
@  #02 @131   ----------------------------------------
 .byte   PATT
  .word Label_010268C5
@  #02 @132   ----------------------------------------
 .byte   PATT
  .word Label_010268B2
@  #02 @133   ----------------------------------------
 .byte   PATT
  .word Label_010268BD
@  #02 @134   ----------------------------------------
 .byte   PATT
  .word Label_010268C5
@  #02 @135   ----------------------------------------
 .byte   PATT
  .word Label_010268B2
@  #02 @136   ----------------------------------------
 .byte   PATT
  .word Label_010268BD
@  #02 @137   ----------------------------------------
 .byte   PATT
  .word Label_010268C5
@  #02 @138   ----------------------------------------
 .byte   PATT
  .word Label_010268B2
@  #02 @139   ----------------------------------------
 .byte   PATT
  .word Label_010268BD
@  #02 @140   ----------------------------------------
 .byte   PATT
  .word Label_010268C5
@  #02 @141   ----------------------------------------
 .byte   W96
@  #02 @142   ----------------------------------------
 .byte   W96
@  #02 @143   ----------------------------------------
 .byte   W96
@  #02 @144   ----------------------------------------
 .byte   W96
@  #02 @145   ----------------------------------------
 .byte   W96
@  #02 @146   ----------------------------------------
 .byte   W96
@  #02 @147   ----------------------------------------
 .byte   W96
@  #02 @148   ----------------------------------------
 .byte   W96
@  #02 @149   ----------------------------------------
 .byte   W96
@  #02 @150   ----------------------------------------
 .byte   W96
@  #02 @151   ----------------------------------------
 .byte   W96
@  #02 @152   ----------------------------------------
 .byte   W96
@  #02 @153   ----------------------------------------
 .byte   W96
@  #02 @154   ----------------------------------------
 .byte   W96
@  #02 @155   ----------------------------------------
 .byte   W96
@  #02 @156   ----------------------------------------
 .byte   W96
@  #02 @157   ----------------------------------------
 .byte   W96
@  #02 @158   ----------------------------------------
 .byte   W96
@  #02 @159   ----------------------------------------
 .byte   W96
@  #02 @160   ----------------------------------------
 .byte   W96
@  #02 @161   ----------------------------------------
 .byte   W96
@  #02 @162   ----------------------------------------
 .byte   W96
@  #02 @163   ----------------------------------------
 .byte   W96
@  #02 @164   ----------------------------------------
 .byte   W96
@  #02 @165   ----------------------------------------
 .byte   W96
@  #02 @166   ----------------------------------------
 .byte   W96
@  #02 @167   ----------------------------------------
 .byte   W96
@  #02 @168   ----------------------------------------
 .byte   W96
@  #02 @169   ----------------------------------------
 .byte   W96
@  #02 @170   ----------------------------------------
 .byte   W96
@  #02 @171   ----------------------------------------
 .byte   W96
@  #02 @172   ----------------------------------------
 .byte   W96
@  #02 @173   ----------------------------------------
 .byte   W96
@  #02 @174   ----------------------------------------
 .byte   W96
@  #02 @175   ----------------------------------------
 .byte   W96
@  #02 @176   ----------------------------------------
 .byte   W96
@  #02 @177   ----------------------------------------
 .byte   W96
@  #02 @178   ----------------------------------------
 .byte   W96
@  #02 @179   ----------------------------------------
 .byte   W92
 .byte   W03
 .byte   FINE

@**************** Track 3 (Midi-Chn.2) ****************@

song06_003:
@  #03 @000   ----------------------------------------
 .byte   KEYSH , song06_key+0
 .byte   VOICE , 49
 .byte   VOL , 47*song06_mvl/mxv
 .byte   PAN , c_v+5
 .byte   VOL , 47*song06_mvl/mxv
 .byte   PAN , c_v+5
 .byte   W96
@  #03 @001   ----------------------------------------
 .byte   W96
@  #03 @002   ----------------------------------------
 .byte   W96
@  #03 @003   ----------------------------------------
 .byte   TIE ,An1 ,v068
 .byte   TIE ,En2
 .byte   W96
@  #03 @004   ----------------------------------------
 .byte   W96
@  #03 @005   ----------------------------------------
 .byte   W96
@  #03 @006   ----------------------------------------
 .byte   W96
@  #03 @007   ----------------------------------------
 .byte   W96
@  #03 @008   ----------------------------------------
 .byte   W96
@  #03 @009   ----------------------------------------
 .byte   W24
Label_0102454F:
 .byte   W72
@  #03 @010   ----------------------------------------
 .byte   W96
@  #03 @011   ----------------------------------------
 .byte   W96
@  #03 @012   ----------------------------------------
 .byte   W96
@  #03 @013   ----------------------------------------
 .byte   W96
@  #03 @014   ----------------------------------------
 .byte   W96
@  #03 @015   ----------------------------------------
 .byte   W96
@  #03 @016   ----------------------------------------
 .byte   W96
@  #03 @017   ----------------------------------------
 .byte   W96
@  #03 @018   ----------------------------------------
 .byte   W96
@  #03 @019   ----------------------------------------
 .byte   W96
@  #03 @020   ----------------------------------------
 .byte   W92
 .byte   W03
 .byte   EOT
 .byte   An1 ,v052
 .byte   W01
@  #03 @021   ----------------------------------------
 .byte   W96
@  #03 @022   ----------------------------------------
 .byte   W96
@  #03 @023   ----------------------------------------
 .byte   W96
@  #03 @024   ----------------------------------------
 .byte   W96
@  #03 @025   ----------------------------------------
 .byte   W96
@  #03 @026   ----------------------------------------
 .byte   W96
@  #03 @027   ----------------------------------------
 .byte   W96
@  #03 @028   ----------------------------------------
 .byte   W96
@  #03 @029   ----------------------------------------
 .byte   W96
@  #03 @030   ----------------------------------------
 .byte   W96
@  #03 @031   ----------------------------------------
 .byte   W96
@  #03 @032   ----------------------------------------
 .byte   W96
@  #03 @033   ----------------------------------------
 .byte   W96
@  #03 @034   ----------------------------------------
 .byte   W96
@  #03 @035   ----------------------------------------
 .byte   W96
@  #03 @036   ----------------------------------------
 .byte   W96
@  #03 @037   ----------------------------------------
 .byte   W96
@  #03 @038   ----------------------------------------
 .byte   W96
@  #03 @039   ----------------------------------------
 .byte   W96
@  #03 @040   ----------------------------------------
 .byte   W96
@  #03 @041   ----------------------------------------
 .byte   W96
@  #03 @042   ----------------------------------------
 .byte   W96
@  #03 @043   ----------------------------------------
 .byte   W96
@  #03 @044   ----------------------------------------
 .byte   W96
@  #03 @045   ----------------------------------------
 .byte   W96
@  #03 @046   ----------------------------------------
 .byte   W96
@  #03 @047   ----------------------------------------
 .byte   W96
@  #03 @048   ----------------------------------------
 .byte   W96
@  #03 @049   ----------------------------------------
 .byte   W96
@  #03 @050   ----------------------------------------
 .byte   W96
@  #03 @051   ----------------------------------------
 .byte   W96
@  #03 @052   ----------------------------------------
 .byte   W96
@  #03 @053   ----------------------------------------
 .byte   W96
@  #03 @054   ----------------------------------------
 .byte   W96
@  #03 @055   ----------------------------------------
 .byte   W96
@  #03 @056   ----------------------------------------
 .byte   W96
@  #03 @057   ----------------------------------------
 .byte   W96
@  #03 @058   ----------------------------------------
 .byte   W96
@  #03 @059   ----------------------------------------
 .byte   W96
@  #03 @060   ----------------------------------------
 .byte   W96
@  #03 @061   ----------------------------------------
 .byte   W96
@  #03 @062   ----------------------------------------
 .byte   W96
@  #03 @063   ----------------------------------------
 .byte   W96
@  #03 @064   ----------------------------------------
 .byte   W96
@  #03 @065   ----------------------------------------
 .byte   W96
@  #03 @066   ----------------------------------------
 .byte   W96
@  #03 @067   ----------------------------------------
 .byte   W96
@  #03 @068   ----------------------------------------
 .byte   W96
@  #03 @069   ----------------------------------------
 .byte   W96
@  #03 @070   ----------------------------------------
 .byte   W96
@  #03 @071   ----------------------------------------
 .byte   W96
@  #03 @072   ----------------------------------------
 .byte   W96
@  #03 @073   ----------------------------------------
 .byte   W96
@  #03 @074   ----------------------------------------
 .byte   W96
@  #03 @075   ----------------------------------------
 .byte   W96
@  #03 @076   ----------------------------------------
 .byte   W96
@  #03 @077   ----------------------------------------
 .byte   W96
@  #03 @078   ----------------------------------------
 .byte   W96
@  #03 @079   ----------------------------------------
 .byte   W96
@  #03 @080   ----------------------------------------
 .byte   W96
@  #03 @081   ----------------------------------------
 .byte   W96
@  #03 @082   ----------------------------------------
 .byte   W96
@  #03 @083   ----------------------------------------
 .byte   W96
@  #03 @084   ----------------------------------------
 .byte   W96
@  #03 @085   ----------------------------------------
 .byte   W96
@  #03 @086   ----------------------------------------
 .byte   W96
@  #03 @087   ----------------------------------------
 .byte   W96
@  #03 @088   ----------------------------------------
 .byte   W96
@  #03 @089   ----------------------------------------
 .byte   W96
@  #03 @090   ----------------------------------------
 .byte   W96
@  #03 @091   ----------------------------------------
 .byte   W48
 .byte   TIE ,An1 ,v068
 .byte   TIE ,En2
 .byte   W48
@  #03 @092   ----------------------------------------
 .byte   W96
@  #03 @093   ----------------------------------------
 .byte   W96
@  #03 @094   ----------------------------------------
 .byte   W96
@  #03 @095   ----------------------------------------
 .byte   W96
@  #03 @096   ----------------------------------------
 .byte   W96
@  #03 @097   ----------------------------------------
 .byte   W72
 .byte   GOTO
  .word Label_0102454F
@  #03 @098   ----------------------------------------
 .byte   W24
 .byte   W96
@  #03 @099   ----------------------------------------
 .byte   W96
@  #03 @100   ----------------------------------------
 .byte   W96
@  #03 @101   ----------------------------------------
 .byte   W96
@  #03 @102   ----------------------------------------
 .byte   W96
@  #03 @103   ----------------------------------------
 .byte   W96
@  #03 @104   ----------------------------------------
 .byte   W96
@  #03 @105   ----------------------------------------
 .byte   W96
@  #03 @106   ----------------------------------------
 .byte   W96
@  #03 @107   ----------------------------------------
 .byte   W96
@  #03 @108   ----------------------------------------
 .byte   W96
@  #03 @109   ----------------------------------------
 .byte   W44
 .byte   W03
 .byte   EOT
 .byte   An1 ,v052
 .byte   W48
 .byte   W01
@  #03 @110   ----------------------------------------
 .byte   W96
@  #03 @111   ----------------------------------------
 .byte   W96
@  #03 @112   ----------------------------------------
 .byte   W96
@  #03 @113   ----------------------------------------
 .byte   W96
@  #03 @114   ----------------------------------------
 .byte   W96
@  #03 @115   ----------------------------------------
 .byte   W96
@  #03 @116   ----------------------------------------
 .byte   W96
@  #03 @117   ----------------------------------------
 .byte   W96
@  #03 @118   ----------------------------------------
 .byte   W96
@  #03 @119   ----------------------------------------
 .byte   W96
@  #03 @120   ----------------------------------------
 .byte   W96
@  #03 @121   ----------------------------------------
 .byte   W96
@  #03 @122   ----------------------------------------
 .byte   W96
@  #03 @123   ----------------------------------------
 .byte   W96
@  #03 @124   ----------------------------------------
 .byte   W96
@  #03 @125   ----------------------------------------
 .byte   W96
@  #03 @126   ----------------------------------------
 .byte   W96
@  #03 @127   ----------------------------------------
 .byte   W96
@  #03 @128   ----------------------------------------
 .byte   W96
@  #03 @129   ----------------------------------------
 .byte   W96
@  #03 @130   ----------------------------------------
 .byte   W96
@  #03 @131   ----------------------------------------
 .byte   W96
@  #03 @132   ----------------------------------------
 .byte   W96
@  #03 @133   ----------------------------------------
 .byte   W96
@  #03 @134   ----------------------------------------
 .byte   W96
@  #03 @135   ----------------------------------------
 .byte   W96
@  #03 @136   ----------------------------------------
 .byte   W96
@  #03 @137   ----------------------------------------
 .byte   W96
@  #03 @138   ----------------------------------------
 .byte   W96
@  #03 @139   ----------------------------------------
 .byte   W96
@  #03 @140   ----------------------------------------
 .byte   W96
@  #03 @141   ----------------------------------------
 .byte   W96
@  #03 @142   ----------------------------------------
 .byte   W96
@  #03 @143   ----------------------------------------
 .byte   W96
@  #03 @144   ----------------------------------------
 .byte   W96
@  #03 @145   ----------------------------------------
 .byte   W96
@  #03 @146   ----------------------------------------
 .byte   W96
@  #03 @147   ----------------------------------------
 .byte   W96
@  #03 @148   ----------------------------------------
 .byte   W96
@  #03 @149   ----------------------------------------
 .byte   W96
@  #03 @150   ----------------------------------------
 .byte   W96
@  #03 @151   ----------------------------------------
 .byte   W96
@  #03 @152   ----------------------------------------
 .byte   W96
@  #03 @153   ----------------------------------------
 .byte   W96
@  #03 @154   ----------------------------------------
 .byte   W96
@  #03 @155   ----------------------------------------
 .byte   W96
@  #03 @156   ----------------------------------------
 .byte   W96
@  #03 @157   ----------------------------------------
 .byte   W96
@  #03 @158   ----------------------------------------
 .byte   W96
@  #03 @159   ----------------------------------------
 .byte   W96
@  #03 @160   ----------------------------------------
 .byte   W96
@  #03 @161   ----------------------------------------
 .byte   W96
@  #03 @162   ----------------------------------------
 .byte   W96
@  #03 @163   ----------------------------------------
 .byte   W96
@  #03 @164   ----------------------------------------
 .byte   W96
@  #03 @165   ----------------------------------------
 .byte   W96
@  #03 @166   ----------------------------------------
 .byte   W96
@  #03 @167   ----------------------------------------
 .byte   W96
@  #03 @168   ----------------------------------------
 .byte   W96
@  #03 @169   ----------------------------------------
 .byte   W96
@  #03 @170   ----------------------------------------
 .byte   W96
@  #03 @171   ----------------------------------------
 .byte   W96
@  #03 @172   ----------------------------------------
 .byte   W96
@  #03 @173   ----------------------------------------
 .byte   W96
@  #03 @174   ----------------------------------------
 .byte   W96
@  #03 @175   ----------------------------------------
 .byte   W96
@  #03 @176   ----------------------------------------
 .byte   W96
@  #03 @177   ----------------------------------------
 .byte   W96
@  #03 @178   ----------------------------------------
 .byte   W96
@  #03 @179   ----------------------------------------
 .byte   W92
 .byte   W03
 .byte   FINE

@**************** Track 4 (Midi-Chn.3) ****************@

song06_004:
@  #04 @000   ----------------------------------------
 .byte   KEYSH , song06_key+0
 .byte   VOICE , 28
 .byte   VOL , 24*song06_mvl/mxv
 .byte   PAN , c_v+0
 .byte   VOL , 58*song06_mvl/mxv
 .byte   PAN , c_v+0
 .byte   N11 ,An4 ,v080
 .byte   W12
 .byte   En4
 .byte   W12
 .byte   Gn4
 .byte   W12
 .byte   Dn4
 .byte   W12
 .byte   An4
 .byte   W12
 .byte   En4
 .byte   W12
 .byte   Gn4
 .byte   W12
 .byte   Dn4
 .byte   W12
@  #04 @001   ----------------------------------------
Label_01034E56:
 .byte   N11 ,An4 ,v080
 .byte   W12
 .byte   En4
 .byte   W12
 .byte   Gn4
 .byte   W12
 .byte   Dn4
 .byte   W12
 .byte   An4
 .byte   W12
 .byte   En4
 .byte   W12
 .byte   Gn4
 .byte   W12
 .byte   Dn4
 .byte   W12
 .byte   PEND 
@  #04 @002   ----------------------------------------
 .byte   PATT
  .word Label_01034E56
@  #04 @003   ----------------------------------------
 .byte   PATT
  .word Label_01034E56
@  #04 @004   ----------------------------------------
 .byte   PATT
  .word Label_01034E56
@  #04 @005   ----------------------------------------
 .byte   PATT
  .word Label_01034E56
@  #04 @006   ----------------------------------------
 .byte   PATT
  .word Label_01034E56
@  #04 @007   ----------------------------------------
 .byte   PATT
  .word Label_01034E56
@  #04 @008   ----------------------------------------
 .byte   PATT
  .word Label_01034E56
@  #04 @009   ----------------------------------------
 .byte   W24
Label_01034E8D:
 .byte   W72
@  #04 @010   ----------------------------------------
 .byte   W96
@  #04 @011   ----------------------------------------
 .byte   W96
@  #04 @012   ----------------------------------------
 .byte   W96
@  #04 @013   ----------------------------------------
 .byte   W96
@  #04 @014   ----------------------------------------
 .byte   W96
@  #04 @015   ----------------------------------------
 .byte   N03 ,Gn3 ,v080
 .byte   N11 ,An4
 .byte   W04
 .byte   N66 ,An3
 .byte   W08
 .byte   N11 ,En4
 .byte   W12
 .byte   Gn4
 .byte   W12
 .byte   Dn4
 .byte   W12
 .byte   An4
 .byte   W12
 .byte   En4
 .byte   W12
 .byte   N03 ,Bn3
 .byte   N11 ,Gn4
 .byte   W04
 .byte   N66 ,Cn4
 .byte   W08
 .byte   N11 ,Dn4
 .byte   W12
@  #04 @016   ----------------------------------------
Label_01034EB2:
 .byte   N11 ,An4 ,v080
 .byte   W12
 .byte   En4
 .byte   W12
 .byte   Gn4
 .byte   W12
 .byte   Dn4
 .byte   W12
 .byte   N03 ,Gn3
 .byte   N11 ,An4
 .byte   W04
 .byte   N66 ,An3
 .byte   W08
 .byte   N11 ,En4
 .byte   W12
 .byte   Gn4
 .byte   W12
 .byte   Dn4
 .byte   W12
 .byte   PEND 
@  #04 @017   ----------------------------------------
 .byte   An4
 .byte   W12
 .byte   En4
 .byte   W12
 .byte   N03 ,Cn4
 .byte   N11 ,Gn4
 .byte   W06
 .byte   N54 ,Dn4 ,v064
 .byte   W18
 .byte   N11 ,An4 ,v080
 .byte   W12
 .byte   En4
 .byte   W12
 .byte   Gn4
 .byte   W12
 .byte   Dn4
 .byte   W12
@  #04 @018   ----------------------------------------
 .byte   N03 ,Gn3
 .byte   N11 ,An4
 .byte   W04
 .byte   N66 ,An3
 .byte   W08
 .byte   N11 ,En4
 .byte   W12
 .byte   Gn4
 .byte   W12
 .byte   Dn4
 .byte   W12
 .byte   An4
 .byte   W12
 .byte   En4
 .byte   W12
 .byte   N03 ,Dn4
 .byte   N11 ,Gn4
 .byte   W06
 .byte   N66 ,En4
 .byte   W06
 .byte   N11 ,Dn4
 .byte   W12
@  #04 @019   ----------------------------------------
 .byte   An4
 .byte   W24
 .byte   Gn4
 .byte   W12
 .byte   Dn4
 .byte   W12
 .byte   N03 ,Gn3
 .byte   N11 ,An4
 .byte   W04
 .byte   N66 ,An3
 .byte   W08
 .byte   N11 ,En4
 .byte   W12
 .byte   Gn4
 .byte   W12
 .byte   Dn4
 .byte   W12
@  #04 @020   ----------------------------------------
 .byte   An4
 .byte   W12
 .byte   En4
 .byte   W12
 .byte   N03 ,Fn4
 .byte   N11 ,Gn4
 .byte   W04
 .byte   N66 ,Fs4
 .byte   W08
 .byte   N11 ,Dn4
 .byte   W12
 .byte   An4
 .byte   W12
 .byte   En4
 .byte   W12
 .byte   Gn4
 .byte   W12
 .byte   Dn4
 .byte   W12
@  #04 @021   ----------------------------------------
 .byte   W96
@  #04 @022   ----------------------------------------
 .byte   W96
@  #04 @023   ----------------------------------------
 .byte   W96
@  #04 @024   ----------------------------------------
 .byte   W96
@  #04 @025   ----------------------------------------
 .byte   W96
@  #04 @026   ----------------------------------------
 .byte   W96
@  #04 @027   ----------------------------------------
 .byte   N03 ,Gs4 ,v092
 .byte   W04
 .byte   N42 ,An4
 .byte   W44
 .byte   N11 ,Gn4
 .byte   W12
 .byte   Cn5
 .byte   W12
 .byte   N23 ,An4
 .byte   W24
@  #04 @028   ----------------------------------------
 .byte   Gn4
 .byte   W24
 .byte   Fn4
 .byte   W24
 .byte   N03 ,Ds4
 .byte   W04
 .byte   N42 ,En4
 .byte   W44
@  #04 @029   ----------------------------------------
 .byte   N11 ,Dn4
 .byte   W12
 .byte   An3
 .byte   W12
 .byte   N44 ,En4
 .byte   W48
 .byte   N11 ,Fn4
 .byte   W12
 .byte   Gn4
 .byte   W12
@  #04 @030   ----------------------------------------
 .byte   N44 ,An4
 .byte   W48
 .byte   N11 ,Gn4
 .byte   W12
 .byte   Cn5
 .byte   W12
 .byte   N23 ,An4
 .byte   W24
@  #04 @031   ----------------------------------------
 .byte   Bn4
 .byte   W24
 .byte   Ds5
 .byte   W24
 .byte   N44 ,Gn5
 .byte   W48
@  #04 @032   ----------------------------------------
 .byte   N11 ,Fn5
 .byte   W12
 .byte   Cn5
 .byte   W12
 .byte   N68 ,Dn5
 .byte   W72
@  #04 @033   ----------------------------------------
 .byte   N03 ,Cs4
 .byte   W04
 .byte   N42 ,Dn4
 .byte   W44
 .byte   N11 ,Cs4
 .byte   W12
 .byte   Dn4
 .byte   W12
 .byte   N23 ,Fn4
 .byte   W24
@  #04 @034   ----------------------------------------
 .byte   En4
 .byte   W24
 .byte   Bn3
 .byte   W24
 .byte   N03
 .byte   W04
 .byte   N42 ,Cn4
 .byte   W44
@  #04 @035   ----------------------------------------
 .byte   N11 ,Bn3
 .byte   W12
 .byte   An3
 .byte   W12
 .byte   N32 ,Cn4
 .byte   W36
 .byte   N11 ,En4
 .byte   W12
 .byte   An4
 .byte   W12
 .byte   Bn4
 .byte   W12
@  #04 @036   ----------------------------------------
 .byte   N44 ,Cn5
 .byte   W48
 .byte   N11 ,An4
 .byte   W12
 .byte   Cn5
 .byte   W12
 .byte   N23 ,Dn5
 .byte   W24
@  #04 @037   ----------------------------------------
 .byte   Cn5
 .byte   W24
 .byte   Fn5
 .byte   W24
 .byte   N68 ,En3 ,v080
 .byte   N03 ,Ds5 ,v092
 .byte   W04
 .byte   TIE ,En5
 .byte   W44
@  #04 @038   ----------------------------------------
 .byte   W24
 .byte   N68 ,An3 ,v080
 .byte   W72
@  #04 @039   ----------------------------------------
 .byte   As3
 .byte   W72
 .byte   Bn3
 .byte   W24
@  #04 @040   ----------------------------------------
 .byte   W23
 .byte   EOT
 .byte   En5
 .byte   W72
 .byte   W01
@  #04 @041   ----------------------------------------
 .byte   W96
@  #04 @042   ----------------------------------------
 .byte   W96
@  #04 @043   ----------------------------------------
 .byte   W96
@  #04 @044   ----------------------------------------
 .byte   W96
@  #04 @045   ----------------------------------------
 .byte   W96
@  #04 @046   ----------------------------------------
 .byte   W96
@  #04 @047   ----------------------------------------
 .byte   W96
@  #04 @048   ----------------------------------------
 .byte   W96
@  #04 @049   ----------------------------------------
 .byte   W96
@  #04 @050   ----------------------------------------
 .byte   W96
@  #04 @051   ----------------------------------------
 .byte   W96
@  #04 @052   ----------------------------------------
Label_01034FCB:
 .byte   W72
 .byte   N11 ,En3 ,v080
 .byte   W12
 .byte   N11
 .byte   W12
 .byte   PEND 
@  #04 @053   ----------------------------------------
Label_01034FD3:
 .byte   N11 ,Dn3 ,v080
 .byte   W12
 .byte   Gn3
 .byte   W12
 .byte   En3
 .byte   W72
 .byte   PEND 
@  #04 @054   ----------------------------------------
Label_01034FDC:
 .byte   W24
 .byte   N11 ,En4 ,v080
 .byte   W12
 .byte   N11
 .byte   W12
 .byte   Dn4
 .byte   W12
 .byte   Gn4
 .byte   W12
 .byte   N68 ,En4
 .byte   W24
 .byte   PEND 
@  #04 @055   ----------------------------------------
 .byte   W48
 .byte   TIE ,Bn3
 .byte   W48
@  #04 @056   ----------------------------------------
 .byte   W92
 .byte   W03
 .byte   EOT
 .byte   W01
@  #04 @057   ----------------------------------------
 .byte   N68 ,En3
 .byte   W72
 .byte   Gn3
 .byte   W24
@  #04 @058   ----------------------------------------
 .byte   PATT
  .word Label_01034FCB
@  #04 @059   ----------------------------------------
 .byte   PATT
  .word Label_01034FD3
@  #04 @060   ----------------------------------------
 .byte   PATT
  .word Label_01034FDC
@  #04 @061   ----------------------------------------
Label_01035007:
 .byte   W48
 .byte   TIE ,Dn4 ,v080
 .byte   W48
 .byte   PEND 
@  #04 @062   ----------------------------------------
 .byte   W92
 .byte   W03
 .byte   EOT
 .byte   W01
@  #04 @063   ----------------------------------------
 .byte   N68 ,Bn3
 .byte   W72
 .byte   Dn4
 .byte   W24
@  #04 @064   ----------------------------------------
 .byte   PATT
  .word Label_01034FCB
@  #04 @065   ----------------------------------------
 .byte   PATT
  .word Label_01034FD3
@  #04 @066   ----------------------------------------
 .byte   PATT
  .word Label_01034FDC
@  #04 @067   ----------------------------------------
 .byte   PATT
  .word Label_01035007
@  #04 @068   ----------------------------------------
 .byte   W92
 .byte   W03
 .byte   EOT
 .byte   Dn4
 .byte   W01
@  #04 @069   ----------------------------------------
 .byte   TIE ,Bn3 ,v080
 .byte   W96
@  #04 @070   ----------------------------------------
 .byte   W44
 .byte   W03
 .byte   EOT
 .byte   W24
 .byte   W01
 .byte   N11 ,En3
 .byte   W12
 .byte   N11
 .byte   W12
@  #04 @071   ----------------------------------------
 .byte   PATT
  .word Label_01034FD3
@  #04 @072   ----------------------------------------
 .byte   W24
 .byte   N11 ,En4 ,v080
 .byte   W12
 .byte   N11
 .byte   W12
 .byte   Dn4
 .byte   W12
 .byte   Gn4
 .byte   W12
 .byte   N68 ,An4
 .byte   W24
@  #04 @073   ----------------------------------------
 .byte   W48
 .byte   TIE ,Dn4 ,v068
 .byte   TIE ,Fs4
 .byte   W48
@  #04 @074   ----------------------------------------
 .byte   W92
 .byte   W03
 .byte   EOT
 .byte   Dn4 ,v078
 .byte   W01
@  #04 @075   ----------------------------------------
 .byte   TIE ,Cn4
 .byte   TIE ,En4
 .byte   W96
@  #04 @076   ----------------------------------------
 .byte   W44
 .byte   W03
 .byte   EOT
 .byte   Cn4 ,v076
 .byte   W01
 .byte   N11 ,An4 ,v072
 .byte   W12
 .byte   En4
 .byte   W12
 .byte   Gn4
 .byte   W12
 .byte   Dn5
 .byte   W12
@  #04 @077   ----------------------------------------
Label_01035072:
 .byte   N11 ,An4 ,v072
 .byte   W12
 .byte   En4
 .byte   W12
 .byte   Gn4
 .byte   W12
 .byte   Dn5
 .byte   W12
 .byte   An4
 .byte   W12
 .byte   En4
 .byte   W12
 .byte   Gn4
 .byte   W12
 .byte   Dn5
 .byte   W12
 .byte   PEND 
@  #04 @078   ----------------------------------------
 .byte   PATT
  .word Label_01035072
@  #04 @079   ----------------------------------------
 .byte   PATT
  .word Label_01035072
@  #04 @080   ----------------------------------------
 .byte   PATT
  .word Label_01035072
@  #04 @081   ----------------------------------------
 .byte   PATT
  .word Label_01035072
@  #04 @082   ----------------------------------------
 .byte   PATT
  .word Label_01035072
@  #04 @083   ----------------------------------------
 .byte   PATT
  .word Label_01035072
@  #04 @084   ----------------------------------------
 .byte   PATT
  .word Label_01035072
@  #04 @085   ----------------------------------------
 .byte   PATT
  .word Label_01035072
@  #04 @086   ----------------------------------------
 .byte   PATT
  .word Label_01035072
@  #04 @087   ----------------------------------------
 .byte   PATT
  .word Label_01035072
@  #04 @088   ----------------------------------------
 .byte   N11 ,An4 ,v072
 .byte   W12
 .byte   En4
 .byte   W12
 .byte   Gn4
 .byte   W12
 .byte   Dn5
 .byte   W12
 .byte   An4 ,v088
 .byte   W12
 .byte   En4
 .byte   W12
 .byte   Gn4
 .byte   W12
 .byte   Dn4
 .byte   W12
@  #04 @089   ----------------------------------------
Label_010350CA:
 .byte   N11 ,An4 ,v088
 .byte   W12
 .byte   En4
 .byte   W12
 .byte   Gn4
 .byte   W12
 .byte   Dn4
 .byte   W12
 .byte   An4
 .byte   W12
 .byte   En4
 .byte   W12
 .byte   Gn4
 .byte   W12
 .byte   Dn4
 .byte   W12
 .byte   PEND 
@  #04 @090   ----------------------------------------
 .byte   PATT
  .word Label_010350CA
@  #04 @091   ----------------------------------------
 .byte   N11 ,An4 ,v088
 .byte   W12
 .byte   En4
 .byte   W12
 .byte   Gn4
 .byte   W12
 .byte   Dn4
 .byte   W12
 .byte   An4 ,v080
 .byte   W12
 .byte   En4
 .byte   W12
 .byte   Gn4
 .byte   W12
 .byte   Dn4
 .byte   W12
@  #04 @092   ----------------------------------------
 .byte   PATT
  .word Label_01034E56
@  #04 @093   ----------------------------------------
 .byte   PATT
  .word Label_01034E56
@  #04 @094   ----------------------------------------
 .byte   PATT
  .word Label_01034E56
@  #04 @095   ----------------------------------------
 .byte   PATT
  .word Label_01034E56
@  #04 @096   ----------------------------------------
 .byte   PATT
  .word Label_01034E56
@  #04 @097   ----------------------------------------
 .byte   N11 ,An4 ,v080
 .byte   W12
 .byte   En4
 .byte   W12
 .byte   Gn4
 .byte   W12
 .byte   Dn4
 .byte   W36
 .byte   GOTO
  .word Label_01034E8D
@  #04 @098   ----------------------------------------
 .byte   W24
 .byte   W96
@  #04 @099   ----------------------------------------
 .byte   W96
@  #04 @100   ----------------------------------------
 .byte   W96
@  #04 @101   ----------------------------------------
 .byte   W96
@  #04 @102   ----------------------------------------
 .byte   W96
@  #04 @103   ----------------------------------------
 .byte   W48
 .byte   N03 ,Gn3 ,v080
 .byte   N11 ,An4
 .byte   W04
 .byte   N66 ,An3
 .byte   W08
 .byte   N11 ,En4
 .byte   W12
 .byte   Gn4
 .byte   W12
 .byte   Dn4
 .byte   W12
@  #04 @104   ----------------------------------------
 .byte   An4
 .byte   W12
 .byte   En4
 .byte   W12
 .byte   N03 ,Bn3
 .byte   N11 ,Gn4
 .byte   W04
 .byte   N66 ,Cn4
 .byte   W08
 .byte   N11 ,Dn4
 .byte   W12
 .byte   An4
 .byte   W12
 .byte   En4
 .byte   W12
 .byte   Gn4
 .byte   W12
 .byte   Dn4
 .byte   W12
@  #04 @105   ----------------------------------------
 .byte   N03 ,Gn3
 .byte   N11 ,An4
 .byte   W04
 .byte   N66 ,An3
 .byte   W08
 .byte   N11 ,En4
 .byte   W12
 .byte   Gn4
 .byte   W12
 .byte   Dn4
 .byte   W12
 .byte   An4
 .byte   W12
 .byte   En4
 .byte   W12
 .byte   N03 ,Cn4
 .byte   N11 ,Gn4
 .byte   W04
 .byte   N08 ,Dn4
 .byte   W08
 .byte   N11
 .byte   W12
@  #04 @106   ----------------------------------------
 .byte   PATT
  .word Label_01034EB2
@  #04 @107   ----------------------------------------
 .byte   N11 ,An4 ,v080
 .byte   W12
 .byte   En4
 .byte   W12
 .byte   N03 ,Dn4
 .byte   N11 ,Gn4
 .byte   W04
 .byte   N32 ,En4
 .byte   W08
 .byte   N11 ,Dn4
 .byte   W12
 .byte   An4
 .byte   W12
 .byte   En4
 .byte   W12
 .byte   Gn4
 .byte   W12
 .byte   Dn4
 .byte   W12
@  #04 @108   ----------------------------------------
 .byte   N03 ,Gn3
 .byte   N11 ,An4
 .byte   W04
 .byte   N66 ,An3
 .byte   W08
 .byte   N11 ,En4
 .byte   W12
 .byte   Gn4
 .byte   W12
 .byte   Dn4
 .byte   W12
 .byte   An4
 .byte   W12
 .byte   En4
 .byte   W12
 .byte   N03 ,Fn4
 .byte   N11 ,Gn4
 .byte   W04
 .byte   N66 ,Fs4
 .byte   W08
 .byte   N11 ,Dn4
 .byte   W12
@  #04 @109   ----------------------------------------
 .byte   An4
 .byte   W12
 .byte   En4
 .byte   W12
 .byte   Gn4
 .byte   W12
 .byte   Dn4
 .byte   W60
@  #04 @110   ----------------------------------------
 .byte   W96
@  #04 @111   ----------------------------------------
 .byte   W96
@  #04 @112   ----------------------------------------
 .byte   W96
@  #04 @113   ----------------------------------------
 .byte   W96
@  #04 @114   ----------------------------------------
 .byte   W96
@  #04 @115   ----------------------------------------
 .byte   W48
 .byte   N03 ,Gs4 ,v092
 .byte   W04
 .byte   N42 ,An4
 .byte   W44
@  #04 @116   ----------------------------------------
 .byte   N11 ,Gn4
 .byte   W12
 .byte   Cn5
 .byte   W12
 .byte   N23 ,An4
 .byte   W24
 .byte   Gn4
 .byte   W24
 .byte   Fn4
 .byte   W24
@  #04 @117   ----------------------------------------
 .byte   N03 ,Ds4
 .byte   W04
 .byte   N42 ,En4
 .byte   W44
 .byte   N11 ,Dn4
 .byte   W12
 .byte   An3
 .byte   W12
 .byte   N44 ,En4
 .byte   W24
@  #04 @118   ----------------------------------------
 .byte   W24
 .byte   N11 ,Fn4
 .byte   W12
 .byte   Gn4
 .byte   W12
 .byte   N44 ,An4
 .byte   W48
@  #04 @119   ----------------------------------------
 .byte   N11 ,Gn4
 .byte   W12
 .byte   Cn5
 .byte   W12
 .byte   N23 ,An4
 .byte   W24
 .byte   Bn4
 .byte   W24
 .byte   Ds5
 .byte   W24
@  #04 @120   ----------------------------------------
 .byte   N44 ,Gn5
 .byte   W48
 .byte   N11 ,Fn5
 .byte   W12
 .byte   Cn5
 .byte   W12
 .byte   N68 ,Dn5
 .byte   W24
@  #04 @121   ----------------------------------------
 .byte   W48
 .byte   N03 ,Cs4
 .byte   W04
 .byte   N42 ,Dn4
 .byte   W44
@  #04 @122   ----------------------------------------
 .byte   N11 ,Cs4
 .byte   W12
 .byte   Dn4
 .byte   W12
 .byte   N23 ,Fn4
 .byte   W24
 .byte   En4
 .byte   W24
 .byte   Bn3
 .byte   W24
@  #04 @123   ----------------------------------------
 .byte   N03
 .byte   W04
 .byte   N42 ,Cn4
 .byte   W44
 .byte   N11 ,Bn3
 .byte   W12
 .byte   An3
 .byte   W12
 .byte   N32 ,Cn4
 .byte   W24
@  #04 @124   ----------------------------------------
 .byte   W12
 .byte   N11 ,En4
 .byte   W12
 .byte   An4
 .byte   W12
 .byte   Bn4
 .byte   W12
 .byte   N44 ,Cn5
 .byte   W48
@  #04 @125   ----------------------------------------
 .byte   N11 ,An4
 .byte   W12
 .byte   Cn5
 .byte   W12
 .byte   N23 ,Dn5
 .byte   W24
 .byte   Cn5
 .byte   W24
 .byte   Fn5
 .byte   W24
@  #04 @126   ----------------------------------------
 .byte   N68 ,En3 ,v080
 .byte   N03 ,Ds5 ,v092
 .byte   W04
 .byte   TIE ,En5
 .byte   W68
 .byte   N68 ,An3 ,v080
 .byte   W24
@  #04 @127   ----------------------------------------
 .byte   W48
 .byte   As3
 .byte   W48
@  #04 @128   ----------------------------------------
 .byte   W24
 .byte   Bn3
 .byte   W44
 .byte   W03
 .byte   EOT
 .byte   En5
 .byte   W24
 .byte   W01
@  #04 @129   ----------------------------------------
 .byte   W96
@  #04 @130   ----------------------------------------
 .byte   W96
@  #04 @131   ----------------------------------------
 .byte   W96
@  #04 @132   ----------------------------------------
 .byte   W96
@  #04 @133   ----------------------------------------
 .byte   W96
@  #04 @134   ----------------------------------------
 .byte   W96
@  #04 @135   ----------------------------------------
 .byte   W96
@  #04 @136   ----------------------------------------
 .byte   W96
@  #04 @137   ----------------------------------------
 .byte   W96
@  #04 @138   ----------------------------------------
 .byte   W96
@  #04 @139   ----------------------------------------
 .byte   W96
@  #04 @140   ----------------------------------------
 .byte   W96
@  #04 @141   ----------------------------------------
Label_0103524F:
 .byte   W24
 .byte   N11 ,En3 ,v080
 .byte   W12
 .byte   N11
 .byte   W12
 .byte   Dn3
 .byte   W12
 .byte   Gn3
 .byte   W12
 .byte   En3
 .byte   W24
 .byte   PEND 
@  #04 @142   ----------------------------------------
Label_0103525D:
 .byte   W72
 .byte   N11 ,En4 ,v080
 .byte   W12
 .byte   N11
 .byte   W12
 .byte   PEND 
@  #04 @143   ----------------------------------------
Label_01035265:
 .byte   N11 ,Dn4 ,v080
 .byte   W12
 .byte   Gn4
 .byte   W12
 .byte   N68 ,En4
 .byte   W72
 .byte   PEND 
@  #04 @144   ----------------------------------------
 .byte   TIE ,Bn3
 .byte   W96
@  #04 @145   ----------------------------------------
 .byte   W44
 .byte   W03
 .byte   EOT
 .byte   W01
 .byte   N68 ,En3
 .byte   W48
@  #04 @146   ----------------------------------------
 .byte   W24
 .byte   Gn3
 .byte   W72
@  #04 @147   ----------------------------------------
 .byte   PATT
  .word Label_0103524F
@  #04 @148   ----------------------------------------
 .byte   PATT
  .word Label_0103525D
@  #04 @149   ----------------------------------------
 .byte   PATT
  .word Label_01035265
@  #04 @150   ----------------------------------------
 .byte   TIE ,Dn4 ,v080
 .byte   W96
@  #04 @151   ----------------------------------------
 .byte   W44
 .byte   W03
 .byte   EOT
 .byte   W01
 .byte   N68 ,Bn3
 .byte   W48
@  #04 @152   ----------------------------------------
 .byte   W24
 .byte   Dn4
 .byte   W72
@  #04 @153   ----------------------------------------
 .byte   PATT
  .word Label_0103524F
@  #04 @154   ----------------------------------------
 .byte   PATT
  .word Label_0103525D
@  #04 @155   ----------------------------------------
 .byte   PATT
  .word Label_01035265
@  #04 @156   ----------------------------------------
 .byte   TIE ,Dn4 ,v080
 .byte   W96
@  #04 @157   ----------------------------------------
 .byte   W44
 .byte   W03
 .byte   EOT
 .byte   W01
 .byte   TIE ,Bn3
 .byte   W48
@  #04 @158   ----------------------------------------
 .byte   W92
 .byte   W03
 .byte   EOT
 .byte   W01
@  #04 @159   ----------------------------------------
 .byte   PATT
  .word Label_0103524F
@  #04 @160   ----------------------------------------
 .byte   PATT
  .word Label_0103525D
@  #04 @161   ----------------------------------------
 .byte   N11 ,Dn4 ,v080
 .byte   W12
 .byte   Gn4
 .byte   W12
 .byte   N68 ,An4
 .byte   W72
@  #04 @162   ----------------------------------------
 .byte   TIE ,Dn4 ,v068
 .byte   TIE ,Fs4
 .byte   W96
@  #04 @163   ----------------------------------------
 .byte   W44
 .byte   W03
 .byte   EOT
 .byte   Dn4 ,v078
 .byte   W01
 .byte   TIE ,Cn4
 .byte   TIE ,En4
 .byte   W48
@  #04 @164   ----------------------------------------
 .byte   W92
 .byte   W03
 .byte   EOT
 .byte   Cn4 ,v076
 .byte   W01
@  #04 @165   ----------------------------------------
 .byte   PATT
  .word Label_01035072
@  #04 @166   ----------------------------------------
 .byte   PATT
  .word Label_01035072
@  #04 @167   ----------------------------------------
 .byte   PATT
  .word Label_01035072
@  #04 @168   ----------------------------------------
 .byte   PATT
  .word Label_01035072
@  #04 @169   ----------------------------------------
 .byte   PATT
  .word Label_01035072
@  #04 @170   ----------------------------------------
 .byte   PATT
  .word Label_01035072
@  #04 @171   ----------------------------------------
 .byte   PATT
  .word Label_01035072
@  #04 @172   ----------------------------------------
 .byte   PATT
  .word Label_01035072
@  #04 @173   ----------------------------------------
 .byte   PATT
  .word Label_01035072
@  #04 @174   ----------------------------------------
 .byte   PATT
  .word Label_01035072
@  #04 @175   ----------------------------------------
 .byte   PATT
  .word Label_01035072
@  #04 @176   ----------------------------------------
 .byte   PATT
  .word Label_01035072
@  #04 @177   ----------------------------------------
 .byte   PATT
  .word Label_010350CA
@  #04 @178   ----------------------------------------
 .byte   PATT
  .word Label_010350CA
@  #04 @179   ----------------------------------------
 .byte   N11 ,An4 ,v088
 .byte   W12
 .byte   En4
 .byte   W12
 .byte   Gn4
 .byte   W12
 .byte   Dn4
 .byte   W12
 .byte   An4
 .byte   W12
 .byte   En4
 .byte   W12
 .byte   Gn4
 .byte   W12
 .byte   Dn4
 .byte   W11
 .byte   FINE

@**************** Track 5 (Midi-Chn.4) ****************@

song06_005:
@  #05 @000   ----------------------------------------
 .byte   KEYSH , song06_key+0
 .byte   VOICE , 46
 .byte   VOL , 33*song06_mvl/mxv
 .byte   PAN , c_v+0
 .byte   VOL , 42*song06_mvl/mxv
 .byte   PAN , c_v+0
 .byte   N11 ,An3 ,v080
 .byte   W12
 .byte   Cn4
 .byte   W12
 .byte   Gn3
 .byte   W12
 .byte   An3
 .byte   W12
 .byte   Dn3
 .byte   W12
 .byte   Gn3
 .byte   W12
 .byte   An3
 .byte   W12
 .byte   Cn4
 .byte   W12
@  #05 @001   ----------------------------------------
Label_0100E1DA:
 .byte   N11 ,Gn3 ,v080
 .byte   W12
 .byte   An3
 .byte   W12
 .byte   Dn3
 .byte   W12
 .byte   Gn3
 .byte   W12
 .byte   An3
 .byte   W12
 .byte   Cn4
 .byte   W12
 .byte   Gn3
 .byte   W12
 .byte   An3
 .byte   W12
 .byte   PEND 
@  #05 @002   ----------------------------------------
Label_0100E1ED:
 .byte   N11 ,Dn3 ,v080
 .byte   W12
 .byte   Gn3
 .byte   W12
 .byte   An3
 .byte   W12
 .byte   Cn4
 .byte   W12
 .byte   Gn3
 .byte   W12
 .byte   An3
 .byte   W12
 .byte   Dn3
 .byte   W12
 .byte   Gn3
 .byte   W12
 .byte   PEND 
@  #05 @003   ----------------------------------------
Label_0100E200:
 .byte   N11 ,An3 ,v080
 .byte   W12
 .byte   Cn4
 .byte   W12
 .byte   Gn3
 .byte   W12
 .byte   An3
 .byte   W12
 .byte   Dn3
 .byte   W12
 .byte   Gn3
 .byte   W12
 .byte   An3
 .byte   W12
 .byte   Cn4
 .byte   W12
 .byte   PEND 
@  #05 @004   ----------------------------------------
 .byte   PATT
  .word Label_0100E1DA
@  #05 @005   ----------------------------------------
 .byte   PATT
  .word Label_0100E1ED
@  #05 @006   ----------------------------------------
 .byte   PATT
  .word Label_0100E200
@  #05 @007   ----------------------------------------
 .byte   PATT
  .word Label_0100E1DA
@  #05 @008   ----------------------------------------
 .byte   PATT
  .word Label_0100E1ED
@  #05 @009   ----------------------------------------
 .byte   W24
Label_0100E22D:
 .byte   W72
@  #05 @010   ----------------------------------------
 .byte   W96
@  #05 @011   ----------------------------------------
 .byte   W96
@  #05 @012   ----------------------------------------
 .byte   W96
@  #05 @013   ----------------------------------------
 .byte   W96
@  #05 @014   ----------------------------------------
 .byte   W96
@  #05 @015   ----------------------------------------
 .byte   W96
@  #05 @016   ----------------------------------------
 .byte   W96
@  #05 @017   ----------------------------------------
 .byte   W96
@  #05 @018   ----------------------------------------
 .byte   W96
@  #05 @019   ----------------------------------------
 .byte   W96
@  #05 @020   ----------------------------------------
 .byte   W96
@  #05 @021   ----------------------------------------
 .byte   W96
@  #05 @022   ----------------------------------------
 .byte   W96
@  #05 @023   ----------------------------------------
 .byte   W96
@  #05 @024   ----------------------------------------
 .byte   W96
@  #05 @025   ----------------------------------------
 .byte   W96
@  #05 @026   ----------------------------------------
 .byte   W96
@  #05 @027   ----------------------------------------
 .byte   W96
@  #05 @028   ----------------------------------------
 .byte   W96
@  #05 @029   ----------------------------------------
 .byte   W96
@  #05 @030   ----------------------------------------
 .byte   W96
@  #05 @031   ----------------------------------------
 .byte   W96
@  #05 @032   ----------------------------------------
 .byte   W96
@  #05 @033   ----------------------------------------
 .byte   W96
@  #05 @034   ----------------------------------------
 .byte   W96
@  #05 @035   ----------------------------------------
 .byte   W96
@  #05 @036   ----------------------------------------
 .byte   W96
@  #05 @037   ----------------------------------------
 .byte   W96
@  #05 @038   ----------------------------------------
 .byte   W96
@  #05 @039   ----------------------------------------
 .byte   W96
@  #05 @040   ----------------------------------------
 .byte   W96
@  #05 @041   ----------------------------------------
 .byte   W96
@  #05 @042   ----------------------------------------
 .byte   W96
@  #05 @043   ----------------------------------------
 .byte   W96
@  #05 @044   ----------------------------------------
 .byte   W96
@  #05 @045   ----------------------------------------
 .byte   W96
@  #05 @046   ----------------------------------------
 .byte   W96
@  #05 @047   ----------------------------------------
 .byte   W96
@  #05 @048   ----------------------------------------
 .byte   W96
@  #05 @049   ----------------------------------------
 .byte   W96
@  #05 @050   ----------------------------------------
 .byte   W96
@  #05 @051   ----------------------------------------
 .byte   W96
@  #05 @052   ----------------------------------------
 .byte   W96
@  #05 @053   ----------------------------------------
 .byte   W96
@  #05 @054   ----------------------------------------
 .byte   W96
@  #05 @055   ----------------------------------------
 .byte   W96
@  #05 @056   ----------------------------------------
 .byte   W96
@  #05 @057   ----------------------------------------
 .byte   W96
@  #05 @058   ----------------------------------------
 .byte   W96
@  #05 @059   ----------------------------------------
 .byte   W96
@  #05 @060   ----------------------------------------
 .byte   W96
@  #05 @061   ----------------------------------------
 .byte   W96
@  #05 @062   ----------------------------------------
 .byte   W96
@  #05 @063   ----------------------------------------
 .byte   W96
@  #05 @064   ----------------------------------------
 .byte   W96
@  #05 @065   ----------------------------------------
 .byte   W96
@  #05 @066   ----------------------------------------
 .byte   W96
@  #05 @067   ----------------------------------------
 .byte   W96
@  #05 @068   ----------------------------------------
 .byte   W96
@  #05 @069   ----------------------------------------
 .byte   W96
@  #05 @070   ----------------------------------------
 .byte   W96
@  #05 @071   ----------------------------------------
 .byte   W96
@  #05 @072   ----------------------------------------
 .byte   W96
@  #05 @073   ----------------------------------------
 .byte   W96
@  #05 @074   ----------------------------------------
 .byte   W96
@  #05 @075   ----------------------------------------
 .byte   W96
@  #05 @076   ----------------------------------------
 .byte   W96
@  #05 @077   ----------------------------------------
 .byte   W96
@  #05 @078   ----------------------------------------
 .byte   W96
@  #05 @079   ----------------------------------------
 .byte   W96
@  #05 @080   ----------------------------------------
 .byte   W96
@  #05 @081   ----------------------------------------
 .byte   W96
@  #05 @082   ----------------------------------------
 .byte   W96
@  #05 @083   ----------------------------------------
 .byte   W96
@  #05 @084   ----------------------------------------
 .byte   W96
@  #05 @085   ----------------------------------------
 .byte   W96
@  #05 @086   ----------------------------------------
 .byte   W96
@  #05 @087   ----------------------------------------
 .byte   W96
@  #05 @088   ----------------------------------------
 .byte   W48
 .byte   N11 ,An3 ,v068
 .byte   W12
 .byte   Cn4
 .byte   W12
 .byte   Gn3
 .byte   W12
 .byte   An3
 .byte   W12
@  #05 @089   ----------------------------------------
 .byte   Dn3
 .byte   W12
 .byte   Gn3
 .byte   W12
 .byte   An3
 .byte   W12
 .byte   Cn4
 .byte   W12
 .byte   Gn3
 .byte   W12
 .byte   An3
 .byte   W12
 .byte   Dn3
 .byte   W12
 .byte   Gn3
 .byte   W12
@  #05 @090   ----------------------------------------
Label_0100E297:
 .byte   N11 ,An3 ,v068
 .byte   W12
 .byte   Cn4
 .byte   W12
 .byte   Gn3
 .byte   W12
 .byte   An3
 .byte   W12
 .byte   Dn3
 .byte   W12
 .byte   Gn3
 .byte   W12
 .byte   An3
 .byte   W12
 .byte   Cn4
 .byte   W12
 .byte   PEND 
@  #05 @091   ----------------------------------------
 .byte   Gn3
 .byte   W12
 .byte   An3
 .byte   W12
 .byte   Dn3
 .byte   W12
 .byte   Gn3
 .byte   W12
 .byte   An3 ,v080
 .byte   W12
 .byte   Cn4
 .byte   W12
 .byte   Gn3
 .byte   W12
 .byte   An3
 .byte   W12
@  #05 @092   ----------------------------------------
 .byte   PATT
  .word Label_0100E1ED
@  #05 @093   ----------------------------------------
 .byte   PATT
  .word Label_0100E200
@  #05 @094   ----------------------------------------
 .byte   PATT
  .word Label_0100E1DA
@  #05 @095   ----------------------------------------
 .byte   PATT
  .word Label_0100E1ED
@  #05 @096   ----------------------------------------
 .byte   PATT
  .word Label_0100E200
@  #05 @097   ----------------------------------------
 .byte   N11 ,Gn3 ,v080
 .byte   W12
 .byte   An3
 .byte   W12
 .byte   Dn3
 .byte   W12
 .byte   Gn3
 .byte   W36
 .byte   GOTO
  .word Label_0100E22D
@  #05 @098   ----------------------------------------
 .byte   W24
 .byte   W96
@  #05 @099   ----------------------------------------
 .byte   W96
@  #05 @100   ----------------------------------------
 .byte   W96
@  #05 @101   ----------------------------------------
 .byte   W96
@  #05 @102   ----------------------------------------
 .byte   W96
@  #05 @103   ----------------------------------------
 .byte   W96
@  #05 @104   ----------------------------------------
 .byte   W96
@  #05 @105   ----------------------------------------
 .byte   W96
@  #05 @106   ----------------------------------------
 .byte   W96
@  #05 @107   ----------------------------------------
 .byte   W96
@  #05 @108   ----------------------------------------
 .byte   W96
@  #05 @109   ----------------------------------------
 .byte   W96
@  #05 @110   ----------------------------------------
 .byte   W96
@  #05 @111   ----------------------------------------
 .byte   W96
@  #05 @112   ----------------------------------------
 .byte   W96
@  #05 @113   ----------------------------------------
 .byte   W96
@  #05 @114   ----------------------------------------
 .byte   W96
@  #05 @115   ----------------------------------------
 .byte   W96
@  #05 @116   ----------------------------------------
 .byte   W96
@  #05 @117   ----------------------------------------
 .byte   W96
@  #05 @118   ----------------------------------------
 .byte   W96
@  #05 @119   ----------------------------------------
 .byte   W96
@  #05 @120   ----------------------------------------
 .byte   W96
@  #05 @121   ----------------------------------------
 .byte   W96
@  #05 @122   ----------------------------------------
 .byte   W96
@  #05 @123   ----------------------------------------
 .byte   W96
@  #05 @124   ----------------------------------------
 .byte   W96
@  #05 @125   ----------------------------------------
 .byte   W96
@  #05 @126   ----------------------------------------
 .byte   W96
@  #05 @127   ----------------------------------------
 .byte   W96
@  #05 @128   ----------------------------------------
 .byte   W96
@  #05 @129   ----------------------------------------
 .byte   W96
@  #05 @130   ----------------------------------------
 .byte   W96
@  #05 @131   ----------------------------------------
 .byte   W96
@  #05 @132   ----------------------------------------
 .byte   W96
@  #05 @133   ----------------------------------------
 .byte   W96
@  #05 @134   ----------------------------------------
 .byte   W96
@  #05 @135   ----------------------------------------
 .byte   W96
@  #05 @136   ----------------------------------------
 .byte   W96
@  #05 @137   ----------------------------------------
 .byte   W96
@  #05 @138   ----------------------------------------
 .byte   W96
@  #05 @139   ----------------------------------------
 .byte   W96
@  #05 @140   ----------------------------------------
 .byte   W96
@  #05 @141   ----------------------------------------
 .byte   W96
@  #05 @142   ----------------------------------------
 .byte   W96
@  #05 @143   ----------------------------------------
 .byte   W96
@  #05 @144   ----------------------------------------
 .byte   W96
@  #05 @145   ----------------------------------------
 .byte   W96
@  #05 @146   ----------------------------------------
 .byte   W96
@  #05 @147   ----------------------------------------
 .byte   W96
@  #05 @148   ----------------------------------------
 .byte   W96
@  #05 @149   ----------------------------------------
 .byte   W96
@  #05 @150   ----------------------------------------
 .byte   W96
@  #05 @151   ----------------------------------------
 .byte   W96
@  #05 @152   ----------------------------------------
 .byte   W96
@  #05 @153   ----------------------------------------
 .byte   W96
@  #05 @154   ----------------------------------------
 .byte   W96
@  #05 @155   ----------------------------------------
 .byte   W96
@  #05 @156   ----------------------------------------
 .byte   W96
@  #05 @157   ----------------------------------------
 .byte   W96
@  #05 @158   ----------------------------------------
 .byte   W96
@  #05 @159   ----------------------------------------
 .byte   W96
@  #05 @160   ----------------------------------------
 .byte   W96
@  #05 @161   ----------------------------------------
 .byte   W96
@  #05 @162   ----------------------------------------
 .byte   W96
@  #05 @163   ----------------------------------------
 .byte   W96
@  #05 @164   ----------------------------------------
 .byte   W96
@  #05 @165   ----------------------------------------
 .byte   W96
@  #05 @166   ----------------------------------------
 .byte   W96
@  #05 @167   ----------------------------------------
 .byte   W96
@  #05 @168   ----------------------------------------
 .byte   W96
@  #05 @169   ----------------------------------------
 .byte   W96
@  #05 @170   ----------------------------------------
 .byte   W96
@  #05 @171   ----------------------------------------
 .byte   W96
@  #05 @172   ----------------------------------------
 .byte   W96
@  #05 @173   ----------------------------------------
 .byte   W96
@  #05 @174   ----------------------------------------
 .byte   W96
@  #05 @175   ----------------------------------------
 .byte   W96
@  #05 @176   ----------------------------------------
 .byte   W96
@  #05 @177   ----------------------------------------
 .byte   PATT
  .word Label_0100E297
@  #05 @178   ----------------------------------------
 .byte   N11 ,Gn3 ,v068
 .byte   W12
 .byte   An3
 .byte   W12
 .byte   Dn3
 .byte   W12
 .byte   Gn3
 .byte   W12
 .byte   An3
 .byte   W12
 .byte   Cn4
 .byte   W12
 .byte   Gn3
 .byte   W12
 .byte   An3
 .byte   W12
@  #05 @179   ----------------------------------------
 .byte   Dn3
 .byte   W12
 .byte   Gn3
 .byte   W12
 .byte   An3
 .byte   W12
 .byte   Cn4
 .byte   W12
 .byte   Gn3
 .byte   W12
 .byte   An3
 .byte   W12
 .byte   Dn3
 .byte   W12
 .byte   Gn3
 .byte   W11
 .byte   FINE

@**************** Track 6 (Midi-Chn.5) ****************@

song06_006:
@  #06 @000   ----------------------------------------
 .byte   KEYSH , song06_key+0
 .byte   VOICE , 47
 .byte   VOL , 47*song06_mvl/mxv
 .byte   PAN , c_v-7
 .byte   VOL , 47*song06_mvl/mxv
 .byte   PAN , c_v-7
 .byte   W96
@  #06 @001   ----------------------------------------
 .byte   W96
@  #06 @002   ----------------------------------------
 .byte   W96
@  #06 @003   ----------------------------------------
 .byte   W96
@  #06 @004   ----------------------------------------
 .byte   W96
@  #06 @005   ----------------------------------------
 .byte   W96
@  #06 @006   ----------------------------------------
 .byte   W96
@  #06 @007   ----------------------------------------
 .byte   W96
@  #06 @008   ----------------------------------------
 .byte   W96
@  #06 @009   ----------------------------------------
 .byte   W24
Label_0100E0CE:
 .byte   W72
@  #06 @010   ----------------------------------------
 .byte   W96
@  #06 @011   ----------------------------------------
 .byte   W96
@  #06 @012   ----------------------------------------
 .byte   W96
@  #06 @013   ----------------------------------------
 .byte   W96
@  #06 @014   ----------------------------------------
 .byte   W96
@  #06 @015   ----------------------------------------
 .byte   W96
@  #06 @016   ----------------------------------------
 .byte   W96
@  #06 @017   ----------------------------------------
 .byte   W96
@  #06 @018   ----------------------------------------
 .byte   W96
@  #06 @019   ----------------------------------------
 .byte   W96
@  #06 @020   ----------------------------------------
 .byte   W96
@  #06 @021   ----------------------------------------
 .byte   W96
@  #06 @022   ----------------------------------------
 .byte   W96
@  #06 @023   ----------------------------------------
 .byte   W96
@  #06 @024   ----------------------------------------
 .byte   W96
@  #06 @025   ----------------------------------------
 .byte   W96
@  #06 @026   ----------------------------------------
 .byte   W96
@  #06 @027   ----------------------------------------
 .byte   W96
@  #06 @028   ----------------------------------------
 .byte   W96
@  #06 @029   ----------------------------------------
 .byte   W96
@  #06 @030   ----------------------------------------
 .byte   W96
@  #06 @031   ----------------------------------------
 .byte   W96
@  #06 @032   ----------------------------------------
 .byte   W96
@  #06 @033   ----------------------------------------
 .byte   W96
@  #06 @034   ----------------------------------------
 .byte   W96
@  #06 @035   ----------------------------------------
 .byte   W96
@  #06 @036   ----------------------------------------
 .byte   W96
@  #06 @037   ----------------------------------------
 .byte   W48
 .byte   N68 ,Bn1 ,v096
 .byte   W48
@  #06 @038   ----------------------------------------
 .byte   W96
@  #06 @039   ----------------------------------------
 .byte   W96
@  #06 @040   ----------------------------------------
 .byte   W12
 .byte   N05 ,En1
 .byte   W06
 .byte   N05
 .byte   W06
 .byte   N05
 .byte   W06
 .byte   N05
 .byte   W06
 .byte   N05
 .byte   W06
 .byte   N05
 .byte   W54
@  #06 @041   ----------------------------------------
 .byte   W96
@  #06 @042   ----------------------------------------
 .byte   W96
@  #06 @043   ----------------------------------------
 .byte   W96
@  #06 @044   ----------------------------------------
 .byte   W96
@  #06 @045   ----------------------------------------
 .byte   W96
@  #06 @046   ----------------------------------------
 .byte   W96
@  #06 @047   ----------------------------------------
 .byte   W96
@  #06 @048   ----------------------------------------
 .byte   W96
@  #06 @049   ----------------------------------------
 .byte   W96
@  #06 @050   ----------------------------------------
 .byte   W96
@  #06 @051   ----------------------------------------
 .byte   W96
@  #06 @052   ----------------------------------------
 .byte   W96
@  #06 @053   ----------------------------------------
 .byte   W96
@  #06 @054   ----------------------------------------
 .byte   W96
@  #06 @055   ----------------------------------------
 .byte   W96
@  #06 @056   ----------------------------------------
 .byte   W96
@  #06 @057   ----------------------------------------
 .byte   W96
@  #06 @058   ----------------------------------------
 .byte   W96
@  #06 @059   ----------------------------------------
 .byte   W96
@  #06 @060   ----------------------------------------
 .byte   W96
@  #06 @061   ----------------------------------------
 .byte   W96
@  #06 @062   ----------------------------------------
 .byte   W96
@  #06 @063   ----------------------------------------
 .byte   W96
@  #06 @064   ----------------------------------------
 .byte   W96
@  #06 @065   ----------------------------------------
 .byte   W96
@  #06 @066   ----------------------------------------
 .byte   W96
@  #06 @067   ----------------------------------------
 .byte   W96
@  #06 @068   ----------------------------------------
 .byte   W96
@  #06 @069   ----------------------------------------
 .byte   W96
@  #06 @070   ----------------------------------------
 .byte   W96
@  #06 @071   ----------------------------------------
 .byte   W96
@  #06 @072   ----------------------------------------
 .byte   W96
@  #06 @073   ----------------------------------------
 .byte   W96
@  #06 @074   ----------------------------------------
 .byte   W96
@  #06 @075   ----------------------------------------
 .byte   W96
@  #06 @076   ----------------------------------------
 .byte   W12
 .byte   N05
 .byte   W06
 .byte   N05
 .byte   W06
 .byte   N05
 .byte   W06
 .byte   N05
 .byte   W06
 .byte   N05
 .byte   W06
 .byte   N05
 .byte   W06
 .byte   N44 ,An1
 .byte   W48
@  #06 @077   ----------------------------------------
 .byte   W96
@  #06 @078   ----------------------------------------
 .byte   W96
@  #06 @079   ----------------------------------------
 .byte   W96
@  #06 @080   ----------------------------------------
 .byte   W96
@  #06 @081   ----------------------------------------
 .byte   W96
@  #06 @082   ----------------------------------------
 .byte   W96
@  #06 @083   ----------------------------------------
 .byte   W96
@  #06 @084   ----------------------------------------
 .byte   W96
@  #06 @085   ----------------------------------------
 .byte   W96
@  #06 @086   ----------------------------------------
 .byte   W96
@  #06 @087   ----------------------------------------
 .byte   W96
@  #06 @088   ----------------------------------------
 .byte   W96
@  #06 @089   ----------------------------------------
 .byte   W96
@  #06 @090   ----------------------------------------
 .byte   W96
@  #06 @091   ----------------------------------------
 .byte   W96
@  #06 @092   ----------------------------------------
 .byte   W96
@  #06 @093   ----------------------------------------
 .byte   W96
@  #06 @094   ----------------------------------------
 .byte   W96
@  #06 @095   ----------------------------------------
 .byte   W96
@  #06 @096   ----------------------------------------
 .byte   W96
@  #06 @097   ----------------------------------------
 .byte   W72
 .byte   GOTO
  .word Label_0100E0CE
@  #06 @098   ----------------------------------------
 .byte   W24
 .byte   W96
@  #06 @099   ----------------------------------------
 .byte   W96
@  #06 @100   ----------------------------------------
 .byte   W96
@  #06 @101   ----------------------------------------
 .byte   W96
@  #06 @102   ----------------------------------------
 .byte   W96
@  #06 @103   ----------------------------------------
 .byte   W96
@  #06 @104   ----------------------------------------
 .byte   W96
@  #06 @105   ----------------------------------------
 .byte   W96
@  #06 @106   ----------------------------------------
 .byte   W96
@  #06 @107   ----------------------------------------
 .byte   W96
@  #06 @108   ----------------------------------------
 .byte   W96
@  #06 @109   ----------------------------------------
 .byte   W96
@  #06 @110   ----------------------------------------
 .byte   W96
@  #06 @111   ----------------------------------------
 .byte   W96
@  #06 @112   ----------------------------------------
 .byte   W96
@  #06 @113   ----------------------------------------
 .byte   W96
@  #06 @114   ----------------------------------------
 .byte   W96
@  #06 @115   ----------------------------------------
 .byte   W96
@  #06 @116   ----------------------------------------
 .byte   W96
@  #06 @117   ----------------------------------------
 .byte   W96
@  #06 @118   ----------------------------------------
 .byte   W96
@  #06 @119   ----------------------------------------
 .byte   W96
@  #06 @120   ----------------------------------------
 .byte   W96
@  #06 @121   ----------------------------------------
 .byte   W96
@  #06 @122   ----------------------------------------
 .byte   W96
@  #06 @123   ----------------------------------------
 .byte   W96
@  #06 @124   ----------------------------------------
 .byte   W96
@  #06 @125   ----------------------------------------
 .byte   W96
@  #06 @126   ----------------------------------------
 .byte   N68 ,Bn1 ,v096
 .byte   W96
@  #06 @127   ----------------------------------------
 .byte   W96
@  #06 @128   ----------------------------------------
Label_0100E16E:
 .byte   W60
 .byte   N05 ,En1 ,v096
 .byte   W06
 .byte   N05
 .byte   W06
 .byte   N05
 .byte   W06
 .byte   N05
 .byte   W06
 .byte   N05
 .byte   W06
 .byte   N05
 .byte   W06
 .byte   PEND 
@  #06 @129   ----------------------------------------
 .byte   W96
@  #06 @130   ----------------------------------------
 .byte   W96
@  #06 @131   ----------------------------------------
 .byte   W96
@  #06 @132   ----------------------------------------
 .byte   W96
@  #06 @133   ----------------------------------------
 .byte   W96
@  #06 @134   ----------------------------------------
 .byte   W96
@  #06 @135   ----------------------------------------
 .byte   W96
@  #06 @136   ----------------------------------------
 .byte   W96
@  #06 @137   ----------------------------------------
 .byte   W96
@  #06 @138   ----------------------------------------
 .byte   W96
@  #06 @139   ----------------------------------------
 .byte   W96
@  #06 @140   ----------------------------------------
 .byte   W96
@  #06 @141   ----------------------------------------
 .byte   W96
@  #06 @142   ----------------------------------------
 .byte   W96
@  #06 @143   ----------------------------------------
 .byte   W96
@  #06 @144   ----------------------------------------
 .byte   W96
@  #06 @145   ----------------------------------------
 .byte   W96
@  #06 @146   ----------------------------------------
 .byte   W96
@  #06 @147   ----------------------------------------
 .byte   W96
@  #06 @148   ----------------------------------------
 .byte   W96
@  #06 @149   ----------------------------------------
 .byte   W96
@  #06 @150   ----------------------------------------
 .byte   W96
@  #06 @151   ----------------------------------------
 .byte   W96
@  #06 @152   ----------------------------------------
 .byte   W96
@  #06 @153   ----------------------------------------
 .byte   W96
@  #06 @154   ----------------------------------------
 .byte   W96
@  #06 @155   ----------------------------------------
 .byte   W96
@  #06 @156   ----------------------------------------
 .byte   W96
@  #06 @157   ----------------------------------------
 .byte   W96
@  #06 @158   ----------------------------------------
 .byte   W96
@  #06 @159   ----------------------------------------
 .byte   W96
@  #06 @160   ----------------------------------------
 .byte   W96
@  #06 @161   ----------------------------------------
 .byte   W96
@  #06 @162   ----------------------------------------
 .byte   W96
@  #06 @163   ----------------------------------------
 .byte   W96
@  #06 @164   ----------------------------------------
 .byte   PATT
  .word Label_0100E16E
@  #06 @165   ----------------------------------------
 .byte   N44 ,An1 ,v096
 .byte   W96
@  #06 @166   ----------------------------------------
 .byte   W96
@  #06 @167   ----------------------------------------
 .byte   W96
@  #06 @168   ----------------------------------------
 .byte   W96
@  #06 @169   ----------------------------------------
 .byte   W96
@  #06 @170   ----------------------------------------
 .byte   W96
@  #06 @171   ----------------------------------------
 .byte   W96
@  #06 @172   ----------------------------------------
 .byte   W96
@  #06 @173   ----------------------------------------
 .byte   W96
@  #06 @174   ----------------------------------------
 .byte   W96
@  #06 @175   ----------------------------------------
 .byte   W96
@  #06 @176   ----------------------------------------
 .byte   W96
@  #06 @177   ----------------------------------------
 .byte   W96
@  #06 @178   ----------------------------------------
 .byte   W96
@  #06 @179   ----------------------------------------
 .byte   W92
 .byte   W03
 .byte   FINE

@**************** Track 7 (Midi-Chn.6) ****************@

song06_007:
@  #07 @000   ----------------------------------------
 .byte   KEYSH , song06_key+0
 .byte   VOICE , 61
 .byte   VOL , 47*song06_mvl/mxv
 .byte   PAN , c_v+0
 .byte   VOL , 65*song06_mvl/mxv
 .byte   PAN , c_v+0
 .byte   W96
@  #07 @001   ----------------------------------------
 .byte   W96
@  #07 @002   ----------------------------------------
 .byte   W96
@  #07 @003   ----------------------------------------
 .byte   W96
@  #07 @004   ----------------------------------------
 .byte   W96
@  #07 @005   ----------------------------------------
 .byte   W96
@  #07 @006   ----------------------------------------
 .byte   W96
@  #07 @007   ----------------------------------------
 .byte   W96
@  #07 @008   ----------------------------------------
 .byte   W96
@  #07 @009   ----------------------------------------
 .byte   W24
Label_010321BE:
 .byte   N11 ,En3 ,v080
 .byte   W12
 .byte   N11
 .byte   W12
 .byte   Dn3
 .byte   W12
 .byte   Gn3
 .byte   W12
 .byte   En3
 .byte   W12
 .byte   Dn3
 .byte   W12
@  #07 @010   ----------------------------------------
Label_010321CC:
 .byte   N11 ,An2 ,v080
 .byte   W12
 .byte   N23
 .byte   W24
 .byte   N11 ,Gn2
 .byte   W12
 .byte   N23 ,An2
 .byte   W24
 .byte   N11 ,En3
 .byte   W12
 .byte   N11
 .byte   W12
 .byte   PEND 
@  #07 @011   ----------------------------------------
Label_010321DE:
 .byte   N11 ,Dn3 ,v080
 .byte   W12
 .byte   Gn3
 .byte   W12
 .byte   En3
 .byte   W12
 .byte   Dn3
 .byte   W12
 .byte   An2
 .byte   W12
 .byte   N44 ,En3
 .byte   W36
 .byte   PEND 
@  #07 @012   ----------------------------------------
Label_010321EE:
 .byte   W24
 .byte   N11 ,En3 ,v080
 .byte   N11 ,An3
 .byte   W12
 .byte   En3
 .byte   N11 ,An3
 .byte   W12
 .byte   Dn3
 .byte   N11 ,Gn3
 .byte   W12
 .byte   N11
 .byte   N11 ,Cn4
 .byte   W12
 .byte   En3
 .byte   N11 ,An3
 .byte   W12
 .byte   Dn3
 .byte   N11 ,Gn3
 .byte   W12
 .byte   PEND 
@  #07 @013   ----------------------------------------
Label_0103220A:
 .byte   N11 ,An2 ,v080
 .byte   N11 ,Dn3
 .byte   W12
 .byte   N23 ,An2
 .byte   N23 ,Dn3
 .byte   W24
 .byte   N11 ,Gn2
 .byte   N11 ,Cn3
 .byte   W12
 .byte   N23 ,An2
 .byte   N23 ,Dn3
 .byte   W24
 .byte   N11 ,En3
 .byte   N11 ,An3
 .byte   W12
 .byte   En3
 .byte   N11 ,An3
 .byte   W12
 .byte   PEND 
@  #07 @014   ----------------------------------------
Label_01032229:
 .byte   N11 ,Dn3 ,v080
 .byte   N11 ,Gn3
 .byte   W12
 .byte   N11
 .byte   N11 ,Cn4
 .byte   W12
 .byte   En3
 .byte   N11 ,An3
 .byte   W12
 .byte   Dn3
 .byte   N11 ,Gn3
 .byte   W12
 .byte   An2
 .byte   N11 ,Dn3
 .byte   W12
 .byte   N44 ,En3
 .byte   N44 ,An3
 .byte   W36
 .byte   PEND 
@  #07 @015   ----------------------------------------
 .byte   W96
@  #07 @016   ----------------------------------------
 .byte   W96
@  #07 @017   ----------------------------------------
 .byte   W96
@  #07 @018   ----------------------------------------
 .byte   W96
@  #07 @019   ----------------------------------------
 .byte   W96
@  #07 @020   ----------------------------------------
 .byte   W96
@  #07 @021   ----------------------------------------
Label_0103224B:
 .byte   W24
 .byte   N11 ,En3 ,v080
 .byte   W12
 .byte   N11
 .byte   W12
 .byte   Dn3
 .byte   W12
 .byte   Gn3
 .byte   W12
 .byte   En3
 .byte   W12
 .byte   Dn3
 .byte   W12
 .byte   PEND 
@  #07 @022   ----------------------------------------
 .byte   PATT
  .word Label_010321CC
@  #07 @023   ----------------------------------------
 .byte   PATT
  .word Label_010321DE
@  #07 @024   ----------------------------------------
 .byte   PATT
  .word Label_010321EE
@  #07 @025   ----------------------------------------
 .byte   PATT
  .word Label_0103220A
@  #07 @026   ----------------------------------------
 .byte   PATT
  .word Label_01032229
@  #07 @027   ----------------------------------------
 .byte   W96
@  #07 @028   ----------------------------------------
 .byte   W96
@  #07 @029   ----------------------------------------
 .byte   W96
@  #07 @030   ----------------------------------------
 .byte   W96
@  #07 @031   ----------------------------------------
 .byte   W96
@  #07 @032   ----------------------------------------
 .byte   W96
@  #07 @033   ----------------------------------------
 .byte   W96
@  #07 @034   ----------------------------------------
 .byte   W96
@  #07 @035   ----------------------------------------
 .byte   W96
@  #07 @036   ----------------------------------------
 .byte   W96
@  #07 @037   ----------------------------------------
 .byte   W96
@  #07 @038   ----------------------------------------
 .byte   W96
@  #07 @039   ----------------------------------------
 .byte   W96
@  #07 @040   ----------------------------------------
Label_01032281:
 .byte   W72
 .byte   N11 ,En3 ,v080
 .byte   W12
 .byte   N11
 .byte   W12
 .byte   PEND 
@  #07 @041   ----------------------------------------
Label_01032289:
 .byte   N11 ,Dn3 ,v080
 .byte   W12
 .byte   Gn3
 .byte   W12
 .byte   En3
 .byte   W12
 .byte   Dn3
 .byte   W12
 .byte   An2
 .byte   W12
 .byte   N23
 .byte   W24
 .byte   N11 ,Gn2
 .byte   W12
 .byte   PEND 
@  #07 @042   ----------------------------------------
Label_0103229B:
 .byte   N23 ,An2 ,v080
 .byte   W24
 .byte   N11 ,En3
 .byte   W12
 .byte   N11
 .byte   W12
 .byte   Dn3
 .byte   W12
 .byte   Gn3
 .byte   W12
 .byte   En3
 .byte   W12
 .byte   Dn3
 .byte   W12
 .byte   PEND 
@  #07 @043   ----------------------------------------
Label_010322AD:
 .byte   N11 ,An2 ,v080
 .byte   W12
 .byte   N44 ,En3
 .byte   W60
 .byte   N11
 .byte   N11 ,An3
 .byte   W12
 .byte   En3
 .byte   N11 ,An3
 .byte   W12
 .byte   PEND 
@  #07 @044   ----------------------------------------
Label_010322BD:
 .byte   N11 ,Dn3 ,v080
 .byte   N11 ,Gn3
 .byte   W12
 .byte   N11
 .byte   N11 ,Cn4
 .byte   W12
 .byte   En3
 .byte   N11 ,An3
 .byte   W12
 .byte   Dn3
 .byte   N11 ,Gn3
 .byte   W12
 .byte   An2
 .byte   N11 ,Dn3
 .byte   W12
 .byte   N23 ,An2
 .byte   N23 ,Dn3
 .byte   W24
 .byte   N11 ,Gn2
 .byte   N11 ,Cn3
 .byte   W12
 .byte   PEND 
@  #07 @045   ----------------------------------------
Label_010322DE:
 .byte   N23 ,An2 ,v080
 .byte   N23 ,Dn3
 .byte   W24
 .byte   N11 ,En3
 .byte   N11 ,An3
 .byte   W12
 .byte   En3
 .byte   N11 ,An3
 .byte   W12
 .byte   Dn3
 .byte   N11 ,Gn3
 .byte   W12
 .byte   N11
 .byte   N11 ,Cn4
 .byte   W12
 .byte   En3
 .byte   N11 ,An3
 .byte   W12
 .byte   Dn3
 .byte   N11 ,Gn3
 .byte   W12
 .byte   PEND 
@  #07 @046   ----------------------------------------
 .byte   An2
 .byte   N11 ,Dn3
 .byte   W12
 .byte   N44 ,En3
 .byte   N44 ,An3
 .byte   W60
 .byte   N11 ,En3
 .byte   W12
 .byte   N11
 .byte   W12
@  #07 @047   ----------------------------------------
 .byte   PATT
  .word Label_01032289
@  #07 @048   ----------------------------------------
 .byte   PATT
  .word Label_0103229B
@  #07 @049   ----------------------------------------
 .byte   PATT
  .word Label_010322AD
@  #07 @050   ----------------------------------------
 .byte   PATT
  .word Label_010322BD
@  #07 @051   ----------------------------------------
 .byte   PATT
  .word Label_010322DE
@  #07 @052   ----------------------------------------
Label_01032325:
 .byte   N11 ,An2 ,v080
 .byte   N11 ,Dn3
 .byte   W12
 .byte   N44 ,En3
 .byte   N44 ,An3
 .byte   W84
 .byte   PEND 
@  #07 @053   ----------------------------------------
Label_01032331:
 .byte   W48
 .byte   N11 ,An3 ,v080
 .byte   W12
 .byte   N11
 .byte   W12
 .byte   Gn3
 .byte   W12
 .byte   Cn4
 .byte   W12
 .byte   PEND 
@  #07 @054   ----------------------------------------
Label_0103233D:
 .byte   N68 ,An3 ,v080
 .byte   W72
 .byte   Cn4
 .byte   W24
 .byte   PEND 
@  #07 @055   ----------------------------------------
 .byte   W48
 .byte   En3
 .byte   W48
@  #07 @056   ----------------------------------------
 .byte   W24
 .byte   Bn2
 .byte   W72
@  #07 @057   ----------------------------------------
 .byte   Gn2
 .byte   W72
 .byte   Dn3
 .byte   W24
@  #07 @058   ----------------------------------------
 .byte   W96
@  #07 @059   ----------------------------------------
 .byte   PATT
  .word Label_01032331
@  #07 @060   ----------------------------------------
 .byte   PATT
  .word Label_0103233D
@  #07 @061   ----------------------------------------
 .byte   W48
 .byte   N68 ,Bn3 ,v080
 .byte   W48
@  #07 @062   ----------------------------------------
 .byte   W24
 .byte   Gn3
 .byte   W72
@  #07 @063   ----------------------------------------
Label_01032361:
 .byte   N68 ,Dn3 ,v080
 .byte   W72
 .byte   Gn3
 .byte   W24
 .byte   PEND 
@  #07 @064   ----------------------------------------
 .byte   W96
@  #07 @065   ----------------------------------------
 .byte   PATT
  .word Label_01032331
@  #07 @066   ----------------------------------------
 .byte   PATT
  .word Label_0103233D
@  #07 @067   ----------------------------------------
 .byte   W48
 .byte   N68 ,Bn3 ,v080
 .byte   W48
@  #07 @068   ----------------------------------------
 .byte   W24
 .byte   Gn3
 .byte   W72
@  #07 @069   ----------------------------------------
 .byte   En3
 .byte   W72
 .byte   Gn3
 .byte   W24
@  #07 @070   ----------------------------------------
 .byte   W96
@  #07 @071   ----------------------------------------
 .byte   PATT
  .word Label_01032331
@  #07 @072   ----------------------------------------
 .byte   PATT
  .word Label_0103233D
@  #07 @073   ----------------------------------------
 .byte   W48
 .byte   TIE ,Bn3 ,v068
 .byte   W48
@  #07 @074   ----------------------------------------
 .byte   W92
 .byte   W03
 .byte   EOT
 .byte   W01
@  #07 @075   ----------------------------------------
 .byte   TIE ,Gn3
 .byte   W96
@  #07 @076   ----------------------------------------
 .byte   W44
 .byte   W03
 .byte   EOT
 .byte   W48
 .byte   W01
@  #07 @077   ----------------------------------------
 .byte   W96
@  #07 @078   ----------------------------------------
 .byte   W96
@  #07 @079   ----------------------------------------
 .byte   W96
@  #07 @080   ----------------------------------------
 .byte   W24
 .byte   N68 ,En3 ,v080
 .byte   W72
@  #07 @081   ----------------------------------------
 .byte   PATT
  .word Label_01032361
@  #07 @082   ----------------------------------------
 .byte   W48
 .byte   TIE ,En3 ,v080
 .byte   W48
@  #07 @083   ----------------------------------------
 .byte   W80
 .byte   W03
 .byte   EOT
 .byte   W13
@  #07 @084   ----------------------------------------
 .byte   W96
@  #07 @085   ----------------------------------------
 .byte   W96
@  #07 @086   ----------------------------------------
 .byte   W24
 .byte   N68 ,En3 ,v068
 .byte   N68 ,An3
 .byte   W72
@  #07 @087   ----------------------------------------
 .byte   Dn3
 .byte   N68 ,Gn3
 .byte   W72
 .byte   N68
 .byte   N68 ,Cn4
 .byte   W24
@  #07 @088   ----------------------------------------
 .byte   W48
 .byte   TIE ,En3
 .byte   TIE ,An3
 .byte   W48
@  #07 @089   ----------------------------------------
 .byte   W96
@  #07 @090   ----------------------------------------
 .byte   W96
@  #07 @091   ----------------------------------------
 .byte   W23
 .byte   EOT
 .byte   En3 ,v069
 .byte   W72
 .byte   W01
@  #07 @092   ----------------------------------------
 .byte   W96
@  #07 @093   ----------------------------------------
 .byte   W96
@  #07 @094   ----------------------------------------
 .byte   W96
@  #07 @095   ----------------------------------------
 .byte   W96
@  #07 @096   ----------------------------------------
 .byte   W96
@  #07 @097   ----------------------------------------
 .byte   W72
 .byte   GOTO
  .word Label_010321BE
@  #07 @098   ----------------------------------------
 .byte   N11 ,En3 ,v080
 .byte   W12
 .byte   N11
 .byte   W12
@  #07 @099   ----------------------------------------
 .byte   PATT
  .word Label_01032289
@  #07 @100   ----------------------------------------
 .byte   PATT
  .word Label_0103229B
@  #07 @101   ----------------------------------------
 .byte   PATT
  .word Label_010322AD
@  #07 @102   ----------------------------------------
 .byte   PATT
  .word Label_010322BD
@  #07 @103   ----------------------------------------
 .byte   PATT
  .word Label_010322DE
@  #07 @104   ----------------------------------------
 .byte   PATT
  .word Label_01032325
@  #07 @105   ----------------------------------------
 .byte   W96
@  #07 @106   ----------------------------------------
 .byte   W96
@  #07 @107   ----------------------------------------
 .byte   W96
@  #07 @108   ----------------------------------------
 .byte   W96
@  #07 @109   ----------------------------------------
 .byte   W96
@  #07 @110   ----------------------------------------
 .byte   PATT
  .word Label_01032281
@  #07 @111   ----------------------------------------
 .byte   PATT
  .word Label_01032289
@  #07 @112   ----------------------------------------
 .byte   PATT
  .word Label_0103229B
@  #07 @113   ----------------------------------------
 .byte   PATT
  .word Label_010322AD
@  #07 @114   ----------------------------------------
 .byte   PATT
  .word Label_010322BD
@  #07 @115   ----------------------------------------
 .byte   PATT
  .word Label_010322DE
@  #07 @116   ----------------------------------------
 .byte   PATT
  .word Label_01032325
@  #07 @117   ----------------------------------------
 .byte   W96
@  #07 @118   ----------------------------------------
 .byte   W96
@  #07 @119   ----------------------------------------
 .byte   W96
@  #07 @120   ----------------------------------------
 .byte   W96
@  #07 @121   ----------------------------------------
 .byte   W96
@  #07 @122   ----------------------------------------
 .byte   W96
@  #07 @123   ----------------------------------------
 .byte   W96
@  #07 @124   ----------------------------------------
 .byte   W96
@  #07 @125   ----------------------------------------
 .byte   W96
@  #07 @126   ----------------------------------------
 .byte   W96
@  #07 @127   ----------------------------------------
 .byte   W96
@  #07 @128   ----------------------------------------
 .byte   W96
@  #07 @129   ----------------------------------------
 .byte   W96
@  #07 @130   ----------------------------------------
 .byte   PATT
  .word Label_0103224B
@  #07 @131   ----------------------------------------
 .byte   PATT
  .word Label_010321CC
@  #07 @132   ----------------------------------------
 .byte   PATT
  .word Label_010321DE
@  #07 @133   ----------------------------------------
 .byte   PATT
  .word Label_010321EE
@  #07 @134   ----------------------------------------
 .byte   PATT
  .word Label_0103220A
@  #07 @135   ----------------------------------------
 .byte   PATT
  .word Label_01032229
@  #07 @136   ----------------------------------------
 .byte   PATT
  .word Label_0103224B
@  #07 @137   ----------------------------------------
 .byte   PATT
  .word Label_010321CC
@  #07 @138   ----------------------------------------
 .byte   PATT
  .word Label_010321DE
@  #07 @139   ----------------------------------------
 .byte   PATT
  .word Label_010321EE
@  #07 @140   ----------------------------------------
 .byte   PATT
  .word Label_0103220A
@  #07 @141   ----------------------------------------
 .byte   PATT
  .word Label_01032229
@  #07 @142   ----------------------------------------
 .byte   W96
@  #07 @143   ----------------------------------------
Label_01032471:
 .byte   N11 ,An3 ,v080
 .byte   W12
 .byte   N11
 .byte   W12
 .byte   Gn3
 .byte   W12
 .byte   Cn4
 .byte   W12
 .byte   N68 ,An3
 .byte   W48
 .byte   PEND 
@  #07 @144   ----------------------------------------
 .byte   W24
 .byte   Cn4
 .byte   W72
@  #07 @145   ----------------------------------------
 .byte   En3
 .byte   W72
 .byte   Bn2
 .byte   W24
@  #07 @146   ----------------------------------------
 .byte   W48
 .byte   Gn2
 .byte   W48
@  #07 @147   ----------------------------------------
 .byte   W24
 .byte   Dn3
 .byte   W72
@  #07 @148   ----------------------------------------
 .byte   W96
@  #07 @149   ----------------------------------------
 .byte   PATT
  .word Label_01032471
@  #07 @150   ----------------------------------------
 .byte   W24
 .byte   N68 ,Cn4 ,v080
 .byte   W72
@  #07 @151   ----------------------------------------
Label_01032497:
 .byte   N68 ,Bn3 ,v080
 .byte   W72
 .byte   Gn3
 .byte   W24
 .byte   PEND 
@  #07 @152   ----------------------------------------
 .byte   W48
 .byte   Dn3
 .byte   W48
@  #07 @153   ----------------------------------------
 .byte   W24
 .byte   Gn3
 .byte   W72
@  #07 @154   ----------------------------------------
 .byte   W96
@  #07 @155   ----------------------------------------
 .byte   PATT
  .word Label_01032471
@  #07 @156   ----------------------------------------
 .byte   W24
 .byte   N68 ,Cn4 ,v080
 .byte   W72
@  #07 @157   ----------------------------------------
 .byte   PATT
  .word Label_01032497
@  #07 @158   ----------------------------------------
 .byte   W48
 .byte   N68 ,En3 ,v080
 .byte   W48
@  #07 @159   ----------------------------------------
 .byte   W24
 .byte   Gn3
 .byte   W72
@  #07 @160   ----------------------------------------
 .byte   W96
@  #07 @161   ----------------------------------------
 .byte   PATT
  .word Label_01032471
@  #07 @162   ----------------------------------------
 .byte   W24
 .byte   N68 ,Cn4 ,v080
 .byte   W72
@  #07 @163   ----------------------------------------
 .byte   TIE ,Bn3 ,v068
 .byte   W96
@  #07 @164   ----------------------------------------
 .byte   W44
 .byte   W03
 .byte   EOT
 .byte   W01
 .byte   TIE ,Gn3
 .byte   W48
@  #07 @165   ----------------------------------------
 .byte   W92
 .byte   W03
 .byte   EOT
 .byte   W01
@  #07 @166   ----------------------------------------
 .byte   W96
@  #07 @167   ----------------------------------------
 .byte   W96
@  #07 @168   ----------------------------------------
 .byte   W96
@  #07 @169   ----------------------------------------
 .byte   W72
 .byte   N68 ,En3 ,v080
 .byte   W24
@  #07 @170   ----------------------------------------
 .byte   W48
 .byte   Dn3
 .byte   W48
@  #07 @171   ----------------------------------------
 .byte   W24
 .byte   Gn3
 .byte   W72
@  #07 @172   ----------------------------------------
 .byte   TIE ,En3
 .byte   W96
@  #07 @173   ----------------------------------------
 .byte   W32
 .byte   W03
 .byte   EOT
 .byte   W60
 .byte   W01
@  #07 @174   ----------------------------------------
 .byte   W96
@  #07 @175   ----------------------------------------
 .byte   W72
 .byte   N68 ,En3 ,v068
 .byte   N68 ,An3
 .byte   W24
@  #07 @176   ----------------------------------------
 .byte   W48
 .byte   Dn3
 .byte   N68 ,Gn3
 .byte   W48
@  #07 @177   ----------------------------------------
 .byte   W24
 .byte   N68
 .byte   N68 ,Cn4
 .byte   W72
@  #07 @178   ----------------------------------------
 .byte   TIE ,En3
 .byte   TIE ,An3
 .byte   W96
@  #07 @179   ----------------------------------------
 .byte   W96
@  #07 @180   ----------------------------------------
 .byte   W68
 .byte   W03
 .byte   EOT
 .byte   En3 ,v069
 .byte   W24
 .byte   FINE

@**************** Track 8 (Midi-Chn.7) ****************@

song06_008:
@  #08 @000   ----------------------------------------
 .byte   KEYSH , song06_key+0
 .byte   VOICE , 1
 .byte   VOL , 7*song06_mvl/mxv
 .byte   PAN , c_v+20
 .byte   VOL , 7*song06_mvl/mxv
 .byte   PAN , c_v+20
 .byte   VOL , 7*song06_mvl/mxv
 .byte   PAN , c_v+20
 .byte   VOL , 7*song06_mvl/mxv
 .byte   PAN , c_v+20
 .byte   VOL , 7*song06_mvl/mxv
 .byte   PAN , c_v+20
 .byte   N23 ,An5 ,v052
 .byte   W36
 .byte   N11
 .byte   W12
 .byte   N23
 .byte   W36
 .byte   N11
 .byte   W12
@  #08 @001   ----------------------------------------
Label_01035A76:
 .byte   N23 ,An5 ,v052
 .byte   W36
 .byte   N11
 .byte   W12
 .byte   N23
 .byte   W36
 .byte   N11
 .byte   W12
 .byte   PEND 
@  #08 @002   ----------------------------------------
Label_01035A81:
 .byte   N23 ,An5 ,v052
 .byte   W36
 .byte   N11
 .byte   W12
 .byte   N23
 .byte   W36
 .byte   N11 ,Gn5
 .byte   W12
 .byte   PEND 
@  #08 @003   ----------------------------------------
 .byte   PATT
  .word Label_01035A76
@  #08 @004   ----------------------------------------
 .byte   PATT
  .word Label_01035A76
@  #08 @005   ----------------------------------------
 .byte   PATT
  .word Label_01035A76
@  #08 @006   ----------------------------------------
 .byte   PATT
  .word Label_01035A76
@  #08 @007   ----------------------------------------
 .byte   PATT
  .word Label_01035A76
@  #08 @008   ----------------------------------------
 .byte   PATT
  .word Label_01035A81
@  #08 @009   ----------------------------------------
 .byte   N07 ,An2 ,v080
 .byte   N23 ,An3 ,v052
 .byte   N23 ,En4
 .byte   N23 ,An5
 .byte   W24
Label_01035AB6:
 .byte   N05 ,En4 ,v052
 .byte   N11 ,Cn6
 .byte   W06
 .byte   N05 ,Dn4
 .byte   W06
 .byte   N11 ,En4
 .byte   N11 ,Cn6
 .byte   W12
 .byte   N03 ,Gn2 ,v080
 .byte   N11 ,Dn4 ,v052
 .byte   N11 ,An5
 .byte   W12
 .byte   N03 ,An2 ,v080
 .byte   N11 ,Gn4 ,v052
 .byte   N11 ,An5
 .byte   W12
 .byte   En4
 .byte   N11 ,An5
 .byte   W12
 .byte   N03 ,Gn2 ,v080
 .byte   N11 ,Dn4 ,v052
 .byte   N11 ,Gn5
 .byte   W12
@  #08 @010   ----------------------------------------
Label_01035AE3:
 .byte   N03 ,An2 ,v080
 .byte   N11 ,An3 ,v052
 .byte   N11 ,An5
 .byte   W12
 .byte   N03 ,An2 ,v080
 .byte   N11 ,An3 ,v052
 .byte   N11 ,En4
 .byte   N11 ,An5
 .byte   W24
 .byte   N03 ,Gn2 ,v080
 .byte   N11 ,Gn3 ,v052
 .byte   N11 ,Dn4
 .byte   N11 ,Gn5
 .byte   W12
 .byte   N07 ,An2 ,v080
 .byte   N23 ,An3 ,v052
 .byte   N23 ,En4
 .byte   N23 ,An5
 .byte   W24
 .byte   N05 ,En4
 .byte   N11 ,Cn6
 .byte   W06
 .byte   N05 ,Dn4
 .byte   W06
 .byte   N11 ,En4
 .byte   N11 ,Cn6
 .byte   W12
 .byte   PEND 
@  #08 @011   ----------------------------------------
 .byte   N03 ,Gn2 ,v080
 .byte   N11 ,Dn4 ,v052
 .byte   N11 ,An5
 .byte   W12
 .byte   N03 ,An2 ,v080
 .byte   N11 ,Gn4 ,v052
 .byte   N11 ,An5
 .byte   W12
 .byte   En4
 .byte   N11 ,Dn6
 .byte   W12
 .byte   N03 ,Gn2 ,v080
 .byte   N11 ,Dn4 ,v052
 .byte   N11 ,An5
 .byte   W12
 .byte   N03 ,An2 ,v080
 .byte   N11 ,An3 ,v052
 .byte   W12
 .byte   N03 ,Gn2 ,v080
 .byte   N32 ,En4 ,v052
 .byte   N11 ,An5
 .byte   W36
@  #08 @012   ----------------------------------------
 .byte   N07 ,An2 ,v080
 .byte   N23 ,An3 ,v060
 .byte   N23 ,En4
 .byte   N23 ,An5 ,v052
 .byte   W24
 .byte   N11 ,En4
 .byte   N11 ,Cn6
 .byte   W12
 .byte   En4
 .byte   N11 ,Cn6
 .byte   W12
 .byte   N03 ,Gn2 ,v080
 .byte   N11 ,Dn4 ,v052
 .byte   N11 ,An5
 .byte   W12
 .byte   N03 ,An2 ,v080
 .byte   N11 ,Gn4 ,v052
 .byte   N11 ,An5
 .byte   W12
 .byte   En4
 .byte   N11 ,An5
 .byte   W12
 .byte   N03 ,Gn2 ,v080
 .byte   N11 ,Dn4 ,v052
 .byte   N11 ,Gn5
 .byte   W12
@  #08 @013   ----------------------------------------
Label_01035B7E:
 .byte   N03 ,An2 ,v080
 .byte   N11 ,An3 ,v052
 .byte   N11 ,An5
 .byte   W12
 .byte   N03 ,An2 ,v080
 .byte   N11 ,An3 ,v052
 .byte   N11 ,En4
 .byte   N11 ,An5
 .byte   W24
 .byte   N03 ,Gn2 ,v080
 .byte   N11 ,Gn3 ,v052
 .byte   N11 ,Dn4
 .byte   N11 ,Gn5
 .byte   W12
 .byte   N07 ,An2 ,v080
 .byte   N23 ,An3 ,v052
 .byte   N23 ,En4
 .byte   N23 ,An5
 .byte   W24
 .byte   N11 ,En4
 .byte   N11 ,Cn6
 .byte   W12
 .byte   En4
 .byte   N11 ,Cn6
 .byte   W12
 .byte   PEND 
@  #08 @014   ----------------------------------------
 .byte   N03 ,Gn2 ,v080
 .byte   N11 ,Dn4 ,v052
 .byte   N11 ,An5
 .byte   W12
 .byte   N03 ,An2 ,v080
 .byte   N11 ,Gn4 ,v052
 .byte   N11 ,An5
 .byte   W12
 .byte   En4
 .byte   N11 ,An5
 .byte   W12
 .byte   N03 ,Gn2 ,v080
 .byte   N11 ,Dn4 ,v052
 .byte   N11 ,Gn5
 .byte   W12
 .byte   N03 ,An2 ,v080
 .byte   N11 ,An3 ,v052
 .byte   W12
 .byte   N03 ,Gn2 ,v080
 .byte   N32 ,En4 ,v052
 .byte   N11 ,An5
 .byte   W36
@  #08 @015   ----------------------------------------
Label_01035BE1:
 .byte   W60
 .byte   N11 ,An4 ,v052
 .byte   W12
 .byte   An4 ,v060
 .byte   W24
 .byte   PEND 
@  #08 @016   ----------------------------------------
 .byte   W96
@  #08 @017   ----------------------------------------
Label_01035BEB:
 .byte   W12
 .byte   N11 ,An4 ,v052
 .byte   W12
 .byte   An4 ,v060
 .byte   W72
 .byte   PEND 
@  #08 @018   ----------------------------------------
 .byte   W48
 .byte   An4 ,v052
 .byte   W12
 .byte   N11
 .byte   W12
 .byte   An4 ,v060
 .byte   W24
@  #08 @019   ----------------------------------------
 .byte   N23 ,Cn5 ,v052
 .byte   W24
 .byte   Bn4
 .byte   W24
 .byte   N11 ,An4
 .byte   W12
 .byte   N11
 .byte   W12
 .byte   N11
 .byte   W12
 .byte   N11
 .byte   W12
@  #08 @020   ----------------------------------------
 .byte   N11
 .byte   W12
 .byte   N11
 .byte   W12
 .byte   An4 ,v060
 .byte   W36
 .byte   N11
 .byte   W24
 .byte   Gn5 ,v052
 .byte   W12
@  #08 @021   ----------------------------------------
 .byte   N07 ,An2 ,v080
 .byte   N23 ,An3 ,v052
 .byte   N23 ,En4
 .byte   N23 ,An5
 .byte   W24
 .byte   N05 ,En4
 .byte   N11 ,Cn6
 .byte   W06
 .byte   N05 ,Dn4
 .byte   W06
 .byte   N11 ,En4
 .byte   N11 ,Cn6
 .byte   W12
 .byte   Dn4
 .byte   N11 ,An5
 .byte   W12
 .byte   Gn4
 .byte   N11 ,An5
 .byte   W12
 .byte   En4
 .byte   N11 ,Dn6
 .byte   W12
 .byte   N03 ,Gn2 ,v080
 .byte   N11 ,Dn4 ,v052
 .byte   N11 ,Gn5
 .byte   W12
@  #08 @022   ----------------------------------------
 .byte   PATT
  .word Label_01035AE3
@  #08 @023   ----------------------------------------
 .byte   N11 ,Dn4 ,v052
 .byte   N11 ,An5
 .byte   W12
 .byte   Gn4
 .byte   N11 ,An5
 .byte   W12
 .byte   En4
 .byte   N11 ,Dn6
 .byte   W12
 .byte   N03 ,Gn2 ,v080
 .byte   N11 ,Dn4 ,v052
 .byte   N11 ,An5
 .byte   W12
 .byte   N03 ,An2 ,v080
 .byte   N11 ,An3 ,v052
 .byte   W12
 .byte   N03 ,Gn2 ,v080
 .byte   N32 ,En4 ,v052
 .byte   N11 ,An5
 .byte   W36
@  #08 @024   ----------------------------------------
 .byte   N07 ,An2 ,v080
 .byte   N23 ,An3 ,v060
 .byte   N23 ,En4
 .byte   N23 ,An5 ,v052
 .byte   W24
 .byte   N11 ,En4
 .byte   N11 ,Cn6
 .byte   W12
 .byte   En4
 .byte   N11 ,Cn6
 .byte   W12
 .byte   Dn4
 .byte   N11 ,An5
 .byte   W12
 .byte   Gn4
 .byte   N11 ,An5
 .byte   W12
 .byte   En4
 .byte   N11 ,An5
 .byte   W12
 .byte   N03 ,Gn2 ,v080
 .byte   N11 ,Dn4 ,v052
 .byte   N11 ,Gn5
 .byte   W12
@  #08 @025   ----------------------------------------
 .byte   PATT
  .word Label_01035B7E
@  #08 @026   ----------------------------------------
 .byte   N11 ,Dn4 ,v052
 .byte   N11 ,An5
 .byte   W12
 .byte   Gn4
 .byte   N11 ,An5
 .byte   W12
 .byte   En4
 .byte   N11 ,An5
 .byte   W12
 .byte   N03 ,Gn2 ,v080
 .byte   N11 ,Dn4 ,v052
 .byte   N11 ,Gn5
 .byte   W12
 .byte   N03 ,An2 ,v080
 .byte   N11 ,An3 ,v052
 .byte   W12
 .byte   N03 ,Gn2 ,v080
 .byte   N32 ,En4 ,v052
 .byte   N11 ,An5
 .byte   W36
@  #08 @027   ----------------------------------------
 .byte   N44 ,An4
 .byte   N23 ,As5
 .byte   W24
 .byte   N23
 .byte   W24
 .byte   N11 ,An4
 .byte   N11 ,As5
 .byte   W12
 .byte   An4
 .byte   N11 ,As5
 .byte   W12
 .byte   An4
 .byte   N23 ,As5
 .byte   W24
@  #08 @028   ----------------------------------------
 .byte   N11 ,An4
 .byte   N23 ,As5
 .byte   W24
 .byte   N11 ,An4
 .byte   N23 ,As5
 .byte   W24
 .byte   Cs6
 .byte   W12
 .byte   N11 ,An4
 .byte   W12
 .byte   N11
 .byte   W12
 .byte   N11
 .byte   N11 ,An5
 .byte   W12
@  #08 @029   ----------------------------------------
 .byte   An4
 .byte   N11 ,Cs6
 .byte   W12
 .byte   An4
 .byte   N11 ,Cs6
 .byte   W12
 .byte   N68 ,An4
 .byte   N23 ,An5
 .byte   W24
 .byte   N23
 .byte   W24
 .byte   N11
 .byte   W12
 .byte   N11
 .byte   W12
@  #08 @030   ----------------------------------------
 .byte   N44 ,As4
 .byte   N23 ,As5
 .byte   W24
 .byte   N23
 .byte   W24
 .byte   N11 ,As4
 .byte   N11 ,As5
 .byte   W12
 .byte   As4
 .byte   N11 ,As5
 .byte   W12
 .byte   An4
 .byte   N23 ,An5
 .byte   W24
@  #08 @031   ----------------------------------------
 .byte   N11 ,An4
 .byte   N23 ,An5
 .byte   W24
 .byte   N11 ,An4
 .byte   N23 ,An5
 .byte   W24
 .byte   N23
 .byte   W12
 .byte   N11 ,An4
 .byte   W12
 .byte   N11
 .byte   N23 ,An5
 .byte   W12
 .byte   N11 ,An4
 .byte   W12
@  #08 @032   ----------------------------------------
 .byte   N11
 .byte   N11 ,An5
 .byte   W12
 .byte   An4
 .byte   N11 ,An5
 .byte   W12
 .byte   N68 ,An4
 .byte   N11 ,As5
 .byte   W12
 .byte   N11
 .byte   W12
 .byte   N23 ,An5
 .byte   W24
 .byte   As5
 .byte   W24
@  #08 @033   ----------------------------------------
 .byte   An4
 .byte   N23 ,An5
 .byte   W24
 .byte   An4
 .byte   W24
 .byte   N11
 .byte   N11 ,An5
 .byte   W12
 .byte   An4
 .byte   N11 ,An5
 .byte   W12
 .byte   Gs4
 .byte   N23 ,Gs5
 .byte   W24
@  #08 @034   ----------------------------------------
 .byte   N11 ,Gs4
 .byte   N23 ,Gs5
 .byte   W24
 .byte   N11 ,Gs4
 .byte   N23 ,Gs5
 .byte   W24
 .byte   N44 ,Gn4
 .byte   N23 ,Gn5
 .byte   W48
@  #08 @035   ----------------------------------------
 .byte   N11 ,Gn4
 .byte   N11 ,Gn5
 .byte   W12
 .byte   Gn4
 .byte   N11 ,Gn5
 .byte   W12
 .byte   An4
 .byte   N11 ,An5
 .byte   W24
 .byte   N23 ,Gn4
 .byte   N23 ,Gn5
 .byte   W24
 .byte   An4
 .byte   N23 ,An5
 .byte   W24
@  #08 @036   ----------------------------------------
 .byte   W12
 .byte   N11 ,En4
 .byte   N11 ,En5
 .byte   W12
 .byte   An4
 .byte   N11 ,An5
 .byte   W24
 .byte   En4
 .byte   N11 ,En5
 .byte   W12
 .byte   An4
 .byte   N11 ,An5
 .byte   W24
 .byte   Fn4
 .byte   N11 ,Fn5
 .byte   W12
@  #08 @037   ----------------------------------------
 .byte   As4
 .byte   N11 ,As5
 .byte   W24
 .byte   Fn4
 .byte   N11 ,Fn5
 .byte   W12
 .byte   As4
 .byte   N11 ,As5
 .byte   W12
 .byte   N68 ,An4
 .byte   N68 ,Bn4
 .byte   W48
@  #08 @038   ----------------------------------------
 .byte   W24
 .byte   N11 ,An4
 .byte   N11 ,Bn4
 .byte   W12
 .byte   An4
 .byte   N11 ,Bn4
 .byte   W12
 .byte   An4
 .byte   N11 ,Bn4
 .byte   W12
 .byte   An4
 .byte   N11 ,Bn4
 .byte   W12
 .byte   An4
 .byte   N11 ,Bn4
 .byte   W12
 .byte   An4
 .byte   N11 ,Bn4
 .byte   W12
@  #08 @039   ----------------------------------------
 .byte   N68 ,Gs4
 .byte   N68 ,Bn4
 .byte   W72
 .byte   N11 ,Gs4
 .byte   N11 ,Bn4
 .byte   W12
 .byte   Gs4
 .byte   N11 ,Bn4
 .byte   W12
@  #08 @040   ----------------------------------------
 .byte   Gs4
 .byte   N11 ,Bn4
 .byte   W12
 .byte   Gs4
 .byte   N11 ,Bn4
 .byte   W12
 .byte   Gs4
 .byte   N11 ,Bn4
 .byte   W12
 .byte   Gs4
 .byte   N11 ,Bn4
 .byte   N11 ,Bn5
 .byte   W12
 .byte   N07 ,An2 ,v080
 .byte   N23 ,An3 ,v052
 .byte   N23 ,En4
 .byte   N23 ,An5
 .byte   W24
 .byte   N05 ,En4
 .byte   N11 ,Cn6
 .byte   W06
 .byte   N05 ,Dn4
 .byte   W06
 .byte   N11 ,En4
 .byte   N11 ,Cn6
 .byte   W12
@  #08 @041   ----------------------------------------
Label_01035DF1:
 .byte   N11 ,Dn4 ,v052
 .byte   N11 ,An5
 .byte   W12
 .byte   Gn4
 .byte   N11 ,An5
 .byte   W12
 .byte   En4
 .byte   N11 ,Dn6
 .byte   W12
 .byte   N03 ,Gn2 ,v080
 .byte   N11 ,Dn4 ,v052
 .byte   N11 ,Gn5
 .byte   W12
 .byte   N03 ,An2 ,v080
 .byte   N11 ,An3 ,v052
 .byte   N11 ,An5
 .byte   W12
 .byte   N03 ,An2 ,v080
 .byte   N11 ,An3 ,v052
 .byte   N11 ,En4
 .byte   N11 ,An5
 .byte   W24
 .byte   N03 ,Gn2 ,v080
 .byte   N11 ,Gn3 ,v052
 .byte   N11 ,Dn4
 .byte   N11 ,Gn5
 .byte   W12
 .byte   PEND 
@  #08 @042   ----------------------------------------
Label_01035E28:
 .byte   N07 ,An2 ,v080
 .byte   N23 ,An3 ,v052
 .byte   N23 ,En4
 .byte   N23 ,An5
 .byte   W24
 .byte   N05 ,En4
 .byte   N11 ,Cn6
 .byte   W06
 .byte   N05 ,Dn4
 .byte   W06
 .byte   N11 ,En4
 .byte   N11 ,Cn6
 .byte   W12
 .byte   Dn4
 .byte   N11 ,An5
 .byte   W12
 .byte   Gn4
 .byte   N11 ,An5
 .byte   W12
 .byte   En4
 .byte   N11 ,Dn6
 .byte   W12
 .byte   N03 ,Gn2 ,v080
 .byte   N11 ,Dn4 ,v052
 .byte   N11 ,An5
 .byte   W12
 .byte   PEND 
@  #08 @043   ----------------------------------------
Label_01035E56:
 .byte   N03 ,An2 ,v080
 .byte   N11 ,An3 ,v052
 .byte   W12
 .byte   N03 ,Gn2 ,v080
 .byte   N32 ,En4 ,v052
 .byte   N11 ,An5
 .byte   W36
 .byte   N07 ,An2 ,v080
 .byte   N23 ,An3 ,v060
 .byte   N23 ,En4
 .byte   N23 ,An5 ,v052
 .byte   W24
 .byte   N11 ,En4
 .byte   N11 ,Cn6
 .byte   W12
 .byte   En4
 .byte   N11 ,Cn6
 .byte   W12
 .byte   PEND 
@  #08 @044   ----------------------------------------
 .byte   Dn4
 .byte   N11 ,An5
 .byte   W12
 .byte   Gn4
 .byte   N11 ,An5
 .byte   W12
 .byte   En4
 .byte   N11 ,An5
 .byte   W12
 .byte   N03 ,Gn2 ,v080
 .byte   N11 ,Dn4 ,v052
 .byte   N11 ,Gn5
 .byte   W12
 .byte   N03 ,An2 ,v080
 .byte   N11 ,An3 ,v052
 .byte   N11 ,An5
 .byte   W12
 .byte   N03 ,An2 ,v080
 .byte   N11 ,An3 ,v052
 .byte   N11 ,En4
 .byte   N11 ,An5
 .byte   W24
 .byte   N03 ,Gn2 ,v080
 .byte   N11 ,Gn3 ,v052
 .byte   N11 ,Dn4
 .byte   N11 ,Gn5
 .byte   W12
@  #08 @045   ----------------------------------------
 .byte   N07 ,An2 ,v080
 .byte   N23 ,An3 ,v052
 .byte   N23 ,En4
 .byte   N23 ,An5
 .byte   W24
 .byte   N11 ,En4
 .byte   N11 ,Cn6
 .byte   W12
 .byte   En4
 .byte   N11 ,Cn6
 .byte   W12
 .byte   Dn4
 .byte   N11 ,An5
 .byte   W12
 .byte   Gn4
 .byte   N11 ,An5
 .byte   W12
 .byte   En4
 .byte   N11 ,An5
 .byte   W12
 .byte   N03 ,Gn2 ,v080
 .byte   N11 ,Dn4 ,v052
 .byte   N11 ,Gn5
 .byte   W12
@  #08 @046   ----------------------------------------
 .byte   N03 ,An2 ,v080
 .byte   N11 ,An3 ,v052
 .byte   W12
 .byte   N03 ,Gn2 ,v080
 .byte   N32 ,En4 ,v052
 .byte   N11 ,An5
 .byte   W36
 .byte   N07 ,An2 ,v080
 .byte   N23 ,An3 ,v052
 .byte   N23 ,En4
 .byte   N23 ,An5
 .byte   W24
 .byte   N05 ,En4
 .byte   N11 ,Cn6
 .byte   W06
 .byte   N05 ,Dn4
 .byte   W06
 .byte   N11 ,En4
 .byte   N11 ,Cn6
 .byte   W12
@  #08 @047   ----------------------------------------
 .byte   PATT
  .word Label_01035DF1
@  #08 @048   ----------------------------------------
 .byte   N07 ,An2 ,v080
 .byte   N23 ,An3 ,v052
 .byte   N23 ,En4
 .byte   N23 ,An5
 .byte   W24
 .byte   N05 ,En4
 .byte   N11 ,Cn6
 .byte   W06
 .byte   N05 ,Dn4
 .byte   W06
 .byte   N11 ,En4
 .byte   N11 ,Cn6
 .byte   W12
 .byte   Dn4
 .byte   N11 ,An5
 .byte   W12
 .byte   Gn4
 .byte   N11 ,An5
 .byte   W12
 .byte   En4
 .byte   N11 ,Bn5
 .byte   W12
 .byte   N03 ,Gn2 ,v080
 .byte   N11 ,Dn4 ,v052
 .byte   N11 ,An5
 .byte   W12
@  #08 @049   ----------------------------------------
 .byte   N03 ,An2 ,v080
 .byte   N11 ,An3 ,v052
 .byte   N11 ,An5
 .byte   W12
 .byte   N03 ,Gn2 ,v080
 .byte   N32 ,En4 ,v052
 .byte   N11 ,Bn5
 .byte   W24
 .byte   N11
 .byte   W12
 .byte   N07 ,An2 ,v080
 .byte   N23 ,An3 ,v060
 .byte   N23 ,En4
 .byte   N23 ,An5 ,v052
 .byte   W24
 .byte   N11 ,En4
 .byte   N11 ,Cn6
 .byte   W12
 .byte   En4
 .byte   N11 ,Cn6
 .byte   W12
@  #08 @050   ----------------------------------------
 .byte   Dn4
 .byte   N11 ,An5
 .byte   W12
 .byte   Gn4
 .byte   N11 ,An5
 .byte   W12
 .byte   En4
 .byte   N11 ,Bn5
 .byte   W12
 .byte   N03 ,Gn2 ,v080
 .byte   N11 ,Dn4 ,v052
 .byte   N11 ,An5
 .byte   W12
 .byte   N03 ,An2 ,v080
 .byte   N11 ,An3 ,v052
 .byte   N11 ,An5
 .byte   W12
 .byte   N03 ,An2 ,v080
 .byte   N11 ,An3 ,v052
 .byte   N11 ,En4
 .byte   N11 ,Bn5
 .byte   W24
 .byte   N03 ,Gn2 ,v080
 .byte   N11 ,Gn3 ,v052
 .byte   N11 ,Dn4
 .byte   N11 ,Bn5
 .byte   W12
@  #08 @051   ----------------------------------------
 .byte   N07 ,An2 ,v080
 .byte   N23 ,An3 ,v052
 .byte   N23 ,En4
 .byte   N23 ,Dn6
 .byte   W24
 .byte   N11 ,En4
 .byte   N11 ,Cn6
 .byte   W12
 .byte   En4
 .byte   N11 ,Cn6
 .byte   W12
 .byte   Dn4
 .byte   N11 ,An5
 .byte   W12
 .byte   Gn4
 .byte   N11 ,An5
 .byte   W12
 .byte   En4
 .byte   N11 ,An5
 .byte   W12
 .byte   N03 ,Gn2 ,v080
 .byte   N11 ,Dn4 ,v052
 .byte   N11 ,Gn5
 .byte   W12
@  #08 @052   ----------------------------------------
 .byte   N03 ,An2 ,v080
 .byte   N11 ,An3 ,v052
 .byte   W12
 .byte   N03 ,Gn2 ,v080
 .byte   N32 ,En4 ,v052
 .byte   N11 ,An5
 .byte   W24
 .byte   Gn5
 .byte   W12
 .byte   Cn6 ,v080
 .byte   N11 ,Fn6
 .byte   N11 ,An6
 .byte   W12
 .byte   Cn6
 .byte   N11 ,Fn6
 .byte   N11 ,An6
 .byte   W12
 .byte   Cn6
 .byte   N11 ,En6
 .byte   N11 ,Gn6
 .byte   W12
 .byte   Cn6
 .byte   N11 ,En6
 .byte   N11 ,Gn6
 .byte   W12
@  #08 @053   ----------------------------------------
Label_01035FE4:
 .byte   N11 ,Cn6 ,v080
 .byte   N11 ,En6
 .byte   N11 ,Gn6
 .byte   W12
 .byte   Cn6
 .byte   N11 ,En6
 .byte   N11 ,Gn6
 .byte   W12
 .byte   En4 ,v052
 .byte   N11 ,Cn6 ,v080
 .byte   N11 ,En6
 .byte   N11 ,Gn6
 .byte   W12
 .byte   En4 ,v052
 .byte   N11 ,Cn6 ,v080
 .byte   N11 ,En6
 .byte   N11 ,Gn6
 .byte   W12
 .byte   En4 ,v052
 .byte   N11 ,Cn6 ,v080
 .byte   N11 ,En6
 .byte   N11 ,An6
 .byte   W12
 .byte   En4 ,v052
 .byte   N11 ,Dn6 ,v080
 .byte   N11 ,Fs6
 .byte   N11 ,An6
 .byte   W12
 .byte   En4 ,v052
 .byte   N11 ,Cn6 ,v080
 .byte   N11 ,En6
 .byte   N11 ,Gn6
 .byte   W12
 .byte   En4 ,v052
 .byte   N11 ,Cn6 ,v080
 .byte   N11 ,En6
 .byte   N11 ,Gn6
 .byte   W12
 .byte   PEND 
@  #08 @054   ----------------------------------------
Label_0103602F:
 .byte   N23 ,Cn4 ,v052
 .byte   N11 ,Dn6 ,v080
 .byte   N11 ,Fs6
 .byte   N11 ,An6
 .byte   W12
 .byte   Dn6
 .byte   N11 ,Fs6
 .byte   N11 ,An6
 .byte   W12
 .byte   Cn6
 .byte   N11 ,Gn6
 .byte   N11 ,Bn6
 .byte   W12
 .byte   Cn6
 .byte   N11 ,Gn6
 .byte   N11 ,Bn6
 .byte   W12
 .byte   Dn6
 .byte   N11 ,Gn6
 .byte   N11 ,As6
 .byte   W12
 .byte   Dn6
 .byte   N11 ,Gn6
 .byte   N11 ,As6
 .byte   W12
 .byte   Cn6
 .byte   N11 ,En6
 .byte   N11 ,Gn6
 .byte   W12
 .byte   Cn6
 .byte   N11 ,En6
 .byte   N11 ,Gn6
 .byte   W12
 .byte   PEND 
@  #08 @055   ----------------------------------------
Label_01036065:
 .byte   N11 ,Dn6 ,v080
 .byte   N11 ,Fs6
 .byte   N11 ,An6
 .byte   W12
 .byte   Dn6
 .byte   N11 ,Fs6
 .byte   N11 ,An6
 .byte   W12
 .byte   Cn6
 .byte   N11 ,En6
 .byte   N11 ,Gn6
 .byte   W12
 .byte   Cn6
 .byte   N11 ,En6
 .byte   N11 ,Gn6
 .byte   W12
 .byte   Bn5
 .byte   N11 ,En6
 .byte   N11 ,Fs6
 .byte   W12
 .byte   Bn5
 .byte   N11 ,En6
 .byte   N11 ,Fs6
 .byte   W12
 .byte   Bn5
 .byte   N11 ,En6
 .byte   N11 ,Gn6
 .byte   W12
 .byte   Bn5
 .byte   N11 ,En6
 .byte   N11 ,Gn6
 .byte   W12
 .byte   PEND 
@  #08 @056   ----------------------------------------
Label_01036098:
 .byte   N11 ,Bn5 ,v080
 .byte   N11 ,En6
 .byte   N11 ,Fs6
 .byte   W12
 .byte   Bn5
 .byte   N11 ,En6
 .byte   N11 ,Gn6
 .byte   W12
 .byte   En6
 .byte   N11 ,Gn6
 .byte   N11 ,Bn6
 .byte   W12
 .byte   Bn5
 .byte   N11 ,En6
 .byte   N11 ,Gn6
 .byte   W12
 .byte   Dn6
 .byte   N11 ,Fs6
 .byte   N11 ,Bn6
 .byte   W12
 .byte   Bn5
 .byte   N11 ,En6
 .byte   N11 ,Gn6
 .byte   W12
 .byte   Bn5
 .byte   N11 ,En6
 .byte   N11 ,Gn6
 .byte   N11 ,Bn6
 .byte   W12
 .byte   Gn6
 .byte   W12
 .byte   PEND 
@  #08 @057   ----------------------------------------
Label_010360C9:
 .byte   N11 ,Bn5 ,v080
 .byte   N11 ,En6
 .byte   N11 ,Fs6
 .byte   W12
 .byte   Bn5
 .byte   N11 ,En6
 .byte   N11 ,Fs6
 .byte   W12
 .byte   Bn5
 .byte   N11 ,En6
 .byte   N11 ,Gn6
 .byte   W12
 .byte   Bn5
 .byte   N11 ,En6
 .byte   N11 ,Gn6
 .byte   W12
 .byte   Bn5
 .byte   N11 ,En6
 .byte   N11 ,Fs6
 .byte   W12
 .byte   Bn5
 .byte   N11 ,En6
 .byte   N11 ,Gn6
 .byte   W12
 .byte   En6
 .byte   N11 ,Gn6
 .byte   N11 ,Bn6
 .byte   W12
 .byte   Bn5
 .byte   N11 ,En6
 .byte   N11 ,Gn6
 .byte   W12
 .byte   PEND 
@  #08 @058   ----------------------------------------
Label_010360FC:
 .byte   N11 ,Dn6 ,v080
 .byte   N11 ,Fs6
 .byte   N11 ,Bn6
 .byte   W12
 .byte   Bn5
 .byte   N11 ,En6
 .byte   N11 ,Gn6
 .byte   W12
 .byte   Bn5
 .byte   N11 ,En6
 .byte   N11 ,Gn6
 .byte   N11 ,Bn6
 .byte   W12
 .byte   Gn6
 .byte   W12
 .byte   Cn6
 .byte   N11 ,Fn6
 .byte   N11 ,An6
 .byte   W12
 .byte   Cn6
 .byte   N11 ,Fn6
 .byte   N11 ,An6
 .byte   W12
 .byte   Cn6
 .byte   N11 ,En6
 .byte   N11 ,Gn6
 .byte   W12
 .byte   Cn6
 .byte   N11 ,En6
 .byte   N11 ,Gn6
 .byte   W12
 .byte   PEND 
@  #08 @059   ----------------------------------------
 .byte   PATT
  .word Label_01035FE4
@  #08 @060   ----------------------------------------
 .byte   PATT
  .word Label_0103602F
@  #08 @061   ----------------------------------------
 .byte   PATT
  .word Label_01036065
@  #08 @062   ----------------------------------------
 .byte   PATT
  .word Label_01036098
@  #08 @063   ----------------------------------------
 .byte   PATT
  .word Label_010360C9
@  #08 @064   ----------------------------------------
 .byte   PATT
  .word Label_010360FC
@  #08 @065   ----------------------------------------
 .byte   PATT
  .word Label_01035FE4
@  #08 @066   ----------------------------------------
 .byte   PATT
  .word Label_0103602F
@  #08 @067   ----------------------------------------
 .byte   PATT
  .word Label_01036065
@  #08 @068   ----------------------------------------
 .byte   PATT
  .word Label_01036098
@  #08 @069   ----------------------------------------
 .byte   PATT
  .word Label_010360C9
@  #08 @070   ----------------------------------------
 .byte   PATT
  .word Label_010360FC
@  #08 @071   ----------------------------------------
 .byte   PATT
  .word Label_01035FE4
@  #08 @072   ----------------------------------------
 .byte   PATT
  .word Label_0103602F
@  #08 @073   ----------------------------------------
 .byte   N11 ,Dn6 ,v080
 .byte   N11 ,Fs6
 .byte   N11 ,An6
 .byte   W12
 .byte   Dn6
 .byte   N11 ,Fs6
 .byte   N11 ,An6
 .byte   W12
 .byte   Cn6
 .byte   N11 ,En6
 .byte   N11 ,Gn6
 .byte   W12
 .byte   Cn6
 .byte   N11 ,En6
 .byte   N11 ,Gn6
 .byte   W12
 .byte   An5
 .byte   N11 ,Cs6
 .byte   N11 ,Fs6
 .byte   W12
 .byte   An5
 .byte   N11 ,Cs6
 .byte   N11 ,Fs6
 .byte   W12
 .byte   As5
 .byte   N11 ,Cs6
 .byte   N11 ,Fs6
 .byte   W12
 .byte   As5
 .byte   N11 ,Cs6
 .byte   N11 ,Fs6
 .byte   W12
@  #08 @074   ----------------------------------------
 .byte   An5
 .byte   N11 ,Cs6
 .byte   N11 ,Fs6
 .byte   W12
 .byte   An5
 .byte   N11 ,Cs6
 .byte   N11 ,Gn6
 .byte   W12
 .byte   An5
 .byte   N11 ,Cs6
 .byte   N11 ,Fs6
 .byte   W12
 .byte   An5
 .byte   N11 ,Cs6
 .byte   N11 ,Fs6
 .byte   W12
 .byte   An5
 .byte   N11 ,Cs6
 .byte   N11 ,Fs6
 .byte   W12
 .byte   An5
 .byte   N11 ,Cs6
 .byte   N11 ,Fs6
 .byte   W12
 .byte   An5
 .byte   N11 ,Cs6
 .byte   N11 ,Fs6
 .byte   W12
 .byte   An5
 .byte   N11 ,Cs6
 .byte   N11 ,Gn6
 .byte   W12
@  #08 @075   ----------------------------------------
 .byte   As5
 .byte   N11 ,Cn6
 .byte   W12
 .byte   As5
 .byte   N11 ,Cn6
 .byte   N11 ,Fs6
 .byte   W12
 .byte   As5
 .byte   N11 ,Cn6
 .byte   W12
 .byte   As5
 .byte   N11 ,Cn6
 .byte   N11 ,Gn6
 .byte   W12
 .byte   As5
 .byte   N11 ,Cn6
 .byte   W12
 .byte   As5
 .byte   N11 ,Cn6
 .byte   N11 ,En6
 .byte   W12
 .byte   As5
 .byte   N11 ,Cn6
 .byte   W12
 .byte   As5
 .byte   N11 ,Cn6
 .byte   N11 ,Fs6
 .byte   W12
@  #08 @076   ----------------------------------------
 .byte   As5
 .byte   N11 ,Cn6
 .byte   N11 ,Fs6
 .byte   W12
 .byte   As5
 .byte   N11 ,Cn6
 .byte   N11 ,Gn6
 .byte   W12
 .byte   As5
 .byte   N11 ,Cn6
 .byte   W12
 .byte   As5
 .byte   N11 ,Cn6
 .byte   N11 ,En6
 .byte   N11 ,Gn6
 .byte   W60
@  #08 @077   ----------------------------------------
 .byte   W96
@  #08 @078   ----------------------------------------
 .byte   W96
@  #08 @079   ----------------------------------------
 .byte   W96
@  #08 @080   ----------------------------------------
 .byte   W96
@  #08 @081   ----------------------------------------
 .byte   W96
@  #08 @082   ----------------------------------------
 .byte   W36
 .byte   Gn5 ,v052
 .byte   W12
 .byte   N23 ,An5
 .byte   W48
@  #08 @083   ----------------------------------------
 .byte   W96
@  #08 @084   ----------------------------------------
 .byte   W96
@  #08 @085   ----------------------------------------
 .byte   W96
@  #08 @086   ----------------------------------------
 .byte   W96
@  #08 @087   ----------------------------------------
 .byte   W96
@  #08 @088   ----------------------------------------
 .byte   W96
@  #08 @089   ----------------------------------------
 .byte   W96
@  #08 @090   ----------------------------------------
 .byte   W96
@  #08 @091   ----------------------------------------
 .byte   W36
 .byte   N11 ,Gn5
 .byte   W12
 .byte   N23 ,An5
 .byte   W36
 .byte   N11
 .byte   W12
@  #08 @092   ----------------------------------------
 .byte   PATT
  .word Label_01035A76
@  #08 @093   ----------------------------------------
 .byte   PATT
  .word Label_01035A76
@  #08 @094   ----------------------------------------
 .byte   PATT
  .word Label_01035A76
@  #08 @095   ----------------------------------------
 .byte   PATT
  .word Label_01035A76
@  #08 @096   ----------------------------------------
 .byte   PATT
  .word Label_01035A76
@  #08 @097   ----------------------------------------
 .byte   N23 ,An5 ,v052
 .byte   W36
 .byte   N11 ,Gn5
 .byte   W12
 .byte   N07 ,An2 ,v080
 .byte   N23 ,An3 ,v052
 .byte   N23 ,En4
 .byte   N23 ,An5
 .byte   W24
 .byte   GOTO
  .word Label_01035AB6
@  #08 @098   ----------------------------------------
 .byte   N05 ,En4 ,v052
 .byte   N11 ,Cn6
 .byte   W06
 .byte   N05 ,Dn4
 .byte   W06
 .byte   N11 ,En4
 .byte   N11 ,Cn6
 .byte   W12
Label_01036270:
 .byte   N03 ,Gn2 ,v080
 .byte   N11 ,Dn4 ,v052
 .byte   N11 ,An5
 .byte   W12
 .byte   N03 ,An2 ,v080
 .byte   N11 ,Gn4 ,v052
 .byte   N11 ,An5
 .byte   W12
 .byte   En4
 .byte   N11 ,An5
 .byte   W12
 .byte   N03 ,Gn2 ,v080
 .byte   N11 ,Dn4 ,v052
 .byte   N11 ,Gn5
 .byte   W12
 .byte   N03 ,An2 ,v080
 .byte   N11 ,An3 ,v052
 .byte   N11 ,An5
 .byte   W12
 .byte   N03 ,An2 ,v080
 .byte   N11 ,An3 ,v052
 .byte   N11 ,En4
 .byte   N11 ,An5
 .byte   W24
@  #08 @099   ----------------------------------------
 .byte   N03 ,Gn2 ,v080
 .byte   N11 ,Gn3 ,v052
 .byte   N11 ,Dn4
 .byte   N11 ,Gn5
 .byte   W12
 .byte   PEND 
 .byte   N07 ,An2 ,v080
 .byte   N23 ,An3 ,v052
 .byte   N23 ,En4
 .byte   N23 ,An5
 .byte   W24
 .byte   N05 ,En4
 .byte   N11 ,Cn6
 .byte   W06
 .byte   N05 ,Dn4
 .byte   W06
 .byte   N11 ,En4
 .byte   N11 ,Cn6
 .byte   W12
 .byte   N03 ,Gn2 ,v080
 .byte   N11 ,Dn4 ,v052
 .byte   N11 ,An5
 .byte   W12
 .byte   N03 ,An2 ,v080
 .byte   N11 ,Gn4 ,v052
 .byte   N11 ,An5
 .byte   W12
 .byte   En4
 .byte   N11 ,Dn6
 .byte   W12
@  #08 @100   ----------------------------------------
 .byte   N03 ,Gn2 ,v080
 .byte   N11 ,Dn4 ,v052
 .byte   N11 ,An5
 .byte   W12
@  #08 @101   ----------------------------------------
 .byte   PATT
  .word Label_01035E56
@  #08 @102   ----------------------------------------
 .byte   PATT
  .word Label_01036270
@  #08 @103   ----------------------------------------
 .byte   N07 ,An2 ,v080
 .byte   N23 ,An3 ,v052
 .byte   N23 ,En4
 .byte   N23 ,An5
 .byte   W24
 .byte   N11 ,En4
 .byte   N11 ,Cn6
 .byte   W12
 .byte   En4
 .byte   N11 ,Cn6
 .byte   W12
 .byte   N03 ,Gn2 ,v080
 .byte   N11 ,Dn4 ,v052
 .byte   N11 ,An5
 .byte   W12
 .byte   N03 ,An2 ,v080
 .byte   N11 ,Gn4 ,v052
 .byte   N11 ,An5
 .byte   W12
 .byte   En4
 .byte   N11 ,An5
 .byte   W12
 .byte   N03 ,Gn2 ,v080
 .byte   N11 ,Dn4 ,v052
 .byte   N11 ,Gn5
 .byte   W12
@  #08 @104   ----------------------------------------
 .byte   N03 ,An2 ,v080
 .byte   N11 ,An3 ,v052
 .byte   W12
 .byte   N03 ,Gn2 ,v080
 .byte   N32 ,En4 ,v052
 .byte   N11 ,An5
 .byte   W84
@  #08 @105   ----------------------------------------
 .byte   PATT
  .word Label_01035BEB
@  #08 @106   ----------------------------------------
 .byte   PATT
  .word Label_01035BE1
@  #08 @107   ----------------------------------------
 .byte   W96
@  #08 @108   ----------------------------------------
 .byte   N11 ,An4 ,v052
 .byte   W12
 .byte   N11
 .byte   W12
 .byte   An4 ,v060
 .byte   W24
 .byte   N23 ,Cn5 ,v052
 .byte   W24
 .byte   Bn4
 .byte   W24
@  #08 @109   ----------------------------------------
 .byte   N11 ,An4
 .byte   W12
 .byte   N11
 .byte   W12
 .byte   N11
 .byte   W12
 .byte   N11
 .byte   W12
 .byte   N11
 .byte   W12
 .byte   N11
 .byte   W12
 .byte   An4 ,v060
 .byte   W24
@  #08 @110   ----------------------------------------
 .byte   W12
 .byte   N11
 .byte   W24
 .byte   Gn5 ,v052
 .byte   W12
 .byte   N07 ,An2 ,v080
 .byte   N23 ,An3 ,v052
 .byte   N23 ,En4
 .byte   N23 ,An5
 .byte   W24
 .byte   N05 ,En4
 .byte   N11 ,Cn6
 .byte   W06
 .byte   N05 ,Dn4
 .byte   W06
 .byte   N11 ,En4
 .byte   N11 ,Cn6
 .byte   W12
@  #08 @111   ----------------------------------------
 .byte   PATT
  .word Label_01035DF1
@  #08 @112   ----------------------------------------
 .byte   PATT
  .word Label_01035E28
@  #08 @113   ----------------------------------------
 .byte   PATT
  .word Label_01035E56
@  #08 @114   ----------------------------------------
 .byte   W96
@  #08 @115   ----------------------------------------
 .byte   W96
@  #08 @116   ----------------------------------------
 .byte   W96
@  #08 @117   ----------------------------------------
 .byte   W96
@  #08 @118   ----------------------------------------
 .byte   W96
@  #08 @119   ----------------------------------------
 .byte   W96
@  #08 @120   ----------------------------------------
 .byte   W96
@  #08 @121   ----------------------------------------
 .byte   W96
@  #08 @122   ----------------------------------------
 .byte   W96
@  #08 @123   ----------------------------------------
 .byte   W96
@  #08 @124   ----------------------------------------
 .byte   W96
@  #08 @125   ----------------------------------------
 .byte   W96
@  #08 @126   ----------------------------------------
 .byte   W96
@  #08 @127   ----------------------------------------
 .byte   W96
@  #08 @128   ----------------------------------------
 .byte   W96
@  #08 @129   ----------------------------------------
 .byte   W96
@  #08 @130   ----------------------------------------
 .byte   W96
@  #08 @131   ----------------------------------------
 .byte   W96
@  #08 @132   ----------------------------------------
 .byte   W96
@  #08 @133   ----------------------------------------
 .byte   W96
@  #08 @134   ----------------------------------------
 .byte   W96
@  #08 @135   ----------------------------------------
 .byte   W96
@  #08 @136   ----------------------------------------
 .byte   W96
@  #08 @137   ----------------------------------------
 .byte   W96
@  #08 @138   ----------------------------------------
 .byte   W96
@  #08 @139   ----------------------------------------
 .byte   W96
@  #08 @140   ----------------------------------------
 .byte   W96
@  #08 @141   ----------------------------------------
 .byte   W96
@  #08 @142   ----------------------------------------
 .byte   W96
@  #08 @143   ----------------------------------------
 .byte   W96
@  #08 @144   ----------------------------------------
 .byte   W96
@  #08 @145   ----------------------------------------
 .byte   W96
@  #08 @146   ----------------------------------------
 .byte   W96
@  #08 @147   ----------------------------------------
 .byte   W96
@  #08 @148   ----------------------------------------
 .byte   W96
@  #08 @149   ----------------------------------------
 .byte   W96
@  #08 @150   ----------------------------------------
 .byte   W96
@  #08 @151   ----------------------------------------
 .byte   W96
@  #08 @152   ----------------------------------------
 .byte   W96
@  #08 @153   ----------------------------------------
 .byte   W96
@  #08 @154   ----------------------------------------
 .byte   W96
@  #08 @155   ----------------------------------------
 .byte   W96
@  #08 @156   ----------------------------------------
 .byte   W96
@  #08 @157   ----------------------------------------
 .byte   W96
@  #08 @158   ----------------------------------------
 .byte   W96
@  #08 @159   ----------------------------------------
 .byte   W96
@  #08 @160   ----------------------------------------
 .byte   W96
@  #08 @161   ----------------------------------------
 .byte   W96
@  #08 @162   ----------------------------------------
 .byte   W96
@  #08 @163   ----------------------------------------
 .byte   W96
@  #08 @164   ----------------------------------------
 .byte   W96
@  #08 @165   ----------------------------------------
 .byte   W96
@  #08 @166   ----------------------------------------
 .byte   W96
@  #08 @167   ----------------------------------------
 .byte   W96
@  #08 @168   ----------------------------------------
 .byte   W96
@  #08 @169   ----------------------------------------
 .byte   W96
@  #08 @170   ----------------------------------------
 .byte   W96
@  #08 @171   ----------------------------------------
 .byte   W96
@  #08 @172   ----------------------------------------
 .byte   W96
@  #08 @173   ----------------------------------------
 .byte   W96
@  #08 @174   ----------------------------------------
 .byte   W96
@  #08 @175   ----------------------------------------
 .byte   W96
@  #08 @176   ----------------------------------------
 .byte   W96
@  #08 @177   ----------------------------------------
 .byte   W96
@  #08 @178   ----------------------------------------
 .byte   W96
@  #08 @179   ----------------------------------------
 .byte   W96
@  #08 @180   ----------------------------------------
 .byte   W92
 .byte   W03
 .byte   FINE

@**************** Track 9 (Midi-Chn.8) ****************@

song06_009:
@  #09 @000   ----------------------------------------
 .byte   KEYSH , song06_key+0
 .byte   VOICE , 121
 .byte   VOL , 47*song06_mvl/mxv
 .byte   PAN , c_v+0
 .byte   VOL , 47*song06_mvl/mxv
 .byte   PAN , c_v+0
 .byte   VOL , 47*song06_mvl/mxv
 .byte   PAN , c_v+0
 .byte   VOL , 47*song06_mvl/mxv
 .byte   PAN , c_v+0
 .byte   VOL , 47*song06_mvl/mxv
 .byte   PAN , c_v+0
 .byte   VOL , 47*song06_mvl/mxv
 .byte   PAN , c_v+0
 .byte   VOL , 47*song06_mvl/mxv
 .byte   PAN , c_v+0
 .byte   VOL , 47*song06_mvl/mxv
 .byte   PAN , c_v+0
 .byte   VOL , 47*song06_mvl/mxv
 .byte   PAN , c_v+0
 .byte   N23 ,Cs1 ,v080
 .byte   N11 ,En1 ,v064
 .byte   W12
 .byte   N11
 .byte   W12
 .byte   N11
 .byte   W12
 .byte   N11
 .byte   W24
 .byte   Dn1
 .byte   W12
 .byte   N11
 .byte   W12
 .byte   N11
 .byte   W12
@  #09 @001   ----------------------------------------
Label_0103C223:
 .byte   N11 ,Dn1 ,v064
 .byte   W12
 .byte   N11
 .byte   W24
 .byte   N11
 .byte   W12
 .byte   En1
 .byte   W12
 .byte   N11
 .byte   W12
 .byte   N11
 .byte   W12
 .byte   N11
 .byte   W12
 .byte   PEND 
@  #09 @002   ----------------------------------------
 .byte   W12
 .byte   Dn1
 .byte   W12
 .byte   N11
 .byte   N02 ,An2 ,v052
 .byte   W02
 .byte   N02
 .byte   W03
 .byte   N02
 .byte   W03
 .byte   N02
 .byte   W03
 .byte   N02
 .byte   W01
 .byte   N11 ,Dn1 ,v064
 .byte   W02
 .byte   N02 ,An2 ,v052
 .byte   W03
 .byte   N02
 .byte   W03
 .byte   An2 ,v056
 .byte   W03
 .byte   N02
 .byte   W01
 .byte   N11 ,Dn1 ,v064
 .byte   W02
 .byte   N02 ,An2 ,v056
 .byte   W03
 .byte   N02
 .byte   W03
 .byte   N02
 .byte   W03
 .byte   N02
 .byte   W01
 .byte   N11 ,Dn1 ,v064
 .byte   W02
 .byte   N02 ,An2 ,v056
 .byte   W03
 .byte   An2 ,v060
 .byte   W03
 .byte   N02
 .byte   W03
 .byte   N02
 .byte   W03
 .byte   N02
 .byte   W03
 .byte   N02
 .byte   W03
 .byte   N02
 .byte   W03
 .byte   An2 ,v064
 .byte   W01
 .byte   N11 ,Dn1
 .byte   W01
 .byte   N02 ,An2
 .byte   W03
 .byte   N02
 .byte   W03
 .byte   N02
 .byte   W05
@  #09 @003   ----------------------------------------
 .byte   N11 ,En1
 .byte   N23 ,Fs3
 .byte   W12
 .byte   N11 ,En1
 .byte   W12
 .byte   N11
 .byte   W12
 .byte   N11
 .byte   W24
 .byte   Dn1
 .byte   W12
 .byte   N11
 .byte   W12
 .byte   N11
 .byte   W12
@  #09 @004   ----------------------------------------
 .byte   PATT
  .word Label_0103C223
@  #09 @005   ----------------------------------------
Label_0103C29A:
 .byte   W12
 .byte   N11 ,Dn1 ,v064
 .byte   W12
 .byte   N11
 .byte   W12
 .byte   N11
 .byte   W12
 .byte   N11
 .byte   W12
 .byte   N11
 .byte   W24
 .byte   Cn1
 .byte   N11 ,Dn1
 .byte   W12
 .byte   PEND 
@  #09 @006   ----------------------------------------
 .byte   N23 ,Cn1
 .byte   N11 ,En1
 .byte   N23 ,An2
 .byte   N23 ,Fs3
 .byte   W12
 .byte   N11 ,En1
 .byte   W12
 .byte   N11
 .byte   W12
 .byte   N11
 .byte   W24
 .byte   Dn1
 .byte   W12
 .byte   N11
 .byte   W12
 .byte   N11
 .byte   W12
@  #09 @007   ----------------------------------------
 .byte   N11
 .byte   W12
 .byte   N11
 .byte   W24
 .byte   Cn1
 .byte   N11 ,Dn1
 .byte   W12
 .byte   N23 ,Cn1
 .byte   N11 ,En1
 .byte   W12
 .byte   N11
 .byte   W12
 .byte   N11
 .byte   W12
 .byte   N11
 .byte   W12
@  #09 @008   ----------------------------------------
 .byte   W12
 .byte   Dn1
 .byte   W12
 .byte   N11
 .byte   N02 ,An2 ,v052
 .byte   W02
 .byte   N02
 .byte   W03
 .byte   N02
 .byte   W03
 .byte   N02
 .byte   W03
 .byte   N02
 .byte   W01
 .byte   N11 ,Dn1 ,v064
 .byte   W02
 .byte   N02 ,An2 ,v052
 .byte   W03
 .byte   N02
 .byte   W03
 .byte   An2 ,v056
 .byte   W03
 .byte   N02
 .byte   W01
 .byte   N11 ,Dn1 ,v064
 .byte   W02
 .byte   N02 ,An2 ,v056
 .byte   W03
 .byte   N02
 .byte   W03
 .byte   N02
 .byte   W03
 .byte   N02
 .byte   W01
 .byte   N11 ,Dn1 ,v064
 .byte   N02 ,Fs3 ,v080
 .byte   W02
 .byte   An2 ,v056
 .byte   N02 ,Fs3 ,v080
 .byte   W03
 .byte   An2 ,v060
 .byte   N02 ,Fs3 ,v080
 .byte   W03
 .byte   An2 ,v060
 .byte   N02 ,Fs3 ,v080
 .byte   W03
 .byte   An2 ,v060
 .byte   N02 ,Fs3 ,v080
 .byte   W03
 .byte   An2 ,v060
 .byte   N02 ,Fs3 ,v080
 .byte   W03
 .byte   An2 ,v060
 .byte   N02 ,Fs3 ,v080
 .byte   W03
 .byte   An2 ,v060
 .byte   N02 ,Fs3 ,v080
 .byte   W03
 .byte   An2 ,v064
 .byte   N02 ,Fs3 ,v080
 .byte   W01
 .byte   N11 ,Dn1 ,v064
 .byte   W01
 .byte   N02 ,An2
 .byte   W01
 .byte   Fs3 ,v080
 .byte   W02
 .byte   An2 ,v064
 .byte   W01
 .byte   Fs3 ,v080
 .byte   W02
 .byte   An2 ,v064
 .byte   W01
 .byte   Fs3 ,v080
 .byte   W04
@  #09 @009   ----------------------------------------
 .byte   N23 ,Cn1 ,v064
 .byte   N23 ,Ds2
 .byte   N23 ,Cs3
 .byte   W12
 .byte   N11 ,Dn1
 .byte   W12
Label_0103C35A:
 .byte   N23 ,Cn1 ,v064
 .byte   N11 ,Cs3
 .byte   W12
 .byte   N11
 .byte   W12
 .byte   Cn1
 .byte   N11 ,Ds2
 .byte   W12
 .byte   Cn1
 .byte   N11 ,Ds2
 .byte   W12
 .byte   N23 ,Fs3 ,v080
 .byte   W12
 .byte   N11 ,Dn1 ,v064
 .byte   N11 ,Ds2
 .byte   W12
@  #09 @010   ----------------------------------------
Label_0103C374:
 .byte   N11 ,Ds2 ,v064
 .byte   N11 ,Cs3
 .byte   W12
 .byte   Ds2
 .byte   N11 ,Cn3
 .byte   W12
 .byte   Cn1
 .byte   W12
 .byte   N11
 .byte   W12
 .byte   N23
 .byte   N23 ,Ds2
 .byte   N23 ,Cs3
 .byte   W12
 .byte   N11 ,Dn1
 .byte   W12
 .byte   N23 ,Cn1
 .byte   N11 ,Cs3
 .byte   W12
 .byte   N11
 .byte   W12
 .byte   PEND 
@  #09 @011   ----------------------------------------
 .byte   Cn1
 .byte   N11 ,Ds2
 .byte   W12
 .byte   Cn1
 .byte   N11 ,Ds2
 .byte   W12
 .byte   N23 ,Fs3 ,v080
 .byte   W12
 .byte   N11 ,Dn1 ,v064
 .byte   N11 ,Ds2
 .byte   W12
 .byte   N23
 .byte   N11 ,Cs3
 .byte   W12
 .byte   Cn3
 .byte   W12
 .byte   N23 ,Cn1
 .byte   W24
@  #09 @012   ----------------------------------------
Label_0103C3AE:
 .byte   N23 ,Cn1 ,v064
 .byte   N23 ,Ds2
 .byte   N23 ,Cs3
 .byte   W12
 .byte   N11 ,Dn1
 .byte   W12
 .byte   N23 ,Cn1
 .byte   N11 ,Cs3
 .byte   W12
 .byte   N11
 .byte   W12
 .byte   Cn1
 .byte   N11 ,Ds2
 .byte   W12
 .byte   Cn1
 .byte   N11 ,Ds2
 .byte   W12
 .byte   N23 ,Fs3 ,v080
 .byte   W12
 .byte   N11 ,Dn1 ,v064
 .byte   N11 ,Ds2
 .byte   W12
 .byte   PEND 
@  #09 @013   ----------------------------------------
 .byte   PATT
  .word Label_0103C374
@  #09 @014   ----------------------------------------
 .byte   N11 ,Cn1 ,v064
 .byte   N11 ,Ds2
 .byte   W12
 .byte   Cn1
 .byte   N11 ,Ds2
 .byte   W12
 .byte   N23 ,Fs3 ,v080
 .byte   W12
 .byte   N11 ,Dn1 ,v064
 .byte   N11 ,Ds2
 .byte   W12
 .byte   N23
 .byte   N11 ,Cs3
 .byte   W12
 .byte   N02 ,An2 ,v052
 .byte   N11 ,Cn3 ,v064
 .byte   W02
 .byte   N02 ,An2 ,v052
 .byte   W03
 .byte   N02
 .byte   W03
 .byte   N02
 .byte   W03
 .byte   An2 ,v056
 .byte   W01
 .byte   N23 ,Cn1 ,v064
 .byte   W02
 .byte   N02 ,An2 ,v056
 .byte   W03
 .byte   N02
 .byte   W03
 .byte   An2 ,v060
 .byte   W03
 .byte   N02
 .byte   W03
 .byte   N02
 .byte   W03
 .byte   An2 ,v064
 .byte   W03
 .byte   N02
 .byte   W04
@  #09 @015   ----------------------------------------
 .byte   N23 ,Cn1
 .byte   N23 ,Cs1 ,v080
 .byte   N11 ,Dn1 ,v064
 .byte   W12
 .byte   N11
 .byte   W12
 .byte   N23 ,Cn1
 .byte   W12
 .byte   N11 ,Dn1
 .byte   W12
 .byte   Cn1
 .byte   N11 ,Dn1
 .byte   W12
 .byte   Cn1
 .byte   N11 ,Dn1
 .byte   W12
 .byte   N23 ,Fs3 ,v080
 .byte   W12
 .byte   N11 ,Dn1 ,v064
 .byte   W12
@  #09 @016   ----------------------------------------
Label_0103C439:
 .byte   N11 ,Dn1 ,v064
 .byte   W12
 .byte   N11
 .byte   W12
 .byte   Cn1
 .byte   W12
 .byte   N11
 .byte   W12
 .byte   N23
 .byte   N11 ,Dn1
 .byte   W12
 .byte   N11
 .byte   W12
 .byte   N23 ,Cn1
 .byte   W12
 .byte   N11 ,Dn1
 .byte   W12
 .byte   PEND 
@  #09 @017   ----------------------------------------
 .byte   Cn1
 .byte   N11 ,Dn1
 .byte   W12
 .byte   Cn1
 .byte   N11 ,Dn1
 .byte   W12
 .byte   N23 ,Fs3 ,v080
 .byte   W12
 .byte   N11 ,Dn1 ,v064
 .byte   W12
 .byte   N11
 .byte   W12
 .byte   N11
 .byte   W12
 .byte   N23 ,Cn1
 .byte   W24
@  #09 @018   ----------------------------------------
Label_0103C467:
 .byte   N23 ,Cn1 ,v064
 .byte   N11 ,Dn1
 .byte   W12
 .byte   N11
 .byte   W12
 .byte   N23 ,Cn1
 .byte   W12
 .byte   N11 ,Dn1
 .byte   W12
 .byte   Cn1
 .byte   N11 ,Dn1
 .byte   W12
 .byte   Cn1
 .byte   N11 ,Dn1
 .byte   W12
 .byte   N23 ,Fs3 ,v080
 .byte   W12
 .byte   N11 ,Dn1 ,v064
 .byte   W12
 .byte   PEND 
@  #09 @019   ----------------------------------------
 .byte   PATT
  .word Label_0103C439
@  #09 @020   ----------------------------------------
 .byte   N11 ,Cn1 ,v064
 .byte   N11 ,Dn1
 .byte   W12
 .byte   Cn1
 .byte   N11 ,Dn1
 .byte   W12
 .byte   N23 ,Fs3 ,v080
 .byte   W12
 .byte   N11 ,Dn1 ,v064
 .byte   W12
 .byte   N11
 .byte   W12
 .byte   N23 ,Cs1
 .byte   N11 ,Dn1
 .byte   N02 ,An2 ,v052
 .byte   N02 ,Fs3 ,v080
 .byte   W02
 .byte   An2 ,v052
 .byte   N02 ,Fs3 ,v080
 .byte   W03
 .byte   An2 ,v056
 .byte   N02 ,Fs3 ,v080
 .byte   W03
 .byte   An2 ,v056
 .byte   N02 ,Fs3 ,v080
 .byte   W03
 .byte   An2 ,v060
 .byte   N02 ,Fs3 ,v080
 .byte   W03
 .byte   An2 ,v064
 .byte   N02 ,Fs3 ,v080
 .byte   W03
 .byte   An2 ,v064
 .byte   N02 ,Fs3 ,v080
 .byte   W03
 .byte   An2 ,v068
 .byte   N02 ,Fs3 ,v080
 .byte   W03
 .byte   An2 ,v072
 .byte   N02 ,Fs3 ,v080
 .byte   W03
 .byte   An2 ,v072
 .byte   N02 ,Fs3 ,v080
 .byte   W03
 .byte   An2 ,v076
 .byte   N02 ,Fs3 ,v080
 .byte   W03
 .byte   An2
 .byte   N02 ,Fs3
 .byte   W04
@  #09 @021   ----------------------------------------
 .byte   N23 ,Cn1 ,v064
 .byte   N23 ,Ds2
 .byte   N23 ,Cs3
 .byte   W12
 .byte   N11 ,Dn1
 .byte   W12
 .byte   Cs3
 .byte   W12
 .byte   N11
 .byte   W12
 .byte   Cn1
 .byte   N11 ,Ds2
 .byte   W12
 .byte   Cn1
 .byte   N11 ,Ds2
 .byte   W12
 .byte   N23 ,Fs3 ,v080
 .byte   W12
 .byte   N11 ,Dn1 ,v064
 .byte   N11 ,Ds2
 .byte   W12
@  #09 @022   ----------------------------------------
Label_0103C50B:
 .byte   N11 ,Cn1 ,v064
 .byte   N11 ,Ds2
 .byte   N11 ,Cs3
 .byte   W12
 .byte   Cn1
 .byte   N11 ,Ds2
 .byte   N11 ,Cn3
 .byte   W12
 .byte   Cn1
 .byte   W12
 .byte   N11
 .byte   W12
 .byte   N23
 .byte   N23 ,Ds2
 .byte   N23 ,Cs3
 .byte   W12
 .byte   N11 ,Dn1
 .byte   W12
 .byte   Cs3
 .byte   W12
 .byte   N11
 .byte   W12
 .byte   PEND 
@  #09 @023   ----------------------------------------
 .byte   Cn1
 .byte   N11 ,Ds2
 .byte   W12
 .byte   Cn1
 .byte   N11 ,Ds2
 .byte   W12
 .byte   N23 ,Fs3 ,v080
 .byte   W12
 .byte   N11 ,Cn1 ,v064
 .byte   N11 ,Dn1
 .byte   N11 ,Ds2
 .byte   W12
 .byte   N23
 .byte   N11 ,Cs3
 .byte   W12
 .byte   Cn1
 .byte   N11 ,Cn3
 .byte   W24
 .byte   Cn1
 .byte   W12
@  #09 @024   ----------------------------------------
 .byte   N23
 .byte   N23 ,Ds2
 .byte   N23 ,An2 ,v080
 .byte   N23 ,Cs3 ,v064
 .byte   W12
 .byte   N11 ,Dn1
 .byte   W12
 .byte   Cs3
 .byte   W12
 .byte   N11
 .byte   W12
 .byte   Cn1
 .byte   N11 ,Ds2
 .byte   W12
 .byte   Cn1
 .byte   N11 ,Ds2
 .byte   W12
 .byte   N23 ,An2
 .byte   N23 ,Fs3 ,v080
 .byte   W12
 .byte   N11 ,Dn1 ,v064
 .byte   N11 ,Ds2
 .byte   W12
@  #09 @025   ----------------------------------------
 .byte   PATT
  .word Label_0103C50B
@  #09 @026   ----------------------------------------
 .byte   N11 ,Cn1 ,v064
 .byte   N11 ,Ds2
 .byte   W12
 .byte   Cn1
 .byte   N11 ,Ds2
 .byte   W12
 .byte   N23 ,Fs3 ,v080
 .byte   W12
 .byte   N11 ,Cn1 ,v064
 .byte   N11 ,Dn1
 .byte   N11 ,Ds2
 .byte   W12
 .byte   N23
 .byte   N11 ,Cs3
 .byte   W12
 .byte   Cn1
 .byte   N02 ,An2 ,v052
 .byte   N11 ,Cn3 ,v064
 .byte   W02
 .byte   N02 ,An2 ,v052
 .byte   W03
 .byte   An2 ,v056
 .byte   W03
 .byte   N02
 .byte   W03
 .byte   An2 ,v060
 .byte   W03
 .byte   An2 ,v064
 .byte   W03
 .byte   N02
 .byte   W03
 .byte   An2 ,v068
 .byte   W03
 .byte   An2 ,v072
 .byte   W03
 .byte   N02
 .byte   W03
 .byte   An2 ,v076
 .byte   W03
 .byte   An2 ,v080
 .byte   W04
@  #09 @027   ----------------------------------------
 .byte   N23 ,Cn1 ,v064
 .byte   N23 ,En1 ,v096
 .byte   W24
 .byte   Cn1 ,v064
 .byte   N23 ,Cs1
 .byte   W12
 .byte   N11 ,En1
 .byte   W12
 .byte   Cn1
 .byte   W12
 .byte   N11
 .byte   N11 ,Dn1
 .byte   W12
 .byte   N11
 .byte   N23 ,Fs3 ,v080
 .byte   W12
 .byte   N11 ,Dn1 ,v064
 .byte   W12
@  #09 @028   ----------------------------------------
 .byte   W12
 .byte   En1
 .byte   W12
 .byte   Cn1
 .byte   W12
 .byte   N11
 .byte   N11 ,Dn1
 .byte   W12
 .byte   N23 ,Cn1
 .byte   N11 ,Dn1
 .byte   W12
 .byte   N11
 .byte   W12
 .byte   N23 ,Cn1
 .byte   W12
 .byte   N11 ,En1
 .byte   W12
@  #09 @029   ----------------------------------------
 .byte   Cn1
 .byte   W12
 .byte   N11
 .byte   N11 ,Dn1
 .byte   W12
 .byte   N11
 .byte   N23 ,Fs3 ,v080
 .byte   W12
 .byte   N11 ,Dn1 ,v064
 .byte   W12
 .byte   En1
 .byte   W12
 .byte   N11
 .byte   W12
 .byte   Cn1
 .byte   W12
 .byte   N11
 .byte   N11 ,Dn1
 .byte   W12
@  #09 @030   ----------------------------------------
 .byte   N23 ,Cn1
 .byte   N23 ,Dn1
 .byte   W24
 .byte   Cn1
 .byte   N11 ,En1
 .byte   W24
 .byte   Cn1
 .byte   N11 ,En1
 .byte   W12
 .byte   Cn1
 .byte   W12
 .byte   Dn1
 .byte   N23 ,Fs3 ,v080
 .byte   W12
 .byte   N11 ,Dn1 ,v064
 .byte   W12
@  #09 @031   ----------------------------------------
 .byte   Dn1 ,v060
 .byte   W12
 .byte   N11
 .byte   W12
 .byte   Cn1 ,v064
 .byte   N11 ,Dn1 ,v056
 .byte   W12
 .byte   Cn1 ,v064
 .byte   N11 ,Dn1 ,v052
 .byte   W12
 .byte   N23 ,Cn1 ,v064
 .byte   N11 ,Dn1 ,v052
 .byte   W12
 .byte   N11
 .byte   W12
 .byte   N23 ,Cn1 ,v064
 .byte   N11 ,Dn1 ,v052
 .byte   W12
 .byte   N11
 .byte   W12
@  #09 @032   ----------------------------------------
 .byte   Cn1 ,v064
 .byte   N23 ,Dn1 ,v052
 .byte   W12
 .byte   N11 ,Cn1 ,v064
 .byte   W12
 .byte   Dn1 ,v052
 .byte   N23 ,Fs3 ,v080
 .byte   W12
 .byte   N11 ,Dn1 ,v052
 .byte   W36
 .byte   Cn1 ,v064
 .byte   W12
 .byte   N11
 .byte   N11 ,Dn1 ,v052
 .byte   W12
@  #09 @033   ----------------------------------------
 .byte   N23 ,Cn1 ,v064
 .byte   N12 ,En1 ,v096
 .byte   W12
 .byte   N11 ,En1 ,v064
 .byte   W12
 .byte   N23 ,Cn1
 .byte   W12
 .byte   N11 ,En1
 .byte   W12
 .byte   Cn1
 .byte   W12
 .byte   N11
 .byte   N11 ,En1
 .byte   W12
 .byte   Dn1
 .byte   N23 ,Fs3 ,v080
 .byte   W12
 .byte   N11 ,Dn1 ,v064
 .byte   W12
@  #09 @034   ----------------------------------------
 .byte   N11
 .byte   W12
 .byte   En1
 .byte   W12
 .byte   Cn1
 .byte   N23 ,Dn1
 .byte   W12
 .byte   N11 ,Cn1
 .byte   W12
 .byte   N23
 .byte   N11 ,Dn1
 .byte   W12
 .byte   N11
 .byte   W12
 .byte   N23 ,Cn1
 .byte   N11 ,Dn1
 .byte   W12
 .byte   En1
 .byte   W12
@  #09 @035   ----------------------------------------
 .byte   Cn1
 .byte   N11 ,Dn1
 .byte   W12
 .byte   Cn1
 .byte   N11 ,Dn1
 .byte   W12
 .byte   N11
 .byte   N23 ,Fs3 ,v080
 .byte   W12
 .byte   N11 ,Dn1 ,v064
 .byte   W12
 .byte   N11
 .byte   W12
 .byte   En1
 .byte   W12
 .byte   N23 ,Cn1
 .byte   W12
 .byte   N11 ,Dn1
 .byte   W12
@  #09 @036   ----------------------------------------
 .byte   N23 ,Cn1
 .byte   N11 ,Dn1
 .byte   W12
 .byte   N11
 .byte   W12
 .byte   N23 ,Cn1
 .byte   N11 ,Dn1
 .byte   W12
 .byte   En1
 .byte   W12
 .byte   Cn1
 .byte   N11 ,Dn1
 .byte   W12
 .byte   Cn1
 .byte   N11 ,Dn1
 .byte   W12
 .byte   N23
 .byte   N23 ,Fs3 ,v080
 .byte   W24
@  #09 @037   ----------------------------------------
 .byte   Dn1 ,v064
 .byte   N02 ,An2 ,v052
 .byte   W02
 .byte   N02
 .byte   W03
 .byte   N02
 .byte   W03
 .byte   An2 ,v056
 .byte   W03
 .byte   N02
 .byte   W03
 .byte   An2 ,v060
 .byte   W03
 .byte   N02
 .byte   W03
 .byte   An2 ,v064
 .byte   W03
 .byte   N02
 .byte   W01
 .byte   N11 ,Cn1
 .byte   W02
 .byte   N02 ,An2 ,v068
 .byte   W03
 .byte   N02
 .byte   W03
 .byte   An2 ,v072
 .byte   W03
 .byte   N02
 .byte   W01
 .byte   N11 ,Cn1 ,v064
 .byte   W02
 .byte   N02 ,An2 ,v076
 .byte   W03
 .byte   N02
 .byte   W03
 .byte   An2 ,v080
 .byte   W04
 .byte   N23 ,Cn1 ,v064
 .byte   N23 ,An2 ,v096
 .byte   W24
 .byte   Cn1 ,v064
 .byte   N11 ,Dn1
 .byte   W12
 .byte   N23 ,En1
 .byte   W12
@  #09 @038   ----------------------------------------
 .byte   N11 ,Cn1
 .byte   W12
 .byte   N11
 .byte   N11 ,Dn1
 .byte   W12
 .byte   N11
 .byte   N23 ,Fs3 ,v080
 .byte   W12
 .byte   N11 ,Dn1 ,v064
 .byte   W12
 .byte   N23 ,Cn1
 .byte   N11 ,Dn1
 .byte   W12
 .byte   N23 ,En1
 .byte   W12
 .byte   Cn1
 .byte   W12
 .byte   N11 ,Dn1
 .byte   W12
@  #09 @039   ----------------------------------------
 .byte   N11
 .byte   N23 ,An2
 .byte   W12
 .byte   N11 ,Dn1
 .byte   W12
 .byte   N23 ,Cs1
 .byte   N11 ,Dn1
 .byte   W12
 .byte   N23 ,En1
 .byte   W24
 .byte   N11 ,Dn1
 .byte   W12
 .byte   N11
 .byte   N23 ,Fs3 ,v080
 .byte   W12
 .byte   N11 ,Dn1 ,v064
 .byte   W12
@  #09 @040   ----------------------------------------
 .byte   N11
 .byte   W12
 .byte   N23 ,Cs1
 .byte   N23 ,En1
 .byte   N02 ,Fs3 ,v096
 .byte   W02
 .byte   N02
 .byte   W03
 .byte   N02
 .byte   W03
 .byte   N02
 .byte   W03
 .byte   N02
 .byte   W03
 .byte   N02
 .byte   W03
 .byte   N02
 .byte   W03
 .byte   N02
 .byte   W03
 .byte   N02
 .byte   W03
 .byte   N02
 .byte   W03
 .byte   N02
 .byte   W03
 .byte   N02
 .byte   W04
 .byte   N23 ,Cn1 ,v064
 .byte   N23 ,Ds2
 .byte   N23 ,An2 ,v096
 .byte   N23 ,Cs3 ,v064
 .byte   W12
 .byte   N11 ,Dn1
 .byte   W12
 .byte   N23 ,Cn1
 .byte   N11 ,Cs3
 .byte   W12
 .byte   N11
 .byte   W12
@  #09 @041   ----------------------------------------
Label_0103C777:
 .byte   N11 ,Cn1 ,v064
 .byte   N11 ,Ds2
 .byte   W12
 .byte   Cn1
 .byte   N11 ,Ds2
 .byte   W12
 .byte   N23 ,Fs3 ,v080
 .byte   W12
 .byte   N11 ,Dn1 ,v064
 .byte   N11 ,Ds2
 .byte   W12
 .byte   N11
 .byte   N11 ,Cs3
 .byte   W12
 .byte   Ds2
 .byte   N11 ,Cn3
 .byte   W12
 .byte   Cn1
 .byte   W12
 .byte   N11
 .byte   W12
 .byte   PEND 
@  #09 @042   ----------------------------------------
 .byte   PATT
  .word Label_0103C3AE
@  #09 @043   ----------------------------------------
 .byte   N23 ,Ds2 ,v064
 .byte   N11 ,Cs3
 .byte   W12
 .byte   Cn3
 .byte   W12
 .byte   Cn1
 .byte   W12
 .byte   N11
 .byte   W12
 .byte   N23
 .byte   N23 ,Ds2
 .byte   N23 ,Cs3
 .byte   W12
 .byte   N11 ,Dn1
 .byte   W12
 .byte   N23 ,Cn1
 .byte   N11 ,Cs3
 .byte   W12
 .byte   N11
 .byte   W12
@  #09 @044   ----------------------------------------
 .byte   PATT
  .word Label_0103C777
@  #09 @045   ----------------------------------------
 .byte   PATT
  .word Label_0103C3AE
@  #09 @046   ----------------------------------------
 .byte   N23 ,Ds2 ,v064
 .byte   N11 ,Cs3
 .byte   W12
 .byte   N02 ,An2 ,v052
 .byte   N11 ,Cn3 ,v064
 .byte   W02
 .byte   N02 ,An2 ,v052
 .byte   W03
 .byte   N02
 .byte   W03
 .byte   N02
 .byte   W03
 .byte   An2 ,v056
 .byte   W01
 .byte   N11 ,Cn1 ,v064
 .byte   W02
 .byte   N02 ,An2 ,v056
 .byte   W03
 .byte   N02
 .byte   W03
 .byte   An2 ,v060
 .byte   W03
 .byte   N02
 .byte   W01
 .byte   N11 ,Cn1 ,v064
 .byte   W02
 .byte   N02 ,An2 ,v060
 .byte   W03
 .byte   An2 ,v064
 .byte   W03
 .byte   N02
 .byte   W04
 .byte   N23 ,Cn1
 .byte   N11 ,Dn1 ,v080
 .byte   N23 ,Ds2 ,v064
 .byte   N23 ,Cs3
 .byte   W12
 .byte   N11 ,Dn1 ,v080
 .byte   W12
 .byte   N23 ,Cn1 ,v064
 .byte   N11 ,Cs3
 .byte   W12
 .byte   N11
 .byte   W12
@  #09 @047   ----------------------------------------
Label_0103C80E:
 .byte   N11 ,Cn1 ,v064
 .byte   N11 ,Ds2
 .byte   W12
 .byte   Cn1
 .byte   N11 ,Dn1 ,v080
 .byte   N11 ,Ds2 ,v064
 .byte   W12
 .byte   N23 ,Fs3 ,v080
 .byte   W12
 .byte   N11 ,Dn1
 .byte   N11 ,Ds2 ,v064
 .byte   W12
 .byte   Dn1 ,v080
 .byte   N11 ,Ds2 ,v064
 .byte   N11 ,Cs3
 .byte   W12
 .byte   Dn1 ,v080
 .byte   N11 ,Ds2 ,v064
 .byte   N11 ,Cn3
 .byte   W12
 .byte   Cn1
 .byte   W12
 .byte   N11
 .byte   W12
 .byte   PEND 
@  #09 @048   ----------------------------------------
 .byte   N23
 .byte   N11 ,Dn1 ,v080
 .byte   N23 ,Ds2 ,v064
 .byte   N23 ,Cs3
 .byte   W12
 .byte   N11 ,Dn1 ,v080
 .byte   W12
 .byte   N23 ,Cn1 ,v064
 .byte   N11 ,Cs3
 .byte   W12
 .byte   N11
 .byte   W12
 .byte   Cn1
 .byte   N11 ,Ds2
 .byte   W12
 .byte   Cn1
 .byte   N11 ,Dn1 ,v080
 .byte   N11 ,Ds2 ,v064
 .byte   W12
 .byte   N23 ,Fs3 ,v080
 .byte   W12
 .byte   N11 ,Dn1
 .byte   N11 ,Ds2 ,v064
 .byte   W12
@  #09 @049   ----------------------------------------
 .byte   Dn1 ,v080
 .byte   N23 ,Ds2 ,v064
 .byte   N11 ,Cs3
 .byte   W12
 .byte   Dn1 ,v080
 .byte   N11 ,Cn3 ,v064
 .byte   W12
 .byte   Cn1
 .byte   W12
 .byte   N11
 .byte   W12
 .byte   N23
 .byte   N11 ,Dn1 ,v080
 .byte   N23 ,Ds2 ,v064
 .byte   N23 ,Cs3
 .byte   W12
 .byte   N11 ,Dn1 ,v080
 .byte   W12
 .byte   N23 ,Cn1 ,v064
 .byte   N11 ,Cs3
 .byte   W12
 .byte   N11
 .byte   W12
@  #09 @050   ----------------------------------------
 .byte   PATT
  .word Label_0103C80E
@  #09 @051   ----------------------------------------
 .byte   N23 ,Cn1 ,v064
 .byte   N11 ,Dn1 ,v080
 .byte   N23 ,Ds2 ,v064
 .byte   N23 ,Cs3
 .byte   W12
 .byte   N11 ,Dn1 ,v080
 .byte   W12
 .byte   N23 ,Cn1 ,v064
 .byte   N11 ,Cs3
 .byte   W12
 .byte   N11
 .byte   W12
 .byte   Cn1
 .byte   N11 ,Ds2
 .byte   W12
 .byte   Cn1
 .byte   N11 ,Dn1 ,v080
 .byte   N11 ,Ds2 ,v064
 .byte   W12
 .byte   N23 ,Fs3 ,v080
 .byte   W12
 .byte   N11 ,Cn1 ,v064
 .byte   N11 ,Dn1 ,v080
 .byte   N11 ,Ds2 ,v064
 .byte   W12
@  #09 @052   ----------------------------------------
 .byte   Dn1 ,v080
 .byte   N23 ,Ds2 ,v064
 .byte   N11 ,Cs3
 .byte   W12
 .byte   Cn1
 .byte   N11 ,Dn1 ,v080
 .byte   N02 ,An2 ,v052
 .byte   N11 ,Cn3 ,v064
 .byte   W02
 .byte   N02 ,An2 ,v052
 .byte   W03
 .byte   N02
 .byte   W03
 .byte   N02
 .byte   W03
 .byte   An2 ,v056
 .byte   W01
 .byte   N23 ,Cn1 ,v064
 .byte   W02
 .byte   N02 ,An2 ,v056
 .byte   W03
 .byte   N02
 .byte   W03
 .byte   An2 ,v060
 .byte   W03
 .byte   N02
 .byte   W03
 .byte   N02
 .byte   W03
 .byte   An2 ,v064
 .byte   W03
 .byte   N02
 .byte   W04
 .byte   N23 ,Cn1
 .byte   N23 ,En1 ,v096
 .byte   N23 ,Fs3 ,v080
 .byte   W24
 .byte   N11 ,Dn1
 .byte   W12
 .byte   N11
 .byte   W12
@  #09 @053   ----------------------------------------
Label_0103C908:
 .byte   N11 ,Cn1 ,v064
 .byte   W12
 .byte   N11
 .byte   W12
 .byte   N23 ,Dn1 ,v080
 .byte   N23 ,Fs3
 .byte   W48
 .byte   N11 ,Cn1 ,v064
 .byte   W12
 .byte   N11
 .byte   W12
 .byte   PEND 
@  #09 @054   ----------------------------------------
Label_0103C91B:
 .byte   N23 ,Cn1 ,v064
 .byte   W24
 .byte   N11 ,Dn1 ,v080
 .byte   W12
 .byte   N11
 .byte   W12
 .byte   Cn1 ,v064
 .byte   W12
 .byte   N11
 .byte   W12
 .byte   N23 ,Dn1 ,v080
 .byte   N23 ,Fs3
 .byte   W24
 .byte   PEND 
@  #09 @055   ----------------------------------------
 .byte   W12
 .byte   Dn1
 .byte   W12
 .byte   N11 ,Cn1 ,v064
 .byte   W12
 .byte   N11
 .byte   W12
 .byte   N23
 .byte   W24
 .byte   N11 ,Dn1 ,v080
 .byte   W12
 .byte   N11
 .byte   W12
@  #09 @056   ----------------------------------------
 .byte   PATT
  .word Label_0103C908
@  #09 @057   ----------------------------------------
 .byte   PATT
  .word Label_0103C91B
@  #09 @058   ----------------------------------------
Label_0103C94C:
 .byte   W12
 .byte   N23 ,Dn1 ,v080
 .byte   W12
 .byte   N11 ,Cn1 ,v064
 .byte   W12
 .byte   N11
 .byte   W12
 .byte   N23
 .byte   N23 ,An2 ,v080
 .byte   W24
 .byte   N11 ,Dn1
 .byte   W12
 .byte   N11
 .byte   W12
 .byte   PEND 
@  #09 @059   ----------------------------------------
 .byte   PATT
  .word Label_0103C908
@  #09 @060   ----------------------------------------
 .byte   PATT
  .word Label_0103C91B
@  #09 @061   ----------------------------------------
 .byte   PATT
  .word Label_0103C94C
@  #09 @062   ----------------------------------------
 .byte   PATT
  .word Label_0103C908
@  #09 @063   ----------------------------------------
 .byte   PATT
  .word Label_0103C91B
@  #09 @064   ----------------------------------------
 .byte   N02 ,An2 ,v052
 .byte   W02
 .byte   N02
 .byte   W03
 .byte   N02
 .byte   W03
 .byte   N02
 .byte   W03
 .byte   N02
 .byte   W01
 .byte   N23 ,Dn1 ,v080
 .byte   W02
 .byte   N02 ,An2 ,v056
 .byte   W03
 .byte   N02
 .byte   W03
 .byte   N02
 .byte   W03
 .byte   N02
 .byte   W03
 .byte   An2 ,v060
 .byte   W03
 .byte   N02
 .byte   W03
 .byte   N02
 .byte   W03
 .byte   N02
 .byte   W03
 .byte   An2 ,v064
 .byte   W03
 .byte   N02
 .byte   W03
 .byte   N02
 .byte   W04
 .byte   N23 ,Cn1
 .byte   N23 ,En1 ,v096
 .byte   W24
 .byte   Cn1 ,v064
 .byte   N11 ,Dn1 ,v080
 .byte   W12
 .byte   N11
 .byte   W12
@  #09 @065   ----------------------------------------
 .byte   Cn1 ,v064
 .byte   W12
 .byte   N11
 .byte   W12
 .byte   N23 ,Dn1 ,v080
 .byte   N23 ,Fs3
 .byte   W24
 .byte   Cn1 ,v064
 .byte   W48
@  #09 @066   ----------------------------------------
Label_0103C9C1:
 .byte   N23 ,Cn1 ,v064
 .byte   W24
 .byte   N23
 .byte   N11 ,Dn1 ,v080
 .byte   W12
 .byte   N11
 .byte   W12
 .byte   Cn1 ,v064
 .byte   W12
 .byte   N11
 .byte   W12
 .byte   N23 ,Dn1 ,v080
 .byte   N23 ,Fs3
 .byte   W12
 .byte   N11 ,Cn1 ,v064
 .byte   W12
 .byte   PEND 
@  #09 @067   ----------------------------------------
 .byte   W12
 .byte   N11
 .byte   N23 ,Dn1 ,v080
 .byte   W60
 .byte   Cn1 ,v064
 .byte   N11 ,Dn1 ,v080
 .byte   W12
 .byte   N11
 .byte   W12
@  #09 @068   ----------------------------------------
Label_0103C9EA:
 .byte   N11 ,Cn1 ,v064
 .byte   W12
 .byte   N11
 .byte   W12
 .byte   N23 ,Dn1 ,v080
 .byte   N23 ,Fs3
 .byte   W24
 .byte   Cn1 ,v064
 .byte   W36
 .byte   N11
 .byte   W12
 .byte   PEND 
@  #09 @069   ----------------------------------------
 .byte   PATT
  .word Label_0103C9C1
@  #09 @070   ----------------------------------------
 .byte   W12
 .byte   N11 ,Cn1 ,v064
 .byte   N23 ,Dn1 ,v080
 .byte   W36
 .byte   An2
 .byte   W24
 .byte   Cn1 ,v064
 .byte   N11 ,Dn1 ,v080
 .byte   W12
 .byte   N11
 .byte   W12
@  #09 @071   ----------------------------------------
 .byte   PATT
  .word Label_0103C9EA
@  #09 @072   ----------------------------------------
 .byte   PATT
  .word Label_0103C9C1
@  #09 @073   ----------------------------------------
 .byte   N02 ,An2 ,v052
 .byte   W02
 .byte   N02
 .byte   W03
 .byte   N02
 .byte   W03
 .byte   N02
 .byte   W03
 .byte   N02
 .byte   W01
 .byte   N11 ,Cn1 ,v064
 .byte   N23 ,Dn1 ,v080
 .byte   W02
 .byte   N02 ,An2 ,v056
 .byte   W03
 .byte   N02
 .byte   W03
 .byte   N02
 .byte   W03
 .byte   N02
 .byte   W03
 .byte   An2 ,v060
 .byte   W03
 .byte   N02
 .byte   W03
 .byte   N02
 .byte   W03
 .byte   N02
 .byte   W03
 .byte   An2 ,v064
 .byte   W03
 .byte   N02
 .byte   W03
 .byte   N02
 .byte   W28
 .byte   N23 ,Cn1
 .byte   N11 ,Dn1 ,v080
 .byte   W12
 .byte   N11
 .byte   W12
@  #09 @074   ----------------------------------------
 .byte   PATT
  .word Label_0103C9EA
@  #09 @075   ----------------------------------------
 .byte   N23 ,Cn1 ,v064
 .byte   W24
 .byte   N23
 .byte   N11 ,Dn1 ,v080
 .byte   W12
 .byte   N11
 .byte   W12
 .byte   Cn1 ,v064
 .byte   W12
 .byte   N11
 .byte   W12
 .byte   N23 ,Dn1 ,v080
 .byte   N23 ,Fs3
 .byte   W24
@  #09 @076   ----------------------------------------
 .byte   N02 ,An2 ,v052
 .byte   W02
 .byte   N02
 .byte   W03
 .byte   N02
 .byte   W03
 .byte   An2 ,v056
 .byte   W03
 .byte   N02
 .byte   W01
 .byte   N23 ,Dn1 ,v080
 .byte   W02
 .byte   N02 ,An2 ,v060
 .byte   W03
 .byte   N02
 .byte   W03
 .byte   An2 ,v064
 .byte   W03
 .byte   N02
 .byte   W03
 .byte   An2 ,v068
 .byte   W03
 .byte   N02
 .byte   W03
 .byte   An2 ,v072
 .byte   W03
 .byte   N02
 .byte   W03
 .byte   An2 ,v076
 .byte   W03
 .byte   N02
 .byte   W03
 .byte   An2 ,v080
 .byte   W04
 .byte   N23 ,Cs1
 .byte   N11 ,Dn1
 .byte   W12
 .byte   N11
 .byte   W24
 .byte   N11
 .byte   W12
@  #09 @077   ----------------------------------------
Label_0103CAA4:
 .byte   W12
 .byte   N11 ,Dn1 ,v080
 .byte   W12
 .byte   N11
 .byte   W12
 .byte   N11
 .byte   W24
 .byte   N11
 .byte   W24
 .byte   N11
 .byte   W12
 .byte   PEND 
@  #09 @078   ----------------------------------------
Label_0103CAB2:
 .byte   N11 ,Dn1 ,v080
 .byte   W12
 .byte   N11
 .byte   W24
 .byte   N11
 .byte   W24
 .byte   N11
 .byte   W12
 .byte   N11
 .byte   W12
 .byte   N11
 .byte   W12
 .byte   PEND 
@  #09 @079   ----------------------------------------
Label_0103CAC1:
 .byte   W12
 .byte   N11 ,Dn1 ,v080
 .byte   W24
 .byte   N11
 .byte   W12
 .byte   N11
 .byte   N23 ,En1 ,v096
 .byte   W12
 .byte   N11 ,Dn1 ,v080
 .byte   W24
 .byte   N11
 .byte   W12
 .byte   PEND 
@  #09 @080   ----------------------------------------
 .byte   PATT
  .word Label_0103CAA4
@  #09 @081   ----------------------------------------
 .byte   N11 ,Dn1 ,v080
 .byte   W12
 .byte   N11
 .byte   W24
 .byte   N11
 .byte   W24
 .byte   N11
 .byte   W12
 .byte   N11
 .byte   N02 ,An2 ,v052
 .byte   W02
 .byte   N02
 .byte   W03
 .byte   N02
 .byte   W03
 .byte   N02
 .byte   W03
 .byte   An2 ,v056
 .byte   W01
 .byte   N11 ,Dn1 ,v080
 .byte   W02
 .byte   N02 ,An2 ,v056
 .byte   W03
 .byte   N02
 .byte   W03
 .byte   An2 ,v060
 .byte   W03
 .byte   N02
 .byte   W01
@  #09 @082   ----------------------------------------
 .byte   W02
 .byte   N02
 .byte   W03
 .byte   An2 ,v064
 .byte   W03
 .byte   N02
 .byte   W03
 .byte   N02
 .byte   W01
 .byte   N11 ,Dn1 ,v080
 .byte   W02
 .byte   N02 ,An2 ,v068
 .byte   W03
 .byte   N02
 .byte   W03
 .byte   N02
 .byte   W03
 .byte   An2 ,v072
 .byte   W03
 .byte   N02
 .byte   W03
 .byte   N02
 .byte   W03
 .byte   An2 ,v076
 .byte   W03
 .byte   N02
 .byte   W01
 .byte   N11 ,Dn1 ,v080
 .byte   W01
 .byte   N02 ,An2 ,v076
 .byte   W03
 .byte   N02
 .byte   W03
 .byte   An2 ,v080
 .byte   W05
 .byte   N23 ,Cs1
 .byte   N11 ,Dn1
 .byte   W12
 .byte   N11
 .byte   W24
 .byte   N11
 .byte   W12
@  #09 @083   ----------------------------------------
 .byte   PATT
  .word Label_0103CAA4
@  #09 @084   ----------------------------------------
 .byte   PATT
  .word Label_0103CAB2
@  #09 @085   ----------------------------------------
 .byte   PATT
  .word Label_0103CAC1
@  #09 @086   ----------------------------------------
 .byte   PATT
  .word Label_0103CAA4
@  #09 @087   ----------------------------------------
 .byte   PATT
  .word Label_0103CAB2
@  #09 @088   ----------------------------------------
 .byte   W12
 .byte   N11 ,Dn1 ,v080
 .byte   W24
 .byte   N11
 .byte   W12
 .byte   N23 ,Cs1
 .byte   N11 ,Dn1
 .byte   N23 ,An2
 .byte   W12
 .byte   N11 ,Dn1
 .byte   W24
 .byte   N11
 .byte   W12
@  #09 @089   ----------------------------------------
 .byte   PATT
  .word Label_0103CAA4
@  #09 @090   ----------------------------------------
 .byte   PATT
  .word Label_0103CAB2
@  #09 @091   ----------------------------------------
 .byte   N02 ,An2 ,v052
 .byte   W02
 .byte   N02
 .byte   W03
 .byte   N02
 .byte   W03
 .byte   N02
 .byte   W03
 .byte   N02
 .byte   W01
 .byte   N11 ,Dn1 ,v080
 .byte   W02
 .byte   N02 ,An2 ,v056
 .byte   W03
 .byte   N02
 .byte   W03
 .byte   N02
 .byte   W03
 .byte   N02
 .byte   W03
 .byte   An2 ,v060
 .byte   W03
 .byte   N02
 .byte   W03
 .byte   N02
 .byte   W03
 .byte   N02
 .byte   W01
 .byte   N11 ,Dn1 ,v080
 .byte   W02
 .byte   N02 ,An2 ,v064
 .byte   W03
 .byte   N02
 .byte   W03
 .byte   N02
 .byte   W04
 .byte   N11 ,En1
 .byte   N23 ,Fs3
 .byte   W12
 .byte   N11 ,En1
 .byte   W12
 .byte   N11
 .byte   W12
 .byte   N11
 .byte   W12
@  #09 @092   ----------------------------------------
 .byte   W12
 .byte   Dn1
 .byte   W12
 .byte   N11
 .byte   W12
 .byte   N11
 .byte   W12
 .byte   N11
 .byte   W12
 .byte   N11
 .byte   W24
 .byte   N11
 .byte   W12
@  #09 @093   ----------------------------------------
 .byte   En1
 .byte   W12
 .byte   N11
 .byte   W12
 .byte   N11
 .byte   W12
 .byte   N11
 .byte   W24
 .byte   Dn1
 .byte   W12
 .byte   N11
 .byte   W12
 .byte   N11
 .byte   W12
@  #09 @094   ----------------------------------------
 .byte   N11
 .byte   W12
 .byte   N11
 .byte   W24
 .byte   Cn1
 .byte   N11 ,Dn1
 .byte   W12
 .byte   N23 ,Cn1
 .byte   N11 ,En1
 .byte   N23 ,An2
 .byte   N23 ,Fs3
 .byte   W12
 .byte   N11 ,En1
 .byte   W12
 .byte   N11
 .byte   W12
 .byte   N11
 .byte   W12
@  #09 @095   ----------------------------------------
 .byte   PATT
  .word Label_0103C29A
@  #09 @096   ----------------------------------------
 .byte   N23 ,Cn1 ,v064
 .byte   N11 ,En1
 .byte   W12
 .byte   N11
 .byte   W12
 .byte   N11
 .byte   W12
 .byte   N11
 .byte   W24
 .byte   Dn1
 .byte   W12
 .byte   N11
 .byte   N02 ,An2 ,v052
 .byte   W02
 .byte   N02
 .byte   W03
 .byte   N02
 .byte   W03
 .byte   N02
 .byte   W03
 .byte   N02
 .byte   W01
 .byte   N11 ,Dn1 ,v064
 .byte   W02
 .byte   N02 ,An2 ,v052
 .byte   W03
 .byte   N02
 .byte   W03
 .byte   An2 ,v056
 .byte   W03
 .byte   N02
 .byte   W01
@  #09 @097   ----------------------------------------
 .byte   N11 ,Dn1 ,v064
 .byte   W02
 .byte   N02 ,An2 ,v056
 .byte   W03
 .byte   N02
 .byte   W03
 .byte   N02
 .byte   W03
 .byte   N02
 .byte   W01
 .byte   N11 ,Dn1 ,v064
 .byte   N02 ,Fs3 ,v080
 .byte   W02
 .byte   An2 ,v056
 .byte   N02 ,Fs3 ,v080
 .byte   W03
 .byte   An2 ,v060
 .byte   N02 ,Fs3 ,v080
 .byte   W03
 .byte   An2 ,v060
 .byte   N02 ,Fs3 ,v080
 .byte   W03
 .byte   An2 ,v060
 .byte   N02 ,Fs3 ,v080
 .byte   W03
 .byte   An2 ,v060
 .byte   N02 ,Fs3 ,v080
 .byte   W03
 .byte   An2 ,v060
 .byte   N02 ,Fs3 ,v080
 .byte   W03
 .byte   An2 ,v060
 .byte   N02 ,Fs3 ,v080
 .byte   W03
 .byte   An2 ,v064
 .byte   N02 ,Fs3 ,v080
 .byte   W01
 .byte   N11 ,Dn1 ,v064
 .byte   W01
 .byte   N02 ,An2
 .byte   W01
 .byte   Fs3 ,v080
 .byte   W02
 .byte   An2 ,v064
 .byte   W01
 .byte   Fs3 ,v080
 .byte   W02
 .byte   An2 ,v064
 .byte   W01
 .byte   Fs3 ,v080
 .byte   W04
 .byte   N23 ,Cn1 ,v064
 .byte   N23 ,Ds2
 .byte   N23 ,Cs3
 .byte   W12
 .byte   N11 ,Dn1
 .byte   W12
 .byte   GOTO
  .word Label_0103C35A
@  #09 @098   ----------------------------------------
 .byte   N23 ,Cn1 ,v064
 .byte   N11 ,Cs3
 .byte   W12
 .byte   N11
 .byte   W12
@  #09 @099   ----------------------------------------
 .byte   PATT
  .word Label_0103C777
@  #09 @100   ----------------------------------------
 .byte   PATT
  .word Label_0103C3AE
@  #09 @101   ----------------------------------------
 .byte   N23 ,Ds2 ,v064
 .byte   N11 ,Cs3
 .byte   W12
 .byte   Cn3
 .byte   W12
 .byte   N23 ,Cn1
 .byte   W24
 .byte   N23
 .byte   N23 ,Ds2
 .byte   N23 ,Cs3
 .byte   W12
 .byte   N11 ,Dn1
 .byte   W12
 .byte   N23 ,Cn1
 .byte   N11 ,Cs3
 .byte   W12
 .byte   N11
 .byte   W12
@  #09 @102   ----------------------------------------
 .byte   PATT
  .word Label_0103C777
@  #09 @103   ----------------------------------------
 .byte   PATT
  .word Label_0103C3AE
@  #09 @104   ----------------------------------------
 .byte   N23 ,Ds2 ,v064
 .byte   N11 ,Cs3
 .byte   W12
 .byte   N02 ,An2 ,v052
 .byte   N11 ,Cn3 ,v064
 .byte   W02
 .byte   N02 ,An2 ,v052
 .byte   W03
 .byte   N02
 .byte   W03
 .byte   N02
 .byte   W03
 .byte   An2 ,v056
 .byte   W01
 .byte   N23 ,Cn1 ,v064
 .byte   W02
 .byte   N02 ,An2 ,v056
 .byte   W03
 .byte   N02
 .byte   W03
 .byte   An2 ,v060
 .byte   W03
 .byte   N02
 .byte   W03
 .byte   N02
 .byte   W03
 .byte   An2 ,v064
 .byte   W03
 .byte   N02
 .byte   W04
 .byte   N23 ,Cn1
 .byte   N23 ,Cs1 ,v080
 .byte   N11 ,Dn1 ,v064
 .byte   W12
 .byte   N11
 .byte   W12
 .byte   N23 ,Cn1
 .byte   W12
 .byte   N11 ,Dn1
 .byte   W12
@  #09 @105   ----------------------------------------
Label_0103CCEC:
 .byte   N11 ,Cn1 ,v064
 .byte   N11 ,Dn1
 .byte   W12
 .byte   Cn1
 .byte   N11 ,Dn1
 .byte   W12
 .byte   N23 ,Fs3 ,v080
 .byte   W12
 .byte   N11 ,Dn1 ,v064
 .byte   W12
 .byte   N11
 .byte   W12
 .byte   N11
 .byte   W12
 .byte   Cn1
 .byte   W12
 .byte   N11
 .byte   W12
 .byte   PEND 
@  #09 @106   ----------------------------------------
 .byte   PATT
  .word Label_0103C467
@  #09 @107   ----------------------------------------
 .byte   N11 ,Dn1 ,v064
 .byte   W12
 .byte   N11
 .byte   W12
 .byte   N23 ,Cn1
 .byte   W24
 .byte   N23
 .byte   N11 ,Dn1
 .byte   W12
 .byte   N11
 .byte   W12
 .byte   N23 ,Cn1
 .byte   W12
 .byte   N11 ,Dn1
 .byte   W12
@  #09 @108   ----------------------------------------
 .byte   PATT
  .word Label_0103CCEC
@  #09 @109   ----------------------------------------
 .byte   PATT
  .word Label_0103C467
@  #09 @110   ----------------------------------------
 .byte   N11 ,Dn1 ,v064
 .byte   W12
 .byte   N23 ,Cs1
 .byte   N11 ,Dn1
 .byte   N02 ,An2 ,v052
 .byte   N02 ,Fs3 ,v080
 .byte   W02
 .byte   An2 ,v052
 .byte   N02 ,Fs3 ,v080
 .byte   W03
 .byte   An2 ,v056
 .byte   N02 ,Fs3 ,v080
 .byte   W03
 .byte   An2 ,v056
 .byte   N02 ,Fs3 ,v080
 .byte   W03
 .byte   An2 ,v060
 .byte   N02 ,Fs3 ,v080
 .byte   W03
 .byte   An2 ,v064
 .byte   N02 ,Fs3 ,v080
 .byte   W03
 .byte   An2 ,v064
 .byte   N02 ,Fs3 ,v080
 .byte   W03
 .byte   An2 ,v068
 .byte   N02 ,Fs3 ,v080
 .byte   W03
 .byte   An2 ,v072
 .byte   N02 ,Fs3 ,v080
 .byte   W03
 .byte   An2 ,v072
 .byte   N02 ,Fs3 ,v080
 .byte   W03
 .byte   An2 ,v076
 .byte   N02 ,Fs3 ,v080
 .byte   W03
 .byte   An2
 .byte   N02 ,Fs3
 .byte   W04
 .byte   N23 ,Cn1 ,v064
 .byte   N23 ,Ds2
 .byte   N23 ,Cs3
 .byte   W12
 .byte   N11 ,Dn1
 .byte   W12
 .byte   Cs3
 .byte   W12
 .byte   N11
 .byte   W12
@  #09 @111   ----------------------------------------
 .byte   W96
@  #09 @112   ----------------------------------------
 .byte   W96
@  #09 @113   ----------------------------------------
 .byte   W96
@  #09 @114   ----------------------------------------
 .byte   W96
@  #09 @115   ----------------------------------------
 .byte   W96
@  #09 @116   ----------------------------------------
 .byte   W96
@  #09 @117   ----------------------------------------
 .byte   W96
@  #09 @118   ----------------------------------------
 .byte   W96
@  #09 @119   ----------------------------------------
 .byte   W96
@  #09 @120   ----------------------------------------
 .byte   W96
@  #09 @121   ----------------------------------------
 .byte   W96
@  #09 @122   ----------------------------------------
 .byte   W96
@  #09 @123   ----------------------------------------
 .byte   W96
@  #09 @124   ----------------------------------------
 .byte   W96
@  #09 @125   ----------------------------------------
 .byte   W96
@  #09 @126   ----------------------------------------
 .byte   W96
@  #09 @127   ----------------------------------------
 .byte   W96
@  #09 @128   ----------------------------------------
 .byte   W96
@  #09 @129   ----------------------------------------
 .byte   W96
@  #09 @130   ----------------------------------------
 .byte   W96
@  #09 @131   ----------------------------------------
 .byte   W96
@  #09 @132   ----------------------------------------
 .byte   W96
@  #09 @133   ----------------------------------------
 .byte   W96
@  #09 @134   ----------------------------------------
 .byte   W96
@  #09 @135   ----------------------------------------
 .byte   W96
@  #09 @136   ----------------------------------------
 .byte   W96
@  #09 @137   ----------------------------------------
 .byte   W96
@  #09 @138   ----------------------------------------
 .byte   W96
@  #09 @139   ----------------------------------------
 .byte   W96
@  #09 @140   ----------------------------------------
 .byte   W96
@  #09 @141   ----------------------------------------
 .byte   W96
@  #09 @142   ----------------------------------------
 .byte   W96
@  #09 @143   ----------------------------------------
 .byte   W96
@  #09 @144   ----------------------------------------
 .byte   W96
@  #09 @145   ----------------------------------------
 .byte   W96
@  #09 @146   ----------------------------------------
 .byte   W96
@  #09 @147   ----------------------------------------
 .byte   W96
@  #09 @148   ----------------------------------------
 .byte   W96
@  #09 @149   ----------------------------------------
 .byte   W96
@  #09 @150   ----------------------------------------
 .byte   W96
@  #09 @151   ----------------------------------------
 .byte   W96
@  #09 @152   ----------------------------------------
 .byte   W96
@  #09 @153   ----------------------------------------
 .byte   W96
@  #09 @154   ----------------------------------------
 .byte   W96
@  #09 @155   ----------------------------------------
 .byte   W96
@  #09 @156   ----------------------------------------
 .byte   W96
@  #09 @157   ----------------------------------------
 .byte   W96
@  #09 @158   ----------------------------------------
 .byte   W96
@  #09 @159   ----------------------------------------
 .byte   W96
@  #09 @160   ----------------------------------------
 .byte   W96
@  #09 @161   ----------------------------------------
 .byte   W96
@  #09 @162   ----------------------------------------
 .byte   W96
@  #09 @163   ----------------------------------------
 .byte   W96
@  #09 @164   ----------------------------------------
 .byte   W96
@  #09 @165   ----------------------------------------
 .byte   W96
@  #09 @166   ----------------------------------------
 .byte   W96
@  #09 @167   ----------------------------------------
 .byte   W96
@  #09 @168   ----------------------------------------
 .byte   W96
@  #09 @169   ----------------------------------------
 .byte   W96
@  #09 @170   ----------------------------------------
 .byte   W96
@  #09 @171   ----------------------------------------
 .byte   W96
@  #09 @172   ----------------------------------------
 .byte   W96
@  #09 @173   ----------------------------------------
 .byte   W96
@  #09 @174   ----------------------------------------
 .byte   W96
@  #09 @175   ----------------------------------------
 .byte   W96
@  #09 @176   ----------------------------------------
 .byte   W96
@  #09 @177   ----------------------------------------
 .byte   W96
@  #09 @178   ----------------------------------------
 .byte   W96
@  #09 @179   ----------------------------------------
 .byte   W96
@  #09 @180   ----------------------------------------
 .byte   W92
 .byte   W03
 .byte   FINE

@**************** Track 10 (Midi-Chn.9) ****************@

song06_010:
@  #10 @000   ----------------------------------------
 .byte   KEYSH , song06_key+0
 .byte   VOICE , 41
 .byte   VOL , 32*song06_mvl/mxv
 .byte   PAN , c_v+0
 .byte   W96
@  #10 @001   ----------------------------------------
 .byte   W96
@  #10 @002   ----------------------------------------
 .byte   W96
@  #10 @003   ----------------------------------------
Label_0103AF67:
 .byte   N11 ,An2 ,v080
 .byte   N11 ,En3
 .byte   W24
 .byte   An2
 .byte   N11 ,En3
 .byte   W24
 .byte   An2
 .byte   N11 ,En3
 .byte   W12
 .byte   An2
 .byte   N11 ,En3
 .byte   W24
 .byte   An2
 .byte   N11 ,En3
 .byte   W12
 .byte   PEND 
@  #10 @004   ----------------------------------------
Label_0103AF7E:
 .byte   N11 ,An2 ,v080
 .byte   N11 ,En3
 .byte   W12
 .byte   An2
 .byte   N11 ,En3
 .byte   W24
 .byte   An2
 .byte   N11 ,En3
 .byte   W12
 .byte   An2
 .byte   N11 ,En3
 .byte   W24
 .byte   An2
 .byte   N11 ,En3
 .byte   W24
 .byte   PEND 
@  #10 @005   ----------------------------------------
Label_0103AF95:
 .byte   N11 ,An2 ,v080
 .byte   N11 ,En3
 .byte   W12
 .byte   An2
 .byte   N11 ,En3
 .byte   W24
 .byte   An2
 .byte   N11 ,En3
 .byte   W12
 .byte   An2
 .byte   N11 ,En3
 .byte   W12
 .byte   An2
 .byte   N11 ,En3
 .byte   W36
 .byte   PEND 
@  #10 @006   ----------------------------------------
 .byte   PATT
  .word Label_0103AF67
@  #10 @007   ----------------------------------------
 .byte   PATT
  .word Label_0103AF7E
@  #10 @008   ----------------------------------------
 .byte   PATT
  .word Label_0103AF95
@  #10 @009   ----------------------------------------
 .byte   N11 ,An2 ,v080
 .byte   N11 ,En3
 .byte   W24
Label_0103AFC1:
 .byte   N11 ,An2 ,v080
 .byte   N11 ,En3
 .byte   W24
 .byte   An2
 .byte   N11 ,En3
 .byte   W12
 .byte   An2
 .byte   N11 ,En3
 .byte   W24
 .byte   An2
 .byte   N11 ,En3
 .byte   W12
@  #10 @010   ----------------------------------------
 .byte   PATT
  .word Label_0103AF7E
@  #10 @011   ----------------------------------------
 .byte   PATT
  .word Label_0103AF95
@  #10 @012   ----------------------------------------
 .byte   PATT
  .word Label_0103AF67
@  #10 @013   ----------------------------------------
 .byte   PATT
  .word Label_0103AF7E
@  #10 @014   ----------------------------------------
 .byte   PATT
  .word Label_0103AF95
@  #10 @015   ----------------------------------------
 .byte   W96
@  #10 @016   ----------------------------------------
 .byte   W96
@  #10 @017   ----------------------------------------
 .byte   W96
@  #10 @018   ----------------------------------------
 .byte   W96
@  #10 @019   ----------------------------------------
 .byte   W96
@  #10 @020   ----------------------------------------
 .byte   W96
@  #10 @021   ----------------------------------------
 .byte   PATT
  .word Label_0103AF67
@  #10 @022   ----------------------------------------
 .byte   PATT
  .word Label_0103AF7E
@  #10 @023   ----------------------------------------
 .byte   PATT
  .word Label_0103AF95
@  #10 @024   ----------------------------------------
 .byte   PATT
  .word Label_0103AF67
@  #10 @025   ----------------------------------------
 .byte   PATT
  .word Label_0103AF7E
@  #10 @026   ----------------------------------------
 .byte   PATT
  .word Label_0103AF95
@  #10 @027   ----------------------------------------
 .byte   W96
@  #10 @028   ----------------------------------------
 .byte   W96
@  #10 @029   ----------------------------------------
 .byte   W96
@  #10 @030   ----------------------------------------
 .byte   W96
@  #10 @031   ----------------------------------------
 .byte   W96
@  #10 @032   ----------------------------------------
 .byte   W96
@  #10 @033   ----------------------------------------
 .byte   W96
@  #10 @034   ----------------------------------------
 .byte   W96
@  #10 @035   ----------------------------------------
 .byte   W96
@  #10 @036   ----------------------------------------
 .byte   W96
@  #10 @037   ----------------------------------------
 .byte   W96
@  #10 @038   ----------------------------------------
 .byte   W96
@  #10 @039   ----------------------------------------
 .byte   W96
@  #10 @040   ----------------------------------------
Label_0103B01D:
 .byte   W48
 .byte   N11 ,An2 ,v080
 .byte   N11 ,En3
 .byte   W24
 .byte   An2
 .byte   N11 ,En3
 .byte   W24
 .byte   PEND 
@  #10 @041   ----------------------------------------
Label_0103B029:
 .byte   N11 ,An2 ,v080
 .byte   N11 ,En3
 .byte   W12
 .byte   An2
 .byte   N11 ,En3
 .byte   W24
 .byte   An2
 .byte   N11 ,En3
 .byte   W12
 .byte   An2
 .byte   N11 ,En3
 .byte   W12
 .byte   An2
 .byte   N11 ,En3
 .byte   W24
 .byte   An2
 .byte   N11 ,En3
 .byte   W12
 .byte   PEND 
@  #10 @042   ----------------------------------------
 .byte   PATT
  .word Label_0103AF67
@  #10 @043   ----------------------------------------
Label_0103B049:
 .byte   N11 ,An2 ,v080
 .byte   N11 ,En3
 .byte   W12
 .byte   An2
 .byte   N11 ,En3
 .byte   W36
 .byte   An2
 .byte   N11 ,En3
 .byte   W24
 .byte   An2
 .byte   N11 ,En3
 .byte   W24
 .byte   PEND 
@  #10 @044   ----------------------------------------
 .byte   PATT
  .word Label_0103B029
@  #10 @045   ----------------------------------------
 .byte   PATT
  .word Label_0103AF67
@  #10 @046   ----------------------------------------
 .byte   PATT
  .word Label_0103B049
@  #10 @047   ----------------------------------------
 .byte   PATT
  .word Label_0103B029
@  #10 @048   ----------------------------------------
 .byte   PATT
  .word Label_0103AF67
@  #10 @049   ----------------------------------------
 .byte   PATT
  .word Label_0103B049
@  #10 @050   ----------------------------------------
 .byte   PATT
  .word Label_0103B029
@  #10 @051   ----------------------------------------
 .byte   PATT
  .word Label_0103AF67
@  #10 @052   ----------------------------------------
 .byte   N11 ,An2 ,v080
 .byte   N11 ,En3
 .byte   W12
 .byte   An2
 .byte   N11 ,En3
 .byte   W36
 .byte   An2
 .byte   N11 ,Fn3
 .byte   W24
 .byte   An2
 .byte   N11 ,Fn3
 .byte   W24
@  #10 @053   ----------------------------------------
Label_0103B096:
 .byte   N11 ,An2 ,v080
 .byte   N11 ,Fn3
 .byte   W12
 .byte   An2
 .byte   N11 ,Fn3
 .byte   W24
 .byte   An2
 .byte   N11 ,Fn3
 .byte   W12
 .byte   An2
 .byte   N11 ,Fn3
 .byte   W12
 .byte   An2
 .byte   N11 ,Fn3
 .byte   W24
 .byte   An2
 .byte   N11 ,Fn3
 .byte   W12
 .byte   PEND 
@  #10 @054   ----------------------------------------
Label_0103B0B1:
 .byte   N11 ,An2 ,v080
 .byte   N11 ,Fn3
 .byte   W24
 .byte   An2
 .byte   N11 ,Fn3
 .byte   W24
 .byte   An2
 .byte   N11 ,Fn3
 .byte   W12
 .byte   An2
 .byte   N11 ,Fn3
 .byte   W24
 .byte   An2
 .byte   N11 ,Fn3
 .byte   W12
 .byte   PEND 
@  #10 @055   ----------------------------------------
Label_0103B0C8:
 .byte   N11 ,An2 ,v080
 .byte   N11 ,Fn3
 .byte   W12
 .byte   An2
 .byte   N11 ,Fn3
 .byte   W36
 .byte   Bn2
 .byte   N11 ,En3
 .byte   W24
 .byte   Bn2
 .byte   N11 ,En3
 .byte   W24
 .byte   PEND 
@  #10 @056   ----------------------------------------
Label_0103B0DB:
 .byte   N11 ,Bn2 ,v080
 .byte   N11 ,En3
 .byte   W12
 .byte   Bn2
 .byte   N11 ,En3
 .byte   W24
 .byte   Bn2
 .byte   N11 ,En3
 .byte   W12
 .byte   Bn2
 .byte   N11 ,En3
 .byte   W12
 .byte   Bn2
 .byte   N11 ,En3
 .byte   W24
 .byte   Bn2
 .byte   N11 ,En3
 .byte   W12
 .byte   PEND 
@  #10 @057   ----------------------------------------
Label_0103B0F6:
 .byte   N11 ,Bn2 ,v080
 .byte   N11 ,En3
 .byte   W24
 .byte   Bn2
 .byte   N11 ,En3
 .byte   W24
 .byte   Bn2
 .byte   N11 ,En3
 .byte   W12
 .byte   Bn2
 .byte   N11 ,En3
 .byte   W24
 .byte   Bn2
 .byte   N11 ,En3
 .byte   W12
 .byte   PEND 
@  #10 @058   ----------------------------------------
Label_0103B10D:
 .byte   N11 ,Bn2 ,v080
 .byte   N11 ,En3
 .byte   W12
 .byte   Bn2
 .byte   N11 ,En3
 .byte   W36
 .byte   An2
 .byte   N11 ,Fn3
 .byte   W24
 .byte   An2
 .byte   N11 ,Fn3
 .byte   W24
 .byte   PEND 
@  #10 @059   ----------------------------------------
 .byte   PATT
  .word Label_0103B096
@  #10 @060   ----------------------------------------
 .byte   PATT
  .word Label_0103B0B1
@  #10 @061   ----------------------------------------
 .byte   N11 ,An2 ,v080
 .byte   N11 ,Fn3
 .byte   W12
 .byte   An2
 .byte   N11 ,Fn3
 .byte   W36
 .byte   Bn2
 .byte   N11 ,Gn3
 .byte   W24
 .byte   Bn2
 .byte   N11 ,Gn3
 .byte   W24
@  #10 @062   ----------------------------------------
 .byte   Bn2
 .byte   N11 ,Gn3
 .byte   W12
 .byte   Bn2
 .byte   N11 ,Gn3
 .byte   W24
 .byte   Bn2
 .byte   N11 ,Gn3
 .byte   W12
 .byte   Bn2
 .byte   N11 ,Gn3
 .byte   W12
 .byte   Bn2
 .byte   N11 ,Gn3
 .byte   W24
 .byte   Bn2
 .byte   N11 ,Gn3
 .byte   W12
@  #10 @063   ----------------------------------------
Label_0103B154:
 .byte   N11 ,Bn2 ,v080
 .byte   N11 ,Gn3
 .byte   W24
 .byte   Bn2
 .byte   N11 ,Gn3
 .byte   W24
 .byte   Bn2
 .byte   N11 ,Gn3
 .byte   W12
 .byte   Bn2
 .byte   N11 ,Gn3
 .byte   W24
 .byte   Bn2
 .byte   N11 ,Gn3
 .byte   W12
 .byte   PEND 
@  #10 @064   ----------------------------------------
 .byte   Bn2
 .byte   N11 ,Gn3
 .byte   W12
 .byte   Bn2
 .byte   N11 ,Gn3
 .byte   W36
 .byte   An2
 .byte   N11 ,Fn3
 .byte   W24
 .byte   An2
 .byte   N11 ,Fn3
 .byte   W24
@  #10 @065   ----------------------------------------
 .byte   PATT
  .word Label_0103B096
@  #10 @066   ----------------------------------------
 .byte   PATT
  .word Label_0103B0B1
@  #10 @067   ----------------------------------------
 .byte   PATT
  .word Label_0103B0C8
@  #10 @068   ----------------------------------------
 .byte   PATT
  .word Label_0103B0DB
@  #10 @069   ----------------------------------------
 .byte   PATT
  .word Label_0103B0F6
@  #10 @070   ----------------------------------------
 .byte   PATT
  .word Label_0103B10D
@  #10 @071   ----------------------------------------
 .byte   PATT
  .word Label_0103B096
@  #10 @072   ----------------------------------------
 .byte   PATT
  .word Label_0103B0B1
@  #10 @073   ----------------------------------------
 .byte   N11 ,An2 ,v080
 .byte   N11 ,Fn3
 .byte   W12
 .byte   An2
 .byte   N11 ,Fn3
 .byte   W84
@  #10 @074   ----------------------------------------
 .byte   W96
@  #10 @075   ----------------------------------------
 .byte   W96
@  #10 @076   ----------------------------------------
 .byte   W96
@  #10 @077   ----------------------------------------
 .byte   W96
@  #10 @078   ----------------------------------------
 .byte   W96
@  #10 @079   ----------------------------------------
 .byte   W96
@  #10 @080   ----------------------------------------
 .byte   W96
@  #10 @081   ----------------------------------------
 .byte   W96
@  #10 @082   ----------------------------------------
 .byte   W96
@  #10 @083   ----------------------------------------
 .byte   W96
@  #10 @084   ----------------------------------------
 .byte   W96
@  #10 @085   ----------------------------------------
 .byte   W96
@  #10 @086   ----------------------------------------
 .byte   W96
@  #10 @087   ----------------------------------------
 .byte   W96
@  #10 @088   ----------------------------------------
 .byte   W96
@  #10 @089   ----------------------------------------
 .byte   W96
@  #10 @090   ----------------------------------------
 .byte   W96
@  #10 @091   ----------------------------------------
 .byte   PATT
  .word Label_0103B01D
@  #10 @092   ----------------------------------------
 .byte   PATT
  .word Label_0103B029
@  #10 @093   ----------------------------------------
 .byte   PATT
  .word Label_0103AF67
@  #10 @094   ----------------------------------------
 .byte   PATT
  .word Label_0103B049
@  #10 @095   ----------------------------------------
 .byte   PATT
  .word Label_0103B029
@  #10 @096   ----------------------------------------
 .byte   PATT
  .word Label_0103AF67
@  #10 @097   ----------------------------------------
 .byte   N11 ,An2 ,v080
 .byte   N11 ,En3
 .byte   W12
 .byte   An2
 .byte   N11 ,En3
 .byte   W36
 .byte   An2
 .byte   N11 ,En3
 .byte   W24
 .byte   GOTO
  .word Label_0103AFC1
@  #10 @098   ----------------------------------------
 .byte   N11 ,An2 ,v080
 .byte   N11 ,En3
 .byte   W24
@  #10 @099   ----------------------------------------
 .byte   PATT
  .word Label_0103B029
@  #10 @100   ----------------------------------------
 .byte   PATT
  .word Label_0103AF67
@  #10 @101   ----------------------------------------
 .byte   PATT
  .word Label_0103B049
@  #10 @102   ----------------------------------------
 .byte   PATT
  .word Label_0103B029
@  #10 @103   ----------------------------------------
 .byte   PATT
  .word Label_0103AF67
@  #10 @104   ----------------------------------------
Label_0103B20E:
 .byte   N11 ,An2 ,v080
 .byte   N11 ,En3
 .byte   W12
 .byte   An2
 .byte   N11 ,En3
 .byte   W84
 .byte   PEND 
@  #10 @105   ----------------------------------------
 .byte   W96
@  #10 @106   ----------------------------------------
 .byte   W96
@  #10 @107   ----------------------------------------
 .byte   W96
@  #10 @108   ----------------------------------------
 .byte   W96
@  #10 @109   ----------------------------------------
 .byte   W96
@  #10 @110   ----------------------------------------
 .byte   PATT
  .word Label_0103B01D
@  #10 @111   ----------------------------------------
 .byte   PATT
  .word Label_0103B029
@  #10 @112   ----------------------------------------
 .byte   PATT
  .word Label_0103AF67
@  #10 @113   ----------------------------------------
 .byte   PATT
  .word Label_0103B049
@  #10 @114   ----------------------------------------
 .byte   PATT
  .word Label_0103B029
@  #10 @115   ----------------------------------------
 .byte   PATT
  .word Label_0103AF67
@  #10 @116   ----------------------------------------
 .byte   PATT
  .word Label_0103B20E
@  #10 @117   ----------------------------------------
 .byte   W96
@  #10 @118   ----------------------------------------
 .byte   W96
@  #10 @119   ----------------------------------------
 .byte   W96
@  #10 @120   ----------------------------------------
 .byte   W96
@  #10 @121   ----------------------------------------
 .byte   W96
@  #10 @122   ----------------------------------------
 .byte   W96
@  #10 @123   ----------------------------------------
 .byte   W96
@  #10 @124   ----------------------------------------
 .byte   W96
@  #10 @125   ----------------------------------------
 .byte   W96
@  #10 @126   ----------------------------------------
 .byte   W96
@  #10 @127   ----------------------------------------
 .byte   W96
@  #10 @128   ----------------------------------------
 .byte   W96
@  #10 @129   ----------------------------------------
 .byte   W96
@  #10 @130   ----------------------------------------
 .byte   PATT
  .word Label_0103AF67
@  #10 @131   ----------------------------------------
 .byte   PATT
  .word Label_0103AF7E
@  #10 @132   ----------------------------------------
 .byte   PATT
  .word Label_0103AF95
@  #10 @133   ----------------------------------------
 .byte   PATT
  .word Label_0103AF67
@  #10 @134   ----------------------------------------
 .byte   PATT
  .word Label_0103AF7E
@  #10 @135   ----------------------------------------
 .byte   PATT
  .word Label_0103AF95
@  #10 @136   ----------------------------------------
 .byte   PATT
  .word Label_0103AF67
@  #10 @137   ----------------------------------------
 .byte   PATT
  .word Label_0103AF7E
@  #10 @138   ----------------------------------------
 .byte   PATT
  .word Label_0103AF95
@  #10 @139   ----------------------------------------
 .byte   PATT
  .word Label_0103AF67
@  #10 @140   ----------------------------------------
 .byte   PATT
  .word Label_0103AF7E
@  #10 @141   ----------------------------------------
 .byte   PATT
  .word Label_0103AF95
@  #10 @142   ----------------------------------------
 .byte   PATT
  .word Label_0103B0B1
@  #10 @143   ----------------------------------------
Label_0103B28F:
 .byte   N11 ,An2 ,v080
 .byte   N11 ,Fn3
 .byte   W12
 .byte   An2
 .byte   N11 ,Fn3
 .byte   W24
 .byte   An2
 .byte   N11 ,Fn3
 .byte   W12
 .byte   An2
 .byte   N11 ,Fn3
 .byte   W24
 .byte   An2
 .byte   N11 ,Fn3
 .byte   W24
 .byte   PEND 
@  #10 @144   ----------------------------------------
Label_0103B2A6:
 .byte   N11 ,An2 ,v080
 .byte   N11 ,Fn3
 .byte   W12
 .byte   An2
 .byte   N11 ,Fn3
 .byte   W24
 .byte   An2
 .byte   N11 ,Fn3
 .byte   W12
 .byte   An2
 .byte   N11 ,Fn3
 .byte   W12
 .byte   An2
 .byte   N11 ,Fn3
 .byte   W36
 .byte   PEND 
@  #10 @145   ----------------------------------------
 .byte   PATT
  .word Label_0103B0F6
@  #10 @146   ----------------------------------------
Label_0103B2C2:
 .byte   N11 ,Bn2 ,v080
 .byte   N11 ,En3
 .byte   W12
 .byte   Bn2
 .byte   N11 ,En3
 .byte   W24
 .byte   Bn2
 .byte   N11 ,En3
 .byte   W12
 .byte   Bn2
 .byte   N11 ,En3
 .byte   W24
 .byte   Bn2
 .byte   N11 ,En3
 .byte   W24
 .byte   PEND 
@  #10 @147   ----------------------------------------
Label_0103B2D9:
 .byte   N11 ,Bn2 ,v080
 .byte   N11 ,En3
 .byte   W12
 .byte   Bn2
 .byte   N11 ,En3
 .byte   W24
 .byte   Bn2
 .byte   N11 ,En3
 .byte   W12
 .byte   Bn2
 .byte   N11 ,En3
 .byte   W12
 .byte   Bn2
 .byte   N11 ,En3
 .byte   W36
 .byte   PEND 
@  #10 @148   ----------------------------------------
 .byte   PATT
  .word Label_0103B0B1
@  #10 @149   ----------------------------------------
 .byte   PATT
  .word Label_0103B28F
@  #10 @150   ----------------------------------------
 .byte   PATT
  .word Label_0103B2A6
@  #10 @151   ----------------------------------------
 .byte   PATT
  .word Label_0103B154
@  #10 @152   ----------------------------------------
 .byte   N11 ,Bn2 ,v080
 .byte   N11 ,Gn3
 .byte   W12
 .byte   Bn2
 .byte   N11 ,Gn3
 .byte   W24
 .byte   Bn2
 .byte   N11 ,Gn3
 .byte   W12
 .byte   Bn2
 .byte   N11 ,Gn3
 .byte   W24
 .byte   Bn2
 .byte   N11 ,Gn3
 .byte   W24
@  #10 @153   ----------------------------------------
 .byte   Bn2
 .byte   N11 ,Gn3
 .byte   W12
 .byte   Bn2
 .byte   N11 ,Gn3
 .byte   W24
 .byte   Bn2
 .byte   N11 ,Gn3
 .byte   W12
 .byte   Bn2
 .byte   N11 ,Gn3
 .byte   W12
 .byte   Bn2
 .byte   N11 ,Gn3
 .byte   W36
@  #10 @154   ----------------------------------------
 .byte   PATT
  .word Label_0103B0B1
@  #10 @155   ----------------------------------------
 .byte   PATT
  .word Label_0103B28F
@  #10 @156   ----------------------------------------
 .byte   PATT
  .word Label_0103B2A6
@  #10 @157   ----------------------------------------
 .byte   PATT
  .word Label_0103B0F6
@  #10 @158   ----------------------------------------
 .byte   PATT
  .word Label_0103B2C2
@  #10 @159   ----------------------------------------
 .byte   PATT
  .word Label_0103B2D9
@  #10 @160   ----------------------------------------
 .byte   PATT
  .word Label_0103B0B1
@  #10 @161   ----------------------------------------
 .byte   PATT
  .word Label_0103B28F
@  #10 @162   ----------------------------------------
 .byte   PATT
  .word Label_0103B2A6
@  #10 @163   ----------------------------------------
 .byte   W96
@  #10 @164   ----------------------------------------
 .byte   W96
@  #10 @165   ----------------------------------------
 .byte   W96
@  #10 @166   ----------------------------------------
 .byte   W96
@  #10 @167   ----------------------------------------
 .byte   W96
@  #10 @168   ----------------------------------------
 .byte   W96
@  #10 @169   ----------------------------------------
 .byte   W96
@  #10 @170   ----------------------------------------
 .byte   W96
@  #10 @171   ----------------------------------------
 .byte   W96
@  #10 @172   ----------------------------------------
 .byte   W96
@  #10 @173   ----------------------------------------
 .byte   W96
@  #10 @174   ----------------------------------------
 .byte   W96
@  #10 @175   ----------------------------------------
 .byte   W96
@  #10 @176   ----------------------------------------
 .byte   W96
@  #10 @177   ----------------------------------------
 .byte   W96
@  #10 @178   ----------------------------------------
 .byte   W96
@  #10 @179   ----------------------------------------
 .byte   W96
@  #10 @180   ----------------------------------------
 .byte   W92
 .byte   W03
 .byte   FINE

@******************************************************@
	.align	2

song06:
	.byte	10	@ NumTrks
	.byte	0	@ NumBlks
	.byte	song06_pri	@ Priority
	.byte	song06_rev	@ Reverb.
    
	.word	song06_grp
    
	.word	song06_001
	.word	song06_002
	.word	song06_003
	.word	song06_004
	.word	song06_005
	.word	song06_006
	.word	song06_007
	.word	song06_008
	.word	song06_009
	.word	song06_010

	.end
