	.include "MPlayDef.s"

	.equ	song06_grp, voicegroup000
	.equ	song06_pri, 0
	.equ	song06_rev, 0
	.equ	song06_mvl, 127
	.equ	song06_key, 0
	.equ	song06_tbs, 1
	.equ	song06_exg, 0
	.equ	song06_cmp, 1

	.section .rodata
	.global	song06
	.align	2


@**************** Track 1 (Midi-Chn.0) ****************@

song06_001:
@  #01 @000   ----------------------------------------
 .byte   KEYSH , song06_key+0
 .byte   TEMPO , 204*song06_tbs/2
Label_01024A68:
 .byte   VOICE , 75
 .byte   BENDR, 12
 .byte   VOL , 45*song06_mvl/mxv
 .byte   N05 ,An1 ,v096
 .byte   W36
 .byte   An1
 .byte   W36
 .byte   An1
 .byte   W24
@  #01 @001   ----------------------------------------
Label_01024A76:
 .byte   W12
 .byte   N05 ,An1 ,v096
 .byte   W36
 .byte   An1
 .byte   W36
 .byte   An1
 .byte   W12
 .byte   PEND 
@  #01 @002   ----------------------------------------
Label_01024A80:
 .byte   W24
 .byte   N05 ,An1 ,v096
 .byte   W36
 .byte   An1
 .byte   W36
 .byte   PEND 
@  #01 @003   ----------------------------------------
Label_01024A88:
 .byte   N05 ,An1 ,v096
 .byte   W36
 .byte   An1
 .byte   W36
 .byte   An1
 .byte   W24
 .byte   PEND 
@  #01 @004   ----------------------------------------
 .byte   PATT
  .word Label_01024A76
@  #01 @005   ----------------------------------------
 .byte   PATT
  .word Label_01024A80
@  #01 @006   ----------------------------------------
 .byte   PATT
  .word Label_01024A88
@  #01 @007   ----------------------------------------
 .byte   PATT
  .word Label_01024A76
@  #01 @008   ----------------------------------------
 .byte   PATT
  .word Label_01024A80
@  #01 @009   ----------------------------------------
 .byte   N05 ,An1 ,v096
 .byte   W36
 .byte   An1
 .byte   W36
 .byte   N11 ,An4
 .byte   N05 ,An1
 .byte   W24
@  #01 @010   ----------------------------------------
 .byte   N11 ,An4
 .byte   W12
 .byte   Cn5
 .byte   N05 ,An1
 .byte   W12
 .byte   N11 ,An4
 .byte   W12
 .byte   Cn5
 .byte   W12
 .byte   An5
 .byte   N05 ,An1
 .byte   W12
 .byte   N11 ,En5
 .byte   W12
 .byte   Cn5
 .byte   W12
 .byte   An4
 .byte   N05 ,An1
 .byte   W12
@  #01 @011   ----------------------------------------
 .byte   W24
 .byte   N23 ,An4
 .byte   N05 ,An1
 .byte   W36
 .byte   An1
 .byte   W36
@  #01 @012   ----------------------------------------
Label_01024AD6:
 .byte   N05 ,Dn2 ,v096
 .byte   W36
 .byte   Dn2
 .byte   W36
 .byte   Dn2
 .byte   W24
 .byte   PEND 
@  #01 @013   ----------------------------------------
Label_01024ADF:
 .byte   W12
 .byte   N05 ,Dn2 ,v096
 .byte   W36
 .byte   Dn2
 .byte   W36
 .byte   Dn2
 .byte   W12
 .byte   PEND 
@  #01 @014   ----------------------------------------
Label_01024AE9:
 .byte   W24
 .byte   N05 ,Dn2 ,v096
 .byte   W36
 .byte   Dn2
 .byte   W36
 .byte   PEND 
@  #01 @015   ----------------------------------------
Label_01024AF1:
 .byte   N05 ,Dn2 ,v096
 .byte   W72
 .byte   Dn2
 .byte   W24
 .byte   PEND 
@  #01 @016   ----------------------------------------
 .byte   PATT
  .word Label_01024ADF
@  #01 @017   ----------------------------------------
 .byte   PATT
  .word Label_01024AE9
@  #01 @018   ----------------------------------------
 .byte   PATT
  .word Label_01024AD6
@  #01 @019   ----------------------------------------
Label_01024B07:
 .byte   W12
 .byte   N05 ,Dn2 ,v096
 .byte   W36
 .byte   Ds2
 .byte   W36
 .byte   Ds2
 .byte   W12
 .byte   PEND 
@  #01 @020   ----------------------------------------
Label_01024B11:
 .byte   W24
 .byte   N05 ,Ds2 ,v096
 .byte   W36
 .byte   Ds2
 .byte   W36
 .byte   PEND 
@  #01 @021   ----------------------------------------
Label_01024B19:
 .byte   N05 ,Ds2 ,v096
 .byte   W36
 .byte   Ds2
 .byte   W36
 .byte   Ds2
 .byte   W24
 .byte   PEND 
@  #01 @022   ----------------------------------------
 .byte   W12
 .byte   Ds2
 .byte   W36
 .byte   TEMPO , 192*song06_tbs/2
 .byte   TIE ,Dn2 ,v112
 .byte   W48
@  #01 @023   ----------------------------------------
Label_01024B2B:
 .byte   W56
 .byte   W03
 .byte   EOT
 .byte   Dn2
 .byte   W01
 .byte   N32 ,Cn2 ,v075 ,gtp3
 .byte   W36
 .byte   PEND 
@  #01 @024   ----------------------------------------
Label_01024B36:
 .byte   TEMPO , 136*song06_tbs/2
 .byte   N05 ,As0 ,v064
 .byte   W12
 .byte   N11
 .byte   W24
 .byte   N56 ,As0 ,v064 ,gtp3
 .byte   W60
 .byte   PEND 
@  #01 @025   ----------------------------------------
Label_01024B44:
 .byte   N05 ,As0 ,v064
 .byte   W12
 .byte   N11
 .byte   W24
 .byte   N05
 .byte   W12
 .byte   N11
 .byte   W48
 .byte   PEND 
@  #01 @026   ----------------------------------------
Label_01024B4F:
 .byte   N05 ,Cn1 ,v064
 .byte   W12
 .byte   N11
 .byte   W24
 .byte   N56 ,Cn1 ,v064 ,gtp3
 .byte   W60
 .byte   PEND 
@  #01 @027   ----------------------------------------
Label_01024B5B:
 .byte   N05 ,Cn1 ,v064
 .byte   W12
 .byte   N11
 .byte   W24
 .byte   N05
 .byte   W12
 .byte   N11
 .byte   W24
 .byte   N23 ,Gn0
 .byte   W24
 .byte   PEND 
@  #01 @028   ----------------------------------------
Label_01024B69:
 .byte   N05 ,As0 ,v064
 .byte   W12
 .byte   N11
 .byte   W24
 .byte   N56 ,As0 ,v064 ,gtp3
 .byte   W60
 .byte   PEND 
@  #01 @029   ----------------------------------------
 .byte   PATT
  .word Label_01024B44
@  #01 @030   ----------------------------------------
 .byte   PATT
  .word Label_01024B4F
@  #01 @031   ----------------------------------------
 .byte   PATT
  .word Label_01024B5B
@  #01 @032   ----------------------------------------
 .byte   PATT
  .word Label_01024B69
@  #01 @033   ----------------------------------------
 .byte   PATT
  .word Label_01024B44
@  #01 @034   ----------------------------------------
 .byte   PATT
  .word Label_01024B4F
@  #01 @035   ----------------------------------------
 .byte   PATT
  .word Label_01024B5B
@  #01 @036   ----------------------------------------
Label_01024B98:
 .byte   N05 ,Bn0 ,v064
 .byte   W12
 .byte   N11
 .byte   W24
 .byte   N56 ,Bn0 ,v064 ,gtp3
 .byte   W60
 .byte   PEND 
@  #01 @037   ----------------------------------------
Label_01024BA4:
 .byte   N05 ,Bn0 ,v064
 .byte   W12
 .byte   N11
 .byte   W24
 .byte   N05
 .byte   W12
 .byte   N11
 .byte   W48
 .byte   PEND 
@  #01 @038   ----------------------------------------
Label_01024BAF:
 .byte   N05 ,An0 ,v064
 .byte   W12
 .byte   N11
 .byte   W24
 .byte   TIE
 .byte   W60
 .byte   PEND 
@  #01 @039   ----------------------------------------
 .byte   W92
 .byte   W03
 .byte   EOT
 .byte   W01
@  #01 @040   ----------------------------------------
 .byte   N05 ,An1 ,v096
 .byte   TEMPO , 204*song06_tbs/2
 .byte   GOTO
  .word Label_01024A68
@  #01 @041   ----------------------------------------
 .byte   W36
 .byte   An1
 .byte   W36
 .byte   An1
 .byte   W36
@  #01 @042   ----------------------------------------
 .byte   An1
 .byte   W36
Label_01024BCD:
 .byte   N05 ,An1 ,v096
 .byte   W36
 .byte   An1
 .byte   W36
@  #01 @043   ----------------------------------------
 .byte   An1
 .byte   W36
 .byte   An1
 .byte   W36
 .byte   PEND 
@  #01 @044   ----------------------------------------
 .byte   PATT
  .word Label_01024BCD
@  #01 @045   ----------------------------------------
 .byte   PATT
  .word Label_01024BCD
@  #01 @046   ----------------------------------------
 .byte   PATT
  .word Label_01024BCD
@  #01 @047   ----------------------------------------
 .byte   PATT
  .word Label_01024BCD
@  #01 @048   ----------------------------------------
 .byte   N05 ,An1 ,v096
 .byte   W36
 .byte   An1
 .byte   W36
 .byte   N11 ,An4
 .byte   N05 ,An1
 .byte   W24
@  #01 @049   ----------------------------------------
 .byte   N11 ,An4
 .byte   W12
 .byte   Cn5
 .byte   N05 ,An1
 .byte   W12
 .byte   N11 ,An4
 .byte   W12
 .byte   Cn5
 .byte   W12
 .byte   An5
 .byte   N05 ,An1
 .byte   W12
 .byte   N11 ,En5
 .byte   W12
 .byte   Cn5
 .byte   W12
 .byte   An4
 .byte   N05 ,An1
 .byte   W36
@  #01 @050   ----------------------------------------
 .byte   N23 ,An4
 .byte   N05 ,An1
 .byte   W36
 .byte   An1
 .byte   W36
Label_01024C17:
 .byte   N05 ,Dn2 ,v096
 .byte   W36
@  #01 @051   ----------------------------------------
 .byte   Dn2
 .byte   W36
 .byte   Dn2
 .byte   W36
 .byte   Dn2
 .byte   W36
 .byte   PEND 
@  #01 @052   ----------------------------------------
 .byte   PATT
  .word Label_01024C17
@  #01 @053   ----------------------------------------
Label_01024C27:
 .byte   N05 ,Dn2 ,v096
 .byte   W72
 .byte   Dn2
 .byte   W36
@  #01 @054   ----------------------------------------
 .byte   Dn2
 .byte   W36
 .byte   PEND 
@  #01 @055   ----------------------------------------
 .byte   PATT
  .word Label_01024C17
@  #01 @056   ----------------------------------------
 .byte   PATT
  .word Label_01024C17
@  #01 @057   ----------------------------------------
Label_01024C3A:
 .byte   N05 ,Ds2 ,v096
 .byte   W36
 .byte   Ds2
 .byte   W36
 .byte   Ds2
 .byte   W36
@  #01 @058   ----------------------------------------
 .byte   Ds2
 .byte   W36
 .byte   PEND 
@  #01 @059   ----------------------------------------
 .byte   PATT
  .word Label_01024C3A
@  #01 @060   ----------------------------------------
 .byte   TEMPO , 192*song06_tbs/2
 .byte   TIE ,Dn2 ,v112
 .byte   W96
@  #01 @061   ----------------------------------------
 .byte   W11
 .byte   EOT
 .byte   W01
 .byte   N32 ,Cn2 ,v075 ,gtp3
 .byte   W36
@  #01 @062   ----------------------------------------
 .byte   PATT
  .word Label_01024B36
@  #01 @063   ----------------------------------------
 .byte   PATT
  .word Label_01024B44
@  #01 @064   ----------------------------------------
 .byte   PATT
  .word Label_01024B4F
@  #01 @065   ----------------------------------------
 .byte   PATT
  .word Label_01024B5B
@  #01 @066   ----------------------------------------
 .byte   PATT
  .word Label_01024B69
@  #01 @067   ----------------------------------------
 .byte   PATT
  .word Label_01024B44
@  #01 @068   ----------------------------------------
 .byte   PATT
  .word Label_01024B4F
@  #01 @069   ----------------------------------------
 .byte   PATT
  .word Label_01024B5B
@  #01 @070   ----------------------------------------
 .byte   PATT
  .word Label_01024B69
@  #01 @071   ----------------------------------------
 .byte   PATT
  .word Label_01024B44
@  #01 @072   ----------------------------------------
 .byte   PATT
  .word Label_01024B4F
@  #01 @073   ----------------------------------------
 .byte   PATT
  .word Label_01024B5B
@  #01 @074   ----------------------------------------
 .byte   PATT
  .word Label_01024B98
@  #01 @075   ----------------------------------------
 .byte   PATT
  .word Label_01024BA4
@  #01 @076   ----------------------------------------
 .byte   PATT
  .word Label_01024BAF
@  #01 @077   ----------------------------------------
 .byte   W92
 .byte   W03
 .byte   EOT
 .byte   An0
 .byte   FINE

@**************** Track 2 (Midi-Chn.1) ****************@

song06_002:
@  #02 @000   ----------------------------------------
 .byte   KEYSH , song06_key+0
Label_010237FA:
 .byte   VOICE , 47
 .byte   BENDR, 12
 .byte   VOL , 55*song06_mvl/mxv
 .byte   N11 ,An1 ,v115
 .byte   W96
@  #02 @001   ----------------------------------------
 .byte   W96
@  #02 @002   ----------------------------------------
Label_01023805:
 .byte   W60
 .byte   N11 ,An1 ,v096
 .byte   W36
 .byte   PEND 
@  #02 @003   ----------------------------------------
 .byte   Cn1 ,v115
 .byte   W96
@  #02 @004   ----------------------------------------
 .byte   W96
@  #02 @005   ----------------------------------------
 .byte   W96
@  #02 @006   ----------------------------------------
 .byte   An1
 .byte   W96
@  #02 @007   ----------------------------------------
 .byte   W96
@  #02 @008   ----------------------------------------
 .byte   W60
 .byte   En1 ,v096
 .byte   W36
@  #02 @009   ----------------------------------------
 .byte   An1 ,v115
 .byte   W96
@  #02 @010   ----------------------------------------
 .byte   W96
@  #02 @011   ----------------------------------------
 .byte   W96
@  #02 @012   ----------------------------------------
 .byte   Dn2
 .byte   W96
@  #02 @013   ----------------------------------------
 .byte   W96
@  #02 @014   ----------------------------------------
 .byte   PATT
  .word Label_01023805
@  #02 @015   ----------------------------------------
 .byte   N11 ,Dn2 ,v115
 .byte   W96
@  #02 @016   ----------------------------------------
 .byte   W96
@  #02 @017   ----------------------------------------
 .byte   W96
@  #02 @018   ----------------------------------------
 .byte   Dn2
 .byte   W96
@  #02 @019   ----------------------------------------
 .byte   W96
@  #02 @020   ----------------------------------------
 .byte   W60
 .byte   Gn1 ,v096
 .byte   W36
@  #02 @021   ----------------------------------------
 .byte   Ds2 ,v115
 .byte   W96
@  #02 @022   ----------------------------------------
 .byte   W48
 .byte   N05 ,Dn2
 .byte   W05
 .byte   N06
 .byte   W06
 .byte   Dn2
 .byte   W06
 .byte   Dn2 ,v116
 .byte   W06
 .byte   Dn2 ,v117
 .byte   W06
 .byte   Dn2 ,v118
 .byte   W06
 .byte   Dn2 ,v120
 .byte   W06
 .byte   Dn2 ,v121
 .byte   W06
 .byte   Dn2 ,v122
 .byte   W01
@  #02 @023   ----------------------------------------
 .byte   W05
 .byte   Dn2 ,v123
 .byte   W06
 .byte   Dn2 ,v124
 .byte   W06
 .byte   N07 ,Dn2 ,v126
 .byte   W07
 .byte   N05 ,Dn2 ,v107
 .byte   W05
 .byte   N06
 .byte   W06
 .byte   Dn2 ,v108
 .byte   W06
 .byte   Dn2 ,v109
 .byte   W06
 .byte   Dn2 ,v110
 .byte   W06
 .byte   Dn2 ,v111
 .byte   W07
 .byte   N11 ,Cn2 ,v096
 .byte   W36
@  #02 @024   ----------------------------------------
 .byte   W96
@  #02 @025   ----------------------------------------
 .byte   W96
@  #02 @026   ----------------------------------------
 .byte   W96
@  #02 @027   ----------------------------------------
 .byte   W96
@  #02 @028   ----------------------------------------
 .byte   W96
@  #02 @029   ----------------------------------------
 .byte   W96
@  #02 @030   ----------------------------------------
 .byte   W96
@  #02 @031   ----------------------------------------
 .byte   W96
@  #02 @032   ----------------------------------------
 .byte   W96
@  #02 @033   ----------------------------------------
 .byte   W96
@  #02 @034   ----------------------------------------
 .byte   W96
@  #02 @035   ----------------------------------------
 .byte   W96
@  #02 @036   ----------------------------------------
 .byte   W96
@  #02 @037   ----------------------------------------
 .byte   W96
@  #02 @038   ----------------------------------------
 .byte   W96
@  #02 @039   ----------------------------------------
 .byte   W96
@  #02 @040   ----------------------------------------
 .byte   An1 ,v115
 .byte   GOTO
  .word Label_010237FA
@  #02 @041   ----------------------------------------
 .byte   W96
@  #02 @042   ----------------------------------------
 .byte   W48
Label_01023888:
 .byte   W96
@  #02 @043   ----------------------------------------
 .byte   W12
 .byte   N11 ,An1 ,v096
 .byte   W36
 .byte   PEND 
 .byte   Cn1 ,v115
 .byte   W96
@  #02 @044   ----------------------------------------
 .byte   W48
 .byte   W96
@  #02 @045   ----------------------------------------
 .byte   W48
 .byte   An1
 .byte   W96
@  #02 @046   ----------------------------------------
 .byte   W48
 .byte   W96
@  #02 @047   ----------------------------------------
 .byte   W12
 .byte   En1 ,v096
 .byte   W36
 .byte   An1 ,v115
 .byte   W96
@  #02 @048   ----------------------------------------
 .byte   W48
 .byte   W96
@  #02 @049   ----------------------------------------
 .byte   W48
 .byte   Dn2
 .byte   W96
@  #02 @050   ----------------------------------------
 .byte   W48
@  #02 @051   ----------------------------------------
 .byte   PATT
  .word Label_01023888
@  #02 @052   ----------------------------------------
 .byte   N11 ,Dn2 ,v115
 .byte   W96
@  #02 @053   ----------------------------------------
 .byte   W48
 .byte   W96
@  #02 @054   ----------------------------------------
 .byte   W48
 .byte   Dn2
 .byte   W96
@  #02 @055   ----------------------------------------
 .byte   W48
 .byte   W96
@  #02 @056   ----------------------------------------
 .byte   W12
 .byte   Gn1 ,v096
 .byte   W36
 .byte   Ds2 ,v115
 .byte   W96
@  #02 @057   ----------------------------------------
 .byte   W48
 .byte   N05 ,Dn2
 .byte   W05
 .byte   N06
 .byte   W06
 .byte   Dn2
 .byte   W06
 .byte   Dn2 ,v116
 .byte   W06
 .byte   Dn2 ,v117
 .byte   W06
 .byte   Dn2 ,v118
 .byte   W06
 .byte   Dn2 ,v120
 .byte   W06
 .byte   Dn2 ,v121
 .byte   W06
 .byte   Dn2 ,v122
 .byte   W06
@  #02 @058   ----------------------------------------
 .byte   Dn2 ,v123
 .byte   W06
 .byte   Dn2 ,v124
 .byte   W06
 .byte   N07 ,Dn2 ,v126
 .byte   W07
 .byte   N05 ,Dn2 ,v107
 .byte   W05
 .byte   N06
 .byte   W06
 .byte   Dn2 ,v108
 .byte   W06
 .byte   Dn2 ,v109
 .byte   W06
 .byte   Dn2 ,v110
 .byte   W06
 .byte   Dn2 ,v111
 .byte   W07
 .byte   N11 ,Cn2 ,v096
 .byte   W36
 .byte   W96
@  #02 @059   ----------------------------------------
 .byte   W96
@  #02 @060   ----------------------------------------
 .byte   W96
@  #02 @061   ----------------------------------------
 .byte   W96
@  #02 @062   ----------------------------------------
 .byte   W96
@  #02 @063   ----------------------------------------
 .byte   W96
@  #02 @064   ----------------------------------------
 .byte   W96
@  #02 @065   ----------------------------------------
 .byte   W96
@  #02 @066   ----------------------------------------
 .byte   W96
@  #02 @067   ----------------------------------------
 .byte   W96
@  #02 @068   ----------------------------------------
 .byte   W96
@  #02 @069   ----------------------------------------
 .byte   W96
@  #02 @070   ----------------------------------------
 .byte   W96
@  #02 @071   ----------------------------------------
 .byte   W96
@  #02 @072   ----------------------------------------
 .byte   W96
@  #02 @073   ----------------------------------------
 .byte   W92
 .byte   W03
 .byte   FINE

@**************** Track 3 (Midi-Chn.2) ****************@

song06_003:
@  #03 @000   ----------------------------------------
 .byte   KEYSH , song06_key+0
Label_01023DD6:
 .byte   VOICE , 49
 .byte   BENDR, 12
 .byte   VOL , 50*song06_mvl/mxv
 .byte   N68 ,En4 ,v096 ,gtp3
 .byte   W72
 .byte   N11 ,An3
 .byte   W12
 .byte   Cn4
 .byte   W12
@  #03 @001   ----------------------------------------
Label_01023DE6:
 .byte   N11 ,En4 ,v096
 .byte   W12
 .byte   Gn4
 .byte   W12
 .byte   En4
 .byte   W12
 .byte   Cn4
 .byte   W12
 .byte   N32 ,Fs4 ,v096 ,gtp3
 .byte   W36
 .byte   N11 ,An3
 .byte   W12
 .byte   PEND 
@  #03 @002   ----------------------------------------
Label_01023DF9:
 .byte   N11 ,Dn4 ,v096
 .byte   W12
 .byte   Fs4
 .byte   W12
 .byte   N32 ,Fn4 ,v096 ,gtp3
 .byte   W36
 .byte   N11 ,An3
 .byte   W12
 .byte   Dn4
 .byte   W12
 .byte   Fn4
 .byte   W12
 .byte   PEND 
@  #03 @003   ----------------------------------------
Label_01023E0C:
 .byte   N11 ,En4 ,v096
 .byte   W12
 .byte   An3
 .byte   W12
 .byte   Cn4 ,v093
 .byte   W12
 .byte   N05 ,Dn4 ,v064
 .byte   W12
 .byte   Fn3 ,v103
 .byte   W12
 .byte   Dn4 ,v098
 .byte   W12
 .byte   N11 ,Cn4 ,v096
 .byte   W12
 .byte   Bn3
 .byte   W12
 .byte   PEND 
@  #03 @004   ----------------------------------------
Label_01023E26:
 .byte   N11 ,An3 ,v096
 .byte   W12
 .byte   En3
 .byte   W24
 .byte   En3
 .byte   W12
 .byte   Gs3
 .byte   W12
 .byte   Bn3
 .byte   W12
 .byte   Dn4
 .byte   W12
 .byte   Fn4
 .byte   W12
 .byte   PEND 
@  #03 @005   ----------------------------------------
Label_01023E37:
 .byte   N11 ,Dn4 ,v096
 .byte   W12
 .byte   Fn4
 .byte   W12
 .byte   N68 ,Cn4 ,v096 ,gtp3
 .byte   W72
 .byte   PEND 
@  #03 @006   ----------------------------------------
 .byte   En4
 .byte   W72
 .byte   N11 ,An3
 .byte   W12
 .byte   Cn4
 .byte   W12
@  #03 @007   ----------------------------------------
 .byte   PATT
  .word Label_01023DE6
@  #03 @008   ----------------------------------------
 .byte   PATT
  .word Label_01023DF9
@  #03 @009   ----------------------------------------
 .byte   TIE ,En4 ,v080
 .byte   W96
@  #03 @010   ----------------------------------------
 .byte   W44
 .byte   W03
 .byte   EOT
 .byte   W48
 .byte   W01
@  #03 @011   ----------------------------------------
 .byte   W60
 .byte   N05 ,En4 ,v096
 .byte   W24
 .byte   N11
 .byte   W12
@  #03 @012   ----------------------------------------
Label_01023E64:
 .byte   N68 ,Fn4 ,v096 ,gtp3
 .byte   W72
 .byte   N11 ,An3
 .byte   W12
 .byte   Dn4
 .byte   W12
 .byte   PEND 
@  #03 @013   ----------------------------------------
Label_01023E6F:
 .byte   N11 ,Fn4 ,v096
 .byte   W12
 .byte   N05 ,An4 ,v080
 .byte   W12
 .byte   N11 ,Fn4 ,v096
 .byte   W12
 .byte   Dn4
 .byte   W12
 .byte   N32 ,Gn4 ,v096 ,gtp3
 .byte   W36
 .byte   N11 ,An3
 .byte   W12
 .byte   PEND 
@  #03 @014   ----------------------------------------
 .byte   Dn4
 .byte   W12
 .byte   Gn4
 .byte   W12
 .byte   N32 ,Fn4 ,v096 ,gtp3
 .byte   W36
 .byte   N11 ,An3
 .byte   W12
 .byte   Dn4
 .byte   W12
 .byte   Fn4
 .byte   W12
@  #03 @015   ----------------------------------------
 .byte   PATT
  .word Label_01023E0C
@  #03 @016   ----------------------------------------
 .byte   PATT
  .word Label_01023E26
@  #03 @017   ----------------------------------------
 .byte   PATT
  .word Label_01023E37
@  #03 @018   ----------------------------------------
 .byte   PATT
  .word Label_01023E64
@  #03 @019   ----------------------------------------
 .byte   PATT
  .word Label_01023E6F
@  #03 @020   ----------------------------------------
 .byte   N11 ,Cn4 ,v096
 .byte   W12
 .byte   Gn4
 .byte   W12
 .byte   N32 ,Fn4 ,v096 ,gtp3
 .byte   W36
 .byte   N11 ,An3
 .byte   W12
 .byte   Dn4
 .byte   W12
 .byte   Fn4
 .byte   W12
@  #03 @021   ----------------------------------------
 .byte   N32 ,Gn4 ,v096 ,gtp3
 .byte   W36
 .byte   N11 ,An3
 .byte   W12
 .byte   Cn4
 .byte   W12
 .byte   Gn4
 .byte   W12
 .byte   N32 ,Fn4 ,v096 ,gtp3
 .byte   W24
@  #03 @022   ----------------------------------------
 .byte   W12
 .byte   N11 ,An3
 .byte   W12
 .byte   Dn4
 .byte   W12
 .byte   Gn4
 .byte   W12
 .byte   TIE ,Fn4
 .byte   W48
@  #03 @023   ----------------------------------------
 .byte   W56
 .byte   W03
 .byte   EOT
 .byte   W01
 .byte   N32 ,En4 ,v096 ,gtp3
 .byte   W36
@  #03 @024   ----------------------------------------
 .byte   W96
@  #03 @025   ----------------------------------------
 .byte   W96
@  #03 @026   ----------------------------------------
 .byte   W96
@  #03 @027   ----------------------------------------
 .byte   W96
@  #03 @028   ----------------------------------------
 .byte   W96
@  #03 @029   ----------------------------------------
 .byte   W96
@  #03 @030   ----------------------------------------
 .byte   W96
@  #03 @031   ----------------------------------------
 .byte   W96
@  #03 @032   ----------------------------------------
 .byte   W96
@  #03 @033   ----------------------------------------
 .byte   W96
@  #03 @034   ----------------------------------------
 .byte   W96
@  #03 @035   ----------------------------------------
 .byte   W96
@  #03 @036   ----------------------------------------
 .byte   W96
@  #03 @037   ----------------------------------------
 .byte   W96
@  #03 @038   ----------------------------------------
 .byte   W96
@  #03 @039   ----------------------------------------
 .byte   W96
@  #03 @040   ----------------------------------------
 .byte   N68 ,En4 ,v096 ,gtp3
 .byte   GOTO
  .word Label_01023DD6
@  #03 @041   ----------------------------------------
 .byte   W72
 .byte   N11 ,An3
 .byte   W12
 .byte   Cn4
 .byte   W12
@  #03 @042   ----------------------------------------
 .byte   En4
 .byte   W12
 .byte   Gn4
 .byte   W12
 .byte   En4
 .byte   W12
 .byte   Cn4
 .byte   W12
Label_01023F0D:
 .byte   N32 ,Fs4 ,v096 ,gtp3
 .byte   W36
 .byte   N11 ,An3
 .byte   W12
@  #03 @043   ----------------------------------------
 .byte   Dn4
 .byte   W12
 .byte   Fs4
 .byte   W12
 .byte   N32 ,Fn4 ,v096 ,gtp3
 .byte   W36
 .byte   N11 ,An3
 .byte   W12
 .byte   Dn4
 .byte   W12
 .byte   Fn4
 .byte   W12
 .byte   PEND 
@  #03 @044   ----------------------------------------
Label_01023F26:
 .byte   N11 ,En4 ,v096
 .byte   W12
 .byte   An3
 .byte   W12
 .byte   Cn4 ,v093
 .byte   W12
 .byte   N05 ,Dn4 ,v064
 .byte   W12
 .byte   Fn3 ,v103
 .byte   W12
 .byte   Dn4 ,v098
 .byte   W12
 .byte   N11 ,Cn4 ,v096
 .byte   W12
 .byte   Bn3
 .byte   W12
@  #03 @045   ----------------------------------------
 .byte   An3
 .byte   W12
 .byte   En3
 .byte   W24
 .byte   En3
 .byte   W12
 .byte   PEND 
Label_01023F46:
 .byte   N11 ,Gs3 ,v096
 .byte   W12
 .byte   Bn3
 .byte   W12
 .byte   Dn4
 .byte   W12
 .byte   Fn4
 .byte   W12
@  #03 @046   ----------------------------------------
 .byte   Dn4
 .byte   W12
 .byte   Fn4
 .byte   W12
 .byte   N68 ,Cn4 ,v096 ,gtp3
 .byte   W72
 .byte   PEND 
@  #03 @047   ----------------------------------------
 .byte   En4
 .byte   W72
 .byte   N11 ,An3
 .byte   W12
 .byte   Cn4
 .byte   W12
@  #03 @048   ----------------------------------------
 .byte   En4
 .byte   W12
 .byte   Gn4
 .byte   W12
 .byte   En4
 .byte   W12
 .byte   Cn4
 .byte   W12
@  #03 @049   ----------------------------------------
 .byte   PATT
  .word Label_01023F0D
@  #03 @050   ----------------------------------------
 .byte   TIE ,En4 ,v080
 .byte   W96
@  #03 @051   ----------------------------------------
 .byte   W44
 .byte   W03
 .byte   EOT
 .byte   W01
 .byte   W96
@  #03 @052   ----------------------------------------
 .byte   W12
 .byte   N05 ,En4 ,v096
 .byte   W24
 .byte   N11
 .byte   W12
Label_01023F7E:
 .byte   N68 ,Fn4 ,v096 ,gtp3
 .byte   W72
@  #03 @053   ----------------------------------------
 .byte   N11 ,An3
 .byte   W12
 .byte   Dn4
 .byte   W12
 .byte   Fn4
 .byte   W12
 .byte   N05 ,An4 ,v080
 .byte   W12
 .byte   N11 ,Fn4 ,v096
 .byte   W12
 .byte   Dn4
 .byte   W12
 .byte   PEND 
 .byte   N32 ,Gn4 ,v096 ,gtp3
 .byte   W36
@  #03 @054   ----------------------------------------
 .byte   N11 ,An3
 .byte   W12
 .byte   Dn4
 .byte   W12
 .byte   Gn4
 .byte   W12
 .byte   N32 ,Fn4 ,v096 ,gtp3
 .byte   W36
 .byte   N11 ,An3
 .byte   W12
 .byte   Dn4
 .byte   W12
@  #03 @055   ----------------------------------------
 .byte   Fn4
 .byte   W12
@  #03 @056   ----------------------------------------
 .byte   PATT
  .word Label_01023F26
@  #03 @057   ----------------------------------------
 .byte   PATT
  .word Label_01023F46
@  #03 @058   ----------------------------------------
 .byte   PATT
  .word Label_01023F7E
@  #03 @059   ----------------------------------------
 .byte   N32 ,Gn4 ,v096 ,gtp3
 .byte   W36
 .byte   N11 ,An3
 .byte   W12
 .byte   Cn4
 .byte   W12
 .byte   Gn4
 .byte   W12
 .byte   N32 ,Fn4 ,v096 ,gtp3
 .byte   W36
@  #03 @060   ----------------------------------------
 .byte   N11 ,An3
 .byte   W12
 .byte   Dn4
 .byte   W12
 .byte   Fn4
 .byte   W12
 .byte   N32 ,Gn4 ,v096 ,gtp3
 .byte   W36
 .byte   N11 ,An3
 .byte   W12
 .byte   Cn4
 .byte   W12
@  #03 @061   ----------------------------------------
 .byte   Gn4
 .byte   W12
 .byte   N32 ,Fn4 ,v096 ,gtp3
 .byte   W36
 .byte   N11 ,An3
 .byte   W12
 .byte   Dn4
 .byte   W12
 .byte   Gn4
 .byte   W12
 .byte   TIE ,Fn4
 .byte   W96
@  #03 @062   ----------------------------------------
 .byte   W11
 .byte   EOT
 .byte   W01
 .byte   N32 ,En4 ,v096 ,gtp3
 .byte   W36
 .byte   W96
@  #03 @063   ----------------------------------------
 .byte   W96
@  #03 @064   ----------------------------------------
 .byte   W96
@  #03 @065   ----------------------------------------
 .byte   W96
@  #03 @066   ----------------------------------------
 .byte   W96
@  #03 @067   ----------------------------------------
 .byte   W96
@  #03 @068   ----------------------------------------
 .byte   W96
@  #03 @069   ----------------------------------------
 .byte   W96
@  #03 @070   ----------------------------------------
 .byte   W96
@  #03 @071   ----------------------------------------
 .byte   W96
@  #03 @072   ----------------------------------------
 .byte   W96
@  #03 @073   ----------------------------------------
 .byte   W96
@  #03 @074   ----------------------------------------
 .byte   W96
@  #03 @075   ----------------------------------------
 .byte   W96
@  #03 @076   ----------------------------------------
 .byte   W96
@  #03 @077   ----------------------------------------
 .byte   W92
 .byte   W03
 .byte   FINE

@**************** Track 4 (Midi-Chn.3) ****************@

song06_004:
@  #04 @000   ----------------------------------------
 .byte   KEYSH , song06_key+0
Label_01022D26:
 .byte   VOICE , 68
 .byte   BENDR, 12
 .byte   VOL , 70*song06_mvl/mxv
 .byte   W96
@  #04 @001   ----------------------------------------
 .byte   W96
@  #04 @002   ----------------------------------------
 .byte   W96
@  #04 @003   ----------------------------------------
 .byte   W96
@  #04 @004   ----------------------------------------
 .byte   W96
@  #04 @005   ----------------------------------------
 .byte   W96
@  #04 @006   ----------------------------------------
 .byte   W96
@  #04 @007   ----------------------------------------
 .byte   W96
@  #04 @008   ----------------------------------------
 .byte   W96
@  #04 @009   ----------------------------------------
 .byte   W96
@  #04 @010   ----------------------------------------
 .byte   W96
@  #04 @011   ----------------------------------------
 .byte   W96
@  #04 @012   ----------------------------------------
 .byte   W96
@  #04 @013   ----------------------------------------
 .byte   W96
@  #04 @014   ----------------------------------------
 .byte   W96
@  #04 @015   ----------------------------------------
 .byte   W96
@  #04 @016   ----------------------------------------
 .byte   W96
@  #04 @017   ----------------------------------------
 .byte   W96
@  #04 @018   ----------------------------------------
 .byte   W96
@  #04 @019   ----------------------------------------
 .byte   W84
 .byte   N32 ,Gn2 ,v080 ,gtp3
 .byte   W12
@  #04 @020   ----------------------------------------
 .byte   W96
@  #04 @021   ----------------------------------------
 .byte   W96
@  #04 @022   ----------------------------------------
 .byte   W96
@  #04 @023   ----------------------------------------
 .byte   W96
@  #04 @024   ----------------------------------------
 .byte   N92 ,Dn3 ,v080 ,gtp3
 .byte   W96
@  #04 @025   ----------------------------------------
Label_01022D4E:
 .byte   N32 ,As2 ,v080 ,gtp3
 .byte   W36
 .byte   Dn3
 .byte   W36
 .byte   N23 ,An3
 .byte   W24
 .byte   PEND 
@  #04 @026   ----------------------------------------
 .byte   N92 ,En3 ,v080 ,gtp3
 .byte   W96
@  #04 @027   ----------------------------------------
 .byte   Cn3
 .byte   W96
@  #04 @028   ----------------------------------------
 .byte   Dn3
 .byte   W96
@  #04 @029   ----------------------------------------
Label_01022D62:
 .byte   N32 ,Dn3 ,v080 ,gtp3
 .byte   W36
 .byte   En3
 .byte   W36
 .byte   N23 ,Fn3
 .byte   W24
 .byte   PEND 
@  #04 @030   ----------------------------------------
 .byte   N92 ,En3 ,v080 ,gtp3
 .byte   W96
@  #04 @031   ----------------------------------------
 .byte   Cn3
 .byte   W96
@  #04 @032   ----------------------------------------
 .byte   Dn3
 .byte   W96
@  #04 @033   ----------------------------------------
 .byte   PATT
  .word Label_01022D4E
@  #04 @034   ----------------------------------------
 .byte   N92 ,En3 ,v080 ,gtp3
 .byte   W96
@  #04 @035   ----------------------------------------
 .byte   Cn3
 .byte   W96
@  #04 @036   ----------------------------------------
 .byte   Dn3
 .byte   W96
@  #04 @037   ----------------------------------------
 .byte   PATT
  .word Label_01022D62
@  #04 @038   ----------------------------------------
 .byte   N92 ,En3 ,v080 ,gtp3
 .byte   W96
@  #04 @039   ----------------------------------------
 .byte   Cn3
 .byte   W96
@  #04 @040   ----------------------------------------
 .byte   GOTO
  .word Label_01022D26
@  #04 @041   ----------------------------------------
 .byte   W96
@  #04 @042   ----------------------------------------
 .byte   W48
 .byte   W96
@  #04 @043   ----------------------------------------
 .byte   W48
Label_01022D99:
 .byte   W72
@  #04 @044   ----------------------------------------
 .byte   N11 ,Cn4 ,v096
 .byte   W12
 .byte   Bn3
 .byte   W12
 .byte   An3
 .byte   W12
 .byte   En3
 .byte   W36
 .byte   PEND 
Label_01022DA5:
 .byte   N68 ,Gs3 ,v096 ,gtp3
 .byte   W72
@  #04 @045   ----------------------------------------
 .byte   N32 ,An3 ,v096 ,gtp3
 .byte   W72
 .byte   PEND 
 .byte   W96
@  #04 @046   ----------------------------------------
 .byte   W48
 .byte   W96
@  #04 @047   ----------------------------------------
 .byte   W48
 .byte   W96
@  #04 @048   ----------------------------------------
 .byte   W48
 .byte   W96
@  #04 @049   ----------------------------------------
 .byte   W48
 .byte   W96
@  #04 @050   ----------------------------------------
 .byte   W48
 .byte   W96
@  #04 @051   ----------------------------------------
 .byte   W48
@  #04 @052   ----------------------------------------
 .byte   PATT
  .word Label_01022D99
@  #04 @053   ----------------------------------------
 .byte   PATT
  .word Label_01022DA5
@  #04 @054   ----------------------------------------
 .byte   W96
@  #04 @055   ----------------------------------------
 .byte   W48
 .byte   W36
 .byte   N32 ,Gn2 ,v080 ,gtp3
 .byte   W36
@  #04 @056   ----------------------------------------
 .byte   Cn3
 .byte   W36
 .byte   Fn3
 .byte   W36
 .byte   TIE ,Gn3
 .byte   W96
@  #04 @057   ----------------------------------------
 .byte   W44
 .byte   W03
 .byte   EOT
 .byte   W01
 .byte   W96
@  #04 @058   ----------------------------------------
 .byte   W48
 .byte   N92 ,Dn3 ,v080 ,gtp3
 .byte   W96
@  #04 @059   ----------------------------------------
 .byte   PATT
  .word Label_01022D4E
@  #04 @060   ----------------------------------------
 .byte   N92 ,En3 ,v080 ,gtp3
 .byte   W96
@  #04 @061   ----------------------------------------
 .byte   Cn3
 .byte   W96
@  #04 @062   ----------------------------------------
 .byte   Dn3
 .byte   W96
@  #04 @063   ----------------------------------------
 .byte   PATT
  .word Label_01022D62
@  #04 @064   ----------------------------------------
 .byte   N92 ,En3 ,v080 ,gtp3
 .byte   W96
@  #04 @065   ----------------------------------------
 .byte   Cn3
 .byte   W96
@  #04 @066   ----------------------------------------
 .byte   Dn3
 .byte   W96
@  #04 @067   ----------------------------------------
 .byte   PATT
  .word Label_01022D4E
@  #04 @068   ----------------------------------------
 .byte   N92 ,En3 ,v080 ,gtp3
 .byte   W96
@  #04 @069   ----------------------------------------
 .byte   Cn3
 .byte   W96
@  #04 @070   ----------------------------------------
 .byte   Dn3
 .byte   W96
@  #04 @071   ----------------------------------------
 .byte   PATT
  .word Label_01022D62
@  #04 @072   ----------------------------------------
 .byte   N92 ,En3 ,v080 ,gtp3
 .byte   W96
@  #04 @073   ----------------------------------------
 .byte   Cn3
 .byte   W92
 .byte   W03
 .byte   FINE

@**************** Track 5 (Midi-Chn.4) ****************@

song06_005:
@  #05 @000   ----------------------------------------
 .byte   KEYSH , song06_key+0
Label_0100B87A:
 .byte   VOICE , 68
 .byte   BENDR, 12
 .byte   VOL , 55*song06_mvl/mxv
 .byte   W96
@  #05 @001   ----------------------------------------
 .byte   W96
@  #05 @002   ----------------------------------------
 .byte   W96
@  #05 @003   ----------------------------------------
 .byte   W96
@  #05 @004   ----------------------------------------
 .byte   W96
@  #05 @005   ----------------------------------------
 .byte   W96
@  #05 @006   ----------------------------------------
 .byte   W96
@  #05 @007   ----------------------------------------
 .byte   W96
@  #05 @008   ----------------------------------------
 .byte   W96
@  #05 @009   ----------------------------------------
 .byte   W96
@  #05 @010   ----------------------------------------
 .byte   W96
@  #05 @011   ----------------------------------------
 .byte   W96
@  #05 @012   ----------------------------------------
 .byte   W72
 .byte   N68 ,Dn3 ,v096 ,gtp3
 .byte   W24
@  #05 @013   ----------------------------------------
 .byte   W48
 .byte   Gn3
 .byte   W48
@  #05 @014   ----------------------------------------
 .byte   W24
 .byte   Cn4
 .byte   W72
@  #05 @015   ----------------------------------------
 .byte   TIE ,An3
 .byte   W96
@  #05 @016   ----------------------------------------
 .byte   W11
 .byte   EOT
 .byte   W01
 .byte   N32 ,Dn3 ,v096 ,gtp3
 .byte   W36
 .byte   N68 ,Gs3 ,v096 ,gtp3
 .byte   W48
@  #05 @017   ----------------------------------------
 .byte   W24
 .byte   An3
 .byte   W72
@  #05 @018   ----------------------------------------
 .byte   W72
 .byte   Dn3 ,v080
 .byte   W24
@  #05 @019   ----------------------------------------
 .byte   W48
 .byte   TIE ,Ds3
 .byte   W48
@  #05 @020   ----------------------------------------
 .byte   W96
@  #05 @021   ----------------------------------------
 .byte   W96
@  #05 @022   ----------------------------------------
 .byte   W44
 .byte   W03
 .byte   EOT
 .byte   W01
 .byte   TIE ,Dn3
 .byte   W48
@  #05 @023   ----------------------------------------
 .byte   W56
 .byte   W03
 .byte   EOT
 .byte   W01
 .byte   N32 ,Cn3 ,v080 ,gtp3
 .byte   W36
@  #05 @024   ----------------------------------------
 .byte   W96
@  #05 @025   ----------------------------------------
 .byte   W96
@  #05 @026   ----------------------------------------
 .byte   W96
@  #05 @027   ----------------------------------------
 .byte   W96
@  #05 @028   ----------------------------------------
 .byte   W96
@  #05 @029   ----------------------------------------
 .byte   W96
@  #05 @030   ----------------------------------------
 .byte   W96
@  #05 @031   ----------------------------------------
 .byte   W96
@  #05 @032   ----------------------------------------
 .byte   W96
@  #05 @033   ----------------------------------------
 .byte   W96
@  #05 @034   ----------------------------------------
 .byte   W96
@  #05 @035   ----------------------------------------
 .byte   W96
@  #05 @036   ----------------------------------------
 .byte   W96
@  #05 @037   ----------------------------------------
 .byte   W96
@  #05 @038   ----------------------------------------
 .byte   W96
@  #05 @039   ----------------------------------------
 .byte   W96
@  #05 @040   ----------------------------------------
 .byte   GOTO
  .word Label_0100B87A
@  #05 @041   ----------------------------------------
 .byte   W96
@  #05 @042   ----------------------------------------
 .byte   W48
 .byte   W96
@  #05 @043   ----------------------------------------
 .byte   W48
 .byte   W96
@  #05 @044   ----------------------------------------
 .byte   W48
 .byte   W96
@  #05 @045   ----------------------------------------
 .byte   W48
 .byte   W96
@  #05 @046   ----------------------------------------
 .byte   W48
 .byte   W96
@  #05 @047   ----------------------------------------
 .byte   W48
 .byte   W96
@  #05 @048   ----------------------------------------
 .byte   W48
 .byte   W96
@  #05 @049   ----------------------------------------
 .byte   W48
 .byte   W72
@  #05 @050   ----------------------------------------
 .byte   N68 ,Dn3 ,v096 ,gtp3
 .byte   W72
 .byte   Gn3
 .byte   W72
@  #05 @051   ----------------------------------------
 .byte   Cn4
 .byte   W72
 .byte   TIE ,An3
 .byte   W96
@  #05 @052   ----------------------------------------
 .byte   W11
 .byte   EOT
 .byte   W01
 .byte   N32 ,Dn3 ,v096 ,gtp3
 .byte   W36
 .byte   N68 ,Gs3 ,v096 ,gtp3
 .byte   W72
@  #05 @053   ----------------------------------------
 .byte   An3
 .byte   W72
 .byte   W72
@  #05 @054   ----------------------------------------
 .byte   Dn3 ,v080
 .byte   W72
 .byte   TIE ,Ds3
 .byte   W96
@  #05 @055   ----------------------------------------
 .byte   W48
 .byte   W96
@  #05 @056   ----------------------------------------
 .byte   W44
 .byte   W03
 .byte   EOT
 .byte   W01
 .byte   TIE ,Dn3
 .byte   W96
@  #05 @057   ----------------------------------------
 .byte   W11
 .byte   EOT
 .byte   W01
 .byte   N32 ,Cn3 ,v080 ,gtp3
 .byte   W36
 .byte   W96
@  #05 @058   ----------------------------------------
 .byte   W96
@  #05 @059   ----------------------------------------
 .byte   W96
@  #05 @060   ----------------------------------------
 .byte   W96
@  #05 @061   ----------------------------------------
 .byte   W96
@  #05 @062   ----------------------------------------
 .byte   W96
@  #05 @063   ----------------------------------------
 .byte   W96
@  #05 @064   ----------------------------------------
 .byte   W96
@  #05 @065   ----------------------------------------
 .byte   W96
@  #05 @066   ----------------------------------------
 .byte   W96
@  #05 @067   ----------------------------------------
 .byte   W96
@  #05 @068   ----------------------------------------
 .byte   W96
@  #05 @069   ----------------------------------------
 .byte   W96
@  #05 @070   ----------------------------------------
 .byte   W96
@  #05 @071   ----------------------------------------
 .byte   W96
@  #05 @072   ----------------------------------------
 .byte   W92
 .byte   W03
 .byte   FINE

@**************** Track 6 (Midi-Chn.5) ****************@

song06_006:
@  #06 @000   ----------------------------------------
 .byte   KEYSH , song06_key+0
Label_0102292A:
 .byte   VOICE , 11
 .byte   BENDR, 12
 .byte   VOL , 55*song06_mvl/mxv
 .byte   W96
@  #06 @001   ----------------------------------------
 .byte   W96
@  #06 @002   ----------------------------------------
 .byte   W96
@  #06 @003   ----------------------------------------
 .byte   W96
@  #06 @004   ----------------------------------------
 .byte   W96
@  #06 @005   ----------------------------------------
 .byte   W96
@  #06 @006   ----------------------------------------
 .byte   W96
@  #06 @007   ----------------------------------------
 .byte   W96
@  #06 @008   ----------------------------------------
 .byte   W96
@  #06 @009   ----------------------------------------
 .byte   W96
@  #06 @010   ----------------------------------------
 .byte   W96
@  #06 @011   ----------------------------------------
 .byte   W96
@  #06 @012   ----------------------------------------
 .byte   W96
@  #06 @013   ----------------------------------------
 .byte   W96
@  #06 @014   ----------------------------------------
 .byte   W96
@  #06 @015   ----------------------------------------
 .byte   W96
@  #06 @016   ----------------------------------------
 .byte   W96
@  #06 @017   ----------------------------------------
 .byte   W96
@  #06 @018   ----------------------------------------
 .byte   W96
@  #06 @019   ----------------------------------------
 .byte   W48
 .byte   N05 ,As3 ,v115
 .byte   W36
 .byte   An3
 .byte   W12
@  #06 @020   ----------------------------------------
 .byte   W24
 .byte   Cn4 ,v127
 .byte   N05 ,Fn4
 .byte   W36
 .byte   An3 ,v112
 .byte   W36
@  #06 @021   ----------------------------------------
 .byte   As3
 .byte   W36
 .byte   An3
 .byte   W36
 .byte   Cn4
 .byte   N05 ,Fn4
 .byte   W24
@  #06 @022   ----------------------------------------
 .byte   W12
 .byte   An3
 .byte   W36
 .byte   N32 ,Dn2 ,v064 ,gtp3
 .byte   W36
 .byte   N23 ,En2 ,v071
 .byte   W12
@  #06 @023   ----------------------------------------
 .byte   W12
 .byte   N11 ,An2 ,v076
 .byte   W12
 .byte   N32 ,Dn3 ,v078 ,gtp3
 .byte   W72
@  #06 @024   ----------------------------------------
Label_01022971:
 .byte   W12
 .byte   N11 ,Fn2 ,v064
 .byte   W12
 .byte   As2
 .byte   W12
 .byte   Cn3
 .byte   W12
 .byte   Dn3
 .byte   W12
 .byte   Fn3
 .byte   W12
 .byte   As3
 .byte   W12
 .byte   Cn4
 .byte   W12
 .byte   PEND 
@  #06 @025   ----------------------------------------
Label_01022983:
 .byte   N11 ,Dn4 ,v064
 .byte   W36
 .byte   N02
 .byte   W03
 .byte   Dn5
 .byte   W32
 .byte   W01
 .byte   An4
 .byte   W03
 .byte   An5
 .byte   W21
 .byte   PEND 
@  #06 @026   ----------------------------------------
Label_01022991:
 .byte   N02 ,En4 ,v064
 .byte   W03
 .byte   En5
 .byte   W21
 .byte   N11 ,Cn3
 .byte   W12
 .byte   Dn3
 .byte   W12
 .byte   En3
 .byte   W12
 .byte   Gn3
 .byte   W12
 .byte   Cn4
 .byte   W12
 .byte   Dn4
 .byte   W12
 .byte   PEND 
@  #06 @027   ----------------------------------------
Label_010229A5:
 .byte   N02 ,Cn4 ,v064
 .byte   W03
 .byte   Cn5
 .byte   W21
 .byte   N05
 .byte   W06
 .byte   Gn4
 .byte   W06
 .byte   N02 ,En4
 .byte   W12
 .byte   N05 ,Gn4
 .byte   W06
 .byte   En4
 .byte   W06
 .byte   N02 ,Cn4
 .byte   W12
 .byte   N05 ,En4
 .byte   W06
 .byte   Cn4
 .byte   W06
 .byte   N02 ,Gn3
 .byte   W12
 .byte   PEND 
@  #06 @028   ----------------------------------------
 .byte   PATT
  .word Label_01022971
@  #06 @029   ----------------------------------------
Label_010229C8:
 .byte   N02 ,Dn4 ,v064
 .byte   W03
 .byte   Dn5
 .byte   W32
 .byte   W01
 .byte   N11 ,En5
 .byte   W36
 .byte   Fn5
 .byte   W24
 .byte   PEND 
@  #06 @030   ----------------------------------------
Label_010229D5:
 .byte   N11 ,En5 ,v064
 .byte   W24
 .byte   Cn3
 .byte   W12
 .byte   Dn3
 .byte   W12
 .byte   En3
 .byte   W12
 .byte   Gn3
 .byte   W12
 .byte   Cn4
 .byte   W12
 .byte   Dn4
 .byte   W12
 .byte   PEND 
@  #06 @031   ----------------------------------------
Label_010229E6:
 .byte   N02 ,Cn4 ,v064
 .byte   W03
 .byte   Cn5
 .byte   W44
 .byte   W01
 .byte   N07 ,Cn4
 .byte   W08
 .byte   En4
 .byte   W08
 .byte   Gn4
 .byte   W08
 .byte   En4
 .byte   W08
 .byte   Gn4
 .byte   W08
 .byte   Cn5
 .byte   W08
 .byte   PEND 
@  #06 @032   ----------------------------------------
 .byte   PATT
  .word Label_01022971
@  #06 @033   ----------------------------------------
 .byte   PATT
  .word Label_01022983
@  #06 @034   ----------------------------------------
 .byte   PATT
  .word Label_01022991
@  #06 @035   ----------------------------------------
 .byte   PATT
  .word Label_010229A5
@  #06 @036   ----------------------------------------
Label_01022A0F:
 .byte   W12
 .byte   N11 ,Bn2 ,v064
 .byte   W12
 .byte   Dn3
 .byte   W12
 .byte   An3
 .byte   W24
 .byte   Bn2
 .byte   W12
 .byte   Dn3
 .byte   W12
 .byte   An3
 .byte   W12
 .byte   PEND 
@  #06 @037   ----------------------------------------
Label_01022A1F:
 .byte   N11 ,Dn4 ,v064
 .byte   W36
 .byte   En5
 .byte   W36
 .byte   Fn5
 .byte   W24
 .byte   PEND 
@  #06 @038   ----------------------------------------
Label_01022A28:
 .byte   N11 ,En5 ,v064
 .byte   W36
 .byte   An2
 .byte   W12
 .byte   An3
 .byte   W36
 .byte   An3
 .byte   W12
 .byte   PEND 
@  #06 @039   ----------------------------------------
 .byte   Cn4
 .byte   W24
 .byte   N07 ,Cn5
 .byte   W08
 .byte   An4
 .byte   W08
 .byte   En4
 .byte   W08
 .byte   Cn4
 .byte   W08
 .byte   An3
 .byte   W08
 .byte   En3
 .byte   W08
 .byte   Cn3
 .byte   W24
@  #06 @040   ----------------------------------------
 .byte   GOTO
  .word Label_0102292A
@  #06 @041   ----------------------------------------
 .byte   W96
@  #06 @042   ----------------------------------------
 .byte   W48
 .byte   W96
@  #06 @043   ----------------------------------------
 .byte   W48
 .byte   W96
@  #06 @044   ----------------------------------------
 .byte   W48
 .byte   W96
@  #06 @045   ----------------------------------------
 .byte   W48
 .byte   W96
@  #06 @046   ----------------------------------------
 .byte   W48
 .byte   W96
@  #06 @047   ----------------------------------------
 .byte   W48
 .byte   W96
@  #06 @048   ----------------------------------------
 .byte   W48
 .byte   W96
@  #06 @049   ----------------------------------------
 .byte   W48
 .byte   W96
@  #06 @050   ----------------------------------------
 .byte   W48
 .byte   W96
@  #06 @051   ----------------------------------------
 .byte   W48
 .byte   W96
@  #06 @052   ----------------------------------------
 .byte   W48
 .byte   W96
@  #06 @053   ----------------------------------------
 .byte   W48
 .byte   W96
@  #06 @054   ----------------------------------------
 .byte   W48
 .byte   N05 ,As3 ,v115
 .byte   W36
 .byte   An3
 .byte   W36
@  #06 @055   ----------------------------------------
 .byte   Cn4 ,v127
 .byte   N05 ,Fn4
 .byte   W36
 .byte   An3 ,v112
 .byte   W36
 .byte   As3
 .byte   W36
@  #06 @056   ----------------------------------------
 .byte   An3
 .byte   W36
 .byte   Cn4
 .byte   N05 ,Fn4
 .byte   W36
 .byte   An3
 .byte   W36
@  #06 @057   ----------------------------------------
 .byte   N32 ,Dn2 ,v064 ,gtp3
 .byte   W36
 .byte   N23 ,En2 ,v071
 .byte   W24
 .byte   N11 ,An2 ,v076
 .byte   W12
 .byte   N32 ,Dn3 ,v078 ,gtp3
 .byte   W72
@  #06 @058   ----------------------------------------
 .byte   PATT
  .word Label_01022971
@  #06 @059   ----------------------------------------
 .byte   PATT
  .word Label_01022983
@  #06 @060   ----------------------------------------
 .byte   PATT
  .word Label_01022991
@  #06 @061   ----------------------------------------
 .byte   PATT
  .word Label_010229A5
@  #06 @062   ----------------------------------------
 .byte   PATT
  .word Label_01022971
@  #06 @063   ----------------------------------------
 .byte   PATT
  .word Label_010229C8
@  #06 @064   ----------------------------------------
 .byte   PATT
  .word Label_010229D5
@  #06 @065   ----------------------------------------
 .byte   PATT
  .word Label_010229E6
@  #06 @066   ----------------------------------------
 .byte   PATT
  .word Label_01022971
@  #06 @067   ----------------------------------------
 .byte   PATT
  .word Label_01022983
@  #06 @068   ----------------------------------------
 .byte   PATT
  .word Label_01022991
@  #06 @069   ----------------------------------------
 .byte   PATT
  .word Label_010229A5
@  #06 @070   ----------------------------------------
 .byte   PATT
  .word Label_01022A0F
@  #06 @071   ----------------------------------------
 .byte   PATT
  .word Label_01022A1F
@  #06 @072   ----------------------------------------
 .byte   PATT
  .word Label_01022A28
@  #06 @073   ----------------------------------------
 .byte   N11 ,Cn4 ,v064
 .byte   W24
 .byte   N07 ,Cn5
 .byte   W08
 .byte   An4
 .byte   W08
 .byte   En4
 .byte   W08
 .byte   Cn4
 .byte   W08
 .byte   An3
 .byte   W08
 .byte   En3
 .byte   W08
 .byte   Cn3
 .byte   W23
 .byte   FINE

@**************** Track 7 (Midi-Chn.6) ****************@

song06_007:
@  #07 @000   ----------------------------------------
 .byte   KEYSH , song06_key+0
Label_01024252:
 .byte   VOICE , 40
 .byte   BENDR, 12
 .byte   VOL , 55*song06_mvl/mxv
 .byte   N05 ,En3 ,v095
 .byte   W12
 .byte   En3
 .byte   W12
 .byte   En3
 .byte   W48
 .byte   En3
 .byte   W24
@  #07 @001   ----------------------------------------
Label_01024262:
 .byte   N05 ,En3 ,v095
 .byte   W12
 .byte   En3
 .byte   W12
 .byte   En3
 .byte   W12
 .byte   En3
 .byte   W12
 .byte   Fs3
 .byte   W12
 .byte   Fs3
 .byte   W12
 .byte   Fs3
 .byte   W24
 .byte   PEND 
@  #07 @002   ----------------------------------------
Label_01024273:
 .byte   W24
 .byte   N05 ,Fn3 ,v095
 .byte   W24
 .byte   Fn3
 .byte   W12
 .byte   Fn3
 .byte   W12
 .byte   Fn3
 .byte   W12
 .byte   Fn3
 .byte   W12
 .byte   PEND 
@  #07 @003   ----------------------------------------
 .byte   En3
 .byte   W12
 .byte   En3
 .byte   W12
 .byte   En3
 .byte   W12
 .byte   Dn3
 .byte   W60
@  #07 @004   ----------------------------------------
Label_01024289:
 .byte   W12
 .byte   N05 ,En3 ,v095
 .byte   W12
 .byte   En3
 .byte   W12
 .byte   En3
 .byte   W12
 .byte   Dn3
 .byte   W36
 .byte   Dn3
 .byte   W12
 .byte   PEND 
@  #07 @005   ----------------------------------------
 .byte   W24
 .byte   En3
 .byte   W12
 .byte   En3
 .byte   W12
 .byte   En3
 .byte   W12
 .byte   En3
 .byte   W12
 .byte   En3
 .byte   W12
 .byte   En3
 .byte   W12
@  #07 @006   ----------------------------------------
Label_010242A4:
 .byte   N05 ,En3 ,v095
 .byte   W12
 .byte   En3
 .byte   W12
 .byte   En3
 .byte   W48
 .byte   En3
 .byte   W24
 .byte   PEND 
@  #07 @007   ----------------------------------------
 .byte   PATT
  .word Label_01024262
@  #07 @008   ----------------------------------------
 .byte   PATT
  .word Label_01024273
@  #07 @009   ----------------------------------------
 .byte   PATT
  .word Label_010242A4
@  #07 @010   ----------------------------------------
Label_010242BE:
 .byte   N05 ,En3 ,v095
 .byte   W12
 .byte   En3
 .byte   W12
 .byte   En3
 .byte   W12
 .byte   En3
 .byte   W12
 .byte   En3
 .byte   W12
 .byte   En3
 .byte   W12
 .byte   En3
 .byte   W12
 .byte   En3
 .byte   W12
 .byte   PEND 
@  #07 @011   ----------------------------------------
 .byte   PATT
  .word Label_010242BE
@  #07 @012   ----------------------------------------
Label_010242D6:
 .byte   N05 ,Fn3 ,v095
 .byte   W12
 .byte   Fn3
 .byte   W12
 .byte   Fn3
 .byte   W48
 .byte   Fn3
 .byte   W24
 .byte   PEND 
@  #07 @013   ----------------------------------------
Label_010242E1:
 .byte   N05 ,Fn3 ,v095
 .byte   W12
 .byte   Fn3
 .byte   W12
 .byte   Fn3
 .byte   W12
 .byte   Fn3
 .byte   W12
 .byte   Gn3
 .byte   W12
 .byte   Gn3
 .byte   W12
 .byte   Gn3
 .byte   W24
 .byte   PEND 
@  #07 @014   ----------------------------------------
 .byte   PATT
  .word Label_01024273
@  #07 @015   ----------------------------------------
 .byte   N05 ,En3 ,v095
 .byte   W12
 .byte   En3
 .byte   W12
 .byte   En3
 .byte   W72
@  #07 @016   ----------------------------------------
 .byte   PATT
  .word Label_01024289
@  #07 @017   ----------------------------------------
 .byte   W24
 .byte   N05 ,Fn3 ,v095
 .byte   W12
 .byte   Fn3
 .byte   W12
 .byte   Fn3
 .byte   W12
 .byte   Fn3
 .byte   W12
 .byte   Fn3
 .byte   W12
 .byte   Fn3
 .byte   W12
@  #07 @018   ----------------------------------------
 .byte   PATT
  .word Label_010242D6
@  #07 @019   ----------------------------------------
 .byte   PATT
  .word Label_010242E1
@  #07 @020   ----------------------------------------
 .byte   W24
 .byte   N05 ,Gn3 ,v095
 .byte   W24
 .byte   Gn3
 .byte   W12
 .byte   Gn3
 .byte   W12
 .byte   Gn3
 .byte   W12
 .byte   Gn3
 .byte   W12
@  #07 @021   ----------------------------------------
 .byte   Gn3
 .byte   W12
 .byte   Gn3
 .byte   W12
 .byte   Gn3
 .byte   W48
 .byte   Gn3
 .byte   W24
@  #07 @022   ----------------------------------------
 .byte   Gn3
 .byte   W12
 .byte   Gn3
 .byte   W12
 .byte   Gn3
 .byte   W12
 .byte   Gn3
 .byte   W12
 .byte   TIE ,Fn4
 .byte   W48
@  #07 @023   ----------------------------------------
 .byte   W60
 .byte   EOT
 .byte   N32 ,En4 ,v095 ,gtp3
 .byte   W36
@  #07 @024   ----------------------------------------
 .byte   N96 ,Dn4
 .byte   W96
@  #07 @025   ----------------------------------------
Label_01024347:
 .byte   N36 ,As3 ,v095
 .byte   W36
 .byte   Dn4
 .byte   W36
 .byte   N23 ,An4
 .byte   W24
 .byte   PEND 
@  #07 @026   ----------------------------------------
 .byte   N92 ,En4 ,v095 ,gtp3
 .byte   W96
@  #07 @027   ----------------------------------------
 .byte   N96 ,Cn4
 .byte   W96
@  #07 @028   ----------------------------------------
 .byte   Dn4
 .byte   W96
@  #07 @029   ----------------------------------------
Label_0102435B:
 .byte   N32 ,Dn4 ,v095 ,gtp3
 .byte   W36
 .byte   N36 ,En4
 .byte   W36
 .byte   N23 ,Fn4
 .byte   W24
 .byte   PEND 
@  #07 @030   ----------------------------------------
 .byte   N92 ,En4 ,v095 ,gtp3
 .byte   W96
@  #07 @031   ----------------------------------------
 .byte   N96 ,Cn4
 .byte   W96
@  #07 @032   ----------------------------------------
 .byte   Dn4
 .byte   W96
@  #07 @033   ----------------------------------------
 .byte   PATT
  .word Label_01024347
@  #07 @034   ----------------------------------------
 .byte   N92 ,En4 ,v095 ,gtp3
 .byte   W96
@  #07 @035   ----------------------------------------
 .byte   N96 ,Cn4
 .byte   W96
@  #07 @036   ----------------------------------------
 .byte   Dn4
 .byte   W96
@  #07 @037   ----------------------------------------
 .byte   PATT
  .word Label_0102435B
@  #07 @038   ----------------------------------------
 .byte   N96 ,En4 ,v095
 .byte   W96
@  #07 @039   ----------------------------------------
 .byte   N92 ,Cn5 ,v095 ,gtp3
 .byte   En5
 .byte   W96
@  #07 @040   ----------------------------------------
 .byte   N05 ,En3
 .byte   GOTO
  .word Label_01024252
@  #07 @041   ----------------------------------------
 .byte   W12
 .byte   En3
 .byte   W12
 .byte   En3
 .byte   W48
 .byte   En3
 .byte   W24
@  #07 @042   ----------------------------------------
 .byte   En3
 .byte   W12
 .byte   En3
 .byte   W12
 .byte   En3
 .byte   W12
 .byte   En3
 .byte   W12
Label_010243A5:
 .byte   N05 ,Fs3 ,v095
 .byte   W12
 .byte   Fs3
 .byte   W12
 .byte   Fs3
 .byte   W48
@  #07 @043   ----------------------------------------
 .byte   Fn3
 .byte   W24
 .byte   Fn3
 .byte   W12
 .byte   Fn3
 .byte   W12
 .byte   Fn3
 .byte   W12
 .byte   Fn3
 .byte   W12
 .byte   PEND 
 .byte   En3
 .byte   W12
 .byte   En3
 .byte   W12
@  #07 @044   ----------------------------------------
 .byte   En3
 .byte   W12
 .byte   Dn3
 .byte   W36
 .byte   N11 ,Cn4
 .byte   W12
 .byte   Bn3
 .byte   W12
 .byte   An3
 .byte   W12
 .byte   N05 ,En3
 .byte   W12
@  #07 @045   ----------------------------------------
 .byte   En3
 .byte   W12
 .byte   En3
 .byte   W12
 .byte   Dn3
 .byte   W36
 .byte   Dn3
 .byte   W36
@  #07 @046   ----------------------------------------
 .byte   En3
 .byte   W12
 .byte   En3
 .byte   W12
 .byte   En3
 .byte   W12
 .byte   En3
 .byte   W12
 .byte   En3
 .byte   W12
 .byte   En3
 .byte   W12
Label_010243DE:
 .byte   N05 ,En3 ,v095
 .byte   W12
 .byte   En3
 .byte   W12
@  #07 @047   ----------------------------------------
 .byte   En3
 .byte   W48
 .byte   En3
 .byte   W24
 .byte   En3
 .byte   W12
 .byte   En3
 .byte   W12
@  #07 @048   ----------------------------------------
 .byte   En3
 .byte   W12
 .byte   En3
 .byte   W12
 .byte   PEND 
@  #07 @049   ----------------------------------------
 .byte   PATT
  .word Label_010243A5
@  #07 @050   ----------------------------------------
 .byte   PATT
  .word Label_010243DE
@  #07 @051   ----------------------------------------
 .byte   N05 ,En3 ,v095
 .byte   W12
 .byte   En3
 .byte   W12
 .byte   En3
 .byte   W12
 .byte   En3
 .byte   W12
 .byte   En3
 .byte   W12
 .byte   En3
 .byte   W12
 .byte   En3
 .byte   W12
 .byte   En3
 .byte   W12
@  #07 @052   ----------------------------------------
 .byte   En3
 .byte   W12
 .byte   En3
 .byte   W12
 .byte   En3
 .byte   W12
 .byte   En3
 .byte   W12
Label_01024415:
 .byte   N05 ,Fn3 ,v095
 .byte   W12
 .byte   Fn3
 .byte   W12
 .byte   Fn3
 .byte   W48
@  #07 @053   ----------------------------------------
 .byte   Fn3
 .byte   W24
 .byte   Fn3
 .byte   W12
 .byte   Fn3
 .byte   W12
 .byte   Fn3
 .byte   W12
 .byte   Fn3
 .byte   W12
 .byte   PEND 
 .byte   Gn3
 .byte   W12
 .byte   Gn3
 .byte   W12
@  #07 @054   ----------------------------------------
 .byte   Gn3
 .byte   W48
 .byte   Fn3
 .byte   W24
 .byte   Fn3
 .byte   W12
 .byte   Fn3
 .byte   W12
@  #07 @055   ----------------------------------------
 .byte   Fn3
 .byte   W12
 .byte   Fn3
 .byte   W12
 .byte   En3
 .byte   W12
 .byte   En3
 .byte   W12
 .byte   En3
 .byte   W48
@  #07 @056   ----------------------------------------
 .byte   N11 ,Cn4
 .byte   W12
 .byte   Bn3
 .byte   W12
 .byte   An3
 .byte   W12
 .byte   N05 ,En3
 .byte   W12
 .byte   En3
 .byte   W12
 .byte   En3
 .byte   W12
 .byte   Dn3
 .byte   W36
@  #07 @057   ----------------------------------------
 .byte   Dn3
 .byte   W36
 .byte   Fn3
 .byte   W12
 .byte   Fn3
 .byte   W12
 .byte   Fn3
 .byte   W12
 .byte   Fn3
 .byte   W12
 .byte   Fn3
 .byte   W12
@  #07 @058   ----------------------------------------
 .byte   Fn3
 .byte   W12
@  #07 @059   ----------------------------------------
 .byte   PATT
  .word Label_01024415
@  #07 @060   ----------------------------------------
Label_01024461:
 .byte   N05 ,Gn3 ,v095
 .byte   W12
 .byte   Gn3
 .byte   W12
 .byte   Gn3
 .byte   W48
 .byte   Gn3
 .byte   W24
@  #07 @061   ----------------------------------------
 .byte   Gn3
 .byte   W12
 .byte   Gn3
 .byte   W12
 .byte   Gn3
 .byte   W12
 .byte   Gn3
 .byte   W12
 .byte   PEND 
@  #07 @062   ----------------------------------------
 .byte   PATT
  .word Label_01024461
@  #07 @063   ----------------------------------------
 .byte   N32 ,Fn4 ,v095 ,gtp3
 .byte   W36
 .byte   N05
 .byte   W05
 .byte   N06
 .byte   W06
 .byte   Fn4
 .byte   W06
 .byte   Fn4
 .byte   W06
 .byte   Fn4
 .byte   W06
 .byte   N07
 .byte   W07
 .byte   N05
 .byte   W05
 .byte   N06
 .byte   W06
 .byte   Fn4
 .byte   W06
 .byte   Fn4
 .byte   W06
 .byte   Fn4
 .byte   W06
@  #07 @064   ----------------------------------------
 .byte   Fn4
 .byte   W07
 .byte   N32 ,En4 ,v095 ,gtp3
 .byte   W36
Label_0102449B:
 .byte   N05 ,Dn4 ,v095
 .byte   W05
 .byte   N06
 .byte   W06
 .byte   Dn4
 .byte   W06
 .byte   Dn4
 .byte   W06
 .byte   Dn4
 .byte   W06
 .byte   Dn4
 .byte   W06
 .byte   Dn4
 .byte   W06
 .byte   Dn4
 .byte   W06
 .byte   Dn4
 .byte   W06
@  #07 @065   ----------------------------------------
 .byte   Dn4
 .byte   W06
 .byte   Dn4
 .byte   W06
 .byte   Dn4
 .byte   W06
 .byte   Dn4
 .byte   W06
 .byte   Dn4
 .byte   W06
 .byte   Dn4
 .byte   W06
 .byte   Dn4
 .byte   W07
 .byte   PEND 
Label_010244BE:
 .byte   N05 ,As3 ,v095
 .byte   W05
 .byte   N06
 .byte   W06
 .byte   As3
 .byte   W06
 .byte   As3
 .byte   W06
 .byte   As3
 .byte   W06
 .byte   As3
 .byte   W07
 .byte   N05 ,Dn4
 .byte   W05
 .byte   N06
 .byte   W06
 .byte   Dn4
 .byte   W06
@  #07 @066   ----------------------------------------
 .byte   Dn4
 .byte   W06
 .byte   Dn4
 .byte   W06
 .byte   Dn4
 .byte   W07
 .byte   N23 ,An4
 .byte   W24
 .byte   PEND 
 .byte   N92 ,En4 ,v095 ,gtp3
 .byte   W96
@  #07 @067   ----------------------------------------
Label_010244E2:
 .byte   N05 ,Cn4 ,v095
 .byte   W05
 .byte   N06
 .byte   W06
 .byte   Cn4
 .byte   W06
 .byte   Cn4
 .byte   W06
 .byte   Cn4
 .byte   W06
 .byte   Cn4
 .byte   W06
 .byte   Cn4
 .byte   W06
 .byte   Cn4
 .byte   W06
 .byte   Cn4
 .byte   W06
 .byte   Cn4
 .byte   W06
 .byte   Cn4
 .byte   W06
 .byte   Cn4
 .byte   W06
 .byte   Cn4
 .byte   W06
 .byte   Cn4
 .byte   W06
 .byte   Cn4
 .byte   W06
 .byte   Cn4
 .byte   W07
 .byte   PEND 
@  #07 @068   ----------------------------------------
 .byte   PATT
  .word Label_0102449B
@  #07 @069   ----------------------------------------
Label_0102450A:
 .byte   N32 ,Dn4 ,v095 ,gtp3
 .byte   W36
 .byte   N05 ,Dn5
 .byte   W06
 .byte   An4
 .byte   W06
 .byte   N11 ,Dn4
 .byte   W12
 .byte   Dn4
 .byte   W12
 .byte   N23 ,Fn4
 .byte   N23 ,An4
 .byte   W24
 .byte   PEND 
@  #07 @070   ----------------------------------------
 .byte   N92 ,En4 ,v095 ,gtp3
 .byte   W96
@  #07 @071   ----------------------------------------
 .byte   PATT
  .word Label_010244E2
@  #07 @072   ----------------------------------------
 .byte   PATT
  .word Label_0102449B
@  #07 @073   ----------------------------------------
 .byte   PATT
  .word Label_010244BE
@  #07 @074   ----------------------------------------
 .byte   N92 ,En4 ,v095 ,gtp3
 .byte   W96
@  #07 @075   ----------------------------------------
 .byte   PATT
  .word Label_010244E2
@  #07 @076   ----------------------------------------
 .byte   PATT
  .word Label_0102449B
@  #07 @077   ----------------------------------------
 .byte   PATT
  .word Label_0102450A
@  #07 @078   ----------------------------------------
 .byte   N05 ,En4 ,v095
 .byte   W05
 .byte   N06
 .byte   W06
 .byte   En4
 .byte   W06
 .byte   En4
 .byte   W06
 .byte   En4
 .byte   W06
 .byte   En4
 .byte   W06
 .byte   En4
 .byte   W06
 .byte   En4
 .byte   W06
 .byte   En4
 .byte   W06
 .byte   En4
 .byte   W06
 .byte   En4
 .byte   W06
 .byte   En4
 .byte   W06
 .byte   En4
 .byte   W06
 .byte   En4
 .byte   W06
 .byte   En4
 .byte   W06
 .byte   En4
 .byte   W07
@  #07 @079   ----------------------------------------
 .byte   N92 ,Cn5 ,v095 ,gtp3
 .byte   En5
 .byte   W92
 .byte   W03
 .byte   FINE

@**************** Track 8 (Midi-Chn.7) ****************@

song06_008:
@  #08 @000   ----------------------------------------
 .byte   KEYSH , song06_key+0
Label_01024642:
 .byte   VOICE , 121
 .byte   VOL , 55*song06_mvl/mxv
 .byte   N32 ,An2 ,v080 ,gtp3
 .byte   N11 ,Cn1
 .byte   N11 ,Dn1 ,v064
 .byte   W36
 .byte   Dn1
 .byte   W36
 .byte   Dn1
 .byte   W24
@  #08 @001   ----------------------------------------
Label_01024654:
 .byte   N11 ,Dn1 ,v064
 .byte   W12
 .byte   N05
 .byte   W05
 .byte   N06
 .byte   W06
 .byte   Dn1
 .byte   W06
 .byte   Dn1
 .byte   W06
 .byte   Dn1
 .byte   W06
 .byte   Dn1
 .byte   W07
 .byte   N11
 .byte   W36
 .byte   Dn1
 .byte   W12
 .byte   PEND 
@  #08 @002   ----------------------------------------
Label_01024669:
 .byte   W24
 .byte   N11 ,Dn1 ,v064
 .byte   W12
 .byte   N05
 .byte   W24
 .byte   Dn1
 .byte   W05
 .byte   N06
 .byte   W06
 .byte   Dn1
 .byte   W06
 .byte   Dn1
 .byte   W06
 .byte   Dn1
 .byte   W06
 .byte   Dn1
 .byte   W07
 .byte   PEND 
@  #08 @003   ----------------------------------------
Label_0102467D:
 .byte   N11 ,Cn1 ,v080
 .byte   N11 ,Dn1 ,v064
 .byte   W12
 .byte   N05
 .byte   W24
 .byte   N11
 .byte   W12
 .byte   N05
 .byte   W24
 .byte   N11
 .byte   W24
 .byte   PEND 
@  #08 @004   ----------------------------------------
 .byte   PATT
  .word Label_01024654
@  #08 @005   ----------------------------------------
Label_01024692:
 .byte   W24
 .byte   N11 ,Dn1 ,v064
 .byte   W12
 .byte   N05
 .byte   W24
 .byte   N02 ,An2 ,v049
 .byte   N05 ,Dn1 ,v064
 .byte   W02
 .byte   N03 ,An2 ,v052
 .byte   W03
 .byte   An2 ,v056
 .byte   N06 ,Dn1 ,v064
 .byte   W03
 .byte   N03 ,An2 ,v060
 .byte   W03
 .byte   An2 ,v064
 .byte   N06 ,Dn1
 .byte   W03
 .byte   N03 ,An2 ,v068
 .byte   W03
 .byte   An2 ,v072
 .byte   N06 ,Dn1 ,v064
 .byte   W03
 .byte   N03 ,An2 ,v076
 .byte   W03
 .byte   An2 ,v080
 .byte   N06 ,Dn1 ,v064
 .byte   W03
 .byte   N03 ,An2 ,v084
 .byte   W03
 .byte   An2 ,v087
 .byte   N06 ,Dn1 ,v064
 .byte   W03
 .byte   N36 ,An2 ,v091 ,gtp3
 .byte   W04
 .byte   PEND 
@  #08 @006   ----------------------------------------
Label_010246D7:
 .byte   N11 ,Cn1 ,v080
 .byte   N11 ,Dn1 ,v064
 .byte   W36
 .byte   Dn1
 .byte   W12
 .byte   N05
 .byte   W24
 .byte   N11
 .byte   W24
 .byte   PEND 
@  #08 @007   ----------------------------------------
 .byte   PATT
  .word Label_01024654
@  #08 @008   ----------------------------------------
 .byte   PATT
  .word Label_01024669
@  #08 @009   ----------------------------------------
 .byte   PATT
  .word Label_0102467D
@  #08 @010   ----------------------------------------
 .byte   PATT
  .word Label_01024654
@  #08 @011   ----------------------------------------
 .byte   PATT
  .word Label_01024669
@  #08 @012   ----------------------------------------
 .byte   N32 ,An2 ,v080 ,gtp3
 .byte   N11 ,Cn1
 .byte   N11 ,Dn1 ,v064
 .byte   W36
 .byte   Dn1
 .byte   W12
 .byte   N05
 .byte   W24
 .byte   N11
 .byte   W24
@  #08 @013   ----------------------------------------
 .byte   PATT
  .word Label_01024654
@  #08 @014   ----------------------------------------
 .byte   PATT
  .word Label_01024669
@  #08 @015   ----------------------------------------
 .byte   PATT
  .word Label_010246D7
@  #08 @016   ----------------------------------------
 .byte   PATT
  .word Label_01024654
@  #08 @017   ----------------------------------------
 .byte   PATT
  .word Label_01024692
@  #08 @018   ----------------------------------------
 .byte   PATT
  .word Label_010246D7
@  #08 @019   ----------------------------------------
 .byte   PATT
  .word Label_01024654
@  #08 @020   ----------------------------------------
 .byte   N05 ,Dn1 ,v064
 .byte   W24
 .byte   N11
 .byte   W24
 .byte   Dn1
 .byte   W12
 .byte   N05
 .byte   W05
 .byte   N06
 .byte   W06
 .byte   Dn1
 .byte   W06
 .byte   Dn1
 .byte   W06
 .byte   Dn1
 .byte   W06
 .byte   Dn1
 .byte   W07
@  #08 @021   ----------------------------------------
 .byte   PATT
  .word Label_010246D7
@  #08 @022   ----------------------------------------
 .byte   N11 ,Dn1 ,v064
 .byte   W12
 .byte   N05
 .byte   W05
 .byte   N06
 .byte   W06
 .byte   Dn1
 .byte   W06
 .byte   Dn1
 .byte   W06
 .byte   Dn1
 .byte   W06
 .byte   Dn1
 .byte   W07
 .byte   N11 ,Cn1 ,v080
 .byte   N11 ,Dn1 ,v064
 .byte   W36
 .byte   Dn1
 .byte   W12
@  #08 @023   ----------------------------------------
 .byte   W12
 .byte   Dn1
 .byte   W12
 .byte   Dn1
 .byte   W12
 .byte   Dn1
 .byte   W12
 .byte   Dn1
 .byte   W12
 .byte   N02 ,An2 ,v049
 .byte   N11 ,Cn1 ,v080
 .byte   N05 ,Dn1 ,v064
 .byte   W02
 .byte   N03 ,An2 ,v052
 .byte   W03
 .byte   An2 ,v056
 .byte   N06 ,Dn1 ,v064
 .byte   W03
 .byte   N03 ,An2 ,v060
 .byte   W03
 .byte   An2 ,v064
 .byte   N06 ,Dn1
 .byte   W03
 .byte   N03 ,An2 ,v068
 .byte   W03
 .byte   An2 ,v072
 .byte   N06 ,Dn1 ,v064
 .byte   W03
 .byte   N03 ,An2 ,v076
 .byte   W03
 .byte   An2 ,v080
 .byte   N06 ,Dn1 ,v064
 .byte   W03
 .byte   N03 ,An2 ,v084
 .byte   W03
 .byte   An2 ,v087
 .byte   N06 ,Dn1 ,v064
 .byte   W03
 .byte   N24 ,An2 ,v091 ,gtp3
 .byte   W04
@  #08 @024   ----------------------------------------
Label_010247AC:
 .byte   W48
 .byte   N15 ,Cs1 ,v076
 .byte   W16
 .byte   N07 ,Cs1 ,v059
 .byte   W16
 .byte   Cs1 ,v054
 .byte   W16
 .byte   PEND 
@  #08 @025   ----------------------------------------
Label_010247B9:
 .byte   W36
 .byte   N11 ,Dn1 ,v080
 .byte   W12
 .byte   Dn1
 .byte   W24
 .byte   N05
 .byte   W24
 .byte   PEND 
@  #08 @026   ----------------------------------------
Label_010247C3:
 .byte   N05 ,Dn1 ,v080
 .byte   W12
 .byte   N11
 .byte   W24
 .byte   Dn1
 .byte   W12
 .byte   Dn1
 .byte   N15 ,Cs1 ,v096
 .byte   W16
 .byte   N07 ,Cs1 ,v075
 .byte   W16
 .byte   Cs1 ,v070
 .byte   W16
 .byte   PEND 
@  #08 @027   ----------------------------------------
Label_010247D8:
 .byte   W36
 .byte   N11 ,Dn1 ,v080
 .byte   W12
 .byte   Dn1
 .byte   W24
 .byte   N05
 .byte   W12
 .byte   N01 ,An2 ,v064
 .byte   W01
 .byte   An2 ,v066
 .byte   W02
 .byte   An2 ,v068
 .byte   W01
 .byte   An2 ,v070
 .byte   W02
 .byte   An2 ,v072
 .byte   W01
 .byte   An2 ,v074
 .byte   W02
 .byte   An2 ,v076
 .byte   W01
 .byte   N07 ,An2 ,v078
 .byte   W02
 .byte   PEND 
@  #08 @028   ----------------------------------------
Label_010247FC:
 .byte   W36
 .byte   N11 ,Dn1 ,v080
 .byte   W12
 .byte   Dn1
 .byte   N15 ,Cs1 ,v076
 .byte   W16
 .byte   N07 ,Cs1 ,v059
 .byte   W16
 .byte   Cs1 ,v054
 .byte   W16
 .byte   PEND 
@  #08 @029   ----------------------------------------
 .byte   PATT
  .word Label_010247B9
@  #08 @030   ----------------------------------------
 .byte   PATT
  .word Label_010247C3
@  #08 @031   ----------------------------------------
Label_01024818:
 .byte   W36
 .byte   N11 ,Dn1 ,v080
 .byte   W12
 .byte   Dn1
 .byte   W24
 .byte   N02 ,An2 ,v049
 .byte   N05 ,Dn1 ,v080
 .byte   W03
 .byte   N02 ,An2 ,v049
 .byte   W03
 .byte   An2
 .byte   W03
 .byte   An2 ,v051
 .byte   W03
 .byte   An2 ,v060
 .byte   W03
 .byte   An2 ,v069
 .byte   W03
 .byte   An2 ,v078
 .byte   W03
 .byte   N24 ,An2 ,v087 ,gtp2
 .byte   W03
 .byte   PEND 
@  #08 @032   ----------------------------------------
 .byte   PATT
  .word Label_010247AC
@  #08 @033   ----------------------------------------
 .byte   PATT
  .word Label_010247B9
@  #08 @034   ----------------------------------------
 .byte   PATT
  .word Label_010247C3
@  #08 @035   ----------------------------------------
 .byte   PATT
  .word Label_010247D8
@  #08 @036   ----------------------------------------
 .byte   PATT
  .word Label_010247FC
@  #08 @037   ----------------------------------------
 .byte   PATT
  .word Label_010247B9
@  #08 @038   ----------------------------------------
Label_0102485C:
 .byte   N05 ,Dn1 ,v080
 .byte   W12
 .byte   N11
 .byte   W24
 .byte   Dn1
 .byte   W12
 .byte   Dn1
 .byte   N11 ,Cs1 ,v096
 .byte   W48
 .byte   PEND 
@  #08 @039   ----------------------------------------
 .byte   Dn1
 .byte   W24
 .byte   Dn1 ,v084
 .byte   W12
 .byte   N05 ,Dn1 ,v087
 .byte   W20
 .byte   N07 ,Dn1 ,v091
 .byte   W08
 .byte   Dn1 ,v092
 .byte   W08
 .byte   N11 ,Dn1 ,v112
 .byte   W12
 .byte   N02 ,An2 ,v064
 .byte   W03
 .byte   An2 ,v068
 .byte   W03
 .byte   An2 ,v072
 .byte   W03
 .byte   An2 ,v076
 .byte   W03
@  #08 @040   ----------------------------------------
 .byte   N32 ,An2 ,v080 ,gtp3
 .byte   N11 ,Cn1
 .byte   N11 ,Dn1 ,v064
 .byte   GOTO
  .word Label_01024642
@  #08 @041   ----------------------------------------
 .byte   W36
 .byte   Dn1
 .byte   W36
 .byte   Dn1
 .byte   W24
@  #08 @042   ----------------------------------------
 .byte   Dn1
 .byte   W12
 .byte   N05
 .byte   W05
 .byte   N06
 .byte   W06
 .byte   Dn1
 .byte   W06
 .byte   Dn1
 .byte   W06
 .byte   Dn1
 .byte   W06
 .byte   Dn1
 .byte   W07
Label_010248AC:
 .byte   N11 ,Dn1 ,v064
 .byte   W36
 .byte   Dn1
 .byte   W36
@  #08 @043   ----------------------------------------
 .byte   Dn1
 .byte   W12
 .byte   N05
 .byte   W24
 .byte   Dn1
 .byte   W05
 .byte   N06
 .byte   W06
 .byte   Dn1
 .byte   W06
 .byte   Dn1
 .byte   W06
 .byte   Dn1
 .byte   W06
 .byte   Dn1
 .byte   W07
 .byte   PEND 
Label_010248C3:
 .byte   N11 ,Cn1 ,v080
 .byte   N11 ,Dn1 ,v064
 .byte   W12
 .byte   N05
 .byte   W24
@  #08 @044   ----------------------------------------
 .byte   N11
 .byte   W12
 .byte   N05
 .byte   W24
 .byte   N11
 .byte   W24
 .byte   Dn1
 .byte   W12
 .byte   N05
 .byte   W05
 .byte   N06
 .byte   W06
 .byte   Dn1
 .byte   W06
 .byte   Dn1
 .byte   W06
 .byte   Dn1
 .byte   W06
@  #08 @045   ----------------------------------------
 .byte   Dn1
 .byte   W07
 .byte   PEND 
Label_010248E1:
 .byte   N11 ,Dn1 ,v064
 .byte   W36
 .byte   Dn1
 .byte   W36
 .byte   Dn1
 .byte   W12
 .byte   N05
 .byte   W24
@  #08 @046   ----------------------------------------
 .byte   N02 ,An2 ,v049
 .byte   N05 ,Dn1 ,v064
 .byte   W02
 .byte   N03 ,An2 ,v052
 .byte   W03
 .byte   An2 ,v056
 .byte   N06 ,Dn1 ,v064
 .byte   W03
 .byte   N03 ,An2 ,v060
 .byte   W03
 .byte   An2 ,v064
 .byte   N06 ,Dn1
 .byte   W03
 .byte   N03 ,An2 ,v068
 .byte   W03
 .byte   An2 ,v072
 .byte   N06 ,Dn1 ,v064
 .byte   W03
 .byte   N03 ,An2 ,v076
 .byte   W03
 .byte   An2 ,v080
 .byte   N06 ,Dn1 ,v064
 .byte   W03
 .byte   N03 ,An2 ,v084
 .byte   W03
 .byte   An2 ,v087
 .byte   N06 ,Dn1 ,v064
 .byte   W03
 .byte   N36 ,An2 ,v091 ,gtp3
 .byte   W04
 .byte   PEND 
Label_01024929:
 .byte   N11 ,Cn1 ,v080
 .byte   N11 ,Dn1 ,v064
 .byte   W36
 .byte   Dn1
 .byte   W12
 .byte   N05
 .byte   W24
@  #08 @047   ----------------------------------------
 .byte   N11
 .byte   W24
 .byte   Dn1
 .byte   W12
 .byte   N05
 .byte   W05
 .byte   N06
 .byte   W06
 .byte   Dn1
 .byte   W06
 .byte   Dn1
 .byte   W06
 .byte   Dn1
 .byte   W06
 .byte   Dn1
 .byte   W07
 .byte   PEND 
@  #08 @048   ----------------------------------------
 .byte   PATT
  .word Label_010248AC
@  #08 @049   ----------------------------------------
 .byte   PATT
  .word Label_010248C3
@  #08 @050   ----------------------------------------
 .byte   PATT
  .word Label_010248AC
@  #08 @051   ----------------------------------------
 .byte   N32 ,An2 ,v080 ,gtp3
 .byte   N11 ,Cn1
 .byte   N11 ,Dn1 ,v064
 .byte   W36
 .byte   Dn1
 .byte   W12
 .byte   N05
 .byte   W24
 .byte   N11
 .byte   W24
@  #08 @052   ----------------------------------------
 .byte   Dn1
 .byte   W12
 .byte   N05
 .byte   W05
 .byte   N06
 .byte   W06
 .byte   Dn1
 .byte   W06
 .byte   Dn1
 .byte   W06
 .byte   Dn1
 .byte   W06
 .byte   Dn1
 .byte   W07
@  #08 @053   ----------------------------------------
 .byte   PATT
  .word Label_010248AC
@  #08 @054   ----------------------------------------
 .byte   PATT
  .word Label_01024929
@  #08 @055   ----------------------------------------
 .byte   PATT
  .word Label_010248E1
@  #08 @056   ----------------------------------------
 .byte   PATT
  .word Label_01024929
@  #08 @057   ----------------------------------------
 .byte   N11 ,Dn1 ,v064
 .byte   W36
 .byte   Dn1
 .byte   W12
 .byte   N05
 .byte   W24
 .byte   N11
 .byte   W24
@  #08 @058   ----------------------------------------
 .byte   Dn1
 .byte   W12
 .byte   N05
 .byte   W05
 .byte   N06
 .byte   W06
 .byte   Dn1
 .byte   W06
 .byte   Dn1
 .byte   W06
 .byte   Dn1
 .byte   W06
 .byte   Dn1
 .byte   W07
@  #08 @059   ----------------------------------------
 .byte   PATT
  .word Label_01024929
@  #08 @060   ----------------------------------------
 .byte   N11 ,Cn1 ,v080
 .byte   N11 ,Dn1 ,v064
 .byte   W36
 .byte   Dn1
 .byte   W24
 .byte   Dn1
 .byte   W12
 .byte   Dn1
 .byte   W12
 .byte   Dn1
 .byte   W12
@  #08 @061   ----------------------------------------
 .byte   Dn1
 .byte   W12
 .byte   N02 ,An2 ,v049
 .byte   N11 ,Cn1 ,v080
 .byte   N05 ,Dn1 ,v064
 .byte   W02
 .byte   N03 ,An2 ,v052
 .byte   W03
 .byte   An2 ,v056
 .byte   N06 ,Dn1 ,v064
 .byte   W03
 .byte   N03 ,An2 ,v060
 .byte   W03
 .byte   An2 ,v064
 .byte   N06 ,Dn1
 .byte   W03
 .byte   N03 ,An2 ,v068
 .byte   W03
 .byte   An2 ,v072
 .byte   N06 ,Dn1 ,v064
 .byte   W03
 .byte   N03 ,An2 ,v076
 .byte   W03
 .byte   An2 ,v080
 .byte   N06 ,Dn1 ,v064
 .byte   W03
 .byte   N03 ,An2 ,v084
 .byte   W03
 .byte   An2 ,v087
 .byte   N06 ,Dn1 ,v064
 .byte   W03
 .byte   N24 ,An2 ,v091 ,gtp3
 .byte   W04
@  #08 @062   ----------------------------------------
 .byte   PATT
  .word Label_010247AC
@  #08 @063   ----------------------------------------
 .byte   PATT
  .word Label_010247B9
@  #08 @064   ----------------------------------------
 .byte   PATT
  .word Label_010247C3
@  #08 @065   ----------------------------------------
 .byte   PATT
  .word Label_010247D8
@  #08 @066   ----------------------------------------
 .byte   PATT
  .word Label_010247FC
@  #08 @067   ----------------------------------------
 .byte   PATT
  .word Label_010247B9
@  #08 @068   ----------------------------------------
 .byte   PATT
  .word Label_010247C3
@  #08 @069   ----------------------------------------
 .byte   PATT
  .word Label_01024818
@  #08 @070   ----------------------------------------
 .byte   PATT
  .word Label_010247AC
@  #08 @071   ----------------------------------------
 .byte   PATT
  .word Label_010247B9
@  #08 @072   ----------------------------------------
 .byte   PATT
  .word Label_010247C3
@  #08 @073   ----------------------------------------
 .byte   PATT
  .word Label_010247D8
@  #08 @074   ----------------------------------------
 .byte   PATT
  .word Label_010247FC
@  #08 @075   ----------------------------------------
 .byte   PATT
  .word Label_010247B9
@  #08 @076   ----------------------------------------
 .byte   PATT
  .word Label_0102485C
@  #08 @077   ----------------------------------------
 .byte   N11 ,Dn1 ,v096
 .byte   W24
 .byte   Dn1 ,v084
 .byte   W12
 .byte   N05 ,Dn1 ,v087
 .byte   W20
 .byte   N07 ,Dn1 ,v091
 .byte   W08
 .byte   Dn1 ,v092
 .byte   W08
 .byte   N11 ,Dn1 ,v112
 .byte   W12
 .byte   N02 ,An2 ,v064
 .byte   W03
 .byte   An2 ,v068
 .byte   W03
 .byte   An2 ,v072
 .byte   W03
 .byte   An2 ,v076
 .byte   W02
 .byte   FINE

@**************** Track 9 (Midi-Chn.8) ****************@

song06_009:
@  #09 @000   ----------------------------------------
 .byte   KEYSH , song06_key+0
Label_0100B982:
 .byte   VOICE , 49
 .byte   BENDR, 12
 .byte   VOL , 55*song06_mvl/mxv
 .byte   N05 ,Bn2 ,v115
 .byte   W36
 .byte   Bn2
 .byte   W36
 .byte   An2
 .byte   W24
@  #09 @001   ----------------------------------------
Label_0100B990:
 .byte   W12
 .byte   N05 ,An2 ,v115
 .byte   W36
 .byte   Dn3
 .byte   W36
 .byte   Dn3
 .byte   W12
 .byte   PEND 
@  #09 @002   ----------------------------------------
Label_0100B99A:
 .byte   W24
 .byte   N05 ,Dn3 ,v115
 .byte   W36
 .byte   Dn3
 .byte   W36
 .byte   PEND 
@  #09 @003   ----------------------------------------
Label_0100B9A2:
 .byte   N05 ,Cn3 ,v115
 .byte   W36
 .byte   Bn2
 .byte   W36
 .byte   An2
 .byte   W24
 .byte   PEND 
@  #09 @004   ----------------------------------------
 .byte   W12
 .byte   Cn3
 .byte   W36
 .byte   Bn2
 .byte   W36
 .byte   Bn2
 .byte   W12
@  #09 @005   ----------------------------------------
Label_0100B9B2:
 .byte   W24
 .byte   N05 ,An2 ,v115
 .byte   N05 ,Cn3
 .byte   W36
 .byte   An2
 .byte   N05 ,Cn3
 .byte   W36
 .byte   PEND 
@  #09 @006   ----------------------------------------
 .byte   Bn2
 .byte   W36
 .byte   Bn2
 .byte   W36
 .byte   An2
 .byte   W24
@  #09 @007   ----------------------------------------
 .byte   PATT
  .word Label_0100B990
@  #09 @008   ----------------------------------------
 .byte   PATT
  .word Label_0100B99A
@  #09 @009   ----------------------------------------
 .byte   PATT
  .word Label_0100B9A2
@  #09 @010   ----------------------------------------
 .byte   W12
 .byte   N05 ,Cn3 ,v115
 .byte   W36
 .byte   Gs2
 .byte   N05 ,Bn2
 .byte   W36
 .byte   Gs2
 .byte   N05 ,Bn2
 .byte   W12
@  #09 @011   ----------------------------------------
 .byte   PATT
  .word Label_0100B9B2
@  #09 @012   ----------------------------------------
Label_0100B9E5:
 .byte   N05 ,Dn3 ,v115
 .byte   W36
 .byte   Dn3
 .byte   W36
 .byte   Dn3
 .byte   W24
 .byte   PEND 
@  #09 @013   ----------------------------------------
Label_0100B9EE:
 .byte   W12
 .byte   N05 ,Dn3 ,v115
 .byte   W36
 .byte   Dn3
 .byte   W36
 .byte   Dn3
 .byte   W12
 .byte   PEND 
@  #09 @014   ----------------------------------------
 .byte   PATT
  .word Label_0100B99A
@  #09 @015   ----------------------------------------
 .byte   N05 ,Dn3 ,v115
 .byte   W72
 .byte   Dn3
 .byte   W24
@  #09 @016   ----------------------------------------
 .byte   PATT
  .word Label_0100B9EE
@  #09 @017   ----------------------------------------
 .byte   PATT
  .word Label_0100B99A
@  #09 @018   ----------------------------------------
 .byte   PATT
  .word Label_0100B9E5
@  #09 @019   ----------------------------------------
 .byte   W12
 .byte   N05 ,Dn3 ,v115
 .byte   W36
 .byte   As2
 .byte   W36
 .byte   As2
 .byte   W12
@  #09 @020   ----------------------------------------
 .byte   W24
 .byte   An2
 .byte   W36
 .byte   An2
 .byte   W36
@  #09 @021   ----------------------------------------
 .byte   As2
 .byte   W36
 .byte   As2
 .byte   W36
 .byte   An2
 .byte   W24
@  #09 @022   ----------------------------------------
 .byte   W12
 .byte   An2
 .byte   W84
@  #09 @023   ----------------------------------------
 .byte   W96
@  #09 @024   ----------------------------------------
 .byte   W96
@  #09 @025   ----------------------------------------
Label_0100BA2B:
 .byte   W36
 .byte   N32 ,An3 ,v064 ,gtp3
 .byte   W36
 .byte   N23 ,Fn3
 .byte   W24
 .byte   PEND 
@  #09 @026   ----------------------------------------
 .byte   N92 ,Gn3 ,v064 ,gtp3
 .byte   W96
@  #09 @027   ----------------------------------------
Label_0100BA3A:
 .byte   N05 ,Gn3 ,v064
 .byte   W05
 .byte   N06
 .byte   W06
 .byte   Gn3 ,v065
 .byte   W06
 .byte   Gn3 ,v066
 .byte   W06
 .byte   Gn3 ,v067
 .byte   W06
 .byte   Gn3 ,v068
 .byte   W06
 .byte   Gn3 ,v069
 .byte   W06
 .byte   Gn3 ,v070
 .byte   W06
 .byte   Gn3 ,v071
 .byte   W06
 .byte   Gn3 ,v072
 .byte   W06
 .byte   Gn3 ,v073
 .byte   W06
 .byte   Gn3 ,v074
 .byte   W06
 .byte   Gn3 ,v075
 .byte   W06
 .byte   Gn3 ,v076
 .byte   W06
 .byte   Gn3 ,v077
 .byte   W06
 .byte   Gn3 ,v078
 .byte   W07
 .byte   PEND 
@  #09 @028   ----------------------------------------
 .byte   N92 ,Fn3 ,v080 ,gtp3
 .byte   W96
@  #09 @029   ----------------------------------------
Label_0100BA70:
 .byte   N68 ,Fn3 ,v080 ,gtp3
 .byte   W72
 .byte   N23 ,An3
 .byte   W24
 .byte   PEND 
@  #09 @030   ----------------------------------------
 .byte   N92 ,Gn3 ,v080 ,gtp3
 .byte   W96
@  #09 @031   ----------------------------------------
Label_0100BA7E:
 .byte   N05 ,Gn3 ,v080
 .byte   W05
 .byte   N06
 .byte   W06
 .byte   Gn3
 .byte   W06
 .byte   Gn3
 .byte   W06
 .byte   Gn3
 .byte   W06
 .byte   Gn3
 .byte   W06
 .byte   Gn3
 .byte   W06
 .byte   Gn3
 .byte   W06
 .byte   Gn3
 .byte   W06
 .byte   Gn3
 .byte   W06
 .byte   Gn3
 .byte   W06
 .byte   Gn3
 .byte   W06
 .byte   Gn3
 .byte   W06
 .byte   Gn3
 .byte   W06
 .byte   Gn3
 .byte   W06
 .byte   Gn3
 .byte   W07
 .byte   PEND 
@  #09 @032   ----------------------------------------
 .byte   N92 ,Fn3 ,v080 ,gtp3
 .byte   W96
@  #09 @033   ----------------------------------------
 .byte   PATT
  .word Label_0100BA70
@  #09 @034   ----------------------------------------
 .byte   N92 ,Gn3 ,v080 ,gtp3
 .byte   W96
@  #09 @035   ----------------------------------------
Label_0100BAB0:
 .byte   N05 ,Gn3 ,v080
 .byte   W05
 .byte   N06
 .byte   W06
 .byte   Gn3 ,v081
 .byte   W06
 .byte   Gn3 ,v082
 .byte   W06
 .byte   Gn3 ,v083
 .byte   W06
 .byte   Gn3 ,v084
 .byte   W06
 .byte   Gn3 ,v085
 .byte   W06
 .byte   Gn3 ,v086
 .byte   W06
 .byte   Gn3 ,v087
 .byte   W06
 .byte   Gn3 ,v088
 .byte   W06
 .byte   Gn3 ,v089
 .byte   W06
 .byte   Gn3 ,v090
 .byte   W06
 .byte   Gn3 ,v091
 .byte   W06
 .byte   Gn3 ,v092
 .byte   W06
 .byte   Gn3 ,v093
 .byte   W06
 .byte   Gn3 ,v094
 .byte   W07
 .byte   PEND 
@  #09 @036   ----------------------------------------
Label_0100BAE1:
 .byte   N05 ,Fs3 ,v096
 .byte   W05
 .byte   N06
 .byte   W06
 .byte   Fs3
 .byte   W06
 .byte   Fs3 ,v080
 .byte   W06
 .byte   Fs3 ,v081
 .byte   W06
 .byte   Fs3
 .byte   W06
 .byte   Fs3 ,v082
 .byte   W06
 .byte   Fs3
 .byte   W06
 .byte   Fs3 ,v083
 .byte   W06
 .byte   Fs3
 .byte   W06
 .byte   Fs3 ,v084
 .byte   W06
 .byte   Fs3 ,v085
 .byte   W06
 .byte   Fs3
 .byte   W06
 .byte   Fs3 ,v086
 .byte   W06
 .byte   Fs3
 .byte   W06
 .byte   Fs3 ,v087
 .byte   W07
 .byte   PEND 
@  #09 @037   ----------------------------------------
Label_0100BB0C:
 .byte   N05 ,An3 ,v088
 .byte   W05
 .byte   N06
 .byte   W06
 .byte   An3 ,v089
 .byte   W06
 .byte   An3
 .byte   W06
 .byte   An3 ,v090
 .byte   W06
 .byte   An3
 .byte   W06
 .byte   An3 ,v091
 .byte   W06
 .byte   An3
 .byte   W06
 .byte   An3 ,v092
 .byte   W06
 .byte   An3 ,v093
 .byte   W06
 .byte   An3
 .byte   W06
 .byte   An3 ,v094
 .byte   W06
 .byte   An3
 .byte   W06
 .byte   An3 ,v095
 .byte   W06
 .byte   An3
 .byte   W06
 .byte   An3 ,v096
 .byte   W07
 .byte   PEND 
@  #09 @038   ----------------------------------------
Label_0100BB37:
 .byte   N05 ,Cn4 ,v096
 .byte   W05
 .byte   N06 ,Cn4 ,v103
 .byte   W06
 .byte   Cn4 ,v111
 .byte   W06
 .byte   Cn4 ,v080
 .byte   W06
 .byte   Cn4
 .byte   W06
 .byte   Cn4
 .byte   W06
 .byte   Cn4
 .byte   W06
 .byte   Cn4
 .byte   W06
 .byte   Cn4
 .byte   W06
 .byte   Cn4
 .byte   W06
 .byte   Cn4
 .byte   W06
 .byte   Cn4
 .byte   W06
 .byte   Cn4
 .byte   W06
 .byte   Cn4
 .byte   W06
 .byte   Cn4
 .byte   W06
 .byte   Cn4
 .byte   W07
 .byte   PEND 
@  #09 @039   ----------------------------------------
 .byte   N92 ,En4 ,v080 ,gtp3
 .byte   W96
@  #09 @040   ----------------------------------------
 .byte   N05 ,Bn2 ,v115
 .byte   GOTO
  .word Label_0100B982
@  #09 @041   ----------------------------------------
 .byte   W36
 .byte   Bn2
 .byte   W36
 .byte   An2
 .byte   W36
@  #09 @042   ----------------------------------------
 .byte   An2
 .byte   W36
Label_0100BB72:
 .byte   N05 ,Dn3 ,v115
 .byte   W36
 .byte   Dn3
 .byte   W36
@  #09 @043   ----------------------------------------
 .byte   Dn3
 .byte   W36
 .byte   Dn3
 .byte   W36
 .byte   PEND 
Label_0100BB7D:
 .byte   N05 ,Cn3 ,v115
 .byte   W36
@  #09 @044   ----------------------------------------
 .byte   Bn2
 .byte   W36
 .byte   An2
 .byte   W36
 .byte   Cn3
 .byte   W36
 .byte   PEND 
@  #09 @045   ----------------------------------------
 .byte   Bn2
 .byte   W36
 .byte   Bn2
 .byte   W36
 .byte   An2
 .byte   N05 ,Cn3
 .byte   W36
@  #09 @046   ----------------------------------------
 .byte   An2
 .byte   N05 ,Cn3
 .byte   W36
 .byte   Bn2
 .byte   W36
 .byte   Bn2
 .byte   W36
@  #09 @047   ----------------------------------------
 .byte   An2
 .byte   W36
 .byte   An2
 .byte   W36
@  #09 @048   ----------------------------------------
 .byte   PATT
  .word Label_0100BB72
@  #09 @049   ----------------------------------------
 .byte   PATT
  .word Label_0100BB7D
@  #09 @050   ----------------------------------------
 .byte   N05 ,Gs2 ,v115
 .byte   N05 ,Bn2
 .byte   W36
 .byte   Gs2
 .byte   N05 ,Bn2
 .byte   W36
 .byte   An2
 .byte   N05 ,Cn3
 .byte   W36
@  #09 @051   ----------------------------------------
 .byte   An2
 .byte   N05 ,Cn3
 .byte   W36
@  #09 @052   ----------------------------------------
 .byte   PATT
  .word Label_0100BB72
@  #09 @053   ----------------------------------------
 .byte   PATT
  .word Label_0100BB72
@  #09 @054   ----------------------------------------
 .byte   N05 ,Dn3 ,v115
 .byte   W72
 .byte   Dn3
 .byte   W36
@  #09 @055   ----------------------------------------
 .byte   Dn3
 .byte   W36
@  #09 @056   ----------------------------------------
 .byte   PATT
  .word Label_0100BB72
@  #09 @057   ----------------------------------------
 .byte   PATT
  .word Label_0100BB72
@  #09 @058   ----------------------------------------
Label_0100BBD4:
 .byte   N05 ,As2 ,v115
 .byte   W36
 .byte   As2
 .byte   W36
 .byte   An2
 .byte   W36
@  #09 @059   ----------------------------------------
 .byte   An2
 .byte   W36
 .byte   PEND 
@  #09 @060   ----------------------------------------
 .byte   PATT
  .word Label_0100BBD4
@  #09 @061   ----------------------------------------
 .byte   W96
@  #09 @062   ----------------------------------------
 .byte   W48
 .byte   W96
@  #09 @063   ----------------------------------------
 .byte   PATT
  .word Label_0100BA2B
@  #09 @064   ----------------------------------------
 .byte   N92 ,Gn3 ,v064 ,gtp3
 .byte   W96
@  #09 @065   ----------------------------------------
 .byte   PATT
  .word Label_0100BA3A
@  #09 @066   ----------------------------------------
 .byte   N92 ,Fn3 ,v080 ,gtp3
 .byte   W96
@  #09 @067   ----------------------------------------
 .byte   PATT
  .word Label_0100BA70
@  #09 @068   ----------------------------------------
 .byte   N92 ,Gn3 ,v080 ,gtp3
 .byte   W96
@  #09 @069   ----------------------------------------
 .byte   PATT
  .word Label_0100BA7E
@  #09 @070   ----------------------------------------
 .byte   N92 ,Fn3 ,v080 ,gtp3
 .byte   W96
@  #09 @071   ----------------------------------------
 .byte   PATT
  .word Label_0100BA70
@  #09 @072   ----------------------------------------
 .byte   N92 ,Gn3 ,v080 ,gtp3
 .byte   W96
@  #09 @073   ----------------------------------------
 .byte   PATT
  .word Label_0100BAB0
@  #09 @074   ----------------------------------------
 .byte   PATT
  .word Label_0100BAE1
@  #09 @075   ----------------------------------------
 .byte   PATT
  .word Label_0100BB0C
@  #09 @076   ----------------------------------------
 .byte   PATT
  .word Label_0100BB37
@  #09 @077   ----------------------------------------
 .byte   N92 ,En4 ,v080 ,gtp3
 .byte   W92
 .byte   W03
 .byte   FINE

@**************** Track 10 (Midi-Chn.9) ****************@

song06_010:
@  #10 @000   ----------------------------------------
 .byte   KEYSH , song06_key+0
Label_01023546:
 .byte   VOICE , 48
 .byte   BENDR, 12
 .byte   VOL , 55*song06_mvl/mxv
 .byte   N05 ,An1 ,v096
 .byte   W36
 .byte   An1
 .byte   W36
 .byte   An1
 .byte   W24
@  #10 @001   ----------------------------------------
 .byte   PATT
  .word Label_01024A76
@  #10 @002   ----------------------------------------
 .byte   PATT
  .word Label_01024A80
@  #10 @003   ----------------------------------------
 .byte   PATT
  .word Label_01024A88
@  #10 @004   ----------------------------------------
 .byte   PATT
  .word Label_01024A76
@  #10 @005   ----------------------------------------
 .byte   PATT
  .word Label_01024A80
@  #10 @006   ----------------------------------------
 .byte   PATT
  .word Label_01024A88
@  #10 @007   ----------------------------------------
 .byte   PATT
  .word Label_01024A76
@  #10 @008   ----------------------------------------
 .byte   PATT
  .word Label_01024A80
@  #10 @009   ----------------------------------------
 .byte   PATT
  .word Label_01024A88
@  #10 @010   ----------------------------------------
 .byte   PATT
  .word Label_01024A76
@  #10 @011   ----------------------------------------
 .byte   PATT
  .word Label_01024A80
@  #10 @012   ----------------------------------------
 .byte   PATT
  .word Label_01024AD6
@  #10 @013   ----------------------------------------
 .byte   PATT
  .word Label_01024ADF
@  #10 @014   ----------------------------------------
 .byte   PATT
  .word Label_01024AE9
@  #10 @015   ----------------------------------------
 .byte   PATT
  .word Label_01024AF1
@  #10 @016   ----------------------------------------
 .byte   PATT
  .word Label_01024ADF
@  #10 @017   ----------------------------------------
 .byte   PATT
  .word Label_01024AE9
@  #10 @018   ----------------------------------------
 .byte   PATT
  .word Label_01024AD6
@  #10 @019   ----------------------------------------
 .byte   PATT
  .word Label_01024B07
@  #10 @020   ----------------------------------------
 .byte   PATT
  .word Label_01024B11
@  #10 @021   ----------------------------------------
 .byte   PATT
  .word Label_01024B19
@  #10 @022   ----------------------------------------
 .byte   W12
 .byte   N05 ,Ds2 ,v096
 .byte   W36
 .byte   TIE ,Dn2 ,v112
 .byte   W48
@  #10 @023   ----------------------------------------
 .byte   PATT
  .word Label_01024B2B
@  #10 @024   ----------------------------------------
Label_010235CB:
 .byte   N05 ,As1 ,v064
 .byte   W12
 .byte   N11
 .byte   W24
 .byte   N56 ,As1 ,v064 ,gtp3
 .byte   W60
 .byte   PEND 
@  #10 @025   ----------------------------------------
Label_010235D7:
 .byte   N05 ,As1 ,v064
 .byte   W12
 .byte   N11
 .byte   W24
 .byte   N05
 .byte   W12
 .byte   N11
 .byte   W48
 .byte   PEND 
@  #10 @026   ----------------------------------------
Label_010235E2:
 .byte   N05 ,Cn2 ,v064
 .byte   W12
 .byte   N11
 .byte   W24
 .byte   N56 ,Cn2 ,v064 ,gtp3
 .byte   W60
 .byte   PEND 
@  #10 @027   ----------------------------------------
Label_010235EE:
 .byte   N05 ,Cn2 ,v064
 .byte   W12
 .byte   N11
 .byte   W24
 .byte   N05
 .byte   W12
 .byte   N11
 .byte   W24
 .byte   N23 ,Gn1
 .byte   W24
 .byte   PEND 
@  #10 @028   ----------------------------------------
 .byte   PATT
  .word Label_010235CB
@  #10 @029   ----------------------------------------
 .byte   PATT
  .word Label_010235D7
@  #10 @030   ----------------------------------------
 .byte   PATT
  .word Label_010235E2
@  #10 @031   ----------------------------------------
 .byte   PATT
  .word Label_010235EE
@  #10 @032   ----------------------------------------
 .byte   PATT
  .word Label_010235CB
@  #10 @033   ----------------------------------------
 .byte   PATT
  .word Label_010235D7
@  #10 @034   ----------------------------------------
 .byte   PATT
  .word Label_010235E2
@  #10 @035   ----------------------------------------
 .byte   PATT
  .word Label_010235EE
@  #10 @036   ----------------------------------------
Label_01023624:
 .byte   N05 ,Bn1 ,v064
 .byte   W12
 .byte   N11
 .byte   W24
 .byte   N56 ,Bn1 ,v064 ,gtp3
 .byte   W60
 .byte   PEND 
@  #10 @037   ----------------------------------------
Label_01023630:
 .byte   N05 ,Bn1 ,v064
 .byte   W12
 .byte   N11
 .byte   W24
 .byte   N05
 .byte   W12
 .byte   N11
 .byte   W48
 .byte   PEND 
@  #10 @038   ----------------------------------------
Label_0102363B:
 .byte   N05 ,An1 ,v064
 .byte   W12
 .byte   N11
 .byte   W24
 .byte   TIE
 .byte   W60
 .byte   PEND 
@  #10 @039   ----------------------------------------
 .byte   W92
 .byte   W03
 .byte   EOT
 .byte   W01
@  #10 @040   ----------------------------------------
 .byte   N05 ,An1 ,v096
 .byte   GOTO
  .word Label_01023546
@  #10 @041   ----------------------------------------
 .byte   W36
 .byte   An1
 .byte   W36
 .byte   An1
 .byte   W36
@  #10 @042   ----------------------------------------
 .byte   An1
 .byte   W36
@  #10 @043   ----------------------------------------
 .byte   PATT
  .word Label_01024BCD
@  #10 @044   ----------------------------------------
 .byte   PATT
  .word Label_01024BCD
@  #10 @045   ----------------------------------------
 .byte   PATT
  .word Label_01024BCD
@  #10 @046   ----------------------------------------
 .byte   PATT
  .word Label_01024BCD
@  #10 @047   ----------------------------------------
 .byte   PATT
  .word Label_01024BCD
@  #10 @048   ----------------------------------------
 .byte   PATT
  .word Label_01024BCD
@  #10 @049   ----------------------------------------
 .byte   PATT
  .word Label_01024BCD
@  #10 @050   ----------------------------------------
 .byte   PATT
  .word Label_01024C17
@  #10 @051   ----------------------------------------
 .byte   PATT
  .word Label_01024C17
@  #10 @052   ----------------------------------------
 .byte   PATT
  .word Label_01024C27
@  #10 @053   ----------------------------------------
 .byte   PATT
  .word Label_01024C17
@  #10 @054   ----------------------------------------
 .byte   PATT
  .word Label_01024C17
@  #10 @055   ----------------------------------------
 .byte   PATT
  .word Label_01024C3A
@  #10 @056   ----------------------------------------
 .byte   PATT
  .word Label_01024C3A
@  #10 @057   ----------------------------------------
 .byte   TIE ,Dn2 ,v112
 .byte   W96
@  #10 @058   ----------------------------------------
 .byte   W11
 .byte   EOT
 .byte   W01
 .byte   N32 ,Cn2 ,v075 ,gtp3
 .byte   W36
@  #10 @059   ----------------------------------------
 .byte   PATT
  .word Label_010235CB
@  #10 @060   ----------------------------------------
 .byte   PATT
  .word Label_010235D7
@  #10 @061   ----------------------------------------
 .byte   PATT
  .word Label_010235E2
@  #10 @062   ----------------------------------------
 .byte   PATT
  .word Label_010235EE
@  #10 @063   ----------------------------------------
 .byte   PATT
  .word Label_010235CB
@  #10 @064   ----------------------------------------
 .byte   PATT
  .word Label_010235D7
@  #10 @065   ----------------------------------------
 .byte   PATT
  .word Label_010235E2
@  #10 @066   ----------------------------------------
 .byte   PATT
  .word Label_010235EE
@  #10 @067   ----------------------------------------
 .byte   PATT
  .word Label_010235CB
@  #10 @068   ----------------------------------------
 .byte   PATT
  .word Label_010235D7
@  #10 @069   ----------------------------------------
 .byte   PATT
  .word Label_010235E2
@  #10 @070   ----------------------------------------
 .byte   PATT
  .word Label_010235EE
@  #10 @071   ----------------------------------------
 .byte   PATT
  .word Label_01023624
@  #10 @072   ----------------------------------------
 .byte   PATT
  .word Label_01023630
@  #10 @073   ----------------------------------------
 .byte   PATT
  .word Label_0102363B
@  #10 @074   ----------------------------------------
 .byte   W92
 .byte   W03
 .byte   EOT
 .byte   An1
 .byte   FINE

@**************** Track 11 (Midi-Chn.10) ****************@

song06_011:
@  #11 @000   ----------------------------------------
 .byte   KEYSH , song06_key+0
Label_0100BC46:
 .byte   VOICE , 40
 .byte   PAN , c_v-22
 .byte   BENDR, 12
 .byte   VOL , 40*song06_mvl/mxv
 .byte   N68 ,En3 ,v096 ,gtp3
 .byte   W72
 .byte   N11 ,An2
 .byte   W12
 .byte   Cn3
 .byte   W12
@  #11 @001   ----------------------------------------
Label_0100BC58:
 .byte   N11 ,En3 ,v096
 .byte   W12
 .byte   Gn3
 .byte   W12
 .byte   En3
 .byte   W12
 .byte   Cn3
 .byte   W12
 .byte   N32 ,Fs3 ,v096 ,gtp3
 .byte   W36
 .byte   N11 ,An2
 .byte   W12
 .byte   PEND 
@  #11 @002   ----------------------------------------
Label_0100BC6B:
 .byte   N11 ,Dn3 ,v096
 .byte   W12
 .byte   Fs3
 .byte   W12
 .byte   N32 ,Fn3 ,v096 ,gtp3
 .byte   W36
 .byte   N11 ,An2
 .byte   W12
 .byte   Dn3
 .byte   W12
 .byte   Fn3
 .byte   W12
 .byte   PEND 
@  #11 @003   ----------------------------------------
Label_0100BC7E:
 .byte   N11 ,En3 ,v096
 .byte   W12
 .byte   An2
 .byte   W12
 .byte   Cn3 ,v093
 .byte   W12
 .byte   N05 ,Dn3 ,v064
 .byte   W12
 .byte   Fn2 ,v103
 .byte   W12
 .byte   Dn3 ,v098
 .byte   W12
 .byte   N11 ,Cn3 ,v096
 .byte   W12
 .byte   Bn2
 .byte   W12
 .byte   PEND 
@  #11 @004   ----------------------------------------
Label_0100BC98:
 .byte   N11 ,An2 ,v096
 .byte   W12
 .byte   En2
 .byte   W24
 .byte   En2
 .byte   W12
 .byte   Gs2
 .byte   W12
 .byte   Bn2
 .byte   W12
 .byte   Dn3
 .byte   W12
 .byte   Fn3
 .byte   W12
 .byte   PEND 
@  #11 @005   ----------------------------------------
Label_0100BCA9:
 .byte   N11 ,Dn3 ,v096
 .byte   W12
 .byte   Fn3
 .byte   W12
 .byte   N68 ,Cn3 ,v096 ,gtp3
 .byte   W72
 .byte   PEND 
@  #11 @006   ----------------------------------------
 .byte   En3
 .byte   W72
 .byte   N11 ,An2
 .byte   W12
 .byte   Cn3
 .byte   W12
@  #11 @007   ----------------------------------------
 .byte   PATT
  .word Label_0100BC58
@  #11 @008   ----------------------------------------
 .byte   PATT
  .word Label_0100BC6B
@  #11 @009   ----------------------------------------
 .byte   TIE ,En3 ,v080
 .byte   W96
@  #11 @010   ----------------------------------------
 .byte   W44
 .byte   W03
 .byte   EOT
 .byte   W48
 .byte   W01
@  #11 @011   ----------------------------------------
 .byte   W60
 .byte   N05 ,En3 ,v096
 .byte   W24
 .byte   N11
 .byte   W12
@  #11 @012   ----------------------------------------
Label_0100BCD6:
 .byte   N68 ,Fn3 ,v096 ,gtp3
 .byte   W72
 .byte   N11 ,An2
 .byte   W12
 .byte   Dn3
 .byte   W12
 .byte   PEND 
@  #11 @013   ----------------------------------------
Label_0100BCE1:
 .byte   N11 ,Fn3 ,v096
 .byte   W12
 .byte   N05 ,An3 ,v080
 .byte   W12
 .byte   N11 ,Fn3 ,v096
 .byte   W12
 .byte   Dn3
 .byte   W12
 .byte   N32 ,Gn3 ,v096 ,gtp3
 .byte   W36
 .byte   N11 ,An2
 .byte   W12
 .byte   PEND 
@  #11 @014   ----------------------------------------
 .byte   Dn3
 .byte   W12
 .byte   Gn3
 .byte   W12
 .byte   N32 ,Fn3 ,v096 ,gtp3
 .byte   W36
 .byte   N11 ,An2
 .byte   W12
 .byte   Dn3
 .byte   W12
 .byte   Fn3
 .byte   W12
@  #11 @015   ----------------------------------------
 .byte   PATT
  .word Label_0100BC7E
@  #11 @016   ----------------------------------------
 .byte   PATT
  .word Label_0100BC98
@  #11 @017   ----------------------------------------
 .byte   PATT
  .word Label_0100BCA9
@  #11 @018   ----------------------------------------
 .byte   PATT
  .word Label_0100BCD6
@  #11 @019   ----------------------------------------
 .byte   PATT
  .word Label_0100BCE1
@  #11 @020   ----------------------------------------
 .byte   N11 ,Cn3 ,v096
 .byte   W12
 .byte   Gn3
 .byte   W12
 .byte   N32 ,Fn3 ,v096 ,gtp3
 .byte   W36
 .byte   N11 ,An2
 .byte   W12
 .byte   Dn3
 .byte   W12
 .byte   Fn3
 .byte   W12
@  #11 @021   ----------------------------------------
 .byte   N32 ,Gn3 ,v096 ,gtp3
 .byte   W36
 .byte   N11 ,An2
 .byte   W12
 .byte   Cn3
 .byte   W12
 .byte   Gn3
 .byte   W12
 .byte   N32 ,Fn3 ,v096 ,gtp3
 .byte   W24
@  #11 @022   ----------------------------------------
 .byte   W12
 .byte   N11 ,An2
 .byte   W12
 .byte   Dn3
 .byte   W12
 .byte   Gn3
 .byte   W12
 .byte   TIE ,Fn3
 .byte   W48
@  #11 @023   ----------------------------------------
 .byte   W56
 .byte   W03
 .byte   EOT
 .byte   W01
 .byte   N32 ,En3 ,v096 ,gtp3
 .byte   W36
@  #11 @024   ----------------------------------------
 .byte   W96
@  #11 @025   ----------------------------------------
 .byte   W96
@  #11 @026   ----------------------------------------
 .byte   W96
@  #11 @027   ----------------------------------------
 .byte   W96
@  #11 @028   ----------------------------------------
 .byte   W96
@  #11 @029   ----------------------------------------
 .byte   W96
@  #11 @030   ----------------------------------------
 .byte   W96
@  #11 @031   ----------------------------------------
 .byte   W96
@  #11 @032   ----------------------------------------
 .byte   W96
@  #11 @033   ----------------------------------------
 .byte   W96
@  #11 @034   ----------------------------------------
 .byte   W96
@  #11 @035   ----------------------------------------
 .byte   W96
@  #11 @036   ----------------------------------------
 .byte   W96
@  #11 @037   ----------------------------------------
 .byte   W96
@  #11 @038   ----------------------------------------
 .byte   W96
@  #11 @039   ----------------------------------------
 .byte   W96
@  #11 @040   ----------------------------------------
 .byte   GOTO
  .word Label_0100BC46
@  #11 @041   ----------------------------------------
 .byte   W96
@  #11 @042   ----------------------------------------
 .byte   W48
 .byte   W96
@  #11 @043   ----------------------------------------
 .byte   W48
 .byte   W96
@  #11 @044   ----------------------------------------
 .byte   W48
 .byte   W96
@  #11 @045   ----------------------------------------
 .byte   W48
 .byte   W96
@  #11 @046   ----------------------------------------
 .byte   W48
 .byte   W96
@  #11 @047   ----------------------------------------
 .byte   W48
 .byte   W96
@  #11 @048   ----------------------------------------
 .byte   W48
 .byte   W96
@  #11 @049   ----------------------------------------
 .byte   W48
 .byte   W96
@  #11 @050   ----------------------------------------
 .byte   W48
 .byte   W96
@  #11 @051   ----------------------------------------
 .byte   W48
 .byte   W96
@  #11 @052   ----------------------------------------
 .byte   W48
 .byte   W96
@  #11 @053   ----------------------------------------
 .byte   W48
 .byte   W96
@  #11 @054   ----------------------------------------
 .byte   W48
 .byte   W96
@  #11 @055   ----------------------------------------
 .byte   W48
 .byte   W96
@  #11 @056   ----------------------------------------
 .byte   W48
 .byte   W96
@  #11 @057   ----------------------------------------
 .byte   W48
 .byte   W96
@  #11 @058   ----------------------------------------
 .byte   W96
@  #11 @059   ----------------------------------------
 .byte   W96
@  #11 @060   ----------------------------------------
 .byte   W96
@  #11 @061   ----------------------------------------
 .byte   W96
@  #11 @062   ----------------------------------------
 .byte   W96
@  #11 @063   ----------------------------------------
 .byte   W96
@  #11 @064   ----------------------------------------
 .byte   W96
@  #11 @065   ----------------------------------------
 .byte   W96
@  #11 @066   ----------------------------------------
 .byte   W96
@  #11 @067   ----------------------------------------
 .byte   W96
@  #11 @068   ----------------------------------------
 .byte   W96
@  #11 @069   ----------------------------------------
 .byte   W96
@  #11 @070   ----------------------------------------
 .byte   W96
@  #11 @071   ----------------------------------------
 .byte   W96
@  #11 @072   ----------------------------------------
 .byte   W92
 .byte   W03
 .byte   FINE

@******************************************************@
	.align	2

song06:
	.byte	11	@ NumTrks
	.byte	0	@ NumBlks
	.byte	song06_pri	@ Priority
	.byte	song06_rev	@ Reverb.
    
	.word	song06_grp
    
	.word	song06_001
	.word	song06_002
	.word	song06_003
	.word	song06_004
	.word	song06_005
	.word	song06_006
	.word	song06_007
	.word	song06_008
	.word	song06_009
	.word	song06_010
	.word	song06_011

	.end
