	.include "MPlayDef.s"

	.equ	song1E_grp, voicegroup000
	.equ	song1E_pri, 0
	.equ	song1E_rev, 0
	.equ	song1E_mvl, 127
	.equ	song1E_key, 0
	.equ	song1E_tbs, 1
	.equ	song1E_exg, 0
	.equ	song1E_cmp, 1

	.section .rodata
	.global	song1E
	.align	2


@**************** Track 1 (Midi-Chn.0) ****************@

song1E_001:
@  #01 @000   ----------------------------------------
 .byte   KEYSH , song1E_key+0
Label_01944666:
 .byte   TEMPO , 222*song1E_tbs/2
 .byte   VOICE , 48
 .byte   MODT 0
 .byte   LFOS 44
 .byte   VOL , 42*song1E_mvl/mxv
 .byte   TIE ,Fn3 ,v068
 .byte   TIE ,Cs4
 .byte   W96
@  #01 @001   ----------------------------------------
 .byte   W92
 .byte   W03
 .byte   EOT
 .byte   Fn3 ,v073
 .byte   W01
@  #01 @002   ----------------------------------------
Label_0194467C:
 .byte   TIE ,Ds3 ,v068
 .byte   TIE ,Cn4
 .byte   W96
 .byte   PEND 
@  #01 @003   ----------------------------------------
 .byte   W92
 .byte   W03
 .byte   EOT
 .byte   Ds3 ,v072
 .byte   W01
@  #01 @004   ----------------------------------------
Label_01944689:
 .byte   TIE ,Cs3 ,v068
 .byte   TIE ,As3
 .byte   W96
 .byte   PEND 
@  #01 @005   ----------------------------------------
 .byte   W68
 .byte   W03
 .byte   EOT
 .byte   Cs3 ,v070
 .byte   W01
 .byte   N23 ,Gs3
 .byte   W24
@  #01 @006   ----------------------------------------
 .byte   PAN , c_v+0
 .byte   W24
 .byte   N23 ,Fs3
 .byte   W72
@  #01 @007   ----------------------------------------
Label_0194469F:
 .byte   N23 ,An3 ,v068
 .byte   W48
 .byte   Cn4
 .byte   W48
 .byte   PEND 
@  #01 @008   ----------------------------------------
 .byte   TIE ,Fn3
 .byte   TIE ,Cs4
 .byte   W96
@  #01 @009   ----------------------------------------
 .byte   W92
 .byte   W03
 .byte   EOT
 .byte   Fn3 ,v073
 .byte   W01
@  #01 @010   ----------------------------------------
 .byte   PATT
  .word Label_0194467C
@  #01 @011   ----------------------------------------
 .byte   W92
 .byte   W03
 .byte   EOT
 .byte   Ds3 ,v072
 .byte   W01
@  #01 @012   ----------------------------------------
 .byte   PATT
  .word Label_01944689
@  #01 @013   ----------------------------------------
 .byte   W68
 .byte   W03
 .byte   EOT
 .byte   Cs3 ,v070
 .byte   W01
 .byte   N23 ,Gs3 ,v068
 .byte   W24
@  #01 @014   ----------------------------------------
 .byte   W24
 .byte   Fs3
 .byte   W72
@  #01 @015   ----------------------------------------
 .byte   PATT
  .word Label_0194469F
@  #01 @016   ----------------------------------------
 .byte   W96
@  #01 @017   ----------------------------------------
 .byte   W96
@  #01 @018   ----------------------------------------
 .byte   W96
@  #01 @019   ----------------------------------------
 .byte   W96
@  #01 @020   ----------------------------------------
Label_019446D7:
 .byte   W48
 .byte   N11 ,Fn3 ,v044
 .byte   W24
 .byte   N11
 .byte   W24
 .byte   PEND 
@  #01 @021   ----------------------------------------
Label_019446DF:
 .byte   N11 ,Fn3 ,v044
 .byte   W24
 .byte   N11
 .byte   W24
 .byte   N11
 .byte   W24
 .byte   Ds3
 .byte   W24
 .byte   PEND 
@  #01 @022   ----------------------------------------
Label_019446EA:
 .byte   N11 ,Ds3 ,v044
 .byte   W24
 .byte   N11
 .byte   W24
 .byte   N11
 .byte   W24
 .byte   N11
 .byte   W24
 .byte   PEND 
@  #01 @023   ----------------------------------------
 .byte   PATT
  .word Label_019446EA
@  #01 @024   ----------------------------------------
 .byte   W48
 .byte   N11 ,Ds3 ,v044
 .byte   W24
 .byte   N11
 .byte   W24
@  #01 @025   ----------------------------------------
 .byte   PATT
  .word Label_019446EA
@  #01 @026   ----------------------------------------
 .byte   PATT
  .word Label_019446EA
@  #01 @027   ----------------------------------------
Label_0194470B:
 .byte   N11 ,Fn3 ,v044
 .byte   W24
 .byte   N11
 .byte   W24
 .byte   N11
 .byte   W24
 .byte   N11
 .byte   W24
 .byte   PEND 
@  #01 @028   ----------------------------------------
 .byte   W48
 .byte   Gs3
 .byte   W24
 .byte   N11
 .byte   W24
@  #01 @029   ----------------------------------------
 .byte   N11
 .byte   W24
 .byte   N11
 .byte   W24
 .byte   N11
 .byte   W24
 .byte   Fs3
 .byte   W24
@  #01 @030   ----------------------------------------
Label_01944723:
 .byte   N11 ,Fs3 ,v044
 .byte   W24
 .byte   N11
 .byte   W24
 .byte   N11
 .byte   W24
 .byte   N11
 .byte   W24
 .byte   PEND 
@  #01 @031   ----------------------------------------
 .byte   PATT
  .word Label_01944723
@  #01 @032   ----------------------------------------
 .byte   W96
@  #01 @033   ----------------------------------------
 .byte   W96
@  #01 @034   ----------------------------------------
 .byte   W96
@  #01 @035   ----------------------------------------
 .byte   W96
@  #01 @036   ----------------------------------------
 .byte   PATT
  .word Label_019446D7
@  #01 @037   ----------------------------------------
 .byte   PATT
  .word Label_019446DF
@  #01 @038   ----------------------------------------
 .byte   PATT
  .word Label_019446EA
@  #01 @039   ----------------------------------------
 .byte   PATT
  .word Label_019446EA
@  #01 @040   ----------------------------------------
 .byte   W48
 .byte   TIE ,Ds3 ,v044
 .byte   W48
@  #01 @041   ----------------------------------------
 .byte   W92
 .byte   W03
 .byte   EOT
 .byte   W01
@  #01 @042   ----------------------------------------
 .byte   PATT
  .word Label_019446EA
@  #01 @043   ----------------------------------------
 .byte   PATT
  .word Label_0194470B
@  #01 @044   ----------------------------------------
 .byte   N92 ,Cs3 ,v044
 .byte   W96
@  #01 @045   ----------------------------------------
 .byte   Fn3
 .byte   W96
@  #01 @046   ----------------------------------------
 .byte   Ds3
 .byte   W96
@  #01 @047   ----------------------------------------
 .byte   Cs4
 .byte   W96
@  #01 @048   ----------------------------------------
 .byte   N23 ,Cn4
 .byte   W24
 .byte   TIE ,As3
 .byte   W72
@  #01 @049   ----------------------------------------
 .byte   W96
@  #01 @050   ----------------------------------------
 .byte   W96
@  #01 @051   ----------------------------------------
 .byte   W92
 .byte   W03
 .byte   EOT
 .byte   W01
@  #01 @052   ----------------------------------------
 .byte   W96
@  #01 @053   ----------------------------------------
 .byte   W96
@  #01 @054   ----------------------------------------
 .byte   W96
@  #01 @055   ----------------------------------------
 .byte   W96
@  #01 @056   ----------------------------------------
 .byte   W96
@  #01 @057   ----------------------------------------
 .byte   W96
@  #01 @058   ----------------------------------------
 .byte   W96
@  #01 @059   ----------------------------------------
 .byte   W48
 .byte   N44 ,Cs3 ,v080
 .byte   W48
@  #01 @060   ----------------------------------------
 .byte   N68 ,Gs3
 .byte   W72
 .byte   N23 ,Fs3
 .byte   W24
@  #01 @061   ----------------------------------------
 .byte   N68 ,Fn3
 .byte   W72
 .byte   N23 ,Fs3
 .byte   W24
@  #01 @062   ----------------------------------------
 .byte   Fn3
 .byte   W24
 .byte   N44 ,Ds3
 .byte   W48
 .byte   N23 ,Fn3
 .byte   W24
@  #01 @063   ----------------------------------------
 .byte   Fs3
 .byte   W24
 .byte   Fn3
 .byte   W24
 .byte   Ds3
 .byte   W24
 .byte   Cs3
 .byte   W24
@  #01 @064   ----------------------------------------
 .byte   Ds3
 .byte   W24
 .byte   TIE ,Fn3
 .byte   W72
@  #01 @065   ----------------------------------------
 .byte   W44
 .byte   W03
 .byte   EOT
 .byte   W01
 .byte   N44 ,Cn3
 .byte   W48
@  #01 @066   ----------------------------------------
 .byte   N23
 .byte   W24
 .byte   TIE ,Cs3
 .byte   W72
@  #01 @067   ----------------------------------------
 .byte   W44
 .byte   W03
 .byte   EOT
 .byte   W01
 .byte   N23 ,Ds3
 .byte   W24
 .byte   Fn3
 .byte   W24
@  #01 @068   ----------------------------------------
 .byte   TIE ,Fs3
 .byte   W96
@  #01 @069   ----------------------------------------
 .byte   W23
 .byte   EOT
 .byte   W01
 .byte   N23 ,Fn3
 .byte   W24
 .byte   Ds3
 .byte   W24
 .byte   Cs3
 .byte   W24
@  #01 @070   ----------------------------------------
 .byte   TIE ,Ds3
 .byte   W96
@  #01 @071   ----------------------------------------
 .byte   W23
 .byte   EOT
 .byte   W01
 .byte   N23 ,Fn3
 .byte   W24
 .byte   Fs3
 .byte   W24
 .byte   Gs3
 .byte   W24
@  #01 @072   ----------------------------------------
 .byte   N92 ,Fn3
 .byte   W96
@  #01 @073   ----------------------------------------
 .byte   Ds3
 .byte   W96
@  #01 @074   ----------------------------------------
 .byte   Cn3
 .byte   W96
@  #01 @075   ----------------------------------------
Label_019447D7:
 .byte   N23 ,Cn3 ,v080
 .byte   W24
 .byte   Cs3
 .byte   W24
 .byte   Fn3
 .byte   W24
 .byte   Gs3
 .byte   W24
 .byte   PEND 
@  #01 @076   ----------------------------------------
Label_019447E2:
 .byte   N68 ,Cn4 ,v080
 .byte   W72
 .byte   N23 ,Cs4
 .byte   W24
 .byte   PEND 
@  #01 @077   ----------------------------------------
 .byte   TIE ,As3
 .byte   W96
@  #01 @078   ----------------------------------------
 .byte   W44
 .byte   W03
 .byte   EOT
 .byte   W01
 .byte   N23 ,Fn3
 .byte   W24
 .byte   Fn4
 .byte   W24
@  #01 @079   ----------------------------------------
Label_019447F6:
 .byte   N11 ,Ds4 ,v080
 .byte   W12
 .byte   Cs4
 .byte   W12
 .byte   N44 ,Cn4
 .byte   W48
 .byte   N23 ,Gs3
 .byte   W24
 .byte   PEND 
@  #01 @080   ----------------------------------------
 .byte   N32 ,Cn4
 .byte   W36
 .byte   Cs4
 .byte   W36
 .byte   TIE ,As3
 .byte   W24
@  #01 @081   ----------------------------------------
 .byte   W96
@  #01 @082   ----------------------------------------
 .byte   W92
 .byte   W03
 .byte   EOT
 .byte   W01
@  #01 @083   ----------------------------------------
 .byte   PATT
  .word Label_019447D7
@  #01 @084   ----------------------------------------
 .byte   PATT
  .word Label_019447E2
@  #01 @085   ----------------------------------------
 .byte   TIE ,As3 ,v080
 .byte   W96
@  #01 @086   ----------------------------------------
 .byte   W44
 .byte   W03
 .byte   EOT
 .byte   W01
 .byte   N23 ,Fn3
 .byte   W24
 .byte   Fn4
 .byte   W24
@  #01 @087   ----------------------------------------
 .byte   PATT
  .word Label_019447F6
@  #01 @088   ----------------------------------------
 .byte   N32 ,Cn4 ,v080
 .byte   W36
 .byte   Cs4
 .byte   W36
 .byte   TIE ,Gs4
 .byte   W24
@  #01 @089   ----------------------------------------
 .byte   W96
@  #01 @090   ----------------------------------------
 .byte   W92
 .byte   W03
 .byte   EOT
 .byte   W01
@  #01 @091   ----------------------------------------
 .byte   N92 ,Gs3
 .byte   W96
@  #01 @092   ----------------------------------------
 .byte   GOTO
  .word Label_01944666
@  #01 @093   ----------------------------------------
 .byte   PAN , c_v+0
 .byte   FINE

@**************** Track 2 (Midi-Chn.1) ****************@

song1E_002:
@  #02 @000   ----------------------------------------
 .byte   KEYSH , song1E_key+0
Label_0193359E:
 .byte   VOICE , 61
 .byte   MODT 0
 .byte   LFOS 44
 .byte   VOL , 53*song1E_mvl/mxv
 .byte   PAN , c_v+0
 .byte   N23 ,Fn3 ,v080
 .byte   N23 ,As3
 .byte   W96
@  #02 @001   ----------------------------------------
Label_019335AE:
 .byte   W72
 .byte   N23 ,Fn3 ,v080
 .byte   N23 ,As3
 .byte   W24
 .byte   PEND 
@  #02 @002   ----------------------------------------
Label_019335B6:
 .byte   W24
 .byte   N23 ,Ds3 ,v080
 .byte   N23 ,As3
 .byte   W72
 .byte   PEND 
@  #02 @003   ----------------------------------------
Label_019335BE:
 .byte   W72
 .byte   N23 ,Ds3 ,v080
 .byte   N23 ,As3
 .byte   W24
 .byte   PEND 
@  #02 @004   ----------------------------------------
 .byte   Fn3
 .byte   W96
@  #02 @005   ----------------------------------------
Label_019335C8:
 .byte   W72
 .byte   N23 ,Cs3 ,v080
 .byte   N23 ,Gs3
 .byte   W24
 .byte   PEND 
@  #02 @006   ----------------------------------------
Label_019335D0:
 .byte   W24
 .byte   N23 ,Cs3 ,v080
 .byte   N23 ,Fs3
 .byte   W72
 .byte   PEND 
@  #02 @007   ----------------------------------------
Label_019335D8:
 .byte   N23 ,Cn3 ,v080
 .byte   N23 ,Ds3
 .byte   W48
 .byte   N23
 .byte   N23 ,Fs3
 .byte   W48
 .byte   PEND 
@  #02 @008   ----------------------------------------
 .byte   Fn3
 .byte   N23 ,As3
 .byte   W96
@  #02 @009   ----------------------------------------
 .byte   PATT
  .word Label_019335AE
@  #02 @010   ----------------------------------------
 .byte   PATT
  .word Label_019335B6
@  #02 @011   ----------------------------------------
 .byte   PATT
  .word Label_019335BE
@  #02 @012   ----------------------------------------
 .byte   N23 ,Fn3 ,v080
 .byte   W96
@  #02 @013   ----------------------------------------
 .byte   PATT
  .word Label_019335C8
@  #02 @014   ----------------------------------------
 .byte   PATT
  .word Label_019335D0
@  #02 @015   ----------------------------------------
 .byte   PATT
  .word Label_019335D8
@  #02 @016   ----------------------------------------
 .byte   W96
@  #02 @017   ----------------------------------------
 .byte   W96
@  #02 @018   ----------------------------------------
 .byte   W96
@  #02 @019   ----------------------------------------
 .byte   W96
@  #02 @020   ----------------------------------------
Label_0193360D:
 .byte   W48
 .byte   N11 ,As2 ,v044
 .byte   W24
 .byte   N11
 .byte   W24
 .byte   PEND 
@  #02 @021   ----------------------------------------
Label_01933615:
 .byte   N11 ,As2 ,v044
 .byte   W24
 .byte   N11
 .byte   W24
 .byte   N11
 .byte   W24
 .byte   An2
 .byte   W24
 .byte   PEND 
@  #02 @022   ----------------------------------------
Label_01933620:
 .byte   N11 ,An2 ,v044
 .byte   W24
 .byte   N11
 .byte   W24
 .byte   N11
 .byte   W24
 .byte   N11
 .byte   W24
 .byte   PEND 
@  #02 @023   ----------------------------------------
 .byte   PATT
  .word Label_01933620
@  #02 @024   ----------------------------------------
 .byte   W48
 .byte   N11 ,An2 ,v044
 .byte   W24
 .byte   N11
 .byte   W24
@  #02 @025   ----------------------------------------
 .byte   N11
 .byte   W24
 .byte   N11
 .byte   W24
 .byte   N44 ,Cs3
 .byte   W48
@  #02 @026   ----------------------------------------
 .byte   N68 ,Cn3
 .byte   W72
 .byte   N23 ,As2
 .byte   W24
@  #02 @027   ----------------------------------------
 .byte   N92 ,Fn2
 .byte   W96
@  #02 @028   ----------------------------------------
 .byte   PATT
  .word Label_0193360D
@  #02 @029   ----------------------------------------
 .byte   N11 ,As2 ,v044
 .byte   W24
 .byte   N11
 .byte   W24
 .byte   N11
 .byte   W24
 .byte   Ds3
 .byte   W24
@  #02 @030   ----------------------------------------
Label_01933656:
 .byte   N11 ,Ds3 ,v044
 .byte   W24
 .byte   N11
 .byte   W24
 .byte   N11
 .byte   W24
 .byte   N11
 .byte   W24
 .byte   PEND 
@  #02 @031   ----------------------------------------
 .byte   PATT
  .word Label_01933656
@  #02 @032   ----------------------------------------
 .byte   N92 ,Cn3 ,v044
 .byte   W96
@  #02 @033   ----------------------------------------
 .byte   As2
 .byte   W96
@  #02 @034   ----------------------------------------
 .byte   Cn3
 .byte   W96
@  #02 @035   ----------------------------------------
 .byte   Cs3
 .byte   W96
@  #02 @036   ----------------------------------------
 .byte   PATT
  .word Label_0193360D
@  #02 @037   ----------------------------------------
 .byte   PATT
  .word Label_01933615
@  #02 @038   ----------------------------------------
 .byte   PATT
  .word Label_01933620
@  #02 @039   ----------------------------------------
 .byte   PATT
  .word Label_01933620
@  #02 @040   ----------------------------------------
 .byte   W48
 .byte   TIE ,Cn3 ,v044
 .byte   W48
@  #02 @041   ----------------------------------------
 .byte   W92
 .byte   W03
 .byte   EOT
 .byte   W01
@  #02 @042   ----------------------------------------
 .byte   N11
 .byte   W24
 .byte   N11
 .byte   W24
 .byte   N11
 .byte   W24
 .byte   N11
 .byte   W24
@  #02 @043   ----------------------------------------
 .byte   As2
 .byte   W24
 .byte   N11
 .byte   W24
 .byte   N11
 .byte   W24
 .byte   N11
 .byte   W24
@  #02 @044   ----------------------------------------
 .byte   N92 ,Cs3
 .byte   W96
@  #02 @045   ----------------------------------------
 .byte   Fn3
 .byte   W96
@  #02 @046   ----------------------------------------
 .byte   Ds3
 .byte   W96
@  #02 @047   ----------------------------------------
 .byte   Fn3
 .byte   W96
@  #02 @048   ----------------------------------------
 .byte   N23 ,Ds3
 .byte   W24
 .byte   TIE ,Cs3
 .byte   W72
@  #02 @049   ----------------------------------------
 .byte   W96
@  #02 @050   ----------------------------------------
 .byte   W96
@  #02 @051   ----------------------------------------
 .byte   W92
 .byte   W03
 .byte   EOT
 .byte   W01
@  #02 @052   ----------------------------------------
 .byte   N68 ,Cn3
 .byte   W96
@  #02 @053   ----------------------------------------
 .byte   Cs3
 .byte   W96
@  #02 @054   ----------------------------------------
 .byte   Ds3
 .byte   W96
@  #02 @055   ----------------------------------------
 .byte   Fn3
 .byte   W96
@  #02 @056   ----------------------------------------
 .byte   Cn3
 .byte   W96
@  #02 @057   ----------------------------------------
 .byte   Cs3
 .byte   W96
@  #02 @058   ----------------------------------------
 .byte   Ds3
 .byte   W96
@  #02 @059   ----------------------------------------
 .byte   Fn3
 .byte   W96
@  #02 @060   ----------------------------------------
 .byte   Cn3
 .byte   W96
@  #02 @061   ----------------------------------------
 .byte   Cs3
 .byte   W96
@  #02 @062   ----------------------------------------
 .byte   Ds3
 .byte   W96
@  #02 @063   ----------------------------------------
 .byte   Fn3
 .byte   W96
@  #02 @064   ----------------------------------------
 .byte   N68
 .byte   W96
@  #02 @065   ----------------------------------------
 .byte   As3
 .byte   W96
@  #02 @066   ----------------------------------------
 .byte   Ds3
 .byte   W96
@  #02 @067   ----------------------------------------
 .byte   Gs3
 .byte   W96
@  #02 @068   ----------------------------------------
 .byte   As3
 .byte   W96
@  #02 @069   ----------------------------------------
 .byte   Gs3
 .byte   W96
@  #02 @070   ----------------------------------------
 .byte   As3
 .byte   W96
@  #02 @071   ----------------------------------------
 .byte   Bn3
 .byte   W96
@  #02 @072   ----------------------------------------
 .byte   W96
@  #02 @073   ----------------------------------------
 .byte   W96
@  #02 @074   ----------------------------------------
 .byte   W96
@  #02 @075   ----------------------------------------
 .byte   W96
@  #02 @076   ----------------------------------------
 .byte   W48
 .byte   N44 ,As2
 .byte   W48
@  #02 @077   ----------------------------------------
Label_019336E3:
 .byte   N68 ,Cn3 ,v044
 .byte   W72
 .byte   TIE ,Cs3
 .byte   W24
 .byte   PEND 
@  #02 @078   ----------------------------------------
 .byte   W92
 .byte   W03
 .byte   EOT
 .byte   W01
@  #02 @079   ----------------------------------------
 .byte   N92 ,Cn3
 .byte   W96
@  #02 @080   ----------------------------------------
 .byte   W48
 .byte   N44 ,Fn3
 .byte   W48
@  #02 @081   ----------------------------------------
Label_019336F6:
 .byte   N32 ,Ds3 ,v044
 .byte   W36
 .byte   Cs3
 .byte   W36
 .byte   TIE ,Cn3
 .byte   W24
 .byte   PEND 
@  #02 @082   ----------------------------------------
 .byte   W96
@  #02 @083   ----------------------------------------
 .byte   W92
 .byte   W03
 .byte   EOT
 .byte   W01
@  #02 @084   ----------------------------------------
 .byte   W48
 .byte   N44 ,Gs2
 .byte   W48
@  #02 @085   ----------------------------------------
 .byte   PATT
  .word Label_019336E3
@  #02 @086   ----------------------------------------
 .byte   W92
 .byte   W03
 .byte   EOT
 .byte   Cs3
 .byte   W01
@  #02 @087   ----------------------------------------
 .byte   N44 ,Ds3 ,v044
 .byte   W48
 .byte   TIE ,Fn3
 .byte   W48
@  #02 @088   ----------------------------------------
 .byte   W92
 .byte   W03
 .byte   EOT
 .byte   W01
@  #02 @089   ----------------------------------------
 .byte   PATT
  .word Label_019336F6
@  #02 @090   ----------------------------------------
 .byte   W92
 .byte   W03
 .byte   EOT
 .byte   Cn3
 .byte   W01
@  #02 @091   ----------------------------------------
 .byte   N92 ,Cn3 ,v044
 .byte   N92 ,Ds3
 .byte   W96
@  #02 @092   ----------------------------------------
 .byte   GOTO
  .word Label_0193359E
@  #02 @093   ----------------------------------------
 .byte   VOICE , 61
 .byte   PAN , c_v+0
 .byte   FINE

@**************** Track 3 (Midi-Chn.2) ****************@

song1E_003:
@  #03 @000   ----------------------------------------
 .byte   KEYSH , song1E_key+0
Label_01932D6E:
 .byte   VOICE , 68
 .byte   MODT 0
 .byte   LFOS 44
 .byte   PAN , c_v+12
 .byte   VOL , 49*song1E_mvl/mxv
 .byte   W96
@  #03 @001   ----------------------------------------
 .byte   W96
@  #03 @002   ----------------------------------------
 .byte   W96
@  #03 @003   ----------------------------------------
 .byte   W96
@  #03 @004   ----------------------------------------
 .byte   W96
@  #03 @005   ----------------------------------------
 .byte   W96
@  #03 @006   ----------------------------------------
 .byte   W96
@  #03 @007   ----------------------------------------
 .byte   W96
@  #03 @008   ----------------------------------------
 .byte   W96
@  #03 @009   ----------------------------------------
 .byte   W96
@  #03 @010   ----------------------------------------
 .byte   W96
@  #03 @011   ----------------------------------------
 .byte   W96
@  #03 @012   ----------------------------------------
 .byte   W96
@  #03 @013   ----------------------------------------
 .byte   W96
@  #03 @014   ----------------------------------------
 .byte   W96
@  #03 @015   ----------------------------------------
 .byte   W96
@  #03 @016   ----------------------------------------
 .byte   W96
@  #03 @017   ----------------------------------------
 .byte   W96
@  #03 @018   ----------------------------------------
 .byte   W96
@  #03 @019   ----------------------------------------
 .byte   W96
@  #03 @020   ----------------------------------------
 .byte   W96
@  #03 @021   ----------------------------------------
 .byte   W96
@  #03 @022   ----------------------------------------
 .byte   W96
@  #03 @023   ----------------------------------------
 .byte   W96
@  #03 @024   ----------------------------------------
 .byte   W96
@  #03 @025   ----------------------------------------
 .byte   W48
 .byte   N44 ,Cs3 ,v060
 .byte   W48
@  #03 @026   ----------------------------------------
 .byte   N68 ,Cn3
 .byte   W72
 .byte   N23 ,As2
 .byte   W24
@  #03 @027   ----------------------------------------
 .byte   N92 ,Fn2
 .byte   W96
@  #03 @028   ----------------------------------------
 .byte   W96
@  #03 @029   ----------------------------------------
 .byte   W96
@  #03 @030   ----------------------------------------
 .byte   W96
@  #03 @031   ----------------------------------------
 .byte   W96
@  #03 @032   ----------------------------------------
 .byte   W96
@  #03 @033   ----------------------------------------
 .byte   W96
@  #03 @034   ----------------------------------------
 .byte   W96
@  #03 @035   ----------------------------------------
 .byte   W96
@  #03 @036   ----------------------------------------
 .byte   N68 ,Gs3 ,v080
 .byte   W72
 .byte   N23 ,Fs3
 .byte   W24
@  #03 @037   ----------------------------------------
 .byte   Cn3
 .byte   W24
 .byte   Cs3
 .byte   W24
 .byte   N68 ,Fs3
 .byte   W48
@  #03 @038   ----------------------------------------
 .byte   W24
 .byte   N23 ,Fn3
 .byte   W24
 .byte   Ds3
 .byte   W24
 .byte   Cs3
 .byte   W24
@  #03 @039   ----------------------------------------
 .byte   Cn3
 .byte   W48
 .byte   N44 ,Cs4
 .byte   W48
@  #03 @040   ----------------------------------------
 .byte   N68 ,Cn4
 .byte   W72
 .byte   N23 ,As3
 .byte   W24
@  #03 @041   ----------------------------------------
 .byte   N68 ,Fn3
 .byte   W72
 .byte   N23 ,Cs3
 .byte   W24
@  #03 @042   ----------------------------------------
 .byte   Ds3
 .byte   W24
 .byte   TIE ,Fn3
 .byte   W72
@  #03 @043   ----------------------------------------
 .byte   W92
 .byte   W03
 .byte   EOT
 .byte   W01
@  #03 @044   ----------------------------------------
 .byte   N92 ,Cs3
 .byte   W96
@  #03 @045   ----------------------------------------
 .byte   Fn3
 .byte   W96
@  #03 @046   ----------------------------------------
 .byte   Ds3
 .byte   W96
@  #03 @047   ----------------------------------------
 .byte   Cs4
 .byte   W96
@  #03 @048   ----------------------------------------
 .byte   N23 ,Cn4
 .byte   W24
 .byte   TIE ,As3
 .byte   W72
@  #03 @049   ----------------------------------------
 .byte   W96
@  #03 @050   ----------------------------------------
 .byte   W96
@  #03 @051   ----------------------------------------
 .byte   W92
 .byte   W03
 .byte   EOT
 .byte   W01
@  #03 @052   ----------------------------------------
 .byte   W96
@  #03 @053   ----------------------------------------
 .byte   W96
@  #03 @054   ----------------------------------------
 .byte   W96
@  #03 @055   ----------------------------------------
 .byte   W96
@  #03 @056   ----------------------------------------
 .byte   W96
@  #03 @057   ----------------------------------------
 .byte   W96
@  #03 @058   ----------------------------------------
 .byte   W96
@  #03 @059   ----------------------------------------
 .byte   W96
@  #03 @060   ----------------------------------------
 .byte   W96
@  #03 @061   ----------------------------------------
 .byte   W96
@  #03 @062   ----------------------------------------
 .byte   W96
@  #03 @063   ----------------------------------------
 .byte   W96
@  #03 @064   ----------------------------------------
 .byte   W96
@  #03 @065   ----------------------------------------
 .byte   W96
@  #03 @066   ----------------------------------------
 .byte   W96
@  #03 @067   ----------------------------------------
 .byte   W48
 .byte   N23 ,Ds3 ,v060
 .byte   W24
 .byte   Fn3 ,v072
 .byte   W24
@  #03 @068   ----------------------------------------
 .byte   TIE ,Fs3 ,v080
 .byte   W96
@  #03 @069   ----------------------------------------
 .byte   W23
 .byte   EOT
 .byte   W01
 .byte   N23 ,Fn3
 .byte   W24
 .byte   Ds3
 .byte   W24
 .byte   Cs3
 .byte   W24
@  #03 @070   ----------------------------------------
 .byte   TIE ,Ds3
 .byte   W96
@  #03 @071   ----------------------------------------
 .byte   W23
 .byte   EOT
 .byte   W01
 .byte   N23 ,Fn3
 .byte   W24
 .byte   Fs3
 .byte   W24
 .byte   Gs3
 .byte   W24
@  #03 @072   ----------------------------------------
 .byte   N92 ,Fn3
 .byte   W96
@  #03 @073   ----------------------------------------
 .byte   Ds3
 .byte   W96
@  #03 @074   ----------------------------------------
 .byte   Cn3
 .byte   W96
@  #03 @075   ----------------------------------------
Label_01932E25:
 .byte   N23 ,Cn3 ,v052
 .byte   W24
 .byte   Cs3
 .byte   W24
 .byte   Fn3
 .byte   W24
 .byte   Gs3
 .byte   W24
 .byte   PEND 
@  #03 @076   ----------------------------------------
Label_01932E30:
 .byte   N68 ,Cn4 ,v052
 .byte   W72
 .byte   N23 ,Cs4
 .byte   W24
 .byte   PEND 
@  #03 @077   ----------------------------------------
 .byte   TIE ,As3
 .byte   W96
@  #03 @078   ----------------------------------------
 .byte   W44
 .byte   W03
 .byte   EOT
 .byte   W01
 .byte   N23 ,Fn3
 .byte   W24
 .byte   Fn4 ,v032
 .byte   W24
@  #03 @079   ----------------------------------------
Label_01932E45:
 .byte   N11 ,Ds4 ,v032
 .byte   W12
 .byte   Cs4 ,v052
 .byte   W12
 .byte   N44 ,Cn4
 .byte   W48
 .byte   N23 ,Gs3
 .byte   W24
 .byte   PEND 
@  #03 @080   ----------------------------------------
 .byte   N32 ,Cn4
 .byte   W36
 .byte   Cs4
 .byte   W36
 .byte   TIE ,As3
 .byte   W24
@  #03 @081   ----------------------------------------
 .byte   W96
@  #03 @082   ----------------------------------------
 .byte   W92
 .byte   W03
 .byte   EOT
 .byte   W01
@  #03 @083   ----------------------------------------
 .byte   PATT
  .word Label_01932E25
@  #03 @084   ----------------------------------------
 .byte   PATT
  .word Label_01932E30
@  #03 @085   ----------------------------------------
 .byte   TIE ,As3 ,v052
 .byte   W96
@  #03 @086   ----------------------------------------
 .byte   W44
 .byte   W03
 .byte   EOT
 .byte   W01
 .byte   N23 ,Fn3
 .byte   W24
 .byte   Fn4 ,v032
 .byte   W24
@  #03 @087   ----------------------------------------
 .byte   PATT
  .word Label_01932E45
@  #03 @088   ----------------------------------------
 .byte   N32 ,Cn4 ,v052
 .byte   W36
 .byte   Cs4
 .byte   W36
 .byte   TIE ,Gs3
 .byte   W24
@  #03 @089   ----------------------------------------
 .byte   W96
@  #03 @090   ----------------------------------------
 .byte   W96
@  #03 @091   ----------------------------------------
 .byte   W92
 .byte   W03
 .byte   EOT
 .byte   W01
@  #03 @092   ----------------------------------------
 .byte   GOTO
  .word Label_01932D6E
@  #03 @093   ----------------------------------------
 .byte   VOICE , 68
 .byte   FINE

@**************** Track 4 (Midi-Chn.3) ****************@

song1E_004:
@  #04 @000   ----------------------------------------
 .byte   KEYSH , song1E_key+0
Label_015F6E8A:
 .byte   VOICE , 58
 .byte   MODT 0
 .byte   LFOS 44
 .byte   VOL , 35*song1E_mvl/mxv
 .byte   PAN , c_v+0
 .byte   N23 ,As1 ,v080
 .byte   W96
@  #04 @001   ----------------------------------------
 .byte   W72
 .byte   N23
 .byte   W24
@  #04 @002   ----------------------------------------
 .byte   W24
 .byte   N23
 .byte   W72
@  #04 @003   ----------------------------------------
 .byte   W72
 .byte   N23
 .byte   W24
@  #04 @004   ----------------------------------------
 .byte   Fs1
 .byte   W96
@  #04 @005   ----------------------------------------
 .byte   W72
 .byte   Ds1
 .byte   W24
@  #04 @006   ----------------------------------------
 .byte   W24
 .byte   N23
 .byte   W72
@  #04 @007   ----------------------------------------
Label_015F6EA9:
 .byte   N23 ,Fn1 ,v080
 .byte   W48
 .byte   An1
 .byte   W48
 .byte   PEND 
@  #04 @008   ----------------------------------------
 .byte   As1
 .byte   W96
@  #04 @009   ----------------------------------------
 .byte   W72
 .byte   N23
 .byte   W24
@  #04 @010   ----------------------------------------
 .byte   W24
 .byte   N23
 .byte   W72
@  #04 @011   ----------------------------------------
 .byte   W72
 .byte   N23
 .byte   W24
@  #04 @012   ----------------------------------------
 .byte   Fs1
 .byte   W96
@  #04 @013   ----------------------------------------
 .byte   W72
 .byte   Ds1
 .byte   W24
@  #04 @014   ----------------------------------------
 .byte   W24
 .byte   N23
 .byte   W72
@  #04 @015   ----------------------------------------
 .byte   PATT
  .word Label_015F6EA9
@  #04 @016   ----------------------------------------
 .byte   W96
@  #04 @017   ----------------------------------------
 .byte   W96
@  #04 @018   ----------------------------------------
 .byte   W96
@  #04 @019   ----------------------------------------
 .byte   W96
@  #04 @020   ----------------------------------------
Label_015F6ECC:
 .byte   W48
 .byte   TIE ,Fs1 ,v060
 .byte   W48
 .byte   PEND 
@  #04 @021   ----------------------------------------
 .byte   W68
 .byte   W03
 .byte   EOT
 .byte   W01
 .byte   TIE ,An1
 .byte   W24
@  #04 @022   ----------------------------------------
 .byte   W96
@  #04 @023   ----------------------------------------
 .byte   W92
 .byte   W03
 .byte   EOT
 .byte   W01
@  #04 @024   ----------------------------------------
 .byte   TIE ,As1
 .byte   W96
@  #04 @025   ----------------------------------------
 .byte   W68
 .byte   W03
 .byte   EOT
 .byte   W01
 .byte   TIE ,Gn1
 .byte   W24
@  #04 @026   ----------------------------------------
 .byte   W96
@  #04 @027   ----------------------------------------
 .byte   W92
 .byte   W03
 .byte   EOT
 .byte   W01
@  #04 @028   ----------------------------------------
 .byte   PATT
  .word Label_015F6ECC
@  #04 @029   ----------------------------------------
 .byte   W68
 .byte   W03
 .byte   EOT
 .byte   Fs1
 .byte   W01
 .byte   TIE ,An1 ,v060
 .byte   W24
@  #04 @030   ----------------------------------------
 .byte   W96
@  #04 @031   ----------------------------------------
 .byte   W92
 .byte   W03
 .byte   EOT
 .byte   W01
@  #04 @032   ----------------------------------------
 .byte   TIE ,As1
 .byte   W96
@  #04 @033   ----------------------------------------
 .byte   W96
@  #04 @034   ----------------------------------------
 .byte   W96
@  #04 @035   ----------------------------------------
 .byte   W92
 .byte   W03
 .byte   EOT
 .byte   W01
@  #04 @036   ----------------------------------------
 .byte   PATT
  .word Label_015F6ECC
@  #04 @037   ----------------------------------------
 .byte   W68
 .byte   W03
 .byte   EOT
 .byte   Fs1
 .byte   W01
 .byte   TIE ,An1 ,v060
 .byte   W24
@  #04 @038   ----------------------------------------
 .byte   W96
@  #04 @039   ----------------------------------------
 .byte   W92
 .byte   W03
 .byte   EOT
 .byte   W01
@  #04 @040   ----------------------------------------
 .byte   TIE ,As1
 .byte   W96
@  #04 @041   ----------------------------------------
 .byte   W68
 .byte   W03
 .byte   EOT
 .byte   W01
 .byte   TIE ,Gn1
 .byte   W24
@  #04 @042   ----------------------------------------
 .byte   W96
@  #04 @043   ----------------------------------------
 .byte   W92
 .byte   W03
 .byte   EOT
 .byte   W01
@  #04 @044   ----------------------------------------
 .byte   W48
 .byte   TIE ,Ds1
 .byte   W48
@  #04 @045   ----------------------------------------
 .byte   W68
 .byte   W03
 .byte   EOT
 .byte   W01
 .byte   TIE ,Fn1
 .byte   W24
@  #04 @046   ----------------------------------------
 .byte   W92
 .byte   W03
 .byte   EOT
 .byte   W01
@  #04 @047   ----------------------------------------
 .byte   N92 ,An1
 .byte   W96
@  #04 @048   ----------------------------------------
 .byte   TIE ,As1
 .byte   W96
@  #04 @049   ----------------------------------------
 .byte   W96
@  #04 @050   ----------------------------------------
 .byte   W96
@  #04 @051   ----------------------------------------
 .byte   W92
 .byte   W03
 .byte   EOT
 .byte   W01
@  #04 @052   ----------------------------------------
 .byte   W96
@  #04 @053   ----------------------------------------
 .byte   W96
@  #04 @054   ----------------------------------------
 .byte   W96
@  #04 @055   ----------------------------------------
 .byte   W96
@  #04 @056   ----------------------------------------
 .byte   W96
@  #04 @057   ----------------------------------------
 .byte   W96
@  #04 @058   ----------------------------------------
 .byte   W96
@  #04 @059   ----------------------------------------
 .byte   W96
@  #04 @060   ----------------------------------------
 .byte   W96
@  #04 @061   ----------------------------------------
 .byte   W96
@  #04 @062   ----------------------------------------
 .byte   W96
@  #04 @063   ----------------------------------------
 .byte   W96
@  #04 @064   ----------------------------------------
 .byte   W96
@  #04 @065   ----------------------------------------
 .byte   W96
@  #04 @066   ----------------------------------------
 .byte   W96
@  #04 @067   ----------------------------------------
 .byte   W96
@  #04 @068   ----------------------------------------
 .byte   W96
@  #04 @069   ----------------------------------------
 .byte   W96
@  #04 @070   ----------------------------------------
 .byte   W96
@  #04 @071   ----------------------------------------
 .byte   W96
@  #04 @072   ----------------------------------------
 .byte   W96
@  #04 @073   ----------------------------------------
 .byte   W96
@  #04 @074   ----------------------------------------
 .byte   W96
@  #04 @075   ----------------------------------------
 .byte   W96
@  #04 @076   ----------------------------------------
 .byte   W48
 .byte   N44 ,Fs0
 .byte   W48
@  #04 @077   ----------------------------------------
Label_015F6F62:
 .byte   N68 ,Gs0 ,v060
 .byte   W72
 .byte   TIE ,As0
 .byte   W24
 .byte   PEND 
@  #04 @078   ----------------------------------------
 .byte   W96
@  #04 @079   ----------------------------------------
 .byte   W92
 .byte   W03
 .byte   EOT
 .byte   W01
@  #04 @080   ----------------------------------------
 .byte   W48
 .byte   N44 ,Ds0
 .byte   W48
@  #04 @081   ----------------------------------------
Label_015F6F73:
 .byte   N68 ,Fn0 ,v060
 .byte   W72
 .byte   TIE ,As0
 .byte   W24
 .byte   PEND 
@  #04 @082   ----------------------------------------
 .byte   W96
@  #04 @083   ----------------------------------------
 .byte   W92
 .byte   W03
 .byte   EOT
 .byte   W01
@  #04 @084   ----------------------------------------
 .byte   W48
 .byte   N44 ,Fs0
 .byte   W48
@  #04 @085   ----------------------------------------
 .byte   PATT
  .word Label_015F6F62
@  #04 @086   ----------------------------------------
 .byte   W96
@  #04 @087   ----------------------------------------
 .byte   W92
 .byte   W03
 .byte   EOT
 .byte   As0
 .byte   W01
@  #04 @088   ----------------------------------------
 .byte   W48
 .byte   N44 ,Ds0 ,v060
 .byte   W48
@  #04 @089   ----------------------------------------
 .byte   PATT
  .word Label_015F6F73
@  #04 @090   ----------------------------------------
 .byte   W96
@  #04 @091   ----------------------------------------
 .byte   W92
 .byte   W03
 .byte   EOT
 .byte   As0
 .byte   W01
@  #04 @092   ----------------------------------------
 .byte   GOTO
  .word Label_015F6E8A
@  #04 @093   ----------------------------------------
 .byte   VOICE , 58
 .byte   PAN , c_v+0
 .byte   FINE

@**************** Track 5 (Midi-Chn.4) ****************@

song1E_005:
@  #05 @000   ----------------------------------------
 .byte   KEYSH , song1E_key+0
Label_0193324A:
 .byte   VOICE , 52
 .byte   MODT 0
 .byte   LFOS 44
 .byte   PAN , c_v-13
 .byte   VOL , 42*song1E_mvl/mxv
 .byte   N36 ,Cs4 ,v080
 .byte   W96
@  #05 @001   ----------------------------------------
 .byte   W72
 .byte   N36
 .byte   W24
@  #05 @002   ----------------------------------------
 .byte   W24
 .byte   Cn4
 .byte   W72
@  #05 @003   ----------------------------------------
Label_0193325E:
 .byte   W72
 .byte   N07 ,Cs4 ,v080
 .byte   W08
 .byte   Cn4
 .byte   W08
 .byte   Bn3
 .byte   W08
 .byte   PEND 
@  #05 @004   ----------------------------------------
 .byte   N36 ,As3
 .byte   W96
@  #05 @005   ----------------------------------------
 .byte   W72
 .byte   Gs3
 .byte   W24
@  #05 @006   ----------------------------------------
 .byte   W24
 .byte   Fs3
 .byte   W72
@  #05 @007   ----------------------------------------
Label_01933271:
 .byte   N36 ,Ds3 ,v080
 .byte   N36 ,An3
 .byte   W48
 .byte   Fs3
 .byte   N36 ,Cn4
 .byte   W48
 .byte   PEND 
@  #05 @008   ----------------------------------------
 .byte   Cs4
 .byte   W96
@  #05 @009   ----------------------------------------
 .byte   W72
 .byte   N36
 .byte   W24
@  #05 @010   ----------------------------------------
 .byte   W24
 .byte   Cn4
 .byte   W72
@  #05 @011   ----------------------------------------
 .byte   PATT
  .word Label_0193325E
@  #05 @012   ----------------------------------------
 .byte   N36 ,As3 ,v080
 .byte   W96
@  #05 @013   ----------------------------------------
 .byte   W72
 .byte   Gs3
 .byte   W24
@  #05 @014   ----------------------------------------
 .byte   W24
 .byte   Fs3
 .byte   W72
@  #05 @015   ----------------------------------------
 .byte   PATT
  .word Label_01933271
@  #05 @016   ----------------------------------------
 .byte   W96
@  #05 @017   ----------------------------------------
 .byte   W96
@  #05 @018   ----------------------------------------
 .byte   W96
@  #05 @019   ----------------------------------------
 .byte   W96
@  #05 @020   ----------------------------------------
 .byte   N68 ,Gs4 ,v080
 .byte   W72
 .byte   N23 ,Fs4
 .byte   W24
@  #05 @021   ----------------------------------------
 .byte   Cn4
 .byte   W24
 .byte   Cs4
 .byte   W24
 .byte   N68 ,Fs4
 .byte   W48
@  #05 @022   ----------------------------------------
Label_019332AA:
 .byte   W24
 .byte   N23 ,Fn4 ,v080
 .byte   W24
 .byte   Ds4
 .byte   W24
 .byte   Cs4
 .byte   W24
 .byte   PEND 
@  #05 @023   ----------------------------------------
Label_019332B4:
 .byte   N23 ,Cn4 ,v080
 .byte   W48
 .byte   N44 ,Cs5
 .byte   W48
 .byte   PEND 
@  #05 @024   ----------------------------------------
 .byte   N68 ,Cn5
 .byte   W72
 .byte   N23 ,As4
 .byte   W24
@  #05 @025   ----------------------------------------
 .byte   TIE ,Fn4
 .byte   W96
@  #05 @026   ----------------------------------------
 .byte   W92
 .byte   W03
 .byte   EOT
 .byte   W01
@  #05 @027   ----------------------------------------
 .byte   W96
@  #05 @028   ----------------------------------------
 .byte   N68 ,Ds4
 .byte   W72
 .byte   N23 ,Cs4
 .byte   W24
@  #05 @029   ----------------------------------------
 .byte   Cn4
 .byte   W24
 .byte   As3
 .byte   W24
 .byte   N68 ,Fs4
 .byte   W48
@  #05 @030   ----------------------------------------
 .byte   PATT
  .word Label_019332AA
@  #05 @031   ----------------------------------------
 .byte   PATT
  .word Label_019332B4
@  #05 @032   ----------------------------------------
 .byte   N92 ,Cn3 ,v080
 .byte   N92 ,Cn5
 .byte   W96
@  #05 @033   ----------------------------------------
 .byte   As2
 .byte   N92 ,As4
 .byte   W96
@  #05 @034   ----------------------------------------
 .byte   Cn3
 .byte   N92 ,Cn5
 .byte   W96
@  #05 @035   ----------------------------------------
 .byte   Cs3
 .byte   N92 ,Cs5
 .byte   W96
@  #05 @036   ----------------------------------------
 .byte   W96
@  #05 @037   ----------------------------------------
 .byte   W96
@  #05 @038   ----------------------------------------
 .byte   W96
@  #05 @039   ----------------------------------------
 .byte   W96
@  #05 @040   ----------------------------------------
 .byte   W96
@  #05 @041   ----------------------------------------
 .byte   W96
@  #05 @042   ----------------------------------------
 .byte   W96
@  #05 @043   ----------------------------------------
 .byte   W96
@  #05 @044   ----------------------------------------
 .byte   Cs4
 .byte   W96
@  #05 @045   ----------------------------------------
 .byte   Fn4
 .byte   W96
@  #05 @046   ----------------------------------------
 .byte   Ds4
 .byte   W96
@  #05 @047   ----------------------------------------
 .byte   Cs5
 .byte   W96
@  #05 @048   ----------------------------------------
 .byte   N23 ,Cn5
 .byte   W24
 .byte   TIE ,As4
 .byte   W72
@  #05 @049   ----------------------------------------
 .byte   W96
@  #05 @050   ----------------------------------------
 .byte   W96
@  #05 @051   ----------------------------------------
 .byte   W92
 .byte   W03
 .byte   EOT
 .byte   W01
@  #05 @052   ----------------------------------------
Label_0193330F:
 .byte   N23 ,Cn4 ,v044
 .byte   W24
 .byte   N23
 .byte   W24
 .byte   N23
 .byte   W24
 .byte   N07
 .byte   W08
 .byte   As3
 .byte   W08
 .byte   Cn4
 .byte   W08
 .byte   PEND 
@  #05 @053   ----------------------------------------
Label_0193331E:
 .byte   N23 ,Cs4 ,v044
 .byte   W24
 .byte   N23
 .byte   W24
 .byte   N23
 .byte   W24
 .byte   N07
 .byte   W08
 .byte   Cn4
 .byte   W08
 .byte   Cs4
 .byte   W08
 .byte   PEND 
@  #05 @054   ----------------------------------------
Label_0193332D:
 .byte   N23 ,Ds4 ,v044
 .byte   W24
 .byte   N23
 .byte   W24
 .byte   N23
 .byte   W24
 .byte   N07
 .byte   W08
 .byte   Cs4
 .byte   W08
 .byte   Ds4
 .byte   W08
 .byte   PEND 
@  #05 @055   ----------------------------------------
Label_0193333C:
 .byte   N23 ,Fn4 ,v044
 .byte   W24
 .byte   N23
 .byte   W24
 .byte   N23
 .byte   W24
 .byte   N07
 .byte   W08
 .byte   Ds4
 .byte   W08
 .byte   Cs4
 .byte   W08
 .byte   PEND 
@  #05 @056   ----------------------------------------
 .byte   PATT
  .word Label_0193330F
@  #05 @057   ----------------------------------------
 .byte   PATT
  .word Label_0193331E
@  #05 @058   ----------------------------------------
 .byte   PATT
  .word Label_0193332D
@  #05 @059   ----------------------------------------
 .byte   PATT
  .word Label_0193333C
@  #05 @060   ----------------------------------------
 .byte   PATT
  .word Label_0193330F
@  #05 @061   ----------------------------------------
 .byte   PATT
  .word Label_0193331E
@  #05 @062   ----------------------------------------
 .byte   PATT
  .word Label_0193332D
@  #05 @063   ----------------------------------------
 .byte   PATT
  .word Label_0193333C
@  #05 @064   ----------------------------------------
 .byte   PATT
  .word Label_0193330F
@  #05 @065   ----------------------------------------
 .byte   PATT
  .word Label_0193331E
@  #05 @066   ----------------------------------------
 .byte   PATT
  .word Label_0193332D
@  #05 @067   ----------------------------------------
 .byte   PATT
  .word Label_0193333C
@  #05 @068   ----------------------------------------
 .byte   N68 ,Ds4 ,v044
 .byte   W72
 .byte   N07
 .byte   W08
 .byte   Cs4
 .byte   W08
 .byte   Ds4
 .byte   W08
@  #05 @069   ----------------------------------------
 .byte   N68 ,Fn4
 .byte   W72
 .byte   N07
 .byte   W08
 .byte   Ds4
 .byte   W08
 .byte   Fn4
 .byte   W08
@  #05 @070   ----------------------------------------
 .byte   N68 ,Fs4
 .byte   W72
 .byte   N07
 .byte   W08
 .byte   Fn4
 .byte   W08
 .byte   Fs4
 .byte   W08
@  #05 @071   ----------------------------------------
 .byte   N92 ,Gs4
 .byte   W96
@  #05 @072   ----------------------------------------
 .byte   Fn4
 .byte   W96
@  #05 @073   ----------------------------------------
 .byte   Ds4
 .byte   W96
@  #05 @074   ----------------------------------------
 .byte   Fn4
 .byte   W96
@  #05 @075   ----------------------------------------
 .byte   N23 ,Fn4 ,v028
 .byte   W24
 .byte   Ds4 ,v032
 .byte   W24
 .byte   Cn4 ,v036
 .byte   W24
 .byte   Fn3 ,v044
 .byte   W24
@  #05 @076   ----------------------------------------
Label_019333B9:
 .byte   N68 ,Cn5 ,v052
 .byte   W72
 .byte   N23 ,Cs5
 .byte   W24
 .byte   PEND 
@  #05 @077   ----------------------------------------
 .byte   TIE ,As4
 .byte   W96
@  #05 @078   ----------------------------------------
 .byte   W44
 .byte   W03
 .byte   EOT
 .byte   W01
 .byte   N23 ,Fn4
 .byte   W24
 .byte   Fn5 ,v032
 .byte   W24
@  #05 @079   ----------------------------------------
Label_019333CE:
 .byte   N11 ,Ds5 ,v032
 .byte   W12
 .byte   Cs5 ,v052
 .byte   W12
 .byte   N44 ,Cn5
 .byte   W48
 .byte   N23 ,Gs4
 .byte   W24
 .byte   PEND 
@  #05 @080   ----------------------------------------
 .byte   N32 ,Cn5
 .byte   W36
 .byte   Cs5
 .byte   W36
 .byte   TIE ,As4
 .byte   W24
@  #05 @081   ----------------------------------------
 .byte   W96
@  #05 @082   ----------------------------------------
 .byte   W92
 .byte   W03
 .byte   EOT
 .byte   W01
@  #05 @083   ----------------------------------------
 .byte   N23 ,Cn4
 .byte   W24
 .byte   Cs4
 .byte   W24
 .byte   Fn4
 .byte   W24
 .byte   Gs4
 .byte   W24
@  #05 @084   ----------------------------------------
 .byte   PATT
  .word Label_019333B9
@  #05 @085   ----------------------------------------
 .byte   TIE ,As4 ,v052
 .byte   W96
@  #05 @086   ----------------------------------------
 .byte   W44
 .byte   W03
 .byte   EOT
 .byte   W01
 .byte   N23 ,Fn4
 .byte   W24
 .byte   Fn5 ,v032
 .byte   W24
@  #05 @087   ----------------------------------------
 .byte   PATT
  .word Label_019333CE
@  #05 @088   ----------------------------------------
 .byte   N32 ,Cn5 ,v052
 .byte   W36
 .byte   Cs5
 .byte   W36
 .byte   TIE ,Gs5 ,v028
 .byte   W24
@  #05 @089   ----------------------------------------
 .byte   W96
@  #05 @090   ----------------------------------------
 .byte   W96
@  #05 @091   ----------------------------------------
 .byte   W92
 .byte   W03
 .byte   EOT
 .byte   W01
@  #05 @092   ----------------------------------------
 .byte   GOTO
  .word Label_0193324A
 .byte   FINE

@**************** Track 6 (Midi-Chn.5) ****************@

song1E_006:
@  #06 @000   ----------------------------------------
 .byte   KEYSH , song1E_key+0
Label_01932F0A:
 .byte   VOICE , 1
 .byte   MODT 0
 .byte   LFOS 44
 .byte   VOL , 53*song1E_mvl/mxv
 .byte   PAN , c_v+0
 .byte   N24 ,Cs5 ,v080
 .byte   W24
 .byte   N32
 .byte   W24
 .byte   N24 ,Cn5
 .byte   W24
 .byte   N24
 .byte   W24
@  #06 @001   ----------------------------------------
Label_01932F1F:
 .byte   N24 ,Ds4 ,v080
 .byte   W24
 .byte   N32
 .byte   W24
 .byte   N24 ,Fn4
 .byte   W24
 .byte   N24
 .byte   W24
 .byte   PEND 
@  #06 @002   ----------------------------------------
Label_01932F2B:
 .byte   N24 ,Cs5 ,v080
 .byte   W24
 .byte   N32
 .byte   W24
 .byte   N24 ,Cn5
 .byte   W24
 .byte   N24
 .byte   W24
 .byte   PEND 
@  #06 @003   ----------------------------------------
 .byte   PATT
  .word Label_01932F1F
@  #06 @004   ----------------------------------------
Label_01932F3C:
 .byte   N24 ,As4 ,v080
 .byte   W24
 .byte   N32
 .byte   W24
 .byte   N24 ,Gs4
 .byte   W24
 .byte   N24
 .byte   W24
 .byte   PEND 
@  #06 @005   ----------------------------------------
Label_01932F48:
 .byte   N24 ,Cn4 ,v080
 .byte   W24
 .byte   N32
 .byte   W24
 .byte   N24 ,Cs4
 .byte   W24
 .byte   Gs4
 .byte   W24
 .byte   PEND 
@  #06 @006   ----------------------------------------
Label_01932F54:
 .byte   N24 ,Gs4 ,v080
 .byte   W24
 .byte   N48 ,Fs4
 .byte   W72
 .byte   PEND 
@  #06 @007   ----------------------------------------
Label_01932F5C:
 .byte   N24 ,Ds4 ,v080
 .byte   W24
 .byte   N24
 .byte   W24
 .byte   Fs4
 .byte   W24
 .byte   N24
 .byte   W24
 .byte   PEND 
@  #06 @008   ----------------------------------------
 .byte   VOL , 53*song1E_mvl/mxv
 .byte   PAN , c_v+0
 .byte   N24 ,Cs5
 .byte   W24
 .byte   N32
 .byte   W24
 .byte   N24 ,Cn5
 .byte   W24
 .byte   N24
 .byte   W24
@  #06 @009   ----------------------------------------
 .byte   PATT
  .word Label_01932F1F
@  #06 @010   ----------------------------------------
 .byte   PATT
  .word Label_01932F2B
@  #06 @011   ----------------------------------------
 .byte   PATT
  .word Label_01932F1F
@  #06 @012   ----------------------------------------
 .byte   PATT
  .word Label_01932F3C
@  #06 @013   ----------------------------------------
 .byte   PATT
  .word Label_01932F48
@  #06 @014   ----------------------------------------
 .byte   PATT
  .word Label_01932F54
@  #06 @015   ----------------------------------------
 .byte   PATT
  .word Label_01932F5C
@  #06 @016   ----------------------------------------
 .byte   VOL , 53*song1E_mvl/mxv
 .byte   PAN , c_v+0
 .byte   En3 ,v064
 .byte   N22 ,Fn4 ,v096
 .byte   W24
 .byte   N24
 .byte   W24
 .byte   N22 ,Ds4
 .byte   W24
 .byte   N24
 .byte   W24
@  #06 @017   ----------------------------------------
 .byte   N22 ,Cn4
 .byte   W24
 .byte   N24
 .byte   W24
 .byte   N22 ,Cs4
 .byte   W24
 .byte   N24
 .byte   W24
@  #06 @018   ----------------------------------------
 .byte   N22 ,Ds4
 .byte   W24
 .byte   N24
 .byte   W24
 .byte   N22 ,Fn4
 .byte   W24
 .byte   N24
 .byte   W24
@  #06 @019   ----------------------------------------
 .byte   N07 ,Ds5 ,v127
 .byte   W08
 .byte   N07
 .byte   W16
 .byte   N24
 .byte   W24
 .byte   N07 ,Fn5
 .byte   W08
 .byte   N07
 .byte   W16
 .byte   N24
 .byte   W24
@  #06 @020   ----------------------------------------
 .byte   W96
@  #06 @021   ----------------------------------------
 .byte   W96
@  #06 @022   ----------------------------------------
 .byte   W96
@  #06 @023   ----------------------------------------
 .byte   W96
@  #06 @024   ----------------------------------------
 .byte   W96
@  #06 @025   ----------------------------------------
 .byte   W96
@  #06 @026   ----------------------------------------
 .byte   W96
@  #06 @027   ----------------------------------------
 .byte   W96
@  #06 @028   ----------------------------------------
 .byte   W96
@  #06 @029   ----------------------------------------
 .byte   W96
@  #06 @030   ----------------------------------------
 .byte   W96
@  #06 @031   ----------------------------------------
 .byte   W96
@  #06 @032   ----------------------------------------
 .byte   W96
@  #06 @033   ----------------------------------------
 .byte   W96
@  #06 @034   ----------------------------------------
 .byte   W96
@  #06 @035   ----------------------------------------
 .byte   W96
@  #06 @036   ----------------------------------------
 .byte   W96
@  #06 @037   ----------------------------------------
 .byte   W96
@  #06 @038   ----------------------------------------
 .byte   W96
@  #06 @039   ----------------------------------------
 .byte   W96
@  #06 @040   ----------------------------------------
 .byte   W96
@  #06 @041   ----------------------------------------
 .byte   W96
@  #06 @042   ----------------------------------------
 .byte   W96
@  #06 @043   ----------------------------------------
 .byte   W96
@  #06 @044   ----------------------------------------
 .byte   W96
@  #06 @045   ----------------------------------------
 .byte   W96
@  #06 @046   ----------------------------------------
 .byte   W96
@  #06 @047   ----------------------------------------
 .byte   W96
@  #06 @048   ----------------------------------------
 .byte   W96
@  #06 @049   ----------------------------------------
 .byte   W96
@  #06 @050   ----------------------------------------
 .byte   W96
@  #06 @051   ----------------------------------------
 .byte   W96
@  #06 @052   ----------------------------------------
 .byte   W96
@  #06 @053   ----------------------------------------
 .byte   W96
@  #06 @054   ----------------------------------------
 .byte   W96
@  #06 @055   ----------------------------------------
 .byte   W96
@  #06 @056   ----------------------------------------
 .byte   W96
@  #06 @057   ----------------------------------------
 .byte   W96
@  #06 @058   ----------------------------------------
 .byte   W96
@  #06 @059   ----------------------------------------
 .byte   W96
@  #06 @060   ----------------------------------------
 .byte   W96
@  #06 @061   ----------------------------------------
 .byte   W96
@  #06 @062   ----------------------------------------
 .byte   W96
@  #06 @063   ----------------------------------------
 .byte   W96
@  #06 @064   ----------------------------------------
 .byte   W96
@  #06 @065   ----------------------------------------
 .byte   W96
@  #06 @066   ----------------------------------------
 .byte   W96
@  #06 @067   ----------------------------------------
 .byte   W96
@  #06 @068   ----------------------------------------
 .byte   W96
@  #06 @069   ----------------------------------------
 .byte   W96
@  #06 @070   ----------------------------------------
 .byte   W96
@  #06 @071   ----------------------------------------
 .byte   W96
@  #06 @072   ----------------------------------------
 .byte   W96
@  #06 @073   ----------------------------------------
 .byte   W96
@  #06 @074   ----------------------------------------
 .byte   W96
@  #06 @075   ----------------------------------------
 .byte   W96
@  #06 @076   ----------------------------------------
 .byte   W96
@  #06 @077   ----------------------------------------
 .byte   W96
@  #06 @078   ----------------------------------------
 .byte   W96
@  #06 @079   ----------------------------------------
 .byte   W96
@  #06 @080   ----------------------------------------
 .byte   W96
@  #06 @081   ----------------------------------------
 .byte   W96
@  #06 @082   ----------------------------------------
 .byte   W96
@  #06 @083   ----------------------------------------
 .byte   W96
@  #06 @084   ----------------------------------------
 .byte   W96
@  #06 @085   ----------------------------------------
 .byte   W96
@  #06 @086   ----------------------------------------
 .byte   W96
@  #06 @087   ----------------------------------------
 .byte   W96
@  #06 @088   ----------------------------------------
 .byte   W96
@  #06 @089   ----------------------------------------
 .byte   W96
@  #06 @090   ----------------------------------------
 .byte   W96
@  #06 @091   ----------------------------------------
 .byte   W96
@  #06 @092   ----------------------------------------
 .byte   GOTO
  .word Label_01932F0A
@  #06 @093   ----------------------------------------
 .byte   VOICE , 1
 .byte   PAN , c_v+0
 .byte   FINE

@**************** Track 7 (Midi-Chn.6) ****************@

song1E_007:
@  #07 @000   ----------------------------------------
 .byte   KEYSH , song1E_key+0
Label_01BCBD96:
 .byte   VOICE , 40
 .byte   MODT 0
 .byte   LFOS 44
 .byte   PAN , c_v-1
 .byte   VOL , 59*song1E_mvl/mxv
 .byte   W96
@  #07 @001   ----------------------------------------
 .byte   W96
@  #07 @002   ----------------------------------------
 .byte   W96
@  #07 @003   ----------------------------------------
 .byte   W96
@  #07 @004   ----------------------------------------
 .byte   W96
@  #07 @005   ----------------------------------------
 .byte   W96
@  #07 @006   ----------------------------------------
 .byte   W96
@  #07 @007   ----------------------------------------
 .byte   W96
@  #07 @008   ----------------------------------------
 .byte   W96
@  #07 @009   ----------------------------------------
 .byte   W96
@  #07 @010   ----------------------------------------
 .byte   W96
@  #07 @011   ----------------------------------------
 .byte   W96
@  #07 @012   ----------------------------------------
 .byte   W96
@  #07 @013   ----------------------------------------
 .byte   W96
@  #07 @014   ----------------------------------------
 .byte   W96
@  #07 @015   ----------------------------------------
 .byte   W96
@  #07 @016   ----------------------------------------
 .byte   W96
@  #07 @017   ----------------------------------------
 .byte   W96
@  #07 @018   ----------------------------------------
 .byte   TIE ,Cs3 ,v032
 .byte   W96
@  #07 @019   ----------------------------------------
 .byte   W92
 .byte   W03
 .byte   EOT
 .byte   W01
@  #07 @020   ----------------------------------------
 .byte   N68 ,Gs3 ,v044
 .byte   W72
 .byte   N23 ,Fs3
 .byte   W24
@  #07 @021   ----------------------------------------
 .byte   Cn3
 .byte   W24
 .byte   Cs3
 .byte   W24
 .byte   N68 ,Fs3
 .byte   W48
@  #07 @022   ----------------------------------------
Label_01BCBDC8:
 .byte   W24
 .byte   N23 ,Fn3 ,v044
 .byte   W24
 .byte   Ds3
 .byte   W24
 .byte   Cs3
 .byte   W24
 .byte   PEND 
@  #07 @023   ----------------------------------------
Label_01BCBDD2:
 .byte   N23 ,Cn3 ,v044
 .byte   W48
 .byte   N44 ,Cs4
 .byte   W48
 .byte   PEND 
@  #07 @024   ----------------------------------------
 .byte   N68 ,Cn4
 .byte   W72
 .byte   N23 ,As3
 .byte   W24
@  #07 @025   ----------------------------------------
 .byte   TIE ,Fn3
 .byte   W96
@  #07 @026   ----------------------------------------
 .byte   W92
 .byte   W03
 .byte   EOT
 .byte   W01
@  #07 @027   ----------------------------------------
 .byte   W96
@  #07 @028   ----------------------------------------
 .byte   N68 ,Ds3
 .byte   W72
 .byte   N23 ,Cs3
 .byte   W24
@  #07 @029   ----------------------------------------
 .byte   Cn3
 .byte   W24
 .byte   As2
 .byte   W24
 .byte   N68 ,Fs3
 .byte   W48
@  #07 @030   ----------------------------------------
 .byte   PATT
  .word Label_01BCBDC8
@  #07 @031   ----------------------------------------
 .byte   PATT
  .word Label_01BCBDD2
@  #07 @032   ----------------------------------------
 .byte   N92 ,Cn3 ,v044
 .byte   N92 ,Cn4
 .byte   W96
@  #07 @033   ----------------------------------------
 .byte   As2
 .byte   N92 ,As3
 .byte   W96
@  #07 @034   ----------------------------------------
 .byte   Cn3
 .byte   N92 ,Cn4
 .byte   W96
@  #07 @035   ----------------------------------------
 .byte   Cs3
 .byte   N92 ,Cs4
 .byte   W96
@  #07 @036   ----------------------------------------
 .byte   W96
@  #07 @037   ----------------------------------------
 .byte   W96
@  #07 @038   ----------------------------------------
 .byte   W96
@  #07 @039   ----------------------------------------
 .byte   W96
@  #07 @040   ----------------------------------------
 .byte   W96
@  #07 @041   ----------------------------------------
 .byte   W96
@  #07 @042   ----------------------------------------
 .byte   W96
@  #07 @043   ----------------------------------------
 .byte   W96
@  #07 @044   ----------------------------------------
 .byte   Cs2
 .byte   N92 ,Cs3
 .byte   W96
@  #07 @045   ----------------------------------------
 .byte   Fn2
 .byte   N92 ,Fn3
 .byte   W96
@  #07 @046   ----------------------------------------
 .byte   Ds2
 .byte   N92 ,Ds3
 .byte   W96
@  #07 @047   ----------------------------------------
 .byte   Cs3
 .byte   N92 ,Cs4
 .byte   W96
@  #07 @048   ----------------------------------------
 .byte   N23 ,Cn3
 .byte   N23 ,Cn4
 .byte   W24
 .byte   TIE ,As2
 .byte   TIE ,As3
 .byte   W72
@  #07 @049   ----------------------------------------
 .byte   W96
@  #07 @050   ----------------------------------------
 .byte   W96
@  #07 @051   ----------------------------------------
 .byte   W92
 .byte   W03
 .byte   EOT
 .byte   As2 ,v070
 .byte   W01
@  #07 @052   ----------------------------------------
Label_01BCBE3B:
 .byte   N07 ,Cn3 ,v044
 .byte   W24
 .byte   N07
 .byte   W24
 .byte   N07
 .byte   W24
 .byte   N07
 .byte   W08
 .byte   As2
 .byte   W08
 .byte   Cn3
 .byte   W08
 .byte   PEND 
@  #07 @053   ----------------------------------------
Label_01BCBE4A:
 .byte   N07 ,Cs3 ,v044
 .byte   W24
 .byte   N07
 .byte   W24
 .byte   N07
 .byte   W24
 .byte   N07
 .byte   W08
 .byte   Cn3
 .byte   W08
 .byte   Cs3
 .byte   W08
 .byte   PEND 
@  #07 @054   ----------------------------------------
Label_01BCBE59:
 .byte   N07 ,Ds3 ,v044
 .byte   W24
 .byte   N07
 .byte   W24
 .byte   N07
 .byte   W24
 .byte   N07
 .byte   W08
 .byte   Cs3
 .byte   W08
 .byte   Ds3
 .byte   W08
 .byte   PEND 
@  #07 @055   ----------------------------------------
 .byte   Fn3
 .byte   W24
 .byte   N07
 .byte   W24
 .byte   N07
 .byte   W24
 .byte   N07
 .byte   W08
 .byte   Ds3
 .byte   W08
 .byte   Cs3
 .byte   W08
@  #07 @056   ----------------------------------------
 .byte   PATT
  .word Label_01BCBE3B
@  #07 @057   ----------------------------------------
 .byte   PATT
  .word Label_01BCBE4A
@  #07 @058   ----------------------------------------
 .byte   PATT
  .word Label_01BCBE59
@  #07 @059   ----------------------------------------
 .byte   N07 ,Fn3 ,v044
 .byte   W24
 .byte   N07
 .byte   W24
 .byte   N44 ,Cs2 ,v060
 .byte   N07 ,Fn3 ,v044
 .byte   W24
 .byte   N07
 .byte   W08
 .byte   Ds3
 .byte   W08
 .byte   Cs3
 .byte   W08
@  #07 @060   ----------------------------------------
 .byte   N68 ,Gs2 ,v060
 .byte   N07 ,Cn3 ,v044
 .byte   W24
 .byte   N07
 .byte   W24
 .byte   N07
 .byte   W24
 .byte   N23 ,Fs2 ,v060
 .byte   N07 ,Cn3 ,v044
 .byte   W08
 .byte   As2
 .byte   W08
 .byte   Cn3
 .byte   W08
@  #07 @061   ----------------------------------------
 .byte   N68 ,Fn2 ,v060
 .byte   N07 ,Cs3 ,v044
 .byte   W24
 .byte   N07
 .byte   W24
 .byte   N07
 .byte   W24
 .byte   N23 ,Fs2 ,v060
 .byte   N07 ,Cs3 ,v044
 .byte   W08
 .byte   Cn3
 .byte   W08
 .byte   Cs3
 .byte   W08
@  #07 @062   ----------------------------------------
 .byte   N23 ,Fn2 ,v060
 .byte   N07 ,Ds3 ,v044
 .byte   W24
 .byte   N44 ,Ds2 ,v060
 .byte   N07 ,Ds3 ,v044
 .byte   W24
 .byte   N07
 .byte   W24
 .byte   N23 ,Fn2 ,v060
 .byte   N07 ,Ds3 ,v044
 .byte   W08
 .byte   Cs3
 .byte   W08
 .byte   Ds3
 .byte   W08
@  #07 @063   ----------------------------------------
 .byte   N23 ,Fs2 ,v060
 .byte   N07 ,Fn3 ,v044
 .byte   W24
 .byte   N23 ,Fn2 ,v060
 .byte   N07 ,Fn3 ,v044
 .byte   W24
 .byte   N23 ,Ds2 ,v060
 .byte   N07 ,Fn3 ,v044
 .byte   W24
 .byte   N23 ,Cs2 ,v060
 .byte   N07 ,Fn3 ,v044
 .byte   W08
 .byte   Ds3
 .byte   W08
 .byte   Cs3
 .byte   W08
@  #07 @064   ----------------------------------------
 .byte   N23 ,Ds2 ,v060
 .byte   N07 ,Cn3 ,v044
 .byte   W24
 .byte   TIE ,Fn2 ,v060
 .byte   N07 ,Cn3 ,v044
 .byte   W24
 .byte   N07
 .byte   W24
 .byte   N07
 .byte   W08
 .byte   As2
 .byte   W08
 .byte   Cn3
 .byte   W08
@  #07 @065   ----------------------------------------
 .byte   Cs3
 .byte   W24
 .byte   N07
 .byte   W23
 .byte   EOT
 .byte   Fn2
 .byte   W01
 .byte   N44 ,Cn2 ,v060
 .byte   N07 ,Cs3 ,v044
 .byte   W24
 .byte   N07
 .byte   W08
 .byte   Cn3
 .byte   W08
 .byte   Cs3
 .byte   W08
@  #07 @066   ----------------------------------------
 .byte   N23 ,Cn2 ,v060
 .byte   N07 ,Ds3 ,v044
 .byte   W24
 .byte   TIE ,Cs2 ,v060
 .byte   N07 ,Ds3 ,v044
 .byte   W24
 .byte   N07
 .byte   W24
 .byte   N07
 .byte   W08
 .byte   Cs3
 .byte   W08
 .byte   Ds3
 .byte   W08
@  #07 @067   ----------------------------------------
 .byte   Fn3
 .byte   W24
 .byte   N07
 .byte   W23
 .byte   EOT
 .byte   Cs2
 .byte   W01
 .byte   N23 ,Ds2 ,v060
 .byte   N07 ,Fn3 ,v044
 .byte   W24
 .byte   N23 ,Fn2 ,v060
 .byte   N07 ,Fn3 ,v044
 .byte   W08
 .byte   Ds3
 .byte   W08
 .byte   Cs3
 .byte   W08
@  #07 @068   ----------------------------------------
 .byte   TIE ,Fs2 ,v060
 .byte   N07 ,Ds3 ,v044
 .byte   W24
 .byte   N07
 .byte   W24
 .byte   N07
 .byte   W24
 .byte   N07
 .byte   W08
 .byte   Cs3
 .byte   W08
 .byte   Ds3
 .byte   W08
@  #07 @069   ----------------------------------------
 .byte   Fn3
 .byte   W23
 .byte   EOT
 .byte   Fs2
 .byte   W01
 .byte   N23 ,Fn2 ,v060
 .byte   N07 ,Fn3 ,v044
 .byte   W24
 .byte   N23 ,Ds2 ,v060
 .byte   N07 ,Fn3 ,v044
 .byte   W24
 .byte   N23 ,Cs2 ,v060
 .byte   N07 ,Fn3 ,v044
 .byte   W08
 .byte   Ds3
 .byte   W08
 .byte   Fn3
 .byte   W08
@  #07 @070   ----------------------------------------
 .byte   TIE ,Ds2 ,v060
 .byte   N07 ,Fs3 ,v044
 .byte   W24
 .byte   N07
 .byte   W24
 .byte   N07
 .byte   W24
 .byte   N07
 .byte   W08
 .byte   Fn3
 .byte   W08
 .byte   Fs3
 .byte   W08
@  #07 @071   ----------------------------------------
 .byte   Gs3
 .byte   W23
 .byte   EOT
 .byte   Ds2
 .byte   W01
 .byte   N23 ,Fn2 ,v060
 .byte   N07 ,Gs3 ,v044
 .byte   W24
 .byte   N23 ,Fs2 ,v060
 .byte   N07 ,Gs3 ,v044
 .byte   W24
 .byte   N23 ,Gs2 ,v060
 .byte   N07 ,Gs3 ,v044
 .byte   W24
@  #07 @072   ----------------------------------------
 .byte   N92 ,Fn2 ,v060
 .byte   N07 ,Fn3 ,v044
 .byte   W24
 .byte   N07
 .byte   W24
 .byte   N07
 .byte   W24
 .byte   N07
 .byte   W24
@  #07 @073   ----------------------------------------
 .byte   N92 ,Ds2 ,v060
 .byte   N07 ,Fn3 ,v044
 .byte   W24
 .byte   N07
 .byte   W24
 .byte   N07
 .byte   W24
 .byte   N07
 .byte   W24
@  #07 @074   ----------------------------------------
 .byte   N92 ,Cn2 ,v060
 .byte   N07 ,Fn3 ,v044
 .byte   W24
 .byte   N07
 .byte   W24
 .byte   N07
 .byte   W24
 .byte   N07
 .byte   W24
@  #07 @075   ----------------------------------------
 .byte   N23 ,Cn2 ,v060
 .byte   N23 ,Cn3 ,v044
 .byte   W24
 .byte   Cs2 ,v060
 .byte   N23 ,Cs3 ,v052
 .byte   W24
 .byte   Fn2 ,v060
 .byte   N23 ,Fn3
 .byte   W24
 .byte   Gs2
 .byte   N23 ,Gs3 ,v072
 .byte   W24
@  #07 @076   ----------------------------------------
Label_01BCBFEE:
 .byte   N68 ,Cn3 ,v060
 .byte   N68 ,Cn4 ,v080
 .byte   W72
 .byte   N23 ,Cs3 ,v060
 .byte   N23 ,Cs4 ,v080
 .byte   W24
 .byte   PEND 
@  #07 @077   ----------------------------------------
Label_01BCBFFD:
 .byte   TIE ,As2 ,v060
 .byte   TIE ,As3 ,v080
 .byte   W96
 .byte   PEND 
@  #07 @078   ----------------------------------------
 .byte   W44
 .byte   W03
 .byte   EOT
 .byte   As2 ,v070
 .byte   W01
 .byte   N23 ,Fn2 ,v060
 .byte   N23 ,Fn3 ,v080
 .byte   W24
 .byte   Fn3 ,v060
 .byte   N23 ,Fn4 ,v080
 .byte   W24
@  #07 @079   ----------------------------------------
Label_01BCC018:
 .byte   N11 ,Ds3 ,v060
 .byte   N11 ,Ds4 ,v080
 .byte   W12
 .byte   Cs3 ,v060
 .byte   N11 ,Cs4 ,v080
 .byte   W12
 .byte   N44 ,Cn3 ,v060
 .byte   N44 ,Cn4 ,v080
 .byte   W48
 .byte   N23 ,Gs2 ,v060
 .byte   N23 ,Gs3 ,v080
 .byte   W24
 .byte   PEND 
@  #07 @080   ----------------------------------------
 .byte   N32 ,Cn3 ,v060
 .byte   N32 ,Cn4 ,v080
 .byte   W36
 .byte   Cs3 ,v060
 .byte   N32 ,Cs4 ,v080
 .byte   W36
 .byte   TIE ,As2 ,v060
 .byte   TIE ,As3 ,v080
 .byte   W24
@  #07 @081   ----------------------------------------
 .byte   W96
@  #07 @082   ----------------------------------------
 .byte   W92
 .byte   W03
 .byte   EOT
 .byte   As2 ,v070
 .byte   W01
@  #07 @083   ----------------------------------------
 .byte   N23 ,Cn2 ,v060
 .byte   N23 ,Cn3 ,v080
 .byte   W24
 .byte   Cs2 ,v060
 .byte   N23 ,Cs3 ,v080
 .byte   W24
 .byte   Fn2 ,v060
 .byte   N23 ,Fn3 ,v080
 .byte   W24
 .byte   Gs2 ,v060
 .byte   N23 ,Gs3 ,v080
 .byte   W24
@  #07 @084   ----------------------------------------
 .byte   PATT
  .word Label_01BCBFEE
@  #07 @085   ----------------------------------------
 .byte   PATT
  .word Label_01BCBFFD
@  #07 @086   ----------------------------------------
 .byte   W44
 .byte   W03
 .byte   EOT
 .byte   As2 ,v070
 .byte   W01
 .byte   N23 ,Fn2 ,v060
 .byte   N23 ,Fn3 ,v080
 .byte   W24
 .byte   Fn3 ,v060
 .byte   N23 ,Fn4 ,v080
 .byte   W24
@  #07 @087   ----------------------------------------
 .byte   PATT
  .word Label_01BCC018
@  #07 @088   ----------------------------------------
 .byte   N32 ,Cn3 ,v060
 .byte   N32 ,Cn4 ,v080
 .byte   W36
 .byte   Cs3 ,v060
 .byte   N32 ,Cs4 ,v080
 .byte   W36
 .byte   N23 ,Gs3 ,v060
 .byte   TIE ,Gs4 ,v080
 .byte   W24
@  #07 @089   ----------------------------------------
Label_01BCC09E:
 .byte   N07 ,Gs3 ,v060
 .byte   W24
 .byte   N07
 .byte   W24
 .byte   N07
 .byte   W24
 .byte   N07
 .byte   W24
 .byte   PEND 
@  #07 @090   ----------------------------------------
 .byte   PATT
  .word Label_01BCC09E
@  #07 @091   ----------------------------------------
 .byte   N07 ,Gs3 ,v060
 .byte   W24
 .byte   N07
 .byte   W24
 .byte   N07
 .byte   W24
 .byte   N07
 .byte   W23
 .byte   EOT
 .byte   Gs4
 .byte   W01
@  #07 @092   ----------------------------------------
 .byte   GOTO
  .word Label_01BCBD96
 .byte   FINE

@**************** Track 8 (Midi-Chn.7) ****************@

song1E_008:
@  #08 @000   ----------------------------------------
 .byte   KEYSH , song1E_key+0
Label_01BCCBF6:
 .byte   VOICE , 34
 .byte   MODT 0
 .byte   LFOS 44
 .byte   VOL , 59*song1E_mvl/mxv
 .byte   PAN , c_v+0
 .byte   N32 ,As2 ,v080
 .byte   W96
@  #08 @001   ----------------------------------------
 .byte   W72
 .byte   N32
 .byte   W24
@  #08 @002   ----------------------------------------
 .byte   W24
 .byte   N32
 .byte   W72
@  #08 @003   ----------------------------------------
 .byte   W72
 .byte   N32
 .byte   W24
@  #08 @004   ----------------------------------------
 .byte   Fs2
 .byte   W96
@  #08 @005   ----------------------------------------
 .byte   W72
 .byte   Ds2
 .byte   W24
@  #08 @006   ----------------------------------------
 .byte   W24
 .byte   N32
 .byte   W72
@  #08 @007   ----------------------------------------
Label_01BCCC15:
 .byte   N32 ,Fn2 ,v080
 .byte   W48
 .byte   An2
 .byte   W48
 .byte   PEND 
@  #08 @008   ----------------------------------------
 .byte   As2
 .byte   W96
@  #08 @009   ----------------------------------------
 .byte   W72
 .byte   N32
 .byte   W24
@  #08 @010   ----------------------------------------
 .byte   W24
 .byte   N32
 .byte   W72
@  #08 @011   ----------------------------------------
 .byte   W72
 .byte   N32
 .byte   W24
@  #08 @012   ----------------------------------------
 .byte   Fs2
 .byte   W96
@  #08 @013   ----------------------------------------
 .byte   W72
 .byte   Ds2
 .byte   W24
@  #08 @014   ----------------------------------------
 .byte   W24
 .byte   N32
 .byte   W72
@  #08 @015   ----------------------------------------
 .byte   PATT
  .word Label_01BCCC15
@  #08 @016   ----------------------------------------
 .byte   W96
@  #08 @017   ----------------------------------------
 .byte   W96
@  #08 @018   ----------------------------------------
 .byte   W96
@  #08 @019   ----------------------------------------
 .byte   W96
@  #08 @020   ----------------------------------------
Label_01BCCC38:
 .byte   W48
 .byte   N16 ,Fs2 ,v056
 .byte   W24
 .byte   N16
 .byte   W24
 .byte   PEND 
@  #08 @021   ----------------------------------------
Label_01BCCC40:
 .byte   N16 ,Fs2 ,v056
 .byte   W24
 .byte   N16
 .byte   W24
 .byte   N16
 .byte   W24
 .byte   An2
 .byte   W24
 .byte   PEND 
@  #08 @022   ----------------------------------------
Label_01BCCC4B:
 .byte   N16 ,An2 ,v056
 .byte   W24
 .byte   N16
 .byte   W24
 .byte   N16
 .byte   W24
 .byte   N16
 .byte   W24
 .byte   PEND 
@  #08 @023   ----------------------------------------
 .byte   PATT
  .word Label_01BCCC4B
@  #08 @024   ----------------------------------------
Label_01BCCC5B:
 .byte   W48
 .byte   N16 ,As2 ,v056
 .byte   W24
 .byte   N16
 .byte   W24
 .byte   PEND 
@  #08 @025   ----------------------------------------
Label_01BCCC63:
 .byte   N16 ,As2 ,v056
 .byte   W24
 .byte   N16
 .byte   W24
 .byte   N16
 .byte   W24
 .byte   Gn2
 .byte   W24
 .byte   PEND 
@  #08 @026   ----------------------------------------
Label_01BCCC6E:
 .byte   N16 ,Gn2 ,v056
 .byte   W24
 .byte   N16
 .byte   W24
 .byte   N16
 .byte   W24
 .byte   N16
 .byte   W24
 .byte   PEND 
@  #08 @027   ----------------------------------------
 .byte   PATT
  .word Label_01BCCC6E
@  #08 @028   ----------------------------------------
 .byte   PATT
  .word Label_01BCCC38
@  #08 @029   ----------------------------------------
 .byte   PATT
  .word Label_01BCCC40
@  #08 @030   ----------------------------------------
 .byte   PATT
  .word Label_01BCCC4B
@  #08 @031   ----------------------------------------
 .byte   PATT
  .word Label_01BCCC4B
@  #08 @032   ----------------------------------------
Label_01BCCC92:
 .byte   N16 ,As2 ,v056
 .byte   W24
 .byte   N16
 .byte   W24
 .byte   N16
 .byte   W24
 .byte   N16
 .byte   W24
 .byte   PEND 
@  #08 @033   ----------------------------------------
 .byte   PATT
  .word Label_01BCCC92
@  #08 @034   ----------------------------------------
 .byte   PATT
  .word Label_01BCCC92
@  #08 @035   ----------------------------------------
 .byte   PATT
  .word Label_01BCCC92
@  #08 @036   ----------------------------------------
 .byte   PATT
  .word Label_01BCCC38
@  #08 @037   ----------------------------------------
 .byte   PATT
  .word Label_01BCCC40
@  #08 @038   ----------------------------------------
 .byte   PATT
  .word Label_01BCCC4B
@  #08 @039   ----------------------------------------
 .byte   PATT
  .word Label_01BCCC4B
@  #08 @040   ----------------------------------------
 .byte   PATT
  .word Label_01BCCC5B
@  #08 @041   ----------------------------------------
 .byte   PATT
  .word Label_01BCCC63
@  #08 @042   ----------------------------------------
 .byte   PATT
  .word Label_01BCCC6E
@  #08 @043   ----------------------------------------
 .byte   PATT
  .word Label_01BCCC6E
@  #08 @044   ----------------------------------------
Label_01BCCCD4:
 .byte   W48
 .byte   N16 ,Ds2 ,v056
 .byte   W24
 .byte   N16
 .byte   W24
 .byte   PEND 
@  #08 @045   ----------------------------------------
 .byte   N16
 .byte   W24
 .byte   N16
 .byte   W24
 .byte   N16
 .byte   W24
 .byte   Fn2
 .byte   W24
@  #08 @046   ----------------------------------------
Label_01BCCCE4:
 .byte   N16 ,Fn2 ,v056
 .byte   W24
 .byte   N16
 .byte   W24
 .byte   N16
 .byte   W24
 .byte   N16
 .byte   W24
 .byte   PEND 
@  #08 @047   ----------------------------------------
 .byte   PATT
  .word Label_01BCCC4B
@  #08 @048   ----------------------------------------
 .byte   PATT
  .word Label_01BCCC92
@  #08 @049   ----------------------------------------
 .byte   PATT
  .word Label_01BCCC92
@  #08 @050   ----------------------------------------
 .byte   PATT
  .word Label_01BCCC92
@  #08 @051   ----------------------------------------
 .byte   PATT
  .word Label_01BCCC92
@  #08 @052   ----------------------------------------
Label_01BCCD08:
 .byte   N16 ,Fs2 ,v056
 .byte   W24
 .byte   N16
 .byte   W24
 .byte   N16
 .byte   W24
 .byte   N16
 .byte   W24
 .byte   PEND 
@  #08 @053   ----------------------------------------
 .byte   PATT
  .word Label_01BCCD08
@  #08 @054   ----------------------------------------
 .byte   PATT
  .word Label_01BCCD08
@  #08 @055   ----------------------------------------
 .byte   PATT
  .word Label_01BCCD08
@  #08 @056   ----------------------------------------
 .byte   PATT
  .word Label_01BCCC92
@  #08 @057   ----------------------------------------
 .byte   PATT
  .word Label_01BCCC92
@  #08 @058   ----------------------------------------
 .byte   PATT
  .word Label_01BCCC92
@  #08 @059   ----------------------------------------
 .byte   PATT
  .word Label_01BCCC92
@  #08 @060   ----------------------------------------
Label_01BCCD36:
 .byte   N16 ,Ds2 ,v056
 .byte   W24
 .byte   N16
 .byte   W24
 .byte   N16
 .byte   W24
 .byte   N16
 .byte   W24
 .byte   PEND 
@  #08 @061   ----------------------------------------
 .byte   PATT
  .word Label_01BCCD36
@  #08 @062   ----------------------------------------
 .byte   PATT
  .word Label_01BCCCE4
@  #08 @063   ----------------------------------------
 .byte   PATT
  .word Label_01BCCC4B
@  #08 @064   ----------------------------------------
 .byte   PATT
  .word Label_01BCCC92
@  #08 @065   ----------------------------------------
 .byte   PATT
  .word Label_01BCCC92
@  #08 @066   ----------------------------------------
 .byte   PATT
  .word Label_01BCCC92
@  #08 @067   ----------------------------------------
 .byte   PATT
  .word Label_01BCCC92
@  #08 @068   ----------------------------------------
Label_01BCCD64:
 .byte   N16 ,Bn2 ,v056
 .byte   W24
 .byte   N16
 .byte   W24
 .byte   N16
 .byte   W24
 .byte   N16
 .byte   W24
 .byte   PEND 
@  #08 @069   ----------------------------------------
 .byte   PATT
  .word Label_01BCCD64
@  #08 @070   ----------------------------------------
 .byte   PATT
  .word Label_01BCCD64
@  #08 @071   ----------------------------------------
 .byte   PATT
  .word Label_01BCCD64
@  #08 @072   ----------------------------------------
Label_01BCCD7E:
 .byte   N16 ,Cn3 ,v056
 .byte   W24
 .byte   N16
 .byte   W24
 .byte   N16
 .byte   W24
 .byte   N16
 .byte   W24
 .byte   PEND 
@  #08 @073   ----------------------------------------
 .byte   PATT
  .word Label_01BCCD7E
@  #08 @074   ----------------------------------------
 .byte   PATT
  .word Label_01BCCCE4
@  #08 @075   ----------------------------------------
 .byte   PATT
  .word Label_01BCCCE4
@  #08 @076   ----------------------------------------
 .byte   PATT
  .word Label_01BCCC38
@  #08 @077   ----------------------------------------
Label_01BCCD9D:
 .byte   N16 ,Gs2 ,v056
 .byte   W24
 .byte   N16
 .byte   W24
 .byte   N16
 .byte   W24
 .byte   As2
 .byte   W24
 .byte   PEND 
@  #08 @078   ----------------------------------------
 .byte   PATT
  .word Label_01BCCC92
@  #08 @079   ----------------------------------------
 .byte   PATT
  .word Label_01BCCC92
@  #08 @080   ----------------------------------------
 .byte   PATT
  .word Label_01BCCCD4
@  #08 @081   ----------------------------------------
Label_01BCCDB7:
 .byte   N16 ,Fn2 ,v056
 .byte   W24
 .byte   N16
 .byte   W24
 .byte   N16
 .byte   W24
 .byte   As2
 .byte   W24
 .byte   PEND 
@  #08 @082   ----------------------------------------
 .byte   PATT
  .word Label_01BCCC92
@  #08 @083   ----------------------------------------
 .byte   PATT
  .word Label_01BCCC92
@  #08 @084   ----------------------------------------
 .byte   PATT
  .word Label_01BCCC38
@  #08 @085   ----------------------------------------
 .byte   PATT
  .word Label_01BCCD9D
@  #08 @086   ----------------------------------------
 .byte   PATT
  .word Label_01BCCC92
@  #08 @087   ----------------------------------------
 .byte   PATT
  .word Label_01BCCC92
@  #08 @088   ----------------------------------------
 .byte   PATT
  .word Label_01BCCCD4
@  #08 @089   ----------------------------------------
 .byte   PATT
  .word Label_01BCCDB7
@  #08 @090   ----------------------------------------
 .byte   PATT
  .word Label_01BCCC92
@  #08 @091   ----------------------------------------
 .byte   PATT
  .word Label_01BCCC92
@  #08 @092   ----------------------------------------
 .byte   GOTO
  .word Label_01BCCBF6
@  #08 @093   ----------------------------------------
 .byte   VOICE , 34
 .byte   PAN , c_v+0
 .byte   FINE

@**************** Track 9 (Midi-Chn.8) ****************@

song1E_009:
@  #09 @000   ----------------------------------------
 .byte   KEYSH , song1E_key+0
Label_01BCC9EA:
 .byte   VOICE , 47
 .byte   MODT 0
 .byte   LFOS 44
 .byte   VOL , 80*song1E_mvl/mxv
 .byte   PAN , c_v+0
 .byte   N32 ,As2 ,v080
 .byte   W96
@  #09 @001   ----------------------------------------
 .byte   W72
 .byte   N32
 .byte   W24
@  #09 @002   ----------------------------------------
 .byte   W24
 .byte   N32
 .byte   W72
@  #09 @003   ----------------------------------------
 .byte   W72
 .byte   N32
 .byte   W24
@  #09 @004   ----------------------------------------
 .byte   Fs2
 .byte   W96
@  #09 @005   ----------------------------------------
 .byte   W72
 .byte   Ds2
 .byte   W24
@  #09 @006   ----------------------------------------
 .byte   W24
 .byte   N32
 .byte   W72
@  #09 @007   ----------------------------------------
Label_01BCCA09:
 .byte   N32 ,Fn2 ,v080
 .byte   W48
 .byte   An2
 .byte   W48
 .byte   PEND 
@  #09 @008   ----------------------------------------
 .byte   PAN , c_v+0
 .byte   N32 ,As2
 .byte   W96
@  #09 @009   ----------------------------------------
 .byte   W72
 .byte   N32
 .byte   W24
@  #09 @010   ----------------------------------------
 .byte   W24
 .byte   N32
 .byte   W72
@  #09 @011   ----------------------------------------
 .byte   W72
 .byte   N32
 .byte   W24
@  #09 @012   ----------------------------------------
 .byte   Fs2
 .byte   W96
@  #09 @013   ----------------------------------------
 .byte   W72
 .byte   Ds2
 .byte   W24
@  #09 @014   ----------------------------------------
 .byte   W24
 .byte   N32
 .byte   W72
@  #09 @015   ----------------------------------------
 .byte   PATT
  .word Label_01BCCA09
@  #09 @016   ----------------------------------------
 .byte   W96
@  #09 @017   ----------------------------------------
 .byte   W96
@  #09 @018   ----------------------------------------
 .byte   W96
@  #09 @019   ----------------------------------------
 .byte   W96
@  #09 @020   ----------------------------------------
Label_01BCCA2F:
 .byte   W48
 .byte   N16 ,Fs2 ,v056
 .byte   W24
 .byte   N16
 .byte   W24
 .byte   PEND 
@  #09 @021   ----------------------------------------
Label_01BCCA37:
 .byte   N16 ,Fs2 ,v056
 .byte   W24
 .byte   N16
 .byte   W24
 .byte   N16
 .byte   W24
 .byte   An2
 .byte   W24
 .byte   PEND 
@  #09 @022   ----------------------------------------
Label_01BCCA42:
 .byte   N16 ,An2 ,v056
 .byte   W24
 .byte   N16
 .byte   W24
 .byte   N16
 .byte   W24
 .byte   N16
 .byte   W24
 .byte   PEND 
@  #09 @023   ----------------------------------------
 .byte   PATT
  .word Label_01BCCA42
@  #09 @024   ----------------------------------------
Label_01BCCA52:
 .byte   W48
 .byte   N16 ,As2 ,v056
 .byte   W24
 .byte   N16
 .byte   W24
 .byte   PEND 
@  #09 @025   ----------------------------------------
Label_01BCCA5A:
 .byte   N16 ,As2 ,v056
 .byte   W24
 .byte   N16
 .byte   W24
 .byte   N16
 .byte   W24
 .byte   Gn2
 .byte   W24
 .byte   PEND 
@  #09 @026   ----------------------------------------
Label_01BCCA65:
 .byte   N16 ,Gn2 ,v056
 .byte   W24
 .byte   N16
 .byte   W24
 .byte   N16
 .byte   W24
 .byte   N16
 .byte   W24
 .byte   PEND 
@  #09 @027   ----------------------------------------
 .byte   PATT
  .word Label_01BCCA65
@  #09 @028   ----------------------------------------
 .byte   PATT
  .word Label_01BCCA2F
@  #09 @029   ----------------------------------------
 .byte   PATT
  .word Label_01BCCA37
@  #09 @030   ----------------------------------------
 .byte   PATT
  .word Label_01BCCA42
@  #09 @031   ----------------------------------------
 .byte   PATT
  .word Label_01BCCA42
@  #09 @032   ----------------------------------------
Label_01BCCA89:
 .byte   N16 ,As2 ,v056
 .byte   W24
 .byte   N16
 .byte   W24
 .byte   N16
 .byte   W24
 .byte   N16
 .byte   W24
 .byte   PEND 
@  #09 @033   ----------------------------------------
 .byte   PATT
  .word Label_01BCCA89
@  #09 @034   ----------------------------------------
 .byte   PATT
  .word Label_01BCCA89
@  #09 @035   ----------------------------------------
 .byte   PATT
  .word Label_01BCCA89
@  #09 @036   ----------------------------------------
 .byte   PATT
  .word Label_01BCCA2F
@  #09 @037   ----------------------------------------
 .byte   PATT
  .word Label_01BCCA37
@  #09 @038   ----------------------------------------
 .byte   PATT
  .word Label_01BCCA42
@  #09 @039   ----------------------------------------
 .byte   PATT
  .word Label_01BCCA42
@  #09 @040   ----------------------------------------
 .byte   PATT
  .word Label_01BCCA52
@  #09 @041   ----------------------------------------
 .byte   PATT
  .word Label_01BCCA5A
@  #09 @042   ----------------------------------------
 .byte   PATT
  .word Label_01BCCA65
@  #09 @043   ----------------------------------------
 .byte   PATT
  .word Label_01BCCA65
@  #09 @044   ----------------------------------------
 .byte   W48
 .byte   N16 ,Ds2 ,v056
 .byte   W24
 .byte   N16
 .byte   W24
@  #09 @045   ----------------------------------------
 .byte   N16
 .byte   W24
 .byte   N16
 .byte   W24
 .byte   N16
 .byte   W24
 .byte   Fn2
 .byte   W24
@  #09 @046   ----------------------------------------
Label_01BCCADA:
 .byte   N16 ,Fn2 ,v056
 .byte   W24
 .byte   N16
 .byte   W24
 .byte   N16
 .byte   W24
 .byte   N16
 .byte   W24
 .byte   PEND 
@  #09 @047   ----------------------------------------
 .byte   PATT
  .word Label_01BCCA42
@  #09 @048   ----------------------------------------
 .byte   PATT
  .word Label_01BCCA89
@  #09 @049   ----------------------------------------
 .byte   PATT
  .word Label_01BCCA89
@  #09 @050   ----------------------------------------
 .byte   PATT
  .word Label_01BCCA89
@  #09 @051   ----------------------------------------
 .byte   PATT
  .word Label_01BCCA89
@  #09 @052   ----------------------------------------
Label_01BCCAFE:
 .byte   N16 ,Fs2 ,v056
 .byte   W24
 .byte   N16
 .byte   W24
 .byte   N16
 .byte   W24
 .byte   N16
 .byte   W24
 .byte   PEND 
@  #09 @053   ----------------------------------------
 .byte   PATT
  .word Label_01BCCAFE
@  #09 @054   ----------------------------------------
 .byte   PATT
  .word Label_01BCCAFE
@  #09 @055   ----------------------------------------
 .byte   PATT
  .word Label_01BCCAFE
@  #09 @056   ----------------------------------------
 .byte   PATT
  .word Label_01BCCA89
@  #09 @057   ----------------------------------------
 .byte   PATT
  .word Label_01BCCA89
@  #09 @058   ----------------------------------------
 .byte   PATT
  .word Label_01BCCA89
@  #09 @059   ----------------------------------------
 .byte   PATT
  .word Label_01BCCA89
@  #09 @060   ----------------------------------------
Label_01BCCB2C:
 .byte   N16 ,Ds2 ,v056
 .byte   W24
 .byte   N16
 .byte   W24
 .byte   N16
 .byte   W24
 .byte   N16
 .byte   W24
 .byte   PEND 
@  #09 @061   ----------------------------------------
 .byte   PATT
  .word Label_01BCCB2C
@  #09 @062   ----------------------------------------
 .byte   PATT
  .word Label_01BCCADA
@  #09 @063   ----------------------------------------
 .byte   PATT
  .word Label_01BCCA42
@  #09 @064   ----------------------------------------
 .byte   PATT
  .word Label_01BCCA89
@  #09 @065   ----------------------------------------
 .byte   PATT
  .word Label_01BCCA89
@  #09 @066   ----------------------------------------
 .byte   PATT
  .word Label_01BCCA89
@  #09 @067   ----------------------------------------
 .byte   PATT
  .word Label_01BCCA89
@  #09 @068   ----------------------------------------
Label_01BCCB5A:
 .byte   N16 ,Bn2 ,v056
 .byte   W24
 .byte   N16
 .byte   W24
 .byte   N16
 .byte   W24
 .byte   N16
 .byte   W24
 .byte   PEND 
@  #09 @069   ----------------------------------------
 .byte   PATT
  .word Label_01BCCB5A
@  #09 @070   ----------------------------------------
 .byte   PATT
  .word Label_01BCCB5A
@  #09 @071   ----------------------------------------
 .byte   PATT
  .word Label_01BCCB5A
@  #09 @072   ----------------------------------------
Label_01BCCB74:
 .byte   N16 ,Cn3 ,v056
 .byte   W24
 .byte   N16
 .byte   W24
 .byte   N16
 .byte   W24
 .byte   N16
 .byte   W24
 .byte   PEND 
@  #09 @073   ----------------------------------------
 .byte   PATT
  .word Label_01BCCB74
@  #09 @074   ----------------------------------------
 .byte   PATT
  .word Label_01BCCADA
@  #09 @075   ----------------------------------------
 .byte   PATT
  .word Label_01BCCADA
@  #09 @076   ----------------------------------------
 .byte   W48
 .byte   N32 ,Fs2 ,v056
 .byte   W48
@  #09 @077   ----------------------------------------
Label_01BCCB93:
 .byte   N72 ,Gs2 ,v056
 .byte   W72
 .byte   As2
 .byte   W24
 .byte   PEND 
@  #09 @078   ----------------------------------------
 .byte   W96
@  #09 @079   ----------------------------------------
 .byte   W96
@  #09 @080   ----------------------------------------
 .byte   W48
 .byte   N32 ,Ds2
 .byte   W48
@  #09 @081   ----------------------------------------
 .byte   N72 ,Fn2
 .byte   W72
 .byte   As2
 .byte   W24
@  #09 @082   ----------------------------------------
 .byte   W96
@  #09 @083   ----------------------------------------
 .byte   W96
@  #09 @084   ----------------------------------------
 .byte   W48
 .byte   N32 ,Fs2
 .byte   W48
@  #09 @085   ----------------------------------------
 .byte   PATT
  .word Label_01BCCB93
@  #09 @086   ----------------------------------------
 .byte   W96
@  #09 @087   ----------------------------------------
 .byte   W96
@  #09 @088   ----------------------------------------
 .byte   W48
 .byte   N32 ,Ds2 ,v056
 .byte   W48
@  #09 @089   ----------------------------------------
 .byte   N72 ,Fn2
 .byte   W72
 .byte   N16 ,As2
 .byte   W24
@  #09 @090   ----------------------------------------
 .byte   PATT
  .word Label_01BCCA89
@  #09 @091   ----------------------------------------
 .byte   PATT
  .word Label_01BCCA89
@  #09 @092   ----------------------------------------
 .byte   GOTO
  .word Label_01BCC9EA
@  #09 @093   ----------------------------------------
 .byte   PAN , c_v+0
 .byte   FINE

@**************** Track 10 (Midi-Chn.9) ****************@

song1E_010:
@  #10 @000   ----------------------------------------
 .byte   KEYSH , song1E_key+0
Label_01BCCE02:
 .byte   VOICE , 127
 .byte   MODT 0
 .byte   LFOS 44
 .byte   VOL , 61*song1E_mvl/mxv
 .byte   N24 ,Dn1 ,v080
 .byte   N12 ,As1
 .byte   W72
 .byte   N08 ,Dn1
 .byte   N24 ,Fs1
 .byte   W08
 .byte   N08 ,Dn1
 .byte   W08
 .byte   N08
 .byte   W08
@  #10 @001   ----------------------------------------
Label_01BCCE1A:
 .byte   N24 ,Cn1 ,v080
 .byte   N24 ,Dn1
 .byte   W24
 .byte   N24
 .byte   N24 ,Fs1
 .byte   W24
 .byte   Dn1
 .byte   N24 ,Fs1
 .byte   W24
 .byte   Dn1
 .byte   W24
 .byte   PEND 
@  #10 @002   ----------------------------------------
Label_01BCCE2B:
 .byte   W72
 .byte   N08 ,Dn1 ,v080
 .byte   N24 ,Fs1
 .byte   W08
 .byte   N08 ,Dn1
 .byte   W08
 .byte   N08
 .byte   W08
 .byte   PEND 
@  #10 @003   ----------------------------------------
Label_01BCCE38:
 .byte   N24 ,Cn1 ,v080
 .byte   N24 ,Dn1
 .byte   W48
 .byte   N24
 .byte   N24 ,Fs1
 .byte   W24
 .byte   Dn1
 .byte   N24 ,Fs1
 .byte   W24
 .byte   PEND 
@  #10 @004   ----------------------------------------
Label_01BCCE47:
 .byte   N24 ,Dn1 ,v080
 .byte   W72
 .byte   N08
 .byte   N24 ,Fs1
 .byte   W08
 .byte   N08 ,Dn1
 .byte   W08
 .byte   N08
 .byte   W08
 .byte   PEND 
@  #10 @005   ----------------------------------------
 .byte   PATT
  .word Label_01BCCE1A
@  #10 @006   ----------------------------------------
Label_01BCCE5A:
 .byte   W72
 .byte   N08 ,Dn1 ,v080
 .byte   N12 ,Fs1
 .byte   W08
 .byte   N08 ,Dn1
 .byte   W04
 .byte   N12 ,Fs1
 .byte   W04
 .byte   N08 ,Dn1
 .byte   W08
 .byte   PEND 
@  #10 @007   ----------------------------------------
Label_01BCCE6B:
 .byte   N24 ,Cn1 ,v080
 .byte   N24 ,Dn1
 .byte   W48
 .byte   Cn1
 .byte   N24 ,Dn1
 .byte   W48
 .byte   PEND 
@  #10 @008   ----------------------------------------
 .byte   N12 ,As1
 .byte   W72
 .byte   N08 ,Dn1
 .byte   N24 ,Fs1
 .byte   W08
 .byte   N08 ,Dn1
 .byte   W08
 .byte   N08
 .byte   W08
@  #10 @009   ----------------------------------------
 .byte   PATT
  .word Label_01BCCE1A
@  #10 @010   ----------------------------------------
 .byte   PATT
  .word Label_01BCCE2B
@  #10 @011   ----------------------------------------
 .byte   PATT
  .word Label_01BCCE38
@  #10 @012   ----------------------------------------
 .byte   PATT
  .word Label_01BCCE47
@  #10 @013   ----------------------------------------
 .byte   PATT
  .word Label_01BCCE1A
@  #10 @014   ----------------------------------------
 .byte   PATT
  .word Label_01BCCE5A
@  #10 @015   ----------------------------------------
 .byte   PATT
  .word Label_01BCCE6B
@  #10 @016   ----------------------------------------
 .byte   W96
@  #10 @017   ----------------------------------------
 .byte   W96
@  #10 @018   ----------------------------------------
 .byte   W96
@  #10 @019   ----------------------------------------
 .byte   W96
@  #10 @020   ----------------------------------------
Label_01BCCEAA:
 .byte   W44
 .byte   W03
 .byte   N36 ,Cn1 ,v080
 .byte   N36 ,Cs2
 .byte   W48
 .byte   W01
 .byte   PEND 
@  #10 @021   ----------------------------------------
Label_01BCCEB4:
 .byte   N08 ,Dn1 ,v080
 .byte   W08
 .byte   N08
 .byte   W08
 .byte   N08
 .byte   W08
 .byte   N24
 .byte   W24
 .byte   N24
 .byte   W24
 .byte   N24
 .byte   W24
 .byte   PEND 
@  #10 @022   ----------------------------------------
Label_01BCCEC3:
 .byte   N24 ,Dn1 ,v080
 .byte   W48
 .byte   N24
 .byte   W24
 .byte   N12
 .byte   W12
 .byte   N12
 .byte   W12
 .byte   PEND 
@  #10 @023   ----------------------------------------
 .byte   N24
 .byte   W44
 .byte   W03
 .byte   N23
 .byte   W24
 .byte   Cn1
 .byte   N23 ,Dn1
 .byte   W24
 .byte   W01
@  #10 @024   ----------------------------------------
 .byte   PATT
  .word Label_01BCCEAA
@  #10 @025   ----------------------------------------
 .byte   PATT
  .word Label_01BCCEB4
@  #10 @026   ----------------------------------------
Label_01BCCEE2:
 .byte   N24 ,Cn1 ,v080
 .byte   N24 ,Dn1
 .byte   W24
 .byte   Cn1
 .byte   N24 ,Dn1
 .byte   W24
 .byte   Cn1
 .byte   N24 ,Dn1
 .byte   W24
 .byte   N08
 .byte   W08
 .byte   N08
 .byte   W08
 .byte   N08
 .byte   W08
 .byte   PEND 
@  #10 @027   ----------------------------------------
Label_01BCCEF7:
 .byte   N24 ,Cn1 ,v080
 .byte   N24 ,Dn1
 .byte   W24
 .byte   Cn1
 .byte   N24 ,Dn1
 .byte   W24
 .byte   Cn1
 .byte   N24 ,Dn1
 .byte   W24
 .byte   Cn1
 .byte   N12 ,Dn1
 .byte   W12
 .byte   N12
 .byte   W12
 .byte   PEND 
@  #10 @028   ----------------------------------------
 .byte   PATT
  .word Label_01BCCEAA
@  #10 @029   ----------------------------------------
 .byte   PATT
  .word Label_01BCCEB4
@  #10 @030   ----------------------------------------
 .byte   PATT
  .word Label_01BCCEC3
@  #10 @031   ----------------------------------------
Label_01BCCF1B:
 .byte   N24 ,Dn1 ,v080
 .byte   W24
 .byte   N24
 .byte   W24
 .byte   N24
 .byte   W24
 .byte   N08
 .byte   W08
 .byte   N08
 .byte   W08
 .byte   N08
 .byte   W08
 .byte   PEND 
@  #10 @032   ----------------------------------------
Label_01BCCF2A:
 .byte   W01
 .byte   N12 ,Dn1 ,v080
 .byte   W12
 .byte   N24
 .byte   W32
 .byte   W03
 .byte   N24
 .byte   W24
 .byte   N12
 .byte   W12
 .byte   N12
 .byte   W12
 .byte   PEND 
@  #10 @033   ----------------------------------------
Label_01BCCF39:
 .byte   N12 ,Dn1 ,v080
 .byte   W12
 .byte   N24
 .byte   W36
 .byte   N24
 .byte   W24
 .byte   N12
 .byte   W12
 .byte   N12
 .byte   W12
 .byte   PEND 
@  #10 @034   ----------------------------------------
 .byte   PATT
  .word Label_01BCCF39
@  #10 @035   ----------------------------------------
 .byte   PATT
  .word Label_01BCCF39
@  #10 @036   ----------------------------------------
 .byte   PATT
  .word Label_01BCCEAA
@  #10 @037   ----------------------------------------
 .byte   PATT
  .word Label_01BCCEB4
@  #10 @038   ----------------------------------------
 .byte   PATT
  .word Label_01BCCEC3
@  #10 @039   ----------------------------------------
 .byte   N24 ,Dn1 ,v080
 .byte   W44
 .byte   W03
 .byte   N24
 .byte   W24
 .byte   Cn1
 .byte   N24 ,Dn1
 .byte   W24
 .byte   W01
@  #10 @040   ----------------------------------------
 .byte   PATT
  .word Label_01BCCEAA
@  #10 @041   ----------------------------------------
 .byte   PATT
  .word Label_01BCCEB4
@  #10 @042   ----------------------------------------
 .byte   PATT
  .word Label_01BCCEE2
@  #10 @043   ----------------------------------------
 .byte   PATT
  .word Label_01BCCEF7
@  #10 @044   ----------------------------------------
 .byte   PATT
  .word Label_01BCCEAA
@  #10 @045   ----------------------------------------
 .byte   PATT
  .word Label_01BCCEB4
@  #10 @046   ----------------------------------------
 .byte   PATT
  .word Label_01BCCEC3
@  #10 @047   ----------------------------------------
 .byte   PATT
  .word Label_01BCCF1B
@  #10 @048   ----------------------------------------
 .byte   PATT
  .word Label_01BCCF2A
@  #10 @049   ----------------------------------------
 .byte   PATT
  .word Label_01BCCF39
@  #10 @050   ----------------------------------------
 .byte   PATT
  .word Label_01BCCF39
@  #10 @051   ----------------------------------------
 .byte   PATT
  .word Label_01BCCF39
@  #10 @052   ----------------------------------------
 .byte   PATT
  .word Label_01BCCF1B
@  #10 @053   ----------------------------------------
 .byte   PATT
  .word Label_01BCCF1B
@  #10 @054   ----------------------------------------
 .byte   PATT
  .word Label_01BCCF1B
@  #10 @055   ----------------------------------------
 .byte   PATT
  .word Label_01BCCF1B
@  #10 @056   ----------------------------------------
 .byte   PATT
  .word Label_01BCCF1B
@  #10 @057   ----------------------------------------
 .byte   PATT
  .word Label_01BCCF1B
@  #10 @058   ----------------------------------------
 .byte   PATT
  .word Label_01BCCF1B
@  #10 @059   ----------------------------------------
 .byte   PATT
  .word Label_01BCCF1B
@  #10 @060   ----------------------------------------
 .byte   PATT
  .word Label_01BCCF1B
@  #10 @061   ----------------------------------------
 .byte   PATT
  .word Label_01BCCF1B
@  #10 @062   ----------------------------------------
 .byte   PATT
  .word Label_01BCCF1B
@  #10 @063   ----------------------------------------
 .byte   PATT
  .word Label_01BCCF1B
@  #10 @064   ----------------------------------------
 .byte   PATT
  .word Label_01BCCF1B
@  #10 @065   ----------------------------------------
 .byte   PATT
  .word Label_01BCCF1B
@  #10 @066   ----------------------------------------
 .byte   PATT
  .word Label_01BCCF1B
@  #10 @067   ----------------------------------------
 .byte   PATT
  .word Label_01BCCF1B
@  #10 @068   ----------------------------------------
 .byte   PATT
  .word Label_01BCCF1B
@  #10 @069   ----------------------------------------
 .byte   PATT
  .word Label_01BCCF1B
@  #10 @070   ----------------------------------------
 .byte   PATT
  .word Label_01BCCF1B
@  #10 @071   ----------------------------------------
 .byte   PATT
  .word Label_01BCCF1B
@  #10 @072   ----------------------------------------
 .byte   PATT
  .word Label_01BCCF1B
@  #10 @073   ----------------------------------------
 .byte   PATT
  .word Label_01BCCF1B
@  #10 @074   ----------------------------------------
 .byte   PATT
  .word Label_01BCCF1B
@  #10 @075   ----------------------------------------
 .byte   PATT
  .word Label_01BCCF1B
@  #10 @076   ----------------------------------------
 .byte   W48
 .byte   N48 ,Cs2 ,v080
 .byte   W48
@  #10 @077   ----------------------------------------
Label_01BCD024:
 .byte   N72 ,An2 ,v080
 .byte   W72
 .byte   N48 ,Cs2
 .byte   W24
 .byte   PEND 
@  #10 @078   ----------------------------------------
Label_01BCD02C:
 .byte   W48
 .byte   N08 ,Dn1 ,v080
 .byte   W08
 .byte   N08
 .byte   W08
 .byte   N08
 .byte   W08
 .byte   N24
 .byte   W24
 .byte   PEND 
@  #10 @079   ----------------------------------------
Label_01BCD038:
 .byte   N24 ,Dn1 ,v080
 .byte   W24
 .byte   N24
 .byte   W24
 .byte   N24
 .byte   W24
 .byte   N24
 .byte   W24
 .byte   PEND 
@  #10 @080   ----------------------------------------
 .byte   W48
 .byte   N48 ,An2
 .byte   W48
@  #10 @081   ----------------------------------------
 .byte   N72 ,Cs2
 .byte   W72
 .byte   N48 ,An2
 .byte   W24
@  #10 @082   ----------------------------------------
 .byte   PAN , c_v+0
 .byte   W48
 .byte   N08 ,Dn1
 .byte   W08
 .byte   N08
 .byte   W08
 .byte   N08
 .byte   W08
 .byte   N24
 .byte   W24
@  #10 @083   ----------------------------------------
 .byte   PATT
  .word Label_01BCD038
@  #10 @084   ----------------------------------------
 .byte   W48
 .byte   N48 ,Cs2 ,v080
 .byte   W48
@  #10 @085   ----------------------------------------
 .byte   PATT
  .word Label_01BCD024
@  #10 @086   ----------------------------------------
 .byte   PATT
  .word Label_01BCD02C
@  #10 @087   ----------------------------------------
 .byte   PATT
  .word Label_01BCD038
@  #10 @088   ----------------------------------------
 .byte   W48
 .byte   N48 ,An2 ,v080
 .byte   W48
@  #10 @089   ----------------------------------------
 .byte   N72 ,Cs2
 .byte   W72
 .byte   N08 ,Dn1
 .byte   N48 ,An2
 .byte   W08
 .byte   N08 ,Dn1
 .byte   W08
 .byte   N08
 .byte   W08
@  #10 @090   ----------------------------------------
Label_01BCD084:
 .byte   N24 ,Dn1 ,v080
 .byte   W24
 .byte   N08
 .byte   W08
 .byte   N08
 .byte   W08
 .byte   N08
 .byte   W08
 .byte   N24
 .byte   W24
 .byte   N08
 .byte   W08
 .byte   N08
 .byte   W08
 .byte   N08
 .byte   W08
 .byte   PEND 
@  #10 @091   ----------------------------------------
 .byte   PATT
  .word Label_01BCD084
@  #10 @092   ----------------------------------------
 .byte   GOTO
  .word Label_01BCCE02
 .byte   FINE

@******************************************************@
	.align	2

song1E:
	.byte	10	@ NumTrks
	.byte	0	@ NumBlks
	.byte	song1E_pri	@ Priority
	.byte	song1E_rev	@ Reverb.
    
	.word	song1E_grp
    
	.word	song1E_001
	.word	song1E_002
	.word	song1E_003
	.word	song1E_004
	.word	song1E_005
	.word	song1E_006
	.word	song1E_007
	.word	song1E_008
	.word	song1E_009
	.word	song1E_010

	.end
