	.include "MPlayDef.s"

	.equ	song06_grp, voicegroup000
	.equ	song06_pri, 0
	.equ	song06_rev, 0
	.equ	song06_mvl, 127
	.equ	song06_key, 0
	.equ	song06_tbs, 1
	.equ	song06_exg, 0
	.equ	song06_cmp, 1

	.section .rodata
	.global	song06
	.align	2


@**************** Track 1 (Midi-Chn.0) ****************@

song06_001:
@  #01 @000   ----------------------------------------
 .byte   KEYSH , song06_key+0
Label_0100B36E:
 .byte   TEMPO , 116*song06_tbs/2
 .byte   VOICE , 76
 .byte   VOL , 52*song06_mvl/mxv
 .byte   PAN , c_v+20
 .byte   LFOS 10
 .byte   W24
 .byte   N12 ,An3 ,v112
 .byte   W12
 .byte   Bn3
 .byte   W12
 .byte   N24 ,Cs4
 .byte   W24
 .byte   En4
 .byte   W24
@  #01 @001   ----------------------------------------
Label_0100B384:
 .byte   N24 ,Ds4 ,v112
 .byte   W24
 .byte   Bn3
 .byte   W24
 .byte   Cs4
 .byte   W24
 .byte   N12 ,An3
 .byte   W12
 .byte   Bn3
 .byte   W12
 .byte   PEND 
@  #01 @002   ----------------------------------------
Label_0100B392:
 .byte   N24 ,Cs4 ,v112
 .byte   W24
 .byte   N12 ,Bn3
 .byte   W12
 .byte   An3
 .byte   W12
 .byte   N24 ,Bn3
 .byte   W24
 .byte   Gs3
 .byte   W24
 .byte   PEND 
@  #01 @003   ----------------------------------------
Label_0100B3A1:
 .byte   N24 ,An3 ,v112
 .byte   W24
 .byte   N12 ,Fs3
 .byte   W12
 .byte   An3
 .byte   W12
 .byte   N24 ,Gs3
 .byte   W24
 .byte   N12 ,An3
 .byte   W12
 .byte   Bn3
 .byte   W12
 .byte   PEND 
@  #01 @004   ----------------------------------------
Label_0100B3B3:
 .byte   W24
 .byte   N24 ,Cs4 ,v112
 .byte   W24
 .byte   N12 ,En4
 .byte   W12
 .byte   Ds4
 .byte   W12
 .byte   Bn3
 .byte   W12
 .byte   Ds4
 .byte   W12
 .byte   PEND 
@  #01 @005   ----------------------------------------
Label_0100B3C2:
 .byte   N72 ,Cs4 ,v112
 .byte   W72
 .byte   N12 ,An3
 .byte   W12
 .byte   Bn3
 .byte   W12
 .byte   PEND 
@  #01 @006   ----------------------------------------
 .byte   PATT
  .word Label_0100B392
@  #01 @007   ----------------------------------------
Label_0100B3D1:
 .byte   N12 ,An3 ,v112
 .byte   W12
 .byte   Gs3
 .byte   W12
 .byte   Fs3
 .byte   W12
 .byte   An3
 .byte   W12
 .byte   N24 ,Gs3
 .byte   W24
 .byte   N12 ,Fs3
 .byte   W12
 .byte   En3
 .byte   W12
 .byte   PEND 
@  #01 @008   ----------------------------------------
Label_0100B3E4:
 .byte   N12 ,Dn3 ,v112
 .byte   W12
 .byte   En3
 .byte   W12
 .byte   N36 ,Fs3
 .byte   W36
 .byte   N12 ,Dn3
 .byte   W12
 .byte   En3
 .byte   W12
 .byte   Fs3
 .byte   W12
 .byte   PEND 
@  #01 @009   ----------------------------------------
Label_0100B3F5:
 .byte   N12 ,En3 ,v112
 .byte   W12
 .byte   Fs3
 .byte   W12
 .byte   N36 ,Gn3
 .byte   W36
 .byte   N12 ,En3
 .byte   W12
 .byte   Fs3
 .byte   W12
 .byte   Gn3
 .byte   W12
 .byte   PEND 
@  #01 @010   ----------------------------------------
 .byte   PATT
  .word Label_0100B3F5
@  #01 @011   ----------------------------------------
Label_0100B40B:
 .byte   N12 ,Fs3 ,v112
 .byte   W12
 .byte   Gn3
 .byte   W12
 .byte   N36 ,An3
 .byte   W36
 .byte   N12 ,Cn4
 .byte   W12
 .byte   Bn3
 .byte   W12
 .byte   An3
 .byte   W12
 .byte   PEND 
@  #01 @012   ----------------------------------------
Label_0100B41C:
 .byte   N24 ,Bn3 ,v112
 .byte   W24
 .byte   Gn4
 .byte   W24
 .byte   Fs4
 .byte   W24
 .byte   En4
 .byte   W24
 .byte   PEND 
@  #01 @013   ----------------------------------------
Label_0100B427:
 .byte   N24 ,Dn4 ,v112
 .byte   W24
 .byte   Cn4
 .byte   W24
 .byte   Gn3
 .byte   W24
 .byte   An3
 .byte   W24
 .byte   PEND 
@  #01 @014   ----------------------------------------
Label_0100B432:
 .byte   N24 ,Bn3 ,v112
 .byte   W24
 .byte   En4
 .byte   W24
 .byte   Fs4
 .byte   W24
 .byte   Gn4
 .byte   W24
 .byte   PEND 
@  #01 @015   ----------------------------------------
Label_0100B43D:
 .byte   N24 ,An4 ,v112
 .byte   W24
 .byte   Gn4
 .byte   W24
 .byte   Fs4
 .byte   W24
 .byte   N12 ,Gn4
 .byte   W12
 .byte   An4
 .byte   W12
 .byte   PEND 
@  #01 @016   ----------------------------------------
Label_0100B44B:
 .byte   LFOS 20
 .byte   N48 ,Bn4 ,v112
 .byte   W48
 .byte   LFOS 10
 .byte   N24 ,Cn5
 .byte   W24
 .byte   N12 ,Dn5
 .byte   W12
 .byte   En5
 .byte   W12
 .byte   PEND 
@  #01 @017   ----------------------------------------
Label_0100B45C:
 .byte   N24 ,Bn4 ,v112
 .byte   W24
 .byte   LFOS 20
 .byte   N48 ,An4
 .byte   W48
 .byte   LFOS 10
 .byte   N12 ,Fs4
 .byte   W12
 .byte   Gn4
 .byte   W12
 .byte   PEND 
@  #01 @018   ----------------------------------------
Label_0100B46D:
 .byte   LFOS 20
 .byte   N60 ,An4 ,v112
 .byte   W60
 .byte   LFOS 10
 .byte   N12 ,Cn5
 .byte   W12
 .byte   Bn4
 .byte   W12
 .byte   An4
 .byte   W12
 .byte   PEND 
@  #01 @019   ----------------------------------------
Label_0100B47D:
 .byte   N24 ,An4 ,v112
 .byte   W24
 .byte   Gn4
 .byte   W24
 .byte   Fs4
 .byte   W24
 .byte   Gn4
 .byte   W24
 .byte   PEND 
@  #01 @020   ----------------------------------------
Label_0100B488:
 .byte   LFOS 20
 .byte   N48 ,En4 ,v112
 .byte   W48
 .byte   N72 ,Bn4
 .byte   W48
 .byte   PEND 
@  #01 @021   ----------------------------------------
Label_0100B492:
 .byte   W24
 .byte   LFOS 10
 .byte   N24 ,An4 ,v112
 .byte   W24
 .byte   Bn4
 .byte   W24
 .byte   An4
 .byte   W24
 .byte   PEND 
@  #01 @022   ----------------------------------------
Label_0100B49E:
 .byte   LFOS 20
 .byte   N48 ,Dn5 ,v112
 .byte   W48
 .byte   Dn4
 .byte   W48
 .byte   PEND 
@  #01 @023   ----------------------------------------
Label_0100B4A7:
 .byte   N48 ,Gn4 ,v112
 .byte   W48
 .byte   LFOS 10
 .byte   N18 ,Gn3
 .byte   N18 ,Gn4
 .byte   W18
 .byte   An3
 .byte   N18 ,An4
 .byte   W18
 .byte   N12 ,Bn3
 .byte   N12 ,Bn4
 .byte   W12
 .byte   PEND 
@  #01 @024   ----------------------------------------
 .byte   N96 ,Bn3
 .byte   N96 ,Bn4
 .byte   W96
@  #01 @025   ----------------------------------------
Label_0100B4C1:
 .byte   N24 ,Bn3 ,v112
 .byte   N24 ,Bn4
 .byte   W24
 .byte   An3
 .byte   N24 ,An4
 .byte   W24
 .byte   En3
 .byte   N24 ,En4
 .byte   W24
 .byte   Fs3
 .byte   N24 ,Fs4
 .byte   W24
 .byte   PEND 
@  #01 @026   ----------------------------------------
 .byte   N96 ,Gn3
 .byte   N96 ,Gn4
 .byte   W96
@  #01 @027   ----------------------------------------
 .byte   PATT
  .word Label_0100B4C1
@  #01 @028   ----------------------------------------
 .byte   N96 ,Gn3 ,v112
 .byte   N96 ,Gn4
 .byte   W96
@  #01 @029   ----------------------------------------
Label_0100B4E4:
 .byte   N24 ,Gn3 ,v112
 .byte   N24 ,Gn4
 .byte   W24
 .byte   Fs3
 .byte   N24 ,Fs4
 .byte   W23
 .byte   TEMPO , 104*song06_tbs/2
 .byte   W01
 .byte   En3
 .byte   N24 ,En4
 .byte   W10
 .byte   TEMPO , 96*song06_tbs/2
 .byte   W14
 .byte   Dn3
 .byte   N24 ,Dn4
 .byte   W24
 .byte   PEND 
@  #01 @030   ----------------------------------------
 .byte   GOTO
  .word Label_0100B36E
@  #01 @031   ----------------------------------------
Label_0100B502:
 .byte   TEMPO , 116*song06_tbs/2
 .byte   VOICE , 76
 .byte   LFOS 10
 .byte   W24
 .byte   N12 ,An3 ,v112
 .byte   W12
 .byte   Bn3
 .byte   W12
 .byte   N24 ,Cs4
 .byte   W24
 .byte   En4
 .byte   W24
 .byte   PEND 
@  #01 @032   ----------------------------------------
 .byte   PATT
  .word Label_0100B384
@  #01 @033   ----------------------------------------
 .byte   PATT
  .word Label_0100B392
@  #01 @034   ----------------------------------------
 .byte   PATT
  .word Label_0100B3A1
@  #01 @035   ----------------------------------------
 .byte   PATT
  .word Label_0100B3B3
@  #01 @036   ----------------------------------------
 .byte   PATT
  .word Label_0100B3C2
@  #01 @037   ----------------------------------------
 .byte   PATT
  .word Label_0100B392
@  #01 @038   ----------------------------------------
 .byte   PATT
  .word Label_0100B3D1
@  #01 @039   ----------------------------------------
 .byte   PATT
  .word Label_0100B3E4
@  #01 @040   ----------------------------------------
 .byte   PATT
  .word Label_0100B3F5
@  #01 @041   ----------------------------------------
 .byte   PATT
  .word Label_0100B3F5
@  #01 @042   ----------------------------------------
 .byte   PATT
  .word Label_0100B40B
@  #01 @043   ----------------------------------------
 .byte   PATT
  .word Label_0100B41C
@  #01 @044   ----------------------------------------
 .byte   PATT
  .word Label_0100B427
@  #01 @045   ----------------------------------------
 .byte   PATT
  .word Label_0100B432
@  #01 @046   ----------------------------------------
 .byte   PATT
  .word Label_0100B43D
@  #01 @047   ----------------------------------------
 .byte   PATT
  .word Label_0100B44B
@  #01 @048   ----------------------------------------
 .byte   PATT
  .word Label_0100B45C
@  #01 @049   ----------------------------------------
 .byte   PATT
  .word Label_0100B46D
@  #01 @050   ----------------------------------------
 .byte   PATT
  .word Label_0100B47D
@  #01 @051   ----------------------------------------
 .byte   PATT
  .word Label_0100B488
@  #01 @052   ----------------------------------------
 .byte   PATT
  .word Label_0100B492
@  #01 @053   ----------------------------------------
 .byte   PATT
  .word Label_0100B49E
@  #01 @054   ----------------------------------------
 .byte   PATT
  .word Label_0100B4A7
@  #01 @055   ----------------------------------------
 .byte   N96 ,Bn3 ,v112
 .byte   N96 ,Bn4
 .byte   W96
@  #01 @056   ----------------------------------------
 .byte   PATT
  .word Label_0100B4C1
@  #01 @057   ----------------------------------------
 .byte   N96 ,Gn3 ,v112
 .byte   N96 ,Gn4
 .byte   W96
@  #01 @058   ----------------------------------------
 .byte   PATT
  .word Label_0100B4C1
@  #01 @059   ----------------------------------------
 .byte   N96 ,Gn3 ,v112
 .byte   N96 ,Gn4
 .byte   W96
@  #01 @060   ----------------------------------------
 .byte   PATT
  .word Label_0100B4E4
@  #01 @061   ----------------------------------------
 .byte   PATT
  .word Label_0100B502
@  #01 @062   ----------------------------------------
 .byte   PATT
  .word Label_0100B384
@  #01 @063   ----------------------------------------
 .byte   PATT
  .word Label_0100B392
@  #01 @064   ----------------------------------------
 .byte   PATT
  .word Label_0100B3A1
@  #01 @065   ----------------------------------------
 .byte   PATT
  .word Label_0100B3B3
@  #01 @066   ----------------------------------------
 .byte   PATT
  .word Label_0100B3C2
@  #01 @067   ----------------------------------------
 .byte   PATT
  .word Label_0100B392
@  #01 @068   ----------------------------------------
 .byte   PATT
  .word Label_0100B3D1
@  #01 @069   ----------------------------------------
 .byte   PATT
  .word Label_0100B3E4
@  #01 @070   ----------------------------------------
 .byte   PATT
  .word Label_0100B3F5
@  #01 @071   ----------------------------------------
 .byte   PATT
  .word Label_0100B3F5
@  #01 @072   ----------------------------------------
 .byte   PATT
  .word Label_0100B40B
@  #01 @073   ----------------------------------------
 .byte   PATT
  .word Label_0100B41C
@  #01 @074   ----------------------------------------
 .byte   PATT
  .word Label_0100B427
@  #01 @075   ----------------------------------------
 .byte   PATT
  .word Label_0100B432
@  #01 @076   ----------------------------------------
 .byte   PATT
  .word Label_0100B43D
@  #01 @077   ----------------------------------------
 .byte   PATT
  .word Label_0100B44B
@  #01 @078   ----------------------------------------
 .byte   PATT
  .word Label_0100B45C
@  #01 @079   ----------------------------------------
 .byte   PATT
  .word Label_0100B46D
@  #01 @080   ----------------------------------------
 .byte   PATT
  .word Label_0100B47D
@  #01 @081   ----------------------------------------
 .byte   PATT
  .word Label_0100B488
@  #01 @082   ----------------------------------------
 .byte   PATT
  .word Label_0100B492
@  #01 @083   ----------------------------------------
 .byte   PATT
  .word Label_0100B49E
@  #01 @084   ----------------------------------------
 .byte   PATT
  .word Label_0100B4A7
@  #01 @085   ----------------------------------------
 .byte   N96 ,Bn3 ,v112
 .byte   N96 ,Bn4
 .byte   W96
@  #01 @086   ----------------------------------------
 .byte   PATT
  .word Label_0100B4C1
@  #01 @087   ----------------------------------------
 .byte   N96 ,Gn3 ,v112
 .byte   N96 ,Gn4
 .byte   W96
@  #01 @088   ----------------------------------------
 .byte   PATT
  .word Label_0100B4C1
@  #01 @089   ----------------------------------------
 .byte   N96 ,Gn3 ,v112
 .byte   N96 ,Gn4
 .byte   W96
@  #01 @090   ----------------------------------------
 .byte   N24 ,Gn3
 .byte   N24 ,Gn4
 .byte   W24
 .byte   Fs3
 .byte   N24 ,Fs4
 .byte   W23
 .byte   TEMPO , 104*song06_tbs/2
 .byte   W01
 .byte   En3
 .byte   N24 ,En4
 .byte   W10
 .byte   TEMPO , 96*song06_tbs/2
 .byte   W14
 .byte   LFOS 0
 .byte   N24 ,Dn3
 .byte   N24 ,Dn4
 .byte   W24
 .byte   FINE

@**************** Track 2 (Midi-Chn.1) ****************@

song06_002:
@  #02 @000   ----------------------------------------
 .byte   KEYSH , song06_key+0
Label_0100E6DA:
 .byte   VOICE , 4
 .byte   VOL , 26*song06_mvl/mxv
 .byte   PAN , c_v+0
 .byte   N32 ,Fs3 ,v112
 .byte   W36
 .byte   N04
 .byte   W12
 .byte   N32
 .byte   W36
 .byte   N04
 .byte   W12
@  #02 @001   ----------------------------------------
Label_0100E6EA:
 .byte   N32 ,Fs3 ,v112
 .byte   W36
 .byte   N04
 .byte   W12
 .byte   N32
 .byte   W36
 .byte   N04
 .byte   W12
 .byte   PEND 
@  #02 @002   ----------------------------------------
Label_0100E6F5:
 .byte   PAN , c_v-54
 .byte   N32 ,Dn3 ,v120
 .byte   W36
 .byte   PAN , c_v-54
 .byte   N04 ,Dn3 ,v112
 .byte   W12
 .byte   PAN , c_v-54
 .byte   N32 ,Cs3 ,v120
 .byte   W36
 .byte   PAN , c_v-54
 .byte   N04 ,Cs3 ,v112
 .byte   W12
 .byte   PEND 
@  #02 @003   ----------------------------------------
Label_0100E70E:
 .byte   PAN , c_v-54
 .byte   N32 ,Bn2 ,v120
 .byte   W36
 .byte   N04 ,Bn2 ,v112
 .byte   W12
 .byte   N32 ,Cs3 ,v120
 .byte   W36
 .byte   N04 ,Cs3 ,v112
 .byte   W12
 .byte   PEND 
@  #02 @004   ----------------------------------------
Label_0100E721:
 .byte   PAN , c_v+0
 .byte   N32 ,Fs3 ,v112
 .byte   W36
 .byte   N04
 .byte   W12
 .byte   N32
 .byte   W36
 .byte   N04
 .byte   W12
 .byte   PEND 
@  #02 @005   ----------------------------------------
 .byte   PATT
  .word Label_0100E6EA
@  #02 @006   ----------------------------------------
Label_0100E733:
 .byte   PAN , c_v-54
 .byte   N32 ,Dn3 ,v120
 .byte   W36
 .byte   PAN , c_v-54
 .byte   N04 ,Dn3 ,v112
 .byte   W12
 .byte   PAN , c_v-54
 .byte   N32 ,Cs3 ,v120
 .byte   W36
 .byte   PAN , c_v-54
 .byte   N04 ,Cs3 ,v112
 .byte   W12
 .byte   PEND 
@  #02 @007   ----------------------------------------
Label_0100E74C:
 .byte   PAN , c_v-54
 .byte   N32 ,Bn2 ,v120
 .byte   W36
 .byte   PAN , c_v-54
 .byte   N04 ,Bn2 ,v112
 .byte   W12
 .byte   PAN , c_v-54
 .byte   N32 ,Cs3 ,v120
 .byte   W36
 .byte   PAN , c_v-54
 .byte   N04 ,Cs3 ,v112
 .byte   W12
 .byte   PEND 
@  #02 @008   ----------------------------------------
 .byte   PAN , c_v+0
 .byte   W96
@  #02 @009   ----------------------------------------
 .byte   W96
@  #02 @010   ----------------------------------------
 .byte   W96
@  #02 @011   ----------------------------------------
 .byte   W96
@  #02 @012   ----------------------------------------
 .byte   W96
@  #02 @013   ----------------------------------------
 .byte   W96
@  #02 @014   ----------------------------------------
 .byte   W96
@  #02 @015   ----------------------------------------
 .byte   W96
@  #02 @016   ----------------------------------------
 .byte   W96
@  #02 @017   ----------------------------------------
 .byte   W96
@  #02 @018   ----------------------------------------
 .byte   W96
@  #02 @019   ----------------------------------------
 .byte   W96
@  #02 @020   ----------------------------------------
 .byte   W96
@  #02 @021   ----------------------------------------
 .byte   W96
@  #02 @022   ----------------------------------------
 .byte   W96
@  #02 @023   ----------------------------------------
 .byte   W96
@  #02 @024   ----------------------------------------
 .byte   W96
@  #02 @025   ----------------------------------------
 .byte   W96
@  #02 @026   ----------------------------------------
 .byte   W96
@  #02 @027   ----------------------------------------
 .byte   W96
@  #02 @028   ----------------------------------------
 .byte   W96
@  #02 @029   ----------------------------------------
 .byte   W96
@  #02 @030   ----------------------------------------
 .byte   GOTO
  .word Label_0100E6DA
@  #02 @031   ----------------------------------------
Label_0100E782:
 .byte   VOICE , 4
 .byte   PAN , c_v+0
 .byte   N32 ,Fs3 ,v112
 .byte   W36
 .byte   N04
 .byte   W12
 .byte   N32
 .byte   W36
 .byte   N04
 .byte   W12
 .byte   PEND 
@  #02 @032   ----------------------------------------
 .byte   PATT
  .word Label_0100E6EA
@  #02 @033   ----------------------------------------
 .byte   PATT
  .word Label_0100E6F5
@  #02 @034   ----------------------------------------
 .byte   PATT
  .word Label_0100E70E
@  #02 @035   ----------------------------------------
 .byte   PATT
  .word Label_0100E721
@  #02 @036   ----------------------------------------
 .byte   PATT
  .word Label_0100E6EA
@  #02 @037   ----------------------------------------
 .byte   PATT
  .word Label_0100E733
@  #02 @038   ----------------------------------------
 .byte   PATT
  .word Label_0100E74C
@  #02 @039   ----------------------------------------
 .byte   PAN , c_v+0
 .byte   W96
@  #02 @040   ----------------------------------------
 .byte   W96
@  #02 @041   ----------------------------------------
 .byte   W96
@  #02 @042   ----------------------------------------
 .byte   W96
@  #02 @043   ----------------------------------------
 .byte   W96
@  #02 @044   ----------------------------------------
 .byte   W96
@  #02 @045   ----------------------------------------
 .byte   W96
@  #02 @046   ----------------------------------------
 .byte   W96
@  #02 @047   ----------------------------------------
 .byte   W96
@  #02 @048   ----------------------------------------
 .byte   W96
@  #02 @049   ----------------------------------------
 .byte   W96
@  #02 @050   ----------------------------------------
 .byte   W96
@  #02 @051   ----------------------------------------
 .byte   W96
@  #02 @052   ----------------------------------------
 .byte   W96
@  #02 @053   ----------------------------------------
 .byte   W96
@  #02 @054   ----------------------------------------
 .byte   W96
@  #02 @055   ----------------------------------------
 .byte   W96
@  #02 @056   ----------------------------------------
 .byte   W96
@  #02 @057   ----------------------------------------
 .byte   W96
@  #02 @058   ----------------------------------------
 .byte   W96
@  #02 @059   ----------------------------------------
 .byte   W96
@  #02 @060   ----------------------------------------
 .byte   W96
@  #02 @061   ----------------------------------------
 .byte   PATT
  .word Label_0100E782
@  #02 @062   ----------------------------------------
 .byte   PATT
  .word Label_0100E6EA
@  #02 @063   ----------------------------------------
 .byte   PATT
  .word Label_0100E6F5
@  #02 @064   ----------------------------------------
 .byte   PATT
  .word Label_0100E70E
@  #02 @065   ----------------------------------------
 .byte   PATT
  .word Label_0100E721
@  #02 @066   ----------------------------------------
 .byte   PATT
  .word Label_0100E6EA
@  #02 @067   ----------------------------------------
 .byte   PATT
  .word Label_0100E733
@  #02 @068   ----------------------------------------
 .byte   PATT
  .word Label_0100E74C
@  #02 @069   ----------------------------------------
 .byte   PAN , c_v+0
 .byte   W96
@  #02 @070   ----------------------------------------
 .byte   W96
@  #02 @071   ----------------------------------------
 .byte   W96
@  #02 @072   ----------------------------------------
 .byte   W96
@  #02 @073   ----------------------------------------
 .byte   W96
@  #02 @074   ----------------------------------------
 .byte   W96
@  #02 @075   ----------------------------------------
 .byte   W96
@  #02 @076   ----------------------------------------
 .byte   W96
@  #02 @077   ----------------------------------------
 .byte   W96
@  #02 @078   ----------------------------------------
 .byte   W96
@  #02 @079   ----------------------------------------
 .byte   W96
@  #02 @080   ----------------------------------------
 .byte   W96
@  #02 @081   ----------------------------------------
 .byte   W96
@  #02 @082   ----------------------------------------
 .byte   W96
@  #02 @083   ----------------------------------------
 .byte   W96
@  #02 @084   ----------------------------------------
 .byte   W96
@  #02 @085   ----------------------------------------
 .byte   W96
@  #02 @086   ----------------------------------------
 .byte   W96
@  #02 @087   ----------------------------------------
 .byte   W96
@  #02 @088   ----------------------------------------
 .byte   W96
@  #02 @089   ----------------------------------------
 .byte   W96
@  #02 @090   ----------------------------------------
 .byte   W96
@  #02 @091   ----------------------------------------
 .byte   VOICE , 4
 .byte   FINE

@**************** Track 3 (Midi-Chn.2) ****************@

song06_003:
@  #03 @000   ----------------------------------------
 .byte   KEYSH , song06_key+0
Label_0100C59E:
 .byte   VOICE , 4
 .byte   VOL , 26*song06_mvl/mxv
 .byte   PAN , c_v+0
 .byte   VOL , 26*song06_mvl/mxv
 .byte   W12
 .byte   PAN , c_v+14
 .byte   N23 ,An3 ,v112
 .byte   W48
 .byte   PAN , c_v+14
 .byte   N23
 .byte   W36
@  #03 @001   ----------------------------------------
Label_0100C5B1:
 .byte   W12
 .byte   PAN , c_v+14
 .byte   N23 ,Bn3 ,v112
 .byte   W48
 .byte   PAN , c_v+14
 .byte   N23 ,An3
 .byte   W36
 .byte   PEND 
@  #03 @002   ----------------------------------------
Label_0100C5BE:
 .byte   W12
 .byte   PAN , c_v-24
 .byte   N23 ,Fs3 ,v112
 .byte   W48
 .byte   PAN , c_v-24
 .byte   N23 ,En3
 .byte   W36
 .byte   PEND 
@  #03 @003   ----------------------------------------
Label_0100C5CB:
 .byte   W12
 .byte   PAN , c_v-24
 .byte   N23 ,Dn3 ,v112
 .byte   W48
 .byte   PAN , c_v-24
 .byte   N23 ,Fn3
 .byte   W36
 .byte   PEND 
@  #03 @004   ----------------------------------------
Label_0100C5D8:
 .byte   W12
 .byte   PAN , c_v+14
 .byte   N23 ,An3 ,v112
 .byte   W48
 .byte   PAN , c_v+14
 .byte   N23 ,Bn3
 .byte   W36
 .byte   PEND 
@  #03 @005   ----------------------------------------
Label_0100C5E5:
 .byte   W12
 .byte   PAN , c_v+14
 .byte   N23 ,An3 ,v112
 .byte   W48
 .byte   PAN , c_v+14
 .byte   N23
 .byte   W36
 .byte   PEND 
@  #03 @006   ----------------------------------------
 .byte   PATT
  .word Label_0100C5BE
@  #03 @007   ----------------------------------------
 .byte   PATT
  .word Label_0100C5CB
@  #03 @008   ----------------------------------------
Label_0100C5FB:
 .byte   PAN , c_v+24
 .byte   N20 ,Fs3 ,v112
 .byte   N20 ,An3
 .byte   W24
 .byte   N42 ,Fs3
 .byte   N42 ,An3
 .byte   W48
 .byte   N20 ,Fs3
 .byte   N20 ,An3
 .byte   W24
 .byte   PEND 
@  #03 @009   ----------------------------------------
Label_0100C60E:
 .byte   N20 ,Gn3 ,v112
 .byte   N20 ,Bn3
 .byte   W24
 .byte   N42 ,Gn3
 .byte   N42 ,Bn3
 .byte   W48
 .byte   N20 ,Gn3
 .byte   N20 ,Bn3
 .byte   W24
 .byte   PEND 
@  #03 @010   ----------------------------------------
 .byte   PATT
  .word Label_0100C60E
@  #03 @011   ----------------------------------------
Label_0100C624:
 .byte   N20 ,Fs3 ,v112
 .byte   N20 ,An3
 .byte   W24
 .byte   N42 ,Fs3
 .byte   N42 ,An3
 .byte   W48
 .byte   N20 ,Fs3
 .byte   N20 ,An3
 .byte   W24
 .byte   PEND 
@  #03 @012   ----------------------------------------
Label_0100C635:
 .byte   N11 ,Gn3 ,v112
 .byte   N11 ,Bn3
 .byte   W12
 .byte   N32 ,Gn3
 .byte   N32 ,Bn3
 .byte   W72
 .byte   N11
 .byte   W12
 .byte   PEND 
@  #03 @013   ----------------------------------------
 .byte   PATT
  .word Label_0100C635
@  #03 @014   ----------------------------------------
Label_0100C648:
 .byte   N11 ,Gn3 ,v112
 .byte   N11 ,Bn3
 .byte   W12
 .byte   N32 ,Gn3
 .byte   N32 ,Bn3
 .byte   W84
 .byte   PEND 
@  #03 @015   ----------------------------------------
 .byte   N11 ,Gn3
 .byte   N11 ,Bn3
 .byte   W12
 .byte   N32 ,Gn3
 .byte   N32 ,Bn3
 .byte   W36
 .byte   N42 ,Fs3
 .byte   N42 ,An3
 .byte   W48
@  #03 @016   ----------------------------------------
 .byte   VOICE , 49
 .byte   VOL , 36*song06_mvl/mxv
 .byte   PAN , c_v+14
 .byte   N90 ,Gn4
 .byte   W96
@  #03 @017   ----------------------------------------
 .byte   TIE ,An4
 .byte   W96
@  #03 @018   ----------------------------------------
 .byte   W90
 .byte   EOT
 .byte   W06
@  #03 @019   ----------------------------------------
 .byte   TIE ,Gn4
 .byte   W96
@  #03 @020   ----------------------------------------
 .byte   W90
 .byte   EOT
 .byte   W06
@  #03 @021   ----------------------------------------
 .byte   TIE ,An4
 .byte   W96
@  #03 @022   ----------------------------------------
 .byte   W90
 .byte   EOT
 .byte   W06
@  #03 @023   ----------------------------------------
 .byte   TIE ,Gn4
 .byte   W96
@  #03 @024   ----------------------------------------
 .byte   W90
 .byte   EOT
 .byte   W06
@  #03 @025   ----------------------------------------
Label_0100C684:
 .byte   N20 ,Bn3 ,v112
 .byte   N20 ,Bn4
 .byte   W24
 .byte   An3
 .byte   N20 ,An4
 .byte   W24
 .byte   En3
 .byte   N20 ,En4
 .byte   W24
 .byte   Fs3
 .byte   N20 ,Fs4
 .byte   W24
 .byte   PEND 
@  #03 @026   ----------------------------------------
 .byte   N90 ,Gn3
 .byte   N90 ,Gn4
 .byte   W96
@  #03 @027   ----------------------------------------
 .byte   PATT
  .word Label_0100C684
@  #03 @028   ----------------------------------------
 .byte   N90 ,Gn3 ,v112
 .byte   N90 ,Gn4
 .byte   W96
@  #03 @029   ----------------------------------------
Label_0100C6A7:
 .byte   N20 ,Gn3 ,v112
 .byte   N20 ,Gn4
 .byte   W24
 .byte   Fs3
 .byte   N20 ,Fs4
 .byte   W24
 .byte   En3
 .byte   N20 ,En4
 .byte   W24
 .byte   Dn3
 .byte   N20 ,Dn4
 .byte   W24
 .byte   PEND 
@  #03 @030   ----------------------------------------
 .byte   GOTO
  .word Label_0100C59E
@  #03 @031   ----------------------------------------
Label_0100C6BF:
 .byte   VOICE , 4
 .byte   VOL , 26*song06_mvl/mxv
 .byte   W12
 .byte   PAN , c_v+14
 .byte   N23 ,An3 ,v112
 .byte   W48
 .byte   PAN , c_v+14
 .byte   N23
 .byte   W36
 .byte   PEND 
@  #03 @032   ----------------------------------------
 .byte   PATT
  .word Label_0100C5B1
@  #03 @033   ----------------------------------------
 .byte   PATT
  .word Label_0100C5BE
@  #03 @034   ----------------------------------------
 .byte   PATT
  .word Label_0100C5CB
@  #03 @035   ----------------------------------------
 .byte   PATT
  .word Label_0100C5D8
@  #03 @036   ----------------------------------------
 .byte   PATT
  .word Label_0100C5E5
@  #03 @037   ----------------------------------------
 .byte   PATT
  .word Label_0100C5BE
@  #03 @038   ----------------------------------------
 .byte   PATT
  .word Label_0100C5CB
@  #03 @039   ----------------------------------------
 .byte   PATT
  .word Label_0100C5FB
@  #03 @040   ----------------------------------------
 .byte   PATT
  .word Label_0100C60E
@  #03 @041   ----------------------------------------
 .byte   PATT
  .word Label_0100C60E
@  #03 @042   ----------------------------------------
 .byte   PATT
  .word Label_0100C624
@  #03 @043   ----------------------------------------
 .byte   PATT
  .word Label_0100C635
@  #03 @044   ----------------------------------------
 .byte   PATT
  .word Label_0100C635
@  #03 @045   ----------------------------------------
 .byte   PATT
  .word Label_0100C648
@  #03 @046   ----------------------------------------
Label_0100C715:
 .byte   N11 ,Gn3 ,v112
 .byte   N11 ,Bn3
 .byte   W12
 .byte   N32 ,Gn3
 .byte   N32 ,Bn3
 .byte   W36
 .byte   N42 ,Fs3
 .byte   N42 ,An3
 .byte   W44
 .byte   W03
 .byte   VOICE , 49
 .byte   W01
 .byte   PEND 
@  #03 @047   ----------------------------------------
 .byte   VOL , 36*song06_mvl/mxv
 .byte   PAN , c_v+14
 .byte   N90 ,Gn4
 .byte   W96
@  #03 @048   ----------------------------------------
 .byte   TIE ,An4
 .byte   W96
@  #03 @049   ----------------------------------------
 .byte   W90
 .byte   EOT
 .byte   W06
@  #03 @050   ----------------------------------------
 .byte   TIE ,Gn4
 .byte   W96
@  #03 @051   ----------------------------------------
 .byte   W90
 .byte   EOT
 .byte   W06
@  #03 @052   ----------------------------------------
 .byte   TIE ,An4
 .byte   W96
@  #03 @053   ----------------------------------------
 .byte   W90
 .byte   EOT
 .byte   W06
@  #03 @054   ----------------------------------------
 .byte   TIE ,Gn4
 .byte   W96
@  #03 @055   ----------------------------------------
 .byte   W90
 .byte   EOT
 .byte   W06
@  #03 @056   ----------------------------------------
 .byte   PATT
  .word Label_0100C684
@  #03 @057   ----------------------------------------
 .byte   N90 ,Gn3 ,v112
 .byte   N90 ,Gn4
 .byte   W96
@  #03 @058   ----------------------------------------
 .byte   PATT
  .word Label_0100C684
@  #03 @059   ----------------------------------------
 .byte   N90 ,Gn3 ,v112
 .byte   N90 ,Gn4
 .byte   W96
@  #03 @060   ----------------------------------------
 .byte   PATT
  .word Label_0100C6A7
@  #03 @061   ----------------------------------------
 .byte   PATT
  .word Label_0100C6BF
@  #03 @062   ----------------------------------------
 .byte   PATT
  .word Label_0100C5B1
@  #03 @063   ----------------------------------------
 .byte   PATT
  .word Label_0100C5BE
@  #03 @064   ----------------------------------------
 .byte   PATT
  .word Label_0100C5CB
@  #03 @065   ----------------------------------------
 .byte   PATT
  .word Label_0100C5D8
@  #03 @066   ----------------------------------------
 .byte   PATT
  .word Label_0100C5E5
@  #03 @067   ----------------------------------------
 .byte   PATT
  .word Label_0100C5BE
@  #03 @068   ----------------------------------------
 .byte   PATT
  .word Label_0100C5CB
@  #03 @069   ----------------------------------------
 .byte   PATT
  .word Label_0100C5FB
@  #03 @070   ----------------------------------------
 .byte   PATT
  .word Label_0100C60E
@  #03 @071   ----------------------------------------
 .byte   PATT
  .word Label_0100C60E
@  #03 @072   ----------------------------------------
 .byte   PATT
  .word Label_0100C624
@  #03 @073   ----------------------------------------
 .byte   PATT
  .word Label_0100C635
@  #03 @074   ----------------------------------------
 .byte   PATT
  .word Label_0100C635
@  #03 @075   ----------------------------------------
 .byte   PATT
  .word Label_0100C648
@  #03 @076   ----------------------------------------
 .byte   PATT
  .word Label_0100C715
@  #03 @077   ----------------------------------------
 .byte   PAN , c_v+14
 .byte   VOL , 36*song06_mvl/mxv
 .byte   N90 ,Gn4 ,v112
 .byte   W96
@  #03 @078   ----------------------------------------
 .byte   TIE ,An4
 .byte   W96
@  #03 @079   ----------------------------------------
 .byte   W90
 .byte   EOT
 .byte   W06
@  #03 @080   ----------------------------------------
 .byte   TIE ,Gn4
 .byte   W96
@  #03 @081   ----------------------------------------
 .byte   W90
 .byte   EOT
 .byte   W06
@  #03 @082   ----------------------------------------
 .byte   TIE ,An4
 .byte   W96
@  #03 @083   ----------------------------------------
 .byte   W90
 .byte   EOT
 .byte   W06
@  #03 @084   ----------------------------------------
 .byte   TIE ,Gn4
 .byte   W96
@  #03 @085   ----------------------------------------
 .byte   W90
 .byte   EOT
 .byte   W06
@  #03 @086   ----------------------------------------
 .byte   PATT
  .word Label_0100C684
@  #03 @087   ----------------------------------------
 .byte   N90 ,Gn3 ,v112
 .byte   N90 ,Gn4
 .byte   W96
@  #03 @088   ----------------------------------------
 .byte   PATT
  .word Label_0100C684
@  #03 @089   ----------------------------------------
 .byte   N90 ,Gn3 ,v112
 .byte   N90 ,Gn4
 .byte   W96
@  #03 @090   ----------------------------------------
 .byte   PATT
  .word Label_0100C6A7
@  #03 @091   ----------------------------------------
 .byte   VOICE , 4
 .byte   FINE

@**************** Track 4 (Midi-Chn.3) ****************@

song06_004:
@  #04 @000   ----------------------------------------
 .byte   KEYSH , song06_key+0
Label_549F2A:
 .byte   VOICE , 4
 .byte   VOL , 23*song06_mvl/mxv
 .byte   PAN , c_v+0
 .byte   VOL , 23*song06_mvl/mxv
 .byte   W24
 .byte   PAN , c_v+25
 .byte   N20 ,Cs4 ,v112
 .byte   W48
 .byte   PAN , c_v+25
 .byte   N20
 .byte   W24
@  #04 @001   ----------------------------------------
Label_549F3D:
 .byte   W24
 .byte   PAN , c_v+25
 .byte   N20 ,Ds4 ,v112
 .byte   W48
 .byte   PAN , c_v+25
 .byte   N20 ,Cs4
 .byte   W24
 .byte   PEND 
@  #04 @002   ----------------------------------------
Label_549F4A:
 .byte   W24
 .byte   PAN , c_v+16
 .byte   N20 ,An3 ,v112
 .byte   W48
 .byte   PAN , c_v+16
 .byte   N20 ,Gs3
 .byte   W24
 .byte   PEND 
@  #04 @003   ----------------------------------------
Label_549F57:
 .byte   W24
 .byte   PAN , c_v+16
 .byte   N20 ,Fs3 ,v112
 .byte   W48
 .byte   PAN , c_v+16
 .byte   N20 ,Gs3
 .byte   W24
 .byte   PEND 
@  #04 @004   ----------------------------------------
Label_549F64:
 .byte   W24
 .byte   PAN , c_v+25
 .byte   N20 ,Cs4 ,v112
 .byte   W48
 .byte   PAN , c_v+25
 .byte   N20 ,Ds4
 .byte   W24
 .byte   PEND 
@  #04 @005   ----------------------------------------
Label_549F71:
 .byte   W24
 .byte   PAN , c_v+25
 .byte   N20 ,Cs4 ,v112
 .byte   W48
 .byte   PAN , c_v+25
 .byte   N20
 .byte   W24
 .byte   PEND 
@  #04 @006   ----------------------------------------
 .byte   PATT
  .word Label_549F4A
@  #04 @007   ----------------------------------------
 .byte   PATT
  .word Label_549F57
@  #04 @008   ----------------------------------------
Label_549F87:
 .byte   VOICE , 54
 .byte   PAN , c_v+24
 .byte   N90 ,Dn3 ,v112
 .byte   N90 ,An3
 .byte   W96
 .byte   PEND 
@  #04 @009   ----------------------------------------
 .byte   En3
 .byte   N90 ,Bn3
 .byte   W96
@  #04 @010   ----------------------------------------
 .byte   En3
 .byte   N90 ,Bn3
 .byte   W96
@  #04 @011   ----------------------------------------
 .byte   Dn3
 .byte   N90 ,An3
 .byte   W96
@  #04 @012   ----------------------------------------
Label_549F9E:
 .byte   TIE ,En3 ,v112
 .byte   TIE ,Bn3
 .byte   W96
 .byte   PEND 
@  #04 @013   ----------------------------------------
 .byte   W96
@  #04 @014   ----------------------------------------
 .byte   W96
@  #04 @015   ----------------------------------------
 .byte   W42
 .byte   EOT
 .byte   En3 ,v071
 .byte   W06
 .byte   N42 ,Dn3
 .byte   N42 ,An3
 .byte   W44
 .byte   W03
 .byte   VOICE , 49
 .byte   W01
@  #04 @016   ----------------------------------------
Label_549FB5:
 .byte   VOL , 32*song06_mvl/mxv
 .byte   PAN , c_v-14
 .byte   TIE ,Cn4 ,v112
 .byte   W96
 .byte   PEND 
@  #04 @017   ----------------------------------------
 .byte   W90
 .byte   EOT
 .byte   W06
@  #04 @018   ----------------------------------------
 .byte   N90 ,Ds4
 .byte   W96
@  #04 @019   ----------------------------------------
 .byte   Bn3
 .byte   W96
@  #04 @020   ----------------------------------------
 .byte   TIE ,Cn4
 .byte   W96
@  #04 @021   ----------------------------------------
 .byte   W90
 .byte   EOT
 .byte   W06
@  #04 @022   ----------------------------------------
 .byte   N90 ,Dn4
 .byte   W96
@  #04 @023   ----------------------------------------
 .byte   TIE ,Bn3
 .byte   W96
@  #04 @024   ----------------------------------------
 .byte   W90
 .byte   EOT
 .byte   W06
@  #04 @025   ----------------------------------------
 .byte   N90 ,Cn4
 .byte   W96
@  #04 @026   ----------------------------------------
 .byte   Bn3
 .byte   W96
@  #04 @027   ----------------------------------------
 .byte   Cn4
 .byte   W96
@  #04 @028   ----------------------------------------
 .byte   Bn3
 .byte   W96
@  #04 @029   ----------------------------------------
 .byte   An3
 .byte   W96
@  #04 @030   ----------------------------------------
 .byte   GOTO
  .word Label_549F2A
@  #04 @031   ----------------------------------------
Label_549FE5:
 .byte   VOICE , 4
 .byte   VOL , 23*song06_mvl/mxv
 .byte   W24
 .byte   PAN , c_v+25
 .byte   N20 ,Cs4 ,v112
 .byte   W48
 .byte   PAN , c_v+25
 .byte   N20
 .byte   W24
 .byte   PEND 
@  #04 @032   ----------------------------------------
 .byte   PATT
  .word Label_549F3D
@  #04 @033   ----------------------------------------
 .byte   PATT
  .word Label_549F4A
@  #04 @034   ----------------------------------------
 .byte   PATT
  .word Label_549F57
@  #04 @035   ----------------------------------------
 .byte   PATT
  .word Label_549F64
@  #04 @036   ----------------------------------------
 .byte   PATT
  .word Label_549F71
@  #04 @037   ----------------------------------------
 .byte   PATT
  .word Label_549F4A
@  #04 @038   ----------------------------------------
 .byte   PATT
  .word Label_549F57
@  #04 @039   ----------------------------------------
 .byte   PATT
  .word Label_549F87
@  #04 @040   ----------------------------------------
 .byte   N90 ,En3 ,v112
 .byte   N90 ,Bn3
 .byte   W96
@  #04 @041   ----------------------------------------
 .byte   En3
 .byte   N90 ,Bn3
 .byte   W96
@  #04 @042   ----------------------------------------
 .byte   Dn3
 .byte   N90 ,An3
 .byte   W96
@  #04 @043   ----------------------------------------
 .byte   PATT
  .word Label_549F9E
@  #04 @044   ----------------------------------------
 .byte   W96
@  #04 @045   ----------------------------------------
 .byte   W96
@  #04 @046   ----------------------------------------
 .byte   W42
 .byte   EOT
 .byte   En3 ,v071
 .byte   W06
 .byte   N42 ,Dn3 ,v112
 .byte   N42 ,An3
 .byte   W44
 .byte   W03
 .byte   VOICE , 49
 .byte   W01
@  #04 @047   ----------------------------------------
 .byte   PATT
  .word Label_549FB5
@  #04 @048   ----------------------------------------
 .byte   W90
 .byte   EOT
 .byte   Cn4
 .byte   W06
@  #04 @049   ----------------------------------------
 .byte   N90 ,Ds4 ,v112
 .byte   W96
@  #04 @050   ----------------------------------------
 .byte   Bn3
 .byte   W96
@  #04 @051   ----------------------------------------
 .byte   TIE ,Cn4
 .byte   W96
@  #04 @052   ----------------------------------------
 .byte   W90
 .byte   EOT
 .byte   W06
@  #04 @053   ----------------------------------------
 .byte   N90 ,Dn4
 .byte   W96
@  #04 @054   ----------------------------------------
 .byte   TIE ,Bn3
 .byte   W96
@  #04 @055   ----------------------------------------
 .byte   W90
 .byte   EOT
 .byte   W06
@  #04 @056   ----------------------------------------
 .byte   N90 ,Cn4
 .byte   W96
@  #04 @057   ----------------------------------------
 .byte   Bn3
 .byte   W96
@  #04 @058   ----------------------------------------
 .byte   Cn4
 .byte   W96
@  #04 @059   ----------------------------------------
 .byte   Bn3
 .byte   W96
@  #04 @060   ----------------------------------------
 .byte   An3
 .byte   W96
@  #04 @061   ----------------------------------------
 .byte   PATT
  .word Label_549FE5
@  #04 @062   ----------------------------------------
 .byte   PATT
  .word Label_549F3D
@  #04 @063   ----------------------------------------
 .byte   PATT
  .word Label_549F4A
@  #04 @064   ----------------------------------------
 .byte   PATT
  .word Label_549F57
@  #04 @065   ----------------------------------------
 .byte   PATT
  .word Label_549F64
@  #04 @066   ----------------------------------------
 .byte   PATT
  .word Label_549F71
@  #04 @067   ----------------------------------------
 .byte   PATT
  .word Label_549F4A
@  #04 @068   ----------------------------------------
 .byte   PATT
  .word Label_549F57
@  #04 @069   ----------------------------------------
 .byte   PATT
  .word Label_549F87
@  #04 @070   ----------------------------------------
 .byte   N90 ,En3 ,v112
 .byte   N90 ,Bn3
 .byte   W96
@  #04 @071   ----------------------------------------
 .byte   En3
 .byte   N90 ,Bn3
 .byte   W96
@  #04 @072   ----------------------------------------
 .byte   Dn3
 .byte   N90 ,An3
 .byte   W96
@  #04 @073   ----------------------------------------
 .byte   PATT
  .word Label_549F9E
@  #04 @074   ----------------------------------------
 .byte   W96
@  #04 @075   ----------------------------------------
 .byte   W96
@  #04 @076   ----------------------------------------
 .byte   W42
 .byte   EOT
 .byte   En3 ,v071
 .byte   W06
 .byte   N42 ,Dn3 ,v112
 .byte   N42 ,An3
 .byte   W44
 .byte   W03
 .byte   VOICE , 49
 .byte   W01
@  #04 @077   ----------------------------------------
 .byte   PATT
  .word Label_549FB5
@  #04 @078   ----------------------------------------
 .byte   W90
 .byte   EOT
 .byte   Cn4
 .byte   W06
@  #04 @079   ----------------------------------------
 .byte   N90 ,Ds4 ,v112
 .byte   W96
@  #04 @080   ----------------------------------------
 .byte   Bn3
 .byte   W96
@  #04 @081   ----------------------------------------
 .byte   TIE ,Cn4
 .byte   W96
@  #04 @082   ----------------------------------------
 .byte   W90
 .byte   EOT
 .byte   W06
@  #04 @083   ----------------------------------------
 .byte   N90 ,Dn4
 .byte   W96
@  #04 @084   ----------------------------------------
 .byte   TIE ,Bn3
 .byte   W96
@  #04 @085   ----------------------------------------
 .byte   W90
 .byte   EOT
 .byte   W06
@  #04 @086   ----------------------------------------
 .byte   N90 ,Cn4
 .byte   W96
@  #04 @087   ----------------------------------------
 .byte   Bn3
 .byte   W96
@  #04 @088   ----------------------------------------
 .byte   Cn4
 .byte   W96
@  #04 @089   ----------------------------------------
 .byte   Bn3
 .byte   W96
@  #04 @090   ----------------------------------------
 .byte   An3
 .byte   W96
@  #04 @091   ----------------------------------------
 .byte   VOICE , 4
 .byte   VOL , 23*song06_mvl/mxv
 .byte   FINE

@**************** Track 5 (Midi-Chn.4) ****************@

song06_005:
@  #05 @000   ----------------------------------------
 .byte   KEYSH , song06_key+0
Label_0102399E:
 .byte   VOICE , 4
 .byte   VOL , 20*song06_mvl/mxv
 .byte   PAN , c_v+0
 .byte   VOL , 20*song06_mvl/mxv
 .byte   W36
 .byte   N23 ,An3 ,v112
 .byte   W48
 .byte   N23
 .byte   W12
@  #05 @001   ----------------------------------------
Label_010239AD:
 .byte   W36
 .byte   N23 ,Bn3 ,v112
 .byte   W48
 .byte   En3
 .byte   W12
 .byte   PEND 
@  #05 @002   ----------------------------------------
Label_010239B5:
 .byte   W36
 .byte   PAN , c_v+53
 .byte   N23 ,Cs4 ,v116
 .byte   W48
 .byte   PAN , c_v+53
 .byte   N23 ,Bn3
 .byte   W12
 .byte   PEND 
@  #05 @003   ----------------------------------------
Label_010239C2:
 .byte   W36
 .byte   PAN , c_v+53
 .byte   N23 ,An3 ,v116
 .byte   W48
 .byte   PAN , c_v+53
 .byte   N23 ,Bn3
 .byte   W12
 .byte   PEND 
@  #05 @004   ----------------------------------------
Label_010239CF:
 .byte   W36
 .byte   PAN , c_v+0
 .byte   N23 ,An3 ,v112
 .byte   W48
 .byte   Bn3
 .byte   W12
 .byte   PEND 
@  #05 @005   ----------------------------------------
Label_010239D9:
 .byte   W36
 .byte   N23 ,An3 ,v112
 .byte   W48
 .byte   En3
 .byte   W12
 .byte   PEND 
@  #05 @006   ----------------------------------------
 .byte   PATT
  .word Label_010239B5
@  #05 @007   ----------------------------------------
Label_010239E6:
 .byte   W36
 .byte   PAN , c_v+53
 .byte   N23 ,An3 ,v116
 .byte   W48
 .byte   PAN , c_v+53
 .byte   N11 ,Cs4
 .byte   W12
 .byte   PEND 
@  #05 @008   ----------------------------------------
 .byte   W96
@  #05 @009   ----------------------------------------
 .byte   W96
@  #05 @010   ----------------------------------------
 .byte   W96
@  #05 @011   ----------------------------------------
 .byte   W96
@  #05 @012   ----------------------------------------
 .byte   W96
@  #05 @013   ----------------------------------------
 .byte   W96
@  #05 @014   ----------------------------------------
 .byte   W96
@  #05 @015   ----------------------------------------
 .byte   W96
@  #05 @016   ----------------------------------------
 .byte   VOICE , 49
 .byte   VOL , 32*song06_mvl/mxv
 .byte   PAN , c_v-14
 .byte   N90 ,En4 ,v112
 .byte   W96
@  #05 @017   ----------------------------------------
 .byte   TIE ,Fs4
 .byte   W96
@  #05 @018   ----------------------------------------
 .byte   W90
 .byte   EOT
 .byte   W06
@  #05 @019   ----------------------------------------
 .byte   TIE ,En4
 .byte   W96
@  #05 @020   ----------------------------------------
 .byte   W90
 .byte   EOT
 .byte   W06
@  #05 @021   ----------------------------------------
 .byte   TIE ,Fs4
 .byte   W96
@  #05 @022   ----------------------------------------
 .byte   W90
 .byte   EOT
 .byte   W06
@  #05 @023   ----------------------------------------
 .byte   N90 ,En4
 .byte   W96
@  #05 @024   ----------------------------------------
 .byte   N90
 .byte   W96
@  #05 @025   ----------------------------------------
Label_01023A1C:
 .byte   N42 ,En4 ,v112
 .byte   W48
 .byte   N42
 .byte   W48
 .byte   PEND 
@  #05 @026   ----------------------------------------
 .byte   N90 ,Dn4
 .byte   W96
@  #05 @027   ----------------------------------------
 .byte   PATT
  .word Label_01023A1C
@  #05 @028   ----------------------------------------
 .byte   N90 ,Dn4 ,v112
 .byte   W96
@  #05 @029   ----------------------------------------
 .byte   N90
 .byte   W96
@  #05 @030   ----------------------------------------
 .byte   GOTO
  .word Label_0102399E
@  #05 @031   ----------------------------------------
Label_01023A36:
 .byte   VOICE , 4
 .byte   VOL , 20*song06_mvl/mxv
 .byte   W36
 .byte   N23 ,An3 ,v112
 .byte   W48
 .byte   N23
 .byte   W12
 .byte   PEND 
@  #05 @032   ----------------------------------------
 .byte   PATT
  .word Label_010239AD
@  #05 @033   ----------------------------------------
 .byte   PATT
  .word Label_010239B5
@  #05 @034   ----------------------------------------
 .byte   PATT
  .word Label_010239C2
@  #05 @035   ----------------------------------------
 .byte   PATT
  .word Label_010239CF
@  #05 @036   ----------------------------------------
 .byte   PATT
  .word Label_010239D9
@  #05 @037   ----------------------------------------
 .byte   PATT
  .word Label_010239B5
@  #05 @038   ----------------------------------------
 .byte   PATT
  .word Label_010239E6
@  #05 @039   ----------------------------------------
 .byte   W96
@  #05 @040   ----------------------------------------
 .byte   W96
@  #05 @041   ----------------------------------------
 .byte   W96
@  #05 @042   ----------------------------------------
 .byte   W96
@  #05 @043   ----------------------------------------
 .byte   W96
@  #05 @044   ----------------------------------------
 .byte   W96
@  #05 @045   ----------------------------------------
 .byte   W96
@  #05 @046   ----------------------------------------
Label_01023A6C:
 .byte   W92
 .byte   W03
 .byte   VOICE , 49
 .byte   W01
 .byte   PEND 
@  #05 @047   ----------------------------------------
 .byte   PAN , c_v-14
 .byte   VOL , 32*song06_mvl/mxv
 .byte   N90 ,En4 ,v112
 .byte   W96
@  #05 @048   ----------------------------------------
 .byte   TIE ,Fs4
 .byte   W96
@  #05 @049   ----------------------------------------
 .byte   W90
 .byte   EOT
 .byte   W06
@  #05 @050   ----------------------------------------
 .byte   TIE ,En4
 .byte   W96
@  #05 @051   ----------------------------------------
 .byte   W90
 .byte   EOT
 .byte   W06
@  #05 @052   ----------------------------------------
 .byte   TIE ,Fs4
 .byte   W96
@  #05 @053   ----------------------------------------
 .byte   W90
 .byte   EOT
 .byte   W06
@  #05 @054   ----------------------------------------
 .byte   N90 ,En4
 .byte   W96
@  #05 @055   ----------------------------------------
 .byte   N90
 .byte   W96
@  #05 @056   ----------------------------------------
 .byte   PATT
  .word Label_01023A1C
@  #05 @057   ----------------------------------------
 .byte   N90 ,Dn4 ,v112
 .byte   W96
@  #05 @058   ----------------------------------------
 .byte   PATT
  .word Label_01023A1C
@  #05 @059   ----------------------------------------
 .byte   N90 ,Dn4 ,v112
 .byte   W96
@  #05 @060   ----------------------------------------
 .byte   N90
 .byte   W96
@  #05 @061   ----------------------------------------
 .byte   PATT
  .word Label_01023A36
@  #05 @062   ----------------------------------------
 .byte   PATT
  .word Label_010239AD
@  #05 @063   ----------------------------------------
 .byte   PATT
  .word Label_010239B5
@  #05 @064   ----------------------------------------
 .byte   PATT
  .word Label_010239C2
@  #05 @065   ----------------------------------------
 .byte   PATT
  .word Label_010239CF
@  #05 @066   ----------------------------------------
 .byte   PATT
  .word Label_010239D9
@  #05 @067   ----------------------------------------
 .byte   PATT
  .word Label_010239B5
@  #05 @068   ----------------------------------------
 .byte   PATT
  .word Label_010239E6
@  #05 @069   ----------------------------------------
 .byte   W96
@  #05 @070   ----------------------------------------
 .byte   W96
@  #05 @071   ----------------------------------------
 .byte   W96
@  #05 @072   ----------------------------------------
 .byte   W96
@  #05 @073   ----------------------------------------
 .byte   W96
@  #05 @074   ----------------------------------------
 .byte   W96
@  #05 @075   ----------------------------------------
 .byte   W96
@  #05 @076   ----------------------------------------
 .byte   PATT
  .word Label_01023A6C
@  #05 @077   ----------------------------------------
 .byte   VOL , 32*song06_mvl/mxv
 .byte   PAN , c_v-14
 .byte   N90 ,En4 ,v112
 .byte   W96
@  #05 @078   ----------------------------------------
 .byte   TIE ,Fs4
 .byte   W96
@  #05 @079   ----------------------------------------
 .byte   W90
 .byte   EOT
 .byte   W06
@  #05 @080   ----------------------------------------
 .byte   TIE ,En4
 .byte   W96
@  #05 @081   ----------------------------------------
 .byte   W90
 .byte   EOT
 .byte   W06
@  #05 @082   ----------------------------------------
 .byte   TIE ,Fs4
 .byte   W96
@  #05 @083   ----------------------------------------
 .byte   W90
 .byte   EOT
 .byte   W06
@  #05 @084   ----------------------------------------
 .byte   N90 ,En4
 .byte   W96
@  #05 @085   ----------------------------------------
 .byte   N90
 .byte   W96
@  #05 @086   ----------------------------------------
 .byte   PATT
  .word Label_01023A1C
@  #05 @087   ----------------------------------------
 .byte   N90 ,Dn4 ,v112
 .byte   W96
@  #05 @088   ----------------------------------------
 .byte   PATT
  .word Label_01023A1C
@  #05 @089   ----------------------------------------
 .byte   N90 ,Dn4 ,v112
 .byte   W96
@  #05 @090   ----------------------------------------
 .byte   N90
 .byte   W96
@  #05 @091   ----------------------------------------
 .byte   VOICE , 4
 .byte   FINE

@**************** Track 6 (Midi-Chn.5) ****************@

song06_006:
@  #06 @000   ----------------------------------------
 .byte   KEYSH , song06_key+0
Label_0100C22E:
 .byte   VOICE , 33
 .byte   VOL , 17*song06_mvl/mxv
 .byte   PAN , c_v-20
 .byte   VOL , 17*song06_mvl/mxv
 .byte   PAN , c_v-20
 .byte   N11 ,Fs1 ,v112
 .byte   N11 ,Fs2
 .byte   W12
 .byte   N54 ,Fs1
 .byte   N54 ,Fs2
 .byte   W72
 .byte   N11
 .byte   W12
@  #06 @001   ----------------------------------------
Label_0100C245:
 .byte   N11 ,Fs1 ,v112
 .byte   N11 ,Fs2
 .byte   W12
 .byte   N54 ,Fs1
 .byte   N54 ,Fs2
 .byte   W60
 .byte   N11
 .byte   N11 ,Fs3
 .byte   W12
 .byte   En2
 .byte   N11 ,En3
 .byte   W12
 .byte   PEND 
@  #06 @002   ----------------------------------------
Label_0100C259:
 .byte   N32 ,Dn2 ,v112
 .byte   N32 ,Dn3
 .byte   W36
 .byte   N11 ,Dn2
 .byte   N11 ,Dn3
 .byte   W12
 .byte   N32 ,Cs2
 .byte   N32 ,Cs3
 .byte   W36
 .byte   N11 ,Cs2
 .byte   N11 ,Cs3
 .byte   W12
 .byte   PEND 
@  #06 @003   ----------------------------------------
Label_0100C26F:
 .byte   N32 ,Bn1 ,v112
 .byte   N32 ,Bn2
 .byte   W36
 .byte   N11 ,Bn1
 .byte   N11 ,Bn2
 .byte   W12
 .byte   N20 ,Cs2
 .byte   N20 ,Cs3
 .byte   W24
 .byte   N11 ,Dn2
 .byte   N11 ,Dn3
 .byte   W12
 .byte   En2
 .byte   N11 ,En3
 .byte   W12
 .byte   PEND 
@  #06 @004   ----------------------------------------
Label_0100C289:
 .byte   N11 ,Fs1 ,v112
 .byte   N11 ,Fs2
 .byte   W12
 .byte   N54 ,Fs1
 .byte   N54 ,Fs2
 .byte   W72
 .byte   N11 ,Cs2
 .byte   N11 ,Cs3
 .byte   W12
 .byte   PEND 
@  #06 @005   ----------------------------------------
 .byte   PATT
  .word Label_0100C245
@  #06 @006   ----------------------------------------
 .byte   PATT
  .word Label_0100C259
@  #06 @007   ----------------------------------------
Label_0100C2A4:
 .byte   N32 ,Bn1 ,v112
 .byte   N32 ,Bn2
 .byte   W36
 .byte   N11 ,Bn1
 .byte   N11 ,Bn2
 .byte   W12
 .byte   N32 ,Cs2
 .byte   N32 ,Cs3
 .byte   W36
 .byte   N11 ,Cs2
 .byte   N11 ,Cs3
 .byte   W12
 .byte   PEND 
@  #06 @008   ----------------------------------------
Label_0100C2BA:
 .byte   VOL , 42*song06_mvl/mxv
 .byte   N20 ,Bn1 ,v112
 .byte   N20 ,Bn2
 .byte   W24
 .byte   N42 ,Bn1
 .byte   N42 ,Bn2
 .byte   W48
 .byte   N20 ,Bn1
 .byte   N20 ,Bn2
 .byte   W24
 .byte   PEND 
@  #06 @009   ----------------------------------------
Label_0100C2CD:
 .byte   N20 ,Cn2 ,v112
 .byte   N20 ,Cn3
 .byte   W24
 .byte   N42 ,Cn2
 .byte   N42 ,Cn3
 .byte   W48
 .byte   N20 ,Cn2
 .byte   N20 ,Cn3
 .byte   W24
 .byte   PEND 
@  #06 @010   ----------------------------------------
Label_0100C2DE:
 .byte   N20 ,Cs2 ,v112
 .byte   N20 ,Cs3
 .byte   W24
 .byte   N42 ,Cs2
 .byte   N42 ,Cs3
 .byte   W48
 .byte   N20 ,Cs2
 .byte   N20 ,Cs3
 .byte   W24
 .byte   PEND 
@  #06 @011   ----------------------------------------
Label_0100C2EF:
 .byte   N20 ,Dn2 ,v112
 .byte   N20 ,Dn3
 .byte   W24
 .byte   N42 ,Dn2
 .byte   N42 ,Dn3
 .byte   W48
 .byte   N20 ,Ds2
 .byte   N20 ,Ds3
 .byte   W24
 .byte   PEND 
@  #06 @012   ----------------------------------------
Label_0100C300:
 .byte   VOL , 32*song06_mvl/mxv
 .byte   N11 ,En2 ,v112
 .byte   N11 ,En3
 .byte   W12
 .byte   N32 ,En2
 .byte   N32 ,En3
 .byte   W84
 .byte   PEND 
@  #06 @013   ----------------------------------------
Label_0100C30E:
 .byte   N11 ,Cn2 ,v112
 .byte   N11 ,Cn3
 .byte   W12
 .byte   N78 ,Cn2
 .byte   N78 ,Cn3
 .byte   W84
 .byte   PEND 
@  #06 @014   ----------------------------------------
Label_0100C31A:
 .byte   N11 ,Cs2 ,v112
 .byte   N11 ,Cs3
 .byte   W12
 .byte   N78 ,Cs2
 .byte   N78 ,Cs3
 .byte   W84
 .byte   PEND 
@  #06 @015   ----------------------------------------
Label_0100C326:
 .byte   N11 ,Cn2 ,v112
 .byte   N11 ,Cn3
 .byte   W12
 .byte   N32 ,Cn2
 .byte   N32 ,Cn3
 .byte   W36
 .byte   N42 ,Bn1
 .byte   N42 ,Bn2
 .byte   W48
 .byte   PEND 
@  #06 @016   ----------------------------------------
Label_0100C337:
 .byte   VOL , 26*song06_mvl/mxv
 .byte   N32 ,Cn2 ,v112
 .byte   N32 ,Cn3
 .byte   W36
 .byte   N44 ,Cn2
 .byte   N44 ,Cn3
 .byte   W48
 .byte   N11 ,Cn2
 .byte   N11 ,Cn3
 .byte   W12
 .byte   PEND 
@  #06 @017   ----------------------------------------
Label_0100C34A:
 .byte   N11 ,Cn2 ,v112
 .byte   N11 ,Cn3
 .byte   W12
 .byte   N23 ,Cn2
 .byte   N23 ,Cn3
 .byte   W24
 .byte   N32 ,Cn2
 .byte   N32 ,Cn3
 .byte   W36
 .byte   N20 ,Cn2
 .byte   N20 ,Cn3
 .byte   W24
 .byte   PEND 
@  #06 @018   ----------------------------------------
Label_0100C360:
 .byte   N32 ,Bn1 ,v112
 .byte   N32 ,Bn2
 .byte   W36
 .byte   N23 ,Bn1
 .byte   N23 ,Bn2
 .byte   W24
 .byte   N11 ,Bn1
 .byte   N11 ,Bn2
 .byte   W12
 .byte   Ds2
 .byte   N11 ,Ds3
 .byte   W12
 .byte   Fs2
 .byte   N11 ,Fs3
 .byte   W12
 .byte   PEND 
@  #06 @019   ----------------------------------------
Label_0100C379:
 .byte   N32 ,En2 ,v112
 .byte   N32 ,En3
 .byte   W36
 .byte   N44 ,En2
 .byte   N44 ,En3
 .byte   W48
 .byte   N11 ,Ds2
 .byte   N11 ,Ds3
 .byte   W12
 .byte   PEND 
@  #06 @020   ----------------------------------------
Label_0100C38A:
 .byte   N32 ,Cn2 ,v112
 .byte   N32 ,Cn3
 .byte   W36
 .byte   N11 ,Cn2
 .byte   N11 ,Cn3
 .byte   W12
 .byte   N32 ,Cn2
 .byte   N32 ,Cn3
 .byte   W36
 .byte   N23 ,Cn2
 .byte   N23 ,Cn3
 .byte   W12
 .byte   PEND 
@  #06 @021   ----------------------------------------
Label_0100C3A0:
 .byte   W12
 .byte   N23 ,Cn2 ,v112
 .byte   N23 ,Cn3
 .byte   W24
 .byte   N11 ,Cn2
 .byte   N11 ,Cn3
 .byte   W12
 .byte   N32 ,Cn2
 .byte   N32 ,Cn3
 .byte   W36
 .byte   N11 ,Cn2
 .byte   N11 ,Cn3
 .byte   W12
 .byte   PEND 
@  #06 @022   ----------------------------------------
Label_0100C3B7:
 .byte   N32 ,Bn1 ,v112
 .byte   N32 ,Bn2
 .byte   W36
 .byte   Bn1
 .byte   N32 ,Bn2
 .byte   W36
 .byte   N11 ,Fs2
 .byte   N11 ,Fs3
 .byte   W12
 .byte   Ds2
 .byte   N11 ,Ds3
 .byte   W12
 .byte   PEND 
@  #06 @023   ----------------------------------------
Label_0100C3CB:
 .byte   N42 ,En2 ,v112
 .byte   N42 ,En3
 .byte   W48
 .byte   N17 ,En2
 .byte   N17 ,En3
 .byte   W18
 .byte   Ds2
 .byte   N17 ,Ds3
 .byte   W18
 .byte   N11 ,Dn2
 .byte   N11 ,Dn3
 .byte   W12
 .byte   PEND 
@  #06 @024   ----------------------------------------
Label_0100C3E0:
 .byte   N32 ,Cs2 ,v112
 .byte   N32 ,Cs3
 .byte   W36
 .byte   N11 ,Cs2
 .byte   N11 ,Cs3
 .byte   W12
 .byte   N42 ,Cs2
 .byte   N42 ,Cs3
 .byte   W48
 .byte   PEND 
@  #06 @025   ----------------------------------------
Label_0100C3F1:
 .byte   N32 ,Cn2 ,v112
 .byte   N32 ,Cn3
 .byte   W36
 .byte   N11 ,Cn2
 .byte   N11 ,Cn3
 .byte   W12
 .byte   N42 ,Cn2
 .byte   N42 ,Cn3
 .byte   W48
 .byte   PEND 
@  #06 @026   ----------------------------------------
Label_0100C402:
 .byte   N32 ,Bn1 ,v112
 .byte   N32 ,Bn2
 .byte   W36
 .byte   N11 ,Bn1
 .byte   N11 ,Bn2
 .byte   W12
 .byte   N42 ,Bn1
 .byte   N42 ,Bn2
 .byte   W48
 .byte   PEND 
@  #06 @027   ----------------------------------------
Label_0100C413:
 .byte   N11 ,An1 ,v112
 .byte   N11 ,An2
 .byte   W12
 .byte   N23 ,An1
 .byte   N23 ,An2
 .byte   W24
 .byte   N44 ,An1
 .byte   N44 ,An2
 .byte   W48
 .byte   N11 ,An1
 .byte   N11 ,An2
 .byte   W12
 .byte   PEND 
@  #06 @028   ----------------------------------------
Label_0100C429:
 .byte   N32 ,Bn1 ,v112
 .byte   N32 ,Bn2
 .byte   W36
 .byte   N11 ,Bn1
 .byte   N11 ,Bn2
 .byte   W12
 .byte   N32 ,Bn1
 .byte   N32 ,Bn2
 .byte   W36
 .byte   N11 ,Cn2
 .byte   N11 ,Cn3
 .byte   W12
 .byte   PEND 
@  #06 @029   ----------------------------------------
Label_0100C43F:
 .byte   N11 ,Dn2 ,v112
 .byte   N11 ,Dn3
 .byte   W12
 .byte   N23 ,Dn2
 .byte   N23 ,Dn3
 .byte   W24
 .byte   N32 ,Dn2
 .byte   N32 ,Dn3
 .byte   W36
 .byte   N11 ,Dn2
 .byte   N11 ,Dn3
 .byte   W12
 .byte   En2
 .byte   N11 ,En3
 .byte   W12
 .byte   PEND 
@  #06 @030   ----------------------------------------
 .byte   GOTO
  .word Label_0100C22E
@  #06 @031   ----------------------------------------
Label_0100C45E:
 .byte   VOICE , 33
 .byte   VOL , 17*song06_mvl/mxv
 .byte   N11 ,Fs1 ,v112
 .byte   N11 ,Fs2
 .byte   W12
 .byte   N54 ,Fs1
 .byte   N54 ,Fs2
 .byte   W72
 .byte   N11
 .byte   W12
 .byte   PEND 
@  #06 @032   ----------------------------------------
 .byte   PATT
  .word Label_0100C245
@  #06 @033   ----------------------------------------
 .byte   PATT
  .word Label_0100C259
@  #06 @034   ----------------------------------------
 .byte   PATT
  .word Label_0100C26F
@  #06 @035   ----------------------------------------
 .byte   PATT
  .word Label_0100C289
@  #06 @036   ----------------------------------------
 .byte   PATT
  .word Label_0100C245
@  #06 @037   ----------------------------------------
 .byte   PATT
  .word Label_0100C259
@  #06 @038   ----------------------------------------
 .byte   PATT
  .word Label_0100C2A4
@  #06 @039   ----------------------------------------
 .byte   PATT
  .word Label_0100C2BA
@  #06 @040   ----------------------------------------
 .byte   PATT
  .word Label_0100C2CD
@  #06 @041   ----------------------------------------
 .byte   PATT
  .word Label_0100C2DE
@  #06 @042   ----------------------------------------
 .byte   PATT
  .word Label_0100C2EF
@  #06 @043   ----------------------------------------
 .byte   PATT
  .word Label_0100C300
@  #06 @044   ----------------------------------------
 .byte   PATT
  .word Label_0100C30E
@  #06 @045   ----------------------------------------
 .byte   PATT
  .word Label_0100C31A
@  #06 @046   ----------------------------------------
 .byte   PATT
  .word Label_0100C326
@  #06 @047   ----------------------------------------
 .byte   PATT
  .word Label_0100C337
@  #06 @048   ----------------------------------------
 .byte   PATT
  .word Label_0100C34A
@  #06 @049   ----------------------------------------
 .byte   PATT
  .word Label_0100C360
@  #06 @050   ----------------------------------------
 .byte   PATT
  .word Label_0100C379
@  #06 @051   ----------------------------------------
 .byte   PATT
  .word Label_0100C38A
@  #06 @052   ----------------------------------------
 .byte   PATT
  .word Label_0100C3A0
@  #06 @053   ----------------------------------------
 .byte   PATT
  .word Label_0100C3B7
@  #06 @054   ----------------------------------------
 .byte   PATT
  .word Label_0100C3CB
@  #06 @055   ----------------------------------------
 .byte   PATT
  .word Label_0100C3E0
@  #06 @056   ----------------------------------------
 .byte   PATT
  .word Label_0100C3F1
@  #06 @057   ----------------------------------------
 .byte   PATT
  .word Label_0100C402
@  #06 @058   ----------------------------------------
 .byte   PATT
  .word Label_0100C413
@  #06 @059   ----------------------------------------
 .byte   PATT
  .word Label_0100C429
@  #06 @060   ----------------------------------------
 .byte   PATT
  .word Label_0100C43F
@  #06 @061   ----------------------------------------
 .byte   PATT
  .word Label_0100C45E
@  #06 @062   ----------------------------------------
 .byte   PATT
  .word Label_0100C245
@  #06 @063   ----------------------------------------
 .byte   PATT
  .word Label_0100C259
@  #06 @064   ----------------------------------------
 .byte   PATT
  .word Label_0100C26F
@  #06 @065   ----------------------------------------
 .byte   PATT
  .word Label_0100C289
@  #06 @066   ----------------------------------------
 .byte   PATT
  .word Label_0100C245
@  #06 @067   ----------------------------------------
 .byte   PATT
  .word Label_0100C259
@  #06 @068   ----------------------------------------
 .byte   PATT
  .word Label_0100C2A4
@  #06 @069   ----------------------------------------
 .byte   PATT
  .word Label_0100C2BA
@  #06 @070   ----------------------------------------
 .byte   PATT
  .word Label_0100C2CD
@  #06 @071   ----------------------------------------
 .byte   PATT
  .word Label_0100C2DE
@  #06 @072   ----------------------------------------
 .byte   PATT
  .word Label_0100C2EF
@  #06 @073   ----------------------------------------
 .byte   PATT
  .word Label_0100C300
@  #06 @074   ----------------------------------------
 .byte   PATT
  .word Label_0100C30E
@  #06 @075   ----------------------------------------
 .byte   PATT
  .word Label_0100C31A
@  #06 @076   ----------------------------------------
 .byte   PATT
  .word Label_0100C326
@  #06 @077   ----------------------------------------
 .byte   PATT
  .word Label_0100C337
@  #06 @078   ----------------------------------------
 .byte   PATT
  .word Label_0100C34A
@  #06 @079   ----------------------------------------
 .byte   PATT
  .word Label_0100C360
@  #06 @080   ----------------------------------------
 .byte   PATT
  .word Label_0100C379
@  #06 @081   ----------------------------------------
 .byte   PATT
  .word Label_0100C38A
@  #06 @082   ----------------------------------------
 .byte   PATT
  .word Label_0100C3A0
@  #06 @083   ----------------------------------------
 .byte   PATT
  .word Label_0100C3B7
@  #06 @084   ----------------------------------------
 .byte   PATT
  .word Label_0100C3CB
@  #06 @085   ----------------------------------------
 .byte   PATT
  .word Label_0100C3E0
@  #06 @086   ----------------------------------------
 .byte   PATT
  .word Label_0100C3F1
@  #06 @087   ----------------------------------------
 .byte   PATT
  .word Label_0100C402
@  #06 @088   ----------------------------------------
 .byte   PATT
  .word Label_0100C413
@  #06 @089   ----------------------------------------
 .byte   PATT
  .word Label_0100C429
@  #06 @090   ----------------------------------------
 .byte   PATT
  .word Label_0100C43F
@  #06 @091   ----------------------------------------
 .byte   VOICE , 33
 .byte   FINE

@**************** Track 7 (Midi-Chn.6) ****************@

song06_007:
@  #07 @000   ----------------------------------------
 .byte   KEYSH , song06_key+0
Label_01023C7A:
 .byte   VOICE , 121
 .byte   VOL , 39*song06_mvl/mxv
 .byte   PAN , c_v-6
 .byte   N20 ,Gs1 ,v112
 .byte   W24
 .byte   N20
 .byte   W24
 .byte   N20
 .byte   W24
 .byte   N20
 .byte   W24
@  #07 @001   ----------------------------------------
Label_01023C8A:
 .byte   N20 ,Gs1 ,v112
 .byte   W24
 .byte   N20
 .byte   W24
 .byte   N20
 .byte   W24
 .byte   N20
 .byte   W24
 .byte   PEND 
@  #07 @002   ----------------------------------------
 .byte   PATT
  .word Label_01023C8A
@  #07 @003   ----------------------------------------
 .byte   PATT
  .word Label_01023C8A
@  #07 @004   ----------------------------------------
 .byte   PATT
  .word Label_01023C8A
@  #07 @005   ----------------------------------------
Label_01023CA4:
 .byte   N20 ,Gs1 ,v112
 .byte   W24
 .byte   N20
 .byte   W24
 .byte   N20
 .byte   W24
 .byte   PAN , c_v-54
 .byte   N11
 .byte   N11 ,Dn2 ,v080
 .byte   W12
 .byte   PAN , c_v+53
 .byte   N11 ,Cn2 ,v060
 .byte   W12
 .byte   PEND 
@  #07 @006   ----------------------------------------
Label_01023CBA:
 .byte   PAN , c_v-6
 .byte   N20 ,Gs1 ,v112
 .byte   W24
 .byte   N20
 .byte   W24
 .byte   N20
 .byte   W24
 .byte   N20
 .byte   W24
 .byte   PEND 
@  #07 @007   ----------------------------------------
 .byte   PATT
  .word Label_01023C8A
@  #07 @008   ----------------------------------------
Label_01023CCC:
 .byte   N11 ,Dn1 ,v112
 .byte   W12
 .byte   N05 ,Dn1 ,v080
 .byte   W06
 .byte   N05
 .byte   W06
 .byte   N11 ,Dn1 ,v112
 .byte   W12
 .byte   N05 ,Dn1 ,v080
 .byte   W06
 .byte   N05
 .byte   W06
 .byte   N11 ,Dn1 ,v112
 .byte   W12
 .byte   N05 ,Dn1 ,v080
 .byte   W06
 .byte   N05
 .byte   W06
 .byte   N11 ,Dn1 ,v112
 .byte   W12
 .byte   N05 ,Dn1 ,v080
 .byte   W06
 .byte   N05
 .byte   W06
 .byte   PEND 
@  #07 @009   ----------------------------------------
 .byte   PATT
  .word Label_01023CCC
@  #07 @010   ----------------------------------------
 .byte   PATT
  .word Label_01023CCC
@  #07 @011   ----------------------------------------
Label_01023CFF:
 .byte   N11 ,Dn1 ,v112
 .byte   W12
 .byte   N05 ,Dn1 ,v080
 .byte   W06
 .byte   N05
 .byte   W06
 .byte   N11 ,Dn1 ,v112
 .byte   W12
 .byte   N11
 .byte   W12
 .byte   N11
 .byte   W12
 .byte   N11
 .byte   W12
 .byte   Dn1 ,v116
 .byte   W12
 .byte   Dn1 ,v120
 .byte   W12
 .byte   PEND 
@  #07 @012   ----------------------------------------
Label_01023D1A:
 .byte   N11 ,Cn1 ,v127
 .byte   W12
 .byte   N32 ,Cn1 ,v112
 .byte   W60
 .byte   PAN , c_v-30
 .byte   N11 ,Dn2 ,v080
 .byte   W12
 .byte   PAN , c_v+30
 .byte   N11 ,Cn2 ,v072
 .byte   W12
 .byte   PEND 
@  #07 @013   ----------------------------------------
Label_01023D2F:
 .byte   PAN , c_v-6
 .byte   N11 ,Cn1 ,v112
 .byte   W12
 .byte   N32
 .byte   W60
 .byte   PAN , c_v-30
 .byte   N11 ,Bn1 ,v072
 .byte   W12
 .byte   PAN , c_v+30
 .byte   N11 ,An1 ,v060
 .byte   W12
 .byte   PEND 
@  #07 @014   ----------------------------------------
Label_01023D44:
 .byte   PAN , c_v-6
 .byte   N11 ,Cn1 ,v112
 .byte   W12
 .byte   N32
 .byte   W48
 .byte   PAN , c_v-30
 .byte   N11 ,An1 ,v072
 .byte   W24
 .byte   PAN , c_v+30
 .byte   N11 ,Gn1 ,v060
 .byte   W12
 .byte   PEND 
@  #07 @015   ----------------------------------------
Label_01023D59:
 .byte   PAN , c_v-6
 .byte   N11 ,Cn1 ,v112
 .byte   W12
 .byte   N11
 .byte   W24
 .byte   En1
 .byte   W24
 .byte   PAN , c_v-30
 .byte   N11 ,Dn2
 .byte   W12
 .byte   PAN , c_v+0
 .byte   N11 ,Cn2
 .byte   W12
 .byte   PAN , c_v+30
 .byte   N11 ,Bn1
 .byte   W12
 .byte   PEND 
@  #07 @016   ----------------------------------------
Label_01023D73:
 .byte   PAN , c_v-6
 .byte   N11 ,Cn1 ,v112
 .byte   N11 ,Gs1
 .byte   W12
 .byte   N11
 .byte   W12
 .byte   En1
 .byte   N11 ,Gs1
 .byte   W12
 .byte   N11
 .byte   W12
 .byte   N11
 .byte   W12
 .byte   Cn1
 .byte   N11 ,Gs1
 .byte   W12
 .byte   En1
 .byte   N11 ,Gs1
 .byte   W12
 .byte   N11
 .byte   W12
 .byte   PEND 
@  #07 @017   ----------------------------------------
Label_01023D90:
 .byte   N11 ,Cn1 ,v112
 .byte   N11 ,Gs1
 .byte   W12
 .byte   N11
 .byte   W12
 .byte   En1
 .byte   N11 ,Gs1
 .byte   W12
 .byte   N11
 .byte   W12
 .byte   N11
 .byte   W12
 .byte   Cn1
 .byte   N11 ,Gs1
 .byte   W12
 .byte   En1
 .byte   N11 ,Gs1
 .byte   W12
 .byte   N11
 .byte   W12
 .byte   PEND 
@  #07 @018   ----------------------------------------
 .byte   PATT
  .word Label_01023D90
@  #07 @019   ----------------------------------------
Label_01023DB0:
 .byte   N11 ,Cn1 ,v112
 .byte   N11 ,Gs1
 .byte   W12
 .byte   N11
 .byte   W12
 .byte   En1
 .byte   N11 ,Gs1
 .byte   W12
 .byte   N11
 .byte   W12
 .byte   N11
 .byte   W12
 .byte   Cn1
 .byte   N11 ,Gs1
 .byte   W12
 .byte   En1
 .byte   N11 ,Gs1
 .byte   W12
 .byte   PAN , c_v-30
 .byte   N11 ,As1
 .byte   W12
 .byte   PEND 
@  #07 @020   ----------------------------------------
 .byte   PATT
  .word Label_01023D73
@  #07 @021   ----------------------------------------
 .byte   PATT
  .word Label_01023D90
@  #07 @022   ----------------------------------------
 .byte   PATT
  .word Label_01023D90
@  #07 @023   ----------------------------------------
 .byte   PATT
  .word Label_01023DB0
@  #07 @024   ----------------------------------------
 .byte   PATT
  .word Label_01023D73
@  #07 @025   ----------------------------------------
 .byte   PATT
  .word Label_01023D90
@  #07 @026   ----------------------------------------
 .byte   PATT
  .word Label_01023D90
@  #07 @027   ----------------------------------------
 .byte   PATT
  .word Label_01023DB0
@  #07 @028   ----------------------------------------
Label_01023DF6:
 .byte   PAN , c_v-6
 .byte   N11 ,Cn1 ,v112
 .byte   N11 ,Gs1
 .byte   W12
 .byte   N11
 .byte   W12
 .byte   En1
 .byte   N11 ,Gs1
 .byte   W12
 .byte   N11
 .byte   W12
 .byte   N11
 .byte   W12
 .byte   Cn1
 .byte   W12
 .byte   N20 ,En1
 .byte   W24
 .byte   PEND 
@  #07 @029   ----------------------------------------
Label_01023E0E:
 .byte   N20 ,Gs1 ,v112
 .byte   W24
 .byte   N20
 .byte   W24
 .byte   Gs1 ,v076
 .byte   W24
 .byte   Gs1 ,v068
 .byte   W24
 .byte   PEND 
@  #07 @030   ----------------------------------------
 .byte   GOTO
  .word Label_01023C7A
@  #07 @031   ----------------------------------------
 .byte   PATT
  .word Label_01023CBA
@  #07 @032   ----------------------------------------
 .byte   PATT
  .word Label_01023C8A
@  #07 @033   ----------------------------------------
 .byte   PATT
  .word Label_01023C8A
@  #07 @034   ----------------------------------------
 .byte   PATT
  .word Label_01023C8A
@  #07 @035   ----------------------------------------
 .byte   PATT
  .word Label_01023C8A
@  #07 @036   ----------------------------------------
 .byte   PATT
  .word Label_01023CA4
@  #07 @037   ----------------------------------------
 .byte   PATT
  .word Label_01023CBA
@  #07 @038   ----------------------------------------
 .byte   PATT
  .word Label_01023C8A
@  #07 @039   ----------------------------------------
 .byte   PATT
  .word Label_01023CCC
@  #07 @040   ----------------------------------------
 .byte   PATT
  .word Label_01023CCC
@  #07 @041   ----------------------------------------
 .byte   PATT
  .word Label_01023CCC
@  #07 @042   ----------------------------------------
 .byte   PATT
  .word Label_01023CFF
@  #07 @043   ----------------------------------------
 .byte   PATT
  .word Label_01023D1A
@  #07 @044   ----------------------------------------
 .byte   PATT
  .word Label_01023D2F
@  #07 @045   ----------------------------------------
 .byte   PATT
  .word Label_01023D44
@  #07 @046   ----------------------------------------
 .byte   PATT
  .word Label_01023D59
@  #07 @047   ----------------------------------------
 .byte   PATT
  .word Label_01023D73
@  #07 @048   ----------------------------------------
 .byte   PATT
  .word Label_01023D90
@  #07 @049   ----------------------------------------
 .byte   PATT
  .word Label_01023D90
@  #07 @050   ----------------------------------------
 .byte   PATT
  .word Label_01023DB0
@  #07 @051   ----------------------------------------
 .byte   PATT
  .word Label_01023D73
@  #07 @052   ----------------------------------------
 .byte   PATT
  .word Label_01023D90
@  #07 @053   ----------------------------------------
 .byte   PATT
  .word Label_01023D90
@  #07 @054   ----------------------------------------
 .byte   PATT
  .word Label_01023DB0
@  #07 @055   ----------------------------------------
 .byte   PATT
  .word Label_01023D73
@  #07 @056   ----------------------------------------
 .byte   PATT
  .word Label_01023D90
@  #07 @057   ----------------------------------------
 .byte   PATT
  .word Label_01023D90
@  #07 @058   ----------------------------------------
 .byte   PATT
  .word Label_01023DB0
@  #07 @059   ----------------------------------------
 .byte   PATT
  .word Label_01023DF6
@  #07 @060   ----------------------------------------
 .byte   PATT
  .word Label_01023E0E
@  #07 @061   ----------------------------------------
 .byte   PATT
  .word Label_01023CBA
@  #07 @062   ----------------------------------------
 .byte   PATT
  .word Label_01023C8A
@  #07 @063   ----------------------------------------
 .byte   PATT
  .word Label_01023C8A
@  #07 @064   ----------------------------------------
 .byte   PATT
  .word Label_01023C8A
@  #07 @065   ----------------------------------------
 .byte   PATT
  .word Label_01023C8A
@  #07 @066   ----------------------------------------
 .byte   PATT
  .word Label_01023CA4
@  #07 @067   ----------------------------------------
 .byte   PATT
  .word Label_01023CBA
@  #07 @068   ----------------------------------------
 .byte   PATT
  .word Label_01023C8A
@  #07 @069   ----------------------------------------
 .byte   PATT
  .word Label_01023CCC
@  #07 @070   ----------------------------------------
 .byte   PATT
  .word Label_01023CCC
@  #07 @071   ----------------------------------------
 .byte   PATT
  .word Label_01023CCC
@  #07 @072   ----------------------------------------
 .byte   PATT
  .word Label_01023CFF
@  #07 @073   ----------------------------------------
 .byte   PATT
  .word Label_01023D1A
@  #07 @074   ----------------------------------------
 .byte   PATT
  .word Label_01023D2F
@  #07 @075   ----------------------------------------
 .byte   PATT
  .word Label_01023D44
@  #07 @076   ----------------------------------------
 .byte   PATT
  .word Label_01023D59
@  #07 @077   ----------------------------------------
 .byte   PATT
  .word Label_01023D73
@  #07 @078   ----------------------------------------
 .byte   PATT
  .word Label_01023D90
@  #07 @079   ----------------------------------------
 .byte   PATT
  .word Label_01023D90
@  #07 @080   ----------------------------------------
 .byte   PATT
  .word Label_01023DB0
@  #07 @081   ----------------------------------------
 .byte   PATT
  .word Label_01023D73
@  #07 @082   ----------------------------------------
 .byte   PATT
  .word Label_01023D90
@  #07 @083   ----------------------------------------
 .byte   PATT
  .word Label_01023D90
@  #07 @084   ----------------------------------------
 .byte   PATT
  .word Label_01023DB0
@  #07 @085   ----------------------------------------
 .byte   PATT
  .word Label_01023D73
@  #07 @086   ----------------------------------------
 .byte   PATT
  .word Label_01023D90
@  #07 @087   ----------------------------------------
 .byte   PATT
  .word Label_01023D90
@  #07 @088   ----------------------------------------
 .byte   PATT
  .word Label_01023DB0
@  #07 @089   ----------------------------------------
 .byte   PATT
  .word Label_01023DF6
@  #07 @090   ----------------------------------------
 .byte   PATT
  .word Label_01023E0E
 .byte   FINE

@**************** Track 8 (Midi-Chn.7) ****************@

song06_008:
@  #08 @000   ----------------------------------------
 .byte   KEYSH , song06_key+0
Label_0100D89E:
 .byte   VOICE , 121
 .byte   VOL , 45*song06_mvl/mxv
 .byte   PAN , c_v-20
 .byte   N11 ,Cn1 ,v112
 .byte   W12
 .byte   N11
 .byte   W84
@  #08 @001   ----------------------------------------
Label_0100D8AA:
 .byte   N11 ,Cn1 ,v112
 .byte   W12
 .byte   N11
 .byte   W84
 .byte   PEND 
@  #08 @002   ----------------------------------------
Label_0100D8B1:
 .byte   N20 ,Cn1 ,v112
 .byte   W36
 .byte   N11
 .byte   W12
 .byte   N20
 .byte   W36
 .byte   N11
 .byte   W12
 .byte   PEND 
@  #08 @003   ----------------------------------------
 .byte   PATT
  .word Label_0100D8B1
@  #08 @004   ----------------------------------------
 .byte   PATT
  .word Label_0100D8AA
@  #08 @005   ----------------------------------------
 .byte   PATT
  .word Label_0100D8AA
@  #08 @006   ----------------------------------------
 .byte   PATT
  .word Label_0100D8B1
@  #08 @007   ----------------------------------------
Label_0100D8D0:
 .byte   N20 ,Cn1 ,v112
 .byte   W36
 .byte   N11
 .byte   W12
 .byte   N11
 .byte   W12
 .byte   N11
 .byte   W24
 .byte   N11
 .byte   W12
 .byte   PEND 
@  #08 @008   ----------------------------------------
 .byte   W96
@  #08 @009   ----------------------------------------
 .byte   W96
@  #08 @010   ----------------------------------------
 .byte   W96
@  #08 @011   ----------------------------------------
 .byte   W96
@  #08 @012   ----------------------------------------
 .byte   W96
@  #08 @013   ----------------------------------------
 .byte   W96
@  #08 @014   ----------------------------------------
 .byte   W96
@  #08 @015   ----------------------------------------
 .byte   W96
@  #08 @016   ----------------------------------------
 .byte   W96
@  #08 @017   ----------------------------------------
 .byte   W96
@  #08 @018   ----------------------------------------
 .byte   W96
@  #08 @019   ----------------------------------------
 .byte   W96
@  #08 @020   ----------------------------------------
 .byte   W96
@  #08 @021   ----------------------------------------
 .byte   W96
@  #08 @022   ----------------------------------------
 .byte   W96
@  #08 @023   ----------------------------------------
 .byte   W96
@  #08 @024   ----------------------------------------
 .byte   W96
@  #08 @025   ----------------------------------------
 .byte   W96
@  #08 @026   ----------------------------------------
 .byte   W96
@  #08 @027   ----------------------------------------
 .byte   W96
@  #08 @028   ----------------------------------------
 .byte   W96
@  #08 @029   ----------------------------------------
Label_0100D8F2:
 .byte   W48
 .byte   N20 ,Cn1 ,v112
 .byte   W24
 .byte   PAN , c_v-30
 .byte   N11 ,Dn2 ,v076
 .byte   W12
 .byte   PAN , c_v+30
 .byte   N11 ,Cn2 ,v068
 .byte   W12
 .byte   PEND 
@  #08 @030   ----------------------------------------
 .byte   GOTO
  .word Label_0100D89E
@  #08 @031   ----------------------------------------
Label_0100D909:
 .byte   PAN , c_v-20
 .byte   N11 ,Cn1 ,v112
 .byte   W12
 .byte   N11
 .byte   W84
 .byte   PEND 
@  #08 @032   ----------------------------------------
 .byte   PATT
  .word Label_0100D8AA
@  #08 @033   ----------------------------------------
 .byte   PATT
  .word Label_0100D8B1
@  #08 @034   ----------------------------------------
 .byte   PATT
  .word Label_0100D8B1
@  #08 @035   ----------------------------------------
 .byte   PATT
  .word Label_0100D8AA
@  #08 @036   ----------------------------------------
 .byte   PATT
  .word Label_0100D8AA
@  #08 @037   ----------------------------------------
 .byte   PATT
  .word Label_0100D8B1
@  #08 @038   ----------------------------------------
 .byte   PATT
  .word Label_0100D8D0
@  #08 @039   ----------------------------------------
 .byte   W96
@  #08 @040   ----------------------------------------
 .byte   W96
@  #08 @041   ----------------------------------------
 .byte   W96
@  #08 @042   ----------------------------------------
 .byte   W96
@  #08 @043   ----------------------------------------
 .byte   W96
@  #08 @044   ----------------------------------------
 .byte   W96
@  #08 @045   ----------------------------------------
 .byte   W96
@  #08 @046   ----------------------------------------
 .byte   W96
@  #08 @047   ----------------------------------------
 .byte   W96
@  #08 @048   ----------------------------------------
 .byte   W96
@  #08 @049   ----------------------------------------
 .byte   W96
@  #08 @050   ----------------------------------------
 .byte   W96
@  #08 @051   ----------------------------------------
 .byte   W96
@  #08 @052   ----------------------------------------
 .byte   W96
@  #08 @053   ----------------------------------------
 .byte   W96
@  #08 @054   ----------------------------------------
 .byte   W96
@  #08 @055   ----------------------------------------
 .byte   W96
@  #08 @056   ----------------------------------------
 .byte   W96
@  #08 @057   ----------------------------------------
 .byte   W96
@  #08 @058   ----------------------------------------
 .byte   W96
@  #08 @059   ----------------------------------------
 .byte   W96
@  #08 @060   ----------------------------------------
 .byte   PATT
  .word Label_0100D8F2
@  #08 @061   ----------------------------------------
 .byte   PATT
  .word Label_0100D909
@  #08 @062   ----------------------------------------
 .byte   PATT
  .word Label_0100D8AA
@  #08 @063   ----------------------------------------
 .byte   PATT
  .word Label_0100D8B1
@  #08 @064   ----------------------------------------
 .byte   PATT
  .word Label_0100D8B1
@  #08 @065   ----------------------------------------
 .byte   PATT
  .word Label_0100D8AA
@  #08 @066   ----------------------------------------
 .byte   PATT
  .word Label_0100D8AA
@  #08 @067   ----------------------------------------
 .byte   PATT
  .word Label_0100D8B1
@  #08 @068   ----------------------------------------
 .byte   PATT
  .word Label_0100D8D0
@  #08 @069   ----------------------------------------
 .byte   W96
@  #08 @070   ----------------------------------------
 .byte   W96
@  #08 @071   ----------------------------------------
 .byte   W96
@  #08 @072   ----------------------------------------
 .byte   W96
@  #08 @073   ----------------------------------------
 .byte   W96
@  #08 @074   ----------------------------------------
 .byte   W96
@  #08 @075   ----------------------------------------
 .byte   W96
@  #08 @076   ----------------------------------------
 .byte   W96
@  #08 @077   ----------------------------------------
 .byte   W96
@  #08 @078   ----------------------------------------
 .byte   W96
@  #08 @079   ----------------------------------------
 .byte   W96
@  #08 @080   ----------------------------------------
 .byte   W96
@  #08 @081   ----------------------------------------
 .byte   W96
@  #08 @082   ----------------------------------------
 .byte   W96
@  #08 @083   ----------------------------------------
 .byte   W96
@  #08 @084   ----------------------------------------
 .byte   W96
@  #08 @085   ----------------------------------------
 .byte   W96
@  #08 @086   ----------------------------------------
 .byte   W96
@  #08 @087   ----------------------------------------
 .byte   W96
@  #08 @088   ----------------------------------------
 .byte   W96
@  #08 @089   ----------------------------------------
 .byte   W96
@  #08 @090   ----------------------------------------
 .byte   PATT
  .word Label_0100D8F2
 .byte   FINE

@******************************************************@
	.align	2

song06:
	.byte	8	@ NumTrks
	.byte	0	@ NumBlks
	.byte	song06_pri	@ Priority
	.byte	song06_rev	@ Reverb.
    
	.word	song06_grp
    
	.word	song06_001
	.word	song06_002
	.word	song06_003
	.word	song06_004
	.word	song06_005
	.word	song06_006
	.word	song06_007
	.word	song06_008

	.end
