	.include "MPlayDef.s"

	.equ	song02_grp, voicegroup000
	.equ	song02_pri, 0
	.equ	song02_rev, 0
	.equ	song02_mvl, 127
	.equ	song02_key, 0
	.equ	song02_tbs, 1
	.equ	song02_exg, 0
	.equ	song02_cmp, 1

	.section .rodata
	.global	song02
	.align	2


@**************** Track 1 (Midi-Chn.0) ****************@

song02_001:
@  #01 @000   ----------------------------------------
 .byte   KEYSH , song02_key+0
 .byte   TEMPO , 124*song02_tbs/2
 .byte   VOICE , 36
 .byte   VOL , 69*song02_mvl/mxv
 .byte   BENDR, 12
 .byte   W48
 .byte   N18 ,Dn1 ,v108
 .byte   W18
 .byte   N06 ,Cn1
 .byte   W06
 .byte   N24 ,Dn1
 .byte   W24
@  #01 @001   ----------------------------------------
Label_01008071:
 .byte   N12 ,Bn0 ,v108
 .byte   W12
 .byte   Dn1
 .byte   W12
 .byte   Bn0
 .byte   W12
 .byte   Cn1
 .byte   W12
 .byte   N18 ,Dn1
 .byte   W18
 .byte   N06 ,Cn1
 .byte   W06
 .byte   N24 ,Dn1
 .byte   W24
 .byte   PEND 
@  #01 @002   ----------------------------------------
Label_01008085:
 .byte   N12 ,Bn0 ,v108
 .byte   W12
 .byte   Gn1
 .byte   W12
 .byte   N24 ,Fn1
 .byte   W24
 .byte   N18 ,Dn1
 .byte   W18
 .byte   N06 ,Cn1
 .byte   W06
 .byte   N24 ,Dn1
 .byte   W24
 .byte   PEND 
@  #01 @003   ----------------------------------------
 .byte   PATT
  .word Label_01008071
@  #01 @004   ----------------------------------------
 .byte   PATT
  .word Label_01008085
@  #01 @005   ----------------------------------------
 .byte   PATT
  .word Label_01008071
@  #01 @006   ----------------------------------------
 .byte   PATT
  .word Label_01008085
@  #01 @007   ----------------------------------------
 .byte   PATT
  .word Label_01008071
@  #01 @008   ----------------------------------------
 .byte   N12 ,Bn0 ,v108
 .byte   W12
 .byte   Gn1
 .byte   W12
 .byte   N24 ,Fn1
 .byte   W24
Label_010080BA:
 .byte   N18 ,Dn1 ,v108
 .byte   W18
 .byte   N06 ,Cn1
 .byte   W06
 .byte   N24 ,Dn1
 .byte   W24
@  #01 @009   ----------------------------------------
 .byte   PATT
  .word Label_01008071
@  #01 @010   ----------------------------------------
 .byte   PATT
  .word Label_01008085
@  #01 @011   ----------------------------------------
 .byte   PATT
  .word Label_01008071
@  #01 @012   ----------------------------------------
 .byte   PATT
  .word Label_01008085
@  #01 @013   ----------------------------------------
 .byte   PATT
  .word Label_01008071
@  #01 @014   ----------------------------------------
 .byte   PATT
  .word Label_01008085
@  #01 @015   ----------------------------------------
 .byte   PATT
  .word Label_01008071
@  #01 @016   ----------------------------------------
 .byte   PATT
  .word Label_01008085
@  #01 @017   ----------------------------------------
 .byte   PATT
  .word Label_01008071
@  #01 @018   ----------------------------------------
 .byte   PATT
  .word Label_01008085
@  #01 @019   ----------------------------------------
 .byte   PATT
  .word Label_01008071
@  #01 @020   ----------------------------------------
 .byte   PATT
  .word Label_01008085
@  #01 @021   ----------------------------------------
 .byte   PATT
  .word Label_01008071
@  #01 @022   ----------------------------------------
 .byte   PATT
  .word Label_01008085
@  #01 @023   ----------------------------------------
 .byte   PATT
  .word Label_01008071
@  #01 @024   ----------------------------------------
 .byte   PATT
  .word Label_01008085
@  #01 @025   ----------------------------------------
 .byte   PATT
  .word Label_01008071
@  #01 @026   ----------------------------------------
 .byte   PATT
  .word Label_01008085
@  #01 @027   ----------------------------------------
 .byte   PATT
  .word Label_01008071
@  #01 @028   ----------------------------------------
 .byte   PATT
  .word Label_01008085
@  #01 @029   ----------------------------------------
 .byte   PATT
  .word Label_01008071
@  #01 @030   ----------------------------------------
 .byte   PATT
  .word Label_01008085
@  #01 @031   ----------------------------------------
 .byte   PATT
  .word Label_01008071
@  #01 @032   ----------------------------------------
 .byte   PATT
  .word Label_01008085
@  #01 @033   ----------------------------------------
 .byte   PATT
  .word Label_01008071
@  #01 @034   ----------------------------------------
 .byte   PATT
  .word Label_01008085
@  #01 @035   ----------------------------------------
 .byte   PATT
  .word Label_01008071
@  #01 @036   ----------------------------------------
 .byte   PATT
  .word Label_01008085
@  #01 @037   ----------------------------------------
 .byte   PATT
  .word Label_01008071
@  #01 @038   ----------------------------------------
 .byte   PATT
  .word Label_01008085
@  #01 @039   ----------------------------------------
 .byte   PATT
  .word Label_01008071
@  #01 @040   ----------------------------------------
 .byte   PATT
  .word Label_01008085
@  #01 @041   ----------------------------------------
 .byte   PATT
  .word Label_01008071
@  #01 @042   ----------------------------------------
 .byte   PATT
  .word Label_01008085
@  #01 @043   ----------------------------------------
 .byte   PATT
  .word Label_01008071
@  #01 @044   ----------------------------------------
 .byte   PATT
  .word Label_01008085
@  #01 @045   ----------------------------------------
 .byte   PATT
  .word Label_01008071
@  #01 @046   ----------------------------------------
 .byte   N12 ,Bn0 ,v108
 .byte   W12
 .byte   Gn1
 .byte   W12
 .byte   N24 ,Fn1
 .byte   W24
 .byte   N18 ,Dn1
 .byte   W48
@  #01 @047   ----------------------------------------
 .byte   W96
@  #01 @048   ----------------------------------------
 .byte   W48
 .byte   Dn1
 .byte   W18
 .byte   N06 ,Cn1
 .byte   W06
 .byte   N24 ,Dn1
 .byte   W24
@  #01 @049   ----------------------------------------
 .byte   PATT
  .word Label_01008071
@  #01 @050   ----------------------------------------
 .byte   PATT
  .word Label_01008085
@  #01 @051   ----------------------------------------
 .byte   PATT
  .word Label_01008071
@  #01 @052   ----------------------------------------
 .byte   PATT
  .word Label_01008085
@  #01 @053   ----------------------------------------
 .byte   PATT
  .word Label_01008071
@  #01 @054   ----------------------------------------
 .byte   PATT
  .word Label_01008085
@  #01 @055   ----------------------------------------
 .byte   PATT
  .word Label_01008071
@  #01 @056   ----------------------------------------
 .byte   PATT
  .word Label_01008085
@  #01 @057   ----------------------------------------
 .byte   PATT
  .word Label_01008071
@  #01 @058   ----------------------------------------
 .byte   PATT
  .word Label_01008085
@  #01 @059   ----------------------------------------
 .byte   PATT
  .word Label_01008071
@  #01 @060   ----------------------------------------
 .byte   PATT
  .word Label_01008085
@  #01 @061   ----------------------------------------
 .byte   PATT
  .word Label_01008071
@  #01 @062   ----------------------------------------
 .byte   PATT
  .word Label_01008085
@  #01 @063   ----------------------------------------
 .byte   PATT
  .word Label_01008071
@  #01 @064   ----------------------------------------
 .byte   PATT
  .word Label_01008085
@  #01 @065   ----------------------------------------
 .byte   PATT
  .word Label_01008071
@  #01 @066   ----------------------------------------
 .byte   PATT
  .word Label_01008085
@  #01 @067   ----------------------------------------
 .byte   PATT
  .word Label_01008071
@  #01 @068   ----------------------------------------
 .byte   PATT
  .word Label_01008085
@  #01 @069   ----------------------------------------
 .byte   PATT
  .word Label_01008071
@  #01 @070   ----------------------------------------
 .byte   PATT
  .word Label_01008085
@  #01 @071   ----------------------------------------
 .byte   PATT
  .word Label_01008071
@  #01 @072   ----------------------------------------
 .byte   N12 ,Bn0 ,v108
 .byte   W12
 .byte   Gn1
 .byte   W12
 .byte   N24 ,Fn1
 .byte   W18
 .byte   GOTO
  .word Label_010080BA
@  #01 @073   ----------------------------------------
 .byte   W54
 .byte   FINE

@**************** Track 2 (Midi-Chn.1) ****************@

song02_002:
@  #02 @000   ----------------------------------------
 .byte   KEYSH , song02_key+0
 .byte   VOICE , 94
 .byte   VOL , 22*song02_mvl/mxv
 .byte   PAN , c_v+30
 .byte   BENDR, 12
 .byte   W48
 .byte   TIE ,Dn3 ,v108
 .byte   TIE ,Dn2
 .byte   W48
@  #02 @001   ----------------------------------------
Label_01003D61:
 .byte   W48
 .byte   N96 ,Dn4 ,v059
 .byte   W48
 .byte   PEND 
@  #02 @002   ----------------------------------------
Label_01003D67:
 .byte   W48
 .byte   EOT
 .byte   Dn2 ,v062
 .byte   TIE ,Dn4 ,v108
 .byte   TIE ,Dn3
 .byte   W48
 .byte   PEND 
@  #02 @003   ----------------------------------------
 .byte   Dn5 ,v059
 .byte   W96
@  #02 @004   ----------------------------------------
Label_01003D75:
 .byte   W48
 .byte   EOT
 .byte   Dn3 ,v074
 .byte   Dn5
 .byte   TIE ,Dn3 ,v108
 .byte   TIE ,Dn2
 .byte   W48
 .byte   PEND 
@  #02 @005   ----------------------------------------
 .byte   PATT
  .word Label_01003D61
@  #02 @006   ----------------------------------------
 .byte   PATT
  .word Label_01003D67
@  #02 @007   ----------------------------------------
 .byte   TIE ,Dn5 ,v059
 .byte   W96
@  #02 @008   ----------------------------------------
 .byte   W48
 .byte   EOT
 .byte   Dn3 ,v074
 .byte   Dn5
Label_01003D94:
 .byte   W48
@  #02 @009   ----------------------------------------
 .byte   W96
@  #02 @010   ----------------------------------------
 .byte   W96
@  #02 @011   ----------------------------------------
 .byte   W96
@  #02 @012   ----------------------------------------
 .byte   W96
@  #02 @013   ----------------------------------------
 .byte   W96
@  #02 @014   ----------------------------------------
 .byte   W96
@  #02 @015   ----------------------------------------
 .byte   W96
@  #02 @016   ----------------------------------------
 .byte   W96
@  #02 @017   ----------------------------------------
 .byte   W96
@  #02 @018   ----------------------------------------
 .byte   W96
@  #02 @019   ----------------------------------------
 .byte   W96
@  #02 @020   ----------------------------------------
 .byte   W96
@  #02 @021   ----------------------------------------
 .byte   W96
@  #02 @022   ----------------------------------------
 .byte   W96
@  #02 @023   ----------------------------------------
 .byte   W96
@  #02 @024   ----------------------------------------
Label_01003DA4:
 .byte   W48
 .byte   TIE ,Dn3 ,v108
 .byte   TIE ,Dn2
 .byte   W48
 .byte   PEND 
@  #02 @025   ----------------------------------------
 .byte   PATT
  .word Label_01003D61
@  #02 @026   ----------------------------------------
 .byte   PATT
  .word Label_01003D67
@  #02 @027   ----------------------------------------
 .byte   TIE ,Dn5 ,v059
 .byte   W96
@  #02 @028   ----------------------------------------
 .byte   PATT
  .word Label_01003D75
@  #02 @029   ----------------------------------------
 .byte   PATT
  .word Label_01003D61
@  #02 @030   ----------------------------------------
 .byte   PATT
  .word Label_01003D67
@  #02 @031   ----------------------------------------
 .byte   TIE ,Dn5 ,v059
 .byte   W96
@  #02 @032   ----------------------------------------
 .byte   W48
 .byte   EOT
 .byte   Dn3 ,v074
 .byte   Dn5
 .byte   W48
@  #02 @033   ----------------------------------------
 .byte   W96
@  #02 @034   ----------------------------------------
 .byte   W96
@  #02 @035   ----------------------------------------
 .byte   W96
@  #02 @036   ----------------------------------------
 .byte   W96
@  #02 @037   ----------------------------------------
 .byte   W96
@  #02 @038   ----------------------------------------
 .byte   W96
@  #02 @039   ----------------------------------------
 .byte   W96
@  #02 @040   ----------------------------------------
 .byte   W96
@  #02 @041   ----------------------------------------
 .byte   W96
@  #02 @042   ----------------------------------------
 .byte   W96
@  #02 @043   ----------------------------------------
 .byte   W96
@  #02 @044   ----------------------------------------
 .byte   W96
@  #02 @045   ----------------------------------------
 .byte   W96
@  #02 @046   ----------------------------------------
 .byte   W96
@  #02 @047   ----------------------------------------
 .byte   W96
@  #02 @048   ----------------------------------------
 .byte   W96
@  #02 @049   ----------------------------------------
 .byte   W96
@  #02 @050   ----------------------------------------
 .byte   W96
@  #02 @051   ----------------------------------------
 .byte   W96
@  #02 @052   ----------------------------------------
 .byte   W96
@  #02 @053   ----------------------------------------
 .byte   W96
@  #02 @054   ----------------------------------------
 .byte   W96
@  #02 @055   ----------------------------------------
 .byte   W96
@  #02 @056   ----------------------------------------
 .byte   W96
@  #02 @057   ----------------------------------------
 .byte   W96
@  #02 @058   ----------------------------------------
 .byte   W96
@  #02 @059   ----------------------------------------
 .byte   W96
@  #02 @060   ----------------------------------------
 .byte   W96
@  #02 @061   ----------------------------------------
 .byte   W96
@  #02 @062   ----------------------------------------
 .byte   W96
@  #02 @063   ----------------------------------------
 .byte   W96
@  #02 @064   ----------------------------------------
 .byte   PATT
  .word Label_01003DA4
@  #02 @065   ----------------------------------------
 .byte   PATT
  .word Label_01003D61
@  #02 @066   ----------------------------------------
 .byte   PATT
  .word Label_01003D67
@  #02 @067   ----------------------------------------
 .byte   TIE ,Dn5 ,v059
 .byte   W96
@  #02 @068   ----------------------------------------
 .byte   PATT
  .word Label_01003D75
@  #02 @069   ----------------------------------------
 .byte   PATT
  .word Label_01003D61
@  #02 @070   ----------------------------------------
 .byte   PATT
  .word Label_01003D67
@  #02 @071   ----------------------------------------
 .byte   TIE ,Dn5 ,v059
 .byte   W96
@  #02 @072   ----------------------------------------
 .byte   W42
 .byte   GOTO
  .word Label_01003D94
@  #02 @073   ----------------------------------------
 .byte   W06
 .byte   EOT
 .byte   Dn3 ,v074
 .byte   Dn5
 .byte   W48
 .byte   FINE

@**************** Track 3 (Midi-Chn.2) ****************@

song02_003:
@  #03 @000   ----------------------------------------
 .byte   KEYSH , song02_key+0
 .byte   VOICE , 59
 .byte   VOL , 72*song02_mvl/mxv
 .byte   PAN , c_v+12
 .byte   BENDR, 12
 .byte   W96
@  #03 @001   ----------------------------------------
 .byte   W96
@  #03 @002   ----------------------------------------
 .byte   W96
@  #03 @003   ----------------------------------------
 .byte   W96
@  #03 @004   ----------------------------------------
 .byte   W96
@  #03 @005   ----------------------------------------
 .byte   W96
@  #03 @006   ----------------------------------------
 .byte   W96
@  #03 @007   ----------------------------------------
 .byte   W96
@  #03 @008   ----------------------------------------
 .byte   W48
Label_01008417:
 .byte   N04 ,Fn3 ,v112
 .byte   W06
 .byte   N06 ,En3
 .byte   W12
 .byte   Dn3
 .byte   W30
@  #03 @009   ----------------------------------------
Label_01008420:
 .byte   W12
 .byte   N06 ,An2 ,v112
 .byte   W12
 .byte   N04 ,Cn3
 .byte   W06
 .byte   N06 ,Dn3
 .byte   W12
 .byte   An2
 .byte   W12
 .byte   Cn3
 .byte   W12
 .byte   Dn3
 .byte   W30
 .byte   PEND 
@  #03 @010   ----------------------------------------
Label_01008432:
 .byte   W48
 .byte   N04 ,Fn3 ,v112
 .byte   W06
 .byte   N06 ,En3
 .byte   W12
 .byte   Dn3
 .byte   W30
 .byte   PEND 
@  #03 @011   ----------------------------------------
Label_0100843D:
 .byte   W12
 .byte   N06 ,An2 ,v112
 .byte   W12
 .byte   N04 ,Cn3
 .byte   W06
 .byte   N06 ,Dn3
 .byte   W12
 .byte   Dn3
 .byte   W12
 .byte   Dn3
 .byte   W12
 .byte   Dn3
 .byte   W30
 .byte   PEND 
@  #03 @012   ----------------------------------------
 .byte   PATT
  .word Label_01008432
@  #03 @013   ----------------------------------------
 .byte   PATT
  .word Label_01008420
@  #03 @014   ----------------------------------------
 .byte   PATT
  .word Label_01008432
@  #03 @015   ----------------------------------------
 .byte   PATT
  .word Label_0100843D
@  #03 @016   ----------------------------------------
 .byte   PATT
  .word Label_01008432
@  #03 @017   ----------------------------------------
 .byte   PATT
  .word Label_01008420
@  #03 @018   ----------------------------------------
 .byte   PATT
  .word Label_01008432
@  #03 @019   ----------------------------------------
 .byte   PATT
  .word Label_0100843D
@  #03 @020   ----------------------------------------
 .byte   PATT
  .word Label_01008432
@  #03 @021   ----------------------------------------
 .byte   PATT
  .word Label_01008420
@  #03 @022   ----------------------------------------
 .byte   PATT
  .word Label_01008432
@  #03 @023   ----------------------------------------
 .byte   PATT
  .word Label_0100843D
@  #03 @024   ----------------------------------------
 .byte   W96
@  #03 @025   ----------------------------------------
 .byte   W96
@  #03 @026   ----------------------------------------
 .byte   W96
@  #03 @027   ----------------------------------------
 .byte   W96
@  #03 @028   ----------------------------------------
 .byte   W96
@  #03 @029   ----------------------------------------
 .byte   W96
@  #03 @030   ----------------------------------------
 .byte   W96
@  #03 @031   ----------------------------------------
 .byte   W96
@  #03 @032   ----------------------------------------
 .byte   PATT
  .word Label_01008432
@  #03 @033   ----------------------------------------
 .byte   PATT
  .word Label_01008420
@  #03 @034   ----------------------------------------
 .byte   PATT
  .word Label_01008432
@  #03 @035   ----------------------------------------
 .byte   PATT
  .word Label_0100843D
@  #03 @036   ----------------------------------------
 .byte   PATT
  .word Label_01008432
@  #03 @037   ----------------------------------------
 .byte   PATT
  .word Label_01008420
@  #03 @038   ----------------------------------------
 .byte   PATT
  .word Label_01008432
@  #03 @039   ----------------------------------------
 .byte   PATT
  .word Label_0100843D
@  #03 @040   ----------------------------------------
 .byte   PATT
  .word Label_01008432
@  #03 @041   ----------------------------------------
 .byte   PATT
  .word Label_01008420
@  #03 @042   ----------------------------------------
 .byte   PATT
  .word Label_01008432
@  #03 @043   ----------------------------------------
 .byte   PATT
  .word Label_0100843D
@  #03 @044   ----------------------------------------
 .byte   PATT
  .word Label_01008432
@  #03 @045   ----------------------------------------
 .byte   PATT
  .word Label_01008420
@  #03 @046   ----------------------------------------
 .byte   PATT
  .word Label_01008432
@  #03 @047   ----------------------------------------
 .byte   PATT
  .word Label_0100843D
@  #03 @048   ----------------------------------------
Label_010084E3:
 .byte   W72
 .byte   N06 ,An2 ,v112
 .byte   W06
 .byte   Cn3
 .byte   W06
 .byte   Dn3
 .byte   W12
 .byte   PEND 
@  #03 @049   ----------------------------------------
Label_010084ED:
 .byte   N06 ,Dn3 ,v112
 .byte   W12
 .byte   Cn3
 .byte   W12
 .byte   Dn3
 .byte   W12
 .byte   En3
 .byte   W12
 .byte   N24 ,Gn3
 .byte   W24
 .byte   En3
 .byte   W24
 .byte   PEND 
@  #03 @050   ----------------------------------------
Label_010084FD:
 .byte   N24 ,Dn3 ,v112
 .byte   W24
 .byte   Cn3
 .byte   W48
 .byte   N06 ,An2
 .byte   W06
 .byte   Cn3
 .byte   W06
 .byte   Dn3
 .byte   W12
 .byte   PEND 
@  #03 @051   ----------------------------------------
Label_0100850B:
 .byte   N06 ,Dn3 ,v112
 .byte   W12
 .byte   Cn3
 .byte   W12
 .byte   Dn3
 .byte   W12
 .byte   En3
 .byte   W12
 .byte   N12 ,Gn3
 .byte   W18
 .byte   N06
 .byte   W18
 .byte   N60 ,An3
 .byte   W12
 .byte   PEND 
@  #03 @052   ----------------------------------------
 .byte   PATT
  .word Label_010084E3
@  #03 @053   ----------------------------------------
 .byte   PATT
  .word Label_010084ED
@  #03 @054   ----------------------------------------
 .byte   PATT
  .word Label_010084FD
@  #03 @055   ----------------------------------------
 .byte   PATT
  .word Label_0100850B
@  #03 @056   ----------------------------------------
 .byte   PATT
  .word Label_010084E3
@  #03 @057   ----------------------------------------
 .byte   PATT
  .word Label_010084ED
@  #03 @058   ----------------------------------------
 .byte   PATT
  .word Label_010084FD
@  #03 @059   ----------------------------------------
 .byte   PATT
  .word Label_0100850B
@  #03 @060   ----------------------------------------
 .byte   PATT
  .word Label_010084E3
@  #03 @061   ----------------------------------------
 .byte   PATT
  .word Label_010084ED
@  #03 @062   ----------------------------------------
 .byte   PATT
  .word Label_010084FD
@  #03 @063   ----------------------------------------
 .byte   PATT
  .word Label_0100850B
@  #03 @064   ----------------------------------------
 .byte   W96
@  #03 @065   ----------------------------------------
 .byte   W96
@  #03 @066   ----------------------------------------
 .byte   W96
@  #03 @067   ----------------------------------------
 .byte   W96
@  #03 @068   ----------------------------------------
 .byte   W96
@  #03 @069   ----------------------------------------
 .byte   W96
@  #03 @070   ----------------------------------------
 .byte   W96
@  #03 @071   ----------------------------------------
 .byte   W96
@  #03 @072   ----------------------------------------
 .byte   W42
 .byte   GOTO
  .word Label_01008417
@  #03 @073   ----------------------------------------
 .byte   W54
 .byte   VOICE , 57
 .byte   FINE

@**************** Track 4 (Midi-Chn.3) ****************@

song02_004:
@  #04 @000   ----------------------------------------
 .byte   KEYSH , song02_key+0
 .byte   VOICE , 18
 .byte   VOL , 23*song02_mvl/mxv
 .byte   BENDR, 12
 .byte   PAN , c_v-32
 .byte   W96
@  #04 @001   ----------------------------------------
 .byte   W96
@  #04 @002   ----------------------------------------
 .byte   W96
@  #04 @003   ----------------------------------------
 .byte   W96
@  #04 @004   ----------------------------------------
 .byte   W96
@  #04 @005   ----------------------------------------
 .byte   W96
@  #04 @006   ----------------------------------------
 .byte   W96
@  #04 @007   ----------------------------------------
 .byte   W96
@  #04 @008   ----------------------------------------
 .byte   W48
Label_01003EDB:
 .byte   N12 ,En4 ,v085
 .byte   N12 ,An3
 .byte   N12 ,Dn4
 .byte   N12 ,An4
 .byte   W18
 .byte   En4
 .byte   N12 ,An3
 .byte   N12 ,Dn4
 .byte   N12 ,An4
 .byte   W18
 .byte   En4
 .byte   N12 ,An3
 .byte   N12 ,Dn4
 .byte   N12 ,An4
 .byte   W12
@  #04 @009   ----------------------------------------
Label_01003EF5:
 .byte   W06
 .byte   N12 ,En4 ,v085
 .byte   N12 ,An3
 .byte   N12 ,Dn4
 .byte   N12 ,An4
 .byte   W18
 .byte   En4
 .byte   N12 ,An3
 .byte   N12 ,Dn4
 .byte   N12 ,An4
 .byte   W24
 .byte   En4
 .byte   N12 ,An3
 .byte   N12 ,An4
 .byte   N12 ,Dn4
 .byte   W18
 .byte   En4
 .byte   N12 ,An3
 .byte   N12 ,An4
 .byte   N12 ,Dn4
 .byte   W18
 .byte   En4
 .byte   N12 ,An3
 .byte   N12 ,An4
 .byte   N12 ,Dn4
 .byte   W12
 .byte   PEND 
@  #04 @010   ----------------------------------------
Label_01003F21:
 .byte   N24 ,Cn4 ,v085
 .byte   N24 ,Cn5
 .byte   N24 ,Gn4
 .byte   N24 ,Dn4
 .byte   W24
 .byte   Bn3
 .byte   N24 ,Bn4
 .byte   N24 ,Gn4
 .byte   N24 ,Dn4
 .byte   W24
 .byte   N12 ,En4
 .byte   N12 ,An3
 .byte   N12 ,Dn4
 .byte   N12 ,An4
 .byte   W18
 .byte   En4
 .byte   N12 ,An3
 .byte   N12 ,Dn4
 .byte   N12 ,An4
 .byte   W18
 .byte   En4
 .byte   N12 ,An3
 .byte   N12 ,Dn4
 .byte   N12 ,An4
 .byte   W12
 .byte   PEND 
@  #04 @011   ----------------------------------------
 .byte   PATT
  .word Label_01003EF5
@  #04 @012   ----------------------------------------
Label_01003F52:
 .byte   N24 ,Cn5 ,v085
 .byte   N24 ,Cn4
 .byte   N24 ,Gs4
 .byte   N24 ,Fn4
 .byte   W24
 .byte   Dn4
 .byte   N24 ,Dn5
 .byte   N24 ,Bn4
 .byte   N24 ,Fn4
 .byte   W24
 .byte   N12 ,En4
 .byte   N12 ,An3
 .byte   N12 ,Dn4
 .byte   N12 ,An4
 .byte   W18
 .byte   En4
 .byte   N12 ,An3
 .byte   N12 ,Dn4
 .byte   N12 ,An4
 .byte   W18
 .byte   En4
 .byte   N12 ,An3
 .byte   N12 ,Dn4
 .byte   N12 ,An4
 .byte   W12
 .byte   PEND 
@  #04 @013   ----------------------------------------
 .byte   PATT
  .word Label_01003EF5
@  #04 @014   ----------------------------------------
 .byte   PATT
  .word Label_01003F21
@  #04 @015   ----------------------------------------
 .byte   PATT
  .word Label_01003EF5
@  #04 @016   ----------------------------------------
 .byte   PATT
  .word Label_01003F52
@  #04 @017   ----------------------------------------
 .byte   PATT
  .word Label_01003EF5
@  #04 @018   ----------------------------------------
 .byte   PATT
  .word Label_01003F21
@  #04 @019   ----------------------------------------
 .byte   PATT
  .word Label_01003EF5
@  #04 @020   ----------------------------------------
 .byte   PATT
  .word Label_01003F52
@  #04 @021   ----------------------------------------
 .byte   PATT
  .word Label_01003EF5
@  #04 @022   ----------------------------------------
 .byte   PATT
  .word Label_01003F21
@  #04 @023   ----------------------------------------
 .byte   PATT
  .word Label_01003EF5
@  #04 @024   ----------------------------------------
 .byte   N24 ,Cn5 ,v085
 .byte   N24 ,Cn4
 .byte   N24 ,Gs4
 .byte   N24 ,Fn4
 .byte   W24
 .byte   Dn4
 .byte   N24 ,Dn5
 .byte   N24 ,Bn4
 .byte   N24 ,Fn4
 .byte   W72
@  #04 @025   ----------------------------------------
 .byte   W96
@  #04 @026   ----------------------------------------
 .byte   W96
@  #04 @027   ----------------------------------------
 .byte   W96
@  #04 @028   ----------------------------------------
 .byte   W96
@  #04 @029   ----------------------------------------
 .byte   W96
@  #04 @030   ----------------------------------------
 .byte   W96
@  #04 @031   ----------------------------------------
 .byte   W96
@  #04 @032   ----------------------------------------
 .byte   W48
 .byte   N12 ,En4
 .byte   N12 ,An3
 .byte   N12 ,Dn4
 .byte   N12 ,An4
 .byte   W18
 .byte   En4
 .byte   N12 ,An3
 .byte   N12 ,Dn4
 .byte   N12 ,An4
 .byte   W18
 .byte   En4
 .byte   N12 ,An3
 .byte   N12 ,Dn4
 .byte   N12 ,An4
 .byte   W12
@  #04 @033   ----------------------------------------
 .byte   PATT
  .word Label_01003EF5
@  #04 @034   ----------------------------------------
 .byte   PATT
  .word Label_01003F21
@  #04 @035   ----------------------------------------
 .byte   PATT
  .word Label_01003EF5
@  #04 @036   ----------------------------------------
 .byte   PATT
  .word Label_01003F52
@  #04 @037   ----------------------------------------
 .byte   PATT
  .word Label_01003EF5
@  #04 @038   ----------------------------------------
 .byte   PATT
  .word Label_01003F21
@  #04 @039   ----------------------------------------
 .byte   PATT
  .word Label_01003EF5
@  #04 @040   ----------------------------------------
 .byte   PATT
  .word Label_01003F52
@  #04 @041   ----------------------------------------
 .byte   PATT
  .word Label_01003EF5
@  #04 @042   ----------------------------------------
 .byte   PATT
  .word Label_01003F21
@  #04 @043   ----------------------------------------
 .byte   PATT
  .word Label_01003EF5
@  #04 @044   ----------------------------------------
 .byte   PATT
  .word Label_01003F52
@  #04 @045   ----------------------------------------
 .byte   PATT
  .word Label_01003EF5
@  #04 @046   ----------------------------------------
 .byte   N24 ,Cn4 ,v085
 .byte   N24 ,Cn5
 .byte   N24 ,Gn4
 .byte   N24 ,Dn4
 .byte   W24
 .byte   Bn3
 .byte   N24 ,Bn4
 .byte   N24 ,Gn4
 .byte   N24 ,Dn4
 .byte   W72
@  #04 @047   ----------------------------------------
 .byte   W96
@  #04 @048   ----------------------------------------
Label_0100403C:
 .byte   W48
 .byte   N96 ,An3 ,v085
 .byte   N96 ,En4
 .byte   N96 ,An4
 .byte   N96 ,Cn4
 .byte   W48
 .byte   PEND 
@  #04 @049   ----------------------------------------
Label_01004048:
 .byte   W48
 .byte   N96 ,Bn3 ,v085
 .byte   N96 ,Gn4
 .byte   N96 ,Bn4
 .byte   N96 ,Dn4
 .byte   W48
 .byte   PEND 
@  #04 @050   ----------------------------------------
Label_01004054:
 .byte   W48
 .byte   N96 ,Fn4 ,v085
 .byte   N96 ,Cn4
 .byte   N96 ,An4
 .byte   N96 ,Cn5
 .byte   W48
 .byte   PEND 
@  #04 @051   ----------------------------------------
 .byte   PATT
  .word Label_01004048
@  #04 @052   ----------------------------------------
 .byte   PATT
  .word Label_0100403C
@  #04 @053   ----------------------------------------
 .byte   PATT
  .word Label_01004048
@  #04 @054   ----------------------------------------
 .byte   PATT
  .word Label_01004054
@  #04 @055   ----------------------------------------
 .byte   PATT
  .word Label_01004048
@  #04 @056   ----------------------------------------
 .byte   PATT
  .word Label_0100403C
@  #04 @057   ----------------------------------------
 .byte   PATT
  .word Label_01004048
@  #04 @058   ----------------------------------------
 .byte   PATT
  .word Label_01004054
@  #04 @059   ----------------------------------------
 .byte   PATT
  .word Label_01004048
@  #04 @060   ----------------------------------------
 .byte   PATT
  .word Label_0100403C
@  #04 @061   ----------------------------------------
 .byte   PATT
  .word Label_01004048
@  #04 @062   ----------------------------------------
 .byte   PATT
  .word Label_01004054
@  #04 @063   ----------------------------------------
 .byte   PATT
  .word Label_01004048
@  #04 @064   ----------------------------------------
 .byte   W96
@  #04 @065   ----------------------------------------
 .byte   W96
@  #04 @066   ----------------------------------------
 .byte   W96
@  #04 @067   ----------------------------------------
 .byte   W96
@  #04 @068   ----------------------------------------
 .byte   W96
@  #04 @069   ----------------------------------------
 .byte   W96
@  #04 @070   ----------------------------------------
 .byte   W96
@  #04 @071   ----------------------------------------
 .byte   W96
@  #04 @072   ----------------------------------------
 .byte   W42
 .byte   GOTO
  .word Label_01003EDB
@  #04 @073   ----------------------------------------
 .byte   W54
 .byte   VOICE , 16
 .byte   FINE

@**************** Track 5 (Midi-Chn.4) ****************@

song02_005:
@  #05 @000   ----------------------------------------
 .byte   KEYSH , song02_key+0
 .byte   VOICE , 42
 .byte   VOL , 22*song02_mvl/mxv
 .byte   BENDR, 12
 .byte   PAN , c_v+32
 .byte   W96
@  #05 @001   ----------------------------------------
 .byte   W96
@  #05 @002   ----------------------------------------
 .byte   W96
@  #05 @003   ----------------------------------------
 .byte   W96
@  #05 @004   ----------------------------------------
 .byte   W96
@  #05 @005   ----------------------------------------
 .byte   W96
@  #05 @006   ----------------------------------------
 .byte   W96
@  #05 @007   ----------------------------------------
 .byte   W96
@  #05 @008   ----------------------------------------
 .byte   W48
Label_010005E3:
 .byte   W48
@  #05 @009   ----------------------------------------
 .byte   W96
@  #05 @010   ----------------------------------------
 .byte   W96
@  #05 @011   ----------------------------------------
 .byte   W96
@  #05 @012   ----------------------------------------
 .byte   W96
@  #05 @013   ----------------------------------------
 .byte   W96
@  #05 @014   ----------------------------------------
 .byte   W96
@  #05 @015   ----------------------------------------
 .byte   W96
@  #05 @016   ----------------------------------------
 .byte   W96
@  #05 @017   ----------------------------------------
 .byte   W96
@  #05 @018   ----------------------------------------
 .byte   W96
@  #05 @019   ----------------------------------------
 .byte   W96
@  #05 @020   ----------------------------------------
 .byte   W96
@  #05 @021   ----------------------------------------
 .byte   W96
@  #05 @022   ----------------------------------------
 .byte   W96
@  #05 @023   ----------------------------------------
 .byte   W96
@  #05 @024   ----------------------------------------
 .byte   W96
@  #05 @025   ----------------------------------------
 .byte   W96
@  #05 @026   ----------------------------------------
 .byte   W96
@  #05 @027   ----------------------------------------
 .byte   W96
@  #05 @028   ----------------------------------------
 .byte   W96
@  #05 @029   ----------------------------------------
 .byte   W96
@  #05 @030   ----------------------------------------
 .byte   W96
@  #05 @031   ----------------------------------------
 .byte   W96
@  #05 @032   ----------------------------------------
 .byte   W96
@  #05 @033   ----------------------------------------
 .byte   W96
@  #05 @034   ----------------------------------------
 .byte   W96
@  #05 @035   ----------------------------------------
 .byte   W96
@  #05 @036   ----------------------------------------
 .byte   W96
@  #05 @037   ----------------------------------------
 .byte   W96
@  #05 @038   ----------------------------------------
 .byte   W96
@  #05 @039   ----------------------------------------
 .byte   W96
@  #05 @040   ----------------------------------------
 .byte   W96
@  #05 @041   ----------------------------------------
 .byte   W96
@  #05 @042   ----------------------------------------
 .byte   W96
@  #05 @043   ----------------------------------------
 .byte   W96
@  #05 @044   ----------------------------------------
 .byte   W96
@  #05 @045   ----------------------------------------
 .byte   W96
@  #05 @046   ----------------------------------------
 .byte   W96
@  #05 @047   ----------------------------------------
 .byte   W96
@  #05 @048   ----------------------------------------
 .byte   W48
 .byte   TIE ,En5 ,v085
 .byte   W48
@  #05 @049   ----------------------------------------
 .byte   W96
@  #05 @050   ----------------------------------------
Label_01000611:
 .byte   W36
 .byte   EOT
 .byte   En5
 .byte   N06 ,Gn5 ,v085
 .byte   W06
 .byte   Fn5
 .byte   W06
 .byte   TIE ,En5
 .byte   W48
 .byte   PEND 
@  #05 @051   ----------------------------------------
 .byte   W96
@  #05 @052   ----------------------------------------
Label_0100061F:
 .byte   EOT
 .byte   En5
 .byte   N48 ,Dn5 ,v085
 .byte   W48
 .byte   TIE ,En5
 .byte   W48
 .byte   PEND 
@  #05 @053   ----------------------------------------
 .byte   W96
@  #05 @054   ----------------------------------------
 .byte   PATT
  .word Label_01000611
@  #05 @055   ----------------------------------------
 .byte   W96
@  #05 @056   ----------------------------------------
 .byte   EOT
 .byte   En5
 .byte   N48 ,Gn5 ,v085
 .byte   W48
 .byte   TIE ,En5
 .byte   W48
@  #05 @057   ----------------------------------------
 .byte   W96
@  #05 @058   ----------------------------------------
 .byte   PATT
  .word Label_01000611
@  #05 @059   ----------------------------------------
 .byte   W96
@  #05 @060   ----------------------------------------
 .byte   PATT
  .word Label_0100061F
@  #05 @061   ----------------------------------------
 .byte   W96
@  #05 @062   ----------------------------------------
 .byte   PATT
  .word Label_01000611
@  #05 @063   ----------------------------------------
 .byte   W96
@  #05 @064   ----------------------------------------
 .byte   EOT
 .byte   En5
 .byte   N48 ,Gn5 ,v085
 .byte   W96
@  #05 @065   ----------------------------------------
 .byte   W96
@  #05 @066   ----------------------------------------
 .byte   W96
@  #05 @067   ----------------------------------------
 .byte   W96
@  #05 @068   ----------------------------------------
 .byte   W96
@  #05 @069   ----------------------------------------
 .byte   W96
@  #05 @070   ----------------------------------------
 .byte   W96
@  #05 @071   ----------------------------------------
 .byte   W96
@  #05 @072   ----------------------------------------
 .byte   W42
 .byte   GOTO
  .word Label_010005E3
@  #05 @073   ----------------------------------------
 .byte   W54
 .byte   VOICE , 40
 .byte   FINE

@**************** Track 6 (Midi-Chn.5) ****************@

song02_006:
@  #06 @000   ----------------------------------------
 .byte   KEYSH , song02_key+0
 .byte   VOICE , 104
 .byte   VOL , 36*song02_mvl/mxv
 .byte   BENDR, 12
 .byte   PAN , c_v-25
 .byte   W96
@  #06 @001   ----------------------------------------
 .byte   W96
@  #06 @002   ----------------------------------------
 .byte   W96
@  #06 @003   ----------------------------------------
 .byte   W96
@  #06 @004   ----------------------------------------
 .byte   W96
@  #06 @005   ----------------------------------------
 .byte   W96
@  #06 @006   ----------------------------------------
 .byte   W96
@  #06 @007   ----------------------------------------
 .byte   W96
@  #06 @008   ----------------------------------------
 .byte   W48
Label_01003037:
 .byte   W48
@  #06 @009   ----------------------------------------
 .byte   W96
@  #06 @010   ----------------------------------------
 .byte   W96
@  #06 @011   ----------------------------------------
 .byte   W96
@  #06 @012   ----------------------------------------
 .byte   W96
@  #06 @013   ----------------------------------------
 .byte   W96
@  #06 @014   ----------------------------------------
 .byte   W96
@  #06 @015   ----------------------------------------
 .byte   W96
@  #06 @016   ----------------------------------------
 .byte   W96
@  #06 @017   ----------------------------------------
 .byte   W96
@  #06 @018   ----------------------------------------
 .byte   W96
@  #06 @019   ----------------------------------------
 .byte   W96
@  #06 @020   ----------------------------------------
 .byte   W96
@  #06 @021   ----------------------------------------
 .byte   W96
@  #06 @022   ----------------------------------------
 .byte   W96
@  #06 @023   ----------------------------------------
 .byte   W96
@  #06 @024   ----------------------------------------
 .byte   W96
@  #06 @025   ----------------------------------------
 .byte   W96
@  #06 @026   ----------------------------------------
 .byte   W96
@  #06 @027   ----------------------------------------
 .byte   W96
@  #06 @028   ----------------------------------------
 .byte   W96
@  #06 @029   ----------------------------------------
 .byte   W96
@  #06 @030   ----------------------------------------
 .byte   W96
@  #06 @031   ----------------------------------------
 .byte   W96
@  #06 @032   ----------------------------------------
 .byte   W96
@  #06 @033   ----------------------------------------
 .byte   W96
@  #06 @034   ----------------------------------------
 .byte   W96
@  #06 @035   ----------------------------------------
 .byte   W96
@  #06 @036   ----------------------------------------
 .byte   W96
@  #06 @037   ----------------------------------------
 .byte   W96
@  #06 @038   ----------------------------------------
 .byte   W96
@  #06 @039   ----------------------------------------
 .byte   W96
@  #06 @040   ----------------------------------------
 .byte   W96
@  #06 @041   ----------------------------------------
 .byte   W96
@  #06 @042   ----------------------------------------
 .byte   W96
@  #06 @043   ----------------------------------------
 .byte   W96
@  #06 @044   ----------------------------------------
 .byte   W96
@  #06 @045   ----------------------------------------
 .byte   W96
@  #06 @046   ----------------------------------------
 .byte   W96
@  #06 @047   ----------------------------------------
 .byte   W96
@  #06 @048   ----------------------------------------
 .byte   W60
 .byte   N12 ,An3 ,v085
 .byte   W32
 .byte   W03
 .byte   PAN , c_v+25
 .byte   W01
@  #06 @049   ----------------------------------------
Label_01003068:
 .byte   N12 ,An2 ,v085
 .byte   W32
 .byte   W03
 .byte   PAN , c_v-25
 .byte   W01
 .byte   N12 ,An3
 .byte   W24
 .byte   An3
 .byte   W32
 .byte   W03
 .byte   PAN , c_v+25
 .byte   W01
 .byte   PEND 
@  #06 @050   ----------------------------------------
 .byte   PATT
  .word Label_01003068
@  #06 @051   ----------------------------------------
 .byte   PATT
  .word Label_01003068
@  #06 @052   ----------------------------------------
 .byte   PATT
  .word Label_01003068
@  #06 @053   ----------------------------------------
 .byte   PATT
  .word Label_01003068
@  #06 @054   ----------------------------------------
 .byte   PATT
  .word Label_01003068
@  #06 @055   ----------------------------------------
 .byte   PATT
  .word Label_01003068
@  #06 @056   ----------------------------------------
 .byte   PATT
  .word Label_01003068
@  #06 @057   ----------------------------------------
 .byte   PATT
  .word Label_01003068
@  #06 @058   ----------------------------------------
 .byte   PATT
  .word Label_01003068
@  #06 @059   ----------------------------------------
 .byte   PATT
  .word Label_01003068
@  #06 @060   ----------------------------------------
 .byte   PATT
  .word Label_01003068
@  #06 @061   ----------------------------------------
 .byte   PATT
  .word Label_01003068
@  #06 @062   ----------------------------------------
 .byte   PATT
  .word Label_01003068
@  #06 @063   ----------------------------------------
 .byte   PATT
  .word Label_01003068
@  #06 @064   ----------------------------------------
 .byte   N12 ,An2 ,v085
 .byte   W32
 .byte   W03
 .byte   PAN , c_v-25
 .byte   W01
 .byte   N12 ,An3
 .byte   W60
@  #06 @065   ----------------------------------------
 .byte   W96
@  #06 @066   ----------------------------------------
 .byte   W96
@  #06 @067   ----------------------------------------
 .byte   W96
@  #06 @068   ----------------------------------------
 .byte   W96
@  #06 @069   ----------------------------------------
 .byte   W96
@  #06 @070   ----------------------------------------
 .byte   W96
@  #06 @071   ----------------------------------------
 .byte   W96
@  #06 @072   ----------------------------------------
 .byte   W42
 .byte   GOTO
  .word Label_01003037
@  #06 @073   ----------------------------------------
 .byte   W54
 .byte   VOICE , 98
 .byte   FINE

@**************** Track 7 (Midi-Chn.6) ****************@

song02_007:
@  #07 @000   ----------------------------------------
 .byte   KEYSH , song02_key+0
 .byte   VOICE , 124
 .byte   VOL , 41*song02_mvl/mxv
 .byte   BENDR, 12
 .byte   W48
 .byte   N03 ,As3 ,v108
 .byte   N03 ,Gs1 ,v111
 .byte   W12
 .byte   Gs1 ,v059
 .byte   W12
 .byte   Gs1 ,v058
 .byte   W12
 .byte   Gs1 ,v127
 .byte   W12
@  #07 @001   ----------------------------------------
Label_01008F49:
 .byte   N03 ,Gs1 ,v059
 .byte   W12
 .byte   Gs1
 .byte   W12
 .byte   Gs1 ,v127
 .byte   W12
 .byte   Gs1 ,v059
 .byte   W12
 .byte   As3 ,v108
 .byte   N03 ,Gs1 ,v111
 .byte   W12
 .byte   Gs1 ,v059
 .byte   W12
 .byte   Gs1 ,v058
 .byte   W12
 .byte   Gs1 ,v127
 .byte   W12
 .byte   PEND 
@  #07 @002   ----------------------------------------
 .byte   PATT
  .word Label_01008F49
@  #07 @003   ----------------------------------------
 .byte   PATT
  .word Label_01008F49
@  #07 @004   ----------------------------------------
 .byte   N03 ,Gs1 ,v036
 .byte   W12
 .byte   Gs1
 .byte   W12
 .byte   Gs1 ,v127
 .byte   W12
 .byte   Gs1 ,v059
 .byte   W12
 .byte   As3 ,v108
 .byte   N03 ,Gs1 ,v111
 .byte   W12
 .byte   Gs1 ,v059
 .byte   W12
 .byte   Gs1 ,v058
 .byte   W12
 .byte   Gs1 ,v127
 .byte   W12
@  #07 @005   ----------------------------------------
 .byte   PATT
  .word Label_01008F49
@  #07 @006   ----------------------------------------
 .byte   PATT
  .word Label_01008F49
@  #07 @007   ----------------------------------------
 .byte   N03 ,Gs1 ,v059
 .byte   W12
 .byte   Gs1
 .byte   W12
 .byte   Gs1 ,v127
 .byte   W12
 .byte   Gs1 ,v059
 .byte   W12
 .byte   As3 ,v108
 .byte   N03 ,Gs1 ,v111
 .byte   W12
 .byte   Gs1 ,v059
 .byte   W12
 .byte   Gs1 ,v058
 .byte   W12
 .byte   Gs1 ,v127
 .byte   W06
 .byte   Cn1 ,v081
 .byte   W06
@  #07 @008   ----------------------------------------
 .byte   Dn1 ,v074
 .byte   N03 ,En1 ,v111
 .byte   N03 ,Gs1 ,v059
 .byte   N03 ,Cs2 ,v127
 .byte   N03 ,Fs0 ,v064
 .byte   W06
 .byte   En1 ,v111
 .byte   N03 ,Fn0 ,v025
 .byte   N03 ,Dn1 ,v074
 .byte   W06
 .byte   Cn1 ,v081
 .byte   N03 ,Fs0 ,v061
 .byte   N03 ,Gs1 ,v059
 .byte   W06
 .byte   En1 ,v111
 .byte   N03 ,Fn0 ,v028
 .byte   N03 ,Dn1 ,v074
 .byte   W06
 .byte   Dn1
 .byte   N03 ,Fn0 ,v043
 .byte   N03 ,En1 ,v111
 .byte   N03 ,Gs1 ,v127
 .byte   N03 ,An2
 .byte   W06
 .byte   Cn1 ,v081
 .byte   N03 ,Fs0 ,v065
 .byte   W06
 .byte   Dn1 ,v074
 .byte   N03 ,Fn0 ,v043
 .byte   N03 ,En1 ,v111
 .byte   N03 ,Gs1 ,v059
 .byte   W12
Label_01008FFB:
 .byte   N03 ,Cn1 ,v081
 .byte   N03 ,Cs2 ,v127
 .byte   N03 ,Fs0 ,v065
 .byte   W06
 .byte   Fn0 ,v031
 .byte   W06
 .byte   Gs1 ,v059
 .byte   N03 ,Fs0 ,v065
 .byte   W06
 .byte   Cn1 ,v081
 .byte   N03 ,Fn0 ,v033
 .byte   W06
 .byte   Dn1 ,v074
 .byte   N03 ,En1 ,v111
 .byte   N03 ,Gs1 ,v059
 .byte   N03 ,Fs0 ,v065
 .byte   W06
 .byte   Fn0 ,v033
 .byte   W06
 .byte   Fs0 ,v065
 .byte   N03 ,Gs1 ,v059
 .byte   W06
 .byte   Fn0 ,v031
 .byte   W06
@  #07 @009   ----------------------------------------
Label_0100902C:
 .byte   N03 ,Gs1 ,v059
 .byte   N03 ,Fs0 ,v065
 .byte   N03 ,Cn1 ,v081
 .byte   W06
 .byte   Fn0 ,v031
 .byte   W06
 .byte   As1 ,v085
 .byte   N03 ,Fs0 ,v065
 .byte   W06
 .byte   Fn0 ,v033
 .byte   W06
 .byte   Gs1 ,v059
 .byte   N03 ,En1 ,v111
 .byte   N03 ,Dn1 ,v074
 .byte   N03 ,Fs0 ,v065
 .byte   W06
 .byte   Fn0 ,v033
 .byte   W06
 .byte   Gs1 ,v059
 .byte   N03 ,Fs0 ,v065
 .byte   W06
 .byte   Fn0 ,v031
 .byte   W06
 .byte   Gs1 ,v059
 .byte   N03 ,Fs0 ,v065
 .byte   N03 ,Cn1 ,v081
 .byte   W06
 .byte   Fn0 ,v031
 .byte   W06
 .byte   Gs1 ,v059
 .byte   N03 ,Fs0 ,v065
 .byte   W06
 .byte   Fn0 ,v033
 .byte   N03 ,Cn1 ,v081
 .byte   W06
 .byte   Fs0 ,v065
 .byte   N03 ,En1 ,v111
 .byte   N03 ,Dn1 ,v074
 .byte   N03 ,Gs1 ,v059
 .byte   W06
 .byte   Fn0 ,v033
 .byte   W06
 .byte   Gs1 ,v059
 .byte   N03 ,Fs0 ,v065
 .byte   W06
 .byte   Fn0 ,v031
 .byte   W06
 .byte   PEND 
@  #07 @010   ----------------------------------------
Label_0100908B:
 .byte   N03 ,Fn0 ,v065
 .byte   N03 ,Ds0 ,v127
 .byte   N03 ,As1 ,v085
 .byte   N03 ,Cn1 ,v081
 .byte   W06
 .byte   Fn0 ,v031
 .byte   W06
 .byte   Gs1 ,v059
 .byte   N03 ,Fs0 ,v065
 .byte   W06
 .byte   Fn0
 .byte   N03 ,Ds0 ,v127
 .byte   W06
 .byte   En1 ,v111
 .byte   N03 ,Dn1 ,v074
 .byte   N03 ,Fs0 ,v065
 .byte   N03 ,As1 ,v085
 .byte   W06
 .byte   Fn0 ,v033
 .byte   W06
 .byte   Fs0 ,v065
 .byte   N03 ,Gs1 ,v059
 .byte   W06
 .byte   Fn0 ,v031
 .byte   W06
 .byte   Cn1 ,v081
 .byte   N03 ,Fs0 ,v065
 .byte   W06
 .byte   Fn0 ,v031
 .byte   W06
 .byte   Gs1 ,v059
 .byte   N03 ,Fs0 ,v065
 .byte   W06
 .byte   Cn1 ,v081
 .byte   N03 ,Fn0 ,v033
 .byte   W06
 .byte   Dn1 ,v074
 .byte   N03 ,En1 ,v111
 .byte   N03 ,Gs1 ,v059
 .byte   N03 ,Fs0 ,v065
 .byte   W06
 .byte   Fn0 ,v033
 .byte   W06
 .byte   Gs1 ,v059
 .byte   N03 ,Fs0 ,v065
 .byte   W06
 .byte   Fn0 ,v031
 .byte   W06
 .byte   PEND 
@  #07 @011   ----------------------------------------
Label_010090EC:
 .byte   N03 ,Cn1 ,v081
 .byte   N03 ,Fs0 ,v065
 .byte   N03 ,Gs1 ,v059
 .byte   W06
 .byte   Fn0 ,v031
 .byte   W06
 .byte   Fs0 ,v065
 .byte   N03 ,As1 ,v085
 .byte   W06
 .byte   Fn0 ,v033
 .byte   W06
 .byte   Fs0 ,v065
 .byte   N03 ,Dn1 ,v074
 .byte   N03 ,En1 ,v111
 .byte   N03 ,Gs1 ,v059
 .byte   W06
 .byte   Fn0 ,v033
 .byte   W06
 .byte   Fs0 ,v065
 .byte   N03 ,Gs1 ,v059
 .byte   W06
 .byte   Fn0 ,v031
 .byte   W06
 .byte   Cn1 ,v081
 .byte   N03 ,Fs0 ,v065
 .byte   N03 ,Gs1 ,v059
 .byte   W06
 .byte   Fn0 ,v031
 .byte   W06
 .byte   Fs0 ,v065
 .byte   N03 ,Gs1 ,v059
 .byte   W06
 .byte   Cn1 ,v081
 .byte   N03 ,Fn0 ,v033
 .byte   W06
 .byte   Gs1 ,v059
 .byte   N03 ,Dn1 ,v074
 .byte   N03 ,En1 ,v111
 .byte   N03 ,Fs0 ,v065
 .byte   W06
 .byte   Fn0 ,v033
 .byte   W06
 .byte   Fs0 ,v065
 .byte   N03 ,Gs1 ,v059
 .byte   W06
 .byte   Fn0 ,v031
 .byte   W06
 .byte   PEND 
@  #07 @012   ----------------------------------------
Label_0100914B:
 .byte   N03 ,Cn1 ,v081
 .byte   N03 ,As1 ,v085
 .byte   N03 ,Ds0 ,v127
 .byte   N03 ,Fn0 ,v065
 .byte   W06
 .byte   Fn0 ,v031
 .byte   W06
 .byte   Fs0 ,v065
 .byte   N03 ,Gs1 ,v059
 .byte   W06
 .byte   Fn0 ,v065
 .byte   N03 ,Ds0 ,v127
 .byte   W06
 .byte   As1 ,v085
 .byte   N03 ,Fs0 ,v065
 .byte   N03 ,Dn1 ,v074
 .byte   N03 ,En1 ,v111
 .byte   W06
 .byte   Fn0 ,v033
 .byte   W06
 .byte   Fs0 ,v065
 .byte   N03 ,Gs1 ,v059
 .byte   W06
 .byte   Fn0 ,v031
 .byte   W06
 .byte   Cn1 ,v081
 .byte   N03 ,Fs0 ,v065
 .byte   W06
 .byte   Fn0 ,v031
 .byte   W06
 .byte   Gs1 ,v059
 .byte   N03 ,Fs0 ,v065
 .byte   W06
 .byte   Cn1 ,v081
 .byte   N03 ,Fn0 ,v033
 .byte   W06
 .byte   Dn1 ,v074
 .byte   N03 ,En1 ,v111
 .byte   N03 ,Gs1 ,v059
 .byte   N03 ,Fs0 ,v065
 .byte   W06
 .byte   Fn0 ,v033
 .byte   W06
 .byte   Gs1 ,v059
 .byte   N03 ,Fs0 ,v065
 .byte   W06
 .byte   Fn0 ,v031
 .byte   W06
 .byte   PEND 
@  #07 @013   ----------------------------------------
 .byte   PATT
  .word Label_010090EC
@  #07 @014   ----------------------------------------
Label_010091B2:
 .byte   N03 ,Cn1 ,v081
 .byte   N03 ,As1 ,v085
 .byte   N03 ,Ds0 ,v127
 .byte   N03 ,Fn0 ,v065
 .byte   W06
 .byte   Fn0 ,v031
 .byte   W06
 .byte   Fs0 ,v065
 .byte   N03 ,Gs1 ,v059
 .byte   W06
 .byte   Ds0 ,v127
 .byte   N03 ,Fn0 ,v065
 .byte   W06
 .byte   Dn1 ,v074
 .byte   N03 ,En1 ,v111
 .byte   N03 ,As1 ,v085
 .byte   N03 ,Fs0 ,v065
 .byte   W06
 .byte   Fn0 ,v033
 .byte   W06
 .byte   Fs0 ,v065
 .byte   N03 ,Gs1 ,v059
 .byte   W06
 .byte   Fn0 ,v031
 .byte   W06
 .byte   Cn1 ,v081
 .byte   N03 ,Fs0 ,v065
 .byte   W06
 .byte   Fn0 ,v031
 .byte   W06
 .byte   Gs1 ,v059
 .byte   N03 ,Fs0 ,v065
 .byte   W06
 .byte   Cn1 ,v081
 .byte   N03 ,Fn0 ,v033
 .byte   W06
 .byte   Dn1 ,v074
 .byte   N03 ,En1 ,v111
 .byte   N03 ,Gs1 ,v059
 .byte   N03 ,Fs0 ,v065
 .byte   W06
 .byte   Fn0 ,v033
 .byte   W06
 .byte   Gs1 ,v059
 .byte   N03 ,Fs0 ,v065
 .byte   W06
 .byte   Fn0 ,v031
 .byte   W06
 .byte   PEND 
@  #07 @015   ----------------------------------------
Label_01009214:
 .byte   N03 ,Cn1 ,v081
 .byte   N03 ,Fs0 ,v065
 .byte   N03 ,Gs1 ,v059
 .byte   W06
 .byte   Fn0 ,v031
 .byte   W06
 .byte   Fs0 ,v065
 .byte   N03 ,As1 ,v085
 .byte   W06
 .byte   Fn0 ,v033
 .byte   W06
 .byte   Fs0 ,v065
 .byte   N03 ,Dn1 ,v074
 .byte   N03 ,En1 ,v111
 .byte   N03 ,Gs1 ,v059
 .byte   W06
 .byte   Fn0 ,v033
 .byte   W06
 .byte   Fs0 ,v065
 .byte   N03 ,Gs1 ,v059
 .byte   W06
 .byte   Fn0 ,v031
 .byte   W06
 .byte   Cn1 ,v081
 .byte   N03 ,Fs0 ,v065
 .byte   N03 ,Gs1 ,v059
 .byte   W06
 .byte   Fn0 ,v031
 .byte   W06
 .byte   Fs0 ,v065
 .byte   N03 ,Gs1 ,v059
 .byte   W06
 .byte   Cn1 ,v081
 .byte   N03 ,Fn0 ,v033
 .byte   W06
 .byte   Gs1 ,v059
 .byte   N03 ,Dn1 ,v074
 .byte   N03 ,En1 ,v111
 .byte   N03 ,Fs0 ,v065
 .byte   W06
 .byte   Fn0 ,v033
 .byte   W06
 .byte   Gs1 ,v059
 .byte   N03 ,Fs0 ,v065
 .byte   W06
 .byte   Fn0 ,v031
 .byte   N03 ,Dn1 ,v074
 .byte   N03 ,En1 ,v111
 .byte   W06
 .byte   PEND 
@  #07 @016   ----------------------------------------
Label_01009279:
 .byte   N03 ,Cn1 ,v081
 .byte   N03 ,Fn0 ,v065
 .byte   N03 ,Ds0 ,v127
 .byte   N03 ,As1 ,v085
 .byte   W06
 .byte   Fn0 ,v031
 .byte   N03 ,En1 ,v111
 .byte   N03 ,Dn1 ,v074
 .byte   W06
 .byte   En1 ,v111
 .byte   N03 ,Dn1 ,v074
 .byte   N03 ,Gs1 ,v059
 .byte   N03 ,Fs0 ,v065
 .byte   W06
 .byte   Ds0 ,v127
 .byte   N03 ,Fn0 ,v065
 .byte   N03 ,Dn1 ,v074
 .byte   N03 ,En1 ,v111
 .byte   W06
 .byte   As1 ,v085
 .byte   N03 ,Fs0 ,v065
 .byte   W06
 .byte   Fn0 ,v033
 .byte   N03 ,Cn1 ,v081
 .byte   W06
 .byte   En1 ,v111
 .byte   N03 ,Dn1 ,v074
 .byte   N03 ,Gs1 ,v059
 .byte   N03 ,Fs0 ,v065
 .byte   W06
 .byte   Fn0 ,v031
 .byte   W06
 .byte   Cn1 ,v081
 .byte   N03 ,Fs0 ,v065
 .byte   N03 ,Cs2 ,v127
 .byte   W06
 .byte   Fn0 ,v031
 .byte   W06
 .byte   Gs1 ,v059
 .byte   N03 ,Fs0 ,v065
 .byte   W06
 .byte   Cn1 ,v081
 .byte   N03 ,Fn0 ,v033
 .byte   W06
 .byte   Dn1 ,v074
 .byte   N03 ,En1 ,v111
 .byte   N03 ,Gs1 ,v059
 .byte   N03 ,Fs0 ,v065
 .byte   W06
 .byte   Fn0 ,v033
 .byte   W06
 .byte   Gs1 ,v059
 .byte   N03 ,Fs0 ,v065
 .byte   W06
 .byte   Fn0 ,v031
 .byte   W06
 .byte   PEND 
@  #07 @017   ----------------------------------------
 .byte   PATT
  .word Label_010090EC
@  #07 @018   ----------------------------------------
Label_010092F8:
 .byte   N03 ,Cn1 ,v081
 .byte   N03 ,As1 ,v085
 .byte   N03 ,Ds0 ,v127
 .byte   N03 ,Fn0 ,v065
 .byte   W06
 .byte   Fn0 ,v031
 .byte   W06
 .byte   Fs0 ,v065
 .byte   N03 ,Gs1 ,v059
 .byte   W06
 .byte   Ds0 ,v127
 .byte   N03 ,Fn0 ,v065
 .byte   W06
 .byte   En1 ,v111
 .byte   N03 ,Dn1 ,v074
 .byte   N03 ,As1 ,v085
 .byte   N03 ,Fs0 ,v065
 .byte   W06
 .byte   Fn0 ,v033
 .byte   W06
 .byte   Fs0 ,v065
 .byte   N03 ,Gs1 ,v059
 .byte   W06
 .byte   Fn0 ,v031
 .byte   W06
 .byte   Cn1 ,v081
 .byte   N03 ,Fs0 ,v065
 .byte   W06
 .byte   Fn0 ,v031
 .byte   W06
 .byte   Gs1 ,v059
 .byte   N03 ,Fs0 ,v065
 .byte   W06
 .byte   Cn1 ,v081
 .byte   N03 ,Fn0 ,v033
 .byte   W06
 .byte   Dn1 ,v074
 .byte   N03 ,En1 ,v111
 .byte   N03 ,Gs1 ,v059
 .byte   N03 ,Fs0 ,v065
 .byte   W06
 .byte   Fn0 ,v033
 .byte   W06
 .byte   Gs1 ,v059
 .byte   N03 ,Fs0 ,v065
 .byte   W06
 .byte   Fn0 ,v031
 .byte   W06
 .byte   PEND 
@  #07 @019   ----------------------------------------
Label_0100935A:
 .byte   N03 ,Cn1 ,v081
 .byte   N03 ,Fs0 ,v065
 .byte   N03 ,Gs1 ,v059
 .byte   W06
 .byte   Fn0 ,v031
 .byte   W06
 .byte   Fs0 ,v065
 .byte   N03 ,As1 ,v085
 .byte   W06
 .byte   Fn0 ,v033
 .byte   W06
 .byte   Fs0 ,v065
 .byte   N03 ,Dn1 ,v074
 .byte   N03 ,En1 ,v111
 .byte   N03 ,Gs1 ,v059
 .byte   W06
 .byte   Fn0 ,v033
 .byte   W06
 .byte   Fs0 ,v065
 .byte   N03 ,Gs1 ,v059
 .byte   W06
 .byte   Fn0 ,v031
 .byte   W06
 .byte   Cn1 ,v081
 .byte   N03 ,Fs0 ,v065
 .byte   N03 ,Gs1 ,v059
 .byte   W06
 .byte   Fn0 ,v031
 .byte   W06
 .byte   Fs0 ,v065
 .byte   N03 ,Gs1 ,v059
 .byte   W06
 .byte   Cn1 ,v081
 .byte   N03 ,Fn0 ,v033
 .byte   W06
 .byte   Gs1 ,v059
 .byte   N03 ,Dn1 ,v074
 .byte   N03 ,En1 ,v111
 .byte   N03 ,Fs0 ,v065
 .byte   W06
 .byte   Fn0 ,v033
 .byte   W06
 .byte   Gs1 ,v059
 .byte   N03 ,Fs0 ,v065
 .byte   W06
 .byte   Fn0 ,v031
 .byte   W06
 .byte   PEND 
@  #07 @020   ----------------------------------------
Label_010093B9:
 .byte   N03 ,Fn0 ,v065
 .byte   N03 ,Ds0 ,v127
 .byte   N03 ,As1 ,v085
 .byte   N03 ,Cn1 ,v081
 .byte   W06
 .byte   Fn0 ,v031
 .byte   W06
 .byte   Gs1 ,v059
 .byte   N03 ,Fs0 ,v065
 .byte   W06
 .byte   Fn0
 .byte   N03 ,Ds0 ,v127
 .byte   W06
 .byte   Dn1 ,v074
 .byte   N03 ,En1 ,v111
 .byte   N03 ,Fs0 ,v065
 .byte   N03 ,As1 ,v085
 .byte   W06
 .byte   Fn0 ,v033
 .byte   W06
 .byte   Fs0 ,v065
 .byte   N03 ,Gs1 ,v059
 .byte   W06
 .byte   Fn0 ,v031
 .byte   W06
 .byte   Cn1 ,v081
 .byte   N03 ,Fs0 ,v065
 .byte   W06
 .byte   Fn0 ,v031
 .byte   W06
 .byte   Gs1 ,v059
 .byte   N03 ,Fs0 ,v065
 .byte   W06
 .byte   Cn1 ,v081
 .byte   N03 ,Fn0 ,v033
 .byte   W06
 .byte   Dn1 ,v074
 .byte   N03 ,En1 ,v111
 .byte   N03 ,Gs1 ,v059
 .byte   N03 ,Fs0 ,v065
 .byte   W06
 .byte   Fn0 ,v033
 .byte   W06
 .byte   Gs1 ,v059
 .byte   N03 ,Fs0 ,v065
 .byte   W06
 .byte   Fn0 ,v031
 .byte   W06
 .byte   PEND 
@  #07 @021   ----------------------------------------
 .byte   PATT
  .word Label_010090EC
@  #07 @022   ----------------------------------------
 .byte   PATT
  .word Label_010092F8
@  #07 @023   ----------------------------------------
 .byte   N03 ,Cn1 ,v081
 .byte   N03 ,Fs0 ,v065
 .byte   N03 ,Gs1 ,v059
 .byte   W06
 .byte   Fn0 ,v031
 .byte   W06
 .byte   Fs0 ,v065
 .byte   N03 ,As1 ,v085
 .byte   W06
 .byte   Fn0 ,v033
 .byte   W06
 .byte   Fs0 ,v065
 .byte   N03 ,Dn1 ,v074
 .byte   N03 ,En1 ,v111
 .byte   N03 ,Gs1 ,v059
 .byte   W06
 .byte   Fn0 ,v033
 .byte   W06
 .byte   Fs0 ,v065
 .byte   N03 ,Gs1 ,v059
 .byte   W06
 .byte   Fn0 ,v031
 .byte   W06
 .byte   Cn1 ,v081
 .byte   N03 ,Fs0 ,v065
 .byte   N03 ,Gs1 ,v059
 .byte   W06
 .byte   Fn0 ,v031
 .byte   W06
 .byte   Fs0 ,v065
 .byte   N03 ,Gs1 ,v059
 .byte   W06
 .byte   Cn1 ,v081
 .byte   N03 ,Fn0 ,v033
 .byte   W06
 .byte   Gs1 ,v059
 .byte   N03 ,Dn1 ,v074
 .byte   N03 ,En1 ,v111
 .byte   N03 ,Fs0 ,v065
 .byte   W06
 .byte   Fn0 ,v033
 .byte   W06
 .byte   Fs0 ,v065
 .byte   N03 ,Gs1 ,v059
 .byte   W06
 .byte   Fn0 ,v031
 .byte   N03 ,Dn1 ,v074
 .byte   N03 ,En1 ,v111
 .byte   W06
@  #07 @024   ----------------------------------------
 .byte   Cn1 ,v081
 .byte   N03 ,As1 ,v085
 .byte   N03 ,Ds0 ,v127
 .byte   N03 ,Fn0 ,v065
 .byte   W06
 .byte   En1 ,v111
 .byte   N03 ,Dn1 ,v074
 .byte   N03 ,Fn0 ,v031
 .byte   W06
 .byte   En1 ,v111
 .byte   N03 ,Dn1 ,v074
 .byte   N03 ,Gs1 ,v059
 .byte   N03 ,Fs0 ,v065
 .byte   W06
 .byte   Dn1 ,v074
 .byte   N03 ,En1 ,v111
 .byte   N03 ,Fn0 ,v065
 .byte   N03 ,Ds0 ,v127
 .byte   W06
 .byte   Fs0 ,v065
 .byte   N03 ,As1 ,v085
 .byte   W06
 .byte   Cn1 ,v081
 .byte   N03 ,Fn0 ,v033
 .byte   W06
 .byte   Fs0 ,v065
 .byte   N03 ,Gs1 ,v059
 .byte   N03 ,En1 ,v111
 .byte   N03 ,Dn1 ,v074
 .byte   W06
 .byte   Fn0 ,v031
 .byte   W06
 .byte   Cn1 ,v081
 .byte   N03 ,Cs2
 .byte   N03 ,As3 ,v108
 .byte   W12
 .byte   Gs1 ,v059
 .byte   W06
 .byte   Cn1 ,v081
 .byte   W06
 .byte   Dn1 ,v074
 .byte   N03 ,En1 ,v111
 .byte   N03 ,Gs1 ,v059
 .byte   W12
 .byte   Gs1
 .byte   W12
@  #07 @025   ----------------------------------------
Label_010094E9:
 .byte   N03 ,Cn1 ,v081
 .byte   N03 ,Gs1 ,v059
 .byte   W12
 .byte   As1 ,v085
 .byte   W12
 .byte   Dn1 ,v074
 .byte   N03 ,En1 ,v111
 .byte   N03 ,Gs1 ,v059
 .byte   W12
 .byte   Gs1
 .byte   W12
 .byte   Cn1 ,v081
 .byte   N03 ,Gs1 ,v059
 .byte   N03 ,As3 ,v108
 .byte   W12
 .byte   Gs1 ,v059
 .byte   W06
 .byte   Cn1 ,v081
 .byte   W06
 .byte   En1 ,v111
 .byte   N03 ,Dn1 ,v074
 .byte   N03 ,Gs1 ,v059
 .byte   W12
 .byte   Gs1
 .byte   W12
 .byte   PEND 
@  #07 @026   ----------------------------------------
Label_01009519:
 .byte   N03 ,Fn0 ,v065
 .byte   N03 ,Ds0 ,v127
 .byte   N03 ,As1 ,v085
 .byte   N03 ,Cn1 ,v081
 .byte   W06
 .byte   Fn0 ,v031
 .byte   W06
 .byte   Gs1 ,v059
 .byte   N03 ,Fs0 ,v065
 .byte   W06
 .byte   Fn0
 .byte   N03 ,Ds0 ,v127
 .byte   W06
 .byte   As1 ,v085
 .byte   N03 ,Fs0 ,v065
 .byte   N03 ,En1 ,v111
 .byte   N03 ,Dn1 ,v074
 .byte   W06
 .byte   Fn0 ,v033
 .byte   W06
 .byte   Gs1 ,v059
 .byte   N03 ,Fs0 ,v065
 .byte   W06
 .byte   Fn0 ,v031
 .byte   W06
 .byte   Cn1 ,v081
 .byte   N03 ,An2
 .byte   N03 ,As3 ,v108
 .byte   W12
 .byte   Gs1 ,v059
 .byte   W06
 .byte   Cn1 ,v081
 .byte   W06
 .byte   Dn1 ,v074
 .byte   N03 ,En1 ,v111
 .byte   N03 ,Gs1 ,v059
 .byte   W12
 .byte   Gs1
 .byte   W12
 .byte   PEND 
@  #07 @027   ----------------------------------------
Label_01009566:
 .byte   N03 ,Cn1 ,v081
 .byte   N03 ,Gs1 ,v059
 .byte   W12
 .byte   As1 ,v085
 .byte   W12
 .byte   Dn1 ,v074
 .byte   N03 ,En1 ,v111
 .byte   N03 ,Gs1 ,v059
 .byte   W12
 .byte   Gs1
 .byte   W12
 .byte   Gs1
 .byte   N03 ,Cn1 ,v081
 .byte   N03 ,As3 ,v108
 .byte   W12
 .byte   Gs1 ,v059
 .byte   W06
 .byte   Cn1 ,v081
 .byte   W06
 .byte   Gs1 ,v059
 .byte   N03 ,Dn1 ,v074
 .byte   N03 ,En1 ,v111
 .byte   W12
 .byte   Gs1 ,v059
 .byte   W12
 .byte   PEND 
@  #07 @028   ----------------------------------------
Label_01009596:
 .byte   N03 ,Fn0 ,v065
 .byte   N03 ,Ds0 ,v127
 .byte   N03 ,As1 ,v085
 .byte   N03 ,Cn1 ,v081
 .byte   W06
 .byte   Fn0 ,v031
 .byte   W06
 .byte   Gs1 ,v059
 .byte   N03 ,Fs0 ,v065
 .byte   W06
 .byte   Fn0
 .byte   N03 ,Ds0 ,v127
 .byte   W06
 .byte   Dn1 ,v074
 .byte   N03 ,En1 ,v111
 .byte   N03 ,As1 ,v085
 .byte   N03 ,Fn0 ,v127
 .byte   W12
 .byte   Gs1 ,v059
 .byte   W12
 .byte   Cn1 ,v081
 .byte   N03 ,Cs2
 .byte   N03 ,As3 ,v108
 .byte   W12
 .byte   Gs1 ,v059
 .byte   W06
 .byte   Cn1 ,v081
 .byte   W06
 .byte   Dn1 ,v074
 .byte   N03 ,En1 ,v111
 .byte   N03 ,Gs1 ,v059
 .byte   W12
 .byte   Gs1
 .byte   W12
 .byte   PEND 
@  #07 @029   ----------------------------------------
 .byte   PATT
  .word Label_01009566
@  #07 @030   ----------------------------------------
Label_010095DF:
 .byte   N03 ,Fn0 ,v065
 .byte   N03 ,Ds0 ,v127
 .byte   N03 ,As1 ,v085
 .byte   N03 ,Cn1 ,v081
 .byte   W06
 .byte   Fn0 ,v031
 .byte   W06
 .byte   Gs1 ,v059
 .byte   N03 ,Fs0 ,v065
 .byte   W06
 .byte   Fn0
 .byte   N03 ,Ds0 ,v127
 .byte   W06
 .byte   Dn1 ,v074
 .byte   N03 ,En1 ,v111
 .byte   N03 ,Fs0 ,v065
 .byte   N03 ,As1 ,v085
 .byte   W06
 .byte   Fn0 ,v033
 .byte   W06
 .byte   Fs0 ,v065
 .byte   N03 ,Gs1 ,v059
 .byte   W06
 .byte   Fn0 ,v031
 .byte   W06
 .byte   Cn1 ,v081
 .byte   N03 ,An2
 .byte   N03 ,As3 ,v108
 .byte   W12
 .byte   Gs1 ,v059
 .byte   W06
 .byte   Cn1 ,v081
 .byte   W06
 .byte   Dn1 ,v074
 .byte   N03 ,En1 ,v111
 .byte   N03 ,Gs1 ,v059
 .byte   W12
 .byte   Gs1
 .byte   W12
 .byte   PEND 
@  #07 @031   ----------------------------------------
Label_0100962C:
 .byte   N03 ,Cn1 ,v081
 .byte   N03 ,Gs1 ,v059
 .byte   W12
 .byte   As1 ,v085
 .byte   W12
 .byte   Dn1 ,v074
 .byte   N03 ,En1 ,v111
 .byte   N03 ,Gs1 ,v059
 .byte   W12
 .byte   Gs1
 .byte   W12
 .byte   Gs1
 .byte   N03 ,Cn1 ,v081
 .byte   N03 ,As3 ,v108
 .byte   W12
 .byte   Gs1 ,v059
 .byte   W06
 .byte   Cn1 ,v081
 .byte   W06
 .byte   Gs1 ,v059
 .byte   N03 ,Dn1 ,v074
 .byte   N03 ,En1 ,v111
 .byte   W12
 .byte   Gs1 ,v059
 .byte   W06
 .byte   En1 ,v111
 .byte   N03 ,Dn1 ,v074
 .byte   W06
 .byte   PEND 
@  #07 @032   ----------------------------------------
 .byte   Cn1 ,v081
 .byte   N03 ,As1 ,v085
 .byte   N03 ,Ds0 ,v127
 .byte   N03 ,Fn0 ,v065
 .byte   W06
 .byte   Dn1 ,v074
 .byte   N03 ,En1 ,v111
 .byte   N03 ,Fn0 ,v031
 .byte   W06
 .byte   Fs0 ,v065
 .byte   N03 ,Gs1 ,v059
 .byte   N03 ,En1 ,v111
 .byte   N03 ,Dn1 ,v074
 .byte   W06
 .byte   Dn1
 .byte   N03 ,En1 ,v111
 .byte   N03 ,Ds0 ,v127
 .byte   N03 ,Fn0 ,v065
 .byte   W06
 .byte   As1 ,v085
 .byte   N03 ,Fn0 ,v127
 .byte   W12
 .byte   En1 ,v111
 .byte   N03 ,Dn1 ,v074
 .byte   N03 ,Gs1 ,v059
 .byte   W12
 .byte   Cn1 ,v081
 .byte   N03 ,Cs2 ,v127
 .byte   N03 ,Fs0 ,v065
 .byte   W06
 .byte   Fn0 ,v031
 .byte   W06
 .byte   Gs1 ,v059
 .byte   N03 ,Fs0 ,v065
 .byte   W06
 .byte   Cn1 ,v081
 .byte   N03 ,Fn0 ,v033
 .byte   W06
 .byte   Dn1 ,v074
 .byte   N03 ,En1 ,v111
 .byte   N03 ,Gs1 ,v059
 .byte   N03 ,Fs0 ,v065
 .byte   W06
 .byte   Fn0 ,v033
 .byte   W06
 .byte   Fs0 ,v065
 .byte   N03 ,Gs1 ,v059
 .byte   W06
 .byte   Fn0 ,v031
 .byte   W06
@  #07 @033   ----------------------------------------
 .byte   PATT
  .word Label_0100902C
@  #07 @034   ----------------------------------------
 .byte   PATT
  .word Label_0100908B
@  #07 @035   ----------------------------------------
 .byte   PATT
  .word Label_010090EC
@  #07 @036   ----------------------------------------
 .byte   PATT
  .word Label_0100914B
@  #07 @037   ----------------------------------------
 .byte   PATT
  .word Label_010090EC
@  #07 @038   ----------------------------------------
 .byte   PATT
  .word Label_010091B2
@  #07 @039   ----------------------------------------
 .byte   PATT
  .word Label_01009214
@  #07 @040   ----------------------------------------
 .byte   PATT
  .word Label_01009279
@  #07 @041   ----------------------------------------
 .byte   PATT
  .word Label_010090EC
@  #07 @042   ----------------------------------------
 .byte   PATT
  .word Label_010092F8
@  #07 @043   ----------------------------------------
 .byte   PATT
  .word Label_0100935A
@  #07 @044   ----------------------------------------
 .byte   PATT
  .word Label_010093B9
@  #07 @045   ----------------------------------------
 .byte   PATT
  .word Label_010090EC
@  #07 @046   ----------------------------------------
 .byte   N03 ,Cn1 ,v081
 .byte   N03 ,As1 ,v085
 .byte   N03 ,Ds0 ,v127
 .byte   N03 ,Fn0 ,v065
 .byte   W06
 .byte   Fn0 ,v031
 .byte   W06
 .byte   Fs0 ,v065
 .byte   N03 ,Gs1 ,v059
 .byte   W06
 .byte   Ds0 ,v127
 .byte   N03 ,Fn0 ,v065
 .byte   W06
 .byte   En1 ,v111
 .byte   N03 ,Dn1 ,v074
 .byte   N03 ,As1 ,v085
 .byte   N03 ,Fs0 ,v065
 .byte   W06
 .byte   Fn0 ,v033
 .byte   W06
 .byte   Fs0 ,v065
 .byte   N03 ,Gs1 ,v059
 .byte   W06
 .byte   Fn0 ,v031
 .byte   W06
 .byte   Cn1 ,v081
 .byte   N03 ,Cs2
 .byte   W48
@  #07 @047   ----------------------------------------
 .byte   W96
@  #07 @048   ----------------------------------------
 .byte   En1 ,v111
 .byte   N03 ,Dn1 ,v074
 .byte   N03 ,Cn1 ,v081
 .byte   N03 ,Ds0 ,v127
 .byte   N03 ,Fn0 ,v065
 .byte   N03 ,Cs2 ,v081
 .byte   W06
 .byte   Dn1 ,v074
 .byte   N03 ,En1 ,v111
 .byte   N03 ,Fn0 ,v031
 .byte   W06
 .byte   Fs0 ,v065
 .byte   W06
 .byte   Dn1 ,v074
 .byte   N03 ,En1 ,v111
 .byte   N03 ,Ds0 ,v127
 .byte   N03 ,Fn0 ,v065
 .byte   N03 ,Cn1 ,v081
 .byte   W06
 .byte   An2
 .byte   N03 ,En1 ,v111
 .byte   N03 ,Dn1 ,v074
 .byte   N03 ,Fn0 ,v127
 .byte   W12
 .byte   En1 ,v111
 .byte   N03 ,Dn1 ,v074
 .byte   N03 ,Cn1 ,v081
 .byte   W12
 .byte   Cn1
 .byte   N03 ,Cs2 ,v085
 .byte   W12
 .byte   Gs1 ,v059
 .byte   W06
 .byte   Cn1 ,v081
 .byte   W06
 .byte   Dn1 ,v074
 .byte   N03 ,En1 ,v111
 .byte   N03 ,Gs1 ,v059
 .byte   W12
 .byte   Gs1
 .byte   W12
@  #07 @049   ----------------------------------------
Label_0100979F:
 .byte   N03 ,Cn1 ,v081
 .byte   N03 ,Gs1 ,v059
 .byte   W12
 .byte   As1 ,v077
 .byte   W12
 .byte   Dn1 ,v074
 .byte   N03 ,En1 ,v111
 .byte   N03 ,Gs1 ,v059
 .byte   W12
 .byte   Gs1
 .byte   W12
 .byte   Cn1 ,v081
 .byte   N03 ,Gs1 ,v059
 .byte   W12
 .byte   Gs1
 .byte   W06
 .byte   Cn1 ,v081
 .byte   W06
 .byte   En1 ,v111
 .byte   N03 ,Dn1 ,v074
 .byte   N03 ,Gs1 ,v059
 .byte   W12
 .byte   Gs1
 .byte   W12
 .byte   PEND 
@  #07 @050   ----------------------------------------
Label_010097CB:
 .byte   N03 ,Fn0 ,v065
 .byte   N03 ,Ds0 ,v127
 .byte   N03 ,As1 ,v077
 .byte   N03 ,Cn1 ,v081
 .byte   W06
 .byte   Fn0 ,v031
 .byte   W06
 .byte   Gs1 ,v059
 .byte   N03 ,Fs0 ,v065
 .byte   W06
 .byte   Fn0
 .byte   N03 ,Ds0 ,v127
 .byte   W06
 .byte   As1 ,v077
 .byte   N03 ,Fs0 ,v065
 .byte   N03 ,En1 ,v111
 .byte   N03 ,Dn1 ,v074
 .byte   W06
 .byte   Fn0 ,v033
 .byte   W06
 .byte   Gs1 ,v059
 .byte   N03 ,Fs0 ,v065
 .byte   W06
 .byte   Fn0 ,v031
 .byte   W06
 .byte   Cn1 ,v081
 .byte   W12
 .byte   Gs1 ,v059
 .byte   W06
 .byte   Cn1 ,v081
 .byte   W06
 .byte   Dn1 ,v074
 .byte   N03 ,En1 ,v111
 .byte   N03 ,Gs1 ,v059
 .byte   W12
 .byte   Gs1
 .byte   W12
 .byte   PEND 
@  #07 @051   ----------------------------------------
Label_01009813:
 .byte   N03 ,Cn1 ,v081
 .byte   N03 ,Gs1 ,v059
 .byte   W12
 .byte   As1 ,v077
 .byte   W12
 .byte   Dn1 ,v074
 .byte   N03 ,En1 ,v111
 .byte   N03 ,Gs1 ,v059
 .byte   W12
 .byte   Gs1
 .byte   W12
 .byte   Gs1
 .byte   N03 ,Cn1 ,v081
 .byte   W12
 .byte   Gs1 ,v059
 .byte   W06
 .byte   Cn1 ,v081
 .byte   W06
 .byte   Gs1 ,v059
 .byte   N03 ,Dn1 ,v074
 .byte   N03 ,En1 ,v111
 .byte   W12
 .byte   Gs1 ,v059
 .byte   W12
 .byte   PEND 
@  #07 @052   ----------------------------------------
Label_01009840:
 .byte   N03 ,Fn0 ,v065
 .byte   N03 ,Ds0 ,v127
 .byte   N03 ,As1 ,v077
 .byte   N03 ,Cn1 ,v081
 .byte   W06
 .byte   Fn0 ,v031
 .byte   W06
 .byte   Gs1 ,v059
 .byte   N03 ,Fs0 ,v065
 .byte   W06
 .byte   Fn0
 .byte   N03 ,Ds0 ,v127
 .byte   W06
 .byte   Dn1 ,v074
 .byte   N03 ,En1 ,v111
 .byte   N03 ,As1 ,v077
 .byte   N03 ,Fn0 ,v127
 .byte   W12
 .byte   Gs1 ,v059
 .byte   W12
 .byte   Cn1 ,v081
 .byte   N03 ,Cs2
 .byte   W12
 .byte   Gs1 ,v059
 .byte   W06
 .byte   Cn1 ,v081
 .byte   W06
 .byte   Dn1 ,v074
 .byte   N03 ,En1 ,v111
 .byte   N03 ,Gs1 ,v059
 .byte   W12
 .byte   Gs1
 .byte   W12
 .byte   PEND 
@  #07 @053   ----------------------------------------
 .byte   PATT
  .word Label_01009813
@  #07 @054   ----------------------------------------
Label_01009886:
 .byte   N03 ,Fn0 ,v065
 .byte   N03 ,Ds0 ,v127
 .byte   N03 ,As1 ,v077
 .byte   N03 ,Cn1 ,v081
 .byte   W06
 .byte   Fn0 ,v031
 .byte   W06
 .byte   Gs1 ,v059
 .byte   N03 ,Fs0 ,v065
 .byte   W06
 .byte   Fn0
 .byte   N03 ,Ds0 ,v127
 .byte   W06
 .byte   Dn1 ,v074
 .byte   N03 ,En1 ,v111
 .byte   N03 ,Fs0 ,v065
 .byte   N03 ,As1 ,v077
 .byte   W06
 .byte   Fn0 ,v033
 .byte   W06
 .byte   Fs0 ,v065
 .byte   N03 ,Gs1 ,v059
 .byte   W06
 .byte   Fn0 ,v031
 .byte   W06
 .byte   Cn1 ,v081
 .byte   W12
 .byte   Gs1 ,v059
 .byte   W06
 .byte   Cn1 ,v081
 .byte   W06
 .byte   Dn1 ,v074
 .byte   N03 ,En1 ,v111
 .byte   N03 ,Gs1 ,v059
 .byte   W12
 .byte   Gs1
 .byte   W12
 .byte   PEND 
@  #07 @055   ----------------------------------------
 .byte   Cn1 ,v081
 .byte   N03 ,Gs1 ,v059
 .byte   W12
 .byte   As1 ,v077
 .byte   W12
 .byte   Dn1 ,v074
 .byte   N03 ,En1 ,v111
 .byte   N03 ,Gs1 ,v059
 .byte   W12
 .byte   Gs1
 .byte   W12
 .byte   Cn1 ,v081
 .byte   N03 ,Gs1 ,v059
 .byte   W12
 .byte   Gs1
 .byte   W06
 .byte   Cn1 ,v081
 .byte   W06
 .byte   Gs1 ,v059
 .byte   N03 ,Dn1 ,v074
 .byte   N03 ,En1 ,v111
 .byte   W12
 .byte   Gs1 ,v059
 .byte   W06
 .byte   Dn1 ,v074
 .byte   N03 ,En1 ,v111
 .byte   W06
@  #07 @056   ----------------------------------------
 .byte   Cn1 ,v081
 .byte   N03 ,As1 ,v077
 .byte   N03 ,Ds0 ,v127
 .byte   N03 ,Fn0 ,v065
 .byte   W06
 .byte   Dn1 ,v074
 .byte   N03 ,En1 ,v111
 .byte   N03 ,Fn0 ,v031
 .byte   W06
 .byte   Dn1 ,v074
 .byte   N03 ,En1 ,v111
 .byte   N03 ,Gs1 ,v059
 .byte   N03 ,Fs0 ,v065
 .byte   W06
 .byte   Fn0
 .byte   N03 ,Ds0 ,v127
 .byte   N03 ,En1 ,v111
 .byte   N03 ,Dn1 ,v074
 .byte   W06
 .byte   Fn0 ,v127
 .byte   N03 ,As1 ,v077
 .byte   W12
 .byte   Gs1 ,v059
 .byte   N03 ,Dn1 ,v074
 .byte   N03 ,En1 ,v111
 .byte   W12
 .byte   Cn1 ,v081
 .byte   N03 ,Cs2
 .byte   W12
 .byte   Gs1 ,v059
 .byte   W06
 .byte   Cn1 ,v081
 .byte   W06
 .byte   Dn1 ,v074
 .byte   N03 ,En1 ,v111
 .byte   N03 ,Gs1 ,v059
 .byte   W12
 .byte   Gs1
 .byte   W12
@  #07 @057   ----------------------------------------
 .byte   PATT
  .word Label_0100979F
@  #07 @058   ----------------------------------------
 .byte   PATT
  .word Label_010097CB
@  #07 @059   ----------------------------------------
 .byte   PATT
  .word Label_01009813
@  #07 @060   ----------------------------------------
 .byte   PATT
  .word Label_01009840
@  #07 @061   ----------------------------------------
 .byte   PATT
  .word Label_01009813
@  #07 @062   ----------------------------------------
 .byte   PATT
  .word Label_01009886
@  #07 @063   ----------------------------------------
 .byte   N03 ,Cn1 ,v081
 .byte   N03 ,Gs1 ,v059
 .byte   W12
 .byte   As1 ,v077
 .byte   W12
 .byte   Dn1 ,v074
 .byte   N03 ,En1 ,v111
 .byte   N03 ,Gs1 ,v059
 .byte   W12
 .byte   Gs1
 .byte   W12
 .byte   Gs1
 .byte   N03 ,Cn1 ,v081
 .byte   W12
 .byte   Gs1 ,v059
 .byte   W06
 .byte   Cn1 ,v081
 .byte   W06
 .byte   Gs1 ,v059
 .byte   N03 ,Dn1 ,v074
 .byte   N03 ,En1 ,v111
 .byte   W12
 .byte   Gs1 ,v059
 .byte   W06
 .byte   En1 ,v111
 .byte   N03 ,Dn1 ,v074
 .byte   W06
@  #07 @064   ----------------------------------------
 .byte   Cn1 ,v081
 .byte   N03 ,As1 ,v077
 .byte   N03 ,Ds0 ,v127
 .byte   N03 ,Fn0 ,v065
 .byte   W06
 .byte   Dn1 ,v074
 .byte   N03 ,En1 ,v111
 .byte   N03 ,Fn0 ,v031
 .byte   W06
 .byte   Fs0 ,v065
 .byte   N03 ,Gs1 ,v059
 .byte   N03 ,En1 ,v111
 .byte   N03 ,Dn1 ,v074
 .byte   W06
 .byte   Dn1
 .byte   N03 ,En1 ,v111
 .byte   N03 ,Ds0 ,v127
 .byte   N03 ,Fn0 ,v065
 .byte   W06
 .byte   As1 ,v077
 .byte   N03 ,Fn0 ,v127
 .byte   W12
 .byte   En1 ,v111
 .byte   N03 ,Dn1 ,v074
 .byte   N03 ,Gs1 ,v059
 .byte   W12
 .byte   Cn1 ,v081
 .byte   N03 ,Cs2
 .byte   N03 ,As3 ,v108
 .byte   W12
 .byte   Gs1 ,v059
 .byte   W06
 .byte   Cn1 ,v081
 .byte   W06
 .byte   Dn1 ,v074
 .byte   N03 ,En1 ,v111
 .byte   N03 ,Gs1 ,v059
 .byte   W12
 .byte   Gs1
 .byte   W12
@  #07 @065   ----------------------------------------
 .byte   PATT
  .word Label_010094E9
@  #07 @066   ----------------------------------------
 .byte   PATT
  .word Label_01009519
@  #07 @067   ----------------------------------------
 .byte   PATT
  .word Label_01009566
@  #07 @068   ----------------------------------------
 .byte   PATT
  .word Label_01009596
@  #07 @069   ----------------------------------------
 .byte   PATT
  .word Label_01009566
@  #07 @070   ----------------------------------------
 .byte   PATT
  .word Label_010095DF
@  #07 @071   ----------------------------------------
 .byte   PATT
  .word Label_0100962C
@  #07 @072   ----------------------------------------
 .byte   N03 ,Cn1 ,v081
 .byte   N03 ,As1 ,v085
 .byte   N03 ,Ds0 ,v127
 .byte   N03 ,Fn0 ,v065
 .byte   W06
 .byte   Dn1 ,v074
 .byte   N03 ,En1 ,v111
 .byte   N03 ,Fn0 ,v031
 .byte   W06
 .byte   Fs0 ,v065
 .byte   N03 ,Gs1 ,v059
 .byte   N03 ,En1 ,v111
 .byte   N03 ,Dn1 ,v074
 .byte   W06
 .byte   Dn1
 .byte   N03 ,En1 ,v111
 .byte   N03 ,Ds0 ,v127
 .byte   N03 ,Fn0 ,v065
 .byte   W06
 .byte   As1 ,v085
 .byte   N03 ,Fn0 ,v127
 .byte   W12
 .byte   En1 ,v111
 .byte   N03 ,Dn1 ,v074
 .byte   N03 ,Gs1 ,v059
 .byte   W06
 .byte   GOTO
  .word Label_01008FFB
@  #07 @073   ----------------------------------------
 .byte   W54
 .byte   FINE

@******************************************************@
	.align	2

song02:
	.byte	7	@ NumTrks
	.byte	0	@ NumBlks
	.byte	song02_pri	@ Priority
	.byte	song02_rev	@ Reverb.
    
	.word	song02_grp
    
	.word	song02_001
	.word	song02_002
	.word	song02_003
	.word	song02_004
	.word	song02_005
	.word	song02_006
	.word	song02_007

	.end
