	.include "MPlayDef.s"

	.equ	song02_grp, voicegroup000
	.equ	song02_pri, 0
	.equ	song02_rev, 0
	.equ	song02_mvl, 127
	.equ	song02_key, 0
	.equ	song02_tbs, 1
	.equ	song02_exg, 0
	.equ	song02_cmp, 1

	.section .rodata
	.global	song02
	.align	2


@**************** Track 1 (Midi-Chn.0) ****************@

song02_001:
@  #01 @000   ----------------------------------------
 .byte   KEYSH , song02_key+0
 .byte   TEMPO , 160*song02_tbs/2
Label_01008060:
 .byte   VOICE , 59
 .byte   VOL , 65*song02_mvl/mxv
 .byte   BENDR, 12
 .byte   W36
 .byte   N05 ,Gn2 ,v080
 .byte   W12
 .byte   N11 ,Cn3
 .byte   W12
 .byte   N23 ,Dn3
 .byte   W24
 .byte   En3
 .byte   W12
@  #01 @001   ----------------------------------------
Label_01008073:
 .byte   W12
 .byte   N23 ,Dn3 ,v080
 .byte   W24
 .byte   Cn3
 .byte   W24
 .byte   N11 ,Gn2
 .byte   W12
 .byte   As2
 .byte   W12
 .byte   Cn3
 .byte   W12
 .byte   PEND 
@  #01 @002   ----------------------------------------
Label_01008082:
 .byte   N11 ,As2 ,v080
 .byte   W12
 .byte   N23 ,Gn2
 .byte   W24
 .byte   N11 ,Fn2
 .byte   W12
 .byte   Gn2
 .byte   W12
 .byte   N23 ,As2
 .byte   W24
 .byte   N11 ,Cn3
 .byte   W12
 .byte   PEND 
@  #01 @003   ----------------------------------------
Label_01008095:
 .byte   W12
 .byte   N05 ,Gn2 ,v080
 .byte   W12
 .byte   N11 ,As2
 .byte   W12
 .byte   N32 ,Cn3 ,v080 ,gtp3
 .byte   W60
 .byte   PEND 
@  #01 @004   ----------------------------------------
Label_010080A3:
 .byte   W36
 .byte   N05 ,Gn2 ,v080
 .byte   W12
 .byte   N11 ,Cn3
 .byte   W12
 .byte   N23 ,Dn3
 .byte   W24
 .byte   En3
 .byte   W12
 .byte   PEND 
@  #01 @005   ----------------------------------------
Label_010080B1:
 .byte   W12
 .byte   N23 ,Fn3 ,v080
 .byte   W24
 .byte   Gn3
 .byte   W24
 .byte   As3
 .byte   W24
 .byte   N11 ,Cn4
 .byte   W12
 .byte   PEND 
@  #01 @006   ----------------------------------------
Label_010080BE:
 .byte   W12
 .byte   N05 ,Gn3 ,v080
 .byte   W12
 .byte   N11 ,As3
 .byte   W12
 .byte   Cn4
 .byte   W24
 .byte   N23 ,Gn3
 .byte   W24
 .byte   N11 ,Fn3
 .byte   W12
 .byte   PEND 
@  #01 @007   ----------------------------------------
Label_010080CF:
 .byte   N11 ,As3 ,v080
 .byte   W12
 .byte   Gn3
 .byte   W12
 .byte   Fn3
 .byte   W12
 .byte   N23 ,Cn3
 .byte   W24
 .byte   N11 ,Ds3
 .byte   W12
 .byte   Fn3
 .byte   W12
 .byte   As3
 .byte   W12
 .byte   PEND 
@  #01 @008   ----------------------------------------
Label_010080E2:
 .byte   N16 ,Cn4 ,v127
 .byte   W24
 .byte   Cn4 ,v000
 .byte   W24
 .byte   Cn4
 .byte   W24
 .byte   Cn4
 .byte   W24
 .byte   PEND 
@  #01 @009   ----------------------------------------
Label_010080EE:
 .byte   N16 ,Cn4 ,v000
 .byte   W24
 .byte   Cn4
 .byte   W24
 .byte   Cn4
 .byte   W24
 .byte   Cn4
 .byte   W24
 .byte   PEND 
@  #01 @010   ----------------------------------------
Label_010080F9:
 .byte   N11 ,As3 ,v127
 .byte   W12
 .byte   Cn4 ,v080
 .byte   W12
 .byte   As3
 .byte   W24
 .byte   As3 ,v127
 .byte   W12
 .byte   Cn4 ,v080
 .byte   W12
 .byte   As3
 .byte   W24
 .byte   PEND 
@  #01 @011   ----------------------------------------
 .byte   PATT
  .word Label_010080F9
@  #01 @012   ----------------------------------------
Label_01008110:
 .byte   N16 ,Cn4 ,v108
 .byte   W24
 .byte   Cn4 ,v000
 .byte   W24
 .byte   Cn4
 .byte   W24
 .byte   Cn4
 .byte   W24
 .byte   PEND 
@  #01 @013   ----------------------------------------
 .byte   PATT
  .word Label_010080EE
@  #01 @014   ----------------------------------------
 .byte   PATT
  .word Label_010080F9
@  #01 @015   ----------------------------------------
 .byte   PATT
  .word Label_010080F9
@  #01 @016   ----------------------------------------
 .byte   PATT
  .word Label_010080A3
@  #01 @017   ----------------------------------------
 .byte   PATT
  .word Label_01008073
@  #01 @018   ----------------------------------------
 .byte   PATT
  .word Label_01008082
@  #01 @019   ----------------------------------------
 .byte   PATT
  .word Label_01008095
@  #01 @020   ----------------------------------------
 .byte   PATT
  .word Label_010080A3
@  #01 @021   ----------------------------------------
 .byte   PATT
  .word Label_010080B1
@  #01 @022   ----------------------------------------
 .byte   PATT
  .word Label_010080BE
@  #01 @023   ----------------------------------------
 .byte   PATT
  .word Label_010080CF
@  #01 @024   ----------------------------------------
 .byte   PATT
  .word Label_010080E2
@  #01 @025   ----------------------------------------
 .byte   PATT
  .word Label_010080EE
@  #01 @026   ----------------------------------------
 .byte   PATT
  .word Label_010080F9
@  #01 @027   ----------------------------------------
 .byte   PATT
  .word Label_010080F9
@  #01 @028   ----------------------------------------
 .byte   PATT
  .word Label_01008110
@  #01 @029   ----------------------------------------
 .byte   PATT
  .word Label_010080EE
@  #01 @030   ----------------------------------------
 .byte   PATT
  .word Label_010080F9
@  #01 @031   ----------------------------------------
 .byte   PATT
  .word Label_010080F9
@  #01 @032   ----------------------------------------
 .byte   PATT
  .word Label_010080A3
@  #01 @033   ----------------------------------------
 .byte   PATT
  .word Label_01008073
@  #01 @034   ----------------------------------------
 .byte   PATT
  .word Label_01008082
@  #01 @035   ----------------------------------------
 .byte   PATT
  .word Label_01008095
@  #01 @036   ----------------------------------------
 .byte   PATT
  .word Label_010080A3
@  #01 @037   ----------------------------------------
 .byte   PATT
  .word Label_010080B1
@  #01 @038   ----------------------------------------
 .byte   PATT
  .word Label_010080BE
@  #01 @039   ----------------------------------------
 .byte   PATT
  .word Label_010080CF
@  #01 @040   ----------------------------------------
 .byte   PATT
  .word Label_010080E2
@  #01 @041   ----------------------------------------
 .byte   PATT
  .word Label_010080EE
@  #01 @042   ----------------------------------------
 .byte   PATT
  .word Label_010080F9
@  #01 @043   ----------------------------------------
 .byte   PATT
  .word Label_010080F9
@  #01 @044   ----------------------------------------
 .byte   PATT
  .word Label_01008110
@  #01 @045   ----------------------------------------
 .byte   PATT
  .word Label_010080EE
@  #01 @046   ----------------------------------------
 .byte   PATT
  .word Label_010080F9
@  #01 @047   ----------------------------------------
 .byte   PATT
  .word Label_010080F9
@  #01 @048   ----------------------------------------
 .byte   PATT
  .word Label_010080A3
@  #01 @049   ----------------------------------------
 .byte   PATT
  .word Label_01008073
@  #01 @050   ----------------------------------------
 .byte   PATT
  .word Label_01008082
@  #01 @051   ----------------------------------------
 .byte   PATT
  .word Label_01008095
@  #01 @052   ----------------------------------------
 .byte   PATT
  .word Label_010080A3
@  #01 @053   ----------------------------------------
 .byte   PATT
  .word Label_010080B1
@  #01 @054   ----------------------------------------
 .byte   PATT
  .word Label_010080BE
@  #01 @055   ----------------------------------------
 .byte   PATT
  .word Label_010080CF
@  #01 @056   ----------------------------------------
 .byte   PATT
  .word Label_010080E2
@  #01 @057   ----------------------------------------
 .byte   PATT
  .word Label_010080EE
@  #01 @058   ----------------------------------------
 .byte   PATT
  .word Label_010080F9
@  #01 @059   ----------------------------------------
 .byte   PATT
  .word Label_010080F9
@  #01 @060   ----------------------------------------
 .byte   PATT
  .word Label_01008110
@  #01 @061   ----------------------------------------
 .byte   PATT
  .word Label_010080EE
@  #01 @062   ----------------------------------------
 .byte   PATT
  .word Label_010080F9
@  #01 @063   ----------------------------------------
 .byte   PATT
  .word Label_010080F9
@  #01 @064   ----------------------------------------
 .byte   W96
@  #01 @065   ----------------------------------------
 .byte   W96
@  #01 @066   ----------------------------------------
Label_0100821D:
 .byte   N11 ,An3 ,v127
 .byte   W12
 .byte   En3 ,v080
 .byte   W84
 .byte   PEND 
@  #01 @067   ----------------------------------------
Label_01008225:
 .byte   W12
 .byte   N11 ,En3 ,v080
 .byte   W12
 .byte   Gn3
 .byte   W12
 .byte   Gs3
 .byte   W12
 .byte   An3
 .byte   W12
 .byte   Cn4 ,v127
 .byte   W24
 .byte   An3 ,v023
 .byte   W12
 .byte   PEND 
@  #01 @068   ----------------------------------------
Label_01008237:
 .byte   N11 ,Cn4 ,v023
 .byte   W24
 .byte   An3 ,v015
 .byte   W12
 .byte   Cn4
 .byte   W24
 .byte   An3 ,v002
 .byte   W12
 .byte   Cn4
 .byte   W24
 .byte   PEND 
@  #01 @069   ----------------------------------------
Label_01008246:
 .byte   N11 ,An3 ,v000
 .byte   W12
 .byte   Cn4
 .byte   W84
 .byte   PEND 
@  #01 @070   ----------------------------------------
 .byte   PATT
  .word Label_0100821D
@  #01 @071   ----------------------------------------
 .byte   PATT
  .word Label_01008225
@  #01 @072   ----------------------------------------
 .byte   PATT
  .word Label_01008237
@  #01 @073   ----------------------------------------
 .byte   PATT
  .word Label_01008246
@  #01 @074   ----------------------------------------
Label_01008261:
 .byte   N11 ,Gn3 ,v127
 .byte   W12
 .byte   Dn3 ,v080
 .byte   W84
 .byte   PEND 
@  #01 @075   ----------------------------------------
Label_01008269:
 .byte   W12
 .byte   N11 ,An2 ,v080
 .byte   W12
 .byte   Cn3
 .byte   W12
 .byte   Dn3
 .byte   W12
 .byte   En3
 .byte   W12
 .byte   Gn3 ,v127
 .byte   W24
 .byte   En3 ,v023
 .byte   W12
 .byte   PEND 
@  #01 @076   ----------------------------------------
Label_0100827B:
 .byte   N11 ,Gn3 ,v023
 .byte   W24
 .byte   En3 ,v015
 .byte   W12
 .byte   Gn3
 .byte   W24
 .byte   En3 ,v002
 .byte   W12
 .byte   Gn3
 .byte   W24
 .byte   PEND 
@  #01 @077   ----------------------------------------
Label_0100828A:
 .byte   N11 ,En3 ,v000
 .byte   W12
 .byte   Gn3
 .byte   W84
 .byte   PEND 
@  #01 @078   ----------------------------------------
 .byte   PATT
  .word Label_01008261
@  #01 @079   ----------------------------------------
 .byte   PATT
  .word Label_01008269
@  #01 @080   ----------------------------------------
 .byte   PATT
  .word Label_0100827B
@  #01 @081   ----------------------------------------
 .byte   PATT
  .word Label_0100828A
@  #01 @082   ----------------------------------------
 .byte   PATT
  .word Label_0100821D
@  #01 @083   ----------------------------------------
 .byte   PATT
  .word Label_01008225
@  #01 @084   ----------------------------------------
 .byte   PATT
  .word Label_01008237
@  #01 @085   ----------------------------------------
 .byte   PATT
  .word Label_01008246
@  #01 @086   ----------------------------------------
 .byte   PATT
  .word Label_0100821D
@  #01 @087   ----------------------------------------
 .byte   PATT
  .word Label_01008225
@  #01 @088   ----------------------------------------
 .byte   PATT
  .word Label_01008237
@  #01 @089   ----------------------------------------
 .byte   PATT
  .word Label_01008246
@  #01 @090   ----------------------------------------
 .byte   PATT
  .word Label_01008261
@  #01 @091   ----------------------------------------
 .byte   PATT
  .word Label_01008269
@  #01 @092   ----------------------------------------
 .byte   PATT
  .word Label_0100827B
@  #01 @093   ----------------------------------------
 .byte   PATT
  .word Label_0100828A
@  #01 @094   ----------------------------------------
 .byte   PATT
  .word Label_01008261
@  #01 @095   ----------------------------------------
 .byte   PATT
  .word Label_01008269
@  #01 @096   ----------------------------------------
 .byte   PATT
  .word Label_0100827B
@  #01 @097   ----------------------------------------
 .byte   PATT
  .word Label_0100828A
@  #01 @098   ----------------------------------------
 .byte   PATT
  .word Label_010080A3
@  #01 @099   ----------------------------------------
 .byte   PATT
  .word Label_01008073
@  #01 @100   ----------------------------------------
 .byte   PATT
  .word Label_01008082
@  #01 @101   ----------------------------------------
 .byte   PATT
  .word Label_01008095
@  #01 @102   ----------------------------------------
 .byte   PATT
  .word Label_010080A3
@  #01 @103   ----------------------------------------
 .byte   PATT
  .word Label_010080B1
@  #01 @104   ----------------------------------------
 .byte   PATT
  .word Label_010080BE
@  #01 @105   ----------------------------------------
 .byte   PATT
  .word Label_010080CF
@  #01 @106   ----------------------------------------
 .byte   PATT
  .word Label_010080E2
@  #01 @107   ----------------------------------------
 .byte   PATT
  .word Label_010080EE
@  #01 @108   ----------------------------------------
 .byte   PATT
  .word Label_010080F9
@  #01 @109   ----------------------------------------
 .byte   PATT
  .word Label_010080F9
@  #01 @110   ----------------------------------------
 .byte   PATT
  .word Label_01008110
@  #01 @111   ----------------------------------------
 .byte   PATT
  .word Label_010080EE
@  #01 @112   ----------------------------------------
 .byte   PATT
  .word Label_010080F9
@  #01 @113   ----------------------------------------
 .byte   PATT
  .word Label_010080F9
@  #01 @114   ----------------------------------------
 .byte   PATT
  .word Label_010080A3
@  #01 @115   ----------------------------------------
 .byte   PATT
  .word Label_01008073
@  #01 @116   ----------------------------------------
 .byte   PATT
  .word Label_01008082
@  #01 @117   ----------------------------------------
 .byte   PATT
  .word Label_01008095
@  #01 @118   ----------------------------------------
 .byte   PATT
  .word Label_010080A3
@  #01 @119   ----------------------------------------
 .byte   PATT
  .word Label_010080B1
@  #01 @120   ----------------------------------------
 .byte   PATT
  .word Label_010080BE
@  #01 @121   ----------------------------------------
 .byte   PATT
  .word Label_010080CF
@  #01 @122   ----------------------------------------
 .byte   PATT
  .word Label_010080E2
@  #01 @123   ----------------------------------------
 .byte   PATT
  .word Label_010080EE
@  #01 @124   ----------------------------------------
 .byte   PATT
  .word Label_010080F9
@  #01 @125   ----------------------------------------
 .byte   PATT
  .word Label_010080F9
@  #01 @126   ----------------------------------------
 .byte   PATT
  .word Label_01008110
@  #01 @127   ----------------------------------------
 .byte   PATT
  .word Label_010080EE
@  #01 @128   ----------------------------------------
 .byte   PATT
  .word Label_010080F9
@  #01 @129   ----------------------------------------
 .byte   PATT
  .word Label_010080F9
@  #01 @130   ----------------------------------------
 .byte   PATT
  .word Label_010080A3
@  #01 @131   ----------------------------------------
 .byte   PATT
  .word Label_01008073
@  #01 @132   ----------------------------------------
 .byte   PATT
  .word Label_01008082
@  #01 @133   ----------------------------------------
 .byte   PATT
  .word Label_01008095
@  #01 @134   ----------------------------------------
 .byte   PATT
  .word Label_010080A3
@  #01 @135   ----------------------------------------
 .byte   PATT
  .word Label_010080B1
@  #01 @136   ----------------------------------------
 .byte   PATT
  .word Label_010080BE
@  #01 @137   ----------------------------------------
 .byte   PATT
  .word Label_010080CF
@  #01 @138   ----------------------------------------
 .byte   PATT
  .word Label_010080E2
@  #01 @139   ----------------------------------------
 .byte   PATT
  .word Label_010080EE
@  #01 @140   ----------------------------------------
 .byte   PATT
  .word Label_010080F9
@  #01 @141   ----------------------------------------
 .byte   PATT
  .word Label_010080F9
@  #01 @142   ----------------------------------------
 .byte   PATT
  .word Label_01008110
@  #01 @143   ----------------------------------------
 .byte   PATT
  .word Label_010080EE
@  #01 @144   ----------------------------------------
 .byte   PATT
  .word Label_010080F9
@  #01 @145   ----------------------------------------
 .byte   PATT
  .word Label_010080F9
@  #01 @146   ----------------------------------------
 .byte   PATT
  .word Label_010080A3
@  #01 @147   ----------------------------------------
 .byte   PATT
  .word Label_01008073
@  #01 @148   ----------------------------------------
 .byte   PATT
  .word Label_01008082
@  #01 @149   ----------------------------------------
 .byte   PATT
  .word Label_01008095
@  #01 @150   ----------------------------------------
 .byte   PATT
  .word Label_010080A3
@  #01 @151   ----------------------------------------
 .byte   PATT
  .word Label_010080B1
@  #01 @152   ----------------------------------------
 .byte   PATT
  .word Label_010080BE
@  #01 @153   ----------------------------------------
 .byte   PATT
  .word Label_010080CF
@  #01 @154   ----------------------------------------
 .byte   PATT
  .word Label_010080E2
@  #01 @155   ----------------------------------------
 .byte   PATT
  .word Label_010080EE
@  #01 @156   ----------------------------------------
 .byte   PATT
  .word Label_010080F9
@  #01 @157   ----------------------------------------
 .byte   PATT
  .word Label_010080F9
@  #01 @158   ----------------------------------------
 .byte   PATT
  .word Label_01008110
@  #01 @159   ----------------------------------------
 .byte   PATT
  .word Label_010080EE
@  #01 @160   ----------------------------------------
 .byte   PATT
  .word Label_010080F9
@  #01 @161   ----------------------------------------
 .byte   PATT
  .word Label_010080F9
@  #01 @162   ----------------------------------------
 .byte   GOTO
  .word Label_01008060
 .byte   FINE

@**************** Track 2 (Midi-Chn.1) ****************@

song02_002:
@  #02 @000   ----------------------------------------
 .byte   KEYSH , song02_key+0
Label_0100843E:
 .byte   VOICE , 108
 .byte   PAN , c_v+31
 .byte   VOL , 33*song02_mvl/mxv
 .byte   TIE ,Gn3 ,v041
 .byte   TIE ,En3
 .byte   TIE ,Cn3
 .byte   TIE ,An2
 .byte   BENDR, 12
 .byte   W96
@  #02 @001   ----------------------------------------
Label_01008450:
 .byte   W92
 .byte   W03
 .byte   EOT
 .byte   Gn3 ,v057
 .byte   Cn3 ,v064
 .byte   W01
 .byte   PEND 
@  #02 @002   ----------------------------------------
Label_01008459:
 .byte   N92 ,Ds3 ,v041 ,gtp3
 .byte   Cn3
 .byte   N92 ,Gs2 ,v041 ,gtp3
 .byte   Fn2
 .byte   W96
 .byte   PEND 
@  #02 @003   ----------------------------------------
Label_01008465:
 .byte   N92 ,Fn3 ,v041 ,gtp3
 .byte   Dn3
 .byte   N92 ,As2 ,v041 ,gtp3
 .byte   Gn2
 .byte   W96
 .byte   PEND 
@  #02 @004   ----------------------------------------
Label_01008471:
 .byte   TIE ,Gn3 ,v041
 .byte   TIE ,En3
 .byte   TIE ,Cn3
 .byte   TIE ,An2
 .byte   W96
 .byte   PEND 
@  #02 @005   ----------------------------------------
Label_0100847C:
 .byte   W92
 .byte   W03
 .byte   EOT
 .byte   Gn3 ,v057
 .byte   En3 ,v060
 .byte   W01
 .byte   PEND 
@  #02 @006   ----------------------------------------
 .byte   PATT
  .word Label_01008459
@  #02 @007   ----------------------------------------
 .byte   PATT
  .word Label_01008465
@  #02 @008   ----------------------------------------
 .byte   PATT
  .word Label_01008471
@  #02 @009   ----------------------------------------
Label_01008494:
 .byte   W92
 .byte   W03
 .byte   EOT
 .byte   An2 ,v064
 .byte   Cn3 ,v067
 .byte   W01
 .byte   PEND 
@  #02 @010   ----------------------------------------
 .byte   PATT
  .word Label_01008459
@  #02 @011   ----------------------------------------
 .byte   PATT
  .word Label_01008465
@  #02 @012   ----------------------------------------
 .byte   PATT
  .word Label_01008471
@  #02 @013   ----------------------------------------
Label_010084AC:
 .byte   W92
 .byte   W03
 .byte   EOT
 .byte   Cn3 ,v064
 .byte   An2 ,v067
 .byte   W01
 .byte   PEND 
@  #02 @014   ----------------------------------------
 .byte   PATT
  .word Label_01008459
@  #02 @015   ----------------------------------------
 .byte   PATT
  .word Label_01008465
@  #02 @016   ----------------------------------------
 .byte   PATT
  .word Label_01008471
@  #02 @017   ----------------------------------------
Label_010084C4:
 .byte   W92
 .byte   W03
 .byte   EOT
 .byte   Gn3 ,v064
 .byte   An2 ,v060
 .byte   W01
 .byte   PEND 
@  #02 @018   ----------------------------------------
 .byte   PATT
  .word Label_01008459
@  #02 @019   ----------------------------------------
 .byte   PATT
  .word Label_01008465
@  #02 @020   ----------------------------------------
 .byte   PATT
  .word Label_01008471
@  #02 @021   ----------------------------------------
 .byte   PATT
  .word Label_01008450
@  #02 @022   ----------------------------------------
 .byte   PATT
  .word Label_01008459
@  #02 @023   ----------------------------------------
 .byte   PATT
  .word Label_01008465
@  #02 @024   ----------------------------------------
 .byte   PATT
  .word Label_01008471
@  #02 @025   ----------------------------------------
Label_010084F0:
 .byte   W92
 .byte   W03
 .byte   EOT
 .byte   An2 ,v060
 .byte   Gn3 ,v064
 .byte   W01
 .byte   PEND 
@  #02 @026   ----------------------------------------
 .byte   PATT
  .word Label_01008459
@  #02 @027   ----------------------------------------
 .byte   PATT
  .word Label_01008465
@  #02 @028   ----------------------------------------
 .byte   PATT
  .word Label_01008471
@  #02 @029   ----------------------------------------
Label_01008508:
 .byte   W92
 .byte   W03
 .byte   EOT
 .byte   Cn3 ,v064
 .byte   Gn3 ,v057
 .byte   W01
 .byte   PEND 
@  #02 @030   ----------------------------------------
 .byte   PATT
  .word Label_01008459
@  #02 @031   ----------------------------------------
 .byte   PATT
  .word Label_01008465
@  #02 @032   ----------------------------------------
 .byte   PATT
  .word Label_01008471
@  #02 @033   ----------------------------------------
 .byte   PATT
  .word Label_010084C4
@  #02 @034   ----------------------------------------
 .byte   PATT
  .word Label_01008459
@  #02 @035   ----------------------------------------
 .byte   PATT
  .word Label_01008465
@  #02 @036   ----------------------------------------
 .byte   PATT
  .word Label_01008471
@  #02 @037   ----------------------------------------
 .byte   PATT
  .word Label_01008450
@  #02 @038   ----------------------------------------
 .byte   PATT
  .word Label_01008459
@  #02 @039   ----------------------------------------
 .byte   PATT
  .word Label_01008465
@  #02 @040   ----------------------------------------
 .byte   PATT
  .word Label_01008471
@  #02 @041   ----------------------------------------
 .byte   PATT
  .word Label_01008494
@  #02 @042   ----------------------------------------
 .byte   PATT
  .word Label_01008459
@  #02 @043   ----------------------------------------
 .byte   PATT
  .word Label_01008465
@  #02 @044   ----------------------------------------
 .byte   PATT
  .word Label_01008471
@  #02 @045   ----------------------------------------
 .byte   PATT
  .word Label_010084AC
@  #02 @046   ----------------------------------------
 .byte   PATT
  .word Label_01008459
@  #02 @047   ----------------------------------------
 .byte   PATT
  .word Label_01008465
@  #02 @048   ----------------------------------------
 .byte   PATT
  .word Label_01008471
@  #02 @049   ----------------------------------------
 .byte   PATT
  .word Label_01008450
@  #02 @050   ----------------------------------------
 .byte   PATT
  .word Label_01008459
@  #02 @051   ----------------------------------------
 .byte   PATT
  .word Label_01008465
@  #02 @052   ----------------------------------------
 .byte   PATT
  .word Label_01008471
@  #02 @053   ----------------------------------------
 .byte   PATT
  .word Label_0100847C
@  #02 @054   ----------------------------------------
 .byte   PATT
  .word Label_01008459
@  #02 @055   ----------------------------------------
 .byte   PATT
  .word Label_01008465
@  #02 @056   ----------------------------------------
 .byte   PATT
  .word Label_01008471
@  #02 @057   ----------------------------------------
 .byte   PATT
  .word Label_01008494
@  #02 @058   ----------------------------------------
 .byte   PATT
  .word Label_01008459
@  #02 @059   ----------------------------------------
 .byte   PATT
  .word Label_01008465
@  #02 @060   ----------------------------------------
 .byte   PATT
  .word Label_01008471
@  #02 @061   ----------------------------------------
 .byte   PATT
  .word Label_010084AC
@  #02 @062   ----------------------------------------
 .byte   PATT
  .word Label_01008459
@  #02 @063   ----------------------------------------
 .byte   PATT
  .word Label_01008465
@  #02 @064   ----------------------------------------
 .byte   W96
@  #02 @065   ----------------------------------------
 .byte   W96
@  #02 @066   ----------------------------------------
 .byte   PATT
  .word Label_01008471
@  #02 @067   ----------------------------------------
 .byte   W96
@  #02 @068   ----------------------------------------
 .byte   W96
@  #02 @069   ----------------------------------------
 .byte   PATT
  .word Label_01008450
@  #02 @070   ----------------------------------------
 .byte   PATT
  .word Label_01008471
@  #02 @071   ----------------------------------------
 .byte   W96
@  #02 @072   ----------------------------------------
 .byte   W96
@  #02 @073   ----------------------------------------
Label_010085D0:
 .byte   W92
 .byte   W03
 .byte   EOT
 .byte   En3 ,v057
 .byte   Cn3 ,v067
 .byte   W01
 .byte   PEND 
@  #02 @074   ----------------------------------------
Label_010085D9:
 .byte   TIE ,Fn3 ,v041
 .byte   TIE ,Dn3
 .byte   TIE ,As2
 .byte   TIE ,Gn2
 .byte   W96
 .byte   PEND 
@  #02 @075   ----------------------------------------
 .byte   W96
@  #02 @076   ----------------------------------------
 .byte   W96
@  #02 @077   ----------------------------------------
Label_010085E6:
 .byte   W92
 .byte   W03
 .byte   EOT
 .byte   Fn3 ,v055
 .byte   As2 ,v062
 .byte   W01
 .byte   PEND 
@  #02 @078   ----------------------------------------
 .byte   PATT
  .word Label_010085D9
@  #02 @079   ----------------------------------------
 .byte   W96
@  #02 @080   ----------------------------------------
 .byte   W96
@  #02 @081   ----------------------------------------
Label_010085F6:
 .byte   W92
 .byte   W03
 .byte   EOT
 .byte   Dn3 ,v055
 .byte   As2 ,v065
 .byte   W01
 .byte   PEND 
@  #02 @082   ----------------------------------------
 .byte   PATT
  .word Label_01008471
@  #02 @083   ----------------------------------------
 .byte   W96
@  #02 @084   ----------------------------------------
 .byte   W96
@  #02 @085   ----------------------------------------
 .byte   PATT
  .word Label_01008450
@  #02 @086   ----------------------------------------
 .byte   PATT
  .word Label_01008471
@  #02 @087   ----------------------------------------
 .byte   W96
@  #02 @088   ----------------------------------------
 .byte   W96
@  #02 @089   ----------------------------------------
 .byte   PATT
  .word Label_010085D0
@  #02 @090   ----------------------------------------
 .byte   PATT
  .word Label_010085D9
@  #02 @091   ----------------------------------------
 .byte   W96
@  #02 @092   ----------------------------------------
 .byte   W96
@  #02 @093   ----------------------------------------
 .byte   PATT
  .word Label_010085E6
@  #02 @094   ----------------------------------------
 .byte   PATT
  .word Label_010085D9
@  #02 @095   ----------------------------------------
 .byte   W96
@  #02 @096   ----------------------------------------
 .byte   W96
@  #02 @097   ----------------------------------------
 .byte   PATT
  .word Label_010085F6
@  #02 @098   ----------------------------------------
 .byte   PATT
  .word Label_01008471
@  #02 @099   ----------------------------------------
 .byte   PATT
  .word Label_01008450
@  #02 @100   ----------------------------------------
 .byte   PATT
  .word Label_01008459
@  #02 @101   ----------------------------------------
 .byte   PATT
  .word Label_01008465
@  #02 @102   ----------------------------------------
 .byte   PATT
  .word Label_01008471
@  #02 @103   ----------------------------------------
 .byte   PATT
  .word Label_0100847C
@  #02 @104   ----------------------------------------
 .byte   PATT
  .word Label_01008459
@  #02 @105   ----------------------------------------
 .byte   PATT
  .word Label_01008465
@  #02 @106   ----------------------------------------
 .byte   PATT
  .word Label_01008471
@  #02 @107   ----------------------------------------
 .byte   PATT
  .word Label_01008494
@  #02 @108   ----------------------------------------
 .byte   PATT
  .word Label_01008459
@  #02 @109   ----------------------------------------
 .byte   PATT
  .word Label_01008465
@  #02 @110   ----------------------------------------
 .byte   PATT
  .word Label_01008471
@  #02 @111   ----------------------------------------
 .byte   PATT
  .word Label_010084AC
@  #02 @112   ----------------------------------------
 .byte   PATT
  .word Label_01008459
@  #02 @113   ----------------------------------------
 .byte   PATT
  .word Label_01008465
@  #02 @114   ----------------------------------------
 .byte   PATT
  .word Label_01008471
@  #02 @115   ----------------------------------------
 .byte   PATT
  .word Label_010084C4
@  #02 @116   ----------------------------------------
 .byte   PATT
  .word Label_01008459
@  #02 @117   ----------------------------------------
 .byte   PATT
  .word Label_01008465
@  #02 @118   ----------------------------------------
 .byte   PATT
  .word Label_01008471
@  #02 @119   ----------------------------------------
 .byte   PATT
  .word Label_01008450
@  #02 @120   ----------------------------------------
 .byte   PATT
  .word Label_01008459
@  #02 @121   ----------------------------------------
 .byte   PATT
  .word Label_01008465
@  #02 @122   ----------------------------------------
 .byte   PATT
  .word Label_01008471
@  #02 @123   ----------------------------------------
 .byte   PATT
  .word Label_010084F0
@  #02 @124   ----------------------------------------
 .byte   PATT
  .word Label_01008459
@  #02 @125   ----------------------------------------
 .byte   PATT
  .word Label_01008465
@  #02 @126   ----------------------------------------
 .byte   PATT
  .word Label_01008471
@  #02 @127   ----------------------------------------
 .byte   PATT
  .word Label_01008508
@  #02 @128   ----------------------------------------
 .byte   PATT
  .word Label_01008459
@  #02 @129   ----------------------------------------
 .byte   PATT
  .word Label_01008465
@  #02 @130   ----------------------------------------
 .byte   PATT
  .word Label_01008471
@  #02 @131   ----------------------------------------
 .byte   PATT
  .word Label_010084C4
@  #02 @132   ----------------------------------------
 .byte   PATT
  .word Label_01008459
@  #02 @133   ----------------------------------------
 .byte   PATT
  .word Label_01008465
@  #02 @134   ----------------------------------------
 .byte   PATT
  .word Label_01008471
@  #02 @135   ----------------------------------------
 .byte   PATT
  .word Label_01008450
@  #02 @136   ----------------------------------------
 .byte   PATT
  .word Label_01008459
@  #02 @137   ----------------------------------------
 .byte   PATT
  .word Label_01008465
@  #02 @138   ----------------------------------------
 .byte   PATT
  .word Label_01008471
@  #02 @139   ----------------------------------------
 .byte   PATT
  .word Label_01008494
@  #02 @140   ----------------------------------------
 .byte   PATT
  .word Label_01008459
@  #02 @141   ----------------------------------------
 .byte   PATT
  .word Label_01008465
@  #02 @142   ----------------------------------------
 .byte   PATT
  .word Label_01008471
@  #02 @143   ----------------------------------------
 .byte   PATT
  .word Label_010084AC
@  #02 @144   ----------------------------------------
 .byte   PATT
  .word Label_01008459
@  #02 @145   ----------------------------------------
 .byte   PATT
  .word Label_01008465
@  #02 @146   ----------------------------------------
 .byte   PATT
  .word Label_01008471
@  #02 @147   ----------------------------------------
 .byte   PATT
  .word Label_01008450
@  #02 @148   ----------------------------------------
 .byte   PATT
  .word Label_01008459
@  #02 @149   ----------------------------------------
 .byte   PATT
  .word Label_01008465
@  #02 @150   ----------------------------------------
 .byte   PATT
  .word Label_01008471
@  #02 @151   ----------------------------------------
 .byte   PATT
  .word Label_0100847C
@  #02 @152   ----------------------------------------
 .byte   PATT
  .word Label_01008459
@  #02 @153   ----------------------------------------
 .byte   PATT
  .word Label_01008465
@  #02 @154   ----------------------------------------
 .byte   PATT
  .word Label_01008471
@  #02 @155   ----------------------------------------
 .byte   PATT
  .word Label_01008494
@  #02 @156   ----------------------------------------
 .byte   PATT
  .word Label_01008459
@  #02 @157   ----------------------------------------
 .byte   PATT
  .word Label_01008465
@  #02 @158   ----------------------------------------
 .byte   PATT
  .word Label_01008471
@  #02 @159   ----------------------------------------
 .byte   PATT
  .word Label_010084AC
@  #02 @160   ----------------------------------------
 .byte   PATT
  .word Label_01008459
@  #02 @161   ----------------------------------------
 .byte   PATT
  .word Label_01008465
@  #02 @162   ----------------------------------------
 .byte   GOTO
  .word Label_0100843E
 .byte   FINE

@**************** Track 3 (Midi-Chn.2) ****************@

song02_003:
@  #03 @000   ----------------------------------------
 .byte   KEYSH , song02_key+0
Label_0100880A:
 .byte   VOICE , 100
 .byte   PAN , c_v-32
 .byte   VOL , 28*song02_mvl/mxv
 .byte   N11 ,An4 ,v116
 .byte   N11 ,An3
 .byte   BENDR, 12
 .byte   W12
 .byte   N11 ,An4 ,v059
 .byte   N11 ,An3
 .byte   W12
 .byte   Gn4
 .byte   N11 ,Gn3
 .byte   W12
 .byte   An4 ,v116
 .byte   N11 ,An3
 .byte   W60
@  #03 @001   ----------------------------------------
Label_01008827:
 .byte   W12
 .byte   N11 ,En4 ,v116
 .byte   N11 ,En3
 .byte   W36
 .byte   N16 ,Dn4 ,v080
 .byte   N16 ,Dn3
 .byte   W24
 .byte   En4
 .byte   N16 ,En3
 .byte   W24
 .byte   PEND 
@  #03 @002   ----------------------------------------
Label_01008839:
 .byte   N11 ,Gn4 ,v116
 .byte   N11 ,Gn3
 .byte   W12
 .byte   Gn4 ,v059
 .byte   N11 ,Gn3
 .byte   W12
 .byte   Fn4
 .byte   N11 ,Fn3
 .byte   W12
 .byte   Gn4 ,v116
 .byte   N11 ,Gn3
 .byte   W24
 .byte   Dn4
 .byte   N11 ,Dn3
 .byte   W36
 .byte   PEND 
@  #03 @003   ----------------------------------------
Label_01008852:
 .byte   N11 ,Dn4 ,v116
 .byte   N11 ,Dn3
 .byte   W96
 .byte   PEND 
@  #03 @004   ----------------------------------------
Label_01008859:
 .byte   N11 ,An4 ,v116
 .byte   N11 ,An3
 .byte   W12
 .byte   An4 ,v059
 .byte   N11 ,An3
 .byte   W12
 .byte   Gn4
 .byte   N11 ,Gn3
 .byte   W12
 .byte   An4 ,v116
 .byte   N11 ,An3
 .byte   W60
 .byte   PEND 
@  #03 @005   ----------------------------------------
Label_0100886E:
 .byte   W36
 .byte   N11 ,En4 ,v116
 .byte   N11 ,En3
 .byte   W12
 .byte   N16 ,Dn4 ,v080
 .byte   N16 ,Dn3
 .byte   W24
 .byte   En4
 .byte   N16 ,En3
 .byte   W24
 .byte   PEND 
@  #03 @006   ----------------------------------------
Label_01008880:
 .byte   N11 ,Gn4 ,v116
 .byte   N11 ,Gn3
 .byte   W12
 .byte   Gn4 ,v059
 .byte   N11 ,Gn3
 .byte   W12
 .byte   Fn4
 .byte   N11 ,Fn3
 .byte   W12
 .byte   Gn4 ,v116
 .byte   N11 ,Gn3
 .byte   W24
 .byte   Dn4
 .byte   N11 ,Dn3
 .byte   W24
 .byte   Cn4
 .byte   N11 ,Cn3
 .byte   W12
 .byte   PEND 
@  #03 @007   ----------------------------------------
 .byte   PATT
  .word Label_01008852
@  #03 @008   ----------------------------------------
Label_010088A2:
 .byte   W48
 .byte   N16 ,An4 ,v080
 .byte   N16 ,An3
 .byte   W48
 .byte   PEND 
@  #03 @009   ----------------------------------------
Label_010088AA:
 .byte   N16 ,Gn4 ,v080
 .byte   N16 ,Gn3
 .byte   W36
 .byte   N07 ,Dn4
 .byte   N07 ,Dn3
 .byte   W60
 .byte   PEND 
@  #03 @010   ----------------------------------------
Label_010088B6:
 .byte   W48
 .byte   N16 ,Gn4 ,v080
 .byte   N16 ,Gn3
 .byte   W48
 .byte   PEND 
@  #03 @011   ----------------------------------------
Label_010088BE:
 .byte   N16 ,Fn4 ,v080
 .byte   N16 ,Fn3
 .byte   W36
 .byte   N07 ,Cn4
 .byte   N07 ,Cn3
 .byte   W60
 .byte   PEND 
@  #03 @012   ----------------------------------------
 .byte   PATT
  .word Label_010088A2
@  #03 @013   ----------------------------------------
 .byte   PATT
  .word Label_010088AA
@  #03 @014   ----------------------------------------
 .byte   PATT
  .word Label_010088B6
@  #03 @015   ----------------------------------------
 .byte   PATT
  .word Label_010088BE
@  #03 @016   ----------------------------------------
 .byte   PATT
  .word Label_01008859
@  #03 @017   ----------------------------------------
 .byte   PATT
  .word Label_01008827
@  #03 @018   ----------------------------------------
 .byte   PATT
  .word Label_01008839
@  #03 @019   ----------------------------------------
 .byte   PATT
  .word Label_01008852
@  #03 @020   ----------------------------------------
 .byte   PATT
  .word Label_01008859
@  #03 @021   ----------------------------------------
 .byte   PATT
  .word Label_0100886E
@  #03 @022   ----------------------------------------
 .byte   PATT
  .word Label_01008880
@  #03 @023   ----------------------------------------
 .byte   PATT
  .word Label_01008852
@  #03 @024   ----------------------------------------
 .byte   PATT
  .word Label_010088A2
@  #03 @025   ----------------------------------------
 .byte   PATT
  .word Label_010088AA
@  #03 @026   ----------------------------------------
 .byte   PATT
  .word Label_010088B6
@  #03 @027   ----------------------------------------
 .byte   PATT
  .word Label_010088BE
@  #03 @028   ----------------------------------------
 .byte   PATT
  .word Label_010088A2
@  #03 @029   ----------------------------------------
 .byte   PATT
  .word Label_010088AA
@  #03 @030   ----------------------------------------
 .byte   PATT
  .word Label_010088B6
@  #03 @031   ----------------------------------------
 .byte   PATT
  .word Label_010088BE
@  #03 @032   ----------------------------------------
 .byte   PATT
  .word Label_01008859
@  #03 @033   ----------------------------------------
 .byte   PATT
  .word Label_01008827
@  #03 @034   ----------------------------------------
 .byte   PATT
  .word Label_01008839
@  #03 @035   ----------------------------------------
 .byte   PATT
  .word Label_01008852
@  #03 @036   ----------------------------------------
 .byte   PATT
  .word Label_01008859
@  #03 @037   ----------------------------------------
 .byte   PATT
  .word Label_0100886E
@  #03 @038   ----------------------------------------
 .byte   PATT
  .word Label_01008880
@  #03 @039   ----------------------------------------
 .byte   PATT
  .word Label_01008852
@  #03 @040   ----------------------------------------
 .byte   PATT
  .word Label_010088A2
@  #03 @041   ----------------------------------------
 .byte   PATT
  .word Label_010088AA
@  #03 @042   ----------------------------------------
 .byte   PATT
  .word Label_010088B6
@  #03 @043   ----------------------------------------
 .byte   PATT
  .word Label_010088BE
@  #03 @044   ----------------------------------------
 .byte   PATT
  .word Label_010088A2
@  #03 @045   ----------------------------------------
 .byte   PATT
  .word Label_010088AA
@  #03 @046   ----------------------------------------
 .byte   PATT
  .word Label_010088B6
@  #03 @047   ----------------------------------------
 .byte   PATT
  .word Label_010088BE
@  #03 @048   ----------------------------------------
 .byte   PATT
  .word Label_01008859
@  #03 @049   ----------------------------------------
 .byte   PATT
  .word Label_01008827
@  #03 @050   ----------------------------------------
 .byte   PATT
  .word Label_01008839
@  #03 @051   ----------------------------------------
 .byte   PATT
  .word Label_01008852
@  #03 @052   ----------------------------------------
 .byte   PATT
  .word Label_01008859
@  #03 @053   ----------------------------------------
 .byte   PATT
  .word Label_0100886E
@  #03 @054   ----------------------------------------
 .byte   PATT
  .word Label_01008880
@  #03 @055   ----------------------------------------
 .byte   PATT
  .word Label_01008852
@  #03 @056   ----------------------------------------
 .byte   PATT
  .word Label_010088A2
@  #03 @057   ----------------------------------------
 .byte   PATT
  .word Label_010088AA
@  #03 @058   ----------------------------------------
 .byte   PATT
  .word Label_010088B6
@  #03 @059   ----------------------------------------
 .byte   PATT
  .word Label_010088BE
@  #03 @060   ----------------------------------------
 .byte   PATT
  .word Label_010088A2
@  #03 @061   ----------------------------------------
 .byte   PATT
  .word Label_010088AA
@  #03 @062   ----------------------------------------
 .byte   PATT
  .word Label_010088B6
@  #03 @063   ----------------------------------------
 .byte   PATT
  .word Label_010088BE
@  #03 @064   ----------------------------------------
 .byte   W96
@  #03 @065   ----------------------------------------
 .byte   W96
@  #03 @066   ----------------------------------------
 .byte   PATT
  .word Label_01008859
@  #03 @067   ----------------------------------------
 .byte   W96
@  #03 @068   ----------------------------------------
 .byte   PATT
  .word Label_010088A2
@  #03 @069   ----------------------------------------
Label_010089DB:
 .byte   N16 ,Gn4 ,v080
 .byte   N16 ,Gn3
 .byte   W36
 .byte   N07 ,En4
 .byte   N07 ,En3
 .byte   W60
 .byte   PEND 
@  #03 @070   ----------------------------------------
Label_010089E7:
 .byte   W24
 .byte   N11 ,An4 ,v116
 .byte   N11 ,An3
 .byte   W12
 .byte   An4 ,v059
 .byte   N11 ,An3
 .byte   W12
 .byte   Gn4
 .byte   N11 ,Gn3
 .byte   W12
 .byte   An4 ,v116
 .byte   N11 ,An3
 .byte   W36
 .byte   PEND 
@  #03 @071   ----------------------------------------
 .byte   W96
@  #03 @072   ----------------------------------------
 .byte   PATT
  .word Label_010088A2
@  #03 @073   ----------------------------------------
 .byte   PATT
  .word Label_010089DB
@  #03 @074   ----------------------------------------
Label_01008A08:
 .byte   N11 ,Gn4 ,v116
 .byte   N11 ,Gn3
 .byte   W12
 .byte   Gn4 ,v059
 .byte   N11 ,Gn3
 .byte   W12
 .byte   Fn4
 .byte   N11 ,Fn3
 .byte   W12
 .byte   Gn4 ,v116
 .byte   N11 ,Gn3
 .byte   W60
 .byte   PEND 
@  #03 @075   ----------------------------------------
 .byte   W96
@  #03 @076   ----------------------------------------
 .byte   PATT
  .word Label_010088B6
@  #03 @077   ----------------------------------------
Label_01008A23:
 .byte   N16 ,Fn4 ,v080
 .byte   N16 ,Fn3
 .byte   W36
 .byte   N07 ,Dn4
 .byte   N07 ,Dn3
 .byte   W60
 .byte   PEND 
@  #03 @078   ----------------------------------------
Label_01008A2F:
 .byte   W24
 .byte   N11 ,Gn4 ,v116
 .byte   N11 ,Gn3
 .byte   W12
 .byte   Gn4 ,v059
 .byte   N11 ,Gn3
 .byte   W12
 .byte   Fn4
 .byte   N11 ,Fn3
 .byte   W12
 .byte   Gn4 ,v116
 .byte   N11 ,Gn3
 .byte   W36
 .byte   PEND 
@  #03 @079   ----------------------------------------
 .byte   W96
@  #03 @080   ----------------------------------------
 .byte   PATT
  .word Label_010088B6
@  #03 @081   ----------------------------------------
 .byte   PATT
  .word Label_01008A23
@  #03 @082   ----------------------------------------
 .byte   PATT
  .word Label_01008859
@  #03 @083   ----------------------------------------
 .byte   W96
@  #03 @084   ----------------------------------------
 .byte   PATT
  .word Label_010088A2
@  #03 @085   ----------------------------------------
 .byte   PATT
  .word Label_010089DB
@  #03 @086   ----------------------------------------
 .byte   PATT
  .word Label_010089E7
@  #03 @087   ----------------------------------------
 .byte   W96
@  #03 @088   ----------------------------------------
 .byte   PATT
  .word Label_010088A2
@  #03 @089   ----------------------------------------
 .byte   PATT
  .word Label_010089DB
@  #03 @090   ----------------------------------------
 .byte   PATT
  .word Label_01008A08
@  #03 @091   ----------------------------------------
 .byte   W96
@  #03 @092   ----------------------------------------
 .byte   PATT
  .word Label_010088B6
@  #03 @093   ----------------------------------------
 .byte   PATT
  .word Label_01008A23
@  #03 @094   ----------------------------------------
 .byte   PATT
  .word Label_01008A2F
@  #03 @095   ----------------------------------------
 .byte   W96
@  #03 @096   ----------------------------------------
 .byte   PATT
  .word Label_010088B6
@  #03 @097   ----------------------------------------
 .byte   PATT
  .word Label_01008A23
@  #03 @098   ----------------------------------------
 .byte   PATT
  .word Label_01008859
@  #03 @099   ----------------------------------------
 .byte   PATT
  .word Label_01008827
@  #03 @100   ----------------------------------------
 .byte   PATT
  .word Label_01008839
@  #03 @101   ----------------------------------------
 .byte   PATT
  .word Label_01008852
@  #03 @102   ----------------------------------------
 .byte   PATT
  .word Label_01008859
@  #03 @103   ----------------------------------------
 .byte   PATT
  .word Label_0100886E
@  #03 @104   ----------------------------------------
 .byte   PATT
  .word Label_01008880
@  #03 @105   ----------------------------------------
 .byte   PATT
  .word Label_01008852
@  #03 @106   ----------------------------------------
 .byte   PATT
  .word Label_010088A2
@  #03 @107   ----------------------------------------
 .byte   PATT
  .word Label_010088AA
@  #03 @108   ----------------------------------------
 .byte   PATT
  .word Label_010088B6
@  #03 @109   ----------------------------------------
 .byte   PATT
  .word Label_010088BE
@  #03 @110   ----------------------------------------
 .byte   PATT
  .word Label_010088A2
@  #03 @111   ----------------------------------------
 .byte   PATT
  .word Label_010088AA
@  #03 @112   ----------------------------------------
 .byte   PATT
  .word Label_010088B6
@  #03 @113   ----------------------------------------
 .byte   PATT
  .word Label_010088BE
@  #03 @114   ----------------------------------------
 .byte   PATT
  .word Label_01008859
@  #03 @115   ----------------------------------------
 .byte   PATT
  .word Label_01008827
@  #03 @116   ----------------------------------------
 .byte   PATT
  .word Label_01008839
@  #03 @117   ----------------------------------------
 .byte   PATT
  .word Label_01008852
@  #03 @118   ----------------------------------------
 .byte   PATT
  .word Label_01008859
@  #03 @119   ----------------------------------------
 .byte   PATT
  .word Label_0100886E
@  #03 @120   ----------------------------------------
 .byte   PATT
  .word Label_01008880
@  #03 @121   ----------------------------------------
 .byte   PATT
  .word Label_01008852
@  #03 @122   ----------------------------------------
 .byte   PATT
  .word Label_010088A2
@  #03 @123   ----------------------------------------
 .byte   PATT
  .word Label_010088AA
@  #03 @124   ----------------------------------------
 .byte   PATT
  .word Label_010088B6
@  #03 @125   ----------------------------------------
 .byte   PATT
  .word Label_010088BE
@  #03 @126   ----------------------------------------
 .byte   PATT
  .word Label_010088A2
@  #03 @127   ----------------------------------------
 .byte   PATT
  .word Label_010088AA
@  #03 @128   ----------------------------------------
 .byte   PATT
  .word Label_010088B6
@  #03 @129   ----------------------------------------
 .byte   PATT
  .word Label_010088BE
@  #03 @130   ----------------------------------------
 .byte   PATT
  .word Label_01008859
@  #03 @131   ----------------------------------------
 .byte   PATT
  .word Label_01008827
@  #03 @132   ----------------------------------------
 .byte   PATT
  .word Label_01008839
@  #03 @133   ----------------------------------------
 .byte   PATT
  .word Label_01008852
@  #03 @134   ----------------------------------------
 .byte   PATT
  .word Label_01008859
@  #03 @135   ----------------------------------------
 .byte   PATT
  .word Label_0100886E
@  #03 @136   ----------------------------------------
 .byte   PATT
  .word Label_01008880
@  #03 @137   ----------------------------------------
 .byte   PATT
  .word Label_01008852
@  #03 @138   ----------------------------------------
 .byte   PATT
  .word Label_010088A2
@  #03 @139   ----------------------------------------
 .byte   PATT
  .word Label_010088AA
@  #03 @140   ----------------------------------------
 .byte   PATT
  .word Label_010088B6
@  #03 @141   ----------------------------------------
 .byte   PATT
  .word Label_010088BE
@  #03 @142   ----------------------------------------
 .byte   PATT
  .word Label_010088A2
@  #03 @143   ----------------------------------------
 .byte   PATT
  .word Label_010088AA
@  #03 @144   ----------------------------------------
 .byte   PATT
  .word Label_010088B6
@  #03 @145   ----------------------------------------
 .byte   PATT
  .word Label_010088BE
@  #03 @146   ----------------------------------------
 .byte   PATT
  .word Label_01008859
@  #03 @147   ----------------------------------------
 .byte   PATT
  .word Label_01008827
@  #03 @148   ----------------------------------------
 .byte   PATT
  .word Label_01008839
@  #03 @149   ----------------------------------------
 .byte   PATT
  .word Label_01008852
@  #03 @150   ----------------------------------------
 .byte   PATT
  .word Label_01008859
@  #03 @151   ----------------------------------------
 .byte   PATT
  .word Label_0100886E
@  #03 @152   ----------------------------------------
 .byte   PATT
  .word Label_01008880
@  #03 @153   ----------------------------------------
 .byte   PATT
  .word Label_01008852
@  #03 @154   ----------------------------------------
 .byte   PATT
  .word Label_010088A2
@  #03 @155   ----------------------------------------
 .byte   PATT
  .word Label_010088AA
@  #03 @156   ----------------------------------------
 .byte   PATT
  .word Label_010088B6
@  #03 @157   ----------------------------------------
 .byte   PATT
  .word Label_010088BE
@  #03 @158   ----------------------------------------
 .byte   PATT
  .word Label_010088A2
@  #03 @159   ----------------------------------------
 .byte   PATT
  .word Label_010088AA
@  #03 @160   ----------------------------------------
 .byte   PATT
  .word Label_010088B6
@  #03 @161   ----------------------------------------
 .byte   PATT
  .word Label_010088BE
@  #03 @162   ----------------------------------------
 .byte   GOTO
  .word Label_0100880A
 .byte   FINE

@**************** Track 4 (Midi-Chn.3) ****************@

song02_004:
@  #04 @000   ----------------------------------------
 .byte   KEYSH , song02_key+0
Label_0100409E:
 .byte   VOICE , 39
 .byte   BENDR, 12
 .byte   VOL , 85*song02_mvl/mxv
 .byte   W96
@  #04 @001   ----------------------------------------
 .byte   W96
@  #04 @002   ----------------------------------------
 .byte   W96
@  #04 @003   ----------------------------------------
 .byte   W96
@  #04 @004   ----------------------------------------
 .byte   W96
@  #04 @005   ----------------------------------------
 .byte   W96
@  #04 @006   ----------------------------------------
 .byte   W96
@  #04 @007   ----------------------------------------
 .byte   W96
@  #04 @008   ----------------------------------------
Label_010040AC:
 .byte   N11 ,An0 ,v059
 .byte   W12
 .byte   Cn1
 .byte   W12
 .byte   En1
 .byte   W12
 .byte   N23 ,An0
 .byte   W24
 .byte   N32 ,An1 ,v059 ,gtp3
 .byte   W36
 .byte   PEND 
@  #04 @009   ----------------------------------------
Label_010040BD:
 .byte   N23 ,Gn1 ,v059
 .byte   W24
 .byte   N11
 .byte   W12
 .byte   N56 ,Dn1 ,v059 ,gtp3
 .byte   W60
 .byte   PEND 
@  #04 @010   ----------------------------------------
Label_010040C9:
 .byte   N11 ,Gs0 ,v059
 .byte   W12
 .byte   Cn1
 .byte   W12
 .byte   En1
 .byte   W12
 .byte   N23 ,Gs0
 .byte   W24
 .byte   N32 ,Gs1 ,v059 ,gtp3
 .byte   W36
 .byte   PEND 
@  #04 @011   ----------------------------------------
 .byte   PATT
  .word Label_010040BD
@  #04 @012   ----------------------------------------
 .byte   PATT
  .word Label_010040AC
@  #04 @013   ----------------------------------------
 .byte   PATT
  .word Label_010040BD
@  #04 @014   ----------------------------------------
 .byte   PATT
  .word Label_010040C9
@  #04 @015   ----------------------------------------
 .byte   PATT
  .word Label_010040BD
@  #04 @016   ----------------------------------------
 .byte   PATT
  .word Label_010040AC
@  #04 @017   ----------------------------------------
 .byte   PATT
  .word Label_010040BD
@  #04 @018   ----------------------------------------
 .byte   PATT
  .word Label_010040C9
@  #04 @019   ----------------------------------------
 .byte   PATT
  .word Label_010040BD
@  #04 @020   ----------------------------------------
 .byte   PATT
  .word Label_010040AC
@  #04 @021   ----------------------------------------
 .byte   PATT
  .word Label_010040BD
@  #04 @022   ----------------------------------------
 .byte   PATT
  .word Label_010040C9
@  #04 @023   ----------------------------------------
 .byte   PATT
  .word Label_010040BD
@  #04 @024   ----------------------------------------
 .byte   W96
@  #04 @025   ----------------------------------------
 .byte   W96
@  #04 @026   ----------------------------------------
 .byte   W96
@  #04 @027   ----------------------------------------
 .byte   W96
@  #04 @028   ----------------------------------------
 .byte   W96
@  #04 @029   ----------------------------------------
 .byte   W96
@  #04 @030   ----------------------------------------
 .byte   W96
@  #04 @031   ----------------------------------------
 .byte   W96
@  #04 @032   ----------------------------------------
 .byte   PATT
  .word Label_010040AC
@  #04 @033   ----------------------------------------
 .byte   PATT
  .word Label_010040BD
@  #04 @034   ----------------------------------------
 .byte   PATT
  .word Label_010040C9
@  #04 @035   ----------------------------------------
 .byte   PATT
  .word Label_010040BD
@  #04 @036   ----------------------------------------
 .byte   PATT
  .word Label_010040AC
@  #04 @037   ----------------------------------------
 .byte   PATT
  .word Label_010040BD
@  #04 @038   ----------------------------------------
 .byte   PATT
  .word Label_010040C9
@  #04 @039   ----------------------------------------
 .byte   PATT
  .word Label_010040BD
@  #04 @040   ----------------------------------------
 .byte   PATT
  .word Label_010040AC
@  #04 @041   ----------------------------------------
 .byte   PATT
  .word Label_010040BD
@  #04 @042   ----------------------------------------
 .byte   PATT
  .word Label_010040C9
@  #04 @043   ----------------------------------------
 .byte   PATT
  .word Label_010040BD
@  #04 @044   ----------------------------------------
 .byte   PATT
  .word Label_010040AC
@  #04 @045   ----------------------------------------
 .byte   PATT
  .word Label_010040BD
@  #04 @046   ----------------------------------------
 .byte   PATT
  .word Label_010040C9
@  #04 @047   ----------------------------------------
 .byte   PATT
  .word Label_010040BD
@  #04 @048   ----------------------------------------
 .byte   W96
@  #04 @049   ----------------------------------------
 .byte   W96
@  #04 @050   ----------------------------------------
 .byte   W96
@  #04 @051   ----------------------------------------
 .byte   W96
@  #04 @052   ----------------------------------------
 .byte   W96
@  #04 @053   ----------------------------------------
 .byte   W96
@  #04 @054   ----------------------------------------
 .byte   W96
@  #04 @055   ----------------------------------------
 .byte   W96
@  #04 @056   ----------------------------------------
 .byte   PATT
  .word Label_010040AC
@  #04 @057   ----------------------------------------
 .byte   PATT
  .word Label_010040BD
@  #04 @058   ----------------------------------------
 .byte   PATT
  .word Label_010040C9
@  #04 @059   ----------------------------------------
 .byte   PATT
  .word Label_010040BD
@  #04 @060   ----------------------------------------
 .byte   PATT
  .word Label_010040AC
@  #04 @061   ----------------------------------------
 .byte   PATT
  .word Label_010040BD
@  #04 @062   ----------------------------------------
 .byte   PATT
  .word Label_010040C9
@  #04 @063   ----------------------------------------
 .byte   PATT
  .word Label_010040BD
@  #04 @064   ----------------------------------------
 .byte   W96
@  #04 @065   ----------------------------------------
 .byte   W96
@  #04 @066   ----------------------------------------
Label_010041A5:
 .byte   N11 ,An0 ,v059
 .byte   W12
 .byte   Cn1
 .byte   W12
 .byte   En1
 .byte   W12
 .byte   N56 ,An0 ,v059 ,gtp3
 .byte   W60
 .byte   PEND 
@  #04 @067   ----------------------------------------
 .byte   W96
@  #04 @068   ----------------------------------------
 .byte   PATT
  .word Label_010041A5
@  #04 @069   ----------------------------------------
Label_010041B9:
 .byte   W24
 .byte   N23 ,Gn1 ,v059
 .byte   W24
 .byte   N44 ,An1 ,v059 ,gtp3
 .byte   W48
 .byte   PEND 
@  #04 @070   ----------------------------------------
 .byte   PATT
  .word Label_010041A5
@  #04 @071   ----------------------------------------
Label_010041C9:
 .byte   W60
 .byte   N11 ,An1 ,v059
 .byte   W12
 .byte   Gn1
 .byte   W12
 .byte   En1
 .byte   W12
 .byte   PEND 
@  #04 @072   ----------------------------------------
 .byte   PATT
  .word Label_010041A5
@  #04 @073   ----------------------------------------
 .byte   W96
@  #04 @074   ----------------------------------------
Label_010041D9:
 .byte   N11 ,Gn0 ,v059
 .byte   W12
 .byte   As0
 .byte   W12
 .byte   Dn1
 .byte   W12
 .byte   N56 ,Gn0 ,v059 ,gtp3
 .byte   W60
 .byte   PEND 
@  #04 @075   ----------------------------------------
 .byte   W96
@  #04 @076   ----------------------------------------
 .byte   PATT
  .word Label_010041D9
@  #04 @077   ----------------------------------------
Label_010041ED:
 .byte   W24
 .byte   N23 ,Fn1 ,v059
 .byte   W24
 .byte   N44 ,Gn1 ,v059 ,gtp3
 .byte   W48
 .byte   PEND 
@  #04 @078   ----------------------------------------
 .byte   PATT
  .word Label_010041D9
@  #04 @079   ----------------------------------------
Label_010041FD:
 .byte   W60
 .byte   N32 ,Gn1 ,v059 ,gtp3
 .byte   W36
 .byte   PEND 
@  #04 @080   ----------------------------------------
 .byte   PATT
  .word Label_010041D9
@  #04 @081   ----------------------------------------
 .byte   W96
@  #04 @082   ----------------------------------------
 .byte   PATT
  .word Label_010041A5
@  #04 @083   ----------------------------------------
 .byte   W96
@  #04 @084   ----------------------------------------
 .byte   PATT
  .word Label_010041A5
@  #04 @085   ----------------------------------------
 .byte   PATT
  .word Label_010041B9
@  #04 @086   ----------------------------------------
 .byte   PATT
  .word Label_010041A5
@  #04 @087   ----------------------------------------
 .byte   PATT
  .word Label_010041C9
@  #04 @088   ----------------------------------------
 .byte   PATT
  .word Label_010041A5
@  #04 @089   ----------------------------------------
 .byte   W96
@  #04 @090   ----------------------------------------
 .byte   PATT
  .word Label_010041D9
@  #04 @091   ----------------------------------------
 .byte   W96
@  #04 @092   ----------------------------------------
 .byte   PATT
  .word Label_010041D9
@  #04 @093   ----------------------------------------
 .byte   PATT
  .word Label_010041ED
@  #04 @094   ----------------------------------------
 .byte   PATT
  .word Label_010041D9
@  #04 @095   ----------------------------------------
 .byte   PATT
  .word Label_010041FD
@  #04 @096   ----------------------------------------
 .byte   PATT
  .word Label_010041D9
@  #04 @097   ----------------------------------------
 .byte   W96
@  #04 @098   ----------------------------------------
 .byte   W96
@  #04 @099   ----------------------------------------
 .byte   W96
@  #04 @100   ----------------------------------------
 .byte   W96
@  #04 @101   ----------------------------------------
 .byte   W96
@  #04 @102   ----------------------------------------
 .byte   W96
@  #04 @103   ----------------------------------------
 .byte   W96
@  #04 @104   ----------------------------------------
 .byte   W96
@  #04 @105   ----------------------------------------
 .byte   W96
@  #04 @106   ----------------------------------------
 .byte   PATT
  .word Label_010040AC
@  #04 @107   ----------------------------------------
 .byte   PATT
  .word Label_010040BD
@  #04 @108   ----------------------------------------
 .byte   PATT
  .word Label_010040C9
@  #04 @109   ----------------------------------------
 .byte   PATT
  .word Label_010040BD
@  #04 @110   ----------------------------------------
 .byte   PATT
  .word Label_010040AC
@  #04 @111   ----------------------------------------
 .byte   PATT
  .word Label_010040BD
@  #04 @112   ----------------------------------------
 .byte   PATT
  .word Label_010040C9
@  #04 @113   ----------------------------------------
 .byte   PATT
  .word Label_010040BD
@  #04 @114   ----------------------------------------
 .byte   PATT
  .word Label_010040AC
@  #04 @115   ----------------------------------------
 .byte   PATT
  .word Label_010040BD
@  #04 @116   ----------------------------------------
 .byte   PATT
  .word Label_010040C9
@  #04 @117   ----------------------------------------
 .byte   PATT
  .word Label_010040BD
@  #04 @118   ----------------------------------------
 .byte   PATT
  .word Label_010040AC
@  #04 @119   ----------------------------------------
 .byte   PATT
  .word Label_010040BD
@  #04 @120   ----------------------------------------
 .byte   PATT
  .word Label_010040C9
@  #04 @121   ----------------------------------------
 .byte   PATT
  .word Label_010040BD
@  #04 @122   ----------------------------------------
 .byte   W96
@  #04 @123   ----------------------------------------
 .byte   W96
@  #04 @124   ----------------------------------------
 .byte   W96
@  #04 @125   ----------------------------------------
 .byte   W96
@  #04 @126   ----------------------------------------
 .byte   W96
@  #04 @127   ----------------------------------------
 .byte   W96
@  #04 @128   ----------------------------------------
 .byte   W96
@  #04 @129   ----------------------------------------
 .byte   W96
@  #04 @130   ----------------------------------------
 .byte   PATT
  .word Label_010040AC
@  #04 @131   ----------------------------------------
 .byte   PATT
  .word Label_010040BD
@  #04 @132   ----------------------------------------
 .byte   PATT
  .word Label_010040C9
@  #04 @133   ----------------------------------------
 .byte   PATT
  .word Label_010040BD
@  #04 @134   ----------------------------------------
 .byte   PATT
  .word Label_010040AC
@  #04 @135   ----------------------------------------
 .byte   PATT
  .word Label_010040BD
@  #04 @136   ----------------------------------------
 .byte   PATT
  .word Label_010040C9
@  #04 @137   ----------------------------------------
 .byte   PATT
  .word Label_010040BD
@  #04 @138   ----------------------------------------
 .byte   PATT
  .word Label_010040AC
@  #04 @139   ----------------------------------------
 .byte   PATT
  .word Label_010040BD
@  #04 @140   ----------------------------------------
 .byte   PATT
  .word Label_010040C9
@  #04 @141   ----------------------------------------
 .byte   PATT
  .word Label_010040BD
@  #04 @142   ----------------------------------------
 .byte   PATT
  .word Label_010040AC
@  #04 @143   ----------------------------------------
 .byte   PATT
  .word Label_010040BD
@  #04 @144   ----------------------------------------
 .byte   PATT
  .word Label_010040C9
@  #04 @145   ----------------------------------------
 .byte   PATT
  .word Label_010040BD
@  #04 @146   ----------------------------------------
 .byte   W96
@  #04 @147   ----------------------------------------
 .byte   W96
@  #04 @148   ----------------------------------------
 .byte   W96
@  #04 @149   ----------------------------------------
 .byte   W96
@  #04 @150   ----------------------------------------
 .byte   W96
@  #04 @151   ----------------------------------------
 .byte   W96
@  #04 @152   ----------------------------------------
 .byte   W96
@  #04 @153   ----------------------------------------
 .byte   W96
@  #04 @154   ----------------------------------------
 .byte   PATT
  .word Label_010040AC
@  #04 @155   ----------------------------------------
 .byte   PATT
  .word Label_010040BD
@  #04 @156   ----------------------------------------
 .byte   PATT
  .word Label_010040C9
@  #04 @157   ----------------------------------------
 .byte   PATT
  .word Label_010040BD
@  #04 @158   ----------------------------------------
 .byte   PATT
  .word Label_010040AC
@  #04 @159   ----------------------------------------
 .byte   PATT
  .word Label_010040BD
@  #04 @160   ----------------------------------------
 .byte   PATT
  .word Label_010040C9
@  #04 @161   ----------------------------------------
 .byte   PATT
  .word Label_010040BD
@  #04 @162   ----------------------------------------
 .byte   GOTO
  .word Label_0100409E
 .byte   FINE

@**************** Track 5 (Midi-Chn.4) ****************@

song02_005:
@  #05 @000   ----------------------------------------
 .byte   KEYSH , song02_key+0
Label_01008CB2:
 .byte   VOICE , 124
 .byte   VOL , 72*song02_mvl/mxv
 .byte   N23 ,Cn1 ,v059
 .byte   N11 ,Ds2
 .byte   BENDR, 12
 .byte   W12
 .byte   N11
 .byte   W12
 .byte   Ds2
 .byte   N11 ,Dn1
 .byte   W12
 .byte   N05 ,Ds2
 .byte   W06
 .byte   Dn1 ,v041
 .byte   W06
 .byte   Ds2 ,v059
 .byte   W06
 .byte   Dn1 ,v041
 .byte   W06
 .byte   N11 ,Cn1 ,v059
 .byte   N11 ,Ds2
 .byte   W12
 .byte   Ds2
 .byte   N11 ,Dn1
 .byte   W12
 .byte   N05 ,Ds2
 .byte   W06
 .byte   Dn1 ,v041
 .byte   W06
@  #05 @001   ----------------------------------------
Label_01008CE0:
 .byte   N23 ,Cn1 ,v059
 .byte   N11 ,Ds2
 .byte   W12
 .byte   Ds2
 .byte   W12
 .byte   Ds2
 .byte   N11 ,Dn1
 .byte   W12
 .byte   N05 ,Ds2
 .byte   W06
 .byte   Dn1 ,v041
 .byte   W06
 .byte   Ds2 ,v059
 .byte   W06
 .byte   Dn1 ,v041
 .byte   W06
 .byte   N11 ,Cn1 ,v059
 .byte   N11 ,Ds2
 .byte   W12
 .byte   Ds2
 .byte   N11 ,Dn1
 .byte   W12
 .byte   N05 ,Ds2
 .byte   W06
 .byte   Dn1 ,v041
 .byte   W06
 .byte   PEND 
@  #05 @002   ----------------------------------------
 .byte   PATT
  .word Label_01008CE0
@  #05 @003   ----------------------------------------
Label_01008D0E:
 .byte   N23 ,Cn1 ,v059
 .byte   N11 ,Ds2
 .byte   W12
 .byte   Ds2
 .byte   W12
 .byte   Ds2
 .byte   N11 ,Dn1
 .byte   W12
 .byte   N05 ,Ds2
 .byte   W06
 .byte   Dn1 ,v041
 .byte   W06
 .byte   Ds2 ,v059
 .byte   W06
 .byte   Dn1 ,v041
 .byte   W06
 .byte   N02 ,Ds2 ,v059
 .byte   N02 ,Dn1 ,v041
 .byte   W03
 .byte   Dn1
 .byte   W03
 .byte   Dn1
 .byte   W03
 .byte   Dn1
 .byte   W03
 .byte   N12 ,Gn2 ,v116
 .byte   N11 ,Dn1
 .byte   W12
 .byte   N18 ,Gn2
 .byte   N11 ,Dn1
 .byte   W12
 .byte   PEND 
@  #05 @004   ----------------------------------------
 .byte   PATT
  .word Label_01008CE0
@  #05 @005   ----------------------------------------
 .byte   PATT
  .word Label_01008CE0
@  #05 @006   ----------------------------------------
 .byte   PATT
  .word Label_01008CE0
@  #05 @007   ----------------------------------------
Label_01008D4E:
 .byte   N23 ,Cn1 ,v059
 .byte   N11 ,Ds2
 .byte   W12
 .byte   Ds2
 .byte   W12
 .byte   Ds2
 .byte   N11 ,Dn1
 .byte   W12
 .byte   Cn1 ,v116
 .byte   W12
 .byte   N05 ,Ds2 ,v059
 .byte   W06
 .byte   Dn1 ,v041
 .byte   W06
 .byte   Ds2 ,v059
 .byte   W06
 .byte   Dn1 ,v041
 .byte   W06
 .byte   Ds2 ,v059
 .byte   W06
 .byte   Dn1 ,v041
 .byte   W06
 .byte   Ds2 ,v059
 .byte   W06
 .byte   Dn1 ,v041
 .byte   W06
 .byte   PEND 
@  #05 @008   ----------------------------------------
Label_01008D77:
 .byte   N23 ,Cn1 ,v059
 .byte   N30 ,Gn2
 .byte   W12
 .byte   N11 ,Ds2
 .byte   W12
 .byte   Ds2
 .byte   N11 ,Dn1
 .byte   W12
 .byte   N05 ,Ds2
 .byte   W06
 .byte   Dn1 ,v041
 .byte   W06
 .byte   Ds2 ,v059
 .byte   W06
 .byte   Dn1 ,v041
 .byte   W06
 .byte   N11 ,Cn1 ,v059
 .byte   N11 ,Ds2
 .byte   W12
 .byte   Ds2
 .byte   N11 ,Dn1
 .byte   W12
 .byte   N05 ,Ds2
 .byte   W06
 .byte   Dn1 ,v041
 .byte   W06
 .byte   PEND 
@  #05 @009   ----------------------------------------
 .byte   PATT
  .word Label_01008CE0
@  #05 @010   ----------------------------------------
 .byte   PATT
  .word Label_01008CE0
@  #05 @011   ----------------------------------------
 .byte   PATT
  .word Label_01008CE0
@  #05 @012   ----------------------------------------
 .byte   PATT
  .word Label_01008CE0
@  #05 @013   ----------------------------------------
 .byte   PATT
  .word Label_01008CE0
@  #05 @014   ----------------------------------------
 .byte   PATT
  .word Label_01008CE0
@  #05 @015   ----------------------------------------
 .byte   PATT
  .word Label_01008D4E
@  #05 @016   ----------------------------------------
 .byte   PATT
  .word Label_01008D77
@  #05 @017   ----------------------------------------
 .byte   PATT
  .word Label_01008CE0
@  #05 @018   ----------------------------------------
 .byte   PATT
  .word Label_01008CE0
@  #05 @019   ----------------------------------------
 .byte   PATT
  .word Label_01008CE0
@  #05 @020   ----------------------------------------
 .byte   PATT
  .word Label_01008CE0
@  #05 @021   ----------------------------------------
 .byte   PATT
  .word Label_01008CE0
@  #05 @022   ----------------------------------------
 .byte   PATT
  .word Label_01008CE0
@  #05 @023   ----------------------------------------
 .byte   PATT
  .word Label_01008D4E
@  #05 @024   ----------------------------------------
 .byte   PATT
  .word Label_01008CE0
@  #05 @025   ----------------------------------------
 .byte   PATT
  .word Label_01008CE0
@  #05 @026   ----------------------------------------
 .byte   PATT
  .word Label_01008CE0
@  #05 @027   ----------------------------------------
 .byte   PATT
  .word Label_01008D0E
@  #05 @028   ----------------------------------------
 .byte   PATT
  .word Label_01008CE0
@  #05 @029   ----------------------------------------
 .byte   PATT
  .word Label_01008CE0
@  #05 @030   ----------------------------------------
 .byte   PATT
  .word Label_01008CE0
@  #05 @031   ----------------------------------------
 .byte   PATT
  .word Label_01008D4E
@  #05 @032   ----------------------------------------
 .byte   PATT
  .word Label_01008D77
@  #05 @033   ----------------------------------------
 .byte   PATT
  .word Label_01008CE0
@  #05 @034   ----------------------------------------
 .byte   PATT
  .word Label_01008CE0
@  #05 @035   ----------------------------------------
 .byte   PATT
  .word Label_01008CE0
@  #05 @036   ----------------------------------------
 .byte   PATT
  .word Label_01008CE0
@  #05 @037   ----------------------------------------
 .byte   PATT
  .word Label_01008CE0
@  #05 @038   ----------------------------------------
 .byte   PATT
  .word Label_01008CE0
@  #05 @039   ----------------------------------------
 .byte   PATT
  .word Label_01008D4E
@  #05 @040   ----------------------------------------
 .byte   PATT
  .word Label_01008D77
@  #05 @041   ----------------------------------------
 .byte   PATT
  .word Label_01008CE0
@  #05 @042   ----------------------------------------
 .byte   PATT
  .word Label_01008CE0
@  #05 @043   ----------------------------------------
 .byte   PATT
  .word Label_01008CE0
@  #05 @044   ----------------------------------------
 .byte   PATT
  .word Label_01008CE0
@  #05 @045   ----------------------------------------
 .byte   PATT
  .word Label_01008CE0
@  #05 @046   ----------------------------------------
 .byte   PATT
  .word Label_01008CE0
@  #05 @047   ----------------------------------------
 .byte   PATT
  .word Label_01008D4E
@  #05 @048   ----------------------------------------
 .byte   PATT
  .word Label_01008CE0
@  #05 @049   ----------------------------------------
 .byte   PATT
  .word Label_01008CE0
@  #05 @050   ----------------------------------------
 .byte   PATT
  .word Label_01008CE0
@  #05 @051   ----------------------------------------
 .byte   PATT
  .word Label_01008D0E
@  #05 @052   ----------------------------------------
 .byte   PATT
  .word Label_01008CE0
@  #05 @053   ----------------------------------------
 .byte   PATT
  .word Label_01008CE0
@  #05 @054   ----------------------------------------
 .byte   PATT
  .word Label_01008CE0
@  #05 @055   ----------------------------------------
 .byte   PATT
  .word Label_01008D4E
@  #05 @056   ----------------------------------------
 .byte   PATT
  .word Label_01008D77
@  #05 @057   ----------------------------------------
 .byte   PATT
  .word Label_01008CE0
@  #05 @058   ----------------------------------------
 .byte   PATT
  .word Label_01008CE0
@  #05 @059   ----------------------------------------
 .byte   PATT
  .word Label_01008CE0
@  #05 @060   ----------------------------------------
 .byte   PATT
  .word Label_01008CE0
@  #05 @061   ----------------------------------------
 .byte   PATT
  .word Label_01008CE0
@  #05 @062   ----------------------------------------
 .byte   PATT
  .word Label_01008CE0
@  #05 @063   ----------------------------------------
 .byte   PATT
  .word Label_01008D4E
@  #05 @064   ----------------------------------------
 .byte   N11 ,Ds2 ,v116
 .byte   N11 ,Dn1
 .byte   W12
 .byte   N05 ,Ds2
 .byte   W06
 .byte   Dn1 ,v032
 .byte   W06
 .byte   N11 ,Cn1 ,v059
 .byte   N11 ,Ds2
 .byte   W12
 .byte   Ds2 ,v116
 .byte   N11 ,Dn1
 .byte   W12
 .byte   N05 ,Ds2
 .byte   W06
 .byte   Dn1 ,v032
 .byte   W06
 .byte   N11 ,Cn1 ,v059
 .byte   N11 ,Ds2
 .byte   W12
 .byte   N23 ,Cn1
 .byte   W24
@  #05 @065   ----------------------------------------
 .byte   N11 ,Dn1 ,v116
 .byte   W12
 .byte   Dn1
 .byte   W12
 .byte   Cn1 ,v059
 .byte   N05 ,Ds2
 .byte   W06
 .byte   Dn1
 .byte   W06
 .byte   N11 ,Cn1
 .byte   N11 ,Ds2
 .byte   W12
 .byte   N05
 .byte   W06
 .byte   Dn1 ,v032
 .byte   W06
 .byte   N11 ,Cn1 ,v059
 .byte   N11 ,Ds2
 .byte   W12
 .byte   N23 ,Dn1 ,v116
 .byte   W24
@  #05 @066   ----------------------------------------
Label_01008EFB:
 .byte   N23 ,Cn1 ,v059
 .byte   N11 ,Ds2
 .byte   W12
 .byte   Ds2
 .byte   W12
 .byte   Ds2
 .byte   N11 ,Dn1
 .byte   W12
 .byte   Cn1
 .byte   N11 ,Ds2
 .byte   W12
 .byte   Ds2
 .byte   W12
 .byte   Ds2
 .byte   N11 ,Dn1
 .byte   W12
 .byte   N23 ,Cn1
 .byte   N11 ,Ds2
 .byte   W12
 .byte   Ds2
 .byte   W12
 .byte   PEND 
@  #05 @067   ----------------------------------------
Label_01008F19:
 .byte   N11 ,Ds2 ,v059
 .byte   N11 ,Dn1
 .byte   W12
 .byte   Cn1
 .byte   N11 ,Ds2
 .byte   W12
 .byte   Ds2
 .byte   W12
 .byte   Ds2
 .byte   N11 ,Dn1
 .byte   W12
 .byte   N05 ,Ds2
 .byte   W06
 .byte   Dn1 ,v025
 .byte   W06
 .byte   N11 ,Cn1 ,v059
 .byte   N11 ,Ds2
 .byte   W12
 .byte   Ds2
 .byte   N11 ,Dn1
 .byte   W12
 .byte   N05 ,Ds2
 .byte   W06
 .byte   Dn1 ,v025
 .byte   W06
 .byte   PEND 
@  #05 @068   ----------------------------------------
 .byte   PATT
  .word Label_01008EFB
@  #05 @069   ----------------------------------------
Label_01008F45:
 .byte   N11 ,Ds2 ,v059
 .byte   N11 ,Dn1
 .byte   W12
 .byte   Cn1
 .byte   N11 ,Ds2
 .byte   W12
 .byte   Ds2
 .byte   W12
 .byte   Ds2
 .byte   N11 ,Dn1
 .byte   W12
 .byte   N05 ,Ds2
 .byte   W06
 .byte   Dn1 ,v025
 .byte   W06
 .byte   N11 ,Cn1 ,v059
 .byte   N11 ,Ds2
 .byte   W12
 .byte   N23 ,Dn1
 .byte   W24
 .byte   PEND 
@  #05 @070   ----------------------------------------
 .byte   PATT
  .word Label_01008EFB
@  #05 @071   ----------------------------------------
 .byte   PATT
  .word Label_01008F19
@  #05 @072   ----------------------------------------
 .byte   PATT
  .word Label_01008EFB
@  #05 @073   ----------------------------------------
Label_01008F74:
 .byte   N11 ,Cn1 ,v059
 .byte   W12
 .byte   Cn1
 .byte   W12
 .byte   Ds2
 .byte   W12
 .byte   Ds2
 .byte   N11 ,Dn1
 .byte   W12
 .byte   N05 ,Ds2
 .byte   W06
 .byte   Dn1 ,v025
 .byte   W06
 .byte   Ds2 ,v059
 .byte   W06
 .byte   Dn1 ,v025
 .byte   W06
 .byte   Ds2 ,v059
 .byte   W06
 .byte   Dn1 ,v025
 .byte   W06
 .byte   Ds2 ,v059
 .byte   W06
 .byte   Dn1 ,v025
 .byte   W06
 .byte   PEND 
@  #05 @074   ----------------------------------------
 .byte   PATT
  .word Label_01008EFB
@  #05 @075   ----------------------------------------
 .byte   PATT
  .word Label_01008F19
@  #05 @076   ----------------------------------------
 .byte   PATT
  .word Label_01008EFB
@  #05 @077   ----------------------------------------
 .byte   PATT
  .word Label_01008F45
@  #05 @078   ----------------------------------------
 .byte   PATT
  .word Label_01008EFB
@  #05 @079   ----------------------------------------
 .byte   PATT
  .word Label_01008F19
@  #05 @080   ----------------------------------------
 .byte   PATT
  .word Label_01008EFB
@  #05 @081   ----------------------------------------
 .byte   PATT
  .word Label_01008F74
@  #05 @082   ----------------------------------------
 .byte   PATT
  .word Label_01008EFB
@  #05 @083   ----------------------------------------
 .byte   PATT
  .word Label_01008F19
@  #05 @084   ----------------------------------------
 .byte   PATT
  .word Label_01008EFB
@  #05 @085   ----------------------------------------
 .byte   PATT
  .word Label_01008F45
@  #05 @086   ----------------------------------------
 .byte   PATT
  .word Label_01008EFB
@  #05 @087   ----------------------------------------
 .byte   PATT
  .word Label_01008F19
@  #05 @088   ----------------------------------------
 .byte   PATT
  .word Label_01008EFB
@  #05 @089   ----------------------------------------
 .byte   PATT
  .word Label_01008F74
@  #05 @090   ----------------------------------------
 .byte   PATT
  .word Label_01008EFB
@  #05 @091   ----------------------------------------
 .byte   PATT
  .word Label_01008F19
@  #05 @092   ----------------------------------------
 .byte   PATT
  .word Label_01008EFB
@  #05 @093   ----------------------------------------
 .byte   PATT
  .word Label_01008F45
@  #05 @094   ----------------------------------------
 .byte   PATT
  .word Label_01008EFB
@  #05 @095   ----------------------------------------
 .byte   PATT
  .word Label_01008F19
@  #05 @096   ----------------------------------------
 .byte   PATT
  .word Label_01008EFB
@  #05 @097   ----------------------------------------
 .byte   PATT
  .word Label_01008F74
@  #05 @098   ----------------------------------------
 .byte   PATT
  .word Label_01008CE0
@  #05 @099   ----------------------------------------
 .byte   PATT
  .word Label_01008CE0
@  #05 @100   ----------------------------------------
 .byte   PATT
  .word Label_01008CE0
@  #05 @101   ----------------------------------------
 .byte   PATT
  .word Label_01008D0E
@  #05 @102   ----------------------------------------
 .byte   PATT
  .word Label_01008CE0
@  #05 @103   ----------------------------------------
 .byte   PATT
  .word Label_01008CE0
@  #05 @104   ----------------------------------------
 .byte   PATT
  .word Label_01008CE0
@  #05 @105   ----------------------------------------
 .byte   PATT
  .word Label_01008D4E
@  #05 @106   ----------------------------------------
 .byte   PATT
  .word Label_01008D77
@  #05 @107   ----------------------------------------
 .byte   PATT
  .word Label_01008CE0
@  #05 @108   ----------------------------------------
 .byte   PATT
  .word Label_01008CE0
@  #05 @109   ----------------------------------------
 .byte   PATT
  .word Label_01008CE0
@  #05 @110   ----------------------------------------
 .byte   PATT
  .word Label_01008CE0
@  #05 @111   ----------------------------------------
 .byte   PATT
  .word Label_01008CE0
@  #05 @112   ----------------------------------------
 .byte   PATT
  .word Label_01008CE0
@  #05 @113   ----------------------------------------
 .byte   PATT
  .word Label_01008D4E
@  #05 @114   ----------------------------------------
 .byte   PATT
  .word Label_01008D77
@  #05 @115   ----------------------------------------
 .byte   PATT
  .word Label_01008CE0
@  #05 @116   ----------------------------------------
 .byte   PATT
  .word Label_01008CE0
@  #05 @117   ----------------------------------------
 .byte   PATT
  .word Label_01008CE0
@  #05 @118   ----------------------------------------
 .byte   PATT
  .word Label_01008CE0
@  #05 @119   ----------------------------------------
 .byte   PATT
  .word Label_01008CE0
@  #05 @120   ----------------------------------------
 .byte   PATT
  .word Label_01008CE0
@  #05 @121   ----------------------------------------
 .byte   PATT
  .word Label_01008D4E
@  #05 @122   ----------------------------------------
 .byte   PATT
  .word Label_01008CE0
@  #05 @123   ----------------------------------------
 .byte   PATT
  .word Label_01008CE0
@  #05 @124   ----------------------------------------
 .byte   PATT
  .word Label_01008CE0
@  #05 @125   ----------------------------------------
 .byte   PATT
  .word Label_01008D0E
@  #05 @126   ----------------------------------------
 .byte   PATT
  .word Label_01008CE0
@  #05 @127   ----------------------------------------
 .byte   PATT
  .word Label_01008CE0
@  #05 @128   ----------------------------------------
 .byte   PATT
  .word Label_01008CE0
@  #05 @129   ----------------------------------------
 .byte   PATT
  .word Label_01008D4E
@  #05 @130   ----------------------------------------
 .byte   PATT
  .word Label_01008D77
@  #05 @131   ----------------------------------------
 .byte   PATT
  .word Label_01008CE0
@  #05 @132   ----------------------------------------
 .byte   PATT
  .word Label_01008CE0
@  #05 @133   ----------------------------------------
 .byte   PATT
  .word Label_01008CE0
@  #05 @134   ----------------------------------------
 .byte   PATT
  .word Label_01008CE0
@  #05 @135   ----------------------------------------
 .byte   PATT
  .word Label_01008CE0
@  #05 @136   ----------------------------------------
 .byte   PATT
  .word Label_01008CE0
@  #05 @137   ----------------------------------------
 .byte   PATT
  .word Label_01008D4E
@  #05 @138   ----------------------------------------
 .byte   PATT
  .word Label_01008D77
@  #05 @139   ----------------------------------------
 .byte   PATT
  .word Label_01008CE0
@  #05 @140   ----------------------------------------
 .byte   PATT
  .word Label_01008CE0
@  #05 @141   ----------------------------------------
 .byte   PATT
  .word Label_01008CE0
@  #05 @142   ----------------------------------------
 .byte   PATT
  .word Label_01008CE0
@  #05 @143   ----------------------------------------
 .byte   PATT
  .word Label_01008CE0
@  #05 @144   ----------------------------------------
 .byte   PATT
  .word Label_01008CE0
@  #05 @145   ----------------------------------------
 .byte   PATT
  .word Label_01008D4E
@  #05 @146   ----------------------------------------
 .byte   PATT
  .word Label_01008CE0
@  #05 @147   ----------------------------------------
 .byte   PATT
  .word Label_01008CE0
@  #05 @148   ----------------------------------------
 .byte   PATT
  .word Label_01008CE0
@  #05 @149   ----------------------------------------
 .byte   PATT
  .word Label_01008D0E
@  #05 @150   ----------------------------------------
 .byte   PATT
  .word Label_01008CE0
@  #05 @151   ----------------------------------------
 .byte   PATT
  .word Label_01008CE0
@  #05 @152   ----------------------------------------
 .byte   PATT
  .word Label_01008CE0
@  #05 @153   ----------------------------------------
 .byte   PATT
  .word Label_01008D4E
@  #05 @154   ----------------------------------------
 .byte   PATT
  .word Label_01008D77
@  #05 @155   ----------------------------------------
 .byte   PATT
  .word Label_01008CE0
@  #05 @156   ----------------------------------------
 .byte   PATT
  .word Label_01008CE0
@  #05 @157   ----------------------------------------
 .byte   PATT
  .word Label_01008CE0
@  #05 @158   ----------------------------------------
 .byte   PATT
  .word Label_01008CE0
@  #05 @159   ----------------------------------------
 .byte   PATT
  .word Label_01008CE0
@  #05 @160   ----------------------------------------
 .byte   PATT
  .word Label_01008CE0
@  #05 @161   ----------------------------------------
 .byte   PATT
  .word Label_01008D4E
@  #05 @162   ----------------------------------------
 .byte   GOTO
  .word Label_01008CB2
 .byte   FINE

@******************************************************@
	.align	2

song02:
	.byte	5	@ NumTrks
	.byte	0	@ NumBlks
	.byte	song02_pri	@ Priority
	.byte	song02_rev	@ Reverb.
    
	.word	song02_grp
    
	.word	song02_001
	.word	song02_002
	.word	song02_003
	.word	song02_004
	.word	song02_005

	.end
