	.include "MPlayDef.s"

	.equ	song06_grp, voicegroup000
	.equ	song06_pri, 0
	.equ	song06_rev, 0
	.equ	song06_mvl, 127
	.equ	song06_key, 0
	.equ	song06_tbs, 1
	.equ	song06_exg, 0
	.equ	song06_cmp, 1

	.section .rodata
	.global	song06
	.align	2


@**************** Track 1 (Midi-Chn.0) ****************@

song06_001:
@  #01 @000   ----------------------------------------
 .byte   KEYSH , song06_key+0
 .byte   TEMPO , 210*song06_tbs/2
 .byte   VOICE , 67
 .byte   VOL , 50*song06_mvl/mxv
 .byte   PAN , c_v+0
 .byte   N11 ,Dn1 ,v092
 .byte   W12
 .byte   N11
 .byte   W24
 .byte   N11
 .byte   W24
 .byte   N11
 .byte   W12
 .byte   N11
 .byte   W24
@  #01 @001   ----------------------------------------
 .byte   N20 ,Gn1
 .byte   W48
 .byte   VOICE , 35
 .byte   N20 ,Gn0
 .byte   W48
@  #01 @002   ----------------------------------------
Label_011118DE:
 .byte   N20 ,Cn1 ,v092
 .byte   W36
 .byte   N32 ,En1
 .byte   W36
 .byte   N20 ,Gn1
 .byte   W24
 .byte   PEND 
@  #01 @003   ----------------------------------------
Label_011118E9:
 .byte   W12
 .byte   N20 ,Fn1 ,v092
 .byte   W24
 .byte   Gn1
 .byte   W24
 .byte   N11 ,Fs1
 .byte   W12
 .byte   N20 ,Fn1
 .byte   W24
 .byte   PEND 
@  #01 @004   ----------------------------------------
Label_011118F7:
 .byte   N15 ,En1 ,v092
 .byte   W16
 .byte   Cn2
 .byte   W16
 .byte   En2
 .byte   W16
 .byte   N20 ,Fn2
 .byte   W24
 .byte   N11 ,Dn2
 .byte   W12
 .byte   En2
 .byte   W12
 .byte   PEND 
@  #01 @005   ----------------------------------------
Label_01111908:
 .byte   W12
 .byte   N11 ,Cn2 ,v092
 .byte   W24
 .byte   An1
 .byte   W24
 .byte   Bn1
 .byte   W12
 .byte   N20 ,Gn1
 .byte   W24
 .byte   PEND 
@  #01 @006   ----------------------------------------
 .byte   PATT
  .word Label_011118DE
@  #01 @007   ----------------------------------------
 .byte   PATT
  .word Label_011118E9
@  #01 @008   ----------------------------------------
 .byte   PATT
  .word Label_011118F7
@  #01 @009   ----------------------------------------
 .byte   PATT
  .word Label_01111908
@  #01 @010   ----------------------------------------
Label_01111929:
 .byte   N20 ,Cn1 ,v092
 .byte   W36
 .byte   En1
 .byte   W36
 .byte   N11 ,Gn1
 .byte   W24
 .byte   PEND 
@  #01 @011   ----------------------------------------
Label_01111933:
 .byte   N32 ,Fn1 ,v092
 .byte   W36
 .byte   N11 ,Cn2
 .byte   W12
 .byte   N20
 .byte   W24
 .byte   Fn1
 .byte   W24
 .byte   PEND 
@  #01 @012   ----------------------------------------
 .byte   PATT
  .word Label_01111929
@  #01 @013   ----------------------------------------
Label_01111944:
 .byte   N20 ,Fn1 ,v092
 .byte   W36
 .byte   As0
 .byte   W36
 .byte   N11 ,Bn0
 .byte   W24
 .byte   PEND 
@  #01 @014   ----------------------------------------
 .byte   PATT
  .word Label_01111929
@  #01 @015   ----------------------------------------
 .byte   PATT
  .word Label_01111933
@  #01 @016   ----------------------------------------
Label_01111958:
 .byte   N20 ,Cn1 ,v092
 .byte   W24
 .byte   Gs1
 .byte   W36
 .byte   As1
 .byte   W36
 .byte   PEND 
@  #01 @017   ----------------------------------------
Label_01111961:
 .byte   N20 ,Cn2 ,v092
 .byte   W24
 .byte   N11 ,Fs1
 .byte   W12
 .byte   Gn1
 .byte   W12
 .byte   N42 ,Cn2
 .byte   W48
 .byte   PEND 
@  #01 @018   ----------------------------------------
 .byte   PATT
  .word Label_01111929
@  #01 @019   ----------------------------------------
 .byte   PATT
  .word Label_01111933
@  #01 @020   ----------------------------------------
 .byte   PATT
  .word Label_01111929
@  #01 @021   ----------------------------------------
 .byte   PATT
  .word Label_01111944
@  #01 @022   ----------------------------------------
 .byte   PATT
  .word Label_01111929
@  #01 @023   ----------------------------------------
 .byte   PATT
  .word Label_01111933
@  #01 @024   ----------------------------------------
 .byte   PATT
  .word Label_01111958
@  #01 @025   ----------------------------------------
 .byte   PATT
  .word Label_01111961
@  #01 @026   ----------------------------------------
Label_01111996:
 .byte   N20 ,Fn1 ,v092
 .byte   W48
 .byte   Fs1
 .byte   W48
 .byte   PEND 
@  #01 @027   ----------------------------------------
Label_0111199D:
 .byte   N20 ,Gn1 ,v092
 .byte   W48
 .byte   An1
 .byte   W24
 .byte   N11 ,En1
 .byte   W12
 .byte   Ds1
 .byte   W12
 .byte   PEND 
@  #01 @028   ----------------------------------------
Label_011119A9:
 .byte   N20 ,Dn1 ,v092
 .byte   W48
 .byte   Gn1
 .byte   W48
 .byte   PEND 
@  #01 @029   ----------------------------------------
Label_011119B0:
 .byte   N20 ,Cn1 ,v092
 .byte   W36
 .byte   N11
 .byte   W24
 .byte   N11
 .byte   W12
 .byte   Dn1
 .byte   W12
 .byte   En1
 .byte   W12
 .byte   PEND 
@  #01 @030   ----------------------------------------
 .byte   PATT
  .word Label_01111996
@  #01 @031   ----------------------------------------
Label_011119C2:
 .byte   N20 ,Gn1 ,v092
 .byte   W48
 .byte   N11 ,An1
 .byte   W12
 .byte   An0
 .byte   W12
 .byte   Bn0
 .byte   W12
 .byte   Cs1
 .byte   W12
 .byte   PEND 
@  #01 @032   ----------------------------------------
Label_011119D0:
 .byte   N11 ,Dn1 ,v092
 .byte   W12
 .byte   N11
 .byte   W24
 .byte   N11
 .byte   W24
 .byte   N11
 .byte   W12
 .byte   N11
 .byte   W24
 .byte   PEND 
@  #01 @033   ----------------------------------------
Label_011119DD:
 .byte   N20 ,Gn1 ,v092
 .byte   W48
 .byte   Gn0
 .byte   W48
 .byte   PEND 
@  #01 @034   ----------------------------------------
 .byte   GOTO
  .word Label_011118DE
@  #01 @035   ----------------------------------------
 .byte   PATT
  .word Label_011118DE
@  #01 @036   ----------------------------------------
 .byte   PATT
  .word Label_011118E9
@  #01 @037   ----------------------------------------
 .byte   PATT
  .word Label_011118F7
@  #01 @038   ----------------------------------------
 .byte   PATT
  .word Label_01111908
@  #01 @039   ----------------------------------------
 .byte   PATT
  .word Label_011118DE
@  #01 @040   ----------------------------------------
 .byte   PATT
  .word Label_011118E9
@  #01 @041   ----------------------------------------
 .byte   PATT
  .word Label_011118F7
@  #01 @042   ----------------------------------------
 .byte   PATT
  .word Label_01111908
@  #01 @043   ----------------------------------------
Label_01111A11:
 .byte   N20 ,Cn1 ,v092
 .byte   W36
 .byte   N11 ,Fs1
 .byte   W12
 .byte   N20 ,Gn1
 .byte   W24
 .byte   Cn2
 .byte   W24
 .byte   PEND 
@  #01 @044   ----------------------------------------
Label_01111A1E:
 .byte   N20 ,Dn1 ,v092
 .byte   W24
 .byte   N20
 .byte   W24
 .byte   N11 ,An1
 .byte   W12
 .byte   N11
 .byte   W12
 .byte   N20 ,Dn1
 .byte   W24
 .byte   PEND 
@  #01 @045   ----------------------------------------
Label_01111A2D:
 .byte   N20 ,Gn1 ,v092
 .byte   W36
 .byte   N11 ,Gn0
 .byte   W12
 .byte   N20 ,An0
 .byte   W24
 .byte   Bn0
 .byte   W24
 .byte   PEND 
@  #01 @046   ----------------------------------------
Label_01111A3A:
 .byte   N20 ,Cn1 ,v092
 .byte   W24
 .byte   N20
 .byte   W24
 .byte   N11 ,Gn1
 .byte   W12
 .byte   N11
 .byte   W12
 .byte   N20 ,Cn1
 .byte   W24
 .byte   PEND 
@  #01 @047   ----------------------------------------
 .byte   PATT
  .word Label_01111A11
@  #01 @048   ----------------------------------------
 .byte   PATT
  .word Label_01111A1E
@  #01 @049   ----------------------------------------
Label_01111A53:
 .byte   N20 ,Gn1 ,v092
 .byte   W36
 .byte   N11
 .byte   W12
 .byte   N15
 .byte   W16
 .byte   An1
 .byte   W16
 .byte   Bn1
 .byte   W16
 .byte   PEND 
@  #01 @050   ----------------------------------------
Label_01111A60:
 .byte   N20 ,Cn2 ,v092
 .byte   W24
 .byte   N11 ,Fs1
 .byte   W12
 .byte   Gn1
 .byte   W12
 .byte   N20 ,Cn2
 .byte   W48
 .byte   PEND 
@  #01 @051   ----------------------------------------
 .byte   PATT
  .word Label_01111A11
@  #01 @052   ----------------------------------------
 .byte   PATT
  .word Label_01111A1E
@  #01 @053   ----------------------------------------
 .byte   PATT
  .word Label_01111A2D
@  #01 @054   ----------------------------------------
 .byte   PATT
  .word Label_01111A3A
@  #01 @055   ----------------------------------------
 .byte   PATT
  .word Label_01111A11
@  #01 @056   ----------------------------------------
 .byte   PATT
  .word Label_01111A1E
@  #01 @057   ----------------------------------------
 .byte   PATT
  .word Label_01111A53
@  #01 @058   ----------------------------------------
 .byte   PATT
  .word Label_01111A60
@  #01 @059   ----------------------------------------
 .byte   PATT
  .word Label_01111996
@  #01 @060   ----------------------------------------
 .byte   PATT
  .word Label_0111199D
@  #01 @061   ----------------------------------------
 .byte   PATT
  .word Label_011119A9
@  #01 @062   ----------------------------------------
 .byte   PATT
  .word Label_011119B0
@  #01 @063   ----------------------------------------
 .byte   PATT
  .word Label_01111996
@  #01 @064   ----------------------------------------
 .byte   PATT
  .word Label_011119C2
@  #01 @065   ----------------------------------------
 .byte   PATT
  .word Label_011119D0
@  #01 @066   ----------------------------------------
 .byte   PATT
  .word Label_011119DD
@  #01 @067   ----------------------------------------
 .byte   PATT
  .word Label_01111A11
@  #01 @068   ----------------------------------------
 .byte   PATT
  .word Label_01111A1E
@  #01 @069   ----------------------------------------
 .byte   PATT
  .word Label_01111A2D
@  #01 @070   ----------------------------------------
 .byte   PATT
  .word Label_01111A3A
@  #01 @071   ----------------------------------------
 .byte   PATT
  .word Label_01111A11
@  #01 @072   ----------------------------------------
 .byte   PATT
  .word Label_01111A1E
@  #01 @073   ----------------------------------------
 .byte   PATT
  .word Label_01111A53
@  #01 @074   ----------------------------------------
 .byte   PATT
  .word Label_01111A60
@  #01 @075   ----------------------------------------
 .byte   VOICE , 35
 .byte   PAN , c_v+0
 .byte   N20 ,Cn1 ,v092
 .byte   W36
 .byte   N32 ,En1
 .byte   W36
 .byte   N20 ,Gn1
 .byte   W24
@  #01 @076   ----------------------------------------
 .byte   PATT
  .word Label_011118E9
@  #01 @077   ----------------------------------------
 .byte   PATT
  .word Label_011118F7
@  #01 @078   ----------------------------------------
 .byte   PATT
  .word Label_01111908
@  #01 @079   ----------------------------------------
 .byte   PATT
  .word Label_011118DE
@  #01 @080   ----------------------------------------
 .byte   PATT
  .word Label_011118E9
@  #01 @081   ----------------------------------------
 .byte   PATT
  .word Label_011118F7
@  #01 @082   ----------------------------------------
 .byte   PATT
  .word Label_01111908
@  #01 @083   ----------------------------------------
 .byte   PATT
  .word Label_01111929
@  #01 @084   ----------------------------------------
 .byte   PATT
  .word Label_01111933
@  #01 @085   ----------------------------------------
 .byte   PATT
  .word Label_01111929
@  #01 @086   ----------------------------------------
 .byte   PATT
  .word Label_01111944
@  #01 @087   ----------------------------------------
 .byte   PATT
  .word Label_01111929
@  #01 @088   ----------------------------------------
 .byte   PATT
  .word Label_01111933
@  #01 @089   ----------------------------------------
 .byte   PATT
  .word Label_01111958
@  #01 @090   ----------------------------------------
 .byte   PATT
  .word Label_01111961
@  #01 @091   ----------------------------------------
 .byte   PATT
  .word Label_01111929
@  #01 @092   ----------------------------------------
 .byte   PATT
  .word Label_01111933
@  #01 @093   ----------------------------------------
 .byte   PATT
  .word Label_01111929
@  #01 @094   ----------------------------------------
 .byte   PATT
  .word Label_01111944
@  #01 @095   ----------------------------------------
 .byte   PATT
  .word Label_01111929
@  #01 @096   ----------------------------------------
 .byte   PATT
  .word Label_01111933
@  #01 @097   ----------------------------------------
 .byte   PATT
  .word Label_01111958
@  #01 @098   ----------------------------------------
 .byte   PATT
  .word Label_01111961
@  #01 @099   ----------------------------------------
 .byte   PATT
  .word Label_01111996
@  #01 @100   ----------------------------------------
 .byte   PATT
  .word Label_0111199D
@  #01 @101   ----------------------------------------
 .byte   PATT
  .word Label_011119A9
@  #01 @102   ----------------------------------------
 .byte   PATT
  .word Label_011119B0
@  #01 @103   ----------------------------------------
 .byte   PATT
  .word Label_01111996
@  #01 @104   ----------------------------------------
 .byte   PATT
  .word Label_011119C2
@  #01 @105   ----------------------------------------
 .byte   PATT
  .word Label_011119D0
@  #01 @106   ----------------------------------------
 .byte   PATT
  .word Label_011119DD
@  #01 @107   ----------------------------------------
 .byte   PATT
  .word Label_011118DE
@  #01 @108   ----------------------------------------
 .byte   PATT
  .word Label_011118E9
@  #01 @109   ----------------------------------------
 .byte   PATT
  .word Label_011118F7
@  #01 @110   ----------------------------------------
 .byte   PATT
  .word Label_01111908
@  #01 @111   ----------------------------------------
 .byte   PATT
  .word Label_011118DE
@  #01 @112   ----------------------------------------
 .byte   PATT
  .word Label_011118E9
@  #01 @113   ----------------------------------------
 .byte   PATT
  .word Label_011118F7
@  #01 @114   ----------------------------------------
 .byte   PATT
  .word Label_01111908
@  #01 @115   ----------------------------------------
 .byte   PATT
  .word Label_01111A11
@  #01 @116   ----------------------------------------
 .byte   PATT
  .word Label_01111A1E
@  #01 @117   ----------------------------------------
 .byte   PATT
  .word Label_01111A2D
@  #01 @118   ----------------------------------------
 .byte   PATT
  .word Label_01111A3A
@  #01 @119   ----------------------------------------
 .byte   PATT
  .word Label_01111A11
@  #01 @120   ----------------------------------------
 .byte   PATT
  .word Label_01111A1E
@  #01 @121   ----------------------------------------
 .byte   PATT
  .word Label_01111A53
@  #01 @122   ----------------------------------------
 .byte   PATT
  .word Label_01111A60
@  #01 @123   ----------------------------------------
 .byte   PATT
  .word Label_01111A11
@  #01 @124   ----------------------------------------
 .byte   PATT
  .word Label_01111A1E
@  #01 @125   ----------------------------------------
 .byte   PATT
  .word Label_01111A2D
@  #01 @126   ----------------------------------------
 .byte   PATT
  .word Label_01111A3A
@  #01 @127   ----------------------------------------
 .byte   PATT
  .word Label_01111A11
@  #01 @128   ----------------------------------------
 .byte   PATT
  .word Label_01111A1E
@  #01 @129   ----------------------------------------
 .byte   PATT
  .word Label_01111A53
@  #01 @130   ----------------------------------------
 .byte   PATT
  .word Label_01111A60
@  #01 @131   ----------------------------------------
 .byte   PATT
  .word Label_01111996
@  #01 @132   ----------------------------------------
 .byte   PATT
  .word Label_0111199D
@  #01 @133   ----------------------------------------
 .byte   PATT
  .word Label_011119A9
@  #01 @134   ----------------------------------------
 .byte   PATT
  .word Label_011119B0
@  #01 @135   ----------------------------------------
 .byte   PATT
  .word Label_01111996
@  #01 @136   ----------------------------------------
 .byte   PATT
  .word Label_011119C2
@  #01 @137   ----------------------------------------
 .byte   PATT
  .word Label_011119D0
@  #01 @138   ----------------------------------------
 .byte   PATT
  .word Label_011119DD
@  #01 @139   ----------------------------------------
 .byte   PATT
  .word Label_01111A11
@  #01 @140   ----------------------------------------
 .byte   PATT
  .word Label_01111A1E
@  #01 @141   ----------------------------------------
 .byte   PATT
  .word Label_01111A2D
@  #01 @142   ----------------------------------------
 .byte   PATT
  .word Label_01111A3A
@  #01 @143   ----------------------------------------
 .byte   PATT
  .word Label_01111A11
@  #01 @144   ----------------------------------------
 .byte   PATT
  .word Label_01111A1E
@  #01 @145   ----------------------------------------
 .byte   PATT
  .word Label_01111A53
@  #01 @146   ----------------------------------------
 .byte   N20 ,Cn2 ,v092
 .byte   W24
 .byte   N11 ,Fs1
 .byte   W12
 .byte   Gn1
 .byte   W12
 .byte   N20 ,Cn2
 .byte   W44
 .byte   W03
 .byte   FINE

@**************** Track 2 (Midi-Chn.1) ****************@

song06_002:
@  #02 @000   ----------------------------------------
 .byte   KEYSH , song06_key+0
 .byte   VOICE , 61
 .byte   VOL , 50*song06_mvl/mxv
 .byte   PAN , c_v+63
 .byte   N11 ,An3 ,v092
 .byte   N11 ,En4
 .byte   W12
 .byte   An3
 .byte   N11 ,En4
 .byte   W24
 .byte   An3
 .byte   N11 ,En4
 .byte   W24
 .byte   An3
 .byte   N11 ,Cn4
 .byte   W12
 .byte   An3
 .byte   N11 ,En4
 .byte   W24
@  #02 @001   ----------------------------------------
Label_0110BB9E:
 .byte   N20 ,Dn4 ,v092
 .byte   N20 ,Gn4
 .byte   W48
 .byte   VOICE , 54
 .byte   N20 ,Gn3
 .byte   N20 ,Gn4
 .byte   W48
 .byte   PEND 
@  #02 @002   ----------------------------------------
Label_0110BBAC:
 .byte   VOICE , 65
 .byte   N20 ,En2 ,v076
 .byte   N20 ,Cn3
 .byte   W36
 .byte   Cn2
 .byte   N20 ,Gn2
 .byte   W36
 .byte   Gn1
 .byte   N20 ,En2
 .byte   W24
 .byte   PEND 
@  #02 @003   ----------------------------------------
Label_0110BBBD:
 .byte   W12
 .byte   N11 ,Cn2 ,v076
 .byte   N11 ,An2
 .byte   W24
 .byte   N20 ,Dn2
 .byte   N20 ,Bn2
 .byte   W24
 .byte   N11 ,Cs2
 .byte   N11 ,As2
 .byte   W12
 .byte   N20 ,Cn2
 .byte   N20 ,An2
 .byte   W24
 .byte   PEND 
@  #02 @004   ----------------------------------------
Label_0110BBD4:
 .byte   N15 ,Dn2 ,v076
 .byte   N15 ,Gn2
 .byte   W16
 .byte   N15
 .byte   N15 ,En3
 .byte   W16
 .byte   Bn2
 .byte   N15 ,Gn3
 .byte   W16
 .byte   N20 ,Cn3
 .byte   N20 ,An3
 .byte   W24
 .byte   N11 ,An2
 .byte   N11 ,Fn3
 .byte   W12
 .byte   Bn2
 .byte   N11 ,Gn3
 .byte   W12
 .byte   PEND 
@  #02 @005   ----------------------------------------
Label_0110BBF1:
 .byte   W12
 .byte   N11 ,Gn2 ,v076
 .byte   N11 ,En3
 .byte   W24
 .byte   En2
 .byte   N11 ,Cn3
 .byte   W24
 .byte   Fn2
 .byte   N11 ,Dn3
 .byte   W12
 .byte   N20 ,Dn2
 .byte   N20 ,Bn2
 .byte   W24
 .byte   PEND 
@  #02 @006   ----------------------------------------
Label_0110BC06:
 .byte   N20 ,En2 ,v076
 .byte   N20 ,Cn3
 .byte   W36
 .byte   Cn2
 .byte   N20 ,Gn2
 .byte   W36
 .byte   Gn1
 .byte   N20 ,En2
 .byte   W24
 .byte   PEND 
@  #02 @007   ----------------------------------------
 .byte   PATT
  .word Label_0110BBBD
@  #02 @008   ----------------------------------------
 .byte   PATT
  .word Label_0110BBD4
@  #02 @009   ----------------------------------------
 .byte   PATT
  .word Label_0110BBF1
@  #02 @010   ----------------------------------------
 .byte   W96
@  #02 @011   ----------------------------------------
 .byte   W96
@  #02 @012   ----------------------------------------
 .byte   W96
@  #02 @013   ----------------------------------------
 .byte   W96
@  #02 @014   ----------------------------------------
 .byte   W96
@  #02 @015   ----------------------------------------
 .byte   W96
@  #02 @016   ----------------------------------------
 .byte   W96
@  #02 @017   ----------------------------------------
 .byte   W96
@  #02 @018   ----------------------------------------
 .byte   W96
@  #02 @019   ----------------------------------------
 .byte   W96
@  #02 @020   ----------------------------------------
 .byte   W96
@  #02 @021   ----------------------------------------
 .byte   W96
@  #02 @022   ----------------------------------------
 .byte   W96
@  #02 @023   ----------------------------------------
 .byte   W96
@  #02 @024   ----------------------------------------
 .byte   W96
@  #02 @025   ----------------------------------------
 .byte   W96
@  #02 @026   ----------------------------------------
Label_0110BC34:
 .byte   N11 ,En2 ,v076
 .byte   N11 ,Cn3
 .byte   W12
 .byte   En2
 .byte   N11 ,Cn3
 .byte   W24
 .byte   En2
 .byte   N11 ,Cn3
 .byte   W24
 .byte   En2
 .byte   N11 ,Cn3
 .byte   W12
 .byte   N20 ,En2
 .byte   N20 ,Dn3
 .byte   W24
 .byte   PEND 
@  #02 @027   ----------------------------------------
Label_0110BC4C:
 .byte   N11 ,En2 ,v076
 .byte   N11 ,En3
 .byte   W12
 .byte   En2
 .byte   N11 ,Cn3
 .byte   W24
 .byte   Cn2
 .byte   N11 ,An2
 .byte   W12
 .byte   N20 ,Dn2
 .byte   N20 ,Gn2
 .byte   W24
 .byte   Cs2
 .byte   W24
 .byte   PEND 
@  #02 @028   ----------------------------------------
Label_0110BC62:
 .byte   N11 ,Fn2 ,v076
 .byte   N11 ,Cn3
 .byte   W12
 .byte   Fn2
 .byte   N11 ,Cn3
 .byte   W24
 .byte   Fn2
 .byte   N11 ,Cn3
 .byte   W24
 .byte   Fn2
 .byte   N11 ,Cn3
 .byte   W12
 .byte   Fn2
 .byte   N11 ,Dn3
 .byte   W12
 .byte   N32 ,Gn2
 .byte   N32 ,En3
 .byte   W12
 .byte   PEND 
@  #02 @029   ----------------------------------------
 .byte   W96
@  #02 @030   ----------------------------------------
 .byte   PATT
  .word Label_0110BC34
@  #02 @031   ----------------------------------------
 .byte   PATT
  .word Label_0110BC4C
@  #02 @032   ----------------------------------------
Label_0110BC89:
 .byte   VOICE , 61
 .byte   N11 ,An3 ,v092
 .byte   N11 ,En4
 .byte   W12
 .byte   An3
 .byte   N11 ,En4
 .byte   W24
 .byte   An3
 .byte   N11 ,En4
 .byte   W24
 .byte   An3
 .byte   N11 ,Cn4
 .byte   W12
 .byte   An3
 .byte   N11 ,En4
 .byte   W24
 .byte   PEND 
@  #02 @033   ----------------------------------------
 .byte   PATT
  .word Label_0110BB9E
@  #02 @034   ----------------------------------------
 .byte   GOTO
  .word Label_0110BBAC
@  #02 @035   ----------------------------------------
 .byte   PATT
  .word Label_0110BBAC
@  #02 @036   ----------------------------------------
 .byte   PATT
  .word Label_0110BBBD
@  #02 @037   ----------------------------------------
 .byte   PATT
  .word Label_0110BBD4
@  #02 @038   ----------------------------------------
 .byte   PATT
  .word Label_0110BBF1
@  #02 @039   ----------------------------------------
 .byte   PATT
  .word Label_0110BC06
@  #02 @040   ----------------------------------------
 .byte   PATT
  .word Label_0110BBBD
@  #02 @041   ----------------------------------------
 .byte   PATT
  .word Label_0110BBD4
@  #02 @042   ----------------------------------------
 .byte   PATT
  .word Label_0110BBF1
@  #02 @043   ----------------------------------------
 .byte   W96
@  #02 @044   ----------------------------------------
 .byte   W96
@  #02 @045   ----------------------------------------
 .byte   W96
@  #02 @046   ----------------------------------------
 .byte   W96
@  #02 @047   ----------------------------------------
 .byte   W96
@  #02 @048   ----------------------------------------
 .byte   W96
@  #02 @049   ----------------------------------------
 .byte   W96
@  #02 @050   ----------------------------------------
 .byte   W96
@  #02 @051   ----------------------------------------
 .byte   W96
@  #02 @052   ----------------------------------------
 .byte   W96
@  #02 @053   ----------------------------------------
 .byte   W96
@  #02 @054   ----------------------------------------
 .byte   W96
@  #02 @055   ----------------------------------------
 .byte   W96
@  #02 @056   ----------------------------------------
 .byte   W96
@  #02 @057   ----------------------------------------
 .byte   W96
@  #02 @058   ----------------------------------------
 .byte   W96
@  #02 @059   ----------------------------------------
 .byte   PATT
  .word Label_0110BC34
@  #02 @060   ----------------------------------------
 .byte   PATT
  .word Label_0110BC4C
@  #02 @061   ----------------------------------------
 .byte   PATT
  .word Label_0110BC62
@  #02 @062   ----------------------------------------
 .byte   W96
@  #02 @063   ----------------------------------------
 .byte   PATT
  .word Label_0110BC34
@  #02 @064   ----------------------------------------
 .byte   PATT
  .word Label_0110BC4C
@  #02 @065   ----------------------------------------
 .byte   PATT
  .word Label_0110BC89
@  #02 @066   ----------------------------------------
 .byte   PATT
  .word Label_0110BB9E
@  #02 @067   ----------------------------------------
 .byte   VOICE , 65
 .byte   W96
@  #02 @068   ----------------------------------------
 .byte   W96
@  #02 @069   ----------------------------------------
 .byte   W96
@  #02 @070   ----------------------------------------
 .byte   W96
@  #02 @071   ----------------------------------------
 .byte   W96
@  #02 @072   ----------------------------------------
 .byte   W96
@  #02 @073   ----------------------------------------
 .byte   W96
@  #02 @074   ----------------------------------------
 .byte   W96
@  #02 @075   ----------------------------------------
 .byte   Fn3
 .byte   PAN , c_v+63
 .byte   N20 ,En2 ,v076
 .byte   N20 ,Cn3
 .byte   W36
 .byte   Cn2
 .byte   N20 ,Gn2
 .byte   W36
 .byte   Gn1
 .byte   N20 ,En2
 .byte   W24
@  #02 @076   ----------------------------------------
 .byte   PATT
  .word Label_0110BBBD
@  #02 @077   ----------------------------------------
 .byte   PATT
  .word Label_0110BBD4
@  #02 @078   ----------------------------------------
 .byte   PATT
  .word Label_0110BBF1
@  #02 @079   ----------------------------------------
 .byte   PATT
  .word Label_0110BC06
@  #02 @080   ----------------------------------------
 .byte   PATT
  .word Label_0110BBBD
@  #02 @081   ----------------------------------------
 .byte   PATT
  .word Label_0110BBD4
@  #02 @082   ----------------------------------------
 .byte   PATT
  .word Label_0110BBF1
@  #02 @083   ----------------------------------------
 .byte   W96
@  #02 @084   ----------------------------------------
 .byte   W96
@  #02 @085   ----------------------------------------
 .byte   W96
@  #02 @086   ----------------------------------------
 .byte   W96
@  #02 @087   ----------------------------------------
 .byte   W96
@  #02 @088   ----------------------------------------
 .byte   W96
@  #02 @089   ----------------------------------------
 .byte   W96
@  #02 @090   ----------------------------------------
 .byte   W96
@  #02 @091   ----------------------------------------
 .byte   W96
@  #02 @092   ----------------------------------------
 .byte   W96
@  #02 @093   ----------------------------------------
 .byte   W96
@  #02 @094   ----------------------------------------
 .byte   W96
@  #02 @095   ----------------------------------------
 .byte   W96
@  #02 @096   ----------------------------------------
 .byte   W96
@  #02 @097   ----------------------------------------
 .byte   W96
@  #02 @098   ----------------------------------------
 .byte   W96
@  #02 @099   ----------------------------------------
 .byte   PATT
  .word Label_0110BC34
@  #02 @100   ----------------------------------------
 .byte   PATT
  .word Label_0110BC4C
@  #02 @101   ----------------------------------------
 .byte   PATT
  .word Label_0110BC62
@  #02 @102   ----------------------------------------
 .byte   W96
@  #02 @103   ----------------------------------------
 .byte   PATT
  .word Label_0110BC34
@  #02 @104   ----------------------------------------
 .byte   PATT
  .word Label_0110BC4C
@  #02 @105   ----------------------------------------
 .byte   PATT
  .word Label_0110BC89
@  #02 @106   ----------------------------------------
 .byte   PATT
  .word Label_0110BB9E
@  #02 @107   ----------------------------------------
 .byte   PATT
  .word Label_0110BBAC
@  #02 @108   ----------------------------------------
 .byte   PATT
  .word Label_0110BBBD
@  #02 @109   ----------------------------------------
 .byte   PATT
  .word Label_0110BBD4
@  #02 @110   ----------------------------------------
 .byte   PATT
  .word Label_0110BBF1
@  #02 @111   ----------------------------------------
 .byte   PATT
  .word Label_0110BC06
@  #02 @112   ----------------------------------------
 .byte   PATT
  .word Label_0110BBBD
@  #02 @113   ----------------------------------------
 .byte   PATT
  .word Label_0110BBD4
@  #02 @114   ----------------------------------------
 .byte   PATT
  .word Label_0110BBF1
@  #02 @115   ----------------------------------------
 .byte   W96
@  #02 @116   ----------------------------------------
 .byte   W96
@  #02 @117   ----------------------------------------
 .byte   W96
@  #02 @118   ----------------------------------------
 .byte   W96
@  #02 @119   ----------------------------------------
 .byte   W96
@  #02 @120   ----------------------------------------
 .byte   W96
@  #02 @121   ----------------------------------------
 .byte   W96
@  #02 @122   ----------------------------------------
 .byte   W96
@  #02 @123   ----------------------------------------
 .byte   W96
@  #02 @124   ----------------------------------------
 .byte   W96
@  #02 @125   ----------------------------------------
 .byte   W96
@  #02 @126   ----------------------------------------
 .byte   W96
@  #02 @127   ----------------------------------------
 .byte   W96
@  #02 @128   ----------------------------------------
 .byte   W96
@  #02 @129   ----------------------------------------
 .byte   W96
@  #02 @130   ----------------------------------------
 .byte   W96
@  #02 @131   ----------------------------------------
 .byte   PATT
  .word Label_0110BC34
@  #02 @132   ----------------------------------------
 .byte   PATT
  .word Label_0110BC4C
@  #02 @133   ----------------------------------------
 .byte   PATT
  .word Label_0110BC62
@  #02 @134   ----------------------------------------
 .byte   W96
@  #02 @135   ----------------------------------------
 .byte   PATT
  .word Label_0110BC34
@  #02 @136   ----------------------------------------
 .byte   PATT
  .word Label_0110BC4C
@  #02 @137   ----------------------------------------
 .byte   PATT
  .word Label_0110BC89
@  #02 @138   ----------------------------------------
 .byte   PATT
  .word Label_0110BB9E
@  #02 @139   ----------------------------------------
 .byte   VOICE , 65
 .byte   W96
@  #02 @140   ----------------------------------------
 .byte   W96
@  #02 @141   ----------------------------------------
 .byte   W96
@  #02 @142   ----------------------------------------
 .byte   W96
@  #02 @143   ----------------------------------------
 .byte   W96
@  #02 @144   ----------------------------------------
 .byte   W96
@  #02 @145   ----------------------------------------
 .byte   W96
@  #02 @146   ----------------------------------------
 .byte   W92
 .byte   W03
 .byte   FINE

@**************** Track 3 (Midi-Chn.2) ****************@

song06_003:
@  #03 @000   ----------------------------------------
 .byte   KEYSH , song06_key+0
 .byte   VOICE , 61
 .byte   VOL , 50*song06_mvl/mxv
 .byte   PAN , c_v-64
 .byte   N11 ,Fs3 ,v092
 .byte   N11 ,An3
 .byte   W12
 .byte   Fs3
 .byte   N11 ,An3
 .byte   W24
 .byte   Fs3
 .byte   N11 ,An3
 .byte   W24
 .byte   Dn3
 .byte   N11 ,An3
 .byte   W12
 .byte   Fs3
 .byte   N11 ,An3
 .byte   W24
@  #03 @001   ----------------------------------------
Label_0110BF2E:
 .byte   N20 ,Cn4 ,v092
 .byte   N20 ,Dn4
 .byte   W48
 .byte   VOICE , 54
 .byte   N20 ,Gn3
 .byte   N20 ,Gn4
 .byte   W48
 .byte   PEND 
@  #03 @002   ----------------------------------------
Label_0110BF3C:
 .byte   VOICE , 65
 .byte   N20 ,Gn2 ,v076
 .byte   N20 ,Cn3
 .byte   W36
 .byte   Dn2
 .byte   N20 ,Gn2
 .byte   W36
 .byte   Bn1
 .byte   N20 ,En2
 .byte   W24
 .byte   PEND 
@  #03 @003   ----------------------------------------
Label_0110BF4D:
 .byte   W12
 .byte   N11 ,En2 ,v076
 .byte   N11 ,An2
 .byte   W24
 .byte   N20 ,Fs2
 .byte   N20 ,Bn2
 .byte   W24
 .byte   N11 ,Fn2
 .byte   N11 ,As2
 .byte   W12
 .byte   N20 ,En2
 .byte   N20 ,An2
 .byte   W24
 .byte   PEND 
@  #03 @004   ----------------------------------------
Label_0110BF64:
 .byte   N15 ,Dn2 ,v076
 .byte   N15 ,Gn2
 .byte   W16
 .byte   Bn2
 .byte   N15 ,En3
 .byte   W16
 .byte   Dn3
 .byte   N15 ,Gn3
 .byte   W16
 .byte   N20 ,En3
 .byte   N20 ,An3
 .byte   W24
 .byte   N11 ,Cn3
 .byte   N11 ,Fn3
 .byte   W12
 .byte   Dn3
 .byte   N11 ,Gn3
 .byte   W12
 .byte   PEND 
@  #03 @005   ----------------------------------------
Label_0110BF81:
 .byte   W12
 .byte   N11 ,Bn2 ,v076
 .byte   N11 ,En3
 .byte   W24
 .byte   Gn2
 .byte   N11 ,Cn3
 .byte   W24
 .byte   An2
 .byte   N11 ,Dn3
 .byte   W12
 .byte   N20 ,Fs2
 .byte   N20 ,Bn2
 .byte   W24
 .byte   PEND 
@  #03 @006   ----------------------------------------
Label_0110BF96:
 .byte   N20 ,Gn2 ,v076
 .byte   N20 ,Cn3
 .byte   W36
 .byte   Dn2
 .byte   N20 ,Gn2
 .byte   W36
 .byte   Bn1
 .byte   N20 ,En2
 .byte   W24
 .byte   PEND 
@  #03 @007   ----------------------------------------
 .byte   PATT
  .word Label_0110BF4D
@  #03 @008   ----------------------------------------
 .byte   PATT
  .word Label_0110BF64
@  #03 @009   ----------------------------------------
 .byte   PATT
  .word Label_0110BF81
@  #03 @010   ----------------------------------------
 .byte   W96
@  #03 @011   ----------------------------------------
 .byte   W96
@  #03 @012   ----------------------------------------
 .byte   W96
@  #03 @013   ----------------------------------------
 .byte   W96
@  #03 @014   ----------------------------------------
 .byte   W96
@  #03 @015   ----------------------------------------
 .byte   W96
@  #03 @016   ----------------------------------------
 .byte   W96
@  #03 @017   ----------------------------------------
 .byte   W96
@  #03 @018   ----------------------------------------
 .byte   W96
@  #03 @019   ----------------------------------------
 .byte   W96
@  #03 @020   ----------------------------------------
 .byte   W96
@  #03 @021   ----------------------------------------
 .byte   W96
@  #03 @022   ----------------------------------------
 .byte   W96
@  #03 @023   ----------------------------------------
 .byte   W96
@  #03 @024   ----------------------------------------
 .byte   W96
@  #03 @025   ----------------------------------------
 .byte   W96
@  #03 @026   ----------------------------------------
Label_0110BFC4:
 .byte   N11 ,An2 ,v076
 .byte   N11 ,Cn3
 .byte   W12
 .byte   An2
 .byte   N11 ,Cn3
 .byte   W24
 .byte   An2
 .byte   N11 ,Cn3
 .byte   W24
 .byte   An2
 .byte   N11 ,Cn3
 .byte   W12
 .byte   N20 ,An2
 .byte   N20 ,Dn3
 .byte   W24
 .byte   PEND 
@  #03 @027   ----------------------------------------
Label_0110BFDC:
 .byte   N11 ,Cn3 ,v076
 .byte   N11 ,En3
 .byte   W12
 .byte   An2
 .byte   N11 ,Cn3
 .byte   W24
 .byte   Fn2
 .byte   N11 ,An2
 .byte   W12
 .byte   N20 ,En2
 .byte   N20 ,Gn2
 .byte   W48
 .byte   PEND 
@  #03 @028   ----------------------------------------
Label_0110BFF0:
 .byte   N11 ,An2 ,v076
 .byte   W12
 .byte   N11
 .byte   W24
 .byte   N11
 .byte   W24
 .byte   N11
 .byte   W12
 .byte   N11
 .byte   W12
 .byte   N32 ,Bn2
 .byte   W12
 .byte   PEND 
@  #03 @029   ----------------------------------------
 .byte   W96
@  #03 @030   ----------------------------------------
 .byte   PATT
  .word Label_0110BFC4
@  #03 @031   ----------------------------------------
 .byte   PATT
  .word Label_0110BFDC
@  #03 @032   ----------------------------------------
Label_0110C00B:
 .byte   VOICE , 61
 .byte   PAN , c_v-64
 .byte   N11 ,Fs3 ,v092
 .byte   N11 ,An3
 .byte   W12
 .byte   Fs3
 .byte   N11 ,An3
 .byte   W24
 .byte   Fs3
 .byte   N11 ,An3
 .byte   W24
 .byte   Dn3
 .byte   N11 ,An3
 .byte   W12
 .byte   Fs3
 .byte   N11 ,An3
 .byte   W24
 .byte   PEND 
@  #03 @033   ----------------------------------------
 .byte   PATT
  .word Label_0110BF2E
@  #03 @034   ----------------------------------------
 .byte   GOTO
  .word Label_0110BF3C
@  #03 @035   ----------------------------------------
 .byte   PATT
  .word Label_0110BF3C
@  #03 @036   ----------------------------------------
 .byte   PATT
  .word Label_0110BF4D
@  #03 @037   ----------------------------------------
 .byte   PATT
  .word Label_0110BF64
@  #03 @038   ----------------------------------------
 .byte   PATT
  .word Label_0110BF81
@  #03 @039   ----------------------------------------
 .byte   PATT
  .word Label_0110BF96
@  #03 @040   ----------------------------------------
 .byte   PATT
  .word Label_0110BF4D
@  #03 @041   ----------------------------------------
 .byte   PATT
  .word Label_0110BF64
@  #03 @042   ----------------------------------------
 .byte   PATT
  .word Label_0110BF81
@  #03 @043   ----------------------------------------
 .byte   W96
@  #03 @044   ----------------------------------------
 .byte   W96
@  #03 @045   ----------------------------------------
 .byte   W96
@  #03 @046   ----------------------------------------
 .byte   W96
@  #03 @047   ----------------------------------------
 .byte   W96
@  #03 @048   ----------------------------------------
 .byte   W96
@  #03 @049   ----------------------------------------
 .byte   W96
@  #03 @050   ----------------------------------------
 .byte   W96
@  #03 @051   ----------------------------------------
 .byte   W96
@  #03 @052   ----------------------------------------
 .byte   W96
@  #03 @053   ----------------------------------------
 .byte   W96
@  #03 @054   ----------------------------------------
 .byte   W96
@  #03 @055   ----------------------------------------
 .byte   W96
@  #03 @056   ----------------------------------------
 .byte   W96
@  #03 @057   ----------------------------------------
 .byte   W96
@  #03 @058   ----------------------------------------
 .byte   W96
@  #03 @059   ----------------------------------------
 .byte   PATT
  .word Label_0110BFC4
@  #03 @060   ----------------------------------------
 .byte   PATT
  .word Label_0110BFDC
@  #03 @061   ----------------------------------------
 .byte   PATT
  .word Label_0110BFF0
@  #03 @062   ----------------------------------------
 .byte   W96
@  #03 @063   ----------------------------------------
 .byte   PATT
  .word Label_0110BFC4
@  #03 @064   ----------------------------------------
 .byte   PATT
  .word Label_0110BFDC
@  #03 @065   ----------------------------------------
 .byte   PATT
  .word Label_0110C00B
@  #03 @066   ----------------------------------------
 .byte   PATT
  .word Label_0110BF2E
@  #03 @067   ----------------------------------------
 .byte   VOICE , 65
 .byte   W96
@  #03 @068   ----------------------------------------
 .byte   W96
@  #03 @069   ----------------------------------------
 .byte   W96
@  #03 @070   ----------------------------------------
 .byte   W96
@  #03 @071   ----------------------------------------
 .byte   W96
@  #03 @072   ----------------------------------------
 .byte   W96
@  #03 @073   ----------------------------------------
 .byte   W96
@  #03 @074   ----------------------------------------
 .byte   W96
@  #03 @075   ----------------------------------------
 .byte   Fn3
 .byte   PAN , c_v-64
 .byte   N20 ,Gn2 ,v076
 .byte   N20 ,Cn3
 .byte   W36
 .byte   Dn2
 .byte   N20 ,Gn2
 .byte   W36
 .byte   Bn1
 .byte   N20 ,En2
 .byte   W24
@  #03 @076   ----------------------------------------
 .byte   PATT
  .word Label_0110BF4D
@  #03 @077   ----------------------------------------
 .byte   PATT
  .word Label_0110BF64
@  #03 @078   ----------------------------------------
 .byte   PATT
  .word Label_0110BF81
@  #03 @079   ----------------------------------------
 .byte   PATT
  .word Label_0110BF96
@  #03 @080   ----------------------------------------
 .byte   PATT
  .word Label_0110BF4D
@  #03 @081   ----------------------------------------
 .byte   PATT
  .word Label_0110BF64
@  #03 @082   ----------------------------------------
 .byte   PATT
  .word Label_0110BF81
@  #03 @083   ----------------------------------------
 .byte   W96
@  #03 @084   ----------------------------------------
 .byte   W96
@  #03 @085   ----------------------------------------
 .byte   W96
@  #03 @086   ----------------------------------------
 .byte   W96
@  #03 @087   ----------------------------------------
 .byte   W96
@  #03 @088   ----------------------------------------
 .byte   W96
@  #03 @089   ----------------------------------------
 .byte   W96
@  #03 @090   ----------------------------------------
 .byte   W96
@  #03 @091   ----------------------------------------
 .byte   W96
@  #03 @092   ----------------------------------------
 .byte   W96
@  #03 @093   ----------------------------------------
 .byte   W96
@  #03 @094   ----------------------------------------
 .byte   W96
@  #03 @095   ----------------------------------------
 .byte   W96
@  #03 @096   ----------------------------------------
 .byte   W96
@  #03 @097   ----------------------------------------
 .byte   W96
@  #03 @098   ----------------------------------------
 .byte   W96
@  #03 @099   ----------------------------------------
 .byte   PATT
  .word Label_0110BFC4
@  #03 @100   ----------------------------------------
 .byte   PATT
  .word Label_0110BFDC
@  #03 @101   ----------------------------------------
 .byte   PATT
  .word Label_0110BFF0
@  #03 @102   ----------------------------------------
 .byte   W96
@  #03 @103   ----------------------------------------
 .byte   PATT
  .word Label_0110BFC4
@  #03 @104   ----------------------------------------
 .byte   PATT
  .word Label_0110BFDC
@  #03 @105   ----------------------------------------
 .byte   PATT
  .word Label_0110C00B
@  #03 @106   ----------------------------------------
 .byte   PATT
  .word Label_0110BF2E
@  #03 @107   ----------------------------------------
 .byte   PATT
  .word Label_0110BF3C
@  #03 @108   ----------------------------------------
 .byte   PATT
  .word Label_0110BF4D
@  #03 @109   ----------------------------------------
 .byte   PATT
  .word Label_0110BF64
@  #03 @110   ----------------------------------------
 .byte   PATT
  .word Label_0110BF81
@  #03 @111   ----------------------------------------
 .byte   PATT
  .word Label_0110BF96
@  #03 @112   ----------------------------------------
 .byte   PATT
  .word Label_0110BF4D
@  #03 @113   ----------------------------------------
 .byte   PATT
  .word Label_0110BF64
@  #03 @114   ----------------------------------------
 .byte   PATT
  .word Label_0110BF81
@  #03 @115   ----------------------------------------
 .byte   W96
@  #03 @116   ----------------------------------------
 .byte   W96
@  #03 @117   ----------------------------------------
 .byte   W96
@  #03 @118   ----------------------------------------
 .byte   W96
@  #03 @119   ----------------------------------------
 .byte   W96
@  #03 @120   ----------------------------------------
 .byte   W96
@  #03 @121   ----------------------------------------
 .byte   W96
@  #03 @122   ----------------------------------------
 .byte   W96
@  #03 @123   ----------------------------------------
 .byte   W96
@  #03 @124   ----------------------------------------
 .byte   W96
@  #03 @125   ----------------------------------------
 .byte   W96
@  #03 @126   ----------------------------------------
 .byte   W96
@  #03 @127   ----------------------------------------
 .byte   W96
@  #03 @128   ----------------------------------------
 .byte   W96
@  #03 @129   ----------------------------------------
 .byte   W96
@  #03 @130   ----------------------------------------
 .byte   W96
@  #03 @131   ----------------------------------------
 .byte   PATT
  .word Label_0110BFC4
@  #03 @132   ----------------------------------------
 .byte   PATT
  .word Label_0110BFDC
@  #03 @133   ----------------------------------------
 .byte   PATT
  .word Label_0110BFF0
@  #03 @134   ----------------------------------------
 .byte   W96
@  #03 @135   ----------------------------------------
 .byte   PATT
  .word Label_0110BFC4
@  #03 @136   ----------------------------------------
 .byte   PATT
  .word Label_0110BFDC
@  #03 @137   ----------------------------------------
 .byte   PATT
  .word Label_0110C00B
@  #03 @138   ----------------------------------------
 .byte   PATT
  .word Label_0110BF2E
@  #03 @139   ----------------------------------------
 .byte   VOICE , 65
 .byte   W96
@  #03 @140   ----------------------------------------
 .byte   W96
@  #03 @141   ----------------------------------------
 .byte   W96
@  #03 @142   ----------------------------------------
 .byte   W96
@  #03 @143   ----------------------------------------
 .byte   W96
@  #03 @144   ----------------------------------------
 .byte   W96
@  #03 @145   ----------------------------------------
 .byte   W96
@  #03 @146   ----------------------------------------
 .byte   W92
 .byte   W03
 .byte   FINE

@**************** Track 4 (Midi-Chn.3) ****************@

song06_004:
@  #04 @000   ----------------------------------------
 .byte   KEYSH , song06_key+0
 .byte   VOICE , 13
 .byte   VOL , 50*song06_mvl/mxv
 .byte   PAN , c_v+0
 .byte   N11 ,En5 ,v092
 .byte   W12
 .byte   N11
 .byte   W24
 .byte   N11
 .byte   W24
 .byte   Cn5
 .byte   W12
 .byte   En5
 .byte   W24
@  #04 @001   ----------------------------------------
Label_01111204:
 .byte   N20 ,Gn5 ,v092
 .byte   W48
 .byte   N20
 .byte   W48
 .byte   PEND 
@  #04 @002   ----------------------------------------
Label_0111120B:
 .byte   VOICE , 11
 .byte   N20 ,Gn3 ,v092
 .byte   W36
 .byte   Dn3
 .byte   W36
 .byte   Bn2
 .byte   W24
 .byte   PEND 
@  #04 @003   ----------------------------------------
Label_01111216:
 .byte   W12
 .byte   N11 ,En3 ,v092
 .byte   W24
 .byte   N20 ,Fs3
 .byte   W24
 .byte   N11 ,Fn3
 .byte   W12
 .byte   N20 ,En3
 .byte   W24
 .byte   PEND 
@  #04 @004   ----------------------------------------
Label_01111225:
 .byte   N15 ,Dn3 ,v092
 .byte   W16
 .byte   Bn3
 .byte   W16
 .byte   Dn4
 .byte   W16
 .byte   N20 ,En4
 .byte   W24
 .byte   N11 ,Cn4
 .byte   W12
 .byte   Dn4
 .byte   W12
 .byte   PEND 
@  #04 @005   ----------------------------------------
Label_01111236:
 .byte   W12
 .byte   N11 ,Bn3 ,v092
 .byte   W24
 .byte   Gn3
 .byte   W24
 .byte   An3
 .byte   W12
 .byte   N20 ,Fs3
 .byte   W24
 .byte   PEND 
@  #04 @006   ----------------------------------------
Label_01111243:
 .byte   N20 ,Gn3 ,v092
 .byte   W36
 .byte   Dn3
 .byte   W36
 .byte   Bn2
 .byte   W24
 .byte   PEND 
@  #04 @007   ----------------------------------------
 .byte   PATT
  .word Label_01111216
@  #04 @008   ----------------------------------------
 .byte   PATT
  .word Label_01111225
@  #04 @009   ----------------------------------------
 .byte   PATT
  .word Label_01111236
@  #04 @010   ----------------------------------------
 .byte   W96
@  #04 @011   ----------------------------------------
 .byte   W96
@  #04 @012   ----------------------------------------
 .byte   W96
@  #04 @013   ----------------------------------------
 .byte   W96
@  #04 @014   ----------------------------------------
 .byte   W96
@  #04 @015   ----------------------------------------
 .byte   W96
@  #04 @016   ----------------------------------------
 .byte   W96
@  #04 @017   ----------------------------------------
 .byte   W96
@  #04 @018   ----------------------------------------
 .byte   W96
@  #04 @019   ----------------------------------------
 .byte   W96
@  #04 @020   ----------------------------------------
 .byte   W96
@  #04 @021   ----------------------------------------
 .byte   W96
@  #04 @022   ----------------------------------------
 .byte   W96
@  #04 @023   ----------------------------------------
 .byte   W96
@  #04 @024   ----------------------------------------
 .byte   W96
@  #04 @025   ----------------------------------------
 .byte   W96
@  #04 @026   ----------------------------------------
 .byte   W96
@  #04 @027   ----------------------------------------
 .byte   W96
@  #04 @028   ----------------------------------------
 .byte   W96
@  #04 @029   ----------------------------------------
Label_0111126E:
 .byte   VOICE , 10
 .byte   W36
 .byte   N11 ,As4 ,v076
 .byte   N11 ,En5
 .byte   W24
 .byte   N20 ,As4
 .byte   N20 ,Dn5
 .byte   W36
 .byte   PEND 
@  #04 @030   ----------------------------------------
 .byte   VOICE , 13
 .byte   W96
@  #04 @031   ----------------------------------------
 .byte   W96
@  #04 @032   ----------------------------------------
Label_01111281:
 .byte   N11 ,En5 ,v092
 .byte   W12
 .byte   N11
 .byte   W24
 .byte   N11
 .byte   W24
 .byte   Cn5
 .byte   W12
 .byte   En5
 .byte   W24
 .byte   PEND 
@  #04 @033   ----------------------------------------
 .byte   PATT
  .word Label_01111204
@  #04 @034   ----------------------------------------
 .byte   GOTO
  .word Label_0111120B
@  #04 @035   ----------------------------------------
 .byte   PATT
  .word Label_0111120B
@  #04 @036   ----------------------------------------
 .byte   PATT
  .word Label_01111216
@  #04 @037   ----------------------------------------
 .byte   PATT
  .word Label_01111225
@  #04 @038   ----------------------------------------
 .byte   PATT
  .word Label_01111236
@  #04 @039   ----------------------------------------
 .byte   PATT
  .word Label_01111243
@  #04 @040   ----------------------------------------
 .byte   PATT
  .word Label_01111216
@  #04 @041   ----------------------------------------
 .byte   PATT
  .word Label_01111225
@  #04 @042   ----------------------------------------
 .byte   PATT
  .word Label_01111236
@  #04 @043   ----------------------------------------
 .byte   W96
@  #04 @044   ----------------------------------------
 .byte   W96
@  #04 @045   ----------------------------------------
 .byte   W96
@  #04 @046   ----------------------------------------
 .byte   W96
@  #04 @047   ----------------------------------------
 .byte   W96
@  #04 @048   ----------------------------------------
 .byte   W96
@  #04 @049   ----------------------------------------
 .byte   W96
@  #04 @050   ----------------------------------------
 .byte   W96
@  #04 @051   ----------------------------------------
 .byte   W96
@  #04 @052   ----------------------------------------
 .byte   W96
@  #04 @053   ----------------------------------------
 .byte   W96
@  #04 @054   ----------------------------------------
 .byte   W96
@  #04 @055   ----------------------------------------
 .byte   W96
@  #04 @056   ----------------------------------------
 .byte   W96
@  #04 @057   ----------------------------------------
 .byte   W96
@  #04 @058   ----------------------------------------
 .byte   W96
@  #04 @059   ----------------------------------------
 .byte   W96
@  #04 @060   ----------------------------------------
 .byte   W96
@  #04 @061   ----------------------------------------
 .byte   W96
@  #04 @062   ----------------------------------------
 .byte   PATT
  .word Label_0111126E
@  #04 @063   ----------------------------------------
 .byte   VOICE , 13
 .byte   W96
@  #04 @064   ----------------------------------------
 .byte   W96
@  #04 @065   ----------------------------------------
 .byte   PATT
  .word Label_01111281
@  #04 @066   ----------------------------------------
 .byte   PATT
  .word Label_01111204
@  #04 @067   ----------------------------------------
 .byte   VOICE , 11
 .byte   W96
@  #04 @068   ----------------------------------------
 .byte   W96
@  #04 @069   ----------------------------------------
 .byte   W96
@  #04 @070   ----------------------------------------
 .byte   W96
@  #04 @071   ----------------------------------------
 .byte   W96
@  #04 @072   ----------------------------------------
 .byte   W96
@  #04 @073   ----------------------------------------
 .byte   W96
@  #04 @074   ----------------------------------------
 .byte   W96
@  #04 @075   ----------------------------------------
 .byte   BnM2
 .byte   PAN , c_v+0
 .byte   N20 ,Gn3 ,v092
 .byte   W36
 .byte   Dn3
 .byte   W36
 .byte   Bn2
 .byte   W24
@  #04 @076   ----------------------------------------
 .byte   PATT
  .word Label_01111216
@  #04 @077   ----------------------------------------
 .byte   PATT
  .word Label_01111225
@  #04 @078   ----------------------------------------
 .byte   PATT
  .word Label_01111236
@  #04 @079   ----------------------------------------
 .byte   PATT
  .word Label_01111243
@  #04 @080   ----------------------------------------
 .byte   PATT
  .word Label_01111216
@  #04 @081   ----------------------------------------
 .byte   PATT
  .word Label_01111225
@  #04 @082   ----------------------------------------
 .byte   PATT
  .word Label_01111236
@  #04 @083   ----------------------------------------
 .byte   W96
@  #04 @084   ----------------------------------------
 .byte   W96
@  #04 @085   ----------------------------------------
 .byte   W96
@  #04 @086   ----------------------------------------
 .byte   W96
@  #04 @087   ----------------------------------------
 .byte   W96
@  #04 @088   ----------------------------------------
 .byte   W96
@  #04 @089   ----------------------------------------
 .byte   W96
@  #04 @090   ----------------------------------------
 .byte   W96
@  #04 @091   ----------------------------------------
 .byte   W96
@  #04 @092   ----------------------------------------
 .byte   W96
@  #04 @093   ----------------------------------------
 .byte   W96
@  #04 @094   ----------------------------------------
 .byte   W96
@  #04 @095   ----------------------------------------
 .byte   W96
@  #04 @096   ----------------------------------------
 .byte   W96
@  #04 @097   ----------------------------------------
 .byte   W96
@  #04 @098   ----------------------------------------
 .byte   W96
@  #04 @099   ----------------------------------------
 .byte   W96
@  #04 @100   ----------------------------------------
 .byte   W96
@  #04 @101   ----------------------------------------
 .byte   W96
@  #04 @102   ----------------------------------------
 .byte   PATT
  .word Label_0111126E
@  #04 @103   ----------------------------------------
 .byte   VOICE , 13
 .byte   W96
@  #04 @104   ----------------------------------------
 .byte   W96
@  #04 @105   ----------------------------------------
 .byte   PATT
  .word Label_01111281
@  #04 @106   ----------------------------------------
 .byte   PATT
  .word Label_01111204
@  #04 @107   ----------------------------------------
 .byte   PATT
  .word Label_0111120B
@  #04 @108   ----------------------------------------
 .byte   PATT
  .word Label_01111216
@  #04 @109   ----------------------------------------
 .byte   PATT
  .word Label_01111225
@  #04 @110   ----------------------------------------
 .byte   PATT
  .word Label_01111236
@  #04 @111   ----------------------------------------
 .byte   PATT
  .word Label_01111243
@  #04 @112   ----------------------------------------
 .byte   PATT
  .word Label_01111216
@  #04 @113   ----------------------------------------
 .byte   PATT
  .word Label_01111225
@  #04 @114   ----------------------------------------
 .byte   PATT
  .word Label_01111236
@  #04 @115   ----------------------------------------
 .byte   W96
@  #04 @116   ----------------------------------------
 .byte   W96
@  #04 @117   ----------------------------------------
 .byte   W96
@  #04 @118   ----------------------------------------
 .byte   W96
@  #04 @119   ----------------------------------------
 .byte   W96
@  #04 @120   ----------------------------------------
 .byte   W96
@  #04 @121   ----------------------------------------
 .byte   W96
@  #04 @122   ----------------------------------------
 .byte   W96
@  #04 @123   ----------------------------------------
 .byte   W96
@  #04 @124   ----------------------------------------
 .byte   W96
@  #04 @125   ----------------------------------------
 .byte   W96
@  #04 @126   ----------------------------------------
 .byte   W96
@  #04 @127   ----------------------------------------
 .byte   W96
@  #04 @128   ----------------------------------------
 .byte   W96
@  #04 @129   ----------------------------------------
 .byte   W96
@  #04 @130   ----------------------------------------
 .byte   W96
@  #04 @131   ----------------------------------------
 .byte   W96
@  #04 @132   ----------------------------------------
 .byte   W96
@  #04 @133   ----------------------------------------
 .byte   W96
@  #04 @134   ----------------------------------------
 .byte   PATT
  .word Label_0111126E
@  #04 @135   ----------------------------------------
 .byte   VOICE , 13
 .byte   W96
@  #04 @136   ----------------------------------------
 .byte   W96
@  #04 @137   ----------------------------------------
 .byte   PATT
  .word Label_01111281
@  #04 @138   ----------------------------------------
 .byte   PATT
  .word Label_01111204
@  #04 @139   ----------------------------------------
 .byte   VOICE , 11
 .byte   W96
@  #04 @140   ----------------------------------------
 .byte   W96
@  #04 @141   ----------------------------------------
 .byte   W96
@  #04 @142   ----------------------------------------
 .byte   W96
@  #04 @143   ----------------------------------------
 .byte   W96
@  #04 @144   ----------------------------------------
 .byte   W96
@  #04 @145   ----------------------------------------
 .byte   W96
@  #04 @146   ----------------------------------------
 .byte   W92
 .byte   W03
 .byte   FINE

@**************** Track 5 (Midi-Chn.4) ****************@

song06_005:
@  #05 @000   ----------------------------------------
 .byte   KEYSH , song06_key+0
 .byte   VOICE , 48
 .byte   VOL , 50*song06_mvl/mxv
 .byte   PAN , c_v+63
 .byte   W96
@  #05 @001   ----------------------------------------
 .byte   W96
@  #05 @002   ----------------------------------------
Label_011115BA:
 .byte   W96
@  #05 @003   ----------------------------------------
 .byte   W96
@  #05 @004   ----------------------------------------
 .byte   W96
@  #05 @005   ----------------------------------------
 .byte   W96
@  #05 @006   ----------------------------------------
 .byte   W96
@  #05 @007   ----------------------------------------
 .byte   W96
@  #05 @008   ----------------------------------------
 .byte   W96
@  #05 @009   ----------------------------------------
 .byte   W96
@  #05 @010   ----------------------------------------
Label_011115C2:
 .byte   W24
 .byte   N11 ,Gn3 ,v108
 .byte   W12
 .byte   Fs3
 .byte   W12
 .byte   Fn3
 .byte   W12
 .byte   Ds3
 .byte   W24
 .byte   En3
 .byte   W12
 .byte   PEND 
@  #05 @011   ----------------------------------------
Label_011115D0:
 .byte   W12
 .byte   N11 ,Gn2 ,v108
 .byte   W12
 .byte   An2
 .byte   W12
 .byte   Cn3
 .byte   W24
 .byte   An2
 .byte   W12
 .byte   Cn3
 .byte   W12
 .byte   Dn3
 .byte   W12
 .byte   PEND 
@  #05 @012   ----------------------------------------
 .byte   PATT
  .word Label_011115C2
@  #05 @013   ----------------------------------------
Label_011115E5:
 .byte   W12
 .byte   N11 ,Cn4 ,v108
 .byte   W24
 .byte   N11
 .byte   W12
 .byte   N20
 .byte   W48
 .byte   PEND 
@  #05 @014   ----------------------------------------
 .byte   PATT
  .word Label_011115C2
@  #05 @015   ----------------------------------------
Label_011115F4:
 .byte   W12
 .byte   N11 ,An2 ,v108
 .byte   W12
 .byte   N05 ,Cn3
 .byte   W06
 .byte   Dn3
 .byte   W06
 .byte   Cn3
 .byte   W06
 .byte   An2
 .byte   W06
 .byte   N11 ,Cn3
 .byte   W24
 .byte   Dn3
 .byte   W24
 .byte   PEND 
@  #05 @016   ----------------------------------------
Label_01111608:
 .byte   W24
 .byte   N20 ,Ds3 ,v108
 .byte   W36
 .byte   Fn3
 .byte   W36
 .byte   PEND 
@  #05 @017   ----------------------------------------
 .byte   N32 ,En3
 .byte   W96
@  #05 @018   ----------------------------------------
 .byte   PATT
  .word Label_011115C2
@  #05 @019   ----------------------------------------
 .byte   PATT
  .word Label_011115D0
@  #05 @020   ----------------------------------------
 .byte   PATT
  .word Label_011115C2
@  #05 @021   ----------------------------------------
 .byte   PATT
  .word Label_011115E5
@  #05 @022   ----------------------------------------
 .byte   PATT
  .word Label_011115C2
@  #05 @023   ----------------------------------------
 .byte   PATT
  .word Label_011115F4
@  #05 @024   ----------------------------------------
 .byte   PATT
  .word Label_01111608
@  #05 @025   ----------------------------------------
 .byte   N32 ,En3 ,v108
 .byte   W96
@  #05 @026   ----------------------------------------
 .byte   W96
@  #05 @027   ----------------------------------------
 .byte   W96
@  #05 @028   ----------------------------------------
 .byte   W96
@  #05 @029   ----------------------------------------
 .byte   W96
@  #05 @030   ----------------------------------------
 .byte   W96
@  #05 @031   ----------------------------------------
 .byte   W96
@  #05 @032   ----------------------------------------
 .byte   W96
@  #05 @033   ----------------------------------------
 .byte   W96
@  #05 @034   ----------------------------------------
 .byte   GOTO
  .word Label_011115BA
@  #05 @035   ----------------------------------------
 .byte   W96
@  #05 @036   ----------------------------------------
 .byte   W96
@  #05 @037   ----------------------------------------
 .byte   W96
@  #05 @038   ----------------------------------------
 .byte   W96
@  #05 @039   ----------------------------------------
 .byte   W96
@  #05 @040   ----------------------------------------
 .byte   W96
@  #05 @041   ----------------------------------------
 .byte   W96
@  #05 @042   ----------------------------------------
 .byte   W96
@  #05 @043   ----------------------------------------
Label_0111164F:
 .byte   N11 ,En3 ,v108
 .byte   W12
 .byte   Cn3
 .byte   W24
 .byte   N20 ,Gn2
 .byte   W36
 .byte   Gs2
 .byte   W24
 .byte   PEND 
@  #05 @044   ----------------------------------------
Label_0111165B:
 .byte   N11 ,An2 ,v108
 .byte   W12
 .byte   Fn3
 .byte   W24
 .byte   N11
 .byte   W12
 .byte   N42 ,An2
 .byte   W48
 .byte   PEND 
@  #05 @045   ----------------------------------------
Label_01111667:
 .byte   N11 ,Bn2 ,v108
 .byte   W12
 .byte   An3
 .byte   W24
 .byte   N11
 .byte   W12
 .byte   N15
 .byte   W16
 .byte   Gn3
 .byte   W16
 .byte   Fn3
 .byte   W16
 .byte   PEND 
@  #05 @046   ----------------------------------------
Label_01111676:
 .byte   N11 ,En3 ,v108
 .byte   W12
 .byte   Cn3
 .byte   W24
 .byte   An2
 .byte   W12
 .byte   N42 ,Gn2
 .byte   W48
 .byte   PEND 
@  #05 @047   ----------------------------------------
Label_01111682:
 .byte   N11 ,En3 ,v108
 .byte   W12
 .byte   Cn3
 .byte   W24
 .byte   N20 ,Gn2
 .byte   W36
 .byte   N11 ,Gs2
 .byte   W24
 .byte   PEND 
@  #05 @048   ----------------------------------------
 .byte   PATT
  .word Label_0111165B
@  #05 @049   ----------------------------------------
Label_01111694:
 .byte   N11 ,Bn2 ,v108
 .byte   W12
 .byte   Fn3
 .byte   W24
 .byte   N11
 .byte   W12
 .byte   N15
 .byte   W16
 .byte   En3
 .byte   W16
 .byte   Dn3
 .byte   W16
 .byte   PEND 
@  #05 @050   ----------------------------------------
 .byte   N42 ,Cn3
 .byte   W96
@  #05 @051   ----------------------------------------
 .byte   PATT
  .word Label_0111164F
@  #05 @052   ----------------------------------------
 .byte   PATT
  .word Label_0111165B
@  #05 @053   ----------------------------------------
 .byte   PATT
  .word Label_01111667
@  #05 @054   ----------------------------------------
 .byte   PATT
  .word Label_01111676
@  #05 @055   ----------------------------------------
 .byte   PATT
  .word Label_01111682
@  #05 @056   ----------------------------------------
 .byte   PATT
  .word Label_0111165B
@  #05 @057   ----------------------------------------
 .byte   PATT
  .word Label_01111694
@  #05 @058   ----------------------------------------
 .byte   N42 ,Cn3 ,v108
 .byte   W96
@  #05 @059   ----------------------------------------
 .byte   W96
@  #05 @060   ----------------------------------------
 .byte   W96
@  #05 @061   ----------------------------------------
 .byte   W96
@  #05 @062   ----------------------------------------
 .byte   W96
@  #05 @063   ----------------------------------------
 .byte   W96
@  #05 @064   ----------------------------------------
 .byte   W96
@  #05 @065   ----------------------------------------
 .byte   W96
@  #05 @066   ----------------------------------------
 .byte   W96
@  #05 @067   ----------------------------------------
 .byte   PATT
  .word Label_0111164F
@  #05 @068   ----------------------------------------
 .byte   PATT
  .word Label_0111165B
@  #05 @069   ----------------------------------------
 .byte   PATT
  .word Label_01111667
@  #05 @070   ----------------------------------------
 .byte   PATT
  .word Label_01111676
@  #05 @071   ----------------------------------------
 .byte   PATT
  .word Label_01111682
@  #05 @072   ----------------------------------------
 .byte   PATT
  .word Label_0111165B
@  #05 @073   ----------------------------------------
 .byte   PATT
  .word Label_01111694
@  #05 @074   ----------------------------------------
 .byte   N42 ,Cn3 ,v108
 .byte   W96
@  #05 @075   ----------------------------------------
 .byte   VOICE , 48
 .byte   PAN , c_v+63
 .byte   W96
@  #05 @076   ----------------------------------------
 .byte   W96
@  #05 @077   ----------------------------------------
 .byte   W96
@  #05 @078   ----------------------------------------
 .byte   W96
@  #05 @079   ----------------------------------------
 .byte   W96
@  #05 @080   ----------------------------------------
 .byte   W96
@  #05 @081   ----------------------------------------
 .byte   W96
@  #05 @082   ----------------------------------------
 .byte   W96
@  #05 @083   ----------------------------------------
 .byte   PATT
  .word Label_011115C2
@  #05 @084   ----------------------------------------
 .byte   PATT
  .word Label_011115D0
@  #05 @085   ----------------------------------------
 .byte   PATT
  .word Label_011115C2
@  #05 @086   ----------------------------------------
 .byte   PATT
  .word Label_011115E5
@  #05 @087   ----------------------------------------
 .byte   PATT
  .word Label_011115C2
@  #05 @088   ----------------------------------------
 .byte   PATT
  .word Label_011115F4
@  #05 @089   ----------------------------------------
 .byte   PATT
  .word Label_01111608
@  #05 @090   ----------------------------------------
 .byte   N32 ,En3 ,v108
 .byte   W96
@  #05 @091   ----------------------------------------
 .byte   PATT
  .word Label_011115C2
@  #05 @092   ----------------------------------------
 .byte   PATT
  .word Label_011115D0
@  #05 @093   ----------------------------------------
 .byte   PATT
  .word Label_011115C2
@  #05 @094   ----------------------------------------
 .byte   PATT
  .word Label_011115E5
@  #05 @095   ----------------------------------------
 .byte   PATT
  .word Label_011115C2
@  #05 @096   ----------------------------------------
 .byte   PATT
  .word Label_011115F4
@  #05 @097   ----------------------------------------
 .byte   PATT
  .word Label_01111608
@  #05 @098   ----------------------------------------
 .byte   N32 ,En3 ,v108
 .byte   W96
@  #05 @099   ----------------------------------------
 .byte   W96
@  #05 @100   ----------------------------------------
 .byte   W96
@  #05 @101   ----------------------------------------
 .byte   W96
@  #05 @102   ----------------------------------------
 .byte   W96
@  #05 @103   ----------------------------------------
 .byte   W96
@  #05 @104   ----------------------------------------
 .byte   W96
@  #05 @105   ----------------------------------------
 .byte   W96
@  #05 @106   ----------------------------------------
 .byte   W96
@  #05 @107   ----------------------------------------
 .byte   W96
@  #05 @108   ----------------------------------------
 .byte   W96
@  #05 @109   ----------------------------------------
 .byte   W96
@  #05 @110   ----------------------------------------
 .byte   W96
@  #05 @111   ----------------------------------------
 .byte   W96
@  #05 @112   ----------------------------------------
 .byte   W96
@  #05 @113   ----------------------------------------
 .byte   W96
@  #05 @114   ----------------------------------------
 .byte   W96
@  #05 @115   ----------------------------------------
 .byte   PATT
  .word Label_0111164F
@  #05 @116   ----------------------------------------
 .byte   PATT
  .word Label_0111165B
@  #05 @117   ----------------------------------------
 .byte   PATT
  .word Label_01111667
@  #05 @118   ----------------------------------------
 .byte   PATT
  .word Label_01111676
@  #05 @119   ----------------------------------------
 .byte   PATT
  .word Label_01111682
@  #05 @120   ----------------------------------------
 .byte   PATT
  .word Label_0111165B
@  #05 @121   ----------------------------------------
 .byte   PATT
  .word Label_01111694
@  #05 @122   ----------------------------------------
 .byte   N42 ,Cn3 ,v108
 .byte   W96
@  #05 @123   ----------------------------------------
 .byte   PATT
  .word Label_0111164F
@  #05 @124   ----------------------------------------
 .byte   PATT
  .word Label_0111165B
@  #05 @125   ----------------------------------------
 .byte   PATT
  .word Label_01111667
@  #05 @126   ----------------------------------------
 .byte   PATT
  .word Label_01111676
@  #05 @127   ----------------------------------------
 .byte   PATT
  .word Label_01111682
@  #05 @128   ----------------------------------------
 .byte   PATT
  .word Label_0111165B
@  #05 @129   ----------------------------------------
 .byte   PATT
  .word Label_01111694
@  #05 @130   ----------------------------------------
 .byte   N42 ,Cn3 ,v108
 .byte   W96
@  #05 @131   ----------------------------------------
 .byte   W96
@  #05 @132   ----------------------------------------
 .byte   W96
@  #05 @133   ----------------------------------------
 .byte   W96
@  #05 @134   ----------------------------------------
 .byte   W96
@  #05 @135   ----------------------------------------
 .byte   W96
@  #05 @136   ----------------------------------------
 .byte   W96
@  #05 @137   ----------------------------------------
 .byte   W96
@  #05 @138   ----------------------------------------
 .byte   W96
@  #05 @139   ----------------------------------------
 .byte   PATT
  .word Label_0111164F
@  #05 @140   ----------------------------------------
 .byte   PATT
  .word Label_0111165B
@  #05 @141   ----------------------------------------
 .byte   PATT
  .word Label_01111667
@  #05 @142   ----------------------------------------
 .byte   PATT
  .word Label_01111676
@  #05 @143   ----------------------------------------
 .byte   PATT
  .word Label_01111682
@  #05 @144   ----------------------------------------
 .byte   PATT
  .word Label_0111165B
@  #05 @145   ----------------------------------------
 .byte   PATT
  .word Label_01111694
@  #05 @146   ----------------------------------------
 .byte   N42 ,Cn3 ,v108
 .byte   W92
 .byte   W03
 .byte   FINE

@**************** Track 6 (Midi-Chn.5) ****************@

song06_006:
@  #06 @000   ----------------------------------------
 .byte   KEYSH , song06_key+0
 .byte   VOICE , 48
 .byte   VOL , 50*song06_mvl/mxv
 .byte   PAN , c_v-64
 .byte   W96
@  #06 @001   ----------------------------------------
 .byte   W96
@  #06 @002   ----------------------------------------
Label_01111C7A:
 .byte   W96
@  #06 @003   ----------------------------------------
 .byte   W96
@  #06 @004   ----------------------------------------
 .byte   W96
@  #06 @005   ----------------------------------------
 .byte   W96
@  #06 @006   ----------------------------------------
 .byte   W96
@  #06 @007   ----------------------------------------
 .byte   W96
@  #06 @008   ----------------------------------------
 .byte   W96
@  #06 @009   ----------------------------------------
 .byte   W96
@  #06 @010   ----------------------------------------
Label_01111C82:
 .byte   W24
 .byte   N11 ,En3 ,v108
 .byte   W12
 .byte   Ds3
 .byte   W12
 .byte   Dn3
 .byte   W12
 .byte   Bn2
 .byte   W24
 .byte   Cn3
 .byte   W12
 .byte   PEND 
@  #06 @011   ----------------------------------------
Label_01111C90:
 .byte   W12
 .byte   N11 ,En2 ,v108
 .byte   W12
 .byte   Fn2
 .byte   W12
 .byte   Gn2
 .byte   W24
 .byte   Cn2
 .byte   W12
 .byte   En2
 .byte   W12
 .byte   Fn2
 .byte   W12
 .byte   PEND 
@  #06 @012   ----------------------------------------
 .byte   PATT
  .word Label_01111C82
@  #06 @013   ----------------------------------------
Label_01111CA5:
 .byte   W12
 .byte   N11 ,Fn3 ,v108
 .byte   W24
 .byte   N11
 .byte   W12
 .byte   N20
 .byte   W48
 .byte   PEND 
@  #06 @014   ----------------------------------------
 .byte   PATT
  .word Label_01111C82
@  #06 @015   ----------------------------------------
Label_01111CB4:
 .byte   W12
 .byte   N11 ,En2 ,v108
 .byte   W12
 .byte   N05
 .byte   W06
 .byte   Fn2
 .byte   W06
 .byte   Gn2
 .byte   W06
 .byte   En2
 .byte   W06
 .byte   N11
 .byte   W24
 .byte   Fn2
 .byte   W24
 .byte   PEND 
@  #06 @016   ----------------------------------------
Label_01111CC6:
 .byte   W24
 .byte   N20 ,Cn3 ,v108
 .byte   W36
 .byte   Dn3
 .byte   W36
 .byte   PEND 
@  #06 @017   ----------------------------------------
 .byte   N32 ,Cn3
 .byte   W96
@  #06 @018   ----------------------------------------
 .byte   PATT
  .word Label_01111C82
@  #06 @019   ----------------------------------------
 .byte   PATT
  .word Label_01111C90
@  #06 @020   ----------------------------------------
 .byte   PATT
  .word Label_01111C82
@  #06 @021   ----------------------------------------
 .byte   PATT
  .word Label_01111CA5
@  #06 @022   ----------------------------------------
 .byte   PATT
  .word Label_01111C82
@  #06 @023   ----------------------------------------
 .byte   PATT
  .word Label_01111CB4
@  #06 @024   ----------------------------------------
 .byte   PATT
  .word Label_01111CC6
@  #06 @025   ----------------------------------------
 .byte   N32 ,Cn3 ,v108
 .byte   W96
@  #06 @026   ----------------------------------------
 .byte   W96
@  #06 @027   ----------------------------------------
 .byte   W96
@  #06 @028   ----------------------------------------
 .byte   W96
@  #06 @029   ----------------------------------------
 .byte   W96
@  #06 @030   ----------------------------------------
 .byte   W96
@  #06 @031   ----------------------------------------
 .byte   W96
@  #06 @032   ----------------------------------------
 .byte   W96
@  #06 @033   ----------------------------------------
 .byte   W96
@  #06 @034   ----------------------------------------
 .byte   GOTO
  .word Label_01111C7A
@  #06 @035   ----------------------------------------
 .byte   W96
@  #06 @036   ----------------------------------------
 .byte   W96
@  #06 @037   ----------------------------------------
 .byte   W96
@  #06 @038   ----------------------------------------
 .byte   W96
@  #06 @039   ----------------------------------------
 .byte   W96
@  #06 @040   ----------------------------------------
 .byte   W96
@  #06 @041   ----------------------------------------
 .byte   W96
@  #06 @042   ----------------------------------------
 .byte   W96
@  #06 @043   ----------------------------------------
Label_01111D0D:
 .byte   N11 ,Cn3 ,v108
 .byte   W12
 .byte   An2
 .byte   W24
 .byte   N20 ,En2
 .byte   W36
 .byte   Ds2
 .byte   W24
 .byte   PEND 
@  #06 @044   ----------------------------------------
Label_01111D19:
 .byte   N11 ,Dn2 ,v108
 .byte   W12
 .byte   An2
 .byte   W24
 .byte   N11
 .byte   W12
 .byte   N42 ,Dn2
 .byte   W48
 .byte   PEND 
@  #06 @045   ----------------------------------------
Label_01111D25:
 .byte   N11 ,Gn2 ,v108
 .byte   W12
 .byte   Fn3
 .byte   W24
 .byte   N11
 .byte   W12
 .byte   N15
 .byte   W16
 .byte   En3
 .byte   W16
 .byte   Dn3
 .byte   W16
 .byte   PEND 
@  #06 @046   ----------------------------------------
Label_01111D34:
 .byte   N11 ,Cn3 ,v108
 .byte   W12
 .byte   An2
 .byte   W24
 .byte   Ds2
 .byte   W12
 .byte   N42 ,En2
 .byte   W48
 .byte   PEND 
@  #06 @047   ----------------------------------------
 .byte   PATT
  .word Label_01111D0D
@  #06 @048   ----------------------------------------
 .byte   PATT
  .word Label_01111D19
@  #06 @049   ----------------------------------------
Label_01111D4A:
 .byte   N11 ,Gn2 ,v108
 .byte   W12
 .byte   Dn3
 .byte   W24
 .byte   N11
 .byte   W12
 .byte   N15
 .byte   W16
 .byte   Cn3
 .byte   W16
 .byte   Bn2
 .byte   W16
 .byte   PEND 
@  #06 @050   ----------------------------------------
Label_01111D59:
 .byte   N11 ,Gn2 ,v108
 .byte   W12
 .byte   En2
 .byte   W24
 .byte   N11
 .byte   W12
 .byte   N20 ,Cn2
 .byte   W48
 .byte   PEND 
@  #06 @051   ----------------------------------------
 .byte   PATT
  .word Label_01111D0D
@  #06 @052   ----------------------------------------
 .byte   PATT
  .word Label_01111D19
@  #06 @053   ----------------------------------------
 .byte   PATT
  .word Label_01111D25
@  #06 @054   ----------------------------------------
 .byte   PATT
  .word Label_01111D34
@  #06 @055   ----------------------------------------
 .byte   PATT
  .word Label_01111D0D
@  #06 @056   ----------------------------------------
 .byte   PATT
  .word Label_01111D19
@  #06 @057   ----------------------------------------
 .byte   PATT
  .word Label_01111D4A
@  #06 @058   ----------------------------------------
 .byte   PATT
  .word Label_01111D59
@  #06 @059   ----------------------------------------
 .byte   W96
@  #06 @060   ----------------------------------------
 .byte   W96
@  #06 @061   ----------------------------------------
 .byte   W96
@  #06 @062   ----------------------------------------
 .byte   W96
@  #06 @063   ----------------------------------------
 .byte   W96
@  #06 @064   ----------------------------------------
 .byte   W96
@  #06 @065   ----------------------------------------
 .byte   W96
@  #06 @066   ----------------------------------------
 .byte   W96
@  #06 @067   ----------------------------------------
 .byte   PATT
  .word Label_01111D0D
@  #06 @068   ----------------------------------------
 .byte   PATT
  .word Label_01111D19
@  #06 @069   ----------------------------------------
 .byte   PATT
  .word Label_01111D25
@  #06 @070   ----------------------------------------
 .byte   PATT
  .word Label_01111D34
@  #06 @071   ----------------------------------------
 .byte   PATT
  .word Label_01111D0D
@  #06 @072   ----------------------------------------
 .byte   PATT
  .word Label_01111D19
@  #06 @073   ----------------------------------------
 .byte   PATT
  .word Label_01111D4A
@  #06 @074   ----------------------------------------
 .byte   PATT
  .word Label_01111D59
@  #06 @075   ----------------------------------------
 .byte   VOICE , 48
 .byte   PAN , c_v-64
 .byte   W96
@  #06 @076   ----------------------------------------
 .byte   W96
@  #06 @077   ----------------------------------------
 .byte   W96
@  #06 @078   ----------------------------------------
 .byte   W96
@  #06 @079   ----------------------------------------
 .byte   W96
@  #06 @080   ----------------------------------------
 .byte   W96
@  #06 @081   ----------------------------------------
 .byte   W96
@  #06 @082   ----------------------------------------
 .byte   W96
@  #06 @083   ----------------------------------------
 .byte   PATT
  .word Label_01111C82
@  #06 @084   ----------------------------------------
 .byte   PATT
  .word Label_01111C90
@  #06 @085   ----------------------------------------
 .byte   PATT
  .word Label_01111C82
@  #06 @086   ----------------------------------------
 .byte   PATT
  .word Label_01111CA5
@  #06 @087   ----------------------------------------
 .byte   PATT
  .word Label_01111C82
@  #06 @088   ----------------------------------------
 .byte   PATT
  .word Label_01111CB4
@  #06 @089   ----------------------------------------
 .byte   PATT
  .word Label_01111CC6
@  #06 @090   ----------------------------------------
 .byte   N32 ,Cn3 ,v108
 .byte   W96
@  #06 @091   ----------------------------------------
 .byte   PATT
  .word Label_01111C82
@  #06 @092   ----------------------------------------
 .byte   PATT
  .word Label_01111C90
@  #06 @093   ----------------------------------------
 .byte   PATT
  .word Label_01111C82
@  #06 @094   ----------------------------------------
 .byte   PATT
  .word Label_01111CA5
@  #06 @095   ----------------------------------------
 .byte   PATT
  .word Label_01111C82
@  #06 @096   ----------------------------------------
 .byte   PATT
  .word Label_01111CB4
@  #06 @097   ----------------------------------------
 .byte   PATT
  .word Label_01111CC6
@  #06 @098   ----------------------------------------
 .byte   N32 ,Cn3 ,v108
 .byte   W96
@  #06 @099   ----------------------------------------
 .byte   W96
@  #06 @100   ----------------------------------------
 .byte   W96
@  #06 @101   ----------------------------------------
 .byte   W96
@  #06 @102   ----------------------------------------
 .byte   W96
@  #06 @103   ----------------------------------------
 .byte   W96
@  #06 @104   ----------------------------------------
 .byte   W96
@  #06 @105   ----------------------------------------
 .byte   W96
@  #06 @106   ----------------------------------------
 .byte   W96
@  #06 @107   ----------------------------------------
 .byte   W96
@  #06 @108   ----------------------------------------
 .byte   W96
@  #06 @109   ----------------------------------------
 .byte   W96
@  #06 @110   ----------------------------------------
 .byte   W96
@  #06 @111   ----------------------------------------
 .byte   W96
@  #06 @112   ----------------------------------------
 .byte   W96
@  #06 @113   ----------------------------------------
 .byte   W96
@  #06 @114   ----------------------------------------
 .byte   W96
@  #06 @115   ----------------------------------------
 .byte   PATT
  .word Label_01111D0D
@  #06 @116   ----------------------------------------
 .byte   PATT
  .word Label_01111D19
@  #06 @117   ----------------------------------------
 .byte   PATT
  .word Label_01111D25
@  #06 @118   ----------------------------------------
 .byte   PATT
  .word Label_01111D34
@  #06 @119   ----------------------------------------
 .byte   PATT
  .word Label_01111D0D
@  #06 @120   ----------------------------------------
 .byte   PATT
  .word Label_01111D19
@  #06 @121   ----------------------------------------
 .byte   PATT
  .word Label_01111D4A
@  #06 @122   ----------------------------------------
 .byte   PATT
  .word Label_01111D59
@  #06 @123   ----------------------------------------
 .byte   PATT
  .word Label_01111D0D
@  #06 @124   ----------------------------------------
 .byte   PATT
  .word Label_01111D19
@  #06 @125   ----------------------------------------
 .byte   PATT
  .word Label_01111D25
@  #06 @126   ----------------------------------------
 .byte   PATT
  .word Label_01111D34
@  #06 @127   ----------------------------------------
 .byte   PATT
  .word Label_01111D0D
@  #06 @128   ----------------------------------------
 .byte   PATT
  .word Label_01111D19
@  #06 @129   ----------------------------------------
 .byte   PATT
  .word Label_01111D4A
@  #06 @130   ----------------------------------------
 .byte   PATT
  .word Label_01111D59
@  #06 @131   ----------------------------------------
 .byte   W96
@  #06 @132   ----------------------------------------
 .byte   W96
@  #06 @133   ----------------------------------------
 .byte   W96
@  #06 @134   ----------------------------------------
 .byte   W96
@  #06 @135   ----------------------------------------
 .byte   W96
@  #06 @136   ----------------------------------------
 .byte   W96
@  #06 @137   ----------------------------------------
 .byte   W96
@  #06 @138   ----------------------------------------
 .byte   W96
@  #06 @139   ----------------------------------------
 .byte   PATT
  .word Label_01111D0D
@  #06 @140   ----------------------------------------
 .byte   PATT
  .word Label_01111D19
@  #06 @141   ----------------------------------------
 .byte   PATT
  .word Label_01111D25
@  #06 @142   ----------------------------------------
 .byte   PATT
  .word Label_01111D34
@  #06 @143   ----------------------------------------
 .byte   PATT
  .word Label_01111D0D
@  #06 @144   ----------------------------------------
 .byte   PATT
  .word Label_01111D19
@  #06 @145   ----------------------------------------
 .byte   PATT
  .word Label_01111D4A
@  #06 @146   ----------------------------------------
 .byte   N11 ,Gn2 ,v108
 .byte   W12
 .byte   En2
 .byte   W24
 .byte   N11
 .byte   W12
 .byte   N20 ,Cn2
 .byte   W44
 .byte   W03
 .byte   FINE

@**************** Track 7 (Midi-Chn.6) ****************@

song06_007:
@  #07 @000   ----------------------------------------
 .byte   KEYSH , song06_key+0
 .byte   VOICE , 1
 .byte   VOL , 50*song06_mvl/mxv
 .byte   PAN , c_v-64
 .byte   W96
@  #07 @001   ----------------------------------------
 .byte   W96
@  #07 @002   ----------------------------------------
Label_01111ECA:
 .byte   W96
@  #07 @003   ----------------------------------------
 .byte   W96
@  #07 @004   ----------------------------------------
 .byte   W96
@  #07 @005   ----------------------------------------
 .byte   W96
@  #07 @006   ----------------------------------------
 .byte   W96
@  #07 @007   ----------------------------------------
 .byte   W96
@  #07 @008   ----------------------------------------
 .byte   W96
@  #07 @009   ----------------------------------------
 .byte   W96
@  #07 @010   ----------------------------------------
Label_01111ED2:
 .byte   N20 ,En4 ,v060
 .byte   W36
 .byte   N20
 .byte   W60
 .byte   PEND 
@  #07 @011   ----------------------------------------
Label_01111ED9:
 .byte   W12
 .byte   N11 ,Fn4 ,v060
 .byte   W24
 .byte   N11
 .byte   W12
 .byte   N20
 .byte   W48
 .byte   PEND 
@  #07 @012   ----------------------------------------
 .byte   PATT
  .word Label_01111ED2
@  #07 @013   ----------------------------------------
 .byte   PATT
  .word Label_01111ED9
@  #07 @014   ----------------------------------------
 .byte   PATT
  .word Label_01111ED2
@  #07 @015   ----------------------------------------
 .byte   PATT
  .word Label_01111ED9
@  #07 @016   ----------------------------------------
Label_01111EF7:
 .byte   W24
 .byte   N20 ,Ds4 ,v060
 .byte   W36
 .byte   Fn4
 .byte   W36
 .byte   PEND 
@  #07 @017   ----------------------------------------
 .byte   N32 ,En4
 .byte   W96
@  #07 @018   ----------------------------------------
 .byte   PATT
  .word Label_01111ED2
@  #07 @019   ----------------------------------------
 .byte   PATT
  .word Label_01111ED9
@  #07 @020   ----------------------------------------
 .byte   PATT
  .word Label_01111ED2
@  #07 @021   ----------------------------------------
 .byte   PATT
  .word Label_01111ED9
@  #07 @022   ----------------------------------------
 .byte   PATT
  .word Label_01111ED2
@  #07 @023   ----------------------------------------
 .byte   PATT
  .word Label_01111ED9
@  #07 @024   ----------------------------------------
 .byte   PATT
  .word Label_01111EF7
@  #07 @025   ----------------------------------------
 .byte   N32 ,En4 ,v060
 .byte   W96
@  #07 @026   ----------------------------------------
Label_01111F29:
 .byte   VOICE , 71
 .byte   PAN , c_v-64
 .byte   N90 ,An3 ,v060
 .byte   W96
 .byte   PEND 
@  #07 @027   ----------------------------------------
 .byte   Gn3
 .byte   W96
@  #07 @028   ----------------------------------------
 .byte   Fn3
 .byte   W96
@  #07 @029   ----------------------------------------
 .byte   En3
 .byte   W96
@  #07 @030   ----------------------------------------
 .byte   An3
 .byte   W96
@  #07 @031   ----------------------------------------
 .byte   Gn3
 .byte   W96
@  #07 @032   ----------------------------------------
 .byte   VOICE , 1
 .byte   PAN , c_v-64
 .byte   W96
@  #07 @033   ----------------------------------------
 .byte   W96
@  #07 @034   ----------------------------------------
 .byte   GOTO
  .word Label_01111ECA
@  #07 @035   ----------------------------------------
 .byte   W96
@  #07 @036   ----------------------------------------
 .byte   W96
@  #07 @037   ----------------------------------------
 .byte   W96
@  #07 @038   ----------------------------------------
 .byte   W96
@  #07 @039   ----------------------------------------
 .byte   W96
@  #07 @040   ----------------------------------------
 .byte   W96
@  #07 @041   ----------------------------------------
 .byte   W96
@  #07 @042   ----------------------------------------
 .byte   W96
@  #07 @043   ----------------------------------------
Label_01111F4F:
 .byte   N20 ,Cn4 ,v060
 .byte   W24
 .byte   N20
 .byte   W24
 .byte   N20
 .byte   W48
 .byte   PEND 
@  #07 @044   ----------------------------------------
Label_01111F58:
 .byte   W12
 .byte   N11 ,Cn4 ,v060
 .byte   W24
 .byte   N11
 .byte   W12
 .byte   N20
 .byte   W24
 .byte   N20
 .byte   W24
 .byte   PEND 
@  #07 @045   ----------------------------------------
Label_01111F64:
 .byte   N20 ,Bn3 ,v060
 .byte   W24
 .byte   N20
 .byte   W24
 .byte   N20
 .byte   W48
 .byte   PEND 
@  #07 @046   ----------------------------------------
 .byte   PATT
  .word Label_01111F58
@  #07 @047   ----------------------------------------
 .byte   PATT
  .word Label_01111F4F
@  #07 @048   ----------------------------------------
 .byte   PATT
  .word Label_01111F58
@  #07 @049   ----------------------------------------
 .byte   PATT
  .word Label_01111F64
@  #07 @050   ----------------------------------------
 .byte   PATT
  .word Label_01111F58
@  #07 @051   ----------------------------------------
 .byte   PATT
  .word Label_01111F4F
@  #07 @052   ----------------------------------------
 .byte   PATT
  .word Label_01111F58
@  #07 @053   ----------------------------------------
 .byte   PATT
  .word Label_01111F64
@  #07 @054   ----------------------------------------
 .byte   PATT
  .word Label_01111F58
@  #07 @055   ----------------------------------------
 .byte   PATT
  .word Label_01111F4F
@  #07 @056   ----------------------------------------
 .byte   PATT
  .word Label_01111F58
@  #07 @057   ----------------------------------------
 .byte   PATT
  .word Label_01111F64
@  #07 @058   ----------------------------------------
 .byte   PATT
  .word Label_01111F58
@  #07 @059   ----------------------------------------
Label_01111FAE:
 .byte   VOICE , 71
 .byte   PAN , c_v+63
 .byte   N90 ,An3 ,v060
 .byte   W96
 .byte   PEND 
@  #07 @060   ----------------------------------------
 .byte   Gn3
 .byte   W96
@  #07 @061   ----------------------------------------
 .byte   Fn3
 .byte   W96
@  #07 @062   ----------------------------------------
 .byte   En3
 .byte   W96
@  #07 @063   ----------------------------------------
 .byte   An3
 .byte   W96
@  #07 @064   ----------------------------------------
 .byte   Gn3
 .byte   W96
@  #07 @065   ----------------------------------------
 .byte   VOICE , 1
 .byte   PAN , c_v-64
 .byte   W96
@  #07 @066   ----------------------------------------
 .byte   W96
@  #07 @067   ----------------------------------------
 .byte   PATT
  .word Label_01111F4F
@  #07 @068   ----------------------------------------
 .byte   PATT
  .word Label_01111F58
@  #07 @069   ----------------------------------------
 .byte   PATT
  .word Label_01111F64
@  #07 @070   ----------------------------------------
 .byte   PATT
  .word Label_01111F58
@  #07 @071   ----------------------------------------
 .byte   PATT
  .word Label_01111F4F
@  #07 @072   ----------------------------------------
 .byte   PATT
  .word Label_01111F58
@  #07 @073   ----------------------------------------
 .byte   PATT
  .word Label_01111F64
@  #07 @074   ----------------------------------------
 .byte   PATT
  .word Label_01111F58
@  #07 @075   ----------------------------------------
 .byte   VOICE , 1
 .byte   PAN , c_v-64
 .byte   W96
@  #07 @076   ----------------------------------------
 .byte   W96
@  #07 @077   ----------------------------------------
 .byte   W96
@  #07 @078   ----------------------------------------
 .byte   W96
@  #07 @079   ----------------------------------------
 .byte   W96
@  #07 @080   ----------------------------------------
 .byte   W96
@  #07 @081   ----------------------------------------
 .byte   W96
@  #07 @082   ----------------------------------------
 .byte   W96
@  #07 @083   ----------------------------------------
 .byte   PATT
  .word Label_01111ED2
@  #07 @084   ----------------------------------------
 .byte   PATT
  .word Label_01111ED9
@  #07 @085   ----------------------------------------
 .byte   PATT
  .word Label_01111ED2
@  #07 @086   ----------------------------------------
 .byte   PATT
  .word Label_01111ED9
@  #07 @087   ----------------------------------------
 .byte   PATT
  .word Label_01111ED2
@  #07 @088   ----------------------------------------
 .byte   PATT
  .word Label_01111ED9
@  #07 @089   ----------------------------------------
 .byte   PATT
  .word Label_01111EF7
@  #07 @090   ----------------------------------------
 .byte   N32 ,En4 ,v060
 .byte   W96
@  #07 @091   ----------------------------------------
 .byte   PATT
  .word Label_01111ED2
@  #07 @092   ----------------------------------------
 .byte   PATT
  .word Label_01111ED9
@  #07 @093   ----------------------------------------
 .byte   PATT
  .word Label_01111ED2
@  #07 @094   ----------------------------------------
 .byte   PATT
  .word Label_01111ED9
@  #07 @095   ----------------------------------------
 .byte   PATT
  .word Label_01111ED2
@  #07 @096   ----------------------------------------
 .byte   PATT
  .word Label_01111ED9
@  #07 @097   ----------------------------------------
 .byte   PATT
  .word Label_01111EF7
@  #07 @098   ----------------------------------------
 .byte   N32 ,En4 ,v060
 .byte   W96
@  #07 @099   ----------------------------------------
 .byte   PATT
  .word Label_01111F29
@  #07 @100   ----------------------------------------
 .byte   N90 ,Gn3 ,v060
 .byte   W96
@  #07 @101   ----------------------------------------
 .byte   Fn3
 .byte   W96
@  #07 @102   ----------------------------------------
 .byte   En3
 .byte   W96
@  #07 @103   ----------------------------------------
 .byte   An3
 .byte   W96
@  #07 @104   ----------------------------------------
 .byte   Gn3
 .byte   W96
@  #07 @105   ----------------------------------------
 .byte   VOICE , 1
 .byte   PAN , c_v-64
 .byte   W96
@  #07 @106   ----------------------------------------
 .byte   W96
@  #07 @107   ----------------------------------------
 .byte   W96
@  #07 @108   ----------------------------------------
 .byte   W96
@  #07 @109   ----------------------------------------
 .byte   W96
@  #07 @110   ----------------------------------------
 .byte   W96
@  #07 @111   ----------------------------------------
 .byte   W96
@  #07 @112   ----------------------------------------
 .byte   W96
@  #07 @113   ----------------------------------------
 .byte   W96
@  #07 @114   ----------------------------------------
 .byte   W96
@  #07 @115   ----------------------------------------
 .byte   PATT
  .word Label_01111F4F
@  #07 @116   ----------------------------------------
 .byte   PATT
  .word Label_01111F58
@  #07 @117   ----------------------------------------
 .byte   PATT
  .word Label_01111F64
@  #07 @118   ----------------------------------------
 .byte   PATT
  .word Label_01111F58
@  #07 @119   ----------------------------------------
 .byte   PATT
  .word Label_01111F4F
@  #07 @120   ----------------------------------------
 .byte   PATT
  .word Label_01111F58
@  #07 @121   ----------------------------------------
 .byte   PATT
  .word Label_01111F64
@  #07 @122   ----------------------------------------
 .byte   PATT
  .word Label_01111F58
@  #07 @123   ----------------------------------------
 .byte   PATT
  .word Label_01111F4F
@  #07 @124   ----------------------------------------
 .byte   PATT
  .word Label_01111F58
@  #07 @125   ----------------------------------------
 .byte   PATT
  .word Label_01111F64
@  #07 @126   ----------------------------------------
 .byte   PATT
  .word Label_01111F58
@  #07 @127   ----------------------------------------
 .byte   PATT
  .word Label_01111F4F
@  #07 @128   ----------------------------------------
 .byte   PATT
  .word Label_01111F58
@  #07 @129   ----------------------------------------
 .byte   PATT
  .word Label_01111F64
@  #07 @130   ----------------------------------------
 .byte   PATT
  .word Label_01111F58
@  #07 @131   ----------------------------------------
 .byte   PATT
  .word Label_01111FAE
@  #07 @132   ----------------------------------------
 .byte   N90 ,Gn3 ,v060
 .byte   W96
@  #07 @133   ----------------------------------------
 .byte   Fn3
 .byte   W96
@  #07 @134   ----------------------------------------
 .byte   En3
 .byte   W96
@  #07 @135   ----------------------------------------
 .byte   An3
 .byte   W96
@  #07 @136   ----------------------------------------
 .byte   Gn3
 .byte   W96
@  #07 @137   ----------------------------------------
 .byte   VOICE , 1
 .byte   PAN , c_v-64
 .byte   W96
@  #07 @138   ----------------------------------------
 .byte   W96
@  #07 @139   ----------------------------------------
 .byte   PATT
  .word Label_01111F4F
@  #07 @140   ----------------------------------------
 .byte   PATT
  .word Label_01111F58
@  #07 @141   ----------------------------------------
 .byte   PATT
  .word Label_01111F64
@  #07 @142   ----------------------------------------
 .byte   PATT
  .word Label_01111F58
@  #07 @143   ----------------------------------------
 .byte   PATT
  .word Label_01111F4F
@  #07 @144   ----------------------------------------
 .byte   PATT
  .word Label_01111F58
@  #07 @145   ----------------------------------------
 .byte   PATT
  .word Label_01111F64
@  #07 @146   ----------------------------------------
 .byte   W12
 .byte   N11 ,Cn4 ,v060
 .byte   W24
 .byte   N11
 .byte   W12
 .byte   N20
 .byte   W24
 .byte   N20
 .byte   W23
 .byte   FINE

@**************** Track 8 (Midi-Chn.7) ****************@

song06_008:
@  #08 @000   ----------------------------------------
 .byte   KEYSH , song06_key+0
 .byte   VOICE , 1
 .byte   VOL , 50*song06_mvl/mxv
 .byte   PAN , c_v+63
 .byte   W96
@  #08 @001   ----------------------------------------
 .byte   W96
@  #08 @002   ----------------------------------------
Label_0111211A:
 .byte   W96
@  #08 @003   ----------------------------------------
 .byte   W96
@  #08 @004   ----------------------------------------
 .byte   W96
@  #08 @005   ----------------------------------------
 .byte   W96
@  #08 @006   ----------------------------------------
 .byte   W96
@  #08 @007   ----------------------------------------
 .byte   W96
@  #08 @008   ----------------------------------------
 .byte   W96
@  #08 @009   ----------------------------------------
 .byte   W96
@  #08 @010   ----------------------------------------
Label_01112122:
 .byte   N20 ,Gn4 ,v060
 .byte   W36
 .byte   N20
 .byte   W60
 .byte   PEND 
@  #08 @011   ----------------------------------------
Label_01112129:
 .byte   W12
 .byte   N11 ,An4 ,v060
 .byte   W24
 .byte   N11
 .byte   W12
 .byte   N20
 .byte   W48
 .byte   PEND 
@  #08 @012   ----------------------------------------
 .byte   PATT
  .word Label_01112122
@  #08 @013   ----------------------------------------
Label_01112138:
 .byte   W12
 .byte   N11 ,Cn5 ,v060
 .byte   W24
 .byte   N11
 .byte   W12
 .byte   N20
 .byte   W48
 .byte   PEND 
@  #08 @014   ----------------------------------------
 .byte   PATT
  .word Label_01112122
@  #08 @015   ----------------------------------------
 .byte   PATT
  .word Label_01112129
@  #08 @016   ----------------------------------------
Label_0111214C:
 .byte   W24
 .byte   N20 ,Cn4 ,v060
 .byte   W36
 .byte   Dn4
 .byte   W36
 .byte   PEND 
@  #08 @017   ----------------------------------------
 .byte   N32 ,Cn4
 .byte   W96
@  #08 @018   ----------------------------------------
 .byte   PATT
  .word Label_01112122
@  #08 @019   ----------------------------------------
 .byte   PATT
  .word Label_01112129
@  #08 @020   ----------------------------------------
 .byte   PATT
  .word Label_01112122
@  #08 @021   ----------------------------------------
 .byte   PATT
  .word Label_01112138
@  #08 @022   ----------------------------------------
 .byte   PATT
  .word Label_01112122
@  #08 @023   ----------------------------------------
 .byte   PATT
  .word Label_01112129
@  #08 @024   ----------------------------------------
 .byte   PATT
  .word Label_0111214C
@  #08 @025   ----------------------------------------
 .byte   N32 ,Cn4 ,v060
 .byte   W96
@  #08 @026   ----------------------------------------
 .byte   W96
@  #08 @027   ----------------------------------------
 .byte   W96
@  #08 @028   ----------------------------------------
 .byte   W96
@  #08 @029   ----------------------------------------
 .byte   W96
@  #08 @030   ----------------------------------------
 .byte   W96
@  #08 @031   ----------------------------------------
Label_01112183:
 .byte   VOICE , 74
 .byte   PAN , c_v+0
 .byte   N11 ,Cn4 ,v076
 .byte   W12
 .byte   Bn3
 .byte   W12
 .byte   As3
 .byte   W12
 .byte   N54 ,An3
 .byte   W60
 .byte   PEND 
@  #08 @032   ----------------------------------------
 .byte   VOICE , 1
 .byte   PAN , c_v+63
 .byte   W96
@  #08 @033   ----------------------------------------
 .byte   W96
@  #08 @034   ----------------------------------------
 .byte   GOTO
  .word Label_0111211A
@  #08 @035   ----------------------------------------
 .byte   W96
@  #08 @036   ----------------------------------------
 .byte   W96
@  #08 @037   ----------------------------------------
 .byte   W96
@  #08 @038   ----------------------------------------
 .byte   W96
@  #08 @039   ----------------------------------------
 .byte   W96
@  #08 @040   ----------------------------------------
 .byte   W96
@  #08 @041   ----------------------------------------
 .byte   W96
@  #08 @042   ----------------------------------------
 .byte   W96
@  #08 @043   ----------------------------------------
Label_011121A6:
 .byte   N20 ,En4 ,v060
 .byte   W24
 .byte   N20
 .byte   W24
 .byte   N20
 .byte   W48
 .byte   PEND 
@  #08 @044   ----------------------------------------
Label_011121AF:
 .byte   W12
 .byte   N11 ,Fn4 ,v060
 .byte   W24
 .byte   N11
 .byte   W12
 .byte   N20
 .byte   W24
 .byte   N20
 .byte   W24
 .byte   PEND 
@  #08 @045   ----------------------------------------
Label_011121BB:
 .byte   N20 ,Fn4 ,v060
 .byte   W24
 .byte   N20
 .byte   W24
 .byte   N20
 .byte   W48
 .byte   PEND 
@  #08 @046   ----------------------------------------
Label_011121C4:
 .byte   W12
 .byte   N11 ,En4 ,v060
 .byte   W24
 .byte   N11
 .byte   W12
 .byte   N20
 .byte   W24
 .byte   N20
 .byte   W24
 .byte   PEND 
@  #08 @047   ----------------------------------------
 .byte   PATT
  .word Label_011121A6
@  #08 @048   ----------------------------------------
 .byte   PATT
  .word Label_011121AF
@  #08 @049   ----------------------------------------
 .byte   PATT
  .word Label_011121BB
@  #08 @050   ----------------------------------------
 .byte   PATT
  .word Label_011121C4
@  #08 @051   ----------------------------------------
 .byte   PATT
  .word Label_011121A6
@  #08 @052   ----------------------------------------
 .byte   PATT
  .word Label_011121AF
@  #08 @053   ----------------------------------------
 .byte   PATT
  .word Label_011121BB
@  #08 @054   ----------------------------------------
 .byte   PATT
  .word Label_011121C4
@  #08 @055   ----------------------------------------
 .byte   PATT
  .word Label_011121A6
@  #08 @056   ----------------------------------------
 .byte   PATT
  .word Label_011121AF
@  #08 @057   ----------------------------------------
 .byte   PATT
  .word Label_011121BB
@  #08 @058   ----------------------------------------
 .byte   PATT
  .word Label_011121C4
@  #08 @059   ----------------------------------------
 .byte   W96
@  #08 @060   ----------------------------------------
 .byte   W96
@  #08 @061   ----------------------------------------
 .byte   W96
@  #08 @062   ----------------------------------------
 .byte   W96
@  #08 @063   ----------------------------------------
 .byte   W96
@  #08 @064   ----------------------------------------
 .byte   PATT
  .word Label_01112183
@  #08 @065   ----------------------------------------
 .byte   VOICE , 1
 .byte   PAN , c_v+63
 .byte   W96
@  #08 @066   ----------------------------------------
 .byte   W96
@  #08 @067   ----------------------------------------
 .byte   PATT
  .word Label_011121A6
@  #08 @068   ----------------------------------------
 .byte   PATT
  .word Label_011121AF
@  #08 @069   ----------------------------------------
 .byte   PATT
  .word Label_011121BB
@  #08 @070   ----------------------------------------
 .byte   PATT
  .word Label_011121C4
@  #08 @071   ----------------------------------------
 .byte   PATT
  .word Label_011121A6
@  #08 @072   ----------------------------------------
 .byte   PATT
  .word Label_011121AF
@  #08 @073   ----------------------------------------
 .byte   PATT
  .word Label_011121BB
@  #08 @074   ----------------------------------------
 .byte   PATT
  .word Label_011121C4
@  #08 @075   ----------------------------------------
 .byte   VOICE , 1
 .byte   PAN , c_v+63
 .byte   W96
@  #08 @076   ----------------------------------------
 .byte   W96
@  #08 @077   ----------------------------------------
 .byte   W96
@  #08 @078   ----------------------------------------
 .byte   W96
@  #08 @079   ----------------------------------------
 .byte   W96
@  #08 @080   ----------------------------------------
 .byte   W96
@  #08 @081   ----------------------------------------
 .byte   W96
@  #08 @082   ----------------------------------------
 .byte   W96
@  #08 @083   ----------------------------------------
 .byte   PATT
  .word Label_01112122
@  #08 @084   ----------------------------------------
 .byte   PATT
  .word Label_01112129
@  #08 @085   ----------------------------------------
 .byte   PATT
  .word Label_01112122
@  #08 @086   ----------------------------------------
 .byte   PATT
  .word Label_01112138
@  #08 @087   ----------------------------------------
 .byte   PATT
  .word Label_01112122
@  #08 @088   ----------------------------------------
 .byte   PATT
  .word Label_01112129
@  #08 @089   ----------------------------------------
 .byte   PATT
  .word Label_0111214C
@  #08 @090   ----------------------------------------
 .byte   N32 ,Cn4 ,v060
 .byte   W96
@  #08 @091   ----------------------------------------
 .byte   PATT
  .word Label_01112122
@  #08 @092   ----------------------------------------
 .byte   PATT
  .word Label_01112129
@  #08 @093   ----------------------------------------
 .byte   PATT
  .word Label_01112122
@  #08 @094   ----------------------------------------
 .byte   PATT
  .word Label_01112138
@  #08 @095   ----------------------------------------
 .byte   PATT
  .word Label_01112122
@  #08 @096   ----------------------------------------
 .byte   PATT
  .word Label_01112129
@  #08 @097   ----------------------------------------
 .byte   PATT
  .word Label_0111214C
@  #08 @098   ----------------------------------------
 .byte   N32 ,Cn4 ,v060
 .byte   W96
@  #08 @099   ----------------------------------------
 .byte   W96
@  #08 @100   ----------------------------------------
 .byte   W96
@  #08 @101   ----------------------------------------
 .byte   W96
@  #08 @102   ----------------------------------------
 .byte   W96
@  #08 @103   ----------------------------------------
 .byte   W96
@  #08 @104   ----------------------------------------
 .byte   PATT
  .word Label_01112183
@  #08 @105   ----------------------------------------
 .byte   VOICE , 1
 .byte   PAN , c_v+63
 .byte   W96
@  #08 @106   ----------------------------------------
 .byte   W96
@  #08 @107   ----------------------------------------
 .byte   W96
@  #08 @108   ----------------------------------------
 .byte   W96
@  #08 @109   ----------------------------------------
 .byte   W96
@  #08 @110   ----------------------------------------
 .byte   W96
@  #08 @111   ----------------------------------------
 .byte   W96
@  #08 @112   ----------------------------------------
 .byte   W96
@  #08 @113   ----------------------------------------
 .byte   W96
@  #08 @114   ----------------------------------------
 .byte   W96
@  #08 @115   ----------------------------------------
 .byte   PATT
  .word Label_011121A6
@  #08 @116   ----------------------------------------
 .byte   PATT
  .word Label_011121AF
@  #08 @117   ----------------------------------------
 .byte   PATT
  .word Label_011121BB
@  #08 @118   ----------------------------------------
 .byte   PATT
  .word Label_011121C4
@  #08 @119   ----------------------------------------
 .byte   PATT
  .word Label_011121A6
@  #08 @120   ----------------------------------------
 .byte   PATT
  .word Label_011121AF
@  #08 @121   ----------------------------------------
 .byte   PATT
  .word Label_011121BB
@  #08 @122   ----------------------------------------
 .byte   PATT
  .word Label_011121C4
@  #08 @123   ----------------------------------------
 .byte   PATT
  .word Label_011121A6
@  #08 @124   ----------------------------------------
 .byte   PATT
  .word Label_011121AF
@  #08 @125   ----------------------------------------
 .byte   PATT
  .word Label_011121BB
@  #08 @126   ----------------------------------------
 .byte   PATT
  .word Label_011121C4
@  #08 @127   ----------------------------------------
 .byte   PATT
  .word Label_011121A6
@  #08 @128   ----------------------------------------
 .byte   PATT
  .word Label_011121AF
@  #08 @129   ----------------------------------------
 .byte   PATT
  .word Label_011121BB
@  #08 @130   ----------------------------------------
 .byte   PATT
  .word Label_011121C4
@  #08 @131   ----------------------------------------
 .byte   W96
@  #08 @132   ----------------------------------------
 .byte   W96
@  #08 @133   ----------------------------------------
 .byte   W96
@  #08 @134   ----------------------------------------
 .byte   W96
@  #08 @135   ----------------------------------------
 .byte   W96
@  #08 @136   ----------------------------------------
 .byte   PATT
  .word Label_01112183
@  #08 @137   ----------------------------------------
 .byte   VOICE , 1
 .byte   PAN , c_v+63
 .byte   W96
@  #08 @138   ----------------------------------------
 .byte   W96
@  #08 @139   ----------------------------------------
 .byte   PATT
  .word Label_011121A6
@  #08 @140   ----------------------------------------
 .byte   PATT
  .word Label_011121AF
@  #08 @141   ----------------------------------------
 .byte   PATT
  .word Label_011121BB
@  #08 @142   ----------------------------------------
 .byte   PATT
  .word Label_011121C4
@  #08 @143   ----------------------------------------
 .byte   PATT
  .word Label_011121A6
@  #08 @144   ----------------------------------------
 .byte   PATT
  .word Label_011121AF
@  #08 @145   ----------------------------------------
 .byte   PATT
  .word Label_011121BB
@  #08 @146   ----------------------------------------
 .byte   W12
 .byte   N11 ,En4 ,v060
 .byte   W24
 .byte   N11
 .byte   W12
 .byte   N20
 .byte   W24
 .byte   N20
 .byte   W23
 .byte   FINE

@**************** Track 9 (Midi-Chn.8) ****************@

song06_009:
@  #09 @000   ----------------------------------------
 .byte   KEYSH , song06_key+0
 .byte   VOICE , 47
 .byte   PAN , c_v-51
 .byte   VOL , 50*song06_mvl/mxv
 .byte   W96
@  #09 @001   ----------------------------------------
 .byte   W96
@  #09 @002   ----------------------------------------
Label_01112362:
 .byte   N20 ,Bn0 ,v092
 .byte   W90
 .byte   N05
 .byte   W06
 .byte   PEND 
@  #09 @003   ----------------------------------------
Label_01112369:
 .byte   W24
 .byte   N17 ,Bn0 ,v092
 .byte   W18
 .byte   N05
 .byte   W06
 .byte   N42 ,Dn1
 .byte   W48
 .byte   PEND 
@  #09 @004   ----------------------------------------
 .byte   PATT
  .word Label_01112362
@  #09 @005   ----------------------------------------
 .byte   PATT
  .word Label_01112369
@  #09 @006   ----------------------------------------
 .byte   PATT
  .word Label_01112362
@  #09 @007   ----------------------------------------
 .byte   PATT
  .word Label_01112369
@  #09 @008   ----------------------------------------
 .byte   PATT
  .word Label_01112362
@  #09 @009   ----------------------------------------
 .byte   PATT
  .word Label_01112369
@  #09 @010   ----------------------------------------
 .byte   PATT
  .word Label_01112362
@  #09 @011   ----------------------------------------
 .byte   PATT
  .word Label_01112369
@  #09 @012   ----------------------------------------
 .byte   PATT
  .word Label_01112362
@  #09 @013   ----------------------------------------
 .byte   PATT
  .word Label_01112369
@  #09 @014   ----------------------------------------
 .byte   PATT
  .word Label_01112362
@  #09 @015   ----------------------------------------
 .byte   PATT
  .word Label_01112369
@  #09 @016   ----------------------------------------
 .byte   PATT
  .word Label_01112362
@  #09 @017   ----------------------------------------
 .byte   PATT
  .word Label_01112369
@  #09 @018   ----------------------------------------
 .byte   PATT
  .word Label_01112362
@  #09 @019   ----------------------------------------
 .byte   PATT
  .word Label_01112369
@  #09 @020   ----------------------------------------
 .byte   PATT
  .word Label_01112362
@  #09 @021   ----------------------------------------
 .byte   PATT
  .word Label_01112369
@  #09 @022   ----------------------------------------
 .byte   PATT
  .word Label_01112362
@  #09 @023   ----------------------------------------
 .byte   PATT
  .word Label_01112369
@  #09 @024   ----------------------------------------
 .byte   PATT
  .word Label_01112362
@  #09 @025   ----------------------------------------
 .byte   PATT
  .word Label_01112369
@  #09 @026   ----------------------------------------
 .byte   PATT
  .word Label_01112362
@  #09 @027   ----------------------------------------
 .byte   PATT
  .word Label_01112369
@  #09 @028   ----------------------------------------
 .byte   PATT
  .word Label_01112362
@  #09 @029   ----------------------------------------
 .byte   PATT
  .word Label_01112369
@  #09 @030   ----------------------------------------
 .byte   PATT
  .word Label_01112362
@  #09 @031   ----------------------------------------
 .byte   PATT
  .word Label_01112369
@  #09 @032   ----------------------------------------
 .byte   W96
@  #09 @033   ----------------------------------------
 .byte   W96
@  #09 @034   ----------------------------------------
 .byte   GOTO
  .word Label_01112362
@  #09 @035   ----------------------------------------
 .byte   PATT
  .word Label_01112362
@  #09 @036   ----------------------------------------
 .byte   PATT
  .word Label_01112369
@  #09 @037   ----------------------------------------
 .byte   PATT
  .word Label_01112362
@  #09 @038   ----------------------------------------
 .byte   PATT
  .word Label_01112369
@  #09 @039   ----------------------------------------
 .byte   PATT
  .word Label_01112362
@  #09 @040   ----------------------------------------
 .byte   PATT
  .word Label_01112369
@  #09 @041   ----------------------------------------
 .byte   PATT
  .word Label_01112362
@  #09 @042   ----------------------------------------
 .byte   PATT
  .word Label_01112369
@  #09 @043   ----------------------------------------
 .byte   PATT
  .word Label_01112362
@  #09 @044   ----------------------------------------
 .byte   PATT
  .word Label_01112369
@  #09 @045   ----------------------------------------
 .byte   PATT
  .word Label_01112362
@  #09 @046   ----------------------------------------
 .byte   PATT
  .word Label_01112369
@  #09 @047   ----------------------------------------
 .byte   PATT
  .word Label_01112362
@  #09 @048   ----------------------------------------
 .byte   PATT
  .word Label_01112369
@  #09 @049   ----------------------------------------
 .byte   PATT
  .word Label_01112362
@  #09 @050   ----------------------------------------
 .byte   PATT
  .word Label_01112369
@  #09 @051   ----------------------------------------
 .byte   PATT
  .word Label_01112362
@  #09 @052   ----------------------------------------
 .byte   PATT
  .word Label_01112369
@  #09 @053   ----------------------------------------
 .byte   PATT
  .word Label_01112362
@  #09 @054   ----------------------------------------
 .byte   PATT
  .word Label_01112369
@  #09 @055   ----------------------------------------
 .byte   PATT
  .word Label_01112362
@  #09 @056   ----------------------------------------
 .byte   PATT
  .word Label_01112369
@  #09 @057   ----------------------------------------
 .byte   PATT
  .word Label_01112362
@  #09 @058   ----------------------------------------
 .byte   PATT
  .word Label_01112369
@  #09 @059   ----------------------------------------
 .byte   PATT
  .word Label_01112362
@  #09 @060   ----------------------------------------
 .byte   PATT
  .word Label_01112369
@  #09 @061   ----------------------------------------
 .byte   PATT
  .word Label_01112362
@  #09 @062   ----------------------------------------
 .byte   PATT
  .word Label_01112369
@  #09 @063   ----------------------------------------
 .byte   PATT
  .word Label_01112362
@  #09 @064   ----------------------------------------
 .byte   PATT
  .word Label_01112369
@  #09 @065   ----------------------------------------
 .byte   W96
@  #09 @066   ----------------------------------------
 .byte   W96
@  #09 @067   ----------------------------------------
 .byte   PATT
  .word Label_01112362
@  #09 @068   ----------------------------------------
 .byte   PATT
  .word Label_01112369
@  #09 @069   ----------------------------------------
 .byte   PATT
  .word Label_01112362
@  #09 @070   ----------------------------------------
 .byte   PATT
  .word Label_01112369
@  #09 @071   ----------------------------------------
 .byte   PATT
  .word Label_01112362
@  #09 @072   ----------------------------------------
 .byte   PATT
  .word Label_01112369
@  #09 @073   ----------------------------------------
 .byte   PATT
  .word Label_01112362
@  #09 @074   ----------------------------------------
 .byte   PATT
  .word Label_01112369
@  #09 @075   ----------------------------------------
 .byte   PATT
  .word Label_01112362
@  #09 @076   ----------------------------------------
 .byte   PATT
  .word Label_01112369
@  #09 @077   ----------------------------------------
 .byte   PATT
  .word Label_01112362
@  #09 @078   ----------------------------------------
 .byte   PATT
  .word Label_01112369
@  #09 @079   ----------------------------------------
 .byte   PATT
  .word Label_01112362
@  #09 @080   ----------------------------------------
 .byte   PATT
  .word Label_01112369
@  #09 @081   ----------------------------------------
 .byte   PATT
  .word Label_01112362
@  #09 @082   ----------------------------------------
 .byte   PATT
  .word Label_01112369
@  #09 @083   ----------------------------------------
 .byte   PATT
  .word Label_01112362
@  #09 @084   ----------------------------------------
 .byte   PATT
  .word Label_01112369
@  #09 @085   ----------------------------------------
 .byte   PATT
  .word Label_01112362
@  #09 @086   ----------------------------------------
 .byte   PATT
  .word Label_01112369
@  #09 @087   ----------------------------------------
 .byte   PATT
  .word Label_01112362
@  #09 @088   ----------------------------------------
 .byte   PATT
  .word Label_01112369
@  #09 @089   ----------------------------------------
 .byte   PATT
  .word Label_01112362
@  #09 @090   ----------------------------------------
 .byte   PATT
  .word Label_01112369
@  #09 @091   ----------------------------------------
 .byte   PATT
  .word Label_01112362
@  #09 @092   ----------------------------------------
 .byte   PATT
  .word Label_01112369
@  #09 @093   ----------------------------------------
 .byte   PATT
  .word Label_01112362
@  #09 @094   ----------------------------------------
 .byte   PATT
  .word Label_01112369
@  #09 @095   ----------------------------------------
 .byte   PATT
  .word Label_01112362
@  #09 @096   ----------------------------------------
 .byte   PATT
  .word Label_01112369
@  #09 @097   ----------------------------------------
 .byte   PATT
  .word Label_01112362
@  #09 @098   ----------------------------------------
 .byte   PATT
  .word Label_01112369
@  #09 @099   ----------------------------------------
 .byte   PATT
  .word Label_01112362
@  #09 @100   ----------------------------------------
 .byte   PATT
  .word Label_01112369
@  #09 @101   ----------------------------------------
 .byte   PATT
  .word Label_01112362
@  #09 @102   ----------------------------------------
 .byte   PATT
  .word Label_01112369
@  #09 @103   ----------------------------------------
 .byte   PATT
  .word Label_01112362
@  #09 @104   ----------------------------------------
 .byte   PATT
  .word Label_01112369
@  #09 @105   ----------------------------------------
 .byte   W96
@  #09 @106   ----------------------------------------
 .byte   W96
@  #09 @107   ----------------------------------------
 .byte   PATT
  .word Label_01112362
@  #09 @108   ----------------------------------------
 .byte   PATT
  .word Label_01112369
@  #09 @109   ----------------------------------------
 .byte   PATT
  .word Label_01112362
@  #09 @110   ----------------------------------------
 .byte   PATT
  .word Label_01112369
@  #09 @111   ----------------------------------------
 .byte   PATT
  .word Label_01112362
@  #09 @112   ----------------------------------------
 .byte   PATT
  .word Label_01112369
@  #09 @113   ----------------------------------------
 .byte   PATT
  .word Label_01112362
@  #09 @114   ----------------------------------------
 .byte   PATT
  .word Label_01112369
@  #09 @115   ----------------------------------------
 .byte   PATT
  .word Label_01112362
@  #09 @116   ----------------------------------------
 .byte   PATT
  .word Label_01112369
@  #09 @117   ----------------------------------------
 .byte   PATT
  .word Label_01112362
@  #09 @118   ----------------------------------------
 .byte   PATT
  .word Label_01112369
@  #09 @119   ----------------------------------------
 .byte   PATT
  .word Label_01112362
@  #09 @120   ----------------------------------------
 .byte   PATT
  .word Label_01112369
@  #09 @121   ----------------------------------------
 .byte   PATT
  .word Label_01112362
@  #09 @122   ----------------------------------------
 .byte   PATT
  .word Label_01112369
@  #09 @123   ----------------------------------------
 .byte   PATT
  .word Label_01112362
@  #09 @124   ----------------------------------------
 .byte   PATT
  .word Label_01112369
@  #09 @125   ----------------------------------------
 .byte   PATT
  .word Label_01112362
@  #09 @126   ----------------------------------------
 .byte   PATT
  .word Label_01112369
@  #09 @127   ----------------------------------------
 .byte   PATT
  .word Label_01112362
@  #09 @128   ----------------------------------------
 .byte   PATT
  .word Label_01112369
@  #09 @129   ----------------------------------------
 .byte   PATT
  .word Label_01112362
@  #09 @130   ----------------------------------------
 .byte   PATT
  .word Label_01112369
@  #09 @131   ----------------------------------------
 .byte   PATT
  .word Label_01112362
@  #09 @132   ----------------------------------------
 .byte   PATT
  .word Label_01112369
@  #09 @133   ----------------------------------------
 .byte   PATT
  .word Label_01112362
@  #09 @134   ----------------------------------------
 .byte   PATT
  .word Label_01112369
@  #09 @135   ----------------------------------------
 .byte   PATT
  .word Label_01112362
@  #09 @136   ----------------------------------------
 .byte   PATT
  .word Label_01112369
@  #09 @137   ----------------------------------------
 .byte   W96
@  #09 @138   ----------------------------------------
 .byte   W96
@  #09 @139   ----------------------------------------
 .byte   PATT
  .word Label_01112362
@  #09 @140   ----------------------------------------
 .byte   PATT
  .word Label_01112369
@  #09 @141   ----------------------------------------
 .byte   PATT
  .word Label_01112362
@  #09 @142   ----------------------------------------
 .byte   PATT
  .word Label_01112369
@  #09 @143   ----------------------------------------
 .byte   PATT
  .word Label_01112362
@  #09 @144   ----------------------------------------
 .byte   PATT
  .word Label_01112369
@  #09 @145   ----------------------------------------
 .byte   PATT
  .word Label_01112362
@  #09 @146   ----------------------------------------
 .byte   W24
 .byte   N17 ,Bn0 ,v092
 .byte   W18
 .byte   N05
 .byte   W06
 .byte   N42 ,Dn1
 .byte   W44
 .byte   W03
 .byte   FINE

@**************** Track 10 (Midi-Chn.9) ****************@

song06_010:
@  #10 @000   ----------------------------------------
 .byte   KEYSH , song06_key+0
 .byte   VOICE , 122
 .byte   PAN , c_v-51
 .byte   VOL , 50*song06_mvl/mxv
 .byte   W96
@  #10 @001   ----------------------------------------
 .byte   W96
@  #10 @002   ----------------------------------------
Label_01112642:
 .byte   N20 ,Fs1 ,v092
 .byte   W24
 .byte   N17
 .byte   W18
 .byte   N05
 .byte   W06
 .byte   N20
 .byte   W24
 .byte   N17
 .byte   W18
 .byte   N05
 .byte   W06
 .byte   PEND 
@  #10 @003   ----------------------------------------
 .byte   PATT
  .word Label_01112642
@  #10 @004   ----------------------------------------
 .byte   PATT
  .word Label_01112642
@  #10 @005   ----------------------------------------
 .byte   PATT
  .word Label_01112642
@  #10 @006   ----------------------------------------
 .byte   PATT
  .word Label_01112642
@  #10 @007   ----------------------------------------
 .byte   PATT
  .word Label_01112642
@  #10 @008   ----------------------------------------
 .byte   PATT
  .word Label_01112642
@  #10 @009   ----------------------------------------
 .byte   PATT
  .word Label_01112642
@  #10 @010   ----------------------------------------
 .byte   PATT
  .word Label_01112642
@  #10 @011   ----------------------------------------
 .byte   PATT
  .word Label_01112642
@  #10 @012   ----------------------------------------
 .byte   PATT
  .word Label_01112642
@  #10 @013   ----------------------------------------
 .byte   PATT
  .word Label_01112642
@  #10 @014   ----------------------------------------
 .byte   PATT
  .word Label_01112642
@  #10 @015   ----------------------------------------
 .byte   PATT
  .word Label_01112642
@  #10 @016   ----------------------------------------
 .byte   PATT
  .word Label_01112642
@  #10 @017   ----------------------------------------
 .byte   PATT
  .word Label_01112642
@  #10 @018   ----------------------------------------
 .byte   PATT
  .word Label_01112642
@  #10 @019   ----------------------------------------
 .byte   PATT
  .word Label_01112642
@  #10 @020   ----------------------------------------
 .byte   PATT
  .word Label_01112642
@  #10 @021   ----------------------------------------
 .byte   PATT
  .word Label_01112642
@  #10 @022   ----------------------------------------
 .byte   PATT
  .word Label_01112642
@  #10 @023   ----------------------------------------
 .byte   PATT
  .word Label_01112642
@  #10 @024   ----------------------------------------
 .byte   PATT
  .word Label_01112642
@  #10 @025   ----------------------------------------
 .byte   PATT
  .word Label_01112642
@  #10 @026   ----------------------------------------
 .byte   PATT
  .word Label_01112642
@  #10 @027   ----------------------------------------
 .byte   PATT
  .word Label_01112642
@  #10 @028   ----------------------------------------
 .byte   PATT
  .word Label_01112642
@  #10 @029   ----------------------------------------
 .byte   PATT
  .word Label_01112642
@  #10 @030   ----------------------------------------
 .byte   PATT
  .word Label_01112642
@  #10 @031   ----------------------------------------
 .byte   PATT
  .word Label_01112642
@  #10 @032   ----------------------------------------
 .byte   W96
@  #10 @033   ----------------------------------------
 .byte   W96
@  #10 @034   ----------------------------------------
 .byte   GOTO
  .word Label_01112642
@  #10 @035   ----------------------------------------
 .byte   PATT
  .word Label_01112642
@  #10 @036   ----------------------------------------
 .byte   PATT
  .word Label_01112642
@  #10 @037   ----------------------------------------
 .byte   PATT
  .word Label_01112642
@  #10 @038   ----------------------------------------
 .byte   PATT
  .word Label_01112642
@  #10 @039   ----------------------------------------
 .byte   PATT
  .word Label_01112642
@  #10 @040   ----------------------------------------
 .byte   PATT
  .word Label_01112642
@  #10 @041   ----------------------------------------
 .byte   PATT
  .word Label_01112642
@  #10 @042   ----------------------------------------
 .byte   PATT
  .word Label_01112642
@  #10 @043   ----------------------------------------
 .byte   PATT
  .word Label_01112642
@  #10 @044   ----------------------------------------
 .byte   PATT
  .word Label_01112642
@  #10 @045   ----------------------------------------
 .byte   PATT
  .word Label_01112642
@  #10 @046   ----------------------------------------
 .byte   PATT
  .word Label_01112642
@  #10 @047   ----------------------------------------
 .byte   PATT
  .word Label_01112642
@  #10 @048   ----------------------------------------
 .byte   PATT
  .word Label_01112642
@  #10 @049   ----------------------------------------
 .byte   PATT
  .word Label_01112642
@  #10 @050   ----------------------------------------
 .byte   PATT
  .word Label_01112642
@  #10 @051   ----------------------------------------
 .byte   PATT
  .word Label_01112642
@  #10 @052   ----------------------------------------
 .byte   PATT
  .word Label_01112642
@  #10 @053   ----------------------------------------
 .byte   PATT
  .word Label_01112642
@  #10 @054   ----------------------------------------
 .byte   PATT
  .word Label_01112642
@  #10 @055   ----------------------------------------
 .byte   PATT
  .word Label_01112642
@  #10 @056   ----------------------------------------
 .byte   PATT
  .word Label_01112642
@  #10 @057   ----------------------------------------
 .byte   PATT
  .word Label_01112642
@  #10 @058   ----------------------------------------
 .byte   PATT
  .word Label_01112642
@  #10 @059   ----------------------------------------
 .byte   PATT
  .word Label_01112642
@  #10 @060   ----------------------------------------
 .byte   PATT
  .word Label_01112642
@  #10 @061   ----------------------------------------
 .byte   PATT
  .word Label_01112642
@  #10 @062   ----------------------------------------
 .byte   PATT
  .word Label_01112642
@  #10 @063   ----------------------------------------
 .byte   PATT
  .word Label_01112642
@  #10 @064   ----------------------------------------
 .byte   PATT
  .word Label_01112642
@  #10 @065   ----------------------------------------
 .byte   W96
@  #10 @066   ----------------------------------------
 .byte   W96
@  #10 @067   ----------------------------------------
 .byte   PATT
  .word Label_01112642
@  #10 @068   ----------------------------------------
 .byte   PATT
  .word Label_01112642
@  #10 @069   ----------------------------------------
 .byte   PATT
  .word Label_01112642
@  #10 @070   ----------------------------------------
 .byte   PATT
  .word Label_01112642
@  #10 @071   ----------------------------------------
 .byte   PATT
  .word Label_01112642
@  #10 @072   ----------------------------------------
 .byte   PATT
  .word Label_01112642
@  #10 @073   ----------------------------------------
 .byte   PATT
  .word Label_01112642
@  #10 @074   ----------------------------------------
 .byte   PATT
  .word Label_01112642
@  #10 @075   ----------------------------------------
 .byte   PATT
  .word Label_01112642
@  #10 @076   ----------------------------------------
 .byte   PATT
  .word Label_01112642
@  #10 @077   ----------------------------------------
 .byte   PATT
  .word Label_01112642
@  #10 @078   ----------------------------------------
 .byte   PATT
  .word Label_01112642
@  #10 @079   ----------------------------------------
 .byte   PATT
  .word Label_01112642
@  #10 @080   ----------------------------------------
 .byte   PATT
  .word Label_01112642
@  #10 @081   ----------------------------------------
 .byte   PATT
  .word Label_01112642
@  #10 @082   ----------------------------------------
 .byte   PATT
  .word Label_01112642
@  #10 @083   ----------------------------------------
 .byte   PATT
  .word Label_01112642
@  #10 @084   ----------------------------------------
 .byte   PATT
  .word Label_01112642
@  #10 @085   ----------------------------------------
 .byte   PATT
  .word Label_01112642
@  #10 @086   ----------------------------------------
 .byte   PATT
  .word Label_01112642
@  #10 @087   ----------------------------------------
 .byte   PATT
  .word Label_01112642
@  #10 @088   ----------------------------------------
 .byte   PATT
  .word Label_01112642
@  #10 @089   ----------------------------------------
 .byte   PATT
  .word Label_01112642
@  #10 @090   ----------------------------------------
 .byte   PATT
  .word Label_01112642
@  #10 @091   ----------------------------------------
 .byte   PATT
  .word Label_01112642
@  #10 @092   ----------------------------------------
 .byte   PATT
  .word Label_01112642
@  #10 @093   ----------------------------------------
 .byte   PATT
  .word Label_01112642
@  #10 @094   ----------------------------------------
 .byte   PATT
  .word Label_01112642
@  #10 @095   ----------------------------------------
 .byte   PATT
  .word Label_01112642
@  #10 @096   ----------------------------------------
 .byte   PATT
  .word Label_01112642
@  #10 @097   ----------------------------------------
 .byte   PATT
  .word Label_01112642
@  #10 @098   ----------------------------------------
 .byte   PATT
  .word Label_01112642
@  #10 @099   ----------------------------------------
 .byte   PATT
  .word Label_01112642
@  #10 @100   ----------------------------------------
 .byte   PATT
  .word Label_01112642
@  #10 @101   ----------------------------------------
 .byte   PATT
  .word Label_01112642
@  #10 @102   ----------------------------------------
 .byte   PATT
  .word Label_01112642
@  #10 @103   ----------------------------------------
 .byte   PATT
  .word Label_01112642
@  #10 @104   ----------------------------------------
 .byte   PATT
  .word Label_01112642
@  #10 @105   ----------------------------------------
 .byte   W96
@  #10 @106   ----------------------------------------
 .byte   W96
@  #10 @107   ----------------------------------------
 .byte   PATT
  .word Label_01112642
@  #10 @108   ----------------------------------------
 .byte   PATT
  .word Label_01112642
@  #10 @109   ----------------------------------------
 .byte   PATT
  .word Label_01112642
@  #10 @110   ----------------------------------------
 .byte   PATT
  .word Label_01112642
@  #10 @111   ----------------------------------------
 .byte   PATT
  .word Label_01112642
@  #10 @112   ----------------------------------------
 .byte   PATT
  .word Label_01112642
@  #10 @113   ----------------------------------------
 .byte   PATT
  .word Label_01112642
@  #10 @114   ----------------------------------------
 .byte   PATT
  .word Label_01112642
@  #10 @115   ----------------------------------------
 .byte   PATT
  .word Label_01112642
@  #10 @116   ----------------------------------------
 .byte   PATT
  .word Label_01112642
@  #10 @117   ----------------------------------------
 .byte   PATT
  .word Label_01112642
@  #10 @118   ----------------------------------------
 .byte   PATT
  .word Label_01112642
@  #10 @119   ----------------------------------------
 .byte   PATT
  .word Label_01112642
@  #10 @120   ----------------------------------------
 .byte   PATT
  .word Label_01112642
@  #10 @121   ----------------------------------------
 .byte   PATT
  .word Label_01112642
@  #10 @122   ----------------------------------------
 .byte   PATT
  .word Label_01112642
@  #10 @123   ----------------------------------------
 .byte   PATT
  .word Label_01112642
@  #10 @124   ----------------------------------------
 .byte   PATT
  .word Label_01112642
@  #10 @125   ----------------------------------------
 .byte   PATT
  .word Label_01112642
@  #10 @126   ----------------------------------------
 .byte   PATT
  .word Label_01112642
@  #10 @127   ----------------------------------------
 .byte   PATT
  .word Label_01112642
@  #10 @128   ----------------------------------------
 .byte   PATT
  .word Label_01112642
@  #10 @129   ----------------------------------------
 .byte   PATT
  .word Label_01112642
@  #10 @130   ----------------------------------------
 .byte   PATT
  .word Label_01112642
@  #10 @131   ----------------------------------------
 .byte   PATT
  .word Label_01112642
@  #10 @132   ----------------------------------------
 .byte   PATT
  .word Label_01112642
@  #10 @133   ----------------------------------------
 .byte   PATT
  .word Label_01112642
@  #10 @134   ----------------------------------------
 .byte   PATT
  .word Label_01112642
@  #10 @135   ----------------------------------------
 .byte   PATT
  .word Label_01112642
@  #10 @136   ----------------------------------------
 .byte   PATT
  .word Label_01112642
@  #10 @137   ----------------------------------------
 .byte   W96
@  #10 @138   ----------------------------------------
 .byte   W96
@  #10 @139   ----------------------------------------
 .byte   PATT
  .word Label_01112642
@  #10 @140   ----------------------------------------
 .byte   PATT
  .word Label_01112642
@  #10 @141   ----------------------------------------
 .byte   PATT
  .word Label_01112642
@  #10 @142   ----------------------------------------
 .byte   PATT
  .word Label_01112642
@  #10 @143   ----------------------------------------
 .byte   PATT
  .word Label_01112642
@  #10 @144   ----------------------------------------
 .byte   PATT
  .word Label_01112642
@  #10 @145   ----------------------------------------
 .byte   PATT
  .word Label_01112642
@  #10 @146   ----------------------------------------
 .byte   N20 ,Fs1 ,v092
 .byte   W24
 .byte   N17
 .byte   W18
 .byte   N05
 .byte   W06
 .byte   N20
 .byte   W24
 .byte   N17
 .byte   W18
 .byte   N05
 .byte   W05
 .byte   FINE

@******************************************************@
	.align	2

song06:
	.byte	10	@ NumTrks
	.byte	0	@ NumBlks
	.byte	song06_pri	@ Priority
	.byte	song06_rev	@ Reverb.
    
	.word	song06_grp
    
	.word	song06_001
	.word	song06_002
	.word	song06_003
	.word	song06_004
	.word	song06_005
	.word	song06_006
	.word	song06_007
	.word	song06_008
	.word	song06_009
	.word	song06_010

	.end
