	.include "MPlayDef.s"

	.equ	song06_grp, voicegroup000
	.equ	song06_pri, 0
	.equ	song06_rev, 0
	.equ	song06_mvl, 127
	.equ	song06_key, 0
	.equ	song06_tbs, 1
	.equ	song06_exg, 0
	.equ	song06_cmp, 1

	.section .rodata
	.global	song06
	.align	2


@**************** Track 1 (Midi-Chn.0) ****************@

song06_001:
@  #01 @000   ----------------------------------------
 .byte   KEYSH , song06_key+0
 .byte   TEMPO , 158*song06_tbs/2
 .byte   VOICE , 49
 .byte   PAN , c_v-31
 .byte   VOL , 50*song06_mvl/mxv
 .byte   W96
@  #01 @001   ----------------------------------------
 .byte   W96
@  #01 @002   ----------------------------------------
 .byte   W96
@  #01 @003   ----------------------------------------
 .byte   W96
@  #01 @004   ----------------------------------------
 .byte   W96
@  #01 @005   ----------------------------------------
 .byte   W96
@  #01 @006   ----------------------------------------
 .byte   W96
@  #01 @007   ----------------------------------------
 .byte   W96
@  #01 @008   ----------------------------------------
 .byte   W96
@  #01 @009   ----------------------------------------
 .byte   W96
@  #01 @010   ----------------------------------------
 .byte   W96
@  #01 @011   ----------------------------------------
 .byte   W96
@  #01 @012   ----------------------------------------
 .byte   W96
@  #01 @013   ----------------------------------------
 .byte   W96
@  #01 @014   ----------------------------------------
 .byte   W96
@  #01 @015   ----------------------------------------
 .byte   W96
@  #01 @016   ----------------------------------------
 .byte   W24
Label_0100B387:
 .byte   N48 ,Dn4 ,v127
 .byte   W48
 .byte   Cn4
 .byte   W24
@  #01 @017   ----------------------------------------
Label_0100B38D:
 .byte   W24
 .byte   N24 ,Bn3 ,v127
 .byte   W24
 .byte   Cn4
 .byte   W24
 .byte   Bn3
 .byte   W24
 .byte   PEND 
@  #01 @018   ----------------------------------------
Label_0100B397:
 .byte   N24 ,Gn3 ,v127
 .byte   W24
 .byte   N48 ,An3
 .byte   W48
 .byte   Gn3
 .byte   W24
 .byte   PEND 
@  #01 @019   ----------------------------------------
Label_0100B3A1:
 .byte   W24
 .byte   N24 ,Fn3 ,v127
 .byte   W24
 .byte   Gn3
 .byte   W24
 .byte   En3
 .byte   W24
 .byte   PEND 
@  #01 @020   ----------------------------------------
Label_0100B3AB:
 .byte   N24 ,Cn3 ,v127
 .byte   W24
 .byte   TIE ,An2
 .byte   W72
 .byte   PEND 
@  #01 @021   ----------------------------------------
 .byte   W96
@  #01 @022   ----------------------------------------
 .byte   W96
@  #01 @023   ----------------------------------------
 .byte   W96
@  #01 @024   ----------------------------------------
 .byte   W09
 .byte   EOT
 .byte   W15
 .byte   N48 ,Dn4
 .byte   W48
 .byte   Cn4
 .byte   W24
@  #01 @025   ----------------------------------------
 .byte   PATT
  .word Label_0100B38D
@  #01 @026   ----------------------------------------
 .byte   PATT
  .word Label_0100B397
@  #01 @027   ----------------------------------------
 .byte   PATT
  .word Label_0100B3A1
@  #01 @028   ----------------------------------------
Label_0100B3CD:
 .byte   N24 ,Cn3 ,v127
 .byte   W24
 .byte   TIE ,Dn3
 .byte   W72
 .byte   PEND 
@  #01 @029   ----------------------------------------
 .byte   W96
@  #01 @030   ----------------------------------------
 .byte   W96
@  #01 @031   ----------------------------------------
 .byte   W96
@  #01 @032   ----------------------------------------
 .byte   W09
 .byte   EOT
 .byte   W84
 .byte   W03
@  #01 @033   ----------------------------------------
 .byte   W96
@  #01 @034   ----------------------------------------
 .byte   W96
@  #01 @035   ----------------------------------------
 .byte   W96
@  #01 @036   ----------------------------------------
 .byte   W96
@  #01 @037   ----------------------------------------
 .byte   W96
@  #01 @038   ----------------------------------------
 .byte   W96
@  #01 @039   ----------------------------------------
 .byte   W96
@  #01 @040   ----------------------------------------
 .byte   W96
@  #01 @041   ----------------------------------------
 .byte   W96
@  #01 @042   ----------------------------------------
 .byte   W96
@  #01 @043   ----------------------------------------
 .byte   W96
@  #01 @044   ----------------------------------------
 .byte   W24
 .byte   GOTO
  .word Label_0100B387
@  #01 @045   ----------------------------------------
 .byte   N48 ,Dn4 ,v127
 .byte   W48
 .byte   Cn4
 .byte   W24
@  #01 @046   ----------------------------------------
 .byte   PATT
  .word Label_0100B38D
@  #01 @047   ----------------------------------------
 .byte   PATT
  .word Label_0100B397
@  #01 @048   ----------------------------------------
 .byte   PATT
  .word Label_0100B3A1
@  #01 @049   ----------------------------------------
 .byte   PATT
  .word Label_0100B3AB
@  #01 @050   ----------------------------------------
 .byte   W96
@  #01 @051   ----------------------------------------
 .byte   W96
@  #01 @052   ----------------------------------------
 .byte   W96
@  #01 @053   ----------------------------------------
 .byte   W09
 .byte   EOT
 .byte   An2
 .byte   W15
 .byte   N48 ,Dn4 ,v127
 .byte   W48
 .byte   Cn4
 .byte   W24
@  #01 @054   ----------------------------------------
 .byte   PATT
  .word Label_0100B38D
@  #01 @055   ----------------------------------------
 .byte   PATT
  .word Label_0100B397
@  #01 @056   ----------------------------------------
 .byte   PATT
  .word Label_0100B3A1
@  #01 @057   ----------------------------------------
 .byte   PATT
  .word Label_0100B3CD
@  #01 @058   ----------------------------------------
 .byte   W96
@  #01 @059   ----------------------------------------
 .byte   W96
@  #01 @060   ----------------------------------------
 .byte   W96
@  #01 @061   ----------------------------------------
 .byte   W09
 .byte   EOT
 .byte   Dn3
 .byte   W84
 .byte   W03
@  #01 @062   ----------------------------------------
 .byte   W96
@  #01 @063   ----------------------------------------
 .byte   W96
@  #01 @064   ----------------------------------------
 .byte   W96
@  #01 @065   ----------------------------------------
 .byte   W96
@  #01 @066   ----------------------------------------
 .byte   W96
@  #01 @067   ----------------------------------------
 .byte   W96
@  #01 @068   ----------------------------------------
 .byte   W96
@  #01 @069   ----------------------------------------
 .byte   W96
@  #01 @070   ----------------------------------------
 .byte   W96
@  #01 @071   ----------------------------------------
 .byte   W96
@  #01 @072   ----------------------------------------
 .byte   W96
@  #01 @073   ----------------------------------------
Label_0100B43B:
 .byte   W24
 .byte   N48 ,Dn4 ,v127
 .byte   W48
 .byte   Cn4
 .byte   W24
 .byte   PEND 
@  #01 @074   ----------------------------------------
 .byte   PATT
  .word Label_0100B38D
@  #01 @075   ----------------------------------------
 .byte   PATT
  .word Label_0100B397
@  #01 @076   ----------------------------------------
 .byte   PATT
  .word Label_0100B3A1
@  #01 @077   ----------------------------------------
 .byte   PATT
  .word Label_0100B3AB
@  #01 @078   ----------------------------------------
 .byte   W96
@  #01 @079   ----------------------------------------
 .byte   W96
@  #01 @080   ----------------------------------------
 .byte   W96
@  #01 @081   ----------------------------------------
 .byte   W09
 .byte   EOT
 .byte   An2
 .byte   W15
 .byte   N48 ,Dn4 ,v127
 .byte   W48
 .byte   Cn4
 .byte   W24
@  #01 @082   ----------------------------------------
 .byte   PATT
  .word Label_0100B38D
@  #01 @083   ----------------------------------------
 .byte   PATT
  .word Label_0100B397
@  #01 @084   ----------------------------------------
 .byte   PATT
  .word Label_0100B3A1
@  #01 @085   ----------------------------------------
 .byte   PATT
  .word Label_0100B3CD
@  #01 @086   ----------------------------------------
 .byte   W96
@  #01 @087   ----------------------------------------
 .byte   W96
@  #01 @088   ----------------------------------------
 .byte   W96
@  #01 @089   ----------------------------------------
 .byte   W09
 .byte   EOT
 .byte   Dn3
 .byte   W84
 .byte   W03
@  #01 @090   ----------------------------------------
 .byte   W96
@  #01 @091   ----------------------------------------
 .byte   W96
@  #01 @092   ----------------------------------------
 .byte   W96
@  #01 @093   ----------------------------------------
 .byte   W96
@  #01 @094   ----------------------------------------
 .byte   W96
@  #01 @095   ----------------------------------------
 .byte   W96
@  #01 @096   ----------------------------------------
 .byte   W96
@  #01 @097   ----------------------------------------
 .byte   W96
@  #01 @098   ----------------------------------------
 .byte   W96
@  #01 @099   ----------------------------------------
 .byte   W96
@  #01 @100   ----------------------------------------
 .byte   W96
@  #01 @101   ----------------------------------------
 .byte   PATT
  .word Label_0100B43B
@  #01 @102   ----------------------------------------
 .byte   PATT
  .word Label_0100B38D
@  #01 @103   ----------------------------------------
 .byte   PATT
  .word Label_0100B397
@  #01 @104   ----------------------------------------
 .byte   PATT
  .word Label_0100B3A1
@  #01 @105   ----------------------------------------
 .byte   PATT
  .word Label_0100B3AB
@  #01 @106   ----------------------------------------
 .byte   W96
@  #01 @107   ----------------------------------------
 .byte   W96
@  #01 @108   ----------------------------------------
 .byte   W96
@  #01 @109   ----------------------------------------
 .byte   W09
 .byte   EOT
 .byte   An2
 .byte   W15
 .byte   N48 ,Dn4 ,v127
 .byte   W48
 .byte   Cn4
 .byte   W24
@  #01 @110   ----------------------------------------
 .byte   PATT
  .word Label_0100B38D
@  #01 @111   ----------------------------------------
 .byte   PATT
  .word Label_0100B397
@  #01 @112   ----------------------------------------
 .byte   PATT
  .word Label_0100B3A1
@  #01 @113   ----------------------------------------
 .byte   PATT
  .word Label_0100B3CD
@  #01 @114   ----------------------------------------
 .byte   W96
@  #01 @115   ----------------------------------------
 .byte   W96
@  #01 @116   ----------------------------------------
 .byte   W96
@  #01 @117   ----------------------------------------
 .byte   W09
 .byte   EOT
 .byte   Dn3
 .byte   W13
 .byte   FINE

@**************** Track 2 (Midi-Chn.1) ****************@

song06_002:
@  #02 @000   ----------------------------------------
 .byte   KEYSH , song06_key+0
 .byte   VOICE , 13
 .byte   PAN , c_v-1
 .byte   VOL , 50*song06_mvl/mxv
 .byte   W96
@  #02 @001   ----------------------------------------
 .byte   W96
@  #02 @002   ----------------------------------------
 .byte   W96
@  #02 @003   ----------------------------------------
 .byte   W96
@  #02 @004   ----------------------------------------
 .byte   W96
@  #02 @005   ----------------------------------------
 .byte   W96
@  #02 @006   ----------------------------------------
 .byte   W96
@  #02 @007   ----------------------------------------
 .byte   W96
@  #02 @008   ----------------------------------------
 .byte   W96
@  #02 @009   ----------------------------------------
 .byte   W96
@  #02 @010   ----------------------------------------
 .byte   W96
@  #02 @011   ----------------------------------------
 .byte   W96
@  #02 @012   ----------------------------------------
 .byte   W96
@  #02 @013   ----------------------------------------
 .byte   W96
@  #02 @014   ----------------------------------------
 .byte   W96
@  #02 @015   ----------------------------------------
 .byte   W96
@  #02 @016   ----------------------------------------
 .byte   W24
Label_0100E6F1:
 .byte   N04 ,Dn5 ,v096
 .byte   W12
 .byte   Gn4
 .byte   W06
 .byte   An4
 .byte   W12
 .byte   Cn5
 .byte   W06
 .byte   An4
 .byte   W06
 .byte   Cn5
 .byte   W06
 .byte   Dn5
 .byte   W06
 .byte   Gn4
 .byte   W06
 .byte   An4
 .byte   W06
 .byte   Gn4
 .byte   W06
@  #02 @017   ----------------------------------------
Label_0100E707:
 .byte   N04 ,Cn5 ,v096
 .byte   W06
 .byte   Gn4
 .byte   W06
 .byte   Dn5
 .byte   W06
 .byte   Gn4
 .byte   W06
 .byte   Cn5
 .byte   W06
 .byte   Gn4
 .byte   W06
 .byte   Dn5
 .byte   W06
 .byte   Gn4
 .byte   W06
 .byte   An4
 .byte   W06
 .byte   Gn4
 .byte   W06
 .byte   Cn5
 .byte   W06
 .byte   Gn4
 .byte   W06
 .byte   Dn5
 .byte   W06
 .byte   Gn4
 .byte   W06
 .byte   An4
 .byte   W06
 .byte   Gn4
 .byte   W06
 .byte   PEND 
@  #02 @018   ----------------------------------------
Label_0100E72A:
 .byte   N04 ,Cn5 ,v096
 .byte   W06
 .byte   Gn4
 .byte   W06
 .byte   Dn5
 .byte   W06
 .byte   Gn4
 .byte   W06
 .byte   Dn5
 .byte   W12
 .byte   Gn4
 .byte   W06
 .byte   An4
 .byte   W12
 .byte   Cn5
 .byte   W06
 .byte   An4
 .byte   W06
 .byte   Cn5
 .byte   W06
 .byte   Dn5
 .byte   W06
 .byte   Gn4
 .byte   W06
 .byte   An4
 .byte   W06
 .byte   Gn4
 .byte   W06
 .byte   PEND 
@  #02 @019   ----------------------------------------
 .byte   PATT
  .word Label_0100E707
@  #02 @020   ----------------------------------------
 .byte   PATT
  .word Label_0100E72A
@  #02 @021   ----------------------------------------
 .byte   PATT
  .word Label_0100E707
@  #02 @022   ----------------------------------------
 .byte   PATT
  .word Label_0100E72A
@  #02 @023   ----------------------------------------
 .byte   PATT
  .word Label_0100E707
@  #02 @024   ----------------------------------------
 .byte   PATT
  .word Label_0100E72A
@  #02 @025   ----------------------------------------
 .byte   PATT
  .word Label_0100E707
@  #02 @026   ----------------------------------------
 .byte   PATT
  .word Label_0100E72A
@  #02 @027   ----------------------------------------
 .byte   PATT
  .word Label_0100E707
@  #02 @028   ----------------------------------------
 .byte   PATT
  .word Label_0100E72A
@  #02 @029   ----------------------------------------
 .byte   PATT
  .word Label_0100E707
@  #02 @030   ----------------------------------------
 .byte   PATT
  .word Label_0100E72A
@  #02 @031   ----------------------------------------
 .byte   PATT
  .word Label_0100E707
@  #02 @032   ----------------------------------------
Label_0100E78A:
 .byte   N04 ,Cn5 ,v096
 .byte   W06
 .byte   Gn4
 .byte   W06
 .byte   Dn5
 .byte   W06
 .byte   Gn4
 .byte   W78
 .byte   PEND 
@  #02 @033   ----------------------------------------
 .byte   W96
@  #02 @034   ----------------------------------------
 .byte   W96
@  #02 @035   ----------------------------------------
 .byte   W96
@  #02 @036   ----------------------------------------
 .byte   W96
@  #02 @037   ----------------------------------------
 .byte   W96
@  #02 @038   ----------------------------------------
 .byte   W96
@  #02 @039   ----------------------------------------
 .byte   W96
@  #02 @040   ----------------------------------------
 .byte   W96
@  #02 @041   ----------------------------------------
 .byte   W96
@  #02 @042   ----------------------------------------
 .byte   W96
@  #02 @043   ----------------------------------------
 .byte   W96
@  #02 @044   ----------------------------------------
 .byte   W24
 .byte   GOTO
  .word Label_0100E6F1
@  #02 @045   ----------------------------------------
 .byte   N04 ,Dn5 ,v096
 .byte   W12
 .byte   Gn4
 .byte   W06
 .byte   An4
 .byte   W12
 .byte   Cn5
 .byte   W06
 .byte   An4
 .byte   W06
 .byte   Cn5
 .byte   W06
 .byte   Dn5
 .byte   W06
 .byte   Gn4
 .byte   W06
 .byte   An4
 .byte   W06
 .byte   Gn4
 .byte   W06
@  #02 @046   ----------------------------------------
 .byte   PATT
  .word Label_0100E707
@  #02 @047   ----------------------------------------
 .byte   PATT
  .word Label_0100E72A
@  #02 @048   ----------------------------------------
 .byte   PATT
  .word Label_0100E707
@  #02 @049   ----------------------------------------
 .byte   PATT
  .word Label_0100E72A
@  #02 @050   ----------------------------------------
 .byte   PATT
  .word Label_0100E707
@  #02 @051   ----------------------------------------
 .byte   PATT
  .word Label_0100E72A
@  #02 @052   ----------------------------------------
 .byte   PATT
  .word Label_0100E707
@  #02 @053   ----------------------------------------
 .byte   PATT
  .word Label_0100E72A
@  #02 @054   ----------------------------------------
 .byte   PATT
  .word Label_0100E707
@  #02 @055   ----------------------------------------
 .byte   PATT
  .word Label_0100E72A
@  #02 @056   ----------------------------------------
 .byte   PATT
  .word Label_0100E707
@  #02 @057   ----------------------------------------
 .byte   PATT
  .word Label_0100E72A
@  #02 @058   ----------------------------------------
 .byte   PATT
  .word Label_0100E707
@  #02 @059   ----------------------------------------
 .byte   PATT
  .word Label_0100E72A
@  #02 @060   ----------------------------------------
 .byte   PATT
  .word Label_0100E707
@  #02 @061   ----------------------------------------
 .byte   PATT
  .word Label_0100E78A
@  #02 @062   ----------------------------------------
 .byte   W96
@  #02 @063   ----------------------------------------
 .byte   W96
@  #02 @064   ----------------------------------------
 .byte   W96
@  #02 @065   ----------------------------------------
 .byte   W96
@  #02 @066   ----------------------------------------
 .byte   W96
@  #02 @067   ----------------------------------------
 .byte   W96
@  #02 @068   ----------------------------------------
 .byte   W96
@  #02 @069   ----------------------------------------
 .byte   W96
@  #02 @070   ----------------------------------------
 .byte   W96
@  #02 @071   ----------------------------------------
 .byte   W96
@  #02 @072   ----------------------------------------
 .byte   W96
@  #02 @073   ----------------------------------------
Label_0100E817:
 .byte   W24
 .byte   N04 ,Dn5 ,v096
 .byte   W12
 .byte   Gn4
 .byte   W06
 .byte   An4
 .byte   W12
 .byte   Cn5
 .byte   W06
 .byte   An4
 .byte   W06
 .byte   Cn5
 .byte   W06
 .byte   Dn5
 .byte   W06
 .byte   Gn4
 .byte   W06
 .byte   An4
 .byte   W06
 .byte   Gn4
 .byte   W06
 .byte   PEND 
@  #02 @074   ----------------------------------------
 .byte   PATT
  .word Label_0100E707
@  #02 @075   ----------------------------------------
 .byte   PATT
  .word Label_0100E72A
@  #02 @076   ----------------------------------------
 .byte   PATT
  .word Label_0100E707
@  #02 @077   ----------------------------------------
 .byte   PATT
  .word Label_0100E72A
@  #02 @078   ----------------------------------------
 .byte   PATT
  .word Label_0100E707
@  #02 @079   ----------------------------------------
 .byte   PATT
  .word Label_0100E72A
@  #02 @080   ----------------------------------------
 .byte   PATT
  .word Label_0100E707
@  #02 @081   ----------------------------------------
 .byte   PATT
  .word Label_0100E72A
@  #02 @082   ----------------------------------------
 .byte   PATT
  .word Label_0100E707
@  #02 @083   ----------------------------------------
 .byte   PATT
  .word Label_0100E72A
@  #02 @084   ----------------------------------------
 .byte   PATT
  .word Label_0100E707
@  #02 @085   ----------------------------------------
 .byte   PATT
  .word Label_0100E72A
@  #02 @086   ----------------------------------------
 .byte   PATT
  .word Label_0100E707
@  #02 @087   ----------------------------------------
 .byte   PATT
  .word Label_0100E72A
@  #02 @088   ----------------------------------------
 .byte   PATT
  .word Label_0100E707
@  #02 @089   ----------------------------------------
 .byte   PATT
  .word Label_0100E78A
@  #02 @090   ----------------------------------------
 .byte   W96
@  #02 @091   ----------------------------------------
 .byte   W96
@  #02 @092   ----------------------------------------
 .byte   W96
@  #02 @093   ----------------------------------------
 .byte   W96
@  #02 @094   ----------------------------------------
 .byte   W96
@  #02 @095   ----------------------------------------
 .byte   W96
@  #02 @096   ----------------------------------------
 .byte   W96
@  #02 @097   ----------------------------------------
 .byte   W96
@  #02 @098   ----------------------------------------
 .byte   W96
@  #02 @099   ----------------------------------------
 .byte   W96
@  #02 @100   ----------------------------------------
 .byte   W96
@  #02 @101   ----------------------------------------
 .byte   PATT
  .word Label_0100E817
@  #02 @102   ----------------------------------------
 .byte   PATT
  .word Label_0100E707
@  #02 @103   ----------------------------------------
 .byte   PATT
  .word Label_0100E72A
@  #02 @104   ----------------------------------------
 .byte   PATT
  .word Label_0100E707
@  #02 @105   ----------------------------------------
 .byte   PATT
  .word Label_0100E72A
@  #02 @106   ----------------------------------------
 .byte   PATT
  .word Label_0100E707
@  #02 @107   ----------------------------------------
 .byte   PATT
  .word Label_0100E72A
@  #02 @108   ----------------------------------------
 .byte   PATT
  .word Label_0100E707
@  #02 @109   ----------------------------------------
 .byte   PATT
  .word Label_0100E72A
@  #02 @110   ----------------------------------------
 .byte   PATT
  .word Label_0100E707
@  #02 @111   ----------------------------------------
 .byte   PATT
  .word Label_0100E72A
@  #02 @112   ----------------------------------------
 .byte   PATT
  .word Label_0100E707
@  #02 @113   ----------------------------------------
 .byte   PATT
  .word Label_0100E72A
@  #02 @114   ----------------------------------------
 .byte   PATT
  .word Label_0100E707
@  #02 @115   ----------------------------------------
 .byte   PATT
  .word Label_0100E72A
@  #02 @116   ----------------------------------------
 .byte   PATT
  .word Label_0100E707
@  #02 @117   ----------------------------------------
 .byte   N04 ,Cn5 ,v096
 .byte   W06
 .byte   Gn4
 .byte   W06
 .byte   Dn5
 .byte   W06
 .byte   Gn4
 .byte   W04
 .byte   FINE

@**************** Track 3 (Midi-Chn.2) ****************@

song06_003:
@  #03 @000   ----------------------------------------
 .byte   KEYSH , song06_key+0
 .byte   VOICE , 85
 .byte   PAN , c_v-1
 .byte   VOL , 50*song06_mvl/mxv
 .byte   W96
@  #03 @001   ----------------------------------------
 .byte   W96
@  #03 @002   ----------------------------------------
 .byte   W96
@  #03 @003   ----------------------------------------
 .byte   W96
@  #03 @004   ----------------------------------------
Label_549618:
 .byte   W24
 .byte   N96 ,An2 ,v127
 .byte   N96 ,Dn3
 .byte   W72
 .byte   PEND 
@  #03 @005   ----------------------------------------
Label_549620:
 .byte   W24
 .byte   N96 ,Cn3 ,v127
 .byte   N96 ,En3
 .byte   W72
 .byte   PEND 
@  #03 @006   ----------------------------------------
Label_549628:
 .byte   W24
 .byte   N96 ,Cn3 ,v127
 .byte   N96 ,Fn3
 .byte   W72
 .byte   PEND 
@  #03 @007   ----------------------------------------
Label_549630:
 .byte   W24
 .byte   N96 ,Dn3 ,v127
 .byte   N96 ,Gn3
 .byte   W72
 .byte   PEND 
@  #03 @008   ----------------------------------------
 .byte   PATT
  .word Label_549618
@  #03 @009   ----------------------------------------
 .byte   PATT
  .word Label_549620
@  #03 @010   ----------------------------------------
 .byte   PATT
  .word Label_549628
@  #03 @011   ----------------------------------------
 .byte   PATT
  .word Label_549630
@  #03 @012   ----------------------------------------
Label_54964C:
 .byte   W24
 .byte   TIE ,Dn3 ,v127
 .byte   TIE ,An3
 .byte   W72
 .byte   PEND 
@  #03 @013   ----------------------------------------
 .byte   W96
@  #03 @014   ----------------------------------------
 .byte   W96
@  #03 @015   ----------------------------------------
 .byte   W96
@  #03 @016   ----------------------------------------
 .byte   W14
 .byte   EOT
 .byte   Dn3 ,v069
 .byte   W10
Label_54965C:
 .byte   W72
@  #03 @017   ----------------------------------------
 .byte   W96
@  #03 @018   ----------------------------------------
 .byte   W96
@  #03 @019   ----------------------------------------
 .byte   W96
@  #03 @020   ----------------------------------------
 .byte   W96
@  #03 @021   ----------------------------------------
 .byte   W96
@  #03 @022   ----------------------------------------
 .byte   W96
@  #03 @023   ----------------------------------------
 .byte   W96
@  #03 @024   ----------------------------------------
 .byte   W96
@  #03 @025   ----------------------------------------
 .byte   W96
@  #03 @026   ----------------------------------------
 .byte   W96
@  #03 @027   ----------------------------------------
 .byte   W96
@  #03 @028   ----------------------------------------
 .byte   W96
@  #03 @029   ----------------------------------------
 .byte   W96
@  #03 @030   ----------------------------------------
 .byte   W96
@  #03 @031   ----------------------------------------
 .byte   W96
@  #03 @032   ----------------------------------------
 .byte   PATT
  .word Label_549618
@  #03 @033   ----------------------------------------
 .byte   PATT
  .word Label_549620
@  #03 @034   ----------------------------------------
 .byte   PATT
  .word Label_549628
@  #03 @035   ----------------------------------------
 .byte   PATT
  .word Label_549630
@  #03 @036   ----------------------------------------
 .byte   PATT
  .word Label_549618
@  #03 @037   ----------------------------------------
 .byte   PATT
  .word Label_549620
@  #03 @038   ----------------------------------------
 .byte   PATT
  .word Label_549628
@  #03 @039   ----------------------------------------
 .byte   PATT
  .word Label_549630
@  #03 @040   ----------------------------------------
 .byte   PATT
  .word Label_54964C
@  #03 @041   ----------------------------------------
 .byte   W96
@  #03 @042   ----------------------------------------
 .byte   W96
@  #03 @043   ----------------------------------------
 .byte   W96
@  #03 @044   ----------------------------------------
 .byte   W14
 .byte   EOT
 .byte   Dn3 ,v069
 .byte   W10
 .byte   GOTO
  .word Label_54965C
@  #03 @045   ----------------------------------------
 .byte   W72
 .byte   W96
@  #03 @046   ----------------------------------------
 .byte   W96
@  #03 @047   ----------------------------------------
 .byte   W96
@  #03 @048   ----------------------------------------
 .byte   W96
@  #03 @049   ----------------------------------------
 .byte   W96
@  #03 @050   ----------------------------------------
 .byte   W96
@  #03 @051   ----------------------------------------
 .byte   W96
@  #03 @052   ----------------------------------------
 .byte   W96
@  #03 @053   ----------------------------------------
 .byte   W96
@  #03 @054   ----------------------------------------
 .byte   W96
@  #03 @055   ----------------------------------------
 .byte   W96
@  #03 @056   ----------------------------------------
 .byte   W96
@  #03 @057   ----------------------------------------
 .byte   W96
@  #03 @058   ----------------------------------------
 .byte   W96
@  #03 @059   ----------------------------------------
 .byte   W96
@  #03 @060   ----------------------------------------
 .byte   PATT
  .word Label_549618
@  #03 @061   ----------------------------------------
 .byte   PATT
  .word Label_549620
@  #03 @062   ----------------------------------------
 .byte   PATT
  .word Label_549628
@  #03 @063   ----------------------------------------
 .byte   PATT
  .word Label_549630
@  #03 @064   ----------------------------------------
 .byte   PATT
  .word Label_549618
@  #03 @065   ----------------------------------------
 .byte   PATT
  .word Label_549620
@  #03 @066   ----------------------------------------
 .byte   PATT
  .word Label_549628
@  #03 @067   ----------------------------------------
 .byte   PATT
  .word Label_549630
@  #03 @068   ----------------------------------------
 .byte   PATT
  .word Label_54964C
@  #03 @069   ----------------------------------------
 .byte   W96
@  #03 @070   ----------------------------------------
 .byte   W96
@  #03 @071   ----------------------------------------
 .byte   W96
@  #03 @072   ----------------------------------------
 .byte   W14
 .byte   EOT
 .byte   Dn3 ,v069
 .byte   W80
 .byte   W02
@  #03 @073   ----------------------------------------
 .byte   W96
@  #03 @074   ----------------------------------------
 .byte   W96
@  #03 @075   ----------------------------------------
 .byte   W96
@  #03 @076   ----------------------------------------
 .byte   W96
@  #03 @077   ----------------------------------------
 .byte   W96
@  #03 @078   ----------------------------------------
 .byte   W96
@  #03 @079   ----------------------------------------
 .byte   W96
@  #03 @080   ----------------------------------------
 .byte   W96
@  #03 @081   ----------------------------------------
 .byte   W96
@  #03 @082   ----------------------------------------
 .byte   W96
@  #03 @083   ----------------------------------------
 .byte   W96
@  #03 @084   ----------------------------------------
 .byte   W96
@  #03 @085   ----------------------------------------
 .byte   W96
@  #03 @086   ----------------------------------------
 .byte   W96
@  #03 @087   ----------------------------------------
 .byte   W96
@  #03 @088   ----------------------------------------
 .byte   PATT
  .word Label_549618
@  #03 @089   ----------------------------------------
 .byte   PATT
  .word Label_549620
@  #03 @090   ----------------------------------------
 .byte   PATT
  .word Label_549628
@  #03 @091   ----------------------------------------
 .byte   PATT
  .word Label_549630
@  #03 @092   ----------------------------------------
 .byte   PATT
  .word Label_549618
@  #03 @093   ----------------------------------------
 .byte   PATT
  .word Label_549620
@  #03 @094   ----------------------------------------
 .byte   PATT
  .word Label_549628
@  #03 @095   ----------------------------------------
 .byte   PATT
  .word Label_549630
@  #03 @096   ----------------------------------------
 .byte   PATT
  .word Label_54964C
@  #03 @097   ----------------------------------------
 .byte   W96
@  #03 @098   ----------------------------------------
 .byte   W96
@  #03 @099   ----------------------------------------
 .byte   W96
@  #03 @100   ----------------------------------------
 .byte   W14
 .byte   EOT
 .byte   Dn3 ,v069
 .byte   W80
 .byte   W02
@  #03 @101   ----------------------------------------
 .byte   W96
@  #03 @102   ----------------------------------------
 .byte   W96
@  #03 @103   ----------------------------------------
 .byte   W96
@  #03 @104   ----------------------------------------
 .byte   W96
@  #03 @105   ----------------------------------------
 .byte   W96
@  #03 @106   ----------------------------------------
 .byte   W96
@  #03 @107   ----------------------------------------
 .byte   W96
@  #03 @108   ----------------------------------------
 .byte   W96
@  #03 @109   ----------------------------------------
 .byte   W96
@  #03 @110   ----------------------------------------
 .byte   W96
@  #03 @111   ----------------------------------------
 .byte   W96
@  #03 @112   ----------------------------------------
 .byte   W96
@  #03 @113   ----------------------------------------
 .byte   W96
@  #03 @114   ----------------------------------------
 .byte   W96
@  #03 @115   ----------------------------------------
 .byte   W96
@  #03 @116   ----------------------------------------
 .byte   W22
 .byte   FINE

@**************** Track 4 (Midi-Chn.3) ****************@

song06_004:
@  #04 @000   ----------------------------------------
 .byte   KEYSH , song06_key+0
 .byte   VOICE , 33
 .byte   PAN , c_v+31
 .byte   VOL , 55*song06_mvl/mxv
 .byte   W24
 .byte   N14 ,Dn2 ,v127
 .byte   W18
 .byte   N04
 .byte   W06
 .byte   N09 ,Fn2
 .byte   W12
 .byte   Dn2
 .byte   W24
 .byte   N09
 .byte   W12
@  #04 @001   ----------------------------------------
Label_0101413E:
 .byte   N09 ,Fn2 ,v127
 .byte   W12
 .byte   Dn2
 .byte   W12
 .byte   N14
 .byte   W18
 .byte   N04
 .byte   W06
 .byte   N09 ,Fn2
 .byte   W12
 .byte   Dn2
 .byte   W24
 .byte   N09
 .byte   W12
 .byte   PEND 
@  #04 @002   ----------------------------------------
Label_01014150:
 .byte   N04 ,As2 ,v127
 .byte   W06
 .byte   Cn3
 .byte   W06
 .byte   N09 ,Dn3
 .byte   W12
 .byte   N14 ,Dn2
 .byte   W18
 .byte   N04
 .byte   W06
 .byte   N09 ,Fn2
 .byte   W12
 .byte   Dn2
 .byte   W24
 .byte   N09
 .byte   W12
 .byte   PEND 
@  #04 @003   ----------------------------------------
Label_01014166:
 .byte   N09 ,Fn2 ,v127
 .byte   W12
 .byte   Dn2
 .byte   W12
 .byte   N14
 .byte   W18
 .byte   N04
 .byte   W06
 .byte   N09 ,Fn2
 .byte   W12
 .byte   Dn2
 .byte   W12
 .byte   Dn3
 .byte   W12
 .byte   Cn3
 .byte   W12
 .byte   PEND 
@  #04 @004   ----------------------------------------
Label_0101417A:
 .byte   N04 ,An2 ,v127
 .byte   W06
 .byte   Gn2
 .byte   W06
 .byte   N09 ,Fn2
 .byte   W12
 .byte   N14 ,Dn2
 .byte   W18
 .byte   N04
 .byte   W06
 .byte   N09 ,Fn2
 .byte   W12
 .byte   Dn2
 .byte   W24
 .byte   N09
 .byte   W12
 .byte   PEND 
@  #04 @005   ----------------------------------------
 .byte   PATT
  .word Label_0101413E
@  #04 @006   ----------------------------------------
 .byte   PATT
  .word Label_01014150
@  #04 @007   ----------------------------------------
 .byte   PATT
  .word Label_01014166
@  #04 @008   ----------------------------------------
 .byte   PATT
  .word Label_0101417A
@  #04 @009   ----------------------------------------
 .byte   PATT
  .word Label_0101413E
@  #04 @010   ----------------------------------------
 .byte   PATT
  .word Label_01014150
@  #04 @011   ----------------------------------------
 .byte   PATT
  .word Label_01014166
@  #04 @012   ----------------------------------------
 .byte   PATT
  .word Label_0101417A
@  #04 @013   ----------------------------------------
 .byte   PATT
  .word Label_0101413E
@  #04 @014   ----------------------------------------
 .byte   PATT
  .word Label_01014150
@  #04 @015   ----------------------------------------
 .byte   PATT
  .word Label_01014166
@  #04 @016   ----------------------------------------
Label_010141C7:
 .byte   N04 ,An2 ,v127
 .byte   W06
 .byte   Gn2
 .byte   W06
 .byte   N09 ,Fn2
 .byte   W12
 .byte   PEND 
Label_010141D1:
 .byte   N14 ,Dn2 ,v127
 .byte   W18
 .byte   N04
 .byte   W06
 .byte   N09 ,Fn2
 .byte   W12
 .byte   Dn2
 .byte   W24
 .byte   N09
 .byte   W12
@  #04 @017   ----------------------------------------
 .byte   PATT
  .word Label_0101413E
@  #04 @018   ----------------------------------------
 .byte   PATT
  .word Label_01014150
@  #04 @019   ----------------------------------------
 .byte   PATT
  .word Label_01014166
@  #04 @020   ----------------------------------------
 .byte   PATT
  .word Label_0101417A
@  #04 @021   ----------------------------------------
 .byte   PATT
  .word Label_0101413E
@  #04 @022   ----------------------------------------
 .byte   PATT
  .word Label_01014150
@  #04 @023   ----------------------------------------
 .byte   PATT
  .word Label_01014166
@  #04 @024   ----------------------------------------
 .byte   PATT
  .word Label_0101417A
@  #04 @025   ----------------------------------------
 .byte   PATT
  .word Label_0101413E
@  #04 @026   ----------------------------------------
 .byte   PATT
  .word Label_01014150
@  #04 @027   ----------------------------------------
 .byte   PATT
  .word Label_01014166
@  #04 @028   ----------------------------------------
 .byte   PATT
  .word Label_0101417A
@  #04 @029   ----------------------------------------
 .byte   PATT
  .word Label_0101413E
@  #04 @030   ----------------------------------------
 .byte   PATT
  .word Label_01014150
@  #04 @031   ----------------------------------------
 .byte   PATT
  .word Label_01014166
@  #04 @032   ----------------------------------------
 .byte   PATT
  .word Label_0101417A
@  #04 @033   ----------------------------------------
 .byte   PATT
  .word Label_0101413E
@  #04 @034   ----------------------------------------
 .byte   PATT
  .word Label_01014150
@  #04 @035   ----------------------------------------
 .byte   PATT
  .word Label_01014166
@  #04 @036   ----------------------------------------
 .byte   PATT
  .word Label_0101417A
@  #04 @037   ----------------------------------------
 .byte   PATT
  .word Label_0101413E
@  #04 @038   ----------------------------------------
 .byte   PATT
  .word Label_01014150
@  #04 @039   ----------------------------------------
 .byte   PATT
  .word Label_01014166
@  #04 @040   ----------------------------------------
 .byte   PATT
  .word Label_0101417A
@  #04 @041   ----------------------------------------
 .byte   PATT
  .word Label_0101413E
@  #04 @042   ----------------------------------------
 .byte   PATT
  .word Label_01014150
@  #04 @043   ----------------------------------------
 .byte   PATT
  .word Label_01014166
@  #04 @044   ----------------------------------------
 .byte   PATT
  .word Label_010141C7
@  #04 @045   ----------------------------------------
 .byte   GOTO
  .word Label_010141D1
@  #04 @046   ----------------------------------------
 .byte   N14 ,Dn2 ,v127
 .byte   W18
 .byte   N04
 .byte   W06
 .byte   N09 ,Fn2
 .byte   W12
 .byte   Dn2
 .byte   W24
 .byte   N09
 .byte   W12
@  #04 @047   ----------------------------------------
 .byte   PATT
  .word Label_0101413E
@  #04 @048   ----------------------------------------
 .byte   PATT
  .word Label_01014150
@  #04 @049   ----------------------------------------
 .byte   PATT
  .word Label_01014166
@  #04 @050   ----------------------------------------
 .byte   PATT
  .word Label_0101417A
@  #04 @051   ----------------------------------------
 .byte   PATT
  .word Label_0101413E
@  #04 @052   ----------------------------------------
 .byte   PATT
  .word Label_01014150
@  #04 @053   ----------------------------------------
 .byte   PATT
  .word Label_01014166
@  #04 @054   ----------------------------------------
 .byte   PATT
  .word Label_0101417A
@  #04 @055   ----------------------------------------
 .byte   PATT
  .word Label_0101413E
@  #04 @056   ----------------------------------------
 .byte   PATT
  .word Label_01014150
@  #04 @057   ----------------------------------------
 .byte   PATT
  .word Label_01014166
@  #04 @058   ----------------------------------------
 .byte   PATT
  .word Label_0101417A
@  #04 @059   ----------------------------------------
 .byte   PATT
  .word Label_0101413E
@  #04 @060   ----------------------------------------
 .byte   PATT
  .word Label_01014150
@  #04 @061   ----------------------------------------
 .byte   PATT
  .word Label_01014166
@  #04 @062   ----------------------------------------
 .byte   PATT
  .word Label_0101417A
@  #04 @063   ----------------------------------------
 .byte   PATT
  .word Label_0101413E
@  #04 @064   ----------------------------------------
 .byte   PATT
  .word Label_01014150
@  #04 @065   ----------------------------------------
 .byte   PATT
  .word Label_01014166
@  #04 @066   ----------------------------------------
 .byte   PATT
  .word Label_0101417A
@  #04 @067   ----------------------------------------
 .byte   PATT
  .word Label_0101413E
@  #04 @068   ----------------------------------------
 .byte   PATT
  .word Label_01014150
@  #04 @069   ----------------------------------------
 .byte   PATT
  .word Label_01014166
@  #04 @070   ----------------------------------------
 .byte   PATT
  .word Label_0101417A
@  #04 @071   ----------------------------------------
 .byte   PATT
  .word Label_0101413E
@  #04 @072   ----------------------------------------
 .byte   PATT
  .word Label_01014150
@  #04 @073   ----------------------------------------
 .byte   PATT
  .word Label_01014166
@  #04 @074   ----------------------------------------
 .byte   PATT
  .word Label_0101417A
@  #04 @075   ----------------------------------------
 .byte   PATT
  .word Label_0101413E
@  #04 @076   ----------------------------------------
 .byte   PATT
  .word Label_01014150
@  #04 @077   ----------------------------------------
 .byte   PATT
  .word Label_01014166
@  #04 @078   ----------------------------------------
 .byte   PATT
  .word Label_0101417A
@  #04 @079   ----------------------------------------
 .byte   PATT
  .word Label_0101413E
@  #04 @080   ----------------------------------------
 .byte   PATT
  .word Label_01014150
@  #04 @081   ----------------------------------------
 .byte   PATT
  .word Label_01014166
@  #04 @082   ----------------------------------------
 .byte   PATT
  .word Label_0101417A
@  #04 @083   ----------------------------------------
 .byte   PATT
  .word Label_0101413E
@  #04 @084   ----------------------------------------
 .byte   PATT
  .word Label_01014150
@  #04 @085   ----------------------------------------
 .byte   PATT
  .word Label_01014166
@  #04 @086   ----------------------------------------
 .byte   PATT
  .word Label_0101417A
@  #04 @087   ----------------------------------------
 .byte   PATT
  .word Label_0101413E
@  #04 @088   ----------------------------------------
 .byte   PATT
  .word Label_01014150
@  #04 @089   ----------------------------------------
 .byte   PATT
  .word Label_01014166
@  #04 @090   ----------------------------------------
 .byte   PATT
  .word Label_0101417A
@  #04 @091   ----------------------------------------
 .byte   PATT
  .word Label_0101413E
@  #04 @092   ----------------------------------------
 .byte   PATT
  .word Label_01014150
@  #04 @093   ----------------------------------------
 .byte   PATT
  .word Label_01014166
@  #04 @094   ----------------------------------------
 .byte   PATT
  .word Label_0101417A
@  #04 @095   ----------------------------------------
 .byte   PATT
  .word Label_0101413E
@  #04 @096   ----------------------------------------
 .byte   PATT
  .word Label_01014150
@  #04 @097   ----------------------------------------
 .byte   PATT
  .word Label_01014166
@  #04 @098   ----------------------------------------
 .byte   PATT
  .word Label_0101417A
@  #04 @099   ----------------------------------------
 .byte   PATT
  .word Label_0101413E
@  #04 @100   ----------------------------------------
 .byte   PATT
  .word Label_01014150
@  #04 @101   ----------------------------------------
 .byte   PATT
  .word Label_01014166
@  #04 @102   ----------------------------------------
 .byte   PATT
  .word Label_0101417A
@  #04 @103   ----------------------------------------
 .byte   PATT
  .word Label_0101413E
@  #04 @104   ----------------------------------------
 .byte   PATT
  .word Label_01014150
@  #04 @105   ----------------------------------------
 .byte   PATT
  .word Label_01014166
@  #04 @106   ----------------------------------------
 .byte   PATT
  .word Label_0101417A
@  #04 @107   ----------------------------------------
 .byte   PATT
  .word Label_0101413E
@  #04 @108   ----------------------------------------
 .byte   PATT
  .word Label_01014150
@  #04 @109   ----------------------------------------
 .byte   PATT
  .word Label_01014166
@  #04 @110   ----------------------------------------
 .byte   PATT
  .word Label_0101417A
@  #04 @111   ----------------------------------------
 .byte   PATT
  .word Label_0101413E
@  #04 @112   ----------------------------------------
 .byte   PATT
  .word Label_01014150
@  #04 @113   ----------------------------------------
 .byte   PATT
  .word Label_01014166
@  #04 @114   ----------------------------------------
 .byte   PATT
  .word Label_0101417A
@  #04 @115   ----------------------------------------
 .byte   PATT
  .word Label_0101413E
@  #04 @116   ----------------------------------------
 .byte   PATT
  .word Label_01014150
@  #04 @117   ----------------------------------------
 .byte   PATT
  .word Label_01014166
@  #04 @118   ----------------------------------------
 .byte   N04 ,An2 ,v127
 .byte   W06
 .byte   Gn2
 .byte   W06
 .byte   N09 ,Fn2
 .byte   W10
 .byte   FINE

@**************** Track 5 (Midi-Chn.4) ****************@

song06_005:
@  #05 @000   ----------------------------------------
 .byte   KEYSH , song06_key+0
 .byte   VOICE , 121
 .byte   VOL , 55*song06_mvl/mxv
 .byte   N04 ,En1 ,v127
 .byte   W06
 .byte   N04
 .byte   W06
 .byte   N09
 .byte   W12
 .byte   Cn1
 .byte   N09 ,Fs1
 .byte   W12
 .byte   N04
 .byte   W06
 .byte   N04
 .byte   W06
 .byte   N09 ,En1
 .byte   N09 ,Fs1
 .byte   W12
 .byte   N04
 .byte   W06
 .byte   N04
 .byte   W06
 .byte   N09 ,Cn1
 .byte   N09 ,Fs1
 .byte   W12
 .byte   N04
 .byte   W06
 .byte   N04
 .byte   W06
@  #05 @001   ----------------------------------------
 .byte   N09 ,En1
 .byte   N09 ,Fs1
 .byte   W12
 .byte   N04
 .byte   W06
 .byte   N04
 .byte   W06
 .byte   N09 ,Cn1
 .byte   N09 ,Fs1
 .byte   W12
 .byte   N04
 .byte   W06
 .byte   N04
 .byte   W06
 .byte   N09 ,En1
 .byte   N09 ,Fs1
 .byte   W12
 .byte   N04
 .byte   W06
 .byte   N04
 .byte   W06
 .byte   Cn1
 .byte   N04 ,Fs1
 .byte   W06
 .byte   En1
 .byte   W06
 .byte   N09 ,As1
 .byte   W12
@  #05 @002   ----------------------------------------
Label_01014564:
 .byte   N09 ,En1 ,v127
 .byte   N09 ,Fs1
 .byte   W12
 .byte   As1
 .byte   W12
 .byte   Cn1
 .byte   N09 ,Fs1
 .byte   W12
 .byte   N04
 .byte   W06
 .byte   N04
 .byte   W06
 .byte   N09 ,En1
 .byte   N09 ,Fs1
 .byte   W12
 .byte   N04
 .byte   W06
 .byte   N04
 .byte   W06
 .byte   N09 ,Cn1
 .byte   N09 ,Fs1
 .byte   W12
 .byte   N04
 .byte   W06
 .byte   N04
 .byte   W06
 .byte   PEND 
@  #05 @003   ----------------------------------------
Label_01014587:
 .byte   N09 ,En1 ,v127
 .byte   N09 ,Fs1
 .byte   W12
 .byte   N04
 .byte   W06
 .byte   N04
 .byte   W06
 .byte   N09 ,Cn1
 .byte   N09 ,Fs1
 .byte   W12
 .byte   N04
 .byte   W06
 .byte   N04
 .byte   W06
 .byte   N09 ,En1
 .byte   N09 ,Fs1
 .byte   W12
 .byte   N04
 .byte   W06
 .byte   N04
 .byte   W06
 .byte   N04
 .byte   N04 ,Dn2
 .byte   W06
 .byte   Cn1
 .byte   N04 ,Dn2
 .byte   W06
 .byte   Fs1
 .byte   N04 ,Cn2
 .byte   W06
 .byte   Fs1
 .byte   N04 ,Cn2
 .byte   W06
 .byte   PEND 
@  #05 @004   ----------------------------------------
Label_010145B4:
 .byte   N04 ,En1 ,v127
 .byte   N04 ,Fs1
 .byte   N04 ,An1
 .byte   W06
 .byte   N04
 .byte   W06
 .byte   Fs1
 .byte   N04 ,Gn1
 .byte   W06
 .byte   Fs1
 .byte   N04 ,Gn1
 .byte   W06
 .byte   N09 ,Cn1
 .byte   N09 ,Fs1
 .byte   N09 ,Cs2
 .byte   W12
 .byte   N04 ,Fs1
 .byte   W06
 .byte   N04
 .byte   W06
 .byte   N09 ,En1
 .byte   N09 ,Fs1
 .byte   W12
 .byte   N04
 .byte   W06
 .byte   N04
 .byte   W06
 .byte   N09 ,Cn1
 .byte   N09 ,Fs1
 .byte   W12
 .byte   N04
 .byte   W06
 .byte   N04
 .byte   W06
 .byte   PEND 
@  #05 @005   ----------------------------------------
Label_010145E5:
 .byte   N09 ,En1 ,v127
 .byte   N09 ,Fs1
 .byte   W12
 .byte   N04
 .byte   W06
 .byte   N04
 .byte   W06
 .byte   N09 ,Cn1
 .byte   N09 ,Fs1
 .byte   W12
 .byte   N04
 .byte   W06
 .byte   N04
 .byte   W06
 .byte   N09 ,En1
 .byte   N09 ,Fs1
 .byte   W12
 .byte   N04
 .byte   W06
 .byte   N04
 .byte   W06
 .byte   N09 ,Cn1
 .byte   N09 ,Fs1
 .byte   W12
 .byte   N04
 .byte   W06
 .byte   N04
 .byte   W06
 .byte   PEND 
@  #05 @006   ----------------------------------------
 .byte   PATT
  .word Label_01014564
@  #05 @007   ----------------------------------------
Label_01014610:
 .byte   N09 ,En1 ,v127
 .byte   N09 ,Fs1
 .byte   W12
 .byte   N04
 .byte   W06
 .byte   N04
 .byte   W06
 .byte   N09 ,Cn1
 .byte   N09 ,Fs1
 .byte   W12
 .byte   N04
 .byte   W06
 .byte   N04
 .byte   W06
 .byte   N09 ,En1
 .byte   N09 ,Fs1
 .byte   W12
 .byte   N04
 .byte   W06
 .byte   N04
 .byte   W06
 .byte   N09 ,Cn1
 .byte   N09 ,Fs1
 .byte   W12
 .byte   As1
 .byte   W12
 .byte   PEND 
@  #05 @008   ----------------------------------------
Label_01014634:
 .byte   N09 ,En1 ,v127
 .byte   N09 ,Fs1
 .byte   W12
 .byte   As1
 .byte   W12
 .byte   Cn1
 .byte   N09 ,Fs1
 .byte   N09 ,Cs2
 .byte   W12
 .byte   N04 ,Fs1
 .byte   W06
 .byte   N04
 .byte   W06
 .byte   N09 ,En1
 .byte   N09 ,Fs1
 .byte   W12
 .byte   N04
 .byte   W06
 .byte   N04
 .byte   W06
 .byte   N09 ,Cn1
 .byte   N09 ,Fs1
 .byte   W12
 .byte   N04
 .byte   W06
 .byte   N04
 .byte   W06
 .byte   PEND 
@  #05 @009   ----------------------------------------
 .byte   PATT
  .word Label_010145E5
@  #05 @010   ----------------------------------------
 .byte   PATT
  .word Label_01014564
@  #05 @011   ----------------------------------------
 .byte   PATT
  .word Label_01014587
@  #05 @012   ----------------------------------------
 .byte   PATT
  .word Label_010145B4
@  #05 @013   ----------------------------------------
 .byte   PATT
  .word Label_010145E5
@  #05 @014   ----------------------------------------
 .byte   PATT
  .word Label_01014564
@  #05 @015   ----------------------------------------
Label_01014678:
 .byte   N09 ,En1 ,v127
 .byte   N09 ,Fs1
 .byte   W12
 .byte   N04
 .byte   W06
 .byte   N04
 .byte   W06
 .byte   N08 ,Cn1
 .byte   N08 ,Fs1
 .byte   W12
 .byte   N04
 .byte   W06
 .byte   N04
 .byte   W06
 .byte   N09 ,En1
 .byte   N09 ,Fs1
 .byte   N09 ,Cn2
 .byte   W12
 .byte   N04 ,Fs1
 .byte   W06
 .byte   N04
 .byte   W06
 .byte   Cn1
 .byte   N04 ,An1
 .byte   W06
 .byte   En1
 .byte   W06
 .byte   Fs1
 .byte   W06
 .byte   N04
 .byte   W06
 .byte   PEND 
@  #05 @016   ----------------------------------------
Label_010146A2:
 .byte   N09 ,En1 ,v127
 .byte   N09 ,Fs1
 .byte   N09 ,Gn1
 .byte   N09 ,Cs2
 .byte   W12
 .byte   N04 ,En1
 .byte   N04 ,Fs1
 .byte   W06
 .byte   En1
 .byte   N04 ,Fs1
 .byte   W06
 .byte   PEND 
Label_010146B6:
 .byte   N09 ,Cn1 ,v127
 .byte   N09 ,Fs1
 .byte   W12
 .byte   N04
 .byte   W06
 .byte   N04
 .byte   W06
 .byte   N09 ,En1
 .byte   N09 ,Fs1
 .byte   W12
 .byte   N04
 .byte   W06
 .byte   N04
 .byte   W06
 .byte   N09 ,Cn1
 .byte   N09 ,Fs1
 .byte   W12
 .byte   N04
 .byte   W06
 .byte   N04
 .byte   W06
@  #05 @017   ----------------------------------------
Label_010146D2:
 .byte   N09 ,En1 ,v127
 .byte   N09 ,Fs1
 .byte   W12
 .byte   N04
 .byte   W06
 .byte   En1
 .byte   N04 ,Fs1
 .byte   W06
 .byte   N09 ,Cn1
 .byte   N09 ,Fs1
 .byte   W12
 .byte   N04
 .byte   W06
 .byte   N04
 .byte   W06
 .byte   N09 ,En1
 .byte   N09 ,Fs1
 .byte   W12
 .byte   N04
 .byte   W06
 .byte   N04
 .byte   W06
 .byte   N09 ,Cn1
 .byte   N09 ,Fs1
 .byte   W12
 .byte   N04
 .byte   W06
 .byte   N04
 .byte   W06
 .byte   PEND 
@  #05 @018   ----------------------------------------
Label_010146FA:
 .byte   N09 ,En1 ,v127
 .byte   N09 ,Fs1
 .byte   W12
 .byte   N08 ,As1
 .byte   W12
 .byte   N09 ,Cn1
 .byte   N09 ,Fs1
 .byte   W12
 .byte   N04
 .byte   W06
 .byte   N04
 .byte   W06
 .byte   N09 ,En1
 .byte   N09 ,Fs1
 .byte   W12
 .byte   N04
 .byte   W06
 .byte   N04
 .byte   W06
 .byte   N09 ,Cn1
 .byte   N09 ,Fs1
 .byte   W12
 .byte   N04
 .byte   W06
 .byte   N04
 .byte   W06
 .byte   PEND 
@  #05 @019   ----------------------------------------
 .byte   PATT
  .word Label_01014587
@  #05 @020   ----------------------------------------
 .byte   PATT
  .word Label_010145B4
@  #05 @021   ----------------------------------------
 .byte   PATT
  .word Label_010145E5
@  #05 @022   ----------------------------------------
 .byte   PATT
  .word Label_010146FA
@  #05 @023   ----------------------------------------
Label_01014733:
 .byte   N09 ,En1 ,v127
 .byte   N09 ,Fs1
 .byte   W12
 .byte   N04
 .byte   W06
 .byte   N04
 .byte   W06
 .byte   N09 ,Cn1
 .byte   N09 ,Fs1
 .byte   W12
 .byte   N04
 .byte   W06
 .byte   N04
 .byte   W06
 .byte   N09 ,En1
 .byte   N09 ,Fs1
 .byte   N09 ,Cn2
 .byte   W12
 .byte   N04 ,Fs1
 .byte   W06
 .byte   N04
 .byte   W06
 .byte   Cn1
 .byte   N04 ,An1
 .byte   W06
 .byte   En1
 .byte   W06
 .byte   Fs1
 .byte   W06
 .byte   N04
 .byte   W06
 .byte   PEND 
@  #05 @024   ----------------------------------------
Label_0101475D:
 .byte   N09 ,En1 ,v127
 .byte   N09 ,Fs1
 .byte   N09 ,Gn1
 .byte   N09 ,Cs2
 .byte   W12
 .byte   N04 ,En1
 .byte   N04 ,Fs1
 .byte   W06
 .byte   En1
 .byte   N04 ,Fs1
 .byte   W06
 .byte   N09 ,Cn1
 .byte   N09 ,Fs1
 .byte   W12
 .byte   N04
 .byte   W06
 .byte   N04
 .byte   W06
 .byte   N09 ,En1
 .byte   N09 ,Fs1
 .byte   W12
 .byte   N04
 .byte   W06
 .byte   N04
 .byte   W06
 .byte   N09 ,Cn1
 .byte   N09 ,Fs1
 .byte   W12
 .byte   N04
 .byte   W06
 .byte   N04
 .byte   W06
 .byte   PEND 
@  #05 @025   ----------------------------------------
 .byte   PATT
  .word Label_010145E5
@  #05 @026   ----------------------------------------
 .byte   PATT
  .word Label_010146FA
@  #05 @027   ----------------------------------------
 .byte   PATT
  .word Label_01014587
@  #05 @028   ----------------------------------------
 .byte   PATT
  .word Label_010145B4
@  #05 @029   ----------------------------------------
 .byte   PATT
  .word Label_010145E5
@  #05 @030   ----------------------------------------
 .byte   PATT
  .word Label_010146FA
@  #05 @031   ----------------------------------------
 .byte   PATT
  .word Label_01014733
@  #05 @032   ----------------------------------------
 .byte   PATT
  .word Label_0101475D
@  #05 @033   ----------------------------------------
 .byte   PATT
  .word Label_010145E5
@  #05 @034   ----------------------------------------
 .byte   PATT
  .word Label_01014564
@  #05 @035   ----------------------------------------
 .byte   PATT
  .word Label_01014610
@  #05 @036   ----------------------------------------
 .byte   PATT
  .word Label_01014634
@  #05 @037   ----------------------------------------
 .byte   PATT
  .word Label_010145E5
@  #05 @038   ----------------------------------------
 .byte   PATT
  .word Label_01014564
@  #05 @039   ----------------------------------------
 .byte   PATT
  .word Label_01014587
@  #05 @040   ----------------------------------------
 .byte   PATT
  .word Label_010145B4
@  #05 @041   ----------------------------------------
 .byte   PATT
  .word Label_010145E5
@  #05 @042   ----------------------------------------
 .byte   PATT
  .word Label_01014564
@  #05 @043   ----------------------------------------
 .byte   PATT
  .word Label_01014678
@  #05 @044   ----------------------------------------
 .byte   PATT
  .word Label_010146A2
@  #05 @045   ----------------------------------------
 .byte   GOTO
  .word Label_010146B6
@  #05 @046   ----------------------------------------
 .byte   N09 ,Cn1 ,v127
 .byte   N09 ,Fs1
 .byte   W12
 .byte   N04
 .byte   W06
 .byte   N04
 .byte   W06
 .byte   N09 ,En1
 .byte   N09 ,Fs1
 .byte   W12
 .byte   N04
 .byte   W06
 .byte   N04
 .byte   W06
 .byte   N09 ,Cn1
 .byte   N09 ,Fs1
 .byte   W12
 .byte   N04
 .byte   W06
 .byte   N04
 .byte   W06
@  #05 @047   ----------------------------------------
 .byte   PATT
  .word Label_010146D2
@  #05 @048   ----------------------------------------
 .byte   PATT
  .word Label_010146FA
@  #05 @049   ----------------------------------------
 .byte   PATT
  .word Label_01014587
@  #05 @050   ----------------------------------------
 .byte   PATT
  .word Label_010145B4
@  #05 @051   ----------------------------------------
 .byte   PATT
  .word Label_010145E5
@  #05 @052   ----------------------------------------
 .byte   PATT
  .word Label_010146FA
@  #05 @053   ----------------------------------------
 .byte   PATT
  .word Label_01014733
@  #05 @054   ----------------------------------------
 .byte   PATT
  .word Label_0101475D
@  #05 @055   ----------------------------------------
 .byte   PATT
  .word Label_010145E5
@  #05 @056   ----------------------------------------
 .byte   PATT
  .word Label_010146FA
@  #05 @057   ----------------------------------------
 .byte   PATT
  .word Label_01014587
@  #05 @058   ----------------------------------------
 .byte   PATT
  .word Label_010145B4
@  #05 @059   ----------------------------------------
 .byte   PATT
  .word Label_010145E5
@  #05 @060   ----------------------------------------
 .byte   PATT
  .word Label_010146FA
@  #05 @061   ----------------------------------------
 .byte   PATT
  .word Label_01014733
@  #05 @062   ----------------------------------------
 .byte   PATT
  .word Label_0101475D
@  #05 @063   ----------------------------------------
 .byte   PATT
  .word Label_010145E5
@  #05 @064   ----------------------------------------
 .byte   PATT
  .word Label_01014564
@  #05 @065   ----------------------------------------
 .byte   PATT
  .word Label_01014610
@  #05 @066   ----------------------------------------
 .byte   PATT
  .word Label_01014634
@  #05 @067   ----------------------------------------
 .byte   PATT
  .word Label_010145E5
@  #05 @068   ----------------------------------------
 .byte   PATT
  .word Label_01014564
@  #05 @069   ----------------------------------------
 .byte   PATT
  .word Label_01014587
@  #05 @070   ----------------------------------------
 .byte   PATT
  .word Label_010145B4
@  #05 @071   ----------------------------------------
 .byte   PATT
  .word Label_010145E5
@  #05 @072   ----------------------------------------
 .byte   PATT
  .word Label_01014564
@  #05 @073   ----------------------------------------
 .byte   PATT
  .word Label_01014678
@  #05 @074   ----------------------------------------
 .byte   PATT
  .word Label_0101475D
@  #05 @075   ----------------------------------------
 .byte   PATT
  .word Label_010146D2
@  #05 @076   ----------------------------------------
 .byte   PATT
  .word Label_010146FA
@  #05 @077   ----------------------------------------
 .byte   PATT
  .word Label_01014587
@  #05 @078   ----------------------------------------
 .byte   PATT
  .word Label_010145B4
@  #05 @079   ----------------------------------------
 .byte   PATT
  .word Label_010145E5
@  #05 @080   ----------------------------------------
 .byte   PATT
  .word Label_010146FA
@  #05 @081   ----------------------------------------
 .byte   PATT
  .word Label_01014733
@  #05 @082   ----------------------------------------
 .byte   PATT
  .word Label_0101475D
@  #05 @083   ----------------------------------------
 .byte   PATT
  .word Label_010145E5
@  #05 @084   ----------------------------------------
 .byte   PATT
  .word Label_010146FA
@  #05 @085   ----------------------------------------
 .byte   PATT
  .word Label_01014587
@  #05 @086   ----------------------------------------
 .byte   PATT
  .word Label_010145B4
@  #05 @087   ----------------------------------------
 .byte   PATT
  .word Label_010145E5
@  #05 @088   ----------------------------------------
 .byte   PATT
  .word Label_010146FA
@  #05 @089   ----------------------------------------
 .byte   PATT
  .word Label_01014733
@  #05 @090   ----------------------------------------
 .byte   PATT
  .word Label_0101475D
@  #05 @091   ----------------------------------------
 .byte   PATT
  .word Label_010145E5
@  #05 @092   ----------------------------------------
 .byte   PATT
  .word Label_01014564
@  #05 @093   ----------------------------------------
 .byte   PATT
  .word Label_01014610
@  #05 @094   ----------------------------------------
 .byte   PATT
  .word Label_01014634
@  #05 @095   ----------------------------------------
 .byte   PATT
  .word Label_010145E5
@  #05 @096   ----------------------------------------
 .byte   PATT
  .word Label_01014564
@  #05 @097   ----------------------------------------
 .byte   PATT
  .word Label_01014587
@  #05 @098   ----------------------------------------
 .byte   PATT
  .word Label_010145B4
@  #05 @099   ----------------------------------------
 .byte   PATT
  .word Label_010145E5
@  #05 @100   ----------------------------------------
 .byte   PATT
  .word Label_01014564
@  #05 @101   ----------------------------------------
 .byte   PATT
  .word Label_01014678
@  #05 @102   ----------------------------------------
 .byte   PATT
  .word Label_0101475D
@  #05 @103   ----------------------------------------
 .byte   PATT
  .word Label_010146D2
@  #05 @104   ----------------------------------------
 .byte   PATT
  .word Label_010146FA
@  #05 @105   ----------------------------------------
 .byte   PATT
  .word Label_01014587
@  #05 @106   ----------------------------------------
 .byte   PATT
  .word Label_010145B4
@  #05 @107   ----------------------------------------
 .byte   PATT
  .word Label_010145E5
@  #05 @108   ----------------------------------------
 .byte   PATT
  .word Label_010146FA
@  #05 @109   ----------------------------------------
 .byte   PATT
  .word Label_01014733
@  #05 @110   ----------------------------------------
 .byte   PATT
  .word Label_0101475D
@  #05 @111   ----------------------------------------
 .byte   PATT
  .word Label_010145E5
@  #05 @112   ----------------------------------------
 .byte   PATT
  .word Label_010146FA
@  #05 @113   ----------------------------------------
 .byte   PATT
  .word Label_01014587
@  #05 @114   ----------------------------------------
 .byte   PATT
  .word Label_010145B4
@  #05 @115   ----------------------------------------
 .byte   PATT
  .word Label_010145E5
@  #05 @116   ----------------------------------------
 .byte   PATT
  .word Label_010146FA
@  #05 @117   ----------------------------------------
 .byte   PATT
  .word Label_01014733
@  #05 @118   ----------------------------------------
 .byte   N09 ,En1 ,v127
 .byte   N09 ,Fs1
 .byte   N09 ,Gn1
 .byte   N09 ,Cs2
 .byte   W12
 .byte   N04 ,En1
 .byte   N04 ,Fs1
 .byte   W06
 .byte   En1
 .byte   N04 ,Fs1
 .byte   W04
 .byte   FINE

@******************************************************@
	.align	2

song06:
	.byte	5	@ NumTrks
	.byte	0	@ NumBlks
	.byte	song06_pri	@ Priority
	.byte	song06_rev	@ Reverb.
    
	.word	song06_grp
    
	.word	song06_001
	.word	song06_002
	.word	song06_003
	.word	song06_004
	.word	song06_005

	.end
