	.include "MPlayDef.s"

	.equ	song02_grp, voicegroup000
	.equ	song02_pri, 0
	.equ	song02_rev, 0
	.equ	song02_mvl, 127
	.equ	song02_key, 0
	.equ	song02_tbs, 1
	.equ	song02_exg, 0
	.equ	song02_cmp, 1

	.section .rodata
	.global	song02
	.align	2


@**************** Track 1 (Midi-Chn.0) ****************@

song02_001:
@  #01 @000   ----------------------------------------
 .byte   KEYSH , song02_key+0
 .byte   TEMPO , 102*song02_tbs/2
 .byte   VOICE , 61
 .byte   VOL , 77*song02_mvl/mxv
 .byte   PAN , c_v+26
 .byte   BENDR, 12
 .byte   W96
@  #01 @001   ----------------------------------------
 .byte   W96
@  #01 @002   ----------------------------------------
Label_01003032:
 .byte   N04 ,En3 ,v100
 .byte   W18
 .byte   Gn3
 .byte   W18
 .byte   An3 ,v078
 .byte   W12
 .byte   En3 ,v100
 .byte   W18
 .byte   Gn3
 .byte   W18
 .byte   An3 ,v078
 .byte   W12
@  #01 @003   ----------------------------------------
Label_01003043:
 .byte   N04 ,En3 ,v100
 .byte   W18
 .byte   Gn3
 .byte   W18
 .byte   An3 ,v078
 .byte   W12
 .byte   N08 ,Gn3 ,v100
 .byte   W08
 .byte   N04
 .byte   W04
 .byte   N08 ,An3
 .byte   W08
 .byte   N04 ,Gn3
 .byte   W28
 .byte   PEND 
@  #01 @004   ----------------------------------------
Label_01003059:
 .byte   N04 ,En3 ,v100
 .byte   W18
 .byte   Gn3
 .byte   W18
 .byte   An3 ,v078
 .byte   W12
 .byte   En3 ,v100
 .byte   W18
 .byte   Gn3
 .byte   W18
 .byte   An3 ,v078
 .byte   W12
 .byte   PEND 
@  #01 @005   ----------------------------------------
Label_0100306B:
 .byte   N04 ,En3 ,v100
 .byte   W18
 .byte   Gn3
 .byte   W18
 .byte   An3 ,v078
 .byte   W12
 .byte   N08 ,Gn3 ,v100
 .byte   W08
 .byte   N04 ,En3
 .byte   W12
 .byte   N22 ,Ds3
 .byte   W28
 .byte   PEND 
@  #01 @006   ----------------------------------------
 .byte   PATT
  .word Label_01003059
@  #01 @007   ----------------------------------------
 .byte   PATT
  .word Label_01003043
@  #01 @008   ----------------------------------------
 .byte   PATT
  .word Label_01003059
@  #01 @009   ----------------------------------------
Label_0100308E:
 .byte   N04 ,As3 ,v100
 .byte   W18
 .byte   Bn3
 .byte   W18
 .byte   Dn4
 .byte   W18
 .byte   N18 ,En4
 .byte   W18
 .byte   N04 ,Fn4
 .byte   W12
 .byte   Fs4
 .byte   W12
 .byte   PEND 
@  #01 @010   ----------------------------------------
Label_0100309F:
 .byte   N08 ,Gn4 ,v100
 .byte   W36
 .byte   N12 ,En4
 .byte   W12
 .byte   N08 ,Fn4
 .byte   W36
 .byte   N12 ,Dn4
 .byte   W12
 .byte   PEND 
@  #01 @011   ----------------------------------------
Label_010030AD:
 .byte   N12 ,Gn4 ,v100
 .byte   W12
 .byte   Dn4
 .byte   W12
 .byte   Fn4
 .byte   W12
 .byte   Dn4
 .byte   W48
 .byte   Fs4
 .byte   W12
 .byte   PEND 
@  #01 @012   ----------------------------------------
Label_010030BA:
 .byte   N08 ,Gn4 ,v100
 .byte   W36
 .byte   N12 ,En4
 .byte   W12
 .byte   N08 ,Fn4
 .byte   W36
 .byte   N12 ,Fs4
 .byte   W12
 .byte   PEND 
@  #01 @013   ----------------------------------------
Label_010030C8:
 .byte   N02 ,Gn4 ,v100
 .byte   W02
 .byte   N04 ,An4
 .byte   W04
 .byte   N02 ,Gn4
 .byte   W02
 .byte   N04 ,Fs4
 .byte   W04
 .byte   N08 ,Gn4
 .byte   W08
 .byte   N04 ,Bn4
 .byte   W04
 .byte   N08 ,Dn5
 .byte   W08
 .byte   N04 ,En5
 .byte   W12
 .byte   Fn5
 .byte   W52
 .byte   PEND 
@  #01 @014   ----------------------------------------
 .byte   W96
@  #01 @015   ----------------------------------------
 .byte   W96
@  #01 @016   ----------------------------------------
 .byte   W96
@  #01 @017   ----------------------------------------
 .byte   W96
@  #01 @018   ----------------------------------------
 .byte   W96
@  #01 @019   ----------------------------------------
 .byte   W96
@  #01 @020   ----------------------------------------
 .byte   W96
@  #01 @021   ----------------------------------------
 .byte   W96
@  #01 @022   ----------------------------------------
 .byte   W96
@  #01 @023   ----------------------------------------
 .byte   W96
@  #01 @024   ----------------------------------------
 .byte   W96
@  #01 @025   ----------------------------------------
 .byte   W96
@  #01 @026   ----------------------------------------
 .byte   W96
@  #01 @027   ----------------------------------------
 .byte   W96
@  #01 @028   ----------------------------------------
 .byte   W96
@  #01 @029   ----------------------------------------
 .byte   W96
@  #01 @030   ----------------------------------------
 .byte   W96
@  #01 @031   ----------------------------------------
 .byte   W96
@  #01 @032   ----------------------------------------
 .byte   PATT
  .word Label_01003059
@  #01 @033   ----------------------------------------
 .byte   PATT
  .word Label_01003043
@  #01 @034   ----------------------------------------
 .byte   PATT
  .word Label_01003059
@  #01 @035   ----------------------------------------
 .byte   PATT
  .word Label_0100306B
@  #01 @036   ----------------------------------------
 .byte   PATT
  .word Label_01003059
@  #01 @037   ----------------------------------------
 .byte   PATT
  .word Label_01003043
@  #01 @038   ----------------------------------------
 .byte   PATT
  .word Label_01003059
@  #01 @039   ----------------------------------------
 .byte   PATT
  .word Label_0100308E
@  #01 @040   ----------------------------------------
 .byte   PATT
  .word Label_0100309F
@  #01 @041   ----------------------------------------
 .byte   PATT
  .word Label_010030AD
@  #01 @042   ----------------------------------------
 .byte   PATT
  .word Label_010030BA
@  #01 @043   ----------------------------------------
 .byte   PATT
  .word Label_010030C8
@  #01 @044   ----------------------------------------
 .byte   W96
@  #01 @045   ----------------------------------------
 .byte   W96
@  #01 @046   ----------------------------------------
 .byte   W96
@  #01 @047   ----------------------------------------
 .byte   W96
@  #01 @048   ----------------------------------------
 .byte   W96
@  #01 @049   ----------------------------------------
 .byte   W96
@  #01 @050   ----------------------------------------
 .byte   W96
@  #01 @051   ----------------------------------------
 .byte   W96
@  #01 @052   ----------------------------------------
 .byte   W96
@  #01 @053   ----------------------------------------
 .byte   W96
@  #01 @054   ----------------------------------------
 .byte   W96
@  #01 @055   ----------------------------------------
 .byte   W96
@  #01 @056   ----------------------------------------
 .byte   W96
@  #01 @057   ----------------------------------------
 .byte   W96
@  #01 @058   ----------------------------------------
 .byte   W96
@  #01 @059   ----------------------------------------
 .byte   W96
@  #01 @060   ----------------------------------------
 .byte   W96
@  #01 @061   ----------------------------------------
 .byte   W96
@  #01 @062   ----------------------------------------
 .byte   N04 ,En3 ,v100
 .byte   GOTO
  .word Label_01003032
@  #01 @063   ----------------------------------------
 .byte   W18
 .byte   Gn3
 .byte   W18
 .byte   An3 ,v078
 .byte   W12
 .byte   En3 ,v100
 .byte   W18
 .byte   Gn3
 .byte   W18
 .byte   An3 ,v078
 .byte   W12
@  #01 @064   ----------------------------------------
 .byte   PATT
  .word Label_01003043
@  #01 @065   ----------------------------------------
 .byte   PATT
  .word Label_01003059
@  #01 @066   ----------------------------------------
 .byte   PATT
  .word Label_0100306B
@  #01 @067   ----------------------------------------
 .byte   N04 ,En3 ,v088
 .byte   W18
 .byte   Gn3
 .byte   W18
 .byte   An3 ,v064
 .byte   W12
 .byte   En3 ,v080
 .byte   W18
 .byte   Gn3 ,v072
 .byte   W18
 .byte   An3 ,v043
 .byte   W12
@  #01 @068   ----------------------------------------
 .byte   En3 ,v064
 .byte   W18
 .byte   Gn3
 .byte   W18
 .byte   An3 ,v043
 .byte   W12
 .byte   N08 ,Gn3 ,v056
 .byte   W08
 .byte   N04
 .byte   W04
 .byte   N08 ,An3
 .byte   W08
 .byte   N04 ,Gn3 ,v049
 .byte   W28
@  #01 @069   ----------------------------------------
 .byte   En3 ,v025
 .byte   W18
 .byte   Gn3
 .byte   W18
 .byte   An3 ,v011
 .byte   W12
 .byte   En3 ,v016
 .byte   W18
 .byte   Gn3
 .byte   W18
 .byte   An3 ,v005
 .byte   W12
@  #01 @070   ----------------------------------------
 .byte   As3 ,v011
 .byte   W18
 .byte   Bn3 ,v008
 .byte   W18
 .byte   Dn4
 .byte   W18
 .byte   N18 ,En4 ,v002
 .byte   W18
 .byte   N04 ,Fn4 ,v001
 .byte   W12
 .byte   Fs4
 .byte   W12
 .byte   FINE

@**************** Track 2 (Midi-Chn.1) ****************@

song02_002:
@  #02 @000   ----------------------------------------
 .byte   KEYSH , song02_key+0
 .byte   VOICE , 61
 .byte   VOL , 76*song02_mvl/mxv
 .byte   PAN , c_v-28
 .byte   BENDR, 12
 .byte   W96
@  #02 @001   ----------------------------------------
 .byte   W96
@  #02 @002   ----------------------------------------
Label_010005DC:
 .byte   N04 ,As2 ,v100
 .byte   W18
 .byte   Bn2
 .byte   W18
 .byte   En3 ,v078
 .byte   W12
 .byte   As2 ,v100
 .byte   W18
 .byte   Bn2
 .byte   W18
 .byte   En3 ,v078
 .byte   W12
@  #02 @003   ----------------------------------------
Label_010005ED:
 .byte   N04 ,As2 ,v100
 .byte   W18
 .byte   Bn2
 .byte   W18
 .byte   En3 ,v078
 .byte   W24
 .byte   N08 ,En3 ,v100
 .byte   W08
 .byte   N04 ,Dn3
 .byte   W28
 .byte   PEND 
@  #02 @004   ----------------------------------------
Label_010005FE:
 .byte   N04 ,As2 ,v100
 .byte   W18
 .byte   Bn2
 .byte   W18
 .byte   En3 ,v078
 .byte   W12
 .byte   As2 ,v100
 .byte   W18
 .byte   Bn2
 .byte   W18
 .byte   En3 ,v078
 .byte   W12
 .byte   PEND 
@  #02 @005   ----------------------------------------
Label_01000610:
 .byte   N04 ,As2 ,v100
 .byte   W18
 .byte   Bn2
 .byte   W18
 .byte   En3 ,v078
 .byte   W12
 .byte   N08 ,Dn3 ,v100
 .byte   W08
 .byte   N04 ,As2
 .byte   W12
 .byte   N28 ,Bn2
 .byte   W28
 .byte   PEND 
@  #02 @006   ----------------------------------------
 .byte   PATT
  .word Label_010005FE
@  #02 @007   ----------------------------------------
 .byte   PATT
  .word Label_010005ED
@  #02 @008   ----------------------------------------
 .byte   PATT
  .word Label_010005FE
@  #02 @009   ----------------------------------------
Label_01000633:
 .byte   N04 ,En3 ,v100
 .byte   W18
 .byte   En3
 .byte   W18
 .byte   En3
 .byte   W60
 .byte   PEND 
@  #02 @010   ----------------------------------------
 .byte   W96
@  #02 @011   ----------------------------------------
 .byte   W96
@  #02 @012   ----------------------------------------
 .byte   W96
@  #02 @013   ----------------------------------------
Label_0100063F:
 .byte   W24
 .byte   N08 ,Bn3 ,v085
 .byte   W08
 .byte   N04 ,As3
 .byte   W12
 .byte   An3
 .byte   W52
 .byte   PEND 
@  #02 @014   ----------------------------------------
 .byte   W96
@  #02 @015   ----------------------------------------
 .byte   W96
@  #02 @016   ----------------------------------------
 .byte   W96
@  #02 @017   ----------------------------------------
 .byte   W96
@  #02 @018   ----------------------------------------
 .byte   W96
@  #02 @019   ----------------------------------------
 .byte   W96
@  #02 @020   ----------------------------------------
 .byte   W96
@  #02 @021   ----------------------------------------
 .byte   W96
@  #02 @022   ----------------------------------------
 .byte   W96
@  #02 @023   ----------------------------------------
 .byte   W96
@  #02 @024   ----------------------------------------
 .byte   W96
@  #02 @025   ----------------------------------------
 .byte   W96
@  #02 @026   ----------------------------------------
 .byte   W96
@  #02 @027   ----------------------------------------
 .byte   W96
@  #02 @028   ----------------------------------------
 .byte   W96
@  #02 @029   ----------------------------------------
 .byte   W96
@  #02 @030   ----------------------------------------
 .byte   W96
@  #02 @031   ----------------------------------------
 .byte   W96
@  #02 @032   ----------------------------------------
 .byte   PATT
  .word Label_010005FE
@  #02 @033   ----------------------------------------
 .byte   PATT
  .word Label_010005ED
@  #02 @034   ----------------------------------------
 .byte   PATT
  .word Label_010005FE
@  #02 @035   ----------------------------------------
 .byte   PATT
  .word Label_01000610
@  #02 @036   ----------------------------------------
 .byte   PATT
  .word Label_010005FE
@  #02 @037   ----------------------------------------
 .byte   PATT
  .word Label_010005ED
@  #02 @038   ----------------------------------------
 .byte   PATT
  .word Label_010005FE
@  #02 @039   ----------------------------------------
 .byte   PATT
  .word Label_01000633
@  #02 @040   ----------------------------------------
 .byte   W96
@  #02 @041   ----------------------------------------
 .byte   W96
@  #02 @042   ----------------------------------------
 .byte   W96
@  #02 @043   ----------------------------------------
 .byte   PATT
  .word Label_0100063F
@  #02 @044   ----------------------------------------
 .byte   W96
@  #02 @045   ----------------------------------------
 .byte   W96
@  #02 @046   ----------------------------------------
 .byte   W96
@  #02 @047   ----------------------------------------
 .byte   W96
@  #02 @048   ----------------------------------------
 .byte   W96
@  #02 @049   ----------------------------------------
 .byte   W96
@  #02 @050   ----------------------------------------
 .byte   W96
@  #02 @051   ----------------------------------------
 .byte   W96
@  #02 @052   ----------------------------------------
 .byte   W96
@  #02 @053   ----------------------------------------
 .byte   W96
@  #02 @054   ----------------------------------------
 .byte   W96
@  #02 @055   ----------------------------------------
 .byte   W96
@  #02 @056   ----------------------------------------
 .byte   W96
@  #02 @057   ----------------------------------------
 .byte   W96
@  #02 @058   ----------------------------------------
 .byte   W96
@  #02 @059   ----------------------------------------
 .byte   W96
@  #02 @060   ----------------------------------------
 .byte   W96
@  #02 @061   ----------------------------------------
 .byte   W96
@  #02 @062   ----------------------------------------
 .byte   N04 ,As2 ,v100
 .byte   GOTO
  .word Label_010005DC
@  #02 @063   ----------------------------------------
 .byte   W18
 .byte   Bn2
 .byte   W18
 .byte   En3 ,v078
 .byte   W12
 .byte   As2 ,v100
 .byte   W18
 .byte   Bn2
 .byte   W18
 .byte   En3 ,v078
 .byte   W12
@  #02 @064   ----------------------------------------
 .byte   PATT
  .word Label_010005ED
@  #02 @065   ----------------------------------------
 .byte   PATT
  .word Label_010005FE
@  #02 @066   ----------------------------------------
 .byte   N04 ,As2 ,v100
 .byte   W18
 .byte   Bn2
 .byte   W18
 .byte   En3 ,v078
 .byte   W12
 .byte   N08 ,Dn3 ,v100
 .byte   W08
 .byte   N04 ,As2
 .byte   W12
 .byte   N28 ,Bn2 ,v097
 .byte   W28
@  #02 @067   ----------------------------------------
 .byte   N04 ,As2 ,v100
 .byte   W18
 .byte   Bn2 ,v088
 .byte   W18
 .byte   En3 ,v064
 .byte   W12
 .byte   As2 ,v088
 .byte   W18
 .byte   Bn2 ,v080
 .byte   W18
 .byte   En3 ,v056
 .byte   W12
@  #02 @068   ----------------------------------------
 .byte   As2 ,v080
 .byte   W18
 .byte   Bn2 ,v072
 .byte   W18
 .byte   En3 ,v049
 .byte   W24
 .byte   N08 ,En3 ,v072
 .byte   W08
 .byte   N04 ,Dn3
 .byte   W28
@  #02 @069   ----------------------------------------
 .byte   As2 ,v064
 .byte   W18
 .byte   Bn2 ,v056
 .byte   W18
 .byte   En3 ,v031
 .byte   W12
 .byte   As2 ,v036
 .byte   W18
 .byte   Bn2 ,v025
 .byte   W18
 .byte   En3 ,v005
 .byte   W12
@  #02 @070   ----------------------------------------
 .byte   En3
 .byte   W18
 .byte   En3 ,v002
 .byte   W18
 .byte   En3 ,v001
 .byte   W60
 .byte   FINE

@**************** Track 3 (Midi-Chn.2) ****************@

song02_003:
@  #03 @000   ----------------------------------------
 .byte   KEYSH , song02_key+0
 .byte   VOICE , 61
 .byte   VOL , 68*song02_mvl/mxv
 .byte   PAN , c_v+12
 .byte   BENDR, 12
 .byte   W96
@  #03 @001   ----------------------------------------
 .byte   W96
@  #03 @002   ----------------------------------------
Label_01003D5C:
 .byte   N04 ,En2 ,v100
 .byte   W18
 .byte   Gn2
 .byte   W18
 .byte   An2 ,v078
 .byte   W12
 .byte   En2 ,v100
 .byte   W18
 .byte   Gn2
 .byte   W18
 .byte   An2 ,v078
 .byte   W12
@  #03 @003   ----------------------------------------
Label_01003D6D:
 .byte   N04 ,En2 ,v100
 .byte   W18
 .byte   Gn2
 .byte   W18
 .byte   An2 ,v078
 .byte   W12
 .byte   N02 ,Gn2 ,v100
 .byte   W02
 .byte   N04 ,An2
 .byte   W04
 .byte   N02 ,Gn2
 .byte   W02
 .byte   N04 ,Fn2
 .byte   W04
 .byte   N08 ,An2
 .byte   W08
 .byte   N04 ,Gn2
 .byte   W28
 .byte   PEND 
@  #03 @004   ----------------------------------------
Label_01003D8A:
 .byte   N04 ,En2 ,v100
 .byte   W18
 .byte   Gn2
 .byte   W18
 .byte   An2 ,v078
 .byte   W12
 .byte   En2 ,v100
 .byte   W18
 .byte   Gn2
 .byte   W18
 .byte   An2 ,v078
 .byte   W12
 .byte   PEND 
@  #03 @005   ----------------------------------------
Label_01003D9C:
 .byte   N04 ,En2 ,v100
 .byte   W18
 .byte   Gn2
 .byte   W18
 .byte   An2 ,v078
 .byte   W12
 .byte   N08 ,Gn2 ,v100
 .byte   W08
 .byte   N04 ,En2
 .byte   W12
 .byte   N22 ,Ds2
 .byte   W28
 .byte   PEND 
@  #03 @006   ----------------------------------------
 .byte   PATT
  .word Label_01003D8A
@  #03 @007   ----------------------------------------
 .byte   PATT
  .word Label_01003D6D
@  #03 @008   ----------------------------------------
 .byte   PATT
  .word Label_01003D8A
@  #03 @009   ----------------------------------------
Label_01003DBF:
 .byte   N04 ,As2 ,v100
 .byte   W18
 .byte   Bn2
 .byte   W18
 .byte   Dn3
 .byte   W18
 .byte   N18 ,En3
 .byte   W18
 .byte   N04 ,Fn3
 .byte   W12
 .byte   Fs3
 .byte   W12
 .byte   PEND 
@  #03 @010   ----------------------------------------
Label_01003DD0:
 .byte   N08 ,Gn3 ,v100
 .byte   W36
 .byte   N12 ,En3
 .byte   W12
 .byte   N08 ,Fn3
 .byte   W36
 .byte   N12 ,Dn3
 .byte   W12
 .byte   PEND 
@  #03 @011   ----------------------------------------
Label_01003DDE:
 .byte   N12 ,Gn3 ,v100
 .byte   W12
 .byte   Dn3
 .byte   W12
 .byte   Fn3
 .byte   W12
 .byte   Dn3
 .byte   W48
 .byte   Fs3
 .byte   W12
 .byte   PEND 
@  #03 @012   ----------------------------------------
Label_01003DEB:
 .byte   N08 ,Gn3 ,v100
 .byte   W36
 .byte   N12 ,En3
 .byte   W12
 .byte   N08 ,Fn3
 .byte   W36
 .byte   N12 ,Fs3
 .byte   W12
 .byte   PEND 
@  #03 @013   ----------------------------------------
Label_01003DF9:
 .byte   N02 ,Gn3 ,v100
 .byte   W02
 .byte   N04 ,An3
 .byte   W04
 .byte   N02 ,Gn3
 .byte   W02
 .byte   N04 ,Fs3
 .byte   W04
 .byte   N08 ,Gn3
 .byte   W08
 .byte   N04 ,Bn3
 .byte   W04
 .byte   N08 ,Dn4
 .byte   W08
 .byte   N04 ,En4
 .byte   W12
 .byte   Fn4
 .byte   W52
 .byte   PEND 
@  #03 @014   ----------------------------------------
 .byte   W96
@  #03 @015   ----------------------------------------
 .byte   W96
@  #03 @016   ----------------------------------------
 .byte   W96
@  #03 @017   ----------------------------------------
 .byte   W96
@  #03 @018   ----------------------------------------
 .byte   W96
@  #03 @019   ----------------------------------------
 .byte   W96
@  #03 @020   ----------------------------------------
 .byte   W96
@  #03 @021   ----------------------------------------
 .byte   W96
@  #03 @022   ----------------------------------------
 .byte   W96
@  #03 @023   ----------------------------------------
 .byte   W96
@  #03 @024   ----------------------------------------
 .byte   W96
@  #03 @025   ----------------------------------------
 .byte   W96
@  #03 @026   ----------------------------------------
 .byte   W96
@  #03 @027   ----------------------------------------
 .byte   W96
@  #03 @028   ----------------------------------------
 .byte   W96
@  #03 @029   ----------------------------------------
 .byte   W96
@  #03 @030   ----------------------------------------
 .byte   W96
@  #03 @031   ----------------------------------------
 .byte   W96
@  #03 @032   ----------------------------------------
 .byte   PATT
  .word Label_01003D8A
@  #03 @033   ----------------------------------------
 .byte   PATT
  .word Label_01003D6D
@  #03 @034   ----------------------------------------
 .byte   PATT
  .word Label_01003D8A
@  #03 @035   ----------------------------------------
 .byte   PATT
  .word Label_01003D9C
@  #03 @036   ----------------------------------------
 .byte   PATT
  .word Label_01003D8A
@  #03 @037   ----------------------------------------
 .byte   PATT
  .word Label_01003D6D
@  #03 @038   ----------------------------------------
 .byte   PATT
  .word Label_01003D8A
@  #03 @039   ----------------------------------------
 .byte   PATT
  .word Label_01003DBF
@  #03 @040   ----------------------------------------
 .byte   PATT
  .word Label_01003DD0
@  #03 @041   ----------------------------------------
 .byte   PATT
  .word Label_01003DDE
@  #03 @042   ----------------------------------------
 .byte   PATT
  .word Label_01003DEB
@  #03 @043   ----------------------------------------
 .byte   PATT
  .word Label_01003DF9
@  #03 @044   ----------------------------------------
 .byte   W96
@  #03 @045   ----------------------------------------
 .byte   W96
@  #03 @046   ----------------------------------------
 .byte   W96
@  #03 @047   ----------------------------------------
 .byte   W96
@  #03 @048   ----------------------------------------
 .byte   W96
@  #03 @049   ----------------------------------------
 .byte   W96
@  #03 @050   ----------------------------------------
 .byte   W96
@  #03 @051   ----------------------------------------
 .byte   W96
@  #03 @052   ----------------------------------------
 .byte   W96
@  #03 @053   ----------------------------------------
 .byte   W96
@  #03 @054   ----------------------------------------
 .byte   W96
@  #03 @055   ----------------------------------------
 .byte   W96
@  #03 @056   ----------------------------------------
 .byte   W96
@  #03 @057   ----------------------------------------
 .byte   W96
@  #03 @058   ----------------------------------------
 .byte   W96
@  #03 @059   ----------------------------------------
 .byte   W96
@  #03 @060   ----------------------------------------
 .byte   W96
@  #03 @061   ----------------------------------------
 .byte   W96
@  #03 @062   ----------------------------------------
 .byte   N04 ,En2 ,v100
 .byte   GOTO
  .word Label_01003D5C
@  #03 @063   ----------------------------------------
 .byte   W18
 .byte   Gn2
 .byte   W18
 .byte   An2 ,v078
 .byte   W12
 .byte   En2 ,v100
 .byte   W18
 .byte   Gn2
 .byte   W18
 .byte   An2 ,v078
 .byte   W12
@  #03 @064   ----------------------------------------
 .byte   PATT
  .word Label_01003D6D
@  #03 @065   ----------------------------------------
 .byte   PATT
  .word Label_01003D8A
@  #03 @066   ----------------------------------------
 .byte   N04 ,En2 ,v100
 .byte   W18
 .byte   Gn2 ,v097
 .byte   W18
 .byte   An2 ,v078
 .byte   W12
 .byte   N08 ,Gn2 ,v100
 .byte   W08
 .byte   N04 ,En2
 .byte   W12
 .byte   N22 ,Ds2
 .byte   W28
@  #03 @067   ----------------------------------------
 .byte   N04 ,En2 ,v088
 .byte   W18
 .byte   Gn2
 .byte   W18
 .byte   An2 ,v064
 .byte   W12
 .byte   En2 ,v080
 .byte   W18
 .byte   Gn2 ,v072
 .byte   W18
 .byte   An2 ,v043
 .byte   W12
@  #03 @068   ----------------------------------------
 .byte   En2 ,v064
 .byte   W18
 .byte   Gn2 ,v056
 .byte   W18
 .byte   An2 ,v031
 .byte   W12
 .byte   N02 ,Gn2 ,v049
 .byte   W02
 .byte   N04 ,An2
 .byte   W04
 .byte   N02 ,Gn2 ,v043
 .byte   W02
 .byte   N04 ,Fn2
 .byte   W04
 .byte   N08 ,An2
 .byte   W08
 .byte   N04 ,Gn2 ,v036
 .byte   W28
@  #03 @069   ----------------------------------------
 .byte   En2 ,v031
 .byte   W18
 .byte   Gn2 ,v025
 .byte   W18
 .byte   An2 ,v011
 .byte   W12
 .byte   En2 ,v025
 .byte   W18
 .byte   Gn2 ,v016
 .byte   W18
 .byte   An2 ,v005
 .byte   W12
@  #03 @070   ----------------------------------------
 .byte   As2 ,v016
 .byte   W18
 .byte   Bn2 ,v011
 .byte   W18
 .byte   Dn3 ,v008
 .byte   W18
 .byte   N18 ,En3 ,v005
 .byte   W18
 .byte   N04 ,Fn3 ,v002
 .byte   W12
 .byte   Fs3 ,v001
 .byte   W12
 .byte   FINE

@**************** Track 4 (Midi-Chn.3) ****************@

song02_004:
@  #04 @000   ----------------------------------------
 .byte   KEYSH , song02_key+0
 .byte   VOICE , 63
 .byte   VOL , 53*song02_mvl/mxv
 .byte   BENDR, 12
 .byte   W96
@  #04 @001   ----------------------------------------
 .byte   W96
@  #04 @002   ----------------------------------------
Label_01003F1A:
 .byte   W96
@  #04 @003   ----------------------------------------
 .byte   W96
@  #04 @004   ----------------------------------------
 .byte   W96
@  #04 @005   ----------------------------------------
 .byte   W96
@  #04 @006   ----------------------------------------
 .byte   TIE ,En1 ,v085
 .byte   W96
@  #04 @007   ----------------------------------------
Label_01003F22:
 .byte   W72
 .byte   EOT
 .byte   En1
 .byte   W12
 .byte   N02 ,Bn0 ,v085
 .byte   W02
 .byte   N04 ,Cs1
 .byte   W04
 .byte   N02 ,Dn1
 .byte   W02
 .byte   N04 ,Ds1
 .byte   W04
 .byte   PEND 
@  #04 @008   ----------------------------------------
 .byte   TIE ,En1
 .byte   W96
@  #04 @009   ----------------------------------------
 .byte   W48
 .byte   EOT
 .byte   W48
@  #04 @010   ----------------------------------------
 .byte   W96
@  #04 @011   ----------------------------------------
Label_01003F3B:
 .byte   W60
 .byte   N36 ,Dn1 ,v085
 .byte   W36
 .byte   PEND 
@  #04 @012   ----------------------------------------
 .byte   W96
@  #04 @013   ----------------------------------------
Label_01003F42:
 .byte   N12 ,Dn2 ,v053
 .byte   W12
 .byte   Bn1
 .byte   W12
 .byte   N08 ,Gn3 ,v085
 .byte   W08
 .byte   N04 ,Fs3
 .byte   W12
 .byte   Fn3
 .byte   W52
 .byte   PEND 
@  #04 @014   ----------------------------------------
 .byte   W96
@  #04 @015   ----------------------------------------
 .byte   W96
@  #04 @016   ----------------------------------------
 .byte   W96
@  #04 @017   ----------------------------------------
 .byte   W96
@  #04 @018   ----------------------------------------
 .byte   W96
@  #04 @019   ----------------------------------------
 .byte   W96
@  #04 @020   ----------------------------------------
 .byte   W96
@  #04 @021   ----------------------------------------
 .byte   W96
@  #04 @022   ----------------------------------------
 .byte   W96
@  #04 @023   ----------------------------------------
 .byte   W96
@  #04 @024   ----------------------------------------
 .byte   W96
@  #04 @025   ----------------------------------------
 .byte   W96
@  #04 @026   ----------------------------------------
 .byte   W96
@  #04 @027   ----------------------------------------
 .byte   W96
@  #04 @028   ----------------------------------------
 .byte   W96
@  #04 @029   ----------------------------------------
 .byte   W96
@  #04 @030   ----------------------------------------
 .byte   W96
@  #04 @031   ----------------------------------------
 .byte   W96
@  #04 @032   ----------------------------------------
 .byte   W96
@  #04 @033   ----------------------------------------
 .byte   W96
@  #04 @034   ----------------------------------------
 .byte   W96
@  #04 @035   ----------------------------------------
 .byte   W96
@  #04 @036   ----------------------------------------
 .byte   TIE ,En1
 .byte   W96
@  #04 @037   ----------------------------------------
 .byte   PATT
  .word Label_01003F22
@  #04 @038   ----------------------------------------
 .byte   TIE ,En1 ,v085
 .byte   W96
@  #04 @039   ----------------------------------------
 .byte   W48
 .byte   EOT
 .byte   W48
@  #04 @040   ----------------------------------------
 .byte   W96
@  #04 @041   ----------------------------------------
 .byte   PATT
  .word Label_01003F3B
@  #04 @042   ----------------------------------------
 .byte   W96
@  #04 @043   ----------------------------------------
 .byte   PATT
  .word Label_01003F42
@  #04 @044   ----------------------------------------
 .byte   W96
@  #04 @045   ----------------------------------------
 .byte   W96
@  #04 @046   ----------------------------------------
 .byte   W96
@  #04 @047   ----------------------------------------
 .byte   W96
@  #04 @048   ----------------------------------------
 .byte   W96
@  #04 @049   ----------------------------------------
 .byte   W96
@  #04 @050   ----------------------------------------
 .byte   W96
@  #04 @051   ----------------------------------------
 .byte   W96
@  #04 @052   ----------------------------------------
 .byte   W96
@  #04 @053   ----------------------------------------
 .byte   W96
@  #04 @054   ----------------------------------------
 .byte   W96
@  #04 @055   ----------------------------------------
 .byte   W96
@  #04 @056   ----------------------------------------
 .byte   W96
@  #04 @057   ----------------------------------------
 .byte   W96
@  #04 @058   ----------------------------------------
 .byte   W96
@  #04 @059   ----------------------------------------
 .byte   W96
@  #04 @060   ----------------------------------------
 .byte   W96
@  #04 @061   ----------------------------------------
 .byte   W96
@  #04 @062   ----------------------------------------
 .byte   GOTO
  .word Label_01003F1A
@  #04 @063   ----------------------------------------
 .byte   W96
@  #04 @064   ----------------------------------------
 .byte   W96
@  #04 @065   ----------------------------------------
 .byte   W96
@  #04 @066   ----------------------------------------
 .byte   W96
@  #04 @067   ----------------------------------------
 .byte   W96
@  #04 @068   ----------------------------------------
 .byte   W84
 .byte   N02 ,Bn0 ,v043
 .byte   W02
 .byte   N04 ,Cs1
 .byte   W04
 .byte   N02 ,Dn1
 .byte   W02
 .byte   N04 ,Ds1 ,v036
 .byte   W04
@  #04 @069   ----------------------------------------
 .byte   TIE ,En1 ,v011
 .byte   W96
@  #04 @070   ----------------------------------------
 .byte   W48
 .byte   EOT
 .byte   W48
 .byte   FINE

@**************** Track 5 (Midi-Chn.4) ****************@

song02_005:
@  #05 @000   ----------------------------------------
 .byte   KEYSH , song02_key+0
 .byte   VOICE , 34
 .byte   VOL , 61*song02_mvl/mxv
 .byte   BENDR, 12
 .byte   W96
@  #05 @001   ----------------------------------------
 .byte   W96
@  #05 @002   ----------------------------------------
Label_01003FD2:
 .byte   W96
@  #05 @003   ----------------------------------------
 .byte   W96
@  #05 @004   ----------------------------------------
 .byte   W96
@  #05 @005   ----------------------------------------
 .byte   W96
@  #05 @006   ----------------------------------------
 .byte   W96
@  #05 @007   ----------------------------------------
 .byte   W96
@  #05 @008   ----------------------------------------
 .byte   W96
@  #05 @009   ----------------------------------------
 .byte   W96
@  #05 @010   ----------------------------------------
Label_01003FDA:
 .byte   N08 ,Gn1 ,v085
 .byte   W36
 .byte   N12 ,En1
 .byte   W12
 .byte   N08 ,Fn1
 .byte   W36
 .byte   N12 ,Dn1
 .byte   W12
 .byte   PEND 
@  #05 @011   ----------------------------------------
Label_01003FE8:
 .byte   N12 ,Gn1 ,v085
 .byte   W12
 .byte   Dn1
 .byte   W12
 .byte   Fn1
 .byte   W12
 .byte   Dn1
 .byte   W48
 .byte   Fs1
 .byte   W12
 .byte   PEND 
@  #05 @012   ----------------------------------------
Label_01003FF5:
 .byte   N08 ,Gn1 ,v085
 .byte   W36
 .byte   N12 ,En1
 .byte   W12
 .byte   N08 ,Fn1
 .byte   W36
 .byte   N12 ,Fs1
 .byte   W12
 .byte   PEND 
@  #05 @013   ----------------------------------------
Label_01004003:
 .byte   N02 ,Gn1 ,v085
 .byte   W02
 .byte   N04 ,An1
 .byte   W04
 .byte   N02 ,Gn1
 .byte   W02
 .byte   N04 ,Fs1
 .byte   W04
 .byte   N08 ,Gn1
 .byte   W08
 .byte   N04 ,Bn1
 .byte   W04
 .byte   N08 ,Dn2
 .byte   W08
 .byte   N04 ,En2
 .byte   W12
 .byte   Fn2
 .byte   W52
 .byte   PEND 
@  #05 @014   ----------------------------------------
Label_0100401F:
 .byte   N06 ,Gn1 ,v085
 .byte   W32
 .byte   N16 ,Ds2
 .byte   W16
 .byte   N06 ,En2
 .byte   W32
 .byte   N16 ,Ds2
 .byte   W16
 .byte   PEND 
@  #05 @015   ----------------------------------------
Label_0100402D:
 .byte   N12 ,Dn2 ,v085
 .byte   W12
 .byte   As1
 .byte   W12
 .byte   Bn1
 .byte   W12
 .byte   N08 ,En1
 .byte   W08
 .byte   N04 ,Gn1
 .byte   W36
 .byte   N16
 .byte   W16
 .byte   PEND 
@  #05 @016   ----------------------------------------
 .byte   PATT
  .word Label_0100401F
@  #05 @017   ----------------------------------------
Label_01004043:
 .byte   N12 ,Dn2 ,v085
 .byte   W12
 .byte   Gn1
 .byte   W12
 .byte   N08 ,Fs1
 .byte   W08
 .byte   N12
 .byte   W12
 .byte   N04 ,Fn1
 .byte   W52
 .byte   PEND 
@  #05 @018   ----------------------------------------
 .byte   PATT
  .word Label_0100401F
@  #05 @019   ----------------------------------------
 .byte   PATT
  .word Label_0100402D
@  #05 @020   ----------------------------------------
 .byte   PATT
  .word Label_0100401F
@  #05 @021   ----------------------------------------
Label_01004061:
 .byte   N12 ,En2 ,v085
 .byte   W12
 .byte   Gs1
 .byte   W12
 .byte   An1
 .byte   W12
 .byte   Cs2
 .byte   W12
 .byte   Dn2
 .byte   W12
 .byte   Fs1
 .byte   W12
 .byte   Gn1
 .byte   W12
 .byte   Dn1
 .byte   W12
 .byte   PEND 
@  #05 @022   ----------------------------------------
Label_01004074:
 .byte   N12 ,Cn1 ,v085
 .byte   W12
 .byte   Gn1
 .byte   W12
 .byte   Cn2
 .byte   W12
 .byte   N08 ,Bn1
 .byte   W08
 .byte   N04 ,As1
 .byte   W04
 .byte   N12 ,An1
 .byte   W12
 .byte   Dn2
 .byte   W12
 .byte   Dn1
 .byte   W12
 .byte   N08 ,En1
 .byte   W08
 .byte   N04 ,Fs1
 .byte   W04
 .byte   PEND 
@  #05 @023   ----------------------------------------
Label_01004090:
 .byte   N12 ,Gn1 ,v085
 .byte   W12
 .byte   Dn2
 .byte   W12
 .byte   Gn2
 .byte   W12
 .byte   Bn1
 .byte   W12
 .byte   Dn2
 .byte   W12
 .byte   Fs2
 .byte   W12
 .byte   Gn1
 .byte   W12
 .byte   Bn1
 .byte   W12
 .byte   PEND 
@  #05 @024   ----------------------------------------
Label_010040A3:
 .byte   N12 ,Cn2 ,v085
 .byte   W12
 .byte   Cn1
 .byte   W12
 .byte   Cs1
 .byte   W12
 .byte   Cs2
 .byte   W12
 .byte   Dn2
 .byte   W12
 .byte   Dn1
 .byte   W12
 .byte   Ds1
 .byte   W12
 .byte   Ds2
 .byte   W12
 .byte   PEND 
@  #05 @025   ----------------------------------------
Label_010040B6:
 .byte   N12 ,En2 ,v085
 .byte   W12
 .byte   An1
 .byte   W12
 .byte   Gs1
 .byte   W12
 .byte   Cs2
 .byte   W12
 .byte   Dn2
 .byte   W12
 .byte   Fs1
 .byte   W12
 .byte   En1
 .byte   W12
 .byte   Dn1
 .byte   W12
 .byte   PEND 
@  #05 @026   ----------------------------------------
 .byte   PATT
  .word Label_01004074
@  #05 @027   ----------------------------------------
 .byte   PATT
  .word Label_01004090
@  #05 @028   ----------------------------------------
 .byte   W96
@  #05 @029   ----------------------------------------
 .byte   W96
@  #05 @030   ----------------------------------------
 .byte   W96
@  #05 @031   ----------------------------------------
 .byte   W96
@  #05 @032   ----------------------------------------
 .byte   W96
@  #05 @033   ----------------------------------------
 .byte   W96
@  #05 @034   ----------------------------------------
 .byte   W96
@  #05 @035   ----------------------------------------
 .byte   W96
@  #05 @036   ----------------------------------------
 .byte   W96
@  #05 @037   ----------------------------------------
 .byte   W96
@  #05 @038   ----------------------------------------
 .byte   W96
@  #05 @039   ----------------------------------------
 .byte   W96
@  #05 @040   ----------------------------------------
 .byte   PATT
  .word Label_01003FDA
@  #05 @041   ----------------------------------------
 .byte   PATT
  .word Label_01003FE8
@  #05 @042   ----------------------------------------
 .byte   PATT
  .word Label_01003FF5
@  #05 @043   ----------------------------------------
 .byte   PATT
  .word Label_01004003
@  #05 @044   ----------------------------------------
 .byte   PATT
  .word Label_0100401F
@  #05 @045   ----------------------------------------
 .byte   PATT
  .word Label_0100402D
@  #05 @046   ----------------------------------------
 .byte   PATT
  .word Label_0100401F
@  #05 @047   ----------------------------------------
 .byte   PATT
  .word Label_01004043
@  #05 @048   ----------------------------------------
 .byte   PATT
  .word Label_0100401F
@  #05 @049   ----------------------------------------
 .byte   PATT
  .word Label_0100402D
@  #05 @050   ----------------------------------------
 .byte   PATT
  .word Label_0100401F
@  #05 @051   ----------------------------------------
 .byte   PATT
  .word Label_01004061
@  #05 @052   ----------------------------------------
 .byte   PATT
  .word Label_01004074
@  #05 @053   ----------------------------------------
 .byte   PATT
  .word Label_01004090
@  #05 @054   ----------------------------------------
 .byte   PATT
  .word Label_010040A3
@  #05 @055   ----------------------------------------
 .byte   PATT
  .word Label_010040B6
@  #05 @056   ----------------------------------------
 .byte   PATT
  .word Label_01004074
@  #05 @057   ----------------------------------------
 .byte   PATT
  .word Label_01004090
@  #05 @058   ----------------------------------------
 .byte   W96
@  #05 @059   ----------------------------------------
 .byte   W96
@  #05 @060   ----------------------------------------
 .byte   W96
@  #05 @061   ----------------------------------------
 .byte   W96
@  #05 @062   ----------------------------------------
 .byte   GOTO
  .word Label_01003FD2
@  #05 @063   ----------------------------------------
 .byte   W96
@  #05 @064   ----------------------------------------
 .byte   W96
@  #05 @065   ----------------------------------------
 .byte   W96
@  #05 @066   ----------------------------------------
 .byte   W96
@  #05 @067   ----------------------------------------
 .byte   W96
@  #05 @068   ----------------------------------------
 .byte   W96
@  #05 @069   ----------------------------------------
 .byte   W96
@  #05 @070   ----------------------------------------
 .byte   W96
 .byte   FINE

@**************** Track 6 (Midi-Chn.5) ****************@

song02_006:
@  #06 @000   ----------------------------------------
 .byte   KEYSH , song02_key+0
 .byte   VOICE , 4
 .byte   VOL , 76*song02_mvl/mxv
 .byte   PAN , c_v+12
 .byte   BENDR, 12
 .byte   W96
@  #06 @001   ----------------------------------------
 .byte   W96
@  #06 @002   ----------------------------------------
Label_01004168:
 .byte   W96
@  #06 @003   ----------------------------------------
 .byte   W96
@  #06 @004   ----------------------------------------
 .byte   W96
@  #06 @005   ----------------------------------------
 .byte   W96
@  #06 @006   ----------------------------------------
 .byte   W96
@  #06 @007   ----------------------------------------
 .byte   W96
@  #06 @008   ----------------------------------------
 .byte   W96
@  #06 @009   ----------------------------------------
 .byte   W96
@  #06 @010   ----------------------------------------
 .byte   W96
@  #06 @011   ----------------------------------------
 .byte   W96
@  #06 @012   ----------------------------------------
 .byte   W96
@  #06 @013   ----------------------------------------
 .byte   W96
@  #06 @014   ----------------------------------------
Label_01004174:
 .byte   N02 ,Dn4 ,v085
 .byte   W32
 .byte   N04 ,Bn3
 .byte   W04
 .byte   N12 ,Gn3
 .byte   W12
 .byte   N02 ,En3
 .byte   W12
 .byte   Dn4
 .byte   W12
 .byte   Bn3
 .byte   W12
 .byte   Gn3
 .byte   W12
 .byte   PEND 
@  #06 @015   ----------------------------------------
Label_01004188:
 .byte   N04 ,Bn3 ,v085
 .byte   W24
 .byte   Gn3
 .byte   W20
 .byte   Bn3
 .byte   W36
 .byte   N16 ,An3
 .byte   W16
 .byte   PEND 
@  #06 @016   ----------------------------------------
Label_01004194:
 .byte   N04 ,Gn3 ,v085
 .byte   W12
 .byte   N08
 .byte   W08
 .byte   N04 ,An3
 .byte   W04
 .byte   N08 ,Gn3
 .byte   W08
 .byte   N04 ,Fn3
 .byte   W12
 .byte   Gn3
 .byte   W36
 .byte   N16 ,Fn3
 .byte   W16
 .byte   PEND 
@  #06 @017   ----------------------------------------
Label_010041A9:
 .byte   N04 ,Gn3 ,v085
 .byte   W12
 .byte   N08
 .byte   W08
 .byte   N04 ,Bn3
 .byte   W04
 .byte   N08 ,Dn4
 .byte   W08
 .byte   N04 ,En4
 .byte   W12
 .byte   Fn4
 .byte   W52
 .byte   PEND 
@  #06 @018   ----------------------------------------
 .byte   PATT
  .word Label_01004174
@  #06 @019   ----------------------------------------
 .byte   PATT
  .word Label_01004188
@  #06 @020   ----------------------------------------
 .byte   PATT
  .word Label_01004194
@  #06 @021   ----------------------------------------
 .byte   PATT
  .word Label_010041A9
@  #06 @022   ----------------------------------------
 .byte   W96
@  #06 @023   ----------------------------------------
 .byte   W96
@  #06 @024   ----------------------------------------
 .byte   W96
@  #06 @025   ----------------------------------------
 .byte   W96
@  #06 @026   ----------------------------------------
 .byte   W96
@  #06 @027   ----------------------------------------
 .byte   W96
@  #06 @028   ----------------------------------------
 .byte   W96
@  #06 @029   ----------------------------------------
 .byte   W96
@  #06 @030   ----------------------------------------
 .byte   W96
@  #06 @031   ----------------------------------------
 .byte   W96
@  #06 @032   ----------------------------------------
 .byte   W96
@  #06 @033   ----------------------------------------
 .byte   W96
@  #06 @034   ----------------------------------------
 .byte   W96
@  #06 @035   ----------------------------------------
 .byte   W96
@  #06 @036   ----------------------------------------
 .byte   W96
@  #06 @037   ----------------------------------------
 .byte   W96
@  #06 @038   ----------------------------------------
 .byte   W96
@  #06 @039   ----------------------------------------
 .byte   W96
@  #06 @040   ----------------------------------------
 .byte   W96
@  #06 @041   ----------------------------------------
 .byte   W96
@  #06 @042   ----------------------------------------
 .byte   W96
@  #06 @043   ----------------------------------------
 .byte   W96
@  #06 @044   ----------------------------------------
 .byte   PATT
  .word Label_01004174
@  #06 @045   ----------------------------------------
 .byte   PATT
  .word Label_01004188
@  #06 @046   ----------------------------------------
 .byte   PATT
  .word Label_01004194
@  #06 @047   ----------------------------------------
 .byte   PATT
  .word Label_010041A9
@  #06 @048   ----------------------------------------
 .byte   PATT
  .word Label_01004174
@  #06 @049   ----------------------------------------
 .byte   PATT
  .word Label_01004188
@  #06 @050   ----------------------------------------
 .byte   PATT
  .word Label_01004194
@  #06 @051   ----------------------------------------
 .byte   PATT
  .word Label_010041A9
@  #06 @052   ----------------------------------------
 .byte   W96
@  #06 @053   ----------------------------------------
 .byte   W96
@  #06 @054   ----------------------------------------
 .byte   W96
@  #06 @055   ----------------------------------------
 .byte   W96
@  #06 @056   ----------------------------------------
 .byte   W96
@  #06 @057   ----------------------------------------
 .byte   W96
@  #06 @058   ----------------------------------------
 .byte   W96
@  #06 @059   ----------------------------------------
 .byte   W96
@  #06 @060   ----------------------------------------
 .byte   W96
@  #06 @061   ----------------------------------------
 .byte   W96
@  #06 @062   ----------------------------------------
 .byte   GOTO
  .word Label_01004168
@  #06 @063   ----------------------------------------
 .byte   W96
@  #06 @064   ----------------------------------------
 .byte   W96
@  #06 @065   ----------------------------------------
 .byte   W96
@  #06 @066   ----------------------------------------
 .byte   W96
@  #06 @067   ----------------------------------------
 .byte   W96
@  #06 @068   ----------------------------------------
 .byte   W96
@  #06 @069   ----------------------------------------
 .byte   W96
@  #06 @070   ----------------------------------------
 .byte   W96
 .byte   FINE

@**************** Track 7 (Midi-Chn.6) ****************@

song02_007:
@  #07 @000   ----------------------------------------
 .byte   KEYSH , song02_key+0
 .byte   VOICE , 4
 .byte   VOL , 28*song02_mvl/mxv
 .byte   PAN , c_v-26
 .byte   BENDR, 12
 .byte   W96
@  #07 @001   ----------------------------------------
 .byte   W96
@  #07 @002   ----------------------------------------
Label_01025B9C:
 .byte   W96
@  #07 @003   ----------------------------------------
 .byte   W96
@  #07 @004   ----------------------------------------
 .byte   W96
@  #07 @005   ----------------------------------------
 .byte   W96
@  #07 @006   ----------------------------------------
 .byte   W96
@  #07 @007   ----------------------------------------
 .byte   W96
@  #07 @008   ----------------------------------------
 .byte   W96
@  #07 @009   ----------------------------------------
 .byte   W96
@  #07 @010   ----------------------------------------
 .byte   W96
@  #07 @011   ----------------------------------------
 .byte   W96
@  #07 @012   ----------------------------------------
 .byte   W96
@  #07 @013   ----------------------------------------
 .byte   W96
@  #07 @014   ----------------------------------------
 .byte   N02 ,Dn4 ,v085
 .byte   N02 ,Dn3
 .byte   N02 ,Bn3
 .byte   W32
 .byte   N16 ,Ds3
 .byte   N16 ,Bn3
 .byte   N16 ,Ds4
 .byte   W16
 .byte   N02 ,En4
 .byte   N02 ,En3
 .byte   N02 ,Bn3
 .byte   W32
 .byte   N16 ,Ds3
 .byte   N16 ,Bn3
 .byte   N16 ,Ds4
 .byte   W16
@  #07 @015   ----------------------------------------
 .byte   N02 ,Dn4
 .byte   N02 ,Bn3
 .byte   N02 ,Dn3
 .byte   W12
 .byte   Dn4
 .byte   N02 ,Dn3
 .byte   N02 ,Bn3
 .byte   W12
 .byte   N08
 .byte   N08 ,Ds3
 .byte   N08 ,Ds4
 .byte   W08
 .byte   N04 ,Dn4
 .byte   N04 ,Dn3
 .byte   N04 ,Bn3
 .byte   W04
 .byte   N08 ,Ds4
 .byte   N08 ,Ds3
 .byte   N08 ,Bn3
 .byte   W08
 .byte   N04
 .byte   N04 ,En3
 .byte   N04 ,En4
 .byte   W36
 .byte   N16 ,Ds4
 .byte   N16 ,Ds3
 .byte   N16 ,Bn3
 .byte   W16
@  #07 @016   ----------------------------------------
 .byte   N02 ,Dn4
 .byte   N02 ,Bn3
 .byte   N02 ,Dn3
 .byte   W32
 .byte   N16 ,Bn3
 .byte   N16 ,Ds3
 .byte   N16 ,Ds4
 .byte   W16
 .byte   N02 ,En4
 .byte   N02 ,En3
 .byte   N02 ,Bn3
 .byte   W32
 .byte   N16 ,Ds4
 .byte   N16 ,Ds3
 .byte   N16 ,Bn3
 .byte   W16
@  #07 @017   ----------------------------------------
 .byte   N04 ,Dn4
 .byte   N04 ,Dn3
 .byte   N04 ,Bn3
 .byte   W24
 .byte   N20 ,As3
 .byte   N20 ,En4
 .byte   N20 ,En3
 .byte   W20
 .byte   N04 ,Fn4
 .byte   N04 ,Fn3
 .byte   N04 ,Gs3
 .byte   W52
@  #07 @018   ----------------------------------------
 .byte   N02 ,Dn4
 .byte   N02 ,Dn3
 .byte   N02 ,Bn3
 .byte   W32
 .byte   N16 ,Ds3
 .byte   N16 ,Ds4
 .byte   N16 ,Bn3
 .byte   W16
 .byte   N02 ,En4
 .byte   N02 ,Bn3
 .byte   N02 ,En3
 .byte   W32
 .byte   N16 ,Ds3
 .byte   N16 ,Bn3
 .byte   N16 ,Ds4
 .byte   W16
@  #07 @019   ----------------------------------------
 .byte   N02 ,Dn4
 .byte   N02 ,Bn3
 .byte   N02 ,Dn3
 .byte   W12
 .byte   Dn4
 .byte   N02 ,Dn3
 .byte   N02 ,Bn3
 .byte   W12
 .byte   N08
 .byte   N08 ,Ds3
 .byte   N08 ,Ds4
 .byte   W08
 .byte   N04 ,Dn4
 .byte   N04 ,Bn3
 .byte   N04 ,Dn3
 .byte   W04
 .byte   N08 ,Ds4
 .byte   N08 ,Ds3
 .byte   N08 ,Bn3
 .byte   W08
 .byte   N04
 .byte   N04 ,En3
 .byte   N04 ,En4
 .byte   W36
 .byte   N16 ,Bn3
 .byte   N16 ,Ds4
 .byte   N16 ,Ds3
 .byte   W16
@  #07 @020   ----------------------------------------
 .byte   N02 ,Dn4
 .byte   N02 ,Dn3
 .byte   N02 ,Bn3
 .byte   W32
 .byte   N16
 .byte   N16 ,Ds3
 .byte   N16 ,Ds4
 .byte   W16
 .byte   N02 ,En4
 .byte   N02 ,En3
 .byte   N02 ,Bn3
 .byte   W32
 .byte   N16
 .byte   N16 ,Ds4
 .byte   N16 ,Ds3
 .byte   W16
@  #07 @021   ----------------------------------------
 .byte   W12
 .byte   N12 ,En4
 .byte   N12 ,Bn3
 .byte   W20
 .byte   N04
 .byte   N04 ,En4
 .byte   W28
 .byte   N12 ,Dn4
 .byte   N12 ,Bn3
 .byte   W20
 .byte   N04 ,Dn4
 .byte   N04 ,Bn3
 .byte   W16
@  #07 @022   ----------------------------------------
 .byte   N48 ,Gn3
 .byte   N48 ,Cn3
 .byte   N48 ,Gn2
 .byte   N48 ,En3
 .byte   W56
 .byte   N04 ,Fs2
 .byte   N04 ,Fs3
 .byte   N04 ,An2
 .byte   N04 ,Cn3
 .byte   N04 ,En3
 .byte   W16
 .byte   N24 ,Fs2
 .byte   N24 ,En3
 .byte   N24 ,Cn3
 .byte   N24 ,Fs3
 .byte   N24 ,An2
 .byte   W24
@  #07 @023   ----------------------------------------
 .byte   N08 ,Bn3
 .byte   W08
 .byte   N04 ,Fs3
 .byte   W04
 .byte   N08 ,Gn3
 .byte   W08
 .byte   N04 ,Cn4
 .byte   W04
 .byte   N08 ,Bn3
 .byte   W08
 .byte   N12 ,Gn3
 .byte   W04
 .byte   N08 ,Dn3
 .byte   N08 ,An3
 .byte   W08
 .byte   N04 ,Gn3
 .byte   W04
 .byte   N08 ,Fs3
 .byte   N08 ,Dn3
 .byte   W08
 .byte   N04
 .byte   N04 ,Fs3
 .byte   W04
 .byte   N08 ,Cn4
 .byte   N08 ,En4
 .byte   W08
 .byte   N12 ,Dn4
 .byte   N12 ,Bn3
 .byte   W12
 .byte   N04 ,Fs3
 .byte   W04
 .byte   N08 ,Bn3
 .byte   W08
 .byte   N04 ,Fs3
 .byte   W04
@  #07 @024   ----------------------------------------
 .byte   Gn3
 .byte   W08
 .byte   An3
 .byte   W16
 .byte   En3
 .byte   N04 ,Cs4
 .byte   N04 ,Gn3
 .byte   W24
 .byte   Dn4
 .byte   N04 ,An3
 .byte   N04 ,Fs3
 .byte   W12
 .byte   Fs3
 .byte   N04 ,Dn4
 .byte   N04 ,An3
 .byte   W20
 .byte   N16 ,Ds4
 .byte   N16 ,An3
 .byte   N16 ,Fs3
 .byte   W16
@  #07 @025   ----------------------------------------
 .byte   N20 ,En4
 .byte   N20 ,Gn3
 .byte   N20 ,Bn3
 .byte   W20
 .byte   N16
 .byte   N16 ,En4
 .byte   N16 ,Gn3
 .byte   W16
 .byte   N12 ,En3
 .byte   N12 ,An3
 .byte   N12 ,Gn3
 .byte   W12
 .byte   N20 ,Dn4
 .byte   N20 ,Fs3
 .byte   N20 ,An3
 .byte   N20 ,Cn4
 .byte   W20
 .byte   N28
 .byte   N28 ,An3
 .byte   N28 ,Fs3
 .byte   N28 ,Dn4
 .byte   W28
@  #07 @026   ----------------------------------------
 .byte   N48 ,Gn2
 .byte   N48 ,Cn3
 .byte   N48 ,En3
 .byte   N48 ,Gn3
 .byte   W56
 .byte   N04 ,Fs2
 .byte   N04 ,Cn3
 .byte   N04 ,Fs3
 .byte   N04 ,An2
 .byte   N04 ,En3
 .byte   W16
 .byte   N24
 .byte   N24 ,Cn3
 .byte   N24 ,Fs2
 .byte   N24 ,Fs3
 .byte   N24 ,An2
 .byte   W24
@  #07 @027   ----------------------------------------
 .byte   N12 ,Dn4
 .byte   N12 ,Bn3
 .byte   W12
 .byte   N08 ,En4
 .byte   N08 ,Cn4
 .byte   W08
 .byte   N12 ,Dn4
 .byte   N12 ,Bn3
 .byte   W12
 .byte   N04 ,Gn3
 .byte   W04
 .byte   N08 ,Dn4
 .byte   N08 ,Bn3
 .byte   W08
 .byte   N04 ,Gn3
 .byte   W04
 .byte   N08 ,Dn4
 .byte   N08 ,Bn3
 .byte   W08
 .byte   N04 ,Dn4
 .byte   N04 ,Bn3
 .byte   W04
 .byte   N08 ,Cn4
 .byte   N08 ,En4
 .byte   W08
 .byte   N12 ,Bn3
 .byte   N12 ,Dn4
 .byte   W12
 .byte   N04 ,Gn3
 .byte   W04
 .byte   N08 ,Dn4
 .byte   N08 ,Bn3
 .byte   W08
 .byte   N04 ,Gn3
 .byte   W04
@  #07 @028   ----------------------------------------
 .byte   W96
@  #07 @029   ----------------------------------------
 .byte   W96
@  #07 @030   ----------------------------------------
 .byte   W96
@  #07 @031   ----------------------------------------
 .byte   W96
@  #07 @032   ----------------------------------------
 .byte   W96
@  #07 @033   ----------------------------------------
 .byte   W96
@  #07 @034   ----------------------------------------
 .byte   W96
@  #07 @035   ----------------------------------------
 .byte   W96
@  #07 @036   ----------------------------------------
 .byte   W96
@  #07 @037   ----------------------------------------
 .byte   W96
@  #07 @038   ----------------------------------------
 .byte   W96
@  #07 @039   ----------------------------------------
 .byte   W96
@  #07 @040   ----------------------------------------
 .byte   W96
@  #07 @041   ----------------------------------------
 .byte   W96
@  #07 @042   ----------------------------------------
 .byte   W96
@  #07 @043   ----------------------------------------
 .byte   W96
@  #07 @044   ----------------------------------------
 .byte   N02 ,Dn4
 .byte   N02 ,Dn3
 .byte   N02 ,Bn3
 .byte   W32
 .byte   N16 ,Ds3
 .byte   N16 ,Ds4
 .byte   N16 ,Bn3
 .byte   W16
 .byte   N02 ,En4
 .byte   N02 ,En3
 .byte   N02 ,Bn3
 .byte   W32
 .byte   N16
 .byte   N16 ,Ds3
 .byte   N16 ,Ds4
 .byte   W16
@  #07 @045   ----------------------------------------
 .byte   N02 ,Dn4
 .byte   N02 ,Dn3
 .byte   N02 ,Bn3
 .byte   W12
 .byte   Dn4
 .byte   N02 ,Dn3
 .byte   N02 ,Bn3
 .byte   W12
 .byte   N08
 .byte   N08 ,Ds3
 .byte   N08 ,Ds4
 .byte   W08
 .byte   N04 ,Bn3
 .byte   N04 ,Dn4
 .byte   N04 ,Dn3
 .byte   W04
 .byte   N08 ,Ds4
 .byte   N08 ,Ds3
 .byte   N08 ,Bn3
 .byte   W08
 .byte   N04 ,En4
 .byte   N04 ,Bn3
 .byte   N04 ,En3
 .byte   W36
 .byte   N16 ,Bn3
 .byte   N16 ,Ds3
 .byte   N16 ,Ds4
 .byte   W16
@  #07 @046   ----------------------------------------
 .byte   N02 ,Dn4
 .byte   N02 ,Dn3
 .byte   N02 ,Bn3
 .byte   W32
 .byte   N16 ,Ds3
 .byte   N16 ,Ds4
 .byte   N16 ,Bn3
 .byte   W16
 .byte   N02 ,En3
 .byte   N02 ,Bn3
 .byte   N02 ,En4
 .byte   W32
 .byte   N16 ,Ds3
 .byte   N16 ,Ds4
 .byte   N16 ,Bn3
 .byte   W16
@  #07 @047   ----------------------------------------
 .byte   N04 ,Dn4
 .byte   N04 ,Dn3
 .byte   N04 ,Bn3
 .byte   W24
 .byte   N20 ,En4
 .byte   N20 ,En3
 .byte   N20 ,As3
 .byte   W20
 .byte   N04 ,Gs3
 .byte   N04 ,Fn4
 .byte   N04 ,Fn3
 .byte   W52
@  #07 @048   ----------------------------------------
 .byte   N02 ,Dn4
 .byte   N02 ,Bn3
 .byte   N02 ,Dn3
 .byte   W32
 .byte   N16 ,Ds3
 .byte   N16 ,Bn3
 .byte   N16 ,Ds4
 .byte   W16
 .byte   N02 ,En3
 .byte   N02 ,Bn3
 .byte   N02 ,En4
 .byte   W32
 .byte   N16 ,Ds3
 .byte   N16 ,Ds4
 .byte   N16 ,Bn3
 .byte   W16
@  #07 @049   ----------------------------------------
 .byte   N02 ,Dn4
 .byte   N02 ,Dn3
 .byte   N02 ,Bn3
 .byte   W12
 .byte   Dn4
 .byte   N02 ,Bn3
 .byte   N02 ,Dn3
 .byte   W12
 .byte   N08 ,Ds4
 .byte   N08 ,Bn3
 .byte   N08 ,Ds3
 .byte   W08
 .byte   N04 ,Bn3
 .byte   N04 ,Dn3
 .byte   N04 ,Dn4
 .byte   W04
 .byte   N08 ,Ds4
 .byte   N08 ,Ds3
 .byte   N08 ,Bn3
 .byte   W08
 .byte   N04 ,En4
 .byte   N04 ,En3
 .byte   N04 ,Bn3
 .byte   W36
 .byte   N16
 .byte   N16 ,Ds4
 .byte   N16 ,Ds3
 .byte   W16
@  #07 @050   ----------------------------------------
 .byte   N02 ,Dn4
 .byte   N02 ,Bn3
 .byte   N02 ,Dn3
 .byte   W32
 .byte   N16 ,Ds4
 .byte   N16 ,Bn3
 .byte   N16 ,Ds3
 .byte   W16
 .byte   N02 ,En4
 .byte   N02 ,En3
 .byte   N02 ,Bn3
 .byte   W32
 .byte   N16 ,Ds3
 .byte   N16 ,Bn3
 .byte   N16 ,Ds4
 .byte   W16
@  #07 @051   ----------------------------------------
 .byte   W12
 .byte   N12 ,En4
 .byte   N12 ,Bn3
 .byte   W20
 .byte   N04 ,En4
 .byte   N04 ,Bn3
 .byte   W28
 .byte   N12 ,Dn4
 .byte   N12 ,Bn3
 .byte   W20
 .byte   N04 ,Dn4
 .byte   N04 ,Bn3
 .byte   W16
@  #07 @052   ----------------------------------------
 .byte   N48 ,Gn3
 .byte   N48 ,En3
 .byte   N48 ,Cn3
 .byte   N48 ,Gn2
 .byte   W56
 .byte   N04 ,Cn3
 .byte   N04 ,An2
 .byte   N04 ,Fs3
 .byte   N04 ,Fs2
 .byte   N04 ,En3
 .byte   W16
 .byte   N24 ,An2
 .byte   N24 ,Cn3
 .byte   N24 ,Fs2
 .byte   N24 ,Fs3
 .byte   N24 ,En3
 .byte   W24
@  #07 @053   ----------------------------------------
 .byte   N08 ,Bn3
 .byte   W08
 .byte   N04 ,Fs3
 .byte   W04
 .byte   N08 ,Gn3
 .byte   W08
 .byte   N04 ,Cn4
 .byte   W04
 .byte   N08 ,Bn3
 .byte   W08
 .byte   N12 ,Gn3
 .byte   W04
 .byte   N08 ,Dn3
 .byte   N08 ,An3
 .byte   W08
 .byte   N04 ,Gn3
 .byte   W04
 .byte   N08 ,Dn3
 .byte   N08 ,Fs3
 .byte   W08
 .byte   N04 ,Dn3
 .byte   N04 ,Fs3
 .byte   W04
 .byte   N08 ,Cn4
 .byte   N08 ,En4
 .byte   W08
 .byte   N12 ,Dn4
 .byte   N12 ,Bn3
 .byte   W12
 .byte   N04 ,Fs3
 .byte   W04
 .byte   N08 ,Bn3
 .byte   W08
 .byte   N04 ,Fs3
 .byte   W04
@  #07 @054   ----------------------------------------
 .byte   Gn3
 .byte   W08
 .byte   An3
 .byte   W16
 .byte   Gn3
 .byte   N04 ,En3
 .byte   N04 ,Cs4
 .byte   W24
 .byte   Dn4
 .byte   N04 ,An3
 .byte   N04 ,Fs3
 .byte   W12
 .byte   An3
 .byte   N04 ,Fs3
 .byte   N04 ,Dn4
 .byte   W20
 .byte   N16 ,An3
 .byte   N16 ,Ds4
 .byte   N16 ,Fs3
 .byte   W16
@  #07 @055   ----------------------------------------
 .byte   N20 ,Gn3
 .byte   N20 ,En4
 .byte   N20 ,Bn3
 .byte   W20
 .byte   N16 ,En4
 .byte   N16 ,Bn3
 .byte   N16 ,Gn3
 .byte   W16
 .byte   N12 ,En3
 .byte   N12 ,Gn3
 .byte   N12 ,An3
 .byte   W12
 .byte   N20 ,Dn4
 .byte   N20 ,Fs3
 .byte   N20 ,An3
 .byte   N20 ,Cn4
 .byte   W20
 .byte   N28 ,Fs3
 .byte   N28 ,Cn4
 .byte   N28 ,An3
 .byte   N28 ,Dn4
 .byte   W28
@  #07 @056   ----------------------------------------
 .byte   N48 ,En3
 .byte   N48 ,Cn3
 .byte   N48 ,Gn2
 .byte   N48 ,Gn3
 .byte   W56
 .byte   N04 ,An2
 .byte   N04 ,Fs3
 .byte   N04 ,Fs2
 .byte   N04 ,Cn3
 .byte   N04 ,En3
 .byte   W16
 .byte   N24 ,Fs3
 .byte   N24 ,Fs2
 .byte   N24 ,En3
 .byte   N24 ,Cn3
 .byte   N24 ,An2
 .byte   W24
@  #07 @057   ----------------------------------------
 .byte   N12 ,Dn4
 .byte   N12 ,Bn3
 .byte   W12
 .byte   N08 ,En4
 .byte   N08 ,Cn4
 .byte   W08
 .byte   N12 ,Dn4
 .byte   N12 ,Bn3
 .byte   W12
 .byte   N04 ,Gn3
 .byte   W04
 .byte   N08 ,Dn4
 .byte   N08 ,Bn3
 .byte   W08
 .byte   N04 ,Gn3
 .byte   W04
 .byte   N08 ,Bn3
 .byte   N08 ,Dn4
 .byte   W08
 .byte   N04 ,Bn3
 .byte   N04 ,Dn4
 .byte   W04
 .byte   N08 ,En4
 .byte   N08 ,Cn4
 .byte   W08
 .byte   N12 ,Dn4
 .byte   N12 ,Bn3
 .byte   W12
 .byte   N04 ,Gn3
 .byte   W04
 .byte   N08 ,Dn4
 .byte   N08 ,Bn3
 .byte   W08
 .byte   N04 ,Gn3
 .byte   W04
@  #07 @058   ----------------------------------------
 .byte   W96
@  #07 @059   ----------------------------------------
 .byte   W96
@  #07 @060   ----------------------------------------
 .byte   W96
@  #07 @061   ----------------------------------------
 .byte   W96
@  #07 @062   ----------------------------------------
 .byte   GOTO
  .word Label_01025B9C
@  #07 @063   ----------------------------------------
 .byte   W96
@  #07 @064   ----------------------------------------
 .byte   W96
@  #07 @065   ----------------------------------------
 .byte   W96
@  #07 @066   ----------------------------------------
 .byte   W96
@  #07 @067   ----------------------------------------
 .byte   W96
@  #07 @068   ----------------------------------------
 .byte   W96
@  #07 @069   ----------------------------------------
 .byte   W96
@  #07 @070   ----------------------------------------
 .byte   W96
 .byte   FINE

@**************** Track 8 (Midi-Chn.7) ****************@

song02_008:
@  #08 @000   ----------------------------------------
 .byte   KEYSH , song02_key+0
 .byte   VOICE , 4
 .byte   VOL , 28*song02_mvl/mxv
 .byte   BENDR, 12
 .byte   W96
@  #08 @001   ----------------------------------------
 .byte   W96
@  #08 @002   ----------------------------------------
Label_01004242:
 .byte   W96
@  #08 @003   ----------------------------------------
 .byte   W96
@  #08 @004   ----------------------------------------
 .byte   W96
@  #08 @005   ----------------------------------------
 .byte   W96
@  #08 @006   ----------------------------------------
 .byte   W96
@  #08 @007   ----------------------------------------
 .byte   W96
@  #08 @008   ----------------------------------------
 .byte   W96
@  #08 @009   ----------------------------------------
 .byte   W96
@  #08 @010   ----------------------------------------
 .byte   W96
@  #08 @011   ----------------------------------------
 .byte   W96
@  #08 @012   ----------------------------------------
 .byte   W96
@  #08 @013   ----------------------------------------
 .byte   W96
@  #08 @014   ----------------------------------------
Label_0100424E:
 .byte   N02 ,Gn2 ,v085
 .byte   W32
 .byte   N16
 .byte   W16
 .byte   N02
 .byte   W32
 .byte   N16
 .byte   W16
 .byte   PEND 
@  #08 @015   ----------------------------------------
Label_01004259:
 .byte   N02 ,Gn2 ,v085
 .byte   W12
 .byte   Gn2
 .byte   W12
 .byte   N08
 .byte   W08
 .byte   N04
 .byte   W04
 .byte   N08
 .byte   W08
 .byte   N04
 .byte   W36
 .byte   N16
 .byte   W16
 .byte   PEND 
@  #08 @016   ----------------------------------------
 .byte   PATT
  .word Label_0100424E
@  #08 @017   ----------------------------------------
Label_0100426F:
 .byte   N06 ,Gn2 ,v085
 .byte   W24
 .byte   N08 ,Fs2
 .byte   W08
 .byte   N12
 .byte   W12
 .byte   N04 ,Fn2
 .byte   W52
 .byte   PEND 
@  #08 @018   ----------------------------------------
 .byte   PATT
  .word Label_0100424E
@  #08 @019   ----------------------------------------
 .byte   PATT
  .word Label_01004259
@  #08 @020   ----------------------------------------
 .byte   PATT
  .word Label_0100424E
@  #08 @021   ----------------------------------------
Label_0100428B:
 .byte   N18 ,Gn4 ,v116
 .byte   W20
 .byte   N12 ,An4
 .byte   W16
 .byte   Gn4
 .byte   W12
 .byte   N18 ,Fn4
 .byte   W20
 .byte   N12 ,Gn4
 .byte   W16
 .byte   Fn4
 .byte   W12
 .byte   PEND 
@  #08 @022   ----------------------------------------
 .byte   W96
@  #08 @023   ----------------------------------------
 .byte   W96
@  #08 @024   ----------------------------------------
 .byte   W96
@  #08 @025   ----------------------------------------
 .byte   W96
@  #08 @026   ----------------------------------------
 .byte   W96
@  #08 @027   ----------------------------------------
 .byte   W96
@  #08 @028   ----------------------------------------
 .byte   W96
@  #08 @029   ----------------------------------------
 .byte   W96
@  #08 @030   ----------------------------------------
 .byte   W96
@  #08 @031   ----------------------------------------
 .byte   W96
@  #08 @032   ----------------------------------------
 .byte   W96
@  #08 @033   ----------------------------------------
 .byte   W96
@  #08 @034   ----------------------------------------
 .byte   W96
@  #08 @035   ----------------------------------------
 .byte   W96
@  #08 @036   ----------------------------------------
 .byte   W96
@  #08 @037   ----------------------------------------
 .byte   W96
@  #08 @038   ----------------------------------------
 .byte   W96
@  #08 @039   ----------------------------------------
 .byte   W96
@  #08 @040   ----------------------------------------
 .byte   W96
@  #08 @041   ----------------------------------------
 .byte   W96
@  #08 @042   ----------------------------------------
 .byte   W96
@  #08 @043   ----------------------------------------
 .byte   W96
@  #08 @044   ----------------------------------------
 .byte   PATT
  .word Label_0100424E
@  #08 @045   ----------------------------------------
 .byte   PATT
  .word Label_01004259
@  #08 @046   ----------------------------------------
 .byte   PATT
  .word Label_0100424E
@  #08 @047   ----------------------------------------
 .byte   PATT
  .word Label_0100426F
@  #08 @048   ----------------------------------------
 .byte   PATT
  .word Label_0100424E
@  #08 @049   ----------------------------------------
 .byte   PATT
  .word Label_01004259
@  #08 @050   ----------------------------------------
 .byte   PATT
  .word Label_0100424E
@  #08 @051   ----------------------------------------
 .byte   PATT
  .word Label_0100428B
@  #08 @052   ----------------------------------------
 .byte   W96
@  #08 @053   ----------------------------------------
 .byte   W96
@  #08 @054   ----------------------------------------
 .byte   W96
@  #08 @055   ----------------------------------------
 .byte   W96
@  #08 @056   ----------------------------------------
 .byte   W96
@  #08 @057   ----------------------------------------
 .byte   W96
@  #08 @058   ----------------------------------------
 .byte   W96
@  #08 @059   ----------------------------------------
 .byte   W96
@  #08 @060   ----------------------------------------
 .byte   W96
@  #08 @061   ----------------------------------------
 .byte   W96
@  #08 @062   ----------------------------------------
 .byte   GOTO
  .word Label_01004242
@  #08 @063   ----------------------------------------
 .byte   W96
@  #08 @064   ----------------------------------------
 .byte   W96
@  #08 @065   ----------------------------------------
 .byte   W96
@  #08 @066   ----------------------------------------
 .byte   W96
@  #08 @067   ----------------------------------------
 .byte   W96
@  #08 @068   ----------------------------------------
 .byte   W96
@  #08 @069   ----------------------------------------
 .byte   W96
@  #08 @070   ----------------------------------------
 .byte   W96
 .byte   FINE

@**************** Track 9 (Midi-Chn.8) ****************@

song02_009:
@  #09 @000   ----------------------------------------
 .byte   KEYSH , song02_key+0
 .byte   VOICE , 61
 .byte   VOL , 56*song02_mvl/mxv
 .byte   BENDR, 12
 .byte   W96
@  #09 @001   ----------------------------------------
 .byte   W96
@  #09 @002   ----------------------------------------
Label_0100430E:
 .byte   W96
@  #09 @003   ----------------------------------------
 .byte   W96
@  #09 @004   ----------------------------------------
 .byte   W96
@  #09 @005   ----------------------------------------
 .byte   W96
@  #09 @006   ----------------------------------------
 .byte   W96
@  #09 @007   ----------------------------------------
 .byte   W96
@  #09 @008   ----------------------------------------
 .byte   W96
@  #09 @009   ----------------------------------------
 .byte   W96
@  #09 @010   ----------------------------------------
 .byte   W96
@  #09 @011   ----------------------------------------
 .byte   W96
@  #09 @012   ----------------------------------------
 .byte   W96
@  #09 @013   ----------------------------------------
 .byte   W96
@  #09 @014   ----------------------------------------
 .byte   W96
@  #09 @015   ----------------------------------------
 .byte   W96
@  #09 @016   ----------------------------------------
 .byte   W96
@  #09 @017   ----------------------------------------
Label_0100431D:
 .byte   W72
 .byte   N24 ,Fn3 ,v116
 .byte   N24 ,Fn4
 .byte   W24
 .byte   PEND 
@  #09 @018   ----------------------------------------
 .byte   W96
@  #09 @019   ----------------------------------------
 .byte   W96
@  #09 @020   ----------------------------------------
 .byte   W96
@  #09 @021   ----------------------------------------
 .byte   W96
@  #09 @022   ----------------------------------------
 .byte   W96
@  #09 @023   ----------------------------------------
 .byte   W96
@  #09 @024   ----------------------------------------
 .byte   W96
@  #09 @025   ----------------------------------------
 .byte   W96
@  #09 @026   ----------------------------------------
 .byte   W96
@  #09 @027   ----------------------------------------
 .byte   W96
@  #09 @028   ----------------------------------------
 .byte   W96
@  #09 @029   ----------------------------------------
 .byte   W96
@  #09 @030   ----------------------------------------
 .byte   W96
@  #09 @031   ----------------------------------------
 .byte   W96
@  #09 @032   ----------------------------------------
 .byte   W96
@  #09 @033   ----------------------------------------
 .byte   W96
@  #09 @034   ----------------------------------------
 .byte   W96
@  #09 @035   ----------------------------------------
 .byte   W96
@  #09 @036   ----------------------------------------
 .byte   W96
@  #09 @037   ----------------------------------------
 .byte   W96
@  #09 @038   ----------------------------------------
 .byte   W96
@  #09 @039   ----------------------------------------
 .byte   W96
@  #09 @040   ----------------------------------------
 .byte   W96
@  #09 @041   ----------------------------------------
 .byte   W96
@  #09 @042   ----------------------------------------
 .byte   W96
@  #09 @043   ----------------------------------------
 .byte   W96
@  #09 @044   ----------------------------------------
 .byte   W96
@  #09 @045   ----------------------------------------
 .byte   W96
@  #09 @046   ----------------------------------------
 .byte   W96
@  #09 @047   ----------------------------------------
 .byte   PATT
  .word Label_0100431D
@  #09 @048   ----------------------------------------
 .byte   W96
@  #09 @049   ----------------------------------------
 .byte   W96
@  #09 @050   ----------------------------------------
 .byte   W96
@  #09 @051   ----------------------------------------
 .byte   W96
@  #09 @052   ----------------------------------------
 .byte   W96
@  #09 @053   ----------------------------------------
 .byte   W96
@  #09 @054   ----------------------------------------
 .byte   W96
@  #09 @055   ----------------------------------------
 .byte   W96
@  #09 @056   ----------------------------------------
 .byte   W96
@  #09 @057   ----------------------------------------
 .byte   W96
@  #09 @058   ----------------------------------------
 .byte   W96
@  #09 @059   ----------------------------------------
 .byte   W96
@  #09 @060   ----------------------------------------
 .byte   W96
@  #09 @061   ----------------------------------------
 .byte   W96
@  #09 @062   ----------------------------------------
 .byte   GOTO
  .word Label_0100430E
@  #09 @063   ----------------------------------------
 .byte   W96
@  #09 @064   ----------------------------------------
 .byte   W96
@  #09 @065   ----------------------------------------
 .byte   W96
@  #09 @066   ----------------------------------------
 .byte   W96
@  #09 @067   ----------------------------------------
 .byte   W96
@  #09 @068   ----------------------------------------
 .byte   W96
@  #09 @069   ----------------------------------------
 .byte   W96
@  #09 @070   ----------------------------------------
 .byte   W96
 .byte   FINE

@**************** Track 10 (Midi-Chn.9) ****************@

song02_010:
@  #10 @000   ----------------------------------------
 .byte   KEYSH , song02_key+0
 .byte   VOICE , 124
 .byte   VOL , 68*song02_mvl/mxv
 .byte   BENDR, 12
 .byte   N06 ,Cn1 ,v085
 .byte   N06 ,An1
 .byte   W12
 .byte   An1
 .byte   N07 ,Fs1
 .byte   W12
 .byte   N06 ,Cn1
 .byte   N06 ,Gn1
 .byte   W07
 .byte   Ds2
 .byte   W05
 .byte   Bn1
 .byte   N07 ,Fs1
 .byte   W07
 .byte   N06 ,Ds2 ,v072
 .byte   W01
 .byte   Gn1 ,v085
 .byte   W04
 .byte   An1
 .byte   N06 ,Cn1
 .byte   W08
 .byte   An1
 .byte   W04
 .byte   N07 ,Fs1
 .byte   N06 ,Gn1
 .byte   W07
 .byte   Ds2
 .byte   W05
 .byte   Cn1
 .byte   N06 ,An1
 .byte   W08
 .byte   Fn1
 .byte   W04
 .byte   N07 ,Fs1
 .byte   N06 ,An1
 .byte   W08
 .byte   Fn1 ,v072
 .byte   W04
@  #10 @001   ----------------------------------------
 .byte   An1 ,v085
 .byte   N06 ,Cn1
 .byte   W12
 .byte   An1
 .byte   N07 ,Fs1
 .byte   W12
 .byte   N06 ,Gn1
 .byte   N06 ,Cn1
 .byte   W07
 .byte   Ds2
 .byte   W05
 .byte   N07 ,Fs1
 .byte   N06 ,Bn1
 .byte   W07
 .byte   Ds2 ,v072
 .byte   W01
 .byte   Gn1 ,v085
 .byte   W04
 .byte   Cn1
 .byte   N06 ,An1
 .byte   W08
 .byte   An1
 .byte   W04
 .byte   Gn1
 .byte   N07 ,Fs1
 .byte   W07
 .byte   N06 ,Ds2
 .byte   W05
 .byte   Cn1
 .byte   N06 ,An1
 .byte   W08
 .byte   Fn1
 .byte   W04
 .byte   N07 ,Fs1
 .byte   N06 ,An1
 .byte   W08
 .byte   Fn1 ,v072
 .byte   W04
@  #10 @002   ----------------------------------------
Label_0102600D:
 .byte   N06 ,An1 ,v085
 .byte   N32 ,Cs2 ,v085 ,gtp1
 .byte   N06 ,Cn1
 .byte   W12
 .byte   N07 ,Fs1
 .byte   N06 ,An1
 .byte   W12
 .byte   Gn1
 .byte   N06 ,Cn1
 .byte   W07
 .byte   Ds2
 .byte   W05
 .byte   N07 ,Fs1
 .byte   N06 ,Bn1
 .byte   W07
 .byte   Ds2 ,v072
 .byte   W01
 .byte   Gn1 ,v085
 .byte   W04
 .byte   Cn1
 .byte   N06 ,An1
 .byte   W08
 .byte   An1
 .byte   W04
 .byte   Gn1
 .byte   N07 ,Fs1
 .byte   W07
 .byte   N06 ,Ds2
 .byte   W05
 .byte   An1
 .byte   N06 ,Cn1
 .byte   W08
 .byte   Fn1
 .byte   W04
 .byte   N07 ,Fs1
 .byte   N06 ,An1
 .byte   W08
 .byte   Fn1 ,v072
 .byte   W04
@  #10 @003   ----------------------------------------
 .byte   An1 ,v085
 .byte   N06 ,Cn1
 .byte   W12
 .byte   N07 ,Fs1
 .byte   N06 ,An1
 .byte   W12
 .byte   Cn1
 .byte   N06 ,Gn1
 .byte   W07
 .byte   Ds2
 .byte   W05
 .byte   Bn1
 .byte   N07 ,Fs1
 .byte   W07
 .byte   N06 ,Ds2 ,v072
 .byte   W01
 .byte   Gn1 ,v085
 .byte   W04
 .byte   Cn1
 .byte   N06 ,An1
 .byte   W08
 .byte   An1
 .byte   W04
 .byte   Gn1
 .byte   N07 ,Fs1
 .byte   W07
 .byte   N06 ,Ds2
 .byte   W05
 .byte   Cn1
 .byte   N06 ,An1
 .byte   W08
 .byte   Fn1
 .byte   W04
 .byte   N07 ,Fs1
 .byte   N06 ,An1
 .byte   W08
 .byte   Fn1 ,v072
 .byte   W04
@  #10 @004   ----------------------------------------
 .byte   Cn1 ,v085
 .byte   N06 ,An1
 .byte   W12
 .byte   An1
 .byte   N07 ,Fs1
 .byte   W12
 .byte   N06 ,Cn1
 .byte   N06 ,Gn1
 .byte   W07
 .byte   Ds2
 .byte   W05
 .byte   Bn1
 .byte   N07 ,Fs1
 .byte   W07
 .byte   N06 ,Ds2 ,v072
 .byte   W01
 .byte   Gn1 ,v085
 .byte   W04
 .byte   Cn1
 .byte   N06 ,An1
 .byte   W08
 .byte   An1
 .byte   W04
 .byte   N07 ,Fs1
 .byte   N06 ,Gn1
 .byte   W07
 .byte   Ds2
 .byte   W05
 .byte   Cn1
 .byte   N06 ,An1
 .byte   W08
 .byte   Fn1
 .byte   W04
 .byte   N07 ,Fs1
 .byte   N06 ,An1
 .byte   W08
 .byte   Fn1 ,v072
 .byte   W04
@  #10 @005   ----------------------------------------
 .byte   An1 ,v085
 .byte   N06 ,Cn1
 .byte   W12
 .byte   N07 ,Fs1
 .byte   N06 ,An1
 .byte   W12
 .byte   Cn1
 .byte   N06 ,Gn1
 .byte   W07
 .byte   Ds2
 .byte   W05
 .byte   Bn1
 .byte   N07 ,Fs1
 .byte   W07
 .byte   N06 ,Ds2 ,v072
 .byte   W01
 .byte   Gn1 ,v085
 .byte   W04
 .byte   Cn1
 .byte   N06 ,An1
 .byte   W08
 .byte   An1
 .byte   W04
 .byte   N07 ,Fs1
 .byte   N06 ,Gn1
 .byte   W07
 .byte   Ds2
 .byte   W05
 .byte   An1
 .byte   N06 ,Cn1
 .byte   W08
 .byte   Fn1
 .byte   W04
 .byte   N07 ,Fs1
 .byte   N06 ,An1
 .byte   W08
 .byte   Fn1 ,v072
 .byte   W04
@  #10 @006   ----------------------------------------
 .byte   An1 ,v085
 .byte   N32 ,Cs2 ,v085 ,gtp1
 .byte   N06 ,Cn1
 .byte   W12
 .byte   Ds1
 .byte   N07 ,Fs1
 .byte   N06 ,An1
 .byte   W12
 .byte   Gn1
 .byte   N06 ,Cn1
 .byte   W07
 .byte   Ds2
 .byte   W05
 .byte   Ds1
 .byte   N07 ,Fs1
 .byte   N06 ,Bn1
 .byte   W07
 .byte   Ds2 ,v072
 .byte   W01
 .byte   Gn1 ,v085
 .byte   W04
 .byte   An1
 .byte   N06 ,Cn1
 .byte   W08
 .byte   An1
 .byte   W04
 .byte   N07 ,Fs1
 .byte   N06 ,Ds1
 .byte   N06 ,Gn1
 .byte   W07
 .byte   Ds2
 .byte   W05
 .byte   Cn1
 .byte   N06 ,An1
 .byte   W08
 .byte   Fn1
 .byte   W04
 .byte   N07 ,Fs1
 .byte   N06 ,Ds1
 .byte   N06 ,An1
 .byte   W08
 .byte   Fn1 ,v072
 .byte   W04
@  #10 @007   ----------------------------------------
 .byte   An1 ,v085
 .byte   N06 ,Cn1
 .byte   W12
 .byte   Ds1
 .byte   N07 ,Fs1
 .byte   N06 ,An1
 .byte   W12
 .byte   Cn1
 .byte   N06 ,Gn1
 .byte   W07
 .byte   Ds2
 .byte   W05
 .byte   N07 ,Fs1
 .byte   N06 ,Bn1
 .byte   N06 ,Ds1
 .byte   W07
 .byte   Ds2 ,v072
 .byte   W01
 .byte   Gn1 ,v085
 .byte   W04
 .byte   Cn1
 .byte   N06 ,An1
 .byte   W08
 .byte   An1
 .byte   W04
 .byte   N07 ,Fs1
 .byte   N06 ,Ds1
 .byte   N06 ,Gn1
 .byte   W07
 .byte   Ds2
 .byte   W05
 .byte   Cn1
 .byte   N06 ,An1
 .byte   W08
 .byte   Fn1
 .byte   W04
 .byte   N07 ,Fs1
 .byte   N06 ,Ds1
 .byte   N06 ,An1
 .byte   W08
 .byte   Fn1 ,v072
 .byte   W04
@  #10 @008   ----------------------------------------
 .byte   Cn1 ,v085
 .byte   N06 ,An1
 .byte   W12
 .byte   N07 ,Fs1
 .byte   N06 ,An1
 .byte   N06 ,Ds1
 .byte   W12
 .byte   Gn1
 .byte   N06 ,Cn1
 .byte   W07
 .byte   Ds2
 .byte   W05
 .byte   N07 ,Fs1
 .byte   N06 ,Ds1
 .byte   N06 ,Bn1
 .byte   W07
 .byte   Ds2 ,v072
 .byte   W01
 .byte   Gn1 ,v085
 .byte   W04
 .byte   An1
 .byte   N06 ,Cn1
 .byte   W08
 .byte   An1
 .byte   W04
 .byte   Gn1
 .byte   N06 ,Ds1
 .byte   N07 ,Fs1
 .byte   W07
 .byte   N06 ,Ds2
 .byte   W05
 .byte   An1
 .byte   N06 ,Cn1
 .byte   W08
 .byte   Fn1
 .byte   W04
 .byte   An1
 .byte   N07 ,Fs1
 .byte   N06 ,Ds1
 .byte   W08
 .byte   Fn1 ,v072
 .byte   W04
@  #10 @009   ----------------------------------------
 .byte   An1 ,v085
 .byte   N06 ,Cn1
 .byte   W12
 .byte   Ds1
 .byte   N07 ,Fs1
 .byte   N06 ,An1
 .byte   W12
 .byte   Cn1
 .byte   N06 ,Gn1
 .byte   W07
 .byte   Ds2
 .byte   W05
 .byte   N07 ,Fs1
 .byte   N06 ,Ds1
 .byte   N06 ,Bn1
 .byte   W07
 .byte   Ds2 ,v072
 .byte   W01
 .byte   Gn1 ,v085
 .byte   W06
 .byte   Cn2
 .byte   W04
 .byte   Bn1
 .byte   W02
 .byte   An1
 .byte   W04
 .byte   Dn1
 .byte   N08 ,As1
 .byte   W12
 .byte   N07 ,Fs1 ,v006
 .byte   W24
@  #10 @010   ----------------------------------------
 .byte   N06 ,Cn1 ,v085
 .byte   N07 ,Fs1
 .byte   W12
 .byte   N08 ,As1
 .byte   W12
 .byte   N06 ,Cn1
 .byte   N07 ,Fs1
 .byte   W08
 .byte   Fs1
 .byte   W04
 .byte   N08 ,As1
 .byte   W12
 .byte   N07 ,Fs1
 .byte   N06 ,Cn1
 .byte   W08
 .byte   N07 ,Fs1
 .byte   W04
 .byte   N08 ,As1
 .byte   W12
 .byte   N07 ,Fs1
 .byte   N06 ,Cn1
 .byte   W08
 .byte   N07 ,Fs1
 .byte   W04
 .byte   N08 ,As1
 .byte   W12
@  #10 @011   ----------------------------------------
 .byte   N07 ,Fs1
 .byte   N06 ,Cn1
 .byte   W12
 .byte   N08 ,As1
 .byte   W12
 .byte   N06 ,Cn1
 .byte   N07 ,Fs1
 .byte   W08
 .byte   Fs1
 .byte   W04
 .byte   N08 ,As1
 .byte   W12
 .byte   N06 ,Cn1
 .byte   N07 ,Fs1
 .byte   W08
 .byte   Fs1
 .byte   W04
 .byte   N32 ,Cs2 ,v085 ,gtp1
 .byte   N08 ,As1
 .byte   W12
 .byte   N07 ,Fs1
 .byte   N06 ,Cn1
 .byte   W08
 .byte   N07 ,Fs1
 .byte   W04
 .byte   N08 ,As1
 .byte   W12
@  #10 @012   ----------------------------------------
Label_01026224:
 .byte   N07 ,Fs1 ,v085
 .byte   N06 ,Cn1
 .byte   W12
 .byte   N08 ,As1
 .byte   W12
 .byte   N06 ,Cn1
 .byte   N07 ,Fs1
 .byte   W08
 .byte   Fs1
 .byte   W04
 .byte   N08 ,As1
 .byte   W12
 .byte   N07 ,Fs1
 .byte   N06 ,Cn1
 .byte   W08
 .byte   N07 ,Fs1
 .byte   W04
 .byte   N08 ,As1
 .byte   W12
 .byte   N06 ,Cn1
 .byte   N07 ,Fs1
 .byte   W08
 .byte   Fs1
 .byte   W04
 .byte   N08 ,As1
 .byte   W12
 .byte   PEND 
@  #10 @013   ----------------------------------------
 .byte   N06 ,Cn1
 .byte   N07 ,Fs1
 .byte   W04
 .byte   N08 ,As1 ,v059
 .byte   W04
 .byte   N07 ,Fs1
 .byte   W04
 .byte   N08 ,As1 ,v085
 .byte   W12
 .byte   N06 ,Cn1
 .byte   N07 ,Fs1
 .byte   W08
 .byte   N06 ,Cn1
 .byte   N08 ,As1
 .byte   W04
 .byte   N07 ,Fs1
 .byte   W08
 .byte   N06 ,Cn1
 .byte   N08 ,As1
 .byte   W04
 .byte   N07 ,Fs1
 .byte   W20
 .byte   Fs1
 .byte   W04
 .byte   N06 ,An1
 .byte   W12
 .byte   Gn1
 .byte   W12
@  #10 @014   ----------------------------------------
Label_01026279:
 .byte   N06 ,Cn1 ,v085
 .byte   N07 ,Fs1
 .byte   W12
 .byte   N08 ,As1
 .byte   W12
 .byte   N07 ,Fs1
 .byte   W08
 .byte   Fs1
 .byte   N06 ,Cn1
 .byte   W04
 .byte   N08 ,As1
 .byte   W12
 .byte   N06 ,Cn1
 .byte   N07 ,Fs1
 .byte   W08
 .byte   Fs1
 .byte   W04
 .byte   N08 ,As1
 .byte   W12
 .byte   N07 ,Fs1
 .byte   W08
 .byte   Fs1
 .byte   N06 ,Cn1
 .byte   W04
 .byte   N08 ,As1
 .byte   W12
 .byte   PEND 
@  #10 @015   ----------------------------------------
 .byte   N06 ,Cn1
 .byte   N07 ,Fs1
 .byte   W12
 .byte   N08 ,As1
 .byte   W12
 .byte   N06 ,Cn1
 .byte   N07 ,Fs1
 .byte   W08
 .byte   Fs1
 .byte   W04
 .byte   N08 ,As1
 .byte   W08
 .byte   N06 ,Cn1
 .byte   W04
 .byte   N07 ,Fs1
 .byte   W08
 .byte   Fs1
 .byte   W04
 .byte   N08 ,As1
 .byte   W12
 .byte   N07 ,Fs1
 .byte   W08
 .byte   Fs1
 .byte   N06 ,Cn1
 .byte   W04
 .byte   N08 ,As1
 .byte   W12
@  #10 @016   ----------------------------------------
 .byte   N07 ,Fs1
 .byte   N06 ,Cn1
 .byte   W12
 .byte   N08 ,As1
 .byte   W12
 .byte   N07 ,Fs1
 .byte   W08
 .byte   N06 ,Cn1
 .byte   N07 ,Fs1
 .byte   W04
 .byte   N08 ,As1
 .byte   W12
 .byte   N06 ,Cn1
 .byte   N07 ,Fs1
 .byte   W08
 .byte   Fs1
 .byte   W04
 .byte   N08 ,As1
 .byte   W12
 .byte   N07 ,Fs1
 .byte   W08
 .byte   Fs1
 .byte   N06 ,Cn1
 .byte   W04
 .byte   N08 ,As1
 .byte   W12
@  #10 @017   ----------------------------------------
 .byte   N06 ,Cn1
 .byte   N07 ,Fs1
 .byte   W12
 .byte   N08 ,As1
 .byte   W12
 .byte   N07 ,Fs1
 .byte   N06 ,Cn1
 .byte   W08
 .byte   N07 ,Fs1
 .byte   W04
 .byte   N08 ,As1
 .byte   W08
 .byte   N06 ,Cn1
 .byte   W04
 .byte   N07 ,Fs1
 .byte   W24
 .byte   N32 ,Cs2 ,v085 ,gtp1
 .byte   N06 ,Dn1
 .byte   W24
@  #10 @018   ----------------------------------------
 .byte   Cn1
 .byte   N07 ,Fs1
 .byte   W12
 .byte   N08 ,As1
 .byte   W12
 .byte   N07 ,Fs1
 .byte   W08
 .byte   N06 ,Cn1
 .byte   N07 ,Fs1
 .byte   W04
 .byte   N08 ,As1
 .byte   W12
 .byte   N07 ,Fs1
 .byte   N06 ,Cn1
 .byte   W08
 .byte   N07 ,Fs1
 .byte   W04
 .byte   N08 ,As1
 .byte   W12
 .byte   N07 ,Fs1
 .byte   W08
 .byte   Fs1
 .byte   N06 ,Cn1
 .byte   W04
 .byte   N08 ,As1
 .byte   W12
@  #10 @019   ----------------------------------------
 .byte   N06 ,Cn1
 .byte   N07 ,Fs1
 .byte   W12
 .byte   N08 ,As1
 .byte   W12
 .byte   N07 ,Fs1
 .byte   N06 ,Cn1
 .byte   W08
 .byte   N07 ,Fs1
 .byte   W04
 .byte   N08 ,As1
 .byte   W08
 .byte   N06 ,Cn1
 .byte   W04
 .byte   N07 ,Fs1
 .byte   W08
 .byte   Fs1
 .byte   W04
 .byte   N08 ,As1
 .byte   W12
 .byte   N07 ,Fs1
 .byte   W08
 .byte   N06 ,Cn1
 .byte   N07 ,Fs1
 .byte   W04
 .byte   N08 ,As1
 .byte   W12
@  #10 @020   ----------------------------------------
 .byte   N07 ,Fs1
 .byte   N06 ,Cn1
 .byte   W12
 .byte   N08 ,As1
 .byte   W12
 .byte   N07 ,Fs1
 .byte   W08
 .byte   Fs1
 .byte   N06 ,Cn1
 .byte   W04
 .byte   N08 ,As1
 .byte   W12
 .byte   N07 ,Fs1
 .byte   N06 ,Cn1
 .byte   W08
 .byte   N07 ,Fs1
 .byte   W04
 .byte   N08 ,As1
 .byte   W12
 .byte   N07 ,Fs1
 .byte   W08
 .byte   Fs1
 .byte   N06 ,Cn1
 .byte   W04
 .byte   N08 ,As1
 .byte   W12
@  #10 @021   ----------------------------------------
 .byte   N06 ,An1
 .byte   W12
 .byte   N07 ,Fs1
 .byte   N06 ,Cn1
 .byte   W08
 .byte   Cn2
 .byte   W12
 .byte   Cn1
 .byte   W04
 .byte   N07 ,Fs1
 .byte   N06 ,Gn1
 .byte   W12
 .byte   Cn1
 .byte   W08
 .byte   Cn2
 .byte   W04
 .byte   N07 ,Fs1
 .byte   W08
 .byte   N06 ,Cn1
 .byte   W04
 .byte   Gn1
 .byte   W12
 .byte   Gn2
 .byte   N07 ,Fs1
 .byte   N02 ,Dn1 ,v072
 .byte   W02
 .byte   N04
 .byte   W04
 .byte   N02
 .byte   W02
 .byte   N04
 .byte   W03
 .byte   N06 ,Ds2 ,v100
 .byte   W01
@  #10 @022   ----------------------------------------
Label_010263B4:
 .byte   N06 ,Cn1 ,v085
 .byte   W11
 .byte   Ds2
 .byte   W08
 .byte   N04
 .byte   W04
 .byte   N02 ,Ds2 ,v100
 .byte   W12
 .byte   N06 ,Ds2 ,v085
 .byte   W08
 .byte   N04
 .byte   W04
 .byte   N02 ,Ds2 ,v100
 .byte   W09
 .byte   N06 ,Cn1 ,v085
 .byte   W03
 .byte   Ds2
 .byte   W08
 .byte   Ds2
 .byte   W05
 .byte   Cn1
 .byte   W07
 .byte   N04 ,Ds2 ,v100
 .byte   W04
 .byte   N02 ,Ds2 ,v085
 .byte   W12
 .byte   N06 ,Ds2 ,v100
 .byte   W01
 .byte   PEND 
@  #10 @023   ----------------------------------------
Label_010263E1:
 .byte   N06 ,Cn1 ,v085
 .byte   W11
 .byte   Ds2
 .byte   W08
 .byte   N04
 .byte   W04
 .byte   N02 ,Ds2 ,v100
 .byte   W12
 .byte   N06 ,Ds2 ,v085
 .byte   W08
 .byte   N04
 .byte   W04
 .byte   N02 ,Ds2 ,v100
 .byte   W01
 .byte   N06 ,Cn1 ,v085
 .byte   W11
 .byte   Ds2
 .byte   W01
 .byte   Cn1
 .byte   W07
 .byte   Ds2
 .byte   W12
 .byte   N04 ,Ds2 ,v100
 .byte   W01
 .byte   N06 ,Cn1 ,v085
 .byte   W03
 .byte   N02 ,Ds2
 .byte   W09
 .byte   N04 ,Cn1
 .byte   W04
 .byte   PEND 
@  #10 @024   ----------------------------------------
 .byte   N02
 .byte   W08
 .byte   N06 ,Dn1
 .byte   W04
 .byte   N07 ,Fs1
 .byte   N06 ,Gn1
 .byte   W08
 .byte   Fn1
 .byte   W04
 .byte   Cn1
 .byte   W12
 .byte   N07 ,Fs1
 .byte   N06 ,Gn2
 .byte   W12
 .byte   N02 ,Dn1 ,v072
 .byte   W02
 .byte   N04
 .byte   W04
 .byte   N02
 .byte   W02
 .byte   N04
 .byte   W04
 .byte   N07 ,Fs1 ,v085
 .byte   N02 ,Dn1
 .byte   W12
 .byte   N07 ,Fs1
 .byte   W08
 .byte   N04 ,As1
 .byte   N06 ,Cn1
 .byte   W04
 .byte   En2
 .byte   N04 ,As1
 .byte   W08
 .byte   N07 ,Fs1
 .byte   W03
 .byte   N06 ,Ds2 ,v100
 .byte   W01
@  #10 @025   ----------------------------------------
Label_01026446:
 .byte   N06 ,Cn1 ,v085
 .byte   W11
 .byte   Ds2
 .byte   W08
 .byte   N04
 .byte   W04
 .byte   N02 ,Ds2 ,v100
 .byte   W12
 .byte   N06 ,Ds2 ,v085
 .byte   W08
 .byte   N04
 .byte   W04
 .byte   N02 ,Ds2 ,v100
 .byte   W09
 .byte   N06 ,Cn1 ,v085
 .byte   W03
 .byte   Ds2
 .byte   W08
 .byte   Ds2
 .byte   W05
 .byte   Cn1
 .byte   W07
 .byte   N04 ,Ds2 ,v100
 .byte   W04
 .byte   N02 ,Ds2 ,v085
 .byte   W09
 .byte   N04 ,Cn1
 .byte   W03
 .byte   N06 ,Ds2 ,v100
 .byte   W01
 .byte   PEND 
@  #10 @026   ----------------------------------------
Label_01026476:
 .byte   N02 ,Cn1 ,v085
 .byte   W11
 .byte   N06 ,Ds2
 .byte   W08
 .byte   N04
 .byte   W04
 .byte   N02 ,Ds2 ,v100
 .byte   W12
 .byte   N06 ,Ds2 ,v085
 .byte   W08
 .byte   N04
 .byte   W04
 .byte   N02 ,Ds2 ,v100
 .byte   W09
 .byte   N06 ,Cn1 ,v085
 .byte   W03
 .byte   Ds2
 .byte   W08
 .byte   Ds2
 .byte   W05
 .byte   Cn1
 .byte   W07
 .byte   N04 ,Ds2 ,v100
 .byte   W04
 .byte   N02 ,Ds2 ,v085
 .byte   W12
 .byte   N06 ,Ds2 ,v100
 .byte   W01
 .byte   PEND 
@  #10 @027   ----------------------------------------
 .byte   PATT
  .word Label_010263E1
@  #10 @028   ----------------------------------------
 .byte   N08 ,As1 ,v085
 .byte   N02 ,Cn1
 .byte   W12
 .byte   N07 ,Fs1
 .byte   W08
 .byte   Fs1
 .byte   W04
 .byte   N06 ,Cn1
 .byte   N08 ,As1
 .byte   W12
 .byte   N07 ,Fs1
 .byte   W08
 .byte   Fs1
 .byte   W04
 .byte   N08 ,As1
 .byte   N06 ,Cn1
 .byte   W12
 .byte   N07 ,Fs1
 .byte   W08
 .byte   Fs1
 .byte   W04
 .byte   N08 ,As1
 .byte   N06 ,Cn1
 .byte   W12
 .byte   N07 ,Fs1
 .byte   W08
 .byte   Fs1
 .byte   W04
@  #10 @029   ----------------------------------------
 .byte   N08 ,As1
 .byte   N06 ,Cn1
 .byte   W12
 .byte   N07 ,Fs1
 .byte   W08
 .byte   Fs1
 .byte   W04
 .byte   N08 ,As1
 .byte   N06 ,Cn1
 .byte   W12
 .byte   N07 ,Fs1
 .byte   W08
 .byte   Fs1
 .byte   W04
 .byte   N06 ,Cn1
 .byte   N08 ,As1
 .byte   W08
 .byte   N06 ,Dn1
 .byte   W04
 .byte   Cn1
 .byte   N07 ,Fs1
 .byte   W08
 .byte   Fs1
 .byte   N06 ,Cn1
 .byte   W04
 .byte   Dn1
 .byte   N08 ,As1
 .byte   W12
 .byte   N07 ,Fs1
 .byte   N06 ,Dn1
 .byte   W08
 .byte   Dn1
 .byte   N07 ,Fs1
 .byte   W04
@  #10 @030   ----------------------------------------
 .byte   N32 ,Cs2 ,v085 ,gtp1
 .byte   N06 ,An1
 .byte   N06 ,Cn1
 .byte   W12
 .byte   N07 ,Fs1
 .byte   N06 ,An1
 .byte   W12
 .byte   Cn1
 .byte   N06 ,Gn1
 .byte   W07
 .byte   Ds2
 .byte   W05
 .byte   N07 ,Fs1
 .byte   N06 ,Bn1
 .byte   W07
 .byte   Ds2 ,v072
 .byte   W01
 .byte   Gn1 ,v085
 .byte   W04
 .byte   Cn1
 .byte   N06 ,An1
 .byte   W08
 .byte   An1
 .byte   W04
 .byte   N07 ,Fs1
 .byte   N06 ,Gn1
 .byte   W07
 .byte   Ds2
 .byte   W05
 .byte   Cn1
 .byte   N06 ,An1
 .byte   W08
 .byte   Fn1
 .byte   W04
 .byte   N07 ,Fs1
 .byte   N06 ,An1
 .byte   W08
 .byte   Fn1 ,v072
 .byte   W04
@  #10 @031   ----------------------------------------
 .byte   Cn1 ,v085
 .byte   N06 ,An1
 .byte   W12
 .byte   N07 ,Fs1
 .byte   N06 ,An1
 .byte   W12
 .byte   Cn1
 .byte   N06 ,Gn1
 .byte   W07
 .byte   Ds2
 .byte   W05
 .byte   N07 ,Fs1
 .byte   N06 ,Bn1
 .byte   W07
 .byte   Ds2 ,v072
 .byte   W01
 .byte   Gn1 ,v085
 .byte   W04
 .byte   An1
 .byte   N06 ,Cn1
 .byte   W08
 .byte   An1
 .byte   W04
 .byte   N07 ,Fs1
 .byte   N06 ,Gn1
 .byte   W07
 .byte   Ds2
 .byte   W05
 .byte   Cn1
 .byte   N06 ,An1
 .byte   W08
 .byte   Fn1
 .byte   W04
 .byte   N07 ,Fs1
 .byte   N06 ,An1
 .byte   W08
 .byte   Fn1 ,v072
 .byte   W04
@  #10 @032   ----------------------------------------
 .byte   N32 ,Cs2 ,v085 ,gtp1
 .byte   N06 ,An1
 .byte   N06 ,Cn1
 .byte   W12
 .byte   An1
 .byte   N07 ,Fs1
 .byte   W12
 .byte   N06 ,Cn1
 .byte   N06 ,Gn1
 .byte   W07
 .byte   Ds2
 .byte   W05
 .byte   Bn1
 .byte   N07 ,Fs1
 .byte   W07
 .byte   N06 ,Ds2 ,v072
 .byte   W01
 .byte   Gn1 ,v085
 .byte   W04
 .byte   An1
 .byte   N06 ,Cn1
 .byte   W08
 .byte   An1
 .byte   W04
 .byte   N07 ,Fs1
 .byte   N06 ,Gn1
 .byte   W07
 .byte   Ds2
 .byte   W05
 .byte   Cn1
 .byte   N06 ,An1
 .byte   W08
 .byte   Fn1
 .byte   W04
 .byte   N07 ,Fs1
 .byte   N06 ,An1
 .byte   W08
 .byte   Fn1 ,v072
 .byte   W04
@  #10 @033   ----------------------------------------
 .byte   An1 ,v085
 .byte   N06 ,Cn1
 .byte   W12
 .byte   An1
 .byte   N07 ,Fs1
 .byte   W12
 .byte   N06 ,Gn1
 .byte   N06 ,Cn1
 .byte   W07
 .byte   Ds2
 .byte   W05
 .byte   N07 ,Fs1
 .byte   N06 ,Bn1
 .byte   W07
 .byte   Ds2 ,v072
 .byte   W01
 .byte   Gn1 ,v085
 .byte   W04
 .byte   Cn1
 .byte   N06 ,An1
 .byte   W08
 .byte   An1
 .byte   W04
 .byte   Gn1
 .byte   N07 ,Fs1
 .byte   W07
 .byte   N06 ,Ds2
 .byte   W05
 .byte   Cn1
 .byte   N06 ,An1
 .byte   W08
 .byte   Fn1
 .byte   W04
 .byte   An1
 .byte   N07 ,Fs1
 .byte   W08
 .byte   N06 ,Fn1 ,v072
 .byte   W04
@  #10 @034   ----------------------------------------
 .byte   An1 ,v085
 .byte   N06 ,Cn1
 .byte   W12
 .byte   N07 ,Fs1
 .byte   N06 ,An1
 .byte   W12
 .byte   Cn1
 .byte   N06 ,Gn1
 .byte   W07
 .byte   Ds2
 .byte   W05
 .byte   N07 ,Fs1
 .byte   N06 ,Bn1
 .byte   W07
 .byte   Ds2 ,v072
 .byte   W01
 .byte   Gn1 ,v085
 .byte   W04
 .byte   Cn1
 .byte   N06 ,An1
 .byte   W08
 .byte   An1
 .byte   W04
 .byte   N07 ,Fs1
 .byte   N06 ,Gn1
 .byte   W07
 .byte   Ds2
 .byte   W05
 .byte   Cn1
 .byte   N06 ,An1
 .byte   W08
 .byte   Fn1
 .byte   W04
 .byte   N07 ,Fs1
 .byte   N06 ,An1
 .byte   W08
 .byte   Fn1 ,v072
 .byte   W04
@  #10 @035   ----------------------------------------
 .byte   Cn1 ,v085
 .byte   N06 ,An1
 .byte   W12
 .byte   N07 ,Fs1
 .byte   N06 ,An1
 .byte   W12
 .byte   Cn1
 .byte   N06 ,Gn1
 .byte   W07
 .byte   Ds2
 .byte   W05
 .byte   Bn1
 .byte   N07 ,Fs1
 .byte   W07
 .byte   N06 ,Ds2 ,v072
 .byte   W01
 .byte   Gn1 ,v085
 .byte   W04
 .byte   An1
 .byte   N06 ,Cn1
 .byte   W08
 .byte   An1
 .byte   W04
 .byte   N07 ,Fs1
 .byte   N06 ,Gn1
 .byte   W07
 .byte   Ds2
 .byte   W05
 .byte   An1
 .byte   N06 ,Cn1
 .byte   W08
 .byte   Fn1
 .byte   W04
 .byte   N07 ,Fs1
 .byte   N06 ,An1
 .byte   W08
 .byte   Fn1 ,v072
 .byte   W04
@  #10 @036   ----------------------------------------
 .byte   Cn1 ,v085
 .byte   N32 ,Cs2 ,v085 ,gtp1
 .byte   N06 ,An1
 .byte   W12
 .byte   Ds1
 .byte   N06 ,An1
 .byte   N07 ,Fs1
 .byte   W12
 .byte   N06 ,Cn1
 .byte   N06 ,Gn1
 .byte   W07
 .byte   Ds2
 .byte   W05
 .byte   N07 ,Fs1
 .byte   N06 ,Ds1
 .byte   N06 ,Bn1
 .byte   W07
 .byte   Ds2 ,v072
 .byte   W01
 .byte   Gn1 ,v085
 .byte   W04
 .byte   An1
 .byte   N06 ,Cn1
 .byte   W08
 .byte   An1
 .byte   W04
 .byte   N07 ,Fs1
 .byte   N06 ,Ds1
 .byte   N06 ,Gn1
 .byte   W07
 .byte   Ds2
 .byte   W05
 .byte   Cn1
 .byte   N06 ,An1
 .byte   W08
 .byte   Fn1
 .byte   W04
 .byte   An1
 .byte   N06 ,Ds1
 .byte   N07 ,Fs1
 .byte   W08
 .byte   N06 ,Fn1 ,v072
 .byte   W04
@  #10 @037   ----------------------------------------
 .byte   An1 ,v085
 .byte   N06 ,Cn1
 .byte   W12
 .byte   N07 ,Fs1
 .byte   N06 ,Ds1
 .byte   N06 ,An1
 .byte   W12
 .byte   Cn1
 .byte   N06 ,Gn1
 .byte   W07
 .byte   Ds2
 .byte   W05
 .byte   N07 ,Fs1
 .byte   N06 ,Ds1
 .byte   N06 ,Bn1
 .byte   W07
 .byte   Ds2 ,v072
 .byte   W01
 .byte   Gn1 ,v085
 .byte   W04
 .byte   Cn1
 .byte   N06 ,An1
 .byte   W08
 .byte   An1
 .byte   W04
 .byte   N07 ,Fs1
 .byte   N06 ,Gn1
 .byte   N06 ,Ds1
 .byte   W07
 .byte   Ds2
 .byte   W05
 .byte   Cn1
 .byte   N06 ,An1
 .byte   W08
 .byte   Fn1
 .byte   W04
 .byte   N07 ,Fs1
 .byte   N06 ,An1
 .byte   N06 ,Ds1
 .byte   W08
 .byte   Fn1 ,v072
 .byte   W04
@  #10 @038   ----------------------------------------
 .byte   Cn1 ,v085
 .byte   N06 ,An1
 .byte   W12
 .byte   Ds1
 .byte   N06 ,An1
 .byte   N07 ,Fs1
 .byte   W12
 .byte   N06 ,Cn1
 .byte   N06 ,Gn1
 .byte   W07
 .byte   Ds2
 .byte   W05
 .byte   N07 ,Fs1
 .byte   N06 ,Bn1
 .byte   N06 ,Ds1
 .byte   W07
 .byte   Ds2 ,v072
 .byte   W01
 .byte   Gn1 ,v085
 .byte   W04
 .byte   An1
 .byte   N06 ,Cn1
 .byte   W08
 .byte   An1
 .byte   W04
 .byte   N07 ,Fs1
 .byte   N06 ,Ds1
 .byte   N06 ,Gn1
 .byte   W07
 .byte   Ds2
 .byte   W05
 .byte   Cn1
 .byte   N06 ,An1
 .byte   W08
 .byte   Fn1
 .byte   W04
 .byte   Ds1
 .byte   N06 ,An1
 .byte   N07 ,Fs1
 .byte   W08
 .byte   N06 ,Fn1 ,v072
 .byte   W04
@  #10 @039   ----------------------------------------
 .byte   An1 ,v085
 .byte   N06 ,Cn1
 .byte   W12
 .byte   N07 ,Fs1
 .byte   N06 ,Ds1
 .byte   N06 ,An1
 .byte   W12
 .byte   Cn1
 .byte   N06 ,Gn1
 .byte   W07
 .byte   Ds2
 .byte   W05
 .byte   Ds1
 .byte   N06 ,Bn1
 .byte   N07 ,Fs1
 .byte   W07
 .byte   N06 ,Ds2 ,v072
 .byte   W01
 .byte   Gn1 ,v085
 .byte   W04
 .byte   An1
 .byte   W02
 .byte   Cn2
 .byte   W04
 .byte   Bn1
 .byte   W02
 .byte   An1
 .byte   W04
 .byte   N08 ,As1
 .byte   N06 ,Dn1
 .byte   W12
 .byte   N07 ,Fs1 ,v006
 .byte   W24
@  #10 @040   ----------------------------------------
 .byte   PATT
  .word Label_01026224
@  #10 @041   ----------------------------------------
 .byte   N07 ,Fs1 ,v085
 .byte   N06 ,Cn1
 .byte   W12
 .byte   N08 ,As1
 .byte   W12
 .byte   N06 ,Cn1
 .byte   N07 ,Fs1
 .byte   W08
 .byte   Fs1
 .byte   W04
 .byte   N08 ,As1
 .byte   W12
 .byte   N07 ,Fs1
 .byte   N06 ,Cn1
 .byte   W08
 .byte   N07 ,Fs1
 .byte   W04
 .byte   N08 ,As1
 .byte   N32 ,Cs2 ,v085 ,gtp1
 .byte   W12
 .byte   N07 ,Fs1
 .byte   N06 ,Cn1
 .byte   W08
 .byte   N07 ,Fs1
 .byte   W04
 .byte   N08 ,As1
 .byte   W12
@  #10 @042   ----------------------------------------
 .byte   N07 ,Fs1
 .byte   N06 ,Cn1
 .byte   W12
 .byte   N08 ,As1
 .byte   W12
 .byte   N06 ,Cn1
 .byte   N07 ,Fs1
 .byte   W08
 .byte   Fs1
 .byte   W04
 .byte   N08 ,As1
 .byte   W12
 .byte   N06 ,Cn1
 .byte   N07 ,Fs1
 .byte   W08
 .byte   Fs1
 .byte   W04
 .byte   N08 ,As1
 .byte   W12
 .byte   N06 ,Cn1
 .byte   N07 ,Fs1
 .byte   W08
 .byte   Fs1
 .byte   W04
 .byte   N08 ,As1
 .byte   W12
@  #10 @043   ----------------------------------------
 .byte   N07 ,Fs1
 .byte   N06 ,Cn1
 .byte   W04
 .byte   N08 ,As1 ,v059
 .byte   W04
 .byte   N07 ,Fs1
 .byte   W04
 .byte   N08 ,As1 ,v085
 .byte   W12
 .byte   N07 ,Fs1
 .byte   N06 ,Cn1
 .byte   W08
 .byte   N08 ,As1
 .byte   N06 ,Cn1
 .byte   W04
 .byte   N07 ,Fs1
 .byte   W08
 .byte   N06 ,Cn1
 .byte   N08 ,As1
 .byte   W04
 .byte   N07 ,Fs1
 .byte   W20
 .byte   Fs1
 .byte   W04
 .byte   N06 ,An1
 .byte   W12
 .byte   Gn1
 .byte   W12
@  #10 @044   ----------------------------------------
 .byte   PATT
  .word Label_01026279
@  #10 @045   ----------------------------------------
 .byte   N06 ,Cn1 ,v085
 .byte   N07 ,Fs1
 .byte   W12
 .byte   N08 ,As1
 .byte   W12
 .byte   N06 ,Cn1
 .byte   N07 ,Fs1
 .byte   W08
 .byte   Fs1
 .byte   W04
 .byte   N08 ,As1
 .byte   W08
 .byte   N06 ,Cn1
 .byte   W04
 .byte   N07 ,Fs1
 .byte   W08
 .byte   Fs1
 .byte   W04
 .byte   N08 ,As1
 .byte   W12
 .byte   N07 ,Fs1
 .byte   W08
 .byte   N06 ,Cn1
 .byte   N07 ,Fs1
 .byte   W04
 .byte   N08 ,As1
 .byte   W12
@  #10 @046   ----------------------------------------
 .byte   N06 ,Cn1
 .byte   N07 ,Fs1
 .byte   W12
 .byte   N08 ,As1
 .byte   W12
 .byte   N07 ,Fs1
 .byte   W08
 .byte   Fs1
 .byte   N06 ,Cn1
 .byte   W04
 .byte   N08 ,As1
 .byte   W12
 .byte   N07 ,Fs1
 .byte   N06 ,Cn1
 .byte   W08
 .byte   N07 ,Fs1
 .byte   W04
 .byte   N08 ,As1
 .byte   W12
 .byte   N07 ,Fs1
 .byte   W08
 .byte   N06 ,Cn1
 .byte   N07 ,Fs1
 .byte   W04
 .byte   N08 ,As1
 .byte   W12
@  #10 @047   ----------------------------------------
 .byte   N07 ,Fs1
 .byte   N06 ,Cn1
 .byte   W12
 .byte   N08 ,As1
 .byte   W12
 .byte   N06 ,Cn1
 .byte   N07 ,Fs1
 .byte   W08
 .byte   Fs1
 .byte   W04
 .byte   N08 ,As1
 .byte   W08
 .byte   N06 ,Cn1
 .byte   W04
 .byte   N07 ,Fs1
 .byte   W24
 .byte   N06 ,Dn1
 .byte   N32 ,Cs2 ,v085 ,gtp1
 .byte   W24
@  #10 @048   ----------------------------------------
 .byte   N06 ,Cn1
 .byte   N07 ,Fs1
 .byte   W12
 .byte   N08 ,As1
 .byte   W12
 .byte   N07 ,Fs1
 .byte   W08
 .byte   N06 ,Cn1
 .byte   N07 ,Fs1
 .byte   W04
 .byte   N08 ,As1
 .byte   W12
 .byte   N07 ,Fs1
 .byte   N06 ,Cn1
 .byte   W08
 .byte   N07 ,Fs1
 .byte   W04
 .byte   N08 ,As1
 .byte   W12
 .byte   N07 ,Fs1
 .byte   W08
 .byte   N06 ,Cn1
 .byte   N07 ,Fs1
 .byte   W04
 .byte   N08 ,As1
 .byte   W12
@  #10 @049   ----------------------------------------
 .byte   N07 ,Fs1
 .byte   N06 ,Cn1
 .byte   W12
 .byte   N08 ,As1
 .byte   W12
 .byte   N07 ,Fs1
 .byte   N06 ,Cn1
 .byte   W08
 .byte   N07 ,Fs1
 .byte   W04
 .byte   N08 ,As1
 .byte   W08
 .byte   N06 ,Cn1
 .byte   W04
 .byte   N07 ,Fs1
 .byte   W08
 .byte   Fs1
 .byte   W04
 .byte   N08 ,As1
 .byte   W12
 .byte   N07 ,Fs1
 .byte   W08
 .byte   Fs1
 .byte   N06 ,Cn1
 .byte   W04
 .byte   N08 ,As1
 .byte   W12
@  #10 @050   ----------------------------------------
 .byte   N06 ,Cn1
 .byte   N07 ,Fs1
 .byte   W12
 .byte   N08 ,As1
 .byte   W12
 .byte   N07 ,Fs1
 .byte   W08
 .byte   N06 ,Cn1
 .byte   N07 ,Fs1
 .byte   W04
 .byte   N08 ,As1
 .byte   W12
 .byte   N06 ,Cn1
 .byte   N07 ,Fs1
 .byte   W08
 .byte   Fs1
 .byte   W04
 .byte   N08 ,As1
 .byte   W12
 .byte   N07 ,Fs1
 .byte   W08
 .byte   N06 ,Cn1
 .byte   N07 ,Fs1
 .byte   W04
 .byte   N08 ,As1
 .byte   W12
@  #10 @051   ----------------------------------------
 .byte   N06 ,An1
 .byte   W12
 .byte   N07 ,Fs1
 .byte   N06 ,Cn1
 .byte   W08
 .byte   Cn2
 .byte   W12
 .byte   Cn1
 .byte   W04
 .byte   Gn1
 .byte   N07 ,Fs1
 .byte   W12
 .byte   N06 ,Cn1
 .byte   W08
 .byte   Cn2
 .byte   W04
 .byte   N07 ,Fs1
 .byte   W08
 .byte   N06 ,Cn1
 .byte   W04
 .byte   Gn1
 .byte   W12
 .byte   Gn2
 .byte   N07 ,Fs1
 .byte   N02 ,Dn1 ,v072
 .byte   W02
 .byte   N04
 .byte   W04
 .byte   N02
 .byte   W02
 .byte   N04
 .byte   W03
 .byte   N06 ,Ds2 ,v100
 .byte   W01
@  #10 @052   ----------------------------------------
 .byte   PATT
  .word Label_010263B4
@  #10 @053   ----------------------------------------
 .byte   PATT
  .word Label_010263E1
@  #10 @054   ----------------------------------------
 .byte   N02 ,Cn1 ,v085
 .byte   W08
 .byte   N06 ,Dn1
 .byte   W04
 .byte   Gn1
 .byte   N07 ,Fs1
 .byte   W08
 .byte   N06 ,Fn1
 .byte   W04
 .byte   Cn1
 .byte   W12
 .byte   Gn2
 .byte   N07 ,Fs1
 .byte   W12
 .byte   N02 ,Dn1 ,v072
 .byte   W02
 .byte   N04
 .byte   W04
 .byte   N02
 .byte   W02
 .byte   N04
 .byte   W04
 .byte   N07 ,Fs1 ,v085
 .byte   N02 ,Dn1
 .byte   W12
 .byte   N07 ,Fs1
 .byte   W08
 .byte   N04 ,As1
 .byte   N06 ,Cn1
 .byte   W04
 .byte   En2
 .byte   N04 ,As1
 .byte   W08
 .byte   N07 ,Fs1
 .byte   W03
 .byte   N06 ,Ds2 ,v100
 .byte   W01
@  #10 @055   ----------------------------------------
 .byte   PATT
  .word Label_01026446
@  #10 @056   ----------------------------------------
 .byte   PATT
  .word Label_01026476
@  #10 @057   ----------------------------------------
 .byte   PATT
  .word Label_010263E1
@  #10 @058   ----------------------------------------
 .byte   N02 ,Cn1 ,v085
 .byte   N08 ,As1
 .byte   W12
 .byte   N07 ,Fs1
 .byte   W08
 .byte   Fs1
 .byte   W04
 .byte   N08 ,As1
 .byte   N06 ,Cn1
 .byte   W12
 .byte   N07 ,Fs1
 .byte   W08
 .byte   Fs1
 .byte   W04
 .byte   N06 ,Cn1
 .byte   N08 ,As1
 .byte   W12
 .byte   N07 ,Fs1
 .byte   W08
 .byte   Fs1
 .byte   W04
 .byte   N08 ,As1
 .byte   N06 ,Cn1
 .byte   W12
 .byte   N07 ,Fs1
 .byte   W08
 .byte   Fs1
 .byte   W04
@  #10 @059   ----------------------------------------
 .byte   N08 ,As1
 .byte   N06 ,Cn1
 .byte   W12
 .byte   N07 ,Fs1
 .byte   W08
 .byte   Fs1
 .byte   W04
 .byte   N06 ,Cn1
 .byte   N08 ,As1
 .byte   W12
 .byte   N07 ,Fs1
 .byte   W08
 .byte   Fs1
 .byte   W04
 .byte   N06 ,Cn1
 .byte   N08 ,As1
 .byte   W08
 .byte   N06 ,Dn1
 .byte   W04
 .byte   N07 ,Fs1
 .byte   N06 ,Cn1
 .byte   W08
 .byte   Cn1
 .byte   N07 ,Fs1
 .byte   W04
 .byte   N08 ,As1
 .byte   N06 ,Dn1
 .byte   W12
 .byte   Dn1
 .byte   N07 ,Fs1
 .byte   W08
 .byte   Fs1
 .byte   N06 ,Dn1
 .byte   W04
@  #10 @060   ----------------------------------------
 .byte   An1
 .byte   N06 ,Cn1
 .byte   N32 ,Cs2 ,v085 ,gtp1
 .byte   W12
 .byte   N06 ,An1
 .byte   N07 ,Fs1
 .byte   W12
 .byte   N06 ,Gn1
 .byte   N06 ,Cn1
 .byte   W07
 .byte   Ds2
 .byte   W05
 .byte   N07 ,Fs1
 .byte   N06 ,Bn1
 .byte   W07
 .byte   Ds2 ,v072
 .byte   W01
 .byte   Gn1 ,v085
 .byte   W04
 .byte   Cn1
 .byte   N06 ,An1
 .byte   W08
 .byte   An1
 .byte   W04
 .byte   Gn1
 .byte   N07 ,Fs1
 .byte   W07
 .byte   N06 ,Ds2
 .byte   W05
 .byte   An1
 .byte   N06 ,Cn1
 .byte   W08
 .byte   Fn1
 .byte   W04
 .byte   An1
 .byte   N07 ,Fs1
 .byte   W08
 .byte   N06 ,Fn1 ,v072
 .byte   W04
@  #10 @061   ----------------------------------------
 .byte   Cn1 ,v085
 .byte   N06 ,An1
 .byte   W12
 .byte   An1
 .byte   N07 ,Fs1
 .byte   W12
 .byte   N06 ,Gn1
 .byte   N06 ,Cn1
 .byte   W07
 .byte   Ds2
 .byte   W05
 .byte   Bn1
 .byte   N07 ,Fs1
 .byte   W07
 .byte   N06 ,Ds2 ,v072
 .byte   W01
 .byte   Gn1 ,v085
 .byte   W04
 .byte   Cn1
 .byte   N06 ,An1
 .byte   W08
 .byte   An1
 .byte   W04
 .byte   N07 ,Fs1
 .byte   N06 ,Gn1
 .byte   W07
 .byte   Ds2
 .byte   W05
 .byte   An1
 .byte   N06 ,Cn1
 .byte   W08
 .byte   Fn1
 .byte   W04
 .byte   An1
 .byte   N07 ,Fs1
 .byte   W08
 .byte   N06 ,Fn1 ,v072
 .byte   W04
@  #10 @062   ----------------------------------------
 .byte   Cn1 ,v085
 .byte   N32 ,Cs2 ,v085 ,gtp1
 .byte   N06 ,An1
 .byte   GOTO
  .word Label_0102600D
@  #10 @063   ----------------------------------------
 .byte   W12
 .byte   An1
 .byte   N07 ,Fs1
 .byte   W12
 .byte   N06 ,Gn1
 .byte   N06 ,Cn1
 .byte   W07
 .byte   Ds2
 .byte   W05
 .byte   N07 ,Fs1
 .byte   N06 ,Bn1
 .byte   W07
 .byte   Ds2 ,v072
 .byte   W01
 .byte   Gn1 ,v085
 .byte   W04
 .byte   An1
 .byte   N06 ,Cn1
 .byte   W08
 .byte   An1
 .byte   W04
 .byte   Gn1
 .byte   N07 ,Fs1
 .byte   W07
 .byte   N06 ,Ds2
 .byte   W05
 .byte   Cn1
 .byte   N06 ,An1
 .byte   W08
 .byte   Fn1
 .byte   W04
 .byte   An1
 .byte   N07 ,Fs1
 .byte   W08
 .byte   N06 ,Fn1 ,v072
 .byte   W04
@  #10 @064   ----------------------------------------
 .byte   An1 ,v085
 .byte   N06 ,Cn1
 .byte   W12
 .byte   N07 ,Fs1
 .byte   N06 ,An1
 .byte   W12
 .byte   Cn1
 .byte   N06 ,Gn1
 .byte   W07
 .byte   Ds2
 .byte   W05
 .byte   Bn1
 .byte   N07 ,Fs1
 .byte   W07
 .byte   N06 ,Ds2 ,v072
 .byte   W01
 .byte   Gn1 ,v085
 .byte   W04
 .byte   An1
 .byte   N06 ,Cn1
 .byte   W08
 .byte   An1
 .byte   W04
 .byte   N07 ,Fs1
 .byte   N06 ,Gn1
 .byte   W07
 .byte   Ds2
 .byte   W05
 .byte   Cn1
 .byte   N06 ,An1
 .byte   W08
 .byte   Fn1
 .byte   W04
 .byte   N07 ,Fs1
 .byte   N06 ,An1
 .byte   W08
 .byte   Fn1 ,v072
 .byte   W04
@  #10 @065   ----------------------------------------
 .byte   Cn1 ,v085
 .byte   N06 ,An1
 .byte   W12
 .byte   N07 ,Fs1
 .byte   N06 ,An1
 .byte   W12
 .byte   Cn1
 .byte   N06 ,Gn1
 .byte   W07
 .byte   Ds2
 .byte   W05
 .byte   Bn1
 .byte   N07 ,Fs1
 .byte   W07
 .byte   N06 ,Ds2 ,v072
 .byte   W01
 .byte   Gn1 ,v085
 .byte   W04
 .byte   An1
 .byte   N06 ,Cn1
 .byte   W08
 .byte   An1
 .byte   W04
 .byte   Gn1
 .byte   N07 ,Fs1
 .byte   W07
 .byte   N06 ,Ds2
 .byte   W05
 .byte   Cn1
 .byte   N06 ,An1
 .byte   W08
 .byte   Fn1
 .byte   W04
 .byte   N07 ,Fs1
 .byte   N06 ,An1
 .byte   W08
 .byte   Fn1 ,v072
 .byte   W04
@  #10 @066   ----------------------------------------
 .byte   An1 ,v085
 .byte   N06 ,Cn1
 .byte   W12
 .byte   An1
 .byte   N07 ,Fs1
 .byte   W12
 .byte   N06 ,Cn1
 .byte   N06 ,Gn1
 .byte   W07
 .byte   Ds2
 .byte   W05
 .byte   N07 ,Fs1
 .byte   N06 ,Bn1
 .byte   W07
 .byte   Ds2 ,v072
 .byte   W01
 .byte   Gn1 ,v085
 .byte   W04
 .byte   Cn1
 .byte   N06 ,An1
 .byte   W08
 .byte   An1
 .byte   W04
 .byte   Gn1
 .byte   N07 ,Fs1
 .byte   W07
 .byte   N06 ,Ds2
 .byte   W05
 .byte   An1
 .byte   N06 ,Cn1
 .byte   W08
 .byte   Fn1
 .byte   W04
 .byte   N07 ,Fs1
 .byte   N06 ,An1
 .byte   W08
 .byte   Fn1 ,v072
 .byte   W04
@  #10 @067   ----------------------------------------
 .byte   An1 ,v085
 .byte   N32 ,Cs2 ,v085 ,gtp1
 .byte   N06 ,Cn1
 .byte   W12
 .byte   N07 ,Fs1
 .byte   N06 ,Ds1 ,v056
 .byte   N06 ,An1 ,v085
 .byte   W12
 .byte   Cn1
 .byte   N06 ,Gn1
 .byte   W07
 .byte   Ds2
 .byte   W05
 .byte   Ds1 ,v031
 .byte   N06 ,Bn1 ,v085
 .byte   N07 ,Fs1
 .byte   W07
 .byte   N06 ,Ds2 ,v072
 .byte   W01
 .byte   Gn1 ,v085
 .byte   W04
 .byte   An1
 .byte   N06 ,Cn1
 .byte   W08
 .byte   An1
 .byte   W04
 .byte   Ds1 ,v011
 .byte   N06 ,Gn1 ,v085
 .byte   N07 ,Fs1
 .byte   W07
 .byte   N06 ,Ds2
 .byte   W05
 .byte   An1
 .byte   N06 ,Cn1
 .byte   W08
 .byte   Fn1
 .byte   W04
 .byte   An1
 .byte   N06 ,Ds1 ,v005
 .byte   N07 ,Fs1 ,v085
 .byte   W08
 .byte   N06 ,Fn1 ,v072
 .byte   W04
@  #10 @068   ----------------------------------------
 .byte   Cn1 ,v085
 .byte   N06 ,An1
 .byte   W96
@  #10 @069   ----------------------------------------
 .byte   W96
@  #10 @070   ----------------------------------------
 .byte   W96
 .byte   FINE

@**************** Track 11 (Midi-Chn.10) ****************@

song02_011:
@  #11 @000   ----------------------------------------
 .byte   KEYSH , song02_key+0
 .byte   VOICE , 4
 .byte   PAN , c_v-13
 .byte   VOL , 47*song02_mvl/mxv
 .byte   BENDR, 12
 .byte   W96
@  #11 @001   ----------------------------------------
 .byte   W96
@  #11 @002   ----------------------------------------
Label_01026B38:
 .byte   W96
@  #11 @003   ----------------------------------------
 .byte   W96
@  #11 @004   ----------------------------------------
 .byte   W96
@  #11 @005   ----------------------------------------
 .byte   W96
@  #11 @006   ----------------------------------------
 .byte   W96
@  #11 @007   ----------------------------------------
 .byte   W96
@  #11 @008   ----------------------------------------
 .byte   W96
@  #11 @009   ----------------------------------------
 .byte   W96
@  #11 @010   ----------------------------------------
 .byte   W96
@  #11 @011   ----------------------------------------
 .byte   W96
@  #11 @012   ----------------------------------------
 .byte   W96
@  #11 @013   ----------------------------------------
 .byte   W96
@  #11 @014   ----------------------------------------
 .byte   W96
@  #11 @015   ----------------------------------------
 .byte   W96
@  #11 @016   ----------------------------------------
 .byte   W96
@  #11 @017   ----------------------------------------
 .byte   W96
@  #11 @018   ----------------------------------------
 .byte   W96
@  #11 @019   ----------------------------------------
 .byte   W96
@  #11 @020   ----------------------------------------
 .byte   W80
 .byte   N04 ,Fn3 ,v059
 .byte   N04 ,Fn4
 .byte   W04
 .byte   N02 ,Gn4
 .byte   N02 ,Gn3
 .byte   W02
 .byte   An3
 .byte   N02 ,An4
 .byte   W02
 .byte   Bn4
 .byte   N02 ,Bn3
 .byte   W02
 .byte   Cn4
 .byte   N02 ,Cn5
 .byte   W02
 .byte   Dn4
 .byte   N02 ,Dn5
 .byte   W02
 .byte   En4
 .byte   N02 ,En5
 .byte   W02
@  #11 @021   ----------------------------------------
 .byte   N18 ,En4 ,v085
 .byte   N18 ,Gn4
 .byte   N18 ,Gn5
 .byte   N18 ,En5
 .byte   W20
 .byte   N12 ,En4
 .byte   N12 ,En5
 .byte   N12 ,An5
 .byte   N12 ,An4
 .byte   W16
 .byte   En5
 .byte   N12 ,Gn4
 .byte   N12 ,Gn5
 .byte   N12 ,En4
 .byte   W12
 .byte   N18 ,Fn4
 .byte   N18 ,Dn4
 .byte   N18 ,Dn5
 .byte   N18 ,Fn5
 .byte   W20
 .byte   N12 ,Gn5
 .byte   N12 ,Gn4
 .byte   N12 ,Dn5
 .byte   N12 ,Dn4
 .byte   W16
 .byte   Dn4
 .byte   N12 ,Fn4
 .byte   N12 ,Dn5
 .byte   N12 ,Fn5
 .byte   W12
@  #11 @022   ----------------------------------------
Label_01026B9F:
 .byte   N96 ,Cn5 ,v059
 .byte   N96 ,Gn4
 .byte   N96 ,En5
 .byte   W96
 .byte   PEND 
@  #11 @023   ----------------------------------------
 .byte   Bn4
 .byte   N96 ,Gn4
 .byte   N96 ,Dn5
 .byte   W96
@  #11 @024   ----------------------------------------
 .byte   N48 ,En4
 .byte   N48 ,Gn4
 .byte   N24 ,Cn5
 .byte   W24
 .byte   Cs5
 .byte   W24
 .byte   N48 ,Fs4
 .byte   N24 ,Dn5
 .byte   N48 ,An4
 .byte   W24
 .byte   N24 ,Ds5
 .byte   W24
@  #11 @025   ----------------------------------------
 .byte   N20 ,Gn4
 .byte   N20 ,Bn4
 .byte   N20 ,En5
 .byte   W20
 .byte   N28
 .byte   N28 ,Bn4
 .byte   N28 ,Gn4
 .byte   W28
 .byte   N02 ,Fn5
 .byte   W02
 .byte   N04 ,Fs5
 .byte   W04
 .byte   N02 ,Fn5
 .byte   W02
 .byte   N04 ,Dn5
 .byte   W04
 .byte   N08 ,An5 ,v085
 .byte   W08
 .byte   N04 ,Dn5 ,v047
 .byte   W04
 .byte   N08 ,Gn5 ,v085
 .byte   W08
 .byte   N04 ,Fs5
 .byte   W16
@  #11 @026   ----------------------------------------
 .byte   W08
 .byte   Cn5
 .byte   N04 ,An4
 .byte   W16
 .byte   An4
 .byte   N04 ,Cn5
 .byte   W24
 .byte   Cn5
 .byte   N04 ,An4
 .byte   W12
 .byte   Cn5
 .byte   N04 ,An4
 .byte   W12
 .byte   N08 ,Dn5
 .byte   N04 ,Bn4
 .byte   W04
 .byte   Bn4
 .byte   W04
 .byte   Cn5
 .byte   N04 ,An4
 .byte   W16
@  #11 @027   ----------------------------------------
 .byte   N24 ,Dn5
 .byte   W24
 .byte   Gn5
 .byte   N24 ,En5
 .byte   W24
 .byte   Fs5
 .byte   N24 ,Dn5
 .byte   W24
 .byte   Bn4
 .byte   N24 ,Dn5
 .byte   W24
@  #11 @028   ----------------------------------------
 .byte   W96
@  #11 @029   ----------------------------------------
 .byte   W96
@  #11 @030   ----------------------------------------
 .byte   W96
@  #11 @031   ----------------------------------------
 .byte   W96
@  #11 @032   ----------------------------------------
 .byte   W96
@  #11 @033   ----------------------------------------
 .byte   W96
@  #11 @034   ----------------------------------------
 .byte   W96
@  #11 @035   ----------------------------------------
 .byte   W96
@  #11 @036   ----------------------------------------
 .byte   W96
@  #11 @037   ----------------------------------------
 .byte   W96
@  #11 @038   ----------------------------------------
 .byte   W96
@  #11 @039   ----------------------------------------
 .byte   W96
@  #11 @040   ----------------------------------------
 .byte   W96
@  #11 @041   ----------------------------------------
 .byte   W96
@  #11 @042   ----------------------------------------
 .byte   W96
@  #11 @043   ----------------------------------------
 .byte   W96
@  #11 @044   ----------------------------------------
 .byte   W96
@  #11 @045   ----------------------------------------
 .byte   W96
@  #11 @046   ----------------------------------------
 .byte   W96
@  #11 @047   ----------------------------------------
 .byte   W96
@  #11 @048   ----------------------------------------
 .byte   W96
@  #11 @049   ----------------------------------------
 .byte   W96
@  #11 @050   ----------------------------------------
 .byte   W80
 .byte   N04 ,Fn3 ,v059
 .byte   N04 ,Fn4
 .byte   W04
 .byte   N02 ,Gn3
 .byte   N02 ,Gn4
 .byte   W02
 .byte   An3
 .byte   N02 ,An4
 .byte   W02
 .byte   Bn3
 .byte   N02 ,Bn4
 .byte   W02
 .byte   Cn5
 .byte   N02 ,Cn4
 .byte   W02
 .byte   Dn4
 .byte   N02 ,Dn5
 .byte   W02
 .byte   En5
 .byte   N02 ,En4
 .byte   W02
@  #11 @051   ----------------------------------------
 .byte   N18 ,Gn4 ,v085
 .byte   N18 ,En5
 .byte   N18 ,Gn5
 .byte   N18 ,En4
 .byte   W20
 .byte   N12 ,En5
 .byte   N12 ,En4
 .byte   N12 ,An5
 .byte   N12 ,An4
 .byte   W16
 .byte   En4
 .byte   N12 ,En5
 .byte   N12 ,Gn5
 .byte   N12 ,Gn4
 .byte   W12
 .byte   N18 ,Dn4
 .byte   N18 ,Dn5
 .byte   N18 ,Fn4
 .byte   N18 ,Fn5
 .byte   W20
 .byte   N12 ,Gn5
 .byte   N12 ,Dn5
 .byte   N12 ,Dn4
 .byte   N12 ,Gn4
 .byte   W16
 .byte   Dn5
 .byte   N12 ,Fn4
 .byte   N12 ,Fn5
 .byte   N12 ,Dn4
 .byte   W12
@  #11 @052   ----------------------------------------
 .byte   PATT
  .word Label_01026B9F
@  #11 @053   ----------------------------------------
 .byte   N96 ,Gn4 ,v059
 .byte   N96 ,Dn5
 .byte   N96 ,Bn4
 .byte   W96
@  #11 @054   ----------------------------------------
 .byte   N48 ,Gn4
 .byte   N48 ,En4
 .byte   N24 ,Cn5
 .byte   W24
 .byte   Cs5
 .byte   W24
 .byte   N48 ,Fs4
 .byte   N24 ,Dn5
 .byte   N48 ,An4
 .byte   W24
 .byte   N24 ,Ds5
 .byte   W24
@  #11 @055   ----------------------------------------
 .byte   N20 ,En5
 .byte   N20 ,Bn4
 .byte   N20 ,Gn4
 .byte   W20
 .byte   N28 ,Bn4
 .byte   N28 ,En5
 .byte   N28 ,Gn4
 .byte   W28
 .byte   N02 ,Fn5
 .byte   W02
 .byte   N04 ,Fs5
 .byte   W04
 .byte   N02 ,Fn5
 .byte   W02
 .byte   N04 ,Dn5
 .byte   W04
 .byte   N08 ,An5 ,v085
 .byte   W08
 .byte   N04 ,Dn5 ,v047
 .byte   W04
 .byte   N08 ,Gn5 ,v085
 .byte   W08
 .byte   N04 ,Fs5
 .byte   W16
@  #11 @056   ----------------------------------------
 .byte   W08
 .byte   Cn5
 .byte   N04 ,An4
 .byte   W16
 .byte   An4
 .byte   N04 ,Cn5
 .byte   W24
 .byte   An4
 .byte   N04 ,Cn5
 .byte   W12
 .byte   Cn5
 .byte   N04 ,An4
 .byte   W12
 .byte   Bn4
 .byte   N08 ,Dn5
 .byte   W04
 .byte   N04 ,Bn4
 .byte   W04
 .byte   Cn5
 .byte   N04 ,An4
 .byte   W16
@  #11 @057   ----------------------------------------
 .byte   N24 ,Dn5
 .byte   W24
 .byte   En5
 .byte   N24 ,Gn5
 .byte   W24
 .byte   Fs5
 .byte   N24 ,Dn5
 .byte   W24
 .byte   Dn5
 .byte   N24 ,Bn4
 .byte   W24
@  #11 @058   ----------------------------------------
 .byte   W96
@  #11 @059   ----------------------------------------
 .byte   W96
@  #11 @060   ----------------------------------------
 .byte   W96
@  #11 @061   ----------------------------------------
 .byte   W96
@  #11 @062   ----------------------------------------
 .byte   GOTO
  .word Label_01026B38
@  #11 @063   ----------------------------------------
 .byte   W96
@  #11 @064   ----------------------------------------
 .byte   W96
@  #11 @065   ----------------------------------------
 .byte   W96
@  #11 @066   ----------------------------------------
 .byte   W96
@  #11 @067   ----------------------------------------
 .byte   W96
@  #11 @068   ----------------------------------------
 .byte   W96
@  #11 @069   ----------------------------------------
 .byte   W96
@  #11 @070   ----------------------------------------
 .byte   W96
 .byte   FINE

@**************** Track 12 (Midi-Chn.11) ****************@

song02_012:
@  #12 @000   ----------------------------------------
 .byte   KEYSH , song02_key+0
 .byte   VOICE , 68
 .byte   VOL , 56*song02_mvl/mxv
 .byte   PAN , c_v+37
 .byte   BENDR, 12
 .byte   W96
@  #12 @001   ----------------------------------------
 .byte   W96
@  #12 @002   ----------------------------------------
Label_01026D14:
 .byte   W96
@  #12 @003   ----------------------------------------
 .byte   W96
@  #12 @004   ----------------------------------------
 .byte   W96
@  #12 @005   ----------------------------------------
 .byte   W96
@  #12 @006   ----------------------------------------
 .byte   W96
@  #12 @007   ----------------------------------------
 .byte   W96
@  #12 @008   ----------------------------------------
 .byte   W96
@  #12 @009   ----------------------------------------
 .byte   W96
@  #12 @010   ----------------------------------------
 .byte   W96
@  #12 @011   ----------------------------------------
 .byte   W96
@  #12 @012   ----------------------------------------
 .byte   W96
@  #12 @013   ----------------------------------------
 .byte   W96
@  #12 @014   ----------------------------------------
 .byte   W96
@  #12 @015   ----------------------------------------
 .byte   W96
@  #12 @016   ----------------------------------------
 .byte   W96
@  #12 @017   ----------------------------------------
 .byte   W96
@  #12 @018   ----------------------------------------
 .byte   W96
@  #12 @019   ----------------------------------------
 .byte   W96
@  #12 @020   ----------------------------------------
 .byte   W96
@  #12 @021   ----------------------------------------
 .byte   W96
@  #12 @022   ----------------------------------------
Label_01026D28:
 .byte   N04 ,En4 ,v085
 .byte   W32
 .byte   Cn4
 .byte   W04
 .byte   N08 ,An3
 .byte   W08
 .byte   N04 ,Fs3
 .byte   W36
 .byte   An3
 .byte   W04
 .byte   N08 ,Cn4
 .byte   W08
 .byte   N04 ,En4
 .byte   W04
 .byte   PEND 
@  #12 @023   ----------------------------------------
Label_01026D3D:
 .byte   N02 ,Dn4 ,v085
 .byte   W02
 .byte   N04 ,En4
 .byte   W04
 .byte   N02 ,Dn4
 .byte   W02
 .byte   N04 ,Bn3
 .byte   W04
 .byte   N08 ,Cn4
 .byte   W08
 .byte   N04 ,Cs4
 .byte   W04
 .byte   N08 ,Dn4
 .byte   W08
 .byte   N04 ,Gn4
 .byte   W12
 .byte   N40 ,Dn4
 .byte   W52
 .byte   PEND 
@  #12 @024   ----------------------------------------
Label_01026D5A:
 .byte   N04 ,Cn4 ,v085
 .byte   W32
 .byte   An3
 .byte   W04
 .byte   N08 ,Fs3
 .byte   W08
 .byte   N04 ,Dn3
 .byte   W36
 .byte   Fs3
 .byte   W04
 .byte   N08 ,An3
 .byte   W08
 .byte   N04 ,Cn4
 .byte   W04
 .byte   PEND 
@  #12 @025   ----------------------------------------
Label_01026D6F:
 .byte   N02 ,Bn3 ,v085
 .byte   W02
 .byte   N04 ,Cn4
 .byte   W04
 .byte   N02 ,Bn3
 .byte   W02
 .byte   N04 ,An3
 .byte   W04
 .byte   N08 ,Bn3
 .byte   W08
 .byte   N04 ,An3
 .byte   W04
 .byte   N08 ,Bn3
 .byte   W08
 .byte   N04 ,Cs4
 .byte   W12
 .byte   N40 ,Dn4
 .byte   W52
 .byte   PEND 
@  #12 @026   ----------------------------------------
 .byte   W96
@  #12 @027   ----------------------------------------
 .byte   W96
@  #12 @028   ----------------------------------------
Label_01026D8E:
 .byte   N04 ,Cn4 ,v085
 .byte   W12
 .byte   N08
 .byte   W08
 .byte   N04 ,Dn4
 .byte   W04
 .byte   N06 ,Cn4
 .byte   W06
 .byte   N02 ,Dn4
 .byte   W02
 .byte   N04 ,Cn4
 .byte   W04
 .byte   N08 ,Bn3
 .byte   W08
 .byte   N04 ,Cn4
 .byte   W36
 .byte   N16 ,Bn3
 .byte   W16
 .byte   PEND 
@  #12 @029   ----------------------------------------
 .byte   N04 ,Cn4
 .byte   W12
 .byte   N08
 .byte   W08
 .byte   N04 ,Dn4
 .byte   W04
 .byte   N08 ,En4
 .byte   W08
 .byte   N04 ,Fs4
 .byte   W12
 .byte   Gn4
 .byte   W36
 .byte   N16 ,An4
 .byte   N04 ,Fs4
 .byte   N16 ,Ds4
 .byte   W04
 .byte   N12 ,Fs4
 .byte   W12
@  #12 @030   ----------------------------------------
 .byte   N06 ,Dn4
 .byte   N06 ,Bn4
 .byte   N06 ,Gn4
 .byte   W96
@  #12 @031   ----------------------------------------
 .byte   W96
@  #12 @032   ----------------------------------------
 .byte   W96
@  #12 @033   ----------------------------------------
 .byte   W96
@  #12 @034   ----------------------------------------
 .byte   W96
@  #12 @035   ----------------------------------------
 .byte   W96
@  #12 @036   ----------------------------------------
 .byte   W96
@  #12 @037   ----------------------------------------
 .byte   W96
@  #12 @038   ----------------------------------------
 .byte   W96
@  #12 @039   ----------------------------------------
 .byte   W96
@  #12 @040   ----------------------------------------
 .byte   W96
@  #12 @041   ----------------------------------------
 .byte   W96
@  #12 @042   ----------------------------------------
 .byte   W96
@  #12 @043   ----------------------------------------
 .byte   W96
@  #12 @044   ----------------------------------------
 .byte   W96
@  #12 @045   ----------------------------------------
 .byte   W96
@  #12 @046   ----------------------------------------
 .byte   W96
@  #12 @047   ----------------------------------------
 .byte   W96
@  #12 @048   ----------------------------------------
 .byte   W96
@  #12 @049   ----------------------------------------
 .byte   W96
@  #12 @050   ----------------------------------------
 .byte   W96
@  #12 @051   ----------------------------------------
 .byte   W96
@  #12 @052   ----------------------------------------
 .byte   PATT
  .word Label_01026D28
@  #12 @053   ----------------------------------------
 .byte   PATT
  .word Label_01026D3D
@  #12 @054   ----------------------------------------
 .byte   PATT
  .word Label_01026D5A
@  #12 @055   ----------------------------------------
 .byte   PATT
  .word Label_01026D6F
@  #12 @056   ----------------------------------------
 .byte   W96
@  #12 @057   ----------------------------------------
 .byte   W96
@  #12 @058   ----------------------------------------
 .byte   PATT
  .word Label_01026D8E
@  #12 @059   ----------------------------------------
 .byte   N04 ,Cn4 ,v085
 .byte   W12
 .byte   N08
 .byte   W08
 .byte   N04 ,Dn4
 .byte   W04
 .byte   N08 ,En4
 .byte   W08
 .byte   N04 ,Fs4
 .byte   W12
 .byte   Gn4
 .byte   W36
 .byte   N16 ,An4
 .byte   N16 ,Ds4
 .byte   N04 ,Fs4
 .byte   W04
 .byte   N12
 .byte   W12
@  #12 @060   ----------------------------------------
 .byte   N06 ,Bn4
 .byte   N06 ,Gn4
 .byte   N06 ,Dn4
 .byte   W96
@  #12 @061   ----------------------------------------
 .byte   W96
@  #12 @062   ----------------------------------------
 .byte   GOTO
  .word Label_01026D14
@  #12 @063   ----------------------------------------
 .byte   W96
@  #12 @064   ----------------------------------------
 .byte   W96
@  #12 @065   ----------------------------------------
 .byte   W96
@  #12 @066   ----------------------------------------
 .byte   W96
@  #12 @067   ----------------------------------------
 .byte   W96
@  #12 @068   ----------------------------------------
 .byte   W96
@  #12 @069   ----------------------------------------
 .byte   W96
@  #12 @070   ----------------------------------------
 .byte   W96
 .byte   FINE

@**************** Track 13 (Midi-Chn.12) ****************@

song02_013:
@  #13 @000   ----------------------------------------
 .byte   KEYSH , song02_key+0
 .byte   VOICE , 11
 .byte   VOL , 56*song02_mvl/mxv
 .byte   PAN , c_v-38
 .byte   BENDR, 12
 .byte   W96
@  #13 @001   ----------------------------------------
 .byte   W96
@  #13 @002   ----------------------------------------
Label_01004380:
 .byte   W96
@  #13 @003   ----------------------------------------
 .byte   W96
@  #13 @004   ----------------------------------------
 .byte   W96
@  #13 @005   ----------------------------------------
 .byte   W96
@  #13 @006   ----------------------------------------
 .byte   W96
@  #13 @007   ----------------------------------------
 .byte   W96
@  #13 @008   ----------------------------------------
 .byte   W96
@  #13 @009   ----------------------------------------
 .byte   W96
@  #13 @010   ----------------------------------------
 .byte   W96
@  #13 @011   ----------------------------------------
 .byte   W96
@  #13 @012   ----------------------------------------
 .byte   W96
@  #13 @013   ----------------------------------------
 .byte   W96
@  #13 @014   ----------------------------------------
 .byte   W96
@  #13 @015   ----------------------------------------
 .byte   W96
@  #13 @016   ----------------------------------------
 .byte   W96
@  #13 @017   ----------------------------------------
 .byte   W96
@  #13 @018   ----------------------------------------
 .byte   W96
@  #13 @019   ----------------------------------------
 .byte   W96
@  #13 @020   ----------------------------------------
 .byte   W96
@  #13 @021   ----------------------------------------
 .byte   W96
@  #13 @022   ----------------------------------------
 .byte   PATT
  .word Label_01026D28
@  #13 @023   ----------------------------------------
 .byte   PATT
  .word Label_01026D3D
@  #13 @024   ----------------------------------------
 .byte   PATT
  .word Label_01026D5A
@  #13 @025   ----------------------------------------
 .byte   PATT
  .word Label_01026D6F
@  #13 @026   ----------------------------------------
 .byte   W96
@  #13 @027   ----------------------------------------
 .byte   W96
@  #13 @028   ----------------------------------------
Label_010043AA:
 .byte   N04 ,An3 ,v085
 .byte   W12
 .byte   N08
 .byte   W08
 .byte   N04 ,Bn3
 .byte   W04
 .byte   N06 ,An3
 .byte   W06
 .byte   N02 ,Bn3
 .byte   W02
 .byte   N04 ,An3
 .byte   W04
 .byte   N08 ,Gs3
 .byte   W08
 .byte   N04 ,An3
 .byte   W36
 .byte   N16 ,Gs3
 .byte   W16
 .byte   PEND 
@  #13 @029   ----------------------------------------
Label_010043C6:
 .byte   N04 ,An3 ,v085
 .byte   W12
 .byte   N08
 .byte   W08
 .byte   N04 ,Bn3
 .byte   W04
 .byte   N08 ,Cn4
 .byte   W08
 .byte   N04 ,Dn4
 .byte   W12
 .byte   En4
 .byte   W36
 .byte   N16 ,Fs4
 .byte   W16
 .byte   PEND 
@  #13 @030   ----------------------------------------
 .byte   N06 ,Gn4
 .byte   W96
@  #13 @031   ----------------------------------------
 .byte   W96
@  #13 @032   ----------------------------------------
 .byte   W96
@  #13 @033   ----------------------------------------
 .byte   W96
@  #13 @034   ----------------------------------------
 .byte   W96
@  #13 @035   ----------------------------------------
 .byte   W96
@  #13 @036   ----------------------------------------
 .byte   W96
@  #13 @037   ----------------------------------------
 .byte   W96
@  #13 @038   ----------------------------------------
 .byte   W96
@  #13 @039   ----------------------------------------
 .byte   W96
@  #13 @040   ----------------------------------------
 .byte   W96
@  #13 @041   ----------------------------------------
 .byte   W96
@  #13 @042   ----------------------------------------
 .byte   W96
@  #13 @043   ----------------------------------------
 .byte   W96
@  #13 @044   ----------------------------------------
 .byte   W96
@  #13 @045   ----------------------------------------
 .byte   W96
@  #13 @046   ----------------------------------------
 .byte   W96
@  #13 @047   ----------------------------------------
 .byte   W96
@  #13 @048   ----------------------------------------
 .byte   W96
@  #13 @049   ----------------------------------------
 .byte   W96
@  #13 @050   ----------------------------------------
 .byte   W96
@  #13 @051   ----------------------------------------
 .byte   W96
@  #13 @052   ----------------------------------------
 .byte   PATT
  .word Label_01026D28
@  #13 @053   ----------------------------------------
 .byte   PATT
  .word Label_01026D3D
@  #13 @054   ----------------------------------------
 .byte   PATT
  .word Label_01026D5A
@  #13 @055   ----------------------------------------
 .byte   PATT
  .word Label_01026D6F
@  #13 @056   ----------------------------------------
 .byte   W96
@  #13 @057   ----------------------------------------
 .byte   W96
@  #13 @058   ----------------------------------------
 .byte   PATT
  .word Label_010043AA
@  #13 @059   ----------------------------------------
 .byte   PATT
  .word Label_010043C6
@  #13 @060   ----------------------------------------
 .byte   N06 ,Gn4 ,v085
 .byte   W96
@  #13 @061   ----------------------------------------
 .byte   W96
@  #13 @062   ----------------------------------------
 .byte   GOTO
  .word Label_01004380
@  #13 @063   ----------------------------------------
 .byte   W96
@  #13 @064   ----------------------------------------
 .byte   W96
@  #13 @065   ----------------------------------------
 .byte   W96
@  #13 @066   ----------------------------------------
 .byte   W96
@  #13 @067   ----------------------------------------
 .byte   W96
@  #13 @068   ----------------------------------------
 .byte   W96
@  #13 @069   ----------------------------------------
 .byte   W96
@  #13 @070   ----------------------------------------
 .byte   W96
 .byte   FINE

@**************** Track 14 (Midi-Chn.13) ****************@

song02_014:
@  #14 @000   ----------------------------------------
 .byte   KEYSH , song02_key+0
 .byte   VOICE , 61
 .byte   VOL , 54*song02_mvl/mxv
 .byte   PAN , c_v+8
 .byte   BENDR, 12
 .byte   W96
@  #14 @001   ----------------------------------------
 .byte   W96
@  #14 @002   ----------------------------------------
Label_01026E38:
 .byte   W96
@  #14 @003   ----------------------------------------
 .byte   W96
@  #14 @004   ----------------------------------------
 .byte   W96
@  #14 @005   ----------------------------------------
 .byte   W96
@  #14 @006   ----------------------------------------
 .byte   W96
@  #14 @007   ----------------------------------------
 .byte   W96
@  #14 @008   ----------------------------------------
 .byte   W96
@  #14 @009   ----------------------------------------
 .byte   W96
@  #14 @010   ----------------------------------------
 .byte   W96
@  #14 @011   ----------------------------------------
 .byte   W96
@  #14 @012   ----------------------------------------
 .byte   W96
@  #14 @013   ----------------------------------------
 .byte   W96
@  #14 @014   ----------------------------------------
 .byte   W96
@  #14 @015   ----------------------------------------
 .byte   W96
@  #14 @016   ----------------------------------------
 .byte   W96
@  #14 @017   ----------------------------------------
 .byte   W96
@  #14 @018   ----------------------------------------
 .byte   W96
@  #14 @019   ----------------------------------------
 .byte   W96
@  #14 @020   ----------------------------------------
 .byte   W96
@  #14 @021   ----------------------------------------
 .byte   W96
@  #14 @022   ----------------------------------------
 .byte   W96
@  #14 @023   ----------------------------------------
 .byte   W96
@  #14 @024   ----------------------------------------
 .byte   W96
@  #14 @025   ----------------------------------------
Label_01026E4F:
 .byte   W72
 .byte   N04 ,Gs2 ,v116
 .byte   W04
 .byte   An2
 .byte   W04
 .byte   Bn2
 .byte   W04
 .byte   Cn3
 .byte   W04
 .byte   Dn3
 .byte   W04
 .byte   Ds3
 .byte   W04
 .byte   PEND 
@  #14 @026   ----------------------------------------
Label_01026E5F:
 .byte   N04 ,En3 ,v116
 .byte   W32
 .byte   Cn3
 .byte   W04
 .byte   N08 ,An2
 .byte   W08
 .byte   N04 ,Fs2
 .byte   W36
 .byte   An2
 .byte   W04
 .byte   N08 ,Cn3
 .byte   W08
 .byte   N04 ,En3
 .byte   W04
 .byte   PEND 
@  #14 @027   ----------------------------------------
Label_01026E74:
 .byte   N02 ,Dn3 ,v116
 .byte   W02
 .byte   N04 ,En3
 .byte   W04
 .byte   N02 ,Dn3
 .byte   W02
 .byte   N04 ,Bn2
 .byte   W04
 .byte   N08 ,Cn3
 .byte   W08
 .byte   N04 ,Cs3
 .byte   W04
 .byte   N08 ,Dn3
 .byte   W08
 .byte   N04 ,Gn3
 .byte   W12
 .byte   N40 ,Dn3
 .byte   W52
 .byte   PEND 
@  #14 @028   ----------------------------------------
Label_01026E91:
 .byte   N04 ,An2 ,v116
 .byte   W12
 .byte   N08
 .byte   W08
 .byte   N04 ,Bn2
 .byte   W04
 .byte   N06 ,An2
 .byte   W06
 .byte   N02 ,Bn2
 .byte   W02
 .byte   N04 ,An2
 .byte   W04
 .byte   N08 ,Gs2
 .byte   W08
 .byte   N04 ,An2
 .byte   W36
 .byte   N16 ,Gs2
 .byte   W16
 .byte   PEND 
@  #14 @029   ----------------------------------------
 .byte   N04 ,An2
 .byte   W12
 .byte   N08
 .byte   W08
 .byte   N04 ,Bn2
 .byte   W04
 .byte   N08 ,Cn3
 .byte   W08
 .byte   N04 ,Dn3
 .byte   W12
 .byte   En3
 .byte   W36
 .byte   N16 ,Cn3
 .byte   N16 ,An2
 .byte   N16 ,Fs3
 .byte   N04 ,Ds3
 .byte   W04
 .byte   N12
 .byte   W12
@  #14 @030   ----------------------------------------
 .byte   N06 ,Bn2
 .byte   N06 ,En3
 .byte   N06 ,Dn3
 .byte   N06 ,Gn3
 .byte   W96
@  #14 @031   ----------------------------------------
 .byte   W96
@  #14 @032   ----------------------------------------
 .byte   W96
@  #14 @033   ----------------------------------------
 .byte   W96
@  #14 @034   ----------------------------------------
 .byte   W96
@  #14 @035   ----------------------------------------
 .byte   W96
@  #14 @036   ----------------------------------------
 .byte   W96
@  #14 @037   ----------------------------------------
 .byte   W96
@  #14 @038   ----------------------------------------
 .byte   W96
@  #14 @039   ----------------------------------------
 .byte   W96
@  #14 @040   ----------------------------------------
 .byte   W96
@  #14 @041   ----------------------------------------
 .byte   W96
@  #14 @042   ----------------------------------------
 .byte   W96
@  #14 @043   ----------------------------------------
 .byte   W96
@  #14 @044   ----------------------------------------
 .byte   W96
@  #14 @045   ----------------------------------------
 .byte   W96
@  #14 @046   ----------------------------------------
 .byte   W96
@  #14 @047   ----------------------------------------
 .byte   W96
@  #14 @048   ----------------------------------------
 .byte   W96
@  #14 @049   ----------------------------------------
 .byte   W96
@  #14 @050   ----------------------------------------
 .byte   W96
@  #14 @051   ----------------------------------------
 .byte   W96
@  #14 @052   ----------------------------------------
 .byte   W96
@  #14 @053   ----------------------------------------
 .byte   W96
@  #14 @054   ----------------------------------------
 .byte   W96
@  #14 @055   ----------------------------------------
 .byte   PATT
  .word Label_01026E4F
@  #14 @056   ----------------------------------------
 .byte   PATT
  .word Label_01026E5F
@  #14 @057   ----------------------------------------
 .byte   PATT
  .word Label_01026E74
@  #14 @058   ----------------------------------------
 .byte   PATT
  .word Label_01026E91
@  #14 @059   ----------------------------------------
 .byte   N04 ,An2 ,v116
 .byte   W12
 .byte   N08
 .byte   W08
 .byte   N04 ,Bn2
 .byte   W04
 .byte   N08 ,Cn3
 .byte   W08
 .byte   N04 ,Dn3
 .byte   W12
 .byte   En3
 .byte   W36
 .byte   Ds3
 .byte   N16 ,Fs3
 .byte   N16 ,An2
 .byte   N16 ,Cn3
 .byte   W04
 .byte   N12 ,Ds3
 .byte   W12
@  #14 @060   ----------------------------------------
 .byte   N06 ,Dn3
 .byte   N06 ,En3
 .byte   N06 ,Gn3
 .byte   N06 ,Bn2
 .byte   W96
@  #14 @061   ----------------------------------------
 .byte   W96
@  #14 @062   ----------------------------------------
 .byte   GOTO
  .word Label_01026E38
@  #14 @063   ----------------------------------------
 .byte   W96
@  #14 @064   ----------------------------------------
 .byte   W96
@  #14 @065   ----------------------------------------
 .byte   W96
@  #14 @066   ----------------------------------------
 .byte   W96
@  #14 @067   ----------------------------------------
 .byte   W96
@  #14 @068   ----------------------------------------
 .byte   W96
@  #14 @069   ----------------------------------------
 .byte   W96
@  #14 @070   ----------------------------------------
 .byte   W96
 .byte   FINE

@******************************************************@
	.align	2

song02:
	.byte	14	@ NumTrks
	.byte	0	@ NumBlks
	.byte	song02_pri	@ Priority
	.byte	song02_rev	@ Reverb.
    
	.word	song02_grp
    
	.word	song02_001
	.word	song02_002
	.word	song02_003
	.word	song02_004
	.word	song02_005
	.word	song02_006
	.word	song02_007
	.word	song02_008
	.word	song02_009
	.word	song02_010
	.word	song02_011
	.word	song02_012
	.word	song02_013
	.word	song02_014

	.end
