	.include "MPlayDef.s"

	.equ	song0319_grp, voicegroup000
	.equ	song0319_pri, 10
	.equ	song0319_rev, 148
	.equ	song0319_mvl, 127
	.equ	song0319_key, 0
	.equ	song0319_tbs, 1
	.equ	song0319_exg, 0
	.equ	song0319_cmp, 1

	.section .rodata
	.global	song0319
	.align	2


@**************** Track 1 (Midi-Chn.0) ****************@

song0319_001:
@  #01 @000   ----------------------------------------
 .byte   KEYSH , song0319_key+0
 .byte   TEMPO , 286*song0319_tbs/2
 .byte   VOICE , 54
 .byte   W96
@  #01 @001   ----------------------------------------
 .byte   W96
@  #01 @002   ----------------------------------------
 .byte   W96
@  #01 @003   ----------------------------------------
 .byte   W96
@  #01 @004   ----------------------------------------
 .byte   W96
@  #01 @005   ----------------------------------------
 .byte   W96
@  #01 @006   ----------------------------------------
 .byte   W96
@  #01 @007   ----------------------------------------
 .byte   W48
 .byte   VOL , 62*song0319_mvl/mxv
 .byte   PAN , c_v+0
 .byte   N64 ,An3 ,v088
 .byte   N64 ,Dn4
 .byte   N64 ,Fs4
 .byte   W48
@  #01 @008   ----------------------------------------
Label_016E925A:
 .byte   W24
 .byte   N64 ,An3 ,v088
 .byte   N64 ,Dn4
 .byte   N64 ,Fs4
 .byte   W72
 .byte   PEND 
@  #01 @009   ----------------------------------------
Label_016E9264:
 .byte   N36 ,An3 ,v088
 .byte   N48 ,Dn4
 .byte   N48 ,Fs4
 .byte   W48
 .byte   N88 ,Bn3
 .byte   N88 ,Dn4
 .byte   N36 ,Gn4
 .byte   W48
 .byte   PEND 
@  #01 @010   ----------------------------------------
 .byte   An4
 .byte   W48
Label_016E9276:
 .byte   N64 ,Bn3 ,v088
 .byte   N64 ,Dn4
 .byte   N64 ,Gn4
 .byte   W48
@  #01 @011   ----------------------------------------
 .byte   W24
 .byte   Bn3
 .byte   N64 ,Dn4
 .byte   N64 ,Gn4
 .byte   W72
@  #01 @012   ----------------------------------------
 .byte   N48 ,Bn3
 .byte   N48 ,Dn4
 .byte   N48 ,Gn4
 .byte   W48
 .byte   N44 ,An3
 .byte   N44 ,Dn4
 .byte   N44 ,Fs4
 .byte   W48
@  #01 @013   ----------------------------------------
 .byte   N48 ,An3
 .byte   N48 ,Cs4
 .byte   N48 ,En4
 .byte   W48
 .byte   N72 ,Fs3
 .byte   N72 ,Bn3
 .byte   N72 ,Dn4
 .byte   W48
@  #01 @014   ----------------------------------------
 .byte   W24
 .byte   N64 ,Fs3
 .byte   N64 ,Bn3
 .byte   N64 ,Dn4
 .byte   W72
@  #01 @015   ----------------------------------------
 .byte   N30 ,Fs3
 .byte   N30 ,Bn3
 .byte   N30 ,Dn4
 .byte   W48
 .byte   N92 ,Fs3
 .byte   N24 ,Bn3
 .byte   N24 ,Dn4
 .byte   W24
 .byte   Bn3
 .byte   N24 ,En4
 .byte   W24
@  #01 @016   ----------------------------------------
 .byte   N44 ,Bn3
 .byte   N48 ,Fs4
 .byte   W48
 .byte   N96 ,An3
 .byte   N96 ,Cs4
 .byte   TIE ,En4
 .byte   W48
@  #01 @017   ----------------------------------------
 .byte   W48
 .byte   N48 ,An3
 .byte   N48 ,Cs4
 .byte   W48
@  #01 @018   ----------------------------------------
 .byte   EOT
 .byte   En4
 .byte   N48 ,En3
 .byte   N48 ,Cs4
 .byte   W48
 .byte   N76 ,Cs3
 .byte   N76 ,An3
 .byte   W48
@  #01 @019   ----------------------------------------
 .byte   W48
 .byte   N60 ,Cs4
 .byte   N60 ,Fs4
 .byte   N56 ,An4
 .byte   W48
@  #01 @020   ----------------------------------------
 .byte   W24
 .byte   Cs4
 .byte   N56 ,Fs4
 .byte   N56 ,An4
 .byte   W72
@  #01 @021   ----------------------------------------
 .byte   N36 ,Cs4
 .byte   N40 ,Fs4
 .byte   N36 ,An4
 .byte   W48
 .byte   N96 ,Bn3
 .byte   N96 ,En4
 .byte   N44 ,Gn4
 .byte   W48
@  #01 @022   ----------------------------------------
 .byte   N48 ,Fs4
 .byte   W48
 .byte   N54 ,Bn3
 .byte   N56 ,En4
 .byte   N52 ,Gn4
 .byte   W48
@  #01 @023   ----------------------------------------
 .byte   W24
 .byte   N60 ,Bn3
 .byte   N60 ,En4
 .byte   N60 ,Gn4
 .byte   W72
@  #01 @024   ----------------------------------------
 .byte   N32 ,Bn3
 .byte   N42 ,En4
 .byte   N42 ,Gn4
 .byte   W48
 .byte   N90 ,An3
 .byte   N84 ,Dn4
 .byte   N44 ,Fs4
 .byte   W48
@  #01 @025   ----------------------------------------
 .byte   W48
 .byte   N64 ,An3
 .byte   N60 ,Dn4
 .byte   N60 ,Fs4
 .byte   W48
@  #01 @026   ----------------------------------------
 .byte   W24
 .byte   N56 ,An3
 .byte   N56 ,Dn4
 .byte   N56 ,Fs4
 .byte   W72
@  #01 @027   ----------------------------------------
 .byte   TIE ,An3
 .byte   N40 ,Dn4
 .byte   N48 ,Fs4
 .byte   W48
 .byte   N84 ,Dn4
 .byte   W24
 .byte   N24 ,En4
 .byte   W24
@  #01 @028   ----------------------------------------
 .byte   N32 ,Fs4
 .byte   W42
 .byte   W01
 .byte   EOT
 .byte   An3
 .byte   W05
 .byte   N16 ,Gn3
 .byte   N16 ,Cn4
 .byte   N16 ,En4
 .byte   W24
 .byte   N64 ,Gn3
 .byte   N64 ,Bn3
 .byte   N64 ,Dn4
 .byte   W24
@  #01 @029   ----------------------------------------
 .byte   W48
 .byte   N16 ,Gn3
 .byte   N16 ,Cn4
 .byte   N16 ,En4
 .byte   W24
 .byte   N64 ,Dn3
 .byte   N64 ,Gn3
 .byte   N64 ,Bn3
 .byte   W24
@  #01 @030   ----------------------------------------
 .byte   W48
 .byte   N72 ,Fs3
 .byte   N72 ,An3
 .byte   N72 ,Dn4
 .byte   W48
@  #01 @031   ----------------------------------------
 .byte   W96
@  #01 @032   ----------------------------------------
 .byte   VOICE , 52
 .byte   N21 ,Dn3 ,v052
 .byte   W24
 .byte   N19 ,En3 ,v056
 .byte   W24
 .byte   N64 ,An2 ,v088
 .byte   N64 ,Dn3
 .byte   N64 ,Fs3 ,v100
 .byte   W48
@  #01 @033   ----------------------------------------
Label_016E9373:
 .byte   W24
 .byte   N64 ,An2 ,v088
 .byte   N64 ,Dn3
 .byte   N64 ,Fs3
 .byte   W72
 .byte   PEND 
@  #01 @034   ----------------------------------------
 .byte   N44 ,An2
 .byte   N44 ,Dn3
 .byte   N44 ,Fs3
 .byte   W48
 .byte   N88 ,Bn2
 .byte   N88 ,Dn3
 .byte   N36 ,Gn3
 .byte   W48
@  #01 @035   ----------------------------------------
Label_016E938B:
 .byte   N36 ,An3 ,v088
 .byte   W48
 .byte   N64 ,Bn2
 .byte   N64 ,Dn3
 .byte   N64 ,Gn3
 .byte   W48
 .byte   PEND 
@  #01 @036   ----------------------------------------
Label_016E9397:
 .byte   W24
 .byte   N64 ,Bn2 ,v088
 .byte   N64 ,Dn3
 .byte   N64 ,Gn3
 .byte   W72
 .byte   PEND 
@  #01 @037   ----------------------------------------
Label_016E93A1:
 .byte   N48 ,Bn2 ,v088
 .byte   N48 ,Dn3
 .byte   N48 ,Gn3
 .byte   W48
 .byte   N44 ,An2
 .byte   N44 ,Dn3
 .byte   N44 ,Fs3
 .byte   W48
 .byte   PEND 
@  #01 @038   ----------------------------------------
 .byte   N48 ,An2
 .byte   N48 ,Cs3
 .byte   N48 ,En3
 .byte   W48
 .byte   N72 ,Fs2
 .byte   N72 ,Bn2
 .byte   N72 ,Dn3
 .byte   W48
@  #01 @039   ----------------------------------------
 .byte   W24
 .byte   N64 ,Fs2
 .byte   N64 ,Bn2
 .byte   N64 ,Dn3
 .byte   W72
@  #01 @040   ----------------------------------------
 .byte   N30 ,Fs2
 .byte   N30 ,Bn2
 .byte   N30 ,Dn3
 .byte   W48
 .byte   N92 ,Fs2
 .byte   N44 ,Bn2
 .byte   N24 ,Dn3
 .byte   W24
 .byte   En3
 .byte   W24
@  #01 @041   ----------------------------------------
 .byte   N44 ,Bn2
 .byte   N48 ,Fs3
 .byte   W48
 .byte   N96 ,An2
 .byte   TIE ,Cs3
 .byte   TIE ,En3
 .byte   W48
@  #01 @042   ----------------------------------------
 .byte   W96
@  #01 @043   ----------------------------------------
 .byte   EOT
 .byte   Cs3 ,v064
 .byte   W48
 .byte   N64 ,An2
 .byte   N64 ,Dn3
 .byte   N64 ,Fs3
 .byte   W48
@  #01 @044   ----------------------------------------
 .byte   PATT
  .word Label_016E9373
@  #01 @045   ----------------------------------------
 .byte   N36 ,An2 ,v088
 .byte   N48 ,Dn3
 .byte   N48 ,Fs3
 .byte   W48
 .byte   N88 ,Bn2
 .byte   N88 ,Dn3
 .byte   N36 ,Gn3
 .byte   W48
@  #01 @046   ----------------------------------------
 .byte   PATT
  .word Label_016E938B
@  #01 @047   ----------------------------------------
 .byte   PATT
  .word Label_016E9397
@  #01 @048   ----------------------------------------
 .byte   PATT
  .word Label_016E93A1
@  #01 @049   ----------------------------------------
 .byte   N48 ,An2 ,v088
 .byte   N48 ,Cs3
 .byte   N48 ,En3
 .byte   W48
 .byte   N16 ,Gn2
 .byte   N16 ,Cn3
 .byte   N16 ,En3
 .byte   W24
 .byte   N64 ,Gn2
 .byte   N64 ,Bn2
 .byte   N64 ,Dn3
 .byte   W24
@  #01 @050   ----------------------------------------
 .byte   W48
 .byte   N16 ,Gn2
 .byte   N16 ,Cn3
 .byte   N16 ,En3
 .byte   W24
 .byte   N64 ,Gn2
 .byte   N64 ,Bn2
 .byte   N64 ,Dn3
 .byte   W24
@  #01 @051   ----------------------------------------
 .byte   W48
 .byte   N44 ,Gn2
 .byte   N48 ,Cn3
 .byte   N40 ,En3
 .byte   W48
@  #01 @052   ----------------------------------------
 .byte   N44 ,Gn2
 .byte   N48 ,Bn2
 .byte   N48 ,Dn3
 .byte   W48
 .byte   TIE ,Fs2 ,v092
 .byte   TIE ,An2
 .byte   TIE ,Dn3
 .byte   W48
@  #01 @053   ----------------------------------------
 .byte   W96
@  #01 @054   ----------------------------------------
 .byte   EOT
 .byte   Fs2 ,v057
 .byte   Dn3
 .byte   N24
 .byte   W24
 .byte   En3
 .byte   W24
 .byte   N96 ,Fs3
 .byte   W48
@  #01 @055   ----------------------------------------
 .byte   W48
 .byte   An3
 .byte   W48
@  #01 @056   ----------------------------------------
 .byte   W48
 .byte   N48 ,Gn3
 .byte   W48
@  #01 @057   ----------------------------------------
 .byte   Fs3
 .byte   W48
 .byte   En3
 .byte   W48
@  #01 @058   ----------------------------------------
 .byte   Dn3
 .byte   W48
 .byte   N96 ,Dn4
 .byte   W48
@  #01 @059   ----------------------------------------
 .byte   W48
 .byte   N48 ,Cs4
 .byte   W48
@  #01 @060   ----------------------------------------
 .byte   Bn3
 .byte   W48
 .byte   N96 ,An3
 .byte   W48
@  #01 @061   ----------------------------------------
 .byte   W48
 .byte   N48 ,Gn3
 .byte   W48
@  #01 @062   ----------------------------------------
Label_016E9477:
 .byte   N48 ,Fs3 ,v092
 .byte   W48
 .byte   N96 ,En3
 .byte   W48
 .byte   PEND 
@  #01 @063   ----------------------------------------
 .byte   W48
 .byte   Bn3
 .byte   W48
@  #01 @064   ----------------------------------------
 .byte   W48
 .byte   En3
 .byte   W48
@  #01 @065   ----------------------------------------
 .byte   W48
 .byte   N48 ,Dn3
 .byte   W48
@  #01 @066   ----------------------------------------
 .byte   PATT
  .word Label_016E9477
@  #01 @067   ----------------------------------------
 .byte   W48
 .byte   N48 ,Dn3 ,v092
 .byte   W48
@  #01 @068   ----------------------------------------
 .byte   PATT
  .word Label_016E9477
@  #01 @069   ----------------------------------------
 .byte   W48
 .byte   N48 ,Dn3 ,v092
 .byte   W48
@  #01 @070   ----------------------------------------
 .byte   En3
 .byte   W48
 .byte   N96 ,Fs3
 .byte   W48
@  #01 @071   ----------------------------------------
 .byte   W48
 .byte   N48 ,An3
 .byte   W48
@  #01 @072   ----------------------------------------
Label_016E94A6:
 .byte   N48 ,Dn4 ,v092
 .byte   W48
 .byte   Cs4
 .byte   W48
 .byte   PEND 
@  #01 @073   ----------------------------------------
 .byte   Bn3
 .byte   W48
 .byte   An3
 .byte   W48
@  #01 @074   ----------------------------------------
 .byte   PATT
  .word Label_016E94A6
@  #01 @075   ----------------------------------------
 .byte   N48 ,Bn3 ,v092
 .byte   W48
 .byte   N24 ,An3
 .byte   W24
 .byte   Dn4
 .byte   W24
@  #01 @076   ----------------------------------------
 .byte   Cs4
 .byte   W24
 .byte   Bn3
 .byte   W24
 .byte   An3
 .byte   W24
 .byte   Dn4
 .byte   W24
@  #01 @077   ----------------------------------------
 .byte   Cs4
 .byte   W24
 .byte   Bn3
 .byte   W24
 .byte   N48 ,Gn3
 .byte   W48
@  #01 @078   ----------------------------------------
 .byte   An3
 .byte   W48
 .byte   Bn3
 .byte   W48
@  #01 @079   ----------------------------------------
 .byte   Cs4
 .byte   W48
 .byte   VOICE , 54
 .byte   N64 ,An3 ,v088
 .byte   N64 ,Dn4
 .byte   N64 ,Fs4
 .byte   W48
@  #01 @080   ----------------------------------------
 .byte   PATT
  .word Label_016E925A
@  #01 @081   ----------------------------------------
 .byte   PATT
  .word Label_016E9264
@  #01 @082   ----------------------------------------
 .byte   N36 ,An4 ,v088
 .byte   W48
 .byte   GOTO
  .word Label_016E9276
 .byte   FINE

@**************** Track 2 (Midi-Chn.1) ****************@

song0319_002:
@  #02 @000   ----------------------------------------
 .byte   KEYSH , song0319_key+0
 .byte   VOICE , 52
 .byte   W96
@  #02 @001   ----------------------------------------
 .byte   W96
@  #02 @002   ----------------------------------------
 .byte   W96
@  #02 @003   ----------------------------------------
 .byte   W96
@  #02 @004   ----------------------------------------
 .byte   W96
@  #02 @005   ----------------------------------------
 .byte   W96
@  #02 @006   ----------------------------------------
 .byte   W96
@  #02 @007   ----------------------------------------
 .byte   W48
 .byte   VOL , 43*song0319_mvl/mxv
 .byte   PAN , c_v+0
 .byte   TIE ,Fs2 ,v076
 .byte   TIE ,An2
 .byte   TIE ,Dn3
 .byte   W48
@  #02 @008   ----------------------------------------
 .byte   W96
@  #02 @009   ----------------------------------------
 .byte   W96
@  #02 @010   ----------------------------------------
 .byte   W44
 .byte   W03
 .byte   EOT
 .byte   Fs2 ,v057
 .byte   Dn3
 .byte   W01
Label_016E9515:
 .byte   TIE ,Gn2 ,v076
 .byte   TIE ,Bn2
 .byte   TIE ,Dn3
 .byte   W48
@  #02 @011   ----------------------------------------
 .byte   W96
@  #02 @012   ----------------------------------------
 .byte   W96
@  #02 @013   ----------------------------------------
 .byte   W48
 .byte   EOT
 .byte   Gn2 ,v059
 .byte   Dn3
 .byte   TIE ,Dn2
 .byte   TIE ,Fs2
 .byte   TIE ,Bn2
 .byte   W48
@  #02 @014   ----------------------------------------
 .byte   W96
@  #02 @015   ----------------------------------------
 .byte   W96
@  #02 @016   ----------------------------------------
 .byte   W48
 .byte   EOT
 .byte   Dn2 ,v054
 .byte   Bn2
 .byte   TIE ,En2
 .byte   TIE ,An2
 .byte   TIE ,Cs3
 .byte   W48
@  #02 @017   ----------------------------------------
 .byte   W96
@  #02 @018   ----------------------------------------
 .byte   W96
@  #02 @019   ----------------------------------------
 .byte   W30
 .byte   W01
 .byte   EOT
 .byte   An2 ,v061
 .byte   W17
 .byte   En2
 .byte   TIE ,Fs2
 .byte   TIE ,An2
 .byte   TIE ,Cs3
 .byte   W48
@  #02 @020   ----------------------------------------
 .byte   W96
@  #02 @021   ----------------------------------------
 .byte   W96
@  #02 @022   ----------------------------------------
 .byte   W16
 .byte   EOT
 .byte   Fs2
 .byte   W15
 .byte   An2 ,v061
 .byte   W17
 .byte   TIE ,En2
 .byte   TIE ,Gn2
 .byte   TIE ,Bn2
 .byte   W48
@  #02 @023   ----------------------------------------
 .byte   W96
@  #02 @024   ----------------------------------------
 .byte   W96
@  #02 @025   ----------------------------------------
 .byte   W30
 .byte   W01
 .byte   EOT
 .byte   En2 ,v055
 .byte   Bn2
 .byte   W17
 .byte   TIE ,Dn2
 .byte   TIE ,Fs2
 .byte   TIE ,An2
 .byte   W48
@  #02 @026   ----------------------------------------
 .byte   W96
@  #02 @027   ----------------------------------------
 .byte   W96
@  #02 @028   ----------------------------------------
 .byte   W16
 .byte   EOT
 .byte   Dn2
 .byte   W15
 .byte   Fs2 ,v057
 .byte   W17
 .byte   N16 ,En2
 .byte   N16 ,Gn2
 .byte   N16 ,Cn3
 .byte   W24
 .byte   N64 ,Dn2
 .byte   N64 ,Gn2
 .byte   N64 ,Bn2
 .byte   W24
@  #02 @029   ----------------------------------------
 .byte   W48
 .byte   N16 ,En2
 .byte   N16 ,Gn2
 .byte   N16 ,Cn3
 .byte   W24
 .byte   N64 ,Dn2
 .byte   N64 ,Gn2
 .byte   N64 ,Bn2
 .byte   W24
@  #02 @030   ----------------------------------------
 .byte   W48
 .byte   N78 ,Dn2
 .byte   N78 ,Fs2
 .byte   N78 ,An2
 .byte   W48
@  #02 @031   ----------------------------------------
 .byte   W96
@  #02 @032   ----------------------------------------
 .byte   W96
@  #02 @033   ----------------------------------------
 .byte   W96
@  #02 @034   ----------------------------------------
 .byte   W96
@  #02 @035   ----------------------------------------
 .byte   W96
@  #02 @036   ----------------------------------------
 .byte   W96
@  #02 @037   ----------------------------------------
 .byte   W96
@  #02 @038   ----------------------------------------
 .byte   W96
@  #02 @039   ----------------------------------------
 .byte   W96
@  #02 @040   ----------------------------------------
 .byte   W96
@  #02 @041   ----------------------------------------
 .byte   W96
@  #02 @042   ----------------------------------------
 .byte   W96
@  #02 @043   ----------------------------------------
 .byte   W96
@  #02 @044   ----------------------------------------
 .byte   W96
@  #02 @045   ----------------------------------------
 .byte   W96
@  #02 @046   ----------------------------------------
 .byte   W96
@  #02 @047   ----------------------------------------
 .byte   W96
@  #02 @048   ----------------------------------------
 .byte   W96
@  #02 @049   ----------------------------------------
 .byte   W96
@  #02 @050   ----------------------------------------
 .byte   W96
@  #02 @051   ----------------------------------------
 .byte   W96
@  #02 @052   ----------------------------------------
 .byte   W96
@  #02 @053   ----------------------------------------
 .byte   W96
@  #02 @054   ----------------------------------------
 .byte   W96
@  #02 @055   ----------------------------------------
 .byte   W96
@  #02 @056   ----------------------------------------
 .byte   W96
@  #02 @057   ----------------------------------------
 .byte   W96
@  #02 @058   ----------------------------------------
 .byte   W96
@  #02 @059   ----------------------------------------
 .byte   W96
@  #02 @060   ----------------------------------------
 .byte   W96
@  #02 @061   ----------------------------------------
 .byte   W96
@  #02 @062   ----------------------------------------
 .byte   W96
@  #02 @063   ----------------------------------------
 .byte   W96
@  #02 @064   ----------------------------------------
 .byte   W96
@  #02 @065   ----------------------------------------
 .byte   W96
@  #02 @066   ----------------------------------------
 .byte   W96
@  #02 @067   ----------------------------------------
 .byte   W96
@  #02 @068   ----------------------------------------
 .byte   W96
@  #02 @069   ----------------------------------------
 .byte   W96
@  #02 @070   ----------------------------------------
 .byte   W96
@  #02 @071   ----------------------------------------
 .byte   W96
@  #02 @072   ----------------------------------------
 .byte   W96
@  #02 @073   ----------------------------------------
 .byte   W96
@  #02 @074   ----------------------------------------
 .byte   W96
@  #02 @075   ----------------------------------------
 .byte   W96
@  #02 @076   ----------------------------------------
 .byte   W96
@  #02 @077   ----------------------------------------
 .byte   W96
@  #02 @078   ----------------------------------------
 .byte   W96
@  #02 @079   ----------------------------------------
 .byte   W48
 .byte   TIE ,Fs2
 .byte   TIE ,An2
 .byte   TIE ,Dn3
 .byte   W48
@  #02 @080   ----------------------------------------
 .byte   W96
@  #02 @081   ----------------------------------------
 .byte   W96
@  #02 @082   ----------------------------------------
 .byte   W44
 .byte   W03
 .byte   EOT
 .byte   Fs2 ,v057
 .byte   Dn3
 .byte   W01
 .byte   GOTO
  .word Label_016E9515
 .byte   FINE

@**************** Track 3 (Midi-Chn.2) ****************@

song0319_003:
@  #03 @000   ----------------------------------------
 .byte   KEYSH , song0319_key+0
 .byte   VOICE , 50
 .byte   W96
@  #03 @001   ----------------------------------------
 .byte   W96
@  #03 @002   ----------------------------------------
 .byte   W96
@  #03 @003   ----------------------------------------
 .byte   W96
@  #03 @004   ----------------------------------------
 .byte   W96
@  #03 @005   ----------------------------------------
 .byte   W96
@  #03 @006   ----------------------------------------
 .byte   W96
@  #03 @007   ----------------------------------------
 .byte   W48
 .byte   VOL , 63*song0319_mvl/mxv
 .byte   PAN , c_v+0
 .byte   N32 ,Dn0 ,v092
 .byte   W24
 .byte   N17 ,Dn1
 .byte   W24
@  #03 @008   ----------------------------------------
Label_016E95F7:
 .byte   N17 ,Dn1 ,v092
 .byte   W24
 .byte   N32 ,Dn0
 .byte   W24
 .byte   N17 ,Dn1
 .byte   W24
 .byte   N17
 .byte   W24
 .byte   PEND 
@  #03 @009   ----------------------------------------
Label_016E9604:
 .byte   N17 ,Dn0 ,v092
 .byte   W24
 .byte   Dn1
 .byte   W24
 .byte   Dn0
 .byte   W24
 .byte   Dn1
 .byte   W24
 .byte   PEND 
@  #03 @010   ----------------------------------------
Label_016E960F:
 .byte   N17 ,Dn1 ,v092
 .byte   W24
 .byte   N17
 .byte   W24
 .byte   PEND 
Label_016E9616:
 .byte   N32 ,Gn0 ,v092
 .byte   W24
 .byte   N17 ,Gn1
 .byte   W24
@  #03 @011   ----------------------------------------
 .byte   N17
 .byte   W24
 .byte   Gn0
 .byte   W24
 .byte   Gn1
 .byte   W24
 .byte   N17
 .byte   W24
@  #03 @012   ----------------------------------------
 .byte   Gn0
 .byte   W24
 .byte   Gn1
 .byte   W24
 .byte   N32 ,Fs0
 .byte   W24
 .byte   N17 ,Fs1
 .byte   W24
@  #03 @013   ----------------------------------------
 .byte   N32 ,En0
 .byte   W24
 .byte   N17 ,En1
 .byte   W24
 .byte   N32 ,BnM1
 .byte   W24
 .byte   N17 ,Bn0
 .byte   W24
@  #03 @014   ----------------------------------------
 .byte   N17
 .byte   W24
 .byte   N32 ,BnM1
 .byte   W24
 .byte   N17 ,Bn0
 .byte   W24
 .byte   N17
 .byte   W24
@  #03 @015   ----------------------------------------
 .byte   BnM1
 .byte   W24
 .byte   Bn0
 .byte   W24
 .byte   BnM1
 .byte   W24
 .byte   Bn0
 .byte   W24
@  #03 @016   ----------------------------------------
 .byte   N17
 .byte   W24
 .byte   N17
 .byte   W24
 .byte   N32 ,An0
 .byte   W24
 .byte   N17 ,An1
 .byte   W24
@  #03 @017   ----------------------------------------
 .byte   N17
 .byte   W24
 .byte   N32 ,An0
 .byte   W24
 .byte   N17 ,An1
 .byte   W24
 .byte   N17
 .byte   W24
@  #03 @018   ----------------------------------------
 .byte   An0
 .byte   W24
 .byte   An1
 .byte   W24
 .byte   An0
 .byte   W24
 .byte   An1
 .byte   W24
@  #03 @019   ----------------------------------------
 .byte   N17
 .byte   W24
 .byte   N17
 .byte   W24
 .byte   Fs0
 .byte   W24
 .byte   Fs1
 .byte   W24
@  #03 @020   ----------------------------------------
 .byte   N17
 .byte   W24
 .byte   N32 ,Fs0
 .byte   W24
 .byte   N17 ,Fs1
 .byte   W24
 .byte   N17
 .byte   W24
@  #03 @021   ----------------------------------------
 .byte   Fs0
 .byte   W24
 .byte   Fs1
 .byte   W24
 .byte   N32 ,Bn0
 .byte   W24
 .byte   N17 ,Bn1
 .byte   W24
@  #03 @022   ----------------------------------------
 .byte   N17
 .byte   W24
 .byte   N17
 .byte   W24
 .byte   N32 ,En0
 .byte   W24
 .byte   N17 ,En1
 .byte   W24
@  #03 @023   ----------------------------------------
 .byte   N17
 .byte   W24
 .byte   N32 ,En0
 .byte   W24
 .byte   N17 ,En1
 .byte   W24
 .byte   N17
 .byte   W24
@  #03 @024   ----------------------------------------
 .byte   En0
 .byte   W24
 .byte   En1
 .byte   W24
 .byte   An0
 .byte   W24
 .byte   An1
 .byte   W24
@  #03 @025   ----------------------------------------
 .byte   N17
 .byte   W24
 .byte   N17
 .byte   W24
 .byte   Dn0
 .byte   W24
 .byte   Dn1
 .byte   W24
@  #03 @026   ----------------------------------------
 .byte   N17
 .byte   W24
 .byte   Dn0
 .byte   W24
 .byte   Dn1
 .byte   W24
 .byte   N17
 .byte   W24
@  #03 @027   ----------------------------------------
 .byte   Dn0
 .byte   W24
 .byte   Dn1
 .byte   W24
 .byte   Fs0
 .byte   W24
 .byte   Fs1
 .byte   W24
@  #03 @028   ----------------------------------------
 .byte   Dn1
 .byte   W24
 .byte   N17
 .byte   W24
 .byte   Cn0
 .byte   W24
 .byte   Cn1
 .byte   W24
@  #03 @029   ----------------------------------------
 .byte   N17
 .byte   W24
 .byte   N17
 .byte   W24
 .byte   Cn0
 .byte   W24
 .byte   Cn1
 .byte   W24
@  #03 @030   ----------------------------------------
 .byte   N17
 .byte   W24
 .byte   N17
 .byte   W24
 .byte   N32 ,Dn0
 .byte   W24
 .byte   N17 ,Dn1
 .byte   W24
@  #03 @031   ----------------------------------------
 .byte   PATT
  .word Label_016E95F7
@  #03 @032   ----------------------------------------
 .byte   N17 ,Dn0 ,v092
 .byte   W24
 .byte   Dn1
 .byte   W24
 .byte   N32 ,Dn0 ,v108
 .byte   W24
 .byte   N17 ,Dn1
 .byte   W24
@  #03 @033   ----------------------------------------
Label_016E96E5:
 .byte   N17 ,Dn1 ,v108
 .byte   W24
 .byte   N32 ,Dn0
 .byte   W24
 .byte   N17 ,Dn1
 .byte   W24
 .byte   N17
 .byte   W24
 .byte   PEND 
@  #03 @034   ----------------------------------------
Label_016E96F2:
 .byte   N17 ,Dn0 ,v108
 .byte   W24
 .byte   Dn1
 .byte   W24
 .byte   Dn0
 .byte   W24
 .byte   Dn1
 .byte   W24
 .byte   PEND 
@  #03 @035   ----------------------------------------
Label_016E96FD:
 .byte   N17 ,Dn1 ,v108
 .byte   W24
 .byte   N17
 .byte   W24
 .byte   N32 ,Dn0
 .byte   W24
 .byte   N17 ,Dn1
 .byte   W24
 .byte   PEND 
@  #03 @036   ----------------------------------------
 .byte   PATT
  .word Label_016E96E5
@  #03 @037   ----------------------------------------
 .byte   PATT
  .word Label_016E96F2
@  #03 @038   ----------------------------------------
 .byte   PATT
  .word Label_016E96FD
@  #03 @039   ----------------------------------------
 .byte   PATT
  .word Label_016E96E5
@  #03 @040   ----------------------------------------
 .byte   PATT
  .word Label_016E96F2
@  #03 @041   ----------------------------------------
 .byte   N17 ,Dn1 ,v108
 .byte   W24
 .byte   N17
 .byte   W24
 .byte   N32 ,AnM1
 .byte   W24
 .byte   N17 ,An0
 .byte   W24
@  #03 @042   ----------------------------------------
 .byte   N17
 .byte   W24
 .byte   N32 ,AnM1
 .byte   W24
 .byte   N17 ,An0
 .byte   W24
 .byte   N17
 .byte   W24
@  #03 @043   ----------------------------------------
 .byte   AnM1
 .byte   W24
 .byte   An0
 .byte   W24
 .byte   N32 ,Dn0
 .byte   W24
 .byte   N17 ,Dn1
 .byte   W24
@  #03 @044   ----------------------------------------
 .byte   PATT
  .word Label_016E96E5
@  #03 @045   ----------------------------------------
 .byte   PATT
  .word Label_016E96F2
@  #03 @046   ----------------------------------------
 .byte   PATT
  .word Label_016E96FD
@  #03 @047   ----------------------------------------
 .byte   PATT
  .word Label_016E96E5
@  #03 @048   ----------------------------------------
 .byte   PATT
  .word Label_016E96F2
@  #03 @049   ----------------------------------------
 .byte   N17 ,Dn1 ,v108
 .byte   W24
 .byte   N17
 .byte   W24
 .byte   N32 ,Cn0
 .byte   W24
 .byte   N17 ,Cn1
 .byte   W24
@  #03 @050   ----------------------------------------
 .byte   N17
 .byte   W24
 .byte   N32 ,Cn0
 .byte   W24
 .byte   N17 ,Cn1
 .byte   W24
 .byte   N17
 .byte   W24
@  #03 @051   ----------------------------------------
 .byte   N32 ,Cn0
 .byte   W24
 .byte   N17 ,Cn1
 .byte   W24
 .byte   N17
 .byte   W24
 .byte   N32 ,Cn0
 .byte   W24
@  #03 @052   ----------------------------------------
 .byte   N17 ,Cn1
 .byte   W24
 .byte   N17
 .byte   W24
 .byte   N32 ,Dn0
 .byte   W24
 .byte   N17 ,Dn1
 .byte   W24
@  #03 @053   ----------------------------------------
 .byte   Dn1 ,v112
 .byte   W24
 .byte   N32 ,Dn0 ,v116
 .byte   W24
 .byte   N17 ,Dn1
 .byte   W24
 .byte   Dn1 ,v120
 .byte   W24
@  #03 @054   ----------------------------------------
 .byte   Dn0 ,v124
 .byte   W24
 .byte   Dn1
 .byte   W24
 .byte   TIE ,Dn0 ,v127
 .byte   W48
@  #03 @055   ----------------------------------------
 .byte   W96
@  #03 @056   ----------------------------------------
 .byte   W96
@  #03 @057   ----------------------------------------
 .byte   W96
@  #03 @058   ----------------------------------------
 .byte   W44
 .byte   EOT
 .byte   W52
@  #03 @059   ----------------------------------------
 .byte   W96
@  #03 @060   ----------------------------------------
 .byte   W96
@  #03 @061   ----------------------------------------
 .byte   W96
@  #03 @062   ----------------------------------------
 .byte   W96
@  #03 @063   ----------------------------------------
 .byte   W96
@  #03 @064   ----------------------------------------
 .byte   W96
@  #03 @065   ----------------------------------------
 .byte   W96
@  #03 @066   ----------------------------------------
 .byte   W96
@  #03 @067   ----------------------------------------
 .byte   W96
@  #03 @068   ----------------------------------------
 .byte   W96
@  #03 @069   ----------------------------------------
 .byte   W96
@  #03 @070   ----------------------------------------
 .byte   W48
 .byte   TIE ,Dn0 ,v112
 .byte   W48
@  #03 @071   ----------------------------------------
 .byte   W96
@  #03 @072   ----------------------------------------
 .byte   W96
@  #03 @073   ----------------------------------------
 .byte   W96
@  #03 @074   ----------------------------------------
 .byte   W96
@  #03 @075   ----------------------------------------
 .byte   W96
@  #03 @076   ----------------------------------------
 .byte   W42
 .byte   W01
 .byte   EOT
 .byte   W52
 .byte   W01
@  #03 @077   ----------------------------------------
 .byte   W96
@  #03 @078   ----------------------------------------
 .byte   W96
@  #03 @079   ----------------------------------------
 .byte   W48
 .byte   N32 ,Dn0 ,v092
 .byte   W24
 .byte   N17 ,Dn1
 .byte   W24
@  #03 @080   ----------------------------------------
 .byte   PATT
  .word Label_016E95F7
@  #03 @081   ----------------------------------------
 .byte   PATT
  .word Label_016E9604
@  #03 @082   ----------------------------------------
 .byte   PATT
  .word Label_016E960F
@  #03 @083   ----------------------------------------
 .byte   GOTO
  .word Label_016E9616
 .byte   FINE

@**************** Track 4 (Midi-Chn.3) ****************@

song0319_004:
@  #04 @000   ----------------------------------------
 .byte   KEYSH , song0319_key+0
 .byte   VOICE , 47
 .byte   W96
@  #04 @001   ----------------------------------------
 .byte   W96
@  #04 @002   ----------------------------------------
 .byte   VOL , 70*song0319_mvl/mxv
 .byte   PAN , c_v+0
 .byte   N92 ,As1 ,v032
 .byte   W96
@  #04 @003   ----------------------------------------
 .byte   W96
@  #04 @004   ----------------------------------------
 .byte   Gs1
 .byte   W96
@  #04 @005   ----------------------------------------
 .byte   W96
@  #04 @006   ----------------------------------------
 .byte   W48
 .byte   N03 ,An1 ,v064
 .byte   W06
 .byte   An1 ,v068
 .byte   W06
 .byte   N03
 .byte   W06
 .byte   An1 ,v072
 .byte   W06
 .byte   N03
 .byte   W06
 .byte   An1 ,v076
 .byte   W06
 .byte   An1 ,v080
 .byte   W06
 .byte   N03
 .byte   W06
@  #04 @007   ----------------------------------------
 .byte   An1 ,v084
 .byte   W06
 .byte   N03
 .byte   W06
 .byte   An1 ,v088
 .byte   W05
 .byte   N03
 .byte   W07
 .byte   An1 ,v092
 .byte   W06
 .byte   An1 ,v096
 .byte   W06
 .byte   N03
 .byte   W06
 .byte   An1 ,v100
 .byte   W06
 .byte   N96 ,Dn2 ,v120
 .byte   W48
@  #04 @008   ----------------------------------------
 .byte   W96
@  #04 @009   ----------------------------------------
 .byte   W96
@  #04 @010   ----------------------------------------
 .byte   W24
 .byte   N13 ,Dn2 ,v100
 .byte   W24
Label_016E9829:
 .byte   TIE ,Gn2 ,v100
 .byte   W48
@  #04 @011   ----------------------------------------
 .byte   W96
@  #04 @012   ----------------------------------------
 .byte   W96
@  #04 @013   ----------------------------------------
 .byte   W02
 .byte   EOT
 .byte   W22
 .byte   N14
 .byte   W24
 .byte   N52 ,Bn1
 .byte   W48
@  #04 @014   ----------------------------------------
 .byte   W96
@  #04 @015   ----------------------------------------
 .byte   W96
@  #04 @016   ----------------------------------------
 .byte   W24
 .byte   N11
 .byte   W24
 .byte   TIE ,An1
 .byte   W48
@  #04 @017   ----------------------------------------
 .byte   W96
@  #04 @018   ----------------------------------------
 .byte   W68
 .byte   W01
 .byte   EOT
 .byte   W24
 .byte   W03
@  #04 @019   ----------------------------------------
 .byte   W48
 .byte   N14 ,Fs2
 .byte   W48
@  #04 @020   ----------------------------------------
 .byte   W96
@  #04 @021   ----------------------------------------
 .byte   W96
@  #04 @022   ----------------------------------------
 .byte   W24
 .byte   N12 ,Fs2 ,v080
 .byte   W24
 .byte   N48 ,En2 ,v100
 .byte   W48
@  #04 @023   ----------------------------------------
 .byte   W96
@  #04 @024   ----------------------------------------
 .byte   W96
@  #04 @025   ----------------------------------------
 .byte   W24
 .byte   N10 ,An1
 .byte   W24
 .byte   TIE ,Dn2
 .byte   W48
@  #04 @026   ----------------------------------------
 .byte   W96
@  #04 @027   ----------------------------------------
 .byte   W92
 .byte   W01
 .byte   EOT
 .byte   W03
@  #04 @028   ----------------------------------------
 .byte   W96
@  #04 @029   ----------------------------------------
 .byte   W96
@  #04 @030   ----------------------------------------
 .byte   W48
 .byte   TIE ,Dn1 ,v120
 .byte   W48
@  #04 @031   ----------------------------------------
 .byte   W48
 .byte   N02 ,An2 ,v036
 .byte   W05
 .byte   An2 ,v040
 .byte   W05
 .byte   An2 ,v044
 .byte   W01
 .byte   EOT
 .byte   Dn1
 .byte   W05
 .byte   N02 ,An2 ,v048
 .byte   W05
 .byte   An2 ,v052
 .byte   W07
 .byte   An2 ,v056
 .byte   W05
 .byte   An2 ,v060
 .byte   W06
 .byte   An2 ,v064
 .byte   W06
 .byte   An2 ,v068
 .byte   W03
@  #04 @032   ----------------------------------------
 .byte   W04
 .byte   An2 ,v072
 .byte   W08
 .byte   An2 ,v076
 .byte   W05
 .byte   An2 ,v080
 .byte   W07
 .byte   An2 ,v084
 .byte   W06
 .byte   An2 ,v088
 .byte   W06
 .byte   An2 ,v092
 .byte   W06
 .byte   An2 ,v096
 .byte   W06
 .byte   TIE ,Dn2 ,v100
 .byte   W48
@  #04 @033   ----------------------------------------
 .byte   W96
@  #04 @034   ----------------------------------------
 .byte   W44
 .byte   W03
 .byte   EOT
 .byte   W48
 .byte   W01
@  #04 @035   ----------------------------------------
 .byte   W24
 .byte   N10 ,Dn2 ,v084
 .byte   W24
 .byte   TIE ,Dn2 ,v092
 .byte   W48
@  #04 @036   ----------------------------------------
 .byte   W96
@  #04 @037   ----------------------------------------
 .byte   W96
@  #04 @038   ----------------------------------------
 .byte   W07
 .byte   EOT
 .byte   W42
 .byte   W01
 .byte   TIE ,Dn2 ,v108
 .byte   W44
 .byte   W02
@  #04 @039   ----------------------------------------
 .byte   W96
@  #04 @040   ----------------------------------------
 .byte   W22
 .byte   EOT
 .byte   W72
 .byte   W02
@  #04 @041   ----------------------------------------
 .byte   W24
 .byte   N23 ,Dn3 ,v100
 .byte   W24
 .byte   N03 ,An2 ,v032
 .byte   W05
 .byte   N03
 .byte   W05
 .byte   An2 ,v036
 .byte   W06
 .byte   N03
 .byte   W05
 .byte   An2 ,v040
 .byte   W07
 .byte   N03
 .byte   W05
 .byte   An2 ,v044
 .byte   W06
 .byte   N03
 .byte   W06
 .byte   An2 ,v048
 .byte   W03
@  #04 @042   ----------------------------------------
 .byte   W04
 .byte   N03
 .byte   W08
 .byte   An2 ,v052
 .byte   W05
 .byte   An2 ,v056
 .byte   W07
 .byte   N03
 .byte   W06
 .byte   An2 ,v060
 .byte   W06
 .byte   N03
 .byte   W12
 .byte   An2 ,v068
 .byte   W05
 .byte   N03
 .byte   W05
 .byte   N03
 .byte   W06
 .byte   An2 ,v072
 .byte   W05
 .byte   N03
 .byte   W07
 .byte   An2 ,v076
 .byte   W05
 .byte   An2 ,v080
 .byte   W06
 .byte   N03
 .byte   W06
 .byte   An2 ,v084
 .byte   W03
@  #04 @043   ----------------------------------------
 .byte   W04
 .byte   N03
 .byte   W08
 .byte   An2 ,v088
 .byte   W05
 .byte   An2 ,v092
 .byte   W07
 .byte   N03
 .byte   W06
 .byte   An2 ,v096
 .byte   W06
 .byte   N03
 .byte   W12
 .byte   N23 ,Dn3 ,v100
 .byte   W48
@  #04 @044   ----------------------------------------
 .byte   W96
@  #04 @045   ----------------------------------------
 .byte   W96
@  #04 @046   ----------------------------------------
 .byte   W52
 .byte   Dn2
 .byte   W44
@  #04 @047   ----------------------------------------
 .byte   W96
@  #04 @048   ----------------------------------------
 .byte   W96
@  #04 @049   ----------------------------------------
 .byte   W48
 .byte   W02
 .byte   N24 ,Cn2 ,v092
 .byte   W44
 .byte   W02
@  #04 @050   ----------------------------------------
 .byte   W96
@  #04 @051   ----------------------------------------
 .byte   W96
@  #04 @052   ----------------------------------------
 .byte   W52
 .byte   TIE ,Dn2 ,v100
 .byte   W44
@  #04 @053   ----------------------------------------
 .byte   W92
 .byte   W03
 .byte   EOT
 .byte   W01
@  #04 @054   ----------------------------------------
Label_016E9934:
 .byte   N24 ,Ds2 ,v088
 .byte   N24 ,Fn2
 .byte   W24
 .byte   Ds2 ,v096
 .byte   N24 ,Fn2
 .byte   W24
 .byte   Ds2
 .byte   N24 ,Fn2
 .byte   W48
 .byte   PEND 
@  #04 @055   ----------------------------------------
 .byte   W96
@  #04 @056   ----------------------------------------
 .byte   W96
@  #04 @057   ----------------------------------------
 .byte   W96
@  #04 @058   ----------------------------------------
 .byte   W96
@  #04 @059   ----------------------------------------
 .byte   W96
@  #04 @060   ----------------------------------------
 .byte   W96
@  #04 @061   ----------------------------------------
 .byte   W96
@  #04 @062   ----------------------------------------
 .byte   W96
@  #04 @063   ----------------------------------------
 .byte   W96
@  #04 @064   ----------------------------------------
 .byte   W96
@  #04 @065   ----------------------------------------
 .byte   W96
@  #04 @066   ----------------------------------------
 .byte   W96
@  #04 @067   ----------------------------------------
 .byte   W96
@  #04 @068   ----------------------------------------
 .byte   W96
@  #04 @069   ----------------------------------------
 .byte   W96
@  #04 @070   ----------------------------------------
 .byte   PATT
  .word Label_016E9934
@  #04 @071   ----------------------------------------
 .byte   W96
@  #04 @072   ----------------------------------------
 .byte   W96
@  #04 @073   ----------------------------------------
 .byte   W96
@  #04 @074   ----------------------------------------
 .byte   W96
@  #04 @075   ----------------------------------------
 .byte   W96
@  #04 @076   ----------------------------------------
 .byte   W96
@  #04 @077   ----------------------------------------
 .byte   W96
@  #04 @078   ----------------------------------------
 .byte   W48
 .byte   N02 ,Cs2 ,v084
 .byte   W06
 .byte   N02
 .byte   W06
 .byte   Cs2 ,v088
 .byte   W06
 .byte   N02
 .byte   W06
 .byte   N02
 .byte   W06
 .byte   Cs2 ,v092
 .byte   W06
 .byte   N02
 .byte   W06
 .byte   N02
 .byte   W06
@  #04 @079   ----------------------------------------
 .byte   Cs2 ,v096
 .byte   W06
 .byte   N02
 .byte   W06
 .byte   N02
 .byte   W05
 .byte   Cs2 ,v100
 .byte   W07
 .byte   N02
 .byte   W06
 .byte   N02
 .byte   W06
 .byte   Cs2 ,v104
 .byte   W12
 .byte   TIE ,Dn2 ,v120
 .byte   W48
@  #04 @080   ----------------------------------------
 .byte   W96
@  #04 @081   ----------------------------------------
 .byte   W44
 .byte   W03
 .byte   EOT
 .byte   W48
 .byte   W01
@  #04 @082   ----------------------------------------
 .byte   W24
 .byte   N13 ,Dn2 ,v100
 .byte   W24
 .byte   GOTO
  .word Label_016E9829
 .byte   FINE

@**************** Track 5 (Midi-Chn.4) ****************@

song0319_005:
@  #05 @000   ----------------------------------------
 .byte   KEYSH , song0319_key+0
 .byte   VOICE , 48
 .byte   W96
@  #05 @001   ----------------------------------------
 .byte   W96
@  #05 @002   ----------------------------------------
 .byte   VOL , 59*song0319_mvl/mxv
 .byte   PAN , c_v-6
 .byte   W96
@  #05 @003   ----------------------------------------
 .byte   W96
@  #05 @004   ----------------------------------------
 .byte   W96
@  #05 @005   ----------------------------------------
 .byte   W96
@  #05 @006   ----------------------------------------
 .byte   W96
@  #05 @007   ----------------------------------------
 .byte   W96
@  #05 @008   ----------------------------------------
 .byte   W96
@  #05 @009   ----------------------------------------
 .byte   W96
@  #05 @010   ----------------------------------------
 .byte   W48
Label_016E99AF:
 .byte   W48
@  #05 @011   ----------------------------------------
 .byte   W96
@  #05 @012   ----------------------------------------
 .byte   W96
@  #05 @013   ----------------------------------------
 .byte   W96
@  #05 @014   ----------------------------------------
 .byte   W96
@  #05 @015   ----------------------------------------
 .byte   W96
@  #05 @016   ----------------------------------------
 .byte   W96
@  #05 @017   ----------------------------------------
 .byte   W96
@  #05 @018   ----------------------------------------
 .byte   W96
@  #05 @019   ----------------------------------------
 .byte   W96
@  #05 @020   ----------------------------------------
 .byte   W96
@  #05 @021   ----------------------------------------
 .byte   W96
@  #05 @022   ----------------------------------------
 .byte   W96
@  #05 @023   ----------------------------------------
 .byte   W96
@  #05 @024   ----------------------------------------
 .byte   W96
@  #05 @025   ----------------------------------------
 .byte   W96
@  #05 @026   ----------------------------------------
 .byte   W96
@  #05 @027   ----------------------------------------
 .byte   W96
@  #05 @028   ----------------------------------------
 .byte   W96
@  #05 @029   ----------------------------------------
 .byte   W96
@  #05 @030   ----------------------------------------
 .byte   W72
 .byte   N11 ,Dn4 ,v100
 .byte   W24
@  #05 @031   ----------------------------------------
 .byte   N10 ,Cs4
 .byte   W24
 .byte   An3
 .byte   W24
 .byte   N18 ,Dn3
 .byte   W24
 .byte   N09 ,Cs3
 .byte   W24
@  #05 @032   ----------------------------------------
 .byte   N12 ,An2
 .byte   W24
 .byte   N14 ,En2
 .byte   W24
 .byte   N16 ,Dn2
 .byte   W48
@  #05 @033   ----------------------------------------
 .byte   W96
@  #05 @034   ----------------------------------------
 .byte   W96
@  #05 @035   ----------------------------------------
 .byte   W96
@  #05 @036   ----------------------------------------
 .byte   W96
@  #05 @037   ----------------------------------------
 .byte   W96
@  #05 @038   ----------------------------------------
 .byte   W96
@  #05 @039   ----------------------------------------
 .byte   W96
@  #05 @040   ----------------------------------------
 .byte   W96
@  #05 @041   ----------------------------------------
 .byte   W96
@  #05 @042   ----------------------------------------
 .byte   W96
@  #05 @043   ----------------------------------------
 .byte   W96
@  #05 @044   ----------------------------------------
 .byte   PAN , c_v-1
 .byte   W96
@  #05 @045   ----------------------------------------
 .byte   W96
@  #05 @046   ----------------------------------------
 .byte   W96
@  #05 @047   ----------------------------------------
 .byte   W96
@  #05 @048   ----------------------------------------
 .byte   W96
@  #05 @049   ----------------------------------------
 .byte   W96
@  #05 @050   ----------------------------------------
 .byte   W96
@  #05 @051   ----------------------------------------
 .byte   W96
@  #05 @052   ----------------------------------------
 .byte   W96
@  #05 @053   ----------------------------------------
 .byte   W96
@  #05 @054   ----------------------------------------
 .byte   W48
 .byte   TIE ,Dn2 ,v052
 .byte   W48
@  #05 @055   ----------------------------------------
 .byte   W96
@  #05 @056   ----------------------------------------
 .byte   W96
@  #05 @057   ----------------------------------------
 .byte   W96
@  #05 @058   ----------------------------------------
 .byte   W96
@  #05 @059   ----------------------------------------
 .byte   W96
@  #05 @060   ----------------------------------------
 .byte   W96
@  #05 @061   ----------------------------------------
 .byte   W96
@  #05 @062   ----------------------------------------
 .byte   W96
@  #05 @063   ----------------------------------------
 .byte   W96
@  #05 @064   ----------------------------------------
 .byte   W96
@  #05 @065   ----------------------------------------
 .byte   W96
@  #05 @066   ----------------------------------------
 .byte   W96
@  #05 @067   ----------------------------------------
 .byte   W96
@  #05 @068   ----------------------------------------
 .byte   W68
 .byte   EOT
 .byte   W28
@  #05 @069   ----------------------------------------
 .byte   W96
@  #05 @070   ----------------------------------------
 .byte   W96
@  #05 @071   ----------------------------------------
 .byte   W96
@  #05 @072   ----------------------------------------
 .byte   W96
@  #05 @073   ----------------------------------------
 .byte   W96
@  #05 @074   ----------------------------------------
 .byte   W96
@  #05 @075   ----------------------------------------
 .byte   W96
@  #05 @076   ----------------------------------------
 .byte   W48
 .byte   VOL , 46*song0319_mvl/mxv
 .byte   W48
@  #05 @077   ----------------------------------------
 .byte   W96
@  #05 @078   ----------------------------------------
 .byte   W96
@  #05 @079   ----------------------------------------
 .byte   W48
 .byte   VOL , 59*song0319_mvl/mxv
 .byte   PAN , c_v-6
 .byte   W48
@  #05 @080   ----------------------------------------
 .byte   W96
@  #05 @081   ----------------------------------------
 .byte   W96
@  #05 @082   ----------------------------------------
 .byte   W48
 .byte   GOTO
  .word Label_016E99AF
 .byte   FINE

@**************** Track 6 (Midi-Chn.5) ****************@

song0319_006:
@  #06 @000   ----------------------------------------
 .byte   KEYSH , song0319_key+0
 .byte   VOICE , 57
 .byte   VOL , 59*song0319_mvl/mxv
 .byte   PAN , c_v+20
 .byte   W96
@  #06 @001   ----------------------------------------
 .byte   W96
@  #06 @002   ----------------------------------------
 .byte   N44 ,Cn3 ,v072
 .byte   W48
 .byte   Dn3 ,v076
 .byte   W48
@  #06 @003   ----------------------------------------
 .byte   N92 ,Gn3 ,v080
 .byte   W96
@  #06 @004   ----------------------------------------
 .byte   N44 ,Fn3 ,v092
 .byte   W48
 .byte   Gn3 ,v104
 .byte   W48
@  #06 @005   ----------------------------------------
 .byte   N92 ,Cn4 ,v108
 .byte   W96
@  #06 @006   ----------------------------------------
 .byte   N44 ,As3 ,v116
 .byte   W48
 .byte   Dn4 ,v120
 .byte   W48
@  #06 @007   ----------------------------------------
 .byte   En4 ,v124
 .byte   W96
@  #06 @008   ----------------------------------------
 .byte   W96
@  #06 @009   ----------------------------------------
 .byte   W96
@  #06 @010   ----------------------------------------
 .byte   W48
Label_016E9A51:
 .byte   W48
@  #06 @011   ----------------------------------------
 .byte   W96
@  #06 @012   ----------------------------------------
 .byte   W96
@  #06 @013   ----------------------------------------
 .byte   W96
@  #06 @014   ----------------------------------------
 .byte   W96
@  #06 @015   ----------------------------------------
 .byte   W96
@  #06 @016   ----------------------------------------
 .byte   W96
@  #06 @017   ----------------------------------------
 .byte   W96
@  #06 @018   ----------------------------------------
 .byte   W96
@  #06 @019   ----------------------------------------
 .byte   W96
@  #06 @020   ----------------------------------------
 .byte   W96
@  #06 @021   ----------------------------------------
 .byte   W96
@  #06 @022   ----------------------------------------
 .byte   W96
@  #06 @023   ----------------------------------------
 .byte   W96
@  #06 @024   ----------------------------------------
 .byte   W96
@  #06 @025   ----------------------------------------
 .byte   W96
@  #06 @026   ----------------------------------------
 .byte   W96
@  #06 @027   ----------------------------------------
 .byte   W96
@  #06 @028   ----------------------------------------
 .byte   W96
@  #06 @029   ----------------------------------------
 .byte   W96
@  #06 @030   ----------------------------------------
 .byte   W72
 .byte   N11 ,Dn4 ,v100
 .byte   W24
@  #06 @031   ----------------------------------------
 .byte   N10 ,Cs4
 .byte   W24
 .byte   An3
 .byte   W24
 .byte   N18 ,Dn3
 .byte   W24
 .byte   N09 ,Cs3
 .byte   W24
@  #06 @032   ----------------------------------------
 .byte   N12 ,An2
 .byte   W24
 .byte   N14 ,En2
 .byte   W24
 .byte   N16 ,Dn2
 .byte   W48
@  #06 @033   ----------------------------------------
 .byte   W96
@  #06 @034   ----------------------------------------
 .byte   W96
@  #06 @035   ----------------------------------------
 .byte   W96
@  #06 @036   ----------------------------------------
 .byte   W96
@  #06 @037   ----------------------------------------
 .byte   W96
@  #06 @038   ----------------------------------------
 .byte   W96
@  #06 @039   ----------------------------------------
 .byte   W96
@  #06 @040   ----------------------------------------
 .byte   W96
@  #06 @041   ----------------------------------------
 .byte   W96
@  #06 @042   ----------------------------------------
 .byte   W96
@  #06 @043   ----------------------------------------
 .byte   W96
@  #06 @044   ----------------------------------------
 .byte   W96
@  #06 @045   ----------------------------------------
 .byte   W96
@  #06 @046   ----------------------------------------
 .byte   W96
@  #06 @047   ----------------------------------------
 .byte   W96
@  #06 @048   ----------------------------------------
 .byte   W96
@  #06 @049   ----------------------------------------
 .byte   W96
@  #06 @050   ----------------------------------------
 .byte   W96
@  #06 @051   ----------------------------------------
 .byte   W96
@  #06 @052   ----------------------------------------
 .byte   W96
@  #06 @053   ----------------------------------------
 .byte   W96
@  #06 @054   ----------------------------------------
 .byte   W96
@  #06 @055   ----------------------------------------
 .byte   W96
@  #06 @056   ----------------------------------------
 .byte   W96
@  #06 @057   ----------------------------------------
 .byte   W96
@  #06 @058   ----------------------------------------
 .byte   W96
@  #06 @059   ----------------------------------------
 .byte   W96
@  #06 @060   ----------------------------------------
 .byte   W96
@  #06 @061   ----------------------------------------
 .byte   W96
@  #06 @062   ----------------------------------------
 .byte   W96
@  #06 @063   ----------------------------------------
 .byte   W96
@  #06 @064   ----------------------------------------
 .byte   W96
@  #06 @065   ----------------------------------------
 .byte   W96
@  #06 @066   ----------------------------------------
 .byte   W96
@  #06 @067   ----------------------------------------
 .byte   W96
@  #06 @068   ----------------------------------------
 .byte   W96
@  #06 @069   ----------------------------------------
 .byte   W96
@  #06 @070   ----------------------------------------
 .byte   W96
@  #06 @071   ----------------------------------------
 .byte   W96
@  #06 @072   ----------------------------------------
 .byte   W96
@  #06 @073   ----------------------------------------
 .byte   W96
@  #06 @074   ----------------------------------------
 .byte   W96
@  #06 @075   ----------------------------------------
 .byte   W96
@  #06 @076   ----------------------------------------
 .byte   W96
@  #06 @077   ----------------------------------------
 .byte   W96
@  #06 @078   ----------------------------------------
 .byte   W96
@  #06 @079   ----------------------------------------
 .byte   W96
@  #06 @080   ----------------------------------------
 .byte   W96
@  #06 @081   ----------------------------------------
 .byte   W96
@  #06 @082   ----------------------------------------
 .byte   W48
 .byte   GOTO
  .word Label_016E9A51
 .byte   FINE

@**************** Track 7 (Midi-Chn.6) ****************@

song0319_007:
@  #07 @000   ----------------------------------------
 .byte   KEYSH , song0319_key+0
 .byte   VOICE , 49
 .byte   VOL , 48*song0319_mvl/mxv
 .byte   PAN , c_v-27
 .byte   N48 ,Gn2 ,v052
 .byte   W48
 .byte   An2 ,v056
 .byte   W48
@  #07 @001   ----------------------------------------
 .byte   N96 ,Dn3 ,v060
 .byte   W96
@  #07 @002   ----------------------------------------
 .byte   N48 ,Cn3 ,v064
 .byte   W48
 .byte   Dn3 ,v072
 .byte   W48
@  #07 @003   ----------------------------------------
 .byte   N96 ,Gn3 ,v080
 .byte   W96
@  #07 @004   ----------------------------------------
 .byte   N48 ,Fn3 ,v096
 .byte   W48
 .byte   Gn3 ,v104
 .byte   W48
@  #07 @005   ----------------------------------------
 .byte   N96 ,Cn4 ,v108
 .byte   W96
@  #07 @006   ----------------------------------------
 .byte   N48 ,As3 ,v116
 .byte   W48
 .byte   Dn4 ,v120
 .byte   W48
@  #07 @007   ----------------------------------------
 .byte   En4 ,v124
 .byte   W96
@  #07 @008   ----------------------------------------
 .byte   W96
@  #07 @009   ----------------------------------------
 .byte   W96
@  #07 @010   ----------------------------------------
 .byte   W48
Label_016E9AEE:
 .byte   W48
@  #07 @011   ----------------------------------------
 .byte   W96
@  #07 @012   ----------------------------------------
 .byte   W96
@  #07 @013   ----------------------------------------
 .byte   W96
@  #07 @014   ----------------------------------------
 .byte   W96
@  #07 @015   ----------------------------------------
 .byte   W96
@  #07 @016   ----------------------------------------
 .byte   W96
@  #07 @017   ----------------------------------------
 .byte   W96
@  #07 @018   ----------------------------------------
 .byte   W96
@  #07 @019   ----------------------------------------
 .byte   W96
@  #07 @020   ----------------------------------------
 .byte   W96
@  #07 @021   ----------------------------------------
 .byte   W96
@  #07 @022   ----------------------------------------
 .byte   W96
@  #07 @023   ----------------------------------------
 .byte   W96
@  #07 @024   ----------------------------------------
 .byte   W96
@  #07 @025   ----------------------------------------
 .byte   W96
@  #07 @026   ----------------------------------------
 .byte   W96
@  #07 @027   ----------------------------------------
 .byte   W96
@  #07 @028   ----------------------------------------
 .byte   W96
@  #07 @029   ----------------------------------------
 .byte   W96
@  #07 @030   ----------------------------------------
 .byte   W96
@  #07 @031   ----------------------------------------
 .byte   W96
@  #07 @032   ----------------------------------------
 .byte   W96
@  #07 @033   ----------------------------------------
 .byte   W96
@  #07 @034   ----------------------------------------
 .byte   W96
@  #07 @035   ----------------------------------------
 .byte   W96
@  #07 @036   ----------------------------------------
 .byte   W96
@  #07 @037   ----------------------------------------
 .byte   W96
@  #07 @038   ----------------------------------------
 .byte   W96
@  #07 @039   ----------------------------------------
 .byte   W96
@  #07 @040   ----------------------------------------
 .byte   W96
@  #07 @041   ----------------------------------------
 .byte   W96
@  #07 @042   ----------------------------------------
 .byte   W96
@  #07 @043   ----------------------------------------
 .byte   W96
@  #07 @044   ----------------------------------------
 .byte   W96
@  #07 @045   ----------------------------------------
 .byte   W96
@  #07 @046   ----------------------------------------
 .byte   W96
@  #07 @047   ----------------------------------------
 .byte   W96
@  #07 @048   ----------------------------------------
 .byte   W96
@  #07 @049   ----------------------------------------
 .byte   W96
@  #07 @050   ----------------------------------------
 .byte   W96
@  #07 @051   ----------------------------------------
 .byte   W96
@  #07 @052   ----------------------------------------
 .byte   W96
@  #07 @053   ----------------------------------------
 .byte   W96
@  #07 @054   ----------------------------------------
 .byte   W48
 .byte   N13 ,An2 ,v056
 .byte   N12 ,Fs3
 .byte   W24
 .byte   N13 ,An2 ,v060
 .byte   N10 ,Fs3 ,v052
 .byte   W24
@  #07 @055   ----------------------------------------
 .byte   N12 ,An2 ,v060
 .byte   N12 ,Fs3 ,v048
 .byte   W24
 .byte   N13 ,An2 ,v060
 .byte   N13 ,Fs3 ,v048
 .byte   W24
 .byte   Cs3 ,v060
 .byte   N13 ,An3 ,v064
 .byte   W24
 .byte   N12 ,Cs3 ,v048
 .byte   N13 ,An3 ,v060
 .byte   W24
@  #07 @056   ----------------------------------------
 .byte   N12 ,Cs3 ,v048
 .byte   N12 ,An3 ,v060
 .byte   W24
 .byte   N14 ,Cs3 ,v052
 .byte   N12 ,An3 ,v060
 .byte   W24
 .byte   Bn2
 .byte   N13 ,Gn3 ,v068
 .byte   W24
 .byte   Bn2 ,v048
 .byte   N12 ,Gn3 ,v060
 .byte   W24
@  #07 @057   ----------------------------------------
 .byte   N13 ,An2
 .byte   N08 ,Fs3 ,v064
 .byte   W24
 .byte   N14 ,An2 ,v060
 .byte   N13 ,Fs3 ,v052
 .byte   W24
 .byte   N12 ,Gn2 ,v068
 .byte   N10 ,En3 ,v064
 .byte   W24
 .byte   N13 ,Gn2
 .byte   N12 ,En3 ,v060
 .byte   W24
@  #07 @058   ----------------------------------------
 .byte   N10 ,Fs2
 .byte   N12 ,Dn3 ,v076
 .byte   W24
 .byte   Fs2 ,v052
 .byte   N13 ,Dn3 ,v068
 .byte   W24
 .byte   N14 ,Gn2 ,v064
 .byte   N12 ,Gn3 ,v072
 .byte   N12 ,Dn4
 .byte   W24
 .byte   Gn2 ,v060
 .byte   N12 ,Gn3 ,v064
 .byte   N12 ,Dn4 ,v060
 .byte   W24
@  #07 @059   ----------------------------------------
 .byte   Gn2
 .byte   N12 ,Gn3 ,v064
 .byte   N10 ,Dn4
 .byte   W24
 .byte   N13 ,Gn2 ,v068
 .byte   N12 ,Gn3 ,v056
 .byte   N12 ,Dn4 ,v060
 .byte   W24
 .byte   An2 ,v068
 .byte   N12 ,An3 ,v056
 .byte   N08 ,Cs4 ,v068
 .byte   W24
 .byte   N12 ,An2 ,v036
 .byte   N12 ,An3 ,v060
 .byte   N10 ,Cs4 ,v048
 .byte   W24
@  #07 @060   ----------------------------------------
 .byte   N12 ,Bn2 ,v060
 .byte   N12 ,Gn3 ,v068
 .byte   N10 ,Bn3 ,v064
 .byte   W24
 .byte   Bn2 ,v060
 .byte   N10 ,Gn3
 .byte   N13 ,Bn3
 .byte   W24
 .byte   N10 ,Cs3 ,v084
 .byte   N12 ,Fs3 ,v052
 .byte   N10 ,An3 ,v068
 .byte   W24
 .byte   N13 ,Cs3 ,v048
 .byte   N12 ,Fs3
 .byte   N12 ,An3 ,v060
 .byte   W24
@  #07 @061   ----------------------------------------
 .byte   N13 ,Cs3 ,v052
 .byte   N10 ,Fs3 ,v048
 .byte   N12 ,An3 ,v060
 .byte   W24
 .byte   Cs3 ,v052
 .byte   N13 ,Fs3 ,v044
 .byte   N14 ,An3 ,v060
 .byte   W24
 .byte   N12 ,Bn2 ,v064
 .byte   N10 ,En3 ,v052
 .byte   N12 ,Gn3 ,v068
 .byte   W24
 .byte   Bn2 ,v060
 .byte   N13 ,En3 ,v052
 .byte   N13 ,Gn3 ,v060
 .byte   W24
@  #07 @062   ----------------------------------------
 .byte   N10 ,An2 ,v064
 .byte   N10 ,Dn3 ,v056
 .byte   N08 ,Fs3 ,v076
 .byte   W24
 .byte   N13 ,An2 ,v060
 .byte   N13 ,Dn3
 .byte   N12 ,Fs3
 .byte   W24
 .byte   N13 ,Gn2 ,v068
 .byte   N10 ,Cs3 ,v060
 .byte   N12 ,En3 ,v072
 .byte   W24
 .byte   Gn2 ,v064
 .byte   N12 ,Cs3 ,v052
 .byte   N12 ,En3 ,v060
 .byte   W24
@  #07 @063   ----------------------------------------
 .byte   N10 ,Gn2 ,v064
 .byte   N12 ,Cs3 ,v048
 .byte   N12 ,En3 ,v060
 .byte   W24
 .byte   Gn2
 .byte   N12 ,Cs3 ,v048
 .byte   N10 ,En3 ,v060
 .byte   W24
 .byte   An2 ,v068
 .byte   N12 ,En3 ,v064
 .byte   N12 ,Bn3
 .byte   W24
 .byte   N10 ,An2 ,v060
 .byte   N12 ,En3
 .byte   N12 ,Bn3
 .byte   W24
@  #07 @064   ----------------------------------------
 .byte   An2
 .byte   N12 ,En3 ,v064
 .byte   N12 ,Bn3
 .byte   W24
 .byte   An2 ,v060
 .byte   N13 ,En3 ,v056
 .byte   N12 ,Bn3 ,v068
 .byte   W24
 .byte   Bn2
 .byte   N10 ,En3
 .byte   W24
 .byte   N12 ,Bn2 ,v060
 .byte   N10 ,En3
 .byte   W24
@  #07 @065   ----------------------------------------
 .byte   N12 ,Bn2
 .byte   N10 ,En3
 .byte   W24
 .byte   N12 ,Bn2 ,v064
 .byte   N12 ,En3 ,v060
 .byte   W24
 .byte   Cs3 ,v064
 .byte   N13 ,Dn3 ,v072
 .byte   W24
 .byte   N10 ,Cs3 ,v064
 .byte   N13 ,Dn3 ,v060
 .byte   W24
@  #07 @066   ----------------------------------------
 .byte   N10 ,Bn2 ,v064
 .byte   N08 ,Fs3 ,v080
 .byte   W24
 .byte   N12 ,Bn2 ,v060
 .byte   N10 ,Fs3 ,v056
 .byte   W24
 .byte   N12 ,An2 ,v068
 .byte   N10 ,Dn3 ,v064
 .byte   N10 ,En3 ,v056
 .byte   W24
 .byte   N14 ,An2 ,v060
 .byte   N10 ,Dn3 ,v056
 .byte   N10 ,En3 ,v064
 .byte   W24
@  #07 @067   ----------------------------------------
 .byte   N12 ,Gn2
 .byte   N08 ,Dn3 ,v056
 .byte   N08 ,En3
 .byte   W24
 .byte   N13 ,Gn2 ,v064
 .byte   N10 ,Dn3 ,v060
 .byte   N12 ,En3
 .byte   W24
 .byte   N10 ,Fs2 ,v072
 .byte   N10 ,Dn3 ,v068
 .byte   W10
 .byte   N01 ,Dn3 ,v060
 .byte   W14
 .byte   N12 ,Fs2 ,v048
 .byte   N12 ,Dn3 ,v056
 .byte   W24
@  #07 @068   ----------------------------------------
 .byte   N13 ,Gn2 ,v068
 .byte   N10 ,Dn3 ,v056
 .byte   N08 ,Fs3 ,v072
 .byte   W24
 .byte   N13 ,Gn2 ,v064
 .byte   N12 ,Dn3 ,v052
 .byte   N12 ,Fs3 ,v056
 .byte   W24
 .byte   An2 ,v060
 .byte   N11 ,Cs3 ,v048
 .byte   N12 ,En3 ,v060
 .byte   W24
 .byte   An2 ,v056
 .byte   N10 ,Cs3 ,v048
 .byte   N10 ,En3 ,v056
 .byte   W24
@  #07 @069   ----------------------------------------
 .byte   N12 ,An2
 .byte   N10 ,Cs3 ,v052
 .byte   N12 ,En3 ,v060
 .byte   W10
 .byte   N01 ,Cs3 ,v048
 .byte   W14
 .byte   N13 ,An2 ,v060
 .byte   N11 ,Cs3 ,v056
 .byte   N12 ,En3 ,v060
 .byte   W24
 .byte   N13 ,An2
 .byte   N10 ,Cs3
 .byte   N12 ,En3 ,v064
 .byte   W24
 .byte   N14 ,An2 ,v060
 .byte   N10 ,Cs3
 .byte   N12 ,En3 ,v064
 .byte   W24
@  #07 @070   ----------------------------------------
 .byte   An2 ,v060
 .byte   N12 ,Cs3 ,v044
 .byte   N12 ,Dn3 ,v064
 .byte   W24
 .byte   An2
 .byte   N10 ,Cs3 ,v072
 .byte   N10 ,En3 ,v064
 .byte   W10
 .byte   N02 ,Cs3 ,v048
 .byte   W14
 .byte   N12 ,An2 ,v068
 .byte   N10 ,Dn3 ,v060
 .byte   N10 ,Fs3 ,v080
 .byte   W10
 .byte   N01 ,Dn3
 .byte   W14
 .byte   N12 ,An2 ,v068
 .byte   N10 ,Dn3 ,v052
 .byte   N12 ,Fs3 ,v056
 .byte   W24
@  #07 @071   ----------------------------------------
 .byte   An2 ,v072
 .byte   N12 ,Dn3 ,v056
 .byte   N08 ,Fs3 ,v052
 .byte   W24
 .byte   N14 ,An2 ,v060
 .byte   N12 ,Dn3 ,v076
 .byte   N12 ,Fs3 ,v052
 .byte   W24
 .byte   N10 ,Cs3 ,v080
 .byte   N08 ,Fs3 ,v060
 .byte   N12 ,An3 ,v080
 .byte   W24
 .byte   N14 ,Cs3 ,v052
 .byte   N10 ,Fs3
 .byte   N12 ,An3 ,v060
 .byte   W24
@  #07 @072   ----------------------------------------
 .byte   N10 ,Bn2 ,v064
 .byte   N12 ,Bn3
 .byte   N12 ,Dn4
 .byte   W24
 .byte   N13 ,Bn2
 .byte   N13 ,Bn3 ,v048
 .byte   N13 ,Dn4 ,v060
 .byte   W24
 .byte   N12 ,An2 ,v068
 .byte   N12 ,An3 ,v052
 .byte   N10 ,Cs4 ,v068
 .byte   W24
 .byte   N13 ,An2 ,v064
 .byte   N12 ,An3 ,v056
 .byte   N12 ,Cs4
 .byte   W24
@  #07 @073   ----------------------------------------
 .byte   N10 ,Gn2 ,v072
 .byte   N12 ,Gn3 ,v056
 .byte   N10 ,Bn3 ,v064
 .byte   W24
 .byte   N12 ,Gn2 ,v060
 .byte   N13 ,Gn3 ,v056
 .byte   N13 ,Bn3
 .byte   W24
 .byte   N14 ,An2 ,v060
 .byte   N12 ,Fs3 ,v056
 .byte   N12 ,An3 ,v064
 .byte   W24
 .byte   N14 ,An2 ,v056
 .byte   N12 ,Fs3 ,v040
 .byte   N13 ,An3 ,v056
 .byte   W24
@  #07 @074   ----------------------------------------
 .byte   N10 ,Bn2 ,v064
 .byte   N13 ,Bn3 ,v060
 .byte   N13 ,Dn4
 .byte   W24
 .byte   Bn2
 .byte   N13 ,Bn3 ,v056
 .byte   N13 ,Dn4 ,v060
 .byte   W24
 .byte   An2 ,v064
 .byte   N12 ,An3 ,v060
 .byte   N10 ,Cs4 ,v068
 .byte   W24
 .byte   N14 ,An2 ,v060
 .byte   N12 ,An3 ,v056
 .byte   N12 ,Cs4
 .byte   W24
@  #07 @075   ----------------------------------------
 .byte   N10 ,Bn2 ,v060
 .byte   N10 ,Gn3 ,v068
 .byte   N10 ,Bn3
 .byte   W24
 .byte   N12 ,Bn2 ,v064
 .byte   N13 ,Gn3 ,v056
 .byte   N13 ,Bn3 ,v060
 .byte   W24
 .byte   N12 ,Cs3
 .byte   N12 ,Fs3 ,v056
 .byte   N12 ,An3 ,v068
 .byte   W24
 .byte   N14 ,Cs3 ,v052
 .byte   N13 ,Bn3 ,v060
 .byte   N12 ,Dn4 ,v068
 .byte   W24
@  #07 @076   ----------------------------------------
 .byte   N10 ,Bn2 ,v060
 .byte   N12 ,An3 ,v052
 .byte   N12 ,Cs4 ,v072
 .byte   W24
 .byte   Bn2 ,v064
 .byte   N14 ,Gn3 ,v056
 .byte   N12 ,Bn3 ,v064
 .byte   W24
 .byte   Cs3 ,v072
 .byte   N12 ,Fs3 ,v044
 .byte   N12 ,An3 ,v060
 .byte   W24
 .byte   N13 ,Cs3 ,v052
 .byte   N12 ,Bn3 ,v048
 .byte   N13 ,Dn4 ,v068
 .byte   W24
@  #07 @077   ----------------------------------------
 .byte   N12 ,Bn2 ,v060
 .byte   N12 ,An3 ,v052
 .byte   N12 ,Cs4 ,v072
 .byte   W24
 .byte   N13 ,Bn2 ,v060
 .byte   N13 ,Gn3 ,v052
 .byte   N16 ,Bn3 ,v068
 .byte   W24
 .byte   Bn2 ,v064
 .byte   N48 ,Gn3
 .byte   W24
 .byte   N17 ,Bn2 ,v068
 .byte   W24
@  #07 @078   ----------------------------------------
 .byte   N16 ,Cs3 ,v064
 .byte   N48 ,An3
 .byte   W24
 .byte   N16 ,Cs3 ,v068
 .byte   W24
 .byte   N18 ,En3 ,v072
 .byte   N48 ,Bn3
 .byte   W24
 .byte   N18 ,En3 ,v080
 .byte   W24
@  #07 @079   ----------------------------------------
 .byte   Fs3 ,v084
 .byte   N48 ,Cs4
 .byte   W24
 .byte   N17 ,Fs3 ,v088
 .byte   W72
@  #07 @080   ----------------------------------------
 .byte   W96
@  #07 @081   ----------------------------------------
 .byte   W96
@  #07 @082   ----------------------------------------
 .byte   W48
 .byte   GOTO
  .word Label_016E9AEE
 .byte   FINE

@**************** Track 8 (Midi-Chn.7) ****************@

song0319_008:
@  #08 @000   ----------------------------------------
 .byte   KEYSH , song0319_key+0
 .byte   VOICE , 49
 .byte   VOL , 44*song0319_mvl/mxv
 .byte   PAN , c_v+27
 .byte   TIE ,Cn2 ,v036
 .byte   N01 ,Dn2 ,v040
 .byte   W24
 .byte   TIE ,Gn2 ,v032
 .byte   W72
@  #08 @001   ----------------------------------------
 .byte   W96
@  #08 @002   ----------------------------------------
 .byte   EOT
 .byte   Cn2
 .byte   TIE ,As1 ,v072
 .byte   TIE ,Fn2
 .byte   W07
 .byte   EOT
 .byte   Gn2
 .byte   W88
 .byte   W01
@  #08 @003   ----------------------------------------
 .byte   W96
@  #08 @004   ----------------------------------------
 .byte   As1 ,v053
 .byte   TIE ,Gs1 ,v084
 .byte   TIE ,Cn2
 .byte   TIE ,Ds2
 .byte   W96
@  #08 @005   ----------------------------------------
 .byte   W92
 .byte   W03
 .byte   EOT
 .byte   Gs1 ,v048
 .byte   W01
@  #08 @006   ----------------------------------------
 .byte   Ds2
 .byte   N48 ,Dn0 ,v096
 .byte   N96 ,Fs1
 .byte   N96 ,As1
 .byte   N96 ,Cs2
 .byte   W48
 .byte   N48 ,Fs0 ,v104
 .byte   W48
@  #08 @007   ----------------------------------------
 .byte   N44 ,Fn0 ,v116
 .byte   N44 ,An0
 .byte   N44 ,An1
 .byte   W96
@  #08 @008   ----------------------------------------
 .byte   W96
@  #08 @009   ----------------------------------------
 .byte   W96
@  #08 @010   ----------------------------------------
 .byte   W48
Label_016E9EAB:
 .byte   W48
@  #08 @011   ----------------------------------------
 .byte   W96
@  #08 @012   ----------------------------------------
 .byte   W96
@  #08 @013   ----------------------------------------
 .byte   W96
@  #08 @014   ----------------------------------------
 .byte   W96
@  #08 @015   ----------------------------------------
 .byte   W96
@  #08 @016   ----------------------------------------
 .byte   W96
@  #08 @017   ----------------------------------------
 .byte   W96
@  #08 @018   ----------------------------------------
 .byte   W96
@  #08 @019   ----------------------------------------
 .byte   W96
@  #08 @020   ----------------------------------------
 .byte   W96
@  #08 @021   ----------------------------------------
 .byte   W96
@  #08 @022   ----------------------------------------
 .byte   W96
@  #08 @023   ----------------------------------------
 .byte   W96
@  #08 @024   ----------------------------------------
 .byte   W96
@  #08 @025   ----------------------------------------
 .byte   W96
@  #08 @026   ----------------------------------------
 .byte   W96
@  #08 @027   ----------------------------------------
 .byte   W96
@  #08 @028   ----------------------------------------
 .byte   W96
@  #08 @029   ----------------------------------------
 .byte   W96
@  #08 @030   ----------------------------------------
 .byte   W96
@  #08 @031   ----------------------------------------
 .byte   W96
@  #08 @032   ----------------------------------------
 .byte   W96
@  #08 @033   ----------------------------------------
 .byte   W96
@  #08 @034   ----------------------------------------
 .byte   W96
@  #08 @035   ----------------------------------------
 .byte   W96
@  #08 @036   ----------------------------------------
 .byte   W96
@  #08 @037   ----------------------------------------
 .byte   W96
@  #08 @038   ----------------------------------------
 .byte   W96
@  #08 @039   ----------------------------------------
 .byte   W96
@  #08 @040   ----------------------------------------
 .byte   W96
@  #08 @041   ----------------------------------------
 .byte   W96
@  #08 @042   ----------------------------------------
 .byte   W96
@  #08 @043   ----------------------------------------
 .byte   W96
@  #08 @044   ----------------------------------------
 .byte   W96
@  #08 @045   ----------------------------------------
 .byte   W96
@  #08 @046   ----------------------------------------
 .byte   W96
@  #08 @047   ----------------------------------------
 .byte   W96
@  #08 @048   ----------------------------------------
 .byte   W96
@  #08 @049   ----------------------------------------
 .byte   W96
@  #08 @050   ----------------------------------------
 .byte   W96
@  #08 @051   ----------------------------------------
 .byte   W96
@  #08 @052   ----------------------------------------
 .byte   W96
@  #08 @053   ----------------------------------------
 .byte   W96
@  #08 @054   ----------------------------------------
 .byte   W48
 .byte   N96 ,An2 ,v072
 .byte   W48
@  #08 @055   ----------------------------------------
 .byte   W48
 .byte   Cs3 ,v080
 .byte   W48
@  #08 @056   ----------------------------------------
 .byte   W48
 .byte   N48 ,Bn2 ,v068
 .byte   W48
@  #08 @057   ----------------------------------------
 .byte   An2
 .byte   W48
 .byte   Gn2
 .byte   W48
@  #08 @058   ----------------------------------------
 .byte   Fs2 ,v064
 .byte   W48
 .byte   N96 ,Gn2 ,v068
 .byte   W48
@  #08 @059   ----------------------------------------
 .byte   W48
 .byte   N48 ,An2 ,v076
 .byte   W48
@  #08 @060   ----------------------------------------
 .byte   Bn2 ,v068
 .byte   W48
 .byte   TIE ,Cs3 ,v056
 .byte   W48
@  #08 @061   ----------------------------------------
 .byte   W48
 .byte   N48 ,Bn2 ,v068
 .byte   W16
 .byte   EOT
 .byte   Cs3
 .byte   W32
@  #08 @062   ----------------------------------------
 .byte   N48 ,An2 ,v064
 .byte   W48
 .byte   TIE ,Gn2 ,v060
 .byte   W48
@  #08 @063   ----------------------------------------
 .byte   W48
 .byte   N96 ,An2 ,v076
 .byte   W16
 .byte   EOT
 .byte   Gn2
 .byte   W32
@  #08 @064   ----------------------------------------
 .byte   W48
 .byte   N96 ,Bn2 ,v072
 .byte   W48
@  #08 @065   ----------------------------------------
 .byte   W48
 .byte   N48 ,Cs3 ,v052
 .byte   W48
@  #08 @066   ----------------------------------------
 .byte   Bn2 ,v064
 .byte   W48
 .byte   An2
 .byte   W48
@  #08 @067   ----------------------------------------
 .byte   Gn2 ,v068
 .byte   W48
 .byte   Fs2 ,v056
 .byte   W48
@  #08 @068   ----------------------------------------
 .byte   Gn2 ,v076
 .byte   W48
 .byte   TIE ,An2 ,v068
 .byte   W48
@  #08 @069   ----------------------------------------
 .byte   W96
@  #08 @070   ----------------------------------------
 .byte   W48
 .byte   Dn1 ,v056
 .byte   W48
@  #08 @071   ----------------------------------------
 .byte   W48
 .byte   EOT
 .byte   An2
 .byte   N64 ,Cs3 ,v052
 .byte   W48
@  #08 @072   ----------------------------------------
 .byte   N48 ,Bn2 ,v060
 .byte   W48
 .byte   An2 ,v056
 .byte   W48
@  #08 @073   ----------------------------------------
 .byte   Gn2 ,v060
 .byte   W48
 .byte   An2 ,v068
 .byte   W48
@  #08 @074   ----------------------------------------
 .byte   Bn2 ,v076
 .byte   W48
 .byte   An2 ,v068
 .byte   W48
@  #08 @075   ----------------------------------------
 .byte   Bn2 ,v072
 .byte   W48
 .byte   Cs3 ,v056
 .byte   W48
@  #08 @076   ----------------------------------------
 .byte   Bn2 ,v068
 .byte   W48
 .byte   N64 ,Cs3 ,v052
 .byte   W48
@  #08 @077   ----------------------------------------
 .byte   An2 ,v064
 .byte   W48
 .byte   EOT
 .byte   Dn1
 .byte   N96 ,Dn1 ,v116
 .byte   N64 ,Bn2 ,v068
 .byte   W48
@  #08 @078   ----------------------------------------
 .byte   Cs3 ,v056
 .byte   W48
 .byte   N96 ,Cs1 ,v116
 .byte   N64 ,Ds3 ,v060
 .byte   W48
@  #08 @079   ----------------------------------------
 .byte   N48 ,Fs3 ,v064
 .byte   W96
@  #08 @080   ----------------------------------------
 .byte   W96
@  #08 @081   ----------------------------------------
 .byte   W96
@  #08 @082   ----------------------------------------
 .byte   W48
 .byte   GOTO
  .word Label_016E9EAB
 .byte   FINE

@**************** Track 9 (Midi-Chn.8) ****************@

song0319_009:
@  #09 @000   ----------------------------------------
 .byte   KEYSH , song0319_key+0
 .byte   VOICE , 60
 .byte   VOL , 41*song0319_mvl/mxv
 .byte   PAN , c_v-22
 .byte   N44 ,Gn2 ,v044
 .byte   W48
 .byte   An2 ,v052
 .byte   W48
@  #09 @001   ----------------------------------------
 .byte   N92 ,Dn3 ,v064
 .byte   W96
@  #09 @002   ----------------------------------------
 .byte   N44 ,Cn3 ,v084
 .byte   W48
 .byte   Dn3 ,v072
 .byte   W48
@  #09 @003   ----------------------------------------
 .byte   N92 ,Gn3 ,v076
 .byte   W96
@  #09 @004   ----------------------------------------
 .byte   N44 ,Fn3 ,v064
 .byte   W48
 .byte   Gn3 ,v072
 .byte   W48
@  #09 @005   ----------------------------------------
 .byte   N92 ,Cn4 ,v076
 .byte   W96
@  #09 @006   ----------------------------------------
 .byte   W96
@  #09 @007   ----------------------------------------
 .byte   W96
@  #09 @008   ----------------------------------------
 .byte   W96
@  #09 @009   ----------------------------------------
 .byte   W96
@  #09 @010   ----------------------------------------
 .byte   W48
Label_016E9FAE:
 .byte   W48
@  #09 @011   ----------------------------------------
 .byte   W96
@  #09 @012   ----------------------------------------
 .byte   W96
@  #09 @013   ----------------------------------------
 .byte   W96
@  #09 @014   ----------------------------------------
 .byte   W96
@  #09 @015   ----------------------------------------
 .byte   W96
@  #09 @016   ----------------------------------------
 .byte   W96
@  #09 @017   ----------------------------------------
 .byte   W96
@  #09 @018   ----------------------------------------
 .byte   W96
@  #09 @019   ----------------------------------------
 .byte   W96
@  #09 @020   ----------------------------------------
 .byte   W96
@  #09 @021   ----------------------------------------
 .byte   W96
@  #09 @022   ----------------------------------------
 .byte   W96
@  #09 @023   ----------------------------------------
 .byte   W96
@  #09 @024   ----------------------------------------
 .byte   W96
@  #09 @025   ----------------------------------------
 .byte   W96
@  #09 @026   ----------------------------------------
 .byte   W96
@  #09 @027   ----------------------------------------
 .byte   W96
@  #09 @028   ----------------------------------------
 .byte   W96
@  #09 @029   ----------------------------------------
 .byte   W96
@  #09 @030   ----------------------------------------
 .byte   W96
@  #09 @031   ----------------------------------------
 .byte   W96
@  #09 @032   ----------------------------------------
 .byte   W96
@  #09 @033   ----------------------------------------
 .byte   W96
@  #09 @034   ----------------------------------------
 .byte   W96
@  #09 @035   ----------------------------------------
 .byte   W96
@  #09 @036   ----------------------------------------
 .byte   W96
@  #09 @037   ----------------------------------------
 .byte   W96
@  #09 @038   ----------------------------------------
 .byte   W96
@  #09 @039   ----------------------------------------
 .byte   W96
@  #09 @040   ----------------------------------------
 .byte   W96
@  #09 @041   ----------------------------------------
 .byte   W48
 .byte   TIE ,An2 ,v088
 .byte   TIE ,Cs3
 .byte   TIE ,En3
 .byte   W48
@  #09 @042   ----------------------------------------
 .byte   W96
@  #09 @043   ----------------------------------------
 .byte   W48
 .byte   EOT
 .byte   An2 ,v061
 .byte   En3
 .byte   W48
@  #09 @044   ----------------------------------------
 .byte   W96
@  #09 @045   ----------------------------------------
 .byte   W96
@  #09 @046   ----------------------------------------
 .byte   W96
@  #09 @047   ----------------------------------------
 .byte   W96
@  #09 @048   ----------------------------------------
 .byte   W96
@  #09 @049   ----------------------------------------
 .byte   W96
@  #09 @050   ----------------------------------------
 .byte   W96
@  #09 @051   ----------------------------------------
 .byte   W96
@  #09 @052   ----------------------------------------
 .byte   W96
@  #09 @053   ----------------------------------------
 .byte   W96
@  #09 @054   ----------------------------------------
 .byte   W96
@  #09 @055   ----------------------------------------
 .byte   W96
@  #09 @056   ----------------------------------------
 .byte   W96
@  #09 @057   ----------------------------------------
 .byte   W96
@  #09 @058   ----------------------------------------
 .byte   W96
@  #09 @059   ----------------------------------------
 .byte   W96
@  #09 @060   ----------------------------------------
 .byte   W96
@  #09 @061   ----------------------------------------
 .byte   W96
@  #09 @062   ----------------------------------------
 .byte   W96
@  #09 @063   ----------------------------------------
 .byte   W96
@  #09 @064   ----------------------------------------
 .byte   W96
@  #09 @065   ----------------------------------------
 .byte   W96
@  #09 @066   ----------------------------------------
 .byte   W96
@  #09 @067   ----------------------------------------
 .byte   W96
@  #09 @068   ----------------------------------------
 .byte   W96
@  #09 @069   ----------------------------------------
 .byte   W96
@  #09 @070   ----------------------------------------
 .byte   W96
@  #09 @071   ----------------------------------------
 .byte   W96
@  #09 @072   ----------------------------------------
 .byte   W96
@  #09 @073   ----------------------------------------
 .byte   W96
@  #09 @074   ----------------------------------------
 .byte   W96
@  #09 @075   ----------------------------------------
 .byte   W96
@  #09 @076   ----------------------------------------
 .byte   W96
@  #09 @077   ----------------------------------------
 .byte   W96
@  #09 @078   ----------------------------------------
 .byte   W96
@  #09 @079   ----------------------------------------
 .byte   W96
@  #09 @080   ----------------------------------------
 .byte   W96
@  #09 @081   ----------------------------------------
 .byte   W96
@  #09 @082   ----------------------------------------
 .byte   W48
 .byte   GOTO
  .word Label_016E9FAE
 .byte   FINE

@**************** Track 10 (Midi-Chn.9) ****************@

song0319_010:
@  #10 @000   ----------------------------------------
 .byte   KEYSH , song0319_key+0
 .byte   VOICE , 127
 .byte   VOL , 70*song0319_mvl/mxv
 .byte   PAN , c_v+0
 .byte   W96
@  #10 @001   ----------------------------------------
 .byte   W96
@  #10 @002   ----------------------------------------
 .byte   W96
@  #10 @003   ----------------------------------------
 .byte   W48
 .byte   N07 ,Dn1 ,v088
 .byte   W12
 .byte   N07
 .byte   W12
 .byte   N07
 .byte   W12
 .byte   Dn1 ,v092
 .byte   W12
@  #10 @004   ----------------------------------------
 .byte   TIE
 .byte   W96
@  #10 @005   ----------------------------------------
 .byte   W16
 .byte   EOT
 .byte   W32
 .byte   N07 ,Dn1 ,v104
 .byte   W12
 .byte   N07
 .byte   W12
 .byte   N12
 .byte   W12
 .byte   N07
 .byte   W12
@  #10 @006   ----------------------------------------
 .byte   N72 ,Dn1 ,v108
 .byte   W48
 .byte   N02 ,An2 ,v084
 .byte   W06
 .byte   N02
 .byte   W06
 .byte   N03 ,An2 ,v088
 .byte   W06
 .byte   N02
 .byte   W06
 .byte   N03
 .byte   W06
 .byte   N02 ,An2 ,v092
 .byte   W06
 .byte   N02
 .byte   W06
 .byte   N03
 .byte   W06
@  #10 @007   ----------------------------------------
 .byte   N02 ,Dn1 ,v127
 .byte   N02 ,An2 ,v096
 .byte   W06
 .byte   Dn1 ,v127
 .byte   N02 ,An2 ,v096
 .byte   W06
 .byte   Dn1 ,v127
 .byte   N02 ,An2 ,v096
 .byte   W05
 .byte   Dn1 ,v127
 .byte   N02 ,An2 ,v100
 .byte   W07
 .byte   Dn1 ,v127
 .byte   N02 ,An2 ,v100
 .byte   W05
 .byte   Dn1 ,v127
 .byte   W01
 .byte   N01 ,An2 ,v100
 .byte   W06
 .byte   N02 ,Dn1 ,v127
 .byte   N02 ,An2 ,v104
 .byte   W06
 .byte   Dn1 ,v127
 .byte   N01 ,An2 ,v104
 .byte   W06
 .byte   N02 ,Dn1 ,v127
 .byte   N02 ,En1
 .byte   N96 ,An2 ,v112
 .byte   W48
@  #10 @008   ----------------------------------------
 .byte   W96
@  #10 @009   ----------------------------------------
 .byte   W96
@  #10 @010   ----------------------------------------
 .byte   W24
 .byte   N12 ,Dn1 ,v088
 .byte   W24
Label_016EA08F:
 .byte   N12 ,Dn1 ,v088
 .byte   W48
@  #10 @011   ----------------------------------------
 .byte   W96
@  #10 @012   ----------------------------------------
 .byte   W96
@  #10 @013   ----------------------------------------
Label_016EA095:
 .byte   W24
 .byte   N12 ,Dn1 ,v088
 .byte   W24
 .byte   N12
 .byte   W48
 .byte   PEND 
@  #10 @014   ----------------------------------------
 .byte   W96
@  #10 @015   ----------------------------------------
 .byte   W96
@  #10 @016   ----------------------------------------
 .byte   PATT
  .word Label_016EA095
@  #10 @017   ----------------------------------------
 .byte   W96
@  #10 @018   ----------------------------------------
 .byte   W96
@  #10 @019   ----------------------------------------
Label_016EA0A6:
 .byte   N12 ,Dn1 ,v088
 .byte   W12
 .byte   N12
 .byte   W12
 .byte   Dn1 ,v092
 .byte   W12
 .byte   Dn1 ,v096
 .byte   W12
 .byte   Dn1 ,v100
 .byte   W48
 .byte   PEND 
@  #10 @020   ----------------------------------------
 .byte   W96
@  #10 @021   ----------------------------------------
 .byte   W96
@  #10 @022   ----------------------------------------
 .byte   PATT
  .word Label_016EA095
@  #10 @023   ----------------------------------------
 .byte   W96
@  #10 @024   ----------------------------------------
 .byte   W96
@  #10 @025   ----------------------------------------
 .byte   PATT
  .word Label_016EA0A6
@  #10 @026   ----------------------------------------
 .byte   W96
@  #10 @027   ----------------------------------------
 .byte   W96
@  #10 @028   ----------------------------------------
 .byte   W96
@  #10 @029   ----------------------------------------
 .byte   W96
@  #10 @030   ----------------------------------------
 .byte   W96
@  #10 @031   ----------------------------------------
Label_016EA0C9:
 .byte   W48
 .byte   N02 ,An2 ,v084
 .byte   W06
 .byte   N02
 .byte   W06
 .byte   N03 ,An2 ,v088
 .byte   W06
 .byte   N02
 .byte   W06
 .byte   N03
 .byte   W06
 .byte   N02 ,An2 ,v092
 .byte   W06
 .byte   N02
 .byte   W06
 .byte   N03
 .byte   W06
 .byte   PEND 
@  #10 @032   ----------------------------------------
 .byte   N02 ,Dn1 ,v096
 .byte   N02 ,An2
 .byte   W06
 .byte   Dn1
 .byte   N02 ,An2
 .byte   W06
 .byte   Dn1
 .byte   N02 ,An2
 .byte   W05
 .byte   Dn1 ,v100
 .byte   N02 ,An2
 .byte   W07
 .byte   Dn1
 .byte   N02 ,An2
 .byte   W06
 .byte   N01 ,Dn1
 .byte   N01 ,An2
 .byte   W06
 .byte   N02 ,Dn1 ,v104
 .byte   N02 ,An2
 .byte   W06
 .byte   N01 ,Dn1
 .byte   N01 ,An2
 .byte   W06
 .byte   N96 ,Dn1 ,v112
 .byte   N96 ,An2
 .byte   W48
@  #10 @033   ----------------------------------------
 .byte   W96
@  #10 @034   ----------------------------------------
 .byte   W96
@  #10 @035   ----------------------------------------
Label_016EA110:
 .byte   W24
 .byte   N12 ,Dn1 ,v112
 .byte   W24
 .byte   N12
 .byte   W48
 .byte   PEND 
@  #10 @036   ----------------------------------------
 .byte   W96
@  #10 @037   ----------------------------------------
 .byte   W96
@  #10 @038   ----------------------------------------
Label_016EA11A:
 .byte   N12 ,Dn1 ,v112
 .byte   W12
 .byte   N12
 .byte   W12
 .byte   N12
 .byte   W12
 .byte   N12
 .byte   W12
 .byte   N12
 .byte   W48
 .byte   PEND 
@  #10 @039   ----------------------------------------
 .byte   W96
@  #10 @040   ----------------------------------------
 .byte   W96
@  #10 @041   ----------------------------------------
 .byte   W96
@  #10 @042   ----------------------------------------
 .byte   W96
@  #10 @043   ----------------------------------------
 .byte   PATT
  .word Label_016EA11A
@  #10 @044   ----------------------------------------
 .byte   W96
@  #10 @045   ----------------------------------------
 .byte   W96
@  #10 @046   ----------------------------------------
 .byte   PATT
  .word Label_016EA110
@  #10 @047   ----------------------------------------
 .byte   W96
@  #10 @048   ----------------------------------------
 .byte   W96
@  #10 @049   ----------------------------------------
 .byte   W96
@  #10 @050   ----------------------------------------
 .byte   W96
@  #10 @051   ----------------------------------------
 .byte   W96
@  #10 @052   ----------------------------------------
 .byte   PATT
  .word Label_016EA110
@  #10 @053   ----------------------------------------
 .byte   W96
@  #10 @054   ----------------------------------------
 .byte   W96
@  #10 @055   ----------------------------------------
 .byte   W96
@  #10 @056   ----------------------------------------
 .byte   W96
@  #10 @057   ----------------------------------------
 .byte   W96
@  #10 @058   ----------------------------------------
 .byte   W96
@  #10 @059   ----------------------------------------
 .byte   W96
@  #10 @060   ----------------------------------------
 .byte   W96
@  #10 @061   ----------------------------------------
 .byte   W96
@  #10 @062   ----------------------------------------
 .byte   W96
@  #10 @063   ----------------------------------------
 .byte   W96
@  #10 @064   ----------------------------------------
 .byte   W96
@  #10 @065   ----------------------------------------
 .byte   W96
@  #10 @066   ----------------------------------------
 .byte   W96
@  #10 @067   ----------------------------------------
 .byte   W96
@  #10 @068   ----------------------------------------
 .byte   W96
@  #10 @069   ----------------------------------------
 .byte   W96
@  #10 @070   ----------------------------------------
 .byte   W96
@  #10 @071   ----------------------------------------
 .byte   W96
@  #10 @072   ----------------------------------------
 .byte   W96
@  #10 @073   ----------------------------------------
 .byte   W96
@  #10 @074   ----------------------------------------
 .byte   W96
@  #10 @075   ----------------------------------------
 .byte   W96
@  #10 @076   ----------------------------------------
 .byte   W96
@  #10 @077   ----------------------------------------
 .byte   W96
@  #10 @078   ----------------------------------------
 .byte   PATT
  .word Label_016EA0C9
@  #10 @079   ----------------------------------------
 .byte   N02 ,An2 ,v096
 .byte   W06
 .byte   N02
 .byte   W06
 .byte   N02
 .byte   W05
 .byte   An2 ,v100
 .byte   W07
 .byte   N02
 .byte   W06
 .byte   N01
 .byte   W06
 .byte   N02 ,An2 ,v104
 .byte   W06
 .byte   N01
 .byte   W06
 .byte   N12 ,Dn1 ,v127
 .byte   N96 ,An2 ,v112
 .byte   W48
@  #10 @080   ----------------------------------------
 .byte   W96
@  #10 @081   ----------------------------------------
 .byte   W96
@  #10 @082   ----------------------------------------
 .byte   W24
 .byte   N12 ,Dn1 ,v088
 .byte   W24
 .byte   GOTO
  .word Label_016EA08F
 .byte   FINE

@**************** Track 11 (Midi-Chn.10) ****************@

song0319_011:
@  #11 @000   ----------------------------------------
 .byte   KEYSH , song0319_key+0
 .byte   VOICE , 14
 .byte   W96
@  #11 @001   ----------------------------------------
 .byte   W96
@  #11 @002   ----------------------------------------
 .byte   VOL , 60*song0319_mvl/mxv
 .byte   PAN , c_v+0
 .byte   W96
@  #11 @003   ----------------------------------------
 .byte   W96
@  #11 @004   ----------------------------------------
 .byte   W96
@  #11 @005   ----------------------------------------
 .byte   W96
@  #11 @006   ----------------------------------------
 .byte   W96
@  #11 @007   ----------------------------------------
 .byte   W48
 .byte   N72 ,Fs4 ,v127
 .byte   W48
@  #11 @008   ----------------------------------------
 .byte   W96
@  #11 @009   ----------------------------------------
 .byte   W96
@  #11 @010   ----------------------------------------
 .byte   W48
Label_016EA1A3:
 .byte   W48
@  #11 @011   ----------------------------------------
 .byte   W96
@  #11 @012   ----------------------------------------
 .byte   W96
@  #11 @013   ----------------------------------------
 .byte   W96
@  #11 @014   ----------------------------------------
 .byte   W96
@  #11 @015   ----------------------------------------
 .byte   W96
@  #11 @016   ----------------------------------------
 .byte   W96
@  #11 @017   ----------------------------------------
 .byte   W96
@  #11 @018   ----------------------------------------
 .byte   W96
@  #11 @019   ----------------------------------------
 .byte   W48
 .byte   N72 ,Cs4 ,v120
 .byte   W48
@  #11 @020   ----------------------------------------
 .byte   W96
@  #11 @021   ----------------------------------------
 .byte   W96
@  #11 @022   ----------------------------------------
 .byte   W96
@  #11 @023   ----------------------------------------
 .byte   W96
@  #11 @024   ----------------------------------------
 .byte   W96
@  #11 @025   ----------------------------------------
 .byte   W96
@  #11 @026   ----------------------------------------
 .byte   W96
@  #11 @027   ----------------------------------------
 .byte   W96
@  #11 @028   ----------------------------------------
 .byte   W48
 .byte   En4 ,v064
 .byte   W48
@  #11 @029   ----------------------------------------
 .byte   W96
@  #11 @030   ----------------------------------------
 .byte   W96
@  #11 @031   ----------------------------------------
 .byte   W96
@  #11 @032   ----------------------------------------
 .byte   W48
 .byte   Fs3 ,v120
 .byte   W23
 .byte   W24
 .byte   W01
@  #11 @033   ----------------------------------------
 .byte   W96
@  #11 @034   ----------------------------------------
 .byte   W96
@  #11 @035   ----------------------------------------
 .byte   W96
@  #11 @036   ----------------------------------------
 .byte   W96
@  #11 @037   ----------------------------------------
 .byte   W96
@  #11 @038   ----------------------------------------
 .byte   W96
@  #11 @039   ----------------------------------------
 .byte   W96
@  #11 @040   ----------------------------------------
 .byte   W96
@  #11 @041   ----------------------------------------
 .byte   W96
@  #11 @042   ----------------------------------------
 .byte   W96
@  #11 @043   ----------------------------------------
 .byte   W48
 .byte   Dn4 ,v100
 .byte   W48
@  #11 @044   ----------------------------------------
 .byte   W96
@  #11 @045   ----------------------------------------
 .byte   W96
@  #11 @046   ----------------------------------------
 .byte   W96
@  #11 @047   ----------------------------------------
 .byte   W96
@  #11 @048   ----------------------------------------
 .byte   W96
@  #11 @049   ----------------------------------------
 .byte   W96
@  #11 @050   ----------------------------------------
 .byte   W96
@  #11 @051   ----------------------------------------
 .byte   W96
@  #11 @052   ----------------------------------------
 .byte   W48
 .byte   N72
 .byte   W48
@  #11 @053   ----------------------------------------
 .byte   W96
@  #11 @054   ----------------------------------------
 .byte   W96
@  #11 @055   ----------------------------------------
 .byte   W96
@  #11 @056   ----------------------------------------
 .byte   W96
@  #11 @057   ----------------------------------------
 .byte   W96
@  #11 @058   ----------------------------------------
 .byte   W96
@  #11 @059   ----------------------------------------
 .byte   W96
@  #11 @060   ----------------------------------------
 .byte   W96
@  #11 @061   ----------------------------------------
 .byte   W96
@  #11 @062   ----------------------------------------
 .byte   W96
@  #11 @063   ----------------------------------------
 .byte   W96
@  #11 @064   ----------------------------------------
 .byte   W96
@  #11 @065   ----------------------------------------
 .byte   W96
@  #11 @066   ----------------------------------------
 .byte   W96
@  #11 @067   ----------------------------------------
 .byte   W96
@  #11 @068   ----------------------------------------
 .byte   W96
@  #11 @069   ----------------------------------------
 .byte   W96
@  #11 @070   ----------------------------------------
 .byte   W96
@  #11 @071   ----------------------------------------
 .byte   W96
@  #11 @072   ----------------------------------------
 .byte   W96
@  #11 @073   ----------------------------------------
 .byte   W96
@  #11 @074   ----------------------------------------
 .byte   W96
@  #11 @075   ----------------------------------------
 .byte   W96
@  #11 @076   ----------------------------------------
 .byte   W96
@  #11 @077   ----------------------------------------
 .byte   W96
@  #11 @078   ----------------------------------------
 .byte   W96
@  #11 @079   ----------------------------------------
 .byte   W48
 .byte   Fs4 ,v127
 .byte   W48
@  #11 @080   ----------------------------------------
 .byte   W96
@  #11 @081   ----------------------------------------
 .byte   W96
@  #11 @082   ----------------------------------------
 .byte   W48
 .byte   GOTO
  .word Label_016EA1A3
 .byte   FINE

@**************** Track 12 (Midi-Chn.11) ****************@

song0319_012:
@  #12 @000   ----------------------------------------
 .byte   KEYSH , song0319_key+0
 .byte   VOICE , 119
 .byte   VOL , 66*song0319_mvl/mxv
 .byte   W96
@  #12 @001   ----------------------------------------
 .byte   W96
@  #12 @002   ----------------------------------------
 .byte   W96
@  #12 @003   ----------------------------------------
 .byte   W96
@  #12 @004   ----------------------------------------
 .byte   W96
@  #12 @005   ----------------------------------------
 .byte   W96
@  #12 @006   ----------------------------------------
 .byte   W96
@  #12 @007   ----------------------------------------
Label_016EA215:
 .byte   W48
 .byte   PAN , c_v+0
 .byte   W48
 .byte   PEND 
@  #12 @008   ----------------------------------------
 .byte   W96
@  #12 @009   ----------------------------------------
 .byte   W96
@  #12 @010   ----------------------------------------
 .byte   W48
Label_016EA21D:
 .byte   W48
@  #12 @011   ----------------------------------------
 .byte   W96
@  #12 @012   ----------------------------------------
 .byte   W96
@  #12 @013   ----------------------------------------
 .byte   W96
@  #12 @014   ----------------------------------------
 .byte   W96
@  #12 @015   ----------------------------------------
 .byte   W96
@  #12 @016   ----------------------------------------
 .byte   W96
@  #12 @017   ----------------------------------------
 .byte   W96
@  #12 @018   ----------------------------------------
 .byte   W96
@  #12 @019   ----------------------------------------
 .byte   W96
@  #12 @020   ----------------------------------------
 .byte   W96
@  #12 @021   ----------------------------------------
 .byte   W96
@  #12 @022   ----------------------------------------
 .byte   W96
@  #12 @023   ----------------------------------------
 .byte   W96
@  #12 @024   ----------------------------------------
 .byte   W96
@  #12 @025   ----------------------------------------
 .byte   W96
@  #12 @026   ----------------------------------------
 .byte   W96
@  #12 @027   ----------------------------------------
 .byte   W96
@  #12 @028   ----------------------------------------
 .byte   W96
@  #12 @029   ----------------------------------------
 .byte   W96
@  #12 @030   ----------------------------------------
 .byte   W96
@  #12 @031   ----------------------------------------
 .byte   W48
 .byte   TIE ,Cn3 ,v127
 .byte   W48
@  #12 @032   ----------------------------------------
 .byte   W52
 .byte   EOT
 .byte   W44
@  #12 @033   ----------------------------------------
 .byte   W96
@  #12 @034   ----------------------------------------
 .byte   W96
@  #12 @035   ----------------------------------------
 .byte   W96
@  #12 @036   ----------------------------------------
 .byte   W96
@  #12 @037   ----------------------------------------
 .byte   W96
@  #12 @038   ----------------------------------------
 .byte   W96
@  #12 @039   ----------------------------------------
 .byte   W96
@  #12 @040   ----------------------------------------
 .byte   W96
@  #12 @041   ----------------------------------------
 .byte   W96
@  #12 @042   ----------------------------------------
 .byte   W96
@  #12 @043   ----------------------------------------
 .byte   W96
@  #12 @044   ----------------------------------------
 .byte   W96
@  #12 @045   ----------------------------------------
 .byte   W96
@  #12 @046   ----------------------------------------
 .byte   W96
@  #12 @047   ----------------------------------------
 .byte   W96
@  #12 @048   ----------------------------------------
 .byte   W96
@  #12 @049   ----------------------------------------
 .byte   W96
@  #12 @050   ----------------------------------------
 .byte   W96
@  #12 @051   ----------------------------------------
 .byte   W96
@  #12 @052   ----------------------------------------
 .byte   W96
@  #12 @053   ----------------------------------------
 .byte   W96
@  #12 @054   ----------------------------------------
 .byte   W96
@  #12 @055   ----------------------------------------
 .byte   W96
@  #12 @056   ----------------------------------------
 .byte   W96
@  #12 @057   ----------------------------------------
 .byte   W96
@  #12 @058   ----------------------------------------
 .byte   W96
@  #12 @059   ----------------------------------------
 .byte   W96
@  #12 @060   ----------------------------------------
 .byte   W96
@  #12 @061   ----------------------------------------
 .byte   W96
@  #12 @062   ----------------------------------------
 .byte   W96
@  #12 @063   ----------------------------------------
 .byte   W96
@  #12 @064   ----------------------------------------
 .byte   W96
@  #12 @065   ----------------------------------------
 .byte   W96
@  #12 @066   ----------------------------------------
 .byte   W96
@  #12 @067   ----------------------------------------
 .byte   W96
@  #12 @068   ----------------------------------------
 .byte   W96
@  #12 @069   ----------------------------------------
 .byte   W96
@  #12 @070   ----------------------------------------
 .byte   W96
@  #12 @071   ----------------------------------------
 .byte   W96
@  #12 @072   ----------------------------------------
 .byte   W96
@  #12 @073   ----------------------------------------
 .byte   W96
@  #12 @074   ----------------------------------------
 .byte   W96
@  #12 @075   ----------------------------------------
 .byte   W96
@  #12 @076   ----------------------------------------
 .byte   W96
@  #12 @077   ----------------------------------------
 .byte   W96
@  #12 @078   ----------------------------------------
 .byte   W96
@  #12 @079   ----------------------------------------
 .byte   PATT
  .word Label_016EA215
@  #12 @080   ----------------------------------------
 .byte   W96
@  #12 @081   ----------------------------------------
 .byte   W96
@  #12 @082   ----------------------------------------
 .byte   W48
 .byte   GOTO
  .word Label_016EA21D
 .byte   FINE

@******************************************************@
	.align	2

song0319:
	.byte	12	@ NumTrks
	.byte	0	@ NumBlks
	.byte	song0319_pri	@ Priority
	.byte	song0319_rev	@ Reverb.
    
	.word	song0319_grp
    
	.word	song0319_001
	.word	song0319_002
	.word	song0319_003
	.word	song0319_004
	.word	song0319_005
	.word	song0319_006
	.word	song0319_007
	.word	song0319_008
	.word	song0319_009
	.word	song0319_010
	.word	song0319_011
	.word	song0319_012

	.end
