	.include "MPlayDef.s"

	.equ	song02_grp, voicegroup000
	.equ	song02_pri, 0
	.equ	song02_rev, 0
	.equ	song02_mvl, 127
	.equ	song02_key, 0
	.equ	song02_tbs, 1
	.equ	song02_exg, 0
	.equ	song02_cmp, 1

	.section .rodata
	.global	song02
	.align	2


@**************** Track 1 (Midi-Chn.0) ****************@

song02_001:
@  #01 @000   ----------------------------------------
 .byte   KEYSH , song02_key+0
 .byte   TEMPO , 72*song02_tbs/2
Label_01003D54:
 .byte   VOICE , 1
 .byte   VOL , 77*song02_mvl/mxv
 .byte   BENDR, 12
 .byte   W12
 .byte   N22 ,Bn2 ,v080
 .byte   N22 ,Fn2
 .byte   W24
 .byte   N56 ,Bn2
 .byte   N56 ,Fn2
 .byte   W60
@  #01 @001   ----------------------------------------
Label_01003D66:
 .byte   W12
 .byte   N22 ,Cn3 ,v080
 .byte   N22 ,Fs2
 .byte   W24
 .byte   N56 ,Cn3
 .byte   N56 ,Fs2
 .byte   W60
 .byte   PEND 
@  #01 @002   ----------------------------------------
Label_01003D73:
 .byte   W12
 .byte   N22 ,Bn2 ,v080
 .byte   N22 ,Fn2
 .byte   W24
 .byte   N56 ,Bn2
 .byte   N56 ,Fn2
 .byte   W60
 .byte   PEND 
@  #01 @003   ----------------------------------------
 .byte   PATT
  .word Label_01003D66
@  #01 @004   ----------------------------------------
 .byte   PATT
  .word Label_01003D73
@  #01 @005   ----------------------------------------
Label_01003D8A:
 .byte   W12
 .byte   N22 ,Cn3 ,v080
 .byte   N22 ,Fs2
 .byte   W24
 .byte   N44 ,Cn3 ,v080 ,gtp1
 .byte   Fs2
 .byte   W48
 .byte   N11 ,An2
 .byte   W12
 .byte   PEND 
@  #01 @006   ----------------------------------------
Label_01003D9B:
 .byte   N32 ,En3 ,v080 ,gtp2
 .byte   An2
 .byte   W36
 .byte   An2
 .byte   W36
 .byte   N22 ,En3
 .byte   W24
 .byte   PEND 
@  #01 @007   ----------------------------------------
 .byte   N44 ,En3 ,v080 ,gtp1
 .byte   An2
 .byte   W48
 .byte   Dn3
 .byte   N44 ,Gs2 ,v080 ,gtp1
 .byte   W48
@  #01 @008   ----------------------------------------
 .byte   PATT
  .word Label_01003D73
@  #01 @009   ----------------------------------------
 .byte   PATT
  .word Label_01003D66
@  #01 @010   ----------------------------------------
 .byte   PATT
  .word Label_01003D73
@  #01 @011   ----------------------------------------
 .byte   PATT
  .word Label_01003D66
@  #01 @012   ----------------------------------------
 .byte   PATT
  .word Label_01003D73
@  #01 @013   ----------------------------------------
 .byte   PATT
  .word Label_01003D8A
@  #01 @014   ----------------------------------------
 .byte   PATT
  .word Label_01003D9B
@  #01 @015   ----------------------------------------
 .byte   N90 ,En3 ,v080 ,gtp1
 .byte   Fs2
 .byte   W96
@  #01 @016   ----------------------------------------
 .byte   Ds3
 .byte   N90 ,An2 ,v080 ,gtp1
 .byte   W96
@  #01 @017   ----------------------------------------
 .byte   Fs3
 .byte   N90 ,Dn3 ,v080 ,gtp1
 .byte   W96
@  #01 @018   ----------------------------------------
 .byte   N44 ,En3 ,v080 ,gtp1
 .byte   Cn3
 .byte   N44 ,Gs2 ,v080 ,gtp1
 .byte   W48
 .byte   Bn2
 .byte   W48
@  #01 @019   ----------------------------------------
Label_01003DF4:
 .byte   N11 ,An2 ,v080
 .byte   W12
 .byte   Gn2
 .byte   W12
 .byte   An2
 .byte   W12
 .byte   N22 ,En3
 .byte   W24
 .byte   An2
 .byte   W24
 .byte   N11 ,En2
 .byte   W12
 .byte   PEND 
@  #01 @020   ----------------------------------------
Label_01003E05:
 .byte   N11 ,An2 ,v080
 .byte   W12
 .byte   Gn2
 .byte   W12
 .byte   An2
 .byte   W12
 .byte   N22 ,En3
 .byte   W24
 .byte   N11 ,Cn3
 .byte   W12
 .byte   Dn3
 .byte   W12
 .byte   Gn3
 .byte   W12
 .byte   PEND 
@  #01 @021   ----------------------------------------
Label_01003E18:
 .byte   N11 ,Dn3 ,v080
 .byte   W12
 .byte   Cn3
 .byte   W12
 .byte   Dn3
 .byte   W12
 .byte   N32 ,Gn3 ,v080 ,gtp2
 .byte   W36
 .byte   N11 ,Dn3
 .byte   W12
 .byte   Cn3
 .byte   W12
 .byte   PEND 
@  #01 @022   ----------------------------------------
 .byte   PATT
  .word Label_01003E18
@  #01 @023   ----------------------------------------
 .byte   PATT
  .word Label_01003DF4
@  #01 @024   ----------------------------------------
 .byte   PATT
  .word Label_01003E05
@  #01 @025   ----------------------------------------
 .byte   PATT
  .word Label_01003E18
@  #01 @026   ----------------------------------------
 .byte   PATT
  .word Label_01003E18
@  #01 @027   ----------------------------------------
 .byte   N11 ,Fn3 ,v080
 .byte   W12
 .byte   En3
 .byte   W12
 .byte   Fn3
 .byte   W12
 .byte   N32 ,Cn4 ,v080 ,gtp2
 .byte   W36
 .byte   N22 ,Fn3
 .byte   W24
@  #01 @028   ----------------------------------------
 .byte   N11
 .byte   W12
 .byte   En3
 .byte   W12
 .byte   Fn3
 .byte   W12
 .byte   N32 ,Cn4 ,v080 ,gtp2
 .byte   W36
 .byte   N22 ,Dn4
 .byte   W24
@  #01 @029   ----------------------------------------
 .byte   N11 ,Bn3
 .byte   W12
 .byte   An3
 .byte   W12
 .byte   Bn3
 .byte   W12
 .byte   N44 ,En4 ,v080 ,gtp1
 .byte   W48
 .byte   N11 ,An3
 .byte   W12
@  #01 @030   ----------------------------------------
 .byte   Bn3
 .byte   W12
 .byte   An3
 .byte   W12
 .byte   Bn3
 .byte   W12
 .byte   N32 ,En4 ,v080 ,gtp2
 .byte   W36
 .byte   N22 ,An3
 .byte   W24
@  #01 @031   ----------------------------------------
 .byte   N11 ,En4
 .byte   W12
 .byte   Dn4
 .byte   W12
 .byte   En4
 .byte   W12
 .byte   N44 ,An4 ,v080 ,gtp1
 .byte   W48
 .byte   N11 ,Dn4
 .byte   W12
@  #01 @032   ----------------------------------------
 .byte   En4
 .byte   W12
 .byte   Dn4
 .byte   W12
 .byte   En4
 .byte   W12
 .byte   N56 ,Cn5
 .byte   W60
@  #01 @033   ----------------------------------------
 .byte   TIE ,An4
 .byte   N11 ,Cn6
 .byte   W12
 .byte   Bn5
 .byte   W12
 .byte   An5
 .byte   W12
 .byte   Bn5
 .byte   W12
 .byte   An5
 .byte   W12
 .byte   Gn5
 .byte   W12
 .byte   Cn6
 .byte   W12
 .byte   Bn5
 .byte   W12
@  #01 @034   ----------------------------------------
 .byte   An5
 .byte   W12
 .byte   Bn5
 .byte   W12
 .byte   An5
 .byte   W12
 .byte   Gn5
 .byte   W04
 .byte   EOT
 .byte   An4
 .byte   W08
 .byte   N68 ,Fn3 ,v080 ,gtp2
 .byte   N11 ,Dn6
 .byte   W01
 .byte   N68 ,Dn4 ,v080 ,gtp1
 .byte   W01
 .byte   N68 ,An4
 .byte   W10
 .byte   N11 ,Cn6
 .byte   W12
 .byte   Bn5
 .byte   W12
 .byte   Cn6
 .byte   W12
@  #01 @035   ----------------------------------------
 .byte   Bn5
 .byte   W12
 .byte   An5
 .byte   W12
 .byte   N68 ,Gn3 ,v080 ,gtp3
 .byte   N11 ,Bn5
 .byte   N11 ,Gn5
 .byte   W01
 .byte   N68 ,En4 ,v080 ,gtp2
 .byte   W02
 .byte   N68 ,Bn4
 .byte   W09
 .byte   N11 ,An5
 .byte   N11 ,Fn5
 .byte   W12
 .byte   Gn5
 .byte   N11 ,En5
 .byte   W12
 .byte   An5
 .byte   N11 ,Fn5
 .byte   W12
 .byte   Gn5
 .byte   N11 ,En5
 .byte   W12
 .byte   En5
 .byte   N11 ,Cn5
 .byte   W12
@  #01 @036   ----------------------------------------
 .byte   W96
@  #01 @037   ----------------------------------------
 .byte   W96
@  #01 @038   ----------------------------------------
 .byte   W96
@  #01 @039   ----------------------------------------
 .byte   W96
@  #01 @040   ----------------------------------------
 .byte   W96
@  #01 @041   ----------------------------------------
 .byte   W96
@  #01 @042   ----------------------------------------
 .byte   W96
@  #01 @043   ----------------------------------------
 .byte   W96
@  #01 @044   ----------------------------------------
 .byte   Fn3 ,v059
 .byte   W12
 .byte   En3
 .byte   W12
 .byte   Fn3
 .byte   W12
 .byte   N56 ,Cn4
 .byte   W60
@  #01 @045   ----------------------------------------
 .byte   N11 ,Fn3
 .byte   W12
 .byte   En3
 .byte   W12
 .byte   Fn3
 .byte   W12
 .byte   N32 ,Cn4 ,v059 ,gtp2
 .byte   W36
 .byte   N22 ,Dn4
 .byte   W24
@  #01 @046   ----------------------------------------
Label_01003F16:
 .byte   N11 ,Bn3 ,v059
 .byte   W12
 .byte   An3
 .byte   W12
 .byte   Bn3
 .byte   W12
 .byte   N32 ,En4 ,v059 ,gtp2
 .byte   W36
 .byte   N22 ,An3
 .byte   W24
 .byte   PEND 
@  #01 @047   ----------------------------------------
 .byte   PATT
  .word Label_01003F16
@  #01 @048   ----------------------------------------
 .byte   N11 ,En4 ,v059
 .byte   W12
 .byte   Dn4
 .byte   W12
 .byte   En4
 .byte   W12
 .byte   N22 ,An4
 .byte   W24
 .byte   Gn4
 .byte   W24
 .byte   N11 ,Dn4
 .byte   W12
@  #01 @049   ----------------------------------------
 .byte   En4
 .byte   W12
 .byte   Dn4
 .byte   W12
 .byte   En4
 .byte   W12
 .byte   N56 ,Bn4
 .byte   W60
@  #01 @050   ----------------------------------------
 .byte   W96
@  #01 @051   ----------------------------------------
Label_01003F46:
 .byte   W12
 .byte   N22 ,Bn2 ,v059
 .byte   N22 ,Fn2
 .byte   W24
 .byte   N56 ,Bn2
 .byte   N56 ,Fn2
 .byte   W60
 .byte   PEND 
@  #01 @052   ----------------------------------------
Label_01003F53:
 .byte   W12
 .byte   N22 ,Cn3 ,v059
 .byte   N22 ,Fs2
 .byte   W24
 .byte   N56 ,Cn3
 .byte   N56 ,Fs2
 .byte   W60
 .byte   PEND 
@  #01 @053   ----------------------------------------
 .byte   PATT
  .word Label_01003F46
@  #01 @054   ----------------------------------------
 .byte   PATT
  .word Label_01003F53
@  #01 @055   ----------------------------------------
 .byte   PATT
  .word Label_01003F46
@  #01 @056   ----------------------------------------
 .byte   W12
 .byte   N22 ,Cn3 ,v059
 .byte   N22 ,Fs2
 .byte   W24
 .byte   N44 ,Cn3 ,v059 ,gtp1
 .byte   Fs2
 .byte   W48
 .byte   N11 ,An2
 .byte   W12
@  #01 @057   ----------------------------------------
 .byte   N32 ,En3 ,v059 ,gtp2
 .byte   An2
 .byte   W36
 .byte   An2
 .byte   W36
 .byte   N22 ,En3
 .byte   W24
@  #01 @058   ----------------------------------------
 .byte   N32 ,Gn3 ,v059 ,gtp2
 .byte   En3
 .byte   W36
 .byte   Gn3
 .byte   N32 ,En3 ,v059 ,gtp2
 .byte   W36
 .byte   N22 ,Gn3
 .byte   N22 ,En3
 .byte   W24
@  #01 @059   ----------------------------------------
 .byte   W96
@  #01 @060   ----------------------------------------
 .byte   W96
@  #01 @061   ----------------------------------------
 .byte   W96
@  #01 @062   ----------------------------------------
 .byte   W96
@  #01 @063   ----------------------------------------
 .byte   W96
@  #01 @064   ----------------------------------------
 .byte   W96
@  #01 @065   ----------------------------------------
 .byte   W96
@  #01 @066   ----------------------------------------
 .byte   Gn4 ,v080
 .byte   N22 ,Gn3
 .byte   W24
 .byte   An4
 .byte   N22 ,An3
 .byte   W24
 .byte   Gn4
 .byte   N22 ,Gn3
 .byte   W24
 .byte   An4
 .byte   N22 ,An3
 .byte   W24
@  #01 @067   ----------------------------------------
 .byte   TIE ,An4
 .byte   W96
@  #01 @068   ----------------------------------------
 .byte   W17
 .byte   EOT
 .byte   W07
 .byte   N22 ,En5
 .byte   W24
 .byte   N32 ,Dn5 ,v080 ,gtp2
 .byte   W36
 .byte   N11 ,Cn5
 .byte   W12
@  #01 @069   ----------------------------------------
 .byte   N44 ,Bn4 ,v080 ,gtp1
 .byte   W48
 .byte   An4
 .byte   W48
@  #01 @070   ----------------------------------------
 .byte   Bn4
 .byte   W48
 .byte   N32 ,Gn4 ,v080 ,gtp2
 .byte   W36
 .byte   N11 ,En4
 .byte   W12
@  #01 @071   ----------------------------------------
 .byte   TIE ,An4
 .byte   W96
@  #01 @072   ----------------------------------------
 .byte   W17
 .byte   EOT
 .byte   W07
 .byte   N22 ,En5
 .byte   W24
 .byte   N32 ,Dn5 ,v080 ,gtp2
 .byte   W36
 .byte   N11 ,Gn5
 .byte   W12
@  #01 @073   ----------------------------------------
 .byte   TIE ,En5
 .byte   W96
@  #01 @074   ----------------------------------------
 .byte   W17
 .byte   EOT
 .byte   W07
 .byte   N22 ,An5
 .byte   W24
 .byte   Gn5
 .byte   W24
 .byte   En5
 .byte   W24
@  #01 @075   ----------------------------------------
 .byte   N44 ,Cn5 ,v080 ,gtp1
 .byte   W48
 .byte   Dn5
 .byte   W48
@  #01 @076   ----------------------------------------
 .byte   N68 ,En5
 .byte   W72
 .byte   N22
 .byte   W24
@  #01 @077   ----------------------------------------
 .byte   N44 ,En5 ,v080 ,gtp1
 .byte   W48
 .byte   Fn5
 .byte   W48
@  #01 @078   ----------------------------------------
 .byte   Gn5
 .byte   W48
 .byte   An5
 .byte   W48
@  #01 @079   ----------------------------------------
 .byte   TIE ,Cn6
 .byte   W96
@  #01 @080   ----------------------------------------
 .byte   W72
 .byte   W02
 .byte   EOT
 .byte   W22
@  #01 @081   ----------------------------------------
 .byte   TIE ,An5
 .byte   W96
@  #01 @082   ----------------------------------------
 .byte   W17
 .byte   EOT
 .byte   W78
 .byte   W01
@  #01 @083   ----------------------------------------
 .byte   GOTO
  .word Label_01003D54
 .byte   FINE

@**************** Track 2 (Midi-Chn.1) ****************@

song02_002:
@  #02 @000   ----------------------------------------
 .byte   KEYSH , song02_key+0
Label_01004036:
 .byte   VOICE , 1
 .byte   VOL , 76*song02_mvl/mxv
 .byte   N78 ,An0 ,v080 ,gtp1
 .byte   BENDR, 12
 .byte   W84
 .byte   N11 ,En1
 .byte   W12
@  #02 @001   ----------------------------------------
 .byte   N90 ,An1 ,v080 ,gtp1
 .byte   W96
@  #02 @002   ----------------------------------------
Label_01004049:
 .byte   N78 ,An0 ,v080 ,gtp1
 .byte   W84
 .byte   N11 ,En1
 .byte   W12
 .byte   PEND 
@  #02 @003   ----------------------------------------
 .byte   N90 ,An1 ,v080 ,gtp1
 .byte   W96
@  #02 @004   ----------------------------------------
 .byte   PATT
  .word Label_01004049
@  #02 @005   ----------------------------------------
 .byte   N90 ,An1 ,v080 ,gtp1
 .byte   W96
@  #02 @006   ----------------------------------------
 .byte   Fn1
 .byte   W96
@  #02 @007   ----------------------------------------
 .byte   Bn1
 .byte   W96
@  #02 @008   ----------------------------------------
 .byte   PATT
  .word Label_01004049
@  #02 @009   ----------------------------------------
 .byte   N90 ,An1 ,v080 ,gtp1
 .byte   W96
@  #02 @010   ----------------------------------------
 .byte   PATT
  .word Label_01004049
@  #02 @011   ----------------------------------------
 .byte   N90 ,An1 ,v080 ,gtp1
 .byte   W96
@  #02 @012   ----------------------------------------
 .byte   PATT
  .word Label_01004049
@  #02 @013   ----------------------------------------
 .byte   N90 ,An1 ,v080 ,gtp1
 .byte   W96
@  #02 @014   ----------------------------------------
 .byte   Fn1
 .byte   W96
@  #02 @015   ----------------------------------------
 .byte   Bn1
 .byte   W96
@  #02 @016   ----------------------------------------
 .byte   Bn1
 .byte   W96
@  #02 @017   ----------------------------------------
 .byte   An2
 .byte   N90 ,En1 ,v080 ,gtp1
 .byte   W96
@  #02 @018   ----------------------------------------
 .byte   En1
 .byte   N90 ,En0 ,v080 ,gtp1
 .byte   W96
@  #02 @019   ----------------------------------------
Label_01004095:
 .byte   N22 ,Fn1 ,v080
 .byte   W24
 .byte   Cn2
 .byte   W24
 .byte   N44 ,Gn2 ,v080 ,gtp1
 .byte   W48
 .byte   PEND 
@  #02 @020   ----------------------------------------
 .byte   PATT
  .word Label_01004095
@  #02 @021   ----------------------------------------
Label_010040A6:
 .byte   N22 ,An0 ,v080
 .byte   W24
 .byte   En1
 .byte   W24
 .byte   N44 ,Bn1 ,v080 ,gtp1
 .byte   W48
 .byte   PEND 
@  #02 @022   ----------------------------------------
 .byte   PATT
  .word Label_010040A6
@  #02 @023   ----------------------------------------
 .byte   PATT
  .word Label_01004095
@  #02 @024   ----------------------------------------
 .byte   PATT
  .word Label_01004095
@  #02 @025   ----------------------------------------
 .byte   PATT
  .word Label_010040A6
@  #02 @026   ----------------------------------------
 .byte   PATT
  .word Label_010040A6
@  #02 @027   ----------------------------------------
Label_010040CB:
 .byte   N44 ,As1 ,v080 ,gtp1
 .byte   W48
 .byte   An2
 .byte   W48
 .byte   PEND 
@  #02 @028   ----------------------------------------
 .byte   PATT
  .word Label_010040CB
@  #02 @029   ----------------------------------------
 .byte   N22 ,An1 ,v080
 .byte   W24
 .byte   En2
 .byte   W24
 .byte   N44 ,Cn3 ,v080 ,gtp1
 .byte   W48
@  #02 @030   ----------------------------------------
Label_010040E3:
 .byte   N22 ,Gn1 ,v080
 .byte   W24
 .byte   En2
 .byte   W24
 .byte   N44 ,Bn2 ,v080 ,gtp1
 .byte   W48
 .byte   PEND 
@  #02 @031   ----------------------------------------
 .byte   N22 ,Fn1
 .byte   W24
 .byte   Gn2
 .byte   W24
 .byte   N44 ,An2 ,v080 ,gtp1
 .byte   W48
@  #02 @032   ----------------------------------------
 .byte   PATT
  .word Label_010040E3
@  #02 @033   ----------------------------------------
 .byte   W96
@  #02 @034   ----------------------------------------
 .byte   W96
@  #02 @035   ----------------------------------------
 .byte   W96
@  #02 @036   ----------------------------------------
Label_01004101:
 .byte   N11 ,An2 ,v080
 .byte   W12
 .byte   Gn2
 .byte   W12
 .byte   An2
 .byte   W12
 .byte   N44 ,En3 ,v080 ,gtp1
 .byte   W48
 .byte   N11 ,Gn2
 .byte   W12
 .byte   PEND 
@  #02 @037   ----------------------------------------
Label_01004112:
 .byte   N11 ,An2 ,v080
 .byte   W12
 .byte   Gn2
 .byte   W12
 .byte   An2
 .byte   W12
 .byte   N44 ,En3 ,v080 ,gtp1
 .byte   W48
 .byte   N11 ,Dn3
 .byte   W12
 .byte   PEND 
@  #02 @038   ----------------------------------------
 .byte   Dn3
 .byte   W12
 .byte   Cn3
 .byte   W12
 .byte   Dn3
 .byte   W12
 .byte   N44 ,Gn3 ,v080 ,gtp1
 .byte   W48
 .byte   N11 ,Cn3
 .byte   W12
@  #02 @039   ----------------------------------------
Label_01004131:
 .byte   N11 ,Dn3 ,v080
 .byte   W12
 .byte   Cn3
 .byte   W12
 .byte   Dn3
 .byte   W12
 .byte   N32 ,Gn3 ,v080 ,gtp2
 .byte   W36
 .byte   N22 ,Gn2
 .byte   W24
 .byte   PEND 
@  #02 @040   ----------------------------------------
 .byte   PATT
  .word Label_01004101
@  #02 @041   ----------------------------------------
 .byte   PATT
  .word Label_01004112
@  #02 @042   ----------------------------------------
 .byte   PATT
  .word Label_01004131
@  #02 @043   ----------------------------------------
 .byte   N11 ,Dn3 ,v080
 .byte   W12
 .byte   Cn3
 .byte   W12
 .byte   Dn3
 .byte   W12
 .byte   N56 ,Gn3
 .byte   W60
@  #02 @044   ----------------------------------------
 .byte   W96
@  #02 @045   ----------------------------------------
 .byte   W96
@  #02 @046   ----------------------------------------
 .byte   W96
@  #02 @047   ----------------------------------------
 .byte   W96
@  #02 @048   ----------------------------------------
 .byte   W96
@  #02 @049   ----------------------------------------
 .byte   W96
@  #02 @050   ----------------------------------------
 .byte   W96
@  #02 @051   ----------------------------------------
Label_01004163:
 .byte   N78 ,An0 ,v059 ,gtp1
 .byte   W84
 .byte   N11 ,En1
 .byte   W12
 .byte   PEND 
@  #02 @052   ----------------------------------------
 .byte   N90 ,An1 ,v059 ,gtp1
 .byte   W96
@  #02 @053   ----------------------------------------
 .byte   PATT
  .word Label_01004163
@  #02 @054   ----------------------------------------
 .byte   N90 ,An1 ,v059 ,gtp1
 .byte   W96
@  #02 @055   ----------------------------------------
 .byte   PATT
  .word Label_01004163
@  #02 @056   ----------------------------------------
 .byte   N90 ,An1 ,v059 ,gtp1
 .byte   W96
@  #02 @057   ----------------------------------------
 .byte   Fn2
 .byte   W96
@  #02 @058   ----------------------------------------
 .byte   Gn2
 .byte   W96
@  #02 @059   ----------------------------------------
Label_01004189:
 .byte   N90 ,An0 ,v080 ,gtp1
 .byte   An1
 .byte   W96
 .byte   PEND 
@  #02 @060   ----------------------------------------
Label_01004190:
 .byte   W84
 .byte   N11 ,En1 ,v080
 .byte   N11 ,En0
 .byte   W12
 .byte   PEND 
@  #02 @061   ----------------------------------------
 .byte   PATT
  .word Label_01004189
@  #02 @062   ----------------------------------------
 .byte   PATT
  .word Label_01004190
@  #02 @063   ----------------------------------------
 .byte   PATT
  .word Label_01004189
@  #02 @064   ----------------------------------------
 .byte   PATT
  .word Label_01004190
@  #02 @065   ----------------------------------------
 .byte   PATT
  .word Label_01004189
@  #02 @066   ----------------------------------------
 .byte   W96
@  #02 @067   ----------------------------------------
Label_010041B2:
 .byte   N11 ,Fn1 ,v080
 .byte   N11 ,Fn2
 .byte   W36
 .byte   Fn2
 .byte   N11 ,Fn1
 .byte   W36
 .byte   Fn2
 .byte   N11 ,Fn1
 .byte   W24
 .byte   PEND 
@  #02 @068   ----------------------------------------
Label_010041C1:
 .byte   N11 ,Gn1 ,v080
 .byte   N11 ,Gn2
 .byte   W36
 .byte   Gn2
 .byte   N11 ,Gn1
 .byte   W36
 .byte   Gn2
 .byte   N11 ,Gn1
 .byte   W24
 .byte   PEND 
@  #02 @069   ----------------------------------------
 .byte   Dn1
 .byte   N11 ,Dn2
 .byte   W36
 .byte   Dn2
 .byte   N11 ,Dn1
 .byte   W36
 .byte   Dn2
 .byte   N11 ,Dn1
 .byte   W24
@  #02 @070   ----------------------------------------
 .byte   En1
 .byte   N11 ,En2
 .byte   W36
 .byte   En2
 .byte   N11 ,En1
 .byte   W36
 .byte   En2
 .byte   N11 ,En1
 .byte   W24
@  #02 @071   ----------------------------------------
 .byte   PATT
  .word Label_010041B2
@  #02 @072   ----------------------------------------
 .byte   PATT
  .word Label_010041C1
@  #02 @073   ----------------------------------------
 .byte   N11 ,An1 ,v080
 .byte   N11 ,An2
 .byte   W36
 .byte   An2
 .byte   N11 ,An1
 .byte   W36
 .byte   An2
 .byte   N11 ,An1
 .byte   W24
@  #02 @074   ----------------------------------------
 .byte   PATT
  .word Label_010041C1
@  #02 @075   ----------------------------------------
 .byte   PATT
  .word Label_010041B2
@  #02 @076   ----------------------------------------
 .byte   N11 ,Fn1 ,v080
 .byte   N11 ,Fn2
 .byte   W36
 .byte   En2
 .byte   N11 ,En1
 .byte   W36
 .byte   En2
 .byte   N11 ,En1
 .byte   W24
@  #02 @077   ----------------------------------------
 .byte   W06
 .byte   N05 ,An2
 .byte   W06
 .byte   Bn2
 .byte   W06
 .byte   N11 ,Cn3
 .byte   W12
 .byte   N05 ,An2
 .byte   W06
 .byte   Bn2
 .byte   W06
 .byte   Cn3
 .byte   W12
 .byte   En2
 .byte   W06
 .byte   Cn3
 .byte   W06
 .byte   N11 ,Dn3
 .byte   W12
 .byte   N05 ,En2
 .byte   W06
 .byte   Cn3
 .byte   W06
 .byte   Dn3
 .byte   W06
@  #02 @078   ----------------------------------------
 .byte   W06
 .byte   Cn3
 .byte   W06
 .byte   Dn3
 .byte   W06
 .byte   N11 ,En3
 .byte   W12
 .byte   N05 ,Cn3
 .byte   W06
 .byte   Dn3
 .byte   W06
 .byte   En3
 .byte   W12
 .byte   An3
 .byte   W06
 .byte   Bn3
 .byte   W06
 .byte   N11 ,Cn4
 .byte   W12
 .byte   N05 ,An3
 .byte   W06
 .byte   Bn3
 .byte   W06
 .byte   Cn4
 .byte   W06
@  #02 @079   ----------------------------------------
 .byte   W96
@  #02 @080   ----------------------------------------
 .byte   W96
@  #02 @081   ----------------------------------------
 .byte   W96
@  #02 @082   ----------------------------------------
 .byte   W96
@  #02 @083   ----------------------------------------
 .byte   GOTO
  .word Label_01004036
 .byte   FINE

@**************** Track 3 (Midi-Chn.2) ****************@

song02_003:
@  #03 @000   ----------------------------------------
 .byte   KEYSH , song02_key+0
Label_01003026:
 .byte   PAN , c_v+46
 .byte   VOL , 49*song02_mvl/mxv
 .byte   BENDR, 12
 .byte   VOICE , 52
 .byte   W96
@  #03 @001   ----------------------------------------
 .byte   W96
@  #03 @002   ----------------------------------------
 .byte   W96
@  #03 @003   ----------------------------------------
 .byte   W96
@  #03 @004   ----------------------------------------
 .byte   W96
@  #03 @005   ----------------------------------------
 .byte   W96
@  #03 @006   ----------------------------------------
 .byte   W96
@  #03 @007   ----------------------------------------
 .byte   W96
@  #03 @008   ----------------------------------------
 .byte   W96
@  #03 @009   ----------------------------------------
 .byte   W96
@  #03 @010   ----------------------------------------
 .byte   W96
@  #03 @011   ----------------------------------------
 .byte   W96
@  #03 @012   ----------------------------------------
 .byte   W96
@  #03 @013   ----------------------------------------
 .byte   W96
@  #03 @014   ----------------------------------------
 .byte   W96
@  #03 @015   ----------------------------------------
 .byte   W96
@  #03 @016   ----------------------------------------
 .byte   W96
@  #03 @017   ----------------------------------------
 .byte   W96
@  #03 @018   ----------------------------------------
 .byte   W96
@  #03 @019   ----------------------------------------
Label_01003041:
 .byte   TIE ,An3 ,v059
 .byte   TIE ,En3
 .byte   W96
 .byte   PEND 
@  #03 @020   ----------------------------------------
 .byte   W23
 .byte   EOT
 .byte   An3 ,v064
 .byte   W01
 .byte   N23 ,An3
 .byte   N23 ,Gn3
 .byte   W24
 .byte   N32 ,Gn3 ,v059 ,gtp3
 .byte   En3
 .byte   W36
 .byte   N11 ,Gn3
 .byte   N11 ,En3
 .byte   W12
@  #03 @021   ----------------------------------------
 .byte   TIE ,Gn3
 .byte   TIE ,En3
 .byte   W96
@  #03 @022   ----------------------------------------
 .byte   W23
 .byte   EOT
 .byte   Gn3 ,v064
 .byte   W01
 .byte   N23
 .byte   N23 ,Bn2
 .byte   W24
 .byte   N44 ,En3 ,v059 ,gtp3
 .byte   Bn2
 .byte   W48
@  #03 @023   ----------------------------------------
 .byte   TIE ,An3
 .byte   TIE ,Gn3
 .byte   W96
@  #03 @024   ----------------------------------------
 .byte   W23
 .byte   EOT
 .byte   An3 ,v067
 .byte   W01
 .byte   N23 ,An3
 .byte   N23 ,Gn3
 .byte   W24
 .byte   N32 ,Gn3 ,v059 ,gtp3
 .byte   En3
 .byte   W36
 .byte   N11 ,Gn3
 .byte   N11 ,En3
 .byte   W12
@  #03 @025   ----------------------------------------
 .byte   PATT
  .word Label_01003041
@  #03 @026   ----------------------------------------
 .byte   W23
 .byte   EOT
 .byte   An3 ,v064
 .byte   W01
 .byte   N23 ,An3 ,v059
 .byte   N23 ,Gn3
 .byte   W24
 .byte   N44 ,An3 ,v059 ,gtp3
 .byte   Gn3
 .byte   W48
@  #03 @027   ----------------------------------------
 .byte   Fn3
 .byte   N44 ,Dn3 ,v059 ,gtp3
 .byte   W48
 .byte   Cn4
 .byte   N44 ,An3 ,v059 ,gtp3
 .byte   W48
@  #03 @028   ----------------------------------------
 .byte   Cn4
 .byte   N44 ,An3 ,v059 ,gtp3
 .byte   W48
 .byte   Dn4
 .byte   N44 ,An3 ,v059 ,gtp3
 .byte   W48
@  #03 @029   ----------------------------------------
 .byte   TIE ,Bn3
 .byte   TIE ,En3
 .byte   W96
@  #03 @030   ----------------------------------------
 .byte   W23
 .byte   EOT
 .byte   Bn3 ,v064
 .byte   W01
 .byte   N23 ,Bn3
 .byte   N23 ,En3
 .byte   W24
 .byte   N44 ,Bn3 ,v059 ,gtp3
 .byte   En3
 .byte   W48
@  #03 @031   ----------------------------------------
 .byte   TIE ,Cn4
 .byte   TIE ,An3
 .byte   W96
@  #03 @032   ----------------------------------------
 .byte   W23
 .byte   EOT
 .byte   Cn4 ,v069
 .byte   W01
 .byte   N23 ,Cn4
 .byte   N23 ,An3
 .byte   W24
 .byte   N44 ,Cn4 ,v059 ,gtp3
 .byte   An3
 .byte   W48
@  #03 @033   ----------------------------------------
 .byte   N92 ,An3 ,v059 ,gtp3
 .byte   W96
@  #03 @034   ----------------------------------------
 .byte   W96
@  #03 @035   ----------------------------------------
 .byte   W96
@  #03 @036   ----------------------------------------
Label_010030EA:
 .byte   TIE ,Fn3 ,v041
 .byte   TIE ,An3
 .byte   W96
 .byte   PEND 
@  #03 @037   ----------------------------------------
Label_010030F1:
 .byte   W92
 .byte   W03
 .byte   EOT
 .byte   Fn3 ,v069
 .byte   W01
 .byte   PEND 
@  #03 @038   ----------------------------------------
Label_010030F8:
 .byte   TIE ,En3 ,v041
 .byte   TIE ,Gn3
 .byte   W96
 .byte   PEND 
@  #03 @039   ----------------------------------------
Label_010030FF:
 .byte   W92
 .byte   W03
 .byte   EOT
 .byte   En3 ,v067
 .byte   W01
 .byte   PEND 
@  #03 @040   ----------------------------------------
 .byte   PATT
  .word Label_010030EA
@  #03 @041   ----------------------------------------
 .byte   PATT
  .word Label_010030F1
@  #03 @042   ----------------------------------------
 .byte   PATT
  .word Label_010030F8
@  #03 @043   ----------------------------------------
 .byte   PATT
  .word Label_010030FF
@  #03 @044   ----------------------------------------
 .byte   W96
@  #03 @045   ----------------------------------------
 .byte   W96
@  #03 @046   ----------------------------------------
 .byte   W96
@  #03 @047   ----------------------------------------
 .byte   W96
@  #03 @048   ----------------------------------------
 .byte   W96
@  #03 @049   ----------------------------------------
 .byte   W96
@  #03 @050   ----------------------------------------
 .byte   W96
@  #03 @051   ----------------------------------------
 .byte   W96
@  #03 @052   ----------------------------------------
 .byte   W96
@  #03 @053   ----------------------------------------
 .byte   W96
@  #03 @054   ----------------------------------------
 .byte   W96
@  #03 @055   ----------------------------------------
 .byte   W96
@  #03 @056   ----------------------------------------
 .byte   W96
@  #03 @057   ----------------------------------------
 .byte   W96
@  #03 @058   ----------------------------------------
 .byte   W96
@  #03 @059   ----------------------------------------
 .byte   W96
@  #03 @060   ----------------------------------------
 .byte   W96
@  #03 @061   ----------------------------------------
 .byte   W96
@  #03 @062   ----------------------------------------
 .byte   W96
@  #03 @063   ----------------------------------------
 .byte   W96
@  #03 @064   ----------------------------------------
 .byte   W96
@  #03 @065   ----------------------------------------
 .byte   W96
@  #03 @066   ----------------------------------------
 .byte   W96
@  #03 @067   ----------------------------------------
 .byte   W96
@  #03 @068   ----------------------------------------
 .byte   W96
@  #03 @069   ----------------------------------------
 .byte   W96
@  #03 @070   ----------------------------------------
 .byte   W96
@  #03 @071   ----------------------------------------
 .byte   W96
@  #03 @072   ----------------------------------------
 .byte   W96
@  #03 @073   ----------------------------------------
 .byte   W96
@  #03 @074   ----------------------------------------
 .byte   W96
@  #03 @075   ----------------------------------------
 .byte   W96
@  #03 @076   ----------------------------------------
 .byte   W96
@  #03 @077   ----------------------------------------
 .byte   W96
@  #03 @078   ----------------------------------------
 .byte   W96
@  #03 @079   ----------------------------------------
 .byte   W96
@  #03 @080   ----------------------------------------
 .byte   W96
@  #03 @081   ----------------------------------------
 .byte   W96
@  #03 @082   ----------------------------------------
 .byte   W96
@  #03 @083   ----------------------------------------
 .byte   GOTO
  .word Label_01003026
 .byte   FINE

@**************** Track 4 (Midi-Chn.3) ****************@

song02_004:
@  #04 @000   ----------------------------------------
 .byte   KEYSH , song02_key+0
Label_010005D2:
 .byte   VOICE , 1
 .byte   VOL , 76*song02_mvl/mxv
 .byte   BENDR, 12
 .byte   PAN , c_v+21
 .byte   W96
@  #04 @001   ----------------------------------------
 .byte   W96
@  #04 @002   ----------------------------------------
 .byte   W96
@  #04 @003   ----------------------------------------
 .byte   W96
@  #04 @004   ----------------------------------------
 .byte   W96
@  #04 @005   ----------------------------------------
 .byte   W96
@  #04 @006   ----------------------------------------
 .byte   W96
@  #04 @007   ----------------------------------------
 .byte   W96
@  #04 @008   ----------------------------------------
Label_010005E2:
 .byte   N11 ,Bn5 ,v013
 .byte   W12
 .byte   Cn6
 .byte   W12
 .byte   Dn6
 .byte   W12
 .byte   En6
 .byte   W12
 .byte   Bn5
 .byte   W12
 .byte   Cn6
 .byte   W12
 .byte   Dn6
 .byte   W12
 .byte   En6
 .byte   W12
 .byte   PEND 
@  #04 @009   ----------------------------------------
 .byte   PATT
  .word Label_010005E2
@  #04 @010   ----------------------------------------
 .byte   PATT
  .word Label_010005E2
@  #04 @011   ----------------------------------------
 .byte   PATT
  .word Label_010005E2
@  #04 @012   ----------------------------------------
 .byte   PATT
  .word Label_010005E2
@  #04 @013   ----------------------------------------
 .byte   PATT
  .word Label_010005E2
@  #04 @014   ----------------------------------------
 .byte   PATT
  .word Label_010005E2
@  #04 @015   ----------------------------------------
Label_01000613:
 .byte   N11 ,Bn5 ,v013
 .byte   W12
 .byte   Cn6
 .byte   W12
 .byte   Dn6
 .byte   W12
 .byte   Ds6
 .byte   W12
 .byte   Bn5
 .byte   W12
 .byte   Cn6
 .byte   W12
 .byte   Dn6
 .byte   W12
 .byte   Ds6
 .byte   W12
 .byte   PEND 
@  #04 @016   ----------------------------------------
 .byte   PATT
  .word Label_01000613
@  #04 @017   ----------------------------------------
 .byte   PATT
  .word Label_010005E2
@  #04 @018   ----------------------------------------
 .byte   PATT
  .word Label_010005E2
@  #04 @019   ----------------------------------------
 .byte   W96
@  #04 @020   ----------------------------------------
 .byte   W96
@  #04 @021   ----------------------------------------
 .byte   W96
@  #04 @022   ----------------------------------------
 .byte   W96
@  #04 @023   ----------------------------------------
 .byte   W96
@  #04 @024   ----------------------------------------
 .byte   W96
@  #04 @025   ----------------------------------------
 .byte   W96
@  #04 @026   ----------------------------------------
 .byte   W96
@  #04 @027   ----------------------------------------
 .byte   W96
@  #04 @028   ----------------------------------------
 .byte   W96
@  #04 @029   ----------------------------------------
 .byte   W96
@  #04 @030   ----------------------------------------
 .byte   W96
@  #04 @031   ----------------------------------------
 .byte   W96
@  #04 @032   ----------------------------------------
 .byte   W96
@  #04 @033   ----------------------------------------
 .byte   W96
@  #04 @034   ----------------------------------------
 .byte   W48
 .byte   N11 ,Dn6 ,v013
 .byte   W12
 .byte   Cn6
 .byte   W12
 .byte   Bn5
 .byte   W12
 .byte   Cn6
 .byte   W12
@  #04 @035   ----------------------------------------
 .byte   Bn5
 .byte   W12
 .byte   An5
 .byte   W12
 .byte   Bn5
 .byte   W12
 .byte   An5
 .byte   W12
 .byte   Gn5
 .byte   W12
 .byte   An5
 .byte   W12
 .byte   Gn5
 .byte   W12
 .byte   En5
 .byte   W12
@  #04 @036   ----------------------------------------
 .byte   W96
@  #04 @037   ----------------------------------------
 .byte   W96
@  #04 @038   ----------------------------------------
 .byte   W96
@  #04 @039   ----------------------------------------
 .byte   W96
@  #04 @040   ----------------------------------------
 .byte   W96
@  #04 @041   ----------------------------------------
 .byte   W96
@  #04 @042   ----------------------------------------
 .byte   W96
@  #04 @043   ----------------------------------------
 .byte   W96
@  #04 @044   ----------------------------------------
 .byte   An4
 .byte   W12
 .byte   Gn4
 .byte   W12
 .byte   An4
 .byte   W12
 .byte   N05 ,Cn5
 .byte   W06
 .byte   N28 ,Cn5 ,v013 ,gtp1
 .byte   W42
 .byte   N11 ,Gn4
 .byte   W12
@  #04 @045   ----------------------------------------
 .byte   An4
 .byte   W12
 .byte   Gn4
 .byte   W12
 .byte   An4
 .byte   W12
 .byte   N05 ,Cn5
 .byte   W06
 .byte   N28 ,Cn5 ,v013 ,gtp1
 .byte   W42
 .byte   N11 ,An4
 .byte   W12
@  #04 @046   ----------------------------------------
Label_01000689:
 .byte   N11 ,Bn4 ,v013
 .byte   W12
 .byte   An4
 .byte   W12
 .byte   Bn4
 .byte   W12
 .byte   N05 ,En5
 .byte   W06
 .byte   N28 ,En5 ,v013 ,gtp1
 .byte   W42
 .byte   N11 ,An4
 .byte   W12
 .byte   PEND 
@  #04 @047   ----------------------------------------
 .byte   PATT
  .word Label_01000689
@  #04 @048   ----------------------------------------
 .byte   N11 ,En5 ,v013
 .byte   W12
 .byte   Dn5
 .byte   W12
 .byte   En5
 .byte   W12
 .byte   N05 ,Cn5
 .byte   W06
 .byte   N28 ,Cn5 ,v013 ,gtp1
 .byte   W42
 .byte   N11 ,Dn5
 .byte   W12
@  #04 @049   ----------------------------------------
 .byte   En5
 .byte   W12
 .byte   Dn5
 .byte   W12
 .byte   En5
 .byte   W12
 .byte   N23 ,Bn4
 .byte   W60
@  #04 @050   ----------------------------------------
 .byte   W96
@  #04 @051   ----------------------------------------
Label_010006BF:
 .byte   N11 ,Bn5 ,v026
 .byte   W12
 .byte   Cn6
 .byte   W12
 .byte   Dn6
 .byte   W12
 .byte   En6
 .byte   W12
 .byte   Bn5
 .byte   W12
 .byte   Cn6
 .byte   W12
 .byte   Dn6
 .byte   W12
 .byte   En6
 .byte   W12
 .byte   PEND 
@  #04 @052   ----------------------------------------
 .byte   PATT
  .word Label_010006BF
@  #04 @053   ----------------------------------------
 .byte   PATT
  .word Label_010006BF
@  #04 @054   ----------------------------------------
 .byte   PATT
  .word Label_010006BF
@  #04 @055   ----------------------------------------
 .byte   PATT
  .word Label_010006BF
@  #04 @056   ----------------------------------------
 .byte   PATT
  .word Label_010006BF
@  #04 @057   ----------------------------------------
 .byte   PATT
  .word Label_010006BF
@  #04 @058   ----------------------------------------
 .byte   N11 ,Dn6 ,v026
 .byte   W12
 .byte   En6
 .byte   W12
 .byte   Fn6
 .byte   W12
 .byte   Gn6
 .byte   W12
 .byte   Dn6
 .byte   W12
 .byte   En6
 .byte   W12
 .byte   Fn6
 .byte   W12
 .byte   Gn6
 .byte   W12
@  #04 @059   ----------------------------------------
 .byte   W96
@  #04 @060   ----------------------------------------
 .byte   W96
@  #04 @061   ----------------------------------------
 .byte   W96
@  #04 @062   ----------------------------------------
 .byte   W96
@  #04 @063   ----------------------------------------
 .byte   W96
@  #04 @064   ----------------------------------------
 .byte   W96
@  #04 @065   ----------------------------------------
 .byte   W96
@  #04 @066   ----------------------------------------
 .byte   W96
@  #04 @067   ----------------------------------------
 .byte   W96
@  #04 @068   ----------------------------------------
 .byte   W96
@  #04 @069   ----------------------------------------
 .byte   W96
@  #04 @070   ----------------------------------------
 .byte   W96
@  #04 @071   ----------------------------------------
 .byte   W96
@  #04 @072   ----------------------------------------
 .byte   W96
@  #04 @073   ----------------------------------------
 .byte   W96
@  #04 @074   ----------------------------------------
 .byte   W96
@  #04 @075   ----------------------------------------
 .byte   W96
@  #04 @076   ----------------------------------------
 .byte   W96
@  #04 @077   ----------------------------------------
 .byte   W96
@  #04 @078   ----------------------------------------
 .byte   W96
@  #04 @079   ----------------------------------------
 .byte   W96
@  #04 @080   ----------------------------------------
 .byte   W96
@  #04 @081   ----------------------------------------
 .byte   W96
@  #04 @082   ----------------------------------------
 .byte   W96
@  #04 @083   ----------------------------------------
 .byte   GOTO
  .word Label_010005D2
 .byte   FINE

@**************** Track 5 (Midi-Chn.4) ****************@

song02_005:
@  #05 @000   ----------------------------------------
 .byte   KEYSH , song02_key+0
Label_01004272:
 .byte   VOICE , 91
 .byte   VOL , 58*song02_mvl/mxv
 .byte   BENDR, 12
 .byte   PAN , c_v-19
 .byte   W96
@  #05 @001   ----------------------------------------
 .byte   W96
@  #05 @002   ----------------------------------------
 .byte   W96
@  #05 @003   ----------------------------------------
 .byte   W96
@  #05 @004   ----------------------------------------
 .byte   W96
@  #05 @005   ----------------------------------------
 .byte   W96
@  #05 @006   ----------------------------------------
 .byte   W96
@  #05 @007   ----------------------------------------
 .byte   W96
@  #05 @008   ----------------------------------------
Label_01004282:
 .byte   N11 ,Bn5 ,v041
 .byte   W12
 .byte   Cn6
 .byte   W12
 .byte   Dn6
 .byte   W12
 .byte   En6
 .byte   W12
 .byte   Bn5
 .byte   W12
 .byte   Cn6
 .byte   W12
 .byte   Dn6
 .byte   W12
 .byte   En6
 .byte   W12
 .byte   PEND 
@  #05 @009   ----------------------------------------
 .byte   PATT
  .word Label_01004282
@  #05 @010   ----------------------------------------
 .byte   PATT
  .word Label_01004282
@  #05 @011   ----------------------------------------
 .byte   PATT
  .word Label_01004282
@  #05 @012   ----------------------------------------
 .byte   PATT
  .word Label_01004282
@  #05 @013   ----------------------------------------
 .byte   PATT
  .word Label_01004282
@  #05 @014   ----------------------------------------
 .byte   PATT
  .word Label_01004282
@  #05 @015   ----------------------------------------
Label_010042B3:
 .byte   N11 ,Bn5 ,v041
 .byte   W12
 .byte   Cn6
 .byte   W12
 .byte   Dn6
 .byte   W12
 .byte   Ds6
 .byte   W12
 .byte   Bn5
 .byte   W12
 .byte   Cn6
 .byte   W12
 .byte   Dn6
 .byte   W12
 .byte   Ds6
 .byte   W12
 .byte   PEND 
@  #05 @016   ----------------------------------------
 .byte   PATT
  .word Label_010042B3
@  #05 @017   ----------------------------------------
 .byte   PATT
  .word Label_01004282
@  #05 @018   ----------------------------------------
 .byte   PATT
  .word Label_01004282
@  #05 @019   ----------------------------------------
 .byte   W96
@  #05 @020   ----------------------------------------
 .byte   W96
@  #05 @021   ----------------------------------------
 .byte   W96
@  #05 @022   ----------------------------------------
 .byte   W96
@  #05 @023   ----------------------------------------
 .byte   W96
@  #05 @024   ----------------------------------------
 .byte   W96
@  #05 @025   ----------------------------------------
 .byte   W96
@  #05 @026   ----------------------------------------
 .byte   W96
@  #05 @027   ----------------------------------------
 .byte   W96
@  #05 @028   ----------------------------------------
 .byte   W96
@  #05 @029   ----------------------------------------
 .byte   W96
@  #05 @030   ----------------------------------------
 .byte   W96
@  #05 @031   ----------------------------------------
 .byte   W96
@  #05 @032   ----------------------------------------
 .byte   W96
@  #05 @033   ----------------------------------------
 .byte   W96
@  #05 @034   ----------------------------------------
 .byte   W96
@  #05 @035   ----------------------------------------
 .byte   W96
@  #05 @036   ----------------------------------------
 .byte   TIE ,An4 ,v041
 .byte   W96
@  #05 @037   ----------------------------------------
 .byte   W92
 .byte   W03
 .byte   EOT
 .byte   W01
@  #05 @038   ----------------------------------------
 .byte   TIE ,Gn4
 .byte   W96
@  #05 @039   ----------------------------------------
 .byte   W92
 .byte   W03
 .byte   EOT
 .byte   W01
@  #05 @040   ----------------------------------------
 .byte   TIE ,An4
 .byte   W96
@  #05 @041   ----------------------------------------
 .byte   W92
 .byte   W03
 .byte   EOT
 .byte   W01
@  #05 @042   ----------------------------------------
 .byte   TIE ,Gn4
 .byte   W96
@  #05 @043   ----------------------------------------
 .byte   W92
 .byte   W03
 .byte   EOT
 .byte   W01
@  #05 @044   ----------------------------------------
 .byte   N11 ,An5
 .byte   W12
 .byte   Gn5
 .byte   W12
 .byte   An5
 .byte   W12
 .byte   N05 ,Cn6
 .byte   W06
 .byte   N28 ,Cn6 ,v041 ,gtp1
 .byte   W42
 .byte   N11 ,Gn5
 .byte   W12
@  #05 @045   ----------------------------------------
 .byte   An5
 .byte   W12
 .byte   Gn5
 .byte   W12
 .byte   An5
 .byte   W12
 .byte   N05 ,Cn6
 .byte   W06
 .byte   N28 ,Cn6 ,v041 ,gtp1
 .byte   W42
 .byte   N11 ,Dn6
 .byte   W12
@  #05 @046   ----------------------------------------
Label_01004326:
 .byte   N11 ,Bn5 ,v041
 .byte   W12
 .byte   An5
 .byte   W12
 .byte   Bn5
 .byte   W12
 .byte   N05 ,En6
 .byte   W06
 .byte   N28 ,En6 ,v041 ,gtp1
 .byte   W42
 .byte   N11 ,An5
 .byte   W12
 .byte   PEND 
@  #05 @047   ----------------------------------------
 .byte   PATT
  .word Label_01004326
@  #05 @048   ----------------------------------------
 .byte   N11 ,En5 ,v041
 .byte   W12
 .byte   Dn5
 .byte   W12
 .byte   En5
 .byte   W12
 .byte   N05 ,An5
 .byte   W06
 .byte   N28 ,An5 ,v041 ,gtp1
 .byte   W42
 .byte   N11 ,Dn5
 .byte   W12
@  #05 @049   ----------------------------------------
 .byte   En5
 .byte   W12
 .byte   Dn5
 .byte   W12
 .byte   En5
 .byte   W12
 .byte   N23 ,Gn5
 .byte   W60
@  #05 @050   ----------------------------------------
 .byte   W96
@  #05 @051   ----------------------------------------
 .byte   PATT
  .word Label_01004282
@  #05 @052   ----------------------------------------
 .byte   PATT
  .word Label_01004282
@  #05 @053   ----------------------------------------
 .byte   PATT
  .word Label_01004282
@  #05 @054   ----------------------------------------
 .byte   PATT
  .word Label_01004282
@  #05 @055   ----------------------------------------
 .byte   PATT
  .word Label_01004282
@  #05 @056   ----------------------------------------
 .byte   PATT
  .word Label_01004282
@  #05 @057   ----------------------------------------
 .byte   PATT
  .word Label_01004282
@  #05 @058   ----------------------------------------
 .byte   N11 ,Dn6 ,v041
 .byte   W12
 .byte   En6
 .byte   W12
 .byte   Fn6
 .byte   W12
 .byte   Gn6
 .byte   W12
 .byte   Dn6
 .byte   W12
 .byte   En6
 .byte   W12
 .byte   Fn6
 .byte   W12
 .byte   Gn6
 .byte   W12
@  #05 @059   ----------------------------------------
 .byte   W96
@  #05 @060   ----------------------------------------
 .byte   W96
@  #05 @061   ----------------------------------------
 .byte   W96
@  #05 @062   ----------------------------------------
 .byte   W96
@  #05 @063   ----------------------------------------
 .byte   W96
@  #05 @064   ----------------------------------------
 .byte   W96
@  #05 @065   ----------------------------------------
 .byte   W96
@  #05 @066   ----------------------------------------
 .byte   W96
@  #05 @067   ----------------------------------------
 .byte   W96
@  #05 @068   ----------------------------------------
 .byte   W96
@  #05 @069   ----------------------------------------
 .byte   W96
@  #05 @070   ----------------------------------------
 .byte   W96
@  #05 @071   ----------------------------------------
 .byte   W96
@  #05 @072   ----------------------------------------
 .byte   W96
@  #05 @073   ----------------------------------------
 .byte   W96
@  #05 @074   ----------------------------------------
 .byte   W96
@  #05 @075   ----------------------------------------
 .byte   W96
@  #05 @076   ----------------------------------------
 .byte   W96
@  #05 @077   ----------------------------------------
 .byte   W96
@  #05 @078   ----------------------------------------
 .byte   W96
@  #05 @079   ----------------------------------------
 .byte   W96
@  #05 @080   ----------------------------------------
 .byte   W96
@  #05 @081   ----------------------------------------
 .byte   W96
@  #05 @082   ----------------------------------------
 .byte   W96
@  #05 @083   ----------------------------------------
 .byte   GOTO
  .word Label_01004272
 .byte   FINE

@**************** Track 6 (Midi-Chn.5) ****************@

song02_006:
@  #06 @000   ----------------------------------------
 .byte   KEYSH , song02_key+0
Label_01025B92:
 .byte   VOICE , 127
 .byte   VOL , 81*song02_mvl/mxv
 .byte   BENDR, 12
 .byte   PAN , c_v-4
 .byte   W96
@  #06 @001   ----------------------------------------
 .byte   W96
@  #06 @002   ----------------------------------------
 .byte   W96
@  #06 @003   ----------------------------------------
 .byte   W96
@  #06 @004   ----------------------------------------
 .byte   W96
@  #06 @005   ----------------------------------------
 .byte   W96
@  #06 @006   ----------------------------------------
 .byte   W96
@  #06 @007   ----------------------------------------
 .byte   W96
@  #06 @008   ----------------------------------------
 .byte   W96
@  #06 @009   ----------------------------------------
 .byte   W96
@  #06 @010   ----------------------------------------
 .byte   W96
@  #06 @011   ----------------------------------------
 .byte   W96
@  #06 @012   ----------------------------------------
 .byte   W96
@  #06 @013   ----------------------------------------
 .byte   W96
@  #06 @014   ----------------------------------------
 .byte   W96
@  #06 @015   ----------------------------------------
 .byte   W96
@  #06 @016   ----------------------------------------
 .byte   W96
@  #06 @017   ----------------------------------------
 .byte   W96
@  #06 @018   ----------------------------------------
 .byte   W96
@  #06 @019   ----------------------------------------
 .byte   W96
@  #06 @020   ----------------------------------------
 .byte   W96
@  #06 @021   ----------------------------------------
 .byte   W96
@  #06 @022   ----------------------------------------
 .byte   W96
@  #06 @023   ----------------------------------------
 .byte   W96
@  #06 @024   ----------------------------------------
 .byte   W96
@  #06 @025   ----------------------------------------
 .byte   W96
@  #06 @026   ----------------------------------------
 .byte   W96
@  #06 @027   ----------------------------------------
 .byte   W96
@  #06 @028   ----------------------------------------
 .byte   W96
@  #06 @029   ----------------------------------------
 .byte   W96
@  #06 @030   ----------------------------------------
 .byte   W96
@  #06 @031   ----------------------------------------
 .byte   W96
@  #06 @032   ----------------------------------------
 .byte   W96
@  #06 @033   ----------------------------------------
 .byte   W96
@  #06 @034   ----------------------------------------
 .byte   W96
@  #06 @035   ----------------------------------------
 .byte   W48
 .byte   N78 ,En2 ,v085 ,gtp1
 .byte   W48
@  #06 @036   ----------------------------------------
 .byte   N92 ,Fn2 ,v080 ,gtp3
 .byte   W96
@  #06 @037   ----------------------------------------
 .byte   W96
@  #06 @038   ----------------------------------------
 .byte   W96
@  #06 @039   ----------------------------------------
 .byte   W96
@  #06 @040   ----------------------------------------
 .byte   W96
@  #06 @041   ----------------------------------------
 .byte   W96
@  #06 @042   ----------------------------------------
 .byte   W96
@  #06 @043   ----------------------------------------
 .byte   W96
@  #06 @044   ----------------------------------------
 .byte   W96
@  #06 @045   ----------------------------------------
 .byte   W96
@  #06 @046   ----------------------------------------
 .byte   W96
@  #06 @047   ----------------------------------------
 .byte   W96
@  #06 @048   ----------------------------------------
 .byte   W96
@  #06 @049   ----------------------------------------
 .byte   W96
@  #06 @050   ----------------------------------------
 .byte   W54
 .byte   W01
 .byte   N80 ,En2 ,v085
 .byte   W40
 .byte   W01
@  #06 @051   ----------------------------------------
 .byte   TIE ,Fn2 ,v080
 .byte   W96
@  #06 @052   ----------------------------------------
 .byte   W92
 .byte   W03
 .byte   EOT
 .byte   W01
@  #06 @053   ----------------------------------------
 .byte   W96
@  #06 @054   ----------------------------------------
 .byte   W96
@  #06 @055   ----------------------------------------
 .byte   W96
@  #06 @056   ----------------------------------------
 .byte   W96
@  #06 @057   ----------------------------------------
 .byte   W96
@  #06 @058   ----------------------------------------
 .byte   W48
 .byte   W03
 .byte   N80 ,En2 ,v085
 .byte   W44
 .byte   W01
@  #06 @059   ----------------------------------------
 .byte   TIE ,Fn2 ,v127
 .byte   W96
@  #06 @060   ----------------------------------------
 .byte   W92
 .byte   W03
 .byte   EOT
 .byte   W01
@  #06 @061   ----------------------------------------
 .byte   TIE
 .byte   W96
@  #06 @062   ----------------------------------------
 .byte   W92
 .byte   W03
 .byte   EOT
 .byte   W01
@  #06 @063   ----------------------------------------
 .byte   TIE
 .byte   W96
@  #06 @064   ----------------------------------------
 .byte   W92
 .byte   W03
 .byte   EOT
 .byte   W01
@  #06 @065   ----------------------------------------
 .byte   N92 ,Fn2 ,v080 ,gtp3
 .byte   W96
@  #06 @066   ----------------------------------------
 .byte   W44
 .byte   W03
 .byte   N80 ,En2 ,v085
 .byte   W48
 .byte   W01
@  #06 @067   ----------------------------------------
 .byte   N92 ,Fn2 ,v080 ,gtp3
 .byte   W96
@  #06 @068   ----------------------------------------
 .byte   W96
@  #06 @069   ----------------------------------------
 .byte   W96
@  #06 @070   ----------------------------------------
 .byte   W44
 .byte   W03
 .byte   N78 ,En2 ,v085 ,gtp1
 .byte   W48
 .byte   W01
@  #06 @071   ----------------------------------------
 .byte   N92 ,Fn2 ,v041 ,gtp3
 .byte   W96
@  #06 @072   ----------------------------------------
 .byte   W96
@  #06 @073   ----------------------------------------
 .byte   W96
@  #06 @074   ----------------------------------------
 .byte   W52
 .byte   W01
 .byte   N78 ,En2 ,v085 ,gtp1
 .byte   W42
 .byte   W01
@  #06 @075   ----------------------------------------
 .byte   N92 ,Fn2 ,v041 ,gtp3
 .byte   W96
@  #06 @076   ----------------------------------------
 .byte   W96
@  #06 @077   ----------------------------------------
 .byte   W96
@  #06 @078   ----------------------------------------
 .byte   W56
 .byte   W03
 .byte   N78 ,En2 ,v085 ,gtp1
 .byte   W36
 .byte   W01
@  #06 @079   ----------------------------------------
 .byte   N68 ,Fn2 ,v127 ,gtp3
 .byte   W96
@  #06 @080   ----------------------------------------
 .byte   W96
@  #06 @081   ----------------------------------------
 .byte   TIE
 .byte   W96
@  #06 @082   ----------------------------------------
 .byte   W23
 .byte   EOT
 .byte   W72
 .byte   W01
@  #06 @083   ----------------------------------------
 .byte   GOTO
  .word Label_01025B92
 .byte   FINE

@**************** Track 7 (Midi-Chn.6) ****************@

song02_007:
@  #07 @000   ----------------------------------------
 .byte   KEYSH , song02_key+0
Label_01025C52:
 .byte   VOICE , 47
 .byte   VOL , 56*song02_mvl/mxv
 .byte   BENDR, 12
 .byte   W96
@  #07 @001   ----------------------------------------
 .byte   W96
@  #07 @002   ----------------------------------------
 .byte   W96
@  #07 @003   ----------------------------------------
 .byte   W96
@  #07 @004   ----------------------------------------
 .byte   W96
@  #07 @005   ----------------------------------------
 .byte   W96
@  #07 @006   ----------------------------------------
 .byte   W96
@  #07 @007   ----------------------------------------
 .byte   W96
@  #07 @008   ----------------------------------------
 .byte   W96
@  #07 @009   ----------------------------------------
 .byte   W96
@  #07 @010   ----------------------------------------
 .byte   W96
@  #07 @011   ----------------------------------------
 .byte   W96
@  #07 @012   ----------------------------------------
 .byte   W96
@  #07 @013   ----------------------------------------
 .byte   W96
@  #07 @014   ----------------------------------------
 .byte   W96
@  #07 @015   ----------------------------------------
 .byte   W96
@  #07 @016   ----------------------------------------
 .byte   W96
@  #07 @017   ----------------------------------------
 .byte   W96
@  #07 @018   ----------------------------------------
 .byte   W96
@  #07 @019   ----------------------------------------
 .byte   W96
@  #07 @020   ----------------------------------------
 .byte   W96
@  #07 @021   ----------------------------------------
 .byte   W96
@  #07 @022   ----------------------------------------
 .byte   W96
@  #07 @023   ----------------------------------------
 .byte   W96
@  #07 @024   ----------------------------------------
 .byte   W96
@  #07 @025   ----------------------------------------
 .byte   W96
@  #07 @026   ----------------------------------------
 .byte   W96
@  #07 @027   ----------------------------------------
 .byte   W96
@  #07 @028   ----------------------------------------
 .byte   W96
@  #07 @029   ----------------------------------------
 .byte   W96
@  #07 @030   ----------------------------------------
 .byte   W96
@  #07 @031   ----------------------------------------
 .byte   W96
@  #07 @032   ----------------------------------------
 .byte   W96
@  #07 @033   ----------------------------------------
 .byte   W96
@  #07 @034   ----------------------------------------
 .byte   W96
@  #07 @035   ----------------------------------------
 .byte   W96
@  #07 @036   ----------------------------------------
Label_01025C7C:
 .byte   N68 ,Fn1 ,v080 ,gtp3
 .byte   W72
 .byte   N23 ,Cn1
 .byte   W24
 .byte   PEND 
@  #07 @037   ----------------------------------------
 .byte   N92 ,Fn1 ,v080 ,gtp3
 .byte   W96
@  #07 @038   ----------------------------------------
Label_01025C8A:
 .byte   N68 ,An1 ,v080 ,gtp3
 .byte   W72
 .byte   N23 ,En1
 .byte   W24
 .byte   PEND 
@  #07 @039   ----------------------------------------
 .byte   N92 ,An1 ,v080 ,gtp3
 .byte   W96
@  #07 @040   ----------------------------------------
 .byte   PATT
  .word Label_01025C7C
@  #07 @041   ----------------------------------------
 .byte   N92 ,Fn1 ,v080 ,gtp3
 .byte   W96
@  #07 @042   ----------------------------------------
 .byte   PATT
  .word Label_01025C8A
@  #07 @043   ----------------------------------------
 .byte   N23 ,An1 ,v080
 .byte   W24
 .byte   N01 ,An1 ,v004
 .byte   W01
 .byte   An1
 .byte   W02
 .byte   An1
 .byte   W01
 .byte   An1
 .byte   W02
 .byte   An1
 .byte   W01
 .byte   An1
 .byte   W02
 .byte   An1
 .byte   W01
 .byte   An1
 .byte   W02
 .byte   An1 ,v009
 .byte   W01
 .byte   An1
 .byte   W02
 .byte   An1
 .byte   W01
 .byte   An1
 .byte   W02
 .byte   An1
 .byte   W01
 .byte   An1
 .byte   W02
 .byte   An1
 .byte   W01
 .byte   An1
 .byte   W02
 .byte   An1 ,v016
 .byte   W01
 .byte   An1
 .byte   W02
 .byte   An1
 .byte   W01
 .byte   An1
 .byte   W02
 .byte   An1
 .byte   W01
 .byte   An1
 .byte   W02
 .byte   An1
 .byte   W01
 .byte   An1
 .byte   W02
 .byte   An1 ,v025
 .byte   W01
 .byte   An1
 .byte   W02
 .byte   An1
 .byte   W01
 .byte   An1
 .byte   W02
 .byte   An1
 .byte   W01
 .byte   An1
 .byte   W02
 .byte   An1
 .byte   W01
 .byte   An1
 .byte   W02
 .byte   An1 ,v034
 .byte   W01
 .byte   An1
 .byte   W02
 .byte   An1
 .byte   W01
 .byte   An1
 .byte   W02
 .byte   An1
 .byte   W01
 .byte   An1
 .byte   W02
 .byte   An1
 .byte   W01
 .byte   An1
 .byte   W02
 .byte   An1 ,v046
 .byte   W01
 .byte   An1
 .byte   W02
 .byte   An1
 .byte   W01
 .byte   An1
 .byte   W02
 .byte   An1
 .byte   W01
 .byte   An1
 .byte   W02
 .byte   An1
 .byte   W01
 .byte   An1
 .byte   W02
@  #07 @044   ----------------------------------------
 .byte   N68 ,As1 ,v059 ,gtp3
 .byte   W72
 .byte   N23 ,Fn1
 .byte   W24
@  #07 @045   ----------------------------------------
 .byte   N92 ,As1 ,v059 ,gtp3
 .byte   W96
@  #07 @046   ----------------------------------------
 .byte   N68 ,An1 ,v059 ,gtp3
 .byte   W72
 .byte   N23 ,En1
 .byte   W24
@  #07 @047   ----------------------------------------
 .byte   N92 ,Gn1 ,v059 ,gtp3
 .byte   W96
@  #07 @048   ----------------------------------------
 .byte   N68 ,Fn1 ,v059 ,gtp3
 .byte   W72
 .byte   N23 ,Cn1
 .byte   W24
@  #07 @049   ----------------------------------------
 .byte   N92 ,Fn1 ,v059 ,gtp3
 .byte   W96
@  #07 @050   ----------------------------------------
 .byte   W96
@  #07 @051   ----------------------------------------
 .byte   An0
 .byte   W96
@  #07 @052   ----------------------------------------
 .byte   W96
@  #07 @053   ----------------------------------------
 .byte   W96
@  #07 @054   ----------------------------------------
 .byte   W96
@  #07 @055   ----------------------------------------
 .byte   W96
@  #07 @056   ----------------------------------------
 .byte   W96
@  #07 @057   ----------------------------------------
 .byte   W96
@  #07 @058   ----------------------------------------
 .byte   W24
 .byte   N01 ,Gn1 ,v004
 .byte   W01
 .byte   Gn1
 .byte   W02
 .byte   Gn1
 .byte   W01
 .byte   Gn1
 .byte   W02
 .byte   Gn1
 .byte   W01
 .byte   Gn1
 .byte   W02
 .byte   Gn1
 .byte   W01
 .byte   Gn1
 .byte   W02
 .byte   Gn1 ,v011
 .byte   W01
 .byte   Gn1
 .byte   W02
 .byte   Gn1
 .byte   W01
 .byte   Gn1
 .byte   W02
 .byte   Gn1
 .byte   W01
 .byte   Gn1
 .byte   W02
 .byte   Gn1
 .byte   W01
 .byte   Gn1
 .byte   W02
 .byte   Gn1 ,v020
 .byte   W01
 .byte   Gn1
 .byte   W02
 .byte   Gn1
 .byte   W01
 .byte   Gn1
 .byte   W02
 .byte   Gn1
 .byte   W01
 .byte   Gn1
 .byte   W02
 .byte   Gn1
 .byte   W01
 .byte   Gn1
 .byte   W02
 .byte   Gn1 ,v032
 .byte   W01
 .byte   Gn1
 .byte   W02
 .byte   Gn1
 .byte   W01
 .byte   Gn1
 .byte   W02
 .byte   Gn1
 .byte   W01
 .byte   Gn1
 .byte   W02
 .byte   Gn1
 .byte   W01
 .byte   Gn1
 .byte   W02
 .byte   Gn1 ,v046
 .byte   W01
 .byte   Gn1
 .byte   W02
 .byte   Gn1
 .byte   W01
 .byte   Gn1
 .byte   W02
 .byte   Gn1
 .byte   W01
 .byte   Gn1
 .byte   W02
 .byte   Gn1
 .byte   W01
 .byte   Gn1
 .byte   W02
 .byte   Gn1 ,v061
 .byte   W01
 .byte   Gn1
 .byte   W02
 .byte   Gn1
 .byte   W01
 .byte   Gn1
 .byte   W02
 .byte   Gn1
 .byte   W01
 .byte   Gn1
 .byte   W02
 .byte   Gn1
 .byte   W01
 .byte   Gn1
 .byte   W02
@  #07 @059   ----------------------------------------
 .byte   N92 ,An1 ,v127 ,gtp3
 .byte   W96
@  #07 @060   ----------------------------------------
Label_01025DAF:
 .byte   W84
 .byte   N11 ,En1 ,v127
 .byte   W12
 .byte   PEND 
@  #07 @061   ----------------------------------------
 .byte   N92 ,An1 ,v127 ,gtp3
 .byte   W96
@  #07 @062   ----------------------------------------
 .byte   PATT
  .word Label_01025DAF
@  #07 @063   ----------------------------------------
 .byte   N92 ,An1 ,v127 ,gtp3
 .byte   W96
@  #07 @064   ----------------------------------------
 .byte   PATT
  .word Label_01025DAF
@  #07 @065   ----------------------------------------
 .byte   N92 ,An1 ,v127 ,gtp3
 .byte   W96
@  #07 @066   ----------------------------------------
 .byte   W72
 .byte   N23 ,Gn1 ,v080
 .byte   W24
@  #07 @067   ----------------------------------------
Label_01025DD3:
 .byte   N32 ,Fn1 ,v080 ,gtp3
 .byte   W36
 .byte   Fn1
 .byte   W36
 .byte   N23
 .byte   W24
 .byte   PEND 
@  #07 @068   ----------------------------------------
Label_01025DDD:
 .byte   N32 ,Gn1 ,v080 ,gtp3
 .byte   W36
 .byte   Gn1
 .byte   W36
 .byte   N23
 .byte   W24
 .byte   PEND 
@  #07 @069   ----------------------------------------
 .byte   N32 ,Dn1 ,v080 ,gtp3
 .byte   W36
 .byte   Dn1
 .byte   W36
 .byte   N23
 .byte   W24
@  #07 @070   ----------------------------------------
 .byte   N32 ,En1 ,v080 ,gtp3
 .byte   W36
 .byte   En1
 .byte   W36
 .byte   N11
 .byte   W12
 .byte   N02 ,Bn0
 .byte   W03
 .byte   Bn0
 .byte   W03
 .byte   Bn0
 .byte   W03
 .byte   Bn0
 .byte   W03
@  #07 @071   ----------------------------------------
 .byte   PATT
  .word Label_01025DD3
@  #07 @072   ----------------------------------------
 .byte   PATT
  .word Label_01025DDD
@  #07 @073   ----------------------------------------
 .byte   N32 ,An1 ,v080 ,gtp3
 .byte   W36
 .byte   An1
 .byte   W36
 .byte   N23
 .byte   W24
@  #07 @074   ----------------------------------------
 .byte   N32 ,Gn1 ,v080 ,gtp3
 .byte   W36
 .byte   Gn1
 .byte   W36
 .byte   N02 ,Gn1 ,v026
 .byte   W03
 .byte   Gn1
 .byte   W03
 .byte   Gn1
 .byte   W03
 .byte   Gn1
 .byte   W03
 .byte   Gn1 ,v059
 .byte   W03
 .byte   Gn1
 .byte   W03
 .byte   Gn1
 .byte   W03
 .byte   Gn1
 .byte   W03
@  #07 @075   ----------------------------------------
 .byte   N32 ,Fn1 ,v127 ,gtp3
 .byte   W36
 .byte   Fn1 ,v080
 .byte   W36
 .byte   N23
 .byte   W24
@  #07 @076   ----------------------------------------
 .byte   N32 ,Fn1 ,v080 ,gtp3
 .byte   W36
 .byte   En1
 .byte   W36
 .byte   N23
 .byte   W24
@  #07 @077   ----------------------------------------
 .byte   W96
@  #07 @078   ----------------------------------------
 .byte   W48
 .byte   N02 ,Gn1 ,v026
 .byte   W03
 .byte   Gn1
 .byte   W03
 .byte   Gn1
 .byte   W03
 .byte   Gn1
 .byte   W03
 .byte   Gn1 ,v041
 .byte   W03
 .byte   Gn1
 .byte   W03
 .byte   Gn1
 .byte   W03
 .byte   Gn1
 .byte   W03
 .byte   Gn1 ,v059
 .byte   W03
 .byte   Gn1
 .byte   W03
 .byte   Gn1
 .byte   W03
 .byte   Gn1
 .byte   W03
 .byte   Gn1 ,v080
 .byte   W03
 .byte   Gn1
 .byte   W03
 .byte   Gn1
 .byte   W03
 .byte   Gn1
 .byte   W03
@  #07 @079   ----------------------------------------
 .byte   N68 ,Fn1 ,v127 ,gtp3
 .byte   W84
 .byte   N11 ,Cn1
 .byte   W12
@  #07 @080   ----------------------------------------
 .byte   N44 ,Fn1 ,v127 ,gtp3
 .byte   W96
@  #07 @081   ----------------------------------------
 .byte   N92 ,En1 ,v103 ,gtp3
 .byte   W96
@  #07 @082   ----------------------------------------
 .byte   W96
@  #07 @083   ----------------------------------------
 .byte   GOTO
  .word Label_01025C52
 .byte   FINE

@**************** Track 8 (Midi-Chn.7) ****************@

song02_008:
@  #08 @000   ----------------------------------------
 .byte   KEYSH , song02_key+0
Label_01026022:
 .byte   VOICE , 49
 .byte   PAN , c_v-39
 .byte   VOL , 65*song02_mvl/mxv
 .byte   BENDR, 12
 .byte   W96
@  #08 @001   ----------------------------------------
 .byte   W96
@  #08 @002   ----------------------------------------
 .byte   W96
@  #08 @003   ----------------------------------------
 .byte   W96
@  #08 @004   ----------------------------------------
 .byte   W96
@  #08 @005   ----------------------------------------
 .byte   W96
@  #08 @006   ----------------------------------------
 .byte   W96
@  #08 @007   ----------------------------------------
 .byte   W96
@  #08 @008   ----------------------------------------
 .byte   W96
@  #08 @009   ----------------------------------------
 .byte   W96
@  #08 @010   ----------------------------------------
 .byte   W96
@  #08 @011   ----------------------------------------
 .byte   W96
@  #08 @012   ----------------------------------------
 .byte   W96
@  #08 @013   ----------------------------------------
 .byte   W96
@  #08 @014   ----------------------------------------
 .byte   W96
@  #08 @015   ----------------------------------------
 .byte   W96
@  #08 @016   ----------------------------------------
 .byte   W96
@  #08 @017   ----------------------------------------
 .byte   W96
@  #08 @018   ----------------------------------------
Label_0102603C:
 .byte   W72
 .byte   N23 ,En2 ,v059
 .byte   W24
 .byte   PEND 
@  #08 @019   ----------------------------------------
 .byte   TIE ,An2
 .byte   W96
@  #08 @020   ----------------------------------------
 .byte   W23
 .byte   EOT
 .byte   W01
 .byte   N23 ,Cn3
 .byte   W24
 .byte   N32 ,Bn2 ,v059 ,gtp3
 .byte   W36
 .byte   N11 ,Gn2
 .byte   W12
@  #08 @021   ----------------------------------------
 .byte   TIE ,En2
 .byte   W96
@  #08 @022   ----------------------------------------
 .byte   W23
 .byte   EOT
 .byte   W01
 .byte   N23 ,Dn2
 .byte   W24
 .byte   En2
 .byte   W24
 .byte   Gn2
 .byte   W24
@  #08 @023   ----------------------------------------
 .byte   TIE ,An2
 .byte   W96
@  #08 @024   ----------------------------------------
 .byte   W23
 .byte   EOT
 .byte   W01
 .byte   N23
 .byte   W24
 .byte   Bn2
 .byte   W24
 .byte   Cn3
 .byte   W24
@  #08 @025   ----------------------------------------
 .byte   N32 ,Dn3 ,v059 ,gtp3
 .byte   W36
 .byte   N11 ,En3
 .byte   W12
 .byte   TIE
 .byte   W48
@  #08 @026   ----------------------------------------
 .byte   W68
 .byte   W03
 .byte   EOT
 .byte   W01
 .byte   N23
 .byte   W24
@  #08 @027   ----------------------------------------
Label_0102607C:
 .byte   N44 ,Dn3 ,v059 ,gtp3
 .byte   W48
 .byte   En3
 .byte   W48
 .byte   PEND 
@  #08 @028   ----------------------------------------
 .byte   Fn3
 .byte   W48
 .byte   Ds3
 .byte   W48
@  #08 @029   ----------------------------------------
 .byte   TIE ,En3
 .byte   W96
@  #08 @030   ----------------------------------------
Label_0102608B:
 .byte   W23
 .byte   EOT
 .byte   En3
 .byte   W01
 .byte   N23 ,An3 ,v059
 .byte   W24
 .byte   N32 ,Gn3 ,v059 ,gtp3
 .byte   W36
 .byte   N11 ,En3
 .byte   W12
 .byte   PEND 
@  #08 @031   ----------------------------------------
 .byte   TIE ,Cn3
 .byte   W96
@  #08 @032   ----------------------------------------
Label_0102609F:
 .byte   W23
 .byte   EOT
 .byte   Cn3
 .byte   W01
 .byte   N23 ,En3 ,v059
 .byte   W24
 .byte   N32 ,Dn3 ,v059 ,gtp3
 .byte   W36
 .byte   N11 ,Cn3
 .byte   W12
 .byte   PEND 
@  #08 @033   ----------------------------------------
 .byte   TIE ,An2
 .byte   W96
@  #08 @034   ----------------------------------------
 .byte   W44
 .byte   W03
 .byte   EOT
 .byte   W48
 .byte   W01
@  #08 @035   ----------------------------------------
 .byte   W96
@  #08 @036   ----------------------------------------
 .byte   TIE ,An3
 .byte   W96
@  #08 @037   ----------------------------------------
 .byte   W23
 .byte   EOT
 .byte   W01
 .byte   N23 ,Cn4
 .byte   W24
 .byte   N32 ,Bn3 ,v059 ,gtp3
 .byte   W36
 .byte   N11 ,Gn3
 .byte   W12
@  #08 @038   ----------------------------------------
 .byte   TIE ,En3
 .byte   W96
@  #08 @039   ----------------------------------------
 .byte   W23
 .byte   EOT
 .byte   W01
 .byte   N23 ,Dn3
 .byte   W24
 .byte   En3
 .byte   W24
 .byte   Gn3
 .byte   W24
@  #08 @040   ----------------------------------------
 .byte   TIE ,An3
 .byte   W96
@  #08 @041   ----------------------------------------
 .byte   W23
 .byte   EOT
 .byte   W01
 .byte   N23
 .byte   W24
 .byte   Bn3
 .byte   W24
 .byte   Cn4
 .byte   W24
@  #08 @042   ----------------------------------------
 .byte   N32 ,Dn4 ,v059 ,gtp3
 .byte   W36
 .byte   N11 ,En4
 .byte   W12
 .byte   TIE
 .byte   W48
@  #08 @043   ----------------------------------------
 .byte   W80
 .byte   W03
 .byte   EOT
 .byte   W13
@  #08 @044   ----------------------------------------
 .byte   W96
@  #08 @045   ----------------------------------------
 .byte   W96
@  #08 @046   ----------------------------------------
 .byte   W96
@  #08 @047   ----------------------------------------
 .byte   W96
@  #08 @048   ----------------------------------------
 .byte   W96
@  #08 @049   ----------------------------------------
 .byte   W96
@  #08 @050   ----------------------------------------
 .byte   W96
@  #08 @051   ----------------------------------------
 .byte   W96
@  #08 @052   ----------------------------------------
 .byte   W96
@  #08 @053   ----------------------------------------
 .byte   W96
@  #08 @054   ----------------------------------------
 .byte   W96
@  #08 @055   ----------------------------------------
 .byte   W96
@  #08 @056   ----------------------------------------
 .byte   W96
@  #08 @057   ----------------------------------------
 .byte   W96
@  #08 @058   ----------------------------------------
 .byte   W96
@  #08 @059   ----------------------------------------
 .byte   W96
@  #08 @060   ----------------------------------------
 .byte   W96
@  #08 @061   ----------------------------------------
 .byte   W96
@  #08 @062   ----------------------------------------
 .byte   W96
@  #08 @063   ----------------------------------------
 .byte   W96
@  #08 @064   ----------------------------------------
 .byte   W96
@  #08 @065   ----------------------------------------
 .byte   W96
@  #08 @066   ----------------------------------------
Label_01026107:
 .byte   N23 ,Bn3 ,v059
 .byte   W24
 .byte   Cn4
 .byte   W24
 .byte   Dn4
 .byte   W24
 .byte   En4
 .byte   W24
 .byte   PEND 
@  #08 @067   ----------------------------------------
Label_01026112:
 .byte   N05 ,An2 ,v116
 .byte   W12
 .byte   An2 ,v059
 .byte   W12
 .byte   An2
 .byte   W12
 .byte   An2 ,v116
 .byte   W12
 .byte   An2 ,v059
 .byte   W12
 .byte   An2
 .byte   W12
 .byte   An2 ,v116
 .byte   W12
 .byte   An2 ,v059
 .byte   W12
 .byte   PEND 
@  #08 @068   ----------------------------------------
Label_0102612A:
 .byte   N05 ,Bn2 ,v116
 .byte   W12
 .byte   Bn2 ,v059
 .byte   W12
 .byte   Bn2
 .byte   W12
 .byte   Bn2 ,v116
 .byte   W12
 .byte   Bn2 ,v059
 .byte   W12
 .byte   Bn2
 .byte   W12
 .byte   Bn2 ,v116
 .byte   W12
 .byte   Bn2 ,v059
 .byte   W12
 .byte   PEND 
@  #08 @069   ----------------------------------------
 .byte   PATT
  .word Label_01026112
@  #08 @070   ----------------------------------------
Label_01026147:
 .byte   N05 ,Gn2 ,v116
 .byte   W12
 .byte   Gn2 ,v059
 .byte   W12
 .byte   Gn2
 .byte   W12
 .byte   Gn2 ,v116
 .byte   W12
 .byte   Gn2 ,v059
 .byte   W12
 .byte   Gn2
 .byte   W12
 .byte   Gn2 ,v116
 .byte   W12
 .byte   Gn2 ,v059
 .byte   W12
 .byte   PEND 
@  #08 @071   ----------------------------------------
 .byte   PATT
  .word Label_01026112
@  #08 @072   ----------------------------------------
 .byte   PATT
  .word Label_0102612A
@  #08 @073   ----------------------------------------
Label_01026169:
 .byte   N05 ,Cn3 ,v116
 .byte   W12
 .byte   Cn3 ,v059
 .byte   W12
 .byte   Cn3
 .byte   W12
 .byte   Cn3 ,v116
 .byte   W12
 .byte   Cn3 ,v059
 .byte   W12
 .byte   Cn3
 .byte   W12
 .byte   Cn3 ,v116
 .byte   W12
 .byte   Cn3 ,v059
 .byte   W12
 .byte   PEND 
@  #08 @074   ----------------------------------------
 .byte   PATT
  .word Label_0102612A
@  #08 @075   ----------------------------------------
 .byte   PATT
  .word Label_01026169
@  #08 @076   ----------------------------------------
Label_0102618B:
 .byte   N05 ,Cn3 ,v116
 .byte   W12
 .byte   Cn3 ,v059
 .byte   W12
 .byte   Cn3
 .byte   W12
 .byte   Bn2 ,v116
 .byte   W12
 .byte   Bn2 ,v059
 .byte   W12
 .byte   Bn2
 .byte   W12
 .byte   Bn2 ,v116
 .byte   W12
 .byte   Bn2 ,v059
 .byte   W12
 .byte   PEND 
@  #08 @077   ----------------------------------------
 .byte   W96
@  #08 @078   ----------------------------------------
 .byte   W96
@  #08 @079   ----------------------------------------
 .byte   W96
@  #08 @080   ----------------------------------------
 .byte   W96
@  #08 @081   ----------------------------------------
 .byte   W96
@  #08 @082   ----------------------------------------
 .byte   W96
@  #08 @083   ----------------------------------------
 .byte   GOTO
  .word Label_01026022
 .byte   FINE

@**************** Track 9 (Midi-Chn.8) ****************@

song02_009:
@  #09 @000   ----------------------------------------
 .byte   KEYSH , song02_key+0
Label_01025E86:
 .byte   VOICE , 110
 .byte   VOL , 72*song02_mvl/mxv
 .byte   BENDR, 12
 .byte   PAN , c_v+25
 .byte   W96
@  #09 @001   ----------------------------------------
 .byte   W96
@  #09 @002   ----------------------------------------
 .byte   W96
@  #09 @003   ----------------------------------------
 .byte   W96
@  #09 @004   ----------------------------------------
 .byte   W96
@  #09 @005   ----------------------------------------
 .byte   W96
@  #09 @006   ----------------------------------------
 .byte   W96
@  #09 @007   ----------------------------------------
 .byte   W96
@  #09 @008   ----------------------------------------
 .byte   W96
@  #09 @009   ----------------------------------------
 .byte   W96
@  #09 @010   ----------------------------------------
 .byte   W96
@  #09 @011   ----------------------------------------
 .byte   W96
@  #09 @012   ----------------------------------------
 .byte   W96
@  #09 @013   ----------------------------------------
 .byte   W96
@  #09 @014   ----------------------------------------
 .byte   W96
@  #09 @015   ----------------------------------------
 .byte   W96
@  #09 @016   ----------------------------------------
 .byte   W96
@  #09 @017   ----------------------------------------
 .byte   W96
@  #09 @018   ----------------------------------------
 .byte   W96
@  #09 @019   ----------------------------------------
 .byte   W96
@  #09 @020   ----------------------------------------
 .byte   W96
@  #09 @021   ----------------------------------------
 .byte   W96
@  #09 @022   ----------------------------------------
 .byte   W96
@  #09 @023   ----------------------------------------
 .byte   W96
@  #09 @024   ----------------------------------------
 .byte   W96
@  #09 @025   ----------------------------------------
 .byte   W96
@  #09 @026   ----------------------------------------
 .byte   W96
@  #09 @027   ----------------------------------------
 .byte   W96
@  #09 @028   ----------------------------------------
 .byte   W96
@  #09 @029   ----------------------------------------
 .byte   W96
@  #09 @030   ----------------------------------------
 .byte   W96
@  #09 @031   ----------------------------------------
 .byte   W96
@  #09 @032   ----------------------------------------
 .byte   W96
@  #09 @033   ----------------------------------------
 .byte   W96
@  #09 @034   ----------------------------------------
 .byte   W96
@  #09 @035   ----------------------------------------
 .byte   W96
@  #09 @036   ----------------------------------------
 .byte   TIE ,An3 ,v041
 .byte   W96
@  #09 @037   ----------------------------------------
 .byte   W23
 .byte   EOT
 .byte   W01
 .byte   N23 ,Cn4
 .byte   W24
 .byte   N32 ,Bn3 ,v041 ,gtp3
 .byte   W36
 .byte   N11 ,Gn3
 .byte   W12
@  #09 @038   ----------------------------------------
 .byte   TIE ,En3
 .byte   W96
@  #09 @039   ----------------------------------------
 .byte   W23
 .byte   EOT
 .byte   W01
 .byte   N23 ,Dn3
 .byte   W24
 .byte   En3
 .byte   W24
 .byte   Gn3
 .byte   W24
@  #09 @040   ----------------------------------------
 .byte   TIE ,An3
 .byte   W96
@  #09 @041   ----------------------------------------
 .byte   W23
 .byte   EOT
 .byte   W01
 .byte   N23
 .byte   W24
 .byte   Bn3
 .byte   W24
 .byte   Cn4
 .byte   W24
@  #09 @042   ----------------------------------------
 .byte   N32 ,Dn4 ,v041 ,gtp3
 .byte   W36
 .byte   N11 ,En4
 .byte   W12
 .byte   Gn3
 .byte   N11 ,Dn3
 .byte   W12
 .byte   An3
 .byte   N11 ,En3
 .byte   W12
 .byte   Gn3
 .byte   N11 ,Dn3
 .byte   W12
 .byte   An3
 .byte   N11 ,En3
 .byte   W12
@  #09 @043   ----------------------------------------
 .byte   Cn4
 .byte   N11 ,Gn3
 .byte   W12
 .byte   Dn4
 .byte   N11 ,An3
 .byte   W12
 .byte   Cn4
 .byte   N11 ,Gn3
 .byte   W12
 .byte   Dn4
 .byte   N11 ,An3
 .byte   W12
 .byte   Gn4
 .byte   N11 ,En4
 .byte   W12
 .byte   An4
 .byte   N11 ,Fn4
 .byte   W12
 .byte   Gn4
 .byte   N11 ,En4
 .byte   W12
 .byte   An4
 .byte   N11 ,Fn4
 .byte   W12
@  #09 @044   ----------------------------------------
 .byte   PATT
  .word Label_0102607C
@  #09 @045   ----------------------------------------
 .byte   N44 ,Fn3 ,v059 ,gtp3
 .byte   W48
 .byte   Gn3
 .byte   W48
@  #09 @046   ----------------------------------------
 .byte   TIE ,En3
 .byte   W96
@  #09 @047   ----------------------------------------
 .byte   PATT
  .word Label_0102608B
@  #09 @048   ----------------------------------------
 .byte   TIE ,Cn3 ,v059
 .byte   W96
@  #09 @049   ----------------------------------------
 .byte   PATT
  .word Label_0102609F
@  #09 @050   ----------------------------------------
 .byte   N44 ,An2 ,v059 ,gtp3
 .byte   W48
 .byte   Cn3
 .byte   W48
@  #09 @051   ----------------------------------------
 .byte   TIE ,En3 ,v041
 .byte   W96
@  #09 @052   ----------------------------------------
 .byte   W92
 .byte   W03
 .byte   EOT
 .byte   W01
@  #09 @053   ----------------------------------------
 .byte   W96
@  #09 @054   ----------------------------------------
 .byte   W96
@  #09 @055   ----------------------------------------
 .byte   W96
@  #09 @056   ----------------------------------------
 .byte   W96
@  #09 @057   ----------------------------------------
 .byte   W96
@  #09 @058   ----------------------------------------
 .byte   W96
@  #09 @059   ----------------------------------------
Label_01025F47:
 .byte   W36
 .byte   N02 ,Bn3 ,v116
 .byte   W06
 .byte   Bn3
 .byte   W06
 .byte   N05
 .byte   W12
 .byte   Bn3
 .byte   W24
 .byte   N02
 .byte   W06
 .byte   Bn3
 .byte   W06
 .byte   PEND 
@  #09 @060   ----------------------------------------
Label_01025F57:
 .byte   N05 ,Bn3 ,v116
 .byte   W12
 .byte   Bn3
 .byte   W24
 .byte   N02
 .byte   W06
 .byte   Bn3
 .byte   W06
 .byte   N05
 .byte   W12
 .byte   Cn4
 .byte   W36
 .byte   PEND 
@  #09 @061   ----------------------------------------
 .byte   PATT
  .word Label_01025F47
@  #09 @062   ----------------------------------------
 .byte   PATT
  .word Label_01025F57
@  #09 @063   ----------------------------------------
 .byte   PATT
  .word Label_01025F47
@  #09 @064   ----------------------------------------
 .byte   PATT
  .word Label_01025F57
@  #09 @065   ----------------------------------------
 .byte   PATT
  .word Label_01025F47
@  #09 @066   ----------------------------------------
 .byte   PATT
  .word Label_01026107
@  #09 @067   ----------------------------------------
 .byte   PATT
  .word Label_01026169
@  #09 @068   ----------------------------------------
Label_01025F89:
 .byte   N05 ,Dn3 ,v116
 .byte   W12
 .byte   Dn3 ,v059
 .byte   W12
 .byte   Dn3
 .byte   W12
 .byte   Dn3 ,v116
 .byte   W12
 .byte   Dn3 ,v059
 .byte   W12
 .byte   Dn3
 .byte   W12
 .byte   Dn3 ,v116
 .byte   W12
 .byte   Dn3 ,v059
 .byte   W12
 .byte   PEND 
@  #09 @069   ----------------------------------------
 .byte   PATT
  .word Label_01026169
@  #09 @070   ----------------------------------------
 .byte   PATT
  .word Label_0102612A
@  #09 @071   ----------------------------------------
 .byte   PATT
  .word Label_01026169
@  #09 @072   ----------------------------------------
 .byte   PATT
  .word Label_01025F89
@  #09 @073   ----------------------------------------
 .byte   N05 ,En3 ,v116
 .byte   W12
 .byte   En3 ,v059
 .byte   W12
 .byte   En3
 .byte   W12
 .byte   En3 ,v116
 .byte   W12
 .byte   En3 ,v059
 .byte   W12
 .byte   En3
 .byte   W12
 .byte   En3 ,v116
 .byte   W12
 .byte   En3 ,v059
 .byte   W12
@  #09 @074   ----------------------------------------
 .byte   PATT
  .word Label_01025F89
@  #09 @075   ----------------------------------------
 .byte   PATT
  .word Label_01026169
@  #09 @076   ----------------------------------------
 .byte   PATT
  .word Label_0102618B
@  #09 @077   ----------------------------------------
 .byte   W96
@  #09 @078   ----------------------------------------
 .byte   W96
@  #09 @079   ----------------------------------------
 .byte   W24
 .byte   N23 ,Fn4 ,v059
 .byte   N23 ,Fn3
 .byte   W24
 .byte   N02 ,Fn4
 .byte   N02 ,Fn3
 .byte   W06
 .byte   Gn4
 .byte   N02 ,Gn3
 .byte   W06
 .byte   N11 ,An4
 .byte   N23 ,An3
 .byte   W12
 .byte   N11 ,An4
 .byte   W12
 .byte   N02 ,An3
 .byte   N02 ,An4
 .byte   W06
 .byte   Bn4
 .byte   N02 ,Bn3
 .byte   W06
@  #09 @080   ----------------------------------------
 .byte   N23 ,Cn4
 .byte   N23 ,Cn5
 .byte   W48
 .byte   N32 ,Dn5 ,v059 ,gtp3
 .byte   Dn4
 .byte   W48
@  #09 @081   ----------------------------------------
 .byte   TIE ,An4
 .byte   W96
@  #09 @082   ----------------------------------------
 .byte   W23
 .byte   EOT
 .byte   W72
 .byte   W01
@  #09 @083   ----------------------------------------
 .byte   GOTO
  .word Label_01025E86
 .byte   FINE

@**************** Track 10 (Midi-Chn.9) ****************@

song02_010:
@  #10 @000   ----------------------------------------
 .byte   KEYSH , song02_key+0
Label_010261B6:
 .byte   VOICE , 110
 .byte   VOL , 68*song02_mvl/mxv
 .byte   BENDR, 12
 .byte   PAN , c_v-36
 .byte   W96
@  #10 @001   ----------------------------------------
 .byte   W96
@  #10 @002   ----------------------------------------
 .byte   W96
@  #10 @003   ----------------------------------------
 .byte   W96
@  #10 @004   ----------------------------------------
 .byte   W96
@  #10 @005   ----------------------------------------
 .byte   W96
@  #10 @006   ----------------------------------------
 .byte   W96
@  #10 @007   ----------------------------------------
 .byte   W96
@  #10 @008   ----------------------------------------
 .byte   W96
@  #10 @009   ----------------------------------------
 .byte   W96
@  #10 @010   ----------------------------------------
 .byte   W96
@  #10 @011   ----------------------------------------
 .byte   W96
@  #10 @012   ----------------------------------------
 .byte   W96
@  #10 @013   ----------------------------------------
 .byte   W96
@  #10 @014   ----------------------------------------
 .byte   W96
@  #10 @015   ----------------------------------------
 .byte   W96
@  #10 @016   ----------------------------------------
 .byte   W96
@  #10 @017   ----------------------------------------
 .byte   W96
@  #10 @018   ----------------------------------------
 .byte   W96
@  #10 @019   ----------------------------------------
 .byte   W96
@  #10 @020   ----------------------------------------
 .byte   W96
@  #10 @021   ----------------------------------------
 .byte   W96
@  #10 @022   ----------------------------------------
 .byte   W96
@  #10 @023   ----------------------------------------
 .byte   W96
@  #10 @024   ----------------------------------------
 .byte   W96
@  #10 @025   ----------------------------------------
 .byte   W96
@  #10 @026   ----------------------------------------
 .byte   W96
@  #10 @027   ----------------------------------------
 .byte   W96
@  #10 @028   ----------------------------------------
 .byte   W96
@  #10 @029   ----------------------------------------
 .byte   W96
@  #10 @030   ----------------------------------------
 .byte   W96
@  #10 @031   ----------------------------------------
 .byte   W96
@  #10 @032   ----------------------------------------
 .byte   W96
@  #10 @033   ----------------------------------------
 .byte   TIE ,En5 ,v026
 .byte   W96
@  #10 @034   ----------------------------------------
 .byte   W44
 .byte   W03
 .byte   EOT
 .byte   W01
 .byte   N11 ,Fn5 ,v032
 .byte   W12
 .byte   En5 ,v033
 .byte   W12
 .byte   Dn5
 .byte   W12
 .byte   En5 ,v034
 .byte   W12
@  #10 @035   ----------------------------------------
 .byte   Dn5 ,v035
 .byte   W12
 .byte   Cn5
 .byte   W12
 .byte   Dn5 ,v036
 .byte   N11 ,Bn4
 .byte   W12
 .byte   Cn5
 .byte   N11 ,An4
 .byte   W12
 .byte   Bn4 ,v037
 .byte   N11 ,Gn4
 .byte   W12
 .byte   Cn5 ,v038
 .byte   N11 ,An4
 .byte   W12
 .byte   Bn4
 .byte   N11 ,Gn4
 .byte   W12
 .byte   En4 ,v039
 .byte   N11 ,Bn3
 .byte   W12
@  #10 @036   ----------------------------------------
 .byte   TIE ,An4 ,v041
 .byte   W96
@  #10 @037   ----------------------------------------
 .byte   W23
 .byte   EOT
 .byte   W01
 .byte   N23 ,Cn5
 .byte   W24
 .byte   N32 ,Bn4 ,v041 ,gtp3
 .byte   W36
 .byte   N11 ,Gn4
 .byte   W12
@  #10 @038   ----------------------------------------
 .byte   TIE ,En4
 .byte   W96
@  #10 @039   ----------------------------------------
 .byte   W23
 .byte   EOT
 .byte   W01
 .byte   N23 ,Dn4
 .byte   W24
 .byte   En4
 .byte   W24
 .byte   Gn4
 .byte   W24
@  #10 @040   ----------------------------------------
 .byte   TIE ,An4
 .byte   W96
@  #10 @041   ----------------------------------------
 .byte   W23
 .byte   EOT
 .byte   W01
 .byte   N23
 .byte   W24
 .byte   Bn4
 .byte   W24
 .byte   Cn5
 .byte   W24
@  #10 @042   ----------------------------------------
 .byte   N32 ,Dn5 ,v041 ,gtp3
 .byte   W36
 .byte   N11 ,En5
 .byte   W12
 .byte   TIE
 .byte   W48
@  #10 @043   ----------------------------------------
 .byte   W68
 .byte   W03
 .byte   EOT
 .byte   W01
 .byte   N23
 .byte   W24
@  #10 @044   ----------------------------------------
 .byte   N44 ,Dn5 ,v041 ,gtp3
 .byte   W48
 .byte   En5
 .byte   W48
@  #10 @045   ----------------------------------------
 .byte   Fn5
 .byte   W48
 .byte   Gn5
 .byte   W48
@  #10 @046   ----------------------------------------
 .byte   TIE ,En5
 .byte   W96
@  #10 @047   ----------------------------------------
 .byte   W23
 .byte   EOT
 .byte   W01
 .byte   N23 ,An5
 .byte   W24
 .byte   N32 ,Gn5 ,v041 ,gtp3
 .byte   W36
 .byte   N11 ,En5
 .byte   W12
@  #10 @048   ----------------------------------------
 .byte   TIE ,Cn5
 .byte   W96
@  #10 @049   ----------------------------------------
 .byte   W23
 .byte   EOT
 .byte   W01
 .byte   N23 ,En5
 .byte   W24
 .byte   N32 ,Dn5 ,v041 ,gtp3
 .byte   W36
 .byte   N11 ,Cn5
 .byte   W12
@  #10 @050   ----------------------------------------
 .byte   N44 ,An4 ,v041 ,gtp3
 .byte   W48
 .byte   Cn5
 .byte   W48
@  #10 @051   ----------------------------------------
 .byte   TIE ,En5 ,v013
 .byte   W96
@  #10 @052   ----------------------------------------
 .byte   W96
@  #10 @053   ----------------------------------------
 .byte   W96
@  #10 @054   ----------------------------------------
 .byte   W96
@  #10 @055   ----------------------------------------
 .byte   W96
@  #10 @056   ----------------------------------------
 .byte   W92
 .byte   W03
 .byte   EOT
 .byte   W01
@  #10 @057   ----------------------------------------
 .byte   N32 ,En5 ,v026 ,gtp3
 .byte   W36
 .byte   An4 ,v031
 .byte   W36
 .byte   N23 ,En5 ,v036
 .byte   W24
@  #10 @058   ----------------------------------------
 .byte   N32 ,Gn5 ,v041 ,gtp3
 .byte   W36
 .byte   Dn5 ,v047
 .byte   W36
 .byte   N23 ,Gn5 ,v054
 .byte   W24
@  #10 @059   ----------------------------------------
Label_010262A7:
 .byte   W36
 .byte   N02 ,Bn4 ,v116
 .byte   W06
 .byte   Bn4
 .byte   W06
 .byte   N05
 .byte   W12
 .byte   Bn4
 .byte   W24
 .byte   N02
 .byte   W06
 .byte   Bn4
 .byte   W06
 .byte   PEND 
@  #10 @060   ----------------------------------------
Label_010262B7:
 .byte   N05 ,Bn4 ,v116
 .byte   W12
 .byte   Bn4
 .byte   W24
 .byte   N02
 .byte   W06
 .byte   Bn4
 .byte   W06
 .byte   N05
 .byte   W12
 .byte   Cn5
 .byte   W36
 .byte   PEND 
@  #10 @061   ----------------------------------------
 .byte   PATT
  .word Label_010262A7
@  #10 @062   ----------------------------------------
 .byte   PATT
  .word Label_010262B7
@  #10 @063   ----------------------------------------
 .byte   PATT
  .word Label_010262A7
@  #10 @064   ----------------------------------------
 .byte   PATT
  .word Label_010262B7
@  #10 @065   ----------------------------------------
 .byte   PATT
  .word Label_010262A7
@  #10 @066   ----------------------------------------
 .byte   N23 ,Bn4 ,v059
 .byte   W24
 .byte   Cn5
 .byte   W24
 .byte   Dn5
 .byte   W24
 .byte   En5
 .byte   W24
@  #10 @067   ----------------------------------------
 .byte   TIE ,An4
 .byte   W96
@  #10 @068   ----------------------------------------
 .byte   W23
 .byte   EOT
 .byte   W01
 .byte   N23 ,En5
 .byte   W24
 .byte   N32 ,Dn5 ,v059 ,gtp3
 .byte   W36
 .byte   N11 ,Cn5
 .byte   W12
@  #10 @069   ----------------------------------------
 .byte   N44 ,Bn4 ,v059 ,gtp3
 .byte   W48
 .byte   An4
 .byte   W48
@  #10 @070   ----------------------------------------
 .byte   Bn4
 .byte   W48
 .byte   N32 ,Gn4 ,v059 ,gtp3
 .byte   W36
 .byte   N11 ,En4
 .byte   W12
@  #10 @071   ----------------------------------------
 .byte   TIE ,An4
 .byte   W96
@  #10 @072   ----------------------------------------
 .byte   W23
 .byte   EOT
 .byte   W01
 .byte   N23 ,En5
 .byte   W24
 .byte   N32 ,Dn5 ,v059 ,gtp3
 .byte   W36
 .byte   N11 ,Gn5
 .byte   W12
@  #10 @073   ----------------------------------------
 .byte   TIE ,En5
 .byte   W96
@  #10 @074   ----------------------------------------
 .byte   W23
 .byte   EOT
 .byte   W01
 .byte   N23 ,An5
 .byte   W24
 .byte   Gn5
 .byte   W24
 .byte   En5
 .byte   W24
@  #10 @075   ----------------------------------------
 .byte   N44 ,Cn5 ,v059 ,gtp3
 .byte   W48
 .byte   Dn5
 .byte   W48
@  #10 @076   ----------------------------------------
 .byte   N68 ,En5 ,v059 ,gtp3
 .byte   W72
 .byte   N23
 .byte   W24
@  #10 @077   ----------------------------------------
 .byte   N44 ,En5 ,v059 ,gtp3
 .byte   W48
 .byte   Fn5
 .byte   W48
@  #10 @078   ----------------------------------------
 .byte   Gn5
 .byte   W48
 .byte   An5
 .byte   W48
@  #10 @079   ----------------------------------------
 .byte   TIE ,Cn6
 .byte   W96
@  #10 @080   ----------------------------------------
 .byte   W80
 .byte   W03
 .byte   EOT
 .byte   W13
@  #10 @081   ----------------------------------------
 .byte   TIE ,An5
 .byte   W96
@  #10 @082   ----------------------------------------
 .byte   W23
 .byte   EOT
 .byte   W72
 .byte   W01
@  #10 @083   ----------------------------------------
 .byte   GOTO
  .word Label_010261B6
 .byte   FINE

@**************** Track 11 (Midi-Chn.10) ****************@

song02_011:
@  #11 @000   ----------------------------------------
 .byte   KEYSH , song02_key+0
Label_0102635A:
 .byte   VOICE , 51
 .byte   VOL , 60*song02_mvl/mxv
 .byte   BENDR, 12
 .byte   PAN , c_v+41
 .byte   W96
@  #11 @001   ----------------------------------------
 .byte   W96
@  #11 @002   ----------------------------------------
 .byte   W96
@  #11 @003   ----------------------------------------
 .byte   W96
@  #11 @004   ----------------------------------------
 .byte   W96
@  #11 @005   ----------------------------------------
 .byte   W96
@  #11 @006   ----------------------------------------
 .byte   W96
@  #11 @007   ----------------------------------------
 .byte   W96
@  #11 @008   ----------------------------------------
 .byte   W96
@  #11 @009   ----------------------------------------
 .byte   W96
@  #11 @010   ----------------------------------------
 .byte   W96
@  #11 @011   ----------------------------------------
 .byte   W96
@  #11 @012   ----------------------------------------
 .byte   W96
@  #11 @013   ----------------------------------------
 .byte   W96
@  #11 @014   ----------------------------------------
 .byte   W96
@  #11 @015   ----------------------------------------
 .byte   W96
@  #11 @016   ----------------------------------------
 .byte   W96
@  #11 @017   ----------------------------------------
 .byte   W96
@  #11 @018   ----------------------------------------
 .byte   W96
@  #11 @019   ----------------------------------------
 .byte   W96
@  #11 @020   ----------------------------------------
 .byte   W96
@  #11 @021   ----------------------------------------
 .byte   W96
@  #11 @022   ----------------------------------------
 .byte   W96
@  #11 @023   ----------------------------------------
 .byte   W96
@  #11 @024   ----------------------------------------
 .byte   W96
@  #11 @025   ----------------------------------------
 .byte   W96
@  #11 @026   ----------------------------------------
 .byte   W96
@  #11 @027   ----------------------------------------
 .byte   W96
@  #11 @028   ----------------------------------------
 .byte   W96
@  #11 @029   ----------------------------------------
 .byte   W96
@  #11 @030   ----------------------------------------
 .byte   W96
@  #11 @031   ----------------------------------------
 .byte   W96
@  #11 @032   ----------------------------------------
 .byte   W96
@  #11 @033   ----------------------------------------
 .byte   W96
@  #11 @034   ----------------------------------------
 .byte   W96
@  #11 @035   ----------------------------------------
 .byte   PATT
  .word Label_0102603C
@  #11 @036   ----------------------------------------
 .byte   TIE ,An2 ,v059
 .byte   W96
@  #11 @037   ----------------------------------------
 .byte   W92
 .byte   W03
 .byte   EOT
 .byte   W01
@  #11 @038   ----------------------------------------
 .byte   TIE ,En2
 .byte   W96
@  #11 @039   ----------------------------------------
 .byte   W92
 .byte   W03
 .byte   EOT
 .byte   W01
@  #11 @040   ----------------------------------------
 .byte   TIE ,An2
 .byte   W96
@  #11 @041   ----------------------------------------
 .byte   W92
 .byte   W03
 .byte   EOT
 .byte   W01
@  #11 @042   ----------------------------------------
 .byte   TIE ,Gn2
 .byte   W96
@  #11 @043   ----------------------------------------
 .byte   W92
 .byte   W03
 .byte   EOT
 .byte   W01
@  #11 @044   ----------------------------------------
 .byte   W96
@  #11 @045   ----------------------------------------
 .byte   W96
@  #11 @046   ----------------------------------------
 .byte   W96
@  #11 @047   ----------------------------------------
 .byte   W96
@  #11 @048   ----------------------------------------
 .byte   W96
@  #11 @049   ----------------------------------------
 .byte   W96
@  #11 @050   ----------------------------------------
 .byte   W96
@  #11 @051   ----------------------------------------
 .byte   W96
@  #11 @052   ----------------------------------------
 .byte   W96
@  #11 @053   ----------------------------------------
 .byte   W96
@  #11 @054   ----------------------------------------
 .byte   W96
@  #11 @055   ----------------------------------------
 .byte   W96
@  #11 @056   ----------------------------------------
 .byte   W96
@  #11 @057   ----------------------------------------
 .byte   W96
@  #11 @058   ----------------------------------------
 .byte   W96
@  #11 @059   ----------------------------------------
 .byte   TIE ,An1
 .byte   W96
@  #11 @060   ----------------------------------------
 .byte   W68
 .byte   W03
 .byte   EOT
 .byte   W24
 .byte   W01
@  #11 @061   ----------------------------------------
 .byte   TIE
 .byte   W96
@  #11 @062   ----------------------------------------
 .byte   W68
 .byte   W03
 .byte   EOT
 .byte   W24
 .byte   W01
@  #11 @063   ----------------------------------------
 .byte   TIE
 .byte   W96
@  #11 @064   ----------------------------------------
 .byte   W68
 .byte   W03
 .byte   EOT
 .byte   W24
 .byte   W01
@  #11 @065   ----------------------------------------
 .byte   TIE
 .byte   W96
@  #11 @066   ----------------------------------------
 .byte   W92
 .byte   W03
 .byte   EOT
 .byte   W01
@  #11 @067   ----------------------------------------
Label_010263D2:
 .byte   N05 ,Fn1 ,v116
 .byte   W12
 .byte   Fn1 ,v059
 .byte   W12
 .byte   Fn1
 .byte   W12
 .byte   Fn1 ,v116
 .byte   W12
 .byte   Fn1 ,v059
 .byte   W12
 .byte   Fn1
 .byte   W12
 .byte   Fn1 ,v116
 .byte   W12
 .byte   Fn1 ,v059
 .byte   W12
 .byte   PEND 
@  #11 @068   ----------------------------------------
Label_010263EA:
 .byte   N05 ,Gn1 ,v116
 .byte   W12
 .byte   Gn1 ,v059
 .byte   W12
 .byte   Gn1
 .byte   W12
 .byte   Gn1 ,v116
 .byte   W12
 .byte   Gn1 ,v059
 .byte   W12
 .byte   Gn1
 .byte   W12
 .byte   Gn1 ,v116
 .byte   W12
 .byte   Gn1 ,v059
 .byte   W12
 .byte   PEND 
@  #11 @069   ----------------------------------------
 .byte   Dn1 ,v116
 .byte   W12
 .byte   Dn1 ,v059
 .byte   W12
 .byte   Dn1
 .byte   W12
 .byte   Dn1 ,v116
 .byte   W12
 .byte   Dn1 ,v059
 .byte   W12
 .byte   Dn1
 .byte   W12
 .byte   Dn1 ,v116
 .byte   W12
 .byte   Dn1 ,v059
 .byte   W12
@  #11 @070   ----------------------------------------
 .byte   En1 ,v116
 .byte   W12
 .byte   En1 ,v059
 .byte   W12
 .byte   En1
 .byte   W12
 .byte   En1 ,v116
 .byte   W12
 .byte   En1 ,v059
 .byte   W12
 .byte   En1
 .byte   W12
 .byte   En1 ,v116
 .byte   W12
 .byte   En1 ,v059
 .byte   W12
@  #11 @071   ----------------------------------------
 .byte   PATT
  .word Label_010263D2
@  #11 @072   ----------------------------------------
 .byte   PATT
  .word Label_010263EA
@  #11 @073   ----------------------------------------
 .byte   N05 ,An1 ,v116
 .byte   W12
 .byte   An1 ,v059
 .byte   W12
 .byte   An1
 .byte   W12
 .byte   An1 ,v116
 .byte   W12
 .byte   An1 ,v059
 .byte   W12
 .byte   An1
 .byte   W12
 .byte   An1 ,v116
 .byte   W12
 .byte   An1 ,v059
 .byte   W12
@  #11 @074   ----------------------------------------
 .byte   PATT
  .word Label_010263EA
@  #11 @075   ----------------------------------------
 .byte   PATT
  .word Label_010263D2
@  #11 @076   ----------------------------------------
 .byte   N05 ,Fn1 ,v116
 .byte   W12
 .byte   Fn1 ,v059
 .byte   W12
 .byte   Fn1
 .byte   W12
 .byte   En1 ,v116
 .byte   W12
 .byte   En1 ,v059
 .byte   W12
 .byte   En1
 .byte   W12
 .byte   En1 ,v116
 .byte   W12
 .byte   En1 ,v059
 .byte   W12
@  #11 @077   ----------------------------------------
 .byte   N44 ,An1 ,v059 ,gtp3
 .byte   W48
 .byte   Gs1
 .byte   W48
@  #11 @078   ----------------------------------------
 .byte   Gn1
 .byte   W48
 .byte   Fs1
 .byte   W48
@  #11 @079   ----------------------------------------
 .byte   TIE ,Fn1
 .byte   W96
@  #11 @080   ----------------------------------------
 .byte   W80
 .byte   W03
 .byte   EOT
 .byte   W13
@  #11 @081   ----------------------------------------
 .byte   TIE ,An1
 .byte   W96
@  #11 @082   ----------------------------------------
 .byte   W23
 .byte   EOT
 .byte   W72
 .byte   W01
@  #11 @083   ----------------------------------------
 .byte   GOTO
  .word Label_0102635A
 .byte   FINE

@**************** Track 12 (Midi-Chn.11) ****************@

song02_012:
@  #12 @000   ----------------------------------------
 .byte   KEYSH , song02_key+0
Label_01026492:
 .byte   VOICE , 94
 .byte   VOL , 49*song02_mvl/mxv
 .byte   BENDR, 12
 .byte   W96
@  #12 @001   ----------------------------------------
 .byte   W96
@  #12 @002   ----------------------------------------
 .byte   W96
@  #12 @003   ----------------------------------------
 .byte   W96
@  #12 @004   ----------------------------------------
 .byte   W96
@  #12 @005   ----------------------------------------
 .byte   W96
@  #12 @006   ----------------------------------------
 .byte   W96
@  #12 @007   ----------------------------------------
 .byte   W96
@  #12 @008   ----------------------------------------
 .byte   W96
@  #12 @009   ----------------------------------------
 .byte   W96
@  #12 @010   ----------------------------------------
 .byte   W96
@  #12 @011   ----------------------------------------
 .byte   W96
@  #12 @012   ----------------------------------------
 .byte   W96
@  #12 @013   ----------------------------------------
 .byte   W96
@  #12 @014   ----------------------------------------
 .byte   W96
@  #12 @015   ----------------------------------------
 .byte   W96
@  #12 @016   ----------------------------------------
 .byte   W96
@  #12 @017   ----------------------------------------
 .byte   W96
@  #12 @018   ----------------------------------------
 .byte   W96
@  #12 @019   ----------------------------------------
 .byte   W96
@  #12 @020   ----------------------------------------
 .byte   W96
@  #12 @021   ----------------------------------------
 .byte   W96
@  #12 @022   ----------------------------------------
 .byte   W96
@  #12 @023   ----------------------------------------
 .byte   W96
@  #12 @024   ----------------------------------------
 .byte   W96
@  #12 @025   ----------------------------------------
 .byte   W96
@  #12 @026   ----------------------------------------
 .byte   W96
@  #12 @027   ----------------------------------------
 .byte   W96
@  #12 @028   ----------------------------------------
 .byte   W96
@  #12 @029   ----------------------------------------
 .byte   W96
@  #12 @030   ----------------------------------------
 .byte   W96
@  #12 @031   ----------------------------------------
 .byte   W96
@  #12 @032   ----------------------------------------
 .byte   W96
@  #12 @033   ----------------------------------------
 .byte   W96
@  #12 @034   ----------------------------------------
 .byte   W96
@  #12 @035   ----------------------------------------
 .byte   W96
@  #12 @036   ----------------------------------------
 .byte   TIE ,Fn2 ,v080
 .byte   W96
@  #12 @037   ----------------------------------------
 .byte   W92
 .byte   W03
 .byte   EOT
 .byte   W01
@  #12 @038   ----------------------------------------
 .byte   TIE ,An2
 .byte   W96
@  #12 @039   ----------------------------------------
 .byte   W92
 .byte   W03
 .byte   EOT
 .byte   W01
@  #12 @040   ----------------------------------------
 .byte   TIE ,Fn2
 .byte   W96
@  #12 @041   ----------------------------------------
 .byte   W92
 .byte   W03
 .byte   EOT
 .byte   W01
@  #12 @042   ----------------------------------------
 .byte   TIE ,An2
 .byte   W96
@  #12 @043   ----------------------------------------
 .byte   W92
 .byte   W03
 .byte   EOT
 .byte   W01
@  #12 @044   ----------------------------------------
 .byte   TIE ,As2
 .byte   W96
@  #12 @045   ----------------------------------------
 .byte   W92
 .byte   W03
 .byte   EOT
 .byte   W01
@  #12 @046   ----------------------------------------
 .byte   N92 ,An2 ,v080 ,gtp3
 .byte   W96
@  #12 @047   ----------------------------------------
 .byte   Gn2
 .byte   W96
@  #12 @048   ----------------------------------------
 .byte   Fn2
 .byte   W96
@  #12 @049   ----------------------------------------
 .byte   Fn2
 .byte   W96
@  #12 @050   ----------------------------------------
 .byte   N44 ,Fn2 ,v080 ,gtp3
 .byte   W48
 .byte   Gn2 ,v059
 .byte   W48
@  #12 @051   ----------------------------------------
 .byte   TIE ,An2 ,v041
 .byte   W96
@  #12 @052   ----------------------------------------
 .byte   W92
 .byte   W03
 .byte   EOT
 .byte   W01
@  #12 @053   ----------------------------------------
 .byte   W96
@  #12 @054   ----------------------------------------
 .byte   W96
@  #12 @055   ----------------------------------------
 .byte   W96
@  #12 @056   ----------------------------------------
 .byte   W96
@  #12 @057   ----------------------------------------
 .byte   W96
@  #12 @058   ----------------------------------------
 .byte   W96
@  #12 @059   ----------------------------------------
 .byte   TIE ,An1
 .byte   W96
@  #12 @060   ----------------------------------------
 .byte   W68
 .byte   W03
 .byte   EOT
 .byte   W24
 .byte   W01
@  #12 @061   ----------------------------------------
 .byte   TIE
 .byte   W96
@  #12 @062   ----------------------------------------
 .byte   W68
 .byte   W03
 .byte   EOT
 .byte   W24
 .byte   W01
@  #12 @063   ----------------------------------------
 .byte   TIE
 .byte   W96
@  #12 @064   ----------------------------------------
 .byte   W68
 .byte   W03
 .byte   EOT
 .byte   W24
 .byte   W01
@  #12 @065   ----------------------------------------
 .byte   TIE
 .byte   W96
@  #12 @066   ----------------------------------------
 .byte   W92
 .byte   W03
 .byte   EOT
 .byte   W01
@  #12 @067   ----------------------------------------
 .byte   N92 ,Fn1 ,v041 ,gtp3
 .byte   W96
@  #12 @068   ----------------------------------------
 .byte   Gn1
 .byte   W96
@  #12 @069   ----------------------------------------
 .byte   Dn1
 .byte   W96
@  #12 @070   ----------------------------------------
 .byte   En1
 .byte   W96
@  #12 @071   ----------------------------------------
 .byte   Fn1
 .byte   W96
@  #12 @072   ----------------------------------------
 .byte   Gn1
 .byte   W96
@  #12 @073   ----------------------------------------
 .byte   An1
 .byte   W96
@  #12 @074   ----------------------------------------
 .byte   Gn1
 .byte   W96
@  #12 @075   ----------------------------------------
 .byte   Fn1
 .byte   W96
@  #12 @076   ----------------------------------------
 .byte   En1
 .byte   W96
@  #12 @077   ----------------------------------------
 .byte   N44 ,An1 ,v041 ,gtp3
 .byte   W48
 .byte   Gs1
 .byte   W48
@  #12 @078   ----------------------------------------
 .byte   Gn1
 .byte   W48
 .byte   Fs1 ,v069
 .byte   W48
@  #12 @079   ----------------------------------------
 .byte   N80 ,Fn1 ,v103 ,gtp3
 .byte   W84
 .byte   N11 ,Cn1
 .byte   W12
@  #12 @080   ----------------------------------------
 .byte   N44 ,Fn1 ,v103 ,gtp3
 .byte   W96
@  #12 @081   ----------------------------------------
 .byte   TIE ,An1
 .byte   W96
@  #12 @082   ----------------------------------------
 .byte   W23
 .byte   EOT
 .byte   W72
 .byte   W01
@  #12 @083   ----------------------------------------
 .byte   GOTO
  .word Label_01026492
 .byte   FINE

@**************** Track 13 (Midi-Chn.12) ****************@

song02_013:
@  #13 @000   ----------------------------------------
 .byte   KEYSH , song02_key+0
Label_0102655E:
 .byte   VOICE , 56
 .byte   VOL , 33*song02_mvl/mxv
 .byte   BENDR, 12
 .byte   PAN , c_v+45
 .byte   W96
@  #13 @001   ----------------------------------------
 .byte   W96
@  #13 @002   ----------------------------------------
 .byte   W96
@  #13 @003   ----------------------------------------
 .byte   W96
@  #13 @004   ----------------------------------------
 .byte   W96
@  #13 @005   ----------------------------------------
 .byte   W96
@  #13 @006   ----------------------------------------
 .byte   W96
@  #13 @007   ----------------------------------------
 .byte   W96
@  #13 @008   ----------------------------------------
 .byte   W96
@  #13 @009   ----------------------------------------
 .byte   W96
@  #13 @010   ----------------------------------------
 .byte   W96
@  #13 @011   ----------------------------------------
 .byte   W96
@  #13 @012   ----------------------------------------
 .byte   W96
@  #13 @013   ----------------------------------------
 .byte   W96
@  #13 @014   ----------------------------------------
 .byte   W96
@  #13 @015   ----------------------------------------
 .byte   W96
@  #13 @016   ----------------------------------------
 .byte   W96
@  #13 @017   ----------------------------------------
 .byte   W96
@  #13 @018   ----------------------------------------
 .byte   W96
@  #13 @019   ----------------------------------------
 .byte   W96
@  #13 @020   ----------------------------------------
 .byte   W96
@  #13 @021   ----------------------------------------
 .byte   W96
@  #13 @022   ----------------------------------------
 .byte   W96
@  #13 @023   ----------------------------------------
 .byte   W96
@  #13 @024   ----------------------------------------
 .byte   W96
@  #13 @025   ----------------------------------------
 .byte   W96
@  #13 @026   ----------------------------------------
 .byte   W96
@  #13 @027   ----------------------------------------
 .byte   W96
@  #13 @028   ----------------------------------------
 .byte   W96
@  #13 @029   ----------------------------------------
 .byte   W96
@  #13 @030   ----------------------------------------
 .byte   W96
@  #13 @031   ----------------------------------------
 .byte   W96
@  #13 @032   ----------------------------------------
 .byte   W96
@  #13 @033   ----------------------------------------
 .byte   W96
@  #13 @034   ----------------------------------------
 .byte   W96
@  #13 @035   ----------------------------------------
 .byte   W96
@  #13 @036   ----------------------------------------
 .byte   W96
@  #13 @037   ----------------------------------------
 .byte   W96
@  #13 @038   ----------------------------------------
 .byte   W96
@  #13 @039   ----------------------------------------
 .byte   W96
@  #13 @040   ----------------------------------------
 .byte   W96
@  #13 @041   ----------------------------------------
 .byte   W96
@  #13 @042   ----------------------------------------
 .byte   W96
@  #13 @043   ----------------------------------------
 .byte   W96
@  #13 @044   ----------------------------------------
Label_01026592:
 .byte   W24
 .byte   N23 ,Fn2 ,v041
 .byte   W24
 .byte   N44 ,As2 ,v041 ,gtp3
 .byte   W48
 .byte   PEND 
@  #13 @045   ----------------------------------------
 .byte   PATT
  .word Label_01026592
@  #13 @046   ----------------------------------------
Label_010265A2:
 .byte   W24
 .byte   N23 ,Bn2 ,v041
 .byte   W24
 .byte   N44 ,En3 ,v041 ,gtp3
 .byte   W48
 .byte   PEND 
@  #13 @047   ----------------------------------------
 .byte   PATT
  .word Label_010265A2
@  #13 @048   ----------------------------------------
Label_010265B2:
 .byte   W24
 .byte   N23 ,Cn2 ,v041
 .byte   W24
 .byte   N44 ,Fn2 ,v041 ,gtp3
 .byte   W48
 .byte   PEND 
@  #13 @049   ----------------------------------------
 .byte   PATT
  .word Label_010265B2
@  #13 @050   ----------------------------------------
 .byte   W96
@  #13 @051   ----------------------------------------
 .byte   W96
@  #13 @052   ----------------------------------------
 .byte   W96
@  #13 @053   ----------------------------------------
 .byte   W96
@  #13 @054   ----------------------------------------
 .byte   W96
@  #13 @055   ----------------------------------------
 .byte   W96
@  #13 @056   ----------------------------------------
 .byte   W96
@  #13 @057   ----------------------------------------
 .byte   W96
@  #13 @058   ----------------------------------------
 .byte   W96
@  #13 @059   ----------------------------------------
Label_010265CB:
 .byte   W36
 .byte   N02 ,Bn3 ,v041
 .byte   W06
 .byte   Bn3
 .byte   W06
 .byte   N05
 .byte   W12
 .byte   Bn3
 .byte   W24
 .byte   N02
 .byte   W06
 .byte   Bn3
 .byte   W06
 .byte   PEND 
@  #13 @060   ----------------------------------------
Label_010265DB:
 .byte   N05 ,Bn3 ,v041
 .byte   W12
 .byte   Bn3
 .byte   W24
 .byte   N02
 .byte   W06
 .byte   Bn3
 .byte   W06
 .byte   N05
 .byte   W12
 .byte   Cn4
 .byte   W36
 .byte   PEND 
@  #13 @061   ----------------------------------------
 .byte   PATT
  .word Label_010265CB
@  #13 @062   ----------------------------------------
 .byte   PATT
  .word Label_010265DB
@  #13 @063   ----------------------------------------
 .byte   PATT
  .word Label_010265CB
@  #13 @064   ----------------------------------------
 .byte   PATT
  .word Label_010265DB
@  #13 @065   ----------------------------------------
 .byte   PATT
  .word Label_010265CB
@  #13 @066   ----------------------------------------
 .byte   N23 ,Gn3 ,v041
 .byte   W24
 .byte   An3
 .byte   W24
 .byte   Gn3
 .byte   W24
 .byte   An3
 .byte   W24
@  #13 @067   ----------------------------------------
 .byte   TIE
 .byte   W96
@  #13 @068   ----------------------------------------
 .byte   W23
 .byte   EOT
 .byte   W01
 .byte   N23 ,En4
 .byte   W24
 .byte   N32 ,Dn4 ,v041 ,gtp3
 .byte   W36
 .byte   N11 ,Cn4
 .byte   W12
@  #13 @069   ----------------------------------------
 .byte   N44 ,Bn3 ,v041 ,gtp3
 .byte   W48
 .byte   An3
 .byte   W48
@  #13 @070   ----------------------------------------
 .byte   Bn3
 .byte   W48
 .byte   N32 ,Gn3 ,v041 ,gtp3
 .byte   W36
 .byte   N11 ,En3
 .byte   W12
@  #13 @071   ----------------------------------------
 .byte   TIE ,An3
 .byte   W96
@  #13 @072   ----------------------------------------
 .byte   W23
 .byte   EOT
 .byte   W01
 .byte   N23 ,En4
 .byte   W24
 .byte   N32 ,Dn4 ,v041 ,gtp3
 .byte   W36
 .byte   N11 ,Gn4
 .byte   W12
@  #13 @073   ----------------------------------------
 .byte   TIE ,En4
 .byte   W96
@  #13 @074   ----------------------------------------
 .byte   W23
 .byte   EOT
 .byte   W01
 .byte   N23 ,An4
 .byte   W24
 .byte   Gn4
 .byte   W24
 .byte   En4
 .byte   W24
@  #13 @075   ----------------------------------------
 .byte   N44 ,Cn4 ,v041 ,gtp3
 .byte   W48
 .byte   Dn4
 .byte   W48
@  #13 @076   ----------------------------------------
 .byte   N68 ,En4 ,v041 ,gtp3
 .byte   W72
 .byte   N23
 .byte   W24
@  #13 @077   ----------------------------------------
 .byte   N44 ,En4 ,v041 ,gtp3
 .byte   W48
 .byte   Fn4
 .byte   W48
@  #13 @078   ----------------------------------------
 .byte   Gn4
 .byte   W48
 .byte   An4
 .byte   W48
@  #13 @079   ----------------------------------------
 .byte   N96 ,Cn5 ,v059
 .byte   W24
 .byte   N23 ,Fn4
 .byte   N23 ,Fn3
 .byte   W24
 .byte   N02 ,Fn4
 .byte   N02 ,Fn3
 .byte   W06
 .byte   Gn4
 .byte   N02 ,Gn3
 .byte   W06
 .byte   N23 ,An4
 .byte   N23 ,An3
 .byte   W24
 .byte   N02
 .byte   N02 ,An4
 .byte   W06
 .byte   Bn4
 .byte   N02 ,Bn3
 .byte   W06
@  #13 @080   ----------------------------------------
 .byte   N44 ,Cn4 ,v059 ,gtp3
 .byte   N80 ,Cn5 ,v059 ,gtp3
 .byte   W48
 .byte   N32 ,Dn5 ,v059 ,gtp3
 .byte   Dn4
 .byte   W48
@  #13 @081   ----------------------------------------
 .byte   TIE ,An3
 .byte   TIE ,An4
 .byte   W96
@  #13 @082   ----------------------------------------
 .byte   W23
 .byte   EOT
 .byte   An3 ,v081
 .byte   W72
 .byte   W01
@  #13 @083   ----------------------------------------
 .byte   GOTO
  .word Label_0102655E
 .byte   FINE

@**************** Track 14 (Midi-Chn.13) ****************@

song02_014:
@  #14 @000   ----------------------------------------
 .byte   KEYSH , song02_key+0
Label_010266A6:
 .byte   VOICE , 60
 .byte   VOL , 35*song02_mvl/mxv
 .byte   BENDR, 12
 .byte   PAN , c_v-53
 .byte   W96
@  #14 @001   ----------------------------------------
 .byte   W96
@  #14 @002   ----------------------------------------
 .byte   W96
@  #14 @003   ----------------------------------------
 .byte   W96
@  #14 @004   ----------------------------------------
 .byte   W96
@  #14 @005   ----------------------------------------
 .byte   W96
@  #14 @006   ----------------------------------------
 .byte   W96
@  #14 @007   ----------------------------------------
 .byte   W96
@  #14 @008   ----------------------------------------
 .byte   W96
@  #14 @009   ----------------------------------------
 .byte   W96
@  #14 @010   ----------------------------------------
 .byte   W96
@  #14 @011   ----------------------------------------
 .byte   W96
@  #14 @012   ----------------------------------------
 .byte   W96
@  #14 @013   ----------------------------------------
 .byte   W96
@  #14 @014   ----------------------------------------
 .byte   W96
@  #14 @015   ----------------------------------------
 .byte   W96
@  #14 @016   ----------------------------------------
 .byte   W96
@  #14 @017   ----------------------------------------
 .byte   W96
@  #14 @018   ----------------------------------------
 .byte   W96
@  #14 @019   ----------------------------------------
 .byte   W96
@  #14 @020   ----------------------------------------
 .byte   W96
@  #14 @021   ----------------------------------------
 .byte   W96
@  #14 @022   ----------------------------------------
 .byte   W96
@  #14 @023   ----------------------------------------
 .byte   W96
@  #14 @024   ----------------------------------------
 .byte   W96
@  #14 @025   ----------------------------------------
 .byte   W96
@  #14 @026   ----------------------------------------
 .byte   W96
@  #14 @027   ----------------------------------------
 .byte   W96
@  #14 @028   ----------------------------------------
 .byte   W96
@  #14 @029   ----------------------------------------
 .byte   W96
@  #14 @030   ----------------------------------------
 .byte   W96
@  #14 @031   ----------------------------------------
 .byte   W96
@  #14 @032   ----------------------------------------
 .byte   W96
@  #14 @033   ----------------------------------------
 .byte   W96
@  #14 @034   ----------------------------------------
 .byte   W96
@  #14 @035   ----------------------------------------
 .byte   W96
@  #14 @036   ----------------------------------------
 .byte   W96
@  #14 @037   ----------------------------------------
 .byte   W96
@  #14 @038   ----------------------------------------
 .byte   W96
@  #14 @039   ----------------------------------------
 .byte   W96
@  #14 @040   ----------------------------------------
 .byte   W96
@  #14 @041   ----------------------------------------
 .byte   W96
@  #14 @042   ----------------------------------------
 .byte   W96
@  #14 @043   ----------------------------------------
 .byte   W96
@  #14 @044   ----------------------------------------
 .byte   PATT
  .word Label_01026592
@  #14 @045   ----------------------------------------
 .byte   W24
 .byte   N23 ,Dn2 ,v041
 .byte   W24
 .byte   N44 ,As2 ,v041 ,gtp3
 .byte   W48
@  #14 @046   ----------------------------------------
Label_010266E9:
 .byte   W24
 .byte   N23 ,En2 ,v041
 .byte   W24
 .byte   N44 ,Gn2 ,v041 ,gtp3
 .byte   W48
 .byte   PEND 
@  #14 @047   ----------------------------------------
 .byte   PATT
  .word Label_010266E9
@  #14 @048   ----------------------------------------
 .byte   PATT
  .word Label_010265B2
@  #14 @049   ----------------------------------------
 .byte   PATT
  .word Label_010265B2
@  #14 @050   ----------------------------------------
 .byte   N44 ,An2 ,v041 ,gtp3
 .byte   W48
 .byte   Cn3
 .byte   W48
@  #14 @051   ----------------------------------------
 .byte   TIE ,En3 ,v026
 .byte   W96
@  #14 @052   ----------------------------------------
 .byte   W92
 .byte   W03
 .byte   EOT
 .byte   W01
@  #14 @053   ----------------------------------------
 .byte   W96
@  #14 @054   ----------------------------------------
 .byte   W96
@  #14 @055   ----------------------------------------
 .byte   W96
@  #14 @056   ----------------------------------------
 .byte   W96
@  #14 @057   ----------------------------------------
 .byte   W96
@  #14 @058   ----------------------------------------
 .byte   W96
@  #14 @059   ----------------------------------------
Label_01026718:
 .byte   W36
 .byte   N02 ,En3 ,v041
 .byte   W06
 .byte   En3
 .byte   W06
 .byte   N05
 .byte   W12
 .byte   En3
 .byte   W24
 .byte   N02
 .byte   W06
 .byte   En3
 .byte   W06
 .byte   PEND 
@  #14 @060   ----------------------------------------
Label_01026728:
 .byte   N05 ,En3 ,v041
 .byte   W12
 .byte   En3
 .byte   W24
 .byte   N02
 .byte   W06
 .byte   En3
 .byte   W06
 .byte   N05
 .byte   W12
 .byte   Fn3
 .byte   W36
 .byte   PEND 
@  #14 @061   ----------------------------------------
 .byte   PATT
  .word Label_01026718
@  #14 @062   ----------------------------------------
 .byte   PATT
  .word Label_01026728
@  #14 @063   ----------------------------------------
 .byte   PATT
  .word Label_01026718
@  #14 @064   ----------------------------------------
 .byte   PATT
  .word Label_01026728
@  #14 @065   ----------------------------------------
 .byte   PATT
  .word Label_01026718
@  #14 @066   ----------------------------------------
 .byte   N23 ,Gn3 ,v059
 .byte   W24
 .byte   Fn3
 .byte   W24
 .byte   En3
 .byte   W24
 .byte   Cn3
 .byte   W24
@  #14 @067   ----------------------------------------
Label_0102675A:
 .byte   N05 ,Fn2 ,v116
 .byte   W12
 .byte   Fn2 ,v059
 .byte   W12
 .byte   Fn2
 .byte   W12
 .byte   Fn2 ,v116
 .byte   W12
 .byte   Fn2 ,v059
 .byte   W12
 .byte   Fn2
 .byte   W12
 .byte   Fn2 ,v116
 .byte   W12
 .byte   Fn2 ,v059
 .byte   W12
 .byte   PEND 
@  #14 @068   ----------------------------------------
 .byte   PATT
  .word Label_01026147
@  #14 @069   ----------------------------------------
 .byte   N05 ,Dn2 ,v116
 .byte   W12
 .byte   Dn2 ,v059
 .byte   W12
 .byte   Dn2
 .byte   W12
 .byte   Dn2 ,v116
 .byte   W12
 .byte   Dn2 ,v059
 .byte   W12
 .byte   Dn2
 .byte   W12
 .byte   Dn2 ,v116
 .byte   W12
 .byte   Dn2 ,v059
 .byte   W12
@  #14 @070   ----------------------------------------
 .byte   En2 ,v116
 .byte   W12
 .byte   En2 ,v059
 .byte   W12
 .byte   En2
 .byte   W12
 .byte   En2 ,v116
 .byte   W12
 .byte   En2 ,v059
 .byte   W12
 .byte   En2
 .byte   W12
 .byte   En2 ,v116
 .byte   W12
 .byte   En2 ,v059
 .byte   W12
@  #14 @071   ----------------------------------------
 .byte   PATT
  .word Label_0102675A
@  #14 @072   ----------------------------------------
 .byte   PATT
  .word Label_01026147
@  #14 @073   ----------------------------------------
 .byte   PATT
  .word Label_01026112
@  #14 @074   ----------------------------------------
 .byte   PATT
  .word Label_01026147
@  #14 @075   ----------------------------------------
 .byte   PATT
  .word Label_0102675A
@  #14 @076   ----------------------------------------
 .byte   N05 ,Fn2 ,v116
 .byte   W12
 .byte   Fn2 ,v059
 .byte   W12
 .byte   Fn2
 .byte   W12
 .byte   En2 ,v116
 .byte   W12
 .byte   En2 ,v059
 .byte   W12
 .byte   En2
 .byte   W12
 .byte   En2 ,v116
 .byte   W12
 .byte   En2 ,v059
 .byte   W12
@  #14 @077   ----------------------------------------
 .byte   N44 ,An2 ,v059 ,gtp3
 .byte   W48
 .byte   Gs2
 .byte   W48
@  #14 @078   ----------------------------------------
 .byte   Gn2
 .byte   W48
 .byte   Fs2
 .byte   W48
@  #14 @079   ----------------------------------------
 .byte   TIE ,Fn2
 .byte   W24
 .byte   N23 ,An2
 .byte   W24
 .byte   N02
 .byte   W06
 .byte   As2
 .byte   W06
 .byte   N23 ,Cn3
 .byte   W24
 .byte   N02
 .byte   W06
 .byte   En3
 .byte   W06
@  #14 @080   ----------------------------------------
 .byte   N44 ,Fn3 ,v059 ,gtp3
 .byte   W48
 .byte   N32 ,Bn3 ,v059 ,gtp3
 .byte   Gn3
 .byte   W32
 .byte   W03
 .byte   EOT
 .byte   Fn2
 .byte   W13
@  #14 @081   ----------------------------------------
 .byte   TIE ,An2
 .byte   TIE ,An3
 .byte   W96
@  #14 @082   ----------------------------------------
 .byte   W23
 .byte   EOT
 .byte   EOT
 .byte   An2
 .byte   W72
 .byte   W01
@  #14 @083   ----------------------------------------
 .byte   GOTO
  .word Label_010266A6
 .byte   FINE

@**************** Track 15 (Midi-Chn.14) ****************@

song02_015:
@  #15 @000   ----------------------------------------
 .byte   KEYSH , song02_key+0
Label_010043C6:
 .byte   VOICE , 57
 .byte   VOL , 43*song02_mvl/mxv
 .byte   BENDR, 12
 .byte   W96
@  #15 @001   ----------------------------------------
 .byte   W96
@  #15 @002   ----------------------------------------
 .byte   W96
@  #15 @003   ----------------------------------------
 .byte   W96
@  #15 @004   ----------------------------------------
 .byte   W96
@  #15 @005   ----------------------------------------
 .byte   W96
@  #15 @006   ----------------------------------------
 .byte   W96
@  #15 @007   ----------------------------------------
 .byte   W96
@  #15 @008   ----------------------------------------
 .byte   W96
@  #15 @009   ----------------------------------------
 .byte   W96
@  #15 @010   ----------------------------------------
 .byte   W96
@  #15 @011   ----------------------------------------
 .byte   W96
@  #15 @012   ----------------------------------------
 .byte   W96
@  #15 @013   ----------------------------------------
 .byte   W96
@  #15 @014   ----------------------------------------
 .byte   W96
@  #15 @015   ----------------------------------------
 .byte   W96
@  #15 @016   ----------------------------------------
 .byte   W96
@  #15 @017   ----------------------------------------
 .byte   W96
@  #15 @018   ----------------------------------------
 .byte   W96
@  #15 @019   ----------------------------------------
 .byte   W96
@  #15 @020   ----------------------------------------
 .byte   W96
@  #15 @021   ----------------------------------------
 .byte   W96
@  #15 @022   ----------------------------------------
 .byte   W96
@  #15 @023   ----------------------------------------
 .byte   W96
@  #15 @024   ----------------------------------------
 .byte   W96
@  #15 @025   ----------------------------------------
 .byte   W96
@  #15 @026   ----------------------------------------
 .byte   W96
@  #15 @027   ----------------------------------------
 .byte   W96
@  #15 @028   ----------------------------------------
 .byte   W96
@  #15 @029   ----------------------------------------
 .byte   W96
@  #15 @030   ----------------------------------------
 .byte   W96
@  #15 @031   ----------------------------------------
 .byte   W96
@  #15 @032   ----------------------------------------
 .byte   W96
@  #15 @033   ----------------------------------------
 .byte   W96
@  #15 @034   ----------------------------------------
 .byte   W96
@  #15 @035   ----------------------------------------
 .byte   W96
@  #15 @036   ----------------------------------------
 .byte   W96
@  #15 @037   ----------------------------------------
 .byte   W96
@  #15 @038   ----------------------------------------
 .byte   W96
@  #15 @039   ----------------------------------------
 .byte   W96
@  #15 @040   ----------------------------------------
 .byte   W96
@  #15 @041   ----------------------------------------
 .byte   W96
@  #15 @042   ----------------------------------------
 .byte   W96
@  #15 @043   ----------------------------------------
 .byte   W96
@  #15 @044   ----------------------------------------
 .byte   TIE ,As1 ,v026
 .byte   W96
@  #15 @045   ----------------------------------------
 .byte   W92
 .byte   W03
 .byte   EOT
 .byte   W01
@  #15 @046   ----------------------------------------
 .byte   N92 ,An1 ,v026 ,gtp3
 .byte   W96
@  #15 @047   ----------------------------------------
 .byte   Gn1
 .byte   W96
@  #15 @048   ----------------------------------------
 .byte   Fn1
 .byte   W96
@  #15 @049   ----------------------------------------
 .byte   Fn1
 .byte   W96
@  #15 @050   ----------------------------------------
 .byte   W96
@  #15 @051   ----------------------------------------
 .byte   W96
@  #15 @052   ----------------------------------------
 .byte   W96
@  #15 @053   ----------------------------------------
 .byte   W96
@  #15 @054   ----------------------------------------
 .byte   W96
@  #15 @055   ----------------------------------------
 .byte   W96
@  #15 @056   ----------------------------------------
 .byte   W96
@  #15 @057   ----------------------------------------
 .byte   W96
@  #15 @058   ----------------------------------------
 .byte   W96
@  #15 @059   ----------------------------------------
 .byte   TIE ,An1 ,v041
 .byte   W96
@  #15 @060   ----------------------------------------
 .byte   W68
 .byte   W03
 .byte   EOT
 .byte   W24
 .byte   W01
@  #15 @061   ----------------------------------------
 .byte   TIE
 .byte   W96
@  #15 @062   ----------------------------------------
 .byte   W68
 .byte   W03
 .byte   EOT
 .byte   W24
 .byte   W01
@  #15 @063   ----------------------------------------
 .byte   TIE
 .byte   W96
@  #15 @064   ----------------------------------------
 .byte   W68
 .byte   W03
 .byte   EOT
 .byte   W24
 .byte   W01
@  #15 @065   ----------------------------------------
 .byte   TIE
 .byte   W96
@  #15 @066   ----------------------------------------
 .byte   W68
 .byte   W03
 .byte   EOT
 .byte   W24
 .byte   W01
@  #15 @067   ----------------------------------------
 .byte   W96
@  #15 @068   ----------------------------------------
 .byte   W96
@  #15 @069   ----------------------------------------
 .byte   W96
@  #15 @070   ----------------------------------------
 .byte   W96
@  #15 @071   ----------------------------------------
 .byte   W96
@  #15 @072   ----------------------------------------
 .byte   W96
@  #15 @073   ----------------------------------------
 .byte   W96
@  #15 @074   ----------------------------------------
 .byte   W96
@  #15 @075   ----------------------------------------
 .byte   W96
@  #15 @076   ----------------------------------------
 .byte   W96
@  #15 @077   ----------------------------------------
 .byte   W96
@  #15 @078   ----------------------------------------
 .byte   W96
@  #15 @079   ----------------------------------------
 .byte   TIE ,Fn1
 .byte   W96
@  #15 @080   ----------------------------------------
 .byte   W80
 .byte   W03
 .byte   EOT
 .byte   W13
@  #15 @081   ----------------------------------------
 .byte   TIE ,An1
 .byte   W96
@  #15 @082   ----------------------------------------
 .byte   W23
 .byte   EOT
 .byte   W72
 .byte   W01
@  #15 @083   ----------------------------------------
 .byte   GOTO
  .word Label_010043C6
 .byte   FINE

@******************************************************@
	.align	2

song02:
	.byte	15	@ NumTrks
	.byte	0	@ NumBlks
	.byte	song02_pri	@ Priority
	.byte	song02_rev	@ Reverb.
    
	.word	song02_grp
    
	.word	song02_001
	.word	song02_002
	.word	song02_003
	.word	song02_004
	.word	song02_005
	.word	song02_006
	.word	song02_007
	.word	song02_008
	.word	song02_009
	.word	song02_010
	.word	song02_011
	.word	song02_012
	.word	song02_013
	.word	song02_014
	.word	song02_015

	.end
