	.include "MPlayDef.s"

	.equ	song06_grp, voicegroup000
	.equ	song06_pri, 0
	.equ	song06_rev, 0
	.equ	song06_mvl, 127
	.equ	song06_key, 0
	.equ	song06_tbs, 1
	.equ	song06_exg, 0
	.equ	song06_cmp, 1

	.section .rodata
	.global	song06
	.align	2


@**************** Track 1 (Midi-Chn.0) ****************@

song06_001:
@  #01 @000   ----------------------------------------
 .byte   KEYSH , song06_key+0
 .byte   TEMPO , 78*song06_tbs/2
 .byte   VOICE , 1
 .byte   VOL , 47*song06_mvl/mxv
 .byte   PAN , c_v+0
 .byte   N05 ,Gs3 ,v064
 .byte   N05 ,Bn3
 .byte   N05 ,Ds4
 .byte   W24
 .byte   Gs3
 .byte   N05 ,Bn3
 .byte   N05 ,Ds4
 .byte   W24
 .byte   Gs3
 .byte   N05 ,As3
 .byte   N05 ,Ds4
 .byte   W24
 .byte   Gs3
 .byte   N05 ,As3
 .byte   N05 ,Ds4
 .byte   W24
@  #01 @001   ----------------------------------------
Label_010288A4:
 .byte   N05 ,Gs3 ,v064
 .byte   N05 ,Bn3
 .byte   N05 ,Ds4
 .byte   W24
 .byte   Gs3
 .byte   N05 ,As3
 .byte   N05 ,Ds4
 .byte   W72
 .byte   PEND 
@  #01 @002   ----------------------------------------
Label_010288B3:
 .byte   N05 ,Gs3 ,v064
 .byte   N05 ,Bn3
 .byte   N05 ,Ds4
 .byte   W24
 .byte   Gs3
 .byte   N05 ,Bn3
 .byte   N05 ,Ds4
 .byte   W24
 .byte   Gn3
 .byte   N05 ,As3
 .byte   N05 ,Ds4
 .byte   W24
 .byte   Gn3
 .byte   N05 ,As3
 .byte   N05 ,Ds4
 .byte   W24
 .byte   PEND 
@  #01 @003   ----------------------------------------
Label_010288CE:
 .byte   N05 ,Gs3 ,v064
 .byte   N05 ,Bn3
 .byte   N05 ,Ds4
 .byte   W24
 .byte   Gn3
 .byte   N05 ,As3
 .byte   N05 ,Ds4
 .byte   W72
 .byte   PEND 
@  #01 @004   ----------------------------------------
Label_010288DD:
 .byte   N05 ,Gs3 ,v052
 .byte   N05 ,Bn3
 .byte   N05 ,Ds4
 .byte   W24
 .byte   Gs3
 .byte   N05 ,Bn3
 .byte   N05 ,Ds4
 .byte   W24
 .byte   Gs3
 .byte   N05 ,Bn3
 .byte   N05 ,Ds4
 .byte   W24
 .byte   Gs3
 .byte   N05 ,Bn3
 .byte   N05 ,Ds4
 .byte   W12
 .byte   N11 ,Gs3 ,v076
 .byte   N11 ,Bn3
 .byte   N11 ,Ds4
 .byte   W12
 .byte   PEND 
@  #01 @005   ----------------------------------------
 .byte   PATT
  .word Label_010288DD
@  #01 @006   ----------------------------------------
Label_01028905:
 .byte   N05 ,Gn3 ,v052
 .byte   N05 ,As3
 .byte   N05 ,Ds4
 .byte   W24
 .byte   Gn3
 .byte   N05 ,As3
 .byte   N05 ,Ds4
 .byte   W24
 .byte   Gn3
 .byte   N05 ,As3
 .byte   N05 ,Ds4
 .byte   W24
 .byte   Gn3
 .byte   N05 ,As3
 .byte   N05 ,Ds4
 .byte   W12
 .byte   N11 ,Gn3 ,v076
 .byte   N11 ,As3
 .byte   N11 ,Ds4
 .byte   W12
 .byte   PEND 
@  #01 @007   ----------------------------------------
 .byte   PATT
  .word Label_01028905
@  #01 @008   ----------------------------------------
 .byte   PATT
  .word Label_010288DD
@  #01 @009   ----------------------------------------
 .byte   PATT
  .word Label_010288DD
@  #01 @010   ----------------------------------------
 .byte   PATT
  .word Label_01028905
@  #01 @011   ----------------------------------------
 .byte   PATT
  .word Label_01028905
@  #01 @012   ----------------------------------------
 .byte   N05 ,As3 ,v052
 .byte   N05 ,Cs4
 .byte   N05 ,Fn4
 .byte   W24
 .byte   As3
 .byte   N05 ,Cs4
 .byte   N05 ,Fn4
 .byte   W24
 .byte   As3
 .byte   N05 ,Cs4
 .byte   N05 ,Fn4
 .byte   W24
 .byte   As3
 .byte   N05 ,Cs4
 .byte   N05 ,Fn4
 .byte   W12
 .byte   N11 ,As3 ,v076
 .byte   N11 ,Cs4
 .byte   N11 ,Fn4
 .byte   W12
@  #01 @013   ----------------------------------------
 .byte   N05 ,Fs3 ,v052
 .byte   N05 ,An3
 .byte   N05 ,Cs4
 .byte   W24
 .byte   Fs3
 .byte   N05 ,An3
 .byte   N05 ,Cs4
 .byte   W24
 .byte   Fs3
 .byte   N05 ,An3
 .byte   N05 ,Cs4
 .byte   W24
 .byte   Fs3
 .byte   N05 ,An3
 .byte   N05 ,Cs4
 .byte   W12
 .byte   N11 ,Fs3 ,v076
 .byte   N11 ,An3
 .byte   N11 ,Cs4
 .byte   W12
@  #01 @014   ----------------------------------------
 .byte   N05 ,An3 ,v052
 .byte   N05 ,Dn4
 .byte   N05 ,Fn4
 .byte   W24
 .byte   An3
 .byte   N05 ,Dn4
 .byte   N05 ,Fn4
 .byte   W24
 .byte   An3
 .byte   N05 ,Dn4
 .byte   N05 ,Fn4
 .byte   W24
 .byte   An3
 .byte   N05 ,Dn4
 .byte   N05 ,Fn4
 .byte   W12
 .byte   N11 ,An3 ,v076
 .byte   N11 ,Dn4
 .byte   N11 ,Fn4
 .byte   W12
@  #01 @015   ----------------------------------------
 .byte   N05 ,Fs3 ,v052
 .byte   N05 ,Bn3
 .byte   N05 ,Ds4
 .byte   W24
 .byte   Fs3
 .byte   N05 ,Bn3
 .byte   N05 ,Ds4
 .byte   W24
 .byte   Fs3
 .byte   N05 ,Bn3
 .byte   N05 ,Ds4
 .byte   W48
@  #01 @016   ----------------------------------------
 .byte   Gs3 ,v064
 .byte   N05 ,Bn3
 .byte   N05 ,Ds4
 .byte   W24
 .byte   Gs3
 .byte   N05 ,Bn3
 .byte   N05 ,Ds4
 .byte   W24
 .byte   Gs3
 .byte   N05 ,As3
 .byte   N05 ,Ds4
 .byte   W24
 .byte   Gs3
 .byte   N05 ,As3
 .byte   N05 ,Ds4
 .byte   W24
@  #01 @017   ----------------------------------------
 .byte   PATT
  .word Label_010288A4
@  #01 @018   ----------------------------------------
 .byte   PATT
  .word Label_010288B3
@  #01 @019   ----------------------------------------
 .byte   PATT
  .word Label_010288CE
@  #01 @020   ----------------------------------------
Label_010289E3:
 .byte   N11 ,Gs3 ,v036
 .byte   N11 ,Bn3
 .byte   N11 ,En4
 .byte   W12
 .byte   Cn4
 .byte   W12
 .byte   N11
 .byte   N11 ,En4
 .byte   W12
 .byte   Gs3
 .byte   W12
 .byte   Cn4
 .byte   N11 ,En4
 .byte   W12
 .byte   Gs3
 .byte   W12
 .byte   Cn4
 .byte   N11 ,En4
 .byte   W12
 .byte   Gs3
 .byte   W12
 .byte   PEND 
@  #01 @021   ----------------------------------------
Label_01028A00:
 .byte   N11 ,Gn3 ,v036
 .byte   N11 ,Ds4
 .byte   W12
 .byte   As3
 .byte   W12
 .byte   Bn3
 .byte   N11 ,Ds4
 .byte   W12
 .byte   Gn3
 .byte   W12
 .byte   Bn3
 .byte   N11 ,Ds4
 .byte   W12
 .byte   Gn3
 .byte   W12
 .byte   Bn3
 .byte   N11 ,Ds4
 .byte   W12
 .byte   Gn3
 .byte   W12
 .byte   PEND 
@  #01 @022   ----------------------------------------
 .byte   PATT
  .word Label_010289E3
@  #01 @023   ----------------------------------------
 .byte   PATT
  .word Label_01028A00
@  #01 @024   ----------------------------------------
 .byte   N11 ,Fs3 ,v036
 .byte   N11 ,As3
 .byte   W12
 .byte   Dn3
 .byte   N11 ,Fs3
 .byte   W12
 .byte   N11
 .byte   W12
 .byte   Dn3
 .byte   W12
 .byte   Fs3
 .byte   W12
 .byte   Dn3
 .byte   W12
 .byte   Fs3
 .byte   W12
 .byte   Dn3
 .byte   W12
@  #01 @025   ----------------------------------------
 .byte   Fs3
 .byte   N11 ,As3
 .byte   W12
 .byte   Dn3
 .byte   W12
 .byte   Fs3
 .byte   N11 ,As3
 .byte   W12
 .byte   Dn3
 .byte   W12
 .byte   Fs3
 .byte   N11 ,As3
 .byte   W12
 .byte   Dn3
 .byte   W12
 .byte   Fs3
 .byte   N11 ,As3
 .byte   W12
 .byte   Dn3
 .byte   W12
@  #01 @026   ----------------------------------------
 .byte   Fs3
 .byte   N11 ,An3
 .byte   W12
 .byte   Cs3
 .byte   W12
 .byte   Fn3
 .byte   N11 ,An3
 .byte   W12
 .byte   Cs3
 .byte   W12
 .byte   Fn3
 .byte   N11 ,An3
 .byte   W12
 .byte   Cs3
 .byte   W12
 .byte   Fn3
 .byte   N11 ,An3
 .byte   W12
 .byte   Cs3
 .byte   W12
@  #01 @027   ----------------------------------------
Label_01028A6B:
 .byte   N11 ,Fn3 ,v036
 .byte   N11 ,An3
 .byte   W12
 .byte   Cs3
 .byte   W12
 .byte   Fn3
 .byte   N11 ,An3
 .byte   W12
 .byte   Cs3
 .byte   W12
 .byte   Fn3
 .byte   N11 ,An3
 .byte   W12
 .byte   Cs3
 .byte   W12
 .byte   Fn3
 .byte   N11 ,An3
 .byte   W12
 .byte   Cs3
 .byte   W12
 .byte   PEND 
@  #01 @028   ----------------------------------------
 .byte   Dn3
 .byte   N11 ,Fs3
 .byte   N11 ,An3
 .byte   W12
 .byte   Cs3
 .byte   W12
 .byte   Fs3
 .byte   N11 ,As3
 .byte   W12
 .byte   Cs3
 .byte   W12
 .byte   Fs3
 .byte   N11 ,An3
 .byte   W12
 .byte   Cs3
 .byte   W12
 .byte   Fs3
 .byte   N11 ,An3
 .byte   W12
 .byte   Cs3
 .byte   W12
@  #01 @029   ----------------------------------------
 .byte   Fs3
 .byte   N11 ,An3
 .byte   W12
 .byte   Cs3
 .byte   W12
 .byte   Fs3
 .byte   N11 ,An3
 .byte   W12
 .byte   Cs3
 .byte   W12
 .byte   Fs3
 .byte   N11 ,An3
 .byte   W12
 .byte   Cs3
 .byte   W12
 .byte   Fs3
 .byte   N11 ,An3
 .byte   W12
 .byte   Cs3
 .byte   W12
@  #01 @030   ----------------------------------------
 .byte   PATT
  .word Label_01028A6B
@  #01 @031   ----------------------------------------
 .byte   N11 ,Fn3 ,v036
 .byte   N11 ,Gs3
 .byte   W12
 .byte   Cs3
 .byte   W12
 .byte   Fs3
 .byte   N11 ,Gs3
 .byte   W12
 .byte   Cs3
 .byte   W12
 .byte   Fs3
 .byte   N11 ,Gs3
 .byte   W12
 .byte   Cs3
 .byte   W12
 .byte   Fs3
 .byte   N11 ,Gs3
 .byte   W12
 .byte   Cs3
 .byte   W12
@  #01 @032   ----------------------------------------
 .byte   W96
@  #01 @033   ----------------------------------------
 .byte   W48
Label_01028AD9:
 .byte   W48
@  #01 @034   ----------------------------------------
 .byte   W96
@  #01 @035   ----------------------------------------
 .byte   W96
@  #01 @036   ----------------------------------------
 .byte   W96
@  #01 @037   ----------------------------------------
 .byte   W96
@  #01 @038   ----------------------------------------
 .byte   W96
@  #01 @039   ----------------------------------------
 .byte   W96
@  #01 @040   ----------------------------------------
 .byte   W96
@  #01 @041   ----------------------------------------
 .byte   W96
@  #01 @042   ----------------------------------------
 .byte   W96
@  #01 @043   ----------------------------------------
 .byte   W96
@  #01 @044   ----------------------------------------
 .byte   N22 ,As0 ,v127
 .byte   N22 ,As1
 .byte   W24
 .byte   Fn1
 .byte   N22 ,Fn2
 .byte   W24
 .byte   Fn0
 .byte   N22 ,Fn1
 .byte   W24
 .byte   N22
 .byte   N22 ,Fn2
 .byte   W24
@  #01 @045   ----------------------------------------
 .byte   Fs0
 .byte   N22 ,Fs1
 .byte   W24
 .byte   N22
 .byte   N22 ,Fs2
 .byte   W24
 .byte   Cs0
 .byte   N22 ,Cs1
 .byte   W24
 .byte   Fs1
 .byte   N22 ,Fs2
 .byte   W24
@  #01 @046   ----------------------------------------
 .byte   An0
 .byte   N22 ,An1
 .byte   W24
 .byte   N22
 .byte   N22 ,An2
 .byte   W24
 .byte   Fn0
 .byte   N22 ,Fn1
 .byte   W24
 .byte   An1
 .byte   N22 ,An2
 .byte   W24
@  #01 @047   ----------------------------------------
 .byte   Bn0
 .byte   N22 ,Bn1
 .byte   W24
 .byte   N22
 .byte   N22 ,Bn2
 .byte   W24
 .byte   N11 ,Bn0
 .byte   N11 ,Bn1
 .byte   W48
@  #01 @048   ----------------------------------------
 .byte   W96
@  #01 @049   ----------------------------------------
 .byte   W96
@  #01 @050   ----------------------------------------
 .byte   W96
@  #01 @051   ----------------------------------------
 .byte   W96
@  #01 @052   ----------------------------------------
 .byte   W96
@  #01 @053   ----------------------------------------
 .byte   W96
@  #01 @054   ----------------------------------------
 .byte   W96
@  #01 @055   ----------------------------------------
 .byte   W96
@  #01 @056   ----------------------------------------
 .byte   W48
 .byte   GOTO
  .word Label_01028AD9
@  #01 @057   ----------------------------------------
 .byte   W48
 .byte   W96
@  #01 @058   ----------------------------------------
 .byte   W96
@  #01 @059   ----------------------------------------
 .byte   W11
 .byte   FINE

@**************** Track 2 (Midi-Chn.1) ****************@

song06_002:
@  #02 @000   ----------------------------------------
 .byte   KEYSH , song06_key+0
 .byte   VOICE , 0
 .byte   VOL , 27*song06_mvl/mxv
 .byte   PAN , c_v+0
 .byte   N05 ,Gs3 ,v080
 .byte   N05 ,Bn3
 .byte   N05 ,Ds4
 .byte   W24
 .byte   Gs3
 .byte   N05 ,Bn3
 .byte   N05 ,Ds4
 .byte   W24
 .byte   Gs3
 .byte   N05 ,As3
 .byte   N05 ,Ds4
 .byte   W24
 .byte   Gs3
 .byte   N05 ,As3
 .byte   N05 ,Ds4
 .byte   W24
@  #02 @001   ----------------------------------------
Label_0100AF52:
 .byte   N05 ,Gs3 ,v080
 .byte   N05 ,Bn3
 .byte   N05 ,Ds4
 .byte   W24
 .byte   Gs3
 .byte   N05 ,As3
 .byte   N05 ,Ds4
 .byte   W72
 .byte   PEND 
@  #02 @002   ----------------------------------------
Label_0100AF61:
 .byte   N05 ,Gs3 ,v080
 .byte   N05 ,Bn3
 .byte   N05 ,Ds4
 .byte   W24
 .byte   Gs3
 .byte   N05 ,Bn3
 .byte   N05 ,Ds4
 .byte   W24
 .byte   Gn3
 .byte   N05 ,As3
 .byte   N05 ,Ds4
 .byte   W24
 .byte   Gn3
 .byte   N05 ,As3
 .byte   N05 ,Ds4
 .byte   W24
 .byte   PEND 
@  #02 @003   ----------------------------------------
Label_0100AF7C:
 .byte   N05 ,Gs3 ,v080
 .byte   N05 ,Bn3
 .byte   N05 ,Ds4
 .byte   W24
 .byte   Gn3
 .byte   N05 ,As3
 .byte   N05 ,Ds4
 .byte   W72
 .byte   PEND 
@  #02 @004   ----------------------------------------
Label_0100AF8B:
 .byte   N05 ,Gs3 ,v080
 .byte   N05 ,Bn3
 .byte   N05 ,Ds4
 .byte   W24
 .byte   Gs3
 .byte   N05 ,Bn3
 .byte   N05 ,Ds4
 .byte   W24
 .byte   Gs3
 .byte   N05 ,Bn3
 .byte   N05 ,Ds4
 .byte   W24
 .byte   N02 ,Gs3
 .byte   N02 ,Bn3
 .byte   N02 ,Ds4
 .byte   W12
 .byte   N11 ,Gs3
 .byte   N11 ,Bn3
 .byte   N11 ,Ds4
 .byte   W12
 .byte   PEND 
@  #02 @005   ----------------------------------------
 .byte   PATT
  .word Label_0100AF8B
@  #02 @006   ----------------------------------------
Label_0100AFB3:
 .byte   N05 ,Gs3 ,v080
 .byte   N05 ,As3
 .byte   N05 ,Ds4
 .byte   W24
 .byte   Gs3
 .byte   N05 ,As3
 .byte   N05 ,Ds4
 .byte   W24
 .byte   Gs3
 .byte   N05 ,As3
 .byte   N05 ,Ds4
 .byte   W24
 .byte   N02 ,Gs3
 .byte   N02 ,As3
 .byte   N02 ,Ds4
 .byte   W12
 .byte   N11 ,Gs3
 .byte   N11 ,As3
 .byte   N11 ,Ds4
 .byte   W12
 .byte   PEND 
@  #02 @007   ----------------------------------------
 .byte   PATT
  .word Label_0100AFB3
@  #02 @008   ----------------------------------------
 .byte   PATT
  .word Label_0100AF8B
@  #02 @009   ----------------------------------------
 .byte   PATT
  .word Label_0100AF8B
@  #02 @010   ----------------------------------------
Label_0100AFE5:
 .byte   N05 ,Gn3 ,v080
 .byte   N05 ,As3
 .byte   N05 ,Ds4
 .byte   W24
 .byte   Gn3
 .byte   N05 ,As3
 .byte   N05 ,Ds4
 .byte   W24
 .byte   Gn3
 .byte   N05 ,As3
 .byte   N05 ,Ds4
 .byte   W24
 .byte   N02 ,Gn3
 .byte   N02 ,As3
 .byte   N02 ,Ds4
 .byte   W12
 .byte   N11 ,Gn3
 .byte   N11 ,As3
 .byte   N11 ,Ds4
 .byte   W12
 .byte   PEND 
@  #02 @011   ----------------------------------------
 .byte   PATT
  .word Label_0100AFE5
@  #02 @012   ----------------------------------------
 .byte   N05 ,As3 ,v080
 .byte   N05 ,Cs4
 .byte   N05 ,Fn4
 .byte   W24
 .byte   As3
 .byte   N05 ,Cs4
 .byte   N05 ,Fn4
 .byte   W24
 .byte   As3
 .byte   N05 ,Cs4
 .byte   N05 ,Fn4
 .byte   W24
 .byte   N02 ,As3
 .byte   N02 ,Cs4
 .byte   N02 ,Fn4
 .byte   W12
 .byte   N05 ,As3
 .byte   N05 ,Cs4
 .byte   N05 ,Fn4
 .byte   W12
@  #02 @013   ----------------------------------------
 .byte   Gn3
 .byte   N05 ,As3
 .byte   N05 ,Cs4
 .byte   W24
 .byte   Gn3
 .byte   N05 ,As3
 .byte   N05 ,Cs4
 .byte   W24
 .byte   Gn3
 .byte   N05 ,As3
 .byte   N05 ,Cs4
 .byte   W24
 .byte   N02 ,Gn3
 .byte   N02 ,As3
 .byte   N02 ,Cs4
 .byte   W12
 .byte   N05 ,Gn3
 .byte   N05 ,As3
 .byte   N05 ,Cs4
 .byte   W12
@  #02 @014   ----------------------------------------
 .byte   An3
 .byte   N05 ,Dn4
 .byte   N05 ,Fn4
 .byte   W24
 .byte   An3
 .byte   N05 ,Dn4
 .byte   N05 ,Fn4
 .byte   W24
 .byte   An3
 .byte   N05 ,Dn4
 .byte   N05 ,Fn4
 .byte   W24
 .byte   N02 ,An3
 .byte   N02 ,Dn4
 .byte   N02 ,Fn4
 .byte   W12
 .byte   N05 ,An3
 .byte   N05 ,Dn4
 .byte   N05 ,Fn4
 .byte   W12
@  #02 @015   ----------------------------------------
 .byte   Fs3
 .byte   N05 ,Bn3
 .byte   N05 ,Ds4
 .byte   W24
 .byte   Fs3
 .byte   N05 ,Bn3
 .byte   N05 ,Ds4
 .byte   W24
 .byte   Fs3
 .byte   N05 ,Bn3
 .byte   N05 ,Ds4
 .byte   W48
@  #02 @016   ----------------------------------------
 .byte   Gs3
 .byte   N05 ,Bn3
 .byte   N05 ,Ds4
 .byte   W24
 .byte   Gs3
 .byte   N05 ,Bn3
 .byte   N05 ,Ds4
 .byte   W24
 .byte   Gs3
 .byte   N05 ,As3
 .byte   N05 ,Ds4
 .byte   W24
 .byte   Gs3
 .byte   N05 ,As3
 .byte   N05 ,Ds4
 .byte   W24
@  #02 @017   ----------------------------------------
 .byte   PATT
  .word Label_0100AF52
@  #02 @018   ----------------------------------------
 .byte   PATT
  .word Label_0100AF61
@  #02 @019   ----------------------------------------
 .byte   PATT
  .word Label_0100AF7C
@  #02 @020   ----------------------------------------
 .byte   N11 ,Gs3 ,v080
 .byte   N11 ,Cn4
 .byte   N11 ,En4
 .byte   W12
 .byte   Gs3
 .byte   W12
 .byte   N11
 .byte   N11 ,Cn4
 .byte   N11 ,En4
 .byte   W12
 .byte   Gs3
 .byte   W12
 .byte   N11
 .byte   N11 ,Cn4
 .byte   N11 ,En4
 .byte   W12
 .byte   Gs3
 .byte   W12
 .byte   N11
 .byte   N11 ,Cn4
 .byte   N11 ,En4
 .byte   W12
 .byte   Gs3
 .byte   W12
@  #02 @021   ----------------------------------------
Label_0100B0CA:
 .byte   N11 ,Gn3 ,v080
 .byte   N11 ,Bn3
 .byte   N11 ,Ds4
 .byte   W12
 .byte   Gn3
 .byte   W12
 .byte   N11
 .byte   N11 ,Bn3
 .byte   N11 ,Ds4
 .byte   W12
 .byte   Gn3
 .byte   W12
 .byte   N11
 .byte   N11 ,Bn3
 .byte   N11 ,Ds4
 .byte   W12
 .byte   Gn3
 .byte   W12
 .byte   N11
 .byte   N11 ,Bn3
 .byte   N11 ,Ds4
 .byte   W12
 .byte   Gn3
 .byte   W12
 .byte   PEND 
@  #02 @022   ----------------------------------------
 .byte   Gs3
 .byte   N11 ,Cn4
 .byte   N11 ,En4
 .byte   W12
 .byte   Gs3
 .byte   W12
 .byte   N11
 .byte   N11 ,Cn4
 .byte   N11 ,En4
 .byte   W12
 .byte   Gs3
 .byte   W12
 .byte   N11
 .byte   N11 ,Cn4
 .byte   N11 ,En4
 .byte   W12
 .byte   Gs3
 .byte   W12
 .byte   N11
 .byte   N11 ,Cn4
 .byte   N11 ,En4
 .byte   W12
 .byte   Gs3
 .byte   W12
@  #02 @023   ----------------------------------------
 .byte   PATT
  .word Label_0100B0CA
@  #02 @024   ----------------------------------------
Label_0100B112:
 .byte   N11 ,Dn3 ,v080
 .byte   N11 ,Fs3
 .byte   N11 ,Bn3
 .byte   W12
 .byte   Dn3
 .byte   W12
 .byte   N11
 .byte   N11 ,Fs3
 .byte   N11 ,Bn3
 .byte   W12
 .byte   Dn3
 .byte   W12
 .byte   N11
 .byte   N11 ,Fs3
 .byte   N11 ,Bn3
 .byte   W12
 .byte   Dn3
 .byte   W12
 .byte   N11
 .byte   N11 ,Fs3
 .byte   N11 ,Bn3
 .byte   W12
 .byte   Dn3
 .byte   W12
 .byte   PEND 
@  #02 @025   ----------------------------------------
 .byte   PATT
  .word Label_0100B112
@  #02 @026   ----------------------------------------
 .byte   N11 ,Cs3 ,v080
 .byte   N11 ,Fn3
 .byte   N11 ,An3
 .byte   W12
 .byte   Dn3
 .byte   W12
 .byte   Cs3
 .byte   N11 ,Fn3
 .byte   N11 ,An3
 .byte   W12
 .byte   Dn3
 .byte   W12
 .byte   Cs3
 .byte   N11 ,Fn3
 .byte   N11 ,An3
 .byte   W12
 .byte   Dn3
 .byte   W12
 .byte   Cs3
 .byte   N11 ,Fn3
 .byte   N11 ,An3
 .byte   W12
 .byte   Dn3
 .byte   W12
@  #02 @027   ----------------------------------------
 .byte   Cs3
 .byte   N11 ,Fn3
 .byte   N11 ,An3
 .byte   W12
 .byte   Cs3
 .byte   W12
 .byte   N11
 .byte   N11 ,Fn3
 .byte   N11 ,An3
 .byte   W12
 .byte   Cs3
 .byte   W12
 .byte   N11
 .byte   N11 ,Fn3
 .byte   N11 ,An3
 .byte   W12
 .byte   Cs3
 .byte   W12
 .byte   N11
 .byte   N11 ,Fn3
 .byte   N11 ,An3
 .byte   W12
 .byte   Cs3
 .byte   W12
@  #02 @028   ----------------------------------------
Label_0100B17C:
 .byte   N11 ,Cs3 ,v080
 .byte   N11 ,Fs3
 .byte   N11 ,An3
 .byte   W12
 .byte   Cs3
 .byte   W12
 .byte   N11
 .byte   N11 ,Fs3
 .byte   N11 ,An3
 .byte   W12
 .byte   Cs3
 .byte   W12
 .byte   N11
 .byte   N11 ,Fs3
 .byte   N11 ,An3
 .byte   W12
 .byte   Cs3
 .byte   W12
 .byte   N11
 .byte   N11 ,Fs3
 .byte   N11 ,An3
 .byte   W12
 .byte   Cs3
 .byte   W12
 .byte   PEND 
@  #02 @029   ----------------------------------------
 .byte   PATT
  .word Label_0100B17C
@  #02 @030   ----------------------------------------
 .byte   PATT
  .word Label_0100B17C
@  #02 @031   ----------------------------------------
 .byte   N11 ,Cs3 ,v080
 .byte   N11 ,Fn3
 .byte   N11 ,Gs3
 .byte   W12
 .byte   Cs3
 .byte   W12
 .byte   N11
 .byte   N11 ,Fn3
 .byte   N11 ,Gs3
 .byte   W12
 .byte   Cs3
 .byte   W12
 .byte   N11
 .byte   N11 ,Fn3
 .byte   N11 ,Gs3
 .byte   W12
 .byte   Cs3
 .byte   W12
 .byte   N11
 .byte   N11 ,Fn3
 .byte   N11 ,Gs3
 .byte   W12
 .byte   Cs3
 .byte   W12
@  #02 @032   ----------------------------------------
 .byte   W96
@  #02 @033   ----------------------------------------
 .byte   W48
Label_0100B1CD:
 .byte   W48
@  #02 @034   ----------------------------------------
 .byte   W96
@  #02 @035   ----------------------------------------
 .byte   W96
@  #02 @036   ----------------------------------------
 .byte   W96
@  #02 @037   ----------------------------------------
 .byte   W96
@  #02 @038   ----------------------------------------
 .byte   W96
@  #02 @039   ----------------------------------------
 .byte   W96
@  #02 @040   ----------------------------------------
 .byte   W96
@  #02 @041   ----------------------------------------
 .byte   W96
@  #02 @042   ----------------------------------------
 .byte   W96
@  #02 @043   ----------------------------------------
 .byte   W96
@  #02 @044   ----------------------------------------
 .byte   W96
@  #02 @045   ----------------------------------------
 .byte   W96
@  #02 @046   ----------------------------------------
 .byte   W96
@  #02 @047   ----------------------------------------
 .byte   W96
@  #02 @048   ----------------------------------------
 .byte   W96
@  #02 @049   ----------------------------------------
 .byte   W96
@  #02 @050   ----------------------------------------
 .byte   W96
@  #02 @051   ----------------------------------------
 .byte   W96
@  #02 @052   ----------------------------------------
 .byte   W96
@  #02 @053   ----------------------------------------
 .byte   W96
@  #02 @054   ----------------------------------------
 .byte   W96
@  #02 @055   ----------------------------------------
 .byte   W96
@  #02 @056   ----------------------------------------
 .byte   W48
 .byte   GOTO
  .word Label_0100B1CD
@  #02 @057   ----------------------------------------
 .byte   W48
 .byte   W96
@  #02 @058   ----------------------------------------
 .byte   W96
@  #02 @059   ----------------------------------------
 .byte   W11
 .byte   FINE

@**************** Track 3 (Midi-Chn.2) ****************@

song06_003:
@  #03 @000   ----------------------------------------
 .byte   KEYSH , song06_key+0
 .byte   VOICE , 73
 .byte   VOL , 47*song06_mvl/mxv
 .byte   PAN , c_v+5
 .byte   W96
@  #03 @001   ----------------------------------------
 .byte   W96
@  #03 @002   ----------------------------------------
 .byte   W96
@  #03 @003   ----------------------------------------
 .byte   W96
@  #03 @004   ----------------------------------------
 .byte   W96
@  #03 @005   ----------------------------------------
 .byte   W96
@  #03 @006   ----------------------------------------
 .byte   W96
@  #03 @007   ----------------------------------------
 .byte   W96
@  #03 @008   ----------------------------------------
 .byte   W96
@  #03 @009   ----------------------------------------
 .byte   W96
@  #03 @010   ----------------------------------------
 .byte   W96
@  #03 @011   ----------------------------------------
 .byte   W96
@  #03 @012   ----------------------------------------
 .byte   N30 ,Cs5 ,v064
 .byte   W32
 .byte   N07
 .byte   W08
 .byte   N07
 .byte   W08
 .byte   N02 ,Dn5
 .byte   W02
 .byte   N09 ,Cs5
 .byte   W10
 .byte   N05 ,Bn4
 .byte   W06
 .byte   As4
 .byte   W06
 .byte   N02 ,Dn5
 .byte   W02
 .byte   N09 ,Cs5
 .byte   W10
 .byte   N05 ,Bn4
 .byte   W06
 .byte   As4
 .byte   W06
@  #03 @013   ----------------------------------------
 .byte   N30 ,An4
 .byte   W32
 .byte   N07
 .byte   W08
 .byte   N07
 .byte   W08
 .byte   N02 ,As4
 .byte   W02
 .byte   N09 ,An4
 .byte   W10
 .byte   N05 ,Gn4
 .byte   W06
 .byte   Fs4
 .byte   W06
 .byte   N02 ,As4
 .byte   W02
 .byte   N09 ,An4
 .byte   W10
 .byte   N05 ,Gn4
 .byte   W06
 .byte   Fs4
 .byte   W06
@  #03 @014   ----------------------------------------
 .byte   N44 ,Fn4
 .byte   W48
 .byte   En4
 .byte   W48
@  #03 @015   ----------------------------------------
 .byte   Ds4
 .byte   W72
 .byte   W24
@  #03 @016   ----------------------------------------
 .byte   W96
@  #03 @017   ----------------------------------------
 .byte   W96
@  #03 @018   ----------------------------------------
 .byte   W96
@  #03 @019   ----------------------------------------
 .byte   W96
@  #03 @020   ----------------------------------------
Label_01023157:
 .byte   N90 ,En5 ,v036
 .byte   N90 ,Gs5
 .byte   W96
 .byte   PEND 
@  #03 @021   ----------------------------------------
Label_0102315E:
 .byte   N90 ,Ds5 ,v036
 .byte   N90 ,Gn5
 .byte   W96
 .byte   PEND 
@  #03 @022   ----------------------------------------
 .byte   PATT
  .word Label_01023157
@  #03 @023   ----------------------------------------
 .byte   PATT
  .word Label_0102315E
@  #03 @024   ----------------------------------------
 .byte   TIE ,Fs4 ,v036
 .byte   TIE ,Dn5
 .byte   W96
@  #03 @025   ----------------------------------------
Label_01023175:
 .byte   W84
 .byte   W02
 .byte   PEND 
 .byte   EOT
 .byte   Fs4 ,v086
 .byte   W10
@  #03 @026   ----------------------------------------
 .byte   TIE ,Fn4 ,v036
 .byte   TIE ,Cs5
 .byte   W96
@  #03 @027   ----------------------------------------
 .byte   PATT
  .word Label_01023175
@  #03 @028   ----------------------------------------
 .byte   EOT
 .byte   Fn4 ,v085
 .byte   W10
Label_0102318B:
 .byte   TIE ,Fs4 ,v036
 .byte   TIE ,Cs5
 .byte   W96
 .byte   PEND 
@  #03 @029   ----------------------------------------
 .byte   PATT
  .word Label_01023175
@  #03 @030   ----------------------------------------
 .byte   EOT
 .byte   Fs4 ,v085
 .byte   W10
@  #03 @031   ----------------------------------------
 .byte   PATT
  .word Label_0102318B
@  #03 @032   ----------------------------------------
 .byte   PATT
  .word Label_01023175
@  #03 @033   ----------------------------------------
 .byte   EOT
 .byte   Fs4 ,v085
 .byte   W10
 .byte   W96
@  #03 @034   ----------------------------------------
 .byte   W48
Label_010231AB:
 .byte   W48
@  #03 @035   ----------------------------------------
 .byte   W96
@  #03 @036   ----------------------------------------
 .byte   W96
@  #03 @037   ----------------------------------------
Label_010231AE:
 .byte   W24
 .byte   N22 ,Gs3 ,v052
 .byte   W24
 .byte   As3
 .byte   W24
 .byte   Bn3
 .byte   W24
 .byte   PEND 
@  #03 @038   ----------------------------------------
 .byte   Fn4
 .byte   W24
 .byte   N17 ,Fs4
 .byte   W18
 .byte   N02 ,Fn4
 .byte   W03
 .byte   Fs4
 .byte   W03
 .byte   N22 ,Fn4
 .byte   W24
 .byte   Ds4
 .byte   W24
@  #03 @039   ----------------------------------------
 .byte   N68 ,Dn4
 .byte   W72
 .byte   N22 ,Ds4
 .byte   W24
@  #03 @040   ----------------------------------------
 .byte   N68 ,As3
 .byte   W96
@  #03 @041   ----------------------------------------
 .byte   PATT
  .word Label_010231AE
@  #03 @042   ----------------------------------------
 .byte   N22 ,Fn4 ,v052
 .byte   W24
 .byte   Ds4
 .byte   W24
 .byte   Fn4
 .byte   W24
 .byte   Fs4
 .byte   W24
@  #03 @043   ----------------------------------------
 .byte   N68 ,Gn4
 .byte   W84
 .byte   N03 ,Dn4
 .byte   W04
 .byte   Ds4
 .byte   W04
 .byte   En4
 .byte   W04
@  #03 @044   ----------------------------------------
 .byte   N44 ,Ds4
 .byte   W96
@  #03 @045   ----------------------------------------
 .byte   N30 ,Cs5 ,v112
 .byte   W32
 .byte   N07
 .byte   W08
 .byte   N07
 .byte   W08
 .byte   N02 ,Dn5
 .byte   W02
 .byte   N09 ,Cs5
 .byte   W10
 .byte   N05 ,Bn4
 .byte   W06
 .byte   As4
 .byte   W06
 .byte   N02 ,Dn5
 .byte   W02
 .byte   N09 ,Cs5
 .byte   W10
 .byte   N05 ,Bn4
 .byte   W06
 .byte   As4
 .byte   W06
@  #03 @046   ----------------------------------------
 .byte   N30 ,An4
 .byte   W32
 .byte   N07
 .byte   W08
 .byte   N07
 .byte   W08
 .byte   N02 ,As4
 .byte   W02
 .byte   N09 ,An4
 .byte   W10
 .byte   N05 ,Gn4
 .byte   W06
 .byte   Fs4
 .byte   W06
 .byte   N02 ,As4
 .byte   W02
 .byte   N09 ,An4
 .byte   W10
 .byte   N05 ,Gn4
 .byte   W06
 .byte   Fs4
 .byte   W06
@  #03 @047   ----------------------------------------
 .byte   N44 ,Fn4
 .byte   W48
 .byte   En4
 .byte   W48
@  #03 @048   ----------------------------------------
 .byte   Ds4
 .byte   W96
@  #03 @049   ----------------------------------------
 .byte   W96
@  #03 @050   ----------------------------------------
 .byte   W96
@  #03 @051   ----------------------------------------
 .byte   W96
@  #03 @052   ----------------------------------------
 .byte   W96
@  #03 @053   ----------------------------------------
 .byte   W96
@  #03 @054   ----------------------------------------
 .byte   W96
@  #03 @055   ----------------------------------------
 .byte   W96
@  #03 @056   ----------------------------------------
 .byte   W96
@  #03 @057   ----------------------------------------
 .byte   W48
 .byte   GOTO
  .word Label_010231AB
@  #03 @058   ----------------------------------------
 .byte   W48
 .byte   W96
@  #03 @059   ----------------------------------------
 .byte   W96
@  #03 @060   ----------------------------------------
 .byte   W11
 .byte   FINE

@**************** Track 4 (Midi-Chn.3) ****************@

song06_004:
@  #04 @000   ----------------------------------------
 .byte   KEYSH , song06_key+0
 .byte   VOICE , 41
 .byte   VOL , 47*song06_mvl/mxv
 .byte   PAN , c_v+0
 .byte   W96
@  #04 @001   ----------------------------------------
 .byte   W96
@  #04 @002   ----------------------------------------
 .byte   W96
@  #04 @003   ----------------------------------------
 .byte   W96
@  #04 @004   ----------------------------------------
 .byte   W96
@  #04 @005   ----------------------------------------
 .byte   W96
@  #04 @006   ----------------------------------------
 .byte   W96
@  #04 @007   ----------------------------------------
 .byte   W96
@  #04 @008   ----------------------------------------
 .byte   W96
@  #04 @009   ----------------------------------------
 .byte   W96
@  #04 @010   ----------------------------------------
 .byte   W96
@  #04 @011   ----------------------------------------
 .byte   W96
@  #04 @012   ----------------------------------------
 .byte   W96
@  #04 @013   ----------------------------------------
 .byte   W96
@  #04 @014   ----------------------------------------
 .byte   W96
@  #04 @015   ----------------------------------------
 .byte   W96
@  #04 @016   ----------------------------------------
 .byte   W96
@  #04 @017   ----------------------------------------
 .byte   W96
@  #04 @018   ----------------------------------------
 .byte   W96
@  #04 @019   ----------------------------------------
 .byte   W96
@  #04 @020   ----------------------------------------
 .byte   W96
@  #04 @021   ----------------------------------------
 .byte   W96
@  #04 @022   ----------------------------------------
 .byte   W96
@  #04 @023   ----------------------------------------
 .byte   W96
@  #04 @024   ----------------------------------------
 .byte   N44 ,Gs2 ,v036
 .byte   W06
 .byte   W06
 .byte   W06
 .byte   W06
 .byte   W06
 .byte   W06
 .byte   W06
 .byte   W06
 .byte   As2 ,v044
 .byte   W06
 .byte   W06
 .byte   W06
 .byte   W06
 .byte   W06
 .byte   W06
 .byte   W06
 .byte   W06
@  #04 @025   ----------------------------------------
 .byte   Bn2 ,v052
 .byte   W48
 .byte   Cs3
 .byte   W48
@  #04 @026   ----------------------------------------
 .byte   N92 ,Dn3
 .byte   W96
@  #04 @027   ----------------------------------------
Label_01027771:
 .byte   N92 ,Cs3 ,v052
 .byte   W96
 .byte   PEND 
@  #04 @028   ----------------------------------------
 .byte   N44 ,Dn2
 .byte   W48
 .byte   Cs2
 .byte   W48
@  #04 @029   ----------------------------------------
 .byte   Dn3
 .byte   W48
 .byte   Cs3
 .byte   W48
@  #04 @030   ----------------------------------------
 .byte   PATT
  .word Label_01027771
@  #04 @031   ----------------------------------------
 .byte   N68 ,Cn3 ,v052
 .byte   W96
@  #04 @032   ----------------------------------------
 .byte   W96
@  #04 @033   ----------------------------------------
 .byte   W48
Label_0102778A:
 .byte   W48
@  #04 @034   ----------------------------------------
 .byte   W96
@  #04 @035   ----------------------------------------
 .byte   W96
@  #04 @036   ----------------------------------------
 .byte   W96
@  #04 @037   ----------------------------------------
 .byte   W96
@  #04 @038   ----------------------------------------
 .byte   W96
@  #04 @039   ----------------------------------------
 .byte   W96
@  #04 @040   ----------------------------------------
 .byte   W96
@  #04 @041   ----------------------------------------
 .byte   W96
@  #04 @042   ----------------------------------------
 .byte   W96
@  #04 @043   ----------------------------------------
 .byte   W96
@  #04 @044   ----------------------------------------
 .byte   W96
@  #04 @045   ----------------------------------------
 .byte   W96
@  #04 @046   ----------------------------------------
 .byte   W96
@  #04 @047   ----------------------------------------
 .byte   W96
@  #04 @048   ----------------------------------------
 .byte   W96
@  #04 @049   ----------------------------------------
 .byte   W96
@  #04 @050   ----------------------------------------
 .byte   W96
@  #04 @051   ----------------------------------------
 .byte   W96
@  #04 @052   ----------------------------------------
 .byte   W96
@  #04 @053   ----------------------------------------
 .byte   W96
@  #04 @054   ----------------------------------------
 .byte   W96
@  #04 @055   ----------------------------------------
 .byte   W96
@  #04 @056   ----------------------------------------
 .byte   W48
 .byte   GOTO
  .word Label_0102778A
@  #04 @057   ----------------------------------------
 .byte   W48
 .byte   W96
@  #04 @058   ----------------------------------------
 .byte   W96
@  #04 @059   ----------------------------------------
 .byte   W11
 .byte   FINE

@**************** Track 5 (Midi-Chn.4) ****************@

song06_005:
@  #05 @000   ----------------------------------------
 .byte   KEYSH , song06_key+0
 .byte   VOICE , 47
 .byte   VOL , 47*song06_mvl/mxv
 .byte   PAN , c_v+0
 .byte   W96
@  #05 @001   ----------------------------------------
 .byte   W96
@  #05 @002   ----------------------------------------
 .byte   W96
@  #05 @003   ----------------------------------------
 .byte   W96
@  #05 @004   ----------------------------------------
 .byte   W96
@  #05 @005   ----------------------------------------
 .byte   W96
@  #05 @006   ----------------------------------------
 .byte   W96
@  #05 @007   ----------------------------------------
 .byte   W96
@  #05 @008   ----------------------------------------
 .byte   W96
@  #05 @009   ----------------------------------------
 .byte   W96
@  #05 @010   ----------------------------------------
 .byte   W96
@  #05 @011   ----------------------------------------
 .byte   W96
@  #05 @012   ----------------------------------------
 .byte   W96
@  #05 @013   ----------------------------------------
 .byte   W96
@  #05 @014   ----------------------------------------
 .byte   W96
@  #05 @015   ----------------------------------------
 .byte   W96
@  #05 @016   ----------------------------------------
 .byte   W96
@  #05 @017   ----------------------------------------
 .byte   W96
@  #05 @018   ----------------------------------------
 .byte   W96
@  #05 @019   ----------------------------------------
 .byte   W96
@  #05 @020   ----------------------------------------
 .byte   W96
@  #05 @021   ----------------------------------------
 .byte   W96
@  #05 @022   ----------------------------------------
 .byte   W96
@  #05 @023   ----------------------------------------
 .byte   W96
@  #05 @024   ----------------------------------------
 .byte   W96
@  #05 @025   ----------------------------------------
 .byte   W96
@  #05 @026   ----------------------------------------
 .byte   W96
@  #05 @027   ----------------------------------------
 .byte   W96
@  #05 @028   ----------------------------------------
 .byte   W96
@  #05 @029   ----------------------------------------
 .byte   W96
@  #05 @030   ----------------------------------------
 .byte   W96
@  #05 @031   ----------------------------------------
 .byte   W96
@  #05 @032   ----------------------------------------
 .byte   W96
@  #05 @033   ----------------------------------------
 .byte   W48
Label_01028B62:
 .byte   W48
@  #05 @034   ----------------------------------------
 .byte   W96
@  #05 @035   ----------------------------------------
 .byte   W96
@  #05 @036   ----------------------------------------
 .byte   W96
@  #05 @037   ----------------------------------------
 .byte   W96
@  #05 @038   ----------------------------------------
 .byte   W96
@  #05 @039   ----------------------------------------
 .byte   W96
@  #05 @040   ----------------------------------------
 .byte   W96
@  #05 @041   ----------------------------------------
 .byte   W96
@  #05 @042   ----------------------------------------
 .byte   W96
@  #05 @043   ----------------------------------------
 .byte   W96
@  #05 @044   ----------------------------------------
 .byte   N23 ,As1 ,v127
 .byte   W03
 .byte   W01
 .byte   W01
 .byte   W42
 .byte   W01
 .byte   Fn1
 .byte   W03
 .byte   W01
 .byte   W01
 .byte   W42
 .byte   W01
@  #05 @045   ----------------------------------------
 .byte   Fs1
 .byte   W03
 .byte   W01
 .byte   W01
 .byte   W42
 .byte   W01
 .byte   Cs1
 .byte   W03
 .byte   W01
 .byte   W01
 .byte   W42
 .byte   W01
@  #05 @046   ----------------------------------------
 .byte   An1
 .byte   W03
 .byte   W01
 .byte   W01
 .byte   W42
 .byte   W01
 .byte   Fn1
 .byte   W03
 .byte   W01
 .byte   W01
 .byte   W42
 .byte   W01
@  #05 @047   ----------------------------------------
 .byte   Bn1 ,v112
 .byte   W48
 .byte   Bn0
 .byte   W48
@  #05 @048   ----------------------------------------
 .byte   W96
@  #05 @049   ----------------------------------------
 .byte   W96
@  #05 @050   ----------------------------------------
 .byte   W96
@  #05 @051   ----------------------------------------
 .byte   W96
@  #05 @052   ----------------------------------------
 .byte   W96
@  #05 @053   ----------------------------------------
 .byte   W96
@  #05 @054   ----------------------------------------
 .byte   W96
@  #05 @055   ----------------------------------------
 .byte   W96
@  #05 @056   ----------------------------------------
 .byte   W48
 .byte   GOTO
  .word Label_01028B62
@  #05 @057   ----------------------------------------
 .byte   W48
 .byte   W96
@  #05 @058   ----------------------------------------
 .byte   W96
@  #05 @059   ----------------------------------------
 .byte   W11
 .byte   FINE

@**************** Track 6 (Midi-Chn.5) ****************@

song06_006:
@  #06 @000   ----------------------------------------
 .byte   KEYSH , song06_key+0
 .byte   VOICE , 49
 .byte   VOL , 47*song06_mvl/mxv
 .byte   PAN , c_v+0
 .byte   W96
@  #06 @001   ----------------------------------------
 .byte   W96
@  #06 @002   ----------------------------------------
 .byte   W96
@  #06 @003   ----------------------------------------
 .byte   W96
@  #06 @004   ----------------------------------------
 .byte   W96
@  #06 @005   ----------------------------------------
 .byte   W96
@  #06 @006   ----------------------------------------
 .byte   W96
@  #06 @007   ----------------------------------------
 .byte   W96
@  #06 @008   ----------------------------------------
 .byte   W96
@  #06 @009   ----------------------------------------
 .byte   W96
@  #06 @010   ----------------------------------------
 .byte   W96
@  #06 @011   ----------------------------------------
 .byte   W96
@  #06 @012   ----------------------------------------
 .byte   W96
@  #06 @013   ----------------------------------------
 .byte   W96
@  #06 @014   ----------------------------------------
 .byte   W96
@  #06 @015   ----------------------------------------
 .byte   W96
@  #06 @016   ----------------------------------------
 .byte   W96
@  #06 @017   ----------------------------------------
 .byte   W96
@  #06 @018   ----------------------------------------
 .byte   W96
@  #06 @019   ----------------------------------------
 .byte   W96
@  #06 @020   ----------------------------------------
 .byte   W96
@  #06 @021   ----------------------------------------
 .byte   W96
@  #06 @022   ----------------------------------------
 .byte   W96
@  #06 @023   ----------------------------------------
 .byte   W96
@  #06 @024   ----------------------------------------
 .byte   W96
@  #06 @025   ----------------------------------------
 .byte   W96
@  #06 @026   ----------------------------------------
 .byte   W96
@  #06 @027   ----------------------------------------
 .byte   W96
@  #06 @028   ----------------------------------------
 .byte   W96
@  #06 @029   ----------------------------------------
 .byte   W96
@  #06 @030   ----------------------------------------
 .byte   W96
@  #06 @031   ----------------------------------------
 .byte   W96
@  #06 @032   ----------------------------------------
 .byte   W96
@  #06 @033   ----------------------------------------
 .byte   W48
Label_01027A02:
 .byte   W48
@  #06 @034   ----------------------------------------
 .byte   W96
@  #06 @035   ----------------------------------------
 .byte   W96
@  #06 @036   ----------------------------------------
 .byte   W96
@  #06 @037   ----------------------------------------
 .byte   W96
@  #06 @038   ----------------------------------------
 .byte   W96
@  #06 @039   ----------------------------------------
 .byte   W96
@  #06 @040   ----------------------------------------
 .byte   W96
@  #06 @041   ----------------------------------------
 .byte   W96
@  #06 @042   ----------------------------------------
 .byte   W96
@  #06 @043   ----------------------------------------
 .byte   W96
@  #06 @044   ----------------------------------------
 .byte   N30 ,Cs5 ,v112
 .byte   W32
 .byte   N07
 .byte   W08
 .byte   N07
 .byte   W08
 .byte   N02 ,Dn5
 .byte   W02
 .byte   N09 ,Cs5
 .byte   W10
 .byte   N05 ,Bn4
 .byte   W06
 .byte   As4
 .byte   W06
 .byte   N02 ,Dn5
 .byte   W02
 .byte   N09 ,Cs5
 .byte   W10
 .byte   N05 ,Bn4
 .byte   W06
 .byte   As4
 .byte   W06
@  #06 @045   ----------------------------------------
 .byte   N30 ,An4
 .byte   W32
 .byte   N07
 .byte   W08
 .byte   N07
 .byte   W08
 .byte   N02 ,As4
 .byte   W02
 .byte   N09 ,An4
 .byte   W10
 .byte   N05 ,Gn4
 .byte   W06
 .byte   Fs4
 .byte   W06
 .byte   N02 ,As4
 .byte   W02
 .byte   N09 ,An4
 .byte   W10
 .byte   N05 ,Gn4
 .byte   W06
 .byte   Fs4
 .byte   W06
@  #06 @046   ----------------------------------------
 .byte   N44 ,Fn4
 .byte   W48
 .byte   En4
 .byte   W48
@  #06 @047   ----------------------------------------
 .byte   Ds4
 .byte   W96
@  #06 @048   ----------------------------------------
 .byte   W96
@  #06 @049   ----------------------------------------
 .byte   W96
@  #06 @050   ----------------------------------------
 .byte   W96
@  #06 @051   ----------------------------------------
 .byte   W96
@  #06 @052   ----------------------------------------
 .byte   W96
@  #06 @053   ----------------------------------------
 .byte   W96
@  #06 @054   ----------------------------------------
 .byte   W96
@  #06 @055   ----------------------------------------
 .byte   W96
@  #06 @056   ----------------------------------------
 .byte   W48
 .byte   GOTO
  .word Label_01027A02
@  #06 @057   ----------------------------------------
 .byte   W48
 .byte   W96
@  #06 @058   ----------------------------------------
 .byte   W96
@  #06 @059   ----------------------------------------
 .byte   W11
 .byte   FINE

@**************** Track 7 (Midi-Chn.6) ****************@

song06_007:
@  #07 @000   ----------------------------------------
 .byte   KEYSH , song06_key+0
 .byte   VOICE , 40
 .byte   VOL , 47*song06_mvl/mxv
 .byte   PAN , c_v+5
 .byte   W96
@  #07 @001   ----------------------------------------
 .byte   W96
@  #07 @002   ----------------------------------------
 .byte   W96
@  #07 @003   ----------------------------------------
 .byte   W96
@  #07 @004   ----------------------------------------
 .byte   W96
@  #07 @005   ----------------------------------------
 .byte   W96
@  #07 @006   ----------------------------------------
 .byte   W96
@  #07 @007   ----------------------------------------
 .byte   W96
@  #07 @008   ----------------------------------------
 .byte   W96
@  #07 @009   ----------------------------------------
 .byte   W96
@  #07 @010   ----------------------------------------
 .byte   W96
@  #07 @011   ----------------------------------------
 .byte   W96
@  #07 @012   ----------------------------------------
 .byte   W96
@  #07 @013   ----------------------------------------
 .byte   W96
@  #07 @014   ----------------------------------------
 .byte   W96
@  #07 @015   ----------------------------------------
 .byte   W96
@  #07 @016   ----------------------------------------
 .byte   W96
@  #07 @017   ----------------------------------------
 .byte   W96
@  #07 @018   ----------------------------------------
 .byte   W96
@  #07 @019   ----------------------------------------
 .byte   W96
@  #07 @020   ----------------------------------------
 .byte   W96
@  #07 @021   ----------------------------------------
 .byte   W96
@  #07 @022   ----------------------------------------
 .byte   W96
@  #07 @023   ----------------------------------------
 .byte   W96
@  #07 @024   ----------------------------------------
 .byte   W96
@  #07 @025   ----------------------------------------
 .byte   W96
@  #07 @026   ----------------------------------------
 .byte   W96
@  #07 @027   ----------------------------------------
 .byte   W96
@  #07 @028   ----------------------------------------
 .byte   W96
@  #07 @029   ----------------------------------------
 .byte   W96
@  #07 @030   ----------------------------------------
 .byte   W96
@  #07 @031   ----------------------------------------
 .byte   W96
@  #07 @032   ----------------------------------------
Label_010277D4:
 .byte   N02 ,Gn0 ,v096
 .byte   W02
 .byte   N09 ,Gs0
 .byte   W92
 .byte   W02
 .byte   PEND 
@  #07 @033   ----------------------------------------
 .byte   W48
Label_010277DE:
 .byte   W48
@  #07 @034   ----------------------------------------
 .byte   PATT
  .word Label_010277D4
@  #07 @035   ----------------------------------------
 .byte   W96
@  #07 @036   ----------------------------------------
 .byte   PATT
  .word Label_010277D4
@  #07 @037   ----------------------------------------
 .byte   W96
@  #07 @038   ----------------------------------------
Label_010277EB:
 .byte   N02 ,Fs0 ,v096
 .byte   W02
 .byte   N09 ,Gn0
 .byte   W92
 .byte   W02
 .byte   PEND 
@  #07 @039   ----------------------------------------
 .byte   W96
@  #07 @040   ----------------------------------------
 .byte   PATT
  .word Label_010277D4
@  #07 @041   ----------------------------------------
 .byte   W96
@  #07 @042   ----------------------------------------
 .byte   PATT
  .word Label_010277EB
@  #07 @043   ----------------------------------------
 .byte   W96
@  #07 @044   ----------------------------------------
 .byte   N23 ,As0 ,v112
 .byte   W48
 .byte   Fn0
 .byte   W48
@  #07 @045   ----------------------------------------
 .byte   Fs0
 .byte   W48
 .byte   Cs1
 .byte   W48
@  #07 @046   ----------------------------------------
 .byte   An0
 .byte   W48
 .byte   Fn0
 .byte   W48
@  #07 @047   ----------------------------------------
 .byte   Bn0
 .byte   W96
@  #07 @048   ----------------------------------------
 .byte   W96
@  #07 @049   ----------------------------------------
 .byte   W96
@  #07 @050   ----------------------------------------
 .byte   W96
@  #07 @051   ----------------------------------------
 .byte   W96
@  #07 @052   ----------------------------------------
 .byte   W96
@  #07 @053   ----------------------------------------
 .byte   W96
@  #07 @054   ----------------------------------------
 .byte   W96
@  #07 @055   ----------------------------------------
 .byte   W96
@  #07 @056   ----------------------------------------
 .byte   W48
 .byte   GOTO
  .word Label_010277DE
@  #07 @057   ----------------------------------------
 .byte   W48
 .byte   W96
@  #07 @058   ----------------------------------------
 .byte   W96
@  #07 @059   ----------------------------------------
 .byte   W11
 .byte   FINE

@**************** Track 8 (Midi-Chn.7) ****************@

song06_008:
@  #08 @000   ----------------------------------------
 .byte   KEYSH , song06_key+0
 .byte   VOICE , 34
 .byte   VOL , 47*song06_mvl/mxv
 .byte   PAN , c_v+0
 .byte   W96
@  #08 @001   ----------------------------------------
 .byte   W96
@  #08 @002   ----------------------------------------
 .byte   W96
@  #08 @003   ----------------------------------------
 .byte   W96
@  #08 @004   ----------------------------------------
 .byte   W96
@  #08 @005   ----------------------------------------
 .byte   W96
@  #08 @006   ----------------------------------------
 .byte   W96
@  #08 @007   ----------------------------------------
 .byte   W96
@  #08 @008   ----------------------------------------
 .byte   W96
@  #08 @009   ----------------------------------------
 .byte   W96
@  #08 @010   ----------------------------------------
 .byte   W96
@  #08 @011   ----------------------------------------
 .byte   W96
@  #08 @012   ----------------------------------------
 .byte   W96
@  #08 @013   ----------------------------------------
 .byte   W96
@  #08 @014   ----------------------------------------
 .byte   W96
@  #08 @015   ----------------------------------------
 .byte   W96
@  #08 @016   ----------------------------------------
 .byte   W96
@  #08 @017   ----------------------------------------
 .byte   W96
@  #08 @018   ----------------------------------------
 .byte   W96
@  #08 @019   ----------------------------------------
 .byte   W96
@  #08 @020   ----------------------------------------
Label_01027550:
 .byte   W48
 .byte   N44 ,Cn3 ,v036
 .byte   W48
 .byte   PEND 
@  #08 @021   ----------------------------------------
Label_01027556:
 .byte   W24
 .byte   N23 ,Gn2 ,v036
 .byte   W24
 .byte   N44 ,Bn1
 .byte   W48
 .byte   PEND 
@  #08 @022   ----------------------------------------
 .byte   PATT
  .word Label_01027550
@  #08 @023   ----------------------------------------
 .byte   PATT
  .word Label_01027556
@  #08 @024   ----------------------------------------
 .byte   N44 ,Gs2 ,v036
 .byte   W48
 .byte   As2
 .byte   W48
@  #08 @025   ----------------------------------------
 .byte   Bn2
 .byte   W48
 .byte   Cs3
 .byte   W48
@  #08 @026   ----------------------------------------
 .byte   W24
 .byte   N23 ,Fn2
 .byte   W24
 .byte   N44 ,Fn1
 .byte   W48
@  #08 @027   ----------------------------------------
 .byte   W24
 .byte   N23 ,Gs2
 .byte   W24
 .byte   N44 ,Gs1
 .byte   W48
@  #08 @028   ----------------------------------------
 .byte   Dn2
 .byte   W48
 .byte   Cs2
 .byte   W48
@  #08 @029   ----------------------------------------
 .byte   Bn1
 .byte   W48
 .byte   As1
 .byte   W48
@  #08 @030   ----------------------------------------
 .byte   W24
 .byte   N23 ,Cn2
 .byte   W24
 .byte   Cs2
 .byte   W48
@  #08 @031   ----------------------------------------
 .byte   W24
 .byte   Bn2
 .byte   W24
 .byte   Bn1
 .byte   W48
@  #08 @032   ----------------------------------------
 .byte   W96
@  #08 @033   ----------------------------------------
 .byte   W48
Label_01027596:
 .byte   W48
@  #08 @034   ----------------------------------------
 .byte   W96
@  #08 @035   ----------------------------------------
 .byte   W96
@  #08 @036   ----------------------------------------
 .byte   W96
@  #08 @037   ----------------------------------------
 .byte   W96
@  #08 @038   ----------------------------------------
 .byte   W96
@  #08 @039   ----------------------------------------
 .byte   W96
@  #08 @040   ----------------------------------------
 .byte   W96
@  #08 @041   ----------------------------------------
 .byte   W96
@  #08 @042   ----------------------------------------
 .byte   W96
@  #08 @043   ----------------------------------------
 .byte   W96
@  #08 @044   ----------------------------------------
 .byte   W96
@  #08 @045   ----------------------------------------
 .byte   W96
@  #08 @046   ----------------------------------------
 .byte   W96
@  #08 @047   ----------------------------------------
 .byte   W96
@  #08 @048   ----------------------------------------
 .byte   W96
@  #08 @049   ----------------------------------------
 .byte   W96
@  #08 @050   ----------------------------------------
 .byte   W96
@  #08 @051   ----------------------------------------
 .byte   W96
@  #08 @052   ----------------------------------------
 .byte   W96
@  #08 @053   ----------------------------------------
 .byte   W96
@  #08 @054   ----------------------------------------
 .byte   W96
@  #08 @055   ----------------------------------------
 .byte   W96
@  #08 @056   ----------------------------------------
 .byte   W48
 .byte   GOTO
  .word Label_01027596
@  #08 @057   ----------------------------------------
 .byte   W48
 .byte   W96
@  #08 @058   ----------------------------------------
 .byte   W96
@  #08 @059   ----------------------------------------
 .byte   W11
 .byte   FINE

@**************** Track 9 (Midi-Chn.8) ****************@

song06_009:
@  #09 @000   ----------------------------------------
 .byte   KEYSH , song06_key+0
 .byte   VOICE , 68
 .byte   VOL , 47*song06_mvl/mxv
 .byte   PAN , c_v-5
 .byte   W96
@  #09 @001   ----------------------------------------
 .byte   W96
@  #09 @002   ----------------------------------------
 .byte   W96
@  #09 @003   ----------------------------------------
 .byte   W96
@  #09 @004   ----------------------------------------
 .byte   W24
 .byte   N23 ,Gs2 ,v052
 .byte   W24
 .byte   As2
 .byte   W24
 .byte   Bn2
 .byte   W24
@  #09 @005   ----------------------------------------
 .byte   Fn3
 .byte   W24
 .byte   N17 ,Fs3
 .byte   W18
 .byte   N02 ,Fn3
 .byte   W03
 .byte   Fs3
 .byte   W03
 .byte   N23 ,Fn3
 .byte   W24
 .byte   Ds3
 .byte   W24
@  #09 @006   ----------------------------------------
 .byte   N68 ,Dn3
 .byte   W72
 .byte   N23 ,Ds3
 .byte   W24
@  #09 @007   ----------------------------------------
 .byte   N68 ,As2
 .byte   W96
@  #09 @008   ----------------------------------------
 .byte   W24
 .byte   N23 ,Gs2
 .byte   W24
 .byte   As2
 .byte   W24
 .byte   Bn2
 .byte   W24
@  #09 @009   ----------------------------------------
 .byte   Fn3
 .byte   W24
 .byte   Ds3
 .byte   W24
 .byte   Fn3
 .byte   W24
 .byte   Fs3
 .byte   W24
@  #09 @010   ----------------------------------------
 .byte   N68 ,Gn3
 .byte   W84
 .byte   N03 ,Dn3
 .byte   W04
 .byte   Ds3
 .byte   W04
 .byte   En3
 .byte   W04
@  #09 @011   ----------------------------------------
 .byte   N68 ,Ds3
 .byte   W96
@  #09 @012   ----------------------------------------
 .byte   W96
@  #09 @013   ----------------------------------------
 .byte   W96
@  #09 @014   ----------------------------------------
 .byte   W96
@  #09 @015   ----------------------------------------
 .byte   W96
@  #09 @016   ----------------------------------------
 .byte   W96
@  #09 @017   ----------------------------------------
 .byte   W96
@  #09 @018   ----------------------------------------
 .byte   W96
@  #09 @019   ----------------------------------------
 .byte   W96
@  #09 @020   ----------------------------------------
Label_0102767E:
 .byte   N92 ,Gs3 ,v036
 .byte   W96
 .byte   PEND 
@  #09 @021   ----------------------------------------
Label_01027683:
 .byte   N92 ,Gn3 ,v036
 .byte   W96
 .byte   PEND 
@  #09 @022   ----------------------------------------
 .byte   PATT
  .word Label_0102767E
@  #09 @023   ----------------------------------------
 .byte   PATT
  .word Label_01027683
@  #09 @024   ----------------------------------------
 .byte   W96
@  #09 @025   ----------------------------------------
 .byte   W96
@  #09 @026   ----------------------------------------
 .byte   W96
@  #09 @027   ----------------------------------------
 .byte   W96
@  #09 @028   ----------------------------------------
 .byte   W96
@  #09 @029   ----------------------------------------
 .byte   W96
@  #09 @030   ----------------------------------------
 .byte   W96
@  #09 @031   ----------------------------------------
 .byte   W96
@  #09 @032   ----------------------------------------
 .byte   W96
@  #09 @033   ----------------------------------------
 .byte   W48
Label_0102769C:
 .byte   W48
@  #09 @034   ----------------------------------------
 .byte   W96
@  #09 @035   ----------------------------------------
 .byte   W96
@  #09 @036   ----------------------------------------
Label_0102769F:
 .byte   W24
 .byte   N23 ,Gs2 ,v052
 .byte   W24
 .byte   As2
 .byte   W24
 .byte   Bn2
 .byte   W24
 .byte   PEND 
@  #09 @037   ----------------------------------------
 .byte   Fn3
 .byte   W24
 .byte   N17 ,Fs3
 .byte   W18
 .byte   N02 ,Fn3
 .byte   W03
 .byte   Fs3
 .byte   W03
 .byte   N23 ,Fn3
 .byte   W24
 .byte   Ds3
 .byte   W24
@  #09 @038   ----------------------------------------
 .byte   N68 ,Dn3
 .byte   W72
 .byte   N23 ,Ds3
 .byte   W24
@  #09 @039   ----------------------------------------
 .byte   N68 ,As2
 .byte   W96
@  #09 @040   ----------------------------------------
 .byte   PATT
  .word Label_0102769F
@  #09 @041   ----------------------------------------
 .byte   N23 ,Fn3 ,v052
 .byte   W24
 .byte   Ds3
 .byte   W24
 .byte   Fn3
 .byte   W24
 .byte   Fs3
 .byte   W24
@  #09 @042   ----------------------------------------
 .byte   N68 ,Gn3
 .byte   W84
 .byte   N03 ,Dn3
 .byte   W04
 .byte   Ds3
 .byte   W04
 .byte   En3
 .byte   W04
@  #09 @043   ----------------------------------------
 .byte   N44 ,Ds3
 .byte   W96
@  #09 @044   ----------------------------------------
 .byte   N30 ,Cs3 ,v112
 .byte   W32
 .byte   N07
 .byte   W08
 .byte   N07
 .byte   W08
 .byte   N02 ,Dn3
 .byte   W02
 .byte   N09 ,Cs3
 .byte   W10
 .byte   N05 ,Bn2
 .byte   W06
 .byte   As2
 .byte   W06
 .byte   N02 ,Dn3
 .byte   W02
 .byte   N09 ,Cs3
 .byte   W10
 .byte   N05 ,Bn2
 .byte   W06
 .byte   As2
 .byte   W06
@  #09 @045   ----------------------------------------
 .byte   N30 ,An2
 .byte   W32
 .byte   N07
 .byte   W08
 .byte   N07
 .byte   W08
 .byte   N02 ,As2
 .byte   W02
 .byte   N09 ,An2
 .byte   W10
 .byte   N05 ,Gn2
 .byte   W06
 .byte   Fs2
 .byte   W06
 .byte   N02 ,As2
 .byte   W02
 .byte   N09 ,An2
 .byte   W10
 .byte   N05 ,Gn2
 .byte   W06
 .byte   Fs2
 .byte   W06
@  #09 @046   ----------------------------------------
 .byte   N44 ,Fn2
 .byte   W48
 .byte   En2
 .byte   W48
@  #09 @047   ----------------------------------------
 .byte   Ds2
 .byte   W96
@  #09 @048   ----------------------------------------
 .byte   W96
@  #09 @049   ----------------------------------------
 .byte   W96
@  #09 @050   ----------------------------------------
 .byte   W96
@  #09 @051   ----------------------------------------
 .byte   W96
@  #09 @052   ----------------------------------------
 .byte   W96
@  #09 @053   ----------------------------------------
 .byte   W96
@  #09 @054   ----------------------------------------
 .byte   W96
@  #09 @055   ----------------------------------------
 .byte   W96
@  #09 @056   ----------------------------------------
 .byte   W48
 .byte   GOTO
  .word Label_0102769C
@  #09 @057   ----------------------------------------
 .byte   W48
 .byte   W96
@  #09 @058   ----------------------------------------
 .byte   W96
@  #09 @059   ----------------------------------------
 .byte   W11
 .byte   FINE

@**************** Track 10 (Midi-Chn.9) ****************@

song06_010:
@  #10 @000   ----------------------------------------
 .byte   KEYSH , song06_key+0
 .byte   VOICE , 121
 .byte   VOL , 47*song06_mvl/mxv
 .byte   PAN , c_v-9
 .byte   VOL , 47*song06_mvl/mxv
 .byte   PAN , c_v-5
 .byte   VOL , 47*song06_mvl/mxv
 .byte   PAN , c_v-5
 .byte   VOL , 47*song06_mvl/mxv
 .byte   PAN , c_v-5
 .byte   VOL , 47*song06_mvl/mxv
 .byte   PAN , c_v-5
 .byte   W96
@  #10 @001   ----------------------------------------
Label_0100B2A1:
 .byte   W60
 .byte   N11 ,Dn1 ,v036
 .byte   W12
 .byte   N23 ,Cn1 ,v052
 .byte   W12
 .byte   N03 ,Fs2 ,v016
 .byte   W04
 .byte   N03
 .byte   W04
 .byte   N03
 .byte   W04
 .byte   PEND 
@  #10 @002   ----------------------------------------
 .byte   N11
 .byte   W96
@  #10 @003   ----------------------------------------
 .byte   PATT
  .word Label_0100B2A1
@  #10 @004   ----------------------------------------
 .byte   N11 ,Fs2 ,v016
 .byte   W96
@  #10 @005   ----------------------------------------
 .byte   PATT
  .word Label_0100B2A1
@  #10 @006   ----------------------------------------
 .byte   N11 ,Fs2 ,v016
 .byte   W96
@  #10 @007   ----------------------------------------
 .byte   PATT
  .word Label_0100B2A1
@  #10 @008   ----------------------------------------
 .byte   N11 ,Fs2 ,v016
 .byte   W96
@  #10 @009   ----------------------------------------
 .byte   PATT
  .word Label_0100B2A1
@  #10 @010   ----------------------------------------
 .byte   N11 ,Fs2 ,v016
 .byte   W96
@  #10 @011   ----------------------------------------
 .byte   PATT
  .word Label_0100B2A1
@  #10 @012   ----------------------------------------
Label_0100B2DE:
 .byte   N11 ,Fs2 ,v016
 .byte   W60
 .byte   Dn1 ,v036
 .byte   W12
 .byte   N23 ,Cn1 ,v052
 .byte   W12
 .byte   N03 ,Fs2 ,v016
 .byte   W04
 .byte   N03
 .byte   W04
 .byte   N03
 .byte   W04
 .byte   PEND 
@  #10 @013   ----------------------------------------
 .byte   PATT
  .word Label_0100B2DE
@  #10 @014   ----------------------------------------
 .byte   PATT
  .word Label_0100B2DE
@  #10 @015   ----------------------------------------
 .byte   N11 ,Fs2 ,v016
 .byte   W24
 .byte   Dn1 ,v036
 .byte   W12
 .byte   N03 ,Fs2 ,v016
 .byte   W04
 .byte   N03
 .byte   W04
 .byte   N03
 .byte   W04
 .byte   N23
 .byte   W48
@  #10 @016   ----------------------------------------
 .byte   Cn1 ,v052
 .byte   W96
@  #10 @017   ----------------------------------------
 .byte   PATT
  .word Label_0100B2A1
@  #10 @018   ----------------------------------------
 .byte   N23 ,Fs2 ,v016
 .byte   W96
@  #10 @019   ----------------------------------------
 .byte   N11
 .byte   W60
 .byte   Dn1 ,v036
 .byte   W12
 .byte   N23 ,Cn1 ,v052
 .byte   N02 ,Gn2 ,v036
 .byte   W03
 .byte   Gn2 ,v040
 .byte   W03
 .byte   Gn2 ,v044
 .byte   W03
 .byte   Gn2 ,v052
 .byte   W03
 .byte   N03 ,Fs2 ,v016
 .byte   N02 ,Gn2 ,v056
 .byte   W03
 .byte   Gn2 ,v064
 .byte   W01
 .byte   N03 ,Fs2 ,v016
 .byte   W02
 .byte   N02 ,Gn2 ,v068
 .byte   W02
 .byte   N03 ,Fs2 ,v016
 .byte   W01
 .byte   N02 ,Gn2 ,v076
 .byte   W03
@  #10 @020   ----------------------------------------
 .byte   N23 ,Fs2 ,v016
 .byte   N23 ,Gn2 ,v080
 .byte   W96
@  #10 @021   ----------------------------------------
 .byte   W96
@  #10 @022   ----------------------------------------
 .byte   W96
@  #10 @023   ----------------------------------------
 .byte   W96
@  #10 @024   ----------------------------------------
 .byte   W96
@  #10 @025   ----------------------------------------
 .byte   W96
@  #10 @026   ----------------------------------------
 .byte   W96
@  #10 @027   ----------------------------------------
 .byte   W96
@  #10 @028   ----------------------------------------
 .byte   W96
@  #10 @029   ----------------------------------------
 .byte   W96
@  #10 @030   ----------------------------------------
 .byte   W96
@  #10 @031   ----------------------------------------
 .byte   W36
 .byte   N11 ,Dn1 ,v036
 .byte   W36
 .byte   N02 ,Gn2
 .byte   W03
 .byte   Gn2 ,v040
 .byte   W03
 .byte   Gn2 ,v044
 .byte   W03
 .byte   Gn2 ,v052
 .byte   W03
 .byte   Gn2 ,v056
 .byte   W03
 .byte   Gn2 ,v064
 .byte   W03
 .byte   Gn2 ,v068
 .byte   W03
 .byte   Gn2 ,v076
 .byte   W03
@  #10 @032   ----------------------------------------
 .byte   N23 ,Gn2 ,v080
 .byte   W96
@  #10 @033   ----------------------------------------
 .byte   W48
Label_0100B37B:
 .byte   W12
 .byte   N11 ,Dn1 ,v036
 .byte   W12
 .byte   N23 ,Cn1 ,v052
 .byte   W12
 .byte   N03 ,Fs2 ,v016
 .byte   W04
 .byte   N03
 .byte   W04
 .byte   N03
 .byte   W04
@  #10 @034   ----------------------------------------
 .byte   N23
 .byte   W96
@  #10 @035   ----------------------------------------
 .byte   PATT
  .word Label_0100B2A1
@  #10 @036   ----------------------------------------
 .byte   N23 ,Fs2 ,v016
 .byte   W96
@  #10 @037   ----------------------------------------
 .byte   PATT
  .word Label_0100B2A1
@  #10 @038   ----------------------------------------
 .byte   N23 ,Fs2 ,v016
 .byte   W96
@  #10 @039   ----------------------------------------
 .byte   PATT
  .word Label_0100B2A1
@  #10 @040   ----------------------------------------
 .byte   N23 ,Fs2 ,v016
 .byte   W96
@  #10 @041   ----------------------------------------
 .byte   PATT
  .word Label_0100B2A1
@  #10 @042   ----------------------------------------
 .byte   N23 ,Fs2 ,v016
 .byte   W96
@  #10 @043   ----------------------------------------
 .byte   W96
@  #10 @044   ----------------------------------------
 .byte   Cn1 ,v112
 .byte   N23 ,Cs2 ,v080
 .byte   N23 ,An2
 .byte   W48
 .byte   Cn1 ,v112
 .byte   N23 ,An2 ,v080
 .byte   W12
 .byte   N11 ,Dn1 ,v096
 .byte   W24
 .byte   N03 ,Fs2
 .byte   W04
 .byte   N03
 .byte   W04
 .byte   N03
 .byte   W04
@  #10 @045   ----------------------------------------
Label_0100B3CC:
 .byte   N23 ,Cn1 ,v112
 .byte   N11 ,Fs2 ,v096
 .byte   N23 ,An2 ,v080
 .byte   W48
 .byte   Cn1 ,v112
 .byte   N23 ,An2 ,v080
 .byte   W12
 .byte   N11 ,Dn1 ,v096
 .byte   W24
 .byte   N03 ,Fs2
 .byte   W04
 .byte   N03
 .byte   W04
 .byte   N03
 .byte   W04
 .byte   PEND 
@  #10 @046   ----------------------------------------
 .byte   PATT
  .word Label_0100B3CC
@  #10 @047   ----------------------------------------
 .byte   N23 ,Cn1 ,v112
 .byte   N11 ,Fs2 ,v096
 .byte   N23 ,An2 ,v080
 .byte   W24
 .byte   N11 ,Dn1 ,v096
 .byte   W12
 .byte   N03 ,Fs2
 .byte   W04
 .byte   N03
 .byte   W04
 .byte   N03
 .byte   W04
 .byte   N23 ,Cn1 ,v112
 .byte   N23 ,Fs2 ,v096
 .byte   N23 ,An2 ,v080
 .byte   W48
@  #10 @048   ----------------------------------------
 .byte   W96
@  #10 @049   ----------------------------------------
 .byte   W96
@  #10 @050   ----------------------------------------
 .byte   W96
@  #10 @051   ----------------------------------------
 .byte   W96
@  #10 @052   ----------------------------------------
 .byte   W96
@  #10 @053   ----------------------------------------
 .byte   W96
@  #10 @054   ----------------------------------------
 .byte   W96
@  #10 @055   ----------------------------------------
 .byte   W96
@  #10 @056   ----------------------------------------
 .byte   W48
 .byte   GOTO
  .word Label_0100B37B
@  #10 @057   ----------------------------------------
 .byte   W12
 .byte   N11 ,Dn1 ,v016
 .byte   W12
 .byte   N23 ,Cn1
 .byte   W12
 .byte   N03 ,Fs2
 .byte   W04
 .byte   N03
 .byte   W04
 .byte   N03
 .byte   W04
 .byte   N23
 .byte   W96
@  #10 @058   ----------------------------------------
 .byte   W96
@  #10 @059   ----------------------------------------
 .byte   W11
 .byte   FINE

@**************** Track 11 (Midi-Chn.10) ****************@

song06_011:
@  #11 @000   ----------------------------------------
 .byte   KEYSH , song06_key+0
 .byte   VOICE , 29
 .byte   VOL , 17*song06_mvl/mxv
 .byte   PAN , c_v+20
 .byte   W96
@  #11 @001   ----------------------------------------
 .byte   W96
@  #11 @002   ----------------------------------------
 .byte   W96
@  #11 @003   ----------------------------------------
 .byte   W96
@  #11 @004   ----------------------------------------
 .byte   W96
@  #11 @005   ----------------------------------------
 .byte   W96
@  #11 @006   ----------------------------------------
 .byte   W96
@  #11 @007   ----------------------------------------
 .byte   W96
@  #11 @008   ----------------------------------------
 .byte   W96
@  #11 @009   ----------------------------------------
 .byte   W96
@  #11 @010   ----------------------------------------
 .byte   W96
@  #11 @011   ----------------------------------------
 .byte   W96
@  #11 @012   ----------------------------------------
 .byte   W96
@  #11 @013   ----------------------------------------
 .byte   W96
@  #11 @014   ----------------------------------------
 .byte   W96
@  #11 @015   ----------------------------------------
 .byte   W96
@  #11 @016   ----------------------------------------
 .byte   W96
@  #11 @017   ----------------------------------------
 .byte   W96
@  #11 @018   ----------------------------------------
 .byte   W96
@  #11 @019   ----------------------------------------
 .byte   W96
@  #11 @020   ----------------------------------------
 .byte   W96
@  #11 @021   ----------------------------------------
 .byte   W96
@  #11 @022   ----------------------------------------
 .byte   W96
@  #11 @023   ----------------------------------------
 .byte   W96
@  #11 @024   ----------------------------------------
 .byte   W96
@  #11 @025   ----------------------------------------
 .byte   W96
@  #11 @026   ----------------------------------------
 .byte   W96
@  #11 @027   ----------------------------------------
 .byte   W96
@  #11 @028   ----------------------------------------
 .byte   W96
@  #11 @029   ----------------------------------------
 .byte   W96
@  #11 @030   ----------------------------------------
 .byte   W96
@  #11 @031   ----------------------------------------
 .byte   W96
@  #11 @032   ----------------------------------------
 .byte   W96
@  #11 @033   ----------------------------------------
 .byte   W48
Label_01027952:
 .byte   W48
@  #11 @034   ----------------------------------------
 .byte   W96
@  #11 @035   ----------------------------------------
 .byte   W96
@  #11 @036   ----------------------------------------
 .byte   W96
@  #11 @037   ----------------------------------------
 .byte   W96
@  #11 @038   ----------------------------------------
 .byte   W96
@  #11 @039   ----------------------------------------
 .byte   W96
@  #11 @040   ----------------------------------------
 .byte   W96
@  #11 @041   ----------------------------------------
 .byte   W96
@  #11 @042   ----------------------------------------
 .byte   W96
@  #11 @043   ----------------------------------------
 .byte   W96
@  #11 @044   ----------------------------------------
 .byte   N32 ,Cs4 ,v112
 .byte   N32 ,Cs5
 .byte   W36
 .byte   N05 ,Cs4
 .byte   N05 ,Cs5
 .byte   W06
 .byte   Cs4
 .byte   N05 ,Cs5
 .byte   W06
 .byte   N11 ,Cs4
 .byte   N11 ,Cs5
 .byte   W12
 .byte   N05 ,Cn4
 .byte   N05 ,Cn5
 .byte   W06
 .byte   As3
 .byte   N05 ,As4
 .byte   W06
 .byte   N11 ,Cs4
 .byte   N11 ,Cs5
 .byte   W12
 .byte   N05 ,Cn4
 .byte   N05 ,Cn5
 .byte   W06
 .byte   As3
 .byte   N05 ,As4
 .byte   W06
@  #11 @045   ----------------------------------------
 .byte   N32 ,An3
 .byte   N32 ,An4
 .byte   W36
 .byte   N05 ,An3
 .byte   N05 ,An4
 .byte   W06
 .byte   An3
 .byte   N05 ,An4
 .byte   W06
 .byte   N11 ,An3
 .byte   N11 ,An4
 .byte   W12
 .byte   N05 ,Gs3
 .byte   N05 ,Gs4
 .byte   W06
 .byte   Fs3
 .byte   N05 ,Fs4
 .byte   W06
 .byte   N11 ,An3
 .byte   N11 ,An4
 .byte   W12
 .byte   N05 ,Gs3
 .byte   N05 ,Gs4
 .byte   W06
 .byte   Fs3
 .byte   N05 ,Fs4
 .byte   W06
@  #11 @046   ----------------------------------------
 .byte   N44 ,Fn3
 .byte   N44 ,Fn4
 .byte   W48
 .byte   En3
 .byte   N44 ,En4
 .byte   W48
@  #11 @047   ----------------------------------------
 .byte   Ds3
 .byte   N44 ,Ds4
 .byte   W96
@  #11 @048   ----------------------------------------
 .byte   W96
@  #11 @049   ----------------------------------------
 .byte   W96
@  #11 @050   ----------------------------------------
 .byte   W96
@  #11 @051   ----------------------------------------
 .byte   W96
@  #11 @052   ----------------------------------------
 .byte   W96
@  #11 @053   ----------------------------------------
 .byte   W96
@  #11 @054   ----------------------------------------
 .byte   W96
@  #11 @055   ----------------------------------------
 .byte   W96
@  #11 @056   ----------------------------------------
 .byte   W48
 .byte   GOTO
  .word Label_01027952
@  #11 @057   ----------------------------------------
 .byte   W48
 .byte   W96
@  #11 @058   ----------------------------------------
 .byte   W96
@  #11 @059   ----------------------------------------
 .byte   W11
 .byte   FINE

@**************** Track 12 (Midi-Chn.11) ****************@

song06_012:
@  #12 @000   ----------------------------------------
 .byte   KEYSH , song06_key+0
 .byte   VOICE , 1
 .byte   VOL , 47*song06_mvl/mxv
 .byte   PAN , c_v+0
 .byte   W96
@  #12 @001   ----------------------------------------
 .byte   W96
@  #12 @002   ----------------------------------------
 .byte   W96
@  #12 @003   ----------------------------------------
 .byte   W96
@  #12 @004   ----------------------------------------
 .byte   W96
@  #12 @005   ----------------------------------------
 .byte   W96
@  #12 @006   ----------------------------------------
 .byte   W96
@  #12 @007   ----------------------------------------
 .byte   W96
@  #12 @008   ----------------------------------------
 .byte   W96
@  #12 @009   ----------------------------------------
 .byte   W96
@  #12 @010   ----------------------------------------
 .byte   W96
@  #12 @011   ----------------------------------------
 .byte   W96
@  #12 @012   ----------------------------------------
 .byte   W96
@  #12 @013   ----------------------------------------
 .byte   W96
@  #12 @014   ----------------------------------------
 .byte   W96
@  #12 @015   ----------------------------------------
 .byte   W96
@  #12 @016   ----------------------------------------
 .byte   W96
@  #12 @017   ----------------------------------------
 .byte   W96
@  #12 @018   ----------------------------------------
 .byte   W96
@  #12 @019   ----------------------------------------
 .byte   W96
@  #12 @020   ----------------------------------------
 .byte   W96
@  #12 @021   ----------------------------------------
 .byte   W96
@  #12 @022   ----------------------------------------
 .byte   W96
@  #12 @023   ----------------------------------------
 .byte   W96
@  #12 @024   ----------------------------------------
 .byte   W96
@  #12 @025   ----------------------------------------
 .byte   W96
@  #12 @026   ----------------------------------------
 .byte   W96
@  #12 @027   ----------------------------------------
 .byte   W96
@  #12 @028   ----------------------------------------
 .byte   W96
@  #12 @029   ----------------------------------------
 .byte   W96
@  #12 @030   ----------------------------------------
 .byte   W96
@  #12 @031   ----------------------------------------
 .byte   W96
@  #12 @032   ----------------------------------------
Label_0100B480:
 .byte   W24
 .byte   N05 ,Gs2 ,v080
 .byte   N05 ,Bn2
 .byte   W24
 .byte   N11 ,Ds2
 .byte   W24
 .byte   N05 ,Gn2
 .byte   N05 ,Bn2
 .byte   W24
 .byte   PEND 
@  #12 @033   ----------------------------------------
 .byte   N11 ,Gs1
 .byte   W12
 .byte   Gs2
 .byte   N11 ,Bn2
 .byte   W12
 .byte   Ds2
 .byte   W12
 .byte   Gn2
 .byte   N11 ,Bn2
 .byte   W12
Label_0100B49D:
 .byte   W48
@  #12 @034   ----------------------------------------
 .byte   PATT
  .word Label_0100B480
@  #12 @035   ----------------------------------------
 .byte   N11 ,Gs1 ,v080
 .byte   W12
 .byte   Gs2
 .byte   N11 ,Bn2
 .byte   W12
 .byte   Ds2
 .byte   W12
 .byte   Gn2
 .byte   N11 ,Bn2
 .byte   W60
@  #12 @036   ----------------------------------------
Label_0100B4B1:
 .byte   W24
 .byte   N05 ,Gs2 ,v080
 .byte   N05 ,Bn2
 .byte   W24
 .byte   N11 ,Ds2
 .byte   W24
 .byte   N05 ,Gn2
 .byte   N05 ,Bn2
 .byte   W24
 .byte   PEND 
@  #12 @037   ----------------------------------------
Label_0100B4C1:
 .byte   N11 ,Gs1 ,v080
 .byte   W12
 .byte   Gs2
 .byte   N11 ,Bn2
 .byte   W12
 .byte   Ds2
 .byte   W12
 .byte   Gn2
 .byte   N11 ,Bn2
 .byte   W60
 .byte   PEND 
@  #12 @038   ----------------------------------------
 .byte   W24
 .byte   N05 ,As2
 .byte   N05 ,Ds3
 .byte   W24
 .byte   N11 ,Dn2
 .byte   W24
 .byte   N05 ,As2
 .byte   N05 ,Ds3
 .byte   W24
@  #12 @039   ----------------------------------------
Label_0100B4DE:
 .byte   N11 ,Gn1 ,v080
 .byte   W12
 .byte   As2
 .byte   N11 ,Ds3
 .byte   W12
 .byte   Dn2
 .byte   W12
 .byte   Gn2
 .byte   N11 ,As2
 .byte   N11 ,Dn3
 .byte   W60
 .byte   PEND 
@  #12 @040   ----------------------------------------
 .byte   PATT
  .word Label_0100B4B1
@  #12 @041   ----------------------------------------
 .byte   PATT
  .word Label_0100B4C1
@  #12 @042   ----------------------------------------
 .byte   W24
 .byte   N05 ,As2 ,v080
 .byte   N05 ,Ds3
 .byte   W24
 .byte   N11 ,Dn2
 .byte   W24
 .byte   N05 ,As2
 .byte   N05 ,Ds3
 .byte   W24
@  #12 @043   ----------------------------------------
 .byte   PATT
  .word Label_0100B4DE
@  #12 @044   ----------------------------------------
 .byte   W96
@  #12 @045   ----------------------------------------
 .byte   W96
@  #12 @046   ----------------------------------------
 .byte   W96
@  #12 @047   ----------------------------------------
 .byte   W96
@  #12 @048   ----------------------------------------
 .byte   N23 ,Cn2 ,v052
 .byte   N23 ,Fs2
 .byte   N23 ,As2
 .byte   W48
 .byte   Cn2
 .byte   N23 ,Fs2
 .byte   N23 ,As2
 .byte   W48
@  #12 @049   ----------------------------------------
 .byte   Cn2
 .byte   N23 ,Fs2
 .byte   N23 ,As2
 .byte   W24
 .byte   Cn2
 .byte   N23 ,Fs2
 .byte   N23 ,As2
 .byte   W24
 .byte   Cn2
 .byte   N23 ,Fs2
 .byte   N23 ,As2
 .byte   W24
 .byte   Cn2
 .byte   N23 ,Fs2
 .byte   N23 ,As2
 .byte   W24
@  #12 @050   ----------------------------------------
 .byte   N15 ,Cn2
 .byte   N15 ,Fs2
 .byte   N15 ,As2
 .byte   W16
 .byte   Cn2
 .byte   N15 ,Fs2
 .byte   N15 ,As2
 .byte   W16
 .byte   Cn2
 .byte   N15 ,Fs2
 .byte   N15 ,As2
 .byte   W16
 .byte   Cn2
 .byte   N15 ,Fs2
 .byte   N15 ,As2
 .byte   W16
 .byte   Cn2
 .byte   N15 ,Fs2
 .byte   N15 ,As2
 .byte   W16
 .byte   Cn2
 .byte   N15 ,Fs2
 .byte   N15 ,As2
 .byte   W16
@  #12 @051   ----------------------------------------
 .byte   N11 ,Cn2
 .byte   N11 ,Fs2
 .byte   N11 ,As2
 .byte   W12
 .byte   Cn2
 .byte   N11 ,Fs2
 .byte   N11 ,As2
 .byte   W12
 .byte   Cn2
 .byte   N11 ,Fs2
 .byte   N11 ,As2
 .byte   W12
 .byte   Cn2
 .byte   N11 ,Fs2
 .byte   N11 ,As2
 .byte   W12
 .byte   Cn2
 .byte   N11 ,Fs2
 .byte   N11 ,As2
 .byte   W12
 .byte   Cn2
 .byte   N11 ,Fs2
 .byte   N11 ,As2
 .byte   W12
 .byte   Cn2
 .byte   N11 ,Fs2
 .byte   N11 ,As2
 .byte   W12
 .byte   Cn2
 .byte   N11 ,Fs2
 .byte   N11 ,As2
 .byte   W12
@  #12 @052   ----------------------------------------
 .byte   N07 ,Cn2
 .byte   N07 ,Fs2
 .byte   N07 ,As2
 .byte   W08
 .byte   Cn2
 .byte   N07 ,Fs2
 .byte   N07 ,As2
 .byte   W08
 .byte   Cn2
 .byte   N07 ,Fs2
 .byte   N07 ,As2
 .byte   W08
 .byte   Cn2
 .byte   N07 ,Fs2
 .byte   N07 ,As2
 .byte   W08
 .byte   Cn2
 .byte   N07 ,Fs2
 .byte   N07 ,As2
 .byte   W08
 .byte   Cn2
 .byte   N07 ,Fs2
 .byte   N07 ,As2
 .byte   W08
 .byte   Cn2
 .byte   N07 ,Fs2
 .byte   N07 ,As2
 .byte   W08
 .byte   Cn2
 .byte   N07 ,Fs2
 .byte   N07 ,As2
 .byte   W08
 .byte   Cn2
 .byte   N07 ,Fs2
 .byte   N07 ,As2
 .byte   W08
 .byte   Cn2
 .byte   N07 ,Fs2
 .byte   N07 ,As2
 .byte   W08
 .byte   Cn2
 .byte   N07 ,Fs2
 .byte   N07 ,As2
 .byte   W08
 .byte   Cn2
 .byte   N07 ,Fs2
 .byte   N07 ,As2
 .byte   W08
@  #12 @053   ----------------------------------------
 .byte   N23 ,Cn2
 .byte   N23 ,Fs2
 .byte   N23 ,As2
 .byte   W96
@  #12 @054   ----------------------------------------
 .byte   W96
@  #12 @055   ----------------------------------------
Label_0100B5DE:
 .byte   N05 ,Gs1 ,v052
 .byte   W24
 .byte   Gs2
 .byte   N05 ,Bn2
 .byte   W24
 .byte   N11 ,Ds2
 .byte   W24
 .byte   N05 ,Gn2
 .byte   N05 ,Bn2
 .byte   W24
 .byte   PEND 
@  #12 @056   ----------------------------------------
 .byte   N11 ,Gs1
 .byte   W12
 .byte   Gs2
 .byte   N11 ,Bn2
 .byte   W12
 .byte   Ds2
 .byte   W12
 .byte   Gn2
 .byte   N11 ,Bn2
 .byte   W12
 .byte   GOTO
  .word Label_0100B49D
@  #12 @057   ----------------------------------------
 .byte   W48
@  #12 @058   ----------------------------------------
 .byte   PATT
  .word Label_0100B5DE
@  #12 @059   ----------------------------------------
 .byte   N11 ,Gs1 ,v052
 .byte   W12
 .byte   Gs2
 .byte   N11 ,Bn2
 .byte   W12
 .byte   Ds2
 .byte   W12
 .byte   Gn2
 .byte   N11 ,Bn2
 .byte   W60
@  #12 @060   ----------------------------------------
 .byte   Gs1
 .byte   W11
 .byte   FINE

@**************** Track 13 (Midi-Chn.12) ****************@

song06_013:
@  #13 @000   ----------------------------------------
 .byte   KEYSH , song06_key+0
 .byte   VOICE , 56
 .byte   VOL , 47*song06_mvl/mxv
 .byte   PAN , c_v+10
 .byte   W96
@  #13 @001   ----------------------------------------
 .byte   W96
@  #13 @002   ----------------------------------------
 .byte   W96
@  #13 @003   ----------------------------------------
 .byte   W96
@  #13 @004   ----------------------------------------
 .byte   W96
@  #13 @005   ----------------------------------------
 .byte   W96
@  #13 @006   ----------------------------------------
 .byte   W96
@  #13 @007   ----------------------------------------
 .byte   W96
@  #13 @008   ----------------------------------------
 .byte   W96
@  #13 @009   ----------------------------------------
 .byte   W96
@  #13 @010   ----------------------------------------
 .byte   W96
@  #13 @011   ----------------------------------------
 .byte   W96
@  #13 @012   ----------------------------------------
 .byte   W96
@  #13 @013   ----------------------------------------
 .byte   W96
@  #13 @014   ----------------------------------------
 .byte   W96
@  #13 @015   ----------------------------------------
 .byte   W96
@  #13 @016   ----------------------------------------
 .byte   W96
@  #13 @017   ----------------------------------------
 .byte   W96
@  #13 @018   ----------------------------------------
 .byte   W96
@  #13 @019   ----------------------------------------
 .byte   W96
@  #13 @020   ----------------------------------------
 .byte   W96
@  #13 @021   ----------------------------------------
 .byte   W96
@  #13 @022   ----------------------------------------
 .byte   W96
@  #13 @023   ----------------------------------------
 .byte   W96
@  #13 @024   ----------------------------------------
 .byte   W96
@  #13 @025   ----------------------------------------
 .byte   W96
@  #13 @026   ----------------------------------------
 .byte   W96
@  #13 @027   ----------------------------------------
 .byte   W96
@  #13 @028   ----------------------------------------
 .byte   W96
@  #13 @029   ----------------------------------------
 .byte   W96
@  #13 @030   ----------------------------------------
 .byte   W96
@  #13 @031   ----------------------------------------
 .byte   W96
@  #13 @032   ----------------------------------------
 .byte   W96
@  #13 @033   ----------------------------------------
 .byte   W48
Label_010232E6:
 .byte   W48
@  #13 @034   ----------------------------------------
 .byte   W96
@  #13 @035   ----------------------------------------
 .byte   W96
@  #13 @036   ----------------------------------------
 .byte   W96
@  #13 @037   ----------------------------------------
 .byte   W96
@  #13 @038   ----------------------------------------
 .byte   W96
@  #13 @039   ----------------------------------------
 .byte   W96
@  #13 @040   ----------------------------------------
 .byte   W96
@  #13 @041   ----------------------------------------
 .byte   W96
@  #13 @042   ----------------------------------------
 .byte   W96
@  #13 @043   ----------------------------------------
 .byte   W96
@  #13 @044   ----------------------------------------
 .byte   W24
 .byte   N11 ,As3 ,v096
 .byte   W48
 .byte   N23
 .byte   W24
@  #13 @045   ----------------------------------------
 .byte   W24
 .byte   N11 ,An3
 .byte   W48
 .byte   N23
 .byte   W24
@  #13 @046   ----------------------------------------
 .byte   W24
 .byte   N11 ,Dn4
 .byte   W48
 .byte   N23
 .byte   W24
@  #13 @047   ----------------------------------------
 .byte   W24
 .byte   Ds4
 .byte   W24
 .byte   N11
 .byte   W48
@  #13 @048   ----------------------------------------
 .byte   W96
@  #13 @049   ----------------------------------------
 .byte   W96
@  #13 @050   ----------------------------------------
 .byte   W96
@  #13 @051   ----------------------------------------
 .byte   W96
@  #13 @052   ----------------------------------------
 .byte   W96
@  #13 @053   ----------------------------------------
 .byte   W96
@  #13 @054   ----------------------------------------
 .byte   W96
@  #13 @055   ----------------------------------------
 .byte   W96
@  #13 @056   ----------------------------------------
 .byte   W48
 .byte   GOTO
  .word Label_010232E6
@  #13 @057   ----------------------------------------
 .byte   W48
 .byte   W96
@  #13 @058   ----------------------------------------
 .byte   W96
@  #13 @059   ----------------------------------------
 .byte   W11
 .byte   FINE

@******************************************************@
	.align	2

song06:
	.byte	13	@ NumTrks
	.byte	0	@ NumBlks
	.byte	song06_pri	@ Priority
	.byte	song06_rev	@ Reverb.
    
	.word	song06_grp
    
	.word	song06_001
	.word	song06_002
	.word	song06_003
	.word	song06_004
	.word	song06_005
	.word	song06_006
	.word	song06_007
	.word	song06_008
	.word	song06_009
	.word	song06_010
	.word	song06_011
	.word	song06_012
	.word	song06_013

	.end
