	.include "MPlayDef.s"

	.equ	song1C_grp, voicegroup000
	.equ	song1C_pri, 0
	.equ	song1C_rev, 0
	.equ	song1C_mvl, 127
	.equ	song1C_key, 0
	.equ	song1C_tbs, 1
	.equ	song1C_exg, 0
	.equ	song1C_cmp, 1

	.section .rodata
	.global	song1C
	.align	2


@**************** Track 1 (Midi-Chn.0) ****************@

song1C_001:
@  #01 @000   ----------------------------------------
 .byte   KEYSH , song1C_key+0
 .byte   TEMPO , 184*song1C_tbs/2
 .byte   VOICE , 33
 .byte   MODT 0
 .byte   LFOS 44
 .byte   VOL , 48*song1C_mvl/mxv
 .byte   PAN , c_v+0
 .byte   N24 ,As2 ,v127
 .byte   W36
 .byte   N12
 .byte   W24
 .byte   N12
 .byte   W36
@  #01 @001   ----------------------------------------
Label_010366CA:
 .byte   W12
 .byte   N24 ,Bn2 ,v127
 .byte   W36
 .byte   N12 ,Gs2
 .byte   W24
 .byte   N12
 .byte   W24
 .byte   PEND 
@  #01 @002   ----------------------------------------
Label_010366D5:
 .byte   N24 ,As2 ,v127
 .byte   W36
 .byte   N12
 .byte   W24
 .byte   N12
 .byte   W36
 .byte   PEND 
@  #01 @003   ----------------------------------------
 .byte   PATT
  .word Label_010366CA
@  #01 @004   ----------------------------------------
Label_010366E3:
@  #01 @005   ----------------------------------------
 .byte   PATT
  .word Label_010366D5
@  #01 @006   ----------------------------------------
 .byte   PATT
  .word Label_010366CA
@  #01 @007   ----------------------------------------
 .byte   PATT
  .word Label_010366D5
@  #01 @008   ----------------------------------------
 .byte   PATT
  .word Label_010366CA
@  #01 @009   ----------------------------------------
 .byte   PATT
  .word Label_010366D5
@  #01 @010   ----------------------------------------
 .byte   PATT
  .word Label_010366CA
@  #01 @011   ----------------------------------------
 .byte   PATT
  .word Label_010366D5
@  #01 @012   ----------------------------------------
Label_01036706:
 .byte   W12
 .byte   N24 ,Bn2 ,v127
 .byte   W36
 .byte   N12 ,Ds3
 .byte   W24
 .byte   Dn3
 .byte   W24
 .byte   PEND 
@  #01 @013   ----------------------------------------
 .byte   PATT
  .word Label_010366D5
@  #01 @014   ----------------------------------------
 .byte   PATT
  .word Label_010366CA
@  #01 @015   ----------------------------------------
 .byte   PATT
  .word Label_010366D5
@  #01 @016   ----------------------------------------
 .byte   PATT
  .word Label_010366CA
@  #01 @017   ----------------------------------------
 .byte   PATT
  .word Label_010366D5
@  #01 @018   ----------------------------------------
 .byte   PATT
  .word Label_010366CA
@  #01 @019   ----------------------------------------
 .byte   PATT
  .word Label_010366D5
@  #01 @020   ----------------------------------------
 .byte   PATT
  .word Label_010366CA
@  #01 @021   ----------------------------------------
 .byte   PATT
  .word Label_010366D5
@  #01 @022   ----------------------------------------
 .byte   PATT
  .word Label_010366CA
@  #01 @023   ----------------------------------------
 .byte   PATT
  .word Label_010366D5
@  #01 @024   ----------------------------------------
 .byte   PATT
  .word Label_01036706
@  #01 @025   ----------------------------------------
Label_0103674D:
 .byte   N24 ,Bn2 ,v127
 .byte   W36
 .byte   N12
 .byte   W24
 .byte   N12
 .byte   W36
 .byte   PEND 
@  #01 @026   ----------------------------------------
Label_01036756:
 .byte   W12
 .byte   N24 ,Cn3 ,v127
 .byte   W36
 .byte   N12 ,An2
 .byte   W24
 .byte   N12
 .byte   W24
 .byte   PEND 
@  #01 @027   ----------------------------------------
 .byte   PATT
  .word Label_0103674D
@  #01 @028   ----------------------------------------
 .byte   PATT
  .word Label_01036756
@  #01 @029   ----------------------------------------
 .byte   PATT
  .word Label_0103674D
@  #01 @030   ----------------------------------------
 .byte   PATT
  .word Label_01036756
@  #01 @031   ----------------------------------------
 .byte   PATT
  .word Label_0103674D
@  #01 @032   ----------------------------------------
Label_0103677A:
 .byte   W12
 .byte   N24 ,Cn3 ,v127
 .byte   W36
 .byte   N12 ,En3
 .byte   W24
 .byte   Ds3
 .byte   W24
 .byte   PEND 
@  #01 @033   ----------------------------------------
 .byte   PATT
  .word Label_0103674D
@  #01 @034   ----------------------------------------
 .byte   PATT
  .word Label_01036756
@  #01 @035   ----------------------------------------
 .byte   PATT
  .word Label_0103674D
@  #01 @036   ----------------------------------------
 .byte   PATT
  .word Label_01036756
@  #01 @037   ----------------------------------------
 .byte   PATT
  .word Label_0103674D
@  #01 @038   ----------------------------------------
 .byte   PATT
  .word Label_01036756
@  #01 @039   ----------------------------------------
 .byte   PATT
  .word Label_0103674D
@  #01 @040   ----------------------------------------
 .byte   PATT
  .word Label_0103677A
@  #01 @041   ----------------------------------------
 .byte   PATT
  .word Label_0103674D
@  #01 @042   ----------------------------------------
 .byte   PATT
  .word Label_01036756
@  #01 @043   ----------------------------------------
 .byte   PATT
  .word Label_0103674D
@  #01 @044   ----------------------------------------
 .byte   PATT
  .word Label_01036756
@  #01 @045   ----------------------------------------
 .byte   PATT
  .word Label_0103674D
@  #01 @046   ----------------------------------------
 .byte   PATT
  .word Label_01036756
@  #01 @047   ----------------------------------------
 .byte   PATT
  .word Label_0103674D
@  #01 @048   ----------------------------------------
 .byte   PATT
  .word Label_0103677A
@  #01 @049   ----------------------------------------
 .byte   PATT
  .word Label_010366D5
@  #01 @050   ----------------------------------------
 .byte   PATT
  .word Label_010366CA
@  #01 @051   ----------------------------------------
 .byte   PATT
  .word Label_010366D5
@  #01 @052   ----------------------------------------
 .byte   PATT
  .word Label_01036706
@  #01 @053   ----------------------------------------
 .byte   PATT
  .word Label_010366D5
@  #01 @054   ----------------------------------------
 .byte   PATT
  .word Label_010366CA
@  #01 @055   ----------------------------------------
 .byte   PATT
  .word Label_010366D5
@  #01 @056   ----------------------------------------
 .byte   PATT
  .word Label_010366CA
@  #01 @057   ----------------------------------------
 .byte   PATT
  .word Label_010366D5
@  #01 @058   ----------------------------------------
 .byte   PATT
  .word Label_010366CA
@  #01 @059   ----------------------------------------
 .byte   PATT
  .word Label_010366D5
@  #01 @060   ----------------------------------------
 .byte   PATT
  .word Label_01036706
@  #01 @061   ----------------------------------------
 .byte   GOTO
  .word Label_010366E3
 .byte   FINE

@**************** Track 2 (Midi-Chn.1) ****************@

song1C_002:
@  #02 @000   ----------------------------------------
 .byte   KEYSH , song1C_key+0
 .byte   VOICE , 30
 .byte   MODT 0
 .byte   LFOS 44
 .byte   VOL , 62*song1C_mvl/mxv
 .byte   PAN , c_v-1
 .byte   W96
@  #02 @001   ----------------------------------------
 .byte   W96
@  #02 @002   ----------------------------------------
 .byte   W96
@  #02 @003   ----------------------------------------
 .byte   W96
@  #02 @004   ----------------------------------------
Label_0103690C:
 .byte   N16 ,As1 ,v100
 .byte   N16 ,Fn2
 .byte   W24
 .byte   N08 ,As1
 .byte   N08 ,Fn2
 .byte   W12
 .byte   As1
 .byte   N08 ,Fn2
 .byte   W24
 .byte   As1
 .byte   N08 ,Fn2
 .byte   W24
 .byte   As1
 .byte   N08 ,Fn2
 .byte   W12
@  #02 @005   ----------------------------------------
Label_01036923:
 .byte   W12
 .byte   N08 ,Bn1 ,v100
 .byte   N08 ,Fs2
 .byte   W24
 .byte   Bn1
 .byte   N08 ,Fs2
 .byte   W12
 .byte   Bn1
 .byte   N08 ,Fs2
 .byte   W12
 .byte   Bn1
 .byte   N08 ,Fs2
 .byte   W12
 .byte   Gs1
 .byte   N08 ,Ds2
 .byte   W12
 .byte   Gs1
 .byte   N08 ,Ds2
 .byte   W12
 .byte   PEND 
@  #02 @006   ----------------------------------------
Label_0103693F:
 .byte   N08 ,As1 ,v100
 .byte   N08 ,Fn2
 .byte   W24
 .byte   As1
 .byte   N08 ,Fn2
 .byte   W12
 .byte   As1
 .byte   N08 ,Fn2
 .byte   W24
 .byte   As1
 .byte   N08 ,Fn2
 .byte   W24
 .byte   As1
 .byte   N08 ,Fn2
 .byte   W12
 .byte   PEND 
@  #02 @007   ----------------------------------------
 .byte   PATT
  .word Label_01036923
@  #02 @008   ----------------------------------------
 .byte   PATT
  .word Label_0103693F
@  #02 @009   ----------------------------------------
 .byte   PATT
  .word Label_01036923
@  #02 @010   ----------------------------------------
 .byte   PATT
  .word Label_0103693F
@  #02 @011   ----------------------------------------
 .byte   PATT
  .word Label_01036923
@  #02 @012   ----------------------------------------
 .byte   PATT
  .word Label_0103693F
@  #02 @013   ----------------------------------------
 .byte   PATT
  .word Label_01036923
@  #02 @014   ----------------------------------------
 .byte   PATT
  .word Label_0103693F
@  #02 @015   ----------------------------------------
 .byte   PATT
  .word Label_01036923
@  #02 @016   ----------------------------------------
 .byte   PATT
  .word Label_0103693F
@  #02 @017   ----------------------------------------
 .byte   PATT
  .word Label_01036923
@  #02 @018   ----------------------------------------
 .byte   PATT
  .word Label_0103693F
@  #02 @019   ----------------------------------------
 .byte   PATT
  .word Label_01036923
@  #02 @020   ----------------------------------------
 .byte   PATT
  .word Label_0103693F
@  #02 @021   ----------------------------------------
 .byte   PATT
  .word Label_01036923
@  #02 @022   ----------------------------------------
 .byte   PATT
  .word Label_0103693F
@  #02 @023   ----------------------------------------
 .byte   PATT
  .word Label_01036923
@  #02 @024   ----------------------------------------
Label_010369AB:
 .byte   N08 ,Bn1 ,v100
 .byte   N08 ,Fs2
 .byte   W24
 .byte   Bn1
 .byte   N08 ,Fs2
 .byte   W12
 .byte   Bn1
 .byte   N08 ,Fs2
 .byte   W24
 .byte   Bn1
 .byte   N08 ,Fs2
 .byte   W24
 .byte   Bn1
 .byte   N08 ,Fs2
 .byte   W12
 .byte   PEND 
@  #02 @025   ----------------------------------------
Label_010369C2:
 .byte   W12
 .byte   N08 ,Cn2 ,v100
 .byte   N08 ,Gn2
 .byte   W24
 .byte   Cn2
 .byte   N08 ,Gn2
 .byte   W12
 .byte   Cn2
 .byte   N08 ,Gn2
 .byte   W12
 .byte   Cn2
 .byte   N08 ,Gn2
 .byte   W12
 .byte   An1
 .byte   N08 ,En2
 .byte   W12
 .byte   An1
 .byte   N08 ,En2
 .byte   W12
 .byte   PEND 
@  #02 @026   ----------------------------------------
 .byte   PATT
  .word Label_010369AB
@  #02 @027   ----------------------------------------
 .byte   PATT
  .word Label_010369C2
@  #02 @028   ----------------------------------------
 .byte   PATT
  .word Label_010369AB
@  #02 @029   ----------------------------------------
 .byte   PATT
  .word Label_010369C2
@  #02 @030   ----------------------------------------
 .byte   PATT
  .word Label_010369AB
@  #02 @031   ----------------------------------------
 .byte   PATT
  .word Label_010369C2
@  #02 @032   ----------------------------------------
 .byte   PATT
  .word Label_010369AB
@  #02 @033   ----------------------------------------
 .byte   PATT
  .word Label_010369C2
@  #02 @034   ----------------------------------------
 .byte   PATT
  .word Label_010369AB
@  #02 @035   ----------------------------------------
 .byte   PATT
  .word Label_010369C2
@  #02 @036   ----------------------------------------
 .byte   PATT
  .word Label_010369AB
@  #02 @037   ----------------------------------------
 .byte   PATT
  .word Label_010369C2
@  #02 @038   ----------------------------------------
 .byte   PATT
  .word Label_010369AB
@  #02 @039   ----------------------------------------
 .byte   PATT
  .word Label_010369C2
@  #02 @040   ----------------------------------------
 .byte   W96
@  #02 @041   ----------------------------------------
 .byte   W96
@  #02 @042   ----------------------------------------
 .byte   W96
@  #02 @043   ----------------------------------------
 .byte   W96
@  #02 @044   ----------------------------------------
 .byte   W96
@  #02 @045   ----------------------------------------
 .byte   W96
@  #02 @046   ----------------------------------------
 .byte   W96
@  #02 @047   ----------------------------------------
 .byte   W96
@  #02 @048   ----------------------------------------
 .byte   W96
@  #02 @049   ----------------------------------------
 .byte   W96
@  #02 @050   ----------------------------------------
 .byte   W96
@  #02 @051   ----------------------------------------
 .byte   W96
@  #02 @052   ----------------------------------------
 .byte   PATT
  .word Label_0103693F
@  #02 @053   ----------------------------------------
 .byte   PATT
  .word Label_01036923
@  #02 @054   ----------------------------------------
 .byte   PATT
  .word Label_0103693F
@  #02 @055   ----------------------------------------
 .byte   PATT
  .word Label_01036923
@  #02 @056   ----------------------------------------
 .byte   PATT
  .word Label_0103693F
@  #02 @057   ----------------------------------------
 .byte   PATT
  .word Label_01036923
@  #02 @058   ----------------------------------------
 .byte   PATT
  .word Label_0103693F
@  #02 @059   ----------------------------------------
 .byte   PATT
  .word Label_01036923
@  #02 @060   ----------------------------------------
 .byte   GOTO
  .word Label_0103690C
 .byte   FINE

@**************** Track 3 (Midi-Chn.2) ****************@

song1C_003:
@  #03 @000   ----------------------------------------
 .byte   KEYSH , song1C_key+0
 .byte   VOICE , 48
 .byte   MODT 0
 .byte   LFOS 44
 .byte   VOL , 51*song1C_mvl/mxv
 .byte   PAN , c_v-22
 .byte   W96
@  #03 @001   ----------------------------------------
 .byte   W96
@  #03 @002   ----------------------------------------
 .byte   W96
@  #03 @003   ----------------------------------------
 .byte   W96
@  #03 @004   ----------------------------------------
Label_55EB94:
 .byte   N36 ,As2 ,v080
 .byte   W36
 .byte   N84 ,Fn3
 .byte   W60
 .byte   PEND 
@  #03 @005   ----------------------------------------
Label_55EB9C:
 .byte   W24
 .byte   N24 ,Ds3 ,v080
 .byte   W24
 .byte   Gs3
 .byte   W24
 .byte   Fs3
 .byte   W24
 .byte   PEND 
@  #03 @006   ----------------------------------------
 .byte   TIE ,Fn3
 .byte   W96
@  #03 @007   ----------------------------------------
 .byte   W18
 .byte   EOT
 .byte   W06
 .byte   N24 ,Ds3
 .byte   W24
 .byte   Gs3
 .byte   W24
 .byte   Bn3
 .byte   W24
@  #03 @008   ----------------------------------------
Label_55EBB3:
 .byte   N36 ,As3 ,v080
 .byte   W36
 .byte   N66 ,Fn3
 .byte   W60
 .byte   PEND 
@  #03 @009   ----------------------------------------
 .byte   W12
 .byte   N36 ,Fs3
 .byte   W36
 .byte   N24 ,Fn3
 .byte   W24
 .byte   Ds3
 .byte   W24
@  #03 @010   ----------------------------------------
 .byte   N06 ,Dn3
 .byte   W06
 .byte   Ds3
 .byte   W06
 .byte   TIE ,Fn3
 .byte   W84
@  #03 @011   ----------------------------------------
 .byte   W84
 .byte   EOT
 .byte   W12
@  #03 @012   ----------------------------------------
 .byte   W96
@  #03 @013   ----------------------------------------
 .byte   W96
@  #03 @014   ----------------------------------------
 .byte   W96
@  #03 @015   ----------------------------------------
 .byte   W96
@  #03 @016   ----------------------------------------
 .byte   PATT
  .word Label_55EB94
@  #03 @017   ----------------------------------------
 .byte   PATT
  .word Label_55EB9C
@  #03 @018   ----------------------------------------
 .byte   TIE ,Fn3 ,v080
 .byte   W96
@  #03 @019   ----------------------------------------
 .byte   W18
 .byte   EOT
 .byte   W06
 .byte   N24 ,Ds3
 .byte   W24
 .byte   Gs3
 .byte   W24
 .byte   Bn3
 .byte   W24
@  #03 @020   ----------------------------------------
 .byte   PATT
  .word Label_55EBB3
@  #03 @021   ----------------------------------------
 .byte   W12
 .byte   N36 ,Fs3 ,v080
 .byte   W36
 .byte   N24 ,Gs3
 .byte   W24
 .byte   N12 ,Fs3
 .byte   W12
 .byte   Gs3
 .byte   W12
@  #03 @022   ----------------------------------------
 .byte   N36 ,As3
 .byte   W36
 .byte   TIE ,Fn4
 .byte   W60
@  #03 @023   ----------------------------------------
 .byte   W90
 .byte   EOT
 .byte   W06
@  #03 @024   ----------------------------------------
 .byte   W96
@  #03 @025   ----------------------------------------
 .byte   W96
@  #03 @026   ----------------------------------------
 .byte   W96
@  #03 @027   ----------------------------------------
 .byte   W96
@  #03 @028   ----------------------------------------
 .byte   W96
@  #03 @029   ----------------------------------------
 .byte   W96
@  #03 @030   ----------------------------------------
 .byte   W96
@  #03 @031   ----------------------------------------
 .byte   W96
@  #03 @032   ----------------------------------------
 .byte   N36 ,Bn2
 .byte   W36
 .byte   N84 ,Fs3
 .byte   W60
@  #03 @033   ----------------------------------------
 .byte   W24
 .byte   N24 ,En3
 .byte   W24
 .byte   An3
 .byte   W24
 .byte   Gn3
 .byte   W24
@  #03 @034   ----------------------------------------
 .byte   TIE ,Fs3
 .byte   W96
@  #03 @035   ----------------------------------------
 .byte   W18
 .byte   EOT
 .byte   W06
 .byte   N24 ,En3
 .byte   W24
 .byte   An3
 .byte   W24
 .byte   Cn4
 .byte   W24
@  #03 @036   ----------------------------------------
 .byte   N36 ,Bn3
 .byte   W36
 .byte   N66 ,Fs3
 .byte   W60
@  #03 @037   ----------------------------------------
 .byte   W12
 .byte   N36 ,Gn3
 .byte   W36
 .byte   N24 ,Fs3
 .byte   W24
 .byte   En3
 .byte   W24
@  #03 @038   ----------------------------------------
 .byte   N06 ,Ds3
 .byte   W06
 .byte   En3
 .byte   W06
 .byte   TIE ,Fs3
 .byte   W84
@  #03 @039   ----------------------------------------
 .byte   W84
 .byte   EOT
 .byte   W12
@  #03 @040   ----------------------------------------
 .byte   W96
@  #03 @041   ----------------------------------------
 .byte   W96
@  #03 @042   ----------------------------------------
 .byte   W96
@  #03 @043   ----------------------------------------
 .byte   W96
@  #03 @044   ----------------------------------------
 .byte   W96
@  #03 @045   ----------------------------------------
 .byte   W96
@  #03 @046   ----------------------------------------
 .byte   W96
@  #03 @047   ----------------------------------------
 .byte   W96
@  #03 @048   ----------------------------------------
 .byte   W96
@  #03 @049   ----------------------------------------
 .byte   W96
@  #03 @050   ----------------------------------------
 .byte   W96
@  #03 @051   ----------------------------------------
 .byte   W96
@  #03 @052   ----------------------------------------
 .byte   W96
@  #03 @053   ----------------------------------------
 .byte   W96
@  #03 @054   ----------------------------------------
 .byte   W96
@  #03 @055   ----------------------------------------
 .byte   W96
@  #03 @056   ----------------------------------------
 .byte   W96
@  #03 @057   ----------------------------------------
 .byte   W96
@  #03 @058   ----------------------------------------
 .byte   W96
@  #03 @059   ----------------------------------------
 .byte   W96
@  #03 @060   ----------------------------------------
 .byte   GOTO
  .word Label_55EB94
 .byte   FINE

@**************** Track 4 (Midi-Chn.3) ****************@

song1C_004:
@  #04 @000   ----------------------------------------
 .byte   KEYSH , song1C_key+0
 .byte   VOICE , 48
 .byte   MODT 0
 .byte   LFOS 44
 .byte   VOL , 51*song1C_mvl/mxv
 .byte   PAN , c_v+23
 .byte   W96
@  #04 @001   ----------------------------------------
 .byte   W96
@  #04 @002   ----------------------------------------
 .byte   W96
@  #04 @003   ----------------------------------------
 .byte   W96
@  #04 @004   ----------------------------------------
Label_55E854:
 .byte   N36 ,Fn2 ,v080
 .byte   W36
 .byte   N84 ,Dn3
 .byte   W60
 .byte   PEND 
@  #04 @005   ----------------------------------------
Label_55E85C:
 .byte   W24
 .byte   N24 ,Bn2 ,v080
 .byte   W24
 .byte   Ds3
 .byte   W24
 .byte   N24
 .byte   W24
 .byte   PEND 
@  #04 @006   ----------------------------------------
 .byte   TIE ,Dn3
 .byte   W96
@  #04 @007   ----------------------------------------
 .byte   W18
 .byte   EOT
 .byte   W06
 .byte   N24 ,Bn2
 .byte   W24
 .byte   Ds3
 .byte   W24
 .byte   Gs3
 .byte   W24
@  #04 @008   ----------------------------------------
Label_55E873:
 .byte   N36 ,Fn3 ,v080
 .byte   W36
 .byte   N66 ,Dn3
 .byte   W60
 .byte   PEND 
@  #04 @009   ----------------------------------------
 .byte   W12
 .byte   N36 ,Ds3
 .byte   W36
 .byte   N24 ,Dn3
 .byte   W24
 .byte   Bn2
 .byte   W24
@  #04 @010   ----------------------------------------
 .byte   N06 ,As2
 .byte   W06
 .byte   Bn2
 .byte   W06
 .byte   TIE ,Dn3
 .byte   W84
@  #04 @011   ----------------------------------------
 .byte   W84
 .byte   EOT
 .byte   W12
@  #04 @012   ----------------------------------------
 .byte   W96
@  #04 @013   ----------------------------------------
 .byte   W96
@  #04 @014   ----------------------------------------
 .byte   W96
@  #04 @015   ----------------------------------------
 .byte   W96
@  #04 @016   ----------------------------------------
 .byte   PATT
  .word Label_55E854
@  #04 @017   ----------------------------------------
 .byte   PATT
  .word Label_55E85C
@  #04 @018   ----------------------------------------
 .byte   TIE ,Dn3 ,v080
 .byte   W96
@  #04 @019   ----------------------------------------
 .byte   W18
 .byte   EOT
 .byte   W06
 .byte   N24 ,Bn2
 .byte   W24
 .byte   Ds3
 .byte   W24
 .byte   Gs3
 .byte   W24
@  #04 @020   ----------------------------------------
 .byte   PATT
  .word Label_55E873
@  #04 @021   ----------------------------------------
 .byte   W12
 .byte   N36 ,Ds3 ,v080
 .byte   W36
 .byte   N24 ,Bn2
 .byte   W24
 .byte   Ds3
 .byte   W24
@  #04 @022   ----------------------------------------
 .byte   N36 ,Dn3
 .byte   W36
 .byte   N60 ,As3
 .byte   W60
@  #04 @023   ----------------------------------------
 .byte   N90 ,Bn3
 .byte   W96
@  #04 @024   ----------------------------------------
 .byte   W96
@  #04 @025   ----------------------------------------
 .byte   W96
@  #04 @026   ----------------------------------------
 .byte   W96
@  #04 @027   ----------------------------------------
 .byte   W96
@  #04 @028   ----------------------------------------
 .byte   W96
@  #04 @029   ----------------------------------------
 .byte   W96
@  #04 @030   ----------------------------------------
 .byte   W96
@  #04 @031   ----------------------------------------
 .byte   W96
@  #04 @032   ----------------------------------------
 .byte   N36 ,Fs2
 .byte   W36
 .byte   N84 ,Ds3
 .byte   W60
@  #04 @033   ----------------------------------------
 .byte   W24
 .byte   N24 ,Cn3
 .byte   W24
 .byte   En3
 .byte   W24
 .byte   N24
 .byte   W24
@  #04 @034   ----------------------------------------
 .byte   TIE ,Ds3
 .byte   W96
@  #04 @035   ----------------------------------------
 .byte   W18
 .byte   EOT
 .byte   W06
 .byte   N24 ,Cn3
 .byte   W24
 .byte   En3
 .byte   W24
 .byte   An3
 .byte   W24
@  #04 @036   ----------------------------------------
 .byte   N36 ,Fs3
 .byte   W36
 .byte   N66 ,Ds3
 .byte   W60
@  #04 @037   ----------------------------------------
 .byte   W12
 .byte   N36 ,En3
 .byte   W36
 .byte   N24 ,Ds3
 .byte   W24
 .byte   Cn3
 .byte   W24
@  #04 @038   ----------------------------------------
 .byte   N06 ,Bn2
 .byte   W06
 .byte   Cn3
 .byte   W06
 .byte   TIE ,Ds3
 .byte   W84
@  #04 @039   ----------------------------------------
 .byte   W84
 .byte   EOT
 .byte   W12
@  #04 @040   ----------------------------------------
 .byte   W96
@  #04 @041   ----------------------------------------
 .byte   W96
@  #04 @042   ----------------------------------------
 .byte   W96
@  #04 @043   ----------------------------------------
 .byte   W96
@  #04 @044   ----------------------------------------
 .byte   W96
@  #04 @045   ----------------------------------------
 .byte   W96
@  #04 @046   ----------------------------------------
 .byte   W96
@  #04 @047   ----------------------------------------
 .byte   W96
@  #04 @048   ----------------------------------------
 .byte   W96
@  #04 @049   ----------------------------------------
 .byte   W96
@  #04 @050   ----------------------------------------
 .byte   W96
@  #04 @051   ----------------------------------------
 .byte   W96
@  #04 @052   ----------------------------------------
 .byte   W96
@  #04 @053   ----------------------------------------
 .byte   W96
@  #04 @054   ----------------------------------------
 .byte   W96
@  #04 @055   ----------------------------------------
 .byte   W96
@  #04 @056   ----------------------------------------
 .byte   W96
@  #04 @057   ----------------------------------------
 .byte   W96
@  #04 @058   ----------------------------------------
 .byte   W96
@  #04 @059   ----------------------------------------
 .byte   W96
@  #04 @060   ----------------------------------------
 .byte   GOTO
  .word Label_55E854
 .byte   FINE

@**************** Track 5 (Midi-Chn.4) ****************@

song1C_005:
@  #05 @000   ----------------------------------------
 .byte   KEYSH , song1C_key+0
 .byte   VOICE , 40
 .byte   MODT 0
 .byte   LFOS 44
 .byte   VOL , 36*song1C_mvl/mxv
 .byte   PAN , c_v+0
 .byte   W96
@  #05 @001   ----------------------------------------
 .byte   W96
@  #05 @002   ----------------------------------------
 .byte   W96
@  #05 @003   ----------------------------------------
 .byte   W96
@  #05 @004   ----------------------------------------
Label_55ED48:
 .byte   W96
@  #05 @005   ----------------------------------------
 .byte   W96
@  #05 @006   ----------------------------------------
 .byte   W96
@  #05 @007   ----------------------------------------
 .byte   W96
@  #05 @008   ----------------------------------------
 .byte   W96
@  #05 @009   ----------------------------------------
 .byte   W96
@  #05 @010   ----------------------------------------
 .byte   W96
@  #05 @011   ----------------------------------------
 .byte   W96
@  #05 @012   ----------------------------------------
 .byte   TIE ,As1 ,v127
 .byte   W96
@  #05 @013   ----------------------------------------
 .byte   W96
@  #05 @014   ----------------------------------------
 .byte   EOT
 .byte   N96 ,Fn2
 .byte   W96
@  #05 @015   ----------------------------------------
 .byte   Ds2
 .byte   W96
@  #05 @016   ----------------------------------------
 .byte   W96
@  #05 @017   ----------------------------------------
 .byte   W96
@  #05 @018   ----------------------------------------
 .byte   W96
@  #05 @019   ----------------------------------------
 .byte   W96
@  #05 @020   ----------------------------------------
 .byte   W96
@  #05 @021   ----------------------------------------
 .byte   W96
@  #05 @022   ----------------------------------------
 .byte   W96
@  #05 @023   ----------------------------------------
 .byte   W96
@  #05 @024   ----------------------------------------
 .byte   TIE ,Bn1
 .byte   W96
@  #05 @025   ----------------------------------------
 .byte   W96
@  #05 @026   ----------------------------------------
 .byte   EOT
 .byte   TIE ,Fs2
 .byte   W96
@  #05 @027   ----------------------------------------
 .byte   W96
@  #05 @028   ----------------------------------------
 .byte   EOT
 .byte   TIE ,An2
 .byte   W96
@  #05 @029   ----------------------------------------
 .byte   W96
@  #05 @030   ----------------------------------------
 .byte   EOT
 .byte   N36 ,Gn2
 .byte   W36
 .byte   TIE ,Fs2
 .byte   W60
@  #05 @031   ----------------------------------------
 .byte   W96
@  #05 @032   ----------------------------------------
 .byte   EOT
 .byte   W96
@  #05 @033   ----------------------------------------
 .byte   W96
@  #05 @034   ----------------------------------------
 .byte   W96
@  #05 @035   ----------------------------------------
 .byte   W96
@  #05 @036   ----------------------------------------
 .byte   W96
@  #05 @037   ----------------------------------------
 .byte   W96
@  #05 @038   ----------------------------------------
 .byte   W96
@  #05 @039   ----------------------------------------
 .byte   W96
@  #05 @040   ----------------------------------------
 .byte   TIE ,Bn1
 .byte   W96
@  #05 @041   ----------------------------------------
 .byte   W96
@  #05 @042   ----------------------------------------
 .byte   Fs2
 .byte   W96
@  #05 @043   ----------------------------------------
 .byte   W96
@  #05 @044   ----------------------------------------
 .byte   An2 ,v120
 .byte   W96
@  #05 @045   ----------------------------------------
 .byte   W96
@  #05 @046   ----------------------------------------
 .byte   EOT
 .byte   Fs2
 .byte   N96 ,En2 ,v127
 .byte   W96
@  #05 @047   ----------------------------------------
 .byte   Fs2
 .byte   W96
@  #05 @048   ----------------------------------------
 .byte   EOT
 .byte   Bn1 ,v057
 .byte   TIE ,As1 ,v080
 .byte   TIE ,Fn2
 .byte   W96
@  #05 @049   ----------------------------------------
 .byte   W96
@  #05 @050   ----------------------------------------
 .byte   W96
@  #05 @051   ----------------------------------------
 .byte   W96
@  #05 @052   ----------------------------------------
 .byte   EOT
 .byte   As1 ,v053
 .byte   W96
@  #05 @053   ----------------------------------------
 .byte   W96
@  #05 @054   ----------------------------------------
 .byte   W96
@  #05 @055   ----------------------------------------
 .byte   W96
@  #05 @056   ----------------------------------------
 .byte   W96
@  #05 @057   ----------------------------------------
 .byte   W96
@  #05 @058   ----------------------------------------
 .byte   W96
@  #05 @059   ----------------------------------------
 .byte   W96
@  #05 @060   ----------------------------------------
 .byte   GOTO
  .word Label_55ED48
 .byte   FINE

@**************** Track 6 (Midi-Chn.5) ****************@

song1C_006:
@  #06 @000   ----------------------------------------
 .byte   KEYSH , song1C_key+0
 .byte   VOICE , 61
 .byte   MODT 0
 .byte   LFOS 44
 .byte   VOL , 20*song1C_mvl/mxv
 .byte   PAN , c_v+0
 .byte   N24 ,As2 ,v127
 .byte   W36
 .byte   N12
 .byte   W24
 .byte   N12
 .byte   W36
@  #06 @001   ----------------------------------------
Label_01036528:
 .byte   W12
 .byte   N24 ,Bn2 ,v127
 .byte   W36
 .byte   N12 ,Gs2
 .byte   W24
 .byte   N12
 .byte   W24
 .byte   PEND 
@  #06 @002   ----------------------------------------
Label_01036533:
 .byte   N24 ,As2 ,v127
 .byte   W36
 .byte   N12
 .byte   W24
 .byte   N12
 .byte   W36
 .byte   PEND 
@  #06 @003   ----------------------------------------
 .byte   PATT
  .word Label_01036528
@  #06 @004   ----------------------------------------
Label_01036541:
@  #06 @005   ----------------------------------------
 .byte   PATT
  .word Label_01036533
@  #06 @006   ----------------------------------------
 .byte   PATT
  .word Label_01036528
@  #06 @007   ----------------------------------------
 .byte   PATT
  .word Label_01036533
@  #06 @008   ----------------------------------------
 .byte   PATT
  .word Label_01036528
@  #06 @009   ----------------------------------------
 .byte   PATT
  .word Label_01036533
@  #06 @010   ----------------------------------------
 .byte   PATT
  .word Label_01036528
@  #06 @011   ----------------------------------------
 .byte   PATT
  .word Label_01036533
@  #06 @012   ----------------------------------------
Label_01036564:
 .byte   W12
 .byte   N24 ,Bn2 ,v127
 .byte   W36
 .byte   N12 ,Ds3
 .byte   W24
 .byte   Dn3
 .byte   W24
 .byte   PEND 
@  #06 @013   ----------------------------------------
 .byte   PATT
  .word Label_01036533
@  #06 @014   ----------------------------------------
 .byte   PATT
  .word Label_01036528
@  #06 @015   ----------------------------------------
 .byte   PATT
  .word Label_01036533
@  #06 @016   ----------------------------------------
 .byte   PATT
  .word Label_01036528
@  #06 @017   ----------------------------------------
 .byte   PATT
  .word Label_01036533
@  #06 @018   ----------------------------------------
 .byte   PATT
  .word Label_01036528
@  #06 @019   ----------------------------------------
 .byte   PATT
  .word Label_01036533
@  #06 @020   ----------------------------------------
 .byte   PATT
  .word Label_01036528
@  #06 @021   ----------------------------------------
 .byte   PATT
  .word Label_01036533
@  #06 @022   ----------------------------------------
 .byte   PATT
  .word Label_01036528
@  #06 @023   ----------------------------------------
 .byte   PATT
  .word Label_01036533
@  #06 @024   ----------------------------------------
 .byte   PATT
  .word Label_01036564
@  #06 @025   ----------------------------------------
Label_010365AB:
 .byte   N24 ,Bn2 ,v127
 .byte   W36
 .byte   N12
 .byte   W24
 .byte   N12
 .byte   W36
 .byte   PEND 
@  #06 @026   ----------------------------------------
Label_010365B4:
 .byte   W12
 .byte   N24 ,Cn3 ,v127
 .byte   W36
 .byte   N12 ,An2
 .byte   W24
 .byte   N12
 .byte   W24
 .byte   PEND 
@  #06 @027   ----------------------------------------
 .byte   PATT
  .word Label_010365AB
@  #06 @028   ----------------------------------------
 .byte   PATT
  .word Label_010365B4
@  #06 @029   ----------------------------------------
 .byte   PATT
  .word Label_010365AB
@  #06 @030   ----------------------------------------
 .byte   PATT
  .word Label_010365B4
@  #06 @031   ----------------------------------------
 .byte   PATT
  .word Label_010365AB
@  #06 @032   ----------------------------------------
Label_010365D8:
 .byte   W12
 .byte   N24 ,Cn3 ,v127
 .byte   W36
 .byte   N12 ,En3
 .byte   W24
 .byte   Ds3
 .byte   W24
 .byte   PEND 
@  #06 @033   ----------------------------------------
 .byte   PATT
  .word Label_010365AB
@  #06 @034   ----------------------------------------
 .byte   PATT
  .word Label_010365B4
@  #06 @035   ----------------------------------------
 .byte   PATT
  .word Label_010365AB
@  #06 @036   ----------------------------------------
 .byte   PATT
  .word Label_010365B4
@  #06 @037   ----------------------------------------
 .byte   PATT
  .word Label_010365AB
@  #06 @038   ----------------------------------------
 .byte   PATT
  .word Label_010365B4
@  #06 @039   ----------------------------------------
 .byte   PATT
  .word Label_010365AB
@  #06 @040   ----------------------------------------
 .byte   PATT
  .word Label_010365D8
@  #06 @041   ----------------------------------------
 .byte   PATT
  .word Label_010365AB
@  #06 @042   ----------------------------------------
 .byte   PATT
  .word Label_010365B4
@  #06 @043   ----------------------------------------
 .byte   PATT
  .word Label_010365AB
@  #06 @044   ----------------------------------------
 .byte   PATT
  .word Label_010365B4
@  #06 @045   ----------------------------------------
 .byte   PATT
  .word Label_010365AB
@  #06 @046   ----------------------------------------
 .byte   PATT
  .word Label_010365B4
@  #06 @047   ----------------------------------------
 .byte   PATT
  .word Label_010365AB
@  #06 @048   ----------------------------------------
 .byte   PATT
  .word Label_010365D8
@  #06 @049   ----------------------------------------
 .byte   PATT
  .word Label_01036533
@  #06 @050   ----------------------------------------
 .byte   PATT
  .word Label_01036528
@  #06 @051   ----------------------------------------
 .byte   PATT
  .word Label_01036533
@  #06 @052   ----------------------------------------
 .byte   PATT
  .word Label_01036564
@  #06 @053   ----------------------------------------
 .byte   PATT
  .word Label_01036533
@  #06 @054   ----------------------------------------
 .byte   PATT
  .word Label_01036528
@  #06 @055   ----------------------------------------
 .byte   PATT
  .word Label_01036533
@  #06 @056   ----------------------------------------
 .byte   PATT
  .word Label_01036528
@  #06 @057   ----------------------------------------
 .byte   PATT
  .word Label_01036533
@  #06 @058   ----------------------------------------
 .byte   PATT
  .word Label_01036528
@  #06 @059   ----------------------------------------
 .byte   PATT
  .word Label_01036533
@  #06 @060   ----------------------------------------
 .byte   PATT
  .word Label_01036564
@  #06 @061   ----------------------------------------
 .byte   GOTO
  .word Label_01036541
 .byte   FINE

@**************** Track 7 (Midi-Chn.6) ****************@

song1C_007:
@  #07 @000   ----------------------------------------
 .byte   KEYSH , song1C_key+0
 .byte   VOICE , 47
 .byte   MODT 0
 .byte   LFOS 44
 .byte   VOL , 56*song1C_mvl/mxv
 .byte   PAN , c_v-1
 .byte   W96
@  #07 @001   ----------------------------------------
 .byte   W84
 .byte   N04 ,Fn2 ,v127
 .byte   W04
 .byte   N04
 .byte   W04
 .byte   N04
 .byte   W04
@  #07 @002   ----------------------------------------
 .byte   N24 ,As2
 .byte   W96
@  #07 @003   ----------------------------------------
 .byte   W84
 .byte   N06 ,Gs2
 .byte   W06
 .byte   N06
 .byte   W06
@  #07 @004   ----------------------------------------
Label_01044AFB:
 .byte   N12 ,As2 ,v127
 .byte   W36
 .byte   Fn2
 .byte   W24
 .byte   As2
 .byte   W24
 .byte   N04
 .byte   W04
 .byte   N04
 .byte   W04
 .byte   N04
 .byte   W04
 .byte   PEND 
@  #07 @005   ----------------------------------------
Label_01044B0A:
 .byte   N12 ,As2 ,v127
 .byte   W12
 .byte   Bn2
 .byte   W36
 .byte   Gs2
 .byte   W24
 .byte   N12
 .byte   W24
 .byte   PEND 
@  #07 @006   ----------------------------------------
 .byte   PATT
  .word Label_01044AFB
@  #07 @007   ----------------------------------------
Label_01044B1A:
 .byte   N12 ,As2 ,v127
 .byte   W12
 .byte   Bn2
 .byte   W36
 .byte   Gs2
 .byte   W24
 .byte   Ds3
 .byte   W12
 .byte   Gs2
 .byte   W12
 .byte   PEND 
@  #07 @008   ----------------------------------------
 .byte   PATT
  .word Label_01044AFB
@  #07 @009   ----------------------------------------
 .byte   PATT
  .word Label_01044B0A
@  #07 @010   ----------------------------------------
 .byte   PATT
  .word Label_01044AFB
@  #07 @011   ----------------------------------------
 .byte   PATT
  .word Label_01044B1A
@  #07 @012   ----------------------------------------
 .byte   PATT
  .word Label_01044AFB
@  #07 @013   ----------------------------------------
 .byte   PATT
  .word Label_01044B0A
@  #07 @014   ----------------------------------------
 .byte   PATT
  .word Label_01044AFB
@  #07 @015   ----------------------------------------
 .byte   PATT
  .word Label_01044B1A
@  #07 @016   ----------------------------------------
 .byte   PATT
  .word Label_01044AFB
@  #07 @017   ----------------------------------------
 .byte   PATT
  .word Label_01044B0A
@  #07 @018   ----------------------------------------
 .byte   PATT
  .word Label_01044AFB
@  #07 @019   ----------------------------------------
 .byte   PATT
  .word Label_01044B1A
@  #07 @020   ----------------------------------------
 .byte   PATT
  .word Label_01044AFB
@  #07 @021   ----------------------------------------
 .byte   PATT
  .word Label_01044B0A
@  #07 @022   ----------------------------------------
 .byte   PATT
  .word Label_01044AFB
@  #07 @023   ----------------------------------------
 .byte   PATT
  .word Label_01044B1A
@  #07 @024   ----------------------------------------
Label_01044B77:
 .byte   N12 ,Bn2 ,v127
 .byte   W36
 .byte   Fs2
 .byte   W24
 .byte   Bn2
 .byte   W24
 .byte   N04
 .byte   W04
 .byte   N04
 .byte   W04
 .byte   N04
 .byte   W04
 .byte   PEND 
@  #07 @025   ----------------------------------------
Label_01044B86:
 .byte   N12 ,Bn2 ,v127
 .byte   W12
 .byte   Cn3
 .byte   W36
 .byte   An2
 .byte   W24
 .byte   N12
 .byte   W24
 .byte   PEND 
@  #07 @026   ----------------------------------------
 .byte   PATT
  .word Label_01044B77
@  #07 @027   ----------------------------------------
Label_01044B96:
 .byte   N12 ,Bn2 ,v127
 .byte   W12
 .byte   Cn3
 .byte   W36
 .byte   An2
 .byte   W24
 .byte   En3
 .byte   W12
 .byte   An2
 .byte   W12
 .byte   PEND 
@  #07 @028   ----------------------------------------
 .byte   PATT
  .word Label_01044B77
@  #07 @029   ----------------------------------------
 .byte   PATT
  .word Label_01044B86
@  #07 @030   ----------------------------------------
 .byte   PATT
  .word Label_01044B77
@  #07 @031   ----------------------------------------
 .byte   PATT
  .word Label_01044B96
@  #07 @032   ----------------------------------------
 .byte   PATT
  .word Label_01044B77
@  #07 @033   ----------------------------------------
 .byte   PATT
  .word Label_01044B86
@  #07 @034   ----------------------------------------
 .byte   PATT
  .word Label_01044B77
@  #07 @035   ----------------------------------------
 .byte   PATT
  .word Label_01044B96
@  #07 @036   ----------------------------------------
 .byte   PATT
  .word Label_01044B77
@  #07 @037   ----------------------------------------
 .byte   PATT
  .word Label_01044B86
@  #07 @038   ----------------------------------------
 .byte   PATT
  .word Label_01044B77
@  #07 @039   ----------------------------------------
 .byte   PATT
  .word Label_01044B96
@  #07 @040   ----------------------------------------
 .byte   PATT
  .word Label_01044B77
@  #07 @041   ----------------------------------------
 .byte   PATT
  .word Label_01044B86
@  #07 @042   ----------------------------------------
 .byte   PATT
  .word Label_01044B77
@  #07 @043   ----------------------------------------
 .byte   PATT
  .word Label_01044B96
@  #07 @044   ----------------------------------------
 .byte   PATT
  .word Label_01044B77
@  #07 @045   ----------------------------------------
 .byte   PATT
  .word Label_01044B86
@  #07 @046   ----------------------------------------
 .byte   PATT
  .word Label_01044B77
@  #07 @047   ----------------------------------------
 .byte   PATT
  .word Label_01044B96
@  #07 @048   ----------------------------------------
 .byte   PATT
  .word Label_01044AFB
@  #07 @049   ----------------------------------------
 .byte   PATT
  .word Label_01044B0A
@  #07 @050   ----------------------------------------
 .byte   PATT
  .word Label_01044AFB
@  #07 @051   ----------------------------------------
 .byte   PATT
  .word Label_01044B1A
@  #07 @052   ----------------------------------------
 .byte   PATT
  .word Label_01044AFB
@  #07 @053   ----------------------------------------
 .byte   PATT
  .word Label_01044B0A
@  #07 @054   ----------------------------------------
 .byte   PATT
  .word Label_01044AFB
@  #07 @055   ----------------------------------------
 .byte   PATT
  .word Label_01044B1A
@  #07 @056   ----------------------------------------
 .byte   PATT
  .word Label_01044AFB
@  #07 @057   ----------------------------------------
 .byte   PATT
  .word Label_01044B0A
@  #07 @058   ----------------------------------------
 .byte   PATT
  .word Label_01044AFB
@  #07 @059   ----------------------------------------
 .byte   PATT
  .word Label_01044B1A
@  #07 @060   ----------------------------------------
 .byte   GOTO
  .word Label_01044AFB
 .byte   FINE

@**************** Track 8 (Midi-Chn.7) ****************@

song1C_008:
@  #08 @000   ----------------------------------------
 .byte   KEYSH , song1C_key+0
 .byte   VOICE , 127
 .byte   MODT 0
 .byte   LFOS 44
 .byte   VOL , 45*song1C_mvl/mxv
 .byte   PAN , c_v+0
 .byte   N06 ,Dn1 ,v080
 .byte   W06
 .byte   Dn1 ,v120
 .byte   W06
 .byte   N06
 .byte   W06
 .byte   Dn1 ,v127
 .byte   W06
 .byte   N11
 .byte   W12
 .byte   N06
 .byte   W06
 .byte   Dn1 ,v120
 .byte   W06
 .byte   N06
 .byte   W06
 .byte   Dn1 ,v127
 .byte   W06
 .byte   N11
 .byte   W12
 .byte   N04
 .byte   W04
 .byte   N04
 .byte   W04
 .byte   N04
 .byte   W04
 .byte   N06
 .byte   W06
 .byte   N06
 .byte   W06
@  #08 @001   ----------------------------------------
Label_0108B478:
 .byte   N11 ,Dn1 ,v127
 .byte   W12
 .byte   N11
 .byte   W12
 .byte   N06
 .byte   W06
 .byte   N06
 .byte   W06
 .byte   N06
 .byte   W06
 .byte   N06
 .byte   W06
 .byte   N11
 .byte   W12
 .byte   N06
 .byte   W06
 .byte   N06
 .byte   W06
 .byte   N06
 .byte   W06
 .byte   N06
 .byte   W06
 .byte   N11
 .byte   W12
 .byte   PEND 
@  #08 @002   ----------------------------------------
Label_0108B493:
 .byte   N06 ,Dn1 ,v127
 .byte   W06
 .byte   N06
 .byte   W06
 .byte   N06
 .byte   W06
 .byte   N06
 .byte   W06
 .byte   N11
 .byte   W12
 .byte   N06
 .byte   W06
 .byte   N06
 .byte   W06
 .byte   N06
 .byte   W06
 .byte   N06
 .byte   W06
 .byte   N11
 .byte   W12
 .byte   N04
 .byte   W04
 .byte   N04
 .byte   W04
 .byte   N04
 .byte   W04
 .byte   N06
 .byte   W06
 .byte   N06
 .byte   W06
 .byte   PEND 
@  #08 @003   ----------------------------------------
 .byte   PATT
  .word Label_0108B478
@  #08 @004   ----------------------------------------
Label_0108B4B9:
@  #08 @005   ----------------------------------------
 .byte   PATT
  .word Label_0108B493
@  #08 @006   ----------------------------------------
 .byte   PATT
  .word Label_0108B478
@  #08 @007   ----------------------------------------
 .byte   PATT
  .word Label_0108B493
@  #08 @008   ----------------------------------------
 .byte   PATT
  .word Label_0108B478
@  #08 @009   ----------------------------------------
 .byte   PATT
  .word Label_0108B493
@  #08 @010   ----------------------------------------
 .byte   PATT
  .word Label_0108B478
@  #08 @011   ----------------------------------------
 .byte   PATT
  .word Label_0108B493
@  #08 @012   ----------------------------------------
 .byte   PATT
  .word Label_0108B478
@  #08 @013   ----------------------------------------
 .byte   PATT
  .word Label_0108B493
@  #08 @014   ----------------------------------------
 .byte   PATT
  .word Label_0108B478
@  #08 @015   ----------------------------------------
 .byte   PATT
  .word Label_0108B493
@  #08 @016   ----------------------------------------
 .byte   PATT
  .word Label_0108B478
@  #08 @017   ----------------------------------------
 .byte   PATT
  .word Label_0108B493
@  #08 @018   ----------------------------------------
 .byte   PATT
  .word Label_0108B478
@  #08 @019   ----------------------------------------
 .byte   PATT
  .word Label_0108B493
@  #08 @020   ----------------------------------------
 .byte   PATT
  .word Label_0108B478
@  #08 @021   ----------------------------------------
 .byte   PATT
  .word Label_0108B493
@  #08 @022   ----------------------------------------
 .byte   PATT
  .word Label_0108B478
@  #08 @023   ----------------------------------------
 .byte   PATT
  .word Label_0108B493
@  #08 @024   ----------------------------------------
 .byte   PATT
  .word Label_0108B478
@  #08 @025   ----------------------------------------
 .byte   PATT
  .word Label_0108B493
@  #08 @026   ----------------------------------------
 .byte   PATT
  .word Label_0108B478
@  #08 @027   ----------------------------------------
 .byte   PATT
  .word Label_0108B493
@  #08 @028   ----------------------------------------
 .byte   PATT
  .word Label_0108B478
@  #08 @029   ----------------------------------------
 .byte   PATT
  .word Label_0108B493
@  #08 @030   ----------------------------------------
 .byte   PATT
  .word Label_0108B478
@  #08 @031   ----------------------------------------
 .byte   PATT
  .word Label_0108B493
@  #08 @032   ----------------------------------------
 .byte   PATT
  .word Label_0108B478
@  #08 @033   ----------------------------------------
 .byte   PATT
  .word Label_0108B493
@  #08 @034   ----------------------------------------
 .byte   PATT
  .word Label_0108B478
@  #08 @035   ----------------------------------------
 .byte   PATT
  .word Label_0108B493
@  #08 @036   ----------------------------------------
 .byte   PATT
  .word Label_0108B478
@  #08 @037   ----------------------------------------
 .byte   PATT
  .word Label_0108B493
@  #08 @038   ----------------------------------------
 .byte   PATT
  .word Label_0108B478
@  #08 @039   ----------------------------------------
 .byte   PATT
  .word Label_0108B493
@  #08 @040   ----------------------------------------
 .byte   PATT
  .word Label_0108B478
@  #08 @041   ----------------------------------------
 .byte   PATT
  .word Label_0108B493
@  #08 @042   ----------------------------------------
 .byte   PATT
  .word Label_0108B478
@  #08 @043   ----------------------------------------
 .byte   PATT
  .word Label_0108B493
@  #08 @044   ----------------------------------------
 .byte   PATT
  .word Label_0108B478
@  #08 @045   ----------------------------------------
 .byte   PATT
  .word Label_0108B493
@  #08 @046   ----------------------------------------
 .byte   PATT
  .word Label_0108B478
@  #08 @047   ----------------------------------------
 .byte   PATT
  .word Label_0108B493
@  #08 @048   ----------------------------------------
 .byte   PATT
  .word Label_0108B478
@  #08 @049   ----------------------------------------
 .byte   PATT
  .word Label_0108B493
@  #08 @050   ----------------------------------------
 .byte   PATT
  .word Label_0108B478
@  #08 @051   ----------------------------------------
 .byte   PATT
  .word Label_0108B493
@  #08 @052   ----------------------------------------
 .byte   PATT
  .word Label_0108B478
@  #08 @053   ----------------------------------------
Label_0108B5A9:
 .byte   N06 ,Dn1 ,v127
 .byte   W06
 .byte   N06
 .byte   W06
 .byte   N06
 .byte   W06
 .byte   N06
 .byte   W06
 .byte   N11
 .byte   W12
 .byte   N06
 .byte   W24
 .byte   N06
 .byte   W16
 .byte   N04
 .byte   W04
 .byte   N04
 .byte   W04
 .byte   N06
 .byte   W06
 .byte   N06
 .byte   W06
 .byte   PEND 
@  #08 @054   ----------------------------------------
 .byte   N11
 .byte   W12
 .byte   N12
 .byte   W12
 .byte   N06
 .byte   W06
 .byte   N06
 .byte   W06
 .byte   N06
 .byte   W06
 .byte   N06
 .byte   W06
 .byte   N11
 .byte   W12
 .byte   N06
 .byte   W06
 .byte   N06
 .byte   W06
 .byte   N06
 .byte   W06
 .byte   N06
 .byte   W06
 .byte   N11
 .byte   W12
@  #08 @055   ----------------------------------------
 .byte   PATT
  .word Label_0108B5A9
@  #08 @056   ----------------------------------------
 .byte   N12 ,Dn1 ,v127
 .byte   W12
 .byte   N11
 .byte   W12
 .byte   N06
 .byte   W06
 .byte   N06
 .byte   W06
 .byte   N06
 .byte   W06
 .byte   N06
 .byte   W06
 .byte   N06
 .byte   W06
 .byte   N06
 .byte   W06
 .byte   N06
 .byte   W06
 .byte   N06
 .byte   W06
 .byte   N11
 .byte   W12
 .byte   N11
 .byte   W12
@  #08 @057   ----------------------------------------
 .byte   PATT
  .word Label_0108B493
@  #08 @058   ----------------------------------------
Label_0108B5FE:
 .byte   N11 ,Dn1 ,v127
 .byte   W12
 .byte   N06
 .byte   W06
 .byte   N06
 .byte   W06
 .byte   N06
 .byte   W06
 .byte   N06
 .byte   W06
 .byte   N11
 .byte   W12
 .byte   N06
 .byte   W06
 .byte   N06
 .byte   W06
 .byte   N06
 .byte   W06
 .byte   N06
 .byte   W06
 .byte   N11
 .byte   W12
 .byte   N11
 .byte   W12
 .byte   PEND 
@  #08 @059   ----------------------------------------
 .byte   PATT
  .word Label_0108B493
@  #08 @060   ----------------------------------------
 .byte   PATT
  .word Label_0108B5FE
@  #08 @061   ----------------------------------------
 .byte   GOTO
  .word Label_0108B4B9
 .byte   FINE

@******************************************************@
	.align	2

song1C:
	.byte	8	@ NumTrks
	.byte	0	@ NumBlks
	.byte	song1C_pri	@ Priority
	.byte	song1C_rev	@ Reverb.
    
	.word	song1C_grp
    
	.word	song1C_001
	.word	song1C_002
	.word	song1C_003
	.word	song1C_004
	.word	song1C_005
	.word	song1C_006
	.word	song1C_007
	.word	song1C_008

	.end
