	.include "MPlayDef.s"

	.equ	song07_grp, voicegroup000
	.equ	song07_pri, 0
	.equ	song07_rev, 0
	.equ	song07_mvl, 127
	.equ	song07_key, 0
	.equ	song07_tbs, 1
	.equ	song07_exg, 0
	.equ	song07_cmp, 1

	.section .rodata
	.global	song07
	.align	2


@**************** Track 1 (Midi-Chn.0) ****************@

song07_001:
@  #01 @000   ----------------------------------------
 .byte   VOL , 115*song07_mvl/mxv
 .byte   KEYSH , song07_key+0
Label_0116175C:
 .byte   TEMPO , 180*song07_tbs/2
 .byte   VOICE , 61
 .byte   W96
@  #01 @001   ----------------------------------------
 .byte   W96
@  #01 @002   ----------------------------------------
 .byte   W96
@  #01 @003   ----------------------------------------
 .byte   W96
@  #01 @004   ----------------------------------------
 .byte   W96
@  #01 @005   ----------------------------------------
 .byte   W96
@  #01 @006   ----------------------------------------
 .byte   W96
@  #01 @007   ----------------------------------------
 .byte   W96
@  #01 @008   ----------------------------------------
Label_01161768:
 .byte   N24 ,En3 ,v040
 .byte   W24
 .byte   N12 ,Gn3
 .byte   W12
 .byte   N60 ,Dn3
 .byte   W60
 .byte   PEND 
@  #01 @009   ----------------------------------------
Label_01161773:
 .byte   W72
 .byte   N12 ,Cn3 ,v040
 .byte   W12
 .byte   Dn3
 .byte   W12
 .byte   PEND 
@  #01 @010   ----------------------------------------
Label_0116177B:
 .byte   N24 ,En3 ,v040
 .byte   W24
 .byte   N12 ,Cn3
 .byte   W12
 .byte   N60 ,Dn3
 .byte   W60
 .byte   PEND 
@  #01 @011   ----------------------------------------
Label_01161786:
 .byte   W72
 .byte   N12 ,En3 ,v040
 .byte   W12
 .byte   Dn3
 .byte   W12
 .byte   PEND 
@  #01 @012   ----------------------------------------
Label_0116178E:
 .byte   N24 ,En3 ,v040
 .byte   W24
 .byte   N12 ,Gn3
 .byte   W12
 .byte   N60 ,An3
 .byte   W60
 .byte   PEND 
@  #01 @013   ----------------------------------------
 .byte   W72
 .byte   N24 ,Dn3
 .byte   W24
@  #01 @014   ----------------------------------------
Label_0116179D:
 .byte   N12 ,Bn3 ,v040
 .byte   W12
 .byte   N24 ,An3
 .byte   W24
 .byte   En3
 .byte   W24
 .byte   N12 ,Gn3
 .byte   W12
 .byte   N48 ,Fs3
 .byte   W24
 .byte   PEND 
@  #01 @015   ----------------------------------------
 .byte   W24
 .byte   En3
 .byte   W72
@  #01 @016   ----------------------------------------
 .byte   W96
@  #01 @017   ----------------------------------------
 .byte   W96
@  #01 @018   ----------------------------------------
 .byte   W96
@  #01 @019   ----------------------------------------
 .byte   W96
@  #01 @020   ----------------------------------------
 .byte   W96
@  #01 @021   ----------------------------------------
 .byte   W96
@  #01 @022   ----------------------------------------
Label_011617B6:
 .byte   N24 ,Bn2 ,v040
 .byte   W36
 .byte   Cn3
 .byte   W24
 .byte   Gn3
 .byte   W24
 .byte   N36 ,Fn3
 .byte   W12
 .byte   PEND 
@  #01 @023   ----------------------------------------
Label_011617C2:
 .byte   W36
 .byte   N12 ,Cn3 ,v040
 .byte   W12
 .byte   Dn3
 .byte   W12
 .byte   N24
 .byte   W36
 .byte   PEND 
@  #01 @024   ----------------------------------------
Label_011617CC:
 .byte   N36 ,En3 ,v040
 .byte   W36
 .byte   Gn3
 .byte   W36
 .byte   Dn3
 .byte   W24
 .byte   PEND 
@  #01 @025   ----------------------------------------
Label_011617D5:
 .byte   W48
 .byte   N24 ,Cn3 ,v040
 .byte   W24
 .byte   Dn3
 .byte   W24
 .byte   PEND 
@  #01 @026   ----------------------------------------
Label_011617DD:
 .byte   N36 ,En3 ,v040
 .byte   W36
 .byte   An2
 .byte   W36
 .byte   Bn2
 .byte   W24
 .byte   PEND 
@  #01 @027   ----------------------------------------
 .byte   PATT
  .word Label_011617D5
@  #01 @028   ----------------------------------------
 .byte   PATT
  .word Label_011617CC
@  #01 @029   ----------------------------------------
Label_011617F0:
 .byte   W48
 .byte   N24 ,En3 ,v040
 .byte   W24
 .byte   Gn3
 .byte   W24
 .byte   PEND 
@  #01 @030   ----------------------------------------
Label_011617F8:
 .byte   N12 ,Cn4 ,v040
 .byte   W12
 .byte   N24 ,Bn3
 .byte   W24
 .byte   Gn3
 .byte   W24
 .byte   En3
 .byte   W24
 .byte   N36 ,Dn3
 .byte   W12
 .byte   PEND 
@  #01 @031   ----------------------------------------
 .byte   W24
 .byte   N24 ,En3
 .byte   W72
@  #01 @032   ----------------------------------------
 .byte   PATT
  .word Label_011617CC
@  #01 @033   ----------------------------------------
Label_01161810:
 .byte   W36
 .byte   N12 ,Dn3 ,v040
 .byte   W12
 .byte   N24 ,Cn3
 .byte   W24
 .byte   Dn3
 .byte   W24
 .byte   PEND 
@  #01 @034   ----------------------------------------
 .byte   PATT
  .word Label_011617DD
@  #01 @035   ----------------------------------------
 .byte   PATT
  .word Label_011617D5
@  #01 @036   ----------------------------------------
Label_01161825:
 .byte   N36 ,En3 ,v040
 .byte   W36
 .byte   Gn3
 .byte   W36
 .byte   N12 ,Fs3
 .byte   W12
 .byte   N36
 .byte   W12
 .byte   PEND 
@  #01 @037   ----------------------------------------
 .byte   PATT
  .word Label_011617F0
@  #01 @038   ----------------------------------------
 .byte   PATT
  .word Label_011617F8
@  #01 @039   ----------------------------------------
Label_0116183B:
 .byte   W24
 .byte   N12 ,En3 ,v040
 .byte   W24
 .byte   An3
 .byte   W12
 .byte   N12
 .byte   W36
 .byte   PEND 
@  #01 @040   ----------------------------------------
 .byte   N24 ,An2 ,v028
 .byte   W24
 .byte   N12
 .byte   W12
 .byte   N24 ,Gn2
 .byte   W24
 .byte   N12
 .byte   W12
 .byte   An2
 .byte   W12
 .byte   Fs2
 .byte   W12
@  #01 @041   ----------------------------------------
 .byte   W96
@  #01 @042   ----------------------------------------
 .byte   W24
 .byte   An2
 .byte   W12
 .byte   N12
 .byte   W12
 .byte   Gn2
 .byte   W12
 .byte   N12
 .byte   W12
 .byte   An2
 .byte   W12
 .byte   Fs2
 .byte   W12
@  #01 @043   ----------------------------------------
 .byte   W96
@  #01 @044   ----------------------------------------
 .byte   N24 ,An2
 .byte   W24
 .byte   N12
 .byte   W12
 .byte   N24 ,Gn2
 .byte   W24
 .byte   N12
 .byte   W36
@  #01 @045   ----------------------------------------
 .byte   W96
@  #01 @046   ----------------------------------------
 .byte   W24
 .byte   An2
 .byte   W12
 .byte   N12
 .byte   W12
 .byte   Gn2
 .byte   W12
 .byte   N12
 .byte   W12
 .byte   Gn2 ,v020
 .byte   W12
 .byte   N12
 .byte   W12
@  #01 @047   ----------------------------------------
 .byte   Gn2 ,v012
 .byte   W12
 .byte   N12
 .byte   W12
 .byte   Gn2 ,v008
 .byte   W12
 .byte   N12
 .byte   W60
@  #01 @048   ----------------------------------------
 .byte   PATT
  .word Label_01161768
@  #01 @049   ----------------------------------------
 .byte   PATT
  .word Label_01161773
@  #01 @050   ----------------------------------------
 .byte   PATT
  .word Label_0116177B
@  #01 @051   ----------------------------------------
 .byte   PATT
  .word Label_01161786
@  #01 @052   ----------------------------------------
 .byte   PATT
  .word Label_0116178E
@  #01 @053   ----------------------------------------
 .byte   W72
 .byte   N24 ,Dn3 ,v040
 .byte   W24
@  #01 @054   ----------------------------------------
 .byte   PATT
  .word Label_0116179D
@  #01 @055   ----------------------------------------
 .byte   W24
 .byte   N48 ,En3 ,v040
 .byte   W72
@  #01 @056   ----------------------------------------
 .byte   W96
@  #01 @057   ----------------------------------------
 .byte   W96
@  #01 @058   ----------------------------------------
 .byte   W96
@  #01 @059   ----------------------------------------
 .byte   W96
@  #01 @060   ----------------------------------------
 .byte   W96
@  #01 @061   ----------------------------------------
 .byte   W96
@  #01 @062   ----------------------------------------
 .byte   N24 ,Bn2
 .byte   W24
 .byte   N12
 .byte   W12
 .byte   N24 ,Cn3
 .byte   W24
 .byte   Gn3
 .byte   W24
 .byte   N36 ,Fn3
 .byte   W12
@  #01 @063   ----------------------------------------
 .byte   PATT
  .word Label_011617C2
@  #01 @064   ----------------------------------------
 .byte   PATT
  .word Label_011617CC
@  #01 @065   ----------------------------------------
 .byte   PATT
  .word Label_011617D5
@  #01 @066   ----------------------------------------
 .byte   PATT
  .word Label_011617DD
@  #01 @067   ----------------------------------------
 .byte   PATT
  .word Label_011617D5
@  #01 @068   ----------------------------------------
 .byte   PATT
  .word Label_011617CC
@  #01 @069   ----------------------------------------
 .byte   PATT
  .word Label_011617F0
@  #01 @070   ----------------------------------------
 .byte   PATT
  .word Label_011617F8
@  #01 @071   ----------------------------------------
 .byte   W24
 .byte   N24 ,En3 ,v040
 .byte   W72
@  #01 @072   ----------------------------------------
 .byte   PATT
  .word Label_011617CC
@  #01 @073   ----------------------------------------
 .byte   PATT
  .word Label_01161810
@  #01 @074   ----------------------------------------
 .byte   PATT
  .word Label_011617DD
@  #01 @075   ----------------------------------------
 .byte   PATT
  .word Label_011617D5
@  #01 @076   ----------------------------------------
 .byte   PATT
  .word Label_01161825
@  #01 @077   ----------------------------------------
 .byte   PATT
  .word Label_011617F0
@  #01 @078   ----------------------------------------
 .byte   PATT
  .word Label_011617F8
@  #01 @079   ----------------------------------------
 .byte   PATT
  .word Label_0116183B
@  #01 @080   ----------------------------------------
 .byte   W96
@  #01 @081   ----------------------------------------
 .byte   W96
@  #01 @082   ----------------------------------------
 .byte   W96
@  #01 @083   ----------------------------------------
 .byte   W96
@  #01 @084   ----------------------------------------
 .byte   W96
@  #01 @085   ----------------------------------------
 .byte   W96
@  #01 @086   ----------------------------------------
 .byte   W96
@  #01 @087   ----------------------------------------
 .byte   W96
@  #01 @088   ----------------------------------------
Label_0116191E:
 .byte   N36 ,Fs3 ,v040
 .byte   W36
 .byte   Bn2
 .byte   W36
 .byte   An3
 .byte   W24
 .byte   PEND 
@  #01 @089   ----------------------------------------
 .byte   W12
 .byte   N60 ,En3
 .byte   W60
 .byte   N12 ,Dn3
 .byte   W12
 .byte   En3
 .byte   W12
@  #01 @090   ----------------------------------------
 .byte   N24 ,Fs3
 .byte   W24
 .byte   N12 ,Gn3
 .byte   W12
 .byte   N24 ,Fs3
 .byte   W24
 .byte   Bn2
 .byte   W24
 .byte   N12 ,Dn3
 .byte   W12
@  #01 @091   ----------------------------------------
 .byte   N24 ,En3
 .byte   W24
 .byte   Dn3
 .byte   W72
@  #01 @092   ----------------------------------------
 .byte   PATT
  .word Label_0116191E
@  #01 @093   ----------------------------------------
 .byte   W12
 .byte   N60 ,En3 ,v040
 .byte   W84
@  #01 @094   ----------------------------------------
 .byte   N24 ,Fs3
 .byte   W24
 .byte   N12 ,Gn3
 .byte   W12
 .byte   N24 ,Fs3
 .byte   W24
 .byte   Dn3
 .byte   W24
 .byte   N96 ,En3
 .byte   W12
@  #01 @095   ----------------------------------------
 .byte   W96
@  #01 @096   ----------------------------------------
 .byte   PATT
  .word Label_011617B6
@  #01 @097   ----------------------------------------
 .byte   PATT
  .word Label_011617C2
@  #01 @098   ----------------------------------------
 .byte   PATT
  .word Label_011617CC
@  #01 @099   ----------------------------------------
 .byte   PATT
  .word Label_011617D5
@  #01 @100   ----------------------------------------
 .byte   PATT
  .word Label_011617DD
@  #01 @101   ----------------------------------------
 .byte   PATT
  .word Label_011617D5
@  #01 @102   ----------------------------------------
 .byte   PATT
  .word Label_011617CC
@  #01 @103   ----------------------------------------
 .byte   PATT
  .word Label_011617F0
@  #01 @104   ----------------------------------------
 .byte   PATT
  .word Label_011617F8
@  #01 @105   ----------------------------------------
 .byte   W24
 .byte   N24 ,En3 ,v040
 .byte   W72
@  #01 @106   ----------------------------------------
 .byte   PATT
  .word Label_011617CC
@  #01 @107   ----------------------------------------
 .byte   PATT
  .word Label_01161810
@  #01 @108   ----------------------------------------
 .byte   PATT
  .word Label_011617DD
@  #01 @109   ----------------------------------------
 .byte   PATT
  .word Label_011617D5
@  #01 @110   ----------------------------------------
 .byte   PATT
  .word Label_01161825
@  #01 @111   ----------------------------------------
 .byte   PATT
  .word Label_011617F0
@  #01 @112   ----------------------------------------
 .byte   PATT
  .word Label_011617F8
@  #01 @113   ----------------------------------------
 .byte   PATT
  .word Label_0116183B
@  #01 @114   ----------------------------------------
 .byte   GOTO
  .word Label_0116175C
@  #01 @115   ----------------------------------------
 .byte   W96
@  #01 @116   ----------------------------------------
 .byte   W96
@  #01 @117   ----------------------------------------
 .byte   W96
@  #01 @118   ----------------------------------------
 .byte   W96
@  #01 @119   ----------------------------------------
 .byte   W96
@  #01 @120   ----------------------------------------
 .byte   W96
@  #01 @121   ----------------------------------------
 .byte   W96
@  #01 @122   ----------------------------------------
 .byte   W96
 .byte   FINE

@**************** Track 2 (Midi-Chn.1) ****************@

song07_002:
@  #02 @000   ----------------------------------------
 .byte   VOL , 115*song07_mvl/mxv
 .byte   KEYSH , song07_key+0
Label_011619C8:
 .byte   VOICE , 0
 .byte   N24 ,Gn1 ,v032
 .byte   N24 ,Bn1
 .byte   N24 ,Dn2
 .byte   N24 ,En2
 .byte   W36
 .byte   N12 ,Fn1
 .byte   N12 ,Cn2
 .byte   N12 ,En2
 .byte   N12 ,Gn2
 .byte   W60
@  #02 @001   ----------------------------------------
Label_011619DD:
 .byte   N24 ,Gn1 ,v032
 .byte   N24 ,Dn2
 .byte   N24 ,En2
 .byte   N24 ,An2
 .byte   W36
 .byte   N12 ,Fn1
 .byte   N12 ,An1
 .byte   N12 ,Dn2
 .byte   N12 ,Gn2
 .byte   W60
 .byte   PEND 
@  #02 @002   ----------------------------------------
Label_011619F1:
 .byte   N24 ,Gn1 ,v032
 .byte   N24 ,Bn1
 .byte   N24 ,Dn2
 .byte   N24 ,En2
 .byte   W36
 .byte   N12 ,Fn1
 .byte   N12 ,An1
 .byte   N12 ,Cn2
 .byte   N12 ,En2
 .byte   N12 ,Gn2
 .byte   W24
 .byte   Fn1
 .byte   N12 ,An1
 .byte   N12 ,Cn2
 .byte   N12 ,En2
 .byte   N12 ,Gn2
 .byte   W24
 .byte   An1
 .byte   N12 ,Bn1
 .byte   N12 ,Dn2
 .byte   N12 ,An2
 .byte   W12
 .byte   PEND 
@  #02 @003   ----------------------------------------
Label_01161A19:
 .byte   W12
 .byte   N12 ,Gn1 ,v032
 .byte   N12 ,Bn1
 .byte   N12 ,Dn2
 .byte   N12 ,Fs2
 .byte   N12 ,An2
 .byte   W24
 .byte   An1
 .byte   N12 ,Cn2
 .byte   N12 ,En2
 .byte   N12 ,Gn2
 .byte   N12 ,Bn2
 .byte   W60
 .byte   PEND 
@  #02 @004   ----------------------------------------
Label_01161A31:
 .byte   N24 ,Gn1 ,v032
 .byte   N24 ,Bn1
 .byte   N24 ,Dn2
 .byte   N24 ,En2
 .byte   W36
 .byte   N12 ,Fn1
 .byte   N12 ,Cn2
 .byte   N12 ,En2
 .byte   N12 ,Gn2
 .byte   W60
 .byte   PEND 
@  #02 @005   ----------------------------------------
 .byte   PATT
  .word Label_011619DD
@  #02 @006   ----------------------------------------
Label_01161A4A:
 .byte   N24 ,Gn1 ,v032
 .byte   N24 ,Bn1
 .byte   N24 ,Dn2
 .byte   N24 ,En2
 .byte   W24
 .byte   N12 ,En1
 .byte   N12 ,Dn2
 .byte   W12
 .byte   Fn1
 .byte   N12 ,An1
 .byte   N12 ,Cn2
 .byte   N12 ,En2
 .byte   N12 ,Gn2
 .byte   W24
 .byte   Fn1
 .byte   N12 ,An1
 .byte   N12 ,Cn2
 .byte   N12 ,En2
 .byte   N12 ,Gn2
 .byte   W24
 .byte   Dn2
 .byte   N12 ,Fs2
 .byte   N12 ,An2
 .byte   W12
 .byte   PEND 
@  #02 @007   ----------------------------------------
Label_01161A74:
 .byte   W12
 .byte   N12 ,Gn1 ,v032
 .byte   N12 ,Bn1
 .byte   N12 ,Dn2
 .byte   N12 ,Fs2
 .byte   N12 ,An2
 .byte   W24
 .byte   Gn1
 .byte   N12 ,Dn2
 .byte   N12 ,Fs2
 .byte   N12 ,An2
 .byte   W60
 .byte   PEND 
@  #02 @008   ----------------------------------------
Label_01161A8A:
 .byte   N36 ,An1 ,v028
 .byte   N36 ,Cn2
 .byte   N36 ,En2
 .byte   N36 ,Gn2
 .byte   W36
 .byte   N96 ,Gn1
 .byte   N96 ,Bn1
 .byte   N96 ,En2
 .byte   W60
 .byte   PEND 
@  #02 @009   ----------------------------------------
Label_01161A9C:
 .byte   W36
 .byte   N60 ,Dn4 ,v016
 .byte   N60 ,En4
 .byte   N60 ,Gn4
 .byte   N60 ,Bn4
 .byte   W60
 .byte   PEND 
@  #02 @010   ----------------------------------------
Label_01161AA8:
 .byte   N36 ,Fn1 ,v028
 .byte   N36 ,An1
 .byte   N36 ,Cn2
 .byte   N36 ,En2
 .byte   W36
 .byte   N96 ,Gn1
 .byte   N96 ,Bn1
 .byte   N96 ,En2
 .byte   W60
 .byte   PEND 
@  #02 @011   ----------------------------------------
 .byte   PATT
  .word Label_01161A9C
@  #02 @012   ----------------------------------------
 .byte   PATT
  .word Label_01161A8A
@  #02 @013   ----------------------------------------
 .byte   PATT
  .word Label_01161A9C
@  #02 @014   ----------------------------------------
 .byte   PATT
  .word Label_01161AA8
@  #02 @015   ----------------------------------------
 .byte   PATT
  .word Label_01161A9C
@  #02 @016   ----------------------------------------
Label_01161AD3:
 .byte   N24 ,Cn2 ,v028
 .byte   N24 ,En2
 .byte   N24 ,Gn2
 .byte   N24 ,Bn2
 .byte   W36
 .byte   N06 ,Gn1 ,v024
 .byte   N06 ,Bn1
 .byte   N06 ,Dn2
 .byte   N06 ,En2
 .byte   W24
 .byte   Gn1
 .byte   N06 ,Bn1
 .byte   N06 ,Dn2
 .byte   N06 ,En2
 .byte   W24
 .byte   Gn1
 .byte   N06 ,Bn1
 .byte   N06 ,Dn2
 .byte   N06 ,En2
 .byte   W12
 .byte   PEND 
@  #02 @017   ----------------------------------------
Label_01161AF8:
 .byte   W12
 .byte   N06 ,Gn1 ,v024
 .byte   N06 ,Bn1
 .byte   N06 ,Dn2
 .byte   N06 ,En2
 .byte   W24
 .byte   Gn1
 .byte   N06 ,Bn1
 .byte   N06 ,Dn2
 .byte   N06 ,En2
 .byte   W12
 .byte   Gn1
 .byte   N06 ,Bn1
 .byte   N06 ,Dn2
 .byte   N06 ,En2
 .byte   W24
 .byte   Gn1
 .byte   N06 ,Bn1
 .byte   N06 ,Dn2
 .byte   N06 ,En2
 .byte   W24
 .byte   PEND 
@  #02 @018   ----------------------------------------
 .byte   PATT
  .word Label_01161AD3
@  #02 @019   ----------------------------------------
Label_01161B21:
 .byte   W12
 .byte   N06 ,Gn1 ,v024
 .byte   N06 ,Bn1
 .byte   N06 ,Dn2
 .byte   N06 ,En2
 .byte   W24
 .byte   Gn1
 .byte   N06 ,Bn1
 .byte   N06 ,Dn2
 .byte   N06 ,En2
 .byte   W12
 .byte   En1
 .byte   N06 ,Gn1
 .byte   N06 ,Bn1
 .byte   N06 ,Dn2
 .byte   W12
 .byte   En1
 .byte   N06 ,Gn1
 .byte   N06 ,Bn1
 .byte   N06 ,Dn2
 .byte   W12
 .byte   En1
 .byte   N06 ,Gn1
 .byte   N06 ,Bn1
 .byte   N06 ,Dn2
 .byte   W12
 .byte   En1
 .byte   N06 ,Gn1
 .byte   N06 ,Bn1
 .byte   N06 ,Dn2
 .byte   W12
 .byte   PEND 
@  #02 @020   ----------------------------------------
Label_01161B55:
 .byte   N24 ,Cn2 ,v028
 .byte   N24 ,En2
 .byte   N24 ,Gn2
 .byte   N24 ,Bn2
 .byte   W36
 .byte   N06 ,En1 ,v024
 .byte   N06 ,Gn1
 .byte   N06 ,Bn1
 .byte   N06 ,Dn2
 .byte   W24
 .byte   En1
 .byte   N06 ,Gn1
 .byte   N06 ,Bn1
 .byte   N06 ,Dn2
 .byte   W24
 .byte   En1
 .byte   N06 ,Gn1
 .byte   N06 ,Bn1
 .byte   N06 ,Dn2
 .byte   W12
 .byte   PEND 
@  #02 @021   ----------------------------------------
Label_01161B7A:
 .byte   W12
 .byte   N06 ,En1 ,v024
 .byte   N06 ,Gn1
 .byte   N06 ,Bn1
 .byte   N06 ,Dn2
 .byte   W24
 .byte   En1
 .byte   N06 ,Gn1
 .byte   N06 ,Bn1
 .byte   N06 ,Dn2
 .byte   W12
 .byte   En1
 .byte   N06 ,Gn1
 .byte   N06 ,Bn1
 .byte   N06 ,Dn2
 .byte   W24
 .byte   En1
 .byte   N06 ,Gn1
 .byte   N06 ,Bn1
 .byte   N06 ,Dn2
 .byte   W24
 .byte   PEND 
@  #02 @022   ----------------------------------------
Label_01161B9E:
 .byte   N24 ,Cn2 ,v020
 .byte   N24 ,En2
 .byte   N24 ,Gn2
 .byte   N24 ,Bn2
 .byte   W36
 .byte   N12 ,En2
 .byte   N12 ,Gn2
 .byte   N12 ,Cn3
 .byte   W24
 .byte   En2
 .byte   N12 ,Gn2
 .byte   N12 ,Cn3
 .byte   W36
 .byte   PEND 
@  #02 @023   ----------------------------------------
 .byte   W96
@  #02 @024   ----------------------------------------
Label_01161BB7:
 .byte   N96 ,An1 ,v020
 .byte   N96 ,En2
 .byte   N96 ,An2
 .byte   W36
 .byte   N60 ,Dn4 ,v016
 .byte   N60 ,En4
 .byte   N60 ,Gn4
 .byte   N60 ,Bn4
 .byte   W60
 .byte   PEND 
@  #02 @025   ----------------------------------------
Label_01161BCA:
 .byte   N96 ,En1 ,v020
 .byte   N96 ,Bn1
 .byte   N96 ,En2
 .byte   W36
 .byte   N60 ,Dn4 ,v016
 .byte   N60 ,En4
 .byte   N60 ,Gn4
 .byte   N60 ,Bn4
 .byte   W60
 .byte   PEND 
@  #02 @026   ----------------------------------------
Label_01161BDD:
 .byte   N96 ,Fn1 ,v020
 .byte   N96 ,Cn2
 .byte   N96 ,Fn2
 .byte   W36
 .byte   N60 ,Dn4 ,v016
 .byte   N60 ,En4
 .byte   N60 ,Gn4
 .byte   N60 ,Bn4
 .byte   W60
 .byte   PEND 
@  #02 @027   ----------------------------------------
Label_01161BF0:
 .byte   N96 ,Dn1 ,v020
 .byte   N96 ,An1
 .byte   N96 ,Dn2
 .byte   W36
 .byte   N60 ,Dn4 ,v016
 .byte   N60 ,En4
 .byte   N60 ,Gn4
 .byte   N60 ,Bn4
 .byte   W60
 .byte   PEND 
@  #02 @028   ----------------------------------------
 .byte   PATT
  .word Label_01161BB7
@  #02 @029   ----------------------------------------
 .byte   PATT
  .word Label_01161BCA
@  #02 @030   ----------------------------------------
 .byte   PATT
  .word Label_01161BDD
@  #02 @031   ----------------------------------------
 .byte   PATT
  .word Label_01161BF0
@  #02 @032   ----------------------------------------
 .byte   PATT
  .word Label_01161BB7
@  #02 @033   ----------------------------------------
 .byte   PATT
  .word Label_01161BCA
@  #02 @034   ----------------------------------------
 .byte   PATT
  .word Label_01161BDD
@  #02 @035   ----------------------------------------
 .byte   PATT
  .word Label_01161BF0
@  #02 @036   ----------------------------------------
 .byte   PATT
  .word Label_01161BB7
@  #02 @037   ----------------------------------------
 .byte   PATT
  .word Label_01161BCA
@  #02 @038   ----------------------------------------
 .byte   PATT
  .word Label_01161BDD
@  #02 @039   ----------------------------------------
Label_01161C3A:
 .byte   N96 ,Dn1 ,v020
 .byte   N96 ,An1
 .byte   N96 ,Dn2
 .byte   W96
 .byte   PEND 
@  #02 @040   ----------------------------------------
 .byte   PATT
  .word Label_01161A31
@  #02 @041   ----------------------------------------
 .byte   PATT
  .word Label_011619DD
@  #02 @042   ----------------------------------------
 .byte   PATT
  .word Label_011619F1
@  #02 @043   ----------------------------------------
 .byte   PATT
  .word Label_01161A19
@  #02 @044   ----------------------------------------
 .byte   PATT
  .word Label_01161A31
@  #02 @045   ----------------------------------------
 .byte   PATT
  .word Label_011619DD
@  #02 @046   ----------------------------------------
 .byte   PATT
  .word Label_01161A4A
@  #02 @047   ----------------------------------------
 .byte   PATT
  .word Label_01161A74
@  #02 @048   ----------------------------------------
 .byte   PATT
  .word Label_01161A8A
@  #02 @049   ----------------------------------------
 .byte   PATT
  .word Label_01161A9C
@  #02 @050   ----------------------------------------
 .byte   PATT
  .word Label_01161AA8
@  #02 @051   ----------------------------------------
 .byte   PATT
  .word Label_01161A9C
@  #02 @052   ----------------------------------------
 .byte   PATT
  .word Label_01161A8A
@  #02 @053   ----------------------------------------
 .byte   PATT
  .word Label_01161A9C
@  #02 @054   ----------------------------------------
 .byte   PATT
  .word Label_01161AA8
@  #02 @055   ----------------------------------------
 .byte   PATT
  .word Label_01161A9C
@  #02 @056   ----------------------------------------
 .byte   PATT
  .word Label_01161AD3
@  #02 @057   ----------------------------------------
 .byte   PATT
  .word Label_01161AF8
@  #02 @058   ----------------------------------------
 .byte   PATT
  .word Label_01161AD3
@  #02 @059   ----------------------------------------
 .byte   PATT
  .word Label_01161B21
@  #02 @060   ----------------------------------------
 .byte   PATT
  .word Label_01161B55
@  #02 @061   ----------------------------------------
 .byte   PATT
  .word Label_01161B7A
@  #02 @062   ----------------------------------------
 .byte   PATT
  .word Label_01161B9E
@  #02 @063   ----------------------------------------
 .byte   W96
@  #02 @064   ----------------------------------------
 .byte   PATT
  .word Label_01161BB7
@  #02 @065   ----------------------------------------
 .byte   PATT
  .word Label_01161BCA
@  #02 @066   ----------------------------------------
 .byte   PATT
  .word Label_01161BDD
@  #02 @067   ----------------------------------------
 .byte   PATT
  .word Label_01161BF0
@  #02 @068   ----------------------------------------
 .byte   PATT
  .word Label_01161BB7
@  #02 @069   ----------------------------------------
 .byte   PATT
  .word Label_01161BCA
@  #02 @070   ----------------------------------------
 .byte   PATT
  .word Label_01161BDD
@  #02 @071   ----------------------------------------
 .byte   PATT
  .word Label_01161BF0
@  #02 @072   ----------------------------------------
 .byte   PATT
  .word Label_01161BB7
@  #02 @073   ----------------------------------------
 .byte   PATT
  .word Label_01161BCA
@  #02 @074   ----------------------------------------
 .byte   PATT
  .word Label_01161BDD
@  #02 @075   ----------------------------------------
 .byte   PATT
  .word Label_01161BF0
@  #02 @076   ----------------------------------------
 .byte   PATT
  .word Label_01161BB7
@  #02 @077   ----------------------------------------
 .byte   PATT
  .word Label_01161BCA
@  #02 @078   ----------------------------------------
 .byte   PATT
  .word Label_01161BDD
@  #02 @079   ----------------------------------------
 .byte   PATT
  .word Label_01161C3A
@  #02 @080   ----------------------------------------
Label_01161D07:
 .byte   N84 ,En2 ,v024
 .byte   N84 ,Gn2
 .byte   N84 ,Dn3
 .byte   W96
 .byte   PEND 
@  #02 @081   ----------------------------------------
 .byte   W96
@  #02 @082   ----------------------------------------
Label_01161D11:
 .byte   N84 ,Cn2 ,v024
 .byte   N84 ,An2
 .byte   N84 ,Dn3
 .byte   N84 ,En3
 .byte   W84
 .byte   N60 ,Dn2
 .byte   N60 ,Fs2
 .byte   N60 ,An2
 .byte   N60 ,En3
 .byte   W12
 .byte   PEND 
@  #02 @083   ----------------------------------------
Label_01161D25:
 .byte   W48
 .byte   N12 ,Dn2 ,v024
 .byte   W12
 .byte   N36
 .byte   N36 ,An2
 .byte   N36 ,Bn2
 .byte   N36 ,Dn3
 .byte   W36
 .byte   PEND 
@  #02 @084   ----------------------------------------
Label_01161D33:
 .byte   N84 ,En1 ,v024
 .byte   N84 ,Gn2
 .byte   N84 ,Fs3
 .byte   W84
 .byte   An2
 .byte   N84 ,Dn3
 .byte   N84 ,En3
 .byte   W12
 .byte   PEND 
@  #02 @085   ----------------------------------------
Label_01161D42:
 .byte   W72
 .byte   N12 ,Fs2 ,v024
 .byte   W12
 .byte   Gn2
 .byte   W12
 .byte   PEND 
@  #02 @086   ----------------------------------------
Label_01161D4A:
 .byte   N84 ,An2 ,v024
 .byte   N84 ,Dn3
 .byte   N84 ,En3
 .byte   N84 ,Bn3
 .byte   W96
 .byte   PEND 
@  #02 @087   ----------------------------------------
 .byte   W96
@  #02 @088   ----------------------------------------
 .byte   PATT
  .word Label_01161D07
@  #02 @089   ----------------------------------------
 .byte   W96
@  #02 @090   ----------------------------------------
 .byte   PATT
  .word Label_01161D11
@  #02 @091   ----------------------------------------
 .byte   PATT
  .word Label_01161D25
@  #02 @092   ----------------------------------------
 .byte   PATT
  .word Label_01161D33
@  #02 @093   ----------------------------------------
 .byte   PATT
  .word Label_01161D42
@  #02 @094   ----------------------------------------
 .byte   PATT
  .word Label_01161D4A
@  #02 @095   ----------------------------------------
 .byte   W96
@  #02 @096   ----------------------------------------
 .byte   N24 ,Cn2 ,v024
 .byte   N24 ,En2
 .byte   N24 ,Gn2
 .byte   N24 ,Bn2
 .byte   W36
 .byte   N12 ,En2
 .byte   N12 ,Gn2
 .byte   N12 ,Cn3
 .byte   W24
 .byte   En2
 .byte   N12 ,Gn2
 .byte   N12 ,Cn3
 .byte   W36
@  #02 @097   ----------------------------------------
 .byte   W96
@  #02 @098   ----------------------------------------
 .byte   PATT
  .word Label_01161BB7
@  #02 @099   ----------------------------------------
 .byte   PATT
  .word Label_01161BCA
@  #02 @100   ----------------------------------------
 .byte   PATT
  .word Label_01161BDD
@  #02 @101   ----------------------------------------
 .byte   PATT
  .word Label_01161BF0
@  #02 @102   ----------------------------------------
 .byte   PATT
  .word Label_01161BB7
@  #02 @103   ----------------------------------------
 .byte   PATT
  .word Label_01161BCA
@  #02 @104   ----------------------------------------
 .byte   PATT
  .word Label_01161BDD
@  #02 @105   ----------------------------------------
 .byte   PATT
  .word Label_01161BF0
@  #02 @106   ----------------------------------------
 .byte   PATT
  .word Label_01161BB7
@  #02 @107   ----------------------------------------
 .byte   PATT
  .word Label_01161BCA
@  #02 @108   ----------------------------------------
 .byte   PATT
  .word Label_01161BDD
@  #02 @109   ----------------------------------------
 .byte   PATT
  .word Label_01161BF0
@  #02 @110   ----------------------------------------
 .byte   PATT
  .word Label_01161BB7
@  #02 @111   ----------------------------------------
 .byte   PATT
  .word Label_01161BCA
@  #02 @112   ----------------------------------------
 .byte   PATT
  .word Label_01161BDD
@  #02 @113   ----------------------------------------
 .byte   PATT
  .word Label_01161C3A
@  #02 @114   ----------------------------------------
 .byte   GOTO
  .word Label_011619C8
@  #02 @115   ----------------------------------------
 .byte   N24 ,Gn1 ,v032
 .byte   N24 ,Bn1
 .byte   N24 ,Dn2
 .byte   N24 ,En2
 .byte   W36
 .byte   N12 ,Fn1 ,v028
 .byte   N12 ,Cn2
 .byte   N12 ,En2
 .byte   N12 ,Gn2
 .byte   W60
@  #02 @116   ----------------------------------------
 .byte   N24 ,Gn1
 .byte   N24 ,Dn2
 .byte   N24 ,En2
 .byte   N24 ,An2
 .byte   W36
 .byte   N12 ,Fn1 ,v024
 .byte   N12 ,An1
 .byte   N12 ,Dn2
 .byte   N12 ,Gn2
 .byte   W60
@  #02 @117   ----------------------------------------
 .byte   N24 ,Gn1
 .byte   N24 ,Bn1
 .byte   N24 ,Dn2
 .byte   N24 ,En2
 .byte   W36
 .byte   N12 ,Fn1 ,v020
 .byte   N12 ,An1
 .byte   N12 ,Cn2
 .byte   N12 ,En2
 .byte   N12 ,Gn2
 .byte   W24
 .byte   Fn1
 .byte   N12 ,An1
 .byte   N12 ,Cn2
 .byte   N12 ,En2
 .byte   N12 ,Gn2
 .byte   W24
 .byte   An1
 .byte   N12 ,Bn1
 .byte   N12 ,Dn2
 .byte   N12 ,An2
 .byte   W12
@  #02 @118   ----------------------------------------
 .byte   W12
 .byte   Gn1
 .byte   N12 ,Bn1
 .byte   N12 ,Dn2
 .byte   N12 ,Fs2
 .byte   N12 ,An2
 .byte   W24
 .byte   An1 ,v016
 .byte   N12 ,Cn2
 .byte   N12 ,En2
 .byte   N12 ,Gn2
 .byte   N12 ,Bn2
 .byte   W60
@  #02 @119   ----------------------------------------
 .byte   N24 ,Gn1
 .byte   N24 ,Bn1
 .byte   N24 ,Dn2
 .byte   N24 ,En2
 .byte   W36
 .byte   N12 ,Fn1
 .byte   N12 ,Cn2
 .byte   N12 ,En2
 .byte   N12 ,Gn2
 .byte   W60
@  #02 @120   ----------------------------------------
 .byte   N24 ,Gn1 ,v012
 .byte   N24 ,Dn2
 .byte   N24 ,En2
 .byte   N24 ,An2
 .byte   W36
 .byte   N12 ,Fn1
 .byte   N12 ,An1
 .byte   N12 ,Dn2
 .byte   N12 ,Gn2
 .byte   W60
@  #02 @121   ----------------------------------------
 .byte   N24 ,Gn1 ,v008
 .byte   N24 ,Bn1
 .byte   N24 ,Dn2
 .byte   N24 ,En2
 .byte   W24
 .byte   N12 ,En1
 .byte   N12 ,Dn2
 .byte   W12
 .byte   Fn1
 .byte   N12 ,An1
 .byte   N12 ,Cn2
 .byte   N12 ,En2
 .byte   N12 ,Gn2
 .byte   W24
 .byte   Fn1
 .byte   N12 ,An1
 .byte   N12 ,Cn2
 .byte   N12 ,En2
 .byte   N12 ,Gn2
 .byte   W24
 .byte   Dn2 ,v004
 .byte   N12 ,Fs2
 .byte   N12 ,An2
 .byte   W12
@  #02 @122   ----------------------------------------
 .byte   W12
 .byte   Gn1
 .byte   N12 ,Bn1
 .byte   N12 ,Dn2
 .byte   N12 ,Fs2
 .byte   N12 ,An2
 .byte   W24
 .byte   Gn1
 .byte   N12 ,Dn2
 .byte   N12 ,Fs2
 .byte   N12 ,An2
 .byte   W60
 .byte   FINE

@**************** Track 3 (Midi-Chn.2) ****************@

song07_003:
@  #03 @000   ----------------------------------------
 .byte   VOL , 100*song07_mvl/mxv
 .byte   KEYSH , song07_key+0
Label_54A4E8:
 .byte   VOICE , 68
 .byte   W96
@  #03 @001   ----------------------------------------
 .byte   W96
@  #03 @002   ----------------------------------------
 .byte   W96
@  #03 @003   ----------------------------------------
 .byte   W96
@  #03 @004   ----------------------------------------
 .byte   W96
@  #03 @005   ----------------------------------------
 .byte   W96
@  #03 @006   ----------------------------------------
 .byte   W96
@  #03 @007   ----------------------------------------
 .byte   W96
@  #03 @008   ----------------------------------------
 .byte   W96
@  #03 @009   ----------------------------------------
Label_54A4F3:
 .byte   N48 ,En4 ,v004
 .byte   N48 ,Gn4
 .byte   N48 ,Gs4
 .byte   N48 ,Bn4
 .byte   W96
 .byte   PEND 
@  #03 @010   ----------------------------------------
 .byte   W96
@  #03 @011   ----------------------------------------
 .byte   PATT
  .word Label_54A4F3
@  #03 @012   ----------------------------------------
 .byte   W96
@  #03 @013   ----------------------------------------
 .byte   PATT
  .word Label_54A4F3
@  #03 @014   ----------------------------------------
 .byte   W96
@  #03 @015   ----------------------------------------
 .byte   PATT
  .word Label_54A4F3
@  #03 @016   ----------------------------------------
 .byte   W96
@  #03 @017   ----------------------------------------
 .byte   W96
@  #03 @018   ----------------------------------------
 .byte   W96
@  #03 @019   ----------------------------------------
 .byte   W96
@  #03 @020   ----------------------------------------
 .byte   W96
@  #03 @021   ----------------------------------------
 .byte   W96
@  #03 @022   ----------------------------------------
Label_54A516:
 .byte   N36 ,Cn3 ,v008
 .byte   N36 ,En3
 .byte   N36 ,Gn3
 .byte   N36 ,Bn3
 .byte   W36
 .byte   N48 ,En3
 .byte   N48 ,Gn3
 .byte   N48 ,Cn4
 .byte   W48
 .byte   TIE ,En3 ,v016
 .byte   TIE ,Gn3
 .byte   TIE ,Bn3
 .byte   TIE ,Dn4
 .byte   W12
 .byte   PEND 
@  #03 @023   ----------------------------------------
 .byte   W96
@  #03 @024   ----------------------------------------
 .byte   EOT
 .byte   En3 ,v067
 .byte   Bn3 ,v074
 .byte   W96
@  #03 @025   ----------------------------------------
 .byte   W96
@  #03 @026   ----------------------------------------
 .byte   W96
@  #03 @027   ----------------------------------------
 .byte   W96
@  #03 @028   ----------------------------------------
 .byte   W96
@  #03 @029   ----------------------------------------
 .byte   W96
@  #03 @030   ----------------------------------------
Label_54A53E:
 .byte   W84
 .byte   TIE ,En3 ,v016
 .byte   TIE ,Gn3
 .byte   TIE ,Bn3
 .byte   TIE ,Dn4
 .byte   W12
 .byte   PEND 
@  #03 @031   ----------------------------------------
 .byte   W96
@  #03 @032   ----------------------------------------
 .byte   EOT
 .byte   En3 ,v067
 .byte   Bn3 ,v074
 .byte   W96
@  #03 @033   ----------------------------------------
 .byte   W96
@  #03 @034   ----------------------------------------
 .byte   W96
@  #03 @035   ----------------------------------------
 .byte   W96
@  #03 @036   ----------------------------------------
 .byte   W96
@  #03 @037   ----------------------------------------
 .byte   W96
@  #03 @038   ----------------------------------------
 .byte   W96
@  #03 @039   ----------------------------------------
 .byte   W96
@  #03 @040   ----------------------------------------
 .byte   W96
@  #03 @041   ----------------------------------------
 .byte   W96
@  #03 @042   ----------------------------------------
 .byte   W96
@  #03 @043   ----------------------------------------
 .byte   W96
@  #03 @044   ----------------------------------------
 .byte   W96
@  #03 @045   ----------------------------------------
 .byte   W96
@  #03 @046   ----------------------------------------
 .byte   W96
@  #03 @047   ----------------------------------------
 .byte   W96
@  #03 @048   ----------------------------------------
 .byte   W96
@  #03 @049   ----------------------------------------
 .byte   PATT
  .word Label_54A4F3
@  #03 @050   ----------------------------------------
 .byte   W96
@  #03 @051   ----------------------------------------
 .byte   PATT
  .word Label_54A4F3
@  #03 @052   ----------------------------------------
 .byte   W96
@  #03 @053   ----------------------------------------
 .byte   PATT
  .word Label_54A4F3
@  #03 @054   ----------------------------------------
 .byte   W96
@  #03 @055   ----------------------------------------
 .byte   PATT
  .word Label_54A4F3
@  #03 @056   ----------------------------------------
 .byte   W96
@  #03 @057   ----------------------------------------
 .byte   W96
@  #03 @058   ----------------------------------------
 .byte   W96
@  #03 @059   ----------------------------------------
 .byte   W96
@  #03 @060   ----------------------------------------
 .byte   W96
@  #03 @061   ----------------------------------------
 .byte   W96
@  #03 @062   ----------------------------------------
 .byte   PATT
  .word Label_54A516
@  #03 @063   ----------------------------------------
 .byte   W96
@  #03 @064   ----------------------------------------
 .byte   EOT
 .byte   En3 ,v067
 .byte   Bn3 ,v074
 .byte   W96
@  #03 @065   ----------------------------------------
 .byte   W96
@  #03 @066   ----------------------------------------
 .byte   W96
@  #03 @067   ----------------------------------------
 .byte   W96
@  #03 @068   ----------------------------------------
 .byte   W96
@  #03 @069   ----------------------------------------
 .byte   W96
@  #03 @070   ----------------------------------------
 .byte   PATT
  .word Label_54A53E
@  #03 @071   ----------------------------------------
 .byte   W96
@  #03 @072   ----------------------------------------
 .byte   EOT
 .byte   En3 ,v067
 .byte   Bn3 ,v074
 .byte   W96
@  #03 @073   ----------------------------------------
 .byte   W96
@  #03 @074   ----------------------------------------
 .byte   W96
@  #03 @075   ----------------------------------------
 .byte   W96
@  #03 @076   ----------------------------------------
 .byte   W96
@  #03 @077   ----------------------------------------
 .byte   W96
@  #03 @078   ----------------------------------------
 .byte   W96
@  #03 @079   ----------------------------------------
 .byte   W96
@  #03 @080   ----------------------------------------
 .byte   W96
@  #03 @081   ----------------------------------------
 .byte   W96
@  #03 @082   ----------------------------------------
 .byte   W96
@  #03 @083   ----------------------------------------
 .byte   W96
@  #03 @084   ----------------------------------------
 .byte   W96
@  #03 @085   ----------------------------------------
 .byte   W96
@  #03 @086   ----------------------------------------
 .byte   W96
@  #03 @087   ----------------------------------------
 .byte   W96
@  #03 @088   ----------------------------------------
 .byte   N84 ,En3 ,v008
 .byte   N84 ,Gn3
 .byte   N84 ,Dn4
 .byte   W84
 .byte   TIE ,Bn2
 .byte   TIE ,An3
 .byte   TIE ,Dn4
 .byte   TIE ,En4
 .byte   W12
@  #03 @089   ----------------------------------------
 .byte   W96
@  #03 @090   ----------------------------------------
 .byte   EOT
 .byte   Bn2 ,v069
 .byte   Dn4 ,v076
 .byte   N84 ,Cn3
 .byte   N84 ,An3
 .byte   N84 ,Dn4
 .byte   N84 ,En4
 .byte   W84
 .byte   N60 ,Dn3
 .byte   N60 ,Fs3
 .byte   N60 ,An3
 .byte   N60 ,En4
 .byte   W12
@  #03 @091   ----------------------------------------
 .byte   W48
 .byte   N48 ,Dn3
 .byte   N48 ,An3
 .byte   N48 ,Bn3
 .byte   N48 ,Dn4
 .byte   W48
@  #03 @092   ----------------------------------------
 .byte   N84 ,En2
 .byte   N84 ,Gn3
 .byte   N84 ,Fs4
 .byte   W84
 .byte   TIE ,An3
 .byte   TIE ,Dn4
 .byte   TIE ,En4
 .byte   W12
@  #03 @093   ----------------------------------------
 .byte   W96
@  #03 @094   ----------------------------------------
 .byte   EOT
 .byte   An3 ,v074
 .byte   En4
 .byte   N84 ,An3
 .byte   N84 ,Dn4
 .byte   N84 ,En4
 .byte   N84 ,Bn4
 .byte   W84
 .byte   TIE ,Gn3
 .byte   TIE ,Gs3
 .byte   TIE ,Dn4
 .byte   TIE ,Fn4
 .byte   TIE ,An4
 .byte   TIE ,Bn4
 .byte   W12
@  #03 @095   ----------------------------------------
 .byte   W96
@  #03 @096   ----------------------------------------
 .byte   EOT
 .byte   Gn3 ,v068
 .byte   Dn4 ,v077
 .byte   An4 ,v083
@  #03 @097   ----------------------------------------
 .byte   PATT
  .word Label_54A516
@  #03 @098   ----------------------------------------
 .byte   W96
@  #03 @099   ----------------------------------------
 .byte   EOT
 .byte   En3 ,v067
 .byte   Bn3 ,v074
 .byte   W96
@  #03 @100   ----------------------------------------
 .byte   W96
@  #03 @101   ----------------------------------------
 .byte   W96
@  #03 @102   ----------------------------------------
 .byte   W96
@  #03 @103   ----------------------------------------
 .byte   W96
@  #03 @104   ----------------------------------------
 .byte   W96
@  #03 @105   ----------------------------------------
 .byte   PATT
  .word Label_54A53E
@  #03 @106   ----------------------------------------
 .byte   W96
@  #03 @107   ----------------------------------------
 .byte   EOT
 .byte   En3 ,v067
 .byte   Bn3 ,v074
 .byte   W96
@  #03 @108   ----------------------------------------
 .byte   W96
@  #03 @109   ----------------------------------------
 .byte   W96
@  #03 @110   ----------------------------------------
 .byte   W96
@  #03 @111   ----------------------------------------
 .byte   W96
@  #03 @112   ----------------------------------------
 .byte   W96
@  #03 @113   ----------------------------------------
 .byte   W96
@  #03 @114   ----------------------------------------
 .byte   W96
@  #03 @115   ----------------------------------------
 .byte   GOTO
  .word Label_54A4E8
@  #03 @116   ----------------------------------------
 .byte   W96
@  #03 @117   ----------------------------------------
 .byte   W96
@  #03 @118   ----------------------------------------
 .byte   W96
@  #03 @119   ----------------------------------------
 .byte   W96
@  #03 @120   ----------------------------------------
 .byte   W96
@  #03 @121   ----------------------------------------
 .byte   W96
@  #03 @122   ----------------------------------------
 .byte   W96
@  #03 @123   ----------------------------------------
 .byte   W96
 .byte   FINE

@**************** Track 4 (Midi-Chn.3) ****************@

song07_004:
@  #04 @000   ----------------------------------------
 .byte   VOL , 85*song07_mvl/mxv
 .byte   KEYSH , song07_key+0
Label_54B00C:
 .byte   VOICE , 49
 .byte   W96
@  #04 @001   ----------------------------------------
 .byte   W96
@  #04 @002   ----------------------------------------
 .byte   W96
@  #04 @003   ----------------------------------------
 .byte   W96
@  #04 @004   ----------------------------------------
 .byte   W96
@  #04 @005   ----------------------------------------
 .byte   W96
@  #04 @006   ----------------------------------------
 .byte   W96
@  #04 @007   ----------------------------------------
 .byte   W96
@  #04 @008   ----------------------------------------
 .byte   W96
@  #04 @009   ----------------------------------------
 .byte   W96
@  #04 @010   ----------------------------------------
 .byte   W96
@  #04 @011   ----------------------------------------
 .byte   W96
@  #04 @012   ----------------------------------------
 .byte   W96
@  #04 @013   ----------------------------------------
 .byte   W96
@  #04 @014   ----------------------------------------
 .byte   W96
@  #04 @015   ----------------------------------------
 .byte   W96
@  #04 @016   ----------------------------------------
 .byte   W96
@  #04 @017   ----------------------------------------
 .byte   W96
@  #04 @018   ----------------------------------------
 .byte   W96
@  #04 @019   ----------------------------------------
 .byte   W96
@  #04 @020   ----------------------------------------
 .byte   W96
@  #04 @021   ----------------------------------------
 .byte   W96
@  #04 @022   ----------------------------------------
Label_54B024:
 .byte   W84
 .byte   TIE ,En3 ,v028
 .byte   TIE ,Gn3
 .byte   TIE ,Bn3 ,v036
 .byte   TIE ,Dn4
 .byte   W12
 .byte   PEND 
@  #04 @023   ----------------------------------------
 .byte   W96
@  #04 @024   ----------------------------------------
 .byte   EOT
 .byte   En3 ,v067
 .byte   Bn3 ,v074
 .byte   W96
@  #04 @025   ----------------------------------------
 .byte   W96
@  #04 @026   ----------------------------------------
 .byte   W96
@  #04 @027   ----------------------------------------
Label_54B03A:
 .byte   W12
 .byte   N12 ,En3 ,v032
 .byte   N12 ,En4 ,v040
 .byte   W12
 .byte   Dn3 ,v032
 .byte   N12 ,Dn4 ,v040
 .byte   W12
 .byte   En3 ,v032
 .byte   N12 ,En4 ,v040
 .byte   W12
 .byte   Gn3 ,v032
 .byte   N12 ,Gn4 ,v040
 .byte   W12
 .byte   An3 ,v032
 .byte   N12 ,An4 ,v040
 .byte   W24
 .byte   N36 ,En3 ,v032
 .byte   N36 ,Bn3
 .byte   N36 ,En4 ,v040
 .byte   W12
 .byte   PEND 
@  #04 @028   ----------------------------------------
 .byte   W96
@  #04 @029   ----------------------------------------
 .byte   W96
@  #04 @030   ----------------------------------------
 .byte   PATT
  .word Label_54B024
@  #04 @031   ----------------------------------------
 .byte   W96
@  #04 @032   ----------------------------------------
 .byte   EOT
 .byte   En3 ,v067
 .byte   Bn3 ,v074
 .byte   W96
@  #04 @033   ----------------------------------------
 .byte   W96
@  #04 @034   ----------------------------------------
 .byte   W96
@  #04 @035   ----------------------------------------
Label_54B074:
 .byte   W24
 .byte   N12 ,Dn3 ,v032
 .byte   N12 ,Dn4 ,v040
 .byte   W12
 .byte   En3 ,v032
 .byte   N12 ,En4 ,v040
 .byte   W12
 .byte   Gn3 ,v032
 .byte   N12 ,Gn4 ,v040
 .byte   W12
 .byte   En3 ,v032
 .byte   N12 ,En4 ,v040
 .byte   W12
 .byte   Gn3 ,v032
 .byte   N12 ,Gn4 ,v040
 .byte   W12
 .byte   An3 ,v032
 .byte   N12 ,An4 ,v040
 .byte   W12
 .byte   PEND 
@  #04 @036   ----------------------------------------
Label_54B09B:
 .byte   W48
 .byte   N36 ,En3 ,v028
 .byte   N36 ,En4 ,v036
 .byte   W48
 .byte   PEND 
@  #04 @037   ----------------------------------------
Label_54B0A4:
 .byte   N36 ,Dn3 ,v028
 .byte   N36 ,Dn4 ,v036
 .byte   W48
 .byte   N48 ,Gn3 ,v028
 .byte   N48 ,Gn4 ,v036
 .byte   W48
 .byte   PEND 
@  #04 @038   ----------------------------------------
 .byte   W96
@  #04 @039   ----------------------------------------
Label_54B0B4:
 .byte   W48
 .byte   N12 ,Dn3 ,v032
 .byte   N12 ,Dn4 ,v040
 .byte   W12
 .byte   Dn3 ,v032
 .byte   N12 ,Dn4 ,v040
 .byte   W36
 .byte   PEND 
@  #04 @040   ----------------------------------------
 .byte   W96
@  #04 @041   ----------------------------------------
 .byte   W96
@  #04 @042   ----------------------------------------
 .byte   W96
@  #04 @043   ----------------------------------------
 .byte   W96
@  #04 @044   ----------------------------------------
 .byte   W96
@  #04 @045   ----------------------------------------
 .byte   W96
@  #04 @046   ----------------------------------------
 .byte   W96
@  #04 @047   ----------------------------------------
 .byte   W96
@  #04 @048   ----------------------------------------
 .byte   W96
@  #04 @049   ----------------------------------------
 .byte   W96
@  #04 @050   ----------------------------------------
 .byte   W96
@  #04 @051   ----------------------------------------
 .byte   W96
@  #04 @052   ----------------------------------------
 .byte   W96
@  #04 @053   ----------------------------------------
 .byte   W96
@  #04 @054   ----------------------------------------
 .byte   W96
@  #04 @055   ----------------------------------------
 .byte   W96
@  #04 @056   ----------------------------------------
 .byte   W96
@  #04 @057   ----------------------------------------
 .byte   W96
@  #04 @058   ----------------------------------------
 .byte   W96
@  #04 @059   ----------------------------------------
 .byte   W96
@  #04 @060   ----------------------------------------
 .byte   W96
@  #04 @061   ----------------------------------------
 .byte   W96
@  #04 @062   ----------------------------------------
 .byte   PATT
  .word Label_54B024
@  #04 @063   ----------------------------------------
 .byte   W96
@  #04 @064   ----------------------------------------
 .byte   EOT
 .byte   En3 ,v067
 .byte   Bn3 ,v074
 .byte   W96
@  #04 @065   ----------------------------------------
 .byte   W96
@  #04 @066   ----------------------------------------
 .byte   W96
@  #04 @067   ----------------------------------------
 .byte   PATT
  .word Label_54B03A
@  #04 @068   ----------------------------------------
 .byte   W96
@  #04 @069   ----------------------------------------
 .byte   W96
@  #04 @070   ----------------------------------------
 .byte   PATT
  .word Label_54B024
@  #04 @071   ----------------------------------------
 .byte   W96
@  #04 @072   ----------------------------------------
 .byte   EOT
 .byte   En3 ,v067
 .byte   Bn3 ,v074
 .byte   W96
@  #04 @073   ----------------------------------------
 .byte   W96
@  #04 @074   ----------------------------------------
 .byte   W96
@  #04 @075   ----------------------------------------
 .byte   PATT
  .word Label_54B074
@  #04 @076   ----------------------------------------
 .byte   PATT
  .word Label_54B09B
@  #04 @077   ----------------------------------------
 .byte   PATT
  .word Label_54B0A4
@  #04 @078   ----------------------------------------
 .byte   W96
@  #04 @079   ----------------------------------------
 .byte   PATT
  .word Label_54B0B4
@  #04 @080   ----------------------------------------
 .byte   W96
@  #04 @081   ----------------------------------------
 .byte   W96
@  #04 @082   ----------------------------------------
 .byte   W96
@  #04 @083   ----------------------------------------
 .byte   W96
@  #04 @084   ----------------------------------------
 .byte   W96
@  #04 @085   ----------------------------------------
 .byte   W96
@  #04 @086   ----------------------------------------
 .byte   W96
@  #04 @087   ----------------------------------------
 .byte   W96
@  #04 @088   ----------------------------------------
 .byte   W96
@  #04 @089   ----------------------------------------
 .byte   W96
@  #04 @090   ----------------------------------------
 .byte   W96
@  #04 @091   ----------------------------------------
 .byte   W96
@  #04 @092   ----------------------------------------
 .byte   W96
@  #04 @093   ----------------------------------------
 .byte   W96
@  #04 @094   ----------------------------------------
 .byte   W96
@  #04 @095   ----------------------------------------
 .byte   W96
@  #04 @096   ----------------------------------------
 .byte   PATT
  .word Label_54B024
@  #04 @097   ----------------------------------------
 .byte   W96
@  #04 @098   ----------------------------------------
 .byte   EOT
 .byte   En3 ,v067
 .byte   Bn3 ,v074
 .byte   W96
@  #04 @099   ----------------------------------------
 .byte   W96
@  #04 @100   ----------------------------------------
 .byte   W96
@  #04 @101   ----------------------------------------
 .byte   PATT
  .word Label_54B03A
@  #04 @102   ----------------------------------------
 .byte   W96
@  #04 @103   ----------------------------------------
 .byte   W96
@  #04 @104   ----------------------------------------
 .byte   PATT
  .word Label_54B024
@  #04 @105   ----------------------------------------
 .byte   W96
@  #04 @106   ----------------------------------------
 .byte   EOT
 .byte   En3 ,v067
 .byte   Bn3 ,v074
 .byte   W96
@  #04 @107   ----------------------------------------
 .byte   W96
@  #04 @108   ----------------------------------------
 .byte   W96
@  #04 @109   ----------------------------------------
 .byte   PATT
  .word Label_54B074
@  #04 @110   ----------------------------------------
 .byte   PATT
  .word Label_54B09B
@  #04 @111   ----------------------------------------
 .byte   PATT
  .word Label_54B0A4
@  #04 @112   ----------------------------------------
 .byte   W96
@  #04 @113   ----------------------------------------
 .byte   PATT
  .word Label_54B0B4
@  #04 @114   ----------------------------------------
 .byte   GOTO
  .word Label_54B00C
@  #04 @115   ----------------------------------------
 .byte   W96
@  #04 @116   ----------------------------------------
 .byte   W96
@  #04 @117   ----------------------------------------
 .byte   W96
@  #04 @118   ----------------------------------------
 .byte   W96
@  #04 @119   ----------------------------------------
 .byte   W96
@  #04 @120   ----------------------------------------
 .byte   W96
@  #04 @121   ----------------------------------------
 .byte   W96
@  #04 @122   ----------------------------------------
 .byte   W96
 .byte   FINE

@**************** Track 5 (Midi-Chn.4) ****************@

song07_005:
@  #05 @000   ----------------------------------------
 .byte   VOL , 115*song07_mvl/mxv
 .byte   KEYSH , song07_key+0
Label_011622B8:
 .byte   VOICE , 121
 .byte   PAN , c_v-11
 .byte   N12 ,Fs1 ,v044
 .byte   N48 ,Cs2 ,v036
 .byte   W12
 .byte   N12 ,Fs1 ,v024
 .byte   W12
 .byte   Dn1 ,v044
 .byte   N06 ,Fs1
 .byte   W06
 .byte   Fs1 ,v024
 .byte   W06
 .byte   N12 ,Cn1 ,v032
 .byte   N12 ,Fs1 ,v024
 .byte   W12
 .byte   Fs1 ,v044
 .byte   N12 ,Gs2 ,v024
 .byte   W12
 .byte   Cn1 ,v032
 .byte   N12 ,Fs1 ,v024
 .byte   W12
 .byte   Dn1 ,v044
 .byte   N06 ,Fs1
 .byte   W06
 .byte   Fs1 ,v024
 .byte   W06
 .byte   Dn1 ,v036
 .byte   N12 ,Fs1 ,v024
 .byte   W06
 .byte   N06 ,Dn1 ,v036
 .byte   W06
@  #05 @001   ----------------------------------------
Label_011622F4:
 .byte   N12 ,Cn1 ,v032
 .byte   N12 ,Fs1 ,v044
 .byte   W12
 .byte   Fs1 ,v024
 .byte   W12
 .byte   Dn1 ,v044
 .byte   N06 ,Fs1
 .byte   W06
 .byte   Fs1 ,v024
 .byte   W06
 .byte   N12 ,Cn1 ,v032
 .byte   N12 ,Fs1 ,v024
 .byte   W12
 .byte   Fs1 ,v044
 .byte   N12 ,Gs2 ,v024
 .byte   W12
 .byte   Cn1 ,v032
 .byte   N12 ,Fs1 ,v024
 .byte   W12
 .byte   Dn1 ,v044
 .byte   N06 ,Fs1
 .byte   W06
 .byte   Fs1 ,v024
 .byte   W06
 .byte   Dn1 ,v036
 .byte   N12 ,Fs1 ,v024
 .byte   W06
 .byte   N06 ,Dn1 ,v036
 .byte   W06
 .byte   PEND 
@  #05 @002   ----------------------------------------
 .byte   PATT
  .word Label_011622F4
@  #05 @003   ----------------------------------------
 .byte   PATT
  .word Label_011622F4
@  #05 @004   ----------------------------------------
Label_01162336:
 .byte   N12 ,Cn1 ,v032
 .byte   N12 ,Fs1 ,v044
 .byte   N12 ,As1 ,v036
 .byte   W12
 .byte   Fs1 ,v024
 .byte   W12
 .byte   Dn1 ,v044
 .byte   N06 ,Fs1
 .byte   W06
 .byte   Fs1 ,v024
 .byte   W06
 .byte   N12 ,Cn1 ,v032
 .byte   N12 ,Fs1 ,v024
 .byte   W12
 .byte   Fs1 ,v044
 .byte   N12 ,Gs2 ,v024
 .byte   W12
 .byte   Cn1 ,v032
 .byte   N12 ,Fs1 ,v024
 .byte   W12
 .byte   Dn1 ,v044
 .byte   N06 ,Fs1
 .byte   W06
 .byte   Fs1 ,v024
 .byte   W06
 .byte   Dn1 ,v036
 .byte   N12 ,Fs1 ,v024
 .byte   W06
 .byte   N06 ,Dn1 ,v036
 .byte   W06
 .byte   PEND 
@  #05 @005   ----------------------------------------
 .byte   PATT
  .word Label_011622F4
@  #05 @006   ----------------------------------------
 .byte   PATT
  .word Label_011622F4
@  #05 @007   ----------------------------------------
Label_0116237B:
 .byte   N12 ,Cn1 ,v032
 .byte   N12 ,Fs1 ,v044
 .byte   N12 ,Gs2 ,v024
 .byte   W12
 .byte   Fs1
 .byte   W12
 .byte   Dn1 ,v044
 .byte   N06 ,Fs1
 .byte   N12 ,Gs2 ,v024
 .byte   W06
 .byte   N06 ,Fs1
 .byte   W06
 .byte   N12 ,Cn1 ,v032
 .byte   N12 ,Fs1 ,v024
 .byte   W12
 .byte   Dn1 ,v044
 .byte   N12 ,En1 ,v024
 .byte   N12 ,An1 ,v036
 .byte   N12 ,Gs2 ,v024
 .byte   W12
 .byte   Dn1 ,v044
 .byte   N12 ,En1 ,v024
 .byte   N12 ,An1 ,v036
 .byte   W12
 .byte   N06 ,Dn1 ,v044
 .byte   N06 ,En1 ,v024
 .byte   N12 ,Gn1 ,v036
 .byte   N12 ,Gs2 ,v024
 .byte   W06
 .byte   N06 ,Dn1 ,v044
 .byte   N06 ,En1 ,v024
 .byte   W06
 .byte   N12 ,Dn1 ,v044
 .byte   N12 ,En1 ,v024
 .byte   N12 ,Fn1 ,v036
 .byte   W12
 .byte   PEND 
@  #05 @008   ----------------------------------------
Label_011623CD:
 .byte   N12 ,Cn1 ,v032
 .byte   N12 ,Fs1 ,v044
 .byte   N48 ,Cs2 ,v036
 .byte   W12
 .byte   N12 ,Fs1 ,v024
 .byte   W12
 .byte   Dn1 ,v044
 .byte   N12 ,En1 ,v024
 .byte   N06 ,Fs1 ,v044
 .byte   W06
 .byte   Fs1 ,v024
 .byte   W06
 .byte   N12 ,Cn1 ,v032
 .byte   N12 ,Fs1 ,v024
 .byte   W12
 .byte   Fs1 ,v044
 .byte   N12 ,Gs2 ,v024
 .byte   W12
 .byte   Cn1 ,v032
 .byte   N12 ,Fs1 ,v024
 .byte   W12
 .byte   Dn1 ,v044
 .byte   N12 ,En1 ,v024
 .byte   N06 ,Fs1 ,v044
 .byte   W06
 .byte   Fs1 ,v024
 .byte   W06
 .byte   Dn1 ,v036
 .byte   N06 ,En1 ,v016
 .byte   N12 ,Fs1 ,v024
 .byte   W06
 .byte   N06 ,Dn1 ,v036
 .byte   N06 ,En1 ,v016
 .byte   W06
 .byte   PEND 
@  #05 @009   ----------------------------------------
Label_01162417:
 .byte   N12 ,Cn1 ,v032
 .byte   N12 ,Fs1 ,v044
 .byte   N12 ,Gs2 ,v024
 .byte   W12
 .byte   Fs1
 .byte   W12
 .byte   Dn1 ,v044
 .byte   N12 ,En1 ,v024
 .byte   N06 ,Fs1 ,v044
 .byte   W06
 .byte   Fs1 ,v024
 .byte   W06
 .byte   N12 ,Cn1 ,v032
 .byte   N12 ,Fs1 ,v024
 .byte   W12
 .byte   Fs1 ,v044
 .byte   N12 ,Gs2 ,v024
 .byte   W12
 .byte   Cn1 ,v032
 .byte   N12 ,Fs1 ,v024
 .byte   W12
 .byte   Dn1 ,v044
 .byte   N12 ,En1 ,v024
 .byte   N06 ,Fs1 ,v044
 .byte   W06
 .byte   Fs1 ,v024
 .byte   W06
 .byte   Dn1 ,v036
 .byte   N06 ,En1 ,v016
 .byte   N12 ,Fs1 ,v024
 .byte   W06
 .byte   N06 ,Dn1 ,v036
 .byte   N06 ,En1 ,v016
 .byte   W06
 .byte   PEND 
@  #05 @010   ----------------------------------------
 .byte   PATT
  .word Label_01162417
@  #05 @011   ----------------------------------------
 .byte   PATT
  .word Label_01162417
@  #05 @012   ----------------------------------------
 .byte   PATT
  .word Label_01162417
@  #05 @013   ----------------------------------------
 .byte   PATT
  .word Label_01162417
@  #05 @014   ----------------------------------------
 .byte   PATT
  .word Label_01162417
@  #05 @015   ----------------------------------------
Label_01162478:
 .byte   N12 ,Cn1 ,v032
 .byte   N12 ,Fs1 ,v044
 .byte   N12 ,Gs2 ,v024
 .byte   W12
 .byte   Fs1
 .byte   W12
 .byte   Dn1 ,v044
 .byte   N12 ,En1 ,v024
 .byte   N06 ,Fs1 ,v044
 .byte   W06
 .byte   Fs1 ,v024
 .byte   W06
 .byte   N12 ,Cn1 ,v032
 .byte   N12 ,Fs1 ,v024
 .byte   W12
 .byte   Fs1 ,v044
 .byte   N12 ,Dn2 ,v036
 .byte   N12 ,Gs2 ,v024
 .byte   W12
 .byte   Cn1 ,v032
 .byte   N12 ,Fs1 ,v024
 .byte   N12 ,An1 ,v036
 .byte   W12
 .byte   Dn1 ,v044
 .byte   N12 ,En1 ,v024
 .byte   N06 ,Fs1 ,v044
 .byte   N12 ,Gn1 ,v036
 .byte   W06
 .byte   N06 ,Fs1 ,v024
 .byte   W06
 .byte   Dn1 ,v036
 .byte   N06 ,En1 ,v016
 .byte   N12 ,Fn1 ,v036
 .byte   N12 ,Fs1 ,v024
 .byte   W06
 .byte   N06 ,Dn1 ,v036
 .byte   N06 ,En1 ,v016
 .byte   W06
 .byte   PEND 
@  #05 @016   ----------------------------------------
Label_011624CD:
 .byte   N12 ,Cn1 ,v032
 .byte   N12 ,Fs1 ,v044
 .byte   N48 ,Cs2 ,v036
 .byte   W12
 .byte   N12 ,Fs1 ,v024
 .byte   W12
 .byte   Dn1 ,v044
 .byte   N12 ,En1 ,v024
 .byte   N06 ,Fs1 ,v044
 .byte   W06
 .byte   Fs1 ,v024
 .byte   W06
 .byte   N12 ,Cn1 ,v032
 .byte   N12 ,Fs1 ,v024
 .byte   W12
 .byte   Fs1 ,v044
 .byte   W12
 .byte   Cn1 ,v032
 .byte   N12 ,Fs1 ,v024
 .byte   W12
 .byte   Dn1 ,v044
 .byte   N12 ,En1 ,v024
 .byte   N06 ,Fs1 ,v044
 .byte   W06
 .byte   Fs1 ,v024
 .byte   W06
 .byte   Dn1 ,v036
 .byte   N06 ,En1 ,v016
 .byte   N12 ,Fs1 ,v024
 .byte   W06
 .byte   N06 ,Dn1 ,v036
 .byte   N06 ,En1 ,v016
 .byte   W06
 .byte   PEND 
@  #05 @017   ----------------------------------------
Label_01162514:
 .byte   N12 ,Cn1 ,v032
 .byte   N12 ,Fs1 ,v044
 .byte   W12
 .byte   Fs1 ,v024
 .byte   W12
 .byte   Dn1 ,v044
 .byte   N12 ,En1 ,v024
 .byte   N06 ,Fs1 ,v044
 .byte   W06
 .byte   Fs1 ,v024
 .byte   W06
 .byte   N12 ,Cn1 ,v032
 .byte   N12 ,Fs1 ,v024
 .byte   W12
 .byte   Fs1 ,v044
 .byte   W12
 .byte   Cn1 ,v032
 .byte   N12 ,Fs1 ,v024
 .byte   W12
 .byte   Dn1 ,v044
 .byte   N12 ,En1 ,v024
 .byte   N06 ,Fs1 ,v044
 .byte   W06
 .byte   Fs1 ,v024
 .byte   W06
 .byte   Dn1 ,v036
 .byte   N06 ,En1 ,v016
 .byte   N12 ,Fs1 ,v024
 .byte   W06
 .byte   N06 ,Dn1 ,v036
 .byte   N06 ,En1 ,v016
 .byte   W06
 .byte   PEND 
@  #05 @018   ----------------------------------------
 .byte   PATT
  .word Label_01162514
@  #05 @019   ----------------------------------------
 .byte   PATT
  .word Label_01162514
@  #05 @020   ----------------------------------------
 .byte   PATT
  .word Label_01162514
@  #05 @021   ----------------------------------------
 .byte   PATT
  .word Label_01162514
@  #05 @022   ----------------------------------------
Label_0116256B:
 .byte   N12 ,Cn1 ,v032
 .byte   N12 ,Fs1 ,v044
 .byte   N48 ,Cs2 ,v036
 .byte   W12
 .byte   N12 ,Fs1 ,v024
 .byte   W12
 .byte   Dn1 ,v044
 .byte   N12 ,En1 ,v024
 .byte   N06 ,Fs1 ,v044
 .byte   W06
 .byte   Fs1 ,v024
 .byte   W06
 .byte   N12 ,Cn1 ,v032
 .byte   N12 ,Fs1 ,v024
 .byte   W12
 .byte   Fs1 ,v044
 .byte   W12
 .byte   Cn1 ,v032
 .byte   N12 ,Fs1 ,v024
 .byte   W12
 .byte   N06 ,Fs1 ,v044
 .byte   W06
 .byte   Fs1 ,v024
 .byte   W06
 .byte   N12 ,Cn1 ,v032
 .byte   N12 ,Fs1 ,v024
 .byte   W12
 .byte   PEND 
@  #05 @023   ----------------------------------------
Label_011625A4:
 .byte   N12 ,Dn1 ,v044
 .byte   N12 ,En1 ,v024
 .byte   N12 ,Fs1 ,v044
 .byte   W12
 .byte   Cn1 ,v032
 .byte   N12 ,Fs1 ,v024
 .byte   W12
 .byte   Dn1 ,v044
 .byte   N12 ,En1 ,v024
 .byte   N06 ,Fs1 ,v044
 .byte   W06
 .byte   Fs1 ,v024
 .byte   W06
 .byte   N12 ,Cn1 ,v032
 .byte   N12 ,Fs1 ,v024
 .byte   W12
 .byte   Dn1 ,v044
 .byte   N12 ,En1 ,v024
 .byte   N12 ,Dn2 ,v036
 .byte   W12
 .byte   Cn1 ,v032
 .byte   N12 ,An1 ,v036
 .byte   W12
 .byte   Dn1 ,v044
 .byte   N12 ,En1 ,v024
 .byte   N12 ,Gn1 ,v036
 .byte   W12
 .byte   Dn1 ,v044
 .byte   N12 ,En1 ,v024
 .byte   N12 ,Fn1 ,v036
 .byte   W12
 .byte   PEND 
@  #05 @024   ----------------------------------------
Label_011625E9:
 .byte   N12 ,Cn1 ,v032
 .byte   N12 ,Fs1 ,v044
 .byte   N48 ,Cs2 ,v036
 .byte   W12
 .byte   N12 ,Fs1 ,v024
 .byte   W12
 .byte   Dn1 ,v044
 .byte   N12 ,En1 ,v024
 .byte   N06 ,Fs1 ,v044
 .byte   W06
 .byte   Fs1 ,v024
 .byte   W06
 .byte   N12 ,Cn1 ,v032
 .byte   N12 ,Fs1 ,v024
 .byte   W12
 .byte   Fs1 ,v044
 .byte   W12
 .byte   Cn1 ,v032
 .byte   N12 ,Fs1 ,v024
 .byte   W12
 .byte   Dn1 ,v044
 .byte   N12 ,En1 ,v024
 .byte   N06 ,Fs1 ,v044
 .byte   W06
 .byte   Fs1 ,v024
 .byte   W06
 .byte   N12
 .byte   W12
 .byte   PEND 
@  #05 @025   ----------------------------------------
Label_01162622:
 .byte   N12 ,Cn1 ,v032
 .byte   N12 ,Fs1 ,v044
 .byte   W12
 .byte   Fs1 ,v024
 .byte   W12
 .byte   Dn1 ,v044
 .byte   N12 ,En1 ,v024
 .byte   N06 ,Fs1 ,v044
 .byte   W06
 .byte   Fs1 ,v024
 .byte   W06
 .byte   N12 ,Cn1 ,v032
 .byte   N12 ,Fs1 ,v024
 .byte   W12
 .byte   Fs1 ,v044
 .byte   W12
 .byte   Cn1 ,v032
 .byte   N12 ,Fs1 ,v024
 .byte   W12
 .byte   Dn1 ,v044
 .byte   N12 ,En1 ,v024
 .byte   N06 ,Fs1 ,v044
 .byte   W06
 .byte   Fs1 ,v024
 .byte   W06
 .byte   N12
 .byte   W12
 .byte   PEND 
@  #05 @026   ----------------------------------------
 .byte   PATT
  .word Label_01162622
@  #05 @027   ----------------------------------------
 .byte   PATT
  .word Label_01162622
@  #05 @028   ----------------------------------------
 .byte   PATT
  .word Label_01162622
@  #05 @029   ----------------------------------------
 .byte   PATT
  .word Label_01162622
@  #05 @030   ----------------------------------------
 .byte   PATT
  .word Label_01162622
@  #05 @031   ----------------------------------------
Label_01162670:
 .byte   N12 ,Cn1 ,v032
 .byte   N12 ,Fs1 ,v044
 .byte   W12
 .byte   Fs1 ,v024
 .byte   W12
 .byte   Dn1 ,v044
 .byte   N12 ,En1 ,v024
 .byte   N06 ,Fs1 ,v044
 .byte   W06
 .byte   Fs1 ,v024
 .byte   W06
 .byte   N12 ,Cn1 ,v032
 .byte   N12 ,Fs1 ,v024
 .byte   W12
 .byte   Fs1 ,v044
 .byte   N12 ,Dn2 ,v036
 .byte   W12
 .byte   Cn1 ,v032
 .byte   N12 ,Fs1 ,v024
 .byte   N12 ,An1 ,v036
 .byte   W12
 .byte   Dn1 ,v044
 .byte   N12 ,En1 ,v024
 .byte   N06 ,Fs1 ,v044
 .byte   N12 ,Gn1 ,v036
 .byte   W06
 .byte   N06 ,Fs1 ,v024
 .byte   W06
 .byte   N12 ,Fn1 ,v036
 .byte   N12 ,Fs1 ,v024
 .byte   W12
 .byte   PEND 
@  #05 @032   ----------------------------------------
 .byte   PATT
  .word Label_011625E9
@  #05 @033   ----------------------------------------
 .byte   PATT
  .word Label_01162622
@  #05 @034   ----------------------------------------
 .byte   PATT
  .word Label_01162622
@  #05 @035   ----------------------------------------
 .byte   PATT
  .word Label_01162622
@  #05 @036   ----------------------------------------
 .byte   PATT
  .word Label_01162622
@  #05 @037   ----------------------------------------
 .byte   PATT
  .word Label_01162622
@  #05 @038   ----------------------------------------
Label_011626D2:
 .byte   N12 ,Cn1 ,v032
 .byte   N12 ,Fs1 ,v044
 .byte   N12 ,As1
 .byte   N48 ,Cs2 ,v036
 .byte   W12
 .byte   N12 ,Fs1 ,v024
 .byte   W12
 .byte   Dn1 ,v044
 .byte   N12 ,En1 ,v024
 .byte   N06 ,Fs1 ,v044
 .byte   N12 ,As1
 .byte   W06
 .byte   N06 ,Fs1 ,v024
 .byte   W06
 .byte   N12 ,Cn1 ,v032
 .byte   N12 ,Fs1 ,v024
 .byte   W12
 .byte   Fs1 ,v044
 .byte   N12 ,As1
 .byte   W12
 .byte   Cn1 ,v032
 .byte   N12 ,Fs1 ,v024
 .byte   W12
 .byte   N06 ,Fs1 ,v044
 .byte   N12 ,As1
 .byte   W06
 .byte   N06 ,Fs1 ,v024
 .byte   W06
 .byte   N12 ,Cn1 ,v032
 .byte   N12 ,Fs1 ,v024
 .byte   W12
 .byte   PEND 
@  #05 @039   ----------------------------------------
Label_01162715:
 .byte   N12 ,Dn1 ,v044
 .byte   N12 ,En1 ,v024
 .byte   N12 ,Fs1 ,v044
 .byte   N12 ,As1
 .byte   W12
 .byte   Cn1 ,v032
 .byte   N12 ,Fs1 ,v024
 .byte   W12
 .byte   Dn1 ,v044
 .byte   N12 ,En1 ,v024
 .byte   N06 ,Fs1 ,v044
 .byte   N12 ,As1
 .byte   W06
 .byte   N06 ,Fs1 ,v024
 .byte   W06
 .byte   N12 ,Cn1 ,v032
 .byte   N12 ,Fs1 ,v024
 .byte   W12
 .byte   Dn1 ,v044
 .byte   N12 ,En1 ,v024
 .byte   N12 ,As1 ,v044
 .byte   N12 ,Dn2 ,v036
 .byte   W12
 .byte   Cn1 ,v032
 .byte   N12 ,An1 ,v036
 .byte   W12
 .byte   Dn1 ,v044
 .byte   N12 ,En1 ,v024
 .byte   N12 ,Gn1 ,v036
 .byte   W12
 .byte   Dn1 ,v044
 .byte   N12 ,En1 ,v024
 .byte   N12 ,Fn1 ,v036
 .byte   W12
 .byte   PEND 
@  #05 @040   ----------------------------------------
 .byte   Fs1 ,v044
 .byte   N48 ,Cs2 ,v036
 .byte   W12
 .byte   N12 ,Fs1 ,v024
 .byte   W12
 .byte   Dn1 ,v044
 .byte   N06 ,Fs1
 .byte   W06
 .byte   Fs1 ,v024
 .byte   W06
 .byte   N12 ,Cn1 ,v032
 .byte   N12 ,Fs1 ,v024
 .byte   W12
 .byte   Fs1 ,v044
 .byte   N12 ,Gs2 ,v024
 .byte   W12
 .byte   Cn1 ,v032
 .byte   N12 ,Fs1 ,v024
 .byte   W12
 .byte   Dn1 ,v044
 .byte   N06 ,Fs1
 .byte   W06
 .byte   Fs1 ,v024
 .byte   W06
 .byte   Dn1 ,v036
 .byte   N12 ,Fs1 ,v024
 .byte   W06
 .byte   N06 ,Dn1 ,v036
 .byte   W06
@  #05 @041   ----------------------------------------
 .byte   PATT
  .word Label_011622F4
@  #05 @042   ----------------------------------------
 .byte   PATT
  .word Label_011622F4
@  #05 @043   ----------------------------------------
 .byte   PATT
  .word Label_011622F4
@  #05 @044   ----------------------------------------
 .byte   PATT
  .word Label_01162336
@  #05 @045   ----------------------------------------
 .byte   PATT
  .word Label_011622F4
@  #05 @046   ----------------------------------------
 .byte   PATT
  .word Label_011622F4
@  #05 @047   ----------------------------------------
 .byte   PATT
  .word Label_0116237B
@  #05 @048   ----------------------------------------
 .byte   PATT
  .word Label_011623CD
@  #05 @049   ----------------------------------------
 .byte   PATT
  .word Label_01162417
@  #05 @050   ----------------------------------------
 .byte   PATT
  .word Label_01162417
@  #05 @051   ----------------------------------------
 .byte   PATT
  .word Label_01162417
@  #05 @052   ----------------------------------------
 .byte   PATT
  .word Label_01162417
@  #05 @053   ----------------------------------------
 .byte   PATT
  .word Label_01162417
@  #05 @054   ----------------------------------------
 .byte   PATT
  .word Label_01162417
@  #05 @055   ----------------------------------------
 .byte   PATT
  .word Label_01162478
@  #05 @056   ----------------------------------------
 .byte   PATT
  .word Label_011624CD
@  #05 @057   ----------------------------------------
 .byte   PATT
  .word Label_01162514
@  #05 @058   ----------------------------------------
 .byte   PATT
  .word Label_01162514
@  #05 @059   ----------------------------------------
 .byte   PATT
  .word Label_01162514
@  #05 @060   ----------------------------------------
 .byte   PATT
  .word Label_01162514
@  #05 @061   ----------------------------------------
 .byte   PATT
  .word Label_01162514
@  #05 @062   ----------------------------------------
 .byte   PATT
  .word Label_0116256B
@  #05 @063   ----------------------------------------
 .byte   PATT
  .word Label_011625A4
@  #05 @064   ----------------------------------------
 .byte   PATT
  .word Label_011625E9
@  #05 @065   ----------------------------------------
 .byte   PATT
  .word Label_01162622
@  #05 @066   ----------------------------------------
 .byte   PATT
  .word Label_01162622
@  #05 @067   ----------------------------------------
 .byte   PATT
  .word Label_01162622
@  #05 @068   ----------------------------------------
 .byte   PATT
  .word Label_01162622
@  #05 @069   ----------------------------------------
 .byte   PATT
  .word Label_01162622
@  #05 @070   ----------------------------------------
 .byte   PATT
  .word Label_01162622
@  #05 @071   ----------------------------------------
 .byte   PATT
  .word Label_01162670
@  #05 @072   ----------------------------------------
 .byte   PATT
  .word Label_011625E9
@  #05 @073   ----------------------------------------
 .byte   PATT
  .word Label_01162622
@  #05 @074   ----------------------------------------
 .byte   PATT
  .word Label_01162622
@  #05 @075   ----------------------------------------
 .byte   PATT
  .word Label_01162622
@  #05 @076   ----------------------------------------
 .byte   PATT
  .word Label_01162622
@  #05 @077   ----------------------------------------
 .byte   PATT
  .word Label_01162622
@  #05 @078   ----------------------------------------
 .byte   PATT
  .word Label_011626D2
@  #05 @079   ----------------------------------------
 .byte   PATT
  .word Label_01162715
@  #05 @080   ----------------------------------------
 .byte   N12 ,Cn1 ,v032
 .byte   N12 ,Fs1 ,v036
 .byte   N48 ,Cs2
 .byte   W12
 .byte   N12 ,Fs1 ,v020
 .byte   W12
 .byte   Cs1 ,v028
 .byte   N06 ,Fs1 ,v036
 .byte   W06
 .byte   Fs1 ,v020
 .byte   W06
 .byte   N12 ,Cs1 ,v028
 .byte   N12 ,Fs1 ,v020
 .byte   W12
 .byte   Dn1 ,v032
 .byte   N12 ,Fs1 ,v036
 .byte   W12
 .byte   Cs1 ,v028
 .byte   N12 ,Fs1 ,v020
 .byte   W12
 .byte   Cn1 ,v032
 .byte   N06 ,Fs1 ,v036
 .byte   W06
 .byte   Fs1 ,v020
 .byte   W06
 .byte   Cs1 ,v028
 .byte   N12 ,Fs1 ,v020
 .byte   W06
 .byte   N06 ,Cs1 ,v028
 .byte   W06
@  #05 @081   ----------------------------------------
Label_01162898:
 .byte   N12 ,Cn1 ,v032
 .byte   N12 ,Fs1 ,v036
 .byte   W12
 .byte   Fs1 ,v020
 .byte   W12
 .byte   Cs1 ,v028
 .byte   N06 ,Fs1 ,v036
 .byte   W06
 .byte   Fs1 ,v020
 .byte   W06
 .byte   N12 ,Cs1 ,v028
 .byte   N12 ,Fs1 ,v020
 .byte   W12
 .byte   Dn1 ,v032
 .byte   N12 ,Fs1 ,v036
 .byte   W12
 .byte   Cs1 ,v028
 .byte   N12 ,Fs1 ,v020
 .byte   W12
 .byte   Cn1 ,v032
 .byte   N06 ,Fs1 ,v036
 .byte   W06
 .byte   Fs1 ,v020
 .byte   W06
 .byte   Cs1 ,v028
 .byte   N12 ,Fs1 ,v020
 .byte   W06
 .byte   N06 ,Cs1 ,v028
 .byte   W06
 .byte   PEND 
@  #05 @082   ----------------------------------------
 .byte   PATT
  .word Label_01162898
@  #05 @083   ----------------------------------------
 .byte   PATT
  .word Label_01162898
@  #05 @084   ----------------------------------------
 .byte   PATT
  .word Label_01162898
@  #05 @085   ----------------------------------------
 .byte   PATT
  .word Label_01162898
@  #05 @086   ----------------------------------------
 .byte   PATT
  .word Label_01162898
@  #05 @087   ----------------------------------------
 .byte   PATT
  .word Label_01162898
@  #05 @088   ----------------------------------------
 .byte   PATT
  .word Label_01162898
@  #05 @089   ----------------------------------------
 .byte   PATT
  .word Label_01162898
@  #05 @090   ----------------------------------------
 .byte   PATT
  .word Label_01162898
@  #05 @091   ----------------------------------------
 .byte   PATT
  .word Label_01162898
@  #05 @092   ----------------------------------------
 .byte   PATT
  .word Label_01162898
@  #05 @093   ----------------------------------------
 .byte   PATT
  .word Label_01162898
@  #05 @094   ----------------------------------------
 .byte   N12 ,Cn1 ,v032
 .byte   N12 ,Fs1 ,v036
 .byte   W12
 .byte   Fs1 ,v020
 .byte   W12
 .byte   Cs1 ,v028
 .byte   N06 ,Fs1 ,v036
 .byte   W06
 .byte   Fs1 ,v020
 .byte   W06
 .byte   N12 ,Cs1 ,v028
 .byte   N12 ,Fs1 ,v020
 .byte   W12
 .byte   Dn1 ,v032
 .byte   N12 ,Fs1 ,v036
 .byte   W12
 .byte   Cs1 ,v028
 .byte   N12 ,Fs1 ,v020
 .byte   W12
 .byte   Cn1 ,v032
 .byte   N06 ,Fs1 ,v036
 .byte   W06
 .byte   Fs1 ,v020
 .byte   W06
 .byte   Cs1 ,v028
 .byte   N12 ,Fs1 ,v020
 .byte   N48 ,Cs2 ,v036
 .byte   W06
 .byte   N06 ,Cs1 ,v028
 .byte   W06
@  #05 @095   ----------------------------------------
 .byte   W24
 .byte   N12 ,Cn1 ,v032
 .byte   W12
 .byte   N12
 .byte   W12
 .byte   Dn1 ,v044
 .byte   W48
@  #05 @096   ----------------------------------------
 .byte   PATT
  .word Label_0116256B
@  #05 @097   ----------------------------------------
 .byte   PATT
  .word Label_011625A4
@  #05 @098   ----------------------------------------
 .byte   PATT
  .word Label_011625E9
@  #05 @099   ----------------------------------------
 .byte   PATT
  .word Label_01162622
@  #05 @100   ----------------------------------------
 .byte   PATT
  .word Label_01162622
@  #05 @101   ----------------------------------------
 .byte   PATT
  .word Label_01162622
@  #05 @102   ----------------------------------------
 .byte   PATT
  .word Label_01162622
@  #05 @103   ----------------------------------------
 .byte   PATT
  .word Label_01162622
@  #05 @104   ----------------------------------------
 .byte   PATT
  .word Label_01162622
@  #05 @105   ----------------------------------------
 .byte   PATT
  .word Label_01162670
@  #05 @106   ----------------------------------------
 .byte   PATT
  .word Label_011625E9
@  #05 @107   ----------------------------------------
 .byte   PATT
  .word Label_01162622
@  #05 @108   ----------------------------------------
 .byte   PATT
  .word Label_01162622
@  #05 @109   ----------------------------------------
 .byte   PATT
  .word Label_01162622
@  #05 @110   ----------------------------------------
 .byte   PATT
  .word Label_01162622
@  #05 @111   ----------------------------------------
 .byte   PATT
  .word Label_01162622
@  #05 @112   ----------------------------------------
 .byte   PATT
  .word Label_011626D2
@  #05 @113   ----------------------------------------
 .byte   PATT
  .word Label_01162715
@  #05 @114   ----------------------------------------
 .byte   GOTO
  .word Label_011622B8
@  #05 @115   ----------------------------------------
 .byte   N12 ,Fs1 ,v044
 .byte   N48 ,Cs2 ,v036
 .byte   W12
 .byte   N12 ,Fs1 ,v024
 .byte   W12
 .byte   Dn1 ,v044
 .byte   N06 ,Fs1
 .byte   W06
 .byte   Fs1 ,v024
 .byte   W06
 .byte   N12 ,Cn1 ,v032
 .byte   N12 ,Fs1 ,v024
 .byte   W12
 .byte   Fs1 ,v044
 .byte   N12 ,Gs2 ,v020
 .byte   W12
 .byte   Cn1 ,v032
 .byte   N12 ,Fs1 ,v024
 .byte   W12
 .byte   Dn1 ,v040
 .byte   N06 ,Fs1
 .byte   W06
 .byte   Fs1 ,v024
 .byte   W06
 .byte   Dn1 ,v032
 .byte   N12 ,Fs1 ,v024
 .byte   W06
 .byte   N06 ,Dn1 ,v032
 .byte   W06
@  #05 @116   ----------------------------------------
 .byte   N12 ,Cn1 ,v028
 .byte   N12 ,Fs1 ,v040
 .byte   W12
 .byte   Fs1 ,v024
 .byte   W12
 .byte   Dn1 ,v040
 .byte   N06 ,Fs1
 .byte   W06
 .byte   Fs1 ,v020
 .byte   W06
 .byte   N12 ,Cn1 ,v028
 .byte   N12 ,Fs1 ,v020
 .byte   W12
 .byte   Fs1 ,v036
 .byte   N12 ,Gs2 ,v020
 .byte   W12
 .byte   Cn1 ,v028
 .byte   N12 ,Fs1 ,v020
 .byte   W12
 .byte   Dn1 ,v036
 .byte   N06 ,Fs1
 .byte   W06
 .byte   Fs1 ,v020
 .byte   W06
 .byte   Dn1 ,v028
 .byte   N12 ,Fs1 ,v020
 .byte   W06
 .byte   N06 ,Dn1 ,v028
 .byte   W06
@  #05 @117   ----------------------------------------
 .byte   N12 ,Cn1 ,v024
 .byte   N12 ,Fs1 ,v036
 .byte   W12
 .byte   Fs1 ,v020
 .byte   W12
 .byte   Dn1 ,v032
 .byte   N06 ,Fs1
 .byte   W06
 .byte   Fs1 ,v020
 .byte   W06
 .byte   N12 ,Cn1 ,v024
 .byte   N12 ,Fs1 ,v020
 .byte   W12
 .byte   Fs1 ,v032
 .byte   N12 ,Gs2 ,v016
 .byte   W12
 .byte   Cn1 ,v024
 .byte   N12 ,Fs1 ,v016
 .byte   W12
 .byte   Dn1 ,v028
 .byte   N06 ,Fs1
 .byte   W06
 .byte   Fs1 ,v016
 .byte   W06
 .byte   Dn1 ,v024
 .byte   N12 ,Fs1 ,v016
 .byte   W06
 .byte   N06 ,Dn1 ,v024
 .byte   W06
@  #05 @118   ----------------------------------------
 .byte   N12 ,Cn1 ,v020
 .byte   N12 ,Fs1 ,v028
 .byte   W12
 .byte   Fs1 ,v016
 .byte   W12
 .byte   Dn1 ,v028
 .byte   N06 ,Fs1
 .byte   W06
 .byte   Fs1 ,v016
 .byte   W06
 .byte   N12 ,Cn1 ,v020
 .byte   N12 ,Fs1 ,v016
 .byte   W12
 .byte   Fs1 ,v024
 .byte   N12 ,Gs2 ,v012
 .byte   W12
 .byte   Cn1 ,v020
 .byte   N12 ,Fs1 ,v016
 .byte   W12
 .byte   Dn1 ,v024
 .byte   N06 ,Fs1
 .byte   W06
 .byte   Fs1 ,v012
 .byte   W06
 .byte   Dn1 ,v020
 .byte   N12 ,Fs1 ,v012
 .byte   W06
 .byte   N06 ,Dn1 ,v020
 .byte   W06
@  #05 @119   ----------------------------------------
 .byte   N12 ,Cn1 ,v016
 .byte   N12 ,Fs1 ,v024
 .byte   N12 ,As1 ,v020
 .byte   W12
 .byte   Fs1 ,v012
 .byte   W12
 .byte   Dn1 ,v020
 .byte   N06 ,Fs1
 .byte   W06
 .byte   Fs1 ,v012
 .byte   W06
 .byte   N12 ,Cn1 ,v016
 .byte   N12 ,Fs1 ,v012
 .byte   W12
 .byte   Fs1 ,v020
 .byte   N12 ,Gs2 ,v012
 .byte   W12
 .byte   Cn1 ,v016
 .byte   N12 ,Fs1 ,v012
 .byte   W12
 .byte   Dn1 ,v020
 .byte   N06 ,Fs1
 .byte   W06
 .byte   Fs1 ,v012
 .byte   W06
 .byte   Dn1 ,v016
 .byte   N12 ,Fs1 ,v012
 .byte   W06
 .byte   N06 ,Dn1 ,v016
 .byte   W06
@  #05 @120   ----------------------------------------
 .byte   N12 ,Cn1 ,v012
 .byte   N12 ,Fs1 ,v016
 .byte   W12
 .byte   Fs1 ,v008
 .byte   W12
 .byte   Dn1 ,v016
 .byte   N06 ,Fs1
 .byte   W06
 .byte   Fs1 ,v008
 .byte   W06
 .byte   N12 ,Cn1 ,v012
 .byte   N12 ,Fs1 ,v008
 .byte   W12
 .byte   Fs1 ,v016
 .byte   N12 ,Gs2 ,v008
 .byte   W12
 .byte   Cn1 ,v012
 .byte   N12 ,Fs1 ,v008
 .byte   W12
 .byte   Dn1 ,v012
 .byte   N06 ,Fs1
 .byte   W06
 .byte   Fs1 ,v008
 .byte   W06
 .byte   Dn1 ,v012
 .byte   N12 ,Fs1 ,v008
 .byte   W06
 .byte   N06 ,Dn1 ,v012
 .byte   W06
@  #05 @121   ----------------------------------------
 .byte   N12 ,Cn1 ,v008
 .byte   N12 ,Fs1 ,v012
 .byte   W12
 .byte   Fs1 ,v008
 .byte   W12
 .byte   Dn1 ,v012
 .byte   N06 ,Fs1
 .byte   W06
 .byte   Fs1 ,v008
 .byte   W06
 .byte   N12 ,Cn1
 .byte   N12 ,Fs1
 .byte   W12
 .byte   N12
 .byte   N12 ,Gs2 ,v004
 .byte   W12
 .byte   Cn1 ,v008
 .byte   N12 ,Fs1 ,v004
 .byte   W12
 .byte   Dn1 ,v008
 .byte   N06 ,Fs1
 .byte   W06
 .byte   Fs1 ,v004
 .byte   W06
 .byte   Dn1
 .byte   N12 ,Fs1
 .byte   W06
 .byte   N06 ,Dn1
 .byte   W06
@  #05 @122   ----------------------------------------
 .byte   N12 ,Cn1
 .byte   N12 ,Fs1 ,v008
 .byte   N12 ,Gs2 ,v004
 .byte   W12
 .byte   Fs1
 .byte   W12
 .byte   Dn1
 .byte   N06 ,Fs1
 .byte   N12 ,Gs2
 .byte   W06
 .byte   N06 ,Fs1
 .byte   W06
 .byte   N12 ,Cn1
 .byte   N12 ,Fs1
 .byte   W12
 .byte   Dn1
 .byte   N12 ,En1
 .byte   N12 ,An1
 .byte   N12 ,Gs2
 .byte   W12
 .byte   Dn1
 .byte   N12 ,An1
 .byte   W12
 .byte   N06 ,Dn1
 .byte   N12 ,Gn1
 .byte   W06
 .byte   N06 ,Dn1
 .byte   W18
 .byte   FINE

@**************** Track 6 (Midi-Chn.5) ****************@

song07_006:
@  #06 @000   ----------------------------------------
 .byte   VOL , 115*song07_mvl/mxv
 .byte   KEYSH , song07_key+0
Label_54A908:
 .byte   VOICE , 48
 .byte   PAN , c_v+3
 .byte   W96
@  #06 @001   ----------------------------------------
 .byte   W96
@  #06 @002   ----------------------------------------
 .byte   W96
@  #06 @003   ----------------------------------------
 .byte   W96
@  #06 @004   ----------------------------------------
 .byte   W96
@  #06 @005   ----------------------------------------
 .byte   W96
@  #06 @006   ----------------------------------------
 .byte   W96
@  #06 @007   ----------------------------------------
 .byte   W96
@  #06 @008   ----------------------------------------
 .byte   W96
@  #06 @009   ----------------------------------------
 .byte   W96
@  #06 @010   ----------------------------------------
 .byte   W96
@  #06 @011   ----------------------------------------
 .byte   W96
@  #06 @012   ----------------------------------------
 .byte   W96
@  #06 @013   ----------------------------------------
 .byte   W96
@  #06 @014   ----------------------------------------
 .byte   W96
@  #06 @015   ----------------------------------------
 .byte   W96
@  #06 @016   ----------------------------------------
Label_54A91C:
 .byte   W36
 .byte   N06 ,En2 ,v016
 .byte   W24
 .byte   N06
 .byte   W24
 .byte   N06
 .byte   W12
 .byte   PEND 
@  #06 @017   ----------------------------------------
Label_54A926:
 .byte   W12
 .byte   N06 ,En2 ,v016
 .byte   W24
 .byte   N06
 .byte   W12
 .byte   N06
 .byte   W24
 .byte   N06
 .byte   W24
 .byte   PEND 
@  #06 @018   ----------------------------------------
 .byte   PATT
  .word Label_54A91C
@  #06 @019   ----------------------------------------
Label_54A937:
 .byte   W12
 .byte   N06 ,En2 ,v016
 .byte   W24
 .byte   N06
 .byte   W12
 .byte   N06
 .byte   W12
 .byte   N06
 .byte   W12
 .byte   N06
 .byte   W12
 .byte   N06
 .byte   W12
 .byte   PEND 
@  #06 @020   ----------------------------------------
 .byte   PATT
  .word Label_54A91C
@  #06 @021   ----------------------------------------
 .byte   PATT
  .word Label_54A926
@  #06 @022   ----------------------------------------
Label_54A951:
 .byte   W84
 .byte   TIE ,En2 ,v016
 .byte   TIE ,Gn2
 .byte   TIE ,Bn2
 .byte   TIE ,Dn3
 .byte   W12
 .byte   PEND 
@  #06 @023   ----------------------------------------
 .byte   W96
@  #06 @024   ----------------------------------------
 .byte   EOT
 .byte   En2 ,v055
 .byte   Bn2 ,v062
Label_54A963:
 .byte   N96 ,An2 ,v020
 .byte   N96 ,En3
 .byte   N96 ,An3
 .byte   W96
 .byte   PEND 
@  #06 @025   ----------------------------------------
Label_54A96C:
 .byte   N96 ,En2 ,v020
 .byte   N96 ,Bn2
 .byte   N96 ,En3
 .byte   W96
 .byte   PEND 
@  #06 @026   ----------------------------------------
Label_54A975:
 .byte   N96 ,Fn2 ,v020
 .byte   N96 ,Cn3
 .byte   N96 ,Fn3
 .byte   W96
 .byte   PEND 
@  #06 @027   ----------------------------------------
Label_54A97E:
 .byte   N96 ,Dn2 ,v020
 .byte   N96 ,An2
 .byte   N96 ,Dn3
 .byte   W96
 .byte   PEND 
@  #06 @028   ----------------------------------------
 .byte   PATT
  .word Label_54A963
@  #06 @029   ----------------------------------------
 .byte   PATT
  .word Label_54A96C
@  #06 @030   ----------------------------------------
 .byte   PATT
  .word Label_54A975
@  #06 @031   ----------------------------------------
Label_54A996:
 .byte   N48 ,Dn2 ,v020
 .byte   N48 ,An2
 .byte   N48 ,Dn3
 .byte   W48
 .byte   As2
 .byte   N48 ,Fn3
 .byte   N48 ,As3
 .byte   W48
 .byte   PEND 
@  #06 @032   ----------------------------------------
 .byte   PATT
  .word Label_54A963
@  #06 @033   ----------------------------------------
 .byte   PATT
  .word Label_54A96C
@  #06 @034   ----------------------------------------
 .byte   PATT
  .word Label_54A975
@  #06 @035   ----------------------------------------
 .byte   PATT
  .word Label_54A97E
@  #06 @036   ----------------------------------------
 .byte   PATT
  .word Label_54A963
@  #06 @037   ----------------------------------------
 .byte   PATT
  .word Label_54A96C
@  #06 @038   ----------------------------------------
 .byte   PATT
  .word Label_54A975
@  #06 @039   ----------------------------------------
 .byte   PATT
  .word Label_54A996
@  #06 @040   ----------------------------------------
 .byte   W96
@  #06 @041   ----------------------------------------
 .byte   W96
@  #06 @042   ----------------------------------------
 .byte   W96
@  #06 @043   ----------------------------------------
 .byte   W96
@  #06 @044   ----------------------------------------
 .byte   W96
@  #06 @045   ----------------------------------------
 .byte   W96
@  #06 @046   ----------------------------------------
 .byte   W96
@  #06 @047   ----------------------------------------
 .byte   W96
@  #06 @048   ----------------------------------------
 .byte   W96
@  #06 @049   ----------------------------------------
 .byte   W96
@  #06 @050   ----------------------------------------
 .byte   W96
@  #06 @051   ----------------------------------------
 .byte   W96
@  #06 @052   ----------------------------------------
 .byte   W96
@  #06 @053   ----------------------------------------
 .byte   W96
@  #06 @054   ----------------------------------------
 .byte   W96
@  #06 @055   ----------------------------------------
 .byte   W96
@  #06 @056   ----------------------------------------
 .byte   PATT
  .word Label_54A91C
@  #06 @057   ----------------------------------------
 .byte   PATT
  .word Label_54A926
@  #06 @058   ----------------------------------------
 .byte   PATT
  .word Label_54A91C
@  #06 @059   ----------------------------------------
 .byte   PATT
  .word Label_54A937
@  #06 @060   ----------------------------------------
 .byte   PATT
  .word Label_54A91C
@  #06 @061   ----------------------------------------
 .byte   PATT
  .word Label_54A926
@  #06 @062   ----------------------------------------
 .byte   PATT
  .word Label_54A951
@  #06 @063   ----------------------------------------
 .byte   W96
@  #06 @064   ----------------------------------------
 .byte   EOT
 .byte   En2 ,v055
 .byte   Bn2 ,v062
@  #06 @065   ----------------------------------------
 .byte   PATT
  .word Label_54A963
@  #06 @066   ----------------------------------------
 .byte   PATT
  .word Label_54A96C
@  #06 @067   ----------------------------------------
 .byte   PATT
  .word Label_54A975
@  #06 @068   ----------------------------------------
 .byte   PATT
  .word Label_54A97E
@  #06 @069   ----------------------------------------
 .byte   PATT
  .word Label_54A963
@  #06 @070   ----------------------------------------
 .byte   PATT
  .word Label_54A96C
@  #06 @071   ----------------------------------------
 .byte   PATT
  .word Label_54A975
@  #06 @072   ----------------------------------------
 .byte   PATT
  .word Label_54A996
@  #06 @073   ----------------------------------------
 .byte   PATT
  .word Label_54A963
@  #06 @074   ----------------------------------------
 .byte   PATT
  .word Label_54A96C
@  #06 @075   ----------------------------------------
 .byte   PATT
  .word Label_54A975
@  #06 @076   ----------------------------------------
 .byte   PATT
  .word Label_54A97E
@  #06 @077   ----------------------------------------
 .byte   PATT
  .word Label_54A963
@  #06 @078   ----------------------------------------
 .byte   PATT
  .word Label_54A96C
@  #06 @079   ----------------------------------------
 .byte   PATT
  .word Label_54A975
@  #06 @080   ----------------------------------------
 .byte   PATT
  .word Label_54A996
@  #06 @081   ----------------------------------------
 .byte   W96
@  #06 @082   ----------------------------------------
 .byte   W96
@  #06 @083   ----------------------------------------
 .byte   W96
@  #06 @084   ----------------------------------------
 .byte   W96
@  #06 @085   ----------------------------------------
 .byte   W96
@  #06 @086   ----------------------------------------
 .byte   W96
@  #06 @087   ----------------------------------------
 .byte   W96
@  #06 @088   ----------------------------------------
 .byte   W96
@  #06 @089   ----------------------------------------
 .byte   W96
@  #06 @090   ----------------------------------------
 .byte   W96
@  #06 @091   ----------------------------------------
 .byte   W96
@  #06 @092   ----------------------------------------
 .byte   W96
@  #06 @093   ----------------------------------------
 .byte   W96
@  #06 @094   ----------------------------------------
 .byte   W96
@  #06 @095   ----------------------------------------
 .byte   W96
@  #06 @096   ----------------------------------------
 .byte   W96
@  #06 @097   ----------------------------------------
 .byte   PATT
  .word Label_54A951
@  #06 @098   ----------------------------------------
 .byte   W96
@  #06 @099   ----------------------------------------
 .byte   EOT
 .byte   En2 ,v055
 .byte   Bn2 ,v062
@  #06 @100   ----------------------------------------
 .byte   PATT
  .word Label_54A963
@  #06 @101   ----------------------------------------
 .byte   PATT
  .word Label_54A96C
@  #06 @102   ----------------------------------------
 .byte   PATT
  .word Label_54A975
@  #06 @103   ----------------------------------------
 .byte   PATT
  .word Label_54A97E
@  #06 @104   ----------------------------------------
 .byte   PATT
  .word Label_54A963
@  #06 @105   ----------------------------------------
 .byte   PATT
  .word Label_54A96C
@  #06 @106   ----------------------------------------
 .byte   PATT
  .word Label_54A975
@  #06 @107   ----------------------------------------
 .byte   PATT
  .word Label_54A996
@  #06 @108   ----------------------------------------
 .byte   PATT
  .word Label_54A963
@  #06 @109   ----------------------------------------
 .byte   PATT
  .word Label_54A96C
@  #06 @110   ----------------------------------------
 .byte   PATT
  .word Label_54A975
@  #06 @111   ----------------------------------------
 .byte   PATT
  .word Label_54A97E
@  #06 @112   ----------------------------------------
 .byte   PATT
  .word Label_54A963
@  #06 @113   ----------------------------------------
 .byte   PATT
  .word Label_54A96C
@  #06 @114   ----------------------------------------
 .byte   PATT
  .word Label_54A975
@  #06 @115   ----------------------------------------
 .byte   PATT
  .word Label_54A996
@  #06 @116   ----------------------------------------
 .byte   GOTO
  .word Label_54A908
@  #06 @117   ----------------------------------------
 .byte   W96
@  #06 @118   ----------------------------------------
 .byte   W96
@  #06 @119   ----------------------------------------
 .byte   W96
@  #06 @120   ----------------------------------------
 .byte   W96
@  #06 @121   ----------------------------------------
 .byte   W96
@  #06 @122   ----------------------------------------
 .byte   W96
@  #06 @123   ----------------------------------------
 .byte   W96
@  #06 @124   ----------------------------------------
 .byte   W96
 .byte   FINE

@**************** Track 7 (Midi-Chn.6) ****************@

song07_007:
@  #07 @000   ----------------------------------------
 .byte   VOL , 115*song07_mvl/mxv
 .byte   KEYSH , song07_key+0
Label_01161EB0:
 .byte   VOICE , 34
 .byte   PAN , c_v+11
 .byte   N18 ,En0 ,v056
 .byte   W24
 .byte   N12
 .byte   W12
 .byte   Fn0
 .byte   W24
 .byte   N12
 .byte   W24
 .byte   N12
 .byte   W12
@  #07 @001   ----------------------------------------
Label_01161EC0:
 .byte   N18 ,Gn0 ,v056
 .byte   W24
 .byte   N12
 .byte   W12
 .byte   Fn0
 .byte   W24
 .byte   N24
 .byte   W36
 .byte   PEND 
@  #07 @002   ----------------------------------------
Label_01161ECB:
 .byte   N24 ,En0 ,v056
 .byte   W36
 .byte   N12 ,Fn0
 .byte   W24
 .byte   N12
 .byte   W24
 .byte   N18 ,Gn0
 .byte   W12
 .byte   PEND 
@  #07 @003   ----------------------------------------
 .byte   W12
 .byte   N06
 .byte   W12
 .byte   N06
 .byte   W12
 .byte   An0
 .byte   W12
 .byte   N18
 .byte   W24
 .byte   N06
 .byte   W12
 .byte   N06
 .byte   W12
@  #07 @004   ----------------------------------------
Label_01161EE5:
 .byte   N18 ,En0 ,v056
 .byte   W24
 .byte   N12
 .byte   W12
 .byte   Fn0
 .byte   W24
 .byte   N12
 .byte   W24
 .byte   N12
 .byte   W12
 .byte   PEND 
@  #07 @005   ----------------------------------------
 .byte   PATT
  .word Label_01161EC0
@  #07 @006   ----------------------------------------
 .byte   PATT
  .word Label_01161ECB
@  #07 @007   ----------------------------------------
 .byte   W12
 .byte   N06 ,Gn0 ,v056
 .byte   W12
 .byte   N12 ,Dn1
 .byte   W12
 .byte   En1
 .byte   W12
 .byte   Cn1
 .byte   W12
 .byte   Bn0
 .byte   W12
 .byte   N24 ,Gn0
 .byte   W24
@  #07 @008   ----------------------------------------
Label_01161F0D:
 .byte   N18 ,An0 ,v056
 .byte   W24
 .byte   N06
 .byte   W12
 .byte   N18 ,En0
 .byte   W24
 .byte   N12
 .byte   W24
 .byte   N18
 .byte   W12
 .byte   PEND 
@  #07 @009   ----------------------------------------
Label_01161F1B:
 .byte   W12
 .byte   N12 ,En0 ,v056
 .byte   W24
 .byte   N12
 .byte   W12
 .byte   N24
 .byte   W24
 .byte   N12
 .byte   W12
 .byte   N12
 .byte   W12
 .byte   PEND 
@  #07 @010   ----------------------------------------
Label_01161F29:
 .byte   N24 ,Fn0 ,v056
 .byte   W36
 .byte   En0
 .byte   W24
 .byte   N12 ,Bn0
 .byte   W12
 .byte   En0
 .byte   W12
 .byte   N18
 .byte   W12
 .byte   PEND 
@  #07 @011   ----------------------------------------
Label_01161F37:
 .byte   W12
 .byte   N12 ,En0 ,v056
 .byte   W12
 .byte   Dn1
 .byte   W12
 .byte   En1
 .byte   W12
 .byte   Cn1
 .byte   W12
 .byte   Bn0
 .byte   W12
 .byte   An0
 .byte   W12
 .byte   Gn0
 .byte   W12
 .byte   PEND 
@  #07 @012   ----------------------------------------
 .byte   PATT
  .word Label_01161F0D
@  #07 @013   ----------------------------------------
Label_01161F4E:
 .byte   W12
 .byte   N12 ,En0 ,v056
 .byte   W12
 .byte   N06
 .byte   W12
 .byte   N18 ,Bn0
 .byte   W24
 .byte   Gn0
 .byte   W24
 .byte   N06 ,En1
 .byte   W12
 .byte   PEND 
@  #07 @014   ----------------------------------------
 .byte   PATT
  .word Label_01161F29
@  #07 @015   ----------------------------------------
 .byte   PATT
  .word Label_01161F37
@  #07 @016   ----------------------------------------
Label_01161F68:
 .byte   N24 ,An0 ,v056
 .byte   W36
 .byte   N36 ,En0
 .byte   W48
 .byte   N12
 .byte   W12
 .byte   PEND 
@  #07 @017   ----------------------------------------
Label_01161F72:
 .byte   W12
 .byte   N12 ,En0 ,v056
 .byte   W24
 .byte   N12
 .byte   W24
 .byte   N12
 .byte   W12
 .byte   N24
 .byte   W24
 .byte   PEND 
@  #07 @018   ----------------------------------------
Label_01161F7E:
 .byte   N24 ,Fn0 ,v056
 .byte   W36
 .byte   N12 ,En0
 .byte   W24
 .byte   Bn0
 .byte   W12
 .byte   N24 ,En0
 .byte   W24
 .byte   PEND 
@  #07 @019   ----------------------------------------
Label_01161F8B:
 .byte   W12
 .byte   N12 ,En1 ,v056
 .byte   W12
 .byte   Dn1
 .byte   W12
 .byte   En1
 .byte   W12
 .byte   An1
 .byte   W12
 .byte   Bn1
 .byte   W12
 .byte   Gn1
 .byte   W12
 .byte   Gn0
 .byte   W12
 .byte   PEND 
@  #07 @020   ----------------------------------------
Label_01161F9D:
 .byte   N24 ,An0 ,v056
 .byte   W36
 .byte   N12 ,En0
 .byte   W24
 .byte   N12
 .byte   W24
 .byte   N06
 .byte   W12
 .byte   PEND 
@  #07 @021   ----------------------------------------
Label_01161FA9:
 .byte   N12 ,En0 ,v056
 .byte   W24
 .byte   N06
 .byte   W12
 .byte   N24 ,Bn0
 .byte   W24
 .byte   N12 ,Gn0
 .byte   W12
 .byte   N18 ,Cs1
 .byte   W24
 .byte   PEND 
@  #07 @022   ----------------------------------------
Label_01161FB9:
 .byte   N18 ,Fs0 ,v056
 .byte   W24
 .byte   N06
 .byte   W12
 .byte   N12 ,Fn0
 .byte   W24
 .byte   N18 ,En0
 .byte   W24
 .byte   N18
 .byte   W12
 .byte   PEND 
@  #07 @023   ----------------------------------------
Label_01161FC8:
 .byte   W12
 .byte   N12 ,En0 ,v056
 .byte   W12
 .byte   N06
 .byte   W12
 .byte   N06
 .byte   W12
 .byte   N03 ,Ds1
 .byte   W03
 .byte   N21 ,Dn1
 .byte   W44
 .byte   W01
 .byte   PEND 
@  #07 @024   ----------------------------------------
Label_01161FD9:
 .byte   N24 ,An0 ,v056
 .byte   W24
 .byte   N12
 .byte   W12
 .byte   En0
 .byte   W12
 .byte   An0
 .byte   W12
 .byte   N12
 .byte   W12
 .byte   N12
 .byte   W12
 .byte   N24 ,En0
 .byte   W12
 .byte   PEND 
@  #07 @025   ----------------------------------------
Label_01161FEB:
 .byte   W12
 .byte   N12 ,En0 ,v056
 .byte   W12
 .byte   N12
 .byte   W12
 .byte   N12
 .byte   W12
 .byte   N12
 .byte   W12
 .byte   Cn0
 .byte   W12
 .byte   En0
 .byte   W12
 .byte   N12
 .byte   W12
 .byte   PEND 
@  #07 @026   ----------------------------------------
Label_01161FFD:
 .byte   N24 ,Fn0 ,v056
 .byte   W24
 .byte   N12
 .byte   W12
 .byte   N12
 .byte   W12
 .byte   N12
 .byte   W12
 .byte   Cn1
 .byte   W24
 .byte   N24 ,Gn0
 .byte   W12
 .byte   PEND 
@  #07 @027   ----------------------------------------
Label_0116200D:
 .byte   W12
 .byte   N12 ,Gn0 ,v056
 .byte   W12
 .byte   Dn1
 .byte   W12
 .byte   En1
 .byte   W12
 .byte   Cn1
 .byte   W12
 .byte   Bn0
 .byte   W12
 .byte   An0
 .byte   W12
 .byte   Gn0
 .byte   W12
 .byte   PEND 
@  #07 @028   ----------------------------------------
Label_0116201F:
 .byte   N24 ,An0 ,v056
 .byte   W24
 .byte   N12 ,En0
 .byte   W12
 .byte   An0
 .byte   W12
 .byte   N12
 .byte   W12
 .byte   N12
 .byte   W12
 .byte   N12
 .byte   W12
 .byte   N24 ,En0
 .byte   W12
 .byte   PEND 
@  #07 @029   ----------------------------------------
Label_01162032:
 .byte   W12
 .byte   N12 ,En0 ,v056
 .byte   W12
 .byte   En1
 .byte   W12
 .byte   Bn0
 .byte   W12
 .byte   N12
 .byte   W12
 .byte   N24 ,Gn0
 .byte   W24
 .byte   N12 ,En0
 .byte   W12
 .byte   PEND 
@  #07 @030   ----------------------------------------
Label_01162044:
 .byte   N24 ,Fn0 ,v056
 .byte   W24
 .byte   N12
 .byte   W12
 .byte   N12
 .byte   W12
 .byte   N12
 .byte   W12
 .byte   Cn1
 .byte   W12
 .byte   Fn1
 .byte   W12
 .byte   N24 ,Gn0
 .byte   W12
 .byte   PEND 
@  #07 @031   ----------------------------------------
Label_01162056:
 .byte   W12
 .byte   N12 ,Bn0 ,v056
 .byte   W12
 .byte   Dn1
 .byte   W12
 .byte   En1
 .byte   W12
 .byte   As0
 .byte   W24
 .byte   N03 ,Fs1
 .byte   W03
 .byte   N21 ,Fn1
 .byte   W21
 .byte   PEND 
@  #07 @032   ----------------------------------------
 .byte   PATT
  .word Label_01161FD9
@  #07 @033   ----------------------------------------
 .byte   PATT
  .word Label_01161FEB
@  #07 @034   ----------------------------------------
 .byte   PATT
  .word Label_01161FFD
@  #07 @035   ----------------------------------------
 .byte   PATT
  .word Label_0116200D
@  #07 @036   ----------------------------------------
 .byte   PATT
  .word Label_0116201F
@  #07 @037   ----------------------------------------
 .byte   PATT
  .word Label_01162032
@  #07 @038   ----------------------------------------
 .byte   PATT
  .word Label_01162044
@  #07 @039   ----------------------------------------
 .byte   PATT
  .word Label_01162056
@  #07 @040   ----------------------------------------
 .byte   PATT
  .word Label_01161EE5
@  #07 @041   ----------------------------------------
 .byte   PATT
  .word Label_01161EC0
@  #07 @042   ----------------------------------------
 .byte   PATT
  .word Label_01161ECB
@  #07 @043   ----------------------------------------
 .byte   W12
 .byte   N06 ,Gn0 ,v056
 .byte   W12
 .byte   N06
 .byte   W12
 .byte   An0
 .byte   W12
 .byte   N18
 .byte   W24
 .byte   N03 ,Fs1
 .byte   W03
 .byte   N21 ,Fn1
 .byte   W21
@  #07 @044   ----------------------------------------
 .byte   PATT
  .word Label_01161EE5
@  #07 @045   ----------------------------------------
 .byte   PATT
  .word Label_01161EC0
@  #07 @046   ----------------------------------------
 .byte   PATT
  .word Label_01161ECB
@  #07 @047   ----------------------------------------
 .byte   W12
 .byte   N12 ,Gn0 ,v056
 .byte   W24
 .byte   N12
 .byte   W36
 .byte   N03 ,Fs1
 .byte   W03
 .byte   N21 ,Fn1
 .byte   W21
@  #07 @048   ----------------------------------------
 .byte   PATT
  .word Label_01161F0D
@  #07 @049   ----------------------------------------
 .byte   PATT
  .word Label_01161F1B
@  #07 @050   ----------------------------------------
 .byte   PATT
  .word Label_01161F29
@  #07 @051   ----------------------------------------
 .byte   PATT
  .word Label_01161F37
@  #07 @052   ----------------------------------------
 .byte   PATT
  .word Label_01161F0D
@  #07 @053   ----------------------------------------
 .byte   PATT
  .word Label_01161F4E
@  #07 @054   ----------------------------------------
 .byte   PATT
  .word Label_01161F29
@  #07 @055   ----------------------------------------
 .byte   PATT
  .word Label_01161F37
@  #07 @056   ----------------------------------------
 .byte   PATT
  .word Label_01161F68
@  #07 @057   ----------------------------------------
 .byte   PATT
  .word Label_01161F72
@  #07 @058   ----------------------------------------
 .byte   PATT
  .word Label_01161F7E
@  #07 @059   ----------------------------------------
 .byte   PATT
  .word Label_01161F8B
@  #07 @060   ----------------------------------------
 .byte   PATT
  .word Label_01161F9D
@  #07 @061   ----------------------------------------
 .byte   PATT
  .word Label_01161FA9
@  #07 @062   ----------------------------------------
 .byte   PATT
  .word Label_01161FB9
@  #07 @063   ----------------------------------------
 .byte   PATT
  .word Label_01161FC8
@  #07 @064   ----------------------------------------
 .byte   PATT
  .word Label_01161FD9
@  #07 @065   ----------------------------------------
 .byte   PATT
  .word Label_01161FEB
@  #07 @066   ----------------------------------------
 .byte   PATT
  .word Label_01161FFD
@  #07 @067   ----------------------------------------
 .byte   PATT
  .word Label_0116200D
@  #07 @068   ----------------------------------------
 .byte   PATT
  .word Label_0116201F
@  #07 @069   ----------------------------------------
 .byte   PATT
  .word Label_01162032
@  #07 @070   ----------------------------------------
 .byte   PATT
  .word Label_01162044
@  #07 @071   ----------------------------------------
 .byte   PATT
  .word Label_01162056
@  #07 @072   ----------------------------------------
 .byte   PATT
  .word Label_01161FD9
@  #07 @073   ----------------------------------------
 .byte   PATT
  .word Label_01161FEB
@  #07 @074   ----------------------------------------
 .byte   PATT
  .word Label_01161FFD
@  #07 @075   ----------------------------------------
 .byte   PATT
  .word Label_0116200D
@  #07 @076   ----------------------------------------
 .byte   PATT
  .word Label_0116201F
@  #07 @077   ----------------------------------------
 .byte   PATT
  .word Label_01162032
@  #07 @078   ----------------------------------------
 .byte   PATT
  .word Label_01162044
@  #07 @079   ----------------------------------------
 .byte   PATT
  .word Label_01162056
@  #07 @080   ----------------------------------------
 .byte   N60 ,En0 ,v056
 .byte   W60
 .byte   TIE ,Bn0
 .byte   W36
@  #07 @081   ----------------------------------------
 .byte   W96
@  #07 @082   ----------------------------------------
 .byte   EOT
 .byte   N84 ,Cn1
 .byte   W84
 .byte   TIE ,Dn1
 .byte   W12
@  #07 @083   ----------------------------------------
 .byte   W96
@  #07 @084   ----------------------------------------
 .byte   EOT
 .byte   N84 ,En1
 .byte   W84
 .byte   TIE ,Bn0
 .byte   W12
@  #07 @085   ----------------------------------------
 .byte   W96
@  #07 @086   ----------------------------------------
 .byte   EOT
 .byte   N84 ,Gn0
 .byte   W84
 .byte   An0
 .byte   W12
@  #07 @087   ----------------------------------------
 .byte   W72
 .byte   N12 ,Dn1
 .byte   W12
 .byte   Cs1
 .byte   W12
@  #07 @088   ----------------------------------------
 .byte   N36 ,En1
 .byte   W36
 .byte   Bn0
 .byte   W36
 .byte   N12 ,En1
 .byte   W12
 .byte   N48 ,Bn0
 .byte   W12
@  #07 @089   ----------------------------------------
 .byte   W36
 .byte   N36 ,Fs1
 .byte   W36
 .byte   N24 ,Bn0
 .byte   W24
@  #07 @090   ----------------------------------------
 .byte   N36 ,Cn1
 .byte   W36
 .byte   N24 ,Gn1
 .byte   W24
 .byte   Cn1
 .byte   W24
 .byte   N36 ,Dn1
 .byte   W12
@  #07 @091   ----------------------------------------
 .byte   W24
 .byte   N12 ,Gn1
 .byte   W12
 .byte   An1
 .byte   W12
 .byte   Gn1
 .byte   W12
 .byte   Fs1
 .byte   W12
 .byte   N24 ,Dn1
 .byte   W24
@  #07 @092   ----------------------------------------
 .byte   N36 ,En1
 .byte   W36
 .byte   Bn0
 .byte   W36
 .byte   N12 ,En1
 .byte   W12
 .byte   N36 ,Bn0
 .byte   W12
@  #07 @093   ----------------------------------------
 .byte   W24
 .byte   N12 ,Fs1
 .byte   W12
 .byte   N24 ,Bn0
 .byte   W24
 .byte   N36
 .byte   W36
@  #07 @094   ----------------------------------------
 .byte   N24 ,Gn0
 .byte   W36
 .byte   N06
 .byte   W24
 .byte   N06
 .byte   W24
 .byte   N96 ,An0
 .byte   W12
@  #07 @095   ----------------------------------------
 .byte   W84
 .byte   N06 ,Cn1
 .byte   W06
 .byte   As0
 .byte   W06
@  #07 @096   ----------------------------------------
 .byte   N24 ,Fs1
 .byte   W36
 .byte   N12 ,Fn1
 .byte   W24
 .byte   N12
 .byte   W24
 .byte   N18 ,En1
 .byte   W12
@  #07 @097   ----------------------------------------
 .byte   W12
 .byte   N06
 .byte   W12
 .byte   N06
 .byte   W24
 .byte   N03 ,Ds1
 .byte   W03
 .byte   N21 ,Dn1
 .byte   W44
 .byte   W01
@  #07 @098   ----------------------------------------
 .byte   PATT
  .word Label_01161FD9
@  #07 @099   ----------------------------------------
 .byte   PATT
  .word Label_01161FEB
@  #07 @100   ----------------------------------------
 .byte   PATT
  .word Label_01161FFD
@  #07 @101   ----------------------------------------
 .byte   PATT
  .word Label_0116200D
@  #07 @102   ----------------------------------------
 .byte   PATT
  .word Label_0116201F
@  #07 @103   ----------------------------------------
 .byte   PATT
  .word Label_01162032
@  #07 @104   ----------------------------------------
 .byte   PATT
  .word Label_01162044
@  #07 @105   ----------------------------------------
 .byte   PATT
  .word Label_01162056
@  #07 @106   ----------------------------------------
 .byte   PATT
  .word Label_01161FD9
@  #07 @107   ----------------------------------------
 .byte   PATT
  .word Label_01161FEB
@  #07 @108   ----------------------------------------
 .byte   PATT
  .word Label_01161FFD
@  #07 @109   ----------------------------------------
 .byte   PATT
  .word Label_0116200D
@  #07 @110   ----------------------------------------
 .byte   PATT
  .word Label_0116201F
@  #07 @111   ----------------------------------------
 .byte   PATT
  .word Label_01162032
@  #07 @112   ----------------------------------------
 .byte   PATT
  .word Label_01162044
@  #07 @113   ----------------------------------------
 .byte   PATT
  .word Label_01162056
@  #07 @114   ----------------------------------------
 .byte   GOTO
  .word Label_01161EB0
@  #07 @115   ----------------------------------------
 .byte   N18 ,En0 ,v056
 .byte   W24
 .byte   N12
 .byte   W12
 .byte   Fn0 ,v052
 .byte   W24
 .byte   N12
 .byte   W24
 .byte   N12
 .byte   W12
@  #07 @116   ----------------------------------------
 .byte   N18 ,Gn0 ,v048
 .byte   W24
 .byte   N12
 .byte   W12
 .byte   Fn0
 .byte   W24
 .byte   N24 ,Fn0 ,v044
 .byte   W36
@  #07 @117   ----------------------------------------
 .byte   En0
 .byte   W36
 .byte   N12 ,Fn0 ,v040
 .byte   W24
 .byte   N12
 .byte   W24
 .byte   N18 ,Gn0 ,v036
 .byte   W12
@  #07 @118   ----------------------------------------
 .byte   W12
 .byte   N06
 .byte   W12
 .byte   Gn0 ,v032
 .byte   W12
 .byte   An0
 .byte   W12
 .byte   N18
 .byte   W24
 .byte   N06
 .byte   W12
 .byte   An0 ,v028
 .byte   W12
@  #07 @119   ----------------------------------------
 .byte   N18 ,En0
 .byte   W24
 .byte   N12
 .byte   W12
 .byte   Fn0
 .byte   W24
 .byte   Fn0 ,v024
 .byte   W24
 .byte   N12
 .byte   W12
@  #07 @120   ----------------------------------------
 .byte   N18 ,Gn0 ,v020
 .byte   W24
 .byte   N12
 .byte   W12
 .byte   Fn0
 .byte   W24
 .byte   N24 ,Fn0 ,v016
 .byte   W36
@  #07 @121   ----------------------------------------
 .byte   En0
 .byte   W36
 .byte   N12 ,Fn0 ,v012
 .byte   W24
 .byte   N12
 .byte   W24
 .byte   N18 ,Gn0 ,v008
 .byte   W12
@  #07 @122   ----------------------------------------
 .byte   W12
 .byte   N06
 .byte   W12
 .byte   N12 ,Dn1
 .byte   W12
 .byte   En1 ,v004
 .byte   W12
 .byte   Cn1
 .byte   W12
 .byte   Bn0
 .byte   W12
 .byte   N24 ,Gn0
 .byte   W24
 .byte   FINE

@**************** Track 8 (Midi-Chn.7) ****************@

song07_008:
@  #08 @000   ----------------------------------------
 .byte   VOL , 100*song07_mvl/mxv
 .byte   KEYSH , song07_key+0
Label_54AD44:
 .byte   VOICE , 20
 .byte   PAN , c_v-7
 .byte   W96
@  #08 @001   ----------------------------------------
 .byte   W96
@  #08 @002   ----------------------------------------
 .byte   W96
@  #08 @003   ----------------------------------------
 .byte   W96
@  #08 @004   ----------------------------------------
 .byte   W96
@  #08 @005   ----------------------------------------
 .byte   W96
@  #08 @006   ----------------------------------------
 .byte   W96
@  #08 @007   ----------------------------------------
 .byte   W96
@  #08 @008   ----------------------------------------
 .byte   W96
@  #08 @009   ----------------------------------------
Label_54AD51:
 .byte   N48 ,En4 ,v012
 .byte   N48 ,Gn4
 .byte   N48 ,Gs4
 .byte   N48 ,Bn4
 .byte   W96
 .byte   PEND 
@  #08 @010   ----------------------------------------
 .byte   W96
@  #08 @011   ----------------------------------------
 .byte   PATT
  .word Label_54AD51
@  #08 @012   ----------------------------------------
 .byte   W96
@  #08 @013   ----------------------------------------
 .byte   PATT
  .word Label_54AD51
@  #08 @014   ----------------------------------------
 .byte   W96
@  #08 @015   ----------------------------------------
 .byte   PATT
  .word Label_54AD51
@  #08 @016   ----------------------------------------
Label_54AD6E:
 .byte   N12 ,En2 ,v016
 .byte   N12 ,En3
 .byte   W12
 .byte   Dn2
 .byte   N12 ,Dn3
 .byte   W12
 .byte   En2
 .byte   N12 ,En3
 .byte   W72
 .byte   PEND 
@  #08 @017   ----------------------------------------
 .byte   W96
@  #08 @018   ----------------------------------------
 .byte   PATT
  .word Label_54AD6E
@  #08 @019   ----------------------------------------
 .byte   W96
@  #08 @020   ----------------------------------------
 .byte   PATT
  .word Label_54AD6E
@  #08 @021   ----------------------------------------
 .byte   W96
@  #08 @022   ----------------------------------------
 .byte   W96
@  #08 @023   ----------------------------------------
 .byte   W96
@  #08 @024   ----------------------------------------
 .byte   W96
@  #08 @025   ----------------------------------------
 .byte   W96
@  #08 @026   ----------------------------------------
 .byte   W96
@  #08 @027   ----------------------------------------
 .byte   W96
@  #08 @028   ----------------------------------------
 .byte   W96
@  #08 @029   ----------------------------------------
 .byte   W96
@  #08 @030   ----------------------------------------
 .byte   W96
@  #08 @031   ----------------------------------------
 .byte   W96
@  #08 @032   ----------------------------------------
 .byte   W96
@  #08 @033   ----------------------------------------
 .byte   W96
@  #08 @034   ----------------------------------------
 .byte   W96
@  #08 @035   ----------------------------------------
 .byte   W96
@  #08 @036   ----------------------------------------
 .byte   W96
@  #08 @037   ----------------------------------------
 .byte   W96
@  #08 @038   ----------------------------------------
 .byte   W96
@  #08 @039   ----------------------------------------
 .byte   W96
@  #08 @040   ----------------------------------------
 .byte   W96
@  #08 @041   ----------------------------------------
 .byte   W96
@  #08 @042   ----------------------------------------
 .byte   W96
@  #08 @043   ----------------------------------------
 .byte   W96
@  #08 @044   ----------------------------------------
 .byte   W96
@  #08 @045   ----------------------------------------
 .byte   W96
@  #08 @046   ----------------------------------------
 .byte   W96
@  #08 @047   ----------------------------------------
 .byte   W96
@  #08 @048   ----------------------------------------
 .byte   W96
@  #08 @049   ----------------------------------------
 .byte   PATT
  .word Label_54AD51
@  #08 @050   ----------------------------------------
 .byte   W96
@  #08 @051   ----------------------------------------
 .byte   PATT
  .word Label_54AD51
@  #08 @052   ----------------------------------------
 .byte   W96
@  #08 @053   ----------------------------------------
 .byte   PATT
  .word Label_54AD51
@  #08 @054   ----------------------------------------
 .byte   W96
@  #08 @055   ----------------------------------------
 .byte   PATT
  .word Label_54AD51
@  #08 @056   ----------------------------------------
 .byte   PATT
  .word Label_54AD6E
@  #08 @057   ----------------------------------------
 .byte   W96
@  #08 @058   ----------------------------------------
 .byte   PATT
  .word Label_54AD6E
@  #08 @059   ----------------------------------------
 .byte   W96
@  #08 @060   ----------------------------------------
 .byte   PATT
  .word Label_54AD6E
@  #08 @061   ----------------------------------------
 .byte   W96
@  #08 @062   ----------------------------------------
 .byte   W96
@  #08 @063   ----------------------------------------
 .byte   W96
@  #08 @064   ----------------------------------------
 .byte   W96
@  #08 @065   ----------------------------------------
 .byte   W96
@  #08 @066   ----------------------------------------
 .byte   W96
@  #08 @067   ----------------------------------------
 .byte   W96
@  #08 @068   ----------------------------------------
 .byte   W96
@  #08 @069   ----------------------------------------
 .byte   W96
@  #08 @070   ----------------------------------------
 .byte   W96
@  #08 @071   ----------------------------------------
 .byte   W96
@  #08 @072   ----------------------------------------
 .byte   W96
@  #08 @073   ----------------------------------------
 .byte   W96
@  #08 @074   ----------------------------------------
 .byte   W96
@  #08 @075   ----------------------------------------
 .byte   W96
@  #08 @076   ----------------------------------------
 .byte   W96
@  #08 @077   ----------------------------------------
 .byte   W96
@  #08 @078   ----------------------------------------
 .byte   W96
@  #08 @079   ----------------------------------------
 .byte   W96
@  #08 @080   ----------------------------------------
 .byte   W96
@  #08 @081   ----------------------------------------
 .byte   W96
@  #08 @082   ----------------------------------------
 .byte   W96
@  #08 @083   ----------------------------------------
 .byte   W96
@  #08 @084   ----------------------------------------
 .byte   W96
@  #08 @085   ----------------------------------------
 .byte   W96
@  #08 @086   ----------------------------------------
 .byte   W96
@  #08 @087   ----------------------------------------
 .byte   W24
 .byte   N12 ,Bn2 ,v024
 .byte   W12
 .byte   Dn3
 .byte   W12
 .byte   Cn3
 .byte   W12
 .byte   Bn2
 .byte   W12
 .byte   N24 ,Gn2
 .byte   W24
@  #08 @088   ----------------------------------------
 .byte   W96
@  #08 @089   ----------------------------------------
 .byte   W96
@  #08 @090   ----------------------------------------
 .byte   W96
@  #08 @091   ----------------------------------------
 .byte   W96
@  #08 @092   ----------------------------------------
 .byte   W96
@  #08 @093   ----------------------------------------
 .byte   W96
@  #08 @094   ----------------------------------------
 .byte   W96
@  #08 @095   ----------------------------------------
 .byte   W96
@  #08 @096   ----------------------------------------
 .byte   W96
@  #08 @097   ----------------------------------------
 .byte   W96
@  #08 @098   ----------------------------------------
 .byte   W96
@  #08 @099   ----------------------------------------
 .byte   W96
@  #08 @100   ----------------------------------------
 .byte   W96
@  #08 @101   ----------------------------------------
 .byte   W96
@  #08 @102   ----------------------------------------
 .byte   W96
@  #08 @103   ----------------------------------------
 .byte   W96
@  #08 @104   ----------------------------------------
 .byte   W96
@  #08 @105   ----------------------------------------
 .byte   W96
@  #08 @106   ----------------------------------------
 .byte   W96
@  #08 @107   ----------------------------------------
 .byte   W96
@  #08 @108   ----------------------------------------
 .byte   W96
@  #08 @109   ----------------------------------------
 .byte   W96
@  #08 @110   ----------------------------------------
 .byte   W96
@  #08 @111   ----------------------------------------
 .byte   W96
@  #08 @112   ----------------------------------------
 .byte   W96
@  #08 @113   ----------------------------------------
 .byte   W96
@  #08 @114   ----------------------------------------
 .byte   GOTO
  .word Label_54AD44
@  #08 @115   ----------------------------------------
 .byte   W96
@  #08 @116   ----------------------------------------
 .byte   W96
@  #08 @117   ----------------------------------------
 .byte   W96
@  #08 @118   ----------------------------------------
 .byte   W96
@  #08 @119   ----------------------------------------
 .byte   W96
@  #08 @120   ----------------------------------------
 .byte   W96
@  #08 @121   ----------------------------------------
 .byte   W96
@  #08 @122   ----------------------------------------
 .byte   W96
 .byte   FINE

@******************************************************@
	.align	2

song07:
	.byte	8	@ NumTrks
	.byte	0	@ NumBlks
	.byte	song07_pri	@ Priority
	.byte	song07_rev	@ Reverb.
    
	.word	song07_grp
    
	.word	song07_001
	.word	song07_002
	.word	song07_003
	.word	song07_004
	.word	song07_005
	.word	song07_006
	.word	song07_007
	.word	song07_008

	.end
